<?xml version="1.0" encoding="UTF-8" standalone="no"?>
<!DOCTYPE svg PUBLIC "-//W3C//DTD SVG 1.1//EN"
 "http://www.w3.org/Graphics/SVG/1.1/DTD/svg11.dtd">
<!-- Generated by graphviz version 12.2.1 (20241206.2353)
 -->
<!-- Title: FIEAGameEngine/include/Content/Actions/Action.h Pages: 1 -->
<svg width="2149pt" height="268pt"
 viewBox="0.00 0.00 2148.88 268.00" xmlns="http://www.w3.org/2000/svg" xmlns:xlink="http://www.w3.org/1999/xlink">
<g id="graph0" class="graph" transform="scale(1 1) rotate(0) translate(4 264)">
<title>FIEAGameEngine/include/Content/Actions/Action.h</title>
<!-- Node1 -->
<g id="Node000001" class="node">
<title>Node1</title>
<g id="a_Node000001"><a xlink:title=" ">
<polygon fill="#999999" stroke="#666666" points="1225.25,-260 1096.75,-260 1096.75,-228 1225.25,-228 1225.25,-260"/>
<text text-anchor="start" x="1104.75" y="-246.5" font-family="Helvetica,sans-Serif" font-size="10.00">FIEAGameEngine/include</text>
<text text-anchor="middle" x="1161" y="-234.5" font-family="Helvetica,sans-Serif" font-size="10.00">/Content/Actions/Action.h</text>
</a>
</g>
</g>
<!-- Node2 -->
<g id="Node000002" class="node">
<title>Node2</title>
<g id="a_Node000002"><a xlink:href="_action_list_8h.html" target="_top" xlink:title=" ">
<polygon fill="white" stroke="#666666" points="1008.12,-192 863.88,-192 863.88,-160 1008.12,-160 1008.12,-192"/>
<text text-anchor="start" x="871.88" y="-178.5" font-family="Helvetica,sans-Serif" font-size="10.00">FIEAGameEngine/include</text>
<text text-anchor="middle" x="936" y="-166.5" font-family="Helvetica,sans-Serif" font-size="10.00">/Content/Actions/ActionList.h</text>
</a>
</g>
</g>
<!-- Node1&#45;&gt;Node2 -->
<g id="edge1_Node000001_Node000002" class="edge">
<title>Node1&#45;&gt;Node2</title>
<g id="a_edge1_Node000001_Node000002"><a xlink:title=" ">
<path fill="none" stroke="#63b8ff" d="M1097.4,-224.34C1063.11,-214.28 1021.29,-202.02 988.81,-192.49"/>
<polygon fill="#63b8ff" stroke="#63b8ff" points="1096.21,-227.64 1106.8,-227.1 1098.18,-220.93 1096.21,-227.64"/>
</a>
</g>
</g>
<!-- Node10 -->
<g id="Node000010" class="node">
<title>Node10</title>
<g id="a_Node000010"><a xlink:href="_action_handler_8cpp.html" target="_top" xlink:title=" ">
<polygon fill="white" stroke="#666666" points="1679.25,-38 1544.75,-38 1544.75,-6 1679.25,-6 1679.25,-38"/>
<text text-anchor="start" x="1552.75" y="-24.5" font-family="Helvetica,sans-Serif" font-size="10.00">FIEAGameEngine/src</text>
<text text-anchor="middle" x="1612" y="-12.5" font-family="Helvetica,sans-Serif" font-size="10.00">/content/ActionHandler.cpp</text>
</a>
</g>
</g>
<!-- Node1&#45;&gt;Node10 -->
<g id="edge40_Node000001_Node000010" class="edge">
<title>Node1&#45;&gt;Node10</title>
<g id="a_edge40_Node000001_Node000010"><a xlink:title=" ">
<path fill="none" stroke="#63b8ff" d="M1236.72,-234.82C1356.12,-220.18 1579.49,-185.17 1627,-124 1646.36,-99.08 1631.54,-59.98 1620.72,-38.47"/>
<polygon fill="#63b8ff" stroke="#63b8ff" points="1236.51,-231.32 1227,-235.99 1237.35,-238.26 1236.51,-231.32"/>
</a>
</g>
</g>
<!-- Node14 -->
<g id="Node000014" class="node">
<title>Node14</title>
<g id="a_Node000014"><a xlink:href="_increment_action_8h.html" target="_top" xlink:title=" ">
<polygon fill="white" stroke="#666666" points="172,-118 0,-118 0,-86 172,-86 172,-118"/>
<text text-anchor="start" x="8" y="-104.5" font-family="Helvetica,sans-Serif" font-size="10.00">FIEAGameEngine/include</text>
<text text-anchor="middle" x="86" y="-92.5" font-family="Helvetica,sans-Serif" font-size="10.00">/Content/Actions/IncrementAction.h</text>
</a>
</g>
</g>
<!-- Node1&#45;&gt;Node14 -->
<g id="edge21_Node000001_Node000014" class="edge">
<title>Node1&#45;&gt;Node14</title>
<g id="a_edge21_Node000001_Node000014"><a xlink:title=" ">
<path fill="none" stroke="#63b8ff" d="M1085.18,-238.27C974.37,-230.91 761.8,-215.13 582,-192 402.71,-168.94 358.42,-158.63 181,-124 172.3,-122.3 163.17,-120.42 154.15,-118.49"/>
<polygon fill="#63b8ff" stroke="#63b8ff" points="1084.84,-241.75 1095.05,-238.92 1085.3,-234.77 1084.84,-241.75"/>
</a>
</g>
</g>
<!-- Node16 -->
<g id="Node000016" class="node">
<title>Node16</title>
<g id="a_Node000016"><a xlink:href="_integer_conditional_action_8h.html" target="_top" xlink:title=" ">
<polygon fill="white" stroke="#666666" points="361.62,-124 190.38,-124 190.38,-80 361.62,-80 361.62,-124"/>
<text text-anchor="start" x="198.38" y="-110.5" font-family="Helvetica,sans-Serif" font-size="10.00">FIEAGameEngine/include</text>
<text text-anchor="start" x="198.38" y="-98.5" font-family="Helvetica,sans-Serif" font-size="10.00">/Content/Actions/IntegerConditional</text>
<text text-anchor="middle" x="276" y="-86.5" font-family="Helvetica,sans-Serif" font-size="10.00">Action.h</text>
</a>
</g>
</g>
<!-- Node1&#45;&gt;Node16 -->
<g id="edge25_Node000001_Node000016" class="edge">
<title>Node1&#45;&gt;Node16</title>
<g id="a_edge25_Node000001_Node000016"><a xlink:title=" ">
<path fill="none" stroke="#63b8ff" d="M1085.32,-233.42C944.16,-215.16 631.34,-172.79 370,-124 367.37,-123.51 364.7,-123 362.01,-122.47"/>
<polygon fill="#63b8ff" stroke="#63b8ff" points="1084.54,-236.85 1094.9,-234.66 1085.43,-229.91 1084.54,-236.85"/>
</a>
</g>
</g>
<!-- Node18 -->
<g id="Node000018" class="node">
<title>Node18</title>
<g id="a_Node000018"><a xlink:href="_preamble_action_8h.html" target="_top" xlink:title=" ">
<polygon fill="white" stroke="#666666" points="1188.88,-118 1019.12,-118 1019.12,-86 1188.88,-86 1188.88,-118"/>
<text text-anchor="start" x="1027.12" y="-104.5" font-family="Helvetica,sans-Serif" font-size="10.00">FIEAGameEngine/include</text>
<text text-anchor="middle" x="1104" y="-92.5" font-family="Helvetica,sans-Serif" font-size="10.00">/Content/Actions/PreambleAction.h</text>
</a>
</g>
</g>
<!-- Node1&#45;&gt;Node18 -->
<g id="edge29_Node000001_Node000018" class="edge">
<title>Node1&#45;&gt;Node18</title>
<g id="a_edge29_Node000001_Node000018"><a xlink:title=" ">
<path fill="none" stroke="#63b8ff" d="M1183.31,-218.85C1196.1,-201.95 1207.68,-179.08 1197,-160 1186.27,-140.83 1166.17,-127.33 1147.39,-118.3"/>
<polygon fill="#63b8ff" stroke="#63b8ff" points="1180.77,-216.43 1177.17,-226.39 1186.2,-220.85 1180.77,-216.43"/>
</a>
</g>
</g>
<!-- Node20 -->
<g id="Node000020" class="node">
<title>Node20</title>
<g id="a_Node000020"><a xlink:href="_game_object_8h.html" target="_top" xlink:title=" ">
<polygon fill="white" stroke="#666666" points="1842.25,-118 1713.75,-118 1713.75,-86 1842.25,-86 1842.25,-118"/>
<text text-anchor="start" x="1721.75" y="-104.5" font-family="Helvetica,sans-Serif" font-size="10.00">FIEAGameEngine/include</text>
<text text-anchor="middle" x="1778" y="-92.5" font-family="Helvetica,sans-Serif" font-size="10.00">/Content/GameObject.h</text>
</a>
</g>
</g>
<!-- Node1&#45;&gt;Node20 -->
<g id="edge33_Node000001_Node000020" class="edge">
<title>Node1&#45;&gt;Node20</title>
<g id="a_edge33_Node000001_Node000020"><a xlink:title=" ">
<path fill="none" stroke="#63b8ff" d="M1236.64,-242.5C1396.06,-240.67 1755.02,-232.09 1792,-192 1810.45,-172 1797.35,-138.07 1787.07,-118.39"/>
<polygon fill="#63b8ff" stroke="#63b8ff" points="1236.98,-239 1227.02,-242.61 1237.06,-246 1236.98,-239"/>
</a>
</g>
</g>
<!-- Node24 -->
<g id="Node000024" class="node">
<title>Node24</title>
<g id="a_Node000024"><a xlink:href="_action_8cpp.html" target="_top" xlink:title=" ">
<polygon fill="white" stroke="#666666" points="1782.62,-192 1647.38,-192 1647.38,-160 1782.62,-160 1782.62,-192"/>
<text text-anchor="start" x="1655.38" y="-178.5" font-family="Helvetica,sans-Serif" font-size="10.00">FIEAGameEngine/src</text>
<text text-anchor="middle" x="1715" y="-166.5" font-family="Helvetica,sans-Serif" font-size="10.00">/content/actions/Action.cpp</text>
</a>
</g>
</g>
<!-- Node1&#45;&gt;Node24 -->
<g id="edge41_Node000001_Node000024" class="edge">
<title>Node1&#45;&gt;Node24</title>
<g id="a_edge41_Node000001_Node000024"><a xlink:title=" ">
<path fill="none" stroke="#63b8ff" d="M1237.02,-236.51C1330.48,-228.14 1493.82,-212.22 1633,-192 1637.58,-191.33 1642.3,-190.6 1647.05,-189.83"/>
<polygon fill="#63b8ff" stroke="#63b8ff" points="1236.86,-233.02 1227.21,-237.39 1237.48,-239.99 1236.86,-233.02"/>
</a>
</g>
</g>
<!-- Node25 -->
<g id="Node000025" class="node">
<title>Node25</title>
<g id="a_Node000025"><a xlink:href="_action_add_datum_8h.html" target="_top" xlink:title=" ">
<polygon fill="white" stroke="#666666" points="1188.12,-186 1025.88,-186 1025.88,-166 1188.12,-166 1188.12,-186"/>
<text text-anchor="middle" x="1107" y="-172.5" font-family="Helvetica,sans-Serif" font-size="10.00">Tests/Support/ActionAddDatum.h</text>
</a>
</g>
</g>
<!-- Node1&#45;&gt;Node25 -->
<g id="edge42_Node000001_Node000025" class="edge">
<title>Node1&#45;&gt;Node25</title>
<g id="a_edge42_Node000001_Node000025"><a xlink:title=" ">
<path fill="none" stroke="#63b8ff" d="M1141.39,-219.04C1132.11,-207.69 1121.56,-194.8 1114.62,-186.32"/>
<polygon fill="#63b8ff" stroke="#63b8ff" points="1138.48,-221 1147.52,-226.52 1143.89,-216.57 1138.48,-221"/>
</a>
</g>
</g>
<!-- Node3 -->
<g id="Node000003" class="node">
<title>Node3</title>
<g id="a_Node000003"><a xlink:href="_delayed_action_8h.html" target="_top" xlink:title=" ">
<polygon fill="white" stroke="#666666" points="963.25,-118 798.75,-118 798.75,-86 963.25,-86 963.25,-118"/>
<text text-anchor="start" x="806.75" y="-104.5" font-family="Helvetica,sans-Serif" font-size="10.00">FIEAGameEngine/include</text>
<text text-anchor="middle" x="881" y="-92.5" font-family="Helvetica,sans-Serif" font-size="10.00">/Content/Actions/DelayedAction.h</text>
</a>
</g>
</g>
<!-- Node2&#45;&gt;Node3 -->
<g id="edge2_Node000002_Node000003" class="edge">
<title>Node2&#45;&gt;Node3</title>
<g id="a_edge2_Node000002_Node000003"><a xlink:title=" ">
<path fill="none" stroke="#63b8ff" d="M917.51,-150.79C909.29,-140.03 899.86,-127.69 892.65,-118.25"/>
<polygon fill="#63b8ff" stroke="#63b8ff" points="914.57,-152.71 923.42,-158.53 920.13,-148.46 914.57,-152.71"/>
</a>
</g>
</g>
<!-- Node5 -->
<g id="Node000005" class="node">
<title>Node5</title>
<g id="a_Node000005"><a xlink:href="_action_test_8cpp.html" target="_top" xlink:title=" ">
<polygon fill="white" stroke="#666666" points="658.12,-32 549.88,-32 549.88,-12 658.12,-12 658.12,-32"/>
<text text-anchor="middle" x="604" y="-18.5" font-family="Helvetica,sans-Serif" font-size="10.00">Tests/ActionTest.cpp</text>
</a>
</g>
</g>
<!-- Node2&#45;&gt;Node5 -->
<g id="edge19_Node000002_Node000005" class="edge">
<title>Node2&#45;&gt;Node5</title>
<g id="a_edge19_Node000002_Node000005"><a xlink:title=" ">
<path fill="none" stroke="#63b8ff" d="M852.42,-168.8C752.3,-160.51 595.75,-144.46 578,-124 554.62,-97.06 582.62,-51.77 596.77,-32.33"/>
<polygon fill="#63b8ff" stroke="#63b8ff" points="851.97,-172.28 862.22,-169.6 852.54,-165.3 851.97,-172.28"/>
</a>
</g>
</g>
<!-- Node6 -->
<g id="Node000006" class="node">
<title>Node6</title>
<g id="a_Node000006"><a xlink:href="_serialization_tests_8cpp.html" target="_top" xlink:title=" ">
<polygon fill="white" stroke="#666666" points="1004.5,-32 865.5,-32 865.5,-12 1004.5,-12 1004.5,-32"/>
<text text-anchor="middle" x="935" y="-18.5" font-family="Helvetica,sans-Serif" font-size="10.00">Tests/SerializationTests.cpp</text>
</a>
</g>
</g>
<!-- Node2&#45;&gt;Node6 -->
<g id="edge20_Node000002_Node000006" class="edge">
<title>Node2&#45;&gt;Node6</title>
<g id="a_edge20_Node000002_Node000006"><a xlink:title=" ">
<path fill="none" stroke="#63b8ff" d="M957.6,-150.84C963.44,-142.85 968.97,-133.55 972,-124 977.92,-105.36 977.55,-98.75 972,-80 966.44,-61.22 952.53,-42.83 943.44,-32.22"/>
<polygon fill="#63b8ff" stroke="#63b8ff" points="954.87,-148.65 951.42,-158.67 960.36,-152.99 954.87,-148.65"/>
</a>
</g>
</g>
<!-- Node7 -->
<g id="Node000007" class="node">
<title>Node7</title>
<g id="a_Node000007"><a xlink:href="_timed_action_8h.html" target="_top" xlink:title=" ">
<polygon fill="white" stroke="#666666" points="742.75,-118 587.25,-118 587.25,-86 742.75,-86 742.75,-118"/>
<text text-anchor="start" x="595.25" y="-104.5" font-family="Helvetica,sans-Serif" font-size="10.00">FIEAGameEngine/include</text>
<text text-anchor="middle" x="665" y="-92.5" font-family="Helvetica,sans-Serif" font-size="10.00">/Content/Actions/TimedAction.h</text>
</a>
</g>
</g>
<!-- Node2&#45;&gt;Node7 -->
<g id="edge6_Node000002_Node000007" class="edge">
<title>Node2&#45;&gt;Node7</title>
<g id="a_edge6_Node000002_Node000007"><a xlink:title=" ">
<path fill="none" stroke="#63b8ff" d="M866.84,-156.63C822.34,-144.8 765.17,-129.61 723.04,-118.42"/>
<polygon fill="#63b8ff" stroke="#63b8ff" points="865.84,-159.98 876.4,-159.17 867.63,-153.22 865.84,-159.98"/>
</a>
</g>
</g>
<!-- Node9 -->
<g id="Node000009" class="node">
<title>Node9</title>
<g id="a_Node000009"><a xlink:href="_while_action_list_8h.html" target="_top" xlink:title=" ">
<polygon fill="white" stroke="#666666" points="1351.5,-124 1206.5,-124 1206.5,-80 1351.5,-80 1351.5,-124"/>
<text text-anchor="start" x="1214.5" y="-110.5" font-family="Helvetica,sans-Serif" font-size="10.00">FIEAGameEngine/include</text>
<text text-anchor="start" x="1214.5" y="-98.5" font-family="Helvetica,sans-Serif" font-size="10.00">/Content/Actions/WhileAction</text>
<text text-anchor="middle" x="1279" y="-86.5" font-family="Helvetica,sans-Serif" font-size="10.00">List.h</text>
</a>
</g>
</g>
<!-- Node2&#45;&gt;Node9 -->
<g id="edge10_Node000002_Node000009" class="edge">
<title>Node2&#45;&gt;Node9</title>
<g id="a_edge10_Node000002_Node000009"><a xlink:title=" ">
<path fill="none" stroke="#63b8ff" d="M1019.77,-159.27C1083.14,-147.26 1164.75,-131.54 1198,-124 1200.69,-123.39 1203.43,-122.75 1206.19,-122.1"/>
<polygon fill="#63b8ff" stroke="#63b8ff" points="1019.23,-155.81 1010.05,-161.11 1020.53,-162.69 1019.23,-155.81"/>
</a>
</g>
</g>
<!-- Node2&#45;&gt;Node10 -->
<g id="edge16_Node000002_Node000010" class="edge">
<title>Node2&#45;&gt;Node10</title>
<g id="a_edge16_Node000002_Node000010"><a xlink:title=" ">
<path fill="none" stroke="#63b8ff" d="M1019.74,-159.86C1117.42,-149.21 1322.05,-159.4 1395,-124 1419.32,-112.2 1414.12,-94.4 1437,-80 1447.75,-73.23 1512.65,-52.88 1560.3,-38.43"/>
<polygon fill="#63b8ff" stroke="#63b8ff" points="1019.37,-156.38 1009.87,-161.09 1020.23,-163.33 1019.37,-156.38"/>
</a>
</g>
</g>
<!-- Node11 -->
<g id="Node000011" class="node">
<title>Node11</title>
<g id="a_Node000011"><a xlink:href="_action_list_handler_8cpp.html" target="_top" xlink:title=" ">
<polygon fill="white" stroke="#666666" points="1527.12,-38 1376.88,-38 1376.88,-6 1527.12,-6 1527.12,-38"/>
<text text-anchor="start" x="1384.88" y="-24.5" font-family="Helvetica,sans-Serif" font-size="10.00">FIEAGameEngine/src</text>
<text text-anchor="middle" x="1452" y="-12.5" font-family="Helvetica,sans-Serif" font-size="10.00">/content/ActionListHandler.cpp</text>
</a>
</g>
</g>
<!-- Node2&#45;&gt;Node11 -->
<g id="edge17_Node000002_Node000011" class="edge">
<title>Node2&#45;&gt;Node11</title>
<g id="a_edge17_Node000002_Node000011"><a xlink:title=" ">
<path fill="none" stroke="#63b8ff" d="M1019.63,-159.87C1109.59,-149.74 1295.38,-157.4 1361,-124 1371.04,-118.89 1416.76,-65.18 1439.32,-38.24"/>
<polygon fill="#63b8ff" stroke="#63b8ff" points="1019.35,-156.37 1009.88,-161.11 1020.24,-163.32 1019.35,-156.37"/>
</a>
</g>
</g>
<!-- Node13 -->
<g id="Node000013" class="node">
<title>Node13</title>
<g id="a_Node000013"><a xlink:href="_action_list_8cpp.html" target="_top" xlink:title=" ">
<polygon fill="white" stroke="#666666" points="530.5,-118 379.5,-118 379.5,-86 530.5,-86 530.5,-118"/>
<text text-anchor="start" x="387.5" y="-104.5" font-family="Helvetica,sans-Serif" font-size="10.00">FIEAGameEngine/src</text>
<text text-anchor="middle" x="455" y="-92.5" font-family="Helvetica,sans-Serif" font-size="10.00">/content/actions/ActionList.cpp</text>
</a>
</g>
</g>
<!-- Node2&#45;&gt;Node13 -->
<g id="edge18_Node000002_Node000013" class="edge">
<title>Node2&#45;&gt;Node13</title>
<g id="a_edge18_Node000002_Node000013"><a xlink:title=" ">
<path fill="none" stroke="#63b8ff" d="M852.2,-166.51C772.77,-157.89 650.29,-143.1 545,-124 536.16,-122.4 526.88,-120.49 517.78,-118.49"/>
<polygon fill="#63b8ff" stroke="#63b8ff" points="851.78,-169.99 862.1,-167.58 852.53,-163.03 851.78,-169.99"/>
</a>
</g>
</g>
<!-- Node4 -->
<g id="Node000004" class="node">
<title>Node4</title>
<g id="a_Node000004"><a xlink:href="_delayed_action_8cpp.html" target="_top" xlink:title=" ">
<polygon fill="white" stroke="#666666" points="847.62,-38 676.38,-38 676.38,-6 847.62,-6 847.62,-38"/>
<text text-anchor="start" x="684.38" y="-24.5" font-family="Helvetica,sans-Serif" font-size="10.00">FIEAGameEngine/src</text>
<text text-anchor="middle" x="762" y="-12.5" font-family="Helvetica,sans-Serif" font-size="10.00">/content/actions/DelayedAction.cpp</text>
</a>
</g>
</g>
<!-- Node3&#45;&gt;Node4 -->
<g id="edge3_Node000003_Node000004" class="edge">
<title>Node3&#45;&gt;Node4</title>
<g id="a_edge3_Node000003_Node000004"><a xlink:title=" ">
<path fill="none" stroke="#63b8ff" d="M847.91,-79.31C828.06,-66.3 803.3,-50.07 785.46,-38.38"/>
<polygon fill="#63b8ff" stroke="#63b8ff" points="845.94,-82.21 856.22,-84.76 849.78,-76.35 845.94,-82.21"/>
</a>
</g>
</g>
<!-- Node3&#45;&gt;Node5 -->
<g id="edge4_Node000003_Node000005" class="edge">
<title>Node3&#45;&gt;Node5</title>
<g id="a_edge4_Node000003_Node000005"><a xlink:title=" ">
<path fill="none" stroke="#63b8ff" d="M807.8,-82.69C766.32,-72.02 713.56,-57.95 667,-44 655.18,-40.46 642.24,-36.21 631.17,-32.46"/>
<polygon fill="#63b8ff" stroke="#63b8ff" points="806.89,-86.07 817.44,-85.16 808.63,-79.29 806.89,-86.07"/>
</a>
</g>
</g>
<!-- Node3&#45;&gt;Node6 -->
<g id="edge5_Node000003_Node000006" class="edge">
<title>Node3&#45;&gt;Node6</title>
<g id="a_edge5_Node000003_Node000006"><a xlink:title=" ">
<path fill="none" stroke="#63b8ff" d="M898.05,-76.38C908.36,-61.48 920.93,-43.32 928.43,-32.49"/>
<polygon fill="#63b8ff" stroke="#63b8ff" points="895.34,-74.13 892.53,-84.35 901.1,-78.12 895.34,-74.13"/>
</a>
</g>
</g>
<!-- Node7&#45;&gt;Node5 -->
<g id="edge8_Node000007_Node000005" class="edge">
<title>Node7&#45;&gt;Node5</title>
<g id="a_edge8_Node000007_Node000005"><a xlink:title=" ">
<path fill="none" stroke="#63b8ff" d="M646.08,-76.8C634.36,-61.83 619.98,-43.43 611.42,-32.49"/>
<polygon fill="#63b8ff" stroke="#63b8ff" points="643.1,-78.68 652.02,-84.4 648.61,-74.36 643.1,-78.68"/>
</a>
</g>
</g>
<!-- Node7&#45;&gt;Node6 -->
<g id="edge9_Node000007_Node000006" class="edge">
<title>Node7&#45;&gt;Node6</title>
<g id="a_edge9_Node000007_Node000006"><a xlink:title=" ">
<path fill="none" stroke="#63b8ff" d="M729.26,-82.44C783.65,-66.72 859.38,-44.85 902.15,-32.49"/>
<polygon fill="#63b8ff" stroke="#63b8ff" points="728.43,-79.03 719.8,-85.17 730.38,-85.76 728.43,-79.03"/>
</a>
</g>
</g>
<!-- Node8 -->
<g id="Node000008" class="node">
<title>Node8</title>
<g id="a_Node000008"><a xlink:href="_timed_action_8cpp.html" target="_top" xlink:title=" ">
<polygon fill="white" stroke="#666666" points="532.12,-38 369.88,-38 369.88,-6 532.12,-6 532.12,-38"/>
<text text-anchor="start" x="377.88" y="-24.5" font-family="Helvetica,sans-Serif" font-size="10.00">FIEAGameEngine/src</text>
<text text-anchor="middle" x="451" y="-12.5" font-family="Helvetica,sans-Serif" font-size="10.00">/content/actions/TimedAction.cpp</text>
</a>
</g>
</g>
<!-- Node7&#45;&gt;Node8 -->
<g id="edge7_Node000007_Node000008" class="edge">
<title>Node7&#45;&gt;Node8</title>
<g id="a_edge7_Node000007_Node000008"><a xlink:title=" ">
<path fill="none" stroke="#63b8ff" d="M612.22,-81.76C575.54,-68.39 527.31,-50.82 493.19,-38.38"/>
<polygon fill="#63b8ff" stroke="#63b8ff" points="610.7,-84.94 621.3,-85.07 613.1,-78.36 610.7,-84.94"/>
</a>
</g>
</g>
<!-- Node9&#45;&gt;Node5 -->
<g id="edge14_Node000009_Node000005" class="edge">
<title>Node9&#45;&gt;Node5</title>
<g id="a_edge14_Node000009_Node000005"><a xlink:title=" ">
<path fill="none" stroke="#63b8ff" d="M1195.07,-79.69C962.42,-43.62 895.45,-89.05 667,-44 653.65,-41.37 639.22,-36.7 627.55,-32.43"/>
<polygon fill="#63b8ff" stroke="#63b8ff" points="1194.36,-83.12 1204.78,-81.23 1195.46,-76.2 1194.36,-83.12"/>
</a>
</g>
</g>
<!-- Node9&#45;&gt;Node6 -->
<g id="edge15_Node000009_Node000006" class="edge">
<title>Node9&#45;&gt;Node6</title>
<g id="a_edge15_Node000009_Node000006"><a xlink:title=" ">
<path fill="none" stroke="#63b8ff" d="M1195.03,-79.39C1114.78,-61.6 1091.71,-61.91 1014,-44 999.06,-40.56 982.67,-36.28 968.71,-32.49"/>
<polygon fill="#63b8ff" stroke="#63b8ff" points="1194.19,-82.79 1204.72,-81.57 1195.73,-75.96 1194.19,-82.79"/>
</a>
</g>
</g>
<!-- Node9&#45;&gt;Node10 -->
<g id="edge11_Node000009_Node000010" class="edge">
<title>Node9&#45;&gt;Node10</title>
<g id="a_edge11_Node000009_Node000010"><a xlink:title=" ">
<path fill="none" stroke="#63b8ff" d="M1362.95,-83.52C1413.28,-72.75 1478.48,-58.31 1536,-44 1542.91,-42.28 1550.14,-40.39 1557.29,-38.48"/>
<polygon fill="#63b8ff" stroke="#63b8ff" points="1362.32,-80.07 1353.27,-85.58 1363.78,-86.92 1362.32,-80.07"/>
</a>
</g>
</g>
<!-- Node9&#45;&gt;Node11 -->
<g id="edge12_Node000009_Node000011" class="edge">
<title>Node9&#45;&gt;Node11</title>
<g id="a_edge12_Node000009_Node000011"><a xlink:title=" ">
<path fill="none" stroke="#63b8ff" d="M1336.71,-74.98C1363.56,-62.87 1394.58,-48.89 1417.68,-38.47"/>
<polygon fill="#63b8ff" stroke="#63b8ff" points="1335.33,-71.76 1327.65,-79.06 1338.21,-78.14 1335.33,-71.76"/>
</a>
</g>
</g>
<!-- Node12 -->
<g id="Node000012" class="node">
<title>Node12</title>
<g id="a_Node000012"><a xlink:href="_while_action_list_8cpp.html" target="_top" xlink:title=" ">
<polygon fill="white" stroke="#666666" points="1358.62,-44 1217.38,-44 1217.38,0 1358.62,0 1358.62,-44"/>
<text text-anchor="start" x="1225.38" y="-30.5" font-family="Helvetica,sans-Serif" font-size="10.00">FIEAGameEngine/src</text>
<text text-anchor="start" x="1225.38" y="-18.5" font-family="Helvetica,sans-Serif" font-size="10.00">/content/actions/WhileAction</text>
<text text-anchor="middle" x="1288" y="-6.5" font-family="Helvetica,sans-Serif" font-size="10.00">List.cpp</text>
</a>
</g>
</g>
<!-- Node9&#45;&gt;Node12 -->
<g id="edge13_Node000009_Node000012" class="edge">
<title>Node9&#45;&gt;Node12</title>
<g id="a_edge13_Node000009_Node000012"><a xlink:title=" ">
<path fill="none" stroke="#63b8ff" d="M1282.78,-68.25C1283.71,-60.15 1284.69,-51.68 1285.54,-44.29"/>
<polygon fill="#63b8ff" stroke="#63b8ff" points="1279.3,-67.85 1281.63,-78.18 1286.26,-68.65 1279.3,-67.85"/>
</a>
</g>
</g>
<!-- Node14&#45;&gt;Node5 -->
<g id="edge23_Node000014_Node000005" class="edge">
<title>Node14&#45;&gt;Node5</title>
<g id="a_edge23_Node000014_Node000005"><a xlink:title=" ">
<path fill="none" stroke="#63b8ff" d="M162.46,-83.28C168.72,-82.08 174.95,-80.97 181,-80 339.78,-54.6 383.76,-77.63 541,-44 554.08,-41.2 568.24,-36.63 579.82,-32.46"/>
<polygon fill="#63b8ff" stroke="#63b8ff" points="161.83,-79.84 152.7,-85.23 163.2,-86.7 161.83,-79.84"/>
</a>
</g>
</g>
<!-- Node14&#45;&gt;Node6 -->
<g id="edge24_Node000014_Node000006" class="edge">
<title>Node14&#45;&gt;Node6</title>
<g id="a_edge24_Node000014_Node000006"><a xlink:title=" ">
<path fill="none" stroke="#63b8ff" d="M160.36,-83.34C167.31,-82.06 174.27,-80.92 181,-80 479.12,-39.39 559.88,-91.37 857,-44 873.34,-41.39 891.19,-36.73 905.69,-32.46"/>
<polygon fill="#63b8ff" stroke="#63b8ff" points="159.74,-79.9 150.59,-85.24 161.07,-86.77 159.74,-79.9"/>
</a>
</g>
</g>
<!-- Node15 -->
<g id="Node000015" class="node">
<title>Node15</title>
<g id="a_Node000015"><a xlink:href="_increment_action_8cpp.html" target="_top" xlink:title=" ">
<polygon fill="white" stroke="#666666" points="152.12,-44 19.88,-44 19.88,0 152.12,0 152.12,-44"/>
<text text-anchor="start" x="27.88" y="-30.5" font-family="Helvetica,sans-Serif" font-size="10.00">FIEAGameEngine/src</text>
<text text-anchor="start" x="27.88" y="-18.5" font-family="Helvetica,sans-Serif" font-size="10.00">/content/actions/Increment</text>
<text text-anchor="middle" x="86" y="-6.5" font-family="Helvetica,sans-Serif" font-size="10.00">Action.cpp</text>
</a>
</g>
</g>
<!-- Node14&#45;&gt;Node15 -->
<g id="edge22_Node000014_Node000015" class="edge">
<title>Node14&#45;&gt;Node15</title>
<g id="a_edge22_Node000014_Node000015"><a xlink:title=" ">
<path fill="none" stroke="#63b8ff" d="M86,-74.38C86,-64.56 86,-53.57 86,-44.28"/>
<polygon fill="#63b8ff" stroke="#63b8ff" points="82.5,-74.08 86,-84.08 89.5,-74.08 82.5,-74.08"/>
</a>
</g>
</g>
<!-- Node16&#45;&gt;Node5 -->
<g id="edge27_Node000016_Node000005" class="edge">
<title>Node16&#45;&gt;Node5</title>
<g id="a_edge27_Node000016_Node000005"><a xlink:title=" ">
<path fill="none" stroke="#63b8ff" d="M372.98,-79.39C447.82,-63.56 469.4,-63.4 541,-44 553.24,-40.68 566.59,-36.34 577.84,-32.46"/>
<polygon fill="#63b8ff" stroke="#63b8ff" points="372.57,-75.9 363.53,-81.41 374.04,-82.74 372.57,-75.9"/>
</a>
</g>
</g>
<!-- Node16&#45;&gt;Node6 -->
<g id="edge28_Node000016_Node000006" class="edge">
<title>Node16&#45;&gt;Node6</title>
<g id="a_edge28_Node000016_Node000006"><a xlink:title=" ">
<path fill="none" stroke="#63b8ff" d="M373.24,-79.63C586.74,-49.33 646.69,-79.75 857,-44 873.18,-41.25 890.86,-36.63 905.29,-32.42"/>
<polygon fill="#63b8ff" stroke="#63b8ff" points="372.86,-76.15 363.46,-81.05 373.86,-83.08 372.86,-76.15"/>
</a>
</g>
</g>
<!-- Node17 -->
<g id="Node000017" class="node">
<title>Node17</title>
<g id="a_Node000017"><a xlink:href="_integer_conditional_action_8cpp.html" target="_top" xlink:title=" ">
<polygon fill="white" stroke="#666666" points="351.75,-44 184.25,-44 184.25,0 351.75,0 351.75,-44"/>
<text text-anchor="start" x="192.25" y="-30.5" font-family="Helvetica,sans-Serif" font-size="10.00">FIEAGameEngine/src</text>
<text text-anchor="start" x="192.25" y="-18.5" font-family="Helvetica,sans-Serif" font-size="10.00">/content/actions/IntegerConditional</text>
<text text-anchor="middle" x="268" y="-6.5" font-family="Helvetica,sans-Serif" font-size="10.00">Action.cpp</text>
</a>
</g>
</g>
<!-- Node16&#45;&gt;Node17 -->
<g id="edge26_Node000016_Node000017" class="edge">
<title>Node16&#45;&gt;Node17</title>
<g id="a_edge26_Node000016_Node000017"><a xlink:title=" ">
<path fill="none" stroke="#63b8ff" d="M272.64,-68.25C271.81,-60.15 270.94,-51.68 270.18,-44.29"/>
<polygon fill="#63b8ff" stroke="#63b8ff" points="269.16,-68.59 273.66,-78.18 276.12,-67.88 269.16,-68.59"/>
</a>
</g>
</g>
<!-- Node18&#45;&gt;Node5 -->
<g id="edge31_Node000018_Node000005" class="edge">
<title>Node18&#45;&gt;Node5</title>
<g id="a_edge31_Node000018_Node000005"><a xlink:title=" ">
<path fill="none" stroke="#63b8ff" d="M1007.84,-85.24C995.79,-83.4 983.61,-81.61 972,-80 836.79,-61.27 800.22,-73.74 667,-44 654.06,-41.11 640.03,-36.58 628.51,-32.47"/>
<polygon fill="#63b8ff" stroke="#63b8ff" points="1006.95,-88.64 1017.37,-86.71 1008.02,-81.73 1006.95,-88.64"/>
</a>
</g>
</g>
<!-- Node18&#45;&gt;Node6 -->
<g id="edge32_Node000018_Node000006" class="edge">
<title>Node18&#45;&gt;Node6</title>
<g id="a_edge32_Node000018_Node000006"><a xlink:title=" ">
<path fill="none" stroke="#63b8ff" d="M1060.54,-80.94C1026.79,-65.36 981.5,-44.46 955.56,-32.49"/>
<polygon fill="#63b8ff" stroke="#63b8ff" points="1058.69,-83.94 1069.24,-84.96 1061.62,-77.59 1058.69,-83.94"/>
</a>
</g>
</g>
<!-- Node19 -->
<g id="Node000019" class="node">
<title>Node19</title>
<g id="a_Node000019"><a xlink:href="_action_preamble_8cpp.html" target="_top" xlink:title=" ">
<polygon fill="white" stroke="#666666" points="1199.25,-38 1022.75,-38 1022.75,-6 1199.25,-6 1199.25,-38"/>
<text text-anchor="start" x="1030.75" y="-24.5" font-family="Helvetica,sans-Serif" font-size="10.00">FIEAGameEngine/src</text>
<text text-anchor="middle" x="1111" y="-12.5" font-family="Helvetica,sans-Serif" font-size="10.00">/content/actions/ActionPreamble.cpp</text>
</a>
</g>
</g>
<!-- Node18&#45;&gt;Node19 -->
<g id="edge30_Node000018_Node000019" class="edge">
<title>Node18&#45;&gt;Node19</title>
<g id="a_edge30_Node000018_Node000019"><a xlink:title=" ">
<path fill="none" stroke="#63b8ff" d="M1106.39,-74.37C1107.47,-62.37 1108.7,-48.63 1109.62,-38.38"/>
<polygon fill="#63b8ff" stroke="#63b8ff" points="1102.93,-73.81 1105.52,-84.08 1109.9,-74.44 1102.93,-73.81"/>
</a>
</g>
</g>
<!-- Node20&#45;&gt;Node6 -->
<g id="edge39_Node000020_Node000006" class="edge">
<title>Node20&#45;&gt;Node6</title>
<g id="a_edge39_Node000020_Node000006"><a xlink:title=" ">
<path fill="none" stroke="#63b8ff" d="M1702.28,-89.27C1678.26,-85.87 1651.56,-82.42 1627,-80 1355.41,-53.18 1283.46,-87.27 1014,-44 997.47,-41.34 979.39,-36.68 964.71,-32.41"/>
<polygon fill="#63b8ff" stroke="#63b8ff" points="1701.58,-92.7 1711.97,-90.66 1702.57,-85.77 1701.58,-92.7"/>
</a>
</g>
</g>
<!-- Node20&#45;&gt;Node10 -->
<g id="edge34_Node000020_Node000010" class="edge">
<title>Node20&#45;&gt;Node10</title>
<g id="a_edge34_Node000020_Node000010"><a xlink:title=" ">
<path fill="none" stroke="#63b8ff" d="M1734.84,-80.72C1706.69,-67.49 1670.52,-50.5 1644.73,-38.38"/>
<polygon fill="#63b8ff" stroke="#63b8ff" points="1733.29,-83.86 1743.83,-84.95 1736.27,-77.53 1733.29,-83.86"/>
</a>
</g>
</g>
<!-- Node20&#45;&gt;Node11 -->
<g id="edge35_Node000020_Node000011" class="edge">
<title>Node20&#45;&gt;Node11</title>
<g id="a_edge35_Node000020_Node000011"><a xlink:title=" ">
<path fill="none" stroke="#63b8ff" d="M1702.31,-83.45C1654.56,-72.31 1591.63,-57.5 1536,-44 1528.7,-42.23 1521.04,-40.35 1513.45,-38.47"/>
<polygon fill="#63b8ff" stroke="#63b8ff" points="1701.48,-86.85 1712.01,-85.71 1703.07,-80.04 1701.48,-86.85"/>
</a>
</g>
</g>
<!-- Node21 -->
<g id="Node000021" class="node">
<title>Node21</title>
<g id="a_Node000021"><a xlink:href="_game_object_8cpp.html" target="_top" xlink:title=" ">
<polygon fill="white" stroke="#666666" points="2140.88,-38 2013.12,-38 2013.12,-6 2140.88,-6 2140.88,-38"/>
<text text-anchor="start" x="2021.12" y="-24.5" font-family="Helvetica,sans-Serif" font-size="10.00">FIEAGameEngine/src</text>
<text text-anchor="middle" x="2077" y="-12.5" font-family="Helvetica,sans-Serif" font-size="10.00">/content/GameObject.cpp</text>
</a>
</g>
</g>
<!-- Node20&#45;&gt;Node21 -->
<g id="edge36_Node000020_Node000021" class="edge">
<title>Node20&#45;&gt;Node21</title>
<g id="a_edge36_Node000020_Node000021"><a xlink:title=" ">
<path fill="none" stroke="#63b8ff" d="M1852.4,-82.89C1896.56,-71.98 1953.58,-57.61 2004,-44 2010.49,-42.25 2017.3,-40.36 2024.03,-38.46"/>
<polygon fill="#63b8ff" stroke="#63b8ff" points="1851.81,-79.43 1842.94,-85.23 1853.48,-86.23 1851.81,-79.43"/>
</a>
</g>
</g>
<!-- Node22 -->
<g id="Node000022" class="node">
<title>Node22</title>
<g id="a_Node000022"><a xlink:href="_game_object_handler_8cpp.html" target="_top" xlink:title=" ">
<polygon fill="white" stroke="#666666" points="1858.75,-38 1697.25,-38 1697.25,-6 1858.75,-6 1858.75,-38"/>
<text text-anchor="start" x="1705.25" y="-24.5" font-family="Helvetica,sans-Serif" font-size="10.00">FIEAGameEngine/src</text>
<text text-anchor="middle" x="1778" y="-12.5" font-family="Helvetica,sans-Serif" font-size="10.00">/content/GameObjectHandler.cpp</text>
</a>
</g>
</g>
<!-- Node20&#45;&gt;Node22 -->
<g id="edge37_Node000020_Node000022" class="edge">
<title>Node20&#45;&gt;Node22</title>
<g id="a_edge37_Node000020_Node000022"><a xlink:title=" ">
<path fill="none" stroke="#63b8ff" d="M1778,-74.37C1778,-62.37 1778,-48.63 1778,-38.38"/>
<polygon fill="#63b8ff" stroke="#63b8ff" points="1774.5,-74.08 1778,-84.08 1781.5,-74.08 1774.5,-74.08"/>
</a>
</g>
</g>
<!-- Node23 -->
<g id="Node000023" class="node">
<title>Node23</title>
<g id="a_Node000023"><a xlink:href="_factory_tests_8cpp.html" target="_top" xlink:title=" ">
<polygon fill="white" stroke="#666666" points="1995.38,-32 1876.62,-32 1876.62,-12 1995.38,-12 1995.38,-32"/>
<text text-anchor="middle" x="1936" y="-18.5" font-family="Helvetica,sans-Serif" font-size="10.00">Tests/FactoryTests.cpp</text>
</a>
</g>
</g>
<!-- Node20&#45;&gt;Node23 -->
<g id="edge38_Node000020_Node000023" class="edge">
<title>Node20&#45;&gt;Node23</title>
<g id="a_edge38_Node000020_Node000023"><a xlink:title=" ">
<path fill="none" stroke="#63b8ff" d="M1819.45,-80.54C1850.92,-65 1892.74,-44.36 1916.78,-32.49"/>
<polygon fill="#63b8ff" stroke="#63b8ff" points="1817.99,-77.35 1810.57,-84.92 1821.09,-83.63 1817.99,-77.35"/>
</a>
</g>
</g>
<!-- Node25&#45;&gt;Node5 -->
<g id="edge43_Node000025_Node000005" class="edge">
<title>Node25&#45;&gt;Node5</title>
<g id="a_edge43_Node000025_Node000005"><a xlink:title=" ">
<path fill="none" stroke="#63b8ff" d="M1039.7,-163.72C1032.04,-162.46 1024.35,-161.2 1017,-160 916.17,-143.6 879.26,-173.68 790,-124 767.42,-111.43 773.13,-94.87 752,-80 741.7,-72.75 670.5,-46.74 630.73,-32.49"/>
<polygon fill="#63b8ff" stroke="#63b8ff" points="1038.91,-167.14 1049.35,-165.32 1040.05,-160.23 1038.91,-167.14"/>
</a>
</g>
</g>
<!-- Node26 -->
<g id="Node000026" class="node">
<title>Node26</title>
<g id="a_Node000026"><a xlink:href="_action_add_datum_8cpp.html" target="_top" xlink:title=" ">
<polygon fill="white" stroke="#666666" points="1618.38,-112 1445.62,-112 1445.62,-92 1618.38,-92 1618.38,-112"/>
<text text-anchor="middle" x="1532" y="-98.5" font-family="Helvetica,sans-Serif" font-size="10.00">Tests/Support/ActionAddDatum.cpp</text>
</a>
</g>
</g>
<!-- Node25&#45;&gt;Node26 -->
<g id="edge44_Node000025_Node000026" class="edge">
<title>Node25&#45;&gt;Node26</title>
<g id="a_edge44_Node000025_Node000026"><a xlink:title=" ">
<path fill="none" stroke="#63b8ff" d="M1185.21,-163.88C1251.16,-154.22 1347.96,-139.41 1432,-124 1450.84,-120.55 1471.59,-116.27 1489.27,-112.48"/>
<polygon fill="#63b8ff" stroke="#63b8ff" points="1184.97,-160.38 1175.58,-165.28 1185.98,-167.3 1184.97,-160.38"/>
</a>
</g>
</g>
</g>
</svg>
