<?xml version="1.0" encoding="UTF-8" standalone="no"?>
<!DOCTYPE svg PUBLIC "-//W3C//DTD SVG 1.1//EN"
 "http://www.w3.org/Graphics/SVG/1.1/DTD/svg11.dtd">
<!-- Generated by graphviz version 12.2.1 (20241206.2353)
 -->
<!-- Title: FIEAGameEngine/src/content/ActionListHandler.cpp Pages: 1 -->
<svg width="748pt" height="556pt"
 viewBox="0.00 0.00 747.75 556.00" xmlns="http://www.w3.org/2000/svg" xmlns:xlink="http://www.w3.org/1999/xlink">
<g id="graph0" class="graph" transform="scale(1 1) rotate(0) translate(4 552)">
<title>FIEAGameEngine/src/content/ActionListHandler.cpp</title>
<!-- Node1 -->
<g id="Node000001" class="node">
<title>Node1</title>
<g id="a_Node000001"><a xlink:title=" ">
<polygon fill="#999999" stroke="#666666" points="506.75,-548 356.5,-548 356.5,-516 506.75,-516 506.75,-548"/>
<text text-anchor="start" x="364.5" y="-534.5" font-family="Helvetica,sans-Serif" font-size="10.00">FIEAGameEngine/src</text>
<text text-anchor="middle" x="431.62" y="-522.5" font-family="Helvetica,sans-Serif" font-size="10.00">/content/ActionListHandler.cpp</text>
</a>
</g>
</g>
<!-- Node2 -->
<g id="Node000002" class="node">
<title>Node2</title>
<g id="a_Node000002"><a xlink:href="_action_list_handler_8h.html" target="_top" xlink:title=" ">
<polygon fill="white" stroke="#666666" points="278.12,-474 139.12,-474 139.12,-454 278.12,-454 278.12,-474"/>
<text text-anchor="middle" x="208.62" y="-460.5" font-family="Helvetica,sans-Serif" font-size="10.00">Content/ActionListHandler.h</text>
</a>
</g>
</g>
<!-- Node1&#45;&gt;Node2 -->
<g id="edge1_Node000001_Node000002" class="edge">
<title>Node1&#45;&gt;Node2</title>
<g id="a_edge1_Node000001_Node000002"><a xlink:title=" ">
<path fill="none" stroke="#63b8ff" d="M379.34,-515.53C340.38,-503.99 287.82,-488.44 251.35,-477.65"/>
<polygon fill="#63b8ff" stroke="#63b8ff" points="252.62,-474.37 242.04,-474.89 250.64,-481.08 252.62,-474.37"/>
</a>
</g>
</g>
<!-- Node18 -->
<g id="Node000018" class="node">
<title>Node18</title>
<g id="a_Node000018"><a xlink:href="_action_list_8h.html" target="_top" xlink:title=" ">
<polygon fill="white" stroke="#666666" points="673.25,-412 532,-412 532,-392 673.25,-392 673.25,-412"/>
<text text-anchor="middle" x="602.62" y="-398.5" font-family="Helvetica,sans-Serif" font-size="10.00">Content/Actions/ActionList.h</text>
</a>
</g>
</g>
<!-- Node1&#45;&gt;Node18 -->
<g id="edge17_Node000001_Node000018" class="edge">
<title>Node1&#45;&gt;Node18</title>
<g id="a_edge17_Node000001_Node000018"><a xlink:title=" ">
<path fill="none" stroke="#63b8ff" d="M438.57,-515.78C447.66,-497.4 465.24,-466.62 488.62,-448 507.05,-433.33 530.86,-422.93 551.95,-415.85"/>
<polygon fill="#63b8ff" stroke="#63b8ff" points="552.77,-419.26 561.24,-412.91 550.65,-412.59 552.77,-419.26"/>
</a>
</g>
</g>
<!-- Node34 -->
<g id="Node000034" class="node">
<title>Node34</title>
<g id="a_Node000034"><a xlink:href="_while_action_list_8h.html" target="_top" xlink:title=" ">
<polygon fill="white" stroke="#666666" points="639.62,-480 497.62,-480 497.62,-448 639.62,-448 639.62,-480"/>
<text text-anchor="start" x="505.62" y="-466.5" font-family="Helvetica,sans-Serif" font-size="10.00">Content/Actions/WhileAction</text>
<text text-anchor="middle" x="568.62" y="-454.5" font-family="Helvetica,sans-Serif" font-size="10.00">List.h</text>
</a>
</g>
</g>
<!-- Node1&#45;&gt;Node34 -->
<g id="edge30_Node000001_Node000034" class="edge">
<title>Node1&#45;&gt;Node34</title>
<g id="a_edge30_Node000001_Node000034"><a xlink:title=" ">
<path fill="none" stroke="#63b8ff" d="M463.75,-515.53C482.47,-506.51 506.3,-495.03 526.51,-485.29"/>
<polygon fill="#63b8ff" stroke="#63b8ff" points="527.85,-488.53 535.34,-481.03 524.81,-482.22 527.85,-488.53"/>
</a>
</g>
</g>
<!-- Node35 -->
<g id="Node000035" class="node">
<title>Node35</title>
<g id="a_Node000035"><a xlink:href="_game_object_8h.html" target="_top" xlink:title=" ">
<polygon fill="white" stroke="#666666" points="513.88,-412 397.38,-412 397.38,-392 513.88,-392 513.88,-412"/>
<text text-anchor="middle" x="455.62" y="-398.5" font-family="Helvetica,sans-Serif" font-size="10.00">Content/GameObject.h</text>
</a>
</g>
</g>
<!-- Node1&#45;&gt;Node35 -->
<g id="edge32_Node000001_Node000035" class="edge">
<title>Node1&#45;&gt;Node35</title>
<g id="a_edge32_Node000001_Node000035"><a xlink:title=" ">
<path fill="none" stroke="#63b8ff" d="M434.52,-515.56C438.85,-492.47 447.01,-448.94 451.82,-423.31"/>
<polygon fill="#63b8ff" stroke="#63b8ff" points="455.19,-424.29 453.6,-413.81 448.31,-423 455.19,-424.29"/>
</a>
</g>
</g>
<!-- Node36 -->
<g id="Node000036" class="node">
<title>Node36</title>
<g id="a_Node000036"><a xlink:href="_scope_writer_8h.html" target="_top" xlink:title=" ">
<polygon fill="white" stroke="#666666" points="321.38,-300 243.88,-300 243.88,-280 321.38,-280 321.38,-300"/>
<text text-anchor="middle" x="282.62" y="-286.5" font-family="Helvetica,sans-Serif" font-size="10.00">ScopeWriter.h</text>
</a>
</g>
</g>
<!-- Node1&#45;&gt;Node36 -->
<g id="edge35_Node000001_Node000036" class="edge">
<title>Node1&#45;&gt;Node36</title>
<g id="a_edge35_Node000001_Node000036"><a xlink:title=" ">
<path fill="none" stroke="#63b8ff" d="M419.53,-515.69C411.83,-505.73 401.8,-492.33 393.62,-480 353.58,-419.62 311.7,-344.51 292.87,-309.98"/>
<polygon fill="#63b8ff" stroke="#63b8ff" points="296.16,-308.71 288.32,-301.59 290.01,-312.05 296.16,-308.71"/>
</a>
</g>
</g>
<!-- Node38 -->
<g id="Node000038" class="node">
<title>Node38</title>
<g id="a_Node000038"><a xlink:href="_test_writer_8h.html" target="_top" xlink:title=" ">
<polygon fill="white" stroke="#666666" points="427.88,-300 359.38,-300 359.38,-280 427.88,-280 427.88,-300"/>
<text text-anchor="middle" x="393.62" y="-286.5" font-family="Helvetica,sans-Serif" font-size="10.00">TestWriter.h</text>
</a>
</g>
</g>
<!-- Node1&#45;&gt;Node38 -->
<g id="edge43_Node000001_Node000038" class="edge">
<title>Node1&#45;&gt;Node38</title>
<g id="a_edge43_Node000001_Node000038"><a xlink:title=" ">
<path fill="none" stroke="#63b8ff" d="M424.14,-515.69C413.73,-493.48 395.41,-450.73 388.62,-412 382.51,-377.07 386.62,-335.63 390.14,-311.44"/>
<polygon fill="#63b8ff" stroke="#63b8ff" points="393.58,-312.11 391.68,-301.69 386.66,-311.02 393.58,-312.11"/>
</a>
</g>
</g>
<!-- Node39 -->
<g id="Node000039" class="node">
<title>Node39</title>
<g id="a_Node000039"><a xlink:title=" ">
<polygon fill="#e0e0e0" stroke="#999999" points="697.62,-474 657.62,-474 657.62,-454 697.62,-454 697.62,-474"/>
<text text-anchor="middle" x="677.62" y="-460.5" font-family="Helvetica,sans-Serif" font-size="10.00">regex</text>
</a>
</g>
</g>
<!-- Node1&#45;&gt;Node39 -->
<g id="edge47_Node000001_Node000039" class="edge">
<title>Node1&#45;&gt;Node39</title>
<g id="a_edge47_Node000001_Node000039"><a xlink:title=" ">
<path fill="none" stroke="#63b8ff" d="M507.03,-518.03C549.39,-509.58 602.8,-496.94 648.62,-480 649.4,-479.71 650.19,-479.41 650.97,-479.09"/>
<polygon fill="#63b8ff" stroke="#63b8ff" points="652.08,-482.44 659.7,-475.08 649.15,-476.08 652.08,-482.44"/>
</a>
</g>
</g>
<!-- Node3 -->
<g id="Node000003" class="node">
<title>Node3</title>
<g id="a_Node000003"><a xlink:href="_i_parse_handler_8h.html" target="_top" xlink:title=" ">
<polygon fill="white" stroke="#666666" points="167.88,-300 81.38,-300 81.38,-280 167.88,-280 167.88,-300"/>
<text text-anchor="middle" x="124.62" y="-286.5" font-family="Helvetica,sans-Serif" font-size="10.00">IParseHandler.h</text>
</a>
</g>
</g>
<!-- Node2&#45;&gt;Node3 -->
<g id="edge2_Node000002_Node000003" class="edge">
<title>Node2&#45;&gt;Node3</title>
<g id="a_edge2_Node000002_Node000003"><a xlink:title=" ">
<path fill="none" stroke="#63b8ff" d="M203.99,-453.51C190.65,-426.19 151.97,-347 134,-310.21"/>
<polygon fill="#63b8ff" stroke="#63b8ff" points="137.34,-309.06 129.81,-301.61 131.05,-312.13 137.34,-309.06"/>
</a>
</g>
</g>
<!-- Node4 -->
<g id="Node000004" class="node">
<title>Node4</title>
<g id="a_Node000004"><a xlink:href="_parse_writer_8h.html" target="_top" xlink:title=" ">
<polygon fill="white" stroke="#666666" points="371.25,-244 296,-244 296,-224 371.25,-224 371.25,-244"/>
<text text-anchor="middle" x="333.62" y="-230.5" font-family="Helvetica,sans-Serif" font-size="10.00">ParseWriter.h</text>
</a>
</g>
</g>
<!-- Node3&#45;&gt;Node4 -->
<g id="edge3_Node000003_Node000004" class="edge">
<title>Node3&#45;&gt;Node4</title>
<g id="a_edge3_Node000003_Node000004"><a xlink:title=" ">
<path fill="none" stroke="#63b8ff" d="M161.03,-279.59C195.73,-270.63 248.18,-257.08 286.15,-247.27"/>
<polygon fill="#63b8ff" stroke="#63b8ff" points="286.66,-250.75 295.47,-244.86 284.91,-243.97 286.66,-250.75"/>
</a>
</g>
</g>
<!-- Node12 -->
<g id="Node000012" class="node">
<title>Node12</title>
<g id="a_Node000012"><a xlink:title=" ">
<polygon fill="#e0e0e0" stroke="#999999" points="142.62,-20 102.62,-20 102.62,0 142.62,0 142.62,-20"/>
<text text-anchor="middle" x="122.62" y="-6.5" font-family="Helvetica,sans-Serif" font-size="10.00">string</text>
</a>
</g>
</g>
<!-- Node3&#45;&gt;Node12 -->
<g id="edge15_Node000003_Node000012" class="edge">
<title>Node3&#45;&gt;Node12</title>
<g id="a_edge15_Node000003_Node000012"><a xlink:title=" ">
<path fill="none" stroke="#63b8ff" d="M119.76,-279.58C110.58,-260.91 91.62,-217.68 91.62,-179 91.62,-179 91.62,-179 91.62,-121 91.62,-88.52 104.3,-52.61 113.44,-30.93"/>
<polygon fill="#63b8ff" stroke="#63b8ff" points="116.61,-32.41 117.44,-21.84 110.21,-29.58 116.61,-32.41"/>
</a>
</g>
</g>
<!-- Node17 -->
<g id="Node000017" class="node">
<title>Node17</title>
<g id="a_Node000017"><a xlink:title=" ">
<polygon fill="#e0e0e0" stroke="#999999" points="63.25,-244 0,-244 0,-224 63.25,-224 63.25,-244"/>
<text text-anchor="middle" x="31.62" y="-230.5" font-family="Helvetica,sans-Serif" font-size="10.00">json/json.h</text>
</a>
</g>
</g>
<!-- Node3&#45;&gt;Node17 -->
<g id="edge16_Node000003_Node000017" class="edge">
<title>Node3&#45;&gt;Node17</title>
<g id="a_edge16_Node000003_Node000017"><a xlink:title=" ">
<path fill="none" stroke="#63b8ff" d="M108.43,-279.59C94.38,-271.44 73.79,-259.48 57.47,-250"/>
<polygon fill="#63b8ff" stroke="#63b8ff" points="59.67,-247.23 49.26,-245.24 56.15,-253.29 59.67,-247.23"/>
</a>
</g>
</g>
<!-- Node5 -->
<g id="Node000005" class="node">
<title>Node5</title>
<g id="a_Node000005"><a xlink:href="_r_t_t_i_8h.html" target="_top" xlink:title=" ">
<polygon fill="#fff0f0" stroke="red" points="509.5,-132 381.75,-132 381.75,-112 509.5,-112 509.5,-132"/>
<text text-anchor="middle" x="445.62" y="-118.5" font-family="Helvetica,sans-Serif" font-size="10.00">FIEAGameEngine/RTTI.h</text>
</a>
</g>
</g>
<!-- Node4&#45;&gt;Node5 -->
<g id="edge4_Node000004_Node000005" class="edge">
<title>Node4&#45;&gt;Node5</title>
<g id="a_edge4_Node000004_Node000005"><a xlink:title=" ">
<path fill="none" stroke="#63b8ff" d="M337.49,-223.67C343.46,-210.14 355.98,-184.85 372.62,-168 384.72,-155.76 400.76,-145.41 414.73,-137.72"/>
<polygon fill="#63b8ff" stroke="#63b8ff" points="416.34,-140.83 423.57,-133.09 413.09,-134.63 416.34,-140.83"/>
</a>
</g>
</g>
<!-- Node16 -->
<g id="Node000016" class="node">
<title>Node16</title>
<g id="a_Node000016"><a xlink:title=" ">
<polygon fill="#e0e0e0" stroke="#999999" points="287.62,-188 247.62,-188 247.62,-168 287.62,-168 287.62,-188"/>
<text text-anchor="middle" x="267.62" y="-174.5" font-family="Helvetica,sans-Serif" font-size="10.00">stack</text>
</a>
</g>
</g>
<!-- Node4&#45;&gt;Node16 -->
<g id="edge14_Node000004_Node000016" class="edge">
<title>Node4&#45;&gt;Node16</title>
<g id="a_edge14_Node000004_Node000016"><a xlink:title=" ">
<path fill="none" stroke="#63b8ff" d="M322.13,-223.59C312.66,-215.85 299.02,-204.69 287.75,-195.47"/>
<polygon fill="#63b8ff" stroke="#63b8ff" points="290.12,-192.88 280.16,-189.26 285.68,-198.3 290.12,-192.88"/>
</a>
</g>
</g>
<!-- Node6 -->
<g id="Node000006" class="node">
<title>Node6</title>
<g id="a_Node000006"><a xlink:href="_types_8h.html" target="_top" xlink:title=" ">
<polygon fill="white" stroke="#666666" points="419.75,-76 287.5,-76 287.5,-56 419.75,-56 419.75,-76"/>
<text text-anchor="middle" x="353.62" y="-62.5" font-family="Helvetica,sans-Serif" font-size="10.00">FIEAGameEngine/Types.h</text>
</a>
</g>
</g>
<!-- Node5&#45;&gt;Node6 -->
<g id="edge5_Node000005_Node000006" class="edge">
<title>Node5&#45;&gt;Node6</title>
<g id="a_edge5_Node000005_Node000006"><a xlink:title=" ">
<path fill="none" stroke="#63b8ff" d="M429.6,-111.59C415.83,-103.51 395.72,-91.71 379.65,-82.27"/>
<polygon fill="#63b8ff" stroke="#63b8ff" points="381.48,-79.29 371.08,-77.25 377.93,-85.33 381.48,-79.29"/>
</a>
</g>
</g>
<!-- Node7 -->
<g id="Node000007" class="node">
<title>Node7</title>
<g id="a_Node000007"><a xlink:title=" ">
<polygon fill="#e0e0e0" stroke="#999999" points="607.88,-20 545.38,-20 545.38,0 607.88,0 607.88,-20"/>
<text text-anchor="middle" x="576.62" y="-6.5" font-family="Helvetica,sans-Serif" font-size="10.00">windows.h</text>
</a>
</g>
</g>
<!-- Node6&#45;&gt;Node7 -->
<g id="edge6_Node000006_Node000007" class="edge">
<title>Node6&#45;&gt;Node7</title>
<g id="a_edge6_Node000006_Node000007"><a xlink:title=" ">
<path fill="none" stroke="#63b8ff" d="M392.72,-55.53C432.26,-45.96 493.19,-31.2 533.96,-21.33"/>
<polygon fill="#63b8ff" stroke="#63b8ff" points="534.78,-24.74 543.67,-18.98 533.13,-17.93 534.78,-24.74"/>
</a>
</g>
</g>
<!-- Node8 -->
<g id="Node000008" class="node">
<title>Node8</title>
<g id="a_Node000008"><a xlink:title=" ">
<polygon fill="#e0e0e0" stroke="#999999" points="673.75,-20 625.5,-20 625.5,0 673.75,0 673.75,-20"/>
<text text-anchor="middle" x="649.62" y="-6.5" font-family="Helvetica,sans-Serif" font-size="10.00">cassert</text>
</a>
</g>
</g>
<!-- Node6&#45;&gt;Node8 -->
<g id="edge7_Node000006_Node000008" class="edge">
<title>Node6&#45;&gt;Node8</title>
<g id="a_edge7_Node000006_Node000008"><a xlink:title=" ">
<path fill="none" stroke="#63b8ff" d="M419.63,-55.52C470.42,-47.81 542.56,-35.97 614.16,-20.38"/>
<polygon fill="#63b8ff" stroke="#63b8ff" points="614.69,-23.85 623.7,-18.28 613.18,-17.01 614.69,-23.85"/>
</a>
</g>
</g>
<!-- Node9 -->
<g id="Node000009" class="node">
<title>Node9</title>
<g id="a_Node000009"><a xlink:title=" ">
<polygon fill="#e0e0e0" stroke="#999999" points="739.75,-20 691.5,-20 691.5,0 739.75,0 739.75,-20"/>
<text text-anchor="middle" x="715.62" y="-6.5" font-family="Helvetica,sans-Serif" font-size="10.00">cstddef</text>
</a>
</g>
</g>
<!-- Node6&#45;&gt;Node9 -->
<g id="edge8_Node000006_Node000009" class="edge">
<title>Node6&#45;&gt;Node9</title>
<g id="a_edge8_Node000006_Node000009"><a xlink:title=" ">
<path fill="none" stroke="#63b8ff" d="M420.22,-58.47C484.51,-51.58 584.75,-39.32 680.19,-20.27"/>
<polygon fill="#63b8ff" stroke="#63b8ff" points="680.61,-23.76 689.72,-18.34 679.22,-16.9 680.61,-23.76"/>
</a>
</g>
</g>
<!-- Node10 -->
<g id="Node000010" class="node">
<title>Node10</title>
<g id="a_Node000010"><a xlink:title=" ">
<polygon fill="#e0e0e0" stroke="#999999" points="206.25,-20 161,-20 161,0 206.25,0 206.25,-20"/>
<text text-anchor="middle" x="183.62" y="-6.5" font-family="Helvetica,sans-Serif" font-size="10.00">cstdint</text>
</a>
</g>
</g>
<!-- Node6&#45;&gt;Node10 -->
<g id="edge9_Node000006_Node000010" class="edge">
<title>Node6&#45;&gt;Node10</title>
<g id="a_edge9_Node000006_Node000010"><a xlink:title=" ">
<path fill="none" stroke="#63b8ff" d="M324.01,-55.59C294.27,-46.15 248.52,-31.61 217.39,-21.72"/>
<polygon fill="#63b8ff" stroke="#63b8ff" points="218.67,-18.46 208.08,-18.77 216.55,-25.13 218.67,-18.46"/>
</a>
</g>
</g>
<!-- Node11 -->
<g id="Node000011" class="node">
<title>Node11</title>
<g id="a_Node000011"><a xlink:title=" ">
<polygon fill="#e0e0e0" stroke="#999999" points="277,-20 224.25,-20 224.25,0 277,0 277,-20"/>
<text text-anchor="middle" x="250.62" y="-6.5" font-family="Helvetica,sans-Serif" font-size="10.00">cstdbool</text>
</a>
</g>
</g>
<!-- Node6&#45;&gt;Node11 -->
<g id="edge10_Node000006_Node000011" class="edge">
<title>Node6&#45;&gt;Node11</title>
<g id="a_edge10_Node000006_Node000011"><a xlink:title=" ">
<path fill="none" stroke="#63b8ff" d="M335.68,-55.59C319.98,-47.36 296.89,-35.26 278.74,-25.74"/>
<polygon fill="#63b8ff" stroke="#63b8ff" points="280.53,-22.73 270.05,-21.18 277.28,-28.93 280.53,-22.73"/>
</a>
</g>
</g>
<!-- Node6&#45;&gt;Node12 -->
<g id="edge11_Node000006_Node000012" class="edge">
<title>Node6&#45;&gt;Node12</title>
<g id="a_edge11_Node000006_Node000012"><a xlink:title=" ">
<path fill="none" stroke="#63b8ff" d="M306.01,-55.54C267.4,-47.61 211.35,-35.53 153.96,-20.46"/>
<polygon fill="#63b8ff" stroke="#63b8ff" points="154.87,-17.08 144.31,-17.89 153.07,-23.84 154.87,-17.08"/>
</a>
</g>
</g>
<!-- Node13 -->
<g id="Node000013" class="node">
<title>Node13</title>
<g id="a_Node000013"><a xlink:title=" ">
<polygon fill="#e0e0e0" stroke="#999999" points="349.75,-20 295.5,-20 295.5,0 349.75,0 349.75,-20"/>
<text text-anchor="middle" x="322.62" y="-6.5" font-family="Helvetica,sans-Serif" font-size="10.00">crtdefs.h</text>
</a>
</g>
</g>
<!-- Node6&#45;&gt;Node13 -->
<g id="edge12_Node000006_Node000013" class="edge">
<title>Node6&#45;&gt;Node13</title>
<g id="a_edge12_Node000006_Node000013"><a xlink:title=" ">
<path fill="none" stroke="#63b8ff" d="M348.23,-55.59C344.18,-48.55 338.51,-38.67 333.53,-30"/>
<polygon fill="#63b8ff" stroke="#63b8ff" points="336.73,-28.54 328.72,-21.61 330.66,-32.03 336.73,-28.54"/>
</a>
</g>
</g>
<!-- Node14 -->
<g id="Node000014" class="node">
<title>Node14</title>
<g id="a_Node000014"><a xlink:title=" ">
<polygon fill="#e0e0e0" stroke="#999999" points="527.62,-20 367.62,-20 367.62,0 527.62,0 527.62,-20"/>
<text text-anchor="middle" x="447.62" y="-6.5" font-family="Helvetica,sans-Serif" font-size="10.00">../src/memory/SystemAllocator.h</text>
</a>
</g>
</g>
<!-- Node6&#45;&gt;Node14 -->
<g id="edge13_Node000006_Node000014" class="edge">
<title>Node6&#45;&gt;Node14</title>
<g id="a_edge13_Node000006_Node000014"><a xlink:title=" ">
<path fill="none" stroke="#63b8ff" d="M370,-55.59C384.2,-47.44 405.01,-35.48 421.51,-26"/>
<polygon fill="#63b8ff" stroke="#63b8ff" points="422.88,-29.25 429.81,-21.23 419.4,-23.18 422.88,-29.25"/>
</a>
</g>
</g>
<!-- Node19 -->
<g id="Node000019" class="node">
<title>Node19</title>
<g id="a_Node000019"><a xlink:href="_action_8h.html" target="_top" xlink:title=" ">
<polygon fill="white" stroke="#666666" points="621.62,-356 569.62,-356 569.62,-336 621.62,-336 621.62,-356"/>
<text text-anchor="middle" x="595.62" y="-342.5" font-family="Helvetica,sans-Serif" font-size="10.00">Action.h</text>
</a>
</g>
</g>
<!-- Node18&#45;&gt;Node19 -->
<g id="edge18_Node000018_Node000019" class="edge">
<title>Node18&#45;&gt;Node19</title>
<g id="a_edge18_Node000018_Node000019"><a xlink:title=" ">
<path fill="none" stroke="#63b8ff" d="M601.41,-391.59C600.54,-384.93 599.35,-375.75 598.27,-367.44"/>
<polygon fill="#63b8ff" stroke="#63b8ff" points="601.78,-367.27 597.02,-357.8 594.84,-368.17 601.78,-367.27"/>
</a>
</g>
</g>
<!-- Node20 -->
<g id="Node000020" class="node">
<title>Node20</title>
<g id="a_Node000020"><a xlink:href="_attributed_8h.html" target="_top" xlink:title=" ">
<polygon fill="white" stroke="#666666" points="633.25,-300 558,-300 558,-280 633.25,-280 633.25,-300"/>
<text text-anchor="middle" x="595.62" y="-286.5" font-family="Helvetica,sans-Serif" font-size="10.00">../Attributed.h</text>
</a>
</g>
</g>
<!-- Node19&#45;&gt;Node20 -->
<g id="edge19_Node000019_Node000020" class="edge">
<title>Node19&#45;&gt;Node20</title>
<g id="a_edge19_Node000019_Node000020"><a xlink:title=" ">
<path fill="none" stroke="#63b8ff" d="M595.62,-335.59C595.62,-329.01 595.62,-319.96 595.62,-311.73"/>
<polygon fill="#63b8ff" stroke="#63b8ff" points="599.13,-311.81 595.63,-301.81 592.13,-311.81 599.13,-311.81"/>
</a>
</g>
</g>
<!-- Node20&#45;&gt;Node5 -->
<g id="edge20_Node000020_Node000005" class="edge">
<title>Node20&#45;&gt;Node5</title>
<g id="a_edge20_Node000020_Node000005"><a xlink:title=" ">
<path fill="none" stroke="#63b8ff" d="M633.27,-281.45C654.01,-275.16 678.04,-263.89 690.62,-244 695.38,-236.49 693.62,-232.37 690.62,-224 666.85,-157.6 583.7,-134.51 520.8,-126.66"/>
<polygon fill="#63b8ff" stroke="#63b8ff" points="521.55,-123.23 511.22,-125.58 520.76,-130.18 521.55,-123.23"/>
</a>
</g>
</g>
<!-- Node21 -->
<g id="Node000021" class="node">
<title>Node21</title>
<g id="a_Node000021"><a xlink:href="_scope_8h.html" target="_top" xlink:title=" ">
<polygon fill="#fff0f0" stroke="red" points="491.62,-244 439.62,-244 439.62,-224 491.62,-224 491.62,-244"/>
<text text-anchor="middle" x="465.62" y="-230.5" font-family="Helvetica,sans-Serif" font-size="10.00">Scope.h</text>
</a>
</g>
</g>
<!-- Node20&#45;&gt;Node21 -->
<g id="edge21_Node000020_Node000021" class="edge">
<title>Node20&#45;&gt;Node21</title>
<g id="a_edge21_Node000020_Node000021"><a xlink:title=" ">
<path fill="none" stroke="#63b8ff" d="M572.98,-279.59C552.51,-271.09 522.11,-258.46 498.88,-248.81"/>
<polygon fill="#63b8ff" stroke="#63b8ff" points="500.42,-245.66 489.84,-245.06 497.74,-252.13 500.42,-245.66"/>
</a>
</g>
</g>
<!-- Node27 -->
<g id="Node000027" class="node">
<title>Node27</title>
<g id="a_Node000027"><a xlink:title=" ">
<polygon fill="#e0e0e0" stroke="#999999" points="635.12,-188 592.12,-188 592.12,-168 635.12,-168 635.12,-188"/>
<text text-anchor="middle" x="613.62" y="-174.5" font-family="Helvetica,sans-Serif" font-size="10.00">vector</text>
</a>
</g>
</g>
<!-- Node20&#45;&gt;Node27 -->
<g id="edge28_Node000020_Node000027" class="edge">
<title>Node20&#45;&gt;Node27</title>
<g id="a_edge28_Node000020_Node000027"><a xlink:title=" ">
<path fill="none" stroke="#63b8ff" d="M597.16,-279.62C600.04,-262.01 606.33,-223.59 610.25,-199.65"/>
<polygon fill="#63b8ff" stroke="#63b8ff" points="613.69,-200.28 611.85,-189.85 606.78,-199.15 613.69,-200.28"/>
</a>
</g>
</g>
<!-- Node33 -->
<g id="Node000033" class="node">
<title>Node33</title>
<g id="a_Node000033"><a xlink:title=" ">
<polygon fill="#e0e0e0" stroke="#999999" points="681.62,-244 623.62,-244 623.62,-224 681.62,-224 681.62,-244"/>
<text text-anchor="middle" x="652.62" y="-230.5" font-family="Helvetica,sans-Serif" font-size="10.00">functional</text>
</a>
</g>
</g>
<!-- Node20&#45;&gt;Node33 -->
<g id="edge29_Node000020_Node000033" class="edge">
<title>Node20&#45;&gt;Node33</title>
<g id="a_edge29_Node000020_Node000033"><a xlink:title=" ">
<path fill="none" stroke="#63b8ff" d="M605.55,-279.59C613.56,-272.01 625.04,-261.13 634.66,-252.02"/>
<polygon fill="#63b8ff" stroke="#63b8ff" points="636.86,-254.76 641.71,-245.34 632.04,-249.68 636.86,-254.76"/>
</a>
</g>
</g>
<!-- Node21&#45;&gt;Node5 -->
<g id="edge22_Node000021_Node000005" class="edge">
<title>Node21&#45;&gt;Node5</title>
<g id="a_edge22_Node000021_Node000005"><a xlink:title=" ">
<path fill="none" stroke="#63b8ff" d="M491.92,-224.52C520.77,-213.72 560.97,-193.39 544.62,-168 535.07,-153.16 519.28,-143.15 503.09,-136.43"/>
<polygon fill="#63b8ff" stroke="#63b8ff" points="504.47,-133.21 493.88,-133 502.03,-139.77 504.47,-133.21"/>
</a>
</g>
</g>
<!-- Node22 -->
<g id="Node000022" class="node">
<title>Node22</title>
<g id="a_Node000022"><a xlink:href="_datum_8h.html" target="_top" xlink:title=" ">
<polygon fill="#fff0f0" stroke="red" points="435.38,-188 381.88,-188 381.88,-168 435.38,-168 435.38,-188"/>
<text text-anchor="middle" x="408.62" y="-174.5" font-family="Helvetica,sans-Serif" font-size="10.00">Datum.h</text>
</a>
</g>
</g>
<!-- Node21&#45;&gt;Node22 -->
<g id="edge23_Node000021_Node000022" class="edge">
<title>Node21&#45;&gt;Node22</title>
<g id="a_edge23_Node000021_Node000022"><a xlink:title=" ">
<path fill="none" stroke="#63b8ff" d="M455.7,-223.59C447.69,-216.01 436.21,-205.13 426.59,-196.02"/>
<polygon fill="#63b8ff" stroke="#63b8ff" points="429.21,-193.68 419.54,-189.34 424.39,-198.76 429.21,-193.68"/>
</a>
</g>
</g>
<!-- Node21&#45;&gt;Node27 -->
<g id="edge26_Node000021_Node000027" class="edge">
<title>Node21&#45;&gt;Node27</title>
<g id="a_edge26_Node000021_Node000027"><a xlink:title=" ">
<path fill="none" stroke="#63b8ff" d="M491.4,-223.59C516.44,-214.46 554.53,-200.56 581.52,-190.71"/>
<polygon fill="#63b8ff" stroke="#63b8ff" points="582.37,-194.13 590.56,-187.41 579.97,-187.55 582.37,-194.13"/>
</a>
</g>
</g>
<!-- Node28 -->
<g id="Node000028" class="node">
<title>Node28</title>
<g id="a_Node000028"><a xlink:title=" ">
<polygon fill="#e0e0e0" stroke="#999999" points="536,-188 453.25,-188 453.25,-168 536,-168 536,-188"/>
<text text-anchor="middle" x="494.62" y="-174.5" font-family="Helvetica,sans-Serif" font-size="10.00">unordered_map</text>
</a>
</g>
</g>
<!-- Node21&#45;&gt;Node28 -->
<g id="edge27_Node000021_Node000028" class="edge">
<title>Node21&#45;&gt;Node28</title>
<g id="a_edge27_Node000021_Node000028"><a xlink:title=" ">
<path fill="none" stroke="#63b8ff" d="M470.68,-223.59C474.42,-216.63 479.65,-206.89 484.27,-198.29"/>
<polygon fill="#63b8ff" stroke="#63b8ff" points="487.27,-200.1 488.92,-189.63 481.1,-196.79 487.27,-200.1"/>
</a>
</g>
</g>
<!-- Node22&#45;&gt;Node5 -->
<g id="edge25_Node000022_Node000005" class="edge">
<title>Node22&#45;&gt;Node5</title>
<g id="a_edge25_Node000022_Node000005"><a xlink:title=" ">
<path fill="none" stroke="#63b8ff" d="M415.07,-167.59C419.95,-160.47 426.82,-150.45 432.8,-141.72"/>
<polygon fill="#63b8ff" stroke="#63b8ff" points="435.63,-143.77 438.4,-133.55 429.86,-139.82 435.63,-143.77"/>
</a>
</g>
</g>
<!-- Node22&#45;&gt;Node12 -->
<g id="edge24_Node000022_Node000012" class="edge">
<title>Node22&#45;&gt;Node12</title>
<g id="a_edge24_Node000022_Node000012"><a xlink:title=" ">
<path fill="none" stroke="#63b8ff" d="M392.43,-167.6C345.04,-140.09 206.36,-59.6 148.47,-26"/>
<polygon fill="#63b8ff" stroke="#63b8ff" points="150.36,-23.05 139.95,-21.06 146.84,-29.1 150.36,-23.05"/>
</a>
</g>
</g>
<!-- Node34&#45;&gt;Node18 -->
<g id="edge31_Node000034_Node000018" class="edge">
<title>Node34&#45;&gt;Node18</title>
<g id="a_edge31_Node000034_Node000018"><a xlink:title=" ">
<path fill="none" stroke="#63b8ff" d="M577.38,-447.55C581.76,-439.82 587.1,-430.4 591.74,-422.21"/>
<polygon fill="#63b8ff" stroke="#63b8ff" points="594.66,-424.15 596.55,-413.72 588.57,-420.7 594.66,-424.15"/>
</a>
</g>
</g>
<!-- Node35&#45;&gt;Node19 -->
<g id="edge34_Node000035_Node000019" class="edge">
<title>Node35&#45;&gt;Node19</title>
<g id="a_edge34_Node000035_Node000019"><a xlink:title=" ">
<path fill="none" stroke="#63b8ff" d="M480.01,-391.59C502.26,-383.01 535.39,-370.23 560.49,-360.55"/>
<polygon fill="#63b8ff" stroke="#63b8ff" points="561.57,-363.89 569.64,-357.02 559.05,-357.36 561.57,-363.89"/>
</a>
</g>
</g>
<!-- Node35&#45;&gt;Node20 -->
<g id="edge33_Node000035_Node000020" class="edge">
<title>Node35&#45;&gt;Node20</title>
<g id="a_edge33_Node000035_Node000020"><a xlink:title=" ">
<path fill="none" stroke="#63b8ff" d="M467.56,-391.62C491.43,-372.87 545.29,-330.55 574.99,-307.21"/>
<polygon fill="#63b8ff" stroke="#63b8ff" points="576.83,-310.22 582.53,-301.29 572.5,-304.72 576.83,-310.22"/>
</a>
</g>
</g>
<!-- Node36&#45;&gt;Node4 -->
<g id="edge37_Node000036_Node000004" class="edge">
<title>Node36&#45;&gt;Node4</title>
<g id="a_edge37_Node000036_Node000004"><a xlink:title=" ">
<path fill="none" stroke="#63b8ff" d="M291.51,-279.59C298.53,-272.16 308.53,-261.58 317.02,-252.58"/>
<polygon fill="#63b8ff" stroke="#63b8ff" points="319.48,-255.07 323.8,-245.4 314.39,-250.27 319.48,-255.07"/>
</a>
</g>
</g>
<!-- Node36&#45;&gt;Node6 -->
<g id="edge36_Node000036_Node000006" class="edge">
<title>Node36&#45;&gt;Node6</title>
<g id="a_edge36_Node000036_Node000006"><a xlink:title=" ">
<path fill="none" stroke="#63b8ff" d="M243.66,-285.63C197.37,-279.78 128.76,-264.23 148.62,-224 184.42,-151.5 271.53,-103.23 319.88,-81.03"/>
<polygon fill="#63b8ff" stroke="#63b8ff" points="321.07,-84.34 328.77,-77.06 318.21,-77.95 321.07,-84.34"/>
</a>
</g>
</g>
<!-- Node36&#45;&gt;Node16 -->
<g id="edge39_Node000036_Node000016" class="edge">
<title>Node36&#45;&gt;Node16</title>
<g id="a_edge39_Node000036_Node000016"><a xlink:title=" ">
<path fill="none" stroke="#63b8ff" d="M281.35,-279.62C278.94,-262.01 273.71,-223.59 270.44,-199.65"/>
<polygon fill="#63b8ff" stroke="#63b8ff" points="273.92,-199.29 269.11,-189.85 266.99,-200.24 273.92,-199.29"/>
</a>
</g>
</g>
<!-- Node36&#45;&gt;Node21 -->
<g id="edge40_Node000036_Node000021" class="edge">
<title>Node36&#45;&gt;Node21</title>
<g id="a_edge40_Node000036_Node000021"><a xlink:title=" ">
<path fill="none" stroke="#63b8ff" d="M314.5,-279.59C346.24,-270.23 394.94,-255.86 428.43,-245.98"/>
<polygon fill="#63b8ff" stroke="#63b8ff" points="429.1,-249.43 437.7,-243.24 427.12,-242.71 429.1,-249.43"/>
</a>
</g>
</g>
<!-- Node36&#45;&gt;Node27 -->
<g id="edge38_Node000036_Node000027" class="edge">
<title>Node36&#45;&gt;Node27</title>
<g id="a_edge38_Node000036_Node000027"><a xlink:title=" ">
<path fill="none" stroke="#63b8ff" d="M321.64,-282.59C375.2,-273.51 468.52,-256.61 500.62,-244 516.59,-237.73 518.82,-232.65 533.62,-224 551.07,-213.81 570.85,-202.68 586.38,-194.04"/>
<polygon fill="#63b8ff" stroke="#63b8ff" points="588,-197.14 595.04,-189.23 584.6,-191.02 588,-197.14"/>
</a>
</g>
</g>
<!-- Node37 -->
<g id="Node000037" class="node">
<title>Node37</title>
<g id="a_Node000037"><a xlink:href="_scope_writer_8inl.html" target="_top" xlink:title=" ">
<polygon fill="white" stroke="#666666" points="239.62,-244 157.62,-244 157.62,-224 239.62,-224 239.62,-244"/>
<text text-anchor="middle" x="198.62" y="-230.5" font-family="Helvetica,sans-Serif" font-size="10.00">ScopeWriter.inl</text>
</a>
</g>
</g>
<!-- Node36&#45;&gt;Node37 -->
<g id="edge41_Node000036_Node000037" class="edge">
<title>Node36&#45;&gt;Node37</title>
<g id="a_edge41_Node000036_Node000037"><a xlink:title=" ">
<path fill="none" stroke="#63b8ff" d="M262.73,-279.59C248.86,-271.7 230.72,-260.24 217.17,-250.92"/>
<polygon fill="#63b8ff" stroke="#63b8ff" points="219.26,-248.11 209.08,-245.17 215.21,-253.82 219.26,-248.11"/>
</a>
</g>
</g>
<!-- Node37&#45;&gt;Node36 -->
<g id="edge42_Node000037_Node000036" class="edge">
<title>Node37&#45;&gt;Node36</title>
<g id="a_edge42_Node000037_Node000036"><a xlink:title=" ">
<path fill="none" stroke="#63b8ff" d="M218.65,-244.48C232.46,-252.35 250.46,-263.72 263.96,-273"/>
<polygon fill="#63b8ff" stroke="#63b8ff" points="261.84,-275.79 272.03,-278.72 265.89,-270.08 261.84,-275.79"/>
</a>
</g>
</g>
<!-- Node38&#45;&gt;Node4 -->
<g id="edge45_Node000038_Node000004" class="edge">
<title>Node38&#45;&gt;Node4</title>
<g id="a_edge45_Node000038_Node000004"><a xlink:title=" ">
<path fill="none" stroke="#63b8ff" d="M383.17,-279.59C374.66,-271.93 362.41,-260.91 352.23,-251.75"/>
<polygon fill="#63b8ff" stroke="#63b8ff" points="354.86,-249.4 345.08,-245.31 350.17,-254.6 354.86,-249.4"/>
</a>
</g>
</g>
<!-- Node38&#45;&gt;Node6 -->
<g id="edge44_Node000038_Node000006" class="edge">
<title>Node38&#45;&gt;Node6</title>
<g id="a_edge44_Node000038_Node000006"><a xlink:title=" ">
<path fill="none" stroke="#63b8ff" d="M391.84,-279.73C389.38,-267.11 384.81,-243.82 380.62,-224 377.24,-207.96 375.68,-204.1 372.62,-188 365.98,-152.93 359.88,-111.84 356.47,-87.69"/>
<polygon fill="#63b8ff" stroke="#63b8ff" points="359.96,-87.37 355.11,-77.95 353.03,-88.33 359.96,-87.37"/>
</a>
</g>
</g>
<!-- Node38&#45;&gt;Node27 -->
<g id="edge46_Node000038_Node000027" class="edge">
<title>Node38&#45;&gt;Node27</title>
<g id="a_edge46_Node000038_Node000027"><a xlink:title=" ">
<path fill="none" stroke="#63b8ff" d="M428.15,-281.7C457.4,-274.64 499.84,-262.31 533.62,-244 557.56,-231.03 581.3,-210.52 596.63,-196.01"/>
<polygon fill="#63b8ff" stroke="#63b8ff" points="598.78,-198.79 603.53,-189.32 593.91,-193.77 598.78,-198.79"/>
</a>
</g>
</g>
</g>
</svg>
