<?xml version="1.0" encoding="UTF-8" standalone="no"?>
<!DOCTYPE svg PUBLIC "-//W3C//DTD SVG 1.1//EN"
 "http://www.w3.org/Graphics/SVG/1.1/DTD/svg11.dtd">
<!-- Generated by graphviz version 12.2.1 (20241206.2353)
 -->
<!-- Title: FIEAGameEngine/include/Content/Actions/ActionList.h Pages: 1 -->
<svg width="1123pt" height="200pt"
 viewBox="0.00 0.00 1122.75 200.00" xmlns="http://www.w3.org/2000/svg" xmlns:xlink="http://www.w3.org/1999/xlink">
<g id="graph0" class="graph" transform="scale(1 1) rotate(0) translate(4 196)">
<title>FIEAGameEngine/include/Content/Actions/ActionList.h</title>
<!-- Node1 -->
<g id="Node000001" class="node">
<title>Node1</title>
<g id="a_Node000001"><a xlink:title=" ">
<polygon fill="#999999" stroke="#666666" points="687.75,-192 543.5,-192 543.5,-160 687.75,-160 687.75,-192"/>
<text text-anchor="start" x="551.5" y="-178.5" font-family="Helvetica,sans-Serif" font-size="10.00">FIEAGameEngine/include</text>
<text text-anchor="middle" x="615.62" y="-166.5" font-family="Helvetica,sans-Serif" font-size="10.00">/Content/Actions/ActionList.h</text>
</a>
</g>
</g>
<!-- Node2 -->
<g id="Node000002" class="node">
<title>Node2</title>
<g id="a_Node000002"><a xlink:href="_delayed_action_8h.html" target="_top" xlink:title=" ">
<polygon fill="white" stroke="#666666" points="325.88,-118 161.38,-118 161.38,-86 325.88,-86 325.88,-118"/>
<text text-anchor="start" x="169.38" y="-104.5" font-family="Helvetica,sans-Serif" font-size="10.00">FIEAGameEngine/include</text>
<text text-anchor="middle" x="243.62" y="-92.5" font-family="Helvetica,sans-Serif" font-size="10.00">/Content/Actions/DelayedAction.h</text>
</a>
</g>
</g>
<!-- Node1&#45;&gt;Node2 -->
<g id="edge1_Node000001_Node000002" class="edge">
<title>Node1&#45;&gt;Node2</title>
<g id="a_edge1_Node000001_Node000002"><a xlink:title=" ">
<path fill="none" stroke="#63b8ff" d="M532.09,-160.3C477.28,-150.47 404.09,-137 339.62,-124 331.01,-122.26 321.98,-120.37 313.04,-118.47"/>
<polygon fill="#63b8ff" stroke="#63b8ff" points="531.2,-163.69 541.66,-162.01 532.43,-156.8 531.2,-163.69"/>
</a>
</g>
</g>
<!-- Node4 -->
<g id="Node000004" class="node">
<title>Node4</title>
<g id="a_Node000004"><a xlink:href="_action_test_8cpp.html" target="_top" xlink:title=" ">
<polygon fill="white" stroke="#666666" points="297.75,-32 189.5,-32 189.5,-12 297.75,-12 297.75,-32"/>
<text text-anchor="middle" x="243.62" y="-18.5" font-family="Helvetica,sans-Serif" font-size="10.00">Tests/ActionTest.cpp</text>
</a>
</g>
</g>
<!-- Node1&#45;&gt;Node4 -->
<g id="edge18_Node000001_Node000004" class="edge">
<title>Node1&#45;&gt;Node4</title>
<g id="a_edge18_Node000001_Node000004"><a xlink:title=" ">
<path fill="none" stroke="#63b8ff" d="M531.92,-170.76C482.7,-165.14 420.86,-152.43 372.62,-124 350.37,-110.88 354.24,-96.82 334.62,-80 311.7,-60.34 281.35,-42.73 262.15,-32.46"/>
<polygon fill="#63b8ff" stroke="#63b8ff" points="531.37,-174.22 541.68,-171.79 532.1,-167.26 531.37,-174.22"/>
</a>
</g>
</g>
<!-- Node5 -->
<g id="Node000005" class="node">
<title>Node5</title>
<g id="a_Node000005"><a xlink:href="_serialization_tests_8cpp.html" target="_top" xlink:title=" ">
<polygon fill="white" stroke="#666666" points="635.12,-32 496.12,-32 496.12,-12 635.12,-12 635.12,-32"/>
<text text-anchor="middle" x="565.62" y="-18.5" font-family="Helvetica,sans-Serif" font-size="10.00">Tests/SerializationTests.cpp</text>
</a>
</g>
</g>
<!-- Node1&#45;&gt;Node5 -->
<g id="edge19_Node000001_Node000005" class="edge">
<title>Node1&#45;&gt;Node5</title>
<g id="a_edge19_Node000001_Node000005"><a xlink:title=" ">
<path fill="none" stroke="#63b8ff" d="M598.73,-150.11C593.89,-142.06 589.02,-132.91 585.62,-124 573.36,-91.76 568.22,-50.72 566.43,-32.48"/>
<polygon fill="#63b8ff" stroke="#63b8ff" points="595.62,-151.74 603.91,-158.33 601.54,-148.01 595.62,-151.74"/>
</a>
</g>
</g>
<!-- Node6 -->
<g id="Node000006" class="node">
<title>Node6</title>
<g id="a_Node000006"><a xlink:href="_timed_action_8h.html" target="_top" xlink:title=" ">
<polygon fill="white" stroke="#666666" points="537.38,-118 381.88,-118 381.88,-86 537.38,-86 537.38,-118"/>
<text text-anchor="start" x="389.88" y="-104.5" font-family="Helvetica,sans-Serif" font-size="10.00">FIEAGameEngine/include</text>
<text text-anchor="middle" x="459.62" y="-92.5" font-family="Helvetica,sans-Serif" font-size="10.00">/Content/Actions/TimedAction.h</text>
</a>
</g>
</g>
<!-- Node1&#45;&gt;Node6 -->
<g id="edge5_Node000001_Node000006" class="edge">
<title>Node1&#45;&gt;Node6</title>
<g id="a_edge5_Node000001_Node000006"><a xlink:title=" ">
<path fill="none" stroke="#63b8ff" d="M571.85,-154.8C546.87,-143.27 516.05,-129.04 493.04,-118.42"/>
<polygon fill="#63b8ff" stroke="#63b8ff" points="570.24,-157.91 580.78,-158.92 573.17,-151.55 570.24,-157.91"/>
</a>
</g>
</g>
<!-- Node8 -->
<g id="Node000008" class="node">
<title>Node8</title>
<g id="a_Node000008"><a xlink:href="_while_action_list_8h.html" target="_top" xlink:title=" ">
<polygon fill="white" stroke="#666666" points="739.12,-124 594.12,-124 594.12,-80 739.12,-80 739.12,-124"/>
<text text-anchor="start" x="602.12" y="-110.5" font-family="Helvetica,sans-Serif" font-size="10.00">FIEAGameEngine/include</text>
<text text-anchor="start" x="602.12" y="-98.5" font-family="Helvetica,sans-Serif" font-size="10.00">/Content/Actions/WhileAction</text>
<text text-anchor="middle" x="666.62" y="-86.5" font-family="Helvetica,sans-Serif" font-size="10.00">List.h</text>
</a>
</g>
</g>
<!-- Node1&#45;&gt;Node8 -->
<g id="edge9_Node000001_Node000008" class="edge">
<title>Node1&#45;&gt;Node8</title>
<g id="a_edge9_Node000001_Node000008"><a xlink:title=" ">
<path fill="none" stroke="#63b8ff" d="M632.9,-150.61C638.96,-142.06 645.71,-132.53 651.57,-124.26"/>
<polygon fill="#63b8ff" stroke="#63b8ff" points="630.24,-148.31 627.32,-158.5 635.95,-152.36 630.24,-148.31"/>
</a>
</g>
</g>
<!-- Node9 -->
<g id="Node000009" class="node">
<title>Node9</title>
<g id="a_Node000009"><a xlink:href="_action_handler_8cpp.html" target="_top" xlink:title=" ">
<polygon fill="white" stroke="#666666" points="946.88,-38 812.38,-38 812.38,-6 946.88,-6 946.88,-38"/>
<text text-anchor="start" x="820.38" y="-24.5" font-family="Helvetica,sans-Serif" font-size="10.00">FIEAGameEngine/src</text>
<text text-anchor="middle" x="879.62" y="-12.5" font-family="Helvetica,sans-Serif" font-size="10.00">/content/ActionHandler.cpp</text>
</a>
</g>
</g>
<!-- Node1&#45;&gt;Node9 -->
<g id="edge15_Node000001_Node000009" class="edge">
<title>Node1&#45;&gt;Node9</title>
<g id="a_edge15_Node000001_Node000009"><a xlink:title=" ">
<path fill="none" stroke="#63b8ff" d="M682.25,-155.8C704.36,-147.81 728.47,-137.25 748.62,-124 771.47,-108.98 770.46,-97.32 791.62,-80 810.78,-64.32 834.42,-49.21 852.37,-38.5"/>
<polygon fill="#63b8ff" stroke="#63b8ff" points="681.3,-152.42 673,-159.02 683.6,-159.03 681.3,-152.42"/>
</a>
</g>
</g>
<!-- Node10 -->
<g id="Node000010" class="node">
<title>Node10</title>
<g id="a_Node000010"><a xlink:href="_action_list_handler_8cpp.html" target="_top" xlink:title=" ">
<polygon fill="white" stroke="#666666" points="1114.75,-38 964.5,-38 964.5,-6 1114.75,-6 1114.75,-38"/>
<text text-anchor="start" x="972.5" y="-24.5" font-family="Helvetica,sans-Serif" font-size="10.00">FIEAGameEngine/src</text>
<text text-anchor="middle" x="1039.62" y="-12.5" font-family="Helvetica,sans-Serif" font-size="10.00">/content/ActionListHandler.cpp</text>
</a>
</g>
</g>
<!-- Node1&#45;&gt;Node10 -->
<g id="edge16_Node000001_Node000010" class="edge">
<title>Node1&#45;&gt;Node10</title>
<g id="a_edge16_Node000001_Node000010"><a xlink:title=" ">
<path fill="none" stroke="#63b8ff" d="M699.02,-159.15C727.56,-151.37 758.79,-140.09 784.62,-124 807.32,-109.87 802.71,-93.75 825.62,-80 832.35,-75.96 917.52,-53.9 978.36,-38.43"/>
<polygon fill="#63b8ff" stroke="#63b8ff" points="698.49,-155.67 689.69,-161.58 700.25,-162.45 698.49,-155.67"/>
</a>
</g>
</g>
<!-- Node12 -->
<g id="Node000012" class="node">
<title>Node12</title>
<g id="a_Node000012"><a xlink:href="_action_list_8cpp.html" target="_top" xlink:title=" ">
<polygon fill="white" stroke="#666666" points="985.12,-118 834.12,-118 834.12,-86 985.12,-86 985.12,-118"/>
<text text-anchor="start" x="842.12" y="-104.5" font-family="Helvetica,sans-Serif" font-size="10.00">FIEAGameEngine/src</text>
<text text-anchor="middle" x="909.62" y="-92.5" font-family="Helvetica,sans-Serif" font-size="10.00">/content/actions/ActionList.cpp</text>
</a>
</g>
</g>
<!-- Node1&#45;&gt;Node12 -->
<g id="edge17_Node000001_Node000012" class="edge">
<title>Node1&#45;&gt;Node12</title>
<g id="a_edge17_Node000001_Node000012"><a xlink:title=" ">
<path fill="none" stroke="#63b8ff" d="M689.72,-156.86C738.04,-145.02 800.43,-129.74 846.41,-118.48"/>
<polygon fill="#63b8ff" stroke="#63b8ff" points="689.05,-153.42 680.17,-159.19 690.71,-160.21 689.05,-153.42"/>
</a>
</g>
</g>
<!-- Node3 -->
<g id="Node000003" class="node">
<title>Node3</title>
<g id="a_Node000003"><a xlink:href="_delayed_action_8cpp.html" target="_top" xlink:title=" ">
<polygon fill="white" stroke="#666666" points="171.25,-38 0,-38 0,-6 171.25,-6 171.25,-38"/>
<text text-anchor="start" x="8" y="-24.5" font-family="Helvetica,sans-Serif" font-size="10.00">FIEAGameEngine/src</text>
<text text-anchor="middle" x="85.62" y="-12.5" font-family="Helvetica,sans-Serif" font-size="10.00">/content/actions/DelayedAction.cpp</text>
</a>
</g>
</g>
<!-- Node2&#45;&gt;Node3 -->
<g id="edge2_Node000002_Node000003" class="edge">
<title>Node2&#45;&gt;Node3</title>
<g id="a_edge2_Node000002_Node000003"><a xlink:title=" ">
<path fill="none" stroke="#63b8ff" d="M202.19,-80.55C175.45,-67.34 141.21,-50.44 116.78,-38.38"/>
<polygon fill="#63b8ff" stroke="#63b8ff" points="200.54,-83.63 211.05,-84.92 203.63,-77.35 200.54,-83.63"/>
</a>
</g>
</g>
<!-- Node2&#45;&gt;Node4 -->
<g id="edge3_Node000002_Node000004" class="edge">
<title>Node2&#45;&gt;Node4</title>
<g id="a_edge3_Node000002_Node000004"><a xlink:title=" ">
<path fill="none" stroke="#63b8ff" d="M243.62,-74.23C243.62,-59.77 243.62,-42.81 243.62,-32.49"/>
<polygon fill="#63b8ff" stroke="#63b8ff" points="240.13,-74.08 243.63,-84.08 247.13,-74.08 240.13,-74.08"/>
</a>
</g>
</g>
<!-- Node2&#45;&gt;Node5 -->
<g id="edge4_Node000002_Node000005" class="edge">
<title>Node2&#45;&gt;Node5</title>
<g id="a_edge4_Node000002_Node000005"><a xlink:title=" ">
<path fill="none" stroke="#63b8ff" d="M323.25,-82.94C370.76,-72.02 432.24,-57.6 486.62,-44 501.22,-40.35 517.27,-36.12 531.07,-32.42"/>
<polygon fill="#63b8ff" stroke="#63b8ff" points="322.54,-79.52 313.57,-85.17 324.1,-86.34 322.54,-79.52"/>
</a>
</g>
</g>
<!-- Node6&#45;&gt;Node4 -->
<g id="edge7_Node000006_Node000004" class="edge">
<title>Node6&#45;&gt;Node4</title>
<g id="a_edge7_Node000006_Node000004"><a xlink:title=" ">
<path fill="none" stroke="#63b8ff" d="M406.3,-81.74C362.94,-66.09 303.62,-44.67 269.9,-32.49"/>
<polygon fill="#63b8ff" stroke="#63b8ff" points="404.93,-84.97 415.53,-85.08 407.31,-78.39 404.93,-84.97"/>
</a>
</g>
</g>
<!-- Node6&#45;&gt;Node5 -->
<g id="edge8_Node000006_Node000005" class="edge">
<title>Node6&#45;&gt;Node5</title>
<g id="a_edge8_Node000006_Node000005"><a xlink:title=" ">
<path fill="none" stroke="#63b8ff" d="M489.66,-78.9C510.48,-63.58 537.16,-43.94 552.73,-32.49"/>
<polygon fill="#63b8ff" stroke="#63b8ff" points="487.77,-75.95 481.79,-84.69 491.92,-81.58 487.77,-75.95"/>
</a>
</g>
</g>
<!-- Node7 -->
<g id="Node000007" class="node">
<title>Node7</title>
<g id="a_Node000007"><a xlink:href="_timed_action_8cpp.html" target="_top" xlink:title=" ">
<polygon fill="white" stroke="#666666" points="477.75,-38 315.5,-38 315.5,-6 477.75,-6 477.75,-38"/>
<text text-anchor="start" x="323.5" y="-24.5" font-family="Helvetica,sans-Serif" font-size="10.00">FIEAGameEngine/src</text>
<text text-anchor="middle" x="396.62" y="-12.5" font-family="Helvetica,sans-Serif" font-size="10.00">/content/actions/TimedAction.cpp</text>
</a>
</g>
</g>
<!-- Node6&#45;&gt;Node7 -->
<g id="edge6_Node000006_Node000007" class="edge">
<title>Node6&#45;&gt;Node7</title>
<g id="a_edge6_Node000006_Node000007"><a xlink:title=" ">
<path fill="none" stroke="#63b8ff" d="M440.21,-76.96C430.05,-64.39 417.93,-49.37 409.05,-38.38"/>
<polygon fill="#63b8ff" stroke="#63b8ff" points="437.22,-78.83 446.23,-84.41 442.67,-74.43 437.22,-78.83"/>
</a>
</g>
</g>
<!-- Node8&#45;&gt;Node4 -->
<g id="edge13_Node000008_Node000004" class="edge">
<title>Node8&#45;&gt;Node4</title>
<g id="a_edge13_Node000008_Node000004"><a xlink:title=" ">
<path fill="none" stroke="#63b8ff" d="M582.67,-86.04C570.59,-83.96 558.29,-81.9 546.62,-80 440.16,-62.7 411.51,-69.15 306.62,-44 293.96,-40.96 280.2,-36.51 268.78,-32.49"/>
<polygon fill="#63b8ff" stroke="#63b8ff" points="581.75,-89.43 592.2,-87.69 582.95,-82.54 581.75,-89.43"/>
</a>
</g>
</g>
<!-- Node8&#45;&gt;Node5 -->
<g id="edge14_Node000008_Node000005" class="edge">
<title>Node8&#45;&gt;Node5</title>
<g id="a_edge14_Node000008_Node000005"><a xlink:title=" ">
<path fill="none" stroke="#63b8ff" d="M630.04,-72.74C611.75,-58.62 590.83,-42.47 577.92,-32.5"/>
<polygon fill="#63b8ff" stroke="#63b8ff" points="627.77,-75.42 637.83,-78.76 632.05,-69.88 627.77,-75.42"/>
</a>
</g>
</g>
<!-- Node8&#45;&gt;Node9 -->
<g id="edge10_Node000008_Node000009" class="edge">
<title>Node8&#45;&gt;Node9</title>
<g id="a_edge10_Node000008_Node000009"><a xlink:title=" ">
<path fill="none" stroke="#63b8ff" d="M735.78,-75.68C769.3,-63.4 808.48,-49.05 837.48,-38.43"/>
<polygon fill="#63b8ff" stroke="#63b8ff" points="734.72,-72.34 726.53,-79.06 737.12,-78.91 734.72,-72.34"/>
</a>
</g>
</g>
<!-- Node8&#45;&gt;Node10 -->
<g id="edge11_Node000008_Node000010" class="edge">
<title>Node8&#45;&gt;Node10</title>
<g id="a_edge11_Node000008_Node000010"><a xlink:title=" ">
<path fill="none" stroke="#63b8ff" d="M750.86,-85.54C808.63,-74.66 886.96,-59.34 955.62,-44 963.4,-42.26 971.56,-40.34 979.6,-38.39"/>
<polygon fill="#63b8ff" stroke="#63b8ff" points="750.25,-82.1 741.07,-87.38 751.55,-88.97 750.25,-82.1"/>
</a>
</g>
</g>
<!-- Node11 -->
<g id="Node000011" class="node">
<title>Node11</title>
<g id="a_Node000011"><a xlink:href="_while_action_list_8cpp.html" target="_top" xlink:title=" ">
<polygon fill="white" stroke="#666666" points="794.25,-44 653,-44 653,0 794.25,0 794.25,-44"/>
<text text-anchor="start" x="661" y="-30.5" font-family="Helvetica,sans-Serif" font-size="10.00">FIEAGameEngine/src</text>
<text text-anchor="start" x="661" y="-18.5" font-family="Helvetica,sans-Serif" font-size="10.00">/content/actions/WhileAction</text>
<text text-anchor="middle" x="723.62" y="-6.5" font-family="Helvetica,sans-Serif" font-size="10.00">List.cpp</text>
</a>
</g>
</g>
<!-- Node8&#45;&gt;Node11 -->
<g id="edge12_Node000008_Node000011" class="edge">
<title>Node8&#45;&gt;Node11</title>
<g id="a_edge12_Node000008_Node000011"><a xlink:title=" ">
<path fill="none" stroke="#63b8ff" d="M688.91,-70.5C695.32,-61.74 702.16,-52.37 708.07,-44.29"/>
<polygon fill="#63b8ff" stroke="#63b8ff" points="686.17,-68.33 683.09,-78.46 691.82,-72.46 686.17,-68.33"/>
</a>
</g>
</g>
</g>
</svg>
