<?xml version="1.0" encoding="UTF-8" standalone="no"?>
<!DOCTYPE svg PUBLIC "-//W3C//DTD SVG 1.1//EN"
 "http://www.w3.org/Graphics/SVG/1.1/DTD/svg11.dtd">
<!-- Generated by graphviz version 12.2.1 (20241206.2353)
 -->
<!-- Title: FIEAGameEngine/src/content/ActionHandler.cpp Pages: 1 -->
<svg width="748pt" height="556pt"
 viewBox="0.00 0.00 747.75 556.00" xmlns="http://www.w3.org/2000/svg" xmlns:xlink="http://www.w3.org/1999/xlink">
<g id="graph0" class="graph" transform="scale(1 1) rotate(0) translate(4 552)">
<title>FIEAGameEngine/src/content/ActionHandler.cpp</title>
<!-- Node1 -->
<g id="Node000001" class="node">
<title>Node1</title>
<g id="a_Node000001"><a xlink:title=" ">
<polygon fill="#999999" stroke="#666666" points="480.88,-548 346.38,-548 346.38,-516 480.88,-516 480.88,-548"/>
<text text-anchor="start" x="354.38" y="-534.5" font-family="Helvetica,sans-Serif" font-size="10.00">FIEAGameEngine/src</text>
<text text-anchor="middle" x="413.62" y="-522.5" font-family="Helvetica,sans-Serif" font-size="10.00">/content/ActionHandler.cpp</text>
</a>
</g>
</g>
<!-- Node2 -->
<g id="Node000002" class="node">
<title>Node2</title>
<g id="a_Node000002"><a xlink:href="_action_handler_8h.html" target="_top" xlink:title=" ">
<polygon fill="white" stroke="#666666" points="246.25,-474 123,-474 123,-454 246.25,-454 246.25,-474"/>
<text text-anchor="middle" x="184.62" y="-460.5" font-family="Helvetica,sans-Serif" font-size="10.00">Content/ActionHandler.h</text>
</a>
</g>
</g>
<!-- Node1&#45;&gt;Node2 -->
<g id="edge1_Node000001_Node000002" class="edge">
<title>Node1&#45;&gt;Node2</title>
<g id="a_edge1_Node000001_Node000002"><a xlink:title=" ">
<path fill="none" stroke="#63b8ff" d="M359.93,-515.53C319.92,-503.99 265.95,-488.44 228.5,-477.65"/>
<polygon fill="#63b8ff" stroke="#63b8ff" points="229.48,-474.29 218.9,-474.88 227.54,-481.01 229.48,-474.29"/>
</a>
</g>
</g>
<!-- Node18 -->
<g id="Node000018" class="node">
<title>Node18</title>
<g id="a_Node000018"><a xlink:href="_action_8h.html" target="_top" xlink:title=" ">
<polygon fill="white" stroke="#666666" points="554.38,-356 428.88,-356 428.88,-336 554.38,-336 554.38,-356"/>
<text text-anchor="middle" x="491.62" y="-342.5" font-family="Helvetica,sans-Serif" font-size="10.00">Content/Actions/Action.h</text>
</a>
</g>
</g>
<!-- Node1&#45;&gt;Node18 -->
<g id="edge17_Node000001_Node000018" class="edge">
<title>Node1&#45;&gt;Node18</title>
<g id="a_edge17_Node000001_Node000018"><a xlink:title=" ">
<path fill="none" stroke="#63b8ff" d="M401.84,-515.9C395.05,-506.23 387.19,-493.08 383.62,-480 373.35,-442.26 361.93,-424.54 383.62,-392 393.7,-376.88 409.92,-366.84 426.76,-360.16"/>
<polygon fill="#63b8ff" stroke="#63b8ff" points="427.6,-363.58 435.85,-356.94 425.25,-356.98 427.6,-363.58"/>
</a>
</g>
</g>
<!-- Node33 -->
<g id="Node000033" class="node">
<title>Node33</title>
<g id="a_Node000033"><a xlink:href="_game_object_8h.html" target="_top" xlink:title=" ">
<polygon fill="white" stroke="#666666" points="668.88,-412 552.38,-412 552.38,-392 668.88,-392 668.88,-412"/>
<text text-anchor="middle" x="610.62" y="-398.5" font-family="Helvetica,sans-Serif" font-size="10.00">Content/GameObject.h</text>
</a>
</g>
</g>
<!-- Node1&#45;&gt;Node33 -->
<g id="edge29_Node000001_Node000033" class="edge">
<title>Node1&#45;&gt;Node33</title>
<g id="a_edge29_Node000001_Node000033"><a xlink:title=" ">
<path fill="none" stroke="#63b8ff" d="M481.18,-517.61C507.91,-509.88 537.66,-497.99 560.62,-480 580.08,-464.76 594.31,-439.74 602.51,-422.37"/>
<polygon fill="#63b8ff" stroke="#63b8ff" points="605.53,-424.19 606.4,-413.63 599.14,-421.34 605.53,-424.19"/>
</a>
</g>
</g>
<!-- Node34 -->
<g id="Node000034" class="node">
<title>Node34</title>
<g id="a_Node000034"><a xlink:href="_action_list_8h.html" target="_top" xlink:title=" ">
<polygon fill="white" stroke="#666666" points="534.25,-412 393,-412 393,-392 534.25,-392 534.25,-412"/>
<text text-anchor="middle" x="463.62" y="-398.5" font-family="Helvetica,sans-Serif" font-size="10.00">Content/Actions/ActionList.h</text>
</a>
</g>
</g>
<!-- Node1&#45;&gt;Node34 -->
<g id="edge32_Node000001_Node000034" class="edge">
<title>Node1&#45;&gt;Node34</title>
<g id="a_edge32_Node000001_Node000034"><a xlink:title=" ">
<path fill="none" stroke="#63b8ff" d="M481.33,-520.55C505.07,-513.27 529.35,-500.93 543.62,-480 551.64,-468.25 550.81,-460.28 543.62,-448 535.4,-433.94 521,-423.94 506.65,-416.99"/>
<polygon fill="#63b8ff" stroke="#63b8ff" points="508.26,-413.87 497.7,-413.06 505.45,-420.28 508.26,-413.87"/>
</a>
</g>
</g>
<!-- Node35 -->
<g id="Node000035" class="node">
<title>Node35</title>
<g id="a_Node000035"><a xlink:href="_while_action_list_8h.html" target="_top" xlink:title=" ">
<polygon fill="white" stroke="#666666" points="534.62,-480 392.62,-480 392.62,-448 534.62,-448 534.62,-480"/>
<text text-anchor="start" x="400.62" y="-466.5" font-family="Helvetica,sans-Serif" font-size="10.00">Content/Actions/WhileAction</text>
<text text-anchor="middle" x="463.62" y="-454.5" font-family="Helvetica,sans-Serif" font-size="10.00">List.h</text>
</a>
</g>
</g>
<!-- Node1&#45;&gt;Node35 -->
<g id="edge34_Node000001_Node000035" class="edge">
<title>Node1&#45;&gt;Node35</title>
<g id="a_edge34_Node000001_Node000035"><a xlink:title=" ">
<path fill="none" stroke="#63b8ff" d="M425.22,-515.69C431.15,-507.86 438.52,-498.15 445.2,-489.32"/>
<polygon fill="#63b8ff" stroke="#63b8ff" points="447.93,-491.52 451.18,-481.43 442.35,-487.29 447.93,-491.52"/>
</a>
</g>
</g>
<!-- Node36 -->
<g id="Node000036" class="node">
<title>Node36</title>
<g id="a_Node000036"><a xlink:href="_scope_writer_8h.html" target="_top" xlink:title=" ">
<polygon fill="white" stroke="#666666" points="312.38,-300 234.88,-300 234.88,-280 312.38,-280 312.38,-300"/>
<text text-anchor="middle" x="273.62" y="-286.5" font-family="Helvetica,sans-Serif" font-size="10.00">ScopeWriter.h</text>
</a>
</g>
</g>
<!-- Node1&#45;&gt;Node36 -->
<g id="edge36_Node000001_Node000036" class="edge">
<title>Node1&#45;&gt;Node36</title>
<g id="a_edge36_Node000001_Node000036"><a xlink:title=" ">
<path fill="none" stroke="#63b8ff" d="M393.42,-515.65C382.1,-506.29 368.35,-493.54 358.62,-480 318.65,-424.34 291.11,-346.88 279.62,-310.87"/>
<polygon fill="#63b8ff" stroke="#63b8ff" points="283.11,-310.3 276.8,-301.79 276.43,-312.37 283.11,-310.3"/>
</a>
</g>
</g>
<!-- Node38 -->
<g id="Node000038" class="node">
<title>Node38</title>
<g id="a_Node000038"><a xlink:href="_test_writer_8h.html" target="_top" xlink:title=" ">
<polygon fill="white" stroke="#666666" points="415.88,-300 347.38,-300 347.38,-280 415.88,-280 415.88,-300"/>
<text text-anchor="middle" x="381.62" y="-286.5" font-family="Helvetica,sans-Serif" font-size="10.00">TestWriter.h</text>
</a>
</g>
</g>
<!-- Node1&#45;&gt;Node38 -->
<g id="edge44_Node000001_Node000038" class="edge">
<title>Node1&#45;&gt;Node38</title>
<g id="a_edge44_Node000001_Node000038"><a xlink:title=" ">
<path fill="none" stroke="#63b8ff" d="M396.02,-515.91C386.56,-506.64 375.81,-493.89 370.62,-480 348.91,-421.89 365.2,-346.73 375.25,-311.25"/>
<polygon fill="#63b8ff" stroke="#63b8ff" points="378.54,-312.48 378.04,-301.89 371.83,-310.48 378.54,-312.48"/>
</a>
</g>
</g>
<!-- Node39 -->
<g id="Node000039" class="node">
<title>Node39</title>
<g id="a_Node000039"><a xlink:title=" ">
<polygon fill="#e0e0e0" stroke="#999999" points="668.62,-474 628.62,-474 628.62,-454 668.62,-454 668.62,-474"/>
<text text-anchor="middle" x="648.62" y="-460.5" font-family="Helvetica,sans-Serif" font-size="10.00">regex</text>
</a>
</g>
</g>
<!-- Node1&#45;&gt;Node39 -->
<g id="edge48_Node000001_Node000039" class="edge">
<title>Node1&#45;&gt;Node39</title>
<g id="a_edge48_Node000001_Node000039"><a xlink:title=" ">
<path fill="none" stroke="#63b8ff" d="M480.99,-516.87C520.42,-507.87 570.89,-495.08 614.62,-480 615.78,-479.6 616.96,-479.18 618.14,-478.74"/>
<polygon fill="#63b8ff" stroke="#63b8ff" points="619.36,-482.02 627.31,-475.02 616.73,-475.53 619.36,-482.02"/>
</a>
</g>
</g>
<!-- Node3 -->
<g id="Node000003" class="node">
<title>Node3</title>
<g id="a_Node000003"><a xlink:href="_i_parse_handler_8h.html" target="_top" xlink:title=" ">
<polygon fill="white" stroke="#666666" points="178.88,-300 92.38,-300 92.38,-280 178.88,-280 178.88,-300"/>
<text text-anchor="middle" x="135.62" y="-286.5" font-family="Helvetica,sans-Serif" font-size="10.00">IParseHandler.h</text>
</a>
</g>
</g>
<!-- Node2&#45;&gt;Node3 -->
<g id="edge2_Node000002_Node000003" class="edge">
<title>Node2&#45;&gt;Node3</title>
<g id="a_edge2_Node000002_Node000003"><a xlink:title=" ">
<path fill="none" stroke="#63b8ff" d="M181.92,-453.51C174.21,-426.43 151.97,-348.36 141.37,-311.17"/>
<polygon fill="#63b8ff" stroke="#63b8ff" points="144.78,-310.37 138.68,-301.71 138.05,-312.29 144.78,-310.37"/>
</a>
</g>
</g>
<!-- Node4 -->
<g id="Node000004" class="node">
<title>Node4</title>
<g id="a_Node000004"><a xlink:href="_parse_writer_8h.html" target="_top" xlink:title=" ">
<polygon fill="white" stroke="#666666" points="371.25,-244 296,-244 296,-224 371.25,-224 371.25,-244"/>
<text text-anchor="middle" x="333.62" y="-230.5" font-family="Helvetica,sans-Serif" font-size="10.00">ParseWriter.h</text>
</a>
</g>
</g>
<!-- Node3&#45;&gt;Node4 -->
<g id="edge3_Node000003_Node000004" class="edge">
<title>Node3&#45;&gt;Node4</title>
<g id="a_edge3_Node000003_Node000004"><a xlink:title=" ">
<path fill="none" stroke="#63b8ff" d="M170.11,-279.59C202.85,-270.67 252.25,-257.19 288.18,-247.39"/>
<polygon fill="#63b8ff" stroke="#63b8ff" points="288.68,-250.89 297.41,-244.88 286.84,-244.13 288.68,-250.89"/>
</a>
</g>
</g>
<!-- Node12 -->
<g id="Node000012" class="node">
<title>Node12</title>
<g id="a_Node000012"><a xlink:title=" ">
<polygon fill="#e0e0e0" stroke="#999999" points="142.62,-20 102.62,-20 102.62,0 142.62,0 142.62,-20"/>
<text text-anchor="middle" x="122.62" y="-6.5" font-family="Helvetica,sans-Serif" font-size="10.00">string</text>
</a>
</g>
</g>
<!-- Node3&#45;&gt;Node12 -->
<g id="edge15_Node000003_Node000012" class="edge">
<title>Node3&#45;&gt;Node12</title>
<g id="a_edge15_Node000003_Node000012"><a xlink:title=" ">
<path fill="none" stroke="#63b8ff" d="M128.94,-279.51C116.63,-261.06 91.62,-218.7 91.62,-179 91.62,-179 91.62,-179 91.62,-121 91.62,-88.52 104.3,-52.61 113.44,-30.93"/>
<polygon fill="#63b8ff" stroke="#63b8ff" points="116.61,-32.41 117.44,-21.84 110.21,-29.58 116.61,-32.41"/>
</a>
</g>
</g>
<!-- Node17 -->
<g id="Node000017" class="node">
<title>Node17</title>
<g id="a_Node000017"><a xlink:title=" ">
<polygon fill="#e0e0e0" stroke="#999999" points="63.25,-244 0,-244 0,-224 63.25,-224 63.25,-244"/>
<text text-anchor="middle" x="31.62" y="-230.5" font-family="Helvetica,sans-Serif" font-size="10.00">json/json.h</text>
</a>
</g>
</g>
<!-- Node3&#45;&gt;Node17 -->
<g id="edge16_Node000003_Node000017" class="edge">
<title>Node3&#45;&gt;Node17</title>
<g id="a_edge16_Node000003_Node000017"><a xlink:title=" ">
<path fill="none" stroke="#63b8ff" d="M117.51,-279.59C101.65,-271.36 78.34,-259.26 60.01,-249.74"/>
<polygon fill="#63b8ff" stroke="#63b8ff" points="61.71,-246.68 51.23,-245.18 58.49,-252.89 61.71,-246.68"/>
</a>
</g>
</g>
<!-- Node5 -->
<g id="Node000005" class="node">
<title>Node5</title>
<g id="a_Node000005"><a xlink:href="_r_t_t_i_8h.html" target="_top" xlink:title=" ">
<polygon fill="#fff0f0" stroke="red" points="509.5,-132 381.75,-132 381.75,-112 509.5,-112 509.5,-132"/>
<text text-anchor="middle" x="445.62" y="-118.5" font-family="Helvetica,sans-Serif" font-size="10.00">FIEAGameEngine/RTTI.h</text>
</a>
</g>
</g>
<!-- Node4&#45;&gt;Node5 -->
<g id="edge4_Node000004_Node000005" class="edge">
<title>Node4&#45;&gt;Node5</title>
<g id="a_edge4_Node000004_Node000005"><a xlink:title=" ">
<path fill="none" stroke="#63b8ff" d="M337.49,-223.67C343.46,-210.14 355.98,-184.85 372.62,-168 384.72,-155.76 400.76,-145.41 414.73,-137.72"/>
<polygon fill="#63b8ff" stroke="#63b8ff" points="416.34,-140.83 423.57,-133.09 413.09,-134.63 416.34,-140.83"/>
</a>
</g>
</g>
<!-- Node16 -->
<g id="Node000016" class="node">
<title>Node16</title>
<g id="a_Node000016"><a xlink:title=" ">
<polygon fill="#e0e0e0" stroke="#999999" points="287.62,-188 247.62,-188 247.62,-168 287.62,-168 287.62,-188"/>
<text text-anchor="middle" x="267.62" y="-174.5" font-family="Helvetica,sans-Serif" font-size="10.00">stack</text>
</a>
</g>
</g>
<!-- Node4&#45;&gt;Node16 -->
<g id="edge14_Node000004_Node000016" class="edge">
<title>Node4&#45;&gt;Node16</title>
<g id="a_edge14_Node000004_Node000016"><a xlink:title=" ">
<path fill="none" stroke="#63b8ff" d="M322.13,-223.59C312.66,-215.85 299.02,-204.69 287.75,-195.47"/>
<polygon fill="#63b8ff" stroke="#63b8ff" points="290.12,-192.88 280.16,-189.26 285.68,-198.3 290.12,-192.88"/>
</a>
</g>
</g>
<!-- Node6 -->
<g id="Node000006" class="node">
<title>Node6</title>
<g id="a_Node000006"><a xlink:href="_types_8h.html" target="_top" xlink:title=" ">
<polygon fill="white" stroke="#666666" points="419.75,-76 287.5,-76 287.5,-56 419.75,-56 419.75,-76"/>
<text text-anchor="middle" x="353.62" y="-62.5" font-family="Helvetica,sans-Serif" font-size="10.00">FIEAGameEngine/Types.h</text>
</a>
</g>
</g>
<!-- Node5&#45;&gt;Node6 -->
<g id="edge5_Node000005_Node000006" class="edge">
<title>Node5&#45;&gt;Node6</title>
<g id="a_edge5_Node000005_Node000006"><a xlink:title=" ">
<path fill="none" stroke="#63b8ff" d="M429.6,-111.59C415.83,-103.51 395.72,-91.71 379.65,-82.27"/>
<polygon fill="#63b8ff" stroke="#63b8ff" points="381.48,-79.29 371.08,-77.25 377.93,-85.33 381.48,-79.29"/>
</a>
</g>
</g>
<!-- Node7 -->
<g id="Node000007" class="node">
<title>Node7</title>
<g id="a_Node000007"><a xlink:title=" ">
<polygon fill="#e0e0e0" stroke="#999999" points="607.88,-20 545.38,-20 545.38,0 607.88,0 607.88,-20"/>
<text text-anchor="middle" x="576.62" y="-6.5" font-family="Helvetica,sans-Serif" font-size="10.00">windows.h</text>
</a>
</g>
</g>
<!-- Node6&#45;&gt;Node7 -->
<g id="edge6_Node000006_Node000007" class="edge">
<title>Node6&#45;&gt;Node7</title>
<g id="a_edge6_Node000006_Node000007"><a xlink:title=" ">
<path fill="none" stroke="#63b8ff" d="M392.72,-55.53C432.26,-45.96 493.19,-31.2 533.96,-21.33"/>
<polygon fill="#63b8ff" stroke="#63b8ff" points="534.78,-24.74 543.67,-18.98 533.13,-17.93 534.78,-24.74"/>
</a>
</g>
</g>
<!-- Node8 -->
<g id="Node000008" class="node">
<title>Node8</title>
<g id="a_Node000008"><a xlink:title=" ">
<polygon fill="#e0e0e0" stroke="#999999" points="673.75,-20 625.5,-20 625.5,0 673.75,0 673.75,-20"/>
<text text-anchor="middle" x="649.62" y="-6.5" font-family="Helvetica,sans-Serif" font-size="10.00">cassert</text>
</a>
</g>
</g>
<!-- Node6&#45;&gt;Node8 -->
<g id="edge7_Node000006_Node000008" class="edge">
<title>Node6&#45;&gt;Node8</title>
<g id="a_edge7_Node000006_Node000008"><a xlink:title=" ">
<path fill="none" stroke="#63b8ff" d="M419.63,-55.52C470.42,-47.81 542.56,-35.97 614.16,-20.38"/>
<polygon fill="#63b8ff" stroke="#63b8ff" points="614.69,-23.85 623.7,-18.28 613.18,-17.01 614.69,-23.85"/>
</a>
</g>
</g>
<!-- Node9 -->
<g id="Node000009" class="node">
<title>Node9</title>
<g id="a_Node000009"><a xlink:title=" ">
<polygon fill="#e0e0e0" stroke="#999999" points="739.75,-20 691.5,-20 691.5,0 739.75,0 739.75,-20"/>
<text text-anchor="middle" x="715.62" y="-6.5" font-family="Helvetica,sans-Serif" font-size="10.00">cstddef</text>
</a>
</g>
</g>
<!-- Node6&#45;&gt;Node9 -->
<g id="edge8_Node000006_Node000009" class="edge">
<title>Node6&#45;&gt;Node9</title>
<g id="a_edge8_Node000006_Node000009"><a xlink:title=" ">
<path fill="none" stroke="#63b8ff" d="M420.22,-58.47C484.51,-51.58 584.75,-39.32 680.19,-20.27"/>
<polygon fill="#63b8ff" stroke="#63b8ff" points="680.61,-23.76 689.72,-18.34 679.22,-16.9 680.61,-23.76"/>
</a>
</g>
</g>
<!-- Node10 -->
<g id="Node000010" class="node">
<title>Node10</title>
<g id="a_Node000010"><a xlink:title=" ">
<polygon fill="#e0e0e0" stroke="#999999" points="206.25,-20 161,-20 161,0 206.25,0 206.25,-20"/>
<text text-anchor="middle" x="183.62" y="-6.5" font-family="Helvetica,sans-Serif" font-size="10.00">cstdint</text>
</a>
</g>
</g>
<!-- Node6&#45;&gt;Node10 -->
<g id="edge9_Node000006_Node000010" class="edge">
<title>Node6&#45;&gt;Node10</title>
<g id="a_edge9_Node000006_Node000010"><a xlink:title=" ">
<path fill="none" stroke="#63b8ff" d="M324.01,-55.59C294.27,-46.15 248.52,-31.61 217.39,-21.72"/>
<polygon fill="#63b8ff" stroke="#63b8ff" points="218.67,-18.46 208.08,-18.77 216.55,-25.13 218.67,-18.46"/>
</a>
</g>
</g>
<!-- Node11 -->
<g id="Node000011" class="node">
<title>Node11</title>
<g id="a_Node000011"><a xlink:title=" ">
<polygon fill="#e0e0e0" stroke="#999999" points="277,-20 224.25,-20 224.25,0 277,0 277,-20"/>
<text text-anchor="middle" x="250.62" y="-6.5" font-family="Helvetica,sans-Serif" font-size="10.00">cstdbool</text>
</a>
</g>
</g>
<!-- Node6&#45;&gt;Node11 -->
<g id="edge10_Node000006_Node000011" class="edge">
<title>Node6&#45;&gt;Node11</title>
<g id="a_edge10_Node000006_Node000011"><a xlink:title=" ">
<path fill="none" stroke="#63b8ff" d="M335.68,-55.59C319.98,-47.36 296.89,-35.26 278.74,-25.74"/>
<polygon fill="#63b8ff" stroke="#63b8ff" points="280.53,-22.73 270.05,-21.18 277.28,-28.93 280.53,-22.73"/>
</a>
</g>
</g>
<!-- Node6&#45;&gt;Node12 -->
<g id="edge11_Node000006_Node000012" class="edge">
<title>Node6&#45;&gt;Node12</title>
<g id="a_edge11_Node000006_Node000012"><a xlink:title=" ">
<path fill="none" stroke="#63b8ff" d="M306.01,-55.54C267.4,-47.61 211.35,-35.53 153.96,-20.46"/>
<polygon fill="#63b8ff" stroke="#63b8ff" points="154.87,-17.08 144.31,-17.89 153.07,-23.84 154.87,-17.08"/>
</a>
</g>
</g>
<!-- Node13 -->
<g id="Node000013" class="node">
<title>Node13</title>
<g id="a_Node000013"><a xlink:title=" ">
<polygon fill="#e0e0e0" stroke="#999999" points="349.75,-20 295.5,-20 295.5,0 349.75,0 349.75,-20"/>
<text text-anchor="middle" x="322.62" y="-6.5" font-family="Helvetica,sans-Serif" font-size="10.00">crtdefs.h</text>
</a>
</g>
</g>
<!-- Node6&#45;&gt;Node13 -->
<g id="edge12_Node000006_Node000013" class="edge">
<title>Node6&#45;&gt;Node13</title>
<g id="a_edge12_Node000006_Node000013"><a xlink:title=" ">
<path fill="none" stroke="#63b8ff" d="M348.23,-55.59C344.18,-48.55 338.51,-38.67 333.53,-30"/>
<polygon fill="#63b8ff" stroke="#63b8ff" points="336.73,-28.54 328.72,-21.61 330.66,-32.03 336.73,-28.54"/>
</a>
</g>
</g>
<!-- Node14 -->
<g id="Node000014" class="node">
<title>Node14</title>
<g id="a_Node000014"><a xlink:title=" ">
<polygon fill="#e0e0e0" stroke="#999999" points="527.62,-20 367.62,-20 367.62,0 527.62,0 527.62,-20"/>
<text text-anchor="middle" x="447.62" y="-6.5" font-family="Helvetica,sans-Serif" font-size="10.00">../src/memory/SystemAllocator.h</text>
</a>
</g>
</g>
<!-- Node6&#45;&gt;Node14 -->
<g id="edge13_Node000006_Node000014" class="edge">
<title>Node6&#45;&gt;Node14</title>
<g id="a_edge13_Node000006_Node000014"><a xlink:title=" ">
<path fill="none" stroke="#63b8ff" d="M370,-55.59C384.2,-47.44 405.01,-35.48 421.51,-26"/>
<polygon fill="#63b8ff" stroke="#63b8ff" points="422.88,-29.25 429.81,-21.23 419.4,-23.18 422.88,-29.25"/>
</a>
</g>
</g>
<!-- Node19 -->
<g id="Node000019" class="node">
<title>Node19</title>
<g id="a_Node000019"><a xlink:href="_attributed_8h.html" target="_top" xlink:title=" ">
<polygon fill="white" stroke="#666666" points="648.25,-300 573,-300 573,-280 648.25,-280 648.25,-300"/>
<text text-anchor="middle" x="610.62" y="-286.5" font-family="Helvetica,sans-Serif" font-size="10.00">../Attributed.h</text>
</a>
</g>
</g>
<!-- Node18&#45;&gt;Node19 -->
<g id="edge18_Node000018_Node000019" class="edge">
<title>Node18&#45;&gt;Node19</title>
<g id="a_edge18_Node000018_Node000019"><a xlink:title=" ">
<path fill="none" stroke="#63b8ff" d="M512.35,-335.59C530.84,-327.21 558.17,-314.8 579.32,-305.21"/>
<polygon fill="#63b8ff" stroke="#63b8ff" points="580.7,-308.42 588.36,-301.1 577.8,-302.05 580.7,-308.42"/>
</a>
</g>
</g>
<!-- Node19&#45;&gt;Node5 -->
<g id="edge19_Node000019_Node000005" class="edge">
<title>Node19&#45;&gt;Node5</title>
<g id="a_edge19_Node000019_Node000005"><a xlink:title=" ">
<path fill="none" stroke="#63b8ff" d="M648.53,-280.06C680.15,-270.43 718.17,-252.54 705.62,-224 675.42,-155.27 586.45,-132.74 520.96,-125.67"/>
<polygon fill="#63b8ff" stroke="#63b8ff" points="521.65,-122.22 511.35,-124.73 520.97,-129.18 521.65,-122.22"/>
</a>
</g>
</g>
<!-- Node20 -->
<g id="Node000020" class="node">
<title>Node20</title>
<g id="a_Node000020"><a xlink:href="_scope_8h.html" target="_top" xlink:title=" ">
<polygon fill="#fff0f0" stroke="red" points="506.62,-244 454.62,-244 454.62,-224 506.62,-224 506.62,-244"/>
<text text-anchor="middle" x="480.62" y="-230.5" font-family="Helvetica,sans-Serif" font-size="10.00">Scope.h</text>
</a>
</g>
</g>
<!-- Node19&#45;&gt;Node20 -->
<g id="edge20_Node000019_Node000020" class="edge">
<title>Node19&#45;&gt;Node20</title>
<g id="a_edge20_Node000019_Node000020"><a xlink:title=" ">
<path fill="none" stroke="#63b8ff" d="M587.98,-279.59C567.51,-271.09 537.11,-258.46 513.88,-248.81"/>
<polygon fill="#63b8ff" stroke="#63b8ff" points="515.42,-245.66 504.84,-245.06 512.74,-252.13 515.42,-245.66"/>
</a>
</g>
</g>
<!-- Node26 -->
<g id="Node000026" class="node">
<title>Node26</title>
<g id="a_Node000026"><a xlink:title=" ">
<polygon fill="#e0e0e0" stroke="#999999" points="635.12,-188 592.12,-188 592.12,-168 635.12,-168 635.12,-188"/>
<text text-anchor="middle" x="613.62" y="-174.5" font-family="Helvetica,sans-Serif" font-size="10.00">vector</text>
</a>
</g>
</g>
<!-- Node19&#45;&gt;Node26 -->
<g id="edge27_Node000019_Node000026" class="edge">
<title>Node19&#45;&gt;Node26</title>
<g id="a_edge27_Node000019_Node000026"><a xlink:title=" ">
<path fill="none" stroke="#63b8ff" d="M610.88,-279.62C611.36,-262.01 612.41,-223.59 613.06,-199.65"/>
<polygon fill="#63b8ff" stroke="#63b8ff" points="616.55,-199.96 613.33,-189.87 609.56,-199.77 616.55,-199.96"/>
</a>
</g>
</g>
<!-- Node32 -->
<g id="Node000032" class="node">
<title>Node32</title>
<g id="a_Node000032"><a xlink:title=" ">
<polygon fill="#e0e0e0" stroke="#999999" points="696.62,-244 638.62,-244 638.62,-224 696.62,-224 696.62,-244"/>
<text text-anchor="middle" x="667.62" y="-230.5" font-family="Helvetica,sans-Serif" font-size="10.00">functional</text>
</a>
</g>
</g>
<!-- Node19&#45;&gt;Node32 -->
<g id="edge28_Node000019_Node000032" class="edge">
<title>Node19&#45;&gt;Node32</title>
<g id="a_edge28_Node000019_Node000032"><a xlink:title=" ">
<path fill="none" stroke="#63b8ff" d="M620.55,-279.59C628.56,-272.01 640.04,-261.13 649.66,-252.02"/>
<polygon fill="#63b8ff" stroke="#63b8ff" points="651.86,-254.76 656.71,-245.34 647.04,-249.68 651.86,-254.76"/>
</a>
</g>
</g>
<!-- Node20&#45;&gt;Node5 -->
<g id="edge21_Node000020_Node000005" class="edge">
<title>Node20&#45;&gt;Node5</title>
<g id="a_edge21_Node000020_Node000005"><a xlink:title=" ">
<path fill="none" stroke="#63b8ff" d="M502.37,-223.59C526.2,-211.87 559.2,-190.64 544.62,-168 535.07,-153.16 519.28,-143.15 503.09,-136.43"/>
<polygon fill="#63b8ff" stroke="#63b8ff" points="504.47,-133.21 493.88,-133 502.03,-139.77 504.47,-133.21"/>
</a>
</g>
</g>
<!-- Node21 -->
<g id="Node000021" class="node">
<title>Node21</title>
<g id="a_Node000021"><a xlink:href="_datum_8h.html" target="_top" xlink:title=" ">
<polygon fill="#fff0f0" stroke="red" points="435.38,-188 381.88,-188 381.88,-168 435.38,-168 435.38,-188"/>
<text text-anchor="middle" x="408.62" y="-174.5" font-family="Helvetica,sans-Serif" font-size="10.00">Datum.h</text>
</a>
</g>
</g>
<!-- Node20&#45;&gt;Node21 -->
<g id="edge22_Node000020_Node000021" class="edge">
<title>Node20&#45;&gt;Node21</title>
<g id="a_edge22_Node000020_Node000021"><a xlink:title=" ">
<path fill="none" stroke="#63b8ff" d="M468.08,-223.59C457.66,-215.77 442.58,-204.46 430.21,-195.19"/>
<polygon fill="#63b8ff" stroke="#63b8ff" points="432.33,-192.41 422.23,-189.21 428.13,-198.01 432.33,-192.41"/>
</a>
</g>
</g>
<!-- Node20&#45;&gt;Node26 -->
<g id="edge25_Node000020_Node000026" class="edge">
<title>Node20&#45;&gt;Node26</title>
<g id="a_edge25_Node000020_Node000026"><a xlink:title=" ">
<path fill="none" stroke="#63b8ff" d="M503.79,-223.59C525.35,-214.84 557.66,-201.72 581.67,-191.97"/>
<polygon fill="#63b8ff" stroke="#63b8ff" points="582.69,-195.34 590.64,-188.33 580.06,-188.85 582.69,-195.34"/>
</a>
</g>
</g>
<!-- Node27 -->
<g id="Node000027" class="node">
<title>Node27</title>
<g id="a_Node000027"><a xlink:title=" ">
<polygon fill="#e0e0e0" stroke="#999999" points="536,-188 453.25,-188 453.25,-168 536,-168 536,-188"/>
<text text-anchor="middle" x="494.62" y="-174.5" font-family="Helvetica,sans-Serif" font-size="10.00">unordered_map</text>
</a>
</g>
</g>
<!-- Node20&#45;&gt;Node27 -->
<g id="edge26_Node000020_Node000027" class="edge">
<title>Node20&#45;&gt;Node27</title>
<g id="a_edge26_Node000020_Node000027"><a xlink:title=" ">
<path fill="none" stroke="#63b8ff" d="M483.06,-223.59C484.79,-216.93 487.17,-207.75 489.33,-199.44"/>
<polygon fill="#63b8ff" stroke="#63b8ff" points="492.71,-200.32 491.83,-189.76 485.94,-198.56 492.71,-200.32"/>
</a>
</g>
</g>
<!-- Node21&#45;&gt;Node5 -->
<g id="edge24_Node000021_Node000005" class="edge">
<title>Node21&#45;&gt;Node5</title>
<g id="a_edge24_Node000021_Node000005"><a xlink:title=" ">
<path fill="none" stroke="#63b8ff" d="M415.07,-167.59C419.95,-160.47 426.82,-150.45 432.8,-141.72"/>
<polygon fill="#63b8ff" stroke="#63b8ff" points="435.63,-143.77 438.4,-133.55 429.86,-139.82 435.63,-143.77"/>
</a>
</g>
</g>
<!-- Node21&#45;&gt;Node12 -->
<g id="edge23_Node000021_Node000012" class="edge">
<title>Node21&#45;&gt;Node12</title>
<g id="a_edge23_Node000021_Node000012"><a xlink:title=" ">
<path fill="none" stroke="#63b8ff" d="M392.43,-167.6C345.04,-140.09 206.36,-59.6 148.47,-26"/>
<polygon fill="#63b8ff" stroke="#63b8ff" points="150.36,-23.05 139.95,-21.06 146.84,-29.1 150.36,-23.05"/>
</a>
</g>
</g>
<!-- Node33&#45;&gt;Node18 -->
<g id="edge31_Node000033_Node000018" class="edge">
<title>Node33&#45;&gt;Node18</title>
<g id="a_edge31_Node000033_Node000018"><a xlink:title=" ">
<path fill="none" stroke="#63b8ff" d="M589.9,-391.59C571.41,-383.21 544.08,-370.8 522.93,-361.21"/>
<polygon fill="#63b8ff" stroke="#63b8ff" points="524.45,-358.05 513.89,-357.1 521.55,-364.42 524.45,-358.05"/>
</a>
</g>
</g>
<!-- Node33&#45;&gt;Node19 -->
<g id="edge30_Node000033_Node000019" class="edge">
<title>Node33&#45;&gt;Node19</title>
<g id="a_edge30_Node000033_Node000019"><a xlink:title=" ">
<path fill="none" stroke="#63b8ff" d="M610.62,-391.62C610.62,-374.01 610.62,-335.59 610.62,-311.65"/>
<polygon fill="#63b8ff" stroke="#63b8ff" points="614.13,-311.87 610.63,-301.87 607.13,-311.87 614.13,-311.87"/>
</a>
</g>
</g>
<!-- Node34&#45;&gt;Node18 -->
<g id="edge33_Node000034_Node000018" class="edge">
<title>Node34&#45;&gt;Node18</title>
<g id="a_edge33_Node000034_Node000018"><a xlink:title=" ">
<path fill="none" stroke="#63b8ff" d="M468.5,-391.59C472.12,-384.63 477.17,-374.89 481.62,-366.29"/>
<polygon fill="#63b8ff" stroke="#63b8ff" points="484.61,-368.13 486.11,-357.64 478.4,-364.91 484.61,-368.13"/>
</a>
</g>
</g>
<!-- Node35&#45;&gt;Node34 -->
<g id="edge35_Node000035_Node000034" class="edge">
<title>Node35&#45;&gt;Node34</title>
<g id="a_edge35_Node000035_Node000034"><a xlink:title=" ">
<path fill="none" stroke="#63b8ff" d="M463.62,-447.55C463.62,-440.34 463.62,-431.66 463.62,-423.88"/>
<polygon fill="#63b8ff" stroke="#63b8ff" points="467.13,-423.92 463.63,-413.92 460.13,-423.92 467.13,-423.92"/>
</a>
</g>
</g>
<!-- Node36&#45;&gt;Node4 -->
<g id="edge38_Node000036_Node000004" class="edge">
<title>Node36&#45;&gt;Node4</title>
<g id="a_edge38_Node000036_Node000004"><a xlink:title=" ">
<path fill="none" stroke="#63b8ff" d="M284.08,-279.59C292.59,-271.93 304.84,-260.91 315.02,-251.75"/>
<polygon fill="#63b8ff" stroke="#63b8ff" points="317.08,-254.6 322.17,-245.31 312.39,-249.4 317.08,-254.6"/>
</a>
</g>
</g>
<!-- Node36&#45;&gt;Node6 -->
<g id="edge37_Node000036_Node000006" class="edge">
<title>Node36&#45;&gt;Node6</title>
<g id="a_edge37_Node000036_Node000006"><a xlink:title=" ">
<path fill="none" stroke="#63b8ff" d="M234.55,-284.55C191.38,-277.71 130.22,-261.29 148.62,-224 184.42,-151.5 271.53,-103.23 319.88,-81.03"/>
<polygon fill="#63b8ff" stroke="#63b8ff" points="321.07,-84.34 328.77,-77.06 318.21,-77.95 321.07,-84.34"/>
</a>
</g>
</g>
<!-- Node36&#45;&gt;Node16 -->
<g id="edge40_Node000036_Node000016" class="edge">
<title>Node36&#45;&gt;Node16</title>
<g id="a_edge40_Node000036_Node000016"><a xlink:title=" ">
<path fill="none" stroke="#63b8ff" d="M273.11,-279.62C272.15,-262.01 270.06,-223.59 268.75,-199.65"/>
<polygon fill="#63b8ff" stroke="#63b8ff" points="272.26,-199.66 268.22,-189.87 265.27,-200.04 272.26,-199.66"/>
</a>
</g>
</g>
<!-- Node36&#45;&gt;Node20 -->
<g id="edge41_Node000036_Node000020" class="edge">
<title>Node36&#45;&gt;Node20</title>
<g id="a_edge41_Node000036_Node000020"><a xlink:title=" ">
<path fill="none" stroke="#63b8ff" d="M309.68,-279.59C347.05,-269.84 405.2,-254.68 443.1,-244.79"/>
<polygon fill="#63b8ff" stroke="#63b8ff" points="443.91,-248.19 452.71,-242.28 442.15,-241.42 443.91,-248.19"/>
</a>
</g>
</g>
<!-- Node36&#45;&gt;Node26 -->
<g id="edge39_Node000036_Node000026" class="edge">
<title>Node36&#45;&gt;Node26</title>
<g id="a_edge39_Node000036_Node000026"><a xlink:title=" ">
<path fill="none" stroke="#63b8ff" d="M312.6,-283.69C371.29,-275.36 479.38,-258.68 515.62,-244 523.68,-240.74 564.36,-213.07 590.72,-194.9"/>
<polygon fill="#63b8ff" stroke="#63b8ff" points="592.53,-197.89 598.77,-189.33 588.55,-192.13 592.53,-197.89"/>
</a>
</g>
</g>
<!-- Node37 -->
<g id="Node000037" class="node">
<title>Node37</title>
<g id="a_Node000037"><a xlink:href="_scope_writer_8inl.html" target="_top" xlink:title=" ">
<polygon fill="white" stroke="#666666" points="239.62,-244 157.62,-244 157.62,-224 239.62,-224 239.62,-244"/>
<text text-anchor="middle" x="198.62" y="-230.5" font-family="Helvetica,sans-Serif" font-size="10.00">ScopeWriter.inl</text>
</a>
</g>
</g>
<!-- Node36&#45;&gt;Node37 -->
<g id="edge42_Node000036_Node000037" class="edge">
<title>Node36&#45;&gt;Node37</title>
<g id="a_edge42_Node000036_Node000037"><a xlink:title=" ">
<path fill="none" stroke="#63b8ff" d="M255.29,-279.59C242.99,-271.85 227.15,-260.69 215.23,-251.47"/>
<polygon fill="#63b8ff" stroke="#63b8ff" points="217.46,-248.78 207.47,-245.25 213.08,-254.24 217.46,-248.78"/>
</a>
</g>
</g>
<!-- Node37&#45;&gt;Node36 -->
<g id="edge43_Node000037_Node000036" class="edge">
<title>Node37&#45;&gt;Node36</title>
<g id="a_edge43_Node000037_Node000036"><a xlink:title=" ">
<path fill="none" stroke="#63b8ff" d="M217.07,-244.48C229.32,-252.2 245.04,-263.28 256.92,-272.45"/>
<polygon fill="#63b8ff" stroke="#63b8ff" points="254.66,-275.12 264.65,-278.65 259.03,-269.66 254.66,-275.12"/>
</a>
</g>
</g>
<!-- Node38&#45;&gt;Node4 -->
<g id="edge46_Node000038_Node000004" class="edge">
<title>Node38&#45;&gt;Node4</title>
<g id="a_edge46_Node000038_Node000004"><a xlink:title=" ">
<path fill="none" stroke="#63b8ff" d="M373.26,-279.59C366.73,-272.24 357.44,-261.8 349.51,-252.87"/>
<polygon fill="#63b8ff" stroke="#63b8ff" points="352.16,-250.58 342.9,-245.43 346.92,-255.23 352.16,-250.58"/>
</a>
</g>
</g>
<!-- Node38&#45;&gt;Node6 -->
<g id="edge45_Node000038_Node000006" class="edge">
<title>Node38&#45;&gt;Node6</title>
<g id="a_edge45_Node000038_Node000006"><a xlink:title=" ">
<path fill="none" stroke="#63b8ff" d="M382.07,-279.7C382.55,-267.05 382.94,-243.73 380.62,-224 378.71,-207.72 375.68,-204.1 372.62,-188 365.98,-152.93 359.88,-111.84 356.47,-87.69"/>
<polygon fill="#63b8ff" stroke="#63b8ff" points="359.96,-87.37 355.11,-77.95 353.03,-88.33 359.96,-87.37"/>
</a>
</g>
</g>
<!-- Node38&#45;&gt;Node26 -->
<g id="edge47_Node000038_Node000026" class="edge">
<title>Node38&#45;&gt;Node26</title>
<g id="a_edge47_Node000038_Node000026"><a xlink:title=" ">
<path fill="none" stroke="#63b8ff" d="M416.26,-285.01C451.51,-279.76 506.78,-268.2 548.62,-244 569.48,-231.94 588.34,-211.51 600.3,-196.76"/>
<polygon fill="#63b8ff" stroke="#63b8ff" points="602.79,-199.27 606.19,-189.24 597.27,-194.96 602.79,-199.27"/>
</a>
</g>
</g>
</g>
</svg>
