<?xml version="1.0" encoding="UTF-8" standalone="no"?>
<!DOCTYPE svg PUBLIC "-//W3C//DTD SVG 1.1//EN"
 "http://www.w3.org/Graphics/SVG/1.1/DTD/svg11.dtd">
<!-- Generated by graphviz version 12.2.1 (20241206.2353)
 -->
<!-- Title: Tests/Support/AttributeBox.cpp Pages: 1 -->
<svg width="1070pt" height="420pt"
 viewBox="0.00 0.00 1070.38 420.00" xmlns="http://www.w3.org/2000/svg" xmlns:xlink="http://www.w3.org/1999/xlink">
<g id="graph0" class="graph" transform="scale(1 1) rotate(0) translate(4 416)">
<title>Tests/Support/AttributeBox.cpp</title>
<!-- Node1 -->
<g id="Node000001" class="node">
<title>Node1</title>
<g id="a_Node000001"><a xlink:title=" ">
<polygon fill="#999999" stroke="#666666" points="630.5,-412 478,-412 478,-392 630.5,-392 630.5,-412"/>
<text text-anchor="middle" x="554.25" y="-398.5" font-family="Helvetica,sans-Serif" font-size="10.00">Tests/Support/AttributeBox.cpp</text>
</a>
</g>
</g>
<!-- Node2 -->
<g id="Node000002" class="node">
<title>Node2</title>
<g id="a_Node000002"><a xlink:href="_attribute_box_8h.html" target="_top" xlink:title=" ">
<polygon fill="white" stroke="#666666" points="593.38,-356 515.12,-356 515.12,-336 593.38,-336 593.38,-356"/>
<text text-anchor="middle" x="554.25" y="-342.5" font-family="Helvetica,sans-Serif" font-size="10.00">AttributeBox.h</text>
</a>
</g>
</g>
<!-- Node1&#45;&gt;Node2 -->
<g id="edge1_Node000001_Node000002" class="edge">
<title>Node1&#45;&gt;Node2</title>
<g id="a_edge1_Node000001_Node000002"><a xlink:title=" ">
<path fill="none" stroke="#63b8ff" d="M554.25,-391.59C554.25,-385.01 554.25,-375.96 554.25,-367.73"/>
<polygon fill="#63b8ff" stroke="#63b8ff" points="557.75,-367.81 554.25,-357.81 550.75,-367.81 557.75,-367.81"/>
</a>
</g>
</g>
<!-- Node3 -->
<g id="Node000003" class="node">
<title>Node3</title>
<g id="a_Node000003"><a xlink:href="_types_8h.html" target="_top" xlink:title=" ">
<polygon fill="white" stroke="#666666" points="348.38,-76 216.12,-76 216.12,-56 348.38,-56 348.38,-76"/>
<text text-anchor="middle" x="282.25" y="-62.5" font-family="Helvetica,sans-Serif" font-size="10.00">FIEAGameEngine/Types.h</text>
</a>
</g>
</g>
<!-- Node2&#45;&gt;Node3 -->
<g id="edge2_Node000002_Node000003" class="edge">
<title>Node2&#45;&gt;Node3</title>
<g id="a_edge2_Node000002_Node000003"><a xlink:title=" ">
<path fill="none" stroke="#63b8ff" d="M514.82,-344.57C398.07,-342.26 62.25,-327.56 62.25,-235 62.25,-235 62.25,-235 62.25,-177 62.25,-111.54 141.14,-85.03 204.43,-74.3"/>
<polygon fill="#63b8ff" stroke="#63b8ff" points="204.82,-77.78 214.15,-72.77 203.73,-70.87 204.82,-77.78"/>
</a>
</g>
</g>
<!-- Node12 -->
<g id="Node000012" class="node">
<title>Node12</title>
<g id="a_Node000012"><a xlink:href="_scope_8h.html" target="_top" xlink:title=" ">
<polygon fill="white" stroke="#666666" points="499,-244 409.5,-244 409.5,-224 499,-224 499,-244"/>
<text text-anchor="middle" x="454.25" y="-230.5" font-family="Helvetica,sans-Serif" font-size="10.00">Content/Scope.h</text>
</a>
</g>
</g>
<!-- Node2&#45;&gt;Node12 -->
<g id="edge11_Node000002_Node000012" class="edge">
<title>Node2&#45;&gt;Node12</title>
<g id="a_edge11_Node000002_Node000012"><a xlink:title=" ">
<path fill="none" stroke="#63b8ff" d="M538.1,-335.59C524.94,-327.37 506.44,-314.51 493.25,-300 480.8,-286.31 470.26,-268.04 463.29,-254.36"/>
<polygon fill="#63b8ff" stroke="#63b8ff" points="466.5,-252.96 458.97,-245.51 460.21,-256.03 466.5,-252.96"/>
</a>
</g>
</g>
<!-- Node23 -->
<g id="Node000023" class="node">
<title>Node23</title>
<g id="a_Node000023"><a xlink:href="_factory_service_8h.html" target="_top" xlink:title=" ">
<polygon fill="white" stroke="#666666" points="380.25,-188 208.25,-188 208.25,-168 380.25,-168 380.25,-188"/>
<text text-anchor="middle" x="294.25" y="-174.5" font-family="Helvetica,sans-Serif" font-size="10.00">FIEAGameEngine/FactoryService.h</text>
</a>
</g>
</g>
<!-- Node2&#45;&gt;Node23 -->
<g id="edge49_Node000002_Node000023" class="edge">
<title>Node2&#45;&gt;Node23</title>
<g id="a_edge49_Node000002_Node000023"><a xlink:title=" ">
<path fill="none" stroke="#63b8ff" d="M536.54,-335.56C520.17,-326.72 495.28,-312.95 474.25,-300 416.18,-264.23 350.18,-218.51 316.54,-194.82"/>
<polygon fill="#63b8ff" stroke="#63b8ff" points="318.98,-192.26 308.79,-189.35 314.94,-197.98 318.98,-192.26"/>
</a>
</g>
</g>
<!-- Node26 -->
<g id="Node000026" class="node">
<title>Node26</title>
<g id="a_Node000026"><a xlink:href="_attributed_8h.html" target="_top" xlink:title=" ">
<polygon fill="white" stroke="#666666" points="606.12,-300 502.38,-300 502.38,-280 606.12,-280 606.12,-300"/>
<text text-anchor="middle" x="554.25" y="-286.5" font-family="Helvetica,sans-Serif" font-size="10.00">Content/Attributed.h</text>
</a>
</g>
</g>
<!-- Node2&#45;&gt;Node26 -->
<g id="edge32_Node000002_Node000026" class="edge">
<title>Node2&#45;&gt;Node26</title>
<g id="a_edge32_Node000002_Node000026"><a xlink:title=" ">
<path fill="none" stroke="#63b8ff" d="M554.25,-335.59C554.25,-329.01 554.25,-319.96 554.25,-311.73"/>
<polygon fill="#63b8ff" stroke="#63b8ff" points="557.75,-311.81 554.25,-301.81 550.75,-311.81 557.75,-311.81"/>
</a>
</g>
</g>
<!-- Node28 -->
<g id="Node000028" class="node">
<title>Node28</title>
<g id="a_Node000028"><a xlink:href="_tests_8h.html" target="_top" xlink:title=" ">
<polygon fill="white" stroke="#666666" points="859.88,-188 802.62,-188 802.62,-168 859.88,-168 859.88,-188"/>
<text text-anchor="middle" x="831.25" y="-174.5" font-family="Helvetica,sans-Serif" font-size="10.00">../Tests.h</text>
</a>
</g>
</g>
<!-- Node2&#45;&gt;Node28 -->
<g id="edge37_Node000002_Node000028" class="edge">
<title>Node2&#45;&gt;Node28</title>
<g id="a_edge37_Node000002_Node000028"><a xlink:title=" ">
<path fill="none" stroke="#63b8ff" d="M593.56,-345.03C637.12,-343.2 707.62,-334.54 756.25,-300 792.06,-274.57 814.29,-226.14 824.54,-198.9"/>
<polygon fill="#63b8ff" stroke="#63b8ff" points="827.74,-200.36 827.8,-189.76 821.15,-198 827.74,-200.36"/>
</a>
</g>
</g>
<!-- Node30 -->
<g id="Node000030" class="node">
<title>Node30</title>
<g id="a_Node000030"><a xlink:title=" ">
<polygon fill="#e0e0e0" stroke="#999999" points="781.75,-132 702.75,-132 702.75,-112 781.75,-112 781.75,-132"/>
<text text-anchor="middle" x="742.25" y="-118.5" font-family="Helvetica,sans-Serif" font-size="10.00">CppUnitTest.h</text>
</a>
</g>
</g>
<!-- Node2&#45;&gt;Node30 -->
<g id="edge50_Node000002_Node000030" class="edge">
<title>Node2&#45;&gt;Node30</title>
<g id="a_edge50_Node000002_Node000030"><a xlink:title=" ">
<path fill="none" stroke="#63b8ff" d="M577.27,-335.56C594.5,-327.74 617.97,-315.43 635.25,-300 686.27,-254.45 720.6,-178.7 734.83,-142.9"/>
<polygon fill="#63b8ff" stroke="#63b8ff" points="738.01,-144.4 738.34,-133.81 731.48,-141.88 738.01,-144.4"/>
</a>
</g>
</g>
<!-- Node34 -->
<g id="Node000034" class="node">
<title>Node34</title>
<g id="a_Node000034"><a xlink:href="_foo_8h.html" target="_top" xlink:title=" ">
<polygon fill="white" stroke="#666666" points="676.62,-188 635.88,-188 635.88,-168 676.62,-168 676.62,-188"/>
<text text-anchor="middle" x="656.25" y="-174.5" font-family="Helvetica,sans-Serif" font-size="10.00">Foo.h</text>
</a>
</g>
</g>
<!-- Node2&#45;&gt;Node34 -->
<g id="edge45_Node000002_Node000034" class="edge">
<title>Node2&#45;&gt;Node34</title>
<g id="a_edge45_Node000002_Node000034"><a xlink:title=" ">
<path fill="none" stroke="#63b8ff" d="M572.36,-335.65C585.92,-327.8 603.99,-315.41 615.25,-300 637.75,-269.2 648.52,-225.19 653.17,-199.61"/>
<polygon fill="#63b8ff" stroke="#63b8ff" points="656.6,-200.3 654.78,-189.86 649.7,-199.16 656.6,-200.3"/>
</a>
</g>
</g>
<!-- Node4 -->
<g id="Node000004" class="node">
<title>Node4</title>
<g id="a_Node000004"><a xlink:title=" ">
<polygon fill="#e0e0e0" stroke="#999999" points="62.5,-20 0,-20 0,0 62.5,0 62.5,-20"/>
<text text-anchor="middle" x="31.25" y="-6.5" font-family="Helvetica,sans-Serif" font-size="10.00">windows.h</text>
</a>
</g>
</g>
<!-- Node3&#45;&gt;Node4 -->
<g id="edge3_Node000003_Node000004" class="edge">
<title>Node3&#45;&gt;Node4</title>
<g id="a_edge3_Node000003_Node000004"><a xlink:title=" ">
<path fill="none" stroke="#63b8ff" d="M237.35,-55.58C197.04,-47.08 135.92,-34.12 73.87,-20.56"/>
<polygon fill="#63b8ff" stroke="#63b8ff" points="74.68,-17.15 64.16,-18.43 73.18,-23.99 74.68,-17.15"/>
</a>
</g>
</g>
<!-- Node5 -->
<g id="Node000005" class="node">
<title>Node5</title>
<g id="a_Node000005"><a xlink:title=" ">
<polygon fill="#e0e0e0" stroke="#999999" points="128.38,-20 80.12,-20 80.12,0 128.38,0 128.38,-20"/>
<text text-anchor="middle" x="104.25" y="-6.5" font-family="Helvetica,sans-Serif" font-size="10.00">cassert</text>
</a>
</g>
</g>
<!-- Node3&#45;&gt;Node5 -->
<g id="edge4_Node000003_Node000005" class="edge">
<title>Node3&#45;&gt;Node5</title>
<g id="a_edge4_Node000003_Node000005"><a xlink:title=" ">
<path fill="none" stroke="#63b8ff" d="M251.24,-55.59C220.06,-46.13 172.05,-31.57 139.45,-21.68"/>
<polygon fill="#63b8ff" stroke="#63b8ff" points="140.65,-18.38 130.06,-18.83 138.62,-25.08 140.65,-18.38"/>
</a>
</g>
</g>
<!-- Node6 -->
<g id="Node000006" class="node">
<title>Node6</title>
<g id="a_Node000006"><a xlink:title=" ">
<polygon fill="#e0e0e0" stroke="#999999" points="194.38,-20 146.12,-20 146.12,0 194.38,0 194.38,-20"/>
<text text-anchor="middle" x="170.25" y="-6.5" font-family="Helvetica,sans-Serif" font-size="10.00">cstddef</text>
</a>
</g>
</g>
<!-- Node3&#45;&gt;Node6 -->
<g id="edge5_Node000003_Node000006" class="edge">
<title>Node3&#45;&gt;Node6</title>
<g id="a_edge5_Node000003_Node000006"><a xlink:title=" ">
<path fill="none" stroke="#63b8ff" d="M262.74,-55.59C245.5,-47.28 220.09,-35.03 200.26,-25.47"/>
<polygon fill="#63b8ff" stroke="#63b8ff" points="201.8,-22.33 191.27,-21.14 198.76,-28.63 201.8,-22.33"/>
</a>
</g>
</g>
<!-- Node7 -->
<g id="Node000007" class="node">
<title>Node7</title>
<g id="a_Node000007"><a xlink:title=" ">
<polygon fill="#e0e0e0" stroke="#999999" points="257.88,-20 212.62,-20 212.62,0 257.88,0 257.88,-20"/>
<text text-anchor="middle" x="235.25" y="-6.5" font-family="Helvetica,sans-Serif" font-size="10.00">cstdint</text>
</a>
</g>
</g>
<!-- Node3&#45;&gt;Node7 -->
<g id="edge6_Node000003_Node000007" class="edge">
<title>Node3&#45;&gt;Node7</title>
<g id="a_edge6_Node000003_Node000007"><a xlink:title=" ">
<path fill="none" stroke="#63b8ff" d="M274.06,-55.59C267.66,-48.24 258.57,-37.8 250.8,-28.87"/>
<polygon fill="#63b8ff" stroke="#63b8ff" points="253.54,-26.69 244.34,-21.44 248.26,-31.28 253.54,-26.69"/>
</a>
</g>
</g>
<!-- Node8 -->
<g id="Node000008" class="node">
<title>Node8</title>
<g id="a_Node000008"><a xlink:title=" ">
<polygon fill="#e0e0e0" stroke="#999999" points="328.62,-20 275.88,-20 275.88,0 328.62,0 328.62,-20"/>
<text text-anchor="middle" x="302.25" y="-6.5" font-family="Helvetica,sans-Serif" font-size="10.00">cstdbool</text>
</a>
</g>
</g>
<!-- Node3&#45;&gt;Node8 -->
<g id="edge7_Node000003_Node000008" class="edge">
<title>Node3&#45;&gt;Node8</title>
<g id="a_edge7_Node000003_Node000008"><a xlink:title=" ">
<path fill="none" stroke="#63b8ff" d="M285.73,-55.59C288.26,-48.78 291.76,-39.32 294.89,-30.86"/>
<polygon fill="#63b8ff" stroke="#63b8ff" points="298.09,-32.31 298.28,-21.72 291.53,-29.88 298.09,-32.31"/>
</a>
</g>
</g>
<!-- Node9 -->
<g id="Node000009" class="node">
<title>Node9</title>
<g id="a_Node000009"><a xlink:title=" ">
<polygon fill="#e0e0e0" stroke="#999999" points="637.25,-20 597.25,-20 597.25,0 637.25,0 637.25,-20"/>
<text text-anchor="middle" x="617.25" y="-6.5" font-family="Helvetica,sans-Serif" font-size="10.00">string</text>
</a>
</g>
</g>
<!-- Node3&#45;&gt;Node9 -->
<g id="edge8_Node000003_Node000009" class="edge">
<title>Node3&#45;&gt;Node9</title>
<g id="a_edge8_Node000003_Node000009"><a xlink:title=" ">
<path fill="none" stroke="#63b8ff" d="M348.59,-56.47C419.58,-47.14 528.72,-32.16 585.75,-20.21"/>
<polygon fill="#63b8ff" stroke="#63b8ff" points="586.27,-23.68 595.28,-18.11 584.76,-16.85 586.27,-23.68"/>
</a>
</g>
</g>
<!-- Node10 -->
<g id="Node000010" class="node">
<title>Node10</title>
<g id="a_Node000010"><a xlink:title=" ">
<polygon fill="#e0e0e0" stroke="#999999" points="401.38,-20 347.12,-20 347.12,0 401.38,0 401.38,-20"/>
<text text-anchor="middle" x="374.25" y="-6.5" font-family="Helvetica,sans-Serif" font-size="10.00">crtdefs.h</text>
</a>
</g>
</g>
<!-- Node3&#45;&gt;Node10 -->
<g id="edge9_Node000003_Node000010" class="edge">
<title>Node3&#45;&gt;Node10</title>
<g id="a_edge9_Node000003_Node000010"><a xlink:title=" ">
<path fill="none" stroke="#63b8ff" d="M298.28,-55.59C312.04,-47.51 332.15,-35.71 348.23,-26.27"/>
<polygon fill="#63b8ff" stroke="#63b8ff" points="349.94,-29.33 356.79,-21.25 346.4,-23.29 349.94,-29.33"/>
</a>
</g>
</g>
<!-- Node11 -->
<g id="Node000011" class="node">
<title>Node11</title>
<g id="a_Node000011"><a xlink:title=" ">
<polygon fill="#e0e0e0" stroke="#999999" points="579.25,-20 419.25,-20 419.25,0 579.25,0 579.25,-20"/>
<text text-anchor="middle" x="499.25" y="-6.5" font-family="Helvetica,sans-Serif" font-size="10.00">../src/memory/SystemAllocator.h</text>
</a>
</g>
</g>
<!-- Node3&#45;&gt;Node11 -->
<g id="edge10_Node000003_Node000011" class="edge">
<title>Node3&#45;&gt;Node11</title>
<g id="a_edge10_Node000003_Node000011"><a xlink:title=" ">
<path fill="none" stroke="#63b8ff" d="M320.05,-55.59C356.16,-46.61 410.76,-33.02 450.21,-23.2"/>
<polygon fill="#63b8ff" stroke="#63b8ff" points="450.83,-26.66 459.69,-20.84 449.14,-19.86 450.83,-26.66"/>
</a>
</g>
</g>
<!-- Node13 -->
<g id="Node000013" class="node">
<title>Node13</title>
<g id="a_Node000013"><a xlink:href="_r_t_t_i_8h.html" target="_top" xlink:title=" ">
<polygon fill="white" stroke="#666666" points="608.12,-132 480.38,-132 480.38,-112 608.12,-112 608.12,-132"/>
<text text-anchor="middle" x="544.25" y="-118.5" font-family="Helvetica,sans-Serif" font-size="10.00">FIEAGameEngine/RTTI.h</text>
</a>
</g>
</g>
<!-- Node12&#45;&gt;Node13 -->
<g id="edge12_Node000012_Node000013" class="edge">
<title>Node12&#45;&gt;Node13</title>
<g id="a_edge12_Node000012_Node000013"><a xlink:title=" ">
<path fill="none" stroke="#63b8ff" d="M461.92,-223.62C476.87,-205.36 510.1,-164.73 529.47,-141.07"/>
<polygon fill="#63b8ff" stroke="#63b8ff" points="532.01,-143.48 535.64,-133.53 526.6,-139.05 532.01,-143.48"/>
</a>
</g>
</g>
<!-- Node15 -->
<g id="Node000015" class="node">
<title>Node15</title>
<g id="a_Node000015"><a xlink:href="_datum_8h.html" target="_top" xlink:title=" ">
<polygon fill="#fff0f0" stroke="red" points="618,-188 564.5,-188 564.5,-168 618,-168 618,-188"/>
<text text-anchor="middle" x="591.25" y="-174.5" font-family="Helvetica,sans-Serif" font-size="10.00">Datum.h</text>
</a>
</g>
</g>
<!-- Node12&#45;&gt;Node15 -->
<g id="edge16_Node000012_Node000015" class="edge">
<title>Node12&#45;&gt;Node15</title>
<g id="a_edge16_Node000012_Node000015"><a xlink:title=" ">
<path fill="none" stroke="#63b8ff" d="M478.11,-223.59C499.79,-215.05 532.02,-202.35 556.54,-192.68"/>
<polygon fill="#63b8ff" stroke="#63b8ff" points="557.77,-195.96 565.79,-189.03 555.21,-189.45 557.77,-195.96"/>
</a>
</g>
</g>
<!-- Node20 -->
<g id="Node000020" class="node">
<title>Node20</title>
<g id="a_Node000020"><a xlink:title=" ">
<polygon fill="#e0e0e0" stroke="#999999" points="461.75,-76 418.75,-76 418.75,-56 461.75,-56 461.75,-76"/>
<text text-anchor="middle" x="440.25" y="-62.5" font-family="Helvetica,sans-Serif" font-size="10.00">vector</text>
</a>
</g>
</g>
<!-- Node12&#45;&gt;Node20 -->
<g id="edge19_Node000012_Node000020" class="edge">
<title>Node12&#45;&gt;Node20</title>
<g id="a_edge19_Node000012_Node000020"><a xlink:title=" ">
<path fill="none" stroke="#63b8ff" d="M446.59,-223.7C440.01,-215.06 431,-201.52 427.25,-188 417.65,-153.34 426.57,-111.27 433.62,-86.97"/>
<polygon fill="#63b8ff" stroke="#63b8ff" points="436.86,-88.33 436.49,-77.74 430.18,-86.25 436.86,-88.33"/>
</a>
</g>
</g>
<!-- Node21 -->
<g id="Node000021" class="node">
<title>Node21</title>
<g id="a_Node000021"><a xlink:title=" ">
<polygon fill="#e0e0e0" stroke="#999999" points="179.62,-76 96.88,-76 96.88,-56 179.62,-56 179.62,-76"/>
<text text-anchor="middle" x="138.25" y="-62.5" font-family="Helvetica,sans-Serif" font-size="10.00">unordered_map</text>
</a>
</g>
</g>
<!-- Node12&#45;&gt;Node21 -->
<g id="edge20_Node000012_Node000021" class="edge">
<title>Node12&#45;&gt;Node21</title>
<g id="a_edge20_Node000012_Node000021"><a xlink:title=" ">
<path fill="none" stroke="#63b8ff" d="M409.32,-232.99C356.29,-231.26 266.79,-222.79 199.25,-188 167.68,-171.74 156.99,-164.31 142.25,-132 135.92,-118.12 135.15,-100.82 135.84,-87.56"/>
<polygon fill="#63b8ff" stroke="#63b8ff" points="139.31,-88.1 136.68,-77.83 132.33,-87.49 139.31,-88.1"/>
</a>
</g>
</g>
<!-- Node22 -->
<g id="Node000022" class="node">
<title>Node22</title>
<g id="a_Node000022"><a xlink:title=" ">
<polygon fill="#e0e0e0" stroke="#999999" points="470.62,-188 435.88,-188 435.88,-168 470.62,-168 470.62,-188"/>
<text text-anchor="middle" x="453.25" y="-174.5" font-family="Helvetica,sans-Serif" font-size="10.00">map</text>
</a>
</g>
</g>
<!-- Node12&#45;&gt;Node22 -->
<g id="edge21_Node000012_Node000022" class="edge">
<title>Node12&#45;&gt;Node22</title>
<g id="a_edge21_Node000012_Node000022"><a xlink:title=" ">
<path fill="none" stroke="#63b8ff" d="M454.08,-223.59C453.95,-217.01 453.79,-207.96 453.63,-199.73"/>
<polygon fill="#63b8ff" stroke="#63b8ff" points="457.13,-199.75 453.45,-189.81 450.14,-199.87 457.13,-199.75"/>
</a>
</g>
</g>
<!-- Node12&#45;&gt;Node23 -->
<g id="edge22_Node000012_Node000023" class="edge">
<title>Node12&#45;&gt;Node23</title>
<g id="a_edge22_Node000012_Node000023"><a xlink:title=" ">
<path fill="none" stroke="#63b8ff" d="M426.38,-223.59C400.5,-214.86 361.72,-201.77 332.86,-192.03"/>
<polygon fill="#63b8ff" stroke="#63b8ff" points="334.37,-188.85 323.77,-188.96 332.13,-195.48 334.37,-188.85"/>
</a>
</g>
</g>
<!-- Node13&#45;&gt;Node3 -->
<g id="edge13_Node000013_Node000003" class="edge">
<title>Node13&#45;&gt;Node3</title>
<g id="a_edge13_Node000013_Node000003"><a xlink:title=" ">
<path fill="none" stroke="#63b8ff" d="M498.31,-111.53C454.02,-102.4 386.87,-88.56 339.2,-78.74"/>
<polygon fill="#63b8ff" stroke="#63b8ff" points="340.12,-75.35 329.62,-76.76 338.7,-82.21 340.12,-75.35"/>
</a>
</g>
</g>
<!-- Node14 -->
<g id="Node000014" class="node">
<title>Node14</title>
<g id="a_Node000014"><a xlink:href="_r_t_t_i_8inl.html" target="_top" xlink:title=" ">
<polygon fill="white" stroke="#666666" points="608.5,-76 480,-76 480,-56 608.5,-56 608.5,-76"/>
<text text-anchor="middle" x="544.25" y="-62.5" font-family="Helvetica,sans-Serif" font-size="10.00">FieaGameEngine/RTTI.inl</text>
</a>
</g>
</g>
<!-- Node13&#45;&gt;Node14 -->
<g id="edge14_Node000013_Node000014" class="edge">
<title>Node13&#45;&gt;Node14</title>
<g id="a_edge14_Node000013_Node000014"><a xlink:title=" ">
<path fill="none" stroke="#63b8ff" d="M538.98,-111.59C537.67,-105.01 537.23,-95.96 537.66,-87.73"/>
<polygon fill="#63b8ff" stroke="#63b8ff" points="541.14,-88.14 538.83,-77.8 534.19,-87.33 541.14,-88.14"/>
</a>
</g>
</g>
<!-- Node14&#45;&gt;Node13 -->
<g id="edge15_Node000014_Node000013" class="edge">
<title>Node14&#45;&gt;Node13</title>
<g id="a_edge15_Node000014_Node000013"><a xlink:title=" ">
<path fill="none" stroke="#63b8ff" d="M549.5,-76.3C550.84,-82.93 551.28,-92.11 550.83,-100.43"/>
<polygon fill="#63b8ff" stroke="#63b8ff" points="547.38,-99.75 549.69,-110.09 554.33,-100.57 547.38,-99.75"/>
</a>
</g>
</g>
<!-- Node15&#45;&gt;Node9 -->
<g id="edge17_Node000015_Node000009" class="edge">
<title>Node15&#45;&gt;Node9</title>
<g id="a_edge17_Node000015_Node000009"><a xlink:title=" ">
<path fill="none" stroke="#63b8ff" d="M598.63,-167.65C604.97,-158.98 613.65,-145.42 617.25,-132 626.43,-97.77 623.51,-56.12 620.45,-31.68"/>
<polygon fill="#63b8ff" stroke="#63b8ff" points="623.92,-31.24 619.07,-21.82 616.99,-32.21 623.92,-31.24"/>
</a>
</g>
</g>
<!-- Node15&#45;&gt;Node13 -->
<g id="edge18_Node000015_Node000013" class="edge">
<title>Node15&#45;&gt;Node13</title>
<g id="a_edge18_Node000015_Node000013"><a xlink:title=" ">
<path fill="none" stroke="#63b8ff" d="M583.06,-167.59C576.66,-160.24 567.57,-149.8 559.8,-140.87"/>
<polygon fill="#63b8ff" stroke="#63b8ff" points="562.54,-138.69 553.34,-133.44 557.26,-143.28 562.54,-138.69"/>
</a>
</g>
</g>
<!-- Node23&#45;&gt;Node3 -->
<g id="edge23_Node000023_Node000003" class="edge">
<title>Node23&#45;&gt;Node3</title>
<g id="a_edge23_Node000023_Node000003"><a xlink:title=" ">
<path fill="none" stroke="#63b8ff" d="M286.03,-167.8C278.96,-159.23 269.29,-145.73 265.25,-132 260.77,-116.77 265.86,-99.36 271.61,-86.39"/>
<polygon fill="#63b8ff" stroke="#63b8ff" points="274.63,-88.18 275.94,-77.66 268.36,-85.07 274.63,-88.18"/>
</a>
</g>
</g>
<!-- Node23&#45;&gt;Node9 -->
<g id="edge29_Node000023_Node000009" class="edge">
<title>Node23&#45;&gt;Node9</title>
<g id="a_edge29_Node000023_Node000009"><a xlink:title=" ">
<path fill="none" stroke="#63b8ff" d="M310.45,-167.65C323.93,-159.37 343.14,-146.4 357.25,-132 385.9,-102.77 375.12,-78.59 409.25,-56 474.01,-13.14 506.74,-37.71 586.07,-20.19"/>
<polygon fill="#63b8ff" stroke="#63b8ff" points="586.66,-23.64 595.57,-17.91 585.03,-16.84 586.66,-23.64"/>
</a>
</g>
</g>
<!-- Node23&#45;&gt;Node13 -->
<g id="edge24_Node000023_Node000013" class="edge">
<title>Node23&#45;&gt;Node13</title>
<g id="a_edge24_Node000023_Node000013"><a xlink:title=" ">
<path fill="none" stroke="#63b8ff" d="M338.08,-167.53C380.17,-158.44 443.88,-144.68 489.33,-134.86"/>
<polygon fill="#63b8ff" stroke="#63b8ff" points="489.95,-138.31 498.99,-132.78 488.47,-131.47 489.95,-138.31"/>
</a>
</g>
</g>
<!-- Node23&#45;&gt;Node21 -->
<g id="edge31_Node000023_Node000021" class="edge">
<title>Node23&#45;&gt;Node21</title>
<g id="a_edge31_Node000023_Node000021"><a xlink:title=" ">
<path fill="none" stroke="#63b8ff" d="M224.09,-167.57C200.11,-161.12 174.92,-150.26 157.25,-132 145.74,-120.11 141.15,-101.64 139.34,-87.42"/>
<polygon fill="#63b8ff" stroke="#63b8ff" points="142.86,-87.46 138.5,-77.81 135.88,-88.07 142.86,-87.46"/>
</a>
</g>
</g>
<!-- Node24 -->
<g id="Node000024" class="node">
<title>Node24</title>
<g id="a_Node000024"><a xlink:href="_service_mgr_8h.html" target="_top" xlink:title=" ">
<polygon fill="white" stroke="#666666" points="348.12,-132 274.38,-132 274.38,-112 348.12,-112 348.12,-132"/>
<text text-anchor="middle" x="311.25" y="-118.5" font-family="Helvetica,sans-Serif" font-size="10.00">ServiceMgr.h</text>
</a>
</g>
</g>
<!-- Node23&#45;&gt;Node24 -->
<g id="edge25_Node000023_Node000024" class="edge">
<title>Node23&#45;&gt;Node24</title>
<g id="a_edge25_Node000023_Node000024"><a xlink:title=" ">
<path fill="none" stroke="#63b8ff" d="M297.21,-167.59C299.33,-160.86 302.27,-151.53 304.91,-143.15"/>
<polygon fill="#63b8ff" stroke="#63b8ff" points="308.2,-144.33 307.87,-133.74 301.53,-142.23 308.2,-144.33"/>
</a>
</g>
</g>
<!-- Node25 -->
<g id="Node000025" class="node">
<title>Node25</title>
<g id="a_Node000025"><a xlink:title=" ">
<polygon fill="#e0e0e0" stroke="#999999" points="217.88,-132 166.62,-132 166.62,-112 217.88,-112 217.88,-132"/>
<text text-anchor="middle" x="192.25" y="-118.5" font-family="Helvetica,sans-Serif" font-size="10.00">memory</text>
</a>
</g>
</g>
<!-- Node23&#45;&gt;Node25 -->
<g id="edge30_Node000023_Node000025" class="edge">
<title>Node23&#45;&gt;Node25</title>
<g id="a_edge30_Node000023_Node000025"><a xlink:title=" ">
<path fill="none" stroke="#63b8ff" d="M276.48,-167.59C260.93,-159.36 238.07,-147.26 220.09,-137.74"/>
<polygon fill="#63b8ff" stroke="#63b8ff" points="221.97,-134.77 211.49,-133.19 218.69,-140.96 221.97,-134.77"/>
</a>
</g>
</g>
<!-- Node24&#45;&gt;Node3 -->
<g id="edge26_Node000024_Node000003" class="edge">
<title>Node24&#45;&gt;Node3</title>
<g id="a_edge26_Node000024_Node000003"><a xlink:title=" ">
<path fill="none" stroke="#63b8ff" d="M306.2,-111.59C302.46,-104.63 297.23,-94.89 292.61,-86.29"/>
<polygon fill="#63b8ff" stroke="#63b8ff" points="295.77,-84.79 287.96,-77.63 289.61,-88.1 295.77,-84.79"/>
</a>
</g>
</g>
<!-- Node24&#45;&gt;Node20 -->
<g id="edge27_Node000024_Node000020" class="edge">
<title>Node24&#45;&gt;Node20</title>
<g id="a_edge27_Node000024_Node000020"><a xlink:title=" ">
<path fill="none" stroke="#63b8ff" d="M333.72,-111.59C354.28,-102.99 384.95,-90.15 408.1,-80.46"/>
<polygon fill="#63b8ff" stroke="#63b8ff" points="409.2,-83.79 417.07,-76.7 406.5,-77.34 409.2,-83.79"/>
</a>
</g>
</g>
<!-- Node24&#45;&gt;Node21 -->
<g id="edge28_Node000024_Node000021" class="edge">
<title>Node24&#45;&gt;Node21</title>
<g id="a_edge28_Node000024_Node000021"><a xlink:title=" ">
<path fill="none" stroke="#63b8ff" d="M281.12,-111.59C253.01,-102.82 210.84,-89.66 179.59,-79.9"/>
<polygon fill="#63b8ff" stroke="#63b8ff" points="180.65,-76.57 170.06,-76.93 178.57,-83.25 180.65,-76.57"/>
</a>
</g>
</g>
<!-- Node26&#45;&gt;Node12 -->
<g id="edge34_Node000026_Node000012" class="edge">
<title>Node26&#45;&gt;Node12</title>
<g id="a_edge34_Node000026_Node000012"><a xlink:title=" ">
<path fill="none" stroke="#63b8ff" d="M536.83,-279.59C521.58,-271.36 499.17,-259.26 481.54,-249.74"/>
<polygon fill="#63b8ff" stroke="#63b8ff" points="483.6,-246.87 473.14,-245.2 480.27,-253.03 483.6,-246.87"/>
</a>
</g>
</g>
<!-- Node26&#45;&gt;Node13 -->
<g id="edge33_Node000026_Node000013" class="edge">
<title>Node26&#45;&gt;Node13</title>
<g id="a_edge33_Node000026_Node000013"><a xlink:title=" ">
<path fill="none" stroke="#63b8ff" d="M553.68,-279.6C552.11,-253.46 547.65,-179.48 545.48,-143.36"/>
<polygon fill="#63b8ff" stroke="#63b8ff" points="549,-143.58 544.9,-133.81 542.01,-144 549,-143.58"/>
</a>
</g>
</g>
<!-- Node26&#45;&gt;Node20 -->
<g id="edge35_Node000026_Node000020" class="edge">
<title>Node26&#45;&gt;Node20</title>
<g id="a_edge35_Node000026_Node000020"><a xlink:title=" ">
<path fill="none" stroke="#63b8ff" d="M580.89,-279.63C626.03,-262.08 710.36,-221.2 685.25,-168 642.58,-77.57 575.98,-101.03 473.28,-76.31"/>
<polygon fill="#63b8ff" stroke="#63b8ff" points="474.26,-72.95 463.7,-73.88 472.53,-79.74 474.26,-72.95"/>
</a>
</g>
</g>
<!-- Node27 -->
<g id="Node000027" class="node">
<title>Node27</title>
<g id="a_Node000027"><a xlink:title=" ">
<polygon fill="#e0e0e0" stroke="#999999" points="622.25,-244 564.25,-244 564.25,-224 622.25,-224 622.25,-244"/>
<text text-anchor="middle" x="593.25" y="-230.5" font-family="Helvetica,sans-Serif" font-size="10.00">functional</text>
</a>
</g>
</g>
<!-- Node26&#45;&gt;Node27 -->
<g id="edge36_Node000026_Node000027" class="edge">
<title>Node26&#45;&gt;Node27</title>
<g id="a_edge36_Node000026_Node000027"><a xlink:title=" ">
<path fill="none" stroke="#63b8ff" d="M561.04,-279.59C566.24,-272.39 573.58,-262.23 579.94,-253.43"/>
<polygon fill="#63b8ff" stroke="#63b8ff" points="582.63,-255.68 585.65,-245.53 576.96,-251.58 582.63,-255.68"/>
</a>
</g>
</g>
<!-- Node28&#45;&gt;Node3 -->
<g id="edge40_Node000028_Node000003" class="edge">
<title>Node28&#45;&gt;Node3</title>
<g id="a_edge40_Node000028_Node000003"><a xlink:title=" ">
<path fill="none" stroke="#63b8ff" d="M828.46,-167.51C823.58,-152.79 811.99,-124.82 791.25,-112 782.19,-106.4 499.91,-83.85 359.71,-72.95"/>
<polygon fill="#63b8ff" stroke="#63b8ff" points="360.39,-69.5 350.15,-72.21 359.85,-76.47 360.39,-69.5"/>
</a>
</g>
</g>
<!-- Node28&#45;&gt;Node13 -->
<g id="edge44_Node000028_Node000013" class="edge">
<title>Node28&#45;&gt;Node13</title>
<g id="a_edge44_Node000028_Node000013"><a xlink:title=" ">
<path fill="none" stroke="#63b8ff" d="M802.15,-171.53C756.27,-162.89 666.11,-145.93 605.5,-134.52"/>
<polygon fill="#63b8ff" stroke="#63b8ff" points="606.51,-131.15 596.03,-132.74 605.21,-138.03 606.51,-131.15"/>
</a>
</g>
</g>
<!-- Node29 -->
<g id="Node000029" class="node">
<title>Node29</title>
<g id="a_Node000029"><a xlink:title=" ">
<polygon fill="#e0e0e0" stroke="#999999" points="996.38,-132 948.12,-132 948.12,-112 996.38,-112 996.38,-132"/>
<text text-anchor="middle" x="972.25" y="-118.5" font-family="Helvetica,sans-Serif" font-size="10.00">excpt.h</text>
</a>
</g>
</g>
<!-- Node28&#45;&gt;Node29 -->
<g id="edge38_Node000028_Node000029" class="edge">
<title>Node28&#45;&gt;Node29</title>
<g id="a_edge38_Node000028_Node000029"><a xlink:title=" ">
<path fill="none" stroke="#63b8ff" d="M855.81,-167.59C878.35,-158.96 912,-146.08 937.33,-136.37"/>
<polygon fill="#63b8ff" stroke="#63b8ff" points="938.47,-139.68 946.56,-132.84 935.97,-133.15 938.47,-139.68"/>
</a>
</g>
</g>
<!-- Node28&#45;&gt;Node30 -->
<g id="edge39_Node000028_Node000030" class="edge">
<title>Node28&#45;&gt;Node30</title>
<g id="a_edge39_Node000028_Node000030"><a xlink:title=" ">
<path fill="none" stroke="#63b8ff" d="M815.75,-167.59C802.43,-159.51 782.97,-147.71 767.42,-138.27"/>
<polygon fill="#63b8ff" stroke="#63b8ff" points="769.53,-135.46 759.17,-133.26 765.9,-141.44 769.53,-135.46"/>
</a>
</g>
</g>
<!-- Node31 -->
<g id="Node000031" class="node">
<title>Node31</title>
<g id="a_Node000031"><a xlink:title=" ">
<polygon fill="#e0e0e0" stroke="#999999" points="1062.38,-132 1014.12,-132 1014.12,-112 1062.38,-112 1062.38,-132"/>
<text text-anchor="middle" x="1038.25" y="-118.5" font-family="Helvetica,sans-Serif" font-size="10.00">string.h</text>
</a>
</g>
</g>
<!-- Node28&#45;&gt;Node31 -->
<g id="edge41_Node000028_Node000031" class="edge">
<title>Node28&#45;&gt;Node31</title>
<g id="a_edge41_Node000028_Node000031"><a xlink:title=" ">
<path fill="none" stroke="#63b8ff" d="M860.22,-169.63C892.69,-161.35 947.17,-147.37 1002.96,-132.59"/>
<polygon fill="#63b8ff" stroke="#63b8ff" points="1003.52,-136.06 1012.29,-130.11 1001.73,-129.29 1003.52,-136.06"/>
</a>
</g>
</g>
<!-- Node32 -->
<g id="Node000032" class="node">
<title>Node32</title>
<g id="a_Node000032"><a xlink:title=" ">
<polygon fill="#e0e0e0" stroke="#999999" points="866.65,-132 837.85,-132 837.85,-112 866.65,-112 866.65,-132"/>
<text text-anchor="middle" x="852.25" y="-118.5" font-family="Helvetica,sans-Serif" font-size="10.00">list</text>
</a>
</g>
</g>
<!-- Node28&#45;&gt;Node32 -->
<g id="edge42_Node000028_Node000032" class="edge">
<title>Node28&#45;&gt;Node32</title>
<g id="a_edge42_Node000028_Node000032"><a xlink:title=" ">
<path fill="none" stroke="#63b8ff" d="M834.91,-167.59C837.56,-160.78 841.24,-151.32 844.53,-142.86"/>
<polygon fill="#63b8ff" stroke="#63b8ff" points="847.72,-144.3 848.09,-133.71 841.2,-141.76 847.72,-144.3"/>
</a>
</g>
</g>
<!-- Node33 -->
<g id="Node000033" class="node">
<title>Node33</title>
<g id="a_Node000033"><a xlink:title=" ">
<polygon fill="#e0e0e0" stroke="#999999" points="930.25,-132 884.25,-132 884.25,-112 930.25,-112 930.25,-132"/>
<text text-anchor="middle" x="907.25" y="-118.5" font-family="Helvetica,sans-Serif" font-size="10.00">iterator</text>
</a>
</g>
</g>
<!-- Node28&#45;&gt;Node33 -->
<g id="edge43_Node000028_Node000033" class="edge">
<title>Node28&#45;&gt;Node33</title>
<g id="a_edge43_Node000028_Node000033"><a xlink:title=" ">
<path fill="none" stroke="#63b8ff" d="M844.49,-167.59C855.54,-159.74 871.53,-148.38 884.61,-139.09"/>
<polygon fill="#63b8ff" stroke="#63b8ff" points="886.55,-142 892.67,-133.36 882.5,-136.3 886.55,-142"/>
</a>
</g>
</g>
<!-- Node34&#45;&gt;Node3 -->
<g id="edge46_Node000034_Node000003" class="edge">
<title>Node34&#45;&gt;Node3</title>
<g id="a_edge46_Node000034_Node000003"><a xlink:title=" ">
<path fill="none" stroke="#63b8ff" d="M635.39,-170.33C632.66,-169.51 629.9,-168.71 627.25,-168 558.56,-149.44 539.65,-151.6 471.25,-132 416.91,-116.43 355.19,-94.35 317.49,-80.36"/>
<polygon fill="#63b8ff" stroke="#63b8ff" points="319.07,-77.21 308.47,-76.99 316.62,-83.77 319.07,-77.21"/>
</a>
</g>
</g>
<!-- Node34&#45;&gt;Node13 -->
<g id="edge47_Node000034_Node000013" class="edge">
<title>Node34&#45;&gt;Node13</title>
<g id="a_edge47_Node000034_Node000013"><a xlink:title=" ">
<path fill="none" stroke="#63b8ff" d="M636.74,-167.59C619.5,-159.28 594.09,-147.03 574.26,-137.47"/>
<polygon fill="#63b8ff" stroke="#63b8ff" points="575.8,-134.33 565.27,-133.14 572.76,-140.63 575.8,-134.33"/>
</a>
</g>
</g>
<!-- Node34&#45;&gt;Node30 -->
<g id="edge48_Node000034_Node000030" class="edge">
<title>Node34&#45;&gt;Node30</title>
<g id="a_edge48_Node000034_Node000030"><a xlink:title=" ">
<path fill="none" stroke="#63b8ff" d="M671.23,-167.59C683.98,-159.59 702.54,-147.93 717.49,-138.54"/>
<polygon fill="#63b8ff" stroke="#63b8ff" points="719.26,-141.57 725.87,-133.28 715.54,-135.64 719.26,-141.57"/>
</a>
</g>
</g>
</g>
</svg>
