<?xml version="1.0" encoding="UTF-8" standalone="no"?>
<!DOCTYPE svg PUBLIC "-//W3C//DTD SVG 1.1//EN"
 "http://www.w3.org/Graphics/SVG/1.1/DTD/svg11.dtd">
<!-- Generated by graphviz version 12.2.1 (20241206.2353)
 -->
<!-- Title: FIEAGameEngine/src/content/Attributed.cpp Pages: 1 -->
<svg width="1124pt" height="432pt"
 viewBox="0.00 0.00 1123.88 432.00" xmlns="http://www.w3.org/2000/svg" xmlns:xlink="http://www.w3.org/1999/xlink">
<g id="graph0" class="graph" transform="scale(1 1) rotate(0) translate(4 428)">
<title>FIEAGameEngine/src/content/Attributed.cpp</title>
<!-- Node1 -->
<g id="Node000001" class="node">
<title>Node1</title>
<g id="a_Node000001"><a xlink:title=" ">
<polygon fill="#999999" stroke="#666666" points="591.38,-424 476.38,-424 476.38,-392 591.38,-392 591.38,-424"/>
<text text-anchor="start" x="484.38" y="-410.5" font-family="Helvetica,sans-Serif" font-size="10.00">FIEAGameEngine/src</text>
<text text-anchor="middle" x="533.88" y="-398.5" font-family="Helvetica,sans-Serif" font-size="10.00">/content/Attributed.cpp</text>
</a>
</g>
</g>
<!-- Node2 -->
<g id="Node000002" class="node">
<title>Node2</title>
<g id="a_Node000002"><a xlink:href="_attributed_8h.html" target="_top" xlink:title=" ">
<polygon fill="white" stroke="#666666" points="528.75,-300 425,-300 425,-280 528.75,-280 528.75,-300"/>
<text text-anchor="middle" x="476.88" y="-286.5" font-family="Helvetica,sans-Serif" font-size="10.00">Content/Attributed.h</text>
</a>
</g>
</g>
<!-- Node1&#45;&gt;Node2 -->
<g id="edge1_Node000001_Node000002" class="edge">
<title>Node1&#45;&gt;Node2</title>
<g id="a_edge1_Node000001_Node000002"><a xlink:title=" ">
<path fill="none" stroke="#63b8ff" d="M520.34,-391.88C512.28,-382.2 502.38,-369.04 495.88,-356 488.8,-341.81 483.91,-324.52 480.86,-311.35"/>
<polygon fill="#63b8ff" stroke="#63b8ff" points="484.31,-310.74 478.81,-301.69 477.46,-312.2 484.31,-310.74"/>
</a>
</g>
</g>
<!-- Node27 -->
<g id="Node000027" class="node">
<title>Node27</title>
<g id="a_Node000027"><a xlink:href="_content_service_8h.html" target="_top" xlink:title=" ">
<polygon fill="white" stroke="#666666" points="678.62,-356 505.12,-356 505.12,-336 678.62,-336 678.62,-356"/>
<text text-anchor="middle" x="591.88" y="-342.5" font-family="Helvetica,sans-Serif" font-size="10.00">FIEAGameEngine/ContentService.h</text>
</a>
</g>
</g>
<!-- Node1&#45;&gt;Node27 -->
<g id="edge40_Node000001_Node000027" class="edge">
<title>Node1&#45;&gt;Node27</title>
<g id="a_edge40_Node000001_Node000027"><a xlink:title=" ">
<path fill="none" stroke="#63b8ff" d="M548.81,-391.55C556.78,-383.3 566.63,-373.12 574.89,-364.57"/>
<polygon fill="#63b8ff" stroke="#63b8ff" points="577.29,-367.12 581.73,-357.5 572.26,-362.25 577.29,-367.12"/>
</a>
</g>
</g>
<!-- Node3 -->
<g id="Node000003" class="node">
<title>Node3</title>
<g id="a_Node000003"><a xlink:href="_r_t_t_i_8h.html" target="_top" xlink:title=" ">
<polygon fill="white" stroke="#666666" points="577.75,-132 450,-132 450,-112 577.75,-112 577.75,-132"/>
<text text-anchor="middle" x="513.88" y="-118.5" font-family="Helvetica,sans-Serif" font-size="10.00">FIEAGameEngine/RTTI.h</text>
</a>
</g>
</g>
<!-- Node2&#45;&gt;Node3 -->
<g id="edge2_Node000002_Node000003" class="edge">
<title>Node2&#45;&gt;Node3</title>
<g id="a_edge2_Node000002_Node000003"><a xlink:title=" ">
<path fill="none" stroke="#63b8ff" d="M470.09,-279.79C454.83,-258.87 418.69,-208.04 412.88,-188 410.4,-179.46 408.03,-175.46 412.88,-168 422.52,-153.14 438.34,-143.15 454.62,-136.44"/>
<polygon fill="#63b8ff" stroke="#63b8ff" points="455.74,-139.76 463.91,-133.02 453.32,-133.19 455.74,-139.76"/>
</a>
</g>
</g>
<!-- Node14 -->
<g id="Node000014" class="node">
<title>Node14</title>
<g id="a_Node000014"><a xlink:href="_scope_8h.html" target="_top" xlink:title=" ">
<polygon fill="white" stroke="#666666" points="528.88,-244 476.88,-244 476.88,-224 528.88,-224 528.88,-244"/>
<text text-anchor="middle" x="502.88" y="-230.5" font-family="Helvetica,sans-Serif" font-size="10.00">Scope.h</text>
</a>
</g>
</g>
<!-- Node2&#45;&gt;Node14 -->
<g id="edge14_Node000002_Node000014" class="edge">
<title>Node2&#45;&gt;Node14</title>
<g id="a_edge14_Node000002_Node000014"><a xlink:title=" ">
<path fill="none" stroke="#63b8ff" d="M481.4,-279.59C484.72,-272.7 489.34,-263.1 493.45,-254.57"/>
<polygon fill="#63b8ff" stroke="#63b8ff" points="496.56,-256.19 497.74,-245.66 490.25,-253.15 496.56,-256.19"/>
</a>
</g>
</g>
<!-- Node20 -->
<g id="Node000020" class="node">
<title>Node20</title>
<g id="a_Node000020"><a xlink:title=" ">
<polygon fill="#e0e0e0" stroke="#999999" points="941.38,-76 898.38,-76 898.38,-56 941.38,-56 941.38,-76"/>
<text text-anchor="middle" x="919.88" y="-62.5" font-family="Helvetica,sans-Serif" font-size="10.00">vector</text>
</a>
</g>
</g>
<!-- Node2&#45;&gt;Node20 -->
<g id="edge38_Node000002_Node000020" class="edge">
<title>Node2&#45;&gt;Node20</title>
<g id="a_edge38_Node000002_Node000020"><a xlink:title=" ">
<path fill="none" stroke="#63b8ff" d="M528.99,-288.35C612.28,-284.83 777.19,-267.45 886.88,-188 910.64,-170.78 913.78,-160.21 921.88,-132 926.03,-117.53 925.31,-100.49 923.67,-87.49"/>
<polygon fill="#63b8ff" stroke="#63b8ff" points="927.18,-87.31 922.18,-77.98 920.27,-88.4 927.18,-87.31"/>
</a>
</g>
</g>
<!-- Node26 -->
<g id="Node000026" class="node">
<title>Node26</title>
<g id="a_Node000026"><a xlink:title=" ">
<polygon fill="#e0e0e0" stroke="#999999" points="420.88,-244 362.88,-244 362.88,-224 420.88,-224 420.88,-244"/>
<text text-anchor="middle" x="391.88" y="-230.5" font-family="Helvetica,sans-Serif" font-size="10.00">functional</text>
</a>
</g>
</g>
<!-- Node2&#45;&gt;Node26 -->
<g id="edge39_Node000002_Node000026" class="edge">
<title>Node2&#45;&gt;Node26</title>
<g id="a_edge39_Node000002_Node000026"><a xlink:title=" ">
<path fill="none" stroke="#63b8ff" d="M462.07,-279.59C449.47,-271.59 431.12,-259.93 416.34,-250.54"/>
<polygon fill="#63b8ff" stroke="#63b8ff" points="418.39,-247.7 408.07,-245.29 414.64,-253.61 418.39,-247.7"/>
</a>
</g>
</g>
<!-- Node4 -->
<g id="Node000004" class="node">
<title>Node4</title>
<g id="a_Node000004"><a xlink:href="_types_8h.html" target="_top" xlink:title=" ">
<polygon fill="white" stroke="#666666" points="394,-76 261.75,-76 261.75,-56 394,-56 394,-76"/>
<text text-anchor="middle" x="327.88" y="-62.5" font-family="Helvetica,sans-Serif" font-size="10.00">FIEAGameEngine/Types.h</text>
</a>
</g>
</g>
<!-- Node3&#45;&gt;Node4 -->
<g id="edge3_Node000003_Node000004" class="edge">
<title>Node3&#45;&gt;Node4</title>
<g id="a_edge3_Node000003_Node000004"><a xlink:title=" ">
<path fill="none" stroke="#63b8ff" d="M481.48,-111.59C450.99,-102.74 405.12,-89.43 371.44,-79.65"/>
<polygon fill="#63b8ff" stroke="#63b8ff" points="372.56,-76.33 361.98,-76.9 370.61,-83.05 372.56,-76.33"/>
</a>
</g>
</g>
<!-- Node13 -->
<g id="Node000013" class="node">
<title>Node13</title>
<g id="a_Node000013"><a xlink:href="_r_t_t_i_8inl.html" target="_top" xlink:title=" ">
<polygon fill="white" stroke="#666666" points="578.12,-76 449.62,-76 449.62,-56 578.12,-56 578.12,-76"/>
<text text-anchor="middle" x="513.88" y="-62.5" font-family="Helvetica,sans-Serif" font-size="10.00">FieaGameEngine/RTTI.inl</text>
</a>
</g>
</g>
<!-- Node3&#45;&gt;Node13 -->
<g id="edge12_Node000003_Node000013" class="edge">
<title>Node3&#45;&gt;Node13</title>
<g id="a_edge12_Node000003_Node000013"><a xlink:title=" ">
<path fill="none" stroke="#63b8ff" d="M508.61,-111.59C507.29,-105.01 506.85,-95.96 507.29,-87.73"/>
<polygon fill="#63b8ff" stroke="#63b8ff" points="510.77,-88.14 508.45,-77.8 503.81,-87.33 510.77,-88.14"/>
</a>
</g>
</g>
<!-- Node5 -->
<g id="Node000005" class="node">
<title>Node5</title>
<g id="a_Node000005"><a xlink:title=" ">
<polygon fill="#e0e0e0" stroke="#999999" points="685.12,-20 622.62,-20 622.62,0 685.12,0 685.12,-20"/>
<text text-anchor="middle" x="653.88" y="-6.5" font-family="Helvetica,sans-Serif" font-size="10.00">windows.h</text>
</a>
</g>
</g>
<!-- Node4&#45;&gt;Node5 -->
<g id="edge4_Node000004_Node000005" class="edge">
<title>Node4&#45;&gt;Node5</title>
<g id="a_edge4_Node000004_Node000005"><a xlink:title=" ">
<path fill="none" stroke="#63b8ff" d="M394.26,-55.81C449.75,-47.84 531.23,-35.48 611.2,-20.41"/>
<polygon fill="#63b8ff" stroke="#63b8ff" points="611.82,-23.86 620.99,-18.55 610.51,-16.98 611.82,-23.86"/>
</a>
</g>
</g>
<!-- Node6 -->
<g id="Node000006" class="node">
<title>Node6</title>
<g id="a_Node000006"><a xlink:title=" ">
<polygon fill="#e0e0e0" stroke="#999999" points="154,-20 105.75,-20 105.75,0 154,0 154,-20"/>
<text text-anchor="middle" x="129.88" y="-6.5" font-family="Helvetica,sans-Serif" font-size="10.00">cassert</text>
</a>
</g>
</g>
<!-- Node4&#45;&gt;Node6 -->
<g id="edge5_Node000004_Node000006" class="edge">
<title>Node4&#45;&gt;Node6</title>
<g id="a_edge5_Node000004_Node000006"><a xlink:title=" ">
<path fill="none" stroke="#63b8ff" d="M293.39,-55.59C257.49,-45.81 201.57,-30.55 165.32,-20.67"/>
<polygon fill="#63b8ff" stroke="#63b8ff" points="166.33,-17.31 155.76,-18.06 164.48,-24.07 166.33,-17.31"/>
</a>
</g>
</g>
<!-- Node7 -->
<g id="Node000007" class="node">
<title>Node7</title>
<g id="a_Node000007"><a xlink:title=" ">
<polygon fill="#e0e0e0" stroke="#999999" points="220,-20 171.75,-20 171.75,0 220,0 220,-20"/>
<text text-anchor="middle" x="195.88" y="-6.5" font-family="Helvetica,sans-Serif" font-size="10.00">cstddef</text>
</a>
</g>
</g>
<!-- Node4&#45;&gt;Node7 -->
<g id="edge6_Node000004_Node000007" class="edge">
<title>Node4&#45;&gt;Node7</title>
<g id="a_edge6_Node000004_Node000007"><a xlink:title=" ">
<path fill="none" stroke="#63b8ff" d="M304.88,-55.59C284.09,-47.09 253.22,-34.46 229.64,-24.81"/>
<polygon fill="#63b8ff" stroke="#63b8ff" points="231.03,-21.6 220.45,-21.05 228.38,-28.08 231.03,-21.6"/>
</a>
</g>
</g>
<!-- Node8 -->
<g id="Node000008" class="node">
<title>Node8</title>
<g id="a_Node000008"><a xlink:title=" ">
<polygon fill="#e0e0e0" stroke="#999999" points="283.5,-20 238.25,-20 238.25,0 283.5,0 283.5,-20"/>
<text text-anchor="middle" x="260.88" y="-6.5" font-family="Helvetica,sans-Serif" font-size="10.00">cstdint</text>
</a>
</g>
</g>
<!-- Node4&#45;&gt;Node8 -->
<g id="edge7_Node000004_Node000008" class="edge">
<title>Node4&#45;&gt;Node8</title>
<g id="a_edge7_Node000004_Node000008"><a xlink:title=" ">
<path fill="none" stroke="#63b8ff" d="M316.2,-55.59C306.6,-47.85 292.75,-36.69 281.31,-27.47"/>
<polygon fill="#63b8ff" stroke="#63b8ff" points="283.57,-24.8 273.59,-21.25 279.18,-30.25 283.57,-24.8"/>
</a>
</g>
</g>
<!-- Node9 -->
<g id="Node000009" class="node">
<title>Node9</title>
<g id="a_Node000009"><a xlink:title=" ">
<polygon fill="#e0e0e0" stroke="#999999" points="354.25,-20 301.5,-20 301.5,0 354.25,0 354.25,-20"/>
<text text-anchor="middle" x="327.88" y="-6.5" font-family="Helvetica,sans-Serif" font-size="10.00">cstdbool</text>
</a>
</g>
</g>
<!-- Node4&#45;&gt;Node9 -->
<g id="edge8_Node000004_Node000009" class="edge">
<title>Node4&#45;&gt;Node9</title>
<g id="a_edge8_Node000004_Node000009"><a xlink:title=" ">
<path fill="none" stroke="#63b8ff" d="M327.88,-55.59C327.88,-49.01 327.88,-39.96 327.88,-31.73"/>
<polygon fill="#63b8ff" stroke="#63b8ff" points="331.38,-31.81 327.88,-21.81 324.38,-31.81 331.38,-31.81"/>
</a>
</g>
</g>
<!-- Node10 -->
<g id="Node000010" class="node">
<title>Node10</title>
<g id="a_Node000010"><a xlink:title=" ">
<polygon fill="#e0e0e0" stroke="#999999" points="809.88,-20 769.88,-20 769.88,0 809.88,0 809.88,-20"/>
<text text-anchor="middle" x="789.88" y="-6.5" font-family="Helvetica,sans-Serif" font-size="10.00">string</text>
</a>
</g>
</g>
<!-- Node4&#45;&gt;Node10 -->
<g id="edge9_Node000004_Node000010" class="edge">
<title>Node4&#45;&gt;Node10</title>
<g id="a_edge9_Node000004_Node000010"><a xlink:title=" ">
<path fill="none" stroke="#63b8ff" d="M394.07,-57.26C494.99,-45.47 683.48,-23.44 758.19,-14.7"/>
<polygon fill="#63b8ff" stroke="#63b8ff" points="758.55,-18.19 768.08,-13.55 757.74,-11.23 758.55,-18.19"/>
</a>
</g>
</g>
<!-- Node11 -->
<g id="Node000011" class="node">
<title>Node11</title>
<g id="a_Node000011"><a xlink:title=" ">
<polygon fill="#e0e0e0" stroke="#999999" points="427,-20 372.75,-20 372.75,0 427,0 427,-20"/>
<text text-anchor="middle" x="399.88" y="-6.5" font-family="Helvetica,sans-Serif" font-size="10.00">crtdefs.h</text>
</a>
</g>
</g>
<!-- Node4&#45;&gt;Node11 -->
<g id="edge10_Node000004_Node000011" class="edge">
<title>Node4&#45;&gt;Node11</title>
<g id="a_edge10_Node000004_Node000011"><a xlink:title=" ">
<path fill="none" stroke="#63b8ff" d="M340.42,-55.59C350.84,-47.77 365.92,-36.46 378.29,-27.19"/>
<polygon fill="#63b8ff" stroke="#63b8ff" points="380.37,-30.01 386.27,-21.21 376.17,-24.41 380.37,-30.01"/>
</a>
</g>
</g>
<!-- Node12 -->
<g id="Node000012" class="node">
<title>Node12</title>
<g id="a_Node000012"><a xlink:title=" ">
<polygon fill="#e0e0e0" stroke="#999999" points="604.88,-20 444.88,-20 444.88,0 604.88,0 604.88,-20"/>
<text text-anchor="middle" x="524.88" y="-6.5" font-family="Helvetica,sans-Serif" font-size="10.00">../src/memory/SystemAllocator.h</text>
</a>
</g>
</g>
<!-- Node4&#45;&gt;Node12 -->
<g id="edge11_Node000004_Node000012" class="edge">
<title>Node4&#45;&gt;Node12</title>
<g id="a_edge11_Node000004_Node000012"><a xlink:title=" ">
<path fill="none" stroke="#63b8ff" d="M362.19,-55.59C394.62,-46.71 443.49,-33.31 479.2,-23.52"/>
<polygon fill="#63b8ff" stroke="#63b8ff" points="480.11,-26.9 488.83,-20.88 478.26,-20.15 480.11,-26.9"/>
</a>
</g>
</g>
<!-- Node13&#45;&gt;Node3 -->
<g id="edge13_Node000013_Node000003" class="edge">
<title>Node13&#45;&gt;Node3</title>
<g id="a_edge13_Node000013_Node000003"><a xlink:title=" ">
<path fill="none" stroke="#63b8ff" d="M519.12,-76.3C520.46,-82.93 520.91,-92.11 520.45,-100.43"/>
<polygon fill="#63b8ff" stroke="#63b8ff" points="517.01,-99.75 519.32,-110.09 523.96,-100.57 517.01,-99.75"/>
</a>
</g>
</g>
<!-- Node14&#45;&gt;Node3 -->
<g id="edge15_Node000014_Node000003" class="edge">
<title>Node14&#45;&gt;Node3</title>
<g id="a_edge15_Node000014_Node000003"><a xlink:title=" ">
<path fill="none" stroke="#63b8ff" d="M503.42,-223.73C504.21,-211.1 505.79,-187.81 507.88,-168 508.72,-159.97 509.85,-151.16 510.9,-143.48"/>
<polygon fill="#63b8ff" stroke="#63b8ff" points="514.33,-144.18 512.27,-133.79 507.4,-143.2 514.33,-144.18"/>
</a>
</g>
</g>
<!-- Node15 -->
<g id="Node000015" class="node">
<title>Node15</title>
<g id="a_Node000015"><a xlink:href="_datum_8h.html" target="_top" xlink:title=" ">
<polygon fill="white" stroke="#666666" points="267.62,-188 214.12,-188 214.12,-168 267.62,-168 267.62,-188"/>
<text text-anchor="middle" x="240.88" y="-174.5" font-family="Helvetica,sans-Serif" font-size="10.00">Datum.h</text>
</a>
</g>
</g>
<!-- Node14&#45;&gt;Node15 -->
<g id="edge16_Node000014_Node000015" class="edge">
<title>Node14&#45;&gt;Node15</title>
<g id="a_edge16_Node000014_Node000015"><a xlink:title=" ">
<path fill="none" stroke="#63b8ff" d="M476.8,-227.62C430.37,-218.06 333.21,-198.03 279.18,-186.9"/>
<polygon fill="#63b8ff" stroke="#63b8ff" points="280.01,-183.49 269.5,-184.9 278.59,-190.35 280.01,-183.49"/>
</a>
</g>
</g>
<!-- Node14&#45;&gt;Node20 -->
<g id="edge25_Node000014_Node000020" class="edge">
<title>Node14&#45;&gt;Node20</title>
<g id="a_edge25_Node000014_Node000020"><a xlink:title=" ">
<path fill="none" stroke="#63b8ff" d="M529.15,-232.48C602.32,-230.62 806.74,-222.37 862.88,-188 898.25,-166.34 912.01,-115.99 917.1,-87.54"/>
<polygon fill="#63b8ff" stroke="#63b8ff" points="920.55,-88.1 918.64,-77.68 913.63,-87.02 920.55,-88.1"/>
</a>
</g>
</g>
<!-- Node21 -->
<g id="Node000021" class="node">
<title>Node21</title>
<g id="a_Node000021"><a xlink:title=" ">
<polygon fill="#e0e0e0" stroke="#999999" points="762.25,-76 679.5,-76 679.5,-56 762.25,-56 762.25,-76"/>
<text text-anchor="middle" x="720.88" y="-62.5" font-family="Helvetica,sans-Serif" font-size="10.00">unordered_map</text>
</a>
</g>
</g>
<!-- Node14&#45;&gt;Node21 -->
<g id="edge26_Node000014_Node000021" class="edge">
<title>Node14&#45;&gt;Node21</title>
<g id="a_edge26_Node000014_Node000021"><a xlink:title=" ">
<path fill="none" stroke="#63b8ff" d="M529.15,-230.7C558.58,-226.79 605.94,-216.24 634.88,-188 660.64,-162.86 641.61,-141.04 662.88,-112 671.38,-100.39 683.66,-90.26 694.74,-82.58"/>
<polygon fill="#63b8ff" stroke="#63b8ff" points="696.34,-85.71 702.78,-77.3 692.5,-79.86 696.34,-85.71"/>
</a>
</g>
</g>
<!-- Node22 -->
<g id="Node000022" class="node">
<title>Node22</title>
<g id="a_Node000022"><a xlink:title=" ">
<polygon fill="#e0e0e0" stroke="#999999" points="456.25,-188 421.5,-188 421.5,-168 456.25,-168 456.25,-188"/>
<text text-anchor="middle" x="438.88" y="-174.5" font-family="Helvetica,sans-Serif" font-size="10.00">map</text>
</a>
</g>
</g>
<!-- Node14&#45;&gt;Node22 -->
<g id="edge27_Node000014_Node000022" class="edge">
<title>Node14&#45;&gt;Node22</title>
<g id="a_edge27_Node000014_Node000022"><a xlink:title=" ">
<path fill="none" stroke="#63b8ff" d="M491.73,-223.59C482.55,-215.85 469.32,-204.69 458.39,-195.47"/>
<polygon fill="#63b8ff" stroke="#63b8ff" points="460.95,-193.05 451.05,-189.27 456.44,-198.4 460.95,-193.05"/>
</a>
</g>
</g>
<!-- Node23 -->
<g id="Node000023" class="node">
<title>Node23</title>
<g id="a_Node000023"><a xlink:href="_factory_service_8h.html" target="_top" xlink:title=" ">
<polygon fill="white" stroke="#666666" points="853.88,-188 681.88,-188 681.88,-168 853.88,-168 853.88,-188"/>
<text text-anchor="middle" x="767.88" y="-174.5" font-family="Helvetica,sans-Serif" font-size="10.00">FIEAGameEngine/FactoryService.h</text>
</a>
</g>
</g>
<!-- Node14&#45;&gt;Node23 -->
<g id="edge28_Node000014_Node000023" class="edge">
<title>Node14&#45;&gt;Node23</title>
<g id="a_edge28_Node000014_Node000023"><a xlink:title=" ">
<path fill="none" stroke="#63b8ff" d="M529.25,-227.62C571.26,-219.06 654.35,-202.13 710.52,-190.69"/>
<polygon fill="#63b8ff" stroke="#63b8ff" points="711.14,-194.13 720.24,-188.71 709.74,-187.27 711.14,-194.13"/>
</a>
</g>
</g>
<!-- Node15&#45;&gt;Node3 -->
<g id="edge21_Node000015_Node000003" class="edge">
<title>Node15&#45;&gt;Node3</title>
<g id="a_edge21_Node000015_Node000003"><a xlink:title=" ">
<path fill="none" stroke="#63b8ff" d="M268.05,-171.62C311.35,-163.06 397.03,-146.11 454.89,-134.67"/>
<polygon fill="#63b8ff" stroke="#63b8ff" points="455.46,-138.12 464.59,-132.75 454.1,-131.26 455.46,-138.12"/>
</a>
</g>
</g>
<!-- Node15&#45;&gt;Node10 -->
<g id="edge17_Node000015_Node000010" class="edge">
<title>Node15&#45;&gt;Node10</title>
<g id="a_edge17_Node000015_Node000010"><a xlink:title=" ">
<path fill="none" stroke="#63b8ff" d="M268.06,-170.81C294.27,-164.02 334.35,-151.43 364.88,-132 405.18,-106.35 398,-77.07 440.88,-56 469.1,-42.13 677.75,-21.45 758.28,-13.9"/>
<polygon fill="#63b8ff" stroke="#63b8ff" points="758.49,-17.39 768.13,-12.98 757.84,-10.42 758.49,-17.39"/>
</a>
</g>
</g>
<!-- Node16 -->
<g id="Node000016" class="node">
<title>Node16</title>
<g id="a_Node000016"><a xlink:title=" ">
<polygon fill="#e0e0e0" stroke="#999999" points="55.75,-132 0,-132 0,-112 55.75,-112 55.75,-132"/>
<text text-anchor="middle" x="27.88" y="-118.5" font-family="Helvetica,sans-Serif" font-size="10.00">charconv</text>
</a>
</g>
</g>
<!-- Node15&#45;&gt;Node16 -->
<g id="edge18_Node000015_Node000016" class="edge">
<title>Node15&#45;&gt;Node16</title>
<g id="a_edge18_Node000015_Node000016"><a xlink:title=" ">
<path fill="none" stroke="#63b8ff" d="M213.9,-170.16C176.78,-160.75 109.71,-143.75 67.06,-132.93"/>
<polygon fill="#63b8ff" stroke="#63b8ff" points="68.01,-129.56 57.45,-130.5 66.28,-136.35 68.01,-129.56"/>
</a>
</g>
</g>
<!-- Node17 -->
<g id="Node000017" class="node">
<title>Node17</title>
<g id="a_Node000017"><a xlink:title=" ">
<polygon fill="#e0e0e0" stroke="#999999" points="219.5,-132 150.25,-132 150.25,-112 219.5,-112 219.5,-132"/>
<text text-anchor="middle" x="184.88" y="-118.5" font-family="Helvetica,sans-Serif" font-size="10.00">glm/glm.hpp</text>
</a>
</g>
</g>
<!-- Node15&#45;&gt;Node17 -->
<g id="edge19_Node000015_Node000017" class="edge">
<title>Node15&#45;&gt;Node17</title>
<g id="a_edge19_Node000015_Node000017"><a xlink:title=" ">
<path fill="none" stroke="#63b8ff" d="M231.12,-167.59C223.25,-160.01 211.98,-149.13 202.53,-140.02"/>
<polygon fill="#63b8ff" stroke="#63b8ff" points="205.24,-137.77 195.61,-133.35 200.38,-142.81 205.24,-137.77"/>
</a>
</g>
</g>
<!-- Node18 -->
<g id="Node000018" class="node">
<title>Node18</title>
<g id="a_Node000018"><a xlink:title=" ">
<polygon fill="#e0e0e0" stroke="#999999" points="355.88,-132 237.88,-132 237.88,-112 355.88,-112 355.88,-132"/>
<text text-anchor="middle" x="296.88" y="-118.5" font-family="Helvetica,sans-Serif" font-size="10.00">glm/gtx/string_cast.hpp</text>
</a>
</g>
</g>
<!-- Node15&#45;&gt;Node18 -->
<g id="edge20_Node000015_Node000018" class="edge">
<title>Node15&#45;&gt;Node18</title>
<g id="a_edge20_Node000015_Node000018"><a xlink:title=" ">
<path fill="none" stroke="#63b8ff" d="M250.63,-167.59C258.5,-160.01 269.77,-149.13 279.22,-140.02"/>
<polygon fill="#63b8ff" stroke="#63b8ff" points="281.37,-142.81 286.14,-133.35 276.51,-137.77 281.37,-142.81"/>
</a>
</g>
</g>
<!-- Node19 -->
<g id="Node000019" class="node">
<title>Node19</title>
<g id="a_Node000019"><a xlink:href="_datum_8inl.html" target="_top" xlink:title=" ">
<polygon fill="white" stroke="#666666" points="131.88,-132 73.88,-132 73.88,-112 131.88,-112 131.88,-132"/>
<text text-anchor="middle" x="102.88" y="-118.5" font-family="Helvetica,sans-Serif" font-size="10.00">Datum.inl</text>
</a>
</g>
</g>
<!-- Node15&#45;&gt;Node19 -->
<g id="edge22_Node000015_Node000019" class="edge">
<title>Node15&#45;&gt;Node19</title>
<g id="a_edge22_Node000015_Node000019"><a xlink:title=" ">
<path fill="none" stroke="#63b8ff" d="M213.92,-168.44C190.3,-159.93 156.29,-146.74 132.06,-136.76"/>
<polygon fill="#63b8ff" stroke="#63b8ff" points="133.66,-133.63 123.08,-133.01 130.96,-140.09 133.66,-133.63"/>
</a>
</g>
</g>
<!-- Node19&#45;&gt;Node4 -->
<g id="edge23_Node000019_Node000004" class="edge">
<title>Node19&#45;&gt;Node4</title>
<g id="a_edge23_Node000019_Node000004"><a xlink:title=" ">
<path fill="none" stroke="#63b8ff" d="M132.29,-113.94C169.19,-105.09 233.02,-89.76 277.7,-79.04"/>
<polygon fill="#63b8ff" stroke="#63b8ff" points="278.24,-82.51 287.15,-76.77 276.61,-75.71 278.24,-82.51"/>
</a>
</g>
</g>
<!-- Node19&#45;&gt;Node15 -->
<g id="edge24_Node000019_Node000015" class="edge">
<title>Node19&#45;&gt;Node15</title>
<g id="a_edge24_Node000019_Node000015"><a xlink:title=" ">
<path fill="none" stroke="#63b8ff" d="M132.13,-132.39C155.63,-140.91 188.26,-153.59 211.72,-163.26"/>
<polygon fill="#63b8ff" stroke="#63b8ff" points="210.13,-166.39 220.71,-167.01 212.83,-159.93 210.13,-166.39"/>
</a>
</g>
</g>
<!-- Node23&#45;&gt;Node3 -->
<g id="edge30_Node000023_Node000003" class="edge">
<title>Node23&#45;&gt;Node3</title>
<g id="a_edge30_Node000023_Node000003"><a xlink:title=" ">
<path fill="none" stroke="#63b8ff" d="M723.34,-167.53C680.49,-158.42 615.58,-144.62 569.38,-134.8"/>
<polygon fill="#63b8ff" stroke="#63b8ff" points="570.35,-131.43 559.84,-132.77 568.89,-138.27 570.35,-131.43"/>
</a>
</g>
</g>
<!-- Node23&#45;&gt;Node4 -->
<g id="edge29_Node000023_Node000004" class="edge">
<title>Node23&#45;&gt;Node4</title>
<g id="a_edge29_Node000023_Node000004"><a xlink:title=" ">
<path fill="none" stroke="#63b8ff" d="M745.42,-167.51C711.59,-153.54 645.3,-127.44 586.88,-112 526.76,-96.11 457.26,-84.39 405.41,-76.9"/>
<polygon fill="#63b8ff" stroke="#63b8ff" points="406.18,-73.47 395.78,-75.53 405.19,-80.4 406.18,-73.47"/>
</a>
</g>
</g>
<!-- Node23&#45;&gt;Node10 -->
<g id="edge35_Node000023_Node000010" class="edge">
<title>Node23&#45;&gt;Node10</title>
<g id="a_edge35_Node000023_Node000010"><a xlink:title=" ">
<path fill="none" stroke="#63b8ff" d="M769.12,-167.6C772.58,-141.46 782.39,-67.48 787.18,-31.36"/>
<polygon fill="#63b8ff" stroke="#63b8ff" points="790.6,-32.17 788.44,-21.8 783.66,-31.25 790.6,-32.17"/>
</a>
</g>
</g>
<!-- Node23&#45;&gt;Node21 -->
<g id="edge37_Node000023_Node000021" class="edge">
<title>Node23&#45;&gt;Node21</title>
<g id="a_edge37_Node000023_Node000021"><a xlink:title=" ">
<path fill="none" stroke="#63b8ff" d="M763.87,-167.62C756.24,-149.76 739.47,-110.53 729.28,-86.67"/>
<polygon fill="#63b8ff" stroke="#63b8ff" points="732.61,-85.57 725.47,-77.75 726.18,-88.32 732.61,-85.57"/>
</a>
</g>
</g>
<!-- Node24 -->
<g id="Node000024" class="node">
<title>Node24</title>
<g id="a_Node000024"><a xlink:href="_service_mgr_8h.html" target="_top" xlink:title=" ">
<polygon fill="white" stroke="#666666" points="891.75,-132 818,-132 818,-112 891.75,-112 891.75,-132"/>
<text text-anchor="middle" x="854.88" y="-118.5" font-family="Helvetica,sans-Serif" font-size="10.00">ServiceMgr.h</text>
</a>
</g>
</g>
<!-- Node23&#45;&gt;Node24 -->
<g id="edge31_Node000023_Node000024" class="edge">
<title>Node23&#45;&gt;Node24</title>
<g id="a_edge31_Node000023_Node000024"><a xlink:title=" ">
<path fill="none" stroke="#63b8ff" d="M783.03,-167.59C795.92,-159.59 814.71,-147.93 829.83,-138.54"/>
<polygon fill="#63b8ff" stroke="#63b8ff" points="831.67,-141.53 838.32,-133.28 827.97,-135.58 831.67,-141.53"/>
</a>
</g>
</g>
<!-- Node25 -->
<g id="Node000025" class="node">
<title>Node25</title>
<g id="a_Node000025"><a xlink:title=" ">
<polygon fill="#e0e0e0" stroke="#999999" points="723.5,-132 672.25,-132 672.25,-112 723.5,-112 723.5,-132"/>
<text text-anchor="middle" x="697.88" y="-118.5" font-family="Helvetica,sans-Serif" font-size="10.00">memory</text>
</a>
</g>
</g>
<!-- Node23&#45;&gt;Node25 -->
<g id="edge36_Node000023_Node000025" class="edge">
<title>Node23&#45;&gt;Node25</title>
<g id="a_edge36_Node000023_Node000025"><a xlink:title=" ">
<path fill="none" stroke="#63b8ff" d="M755.68,-167.59C745.54,-159.77 730.88,-148.46 718.86,-139.19"/>
<polygon fill="#63b8ff" stroke="#63b8ff" points="721.18,-136.56 711.13,-133.22 716.91,-142.1 721.18,-136.56"/>
</a>
</g>
</g>
<!-- Node24&#45;&gt;Node4 -->
<g id="edge32_Node000024_Node000004" class="edge">
<title>Node24&#45;&gt;Node4</title>
<g id="a_edge32_Node000024_Node000004"><a xlink:title=" ">
<path fill="none" stroke="#63b8ff" d="M817.82,-117.2C732.45,-108.46 520.45,-86.73 405.3,-74.93"/>
<polygon fill="#63b8ff" stroke="#63b8ff" points="405.93,-71.48 395.63,-73.94 405.22,-78.44 405.93,-71.48"/>
</a>
</g>
</g>
<!-- Node24&#45;&gt;Node20 -->
<g id="edge33_Node000024_Node000020" class="edge">
<title>Node24&#45;&gt;Node20</title>
<g id="a_edge33_Node000024_Node000020"><a xlink:title=" ">
<path fill="none" stroke="#63b8ff" d="M866.2,-111.59C875.52,-103.85 888.95,-92.69 900.05,-83.47"/>
<polygon fill="#63b8ff" stroke="#63b8ff" points="902.06,-86.35 907.52,-77.27 897.59,-80.96 902.06,-86.35"/>
</a>
</g>
</g>
<!-- Node24&#45;&gt;Node21 -->
<g id="edge34_Node000024_Node000021" class="edge">
<title>Node24&#45;&gt;Node21</title>
<g id="a_edge34_Node000024_Node000021"><a xlink:title=" ">
<path fill="none" stroke="#63b8ff" d="M831.53,-111.59C810.34,-103.05 778.81,-90.35 754.82,-80.68"/>
<polygon fill="#63b8ff" stroke="#63b8ff" points="756.39,-77.54 745.8,-77.05 753.77,-84.03 756.39,-77.54"/>
</a>
</g>
</g>
<!-- Node27&#45;&gt;Node2 -->
<g id="edge45_Node000027_Node000002" class="edge">
<title>Node27&#45;&gt;Node2</title>
<g id="a_edge45_Node000027_Node000002"><a xlink:title=" ">
<path fill="none" stroke="#63b8ff" d="M571.84,-335.59C554.06,-327.24 527.81,-314.92 507.41,-305.34"/>
<polygon fill="#63b8ff" stroke="#63b8ff" points="508.97,-302.21 498.43,-301.12 506,-308.54 508.97,-302.21"/>
</a>
</g>
</g>
<!-- Node27&#45;&gt;Node3 -->
<g id="edge44_Node000027_Node000003" class="edge">
<title>Node27&#45;&gt;Node3</title>
<g id="a_edge44_Node000027_Node000003"><a xlink:title=" ">
<path fill="none" stroke="#63b8ff" d="M588.62,-335.74C576.98,-302.6 537.19,-189.35 520.91,-143.01"/>
<polygon fill="#63b8ff" stroke="#63b8ff" points="524.26,-142 517.64,-133.72 517.66,-144.32 524.26,-142"/>
</a>
</g>
</g>
<!-- Node27&#45;&gt;Node4 -->
<g id="edge41_Node000027_Node000004" class="edge">
<title>Node27&#45;&gt;Node4</title>
<g id="a_edge41_Node000027_Node000004"><a xlink:title=" ">
<path fill="none" stroke="#63b8ff" d="M504.66,-336.84C447.69,-326.07 379.3,-301.22 353.88,-244 329.97,-190.2 384.73,-167.42 364.88,-112 361.2,-101.73 354.05,-92.13 347.02,-84.46"/>
<polygon fill="#63b8ff" stroke="#63b8ff" points="349.62,-82.11 340.09,-77.48 344.65,-87.04 349.62,-82.11"/>
</a>
</g>
</g>
<!-- Node27&#45;&gt;Node10 -->
<g id="edge43_Node000027_Node000010" class="edge">
<title>Node27&#45;&gt;Node10</title>
<g id="a_edge43_Node000027_Node000010"><a xlink:title=" ">
<path fill="none" stroke="#63b8ff" d="M678.99,-344.43C827.99,-341.08 1115.88,-323.19 1115.88,-235 1115.88,-235 1115.88,-235 1115.88,-121 1115.88,-59.29 903.52,-25.54 821.59,-14.81"/>
<polygon fill="#63b8ff" stroke="#63b8ff" points="822.13,-11.35 811.77,-13.56 821.25,-18.3 822.13,-11.35"/>
</a>
</g>
</g>
<!-- Node27&#45;&gt;Node24 -->
<g id="edge42_Node000027_Node000024" class="edge">
<title>Node27&#45;&gt;Node24</title>
<g id="a_edge42_Node000027_Node000024"><a xlink:title=" ">
<path fill="none" stroke="#63b8ff" d="M631.51,-335.51C693.81,-318.22 812.71,-275.03 862.88,-188 870.78,-174.29 867.72,-156.26 863.29,-142.68"/>
<polygon fill="#63b8ff" stroke="#63b8ff" points="866.63,-141.62 859.81,-133.51 860.08,-144.1 866.63,-141.62"/>
</a>
</g>
</g>
<!-- Node28 -->
<g id="Node000028" class="node">
<title>Node28</title>
<g id="a_Node000028"><a xlink:href="_i_parse_handler_8h.html" target="_top" xlink:title=" ">
<polygon fill="white" stroke="#666666" points="1087.88,-244 963.88,-244 963.88,-224 1087.88,-224 1087.88,-244"/>
<text text-anchor="middle" x="1025.88" y="-230.5" font-family="Helvetica,sans-Serif" font-size="10.00">Content/IParseHandler.h</text>
</a>
</g>
</g>
<!-- Node27&#45;&gt;Node28 -->
<g id="edge46_Node000027_Node000028" class="edge">
<title>Node27&#45;&gt;Node28</title>
<g id="a_edge46_Node000027_Node000028"><a xlink:title=" ">
<path fill="none" stroke="#63b8ff" d="M679.01,-339.45C740.7,-333.76 824.76,-322.41 895.88,-300 934.58,-287.8 975.97,-265.27 1001.39,-250.21"/>
<polygon fill="#63b8ff" stroke="#63b8ff" points="1002.88,-253.4 1009.64,-245.24 999.27,-247.4 1002.88,-253.4"/>
</a>
</g>
</g>
<!-- Node28&#45;&gt;Node10 -->
<g id="edge49_Node000028_Node000010" class="edge">
<title>Node28&#45;&gt;Node10</title>
<g id="a_edge49_Node000028_Node000010"><a xlink:title=" ">
<path fill="none" stroke="#63b8ff" d="M1036.4,-223.55C1048.91,-211.11 1067.12,-188.42 1058.88,-168 1032.99,-103.88 1010.25,-91.44 950.88,-56 909.97,-31.59 855.33,-19.98 821.38,-14.79"/>
<polygon fill="#63b8ff" stroke="#63b8ff" points="822.19,-11.37 811.79,-13.43 821.2,-18.3 822.19,-11.37"/>
</a>
</g>
</g>
<!-- Node29 -->
<g id="Node000029" class="node">
<title>Node29</title>
<g id="a_Node000029"><a xlink:href="_parse_writer_8h.html" target="_top" xlink:title=" ">
<polygon fill="#fff0f0" stroke="red" points="625.5,-188 550.25,-188 550.25,-168 625.5,-168 625.5,-188"/>
<text text-anchor="middle" x="587.88" y="-174.5" font-family="Helvetica,sans-Serif" font-size="10.00">ParseWriter.h</text>
</a>
</g>
</g>
<!-- Node28&#45;&gt;Node29 -->
<g id="edge47_Node000028_Node000029" class="edge">
<title>Node28&#45;&gt;Node29</title>
<g id="a_edge47_Node000028_Node000029"><a xlink:title=" ">
<path fill="none" stroke="#63b8ff" d="M963.59,-225.32C875.68,-214.48 717.04,-194.92 636.95,-185.05"/>
<polygon fill="#63b8ff" stroke="#63b8ff" points="637.58,-181.6 627.23,-183.85 636.72,-188.55 637.58,-181.6"/>
</a>
</g>
</g>
<!-- Node31 -->
<g id="Node000031" class="node">
<title>Node31</title>
<g id="a_Node000031"><a xlink:title=" ">
<polygon fill="#e0e0e0" stroke="#999999" points="1049.5,-188 986.25,-188 986.25,-168 1049.5,-168 1049.5,-188"/>
<text text-anchor="middle" x="1017.88" y="-174.5" font-family="Helvetica,sans-Serif" font-size="10.00">json/json.h</text>
</a>
</g>
</g>
<!-- Node28&#45;&gt;Node31 -->
<g id="edge50_Node000028_Node000031" class="edge">
<title>Node28&#45;&gt;Node31</title>
<g id="a_edge50_Node000028_Node000031"><a xlink:title=" ">
<path fill="none" stroke="#63b8ff" d="M1024.48,-223.59C1023.49,-216.93 1022.13,-207.75 1020.9,-199.44"/>
<polygon fill="#63b8ff" stroke="#63b8ff" points="1024.4,-199.17 1019.47,-189.8 1017.48,-200.2 1024.4,-199.17"/>
</a>
</g>
</g>
<!-- Node29&#45;&gt;Node3 -->
<g id="edge48_Node000029_Node000003" class="edge">
<title>Node29&#45;&gt;Node3</title>
<g id="a_edge48_Node000029_Node000003"><a xlink:title=" ">
<path fill="none" stroke="#63b8ff" d="M574.99,-167.59C564.16,-159.7 548.46,-148.24 535.69,-138.92"/>
<polygon fill="#63b8ff" stroke="#63b8ff" points="537.98,-136.26 527.84,-133.19 533.85,-141.91 537.98,-136.26"/>
</a>
</g>
</g>
</g>
</svg>
