<?xml version="1.0" encoding="UTF-8" standalone="no"?>
<!DOCTYPE svg PUBLIC "-//W3C//DTD SVG 1.1//EN"
 "http://www.w3.org/Graphics/SVG/1.1/DTD/svg11.dtd">
<!-- Generated by graphviz version 12.2.1 (20241206.2353)
 -->
<!-- Title: Tests/Support/AttributeBoxPlus.cpp Pages: 1 -->
<svg width="1012pt" height="488pt"
 viewBox="0.00 0.00 1012.00 488.00" xmlns="http://www.w3.org/2000/svg" xmlns:xlink="http://www.w3.org/1999/xlink">
<g id="graph0" class="graph" transform="scale(1 1) rotate(0) translate(4 484)">
<title>Tests/Support/AttributeBoxPlus.cpp</title>
<!-- Node1 -->
<g id="Node000001" class="node">
<title>Node1</title>
<g id="a_Node000001"><a xlink:title=" ">
<polygon fill="#999999" stroke="#666666" points="924.38,-480 790.62,-480 790.62,-448 924.38,-448 924.38,-480"/>
<text text-anchor="start" x="798.62" y="-466.5" font-family="Helvetica,sans-Serif" font-size="10.00">Tests/Support/AttributeBox</text>
<text text-anchor="middle" x="857.5" y="-454.5" font-family="Helvetica,sans-Serif" font-size="10.00">Plus.cpp</text>
</a>
</g>
</g>
<!-- Node2 -->
<g id="Node000002" class="node">
<title>Node2</title>
<g id="a_Node000002"><a xlink:href="_attribute_box_plus_8h.html" target="_top" xlink:title=" ">
<polygon fill="white" stroke="#666666" points="906.38,-412 808.62,-412 808.62,-392 906.38,-392 906.38,-412"/>
<text text-anchor="middle" x="857.5" y="-398.5" font-family="Helvetica,sans-Serif" font-size="10.00">AttributeBoxPlus.h</text>
</a>
</g>
</g>
<!-- Node1&#45;&gt;Node2 -->
<g id="edge1_Node000001_Node000002" class="edge">
<title>Node1&#45;&gt;Node2</title>
<g id="a_edge1_Node000001_Node000002"><a xlink:title=" ">
<path fill="none" stroke="#63b8ff" d="M857.5,-447.55C857.5,-440.34 857.5,-431.66 857.5,-423.88"/>
<polygon fill="#63b8ff" stroke="#63b8ff" points="861,-423.92 857.5,-413.92 854,-423.92 861,-423.92"/>
</a>
</g>
</g>
<!-- Node3 -->
<g id="Node000003" class="node">
<title>Node3</title>
<g id="a_Node000003"><a xlink:href="_attribute_box_8h.html" target="_top" xlink:title=" ">
<polygon fill="white" stroke="#666666" points="829.62,-356 751.38,-356 751.38,-336 829.62,-336 829.62,-356"/>
<text text-anchor="middle" x="790.5" y="-342.5" font-family="Helvetica,sans-Serif" font-size="10.00">AttributeBox.h</text>
</a>
</g>
</g>
<!-- Node2&#45;&gt;Node3 -->
<g id="edge2_Node000002_Node000003" class="edge">
<title>Node2&#45;&gt;Node3</title>
<g id="a_edge2_Node000002_Node000003"><a xlink:title=" ">
<path fill="none" stroke="#63b8ff" d="M845.83,-391.59C836.22,-383.85 822.37,-372.69 810.93,-363.47"/>
<polygon fill="#63b8ff" stroke="#63b8ff" points="813.2,-360.8 803.22,-357.25 808.8,-366.25 813.2,-360.8"/>
</a>
</g>
</g>
<!-- Node31 -->
<g id="Node000031" class="node">
<title>Node31</title>
<g id="a_Node000031"><a xlink:title=" ">
<polygon fill="#e0e0e0" stroke="#999999" points="1004,-244 925,-244 925,-224 1004,-224 1004,-244"/>
<text text-anchor="middle" x="964.5" y="-230.5" font-family="Helvetica,sans-Serif" font-size="10.00">CppUnitTest.h</text>
</a>
</g>
</g>
<!-- Node2&#45;&gt;Node31 -->
<g id="edge50_Node000002_Node000031" class="edge">
<title>Node2&#45;&gt;Node31</title>
<g id="a_edge50_Node000002_Node000031"><a xlink:title=" ">
<path fill="none" stroke="#63b8ff" d="M868.95,-391.71C888.38,-375.3 927.72,-339.21 948.5,-300 955.84,-286.15 959.89,-268.85 962.07,-255.58"/>
<polygon fill="#63b8ff" stroke="#63b8ff" points="965.52,-256.22 963.44,-245.83 958.59,-255.25 965.52,-256.22"/>
</a>
</g>
</g>
<!-- Node4 -->
<g id="Node000004" class="node">
<title>Node4</title>
<g id="a_Node000004"><a xlink:href="_types_8h.html" target="_top" xlink:title=" ">
<polygon fill="white" stroke="#666666" points="645.62,-76 513.38,-76 513.38,-56 645.62,-56 645.62,-76"/>
<text text-anchor="middle" x="579.5" y="-62.5" font-family="Helvetica,sans-Serif" font-size="10.00">FIEAGameEngine/Types.h</text>
</a>
</g>
</g>
<!-- Node3&#45;&gt;Node4 -->
<g id="edge3_Node000003_Node000004" class="edge">
<title>Node3&#45;&gt;Node4</title>
<g id="a_edge3_Node000003_Node000004"><a xlink:title=" ">
<path fill="none" stroke="#63b8ff" d="M790.8,-335.65C791.2,-315.01 790.73,-264.19 778.5,-224 770.28,-196.99 765.9,-190.24 748.5,-168 725.62,-138.76 717.83,-131.92 686.5,-112 665.74,-98.8 640.45,-87.96 619.67,-80.23"/>
<polygon fill="#63b8ff" stroke="#63b8ff" points="620.98,-76.98 610.38,-76.88 618.6,-83.56 620.98,-76.98"/>
</a>
</g>
</g>
<!-- Node13 -->
<g id="Node000013" class="node">
<title>Node13</title>
<g id="a_Node000013"><a xlink:href="_scope_8h.html" target="_top" xlink:title=" ">
<polygon fill="white" stroke="#666666" points="399.25,-244 309.75,-244 309.75,-224 399.25,-224 399.25,-244"/>
<text text-anchor="middle" x="354.5" y="-230.5" font-family="Helvetica,sans-Serif" font-size="10.00">Content/Scope.h</text>
</a>
</g>
</g>
<!-- Node3&#45;&gt;Node13 -->
<g id="edge12_Node000003_Node000013" class="edge">
<title>Node3&#45;&gt;Node13</title>
<g id="a_edge12_Node000003_Node000013"><a xlink:title=" ">
<path fill="none" stroke="#63b8ff" d="M752.95,-335.53C673.99,-315.61 490.85,-269.4 403.09,-247.26"/>
<polygon fill="#63b8ff" stroke="#63b8ff" points="404.13,-243.91 393.58,-244.86 402.42,-250.7 404.13,-243.91"/>
</a>
</g>
</g>
<!-- Node24 -->
<g id="Node000024" class="node">
<title>Node24</title>
<g id="a_Node000024"><a xlink:href="_factory_service_8h.html" target="_top" xlink:title=" ">
<polygon fill="white" stroke="#666666" points="253.5,-188 81.5,-188 81.5,-168 253.5,-168 253.5,-188"/>
<text text-anchor="middle" x="167.5" y="-174.5" font-family="Helvetica,sans-Serif" font-size="10.00">FIEAGameEngine/FactoryService.h</text>
</a>
</g>
</g>
<!-- Node3&#45;&gt;Node24 -->
<g id="edge48_Node000003_Node000024" class="edge">
<title>Node3&#45;&gt;Node24</title>
<g id="a_edge48_Node000003_Node000024"><a xlink:title=" ">
<path fill="none" stroke="#63b8ff" d="M751.24,-344.38C648.93,-342.31 376.37,-333.68 293.5,-300 241.95,-279.05 199.57,-225.98 179.7,-197.59"/>
<polygon fill="#63b8ff" stroke="#63b8ff" points="182.79,-195.91 174.27,-189.6 177,-199.84 182.79,-195.91"/>
</a>
</g>
</g>
<!-- Node27 -->
<g id="Node000027" class="node">
<title>Node27</title>
<g id="a_Node000027"><a xlink:href="_attributed_8h.html" target="_top" xlink:title=" ">
<polygon fill="white" stroke="#666666" points="406.38,-300 302.62,-300 302.62,-280 406.38,-280 406.38,-300"/>
<text text-anchor="middle" x="354.5" y="-286.5" font-family="Helvetica,sans-Serif" font-size="10.00">Content/Attributed.h</text>
</a>
</g>
</g>
<!-- Node3&#45;&gt;Node27 -->
<g id="edge31_Node000003_Node000027" class="edge">
<title>Node3&#45;&gt;Node27</title>
<g id="a_edge31_Node000003_Node000027"><a xlink:title=" ">
<path fill="none" stroke="#63b8ff" d="M751.04,-340.11C675.35,-330.74 509.22,-310.16 417.84,-298.84"/>
<polygon fill="#63b8ff" stroke="#63b8ff" points="418.39,-295.39 408.04,-297.63 417.53,-302.33 418.39,-295.39"/>
</a>
</g>
</g>
<!-- Node29 -->
<g id="Node000029" class="node">
<title>Node29</title>
<g id="a_Node000029"><a xlink:href="_tests_8h.html" target="_top" xlink:title=" ">
<polygon fill="white" stroke="#666666" points="733.12,-300 675.88,-300 675.88,-280 733.12,-280 733.12,-300"/>
<text text-anchor="middle" x="704.5" y="-286.5" font-family="Helvetica,sans-Serif" font-size="10.00">../Tests.h</text>
</a>
</g>
</g>
<!-- Node3&#45;&gt;Node29 -->
<g id="edge36_Node000003_Node000029" class="edge">
<title>Node3&#45;&gt;Node29</title>
<g id="a_edge36_Node000003_Node000029"><a xlink:title=" ">
<path fill="none" stroke="#63b8ff" d="M775.52,-335.59C762.77,-327.59 744.21,-315.93 729.26,-306.54"/>
<polygon fill="#63b8ff" stroke="#63b8ff" points="731.21,-303.64 720.88,-301.28 727.49,-309.57 731.21,-303.64"/>
</a>
</g>
</g>
<!-- Node3&#45;&gt;Node31 -->
<g id="edge49_Node000003_Node000031" class="edge">
<title>Node3&#45;&gt;Node31</title>
<g id="a_edge49_Node000003_Node000031"><a xlink:title=" ">
<path fill="none" stroke="#63b8ff" d="M830.08,-339.36C859.05,-333.56 897.94,-322.11 925.5,-300 940.24,-288.17 950.72,-269.16 957.07,-254.75"/>
<polygon fill="#63b8ff" stroke="#63b8ff" points="960.19,-256.38 960.72,-245.8 953.7,-253.74 960.19,-256.38"/>
</a>
</g>
</g>
<!-- Node35 -->
<g id="Node000035" class="node">
<title>Node35</title>
<g id="a_Node000035"><a xlink:href="_foo_8h.html" target="_top" xlink:title=" ">
<polygon fill="white" stroke="#666666" points="916.88,-300 876.12,-300 876.12,-280 916.88,-280 916.88,-300"/>
<text text-anchor="middle" x="896.5" y="-286.5" font-family="Helvetica,sans-Serif" font-size="10.00">Foo.h</text>
</a>
</g>
</g>
<!-- Node3&#45;&gt;Node35 -->
<g id="edge44_Node000003_Node000035" class="edge">
<title>Node3&#45;&gt;Node35</title>
<g id="a_edge44_Node000003_Node000035"><a xlink:title=" ">
<path fill="none" stroke="#63b8ff" d="M808.96,-335.59C825.2,-327.32 849.11,-315.14 867.83,-305.6"/>
<polygon fill="#63b8ff" stroke="#63b8ff" points="869.22,-308.82 876.54,-301.17 866.04,-302.59 869.22,-308.82"/>
</a>
</g>
</g>
<!-- Node5 -->
<g id="Node000005" class="node">
<title>Node5</title>
<g id="a_Node000005"><a xlink:title=" ">
<polygon fill="#e0e0e0" stroke="#999999" points="801.75,-20 739.25,-20 739.25,0 801.75,0 801.75,-20"/>
<text text-anchor="middle" x="770.5" y="-6.5" font-family="Helvetica,sans-Serif" font-size="10.00">windows.h</text>
</a>
</g>
</g>
<!-- Node4&#45;&gt;Node5 -->
<g id="edge4_Node000004_Node000005" class="edge">
<title>Node4&#45;&gt;Node5</title>
<g id="a_edge4_Node000004_Node000005"><a xlink:title=" ">
<path fill="none" stroke="#63b8ff" d="M612.77,-55.59C644.79,-46.54 693.34,-32.82 728.11,-22.98"/>
<polygon fill="#63b8ff" stroke="#63b8ff" points="728.75,-26.44 737.42,-20.35 726.85,-19.7 728.75,-26.44"/>
</a>
</g>
</g>
<!-- Node6 -->
<g id="Node000006" class="node">
<title>Node6</title>
<g id="a_Node000006"><a xlink:title=" ">
<polygon fill="#e0e0e0" stroke="#999999" points="867.62,-20 819.38,-20 819.38,0 867.62,0 867.62,-20"/>
<text text-anchor="middle" x="843.5" y="-6.5" font-family="Helvetica,sans-Serif" font-size="10.00">cassert</text>
</a>
</g>
</g>
<!-- Node4&#45;&gt;Node6 -->
<g id="edge5_Node000004_Node000006" class="edge">
<title>Node4&#45;&gt;Node6</title>
<g id="a_edge5_Node000004_Node000006"><a xlink:title=" ">
<path fill="none" stroke="#63b8ff" d="M633.88,-55.58C678.37,-47.6 743.14,-35.4 808.18,-20.41"/>
<polygon fill="#63b8ff" stroke="#63b8ff" points="808.62,-23.91 817.57,-18.23 807.04,-17.09 808.62,-23.91"/>
</a>
</g>
</g>
<!-- Node7 -->
<g id="Node000007" class="node">
<title>Node7</title>
<g id="a_Node000007"><a xlink:title=" ">
<polygon fill="#e0e0e0" stroke="#999999" points="933.62,-20 885.38,-20 885.38,0 933.62,0 933.62,-20"/>
<text text-anchor="middle" x="909.5" y="-6.5" font-family="Helvetica,sans-Serif" font-size="10.00">cstddef</text>
</a>
</g>
</g>
<!-- Node4&#45;&gt;Node7 -->
<g id="edge6_Node000004_Node000007" class="edge">
<title>Node4&#45;&gt;Node7</title>
<g id="a_edge6_Node000004_Node000007"><a xlink:title=" ">
<path fill="none" stroke="#63b8ff" d="M645.95,-57.17C703.81,-49.85 790.12,-37.71 873.81,-20.37"/>
<polygon fill="#63b8ff" stroke="#63b8ff" points="874.52,-23.8 883.59,-18.31 873.08,-16.95 874.52,-23.8"/>
</a>
</g>
</g>
<!-- Node8 -->
<g id="Node000008" class="node">
<title>Node8</title>
<g id="a_Node000008"><a xlink:title=" ">
<polygon fill="#e0e0e0" stroke="#999999" points="400.12,-20 354.88,-20 354.88,0 400.12,0 400.12,-20"/>
<text text-anchor="middle" x="377.5" y="-6.5" font-family="Helvetica,sans-Serif" font-size="10.00">cstdint</text>
</a>
</g>
</g>
<!-- Node4&#45;&gt;Node8 -->
<g id="edge7_Node000004_Node000008" class="edge">
<title>Node4&#45;&gt;Node8</title>
<g id="a_edge7_Node000004_Node000008"><a xlink:title=" ">
<path fill="none" stroke="#63b8ff" d="M542.98,-55.51C510.81,-47.11 462.41,-34.37 411.47,-20.51"/>
<polygon fill="#63b8ff" stroke="#63b8ff" points="412.59,-17.19 402.02,-17.93 410.75,-23.94 412.59,-17.19"/>
</a>
</g>
</g>
<!-- Node9 -->
<g id="Node000009" class="node">
<title>Node9</title>
<g id="a_Node000009"><a xlink:title=" ">
<polygon fill="#e0e0e0" stroke="#999999" points="470.88,-20 418.12,-20 418.12,0 470.88,0 470.88,-20"/>
<text text-anchor="middle" x="444.5" y="-6.5" font-family="Helvetica,sans-Serif" font-size="10.00">cstdbool</text>
</a>
</g>
</g>
<!-- Node4&#45;&gt;Node9 -->
<g id="edge8_Node000004_Node000009" class="edge">
<title>Node4&#45;&gt;Node9</title>
<g id="a_edge8_Node000004_Node000009"><a xlink:title=" ">
<path fill="none" stroke="#63b8ff" d="M555.98,-55.59C534.63,-47.05 502.87,-34.35 478.7,-24.68"/>
<polygon fill="#63b8ff" stroke="#63b8ff" points="480.19,-21.51 469.6,-21.04 477.59,-28.01 480.19,-21.51"/>
</a>
</g>
</g>
<!-- Node10 -->
<g id="Node000010" class="node">
<title>Node10</title>
<g id="a_Node000010"><a xlink:title=" ">
<polygon fill="#e0e0e0" stroke="#999999" points="336.5,-20 296.5,-20 296.5,0 336.5,0 336.5,-20"/>
<text text-anchor="middle" x="316.5" y="-6.5" font-family="Helvetica,sans-Serif" font-size="10.00">string</text>
</a>
</g>
</g>
<!-- Node4&#45;&gt;Node10 -->
<g id="edge9_Node000004_Node000010" class="edge">
<title>Node4&#45;&gt;Node10</title>
<g id="a_edge9_Node000004_Node000010"><a xlink:title=" ">
<path fill="none" stroke="#63b8ff" d="M520.44,-55.51C475.49,-47.86 411.91,-36.15 347.82,-20.36"/>
<polygon fill="#63b8ff" stroke="#63b8ff" points="348.72,-16.98 338.17,-17.95 347.02,-23.77 348.72,-16.98"/>
</a>
</g>
</g>
<!-- Node11 -->
<g id="Node000011" class="node">
<title>Node11</title>
<g id="a_Node000011"><a xlink:title=" ">
<polygon fill="#e0e0e0" stroke="#999999" points="543.62,-20 489.38,-20 489.38,0 543.62,0 543.62,-20"/>
<text text-anchor="middle" x="516.5" y="-6.5" font-family="Helvetica,sans-Serif" font-size="10.00">crtdefs.h</text>
</a>
</g>
</g>
<!-- Node4&#45;&gt;Node11 -->
<g id="edge10_Node000004_Node000011" class="edge">
<title>Node4&#45;&gt;Node11</title>
<g id="a_edge10_Node000004_Node000011"><a xlink:title=" ">
<path fill="none" stroke="#63b8ff" d="M568.53,-55.59C559.58,-47.93 546.73,-36.91 536.04,-27.75"/>
<polygon fill="#63b8ff" stroke="#63b8ff" points="538.37,-25.13 528.5,-21.28 533.81,-30.45 538.37,-25.13"/>
</a>
</g>
</g>
<!-- Node12 -->
<g id="Node000012" class="node">
<title>Node12</title>
<g id="a_Node000012"><a xlink:title=" ">
<polygon fill="#e0e0e0" stroke="#999999" points="721.5,-20 561.5,-20 561.5,0 721.5,0 721.5,-20"/>
<text text-anchor="middle" x="641.5" y="-6.5" font-family="Helvetica,sans-Serif" font-size="10.00">../src/memory/SystemAllocator.h</text>
</a>
</g>
</g>
<!-- Node4&#45;&gt;Node12 -->
<g id="edge11_Node000004_Node000012" class="edge">
<title>Node4&#45;&gt;Node12</title>
<g id="a_edge11_Node000004_Node000012"><a xlink:title=" ">
<path fill="none" stroke="#63b8ff" d="M590.3,-55.59C599.1,-47.93 611.75,-36.91 622.27,-27.75"/>
<polygon fill="#63b8ff" stroke="#63b8ff" points="624.44,-30.5 629.68,-21.29 619.84,-25.22 624.44,-30.5"/>
</a>
</g>
</g>
<!-- Node14 -->
<g id="Node000014" class="node">
<title>Node14</title>
<g id="a_Node000014"><a xlink:href="_r_t_t_i_8h.html" target="_top" xlink:title=" ">
<polygon fill="#fff0f0" stroke="red" points="545.38,-132 417.62,-132 417.62,-112 545.38,-112 545.38,-132"/>
<text text-anchor="middle" x="481.5" y="-118.5" font-family="Helvetica,sans-Serif" font-size="10.00">FIEAGameEngine/RTTI.h</text>
</a>
</g>
</g>
<!-- Node13&#45;&gt;Node14 -->
<g id="edge13_Node000013_Node000014" class="edge">
<title>Node13&#45;&gt;Node14</title>
<g id="a_edge13_Node000013_Node000014"><a xlink:title=" ">
<path fill="none" stroke="#63b8ff" d="M372.12,-223.52C386.87,-215.16 408.08,-202.14 424.5,-188 440.97,-173.81 457.05,-154.87 467.91,-141.1"/>
<polygon fill="#63b8ff" stroke="#63b8ff" points="470.57,-143.38 473.9,-133.32 465.02,-139.11 470.57,-143.38"/>
</a>
</g>
</g>
<!-- Node16 -->
<g id="Node000016" class="node">
<title>Node16</title>
<g id="a_Node000016"><a xlink:href="_datum_8h.html" target="_top" xlink:title=" ">
<polygon fill="#fff0f0" stroke="red" points="363.25,-188 309.75,-188 309.75,-168 363.25,-168 363.25,-188"/>
<text text-anchor="middle" x="336.5" y="-174.5" font-family="Helvetica,sans-Serif" font-size="10.00">Datum.h</text>
</a>
</g>
</g>
<!-- Node13&#45;&gt;Node16 -->
<g id="edge15_Node000013_Node000016" class="edge">
<title>Node13&#45;&gt;Node16</title>
<g id="a_edge15_Node000013_Node000016"><a xlink:title=" ">
<path fill="none" stroke="#63b8ff" d="M351.36,-223.59C349.12,-216.86 346.01,-207.53 343.22,-199.15"/>
<polygon fill="#63b8ff" stroke="#63b8ff" points="346.56,-198.11 340.08,-189.73 339.92,-200.33 346.56,-198.11"/>
</a>
</g>
</g>
<!-- Node21 -->
<g id="Node000021" class="node">
<title>Node21</title>
<g id="a_Node000021"><a xlink:title=" ">
<polygon fill="#e0e0e0" stroke="#999999" points="43,-76 0,-76 0,-56 43,-56 43,-76"/>
<text text-anchor="middle" x="21.5" y="-62.5" font-family="Helvetica,sans-Serif" font-size="10.00">vector</text>
</a>
</g>
</g>
<!-- Node13&#45;&gt;Node21 -->
<g id="edge18_Node000013_Node000021" class="edge">
<title>Node13&#45;&gt;Node21</title>
<g id="a_edge18_Node000013_Node000021"><a xlink:title=" ">
<path fill="none" stroke="#63b8ff" d="M309.42,-225.46C306.4,-224.96 303.41,-224.47 300.5,-224 199.24,-207.57 156.93,-246.27 72.5,-188 39.15,-164.98 27.52,-115.58 23.53,-87.54"/>
<polygon fill="#63b8ff" stroke="#63b8ff" points="27.03,-87.35 22.37,-77.84 20.08,-88.18 27.03,-87.35"/>
</a>
</g>
</g>
<!-- Node22 -->
<g id="Node000022" class="node">
<title>Node22</title>
<g id="a_Node000022"><a xlink:title=" ">
<polygon fill="#e0e0e0" stroke="#999999" points="231.88,-76 149.12,-76 149.12,-56 231.88,-56 231.88,-76"/>
<text text-anchor="middle" x="190.5" y="-62.5" font-family="Helvetica,sans-Serif" font-size="10.00">unordered_map</text>
</a>
</g>
</g>
<!-- Node13&#45;&gt;Node22 -->
<g id="edge19_Node000013_Node000022" class="edge">
<title>Node13&#45;&gt;Node22</title>
<g id="a_edge19_Node000013_Node000022"><a xlink:title=" ">
<path fill="none" stroke="#63b8ff" d="M341.86,-223.67C330.49,-215.01 313.61,-201.46 300.5,-188 270.47,-157.17 269.93,-143.4 240.5,-112 231.27,-102.16 220.2,-92.04 210.81,-83.89"/>
<polygon fill="#63b8ff" stroke="#63b8ff" points="213.16,-81.3 203.28,-77.47 208.62,-86.62 213.16,-81.3"/>
</a>
</g>
</g>
<!-- Node23 -->
<g id="Node000023" class="node">
<title>Node23</title>
<g id="a_Node000023"><a xlink:title=" ">
<polygon fill="#e0e0e0" stroke="#999999" points="415.88,-188 381.12,-188 381.12,-168 415.88,-168 415.88,-188"/>
<text text-anchor="middle" x="398.5" y="-174.5" font-family="Helvetica,sans-Serif" font-size="10.00">map</text>
</a>
</g>
</g>
<!-- Node13&#45;&gt;Node23 -->
<g id="edge20_Node000013_Node000023" class="edge">
<title>Node13&#45;&gt;Node23</title>
<g id="a_edge20_Node000013_Node000023"><a xlink:title=" ">
<path fill="none" stroke="#63b8ff" d="M362.16,-223.59C368.09,-216.32 376.49,-206.02 383.71,-197.15"/>
<polygon fill="#63b8ff" stroke="#63b8ff" points="386.36,-199.43 389.97,-189.47 380.94,-195.01 386.36,-199.43"/>
</a>
</g>
</g>
<!-- Node13&#45;&gt;Node24 -->
<g id="edge21_Node000013_Node000024" class="edge">
<title>Node13&#45;&gt;Node24</title>
<g id="a_edge21_Node000013_Node000024"><a xlink:title=" ">
<path fill="none" stroke="#63b8ff" d="M321.93,-223.59C291.28,-214.74 245.16,-201.43 211.3,-191.65"/>
<polygon fill="#63b8ff" stroke="#63b8ff" points="212.36,-188.31 201.78,-188.9 210.42,-195.04 212.36,-188.31"/>
</a>
</g>
</g>
<!-- Node14&#45;&gt;Node4 -->
<g id="edge14_Node000014_Node000004" class="edge">
<title>Node14&#45;&gt;Node4</title>
<g id="a_edge14_Node000014_Node000004"><a xlink:title=" ">
<path fill="none" stroke="#63b8ff" d="M498.57,-111.59C513.38,-103.44 535.07,-91.48 552.27,-82"/>
<polygon fill="#63b8ff" stroke="#63b8ff" points="553.9,-85.1 560.97,-77.21 550.52,-78.97 553.9,-85.1"/>
</a>
</g>
</g>
<!-- Node16&#45;&gt;Node10 -->
<g id="edge16_Node000016_Node000010" class="edge">
<title>Node16&#45;&gt;Node10</title>
<g id="a_edge16_Node000016_Node000010"><a xlink:title=" ">
<path fill="none" stroke="#63b8ff" d="M335.37,-167.6C332.22,-141.46 323.31,-67.48 318.95,-31.36"/>
<polygon fill="#63b8ff" stroke="#63b8ff" points="322.47,-31.31 317.8,-21.8 315.52,-32.15 322.47,-31.31"/>
</a>
</g>
</g>
<!-- Node16&#45;&gt;Node14 -->
<g id="edge17_Node000016_Node000014" class="edge">
<title>Node16&#45;&gt;Node14</title>
<g id="a_edge17_Node000016_Node000014"><a xlink:title=" ">
<path fill="none" stroke="#63b8ff" d="M361.76,-167.59C384.9,-158.97 419.42,-146.12 445.46,-136.42"/>
<polygon fill="#63b8ff" stroke="#63b8ff" points="446.48,-139.78 454.63,-133.01 444.03,-133.22 446.48,-139.78"/>
</a>
</g>
</g>
<!-- Node24&#45;&gt;Node4 -->
<g id="edge22_Node000024_Node000004" class="edge">
<title>Node24&#45;&gt;Node4</title>
<g id="a_edge22_Node000024_Node000004"><a xlink:title=" ">
<path fill="none" stroke="#63b8ff" d="M202.2,-167.57C249.02,-154.86 335.01,-131.58 408.5,-112 450.34,-100.85 497.99,-88.33 532.34,-79.33"/>
<polygon fill="#63b8ff" stroke="#63b8ff" points="533.2,-82.72 541.99,-76.8 531.43,-75.95 533.2,-82.72"/>
</a>
</g>
</g>
<!-- Node24&#45;&gt;Node10 -->
<g id="edge28_Node000024_Node000010" class="edge">
<title>Node24&#45;&gt;Node10</title>
<g id="a_edge28_Node000024_Node000010"><a xlink:title=" ">
<path fill="none" stroke="#63b8ff" d="M188.13,-167.53C203.79,-159.62 225.17,-147.2 240.5,-132 271.2,-101.55 295.33,-56.47 307.6,-30.8"/>
<polygon fill="#63b8ff" stroke="#63b8ff" points="310.71,-32.41 311.75,-21.87 304.36,-29.46 310.71,-32.41"/>
</a>
</g>
</g>
<!-- Node24&#45;&gt;Node14 -->
<g id="edge23_Node000024_Node000014" class="edge">
<title>Node24&#45;&gt;Node14</title>
<g id="a_edge23_Node000024_Node000014"><a xlink:title=" ">
<path fill="none" stroke="#63b8ff" d="M222.55,-167.53C276.31,-158.29 358.16,-144.21 415.4,-134.37"/>
<polygon fill="#63b8ff" stroke="#63b8ff" points="415.76,-137.86 425.02,-132.71 414.57,-130.96 415.76,-137.86"/>
</a>
</g>
</g>
<!-- Node24&#45;&gt;Node22 -->
<g id="edge30_Node000024_Node000022" class="edge">
<title>Node24&#45;&gt;Node22</title>
<g id="a_edge30_Node000024_Node000022"><a xlink:title=" ">
<path fill="none" stroke="#63b8ff" d="M160.87,-167.56C152.74,-154.75 140.91,-131.25 148.5,-112 152.76,-101.19 160.97,-91.45 169.01,-83.82"/>
<polygon fill="#63b8ff" stroke="#63b8ff" points="171.12,-86.63 176.34,-77.41 166.51,-81.36 171.12,-86.63"/>
</a>
</g>
</g>
<!-- Node25 -->
<g id="Node000025" class="node">
<title>Node25</title>
<g id="a_Node000025"><a xlink:href="_service_mgr_8h.html" target="_top" xlink:title=" ">
<polygon fill="white" stroke="#666666" points="231.38,-132 157.62,-132 157.62,-112 231.38,-112 231.38,-132"/>
<text text-anchor="middle" x="194.5" y="-118.5" font-family="Helvetica,sans-Serif" font-size="10.00">ServiceMgr.h</text>
</a>
</g>
</g>
<!-- Node24&#45;&gt;Node25 -->
<g id="edge24_Node000024_Node000025" class="edge">
<title>Node24&#45;&gt;Node25</title>
<g id="a_edge24_Node000024_Node000025"><a xlink:title=" ">
<path fill="none" stroke="#63b8ff" d="M172.2,-167.59C175.65,-160.7 180.45,-151.1 184.71,-142.57"/>
<polygon fill="#63b8ff" stroke="#63b8ff" points="187.83,-144.16 189.17,-133.65 181.57,-141.03 187.83,-144.16"/>
</a>
</g>
</g>
<!-- Node26 -->
<g id="Node000026" class="node">
<title>Node26</title>
<g id="a_Node000026"><a xlink:title=" ">
<polygon fill="#e0e0e0" stroke="#999999" points="101.12,-132 49.88,-132 49.88,-112 101.12,-112 101.12,-132"/>
<text text-anchor="middle" x="75.5" y="-118.5" font-family="Helvetica,sans-Serif" font-size="10.00">memory</text>
</a>
</g>
</g>
<!-- Node24&#45;&gt;Node26 -->
<g id="edge29_Node000024_Node000026" class="edge">
<title>Node24&#45;&gt;Node26</title>
<g id="a_edge29_Node000024_Node000026"><a xlink:title=" ">
<path fill="none" stroke="#63b8ff" d="M151.47,-167.59C137.71,-159.51 117.6,-147.71 101.52,-138.27"/>
<polygon fill="#63b8ff" stroke="#63b8ff" points="103.35,-135.29 92.96,-133.25 99.81,-141.33 103.35,-135.29"/>
</a>
</g>
</g>
<!-- Node25&#45;&gt;Node4 -->
<g id="edge25_Node000025_Node000004" class="edge">
<title>Node25&#45;&gt;Node4</title>
<g id="a_edge25_Node000025_Node000004"><a xlink:title=" ">
<path fill="none" stroke="#63b8ff" d="M231.77,-115.77C293.86,-107.06 419.75,-89.41 501.8,-77.9"/>
<polygon fill="#63b8ff" stroke="#63b8ff" points="502.16,-81.38 511.58,-76.53 501.19,-74.45 502.16,-81.38"/>
</a>
</g>
</g>
<!-- Node25&#45;&gt;Node21 -->
<g id="edge26_Node000025_Node000021" class="edge">
<title>Node25&#45;&gt;Node21</title>
<g id="a_edge26_Node000025_Node000021"><a xlink:title=" ">
<path fill="none" stroke="#63b8ff" d="M164.37,-111.59C133.59,-101.99 85.94,-87.11 54.24,-77.22"/>
<polygon fill="#63b8ff" stroke="#63b8ff" points="55.38,-73.91 44.8,-74.27 53.3,-80.59 55.38,-73.91"/>
</a>
</g>
</g>
<!-- Node25&#45;&gt;Node22 -->
<g id="edge27_Node000025_Node000022" class="edge">
<title>Node25&#45;&gt;Node22</title>
<g id="a_edge27_Node000025_Node000022"><a xlink:title=" ">
<path fill="none" stroke="#63b8ff" d="M193.8,-111.59C193.32,-105.01 192.65,-95.96 192.04,-87.73"/>
<polygon fill="#63b8ff" stroke="#63b8ff" points="195.53,-87.52 191.3,-77.81 188.55,-88.04 195.53,-87.52"/>
</a>
</g>
</g>
<!-- Node27&#45;&gt;Node13 -->
<g id="edge33_Node000027_Node000013" class="edge">
<title>Node27&#45;&gt;Node13</title>
<g id="a_edge33_Node000027_Node000013"><a xlink:title=" ">
<path fill="none" stroke="#63b8ff" d="M354.5,-279.59C354.5,-273.01 354.5,-263.96 354.5,-255.73"/>
<polygon fill="#63b8ff" stroke="#63b8ff" points="358,-255.81 354.5,-245.81 351,-255.81 358,-255.81"/>
</a>
</g>
</g>
<!-- Node27&#45;&gt;Node14 -->
<g id="edge32_Node000027_Node000014" class="edge">
<title>Node27&#45;&gt;Node14</title>
<g id="a_edge32_Node000027_Node000014"><a xlink:title=" ">
<path fill="none" stroke="#63b8ff" d="M367.3,-279.82C378.77,-271.26 395.72,-257.77 408.5,-244 437.59,-212.66 460.91,-167.9 472.83,-142.53"/>
<polygon fill="#63b8ff" stroke="#63b8ff" points="475.88,-144.28 476.86,-133.73 469.51,-141.36 475.88,-144.28"/>
</a>
</g>
</g>
<!-- Node27&#45;&gt;Node21 -->
<g id="edge34_Node000027_Node000021" class="edge">
<title>Node27&#45;&gt;Node21</title>
<g id="a_edge34_Node000027_Node000021"><a xlink:title=" ">
<path fill="none" stroke="#63b8ff" d="M302.25,-284.52C235.85,-276.24 121.27,-252.92 49.5,-188 21.34,-162.53 18.67,-114.84 19.75,-87.55"/>
<polygon fill="#63b8ff" stroke="#63b8ff" points="23.23,-88.01 20.36,-77.81 16.24,-87.57 23.23,-88.01"/>
</a>
</g>
</g>
<!-- Node28 -->
<g id="Node000028" class="node">
<title>Node28</title>
<g id="a_Node000028"><a xlink:title=" ">
<polygon fill="#e0e0e0" stroke="#999999" points="291.5,-244 233.5,-244 233.5,-224 291.5,-224 291.5,-244"/>
<text text-anchor="middle" x="262.5" y="-230.5" font-family="Helvetica,sans-Serif" font-size="10.00">functional</text>
</a>
</g>
</g>
<!-- Node27&#45;&gt;Node28 -->
<g id="edge35_Node000027_Node000028" class="edge">
<title>Node27&#45;&gt;Node28</title>
<g id="a_edge35_Node000027_Node000028"><a xlink:title=" ">
<path fill="none" stroke="#63b8ff" d="M338.47,-279.59C324.71,-271.51 304.6,-259.71 288.52,-250.27"/>
<polygon fill="#63b8ff" stroke="#63b8ff" points="290.35,-247.29 279.96,-245.25 286.81,-253.33 290.35,-247.29"/>
</a>
</g>
</g>
<!-- Node29&#45;&gt;Node4 -->
<g id="edge39_Node000029_Node000004" class="edge">
<title>Node29&#45;&gt;Node4</title>
<g id="a_edge39_Node000029_Node000004"><a xlink:title=" ">
<path fill="none" stroke="#63b8ff" d="M724.05,-279.68C745.12,-268.22 774.29,-247.39 763.5,-224 731.57,-154.78 652.4,-104.78 609.04,-81.55"/>
<polygon fill="#63b8ff" stroke="#63b8ff" points="610.92,-78.59 600.44,-77.06 607.68,-84.79 610.92,-78.59"/>
</a>
</g>
</g>
<!-- Node29&#45;&gt;Node14 -->
<g id="edge43_Node000029_Node000014" class="edge">
<title>Node29&#45;&gt;Node14</title>
<g id="a_edge43_Node000029_Node000014"><a xlink:title=" ">
<path fill="none" stroke="#63b8ff" d="M675.4,-285.37C629.41,-279.07 542.83,-264.78 520.5,-244 492.18,-217.65 484.36,-170.67 482.24,-143.66"/>
<polygon fill="#63b8ff" stroke="#63b8ff" points="485.75,-143.78 481.69,-134 478.77,-144.18 485.75,-143.78"/>
</a>
</g>
</g>
<!-- Node30 -->
<g id="Node000030" class="node">
<title>Node30</title>
<g id="a_Node000030"><a xlink:title=" ">
<polygon fill="#e0e0e0" stroke="#999999" points="577.62,-244 529.38,-244 529.38,-224 577.62,-224 577.62,-244"/>
<text text-anchor="middle" x="553.5" y="-230.5" font-family="Helvetica,sans-Serif" font-size="10.00">excpt.h</text>
</a>
</g>
</g>
<!-- Node29&#45;&gt;Node30 -->
<g id="edge37_Node000029_Node000030" class="edge">
<title>Node29&#45;&gt;Node30</title>
<g id="a_edge37_Node000029_Node000030"><a xlink:title=" ">
<path fill="none" stroke="#63b8ff" d="M678.2,-279.59C653.39,-270.72 616.04,-257.37 588.68,-247.58"/>
<polygon fill="#63b8ff" stroke="#63b8ff" points="590.02,-244.34 579.43,-244.27 587.66,-250.93 590.02,-244.34"/>
</a>
</g>
</g>
<!-- Node29&#45;&gt;Node31 -->
<g id="edge38_Node000029_Node000031" class="edge">
<title>Node29&#45;&gt;Node31</title>
<g id="a_edge38_Node000029_Node000031"><a xlink:title=" ">
<path fill="none" stroke="#63b8ff" d="M733.57,-282.96C777.12,-273.92 859.9,-256.73 913.61,-245.57"/>
<polygon fill="#63b8ff" stroke="#63b8ff" points="914.04,-249.05 923.12,-243.59 912.62,-242.2 914.04,-249.05"/>
</a>
</g>
</g>
<!-- Node32 -->
<g id="Node000032" class="node">
<title>Node32</title>
<g id="a_Node000032"><a xlink:title=" ">
<polygon fill="#e0e0e0" stroke="#999999" points="643.62,-244 595.38,-244 595.38,-224 643.62,-224 643.62,-244"/>
<text text-anchor="middle" x="619.5" y="-230.5" font-family="Helvetica,sans-Serif" font-size="10.00">string.h</text>
</a>
</g>
</g>
<!-- Node29&#45;&gt;Node32 -->
<g id="edge40_Node000029_Node000032" class="edge">
<title>Node29&#45;&gt;Node32</title>
<g id="a_edge40_Node000029_Node000032"><a xlink:title=" ">
<path fill="none" stroke="#63b8ff" d="M689.69,-279.59C677.1,-271.59 658.75,-259.93 643.97,-250.54"/>
<polygon fill="#63b8ff" stroke="#63b8ff" points="646.02,-247.7 635.7,-245.29 642.26,-253.61 646.02,-247.7"/>
</a>
</g>
</g>
<!-- Node33 -->
<g id="Node000033" class="node">
<title>Node33</title>
<g id="a_Node000033"><a xlink:title=" ">
<polygon fill="#e0e0e0" stroke="#999999" points="690.9,-244 662.1,-244 662.1,-224 690.9,-224 690.9,-244"/>
<text text-anchor="middle" x="676.5" y="-230.5" font-family="Helvetica,sans-Serif" font-size="10.00">list</text>
</a>
</g>
</g>
<!-- Node29&#45;&gt;Node33 -->
<g id="edge41_Node000029_Node000033" class="edge">
<title>Node29&#45;&gt;Node33</title>
<g id="a_edge41_Node000029_Node000033"><a xlink:title=" ">
<path fill="none" stroke="#63b8ff" d="M699.62,-279.59C696.01,-272.63 690.96,-262.89 686.5,-254.29"/>
<polygon fill="#63b8ff" stroke="#63b8ff" points="689.73,-252.91 682.02,-245.64 683.51,-256.13 689.73,-252.91"/>
</a>
</g>
</g>
<!-- Node34 -->
<g id="Node000034" class="node">
<title>Node34</title>
<g id="a_Node000034"><a xlink:title=" ">
<polygon fill="#e0e0e0" stroke="#999999" points="754.5,-244 708.5,-244 708.5,-224 754.5,-224 754.5,-244"/>
<text text-anchor="middle" x="731.5" y="-230.5" font-family="Helvetica,sans-Serif" font-size="10.00">iterator</text>
</a>
</g>
</g>
<!-- Node29&#45;&gt;Node34 -->
<g id="edge42_Node000029_Node000034" class="edge">
<title>Node29&#45;&gt;Node34</title>
<g id="a_edge42_Node000029_Node000034"><a xlink:title=" ">
<path fill="none" stroke="#63b8ff" d="M709.2,-279.59C712.65,-272.7 717.45,-263.1 721.71,-254.57"/>
<polygon fill="#63b8ff" stroke="#63b8ff" points="724.83,-256.16 726.17,-245.65 718.57,-253.03 724.83,-256.16"/>
</a>
</g>
</g>
<!-- Node35&#45;&gt;Node4 -->
<g id="edge45_Node000035_Node000004" class="edge">
<title>Node35&#45;&gt;Node4</title>
<g id="a_edge45_Node000035_Node000004"><a xlink:title=" ">
<path fill="none" stroke="#63b8ff" d="M898.61,-279.68C904.67,-250.36 918.79,-159.12 872.5,-112 843.28,-82.26 733.67,-72.14 657.14,-68.72"/>
<polygon fill="#63b8ff" stroke="#63b8ff" points="657.75,-65.24 647.61,-68.32 657.46,-72.23 657.75,-65.24"/>
</a>
</g>
</g>
<!-- Node35&#45;&gt;Node14 -->
<g id="edge46_Node000035_Node000014" class="edge">
<title>Node35&#45;&gt;Node14</title>
<g id="a_edge46_Node000035_Node000014"><a xlink:title=" ">
<path fill="none" stroke="#63b8ff" d="M878.72,-279.53C853.48,-266.26 805.65,-241.78 763.5,-224 679,-188.35 577.1,-153.89 521.87,-135.89"/>
<polygon fill="#63b8ff" stroke="#63b8ff" points="523.17,-132.64 512.58,-132.88 521.01,-139.3 523.17,-132.64"/>
</a>
</g>
</g>
<!-- Node35&#45;&gt;Node31 -->
<g id="edge47_Node000035_Node000031" class="edge">
<title>Node35&#45;&gt;Node31</title>
<g id="a_edge47_Node000035_Node000031"><a xlink:title=" ">
<path fill="none" stroke="#63b8ff" d="M908.34,-279.59C918.19,-271.77 932.43,-260.46 944.11,-251.19"/>
<polygon fill="#63b8ff" stroke="#63b8ff" points="945.95,-254.2 951.61,-245.24 941.6,-248.72 945.95,-254.2"/>
</a>
</g>
</g>
</g>
</svg>
