<?xml version="1.0" encoding="UTF-8" standalone="no"?>
<!DOCTYPE svg PUBLIC "-//W3C//DTD SVG 1.1//EN"
 "http://www.w3.org/Graphics/SVG/1.1/DTD/svg11.dtd">
<!-- Generated by graphviz version 12.2.1 (20241206.2353)
 -->
<!-- Title: Tests/Support/AttributeBox.h Pages: 1 -->
<svg width="1093pt" height="364pt"
 viewBox="0.00 0.00 1092.75 364.00" xmlns="http://www.w3.org/2000/svg" xmlns:xlink="http://www.w3.org/1999/xlink">
<g id="graph0" class="graph" transform="scale(1 1) rotate(0) translate(4 360)">
<title>Tests/Support/AttributeBox.h</title>
<!-- Node1 -->
<g id="Node000001" class="node">
<title>Node1</title>
<g id="a_Node000001"><a xlink:title=" ">
<polygon fill="#999999" stroke="#666666" points="728.62,-356 586.62,-356 586.62,-336 728.62,-336 728.62,-356"/>
<text text-anchor="middle" x="657.62" y="-342.5" font-family="Helvetica,sans-Serif" font-size="10.00">Tests/Support/AttributeBox.h</text>
</a>
</g>
</g>
<!-- Node2 -->
<g id="Node000002" class="node">
<title>Node2</title>
<g id="a_Node000002"><a xlink:href="_types_8h.html" target="_top" xlink:title=" ">
<polygon fill="white" stroke="#666666" points="742.75,-76 610.5,-76 610.5,-56 742.75,-56 742.75,-76"/>
<text text-anchor="middle" x="676.62" y="-62.5" font-family="Helvetica,sans-Serif" font-size="10.00">FIEAGameEngine/Types.h</text>
</a>
</g>
</g>
<!-- Node1&#45;&gt;Node2 -->
<g id="edge1_Node000001_Node000002" class="edge">
<title>Node1&#45;&gt;Node2</title>
<g id="a_edge1_Node000001_Node000002"><a xlink:title=" ">
<path fill="none" stroke="#63b8ff" d="M657.62,-335.58C657.62,-316.57 657.62,-272.24 657.62,-235 657.62,-235 657.62,-235 657.62,-177 657.62,-145.26 665.4,-109.11 671,-87.19"/>
<polygon fill="#63b8ff" stroke="#63b8ff" points="674.32,-88.35 673.51,-77.79 667.55,-86.54 674.32,-88.35"/>
</a>
</g>
</g>
<!-- Node11 -->
<g id="Node000011" class="node">
<title>Node11</title>
<g id="a_Node000011"><a xlink:href="_scope_8h.html" target="_top" xlink:title=" ">
<polygon fill="white" stroke="#666666" points="347.38,-244 257.88,-244 257.88,-224 347.38,-224 347.38,-244"/>
<text text-anchor="middle" x="302.62" y="-230.5" font-family="Helvetica,sans-Serif" font-size="10.00">Content/Scope.h</text>
</a>
</g>
</g>
<!-- Node1&#45;&gt;Node11 -->
<g id="edge10_Node000001_Node000011" class="edge">
<title>Node1&#45;&gt;Node11</title>
<g id="a_edge10_Node000001_Node000011"><a xlink:title=" ">
<path fill="none" stroke="#63b8ff" d="M586.26,-340.26C533.7,-334.92 461.3,-323.66 401.62,-300 371.84,-288.19 341.63,-266.67 322.55,-251.64"/>
<polygon fill="#63b8ff" stroke="#63b8ff" points="324.81,-248.97 314.83,-245.41 320.41,-254.41 324.81,-248.97"/>
</a>
</g>
</g>
<!-- Node22 -->
<g id="Node000022" class="node">
<title>Node22</title>
<g id="a_Node000022"><a xlink:href="_factory_service_8h.html" target="_top" xlink:title=" ">
<polygon fill="white" stroke="#666666" points="203.62,-188 31.62,-188 31.62,-168 203.62,-168 203.62,-188"/>
<text text-anchor="middle" x="117.62" y="-174.5" font-family="Helvetica,sans-Serif" font-size="10.00">FIEAGameEngine/FactoryService.h</text>
</a>
</g>
</g>
<!-- Node1&#45;&gt;Node22 -->
<g id="edge49_Node000001_Node000022" class="edge">
<title>Node1&#45;&gt;Node22</title>
<g id="a_edge49_Node000001_Node000022"><a xlink:title=" ">
<path fill="none" stroke="#63b8ff" d="M586.31,-340.45C525.25,-335.09 435.59,-323.7 360.62,-300 276.12,-273.28 184.63,-220.52 142.03,-194.4"/>
<polygon fill="#63b8ff" stroke="#63b8ff" points="143.91,-191.45 133.57,-189.16 140.23,-197.4 143.91,-191.45"/>
</a>
</g>
</g>
<!-- Node25 -->
<g id="Node000025" class="node">
<title>Node25</title>
<g id="a_Node000025"><a xlink:href="_attributed_8h.html" target="_top" xlink:title=" ">
<polygon fill="white" stroke="#666666" points="514.5,-300 410.75,-300 410.75,-280 514.5,-280 514.5,-300"/>
<text text-anchor="middle" x="462.62" y="-286.5" font-family="Helvetica,sans-Serif" font-size="10.00">Content/Attributed.h</text>
</a>
</g>
</g>
<!-- Node1&#45;&gt;Node25 -->
<g id="edge32_Node000001_Node000025" class="edge">
<title>Node1&#45;&gt;Node25</title>
<g id="a_edge32_Node000001_Node000025"><a xlink:title=" ">
<path fill="none" stroke="#63b8ff" d="M623.66,-335.59C591.56,-326.71 543.19,-313.31 507.84,-303.52"/>
<polygon fill="#63b8ff" stroke="#63b8ff" points="508.89,-300.18 498.32,-300.88 507.02,-306.93 508.89,-300.18"/>
</a>
</g>
</g>
<!-- Node27 -->
<g id="Node000027" class="node">
<title>Node27</title>
<g id="a_Node000027"><a xlink:href="_tests_8h.html" target="_top" xlink:title=" ">
<polygon fill="white" stroke="#666666" points="886.25,-188 829,-188 829,-168 886.25,-168 886.25,-188"/>
<text text-anchor="middle" x="857.62" y="-174.5" font-family="Helvetica,sans-Serif" font-size="10.00">../Tests.h</text>
</a>
</g>
</g>
<!-- Node1&#45;&gt;Node27 -->
<g id="edge37_Node000001_Node000027" class="edge">
<title>Node1&#45;&gt;Node27</title>
<g id="a_edge37_Node000001_Node000027"><a xlink:title=" ">
<path fill="none" stroke="#63b8ff" d="M697.85,-335.54C721.39,-328.55 750.7,-317.21 772.62,-300 808.33,-271.96 835.26,-224.93 848.51,-198.51"/>
<polygon fill="#63b8ff" stroke="#63b8ff" points="851.6,-200.16 852.81,-189.63 845.3,-197.11 851.6,-200.16"/>
</a>
</g>
</g>
<!-- Node29 -->
<g id="Node000029" class="node">
<title>Node29</title>
<g id="a_Node000029"><a xlink:title=" ">
<polygon fill="#e0e0e0" stroke="#999999" points="803.12,-132 724.12,-132 724.12,-112 803.12,-112 803.12,-132"/>
<text text-anchor="middle" x="763.62" y="-118.5" font-family="Helvetica,sans-Serif" font-size="10.00">CppUnitTest.h</text>
</a>
</g>
</g>
<!-- Node1&#45;&gt;Node29 -->
<g id="edge50_Node000001_Node000029" class="edge">
<title>Node1&#45;&gt;Node29</title>
<g id="a_edge50_Node000001_Node000029"><a xlink:title=" ">
<path fill="none" stroke="#63b8ff" d="M664.86,-335.7C671.55,-326.85 681.5,-312.97 688.62,-300 718.66,-245.28 744.84,-176.04 756.77,-142.7"/>
<polygon fill="#63b8ff" stroke="#63b8ff" points="759.96,-144.16 759.99,-133.57 753.36,-141.83 759.96,-144.16"/>
</a>
</g>
</g>
<!-- Node33 -->
<g id="Node000033" class="node">
<title>Node33</title>
<g id="a_Node000033"><a xlink:href="_foo_8h.html" target="_top" xlink:title=" ">
<polygon fill="white" stroke="#666666" points="726,-188 685.25,-188 685.25,-168 726,-168 726,-188"/>
<text text-anchor="middle" x="705.62" y="-174.5" font-family="Helvetica,sans-Serif" font-size="10.00">Foo.h</text>
</a>
</g>
</g>
<!-- Node1&#45;&gt;Node33 -->
<g id="edge45_Node000001_Node000033" class="edge">
<title>Node1&#45;&gt;Node33</title>
<g id="a_edge45_Node000001_Node000033"><a xlink:title=" ">
<path fill="none" stroke="#63b8ff" d="M660.6,-335.71C663.48,-326.63 667.96,-312.4 671.62,-300 682.07,-264.72 693.5,-223.42 700.09,-199.34"/>
<polygon fill="#63b8ff" stroke="#63b8ff" points="703.41,-200.47 702.67,-189.9 696.66,-198.63 703.41,-200.47"/>
</a>
</g>
</g>
<!-- Node3 -->
<g id="Node000003" class="node">
<title>Node3</title>
<g id="a_Node000003"><a xlink:title=" ">
<polygon fill="#e0e0e0" stroke="#999999" points="771.88,-20 709.38,-20 709.38,0 771.88,0 771.88,-20"/>
<text text-anchor="middle" x="740.62" y="-6.5" font-family="Helvetica,sans-Serif" font-size="10.00">windows.h</text>
</a>
</g>
</g>
<!-- Node2&#45;&gt;Node3 -->
<g id="edge2_Node000002_Node000003" class="edge">
<title>Node2&#45;&gt;Node3</title>
<g id="a_edge2_Node000002_Node000003"><a xlink:title=" ">
<path fill="none" stroke="#63b8ff" d="M687.77,-55.59C696.95,-47.85 710.18,-36.69 721.11,-27.47"/>
<polygon fill="#63b8ff" stroke="#63b8ff" points="723.06,-30.4 728.45,-21.27 718.55,-25.05 723.06,-30.4"/>
</a>
</g>
</g>
<!-- Node4 -->
<g id="Node000004" class="node">
<title>Node4</title>
<g id="a_Node000004"><a xlink:title=" ">
<polygon fill="#e0e0e0" stroke="#999999" points="837.75,-20 789.5,-20 789.5,0 837.75,0 837.75,-20"/>
<text text-anchor="middle" x="813.62" y="-6.5" font-family="Helvetica,sans-Serif" font-size="10.00">cassert</text>
</a>
</g>
</g>
<!-- Node2&#45;&gt;Node4 -->
<g id="edge3_Node000002_Node000004" class="edge">
<title>Node2&#45;&gt;Node4</title>
<g id="a_edge3_Node000002_Node000004"><a xlink:title=" ">
<path fill="none" stroke="#63b8ff" d="M700.49,-55.59C722.16,-47.05 754.39,-34.35 778.92,-24.68"/>
<polygon fill="#63b8ff" stroke="#63b8ff" points="780.15,-27.96 788.17,-21.03 777.58,-21.45 780.15,-27.96"/>
</a>
</g>
</g>
<!-- Node5 -->
<g id="Node000005" class="node">
<title>Node5</title>
<g id="a_Node000005"><a xlink:title=" ">
<polygon fill="#e0e0e0" stroke="#999999" points="903.75,-20 855.5,-20 855.5,0 903.75,0 903.75,-20"/>
<text text-anchor="middle" x="879.62" y="-6.5" font-family="Helvetica,sans-Serif" font-size="10.00">cstddef</text>
</a>
</g>
</g>
<!-- Node2&#45;&gt;Node5 -->
<g id="edge4_Node000002_Node000005" class="edge">
<title>Node2&#45;&gt;Node5</title>
<g id="a_edge4_Node000002_Node000005"><a xlink:title=" ">
<path fill="none" stroke="#63b8ff" d="M712.79,-55.51C744.94,-47.06 793.49,-34.24 844.26,-20.62"/>
<polygon fill="#63b8ff" stroke="#63b8ff" points="844.91,-24.07 853.66,-18.1 843.09,-17.31 844.91,-24.07"/>
</a>
</g>
</g>
<!-- Node6 -->
<g id="Node000006" class="node">
<title>Node6</title>
<g id="a_Node000006"><a xlink:title=" ">
<polygon fill="#e0e0e0" stroke="#999999" points="967.25,-20 922,-20 922,0 967.25,0 967.25,-20"/>
<text text-anchor="middle" x="944.62" y="-6.5" font-family="Helvetica,sans-Serif" font-size="10.00">cstdint</text>
</a>
</g>
</g>
<!-- Node2&#45;&gt;Node6 -->
<g id="edge5_Node000002_Node000006" class="edge">
<title>Node2&#45;&gt;Node6</title>
<g id="a_edge5_Node000002_Node000006"><a xlink:title=" ">
<path fill="none" stroke="#63b8ff" d="M733.66,-55.54C779.11,-47.68 844.58,-35.65 910.59,-20.32"/>
<polygon fill="#63b8ff" stroke="#63b8ff" points="911.21,-23.77 920.14,-18.07 909.61,-16.95 911.21,-23.77"/>
</a>
</g>
</g>
<!-- Node7 -->
<g id="Node000007" class="node">
<title>Node7</title>
<g id="a_Node000007"><a xlink:title=" ">
<polygon fill="#e0e0e0" stroke="#999999" points="441,-20 388.25,-20 388.25,0 441,0 441,-20"/>
<text text-anchor="middle" x="414.62" y="-6.5" font-family="Helvetica,sans-Serif" font-size="10.00">cstdbool</text>
</a>
</g>
</g>
<!-- Node2&#45;&gt;Node7 -->
<g id="edge6_Node000002_Node000007" class="edge">
<title>Node2&#45;&gt;Node7</title>
<g id="a_edge6_Node000002_Node000007"><a xlink:title=" ">
<path fill="none" stroke="#63b8ff" d="M625.31,-55.52C581.83,-47.32 517.57,-34.81 452.24,-20.27"/>
<polygon fill="#63b8ff" stroke="#63b8ff" points="453.33,-16.93 442.8,-18.16 451.8,-23.76 453.33,-16.93"/>
</a>
</g>
</g>
<!-- Node8 -->
<g id="Node000008" class="node">
<title>Node8</title>
<g id="a_Node000008"><a xlink:title=" ">
<polygon fill="#e0e0e0" stroke="#999999" points="370.62,-20 330.62,-20 330.62,0 370.62,0 370.62,-20"/>
<text text-anchor="middle" x="350.62" y="-6.5" font-family="Helvetica,sans-Serif" font-size="10.00">string</text>
</a>
</g>
</g>
<!-- Node2&#45;&gt;Node8 -->
<g id="edge7_Node000002_Node000008" class="edge">
<title>Node2&#45;&gt;Node8</title>
<g id="a_edge7_Node000002_Node000008"><a xlink:title=" ">
<path fill="none" stroke="#63b8ff" d="M610.27,-56.13C541.44,-46.74 437.26,-31.92 382.11,-20.22"/>
<polygon fill="#63b8ff" stroke="#63b8ff" points="383.11,-16.86 372.59,-18.11 381.59,-23.69 383.11,-16.86"/>
</a>
</g>
</g>
<!-- Node9 -->
<g id="Node000009" class="node">
<title>Node9</title>
<g id="a_Node000009"><a xlink:title=" ">
<polygon fill="#e0e0e0" stroke="#999999" points="513.75,-20 459.5,-20 459.5,0 513.75,0 513.75,-20"/>
<text text-anchor="middle" x="486.62" y="-6.5" font-family="Helvetica,sans-Serif" font-size="10.00">crtdefs.h</text>
</a>
</g>
</g>
<!-- Node2&#45;&gt;Node9 -->
<g id="edge8_Node000002_Node000009" class="edge">
<title>Node2&#45;&gt;Node9</title>
<g id="a_edge8_Node000002_Node000009"><a xlink:title=" ">
<path fill="none" stroke="#63b8ff" d="M643.53,-55.59C610.43,-46.19 559.58,-31.73 524.79,-21.85"/>
<polygon fill="#63b8ff" stroke="#63b8ff" points="526.14,-18.59 515.56,-19.22 524.22,-25.32 526.14,-18.59"/>
</a>
</g>
</g>
<!-- Node10 -->
<g id="Node000010" class="node">
<title>Node10</title>
<g id="a_Node000010"><a xlink:title=" ">
<polygon fill="#e0e0e0" stroke="#999999" points="691.62,-20 531.62,-20 531.62,0 691.62,0 691.62,-20"/>
<text text-anchor="middle" x="611.62" y="-6.5" font-family="Helvetica,sans-Serif" font-size="10.00">../src/memory/SystemAllocator.h</text>
</a>
</g>
</g>
<!-- Node2&#45;&gt;Node10 -->
<g id="edge9_Node000002_Node000010" class="edge">
<title>Node2&#45;&gt;Node10</title>
<g id="a_edge9_Node000002_Node000010"><a xlink:title=" ">
<path fill="none" stroke="#63b8ff" d="M665.3,-55.59C655.98,-47.85 642.55,-36.69 631.45,-27.47"/>
<polygon fill="#63b8ff" stroke="#63b8ff" points="633.91,-24.96 623.98,-21.27 629.44,-30.35 633.91,-24.96"/>
</a>
</g>
</g>
<!-- Node12 -->
<g id="Node000012" class="node">
<title>Node12</title>
<g id="a_Node000012"><a xlink:href="_r_t_t_i_8h.html" target="_top" xlink:title=" ">
<polygon fill="white" stroke="#666666" points="629.5,-132 501.75,-132 501.75,-112 629.5,-112 629.5,-132"/>
<text text-anchor="middle" x="565.62" y="-118.5" font-family="Helvetica,sans-Serif" font-size="10.00">FIEAGameEngine/RTTI.h</text>
</a>
</g>
</g>
<!-- Node11&#45;&gt;Node12 -->
<g id="edge11_Node000011_Node000012" class="edge">
<title>Node11&#45;&gt;Node12</title>
<g id="a_edge11_Node000011_Node000012"><a xlink:title=" ">
<path fill="none" stroke="#63b8ff" d="M347.68,-226.48C384.27,-220.03 436.51,-208.13 478.62,-188 504.75,-175.51 530.83,-154.62 547.53,-139.89"/>
<polygon fill="#63b8ff" stroke="#63b8ff" points="549.58,-142.76 554.66,-133.46 544.89,-137.56 549.58,-142.76"/>
</a>
</g>
</g>
<!-- Node14 -->
<g id="Node000014" class="node">
<title>Node14</title>
<g id="a_Node000014"><a xlink:href="_datum_8h.html" target="_top" xlink:title=" ">
<polygon fill="#fff0f0" stroke="red" points="469.38,-188 415.88,-188 415.88,-168 469.38,-168 469.38,-188"/>
<text text-anchor="middle" x="442.62" y="-174.5" font-family="Helvetica,sans-Serif" font-size="10.00">Datum.h</text>
</a>
</g>
</g>
<!-- Node11&#45;&gt;Node14 -->
<g id="edge15_Node000011_Node000014" class="edge">
<title>Node11&#45;&gt;Node14</title>
<g id="a_edge15_Node000011_Node000014"><a xlink:title=" ">
<path fill="none" stroke="#63b8ff" d="M327.01,-223.59C349.26,-215.01 382.39,-202.23 407.49,-192.55"/>
<polygon fill="#63b8ff" stroke="#63b8ff" points="408.57,-195.89 416.64,-189.02 406.05,-189.36 408.57,-195.89"/>
</a>
</g>
</g>
<!-- Node19 -->
<g id="Node000019" class="node">
<title>Node19</title>
<g id="a_Node000019"><a xlink:title=" ">
<polygon fill="#e0e0e0" stroke="#999999" points="307.12,-76 264.12,-76 264.12,-56 307.12,-56 307.12,-76"/>
<text text-anchor="middle" x="285.62" y="-62.5" font-family="Helvetica,sans-Serif" font-size="10.00">vector</text>
</a>
</g>
</g>
<!-- Node11&#45;&gt;Node19 -->
<g id="edge19_Node000011_Node000019" class="edge">
<title>Node11&#45;&gt;Node19</title>
<g id="a_edge19_Node000011_Node000019"><a xlink:title=" ">
<path fill="none" stroke="#63b8ff" d="M301.66,-223.6C298.99,-197.46 291.41,-123.48 287.71,-87.36"/>
<polygon fill="#63b8ff" stroke="#63b8ff" points="291.23,-87.39 286.73,-77.8 284.27,-88.11 291.23,-87.39"/>
</a>
</g>
</g>
<!-- Node20 -->
<g id="Node000020" class="node">
<title>Node20</title>
<g id="a_Node000020"><a xlink:title=" ">
<polygon fill="#e0e0e0" stroke="#999999" points="197,-76 114.25,-76 114.25,-56 197,-56 197,-76"/>
<text text-anchor="middle" x="155.62" y="-62.5" font-family="Helvetica,sans-Serif" font-size="10.00">unordered_map</text>
</a>
</g>
</g>
<!-- Node11&#45;&gt;Node20 -->
<g id="edge20_Node000011_Node000020" class="edge">
<title>Node11&#45;&gt;Node20</title>
<g id="a_edge20_Node000011_Node000020"><a xlink:title=" ">
<path fill="none" stroke="#63b8ff" d="M289.93,-223.67C259.19,-201 182.7,-143.97 174.62,-132 165.56,-118.57 160.75,-100.76 158.24,-87.18"/>
<polygon fill="#63b8ff" stroke="#63b8ff" points="161.75,-86.99 156.76,-77.64 154.83,-88.06 161.75,-86.99"/>
</a>
</g>
</g>
<!-- Node21 -->
<g id="Node000021" class="node">
<title>Node21</title>
<g id="a_Node000021"><a xlink:title=" ">
<polygon fill="#e0e0e0" stroke="#999999" points="348,-188 313.25,-188 313.25,-168 348,-168 348,-188"/>
<text text-anchor="middle" x="330.62" y="-174.5" font-family="Helvetica,sans-Serif" font-size="10.00">map</text>
</a>
</g>
</g>
<!-- Node11&#45;&gt;Node21 -->
<g id="edge21_Node000011_Node000021" class="edge">
<title>Node11&#45;&gt;Node21</title>
<g id="a_edge21_Node000011_Node000021"><a xlink:title=" ">
<path fill="none" stroke="#63b8ff" d="M307.5,-223.59C311.12,-216.63 316.17,-206.89 320.62,-198.29"/>
<polygon fill="#63b8ff" stroke="#63b8ff" points="323.61,-200.13 325.11,-189.64 317.4,-196.91 323.61,-200.13"/>
</a>
</g>
</g>
<!-- Node11&#45;&gt;Node22 -->
<g id="edge22_Node000011_Node000022" class="edge">
<title>Node11&#45;&gt;Node22</title>
<g id="a_edge22_Node000011_Node000022"><a xlink:title=" ">
<path fill="none" stroke="#63b8ff" d="M270.4,-223.59C240.08,-214.74 194.45,-201.43 160.96,-191.65"/>
<polygon fill="#63b8ff" stroke="#63b8ff" points="162.13,-188.35 151.55,-188.9 160.17,-195.07 162.13,-188.35"/>
</a>
</g>
</g>
<!-- Node12&#45;&gt;Node2 -->
<g id="edge12_Node000012_Node000002" class="edge">
<title>Node12&#45;&gt;Node2</title>
<g id="a_edge12_Node000012_Node000002"><a xlink:title=" ">
<path fill="none" stroke="#63b8ff" d="M584.96,-111.59C602.04,-103.28 627.23,-91.03 646.88,-81.47"/>
<polygon fill="#63b8ff" stroke="#63b8ff" points="648.32,-84.66 655.78,-77.14 645.25,-78.37 648.32,-84.66"/>
</a>
</g>
</g>
<!-- Node13 -->
<g id="Node000013" class="node">
<title>Node13</title>
<g id="a_Node000013"><a xlink:href="_r_t_t_i_8inl.html" target="_top" xlink:title=" ">
<polygon fill="white" stroke="#666666" points="592.88,-76 464.38,-76 464.38,-56 592.88,-56 592.88,-76"/>
<text text-anchor="middle" x="528.62" y="-62.5" font-family="Helvetica,sans-Serif" font-size="10.00">FieaGameEngine/RTTI.inl</text>
</a>
</g>
</g>
<!-- Node12&#45;&gt;Node13 -->
<g id="edge13_Node000012_Node000013" class="edge">
<title>Node12&#45;&gt;Node13</title>
<g id="a_edge13_Node000012_Node000013"><a xlink:title=" ">
<path fill="none" stroke="#63b8ff" d="M553.91,-111.59C547.74,-104.63 540.66,-94.89 535.34,-86.29"/>
<polygon fill="#63b8ff" stroke="#63b8ff" points="538.43,-84.64 530.49,-77.62 532.32,-88.05 538.43,-84.64"/>
</a>
</g>
</g>
<!-- Node13&#45;&gt;Node12 -->
<g id="edge14_Node000013_Node000012" class="edge">
<title>Node13&#45;&gt;Node12</title>
<g id="a_edge14_Node000013_Node000012"><a xlink:title=" ">
<path fill="none" stroke="#63b8ff" d="M540.24,-76.3C546.4,-83.24 553.49,-92.97 558.83,-101.58"/>
<polygon fill="#63b8ff" stroke="#63b8ff" points="555.76,-103.27 563.71,-110.27 561.86,-99.84 555.76,-103.27"/>
</a>
</g>
</g>
<!-- Node14&#45;&gt;Node8 -->
<g id="edge16_Node000014_Node000008" class="edge">
<title>Node14&#45;&gt;Node8</title>
<g id="a_edge16_Node000014_Node000008"><a xlink:title=" ">
<path fill="none" stroke="#63b8ff" d="M437.42,-167.6C422.74,-141.12 380.85,-65.54 361.13,-29.96"/>
<polygon fill="#63b8ff" stroke="#63b8ff" points="364.42,-28.67 356.51,-21.62 358.3,-32.06 364.42,-28.67"/>
</a>
</g>
</g>
<!-- Node14&#45;&gt;Node12 -->
<g id="edge18_Node000014_Node000012" class="edge">
<title>Node14&#45;&gt;Node12</title>
<g id="a_edge18_Node000014_Node000012"><a xlink:title=" ">
<path fill="none" stroke="#63b8ff" d="M464.05,-167.59C483.25,-159.17 511.67,-146.69 533.57,-137.07"/>
<polygon fill="#63b8ff" stroke="#63b8ff" points="534.9,-140.31 542.65,-133.09 532.08,-133.9 534.9,-140.31"/>
</a>
</g>
</g>
<!-- Node15 -->
<g id="Node000015" class="node">
<title>Node15</title>
<g id="a_Node000015"><a xlink:title=" ">
<polygon fill="#e0e0e0" stroke="#999999" points="483.5,-132 427.75,-132 427.75,-112 483.5,-112 483.5,-132"/>
<text text-anchor="middle" x="455.62" y="-118.5" font-family="Helvetica,sans-Serif" font-size="10.00">charconv</text>
</a>
</g>
</g>
<!-- Node14&#45;&gt;Node15 -->
<g id="edge17_Node000014_Node000015" class="edge">
<title>Node14&#45;&gt;Node15</title>
<g id="a_edge17_Node000014_Node000015"><a xlink:title=" ">
<path fill="none" stroke="#63b8ff" d="M444.89,-167.59C446.49,-160.93 448.7,-151.75 450.7,-143.44"/>
<polygon fill="#63b8ff" stroke="#63b8ff" points="454.09,-144.31 453.03,-133.77 447.29,-142.67 454.09,-144.31"/>
</a>
</g>
</g>
<!-- Node22&#45;&gt;Node2 -->
<g id="edge23_Node000022_Node000002" class="edge">
<title>Node22&#45;&gt;Node2</title>
<g id="a_edge23_Node000022_Node000002"><a xlink:title=" ">
<path fill="none" stroke="#63b8ff" d="M158.9,-167.54C216.8,-154.39 325.49,-130.17 418.62,-112 482.34,-99.57 555.23,-87.01 607.25,-78.33"/>
<polygon fill="#63b8ff" stroke="#63b8ff" points="607.57,-81.82 616.86,-76.73 606.42,-74.92 607.57,-81.82"/>
</a>
</g>
</g>
<!-- Node22&#45;&gt;Node8 -->
<g id="edge29_Node000022_Node000008" class="edge">
<title>Node22&#45;&gt;Node8</title>
<g id="a_edge29_Node000022_Node000008"><a xlink:title=" ">
<path fill="none" stroke="#63b8ff" d="M112.77,-167.82C101.81,-145.72 78.2,-88.93 105.62,-56 132.43,-23.83 258.88,-14.58 318.88,-11.98"/>
<polygon fill="#63b8ff" stroke="#63b8ff" points="318.91,-15.48 328.77,-11.59 318.64,-8.49 318.91,-15.48"/>
</a>
</g>
</g>
<!-- Node22&#45;&gt;Node12 -->
<g id="edge24_Node000022_Node000012" class="edge">
<title>Node22&#45;&gt;Node12</title>
<g id="a_edge24_Node000022_Node000012"><a xlink:title=" ">
<path fill="none" stroke="#63b8ff" d="M197.37,-167.51C270.7,-158.76 382.78,-145.35 490.15,-132.3"/>
<polygon fill="#63b8ff" stroke="#63b8ff" points="490.53,-135.78 500.03,-131.1 489.68,-128.83 490.53,-135.78"/>
</a>
</g>
</g>
<!-- Node22&#45;&gt;Node20 -->
<g id="edge31_Node000022_Node000020" class="edge">
<title>Node22&#45;&gt;Node20</title>
<g id="a_edge31_Node000022_Node000020"><a xlink:title=" ">
<path fill="none" stroke="#63b8ff" d="M120.86,-167.62C127.01,-149.84 140.47,-110.88 148.72,-87"/>
<polygon fill="#63b8ff" stroke="#63b8ff" points="151.94,-88.38 151.9,-77.79 145.33,-86.09 151.94,-88.38"/>
</a>
</g>
</g>
<!-- Node23 -->
<g id="Node000023" class="node">
<title>Node23</title>
<g id="a_Node000023"><a xlink:href="_service_mgr_8h.html" target="_top" xlink:title=" ">
<polygon fill="white" stroke="#666666" points="257.5,-132 183.75,-132 183.75,-112 257.5,-112 257.5,-132"/>
<text text-anchor="middle" x="220.62" y="-118.5" font-family="Helvetica,sans-Serif" font-size="10.00">ServiceMgr.h</text>
</a>
</g>
</g>
<!-- Node22&#45;&gt;Node23 -->
<g id="edge25_Node000022_Node000023" class="edge">
<title>Node22&#45;&gt;Node23</title>
<g id="a_edge25_Node000022_Node000023"><a xlink:title=" ">
<path fill="none" stroke="#63b8ff" d="M135.57,-167.59C151.27,-159.36 174.36,-147.26 192.51,-137.74"/>
<polygon fill="#63b8ff" stroke="#63b8ff" points="193.97,-140.93 201.2,-133.18 190.72,-134.73 193.97,-140.93"/>
</a>
</g>
</g>
<!-- Node24 -->
<g id="Node000024" class="node">
<title>Node24</title>
<g id="a_Node000024"><a xlink:title=" ">
<polygon fill="#e0e0e0" stroke="#999999" points="51.25,-132 0,-132 0,-112 51.25,-112 51.25,-132"/>
<text text-anchor="middle" x="25.62" y="-118.5" font-family="Helvetica,sans-Serif" font-size="10.00">memory</text>
</a>
</g>
</g>
<!-- Node22&#45;&gt;Node24 -->
<g id="edge30_Node000022_Node000024" class="edge">
<title>Node22&#45;&gt;Node24</title>
<g id="a_edge30_Node000022_Node000024"><a xlink:title=" ">
<path fill="none" stroke="#63b8ff" d="M101.6,-167.59C87.83,-159.51 67.72,-147.71 51.65,-138.27"/>
<polygon fill="#63b8ff" stroke="#63b8ff" points="53.48,-135.29 43.08,-133.25 49.93,-141.33 53.48,-135.29"/>
</a>
</g>
</g>
<!-- Node23&#45;&gt;Node2 -->
<g id="edge26_Node000023_Node000002" class="edge">
<title>Node23&#45;&gt;Node2</title>
<g id="a_edge26_Node000023_Node000002"><a xlink:title=" ">
<path fill="none" stroke="#63b8ff" d="M257.94,-116.62C324.31,-108.81 467.52,-91.96 599.29,-76.28"/>
<polygon fill="#63b8ff" stroke="#63b8ff" points="599.35,-79.79 608.87,-75.14 598.53,-72.84 599.35,-79.79"/>
</a>
</g>
</g>
<!-- Node23&#45;&gt;Node19 -->
<g id="edge27_Node000023_Node000019" class="edge">
<title>Node23&#45;&gt;Node19</title>
<g id="a_edge27_Node000023_Node000019"><a xlink:title=" ">
<path fill="none" stroke="#63b8ff" d="M231.95,-111.59C241.27,-103.85 254.7,-92.69 265.8,-83.47"/>
<polygon fill="#63b8ff" stroke="#63b8ff" points="267.81,-86.35 273.27,-77.27 263.34,-80.96 267.81,-86.35"/>
</a>
</g>
</g>
<!-- Node23&#45;&gt;Node20 -->
<g id="edge28_Node000023_Node000020" class="edge">
<title>Node23&#45;&gt;Node20</title>
<g id="a_edge28_Node000023_Node000020"><a xlink:title=" ">
<path fill="none" stroke="#63b8ff" d="M209.3,-111.59C199.98,-103.85 186.55,-92.69 175.45,-83.47"/>
<polygon fill="#63b8ff" stroke="#63b8ff" points="177.91,-80.96 167.98,-77.27 173.44,-86.35 177.91,-80.96"/>
</a>
</g>
</g>
<!-- Node25&#45;&gt;Node11 -->
<g id="edge34_Node000025_Node000011" class="edge">
<title>Node25&#45;&gt;Node11</title>
<g id="a_edge34_Node000025_Node000011"><a xlink:title=" ">
<path fill="none" stroke="#63b8ff" d="M434.76,-279.59C408.87,-270.86 370.1,-257.77 341.24,-248.03"/>
<polygon fill="#63b8ff" stroke="#63b8ff" points="342.74,-244.85 332.15,-244.96 340.5,-251.48 342.74,-244.85"/>
</a>
</g>
</g>
<!-- Node25&#45;&gt;Node12 -->
<g id="edge33_Node000025_Node000012" class="edge">
<title>Node25&#45;&gt;Node12</title>
<g id="a_edge33_Node000025_Node000012"><a xlink:title=" ">
<path fill="none" stroke="#63b8ff" d="M471.38,-279.8C479.51,-271.02 491.66,-257.19 500.62,-244 523.66,-210.12 545.05,-167.22 556.63,-142.67"/>
<polygon fill="#63b8ff" stroke="#63b8ff" points="559.68,-144.4 560.72,-133.86 553.33,-141.45 559.68,-144.4"/>
</a>
</g>
</g>
<!-- Node25&#45;&gt;Node19 -->
<g id="edge35_Node000025_Node000019" class="edge">
<title>Node25&#45;&gt;Node19</title>
<g id="a_edge35_Node000025_Node000019"><a xlink:title=" ">
<path fill="none" stroke="#63b8ff" d="M454.67,-279.77C446.91,-270.73 434.83,-256.53 424.62,-244 377.89,-186.62 324.22,-117.26 299.46,-85.05"/>
<polygon fill="#63b8ff" stroke="#63b8ff" points="302.53,-83.31 293.67,-77.51 296.98,-87.57 302.53,-83.31"/>
</a>
</g>
</g>
<!-- Node26 -->
<g id="Node000026" class="node">
<title>Node26</title>
<g id="a_Node000026"><a xlink:title=" ">
<polygon fill="#e0e0e0" stroke="#999999" points="491.62,-244 433.62,-244 433.62,-224 491.62,-224 491.62,-244"/>
<text text-anchor="middle" x="462.62" y="-230.5" font-family="Helvetica,sans-Serif" font-size="10.00">functional</text>
</a>
</g>
</g>
<!-- Node25&#45;&gt;Node26 -->
<g id="edge36_Node000025_Node000026" class="edge">
<title>Node25&#45;&gt;Node26</title>
<g id="a_edge36_Node000025_Node000026"><a xlink:title=" ">
<path fill="none" stroke="#63b8ff" d="M462.62,-279.59C462.62,-273.01 462.62,-263.96 462.62,-255.73"/>
<polygon fill="#63b8ff" stroke="#63b8ff" points="466.13,-255.81 462.63,-245.81 459.13,-255.81 466.13,-255.81"/>
</a>
</g>
</g>
<!-- Node27&#45;&gt;Node2 -->
<g id="edge40_Node000027_Node000002" class="edge">
<title>Node27&#45;&gt;Node2</title>
<g id="a_edge40_Node000027_Node000002"><a xlink:title=" ">
<path fill="none" stroke="#63b8ff" d="M853.53,-167.6C846.93,-153.51 832.63,-126.97 812.62,-112 791.9,-96.49 765.56,-86.16 741.58,-79.35"/>
<polygon fill="#63b8ff" stroke="#63b8ff" points="742.79,-76.05 732.22,-76.86 740.98,-82.82 742.79,-76.05"/>
</a>
</g>
</g>
<!-- Node27&#45;&gt;Node12 -->
<g id="edge44_Node000027_Node000012" class="edge">
<title>Node27&#45;&gt;Node12</title>
<g id="a_edge44_Node000027_Node000012"><a xlink:title=" ">
<path fill="none" stroke="#63b8ff" d="M828.56,-171.62C782.05,-163.02 689.84,-145.97 627.94,-134.52"/>
<polygon fill="#63b8ff" stroke="#63b8ff" points="628.71,-131.11 618.24,-132.73 627.44,-137.99 628.71,-131.11"/>
</a>
</g>
</g>
<!-- Node28 -->
<g id="Node000028" class="node">
<title>Node28</title>
<g id="a_Node000028"><a xlink:title=" ">
<polygon fill="#e0e0e0" stroke="#999999" points="1084.75,-132 1036.5,-132 1036.5,-112 1084.75,-112 1084.75,-132"/>
<text text-anchor="middle" x="1060.62" y="-118.5" font-family="Helvetica,sans-Serif" font-size="10.00">excpt.h</text>
</a>
</g>
</g>
<!-- Node27&#45;&gt;Node28 -->
<g id="edge38_Node000027_Node000028" class="edge">
<title>Node27&#45;&gt;Node28</title>
<g id="a_edge38_Node000027_Node000028"><a xlink:title=" ">
<path fill="none" stroke="#63b8ff" d="M886.52,-169.42C918.24,-161.09 970.97,-147.19 1025.25,-132.62"/>
<polygon fill="#63b8ff" stroke="#63b8ff" points="1025.91,-136.07 1034.66,-130.1 1024.09,-129.31 1025.91,-136.07"/>
</a>
</g>
</g>
<!-- Node27&#45;&gt;Node29 -->
<g id="edge39_Node000027_Node000029" class="edge">
<title>Node27&#45;&gt;Node29</title>
<g id="a_edge39_Node000027_Node000029"><a xlink:title=" ">
<path fill="none" stroke="#63b8ff" d="M841.25,-167.59C827.05,-159.44 806.24,-147.48 789.74,-138"/>
<polygon fill="#63b8ff" stroke="#63b8ff" points="791.85,-135.18 781.44,-133.23 788.37,-141.25 791.85,-135.18"/>
</a>
</g>
</g>
<!-- Node30 -->
<g id="Node000030" class="node">
<title>Node30</title>
<g id="a_Node000030"><a xlink:title=" ">
<polygon fill="#e0e0e0" stroke="#999999" points="907.75,-132 859.5,-132 859.5,-112 907.75,-112 907.75,-132"/>
<text text-anchor="middle" x="883.62" y="-118.5" font-family="Helvetica,sans-Serif" font-size="10.00">string.h</text>
</a>
</g>
</g>
<!-- Node27&#45;&gt;Node30 -->
<g id="edge41_Node000027_Node000030" class="edge">
<title>Node27&#45;&gt;Node30</title>
<g id="a_edge41_Node000027_Node000030"><a xlink:title=" ">
<path fill="none" stroke="#63b8ff" d="M862.15,-167.59C865.47,-160.7 870.09,-151.1 874.2,-142.57"/>
<polygon fill="#63b8ff" stroke="#63b8ff" points="877.31,-144.19 878.49,-133.66 871,-141.15 877.31,-144.19"/>
</a>
</g>
</g>
<!-- Node31 -->
<g id="Node000031" class="node">
<title>Node31</title>
<g id="a_Node000031"><a xlink:title=" ">
<polygon fill="#e0e0e0" stroke="#999999" points="955.02,-132 926.23,-132 926.23,-112 955.02,-112 955.02,-132"/>
<text text-anchor="middle" x="940.62" y="-118.5" font-family="Helvetica,sans-Serif" font-size="10.00">list</text>
</a>
</g>
</g>
<!-- Node27&#45;&gt;Node31 -->
<g id="edge42_Node000027_Node000031" class="edge">
<title>Node27&#45;&gt;Node31</title>
<g id="a_edge42_Node000027_Node000031"><a xlink:title=" ">
<path fill="none" stroke="#63b8ff" d="M872.08,-167.59C884.38,-159.59 902.3,-147.93 916.73,-138.54"/>
<polygon fill="#63b8ff" stroke="#63b8ff" points="918.31,-141.69 924.79,-133.3 914.5,-135.82 918.31,-141.69"/>
</a>
</g>
</g>
<!-- Node32 -->
<g id="Node000032" class="node">
<title>Node32</title>
<g id="a_Node000032"><a xlink:title=" ">
<polygon fill="#e0e0e0" stroke="#999999" points="1018.62,-132 972.62,-132 972.62,-112 1018.62,-112 1018.62,-132"/>
<text text-anchor="middle" x="995.62" y="-118.5" font-family="Helvetica,sans-Serif" font-size="10.00">iterator</text>
</a>
</g>
</g>
<!-- Node27&#45;&gt;Node32 -->
<g id="edge43_Node000027_Node000032" class="edge">
<title>Node27&#45;&gt;Node32</title>
<g id="a_edge43_Node000027_Node000032"><a xlink:title=" ">
<path fill="none" stroke="#63b8ff" d="M881.66,-167.59C903.86,-158.91 937.06,-145.92 961.9,-136.2"/>
<polygon fill="#63b8ff" stroke="#63b8ff" points="962.88,-139.57 970.91,-132.67 960.33,-133.05 962.88,-139.57"/>
</a>
</g>
</g>
<!-- Node33&#45;&gt;Node2 -->
<g id="edge46_Node000033_Node000002" class="edge">
<title>Node33&#45;&gt;Node2</title>
<g id="a_edge46_Node000033_Node000002"><a xlink:title=" ">
<path fill="none" stroke="#63b8ff" d="M703.15,-167.62C698.49,-149.92 688.29,-111.24 681.98,-87.32"/>
<polygon fill="#63b8ff" stroke="#63b8ff" points="685.41,-86.6 679.48,-77.82 678.64,-88.38 685.41,-86.6"/>
</a>
</g>
</g>
<!-- Node33&#45;&gt;Node12 -->
<g id="edge47_Node000033_Node000012" class="edge">
<title>Node33&#45;&gt;Node12</title>
<g id="a_edge47_Node000033_Node000012"><a xlink:title=" ">
<path fill="none" stroke="#63b8ff" d="M684.97,-169.03C662.77,-160.47 627.11,-146.72 600.55,-136.47"/>
<polygon fill="#63b8ff" stroke="#63b8ff" points="602.14,-133.33 591.55,-133 599.62,-139.87 602.14,-133.33"/>
</a>
</g>
</g>
<!-- Node33&#45;&gt;Node29 -->
<g id="edge48_Node000033_Node000029" class="edge">
<title>Node33&#45;&gt;Node29</title>
<g id="a_edge48_Node000033_Node000029"><a xlink:title=" ">
<path fill="none" stroke="#63b8ff" d="M715.73,-167.59C723.88,-160.01 735.56,-149.13 745.34,-140.02"/>
<polygon fill="#63b8ff" stroke="#63b8ff" points="747.6,-142.71 752.53,-133.33 742.83,-137.58 747.6,-142.71"/>
</a>
</g>
</g>
</g>
</svg>
