<?xml version="1.0" encoding="UTF-8" standalone="no"?>
<!DOCTYPE svg PUBLIC "-//W3C//DTD SVG 1.1//EN"
 "http://www.w3.org/Graphics/SVG/1.1/DTD/svg11.dtd">
<!-- Generated by graphviz version 12.2.1 (20241206.2353)
 -->
<!-- Title: FIEAGameEngine/include/Content/Attributed.h Pages: 1 -->
<svg width="2108pt" height="336pt"
 viewBox="0.00 0.00 2108.34 336.00" xmlns="http://www.w3.org/2000/svg" xmlns:xlink="http://www.w3.org/1999/xlink">
<g id="graph0" class="graph" transform="scale(1 1) rotate(0) translate(4 332)">
<title>FIEAGameEngine/include/Content/Attributed.h</title>
<!-- Node1 -->
<g id="Node000001" class="node">
<title>Node1</title>
<g id="a_Node000001"><a xlink:title=" ">
<polygon fill="#999999" stroke="#666666" points="1492.71,-328 1364.21,-328 1364.21,-296 1492.71,-296 1492.71,-328"/>
<text text-anchor="start" x="1372.21" y="-314.5" font-family="Helvetica,sans-Serif" font-size="10.00">FIEAGameEngine/include</text>
<text text-anchor="middle" x="1428.46" y="-302.5" font-family="Helvetica,sans-Serif" font-size="10.00">/Content/Attributed.h</text>
</a>
</g>
</g>
<!-- Node2 -->
<g id="Node000002" class="node">
<title>Node2</title>
<g id="a_Node000002"><a xlink:href="_action_8h.html" target="_top" xlink:title=" ">
<polygon fill="white" stroke="#666666" points="1008.71,-260 880.21,-260 880.21,-228 1008.71,-228 1008.71,-260"/>
<text text-anchor="start" x="888.21" y="-246.5" font-family="Helvetica,sans-Serif" font-size="10.00">FIEAGameEngine/include</text>
<text text-anchor="middle" x="944.46" y="-234.5" font-family="Helvetica,sans-Serif" font-size="10.00">/Content/Actions/Action.h</text>
</a>
</g>
</g>
<!-- Node1&#45;&gt;Node2 -->
<g id="edge1_Node000001_Node000002" class="edge">
<title>Node1&#45;&gt;Node2</title>
<g id="a_edge1_Node000001_Node000002"><a xlink:title=" ">
<path fill="none" stroke="#63b8ff" d="M1352.74,-300.67C1258.14,-287.77 1097.93,-265.93 1008.92,-253.79"/>
<polygon fill="#63b8ff" stroke="#63b8ff" points="1352.06,-304.11 1362.44,-302 1353.01,-297.18 1352.06,-304.11"/>
</a>
</g>
</g>
<!-- Node21 -->
<g id="Node000021" class="node">
<title>Node21</title>
<g id="a_Node000021"><a xlink:href="_game_object_8h.html" target="_top" xlink:title=" ">
<polygon fill="white" stroke="#666666" points="1594.71,-118 1466.21,-118 1466.21,-86 1594.71,-86 1594.71,-118"/>
<text text-anchor="start" x="1474.21" y="-104.5" font-family="Helvetica,sans-Serif" font-size="10.00">FIEAGameEngine/include</text>
<text text-anchor="middle" x="1530.46" y="-92.5" font-family="Helvetica,sans-Serif" font-size="10.00">/Content/GameObject.h</text>
</a>
</g>
</g>
<!-- Node1&#45;&gt;Node21 -->
<g id="edge41_Node000001_Node000021" class="edge">
<title>Node1&#45;&gt;Node21</title>
<g id="a_edge41_Node000001_Node000021"><a xlink:title=" ">
<path fill="none" stroke="#63b8ff" d="M1365.56,-290.54C1352.03,-283.11 1339.42,-273.17 1331.46,-260 1308.48,-221.96 1304.71,-195.49 1331.46,-160 1335.8,-154.24 1412.92,-133.3 1469.85,-118.48"/>
<polygon fill="#63b8ff" stroke="#63b8ff" points="1363.65,-293.51 1374.16,-294.85 1366.78,-287.24 1363.65,-293.51"/>
</a>
</g>
</g>
<!-- Node28 -->
<g id="Node000028" class="node">
<title>Node28</title>
<g id="a_Node000028"><a xlink:href="_content_service_8h.html" target="_top" xlink:title=" ">
<polygon fill="white" stroke="#666666" points="1516.71,-260 1340.21,-260 1340.21,-228 1516.71,-228 1516.71,-260"/>
<text text-anchor="start" x="1348.21" y="-246.5" font-family="Helvetica,sans-Serif" font-size="10.00">FIEAGameEngine/include</text>
<text text-anchor="middle" x="1428.46" y="-234.5" font-family="Helvetica,sans-Serif" font-size="10.00">/FIEAGameEngine/ContentService.h</text>
</a>
</g>
</g>
<!-- Node1&#45;&gt;Node28 -->
<g id="edge42_Node000001_Node000028" class="edge">
<title>Node1&#45;&gt;Node28</title>
<g id="a_edge42_Node000001_Node000028"><a xlink:title=" ">
<path fill="none" stroke="#63b8ff" d="M1428.46,-284.31C1428.46,-276.12 1428.46,-267.38 1428.46,-260.22"/>
<polygon fill="#63b8ff" stroke="#63b8ff" points="1424.96,-284.18 1428.46,-294.18 1431.96,-284.18 1424.96,-284.18"/>
</a>
</g>
</g>
<!-- Node29 -->
<g id="Node000029" class="node">
<title>Node29</title>
<g id="a_Node000029"><a xlink:href="_attributed_8cpp.html" target="_top" xlink:title=" ">
<polygon fill="white" stroke="#666666" points="1613.96,-192 1498.96,-192 1498.96,-160 1613.96,-160 1613.96,-192"/>
<text text-anchor="start" x="1506.96" y="-178.5" font-family="Helvetica,sans-Serif" font-size="10.00">FIEAGameEngine/src</text>
<text text-anchor="middle" x="1556.46" y="-166.5" font-family="Helvetica,sans-Serif" font-size="10.00">/content/Attributed.cpp</text>
</a>
</g>
</g>
<!-- Node1&#45;&gt;Node29 -->
<g id="edge46_Node000001_Node000029" class="edge">
<title>Node1&#45;&gt;Node29</title>
<g id="a_edge46_Node000001_Node000029"><a xlink:title=" ">
<path fill="none" stroke="#63b8ff" d="M1483.12,-290.96C1498.43,-283.2 1514.01,-273 1525.46,-260 1542.64,-240.49 1550.65,-210.57 1554.11,-192.48"/>
<polygon fill="#63b8ff" stroke="#63b8ff" points="1482.03,-287.6 1474.5,-295.05 1485.03,-293.92 1482.03,-287.6"/>
</a>
</g>
</g>
<!-- Node31 -->
<g id="Node000031" class="node">
<title>Node31</title>
<g id="a_Node000031"><a xlink:href="_attribute_box_8h.html" target="_top" xlink:title=" ">
<polygon fill="white" stroke="#666666" points="1869.46,-254 1727.46,-254 1727.46,-234 1869.46,-234 1869.46,-254"/>
<text text-anchor="middle" x="1798.46" y="-240.5" font-family="Helvetica,sans-Serif" font-size="10.00">Tests/Support/AttributeBox.h</text>
</a>
</g>
</g>
<!-- Node1&#45;&gt;Node31 -->
<g id="edge47_Node000001_Node000031" class="edge">
<title>Node1&#45;&gt;Node31</title>
<g id="a_edge47_Node000001_Node000031"><a xlink:title=" ">
<path fill="none" stroke="#63b8ff" d="M1504.13,-297.5C1575.91,-284.7 1681.96,-265.78 1745.23,-254.49"/>
<polygon fill="#63b8ff" stroke="#63b8ff" points="1503.63,-294.04 1494.4,-299.24 1504.86,-300.93 1503.63,-294.04"/>
</a>
</g>
</g>
<!-- Node3 -->
<g id="Node000003" class="node">
<title>Node3</title>
<g id="a_Node000003"><a xlink:href="_action_list_8h.html" target="_top" xlink:title=" ">
<polygon fill="white" stroke="#666666" points="1016.59,-192 872.34,-192 872.34,-160 1016.59,-160 1016.59,-192"/>
<text text-anchor="start" x="880.34" y="-178.5" font-family="Helvetica,sans-Serif" font-size="10.00">FIEAGameEngine/include</text>
<text text-anchor="middle" x="944.46" y="-166.5" font-family="Helvetica,sans-Serif" font-size="10.00">/Content/Actions/ActionList.h</text>
</a>
</g>
</g>
<!-- Node2&#45;&gt;Node3 -->
<g id="edge2_Node000002_Node000003" class="edge">
<title>Node2&#45;&gt;Node3</title>
<g id="a_edge2_Node000002_Node000003"><a xlink:title=" ">
<path fill="none" stroke="#63b8ff" d="M944.46,-216.31C944.46,-208.12 944.46,-199.38 944.46,-192.22"/>
<polygon fill="#63b8ff" stroke="#63b8ff" points="940.96,-216.18 944.46,-226.18 947.96,-216.18 940.96,-216.18"/>
</a>
</g>
</g>
<!-- Node11 -->
<g id="Node000011" class="node">
<title>Node11</title>
<g id="a_Node000011"><a xlink:href="_action_handler_8cpp.html" target="_top" xlink:title=" ">
<polygon fill="white" stroke="#666666" points="1821.71,-38 1687.21,-38 1687.21,-6 1821.71,-6 1821.71,-38"/>
<text text-anchor="start" x="1695.21" y="-24.5" font-family="Helvetica,sans-Serif" font-size="10.00">FIEAGameEngine/src</text>
<text text-anchor="middle" x="1754.46" y="-12.5" font-family="Helvetica,sans-Serif" font-size="10.00">/content/ActionHandler.cpp</text>
</a>
</g>
</g>
<!-- Node2&#45;&gt;Node11 -->
<g id="edge37_Node000002_Node000011" class="edge">
<title>Node2&#45;&gt;Node11</title>
<g id="a_edge37_Node000002_Node000011"><a xlink:title=" ">
<path fill="none" stroke="#63b8ff" d="M1020.02,-232.77C1078.92,-224.07 1162.5,-210.1 1234.46,-192 1278.49,-180.93 1287.13,-169.8 1331.46,-160 1466.04,-130.26 1513.54,-180.01 1639.46,-124 1683.89,-104.24 1723.57,-61.12 1742.58,-38.13"/>
<polygon fill="#63b8ff" stroke="#63b8ff" points="1019.84,-229.26 1010.45,-234.17 1020.85,-236.19 1019.84,-229.26"/>
</a>
</g>
</g>
<!-- Node15 -->
<g id="Node000015" class="node">
<title>Node15</title>
<g id="a_Node000015"><a xlink:href="_increment_action_8h.html" target="_top" xlink:title=" ">
<polygon fill="white" stroke="#666666" points="190.46,-118 18.46,-118 18.46,-86 190.46,-86 190.46,-118"/>
<text text-anchor="start" x="26.46" y="-104.5" font-family="Helvetica,sans-Serif" font-size="10.00">FIEAGameEngine/include</text>
<text text-anchor="middle" x="104.46" y="-92.5" font-family="Helvetica,sans-Serif" font-size="10.00">/Content/Actions/IncrementAction.h</text>
</a>
</g>
</g>
<!-- Node2&#45;&gt;Node15 -->
<g id="edge19_Node000002_Node000015" class="edge">
<title>Node2&#45;&gt;Node15</title>
<g id="a_edge19_Node000002_Node000015"><a xlink:title=" ">
<path fill="none" stroke="#63b8ff" d="M869,-234.88C788.61,-225.87 657.72,-210.18 545.46,-192 390.76,-166.94 352.87,-156.03 199.46,-124 191.03,-122.24 182.19,-120.35 173.43,-118.45"/>
<polygon fill="#63b8ff" stroke="#63b8ff" points="868.17,-238.31 878.5,-235.94 868.95,-231.35 868.17,-238.31"/>
</a>
</g>
</g>
<!-- Node17 -->
<g id="Node000017" class="node">
<title>Node17</title>
<g id="a_Node000017"><a xlink:href="_integer_conditional_action_8h.html" target="_top" xlink:title=" ">
<polygon fill="white" stroke="#666666" points="380.09,-124 208.84,-124 208.84,-80 380.09,-80 380.09,-124"/>
<text text-anchor="start" x="216.84" y="-110.5" font-family="Helvetica,sans-Serif" font-size="10.00">FIEAGameEngine/include</text>
<text text-anchor="start" x="216.84" y="-98.5" font-family="Helvetica,sans-Serif" font-size="10.00">/Content/Actions/IntegerConditional</text>
<text text-anchor="middle" x="294.46" y="-86.5" font-family="Helvetica,sans-Serif" font-size="10.00">Action.h</text>
</a>
</g>
</g>
<!-- Node2&#45;&gt;Node17 -->
<g id="edge23_Node000002_Node000017" class="edge">
<title>Node2&#45;&gt;Node17</title>
<g id="a_edge23_Node000002_Node000017"><a xlink:title=" ">
<path fill="none" stroke="#63b8ff" d="M868.8,-228.19C818.48,-218.23 750.95,-204.66 691.46,-192 584.03,-169.13 460.64,-141.21 380.31,-122.81"/>
<polygon fill="#63b8ff" stroke="#63b8ff" points="867.94,-231.59 878.43,-230.09 869.29,-224.72 867.94,-231.59"/>
</a>
</g>
</g>
<!-- Node19 -->
<g id="Node000019" class="node">
<title>Node19</title>
<g id="a_Node000019"><a xlink:href="_preamble_action_8h.html" target="_top" xlink:title=" ">
<polygon fill="#fff0f0" stroke="red" points="606.34,-118 436.59,-118 436.59,-86 606.34,-86 606.34,-118"/>
<text text-anchor="start" x="444.59" y="-104.5" font-family="Helvetica,sans-Serif" font-size="10.00">FIEAGameEngine/include</text>
<text text-anchor="middle" x="521.46" y="-92.5" font-family="Helvetica,sans-Serif" font-size="10.00">/Content/Actions/PreambleAction.h</text>
</a>
</g>
</g>
<!-- Node2&#45;&gt;Node19 -->
<g id="edge27_Node000002_Node000019" class="edge">
<title>Node2&#45;&gt;Node19</title>
<g id="a_edge27_Node000002_Node000019"><a xlink:title=" ">
<path fill="none" stroke="#63b8ff" d="M887.29,-224.08C802.75,-196.1 645.99,-144.22 568.02,-118.41"/>
<polygon fill="#63b8ff" stroke="#63b8ff" points="885.95,-227.32 896.55,-227.14 888.15,-220.68 885.95,-227.32"/>
</a>
</g>
</g>
<!-- Node2&#45;&gt;Node21 -->
<g id="edge30_Node000002_Node000021" class="edge">
<title>Node2&#45;&gt;Node21</title>
<g id="a_edge30_Node000002_Node000021"><a xlink:title=" ">
<path fill="none" stroke="#63b8ff" d="M1020.21,-229.81C1066.65,-220.92 1127.06,-207.92 1179.46,-192 1216.5,-180.75 1223.34,-170.95 1260.46,-160 1338.71,-136.92 1360.73,-141.27 1440.46,-124 1448.77,-122.2 1457.5,-120.24 1466.12,-118.28"/>
<polygon fill="#63b8ff" stroke="#63b8ff" points="1019.68,-226.34 1010.5,-231.64 1020.98,-233.22 1019.68,-226.34"/>
</a>
</g>
</g>
<!-- Node25 -->
<g id="Node000025" class="node">
<title>Node25</title>
<g id="a_Node000025"><a xlink:href="_action_8cpp.html" target="_top" xlink:title=" ">
<polygon fill="white" stroke="#666666" points="1170.09,-192 1034.84,-192 1034.84,-160 1170.09,-160 1170.09,-192"/>
<text text-anchor="start" x="1042.84" y="-178.5" font-family="Helvetica,sans-Serif" font-size="10.00">FIEAGameEngine/src</text>
<text text-anchor="middle" x="1102.46" y="-166.5" font-family="Helvetica,sans-Serif" font-size="10.00">/content/actions/Action.cpp</text>
</a>
</g>
</g>
<!-- Node2&#45;&gt;Node25 -->
<g id="edge38_Node000002_Node000025" class="edge">
<title>Node2&#45;&gt;Node25</title>
<g id="a_edge38_Node000002_Node000025"><a xlink:title=" ">
<path fill="none" stroke="#63b8ff" d="M991.96,-223.16C1015.48,-213.33 1043.46,-201.65 1065.38,-192.49"/>
<polygon fill="#63b8ff" stroke="#63b8ff" points="990.78,-219.86 982.9,-226.94 993.48,-226.32 990.78,-219.86"/>
</a>
</g>
</g>
<!-- Node26 -->
<g id="Node000026" class="node">
<title>Node26</title>
<g id="a_Node000026"><a xlink:href="_action_add_datum_8h.html" target="_top" xlink:title=" ">
<polygon fill="#fff0f0" stroke="red" points="276.59,-186 114.34,-186 114.34,-166 276.59,-166 276.59,-186"/>
<text text-anchor="middle" x="195.46" y="-172.5" font-family="Helvetica,sans-Serif" font-size="10.00">Tests/Support/ActionAddDatum.h</text>
</a>
</g>
</g>
<!-- Node2&#45;&gt;Node26 -->
<g id="edge39_Node000002_Node000026" class="edge">
<title>Node2&#45;&gt;Node26</title>
<g id="a_edge39_Node000002_Node000026"><a xlink:title=" ">
<path fill="none" stroke="#63b8ff" d="M868.81,-236.33C727.1,-223.85 422.84,-197.04 276.87,-184.17"/>
<polygon fill="#63b8ff" stroke="#63b8ff" points="868.18,-239.79 878.45,-237.18 868.79,-232.82 868.18,-239.79"/>
</a>
</g>
</g>
<!-- Node4 -->
<g id="Node000004" class="node">
<title>Node4</title>
<g id="a_Node000004"><a xlink:href="_delayed_action_8h.html" target="_top" xlink:title=" ">
<polygon fill="#fff0f0" stroke="red" points="962.71,-118 798.21,-118 798.21,-86 962.71,-86 962.71,-118"/>
<text text-anchor="start" x="806.21" y="-104.5" font-family="Helvetica,sans-Serif" font-size="10.00">FIEAGameEngine/include</text>
<text text-anchor="middle" x="880.46" y="-92.5" font-family="Helvetica,sans-Serif" font-size="10.00">/Content/Actions/DelayedAction.h</text>
</a>
</g>
</g>
<!-- Node3&#45;&gt;Node4 -->
<g id="edge3_Node000003_Node000004" class="edge">
<title>Node3&#45;&gt;Node4</title>
<g id="a_edge3_Node000003_Node000004"><a xlink:title=" ">
<path fill="none" stroke="#63b8ff" d="M923.52,-151.44C913.83,-140.53 902.58,-127.88 894.02,-118.25"/>
<polygon fill="#63b8ff" stroke="#63b8ff" points="920.62,-153.45 929.88,-158.6 925.86,-148.8 920.62,-153.45"/>
</a>
</g>
</g>
<!-- Node6 -->
<g id="Node000006" class="node">
<title>Node6</title>
<g id="a_Node000006"><a xlink:href="_action_test_8cpp.html" target="_top" xlink:title=" ">
<polygon fill="white" stroke="#666666" points="540.59,-32 432.34,-32 432.34,-12 540.59,-12 540.59,-32"/>
<text text-anchor="middle" x="486.46" y="-18.5" font-family="Helvetica,sans-Serif" font-size="10.00">Tests/ActionTest.cpp</text>
</a>
</g>
</g>
<!-- Node3&#45;&gt;Node6 -->
<g id="edge17_Node000003_Node000006" class="edge">
<title>Node3&#45;&gt;Node6</title>
<g id="a_edge17_Node000003_Node000006"><a xlink:title=" ">
<path fill="none" stroke="#63b8ff" d="M860.63,-172.77C721.65,-168.2 455.94,-155.43 427.46,-124 414.33,-109.51 419.82,-98 427.46,-80 436.31,-59.15 456.93,-42.21 471.28,-32.37"/>
<polygon fill="#63b8ff" stroke="#63b8ff" points="860.42,-176.27 870.53,-173.09 860.64,-169.27 860.42,-176.27"/>
</a>
</g>
</g>
<!-- Node7 -->
<g id="Node000007" class="node">
<title>Node7</title>
<g id="a_Node000007"><a xlink:href="_serialization_tests_8cpp.html" target="_top" xlink:title=" ">
<polygon fill="white" stroke="#666666" points="953.96,-32 814.96,-32 814.96,-12 953.96,-12 953.96,-32"/>
<text text-anchor="middle" x="884.46" y="-18.5" font-family="Helvetica,sans-Serif" font-size="10.00">Tests/SerializationTests.cpp</text>
</a>
</g>
</g>
<!-- Node3&#45;&gt;Node7 -->
<g id="edge18_Node000003_Node000007" class="edge">
<title>Node3&#45;&gt;Node7</title>
<g id="a_edge18_Node000003_Node000007"><a xlink:title=" ">
<path fill="none" stroke="#63b8ff" d="M961.42,-150.19C972.72,-130.33 983.47,-102.22 971.46,-80 958.84,-56.65 932.03,-41.32 911.48,-32.5"/>
<polygon fill="#63b8ff" stroke="#63b8ff" points="958.6,-148.1 956.37,-158.45 964.57,-151.75 958.6,-148.1"/>
</a>
</g>
</g>
<!-- Node8 -->
<g id="Node000008" class="node">
<title>Node8</title>
<g id="a_Node000008"><a xlink:href="_timed_action_8h.html" target="_top" xlink:title=" ">
<polygon fill="#fff0f0" stroke="red" points="780.21,-118 624.71,-118 624.71,-86 780.21,-86 780.21,-118"/>
<text text-anchor="start" x="632.71" y="-104.5" font-family="Helvetica,sans-Serif" font-size="10.00">FIEAGameEngine/include</text>
<text text-anchor="middle" x="702.46" y="-92.5" font-family="Helvetica,sans-Serif" font-size="10.00">/Content/Actions/TimedAction.h</text>
</a>
</g>
</g>
<!-- Node3&#45;&gt;Node8 -->
<g id="edge6_Node000003_Node000008" class="edge">
<title>Node3&#45;&gt;Node8</title>
<g id="a_edge6_Node000003_Node000008"><a xlink:title=" ">
<path fill="none" stroke="#63b8ff" d="M881.69,-156.32C842.1,-144.55 791.59,-129.52 754.29,-118.42"/>
<polygon fill="#63b8ff" stroke="#63b8ff" points="880.51,-159.63 891.1,-159.12 882.51,-152.92 880.51,-159.63"/>
</a>
</g>
</g>
<!-- Node10 -->
<g id="Node000010" class="node">
<title>Node10</title>
<g id="a_Node000010"><a xlink:href="_while_action_list_8h.html" target="_top" xlink:title=" ">
<polygon fill="#fff0f0" stroke="red" points="1409.96,-124 1264.96,-124 1264.96,-80 1409.96,-80 1409.96,-124"/>
<text text-anchor="start" x="1272.96" y="-110.5" font-family="Helvetica,sans-Serif" font-size="10.00">FIEAGameEngine/include</text>
<text text-anchor="start" x="1272.96" y="-98.5" font-family="Helvetica,sans-Serif" font-size="10.00">/Content/Actions/WhileAction</text>
<text text-anchor="middle" x="1337.46" y="-86.5" font-family="Helvetica,sans-Serif" font-size="10.00">List.h</text>
</a>
</g>
</g>
<!-- Node3&#45;&gt;Node10 -->
<g id="edge9_Node000003_Node000010" class="edge">
<title>Node3&#45;&gt;Node10</title>
<g id="a_edge9_Node000003_Node000010"><a xlink:title=" ">
<path fill="none" stroke="#63b8ff" d="M1028.03,-159.53C1115.03,-143.54 1204,-127.3 1264.64,-116.25"/>
<polygon fill="#63b8ff" stroke="#63b8ff" points="1027.57,-156.05 1018.37,-161.31 1028.84,-162.94 1027.57,-156.05"/>
</a>
</g>
</g>
<!-- Node3&#45;&gt;Node11 -->
<g id="edge14_Node000003_Node000011" class="edge">
<title>Node3&#45;&gt;Node11</title>
<g id="a_edge14_Node000003_Node000011"><a xlink:title=" ">
<path fill="none" stroke="#63b8ff" d="M1028.01,-159.92C1170.61,-145.95 1489.54,-176.18 1603.46,-124 1628.32,-112.61 1624.55,-96.36 1646.46,-80 1668.8,-63.32 1696.69,-48.74 1718.53,-38.5"/>
<polygon fill="#63b8ff" stroke="#63b8ff" points="1027.88,-156.41 1018.32,-160.99 1028.65,-163.37 1027.88,-156.41"/>
</a>
</g>
</g>
<!-- Node12 -->
<g id="Node000012" class="node">
<title>Node12</title>
<g id="a_Node000012"><a xlink:href="_action_list_handler_8cpp.html" target="_top" xlink:title=" ">
<polygon fill="white" stroke="#666666" points="1206.59,-38 1056.34,-38 1056.34,-6 1206.59,-6 1206.59,-38"/>
<text text-anchor="start" x="1064.34" y="-24.5" font-family="Helvetica,sans-Serif" font-size="10.00">FIEAGameEngine/src</text>
<text text-anchor="middle" x="1131.46" y="-12.5" font-family="Helvetica,sans-Serif" font-size="10.00">/content/ActionListHandler.cpp</text>
</a>
</g>
</g>
<!-- Node3&#45;&gt;Node12 -->
<g id="edge15_Node000003_Node000012" class="edge">
<title>Node3&#45;&gt;Node12</title>
<g id="a_edge15_Node000003_Node000012"><a xlink:title=" ">
<path fill="none" stroke="#63b8ff" d="M1028.18,-160.11C1104.42,-154.16 1391.5,-154.63 1419.46,-124 1477.92,-59.95 1345.07,-71.6 1215.46,-44 1207.52,-42.31 1199.2,-40.4 1191,-38.43"/>
<polygon fill="#63b8ff" stroke="#63b8ff" points="1027.93,-156.62 1018.34,-161.1 1028.64,-163.58 1027.93,-156.62"/>
</a>
</g>
</g>
<!-- Node14 -->
<g id="Node000014" class="node">
<title>Node14</title>
<g id="a_Node000014"><a xlink:href="_action_list_8cpp.html" target="_top" xlink:title=" ">
<polygon fill="white" stroke="#666666" points="1169.96,-118 1018.96,-118 1018.96,-86 1169.96,-86 1169.96,-118"/>
<text text-anchor="start" x="1026.96" y="-104.5" font-family="Helvetica,sans-Serif" font-size="10.00">FIEAGameEngine/src</text>
<text text-anchor="middle" x="1094.46" y="-92.5" font-family="Helvetica,sans-Serif" font-size="10.00">/content/actions/ActionList.cpp</text>
</a>
</g>
</g>
<!-- Node3&#45;&gt;Node14 -->
<g id="edge16_Node000003_Node000014" class="edge">
<title>Node3&#45;&gt;Node14</title>
<g id="a_edge16_Node000003_Node000014"><a xlink:title=" ">
<path fill="none" stroke="#63b8ff" d="M986.87,-154.64C1010.83,-143.14 1040.3,-129 1062.34,-118.42"/>
<polygon fill="#63b8ff" stroke="#63b8ff" points="985.51,-151.42 978.01,-158.9 988.53,-157.73 985.51,-151.42"/>
</a>
</g>
</g>
<!-- Node4&#45;&gt;Node6 -->
<g id="edge4_Node000004_Node000006" class="edge">
<title>Node4&#45;&gt;Node6</title>
<g id="a_edge4_Node000004_Node000006"><a xlink:title=" ">
<path fill="none" stroke="#63b8ff" d="M804.08,-83.13C799.14,-82.05 794.23,-81 789.46,-80 702.62,-61.82 601.21,-43.29 540.51,-32.48"/>
<polygon fill="#63b8ff" stroke="#63b8ff" points="802.92,-86.46 813.44,-85.21 804.44,-79.63 802.92,-86.46"/>
</a>
</g>
</g>
<!-- Node4&#45;&gt;Node7 -->
<g id="edge5_Node000004_Node000007" class="edge">
<title>Node4&#45;&gt;Node7</title>
<g id="a_edge5_Node000004_Node000007"><a xlink:title=" ">
<path fill="none" stroke="#63b8ff" d="M881.83,-74.23C882.58,-59.77 883.45,-42.81 883.98,-32.49"/>
<polygon fill="#63b8ff" stroke="#63b8ff" points="878.35,-73.91 881.33,-84.08 885.34,-74.27 878.35,-73.91"/>
</a>
</g>
</g>
<!-- Node8&#45;&gt;Node6 -->
<g id="edge7_Node000008_Node000006" class="edge">
<title>Node8&#45;&gt;Node6</title>
<g id="a_edge7_Node000008_Node000006"><a xlink:title=" ">
<path fill="none" stroke="#63b8ff" d="M649.13,-81.74C605.78,-66.09 546.46,-44.67 512.74,-32.49"/>
<polygon fill="#63b8ff" stroke="#63b8ff" points="647.77,-84.97 658.36,-85.08 650.15,-78.39 647.77,-84.97"/>
</a>
</g>
</g>
<!-- Node8&#45;&gt;Node7 -->
<g id="edge8_Node000008_Node000007" class="edge">
<title>Node8&#45;&gt;Node7</title>
<g id="a_edge8_Node000008_Node000007"><a xlink:title=" ">
<path fill="none" stroke="#63b8ff" d="M748.79,-81.14C785.19,-65.54 834.27,-44.51 862.32,-32.49"/>
<polygon fill="#63b8ff" stroke="#63b8ff" points="747.62,-77.84 739.81,-84.99 750.38,-84.27 747.62,-77.84"/>
</a>
</g>
</g>
<!-- Node10&#45;&gt;Node6 -->
<g id="edge12_Node000010_Node000006" class="edge">
<title>Node10&#45;&gt;Node6</title>
<g id="a_edge12_Node000010_Node000006"><a xlink:title=" ">
<path fill="none" stroke="#63b8ff" d="M1253.61,-89.06C1229.68,-85.87 1203.57,-82.59 1179.46,-80 942.11,-54.48 657.94,-34.38 540.91,-26.55"/>
<polygon fill="#63b8ff" stroke="#63b8ff" points="1252.92,-92.5 1263.29,-90.36 1253.85,-85.56 1252.92,-92.5"/>
</a>
</g>
</g>
<!-- Node10&#45;&gt;Node7 -->
<g id="edge13_Node000010_Node000007" class="edge">
<title>Node10&#45;&gt;Node7</title>
<g id="a_edge13_Node000010_Node000007"><a xlink:title=" ">
<path fill="none" stroke="#63b8ff" d="M1254.03,-80.72C1252.83,-80.47 1251.64,-80.23 1250.46,-80 1147.96,-59.68 1028.11,-42.19 954.25,-32.13"/>
<polygon fill="#63b8ff" stroke="#63b8ff" points="1252.94,-84.06 1263.45,-82.71 1254.39,-77.22 1252.94,-84.06"/>
</a>
</g>
</g>
<!-- Node10&#45;&gt;Node11 -->
<g id="edge10_Node000010_Node000011" class="edge">
<title>Node10&#45;&gt;Node11</title>
<g id="a_edge10_Node000010_Node000011"><a xlink:title=" ">
<path fill="none" stroke="#63b8ff" d="M1421.44,-86.18C1433.52,-84.09 1445.81,-81.97 1457.46,-80 1555.15,-63.46 1580.65,-65.06 1677.46,-44 1685.04,-42.35 1692.99,-40.42 1700.79,-38.4"/>
<polygon fill="#63b8ff" stroke="#63b8ff" points="1421.16,-82.68 1411.91,-87.84 1422.36,-89.57 1421.16,-82.68"/>
</a>
</g>
</g>
<!-- Node10&#45;&gt;Node12 -->
<g id="edge11_Node000010_Node000012" class="edge">
<title>Node10&#45;&gt;Node12</title>
<g id="a_edge11_Node000010_Node000012"><a xlink:title=" ">
<path fill="none" stroke="#63b8ff" d="M1270.16,-75.52C1237.83,-63.28 1200.15,-49.01 1172.22,-38.43"/>
<polygon fill="#63b8ff" stroke="#63b8ff" points="1268.89,-78.78 1279.48,-79.05 1271.37,-72.23 1268.89,-78.78"/>
</a>
</g>
</g>
<!-- Node15&#45;&gt;Node6 -->
<g id="edge21_Node000015_Node000006" class="edge">
<title>Node15&#45;&gt;Node6</title>
<g id="a_edge21_Node000015_Node000006"><a xlink:title=" ">
<path fill="none" stroke="#63b8ff" d="M184.52,-83.13C189.57,-82.06 194.58,-81.01 199.46,-80 282.78,-62.82 304.07,-60.83 387.46,-44 405.55,-40.35 425.45,-36.16 442.64,-32.49"/>
<polygon fill="#63b8ff" stroke="#63b8ff" points="183.94,-79.68 174.9,-85.2 185.41,-86.52 183.94,-79.68"/>
</a>
</g>
</g>
<!-- Node15&#45;&gt;Node7 -->
<g id="edge22_Node000015_Node000007" class="edge">
<title>Node15&#45;&gt;Node7</title>
<g id="a_edge22_Node000015_Node000007"><a xlink:title=" ">
<path fill="none" stroke="#63b8ff" d="M179.94,-83.35C186.52,-82.11 193.1,-80.96 199.46,-80 316.71,-62.24 664.79,-37.7 814.6,-27.61"/>
<polygon fill="#63b8ff" stroke="#63b8ff" points="179.5,-79.87 170.37,-85.24 180.86,-86.74 179.5,-79.87"/>
</a>
</g>
</g>
<!-- Node16 -->
<g id="Node000016" class="node">
<title>Node16</title>
<g id="a_Node000016"><a xlink:href="_increment_action_8cpp.html" target="_top" xlink:title=" ">
<polygon fill="white" stroke="#666666" points="170.59,-44 38.34,-44 38.34,0 170.59,0 170.59,-44"/>
<text text-anchor="start" x="46.34" y="-30.5" font-family="Helvetica,sans-Serif" font-size="10.00">FIEAGameEngine/src</text>
<text text-anchor="start" x="46.34" y="-18.5" font-family="Helvetica,sans-Serif" font-size="10.00">/content/actions/Increment</text>
<text text-anchor="middle" x="104.46" y="-6.5" font-family="Helvetica,sans-Serif" font-size="10.00">Action.cpp</text>
</a>
</g>
</g>
<!-- Node15&#45;&gt;Node16 -->
<g id="edge20_Node000015_Node000016" class="edge">
<title>Node15&#45;&gt;Node16</title>
<g id="a_edge20_Node000015_Node000016"><a xlink:title=" ">
<path fill="none" stroke="#63b8ff" d="M104.46,-74.38C104.46,-64.56 104.46,-53.57 104.46,-44.28"/>
<polygon fill="#63b8ff" stroke="#63b8ff" points="100.96,-74.08 104.46,-84.08 107.96,-74.08 100.96,-74.08"/>
</a>
</g>
</g>
<!-- Node17&#45;&gt;Node6 -->
<g id="edge25_Node000017_Node000006" class="edge">
<title>Node17&#45;&gt;Node6</title>
<g id="a_edge25_Node000017_Node000006"><a xlink:title=" ">
<path fill="none" stroke="#63b8ff" d="M357.67,-75.32C393.85,-60.62 437.11,-43.05 463.15,-32.47"/>
<polygon fill="#63b8ff" stroke="#63b8ff" points="356.53,-72.01 348.58,-79.01 359.16,-78.49 356.53,-72.01"/>
</a>
</g>
</g>
<!-- Node17&#45;&gt;Node7 -->
<g id="edge26_Node000017_Node000007" class="edge">
<title>Node17&#45;&gt;Node7</title>
<g id="a_edge26_Node000017_Node000007"><a xlink:title=" ">
<path fill="none" stroke="#63b8ff" d="M391.36,-85.32C403.5,-83.47 415.77,-81.65 427.46,-80 564.42,-60.65 724.98,-41.42 814.69,-30.99"/>
<polygon fill="#63b8ff" stroke="#63b8ff" points="391.1,-81.82 381.75,-86.8 392.17,-88.74 391.1,-81.82"/>
</a>
</g>
</g>
<!-- Node18 -->
<g id="Node000018" class="node">
<title>Node18</title>
<g id="a_Node000018"><a xlink:href="_integer_conditional_action_8cpp.html" target="_top" xlink:title=" ">
<polygon fill="white" stroke="#666666" points="378.21,-44 210.71,-44 210.71,0 378.21,0 378.21,-44"/>
<text text-anchor="start" x="218.71" y="-30.5" font-family="Helvetica,sans-Serif" font-size="10.00">FIEAGameEngine/src</text>
<text text-anchor="start" x="218.71" y="-18.5" font-family="Helvetica,sans-Serif" font-size="10.00">/content/actions/IntegerConditional</text>
<text text-anchor="middle" x="294.46" y="-6.5" font-family="Helvetica,sans-Serif" font-size="10.00">Action.cpp</text>
</a>
</g>
</g>
<!-- Node17&#45;&gt;Node18 -->
<g id="edge24_Node000017_Node000018" class="edge">
<title>Node17&#45;&gt;Node18</title>
<g id="a_edge24_Node000017_Node000018"><a xlink:title=" ">
<path fill="none" stroke="#63b8ff" d="M294.46,-68.25C294.46,-60.15 294.46,-51.68 294.46,-44.29"/>
<polygon fill="#63b8ff" stroke="#63b8ff" points="290.96,-68.17 294.46,-78.17 297.96,-68.17 290.96,-68.17"/>
</a>
</g>
</g>
<!-- Node19&#45;&gt;Node6 -->
<g id="edge28_Node000019_Node000006" class="edge">
<title>Node19&#45;&gt;Node6</title>
<g id="a_edge28_Node000019_Node000006"><a xlink:title=" ">
<path fill="none" stroke="#63b8ff" d="M509.84,-75.09C503.27,-60.45 495.44,-43.02 490.72,-32.49"/>
<polygon fill="#63b8ff" stroke="#63b8ff" points="506.64,-76.52 513.93,-84.21 513.03,-73.65 506.64,-76.52"/>
</a>
</g>
</g>
<!-- Node19&#45;&gt;Node7 -->
<g id="edge29_Node000019_Node000007" class="edge">
<title>Node19&#45;&gt;Node7</title>
<g id="a_edge29_Node000019_Node000007"><a xlink:title=" ">
<path fill="none" stroke="#63b8ff" d="M601.38,-83.08C606.15,-82.03 610.87,-81 615.46,-80 694.06,-62.89 785.73,-43.61 839.21,-32.43"/>
<polygon fill="#63b8ff" stroke="#63b8ff" points="600.72,-79.64 591.71,-85.22 602.23,-86.48 600.72,-79.64"/>
</a>
</g>
</g>
<!-- Node21&#45;&gt;Node7 -->
<g id="edge36_Node000021_Node000007" class="edge">
<title>Node21&#45;&gt;Node7</title>
<g id="a_edge36_Node000021_Node000007"><a xlink:title=" ">
<path fill="none" stroke="#63b8ff" d="M1454.62,-85.71C1442.88,-83.61 1430.86,-81.63 1419.46,-80 1255.02,-56.54 1212.52,-62.61 1047.46,-44 1016.84,-40.55 983.05,-36.27 954.2,-32.48"/>
<polygon fill="#63b8ff" stroke="#63b8ff" points="1453.81,-89.12 1464.28,-87.47 1455.07,-82.23 1453.81,-89.12"/>
</a>
</g>
</g>
<!-- Node21&#45;&gt;Node11 -->
<g id="edge31_Node000021_Node000011" class="edge">
<title>Node21&#45;&gt;Node11</title>
<g id="a_edge31_Node000021_Node000011"><a xlink:title=" ">
<path fill="none" stroke="#63b8ff" d="M1585.21,-81.93C1623.66,-68.55 1674.43,-50.87 1710.3,-38.38"/>
<polygon fill="#63b8ff" stroke="#63b8ff" points="1584.44,-78.5 1576.15,-85.09 1586.74,-85.11 1584.44,-78.5"/>
</a>
</g>
</g>
<!-- Node21&#45;&gt;Node12 -->
<g id="edge32_Node000021_Node000012" class="edge">
<title>Node21&#45;&gt;Node12</title>
<g id="a_edge32_Node000021_Node000012"><a xlink:title=" ">
<path fill="none" stroke="#63b8ff" d="M1464.95,-82.79C1460.73,-81.8 1456.55,-80.86 1452.46,-80 1348.19,-58.12 1319.92,-64.94 1215.46,-44 1207.21,-42.35 1198.55,-40.41 1190.05,-38.4"/>
<polygon fill="#63b8ff" stroke="#63b8ff" points="1464.08,-86.19 1474.63,-85.17 1465.75,-79.39 1464.08,-86.19"/>
</a>
</g>
</g>
<!-- Node22 -->
<g id="Node000022" class="node">
<title>Node22</title>
<g id="a_Node000022"><a xlink:href="_game_object_8cpp.html" target="_top" xlink:title=" ">
<polygon fill="white" stroke="#666666" points="1352.34,-38 1224.59,-38 1224.59,-6 1352.34,-6 1352.34,-38"/>
<text text-anchor="start" x="1232.59" y="-24.5" font-family="Helvetica,sans-Serif" font-size="10.00">FIEAGameEngine/src</text>
<text text-anchor="middle" x="1288.46" y="-12.5" font-family="Helvetica,sans-Serif" font-size="10.00">/content/GameObject.cpp</text>
</a>
</g>
</g>
<!-- Node21&#45;&gt;Node22 -->
<g id="edge33_Node000021_Node000022" class="edge">
<title>Node21&#45;&gt;Node22</title>
<g id="a_edge33_Node000021_Node000022"><a xlink:title=" ">
<path fill="none" stroke="#63b8ff" d="M1471.84,-82.11C1430.24,-68.7 1375.09,-50.92 1336.17,-38.38"/>
<polygon fill="#63b8ff" stroke="#63b8ff" points="1470.62,-85.39 1481.21,-85.13 1472.77,-78.73 1470.62,-85.39"/>
</a>
</g>
</g>
<!-- Node23 -->
<g id="Node000023" class="node">
<title>Node23</title>
<g id="a_Node000023"><a xlink:href="_game_object_handler_8cpp.html" target="_top" xlink:title=" ">
<polygon fill="white" stroke="#666666" points="1532.21,-38 1370.71,-38 1370.71,-6 1532.21,-6 1532.21,-38"/>
<text text-anchor="start" x="1378.71" y="-24.5" font-family="Helvetica,sans-Serif" font-size="10.00">FIEAGameEngine/src</text>
<text text-anchor="middle" x="1451.46" y="-12.5" font-family="Helvetica,sans-Serif" font-size="10.00">/content/GameObjectHandler.cpp</text>
</a>
</g>
</g>
<!-- Node21&#45;&gt;Node23 -->
<g id="edge34_Node000021_Node000023" class="edge">
<title>Node21&#45;&gt;Node23</title>
<g id="a_edge34_Node000021_Node000023"><a xlink:title=" ">
<path fill="none" stroke="#63b8ff" d="M1506.85,-77.69C1493.97,-64.97 1478.39,-49.59 1467.04,-38.38"/>
<polygon fill="#63b8ff" stroke="#63b8ff" points="1504.2,-79.99 1513.78,-84.53 1509.12,-75.01 1504.2,-79.99"/>
</a>
</g>
</g>
<!-- Node24 -->
<g id="Node000024" class="node">
<title>Node24</title>
<g id="a_Node000024"><a xlink:href="_factory_tests_8cpp.html" target="_top" xlink:title=" ">
<polygon fill="white" stroke="#666666" points="1668.84,-32 1550.09,-32 1550.09,-12 1668.84,-12 1668.84,-32"/>
<text text-anchor="middle" x="1609.46" y="-18.5" font-family="Helvetica,sans-Serif" font-size="10.00">Tests/FactoryTests.cpp</text>
</a>
</g>
</g>
<!-- Node21&#45;&gt;Node24 -->
<g id="edge35_Node000021_Node000024" class="edge">
<title>Node21&#45;&gt;Node24</title>
<g id="a_edge35_Node000021_Node000024"><a xlink:title=" ">
<path fill="none" stroke="#63b8ff" d="M1554.11,-77.65C1569.43,-62.52 1588.56,-43.63 1599.85,-32.49"/>
<polygon fill="#63b8ff" stroke="#63b8ff" points="1551.8,-75.01 1547.15,-84.53 1556.72,-79.99 1551.8,-75.01"/>
</a>
</g>
</g>
<!-- Node26&#45;&gt;Node6 -->
<g id="edge40_Node000026_Node000006" class="edge">
<title>Node26&#45;&gt;Node6</title>
<g id="a_edge40_Node000026_Node000006"><a xlink:title=" ">
<path fill="none" stroke="#63b8ff" d="M118.4,-163.47C73.49,-155 23.08,-141.86 9.46,-124 -2.4,-108.45 -3.69,-94.47 9.46,-80 37.85,-48.78 345.76,-50.39 387.46,-44 407.26,-40.97 429.06,-36.47 447.15,-32.42"/>
<polygon fill="#63b8ff" stroke="#63b8ff" points="117.72,-166.9 128.18,-165.25 118.97,-160.02 117.72,-166.9"/>
</a>
</g>
</g>
<!-- Node28&#45;&gt;Node7 -->
<g id="edge45_Node000028_Node000007" class="edge">
<title>Node28&#45;&gt;Node7</title>
<g id="a_edge45_Node000028_Node000007"><a xlink:title=" ">
<path fill="none" stroke="#63b8ff" d="M1388.07,-222.61C1370.52,-213.53 1349.81,-202.53 1331.46,-192 1281.94,-163.58 1266.96,-159.78 1222.46,-124 1201.15,-106.86 1203.54,-92.96 1179.46,-80 1141.4,-59.51 1028.96,-41.66 954.41,-31.62"/>
<polygon fill="#63b8ff" stroke="#63b8ff" points="1386.16,-225.56 1396.66,-227.02 1389.36,-219.34 1386.16,-225.56"/>
</a>
</g>
</g>
<!-- Node28&#45;&gt;Node29 -->
<g id="edge43_Node000028_Node000029" class="edge">
<title>Node28&#45;&gt;Node29</title>
<g id="a_edge43_Node000028_Node000029"><a xlink:title=" ">
<path fill="none" stroke="#63b8ff" d="M1468.53,-222.34C1487.33,-212.65 1509.34,-201.3 1526.64,-192.38"/>
<polygon fill="#63b8ff" stroke="#63b8ff" points="1467.1,-219.14 1459.82,-226.83 1470.31,-225.36 1467.1,-219.14"/>
</a>
</g>
</g>
<!-- Node30 -->
<g id="Node000030" class="node">
<title>Node30</title>
<g id="a_Node000030"><a xlink:href="_content_service_8cpp.html" target="_top" xlink:title=" ">
<polygon fill="white" stroke="#666666" points="1480.71,-192 1340.21,-192 1340.21,-160 1480.71,-160 1480.71,-192"/>
<text text-anchor="start" x="1348.21" y="-178.5" font-family="Helvetica,sans-Serif" font-size="10.00">FIEAGameEngine/src</text>
<text text-anchor="middle" x="1410.46" y="-166.5" font-family="Helvetica,sans-Serif" font-size="10.00">/content/ContentService.cpp</text>
</a>
</g>
</g>
<!-- Node28&#45;&gt;Node30 -->
<g id="edge44_Node000028_Node000030" class="edge">
<title>Node28&#45;&gt;Node30</title>
<g id="a_edge44_Node000028_Node000030"><a xlink:title=" ">
<path fill="none" stroke="#63b8ff" d="M1421.26,-216.6C1419,-208.32 1416.59,-199.46 1414.61,-192.22"/>
<polygon fill="#63b8ff" stroke="#63b8ff" points="1417.88,-217.51 1423.89,-226.23 1424.63,-215.66 1417.88,-217.51"/>
</a>
</g>
</g>
<!-- Node31&#45;&gt;Node7 -->
<g id="edge50_Node000031_Node000007" class="edge">
<title>Node31&#45;&gt;Node7</title>
<g id="a_edge50_Node000031_Node000007"><a xlink:title=" ">
<path fill="none" stroke="#63b8ff" d="M1752.33,-230.2C1724.88,-221.53 1689.98,-208.64 1661.46,-192 1642.39,-180.87 1643.81,-168.57 1623.46,-160 1472.43,-96.35 1403.38,-196.65 1256.46,-124 1232.5,-112.15 1238.98,-92.71 1215.46,-80 1192.8,-67.75 1043.64,-45.24 953.47,-32.48"/>
<polygon fill="#63b8ff" stroke="#63b8ff" points="1751.17,-233.5 1761.76,-233.09 1753.23,-226.81 1751.17,-233.5"/>
</a>
</g>
</g>
<!-- Node32 -->
<g id="Node000032" class="node">
<title>Node32</title>
<g id="a_Node000032"><a xlink:href="_attribute_box_tests_8cpp.html" target="_top" xlink:title=" ">
<polygon fill="white" stroke="#666666" points="2100.34,-112 1960.59,-112 1960.59,-92 2100.34,-92 2100.34,-112"/>
<text text-anchor="middle" x="2030.46" y="-98.5" font-family="Helvetica,sans-Serif" font-size="10.00">Tests/AttributeBoxTests.cpp</text>
</a>
</g>
</g>
<!-- Node31&#45;&gt;Node32 -->
<g id="edge48_Node000031_Node000032" class="edge">
<title>Node31&#45;&gt;Node32</title>
<g id="a_edge48_Node000031_Node000032"><a xlink:title=" ">
<path fill="none" stroke="#63b8ff" d="M1881.22,-234.16C1936.69,-226.42 2002.86,-213.06 2021.46,-192 2041.3,-169.53 2036.34,-130.36 2032.7,-112.44"/>
<polygon fill="#63b8ff" stroke="#63b8ff" points="1880.87,-230.67 1871.43,-235.48 1881.81,-237.61 1880.87,-230.67"/>
</a>
</g>
</g>
<!-- Node33 -->
<g id="Node000033" class="node">
<title>Node33</title>
<g id="a_Node000033"><a xlink:href="_attributed_test_8cpp.html" target="_top" xlink:title=" ">
<polygon fill="white" stroke="#666666" points="1922.71,-112 1800.21,-112 1800.21,-92 1922.71,-92 1922.71,-112"/>
<text text-anchor="middle" x="1861.46" y="-98.5" font-family="Helvetica,sans-Serif" font-size="10.00">Tests/AttributedTest.cpp</text>
</a>
</g>
</g>
<!-- Node31&#45;&gt;Node33 -->
<g id="edge49_Node000031_Node000033" class="edge">
<title>Node31&#45;&gt;Node33</title>
<g id="a_edge49_Node000031_Node000033"><a xlink:title=" ">
<path fill="none" stroke="#63b8ff" d="M1812.02,-224.52C1818.5,-215.11 1826.01,-203.3 1831.46,-192 1844.86,-164.25 1854.83,-128.96 1859.13,-112.39"/>
<polygon fill="#63b8ff" stroke="#63b8ff" points="1809.35,-222.23 1806.41,-232.41 1815.06,-226.28 1809.35,-222.23"/>
</a>
</g>
</g>
<!-- Node34 -->
<g id="Node000034" class="node">
<title>Node34</title>
<g id="a_Node000034"><a xlink:href="_attribute_box_8cpp.html" target="_top" xlink:title=" ">
<polygon fill="white" stroke="#666666" points="1822.71,-186 1670.21,-186 1670.21,-166 1822.71,-166 1822.71,-186"/>
<text text-anchor="middle" x="1746.46" y="-172.5" font-family="Helvetica,sans-Serif" font-size="10.00">Tests/Support/AttributeBox.cpp</text>
</a>
</g>
</g>
<!-- Node31&#45;&gt;Node34 -->
<g id="edge51_Node000031_Node000034" class="edge">
<title>Node31&#45;&gt;Node34</title>
<g id="a_edge51_Node000031_Node000034"><a xlink:title=" ">
<path fill="none" stroke="#63b8ff" d="M1783.9,-224.52C1774.14,-212.13 1761.69,-196.33 1753.9,-186.44"/>
<polygon fill="#63b8ff" stroke="#63b8ff" points="1781.14,-226.67 1790.07,-232.35 1786.64,-222.33 1781.14,-226.67"/>
</a>
</g>
</g>
<!-- Node35 -->
<g id="Node000035" class="node">
<title>Node35</title>
<g id="a_Node000035"><a xlink:href="_attribute_box_plus_8h.html" target="_top" xlink:title=" ">
<polygon fill="#fff0f0" stroke="red" points="2012.34,-192 1878.59,-192 1878.59,-160 2012.34,-160 2012.34,-192"/>
<text text-anchor="start" x="1886.59" y="-178.5" font-family="Helvetica,sans-Serif" font-size="10.00">Tests/Support/AttributeBox</text>
<text text-anchor="middle" x="1945.46" y="-166.5" font-family="Helvetica,sans-Serif" font-size="10.00">Plus.h</text>
</a>
</g>
</g>
<!-- Node31&#45;&gt;Node35 -->
<g id="edge52_Node000031_Node000035" class="edge">
<title>Node31&#45;&gt;Node35</title>
<g id="a_edge52_Node000031_Node000035"><a xlink:title=" ">
<path fill="none" stroke="#63b8ff" d="M1829.8,-228.93C1853.67,-218.21 1886.51,-203.47 1911.1,-192.43"/>
<polygon fill="#63b8ff" stroke="#63b8ff" points="1828.59,-225.63 1820.9,-232.92 1831.46,-232.02 1828.59,-225.63"/>
</a>
</g>
</g>
<!-- Node35&#45;&gt;Node32 -->
<g id="edge53_Node000035_Node000032" class="edge">
<title>Node35&#45;&gt;Node32</title>
<g id="a_edge53_Node000035_Node000032"><a xlink:title=" ">
<path fill="none" stroke="#63b8ff" d="M1971.94,-152.57C1987.95,-139.01 2007.51,-122.44 2019.47,-112.31"/>
<polygon fill="#63b8ff" stroke="#63b8ff" points="1970.01,-149.62 1964.64,-158.75 1974.54,-154.96 1970.01,-149.62"/>
</a>
</g>
</g>
<!-- Node35&#45;&gt;Node33 -->
<g id="edge54_Node000035_Node000033" class="edge">
<title>Node35&#45;&gt;Node33</title>
<g id="a_edge54_Node000035_Node000033"><a xlink:title=" ">
<path fill="none" stroke="#63b8ff" d="M1919.29,-152.57C1903.47,-139.01 1884.15,-122.44 1872.33,-112.31"/>
<polygon fill="#63b8ff" stroke="#63b8ff" points="1916.63,-154.9 1926.5,-158.75 1921.18,-149.58 1916.63,-154.9"/>
</a>
</g>
</g>
</g>
</svg>
