<?xml version="1.0" encoding="UTF-8" standalone="no"?>
<!DOCTYPE svg PUBLIC "-//W3C//DTD SVG 1.1//EN"
 "http://www.w3.org/Graphics/SVG/1.1/DTD/svg11.dtd">
<!-- Generated by graphviz version 12.2.1 (20241206.2353)
 -->
<!-- Title: Tests/Support/AttributeBoxPlus.h Pages: 1 -->
<svg width="994pt" height="432pt"
 viewBox="0.00 0.00 993.75 432.00" xmlns="http://www.w3.org/2000/svg" xmlns:xlink="http://www.w3.org/1999/xlink">
<g id="graph0" class="graph" transform="scale(1 1) rotate(0) translate(4 428)">
<title>Tests/Support/AttributeBoxPlus.h</title>
<!-- Node1 -->
<g id="Node000001" class="node">
<title>Node1</title>
<g id="a_Node000001"><a xlink:title=" ">
<polygon fill="#999999" stroke="#666666" points="782.38,-424 648.62,-424 648.62,-392 782.38,-392 782.38,-424"/>
<text text-anchor="start" x="656.62" y="-410.5" font-family="Helvetica,sans-Serif" font-size="10.00">Tests/Support/AttributeBox</text>
<text text-anchor="middle" x="715.5" y="-398.5" font-family="Helvetica,sans-Serif" font-size="10.00">Plus.h</text>
</a>
</g>
</g>
<!-- Node2 -->
<g id="Node000002" class="node">
<title>Node2</title>
<g id="a_Node000002"><a xlink:href="_attribute_box_8h.html" target="_top" xlink:title=" ">
<polygon fill="white" stroke="#666666" points="701.62,-356 623.38,-356 623.38,-336 701.62,-336 701.62,-356"/>
<text text-anchor="middle" x="662.5" y="-342.5" font-family="Helvetica,sans-Serif" font-size="10.00">AttributeBox.h</text>
</a>
</g>
</g>
<!-- Node1&#45;&gt;Node2 -->
<g id="edge1_Node000001_Node000002" class="edge">
<title>Node1&#45;&gt;Node2</title>
<g id="a_edge1_Node000001_Node000002"><a xlink:title=" ">
<path fill="none" stroke="#63b8ff" d="M701.85,-391.55C694.64,-383.39 685.76,-373.33 678.26,-364.84"/>
<polygon fill="#63b8ff" stroke="#63b8ff" points="681.06,-362.72 671.81,-357.54 675.81,-367.35 681.06,-362.72"/>
</a>
</g>
</g>
<!-- Node30 -->
<g id="Node000030" class="node">
<title>Node30</title>
<g id="a_Node000030"><a xlink:title=" ">
<polygon fill="#e0e0e0" stroke="#999999" points="851,-244 772,-244 772,-224 851,-224 851,-244"/>
<text text-anchor="middle" x="811.5" y="-230.5" font-family="Helvetica,sans-Serif" font-size="10.00">CppUnitTest.h</text>
</a>
</g>
</g>
<!-- Node1&#45;&gt;Node30 -->
<g id="edge51_Node000001_Node000030" class="edge">
<title>Node1&#45;&gt;Node30</title>
<g id="a_edge51_Node000001_Node000030"><a xlink:title=" ">
<path fill="none" stroke="#63b8ff" d="M724.02,-391.74C741.58,-360.28 781.74,-288.32 800.92,-253.95"/>
<polygon fill="#63b8ff" stroke="#63b8ff" points="803.8,-255.97 805.62,-245.53 797.69,-252.56 803.8,-255.97"/>
</a>
</g>
</g>
<!-- Node3 -->
<g id="Node000003" class="node">
<title>Node3</title>
<g id="a_Node000003"><a xlink:href="_types_8h.html" target="_top" xlink:title=" ">
<polygon fill="white" stroke="#666666" points="689.62,-76 557.38,-76 557.38,-56 689.62,-56 689.62,-76"/>
<text text-anchor="middle" x="623.5" y="-62.5" font-family="Helvetica,sans-Serif" font-size="10.00">FIEAGameEngine/Types.h</text>
</a>
</g>
</g>
<!-- Node2&#45;&gt;Node3 -->
<g id="edge2_Node000002_Node000003" class="edge">
<title>Node2&#45;&gt;Node3</title>
<g id="a_edge2_Node000002_Node000003"><a xlink:title=" ">
<path fill="none" stroke="#63b8ff" d="M702.05,-342.47C764.64,-336.09 879.5,-313.67 879.5,-235 879.5,-235 879.5,-235 879.5,-177 879.5,-98.55 776.76,-75.35 701.46,-68.88"/>
<polygon fill="#63b8ff" stroke="#63b8ff" points="701.84,-65.4 691.6,-68.13 701.31,-72.38 701.84,-65.4"/>
</a>
</g>
</g>
<!-- Node12 -->
<g id="Node000012" class="node">
<title>Node12</title>
<g id="a_Node000012"><a xlink:href="_scope_8h.html" target="_top" xlink:title=" ">
<polygon fill="white" stroke="#666666" points="321.25,-244 231.75,-244 231.75,-224 321.25,-224 321.25,-244"/>
<text text-anchor="middle" x="276.5" y="-230.5" font-family="Helvetica,sans-Serif" font-size="10.00">Content/Scope.h</text>
</a>
</g>
</g>
<!-- Node2&#45;&gt;Node12 -->
<g id="edge11_Node000002_Node000012" class="edge">
<title>Node2&#45;&gt;Node12</title>
<g id="a_edge11_Node000002_Node000012"><a xlink:title=" ">
<path fill="none" stroke="#63b8ff" d="M629.26,-335.53C559.71,-315.71 398.86,-269.87 320.71,-247.6"/>
<polygon fill="#63b8ff" stroke="#63b8ff" points="321.83,-244.28 311.26,-244.9 319.91,-251.01 321.83,-244.28"/>
</a>
</g>
</g>
<!-- Node23 -->
<g id="Node000023" class="node">
<title>Node23</title>
<g id="a_Node000023"><a xlink:href="_factory_service_8h.html" target="_top" xlink:title=" ">
<polygon fill="white" stroke="#666666" points="231.5,-188 59.5,-188 59.5,-168 231.5,-168 231.5,-188"/>
<text text-anchor="middle" x="145.5" y="-174.5" font-family="Helvetica,sans-Serif" font-size="10.00">FIEAGameEngine/FactoryService.h</text>
</a>
</g>
</g>
<!-- Node2&#45;&gt;Node23 -->
<g id="edge49_Node000002_Node000023" class="edge">
<title>Node2&#45;&gt;Node23</title>
<g id="a_edge49_Node000002_Node000023"><a xlink:title=" ">
<path fill="none" stroke="#63b8ff" d="M623.07,-343.92C528.05,-340.84 288.87,-330.25 215.5,-300 178.99,-284.95 163.76,-279.53 146.5,-244 139.85,-230.31 139.93,-213 141.49,-199.68"/>
<polygon fill="#63b8ff" stroke="#63b8ff" points="144.94,-200.31 143.04,-189.89 138.02,-199.22 144.94,-200.31"/>
</a>
</g>
</g>
<!-- Node26 -->
<g id="Node000026" class="node">
<title>Node26</title>
<g id="a_Node000026"><a xlink:href="_attributed_8h.html" target="_top" xlink:title=" ">
<polygon fill="white" stroke="#666666" points="328.38,-300 224.62,-300 224.62,-280 328.38,-280 328.38,-300"/>
<text text-anchor="middle" x="276.5" y="-286.5" font-family="Helvetica,sans-Serif" font-size="10.00">Content/Attributed.h</text>
</a>
</g>
</g>
<!-- Node2&#45;&gt;Node26 -->
<g id="edge32_Node000002_Node000026" class="edge">
<title>Node2&#45;&gt;Node26</title>
<g id="a_edge32_Node000002_Node000026"><a xlink:title=" ">
<path fill="none" stroke="#63b8ff" d="M623.01,-339.47C556.11,-330.12 419.99,-311.07 339.71,-299.84"/>
<polygon fill="#63b8ff" stroke="#63b8ff" points="340.65,-296.44 330.26,-298.52 339.68,-303.37 340.65,-296.44"/>
</a>
</g>
</g>
<!-- Node28 -->
<g id="Node000028" class="node">
<title>Node28</title>
<g id="a_Node000028"><a xlink:href="_tests_8h.html" target="_top" xlink:title=" ">
<polygon fill="white" stroke="#666666" points="611.12,-300 553.88,-300 553.88,-280 611.12,-280 611.12,-300"/>
<text text-anchor="middle" x="582.5" y="-286.5" font-family="Helvetica,sans-Serif" font-size="10.00">../Tests.h</text>
</a>
</g>
</g>
<!-- Node2&#45;&gt;Node28 -->
<g id="edge37_Node000002_Node000028" class="edge">
<title>Node2&#45;&gt;Node28</title>
<g id="a_edge37_Node000002_Node000028"><a xlink:title=" ">
<path fill="none" stroke="#63b8ff" d="M648.57,-335.59C636.82,-327.67 619.77,-316.16 605.93,-306.82"/>
<polygon fill="#63b8ff" stroke="#63b8ff" points="608.04,-304.02 597.8,-301.33 604.13,-309.82 608.04,-304.02"/>
</a>
</g>
</g>
<!-- Node2&#45;&gt;Node30 -->
<g id="edge50_Node000002_Node000030" class="edge">
<title>Node2&#45;&gt;Node30</title>
<g id="a_edge50_Node000002_Node000030"><a xlink:title=" ">
<path fill="none" stroke="#63b8ff" d="M679.77,-335.59C695.11,-326.98 717.91,-313.56 736.5,-300 757.02,-285.03 778.77,-265.75 793.54,-252.09"/>
<polygon fill="#63b8ff" stroke="#63b8ff" points="795.74,-254.82 800.65,-245.43 790.96,-249.71 795.74,-254.82"/>
</a>
</g>
</g>
<!-- Node34 -->
<g id="Node000034" class="node">
<title>Node34</title>
<g id="a_Node000034"><a xlink:href="_foo_8h.html" target="_top" xlink:title=" ">
<polygon fill="white" stroke="#666666" points="727.88,-300 687.12,-300 687.12,-280 727.88,-280 727.88,-300"/>
<text text-anchor="middle" x="707.5" y="-286.5" font-family="Helvetica,sans-Serif" font-size="10.00">Foo.h</text>
</a>
</g>
</g>
<!-- Node2&#45;&gt;Node34 -->
<g id="edge45_Node000002_Node000034" class="edge">
<title>Node2&#45;&gt;Node34</title>
<g id="a_edge45_Node000002_Node000034"><a xlink:title=" ">
<path fill="none" stroke="#63b8ff" d="M670.34,-335.59C676.47,-328.24 685.17,-317.8 692.61,-308.87"/>
<polygon fill="#63b8ff" stroke="#63b8ff" points="695.07,-311.38 698.78,-301.46 689.69,-306.9 695.07,-311.38"/>
</a>
</g>
</g>
<!-- Node4 -->
<g id="Node000004" class="node">
<title>Node4</title>
<g id="a_Node000004"><a xlink:title=" ">
<polygon fill="#e0e0e0" stroke="#999999" points="985.75,-20 923.25,-20 923.25,0 985.75,0 985.75,-20"/>
<text text-anchor="middle" x="954.5" y="-6.5" font-family="Helvetica,sans-Serif" font-size="10.00">windows.h</text>
</a>
</g>
</g>
<!-- Node3&#45;&gt;Node4 -->
<g id="edge3_Node000003_Node000004" class="edge">
<title>Node3&#45;&gt;Node4</title>
<g id="a_edge3_Node000003_Node000004"><a xlink:title=" ">
<path fill="none" stroke="#63b8ff" d="M689.89,-56.04C746.41,-48.12 830.03,-35.7 911.83,-20.4"/>
<polygon fill="#63b8ff" stroke="#63b8ff" points="912.43,-23.85 921.61,-18.56 911.14,-16.97 912.43,-23.85"/>
</a>
</g>
</g>
<!-- Node5 -->
<g id="Node000005" class="node">
<title>Node5</title>
<g id="a_Node000005"><a xlink:title=" ">
<polygon fill="#e0e0e0" stroke="#999999" points="454.62,-20 406.38,-20 406.38,0 454.62,0 454.62,-20"/>
<text text-anchor="middle" x="430.5" y="-6.5" font-family="Helvetica,sans-Serif" font-size="10.00">cassert</text>
</a>
</g>
</g>
<!-- Node3&#45;&gt;Node5 -->
<g id="edge4_Node000003_Node000005" class="edge">
<title>Node3&#45;&gt;Node5</title>
<g id="a_edge4_Node000003_Node000005"><a xlink:title=" ">
<path fill="none" stroke="#63b8ff" d="M589.88,-55.59C555.09,-45.86 500.99,-30.72 465.64,-20.83"/>
<polygon fill="#63b8ff" stroke="#63b8ff" points="466.91,-17.55 456.33,-18.23 465.02,-24.29 466.91,-17.55"/>
</a>
</g>
</g>
<!-- Node6 -->
<g id="Node000006" class="node">
<title>Node6</title>
<g id="a_Node000006"><a xlink:title=" ">
<polygon fill="#e0e0e0" stroke="#999999" points="520.62,-20 472.38,-20 472.38,0 520.62,0 520.62,-20"/>
<text text-anchor="middle" x="496.5" y="-6.5" font-family="Helvetica,sans-Serif" font-size="10.00">cstddef</text>
</a>
</g>
</g>
<!-- Node3&#45;&gt;Node6 -->
<g id="edge5_Node000003_Node000006" class="edge">
<title>Node3&#45;&gt;Node6</title>
<g id="a_edge5_Node000003_Node000006"><a xlink:title=" ">
<path fill="none" stroke="#63b8ff" d="M601.38,-55.59C581.47,-47.13 551.95,-34.58 529.29,-24.94"/>
<polygon fill="#63b8ff" stroke="#63b8ff" points="530.76,-21.76 520.19,-21.07 528.02,-28.21 530.76,-21.76"/>
</a>
</g>
</g>
<!-- Node7 -->
<g id="Node000007" class="node">
<title>Node7</title>
<g id="a_Node000007"><a xlink:title=" ">
<polygon fill="#e0e0e0" stroke="#999999" points="584.12,-20 538.88,-20 538.88,0 584.12,0 584.12,-20"/>
<text text-anchor="middle" x="561.5" y="-6.5" font-family="Helvetica,sans-Serif" font-size="10.00">cstdint</text>
</a>
</g>
</g>
<!-- Node3&#45;&gt;Node7 -->
<g id="edge6_Node000003_Node000007" class="edge">
<title>Node3&#45;&gt;Node7</title>
<g id="a_edge6_Node000003_Node000007"><a xlink:title=" ">
<path fill="none" stroke="#63b8ff" d="M612.7,-55.59C603.9,-47.93 591.25,-36.91 580.73,-27.75"/>
<polygon fill="#63b8ff" stroke="#63b8ff" points="583.16,-25.22 573.32,-21.29 578.56,-30.5 583.16,-25.22"/>
</a>
</g>
</g>
<!-- Node8 -->
<g id="Node000008" class="node">
<title>Node8</title>
<g id="a_Node000008"><a xlink:title=" ">
<polygon fill="#e0e0e0" stroke="#999999" points="654.88,-20 602.12,-20 602.12,0 654.88,0 654.88,-20"/>
<text text-anchor="middle" x="628.5" y="-6.5" font-family="Helvetica,sans-Serif" font-size="10.00">cstdbool</text>
</a>
</g>
</g>
<!-- Node3&#45;&gt;Node8 -->
<g id="edge7_Node000003_Node000008" class="edge">
<title>Node3&#45;&gt;Node8</title>
<g id="a_edge7_Node000003_Node000008"><a xlink:title=" ">
<path fill="none" stroke="#63b8ff" d="M624.37,-55.59C624.98,-49.01 625.82,-39.96 626.58,-31.73"/>
<polygon fill="#63b8ff" stroke="#63b8ff" points="630.06,-32.09 627.5,-21.81 623.09,-31.44 630.06,-32.09"/>
</a>
</g>
</g>
<!-- Node9 -->
<g id="Node000009" class="node">
<title>Node9</title>
<g id="a_Node000009"><a xlink:title=" ">
<polygon fill="#e0e0e0" stroke="#999999" points="388.5,-20 348.5,-20 348.5,0 388.5,0 388.5,-20"/>
<text text-anchor="middle" x="368.5" y="-6.5" font-family="Helvetica,sans-Serif" font-size="10.00">string</text>
</a>
</g>
</g>
<!-- Node3&#45;&gt;Node9 -->
<g id="edge8_Node000003_Node000009" class="edge">
<title>Node3&#45;&gt;Node9</title>
<g id="a_edge8_Node000003_Node000009"><a xlink:title=" ">
<path fill="none" stroke="#63b8ff" d="M567.41,-55.51C523.97,-47.79 462.11,-35.96 399.56,-20.32"/>
<polygon fill="#63b8ff" stroke="#63b8ff" points="400.73,-17 390.17,-17.94 399.01,-23.79 400.73,-17"/>
</a>
</g>
</g>
<!-- Node10 -->
<g id="Node000010" class="node">
<title>Node10</title>
<g id="a_Node000010"><a xlink:title=" ">
<polygon fill="#e0e0e0" stroke="#999999" points="727.62,-20 673.38,-20 673.38,0 727.62,0 727.62,-20"/>
<text text-anchor="middle" x="700.5" y="-6.5" font-family="Helvetica,sans-Serif" font-size="10.00">crtdefs.h</text>
</a>
</g>
</g>
<!-- Node3&#45;&gt;Node10 -->
<g id="edge9_Node000003_Node000010" class="edge">
<title>Node3&#45;&gt;Node10</title>
<g id="a_edge9_Node000003_Node000010"><a xlink:title=" ">
<path fill="none" stroke="#63b8ff" d="M636.91,-55.59C648.11,-47.74 664.31,-36.38 677.56,-27.09"/>
<polygon fill="#63b8ff" stroke="#63b8ff" points="679.57,-29.96 685.74,-21.35 675.55,-24.22 679.57,-29.96"/>
</a>
</g>
</g>
<!-- Node11 -->
<g id="Node000011" class="node">
<title>Node11</title>
<g id="a_Node000011"><a xlink:title=" ">
<polygon fill="#e0e0e0" stroke="#999999" points="905.5,-20 745.5,-20 745.5,0 905.5,0 905.5,-20"/>
<text text-anchor="middle" x="825.5" y="-6.5" font-family="Helvetica,sans-Serif" font-size="10.00">../src/memory/SystemAllocator.h</text>
</a>
</g>
</g>
<!-- Node3&#45;&gt;Node11 -->
<g id="edge10_Node000003_Node000011" class="edge">
<title>Node3&#45;&gt;Node11</title>
<g id="a_edge10_Node000003_Node000011"><a xlink:title=" ">
<path fill="none" stroke="#63b8ff" d="M658.69,-55.59C692.08,-46.67 742.48,-33.19 779.14,-23.39"/>
<polygon fill="#63b8ff" stroke="#63b8ff" points="779.82,-26.83 788.58,-20.87 778.01,-20.07 779.82,-26.83"/>
</a>
</g>
</g>
<!-- Node13 -->
<g id="Node000013" class="node">
<title>Node13</title>
<g id="a_Node000013"><a xlink:href="_r_t_t_i_8h.html" target="_top" xlink:title=" ">
<polygon fill="white" stroke="#666666" points="529.38,-132 401.62,-132 401.62,-112 529.38,-112 529.38,-132"/>
<text text-anchor="middle" x="465.5" y="-118.5" font-family="Helvetica,sans-Serif" font-size="10.00">FIEAGameEngine/RTTI.h</text>
</a>
</g>
</g>
<!-- Node12&#45;&gt;Node13 -->
<g id="edge12_Node000012_Node000013" class="edge">
<title>Node12&#45;&gt;Node13</title>
<g id="a_edge12_Node000012_Node000013"><a xlink:title=" ">
<path fill="none" stroke="#63b8ff" d="M292.61,-223.62C325.39,-204.54 400.08,-161.08 439.7,-138.02"/>
<polygon fill="#63b8ff" stroke="#63b8ff" points="441.24,-141.17 448.12,-133.12 437.72,-135.12 441.24,-141.17"/>
</a>
</g>
</g>
<!-- Node15 -->
<g id="Node000015" class="node">
<title>Node15</title>
<g id="a_Node000015"><a xlink:href="_datum_8h.html" target="_top" xlink:title=" ">
<polygon fill="#fff0f0" stroke="red" points="341.25,-188 287.75,-188 287.75,-168 341.25,-168 341.25,-188"/>
<text text-anchor="middle" x="314.5" y="-174.5" font-family="Helvetica,sans-Serif" font-size="10.00">Datum.h</text>
</a>
</g>
</g>
<!-- Node12&#45;&gt;Node15 -->
<g id="edge16_Node000012_Node000015" class="edge">
<title>Node12&#45;&gt;Node15</title>
<g id="a_edge16_Node000012_Node000015"><a xlink:title=" ">
<path fill="none" stroke="#63b8ff" d="M283.12,-223.59C288.19,-216.39 295.34,-206.23 301.53,-197.43"/>
<polygon fill="#63b8ff" stroke="#63b8ff" points="304.19,-199.73 307.09,-189.54 298.47,-195.7 304.19,-199.73"/>
</a>
</g>
</g>
<!-- Node20 -->
<g id="Node000020" class="node">
<title>Node20</title>
<g id="a_Node000020"><a xlink:title=" ">
<polygon fill="#e0e0e0" stroke="#999999" points="43,-76 0,-76 0,-56 43,-56 43,-76"/>
<text text-anchor="middle" x="21.5" y="-62.5" font-family="Helvetica,sans-Serif" font-size="10.00">vector</text>
</a>
</g>
</g>
<!-- Node12&#45;&gt;Node20 -->
<g id="edge19_Node000012_Node000020" class="edge">
<title>Node12&#45;&gt;Node20</title>
<g id="a_edge19_Node000012_Node000020"><a xlink:title=" ">
<path fill="none" stroke="#63b8ff" d="M231.35,-225.29C167.3,-214.17 57.02,-194.28 50.5,-188 23.21,-161.74 19.7,-114.7 20.19,-87.66"/>
<polygon fill="#63b8ff" stroke="#63b8ff" points="23.69,-87.82 20.61,-77.68 16.7,-87.52 23.69,-87.82"/>
</a>
</g>
</g>
<!-- Node21 -->
<g id="Node000021" class="node">
<title>Node21</title>
<g id="a_Node000021"><a xlink:title=" ">
<polygon fill="#e0e0e0" stroke="#999999" points="262.88,-76 180.12,-76 180.12,-56 262.88,-56 262.88,-76"/>
<text text-anchor="middle" x="221.5" y="-62.5" font-family="Helvetica,sans-Serif" font-size="10.00">unordered_map</text>
</a>
</g>
</g>
<!-- Node12&#45;&gt;Node21 -->
<g id="edge20_Node000012_Node000021" class="edge">
<title>Node12&#45;&gt;Node21</title>
<g id="a_edge20_Node000012_Node000021"><a xlink:title=" ">
<path fill="none" stroke="#63b8ff" d="M273.39,-223.6C264.69,-197.35 240,-122.84 228.09,-86.89"/>
<polygon fill="#63b8ff" stroke="#63b8ff" points="231.52,-86.13 225.06,-77.73 224.88,-88.33 231.52,-86.13"/>
</a>
</g>
</g>
<!-- Node22 -->
<g id="Node000022" class="node">
<title>Node22</title>
<g id="a_Node000022"><a xlink:title=" ">
<polygon fill="#e0e0e0" stroke="#999999" points="431.88,-188 397.12,-188 397.12,-168 431.88,-168 431.88,-188"/>
<text text-anchor="middle" x="414.5" y="-174.5" font-family="Helvetica,sans-Serif" font-size="10.00">map</text>
</a>
</g>
</g>
<!-- Node12&#45;&gt;Node22 -->
<g id="edge21_Node000012_Node000022" class="edge">
<title>Node12&#45;&gt;Node22</title>
<g id="a_edge21_Node000012_Node000022"><a xlink:title=" ">
<path fill="none" stroke="#63b8ff" d="M300.54,-223.59C324.38,-214.27 360.9,-199.97 386.15,-190.1"/>
<polygon fill="#63b8ff" stroke="#63b8ff" points="387.42,-193.36 395.46,-186.45 384.87,-186.84 387.42,-193.36"/>
</a>
</g>
</g>
<!-- Node12&#45;&gt;Node23 -->
<g id="edge22_Node000012_Node000023" class="edge">
<title>Node12&#45;&gt;Node23</title>
<g id="a_edge22_Node000012_Node000023"><a xlink:title=" ">
<path fill="none" stroke="#63b8ff" d="M253.68,-223.59C233.05,-215.09 202.42,-202.46 179.01,-192.81"/>
<polygon fill="#63b8ff" stroke="#63b8ff" points="180.48,-189.63 169.9,-189.06 177.81,-196.1 180.48,-189.63"/>
</a>
</g>
</g>
<!-- Node13&#45;&gt;Node3 -->
<g id="edge13_Node000013_Node000003" class="edge">
<title>Node13&#45;&gt;Node3</title>
<g id="a_edge13_Node000013_Node000003"><a xlink:title=" ">
<path fill="none" stroke="#63b8ff" d="M493.02,-111.59C518.47,-102.9 556.53,-89.89 584.99,-80.16"/>
<polygon fill="#63b8ff" stroke="#63b8ff" points="586,-83.52 594.33,-76.97 583.74,-76.89 586,-83.52"/>
</a>
</g>
</g>
<!-- Node14 -->
<g id="Node000014" class="node">
<title>Node14</title>
<g id="a_Node000014"><a xlink:href="_r_t_t_i_8inl.html" target="_top" xlink:title=" ">
<polygon fill="white" stroke="#666666" points="529.75,-76 401.25,-76 401.25,-56 529.75,-56 529.75,-76"/>
<text text-anchor="middle" x="465.5" y="-62.5" font-family="Helvetica,sans-Serif" font-size="10.00">FieaGameEngine/RTTI.inl</text>
</a>
</g>
</g>
<!-- Node13&#45;&gt;Node14 -->
<g id="edge14_Node000013_Node000014" class="edge">
<title>Node13&#45;&gt;Node14</title>
<g id="a_edge14_Node000013_Node000014"><a xlink:title=" ">
<path fill="none" stroke="#63b8ff" d="M460.23,-111.59C458.92,-105.01 458.48,-95.96 458.91,-87.73"/>
<polygon fill="#63b8ff" stroke="#63b8ff" points="462.39,-88.14 460.08,-77.8 455.44,-87.33 462.39,-88.14"/>
</a>
</g>
</g>
<!-- Node14&#45;&gt;Node13 -->
<g id="edge15_Node000014_Node000013" class="edge">
<title>Node14&#45;&gt;Node13</title>
<g id="a_edge15_Node000014_Node000013"><a xlink:title=" ">
<path fill="none" stroke="#63b8ff" d="M470.75,-76.3C472.09,-82.93 472.53,-92.11 472.08,-100.43"/>
<polygon fill="#63b8ff" stroke="#63b8ff" points="468.63,-99.75 470.94,-110.09 475.58,-100.57 468.63,-99.75"/>
</a>
</g>
</g>
<!-- Node15&#45;&gt;Node9 -->
<g id="edge17_Node000015_Node000009" class="edge">
<title>Node15&#45;&gt;Node9</title>
<g id="a_edge17_Node000015_Node000009"><a xlink:title=" ">
<path fill="none" stroke="#63b8ff" d="M317.56,-167.6C326.1,-141.35 350.34,-66.84 362.03,-30.89"/>
<polygon fill="#63b8ff" stroke="#63b8ff" points="365.24,-32.33 365.01,-21.74 358.59,-30.16 365.24,-32.33"/>
</a>
</g>
</g>
<!-- Node15&#45;&gt;Node13 -->
<g id="edge18_Node000015_Node000013" class="edge">
<title>Node15&#45;&gt;Node13</title>
<g id="a_edge18_Node000015_Node000013"><a xlink:title=" ">
<path fill="none" stroke="#63b8ff" d="M340.8,-167.59C365.01,-158.94 401.18,-146 428.34,-136.29"/>
<polygon fill="#63b8ff" stroke="#63b8ff" points="429.33,-139.65 437.57,-132.99 426.97,-133.06 429.33,-139.65"/>
</a>
</g>
</g>
<!-- Node23&#45;&gt;Node3 -->
<g id="edge23_Node000023_Node000003" class="edge">
<title>Node23&#45;&gt;Node3</title>
<g id="a_edge23_Node000023_Node000003"><a xlink:title=" ">
<path fill="none" stroke="#63b8ff" d="M180.39,-167.52C238.31,-151.83 351.98,-121.27 392.5,-112 448.25,-99.25 512.08,-86.99 558.5,-78.5"/>
<polygon fill="#63b8ff" stroke="#63b8ff" points="558.91,-81.98 568.13,-76.74 557.66,-75.09 558.91,-81.98"/>
</a>
</g>
</g>
<!-- Node23&#45;&gt;Node9 -->
<g id="edge29_Node000023_Node000009" class="edge">
<title>Node23&#45;&gt;Node9</title>
<g id="a_edge29_Node000023_Node000009"><a xlink:title=" ">
<path fill="none" stroke="#63b8ff" d="M163.18,-167.55C178.9,-158.91 202.29,-145.47 221.5,-132 269.92,-98.04 322.45,-52.45 349.71,-28.07"/>
<polygon fill="#63b8ff" stroke="#63b8ff" points="352.03,-30.69 357.12,-21.4 347.35,-25.49 352.03,-30.69"/>
</a>
</g>
</g>
<!-- Node23&#45;&gt;Node13 -->
<g id="edge24_Node000023_Node000013" class="edge">
<title>Node23&#45;&gt;Node13</title>
<g id="a_edge24_Node000023_Node000013"><a xlink:title=" ">
<path fill="none" stroke="#63b8ff" d="M201.61,-167.53C256.39,-158.29 339.8,-144.21 398.14,-134.37"/>
<polygon fill="#63b8ff" stroke="#63b8ff" points="398.69,-137.82 407.97,-132.71 397.52,-130.92 398.69,-137.82"/>
</a>
</g>
</g>
<!-- Node23&#45;&gt;Node21 -->
<g id="edge31_Node000023_Node000021" class="edge">
<title>Node23&#45;&gt;Node21</title>
<g id="a_edge31_Node000023_Node000021"><a xlink:title=" ">
<path fill="none" stroke="#63b8ff" d="M162.59,-167.5C175.35,-159.58 192.28,-147.16 202.5,-132 211.56,-118.57 216.37,-100.76 218.88,-87.18"/>
<polygon fill="#63b8ff" stroke="#63b8ff" points="222.29,-88.06 220.37,-77.64 215.37,-86.99 222.29,-88.06"/>
</a>
</g>
</g>
<!-- Node24 -->
<g id="Node000024" class="node">
<title>Node24</title>
<g id="a_Node000024"><a xlink:href="_service_mgr_8h.html" target="_top" xlink:title=" ">
<polygon fill="white" stroke="#666666" points="193.38,-132 119.62,-132 119.62,-112 193.38,-112 193.38,-132"/>
<text text-anchor="middle" x="156.5" y="-118.5" font-family="Helvetica,sans-Serif" font-size="10.00">ServiceMgr.h</text>
</a>
</g>
</g>
<!-- Node23&#45;&gt;Node24 -->
<g id="edge25_Node000023_Node000024" class="edge">
<title>Node23&#45;&gt;Node24</title>
<g id="a_edge25_Node000023_Node000024"><a xlink:title=" ">
<path fill="none" stroke="#63b8ff" d="M147.42,-167.59C148.77,-160.93 150.64,-151.75 152.34,-143.44"/>
<polygon fill="#63b8ff" stroke="#63b8ff" points="155.74,-144.28 154.3,-133.78 148.88,-142.88 155.74,-144.28"/>
</a>
</g>
</g>
<!-- Node25 -->
<g id="Node000025" class="node">
<title>Node25</title>
<g id="a_Node000025"><a xlink:title=" ">
<polygon fill="#e0e0e0" stroke="#999999" points="101.12,-132 49.88,-132 49.88,-112 101.12,-112 101.12,-132"/>
<text text-anchor="middle" x="75.5" y="-118.5" font-family="Helvetica,sans-Serif" font-size="10.00">memory</text>
</a>
</g>
</g>
<!-- Node23&#45;&gt;Node25 -->
<g id="edge30_Node000023_Node000025" class="edge">
<title>Node23&#45;&gt;Node25</title>
<g id="a_edge30_Node000023_Node000025"><a xlink:title=" ">
<path fill="none" stroke="#63b8ff" d="M133.31,-167.59C123.17,-159.77 108.51,-148.46 96.49,-139.19"/>
<polygon fill="#63b8ff" stroke="#63b8ff" points="98.81,-136.56 88.75,-133.22 94.53,-142.1 98.81,-136.56"/>
</a>
</g>
</g>
<!-- Node24&#45;&gt;Node3 -->
<g id="edge26_Node000024_Node000003" class="edge">
<title>Node24&#45;&gt;Node3</title>
<g id="a_edge26_Node000024_Node000003"><a xlink:title=" ">
<path fill="none" stroke="#63b8ff" d="M193.54,-116.72C269.43,-107.94 444.03,-87.75 545.86,-75.98"/>
<polygon fill="#63b8ff" stroke="#63b8ff" points="545.96,-79.49 555.49,-74.86 545.16,-72.54 545.96,-79.49"/>
</a>
</g>
</g>
<!-- Node24&#45;&gt;Node20 -->
<g id="edge27_Node000024_Node000020" class="edge">
<title>Node24&#45;&gt;Node20</title>
<g id="a_edge27_Node000024_Node000020"><a xlink:title=" ">
<path fill="none" stroke="#63b8ff" d="M132.98,-111.59C111.1,-102.84 78.3,-89.72 53.94,-79.97"/>
<polygon fill="#63b8ff" stroke="#63b8ff" points="55.4,-76.79 44.81,-76.32 52.8,-83.29 55.4,-76.79"/>
</a>
</g>
</g>
<!-- Node24&#45;&gt;Node21 -->
<g id="edge28_Node000024_Node000021" class="edge">
<title>Node24&#45;&gt;Node21</title>
<g id="a_edge28_Node000024_Node000021"><a xlink:title=" ">
<path fill="none" stroke="#63b8ff" d="M167.82,-111.59C177.14,-103.85 190.58,-92.69 201.68,-83.47"/>
<polygon fill="#63b8ff" stroke="#63b8ff" points="203.69,-86.35 209.14,-77.27 199.21,-80.96 203.69,-86.35"/>
</a>
</g>
</g>
<!-- Node26&#45;&gt;Node12 -->
<g id="edge34_Node000026_Node000012" class="edge">
<title>Node26&#45;&gt;Node12</title>
<g id="a_edge34_Node000026_Node000012"><a xlink:title=" ">
<path fill="none" stroke="#63b8ff" d="M276.5,-279.59C276.5,-273.01 276.5,-263.96 276.5,-255.73"/>
<polygon fill="#63b8ff" stroke="#63b8ff" points="280,-255.81 276.5,-245.81 273,-255.81 280,-255.81"/>
</a>
</g>
</g>
<!-- Node26&#45;&gt;Node13 -->
<g id="edge33_Node000026_Node000013" class="edge">
<title>Node26&#45;&gt;Node13</title>
<g id="a_edge33_Node000026_Node000013"><a xlink:title=" ">
<path fill="none" stroke="#63b8ff" d="M288.6,-279.55C305.82,-266.32 338.63,-241.88 368.5,-224 399.2,-205.63 416.45,-214.49 440.5,-188 451.94,-175.4 458.36,-157 461.82,-142.99"/>
<polygon fill="#63b8ff" stroke="#63b8ff" points="465.17,-144.06 463.83,-133.55 458.32,-142.6 465.17,-144.06"/>
</a>
</g>
</g>
<!-- Node26&#45;&gt;Node20 -->
<g id="edge35_Node000026_Node000020" class="edge">
<title>Node26&#45;&gt;Node20</title>
<g id="a_edge35_Node000026_Node000020"><a xlink:title=" ">
<path fill="none" stroke="#63b8ff" d="M224.13,-281.94C168.01,-271.51 80.53,-246.44 32.5,-188 9.25,-159.71 12.47,-114.15 16.96,-87.75"/>
<polygon fill="#63b8ff" stroke="#63b8ff" points="20.39,-88.46 18.86,-77.97 13.51,-87.12 20.39,-88.46"/>
</a>
</g>
</g>
<!-- Node27 -->
<g id="Node000027" class="node">
<title>Node27</title>
<g id="a_Node000027"><a xlink:title=" ">
<polygon fill="#e0e0e0" stroke="#999999" points="213.5,-244 155.5,-244 155.5,-224 213.5,-224 213.5,-244"/>
<text text-anchor="middle" x="184.5" y="-230.5" font-family="Helvetica,sans-Serif" font-size="10.00">functional</text>
</a>
</g>
</g>
<!-- Node26&#45;&gt;Node27 -->
<g id="edge36_Node000026_Node000027" class="edge">
<title>Node26&#45;&gt;Node27</title>
<g id="a_edge36_Node000026_Node000027"><a xlink:title=" ">
<path fill="none" stroke="#63b8ff" d="M260.47,-279.59C246.71,-271.51 226.6,-259.71 210.52,-250.27"/>
<polygon fill="#63b8ff" stroke="#63b8ff" points="212.35,-247.29 201.96,-245.25 208.81,-253.33 212.35,-247.29"/>
</a>
</g>
</g>
<!-- Node28&#45;&gt;Node3 -->
<g id="edge40_Node000028_Node000003" class="edge">
<title>Node28&#45;&gt;Node3</title>
<g id="a_edge40_Node000028_Node000003"><a xlink:title=" ">
<path fill="none" stroke="#63b8ff" d="M606.6,-279.6C621.61,-272.33 639.69,-260.68 648.5,-244 675.99,-191.99 649.06,-119.95 633.23,-86.06"/>
<polygon fill="#63b8ff" stroke="#63b8ff" points="636.57,-84.93 629.05,-77.48 630.28,-88 636.57,-84.93"/>
</a>
</g>
</g>
<!-- Node28&#45;&gt;Node13 -->
<g id="edge44_Node000028_Node000013" class="edge">
<title>Node28&#45;&gt;Node13</title>
<g id="a_edge44_Node000028_Node000013"><a xlink:title=" ">
<path fill="none" stroke="#63b8ff" d="M562.92,-279.57C548.45,-271.76 529.14,-259.46 516.5,-244 491.57,-213.52 477.06,-169.08 470.26,-143.4"/>
<polygon fill="#63b8ff" stroke="#63b8ff" points="473.71,-142.77 467.9,-133.91 466.92,-144.46 473.71,-142.77"/>
</a>
</g>
</g>
<!-- Node29 -->
<g id="Node000029" class="node">
<title>Node29</title>
<g id="a_Node000029"><a xlink:title=" ">
<polygon fill="#e0e0e0" stroke="#999999" points="573.62,-244 525.38,-244 525.38,-224 573.62,-224 573.62,-244"/>
<text text-anchor="middle" x="549.5" y="-230.5" font-family="Helvetica,sans-Serif" font-size="10.00">excpt.h</text>
</a>
</g>
</g>
<!-- Node28&#45;&gt;Node29 -->
<g id="edge38_Node000028_Node000029" class="edge">
<title>Node28&#45;&gt;Node29</title>
<g id="a_edge38_Node000028_Node000029"><a xlink:title=" ">
<path fill="none" stroke="#63b8ff" d="M576.75,-279.59C572.45,-272.55 566.41,-262.67 561.11,-254"/>
<polygon fill="#63b8ff" stroke="#63b8ff" points="564.17,-252.3 555.97,-245.59 558.2,-255.95 564.17,-252.3"/>
</a>
</g>
</g>
<!-- Node28&#45;&gt;Node30 -->
<g id="edge39_Node000028_Node000030" class="edge">
<title>Node28&#45;&gt;Node30</title>
<g id="a_edge39_Node000028_Node000030"><a xlink:title=" ">
<path fill="none" stroke="#63b8ff" d="M611.5,-282.16C648.89,-273.34 714.54,-257.86 760.39,-247.05"/>
<polygon fill="#63b8ff" stroke="#63b8ff" points="761.19,-250.46 770.12,-244.76 759.58,-243.65 761.19,-250.46"/>
</a>
</g>
</g>
<!-- Node31 -->
<g id="Node000031" class="node">
<title>Node31</title>
<g id="a_Node000031"><a xlink:title=" ">
<polygon fill="#e0e0e0" stroke="#999999" points="639.62,-244 591.38,-244 591.38,-224 639.62,-224 639.62,-244"/>
<text text-anchor="middle" x="615.5" y="-230.5" font-family="Helvetica,sans-Serif" font-size="10.00">string.h</text>
</a>
</g>
</g>
<!-- Node28&#45;&gt;Node31 -->
<g id="edge41_Node000028_Node000031" class="edge">
<title>Node28&#45;&gt;Node31</title>
<g id="a_edge41_Node000028_Node000031"><a xlink:title=" ">
<path fill="none" stroke="#63b8ff" d="M588.25,-279.59C592.55,-272.55 598.59,-262.67 603.89,-254"/>
<polygon fill="#63b8ff" stroke="#63b8ff" points="606.8,-255.95 609.03,-245.59 600.83,-252.3 606.8,-255.95"/>
</a>
</g>
</g>
<!-- Node32 -->
<g id="Node000032" class="node">
<title>Node32</title>
<g id="a_Node000032"><a xlink:title=" ">
<polygon fill="#e0e0e0" stroke="#999999" points="405.9,-244 377.1,-244 377.1,-224 405.9,-224 405.9,-244"/>
<text text-anchor="middle" x="391.5" y="-230.5" font-family="Helvetica,sans-Serif" font-size="10.00">list</text>
</a>
</g>
</g>
<!-- Node28&#45;&gt;Node32 -->
<g id="edge42_Node000028_Node000032" class="edge">
<title>Node28&#45;&gt;Node32</title>
<g id="a_edge42_Node000028_Node000032"><a xlink:title=" ">
<path fill="none" stroke="#63b8ff" d="M553.38,-282.24C521.82,-274.7 469.81,-261.61 416.94,-244.54"/>
<polygon fill="#63b8ff" stroke="#63b8ff" points="418.04,-241.22 407.45,-241.43 415.86,-247.87 418.04,-241.22"/>
</a>
</g>
</g>
<!-- Node33 -->
<g id="Node000033" class="node">
<title>Node33</title>
<g id="a_Node000033"><a xlink:title=" ">
<polygon fill="#e0e0e0" stroke="#999999" points="469.5,-244 423.5,-244 423.5,-224 469.5,-224 469.5,-244"/>
<text text-anchor="middle" x="446.5" y="-230.5" font-family="Helvetica,sans-Serif" font-size="10.00">iterator</text>
</a>
</g>
</g>
<!-- Node28&#45;&gt;Node33 -->
<g id="edge43_Node000028_Node000033" class="edge">
<title>Node28&#45;&gt;Node33</title>
<g id="a_edge43_Node000028_Node000033"><a xlink:title=" ">
<path fill="none" stroke="#63b8ff" d="M558.81,-279.59C537.16,-271 504.91,-258.19 480.51,-248.5"/>
<polygon fill="#63b8ff" stroke="#63b8ff" points="481.91,-245.29 471.32,-244.86 479.33,-251.8 481.91,-245.29"/>
</a>
</g>
</g>
<!-- Node34&#45;&gt;Node3 -->
<g id="edge46_Node000034_Node000003" class="edge">
<title>Node34&#45;&gt;Node3</title>
<g id="a_edge46_Node000034_Node000003"><a xlink:title=" ">
<path fill="none" stroke="#63b8ff" d="M706.55,-279.64C703.47,-252.38 692.16,-171.21 661.5,-112 656.36,-102.08 648.69,-92.43 641.58,-84.63"/>
<polygon fill="#63b8ff" stroke="#63b8ff" points="644.18,-82.29 634.73,-77.5 639.14,-87.14 644.18,-82.29"/>
</a>
</g>
</g>
<!-- Node34&#45;&gt;Node13 -->
<g id="edge47_Node000034_Node000013" class="edge">
<title>Node34&#45;&gt;Node13</title>
<g id="a_edge47_Node000034_Node000013"><a xlink:title=" ">
<path fill="none" stroke="#63b8ff" d="M700.68,-279.71C690.45,-266.24 670.02,-241.01 648.5,-224 600.36,-185.94 535.97,-154.09 497.8,-136.86"/>
<polygon fill="#63b8ff" stroke="#63b8ff" points="499.71,-133.87 489.15,-133 496.86,-140.27 499.71,-133.87"/>
</a>
</g>
</g>
<!-- Node34&#45;&gt;Node30 -->
<g id="edge48_Node000034_Node000030" class="edge">
<title>Node34&#45;&gt;Node30</title>
<g id="a_edge48_Node000034_Node000030"><a xlink:title=" ">
<path fill="none" stroke="#63b8ff" d="M725.62,-279.59C741.47,-271.36 764.78,-259.26 783.12,-249.74"/>
<polygon fill="#63b8ff" stroke="#63b8ff" points="784.64,-252.89 791.9,-245.18 781.41,-246.68 784.64,-252.89"/>
</a>
</g>
</g>
</g>
</svg>
