<?xml version="1.0" encoding="UTF-8" standalone="no"?>
<!DOCTYPE svg PUBLIC "-//W3C//DTD SVG 1.1//EN"
 "http://www.w3.org/Graphics/SVG/1.1/DTD/svg11.dtd">
<!-- Generated by graphviz version 12.2.1 (20241206.2353)
 -->
<!-- Title: Tests/Support/AttributeBox.h Pages: 1 -->
<svg width="582pt" height="164pt"
 viewBox="0.00 0.00 582.09 164.00" xmlns="http://www.w3.org/2000/svg" xmlns:xlink="http://www.w3.org/1999/xlink">
<g id="graph0" class="graph" transform="scale(1 1) rotate(0) translate(4 160)">
<title>Tests/Support/AttributeBox.h</title>
<!-- Node1 -->
<g id="Node000001" class="node">
<title>Node1</title>
<g id="a_Node000001"><a xlink:title=" ">
<polygon fill="#999999" stroke="#666666" points="389.88,-156 247.88,-156 247.88,-136 389.88,-136 389.88,-156"/>
<text text-anchor="middle" x="318.88" y="-142.5" font-family="Helvetica,sans-Serif" font-size="10.00">Tests/Support/AttributeBox.h</text>
</a>
</g>
</g>
<!-- Node2 -->
<g id="Node000002" class="node">
<title>Node2</title>
<g id="a_Node000002"><a xlink:href="_attribute_box_tests_8cpp.html" target="_top" xlink:title=" ">
<polygon fill="white" stroke="#666666" points="139.75,-26 0,-26 0,-6 139.75,-6 139.75,-26"/>
<text text-anchor="middle" x="69.88" y="-12.5" font-family="Helvetica,sans-Serif" font-size="10.00">Tests/AttributeBoxTests.cpp</text>
</a>
</g>
</g>
<!-- Node1&#45;&gt;Node2 -->
<g id="edge1_Node000001_Node000002" class="edge">
<title>Node1&#45;&gt;Node2</title>
<g id="a_edge1_Node000001_Node000002"><a xlink:title=" ">
<path fill="none" stroke="#63b8ff" d="M236.17,-138.26C179.06,-131.91 109.77,-120.24 88.88,-100 68.49,-80.25 67.99,-43.44 69.02,-26.27"/>
<polygon fill="#63b8ff" stroke="#63b8ff" points="235.6,-141.72 245.91,-139.31 236.34,-134.76 235.6,-141.72"/>
</a>
</g>
</g>
<!-- Node3 -->
<g id="Node000003" class="node">
<title>Node3</title>
<g id="a_Node000003"><a xlink:href="_attributed_test_8cpp.html" target="_top" xlink:title=" ">
<polygon fill="white" stroke="#666666" points="540.12,-26 417.62,-26 417.62,-6 540.12,-6 540.12,-26"/>
<text text-anchor="middle" x="478.88" y="-12.5" font-family="Helvetica,sans-Serif" font-size="10.00">Tests/AttributedTest.cpp</text>
</a>
</g>
</g>
<!-- Node1&#45;&gt;Node3 -->
<g id="edge2_Node000001_Node000003" class="edge">
<title>Node1&#45;&gt;Node3</title>
<g id="a_edge2_Node000001_Node000003"><a xlink:title=" ">
<path fill="none" stroke="#63b8ff" d="M401.65,-141.18C465.67,-136.28 546.85,-125.16 567.88,-100 576.99,-89.09 575.01,-80.31 567.88,-68 555.82,-47.2 531.73,-34.15 511.65,-26.47"/>
<polygon fill="#63b8ff" stroke="#63b8ff" points="401.55,-137.68 391.82,-141.89 402.05,-144.66 401.55,-137.68"/>
</a>
</g>
</g>
<!-- Node4 -->
<g id="Node000004" class="node">
<title>Node4</title>
<g id="a_Node000004"><a xlink:href="_serialization_tests_8cpp.html" target="_top" xlink:title=" ">
<polygon fill="white" stroke="#666666" points="388.38,-94 249.38,-94 249.38,-74 388.38,-74 388.38,-94"/>
<text text-anchor="middle" x="318.88" y="-80.5" font-family="Helvetica,sans-Serif" font-size="10.00">Tests/SerializationTests.cpp</text>
</a>
</g>
</g>
<!-- Node1&#45;&gt;Node4 -->
<g id="edge3_Node000001_Node000004" class="edge">
<title>Node1&#45;&gt;Node4</title>
<g id="a_edge3_Node000001_Node000004"><a xlink:title=" ">
<path fill="none" stroke="#63b8ff" d="M318.88,-124.25C318.88,-113.97 318.88,-102.09 318.88,-94.11"/>
<polygon fill="#63b8ff" stroke="#63b8ff" points="315.38,-124.11 318.88,-134.11 322.38,-124.11 315.38,-124.11"/>
</a>
</g>
</g>
<!-- Node5 -->
<g id="Node000005" class="node">
<title>Node5</title>
<g id="a_Node000005"><a xlink:href="_attribute_box_8cpp.html" target="_top" xlink:title=" ">
<polygon fill="white" stroke="#666666" points="559.12,-94 406.62,-94 406.62,-74 559.12,-74 559.12,-94"/>
<text text-anchor="middle" x="482.88" y="-80.5" font-family="Helvetica,sans-Serif" font-size="10.00">Tests/Support/AttributeBox.cpp</text>
</a>
</g>
</g>
<!-- Node1&#45;&gt;Node5 -->
<g id="edge4_Node000001_Node000005" class="edge">
<title>Node1&#45;&gt;Node5</title>
<g id="a_edge4_Node000001_Node000005"><a xlink:title=" ">
<path fill="none" stroke="#63b8ff" d="M355.26,-131.69C386.17,-120.38 429.76,-104.43 457.16,-94.41"/>
<polygon fill="#63b8ff" stroke="#63b8ff" points="354.11,-128.38 345.92,-135.1 356.52,-134.96 354.11,-128.38"/>
</a>
</g>
</g>
<!-- Node6 -->
<g id="Node000006" class="node">
<title>Node6</title>
<g id="a_Node000006"><a xlink:href="_attribute_box_plus_8h.html" target="_top" xlink:title=" ">
<polygon fill="white" stroke="#666666" points="231.75,-100 98,-100 98,-68 231.75,-68 231.75,-100"/>
<text text-anchor="start" x="106" y="-86.5" font-family="Helvetica,sans-Serif" font-size="10.00">Tests/Support/AttributeBox</text>
<text text-anchor="middle" x="164.88" y="-74.5" font-family="Helvetica,sans-Serif" font-size="10.00">Plus.h</text>
</a>
</g>
</g>
<!-- Node1&#45;&gt;Node6 -->
<g id="edge5_Node000001_Node000006" class="edge">
<title>Node1&#45;&gt;Node6</title>
<g id="a_edge5_Node000001_Node000006"><a xlink:title=" ">
<path fill="none" stroke="#63b8ff" d="M284.23,-131.5C260.61,-122.3 229.27,-110.09 204.63,-100.49"/>
<polygon fill="#63b8ff" stroke="#63b8ff" points="282.81,-134.71 293.4,-135.08 285.36,-128.18 282.81,-134.71"/>
</a>
</g>
</g>
<!-- Node6&#45;&gt;Node2 -->
<g id="edge6_Node000006_Node000002" class="edge">
<title>Node6&#45;&gt;Node2</title>
<g id="a_edge6_Node000006_Node000002"><a xlink:title=" ">
<path fill="none" stroke="#63b8ff" d="M133.74,-61.37C116.65,-49.5 96.34,-35.39 83.28,-26.32"/>
<polygon fill="#63b8ff" stroke="#63b8ff" points="131.39,-64 141.6,-66.83 135.38,-58.25 131.39,-64"/>
</a>
</g>
</g>
<!-- Node6&#45;&gt;Node3 -->
<g id="edge7_Node000006_Node000003" class="edge">
<title>Node6&#45;&gt;Node3</title>
<g id="a_edge7_Node000006_Node000003"><a xlink:title=" ">
<path fill="none" stroke="#63b8ff" d="M243.21,-66.53C303.33,-53.9 384.21,-36.9 433.88,-26.46"/>
<polygon fill="#63b8ff" stroke="#63b8ff" points="242.78,-63.05 233.72,-68.53 244.22,-69.9 242.78,-63.05"/>
</a>
</g>
</g>
<!-- Node7 -->
<g id="Node000007" class="node">
<title>Node7</title>
<g id="a_Node000007"><a xlink:href="_attribute_box_plus_8cpp.html" target="_top" xlink:title=" ">
<polygon fill="white" stroke="#666666" points="291.75,-32 158,-32 158,0 291.75,0 291.75,-32"/>
<text text-anchor="start" x="166" y="-18.5" font-family="Helvetica,sans-Serif" font-size="10.00">Tests/Support/AttributeBox</text>
<text text-anchor="middle" x="224.88" y="-6.5" font-family="Helvetica,sans-Serif" font-size="10.00">Plus.cpp</text>
</a>
</g>
</g>
<!-- Node6&#45;&gt;Node7 -->
<g id="edge8_Node000006_Node000007" class="edge">
<title>Node6&#45;&gt;Node7</title>
<g id="a_edge8_Node000006_Node000007"><a xlink:title=" ">
<path fill="none" stroke="#63b8ff" d="M186.3,-59.43C194.53,-50.38 203.7,-40.29 211.03,-32.22"/>
<polygon fill="#63b8ff" stroke="#63b8ff" points="183.95,-56.82 179.81,-66.57 189.13,-61.53 183.95,-56.82"/>
</a>
</g>
</g>
</g>
</svg>
