<?xml version="1.0" encoding="UTF-8" standalone="no"?>
<!DOCTYPE svg PUBLIC "-//W3C//DTD SVG 1.1//EN"
 "http://www.w3.org/Graphics/SVG/1.1/DTD/svg11.dtd">
<!-- Generated by graphviz version 12.2.1 (20241206.2353)
 -->
<!-- Title: FIEAGameEngine/include/FIEAGameEngine/ClockService.h Pages: 1 -->
<svg width="774pt" height="108pt"
 viewBox="0.00 0.00 774.25 108.00" xmlns="http://www.w3.org/2000/svg" xmlns:xlink="http://www.w3.org/1999/xlink">
<g id="graph0" class="graph" transform="scale(1 1) rotate(0) translate(4 104)">
<title>FIEAGameEngine/include/FIEAGameEngine/ClockService.h</title>
<!-- Node1 -->
<g id="Node000001" class="node">
<title>Node1</title>
<g id="a_Node000001"><a xlink:title=" ">
<polygon fill="#999999" stroke="#666666" points="495,-100 327.5,-100 327.5,-68 495,-68 495,-100"/>
<text text-anchor="start" x="335.5" y="-86.5" font-family="Helvetica,sans-Serif" font-size="10.00">FIEAGameEngine/include</text>
<text text-anchor="middle" x="411.25" y="-74.5" font-family="Helvetica,sans-Serif" font-size="10.00">/FIEAGameEngine/ClockService.h</text>
</a>
</g>
</g>
<!-- Node2 -->
<g id="Node000002" class="node">
<title>Node2</title>
<g id="a_Node000002"><a xlink:href="_clock_service_8cpp.html" target="_top" xlink:title=" ">
<polygon fill="white" stroke="#666666" points="122.5,-32 0,-32 0,0 122.5,0 122.5,-32"/>
<text text-anchor="start" x="8" y="-18.5" font-family="Helvetica,sans-Serif" font-size="10.00">FIEAGameEngine/src</text>
<text text-anchor="middle" x="61.25" y="-6.5" font-family="Helvetica,sans-Serif" font-size="10.00">/clock/ClockService.cpp</text>
</a>
</g>
</g>
<!-- Node1&#45;&gt;Node2 -->
<g id="edge1_Node000001_Node000002" class="edge">
<title>Node1&#45;&gt;Node2</title>
<g id="a_edge1_Node000001_Node000002"><a xlink:title=" ">
<path fill="none" stroke="#63b8ff" d="M315.86,-66.38C261.65,-56.75 192.56,-44.15 131.25,-32 128.45,-31.44 125.58,-30.87 122.69,-30.28"/>
<polygon fill="#63b8ff" stroke="#63b8ff" points="315.25,-69.83 325.7,-68.12 316.47,-62.93 315.25,-69.83"/>
</a>
</g>
</g>
<!-- Node3 -->
<g id="Node000003" class="node">
<title>Node3</title>
<g id="a_Node000003"><a xlink:href="_delayed_action_8cpp.html" target="_top" xlink:title=" ">
<polygon fill="white" stroke="#666666" points="311.88,-32 140.62,-32 140.62,0 311.88,0 311.88,-32"/>
<text text-anchor="start" x="148.62" y="-18.5" font-family="Helvetica,sans-Serif" font-size="10.00">FIEAGameEngine/src</text>
<text text-anchor="middle" x="226.25" y="-6.5" font-family="Helvetica,sans-Serif" font-size="10.00">/content/actions/DelayedAction.cpp</text>
</a>
</g>
</g>
<!-- Node1&#45;&gt;Node3 -->
<g id="edge2_Node000001_Node000003" class="edge">
<title>Node1&#45;&gt;Node3</title>
<g id="a_edge2_Node000001_Node000003"><a xlink:title=" ">
<path fill="none" stroke="#63b8ff" d="M357.12,-63.69C329.28,-53.76 295.8,-41.81 269.67,-32.49"/>
<polygon fill="#63b8ff" stroke="#63b8ff" points="355.86,-66.95 366.45,-67.02 358.21,-60.36 355.86,-66.95"/>
</a>
</g>
</g>
<!-- Node4 -->
<g id="Node000004" class="node">
<title>Node4</title>
<g id="a_Node000004"><a xlink:href="_timed_action_8cpp.html" target="_top" xlink:title=" ">
<polygon fill="white" stroke="#666666" points="492.38,-32 330.12,-32 330.12,0 492.38,0 492.38,-32"/>
<text text-anchor="start" x="338.12" y="-18.5" font-family="Helvetica,sans-Serif" font-size="10.00">FIEAGameEngine/src</text>
<text text-anchor="middle" x="411.25" y="-6.5" font-family="Helvetica,sans-Serif" font-size="10.00">/content/actions/TimedAction.cpp</text>
</a>
</g>
</g>
<!-- Node1&#45;&gt;Node4 -->
<g id="edge3_Node000001_Node000004" class="edge">
<title>Node1&#45;&gt;Node4</title>
<g id="a_edge3_Node000001_Node000004"><a xlink:title=" ">
<path fill="none" stroke="#63b8ff" d="M411.25,-56.31C411.25,-48.12 411.25,-39.38 411.25,-32.22"/>
<polygon fill="#63b8ff" stroke="#63b8ff" points="407.75,-56.18 411.25,-66.18 414.75,-56.18 407.75,-56.18"/>
</a>
</g>
</g>
<!-- Node5 -->
<g id="Node000005" class="node">
<title>Node5</title>
<g id="a_Node000005"><a xlink:href="_action_test_8cpp.html" target="_top" xlink:title=" ">
<polygon fill="white" stroke="#666666" points="618.38,-26 510.12,-26 510.12,-6 618.38,-6 618.38,-26"/>
<text text-anchor="middle" x="564.25" y="-12.5" font-family="Helvetica,sans-Serif" font-size="10.00">Tests/ActionTest.cpp</text>
</a>
</g>
</g>
<!-- Node1&#45;&gt;Node5 -->
<g id="edge4_Node000001_Node000005" class="edge">
<title>Node1&#45;&gt;Node5</title>
<g id="a_edge4_Node000001_Node000005"><a xlink:title=" ">
<path fill="none" stroke="#63b8ff" d="M457.54,-63.03C485.67,-50.9 520.29,-35.96 542.32,-26.46"/>
<polygon fill="#63b8ff" stroke="#63b8ff" points="456.31,-59.75 448.51,-66.93 459.08,-66.18 456.31,-59.75"/>
</a>
</g>
</g>
<!-- Node6 -->
<g id="Node000006" class="node">
<title>Node6</title>
<g id="a_Node000006"><a xlink:href="_service_mgr_test_8cpp.html" target="_top" xlink:title=" ">
<polygon fill="white" stroke="#666666" points="766.25,-26 636.25,-26 636.25,-6 766.25,-6 766.25,-26"/>
<text text-anchor="middle" x="701.25" y="-12.5" font-family="Helvetica,sans-Serif" font-size="10.00">Tests/ServiceMgrTest.cpp</text>
</a>
</g>
</g>
<!-- Node1&#45;&gt;Node6 -->
<g id="edge5_Node000001_Node000006" class="edge">
<title>Node1&#45;&gt;Node6</title>
<g id="a_edge5_Node000001_Node000006"><a xlink:title=" ">
<path fill="none" stroke="#63b8ff" d="M490.31,-65.01C545.01,-52.56 615.63,-36.49 659.68,-26.46"/>
<polygon fill="#63b8ff" stroke="#63b8ff" points="489.69,-61.56 480.72,-67.19 491.25,-68.38 489.69,-61.56"/>
</a>
</g>
</g>
</g>
</svg>
