<?xml version="1.0" encoding="UTF-8" standalone="no"?>
<!DOCTYPE svg PUBLIC "-//W3C//DTD SVG 1.1//EN"
 "http://www.w3.org/Graphics/SVG/1.1/DTD/svg11.dtd">
<!-- Generated by graphviz version 12.2.1 (20241206.2353)
 -->
<!-- Title: FIEAGameEngine/include/FIEAGameEngine/ClockService.h Pages: 1 -->
<svg width="644pt" height="208pt"
 viewBox="0.00 0.00 644.25 208.00" xmlns="http://www.w3.org/2000/svg" xmlns:xlink="http://www.w3.org/1999/xlink">
<g id="graph0" class="graph" transform="scale(1 1) rotate(0) translate(4 204)">
<title>FIEAGameEngine/include/FIEAGameEngine/ClockService.h</title>
<!-- Node1 -->
<g id="Node000001" class="node">
<title>Node1</title>
<g id="a_Node000001"><a xlink:title=" ">
<polygon fill="#999999" stroke="#666666" points="384,-200 216.5,-200 216.5,-168 384,-168 384,-200"/>
<text text-anchor="start" x="224.5" y="-186.5" font-family="Helvetica,sans-Serif" font-size="10.00">FIEAGameEngine/include</text>
<text text-anchor="middle" x="300.25" y="-174.5" font-family="Helvetica,sans-Serif" font-size="10.00">/FIEAGameEngine/ClockService.h</text>
</a>
</g>
</g>
<!-- Node2 -->
<g id="Node000002" class="node">
<title>Node2</title>
<g id="a_Node000002"><a xlink:href="_types_8h.html" target="_top" xlink:title=" ">
<polygon fill="white" stroke="#666666" points="293.5,-76 243,-76 243,-56 293.5,-56 293.5,-76"/>
<text text-anchor="middle" x="268.25" y="-62.5" font-family="Helvetica,sans-Serif" font-size="10.00">Types.h</text>
</a>
</g>
</g>
<!-- Node1&#45;&gt;Node2 -->
<g id="edge1_Node000001_Node000002" class="edge">
<title>Node1&#45;&gt;Node2</title>
<g id="a_edge1_Node000001_Node000002"><a xlink:title=" ">
<path fill="none" stroke="#63b8ff" d="M296.07,-167.84C290.38,-147.22 280.19,-110.29 273.85,-87.31"/>
<polygon fill="#63b8ff" stroke="#63b8ff" points="277.29,-86.61 271.26,-77.9 270.54,-88.47 277.29,-86.61"/>
</a>
</g>
</g>
<!-- Node11 -->
<g id="Node000011" class="node">
<title>Node11</title>
<g id="a_Node000011"><a xlink:href="_service_mgr_8h.html" target="_top" xlink:title=" ">
<polygon fill="white" stroke="#666666" points="370.12,-132 296.38,-132 296.38,-112 370.12,-112 370.12,-132"/>
<text text-anchor="middle" x="333.25" y="-118.5" font-family="Helvetica,sans-Serif" font-size="10.00">ServiceMgr.h</text>
</a>
</g>
</g>
<!-- Node1&#45;&gt;Node11 -->
<g id="edge10_Node000001_Node000011" class="edge">
<title>Node1&#45;&gt;Node11</title>
<g id="a_edge10_Node000001_Node000011"><a xlink:title=" ">
<path fill="none" stroke="#63b8ff" d="M308.75,-167.55C312.95,-159.91 318.06,-150.61 322.53,-142.49"/>
<polygon fill="#63b8ff" stroke="#63b8ff" points="325.59,-144.18 327.35,-133.73 319.46,-140.81 325.59,-144.18"/>
</a>
</g>
</g>
<!-- Node3 -->
<g id="Node000003" class="node">
<title>Node3</title>
<g id="a_Node000003"><a xlink:title=" ">
<polygon fill="#e0e0e0" stroke="#999999" points="62.5,-20 0,-20 0,0 62.5,0 62.5,-20"/>
<text text-anchor="middle" x="31.25" y="-6.5" font-family="Helvetica,sans-Serif" font-size="10.00">windows.h</text>
</a>
</g>
</g>
<!-- Node2&#45;&gt;Node3 -->
<g id="edge2_Node000002_Node000003" class="edge">
<title>Node2&#45;&gt;Node3</title>
<g id="a_edge2_Node000002_Node000003"><a xlink:title=" ">
<path fill="none" stroke="#63b8ff" d="M242.89,-59.22C202.45,-50.01 122.93,-31.89 73.71,-20.67"/>
<polygon fill="#63b8ff" stroke="#63b8ff" points="74.79,-17.33 64.27,-18.52 73.24,-24.16 74.79,-17.33"/>
</a>
</g>
</g>
<!-- Node4 -->
<g id="Node000004" class="node">
<title>Node4</title>
<g id="a_Node000004"><a xlink:title=" ">
<polygon fill="#e0e0e0" stroke="#999999" points="128.38,-20 80.12,-20 80.12,0 128.38,0 128.38,-20"/>
<text text-anchor="middle" x="104.25" y="-6.5" font-family="Helvetica,sans-Serif" font-size="10.00">cassert</text>
</a>
</g>
</g>
<!-- Node2&#45;&gt;Node4 -->
<g id="edge3_Node000002_Node000004" class="edge">
<title>Node2&#45;&gt;Node4</title>
<g id="a_edge3_Node000002_Node000004"><a xlink:title=" ">
<path fill="none" stroke="#63b8ff" d="M242.62,-56.56C214.86,-47.42 170.39,-32.78 139.38,-22.57"/>
<polygon fill="#63b8ff" stroke="#63b8ff" points="140.66,-19.3 130.06,-19.5 138.47,-25.95 140.66,-19.3"/>
</a>
</g>
</g>
<!-- Node5 -->
<g id="Node000005" class="node">
<title>Node5</title>
<g id="a_Node000005"><a xlink:title=" ">
<polygon fill="#e0e0e0" stroke="#999999" points="194.38,-20 146.12,-20 146.12,0 194.38,0 194.38,-20"/>
<text text-anchor="middle" x="170.25" y="-6.5" font-family="Helvetica,sans-Serif" font-size="10.00">cstddef</text>
</a>
</g>
</g>
<!-- Node2&#45;&gt;Node5 -->
<g id="edge4_Node000002_Node000005" class="edge">
<title>Node2&#45;&gt;Node5</title>
<g id="a_edge4_Node000002_Node000005"><a xlink:title=" ">
<path fill="none" stroke="#63b8ff" d="M251.18,-55.59C236.37,-47.44 214.68,-35.48 197.48,-26"/>
<polygon fill="#63b8ff" stroke="#63b8ff" points="199.23,-22.97 188.78,-21.21 195.85,-29.1 199.23,-22.97"/>
</a>
</g>
</g>
<!-- Node6 -->
<g id="Node000006" class="node">
<title>Node6</title>
<g id="a_Node000006"><a xlink:title=" ">
<polygon fill="#e0e0e0" stroke="#999999" points="257.88,-20 212.62,-20 212.62,0 257.88,0 257.88,-20"/>
<text text-anchor="middle" x="235.25" y="-6.5" font-family="Helvetica,sans-Serif" font-size="10.00">cstdint</text>
</a>
</g>
</g>
<!-- Node2&#45;&gt;Node6 -->
<g id="edge5_Node000002_Node000006" class="edge">
<title>Node2&#45;&gt;Node6</title>
<g id="a_edge5_Node000002_Node000006"><a xlink:title=" ">
<path fill="none" stroke="#63b8ff" d="M262.5,-55.59C258.2,-48.55 252.16,-38.67 246.86,-30"/>
<polygon fill="#63b8ff" stroke="#63b8ff" points="249.92,-28.3 241.72,-21.59 243.95,-31.95 249.92,-28.3"/>
</a>
</g>
</g>
<!-- Node7 -->
<g id="Node000007" class="node">
<title>Node7</title>
<g id="a_Node000007"><a xlink:title=" ">
<polygon fill="#e0e0e0" stroke="#999999" points="328.62,-20 275.88,-20 275.88,0 328.62,0 328.62,-20"/>
<text text-anchor="middle" x="302.25" y="-6.5" font-family="Helvetica,sans-Serif" font-size="10.00">cstdbool</text>
</a>
</g>
</g>
<!-- Node2&#45;&gt;Node7 -->
<g id="edge6_Node000002_Node000007" class="edge">
<title>Node2&#45;&gt;Node7</title>
<g id="a_edge6_Node000002_Node000007"><a xlink:title=" ">
<path fill="none" stroke="#63b8ff" d="M274.17,-55.59C278.61,-48.55 284.83,-38.67 290.29,-30"/>
<polygon fill="#63b8ff" stroke="#63b8ff" points="293.22,-31.91 295.59,-21.58 287.3,-28.18 293.22,-31.91"/>
</a>
</g>
</g>
<!-- Node8 -->
<g id="Node000008" class="node">
<title>Node8</title>
<g id="a_Node000008"><a xlink:title=" ">
<polygon fill="#e0e0e0" stroke="#999999" points="386.25,-20 346.25,-20 346.25,0 386.25,0 386.25,-20"/>
<text text-anchor="middle" x="366.25" y="-6.5" font-family="Helvetica,sans-Serif" font-size="10.00">string</text>
</a>
</g>
</g>
<!-- Node2&#45;&gt;Node8 -->
<g id="edge7_Node000002_Node000008" class="edge">
<title>Node2&#45;&gt;Node8</title>
<g id="a_edge7_Node000002_Node000008"><a xlink:title=" ">
<path fill="none" stroke="#63b8ff" d="M285.32,-55.59C300.13,-47.44 321.82,-35.48 339.02,-26"/>
<polygon fill="#63b8ff" stroke="#63b8ff" points="340.65,-29.1 347.72,-21.21 337.27,-22.97 340.65,-29.1"/>
</a>
</g>
</g>
<!-- Node9 -->
<g id="Node000009" class="node">
<title>Node9</title>
<g id="a_Node000009"><a xlink:title=" ">
<polygon fill="#e0e0e0" stroke="#999999" points="458.38,-20 404.12,-20 404.12,0 458.38,0 458.38,-20"/>
<text text-anchor="middle" x="431.25" y="-6.5" font-family="Helvetica,sans-Serif" font-size="10.00">crtdefs.h</text>
</a>
</g>
</g>
<!-- Node2&#45;&gt;Node9 -->
<g id="edge8_Node000002_Node000009" class="edge">
<title>Node2&#45;&gt;Node9</title>
<g id="a_edge8_Node000002_Node000009"><a xlink:title=" ">
<path fill="none" stroke="#63b8ff" d="M293.72,-56.56C320.35,-47.74 362.46,-33.79 393.08,-23.65"/>
<polygon fill="#63b8ff" stroke="#63b8ff" points="393.95,-27.04 402.35,-20.58 391.75,-20.4 393.95,-27.04"/>
</a>
</g>
</g>
<!-- Node10 -->
<g id="Node000010" class="node">
<title>Node10</title>
<g id="a_Node000010"><a xlink:title=" ">
<polygon fill="#e0e0e0" stroke="#999999" points="636.25,-20 476.25,-20 476.25,0 636.25,0 636.25,-20"/>
<text text-anchor="middle" x="556.25" y="-6.5" font-family="Helvetica,sans-Serif" font-size="10.00">../src/memory/SystemAllocator.h</text>
</a>
</g>
</g>
<!-- Node2&#45;&gt;Node10 -->
<g id="edge9_Node000002_Node000010" class="edge">
<title>Node2&#45;&gt;Node10</title>
<g id="a_edge9_Node000002_Node000010"><a xlink:title=" ">
<path fill="none" stroke="#63b8ff" d="M293.81,-58.19C296.98,-57.41 300.18,-56.67 303.25,-56 363.95,-42.82 433.45,-30.66 484.23,-22.32"/>
<polygon fill="#63b8ff" stroke="#63b8ff" points="484.62,-25.8 493.93,-20.74 483.49,-18.89 484.62,-25.8"/>
</a>
</g>
</g>
<!-- Node11&#45;&gt;Node2 -->
<g id="edge11_Node000011_Node000002" class="edge">
<title>Node11&#45;&gt;Node2</title>
<g id="a_edge11_Node000011_Node000002"><a xlink:title=" ">
<path fill="none" stroke="#63b8ff" d="M321.93,-111.59C312.61,-103.85 299.17,-92.69 288.07,-83.47"/>
<polygon fill="#63b8ff" stroke="#63b8ff" points="290.54,-80.96 280.61,-77.27 286.06,-86.35 290.54,-80.96"/>
</a>
</g>
</g>
<!-- Node12 -->
<g id="Node000012" class="node">
<title>Node12</title>
<g id="a_Node000012"><a xlink:title=" ">
<polygon fill="#e0e0e0" stroke="#999999" points="354.75,-76 311.75,-76 311.75,-56 354.75,-56 354.75,-76"/>
<text text-anchor="middle" x="333.25" y="-62.5" font-family="Helvetica,sans-Serif" font-size="10.00">vector</text>
</a>
</g>
</g>
<!-- Node11&#45;&gt;Node12 -->
<g id="edge12_Node000011_Node000012" class="edge">
<title>Node11&#45;&gt;Node12</title>
<g id="a_edge12_Node000011_Node000012"><a xlink:title=" ">
<path fill="none" stroke="#63b8ff" d="M333.25,-111.59C333.25,-105.01 333.25,-95.96 333.25,-87.73"/>
<polygon fill="#63b8ff" stroke="#63b8ff" points="336.75,-87.81 333.25,-77.81 329.75,-87.81 336.75,-87.81"/>
</a>
</g>
</g>
<!-- Node13 -->
<g id="Node000013" class="node">
<title>Node13</title>
<g id="a_Node000013"><a xlink:title=" ">
<polygon fill="#e0e0e0" stroke="#999999" points="455.62,-76 372.88,-76 372.88,-56 455.62,-56 455.62,-76"/>
<text text-anchor="middle" x="414.25" y="-62.5" font-family="Helvetica,sans-Serif" font-size="10.00">unordered_map</text>
</a>
</g>
</g>
<!-- Node11&#45;&gt;Node13 -->
<g id="edge13_Node000011_Node000013" class="edge">
<title>Node11&#45;&gt;Node13</title>
<g id="a_edge13_Node000011_Node000013"><a xlink:title=" ">
<path fill="none" stroke="#63b8ff" d="M347.36,-111.59C359.25,-103.67 376.52,-92.16 390.53,-82.82"/>
<polygon fill="#63b8ff" stroke="#63b8ff" points="392.39,-85.78 398.77,-77.32 388.51,-79.95 392.39,-85.78"/>
</a>
</g>
</g>
</g>
</svg>
