<?xml version="1.0" encoding="UTF-8" standalone="no"?>
<!DOCTYPE svg PUBLIC "-//W3C//DTD SVG 1.1//EN"
 "http://www.w3.org/Graphics/SVG/1.1/DTD/svg11.dtd">
<!-- Generated by graphviz version 12.2.1 (20241206.2353)
 -->
<!-- Title: FIEAGameEngine/src/content/ContentService.cpp Pages: 1 -->
<svg width="1066pt" height="432pt"
 viewBox="0.00 0.00 1065.53 432.00" xmlns="http://www.w3.org/2000/svg" xmlns:xlink="http://www.w3.org/1999/xlink">
<g id="graph0" class="graph" transform="scale(1 1) rotate(0) translate(4 428)">
<title>FIEAGameEngine/src/content/ContentService.cpp</title>
<!-- Node1 -->
<g id="Node000001" class="node">
<title>Node1</title>
<g id="a_Node000001"><a xlink:title=" ">
<polygon fill="#999999" stroke="#666666" points="629.25,-424 488.75,-424 488.75,-392 629.25,-392 629.25,-424"/>
<text text-anchor="start" x="496.75" y="-410.5" font-family="Helvetica,sans-Serif" font-size="10.00">FIEAGameEngine/src</text>
<text text-anchor="middle" x="559" y="-398.5" font-family="Helvetica,sans-Serif" font-size="10.00">/content/ContentService.cpp</text>
</a>
</g>
</g>
<!-- Node2 -->
<g id="Node000002" class="node">
<title>Node2</title>
<g id="a_Node000002"><a xlink:href="_content_service_8h.html" target="_top" xlink:title=" ">
<polygon fill="white" stroke="#666666" points="645.75,-356 472.25,-356 472.25,-336 645.75,-336 645.75,-356"/>
<text text-anchor="middle" x="559" y="-342.5" font-family="Helvetica,sans-Serif" font-size="10.00">FIEAGameEngine/ContentService.h</text>
</a>
</g>
</g>
<!-- Node1&#45;&gt;Node2 -->
<g id="edge1_Node000001_Node000002" class="edge">
<title>Node1&#45;&gt;Node2</title>
<g id="a_edge1_Node000001_Node000002"><a xlink:title=" ">
<path fill="none" stroke="#63b8ff" d="M559,-391.55C559,-384.34 559,-375.66 559,-367.88"/>
<polygon fill="#63b8ff" stroke="#63b8ff" points="562.5,-367.92 559,-357.92 555.5,-367.92 562.5,-367.92"/>
</a>
</g>
</g>
<!-- Node14 -->
<g id="Node000014" class="node">
<title>Node14</title>
<g id="a_Node000014"><a xlink:title=" ">
<polygon fill="#e0e0e0" stroke="#999999" points="117.38,-76 34.62,-76 34.62,-56 117.38,-56 117.38,-76"/>
<text text-anchor="middle" x="76" y="-62.5" font-family="Helvetica,sans-Serif" font-size="10.00">unordered_map</text>
</a>
</g>
</g>
<!-- Node1&#45;&gt;Node14 -->
<g id="edge52_Node000001_Node000014" class="edge">
<title>Node1&#45;&gt;Node14</title>
<g id="a_edge52_Node000001_Node000014"><a xlink:title=" ">
<path fill="none" stroke="#63b8ff" d="M488.49,-406.98C338.21,-405.03 0,-389.68 0,-291 0,-291 0,-291 0,-177 0,-138.24 32.34,-103.24 54.83,-83.59"/>
<polygon fill="#63b8ff" stroke="#63b8ff" points="56.87,-86.44 62.29,-77.34 52.37,-81.08 56.87,-86.44"/>
</a>
</g>
</g>
<!-- Node32 -->
<g id="Node000032" class="node">
<title>Node32</title>
<g id="a_Node000032"><a xlink:href="_parser_8h.html" target="_top" xlink:title=" ">
<polygon fill="white" stroke="#666666" points="919.38,-300 866.62,-300 866.62,-280 919.38,-280 919.38,-300"/>
<text text-anchor="middle" x="893" y="-286.5" font-family="Helvetica,sans-Serif" font-size="10.00">Parser.h</text>
</a>
</g>
</g>
<!-- Node1&#45;&gt;Node32 -->
<g id="edge46_Node000001_Node000032" class="edge">
<title>Node1&#45;&gt;Node32</title>
<g id="a_edge46_Node000001_Node000032"><a xlink:title=" ">
<path fill="none" stroke="#63b8ff" d="M603.35,-391.6C669.67,-368.56 793.51,-325.55 855.55,-304.01"/>
<polygon fill="#63b8ff" stroke="#63b8ff" points="856.66,-307.33 864.96,-300.74 854.36,-300.71 856.66,-307.33"/>
</a>
</g>
</g>
<!-- Node3 -->
<g id="Node000003" class="node">
<title>Node3</title>
<g id="a_Node000003"><a xlink:href="_types_8h.html" target="_top" xlink:title=" ">
<polygon fill="white" stroke="#666666" points="421.12,-76 288.88,-76 288.88,-56 421.12,-56 421.12,-76"/>
<text text-anchor="middle" x="355" y="-62.5" font-family="Helvetica,sans-Serif" font-size="10.00">FIEAGameEngine/Types.h</text>
</a>
</g>
</g>
<!-- Node2&#45;&gt;Node3 -->
<g id="edge2_Node000002_Node000003" class="edge">
<title>Node2&#45;&gt;Node3</title>
<g id="a_edge2_Node000002_Node000003"><a xlink:title=" ">
<path fill="none" stroke="#63b8ff" d="M513.88,-335.55C447.81,-318.91 327.66,-277.33 282,-188 277.95,-180.09 277.54,-175.69 282,-168 298.19,-140.11 326.73,-158.58 345,-132 353.91,-119.03 356.13,-101.19 356.27,-87.48"/>
<polygon fill="#63b8ff" stroke="#63b8ff" points="359.78,-87.72 356,-77.82 352.78,-87.91 359.78,-87.72"/>
</a>
</g>
</g>
<!-- Node9 -->
<g id="Node000009" class="node">
<title>Node9</title>
<g id="a_Node000009"><a xlink:title=" ">
<polygon fill="#e0e0e0" stroke="#999999" points="788,-20 748,-20 748,0 788,0 788,-20"/>
<text text-anchor="middle" x="768" y="-6.5" font-family="Helvetica,sans-Serif" font-size="10.00">string</text>
</a>
</g>
</g>
<!-- Node2&#45;&gt;Node9 -->
<g id="edge15_Node000002_Node000009" class="edge">
<title>Node2&#45;&gt;Node9</title>
<g id="a_edge15_Node000002_Node000009"><a xlink:title=" ">
<path fill="none" stroke="#63b8ff" d="M569.87,-335.68C606,-303.89 722.15,-195.1 764,-76 769,-61.76 769.88,-44.7 769.57,-31.62"/>
<polygon fill="#63b8ff" stroke="#63b8ff" points="773.06,-31.45 769.05,-21.65 766.07,-31.82 773.06,-31.45"/>
</a>
</g>
</g>
<!-- Node12 -->
<g id="Node000012" class="node">
<title>Node12</title>
<g id="a_Node000012"><a xlink:href="_service_mgr_8h.html" target="_top" xlink:title=" ">
<polygon fill="white" stroke="#666666" points="335.75,-132 180.25,-132 180.25,-112 335.75,-112 335.75,-132"/>
<text text-anchor="middle" x="258" y="-118.5" font-family="Helvetica,sans-Serif" font-size="10.00">FIEAGameEngine/ServiceMgr.h</text>
</a>
</g>
</g>
<!-- Node2&#45;&gt;Node12 -->
<g id="edge11_Node000002_Node000012" class="edge">
<title>Node2&#45;&gt;Node12</title>
<g id="a_edge11_Node000002_Node000012"><a xlink:title=" ">
<path fill="none" stroke="#63b8ff" d="M472.15,-341.81C355.41,-336.61 159.9,-324.36 138,-300 98.78,-256.37 104.58,-216.22 138,-168 148.44,-152.93 164.6,-142.9 181.7,-136.23"/>
<polygon fill="#63b8ff" stroke="#63b8ff" points="182.71,-139.58 191,-132.99 180.41,-132.97 182.71,-139.58"/>
</a>
</g>
</g>
<!-- Node15 -->
<g id="Node000015" class="node">
<title>Node15</title>
<g id="a_Node000015"><a xlink:href="_r_t_t_i_8h.html" target="_top" xlink:title=" ">
<polygon fill="white" stroke="#666666" points="714,-132 668,-132 668,-112 714,-112 714,-132"/>
<text text-anchor="middle" x="691" y="-118.5" font-family="Helvetica,sans-Serif" font-size="10.00">RTTI.h</text>
</a>
</g>
</g>
<!-- Node2&#45;&gt;Node15 -->
<g id="edge16_Node000002_Node000015" class="edge">
<title>Node2&#45;&gt;Node15</title>
<g id="a_edge16_Node000002_Node000015"><a xlink:title=" ">
<path fill="none" stroke="#63b8ff" d="M564.5,-335.74C584.34,-302.39 652.41,-187.9 679.62,-142.13"/>
<polygon fill="#63b8ff" stroke="#63b8ff" points="682.6,-143.98 684.7,-133.6 676.58,-140.4 682.6,-143.98"/>
</a>
</g>
</g>
<!-- Node17 -->
<g id="Node000017" class="node">
<title>Node17</title>
<g id="a_Node000017"><a xlink:href="_attributed_8h.html" target="_top" xlink:title=" ">
<polygon fill="white" stroke="#666666" points="549.88,-300 446.12,-300 446.12,-280 549.88,-280 549.88,-300"/>
<text text-anchor="middle" x="498" y="-286.5" font-family="Helvetica,sans-Serif" font-size="10.00">Content/Attributed.h</text>
</a>
</g>
</g>
<!-- Node2&#45;&gt;Node17 -->
<g id="edge20_Node000002_Node000017" class="edge">
<title>Node2&#45;&gt;Node17</title>
<g id="a_edge20_Node000002_Node000017"><a xlink:title=" ">
<path fill="none" stroke="#63b8ff" d="M548.37,-335.59C539.72,-327.93 527.27,-316.91 516.92,-307.75"/>
<polygon fill="#63b8ff" stroke="#63b8ff" points="519.44,-305.31 509.64,-301.3 514.8,-310.55 519.44,-305.31"/>
</a>
</g>
</g>
<!-- Node28 -->
<g id="Node000028" class="node">
<title>Node28</title>
<g id="a_Node000028"><a xlink:href="_i_parse_handler_8h.html" target="_top" xlink:title=" ">
<polygon fill="white" stroke="#666666" points="919,-244 795,-244 795,-224 919,-224 919,-244"/>
<text text-anchor="middle" x="857" y="-230.5" font-family="Helvetica,sans-Serif" font-size="10.00">Content/IParseHandler.h</text>
</a>
</g>
</g>
<!-- Node2&#45;&gt;Node28 -->
<g id="edge40_Node000002_Node000028" class="edge">
<title>Node2&#45;&gt;Node28</title>
<g id="a_edge40_Node000002_Node000028"><a xlink:title=" ">
<path fill="none" stroke="#63b8ff" d="M615,-335.52C652.12,-328.21 701.45,-316.55 743,-300 776.26,-286.75 811.63,-265.28 834,-250.67"/>
<polygon fill="#63b8ff" stroke="#63b8ff" points="835.93,-253.59 842.33,-245.14 832.06,-247.76 835.93,-253.59"/>
</a>
</g>
</g>
<!-- Node4 -->
<g id="Node000004" class="node">
<title>Node4</title>
<g id="a_Node000004"><a xlink:title=" ">
<polygon fill="#e0e0e0" stroke="#999999" points="640.25,-20 577.75,-20 577.75,0 640.25,0 640.25,-20"/>
<text text-anchor="middle" x="609" y="-6.5" font-family="Helvetica,sans-Serif" font-size="10.00">windows.h</text>
</a>
</g>
</g>
<!-- Node3&#45;&gt;Node4 -->
<g id="edge3_Node000003_Node000004" class="edge">
<title>Node3&#45;&gt;Node4</title>
<g id="a_edge3_Node000003_Node000004"><a xlink:title=" ">
<path fill="none" stroke="#63b8ff" d="M400.96,-55.53C441.95,-47.04 503.89,-34.11 566.67,-20.49"/>
<polygon fill="#63b8ff" stroke="#63b8ff" points="567.06,-23.98 576.09,-18.44 565.57,-17.14 567.06,-23.98"/>
</a>
</g>
</g>
<!-- Node5 -->
<g id="Node000005" class="node">
<title>Node5</title>
<g id="a_Node000005"><a xlink:title=" ">
<polygon fill="#e0e0e0" stroke="#999999" points="706.12,-20 657.88,-20 657.88,0 706.12,0 706.12,-20"/>
<text text-anchor="middle" x="682" y="-6.5" font-family="Helvetica,sans-Serif" font-size="10.00">cassert</text>
</a>
</g>
</g>
<!-- Node3&#45;&gt;Node5 -->
<g id="edge4_Node000003_Node000005" class="edge">
<title>Node3&#45;&gt;Node5</title>
<g id="a_edge4_Node000003_Node000005"><a xlink:title=" ">
<path fill="none" stroke="#63b8ff" d="M421.36,-57.05C478.64,-49.68 563.76,-37.55 646.45,-20.35"/>
<polygon fill="#63b8ff" stroke="#63b8ff" points="647.03,-23.8 656.09,-18.31 645.58,-16.95 647.03,-23.8"/>
</a>
</g>
</g>
<!-- Node6 -->
<g id="Node000006" class="node">
<title>Node6</title>
<g id="a_Node000006"><a xlink:title=" ">
<polygon fill="#e0e0e0" stroke="#999999" points="175.12,-20 126.88,-20 126.88,0 175.12,0 175.12,-20"/>
<text text-anchor="middle" x="151" y="-6.5" font-family="Helvetica,sans-Serif" font-size="10.00">cstddef</text>
</a>
</g>
</g>
<!-- Node3&#45;&gt;Node6 -->
<g id="edge5_Node000003_Node000006" class="edge">
<title>Node3&#45;&gt;Node6</title>
<g id="a_edge5_Node000003_Node000006"><a xlink:title=" ">
<path fill="none" stroke="#63b8ff" d="M318.61,-55.53C286.28,-47.08 237.44,-34.28 186.42,-20.63"/>
<polygon fill="#63b8ff" stroke="#63b8ff" points="187.53,-17.31 176.96,-18.1 185.72,-24.07 187.53,-17.31"/>
</a>
</g>
</g>
<!-- Node7 -->
<g id="Node000007" class="node">
<title>Node7</title>
<g id="a_Node000007"><a xlink:title=" ">
<polygon fill="#e0e0e0" stroke="#999999" points="238.62,-20 193.38,-20 193.38,0 238.62,0 238.62,-20"/>
<text text-anchor="middle" x="216" y="-6.5" font-family="Helvetica,sans-Serif" font-size="10.00">cstdint</text>
</a>
</g>
</g>
<!-- Node3&#45;&gt;Node7 -->
<g id="edge6_Node000003_Node000007" class="edge">
<title>Node3&#45;&gt;Node7</title>
<g id="a_edge6_Node000003_Node000007"><a xlink:title=" ">
<path fill="none" stroke="#63b8ff" d="M330.79,-55.59C308.29,-46.85 274.59,-33.76 249.51,-24.02"/>
<polygon fill="#63b8ff" stroke="#63b8ff" points="251.01,-20.85 240.42,-20.49 248.48,-27.37 251.01,-20.85"/>
</a>
</g>
</g>
<!-- Node8 -->
<g id="Node000008" class="node">
<title>Node8</title>
<g id="a_Node000008"><a xlink:title=" ">
<polygon fill="#e0e0e0" stroke="#999999" points="309.38,-20 256.62,-20 256.62,0 309.38,0 309.38,-20"/>
<text text-anchor="middle" x="283" y="-6.5" font-family="Helvetica,sans-Serif" font-size="10.00">cstdbool</text>
</a>
</g>
</g>
<!-- Node3&#45;&gt;Node8 -->
<g id="edge7_Node000003_Node000008" class="edge">
<title>Node3&#45;&gt;Node8</title>
<g id="a_edge7_Node000003_Node000008"><a xlink:title=" ">
<path fill="none" stroke="#63b8ff" d="M342.46,-55.59C332.03,-47.77 316.95,-36.46 304.59,-27.19"/>
<polygon fill="#63b8ff" stroke="#63b8ff" points="306.71,-24.41 296.61,-21.21 302.51,-30.01 306.71,-24.41"/>
</a>
</g>
</g>
<!-- Node3&#45;&gt;Node9 -->
<g id="edge8_Node000003_Node000009" class="edge">
<title>Node3&#45;&gt;Node9</title>
<g id="a_edge8_Node000003_Node000009"><a xlink:title=" ">
<path fill="none" stroke="#63b8ff" d="M421.31,-57.07C509.29,-46.47 659.93,-28.11 715,-20 721.92,-18.98 729.33,-17.79 736.35,-16.61"/>
<polygon fill="#63b8ff" stroke="#63b8ff" points="736.89,-20.07 746.16,-14.93 735.71,-13.17 736.89,-20.07"/>
</a>
</g>
</g>
<!-- Node10 -->
<g id="Node000010" class="node">
<title>Node10</title>
<g id="a_Node000010"><a xlink:title=" ">
<polygon fill="#e0e0e0" stroke="#999999" points="382.12,-20 327.88,-20 327.88,0 382.12,0 382.12,-20"/>
<text text-anchor="middle" x="355" y="-6.5" font-family="Helvetica,sans-Serif" font-size="10.00">crtdefs.h</text>
</a>
</g>
</g>
<!-- Node3&#45;&gt;Node10 -->
<g id="edge9_Node000003_Node000010" class="edge">
<title>Node3&#45;&gt;Node10</title>
<g id="a_edge9_Node000003_Node000010"><a xlink:title=" ">
<path fill="none" stroke="#63b8ff" d="M355,-55.59C355,-49.01 355,-39.96 355,-31.73"/>
<polygon fill="#63b8ff" stroke="#63b8ff" points="358.5,-31.81 355,-21.81 351.5,-31.81 358.5,-31.81"/>
</a>
</g>
</g>
<!-- Node11 -->
<g id="Node000011" class="node">
<title>Node11</title>
<g id="a_Node000011"><a xlink:title=" ">
<polygon fill="#e0e0e0" stroke="#999999" points="560,-20 400,-20 400,0 560,0 560,-20"/>
<text text-anchor="middle" x="480" y="-6.5" font-family="Helvetica,sans-Serif" font-size="10.00">../src/memory/SystemAllocator.h</text>
</a>
</g>
</g>
<!-- Node3&#45;&gt;Node11 -->
<g id="edge10_Node000003_Node000011" class="edge">
<title>Node3&#45;&gt;Node11</title>
<g id="a_edge10_Node000003_Node000011"><a xlink:title=" ">
<path fill="none" stroke="#63b8ff" d="M376.77,-55.59C396.37,-47.13 425.43,-34.58 447.72,-24.94"/>
<polygon fill="#63b8ff" stroke="#63b8ff" points="448.88,-28.26 456.67,-21.08 446.1,-21.83 448.88,-28.26"/>
</a>
</g>
</g>
<!-- Node12&#45;&gt;Node3 -->
<g id="edge12_Node000012_Node000003" class="edge">
<title>Node12&#45;&gt;Node3</title>
<g id="a_edge12_Node000012_Node000003"><a xlink:title=" ">
<path fill="none" stroke="#63b8ff" d="M274.9,-111.59C289.55,-103.44 311.02,-91.48 328.05,-82"/>
<polygon fill="#63b8ff" stroke="#63b8ff" points="329.61,-85.14 336.65,-77.22 326.21,-79.02 329.61,-85.14"/>
</a>
</g>
</g>
<!-- Node13 -->
<g id="Node000013" class="node">
<title>Node13</title>
<g id="a_Node000013"><a xlink:title=" ">
<polygon fill="#e0e0e0" stroke="#999999" points="178.5,-76 135.5,-76 135.5,-56 178.5,-56 178.5,-76"/>
<text text-anchor="middle" x="157" y="-62.5" font-family="Helvetica,sans-Serif" font-size="10.00">vector</text>
</a>
</g>
</g>
<!-- Node12&#45;&gt;Node13 -->
<g id="edge13_Node000012_Node000013" class="edge">
<title>Node12&#45;&gt;Node13</title>
<g id="a_edge13_Node000012_Node000013"><a xlink:title=" ">
<path fill="none" stroke="#63b8ff" d="M240.41,-111.59C225.08,-103.4 202.58,-91.37 184.81,-81.87"/>
<polygon fill="#63b8ff" stroke="#63b8ff" points="186.53,-78.82 176.06,-77.19 183.23,-84.99 186.53,-78.82"/>
</a>
</g>
</g>
<!-- Node12&#45;&gt;Node14 -->
<g id="edge14_Node000012_Node000014" class="edge">
<title>Node12&#45;&gt;Node14</title>
<g id="a_edge14_Node000012_Node000014"><a xlink:title=" ">
<path fill="none" stroke="#63b8ff" d="M226.3,-111.59C196.47,-102.74 151.58,-89.43 118.63,-79.65"/>
<polygon fill="#63b8ff" stroke="#63b8ff" points="119.98,-76.4 109.4,-76.91 117.99,-83.11 119.98,-76.4"/>
</a>
</g>
</g>
<!-- Node15&#45;&gt;Node3 -->
<g id="edge17_Node000015_Node000003" class="edge">
<title>Node15&#45;&gt;Node3</title>
<g id="a_edge17_Node000015_Node000003"><a xlink:title=" ">
<path fill="none" stroke="#63b8ff" d="M667.64,-117.25C618.14,-109.29 500.99,-90.46 424.99,-78.25"/>
<polygon fill="#63b8ff" stroke="#63b8ff" points="426.02,-74.87 415.59,-76.74 424.9,-81.78 426.02,-74.87"/>
</a>
</g>
</g>
<!-- Node16 -->
<g id="Node000016" class="node">
<title>Node16</title>
<g id="a_Node000016"><a xlink:href="_r_t_t_i_8inl.html" target="_top" xlink:title=" ">
<polygon fill="white" stroke="#666666" points="755.25,-76 626.75,-76 626.75,-56 755.25,-56 755.25,-76"/>
<text text-anchor="middle" x="691" y="-62.5" font-family="Helvetica,sans-Serif" font-size="10.00">FieaGameEngine/RTTI.inl</text>
</a>
</g>
</g>
<!-- Node15&#45;&gt;Node16 -->
<g id="edge18_Node000015_Node000016" class="edge">
<title>Node15&#45;&gt;Node16</title>
<g id="a_edge18_Node000015_Node000016"><a xlink:title=" ">
<path fill="none" stroke="#63b8ff" d="M685.73,-111.59C684.42,-105.01 683.98,-95.96 684.41,-87.73"/>
<polygon fill="#63b8ff" stroke="#63b8ff" points="687.89,-88.14 685.58,-77.8 680.94,-87.33 687.89,-88.14"/>
</a>
</g>
</g>
<!-- Node16&#45;&gt;Node15 -->
<g id="edge19_Node000016_Node000015" class="edge">
<title>Node16&#45;&gt;Node15</title>
<g id="a_edge19_Node000016_Node000015"><a xlink:title=" ">
<path fill="none" stroke="#63b8ff" d="M696.25,-76.3C697.59,-82.93 698.03,-92.11 697.58,-100.43"/>
<polygon fill="#63b8ff" stroke="#63b8ff" points="694.13,-99.75 696.44,-110.09 701.08,-100.57 694.13,-99.75"/>
</a>
</g>
</g>
<!-- Node17&#45;&gt;Node13 -->
<g id="edge38_Node000017_Node000013" class="edge">
<title>Node17&#45;&gt;Node13</title>
<g id="a_edge38_Node000017_Node000013"><a xlink:title=" ">
<path fill="none" stroke="#63b8ff" d="M445.82,-280.4C383.32,-268.14 277.59,-240.98 202,-188 175.85,-169.67 167.6,-162.12 157,-132 151.95,-117.64 152.22,-100.37 153.61,-87.24"/>
<polygon fill="#63b8ff" stroke="#63b8ff" points="157.03,-88.03 154.93,-77.65 150.1,-87.07 157.03,-88.03"/>
</a>
</g>
</g>
<!-- Node17&#45;&gt;Node15 -->
<g id="edge21_Node000017_Node000015" class="edge">
<title>Node17&#45;&gt;Node15</title>
<g id="a_edge21_Node000017_Node000015"><a xlink:title=" ">
<path fill="none" stroke="#63b8ff" d="M510.75,-279.72C534.23,-262.46 585.59,-223.92 626,-188 643.25,-172.66 661.75,-153.91 674.59,-140.5"/>
<polygon fill="#63b8ff" stroke="#63b8ff" points="677.1,-142.93 681.45,-133.27 672.03,-138.12 677.1,-142.93"/>
</a>
</g>
</g>
<!-- Node18 -->
<g id="Node000018" class="node">
<title>Node18</title>
<g id="a_Node000018"><a xlink:href="_scope_8h.html" target="_top" xlink:title=" ">
<polygon fill="white" stroke="#666666" points="524,-244 472,-244 472,-224 524,-224 524,-244"/>
<text text-anchor="middle" x="498" y="-230.5" font-family="Helvetica,sans-Serif" font-size="10.00">Scope.h</text>
</a>
</g>
</g>
<!-- Node17&#45;&gt;Node18 -->
<g id="edge22_Node000017_Node000018" class="edge">
<title>Node17&#45;&gt;Node18</title>
<g id="a_edge22_Node000017_Node000018"><a xlink:title=" ">
<path fill="none" stroke="#63b8ff" d="M498,-279.59C498,-273.01 498,-263.96 498,-255.73"/>
<polygon fill="#63b8ff" stroke="#63b8ff" points="501.5,-255.81 498,-245.81 494.5,-255.81 501.5,-255.81"/>
</a>
</g>
</g>
<!-- Node27 -->
<g id="Node000027" class="node">
<title>Node27</title>
<g id="a_Node000027"><a xlink:title=" ">
<polygon fill="#e0e0e0" stroke="#999999" points="454,-244 396,-244 396,-224 454,-224 454,-244"/>
<text text-anchor="middle" x="425" y="-230.5" font-family="Helvetica,sans-Serif" font-size="10.00">functional</text>
</a>
</g>
</g>
<!-- Node17&#45;&gt;Node27 -->
<g id="edge39_Node000017_Node000027" class="edge">
<title>Node17&#45;&gt;Node27</title>
<g id="a_edge39_Node000017_Node000027"><a xlink:title=" ">
<path fill="none" stroke="#63b8ff" d="M485.28,-279.59C474.61,-271.7 459.12,-260.24 446.52,-250.92"/>
<polygon fill="#63b8ff" stroke="#63b8ff" points="448.91,-248.33 438.79,-245.2 444.74,-253.96 448.91,-248.33"/>
</a>
</g>
</g>
<!-- Node18&#45;&gt;Node13 -->
<g id="edge29_Node000018_Node000013" class="edge">
<title>Node18&#45;&gt;Node13</title>
<g id="a_edge29_Node000018_Node000013"><a xlink:title=" ">
<path fill="none" stroke="#63b8ff" d="M471.66,-226.06C468.75,-225.34 465.81,-224.64 463,-224 330.33,-193.77 254.19,-239.67 171,-132 161.27,-119.41 157.96,-101.54 156.98,-87.72"/>
<polygon fill="#63b8ff" stroke="#63b8ff" points="160.48,-87.83 156.66,-77.95 153.49,-88.06 160.48,-87.83"/>
</a>
</g>
</g>
<!-- Node18&#45;&gt;Node14 -->
<g id="edge30_Node000018_Node000014" class="edge">
<title>Node18&#45;&gt;Node14</title>
<g id="a_edge30_Node000018_Node000014"><a xlink:title=" ">
<path fill="none" stroke="#63b8ff" d="M471.7,-225.89C468.78,-225.21 465.83,-224.56 463,-224 348.11,-201.38 309.74,-233.86 202,-188 150.8,-166.21 108.27,-113.5 88.28,-85.39"/>
<polygon fill="#63b8ff" stroke="#63b8ff" points="91.39,-83.73 82.82,-77.49 85.63,-87.71 91.39,-83.73"/>
</a>
</g>
</g>
<!-- Node18&#45;&gt;Node15 -->
<g id="edge23_Node000018_Node000015" class="edge">
<title>Node18&#45;&gt;Node15</title>
<g id="a_edge23_Node000018_Node000015"><a xlink:title=" ">
<path fill="none" stroke="#63b8ff" d="M521.52,-223.53C541.72,-215.08 571.4,-201.93 596,-188 622.39,-173.06 650.87,-152.99 669.69,-139.13"/>
<polygon fill="#63b8ff" stroke="#63b8ff" points="671.69,-142 677.62,-133.22 667.51,-136.39 671.69,-142"/>
</a>
</g>
</g>
<!-- Node19 -->
<g id="Node000019" class="node">
<title>Node19</title>
<g id="a_Node000019"><a xlink:href="_datum_8h.html" target="_top" xlink:title=" ">
<polygon fill="#fff0f0" stroke="red" points="586.75,-188 533.25,-188 533.25,-168 586.75,-168 586.75,-188"/>
<text text-anchor="middle" x="560" y="-174.5" font-family="Helvetica,sans-Serif" font-size="10.00">Datum.h</text>
</a>
</g>
</g>
<!-- Node18&#45;&gt;Node19 -->
<g id="edge24_Node000018_Node000019" class="edge">
<title>Node18&#45;&gt;Node19</title>
<g id="a_edge24_Node000018_Node000019"><a xlink:title=" ">
<path fill="none" stroke="#63b8ff" d="M508.8,-223.59C517.6,-215.93 530.25,-204.91 540.77,-195.75"/>
<polygon fill="#63b8ff" stroke="#63b8ff" points="542.94,-198.5 548.18,-189.29 538.34,-193.22 542.94,-198.5"/>
</a>
</g>
</g>
<!-- Node24 -->
<g id="Node000024" class="node">
<title>Node24</title>
<g id="a_Node000024"><a xlink:title=" ">
<polygon fill="#e0e0e0" stroke="#999999" points="515.38,-188 480.62,-188 480.62,-168 515.38,-168 515.38,-188"/>
<text text-anchor="middle" x="498" y="-174.5" font-family="Helvetica,sans-Serif" font-size="10.00">map</text>
</a>
</g>
</g>
<!-- Node18&#45;&gt;Node24 -->
<g id="edge31_Node000018_Node000024" class="edge">
<title>Node18&#45;&gt;Node24</title>
<g id="a_edge31_Node000018_Node000024"><a xlink:title=" ">
<path fill="none" stroke="#63b8ff" d="M498,-223.59C498,-217.01 498,-207.96 498,-199.73"/>
<polygon fill="#63b8ff" stroke="#63b8ff" points="501.5,-199.81 498,-189.81 494.5,-199.81 501.5,-199.81"/>
</a>
</g>
</g>
<!-- Node25 -->
<g id="Node000025" class="node">
<title>Node25</title>
<g id="a_Node000025"><a xlink:href="_factory_service_8h.html" target="_top" xlink:title=" ">
<polygon fill="#fff0f0" stroke="red" points="463,-188 291,-188 291,-168 463,-168 463,-188"/>
<text text-anchor="middle" x="377" y="-174.5" font-family="Helvetica,sans-Serif" font-size="10.00">FIEAGameEngine/FactoryService.h</text>
</a>
</g>
</g>
<!-- Node18&#45;&gt;Node25 -->
<g id="edge32_Node000018_Node000025" class="edge">
<title>Node18&#45;&gt;Node25</title>
<g id="a_edge32_Node000018_Node000025"><a xlink:title=" ">
<path fill="none" stroke="#63b8ff" d="M476.92,-223.59C458.04,-215.17 430.08,-202.69 408.54,-193.07"/>
<polygon fill="#63b8ff" stroke="#63b8ff" points="410.18,-189.98 399.62,-189.1 407.33,-196.37 410.18,-189.98"/>
</a>
</g>
</g>
<!-- Node19&#45;&gt;Node9 -->
<g id="edge25_Node000019_Node000009" class="edge">
<title>Node19&#45;&gt;Node9</title>
<g id="a_edge25_Node000019_Node000009"><a xlink:title=" ">
<path fill="none" stroke="#63b8ff" d="M581.41,-167.63C595.48,-160.19 612.75,-148.33 621,-132 636.24,-101.82 597.82,-83.12 618,-56 632.19,-36.93 696.95,-22.92 736.6,-15.95"/>
<polygon fill="#63b8ff" stroke="#63b8ff" points="737.01,-19.43 746.28,-14.31 735.84,-12.53 737.01,-19.43"/>
</a>
</g>
</g>
<!-- Node19&#45;&gt;Node15 -->
<g id="edge28_Node000019_Node000015" class="edge">
<title>Node19&#45;&gt;Node15</title>
<g id="a_edge28_Node000019_Node000015"><a xlink:title=" ">
<path fill="none" stroke="#63b8ff" d="M582.82,-167.59C603.45,-159.09 634.08,-146.46 657.49,-136.81"/>
<polygon fill="#63b8ff" stroke="#63b8ff" points="658.69,-140.1 666.6,-133.06 656.02,-133.63 658.69,-140.1"/>
</a>
</g>
</g>
<!-- Node20 -->
<g id="Node000020" class="node">
<title>Node20</title>
<g id="a_Node000020"><a xlink:title=" ">
<polygon fill="#e0e0e0" stroke="#999999" points="611.88,-132 556.12,-132 556.12,-112 611.88,-112 611.88,-132"/>
<text text-anchor="middle" x="584" y="-118.5" font-family="Helvetica,sans-Serif" font-size="10.00">charconv</text>
</a>
</g>
</g>
<!-- Node19&#45;&gt;Node20 -->
<g id="edge26_Node000019_Node000020" class="edge">
<title>Node19&#45;&gt;Node20</title>
<g id="a_edge26_Node000019_Node000020"><a xlink:title=" ">
<path fill="none" stroke="#63b8ff" d="M564.18,-167.59C567.24,-160.7 571.51,-151.1 575.3,-142.57"/>
<polygon fill="#63b8ff" stroke="#63b8ff" points="578.39,-144.24 579.25,-133.68 571.99,-141.4 578.39,-144.24"/>
</a>
</g>
</g>
<!-- Node21 -->
<g id="Node000021" class="node">
<title>Node21</title>
<g id="a_Node000021"><a xlink:title=" ">
<polygon fill="#e0e0e0" stroke="#999999" points="537.62,-132 468.38,-132 468.38,-112 537.62,-112 537.62,-132"/>
<text text-anchor="middle" x="503" y="-118.5" font-family="Helvetica,sans-Serif" font-size="10.00">glm/glm.hpp</text>
</a>
</g>
</g>
<!-- Node19&#45;&gt;Node21 -->
<g id="edge27_Node000019_Node000021" class="edge">
<title>Node19&#45;&gt;Node21</title>
<g id="a_edge27_Node000019_Node000021"><a xlink:title=" ">
<path fill="none" stroke="#63b8ff" d="M550.07,-167.59C542.06,-160.01 530.58,-149.13 520.97,-140.02"/>
<polygon fill="#63b8ff" stroke="#63b8ff" points="523.58,-137.68 513.91,-133.34 518.77,-142.76 523.58,-137.68"/>
</a>
</g>
</g>
<!-- Node25&#45;&gt;Node3 -->
<g id="edge33_Node000025_Node000003" class="edge">
<title>Node25&#45;&gt;Node3</title>
<g id="a_edge33_Node000025_Node000003"><a xlink:title=" ">
<path fill="none" stroke="#63b8ff" d="M378.59,-167.58C380.43,-154.79 382.65,-131.31 378,-112 375.85,-103.07 371.61,-93.92 367.36,-86.22"/>
<polygon fill="#63b8ff" stroke="#63b8ff" points="370.45,-84.57 362.31,-77.78 364.44,-88.16 370.45,-84.57"/>
</a>
</g>
</g>
<!-- Node25&#45;&gt;Node9 -->
<g id="edge36_Node000025_Node000009" class="edge">
<title>Node25&#45;&gt;Node9</title>
<g id="a_edge36_Node000025_Node000009"><a xlink:title=" ">
<path fill="none" stroke="#63b8ff" d="M386.38,-167.93C400.92,-154.27 430.22,-128.28 459,-112 552.78,-58.94 678.55,-28.85 736.43,-16.98"/>
<polygon fill="#63b8ff" stroke="#63b8ff" points="737.11,-20.41 746.23,-15.01 735.74,-13.54 737.11,-20.41"/>
</a>
</g>
</g>
<!-- Node25&#45;&gt;Node12 -->
<g id="edge35_Node000025_Node000012" class="edge">
<title>Node25&#45;&gt;Node12</title>
<g id="a_edge35_Node000025_Node000012"><a xlink:title=" ">
<path fill="none" stroke="#63b8ff" d="M356.27,-167.59C337.79,-159.21 310.46,-146.8 289.31,-137.21"/>
<polygon fill="#63b8ff" stroke="#63b8ff" points="290.82,-134.05 280.27,-133.1 287.93,-140.42 290.82,-134.05"/>
</a>
</g>
</g>
<!-- Node25&#45;&gt;Node14 -->
<g id="edge37_Node000025_Node000014" class="edge">
<title>Node25&#45;&gt;Node14</title>
<g id="a_edge37_Node000025_Node000014"><a xlink:title=" ">
<path fill="none" stroke="#63b8ff" d="M300.95,-167.55C261.11,-160.84 212.17,-149.77 171,-132 142.54,-119.71 113.69,-98.45 95.37,-83.6"/>
<polygon fill="#63b8ff" stroke="#63b8ff" points="97.67,-80.96 87.74,-77.27 93.2,-86.35 97.67,-80.96"/>
</a>
</g>
</g>
<!-- Node25&#45;&gt;Node15 -->
<g id="edge34_Node000025_Node000015" class="edge">
<title>Node25&#45;&gt;Node15</title>
<g id="a_edge34_Node000025_Node000015"><a xlink:title=" ">
<path fill="none" stroke="#63b8ff" d="M432.05,-167.53C496.94,-156.37 602.77,-138.17 656.84,-128.87"/>
<polygon fill="#63b8ff" stroke="#63b8ff" points="657.12,-132.38 666.38,-127.23 655.93,-125.48 657.12,-132.38"/>
</a>
</g>
</g>
<!-- Node28&#45;&gt;Node9 -->
<g id="edge44_Node000028_Node000009" class="edge">
<title>Node28&#45;&gt;Node9</title>
<g id="a_edge44_Node000028_Node000009"><a xlink:title=" ">
<path fill="none" stroke="#63b8ff" d="M855.11,-223.68C852.47,-211 847.42,-187.65 842,-168 827.75,-116.28 823.23,-102.8 797,-56 792.07,-47.21 786.11,-37.79 780.88,-29.85"/>
<polygon fill="#63b8ff" stroke="#63b8ff" points="783.89,-28.06 775.42,-21.7 778.08,-31.96 783.89,-28.06"/>
</a>
</g>
</g>
<!-- Node29 -->
<g id="Node000029" class="node">
<title>Node29</title>
<g id="a_Node000029"><a xlink:href="_parse_writer_8h.html" target="_top" xlink:title=" ">
<polygon fill="white" stroke="#666666" points="832.62,-188 757.38,-188 757.38,-168 832.62,-168 832.62,-188"/>
<text text-anchor="middle" x="795" y="-174.5" font-family="Helvetica,sans-Serif" font-size="10.00">ParseWriter.h</text>
</a>
</g>
</g>
<!-- Node28&#45;&gt;Node29 -->
<g id="edge41_Node000028_Node000029" class="edge">
<title>Node28&#45;&gt;Node29</title>
<g id="a_edge41_Node000028_Node000029"><a xlink:title=" ">
<path fill="none" stroke="#63b8ff" d="M846.2,-223.59C837.4,-215.93 824.75,-204.91 814.23,-195.75"/>
<polygon fill="#63b8ff" stroke="#63b8ff" points="816.66,-193.22 806.82,-189.29 812.06,-198.5 816.66,-193.22"/>
</a>
</g>
</g>
<!-- Node31 -->
<g id="Node000031" class="node">
<title>Node31</title>
<g id="a_Node000031"><a xlink:title=" ">
<polygon fill="#e0e0e0" stroke="#999999" points="965.62,-188 902.38,-188 902.38,-168 965.62,-168 965.62,-188"/>
<text text-anchor="middle" x="934" y="-174.5" font-family="Helvetica,sans-Serif" font-size="10.00">json/json.h</text>
</a>
</g>
</g>
<!-- Node28&#45;&gt;Node31 -->
<g id="edge45_Node000028_Node000031" class="edge">
<title>Node28&#45;&gt;Node31</title>
<g id="a_edge45_Node000028_Node000031"><a xlink:title=" ">
<path fill="none" stroke="#63b8ff" d="M870.41,-223.59C881.61,-215.74 897.81,-204.38 911.06,-195.09"/>
<polygon fill="#63b8ff" stroke="#63b8ff" points="913.07,-197.96 919.24,-189.35 909.05,-192.22 913.07,-197.96"/>
</a>
</g>
</g>
<!-- Node29&#45;&gt;Node15 -->
<g id="edge42_Node000029_Node000015" class="edge">
<title>Node29&#45;&gt;Node15</title>
<g id="a_edge42_Node000029_Node000015"><a xlink:title=" ">
<path fill="none" stroke="#63b8ff" d="M776.88,-167.59C761.03,-159.36 737.72,-147.26 719.38,-137.74"/>
<polygon fill="#63b8ff" stroke="#63b8ff" points="721.09,-134.68 710.6,-133.18 717.86,-140.89 721.09,-134.68"/>
</a>
</g>
</g>
<!-- Node30 -->
<g id="Node000030" class="node">
<title>Node30</title>
<g id="a_Node000030"><a xlink:title=" ">
<polygon fill="#e0e0e0" stroke="#999999" points="815,-132 775,-132 775,-112 815,-112 815,-132"/>
<text text-anchor="middle" x="795" y="-118.5" font-family="Helvetica,sans-Serif" font-size="10.00">stack</text>
</a>
</g>
</g>
<!-- Node29&#45;&gt;Node30 -->
<g id="edge43_Node000029_Node000030" class="edge">
<title>Node29&#45;&gt;Node30</title>
<g id="a_edge43_Node000029_Node000030"><a xlink:title=" ">
<path fill="none" stroke="#63b8ff" d="M795,-167.59C795,-161.01 795,-151.96 795,-143.73"/>
<polygon fill="#63b8ff" stroke="#63b8ff" points="798.5,-143.81 795,-133.81 791.5,-143.81 798.5,-143.81"/>
</a>
</g>
</g>
<!-- Node32&#45;&gt;Node9 -->
<g id="edge50_Node000032_Node000009" class="edge">
<title>Node32&#45;&gt;Node9</title>
<g id="a_edge50_Node000032_Node000009"><a xlink:title=" ">
<path fill="none" stroke="#63b8ff" d="M919.6,-288.06C952,-285.47 1006.3,-276.23 1038,-244 1059.11,-222.54 1057,-209.1 1057,-179 1057,-179 1057,-179 1057,-121 1057,-66.35 874.19,-29.05 799.36,-16.07"/>
<polygon fill="#63b8ff" stroke="#63b8ff" points="800.26,-12.67 789.81,-14.45 799.09,-19.57 800.26,-12.67"/>
</a>
</g>
</g>
<!-- Node32&#45;&gt;Node28 -->
<g id="edge47_Node000032_Node000028" class="edge">
<title>Node32&#45;&gt;Node28</title>
<g id="a_edge47_Node000032_Node000028"><a xlink:title=" ">
<path fill="none" stroke="#63b8ff" d="M886.73,-279.59C881.98,-272.47 875.3,-262.45 869.48,-253.72"/>
<polygon fill="#63b8ff" stroke="#63b8ff" points="872.5,-251.94 864.04,-245.56 866.67,-255.82 872.5,-251.94"/>
</a>
</g>
</g>
<!-- Node32&#45;&gt;Node29 -->
<g id="edge48_Node000032_Node000029" class="edge">
<title>Node32&#45;&gt;Node29</title>
<g id="a_edge48_Node000032_Node000029"><a xlink:title=" ">
<path fill="none" stroke="#63b8ff" d="M866.19,-286.01C840.71,-281.59 803.73,-270.69 786,-244 777.14,-230.66 780.73,-212.36 785.76,-198.58"/>
<polygon fill="#63b8ff" stroke="#63b8ff" points="788.86,-200.24 789.51,-189.66 782.41,-197.53 788.86,-200.24"/>
</a>
</g>
</g>
<!-- Node32&#45;&gt;Node31 -->
<g id="edge51_Node000032_Node000031" class="edge">
<title>Node32&#45;&gt;Node31</title>
<g id="a_edge51_Node000032_Node000031"><a xlink:title=" ">
<path fill="none" stroke="#63b8ff" d="M902.9,-279.68C911.17,-271.23 922.47,-257.99 928,-244 933.62,-229.78 934.98,-212.5 935.02,-199.33"/>
<polygon fill="#63b8ff" stroke="#63b8ff" points="938.52,-199.62 934.77,-189.71 931.53,-199.8 938.52,-199.62"/>
</a>
</g>
</g>
<!-- Node33 -->
<g id="Node000033" class="node">
<title>Node33</title>
<g id="a_Node000033"><a xlink:title=" ">
<polygon fill="#e0e0e0" stroke="#999999" points="1028.75,-244 975.25,-244 975.25,-224 1028.75,-224 1028.75,-244"/>
<text text-anchor="middle" x="1002" y="-230.5" font-family="Helvetica,sans-Serif" font-size="10.00">iostream</text>
</a>
</g>
</g>
<!-- Node32&#45;&gt;Node33 -->
<g id="edge49_Node000032_Node000033" class="edge">
<title>Node32&#45;&gt;Node33</title>
<g id="a_edge49_Node000032_Node000033"><a xlink:title=" ">
<path fill="none" stroke="#63b8ff" d="M911.99,-279.59C928.76,-271.28 953.49,-259.03 972.79,-249.47"/>
<polygon fill="#63b8ff" stroke="#63b8ff" points="974.1,-252.73 981.51,-245.15 970.99,-246.45 974.1,-252.73"/>
</a>
</g>
</g>
</g>
</svg>
