<?xml version="1.0" encoding="UTF-8" standalone="no"?>
<!DOCTYPE svg PUBLIC "-//W3C//DTD SVG 1.1//EN"
 "http://www.w3.org/Graphics/SVG/1.1/DTD/svg11.dtd">
<!-- Generated by graphviz version 12.2.1 (20241206.2353)
 -->
<!-- Title: FIEAGameEngine/include/FIEAGameEngine/ContentService.h Pages: 1 -->
<svg width="1364pt" height="376pt"
 viewBox="0.00 0.00 1363.75 376.00" xmlns="http://www.w3.org/2000/svg" xmlns:xlink="http://www.w3.org/1999/xlink">
<g id="graph0" class="graph" transform="scale(1 1) rotate(0) translate(4 372)">
<title>FIEAGameEngine/include/FIEAGameEngine/ContentService.h</title>
<!-- Node1 -->
<g id="Node000001" class="node">
<title>Node1</title>
<g id="a_Node000001"><a xlink:title=" ">
<polygon fill="#999999" stroke="#666666" points="774.38,-368 597.88,-368 597.88,-336 774.38,-336 774.38,-368"/>
<text text-anchor="start" x="605.88" y="-354.5" font-family="Helvetica,sans-Serif" font-size="10.00">FIEAGameEngine/include</text>
<text text-anchor="middle" x="686.12" y="-342.5" font-family="Helvetica,sans-Serif" font-size="10.00">/FIEAGameEngine/ContentService.h</text>
</a>
</g>
</g>
<!-- Node2 -->
<g id="Node000002" class="node">
<title>Node2</title>
<g id="a_Node000002"><a xlink:href="_types_8h.html" target="_top" xlink:title=" ">
<polygon fill="white" stroke="#666666" points="298.25,-76 166,-76 166,-56 298.25,-56 298.25,-76"/>
<text text-anchor="middle" x="232.12" y="-62.5" font-family="Helvetica,sans-Serif" font-size="10.00">FIEAGameEngine/Types.h</text>
</a>
</g>
</g>
<!-- Node1&#45;&gt;Node2 -->
<g id="edge1_Node000001_Node000002" class="edge">
<title>Node1&#45;&gt;Node2</title>
<g id="a_edge1_Node000001_Node000002"><a xlink:title=" ">
<path fill="none" stroke="#63b8ff" d="M597.41,-347.3C459,-340.77 204.05,-325.44 171.12,-300 146.76,-281.17 147.12,-265.8 147.12,-235 147.12,-235 147.12,-235 147.12,-177 147.12,-146.2 152.62,-136.62 171.12,-112 179.99,-100.2 192.8,-90.1 204.39,-82.48"/>
<polygon fill="#63b8ff" stroke="#63b8ff" points="206.19,-85.48 212.84,-77.24 202.5,-79.53 206.19,-85.48"/>
</a>
</g>
</g>
<!-- Node8 -->
<g id="Node000008" class="node">
<title>Node8</title>
<g id="a_Node000008"><a xlink:title=" ">
<polygon fill="#e0e0e0" stroke="#999999" points="637.12,-20 597.12,-20 597.12,0 637.12,0 637.12,-20"/>
<text text-anchor="middle" x="617.12" y="-6.5" font-family="Helvetica,sans-Serif" font-size="10.00">string</text>
</a>
</g>
</g>
<!-- Node1&#45;&gt;Node8 -->
<g id="edge14_Node000001_Node000008" class="edge">
<title>Node1&#45;&gt;Node8</title>
<g id="a_edge14_Node000001_Node000008"><a xlink:title=" ">
<path fill="none" stroke="#63b8ff" d="M597.42,-348.49C453.52,-341.99 185.12,-318.64 185.12,-235 185.12,-235 185.12,-235 185.12,-177 185.12,-146.9 182.33,-132.75 204.12,-112 234.1,-83.46 511.6,-37.23 585.82,-20.21"/>
<polygon fill="#63b8ff" stroke="#63b8ff" points="586.56,-23.63 595.42,-17.83 584.88,-16.83 586.56,-23.63"/>
</a>
</g>
</g>
<!-- Node11 -->
<g id="Node000011" class="node">
<title>Node11</title>
<g id="a_Node000011"><a xlink:href="_service_mgr_8h.html" target="_top" xlink:title=" ">
<polygon fill="white" stroke="#666666" points="882.88,-132 727.38,-132 727.38,-112 882.88,-112 882.88,-132"/>
<text text-anchor="middle" x="805.12" y="-118.5" font-family="Helvetica,sans-Serif" font-size="10.00">FIEAGameEngine/ServiceMgr.h</text>
</a>
</g>
</g>
<!-- Node1&#45;&gt;Node11 -->
<g id="edge10_Node000001_Node000011" class="edge">
<title>Node1&#45;&gt;Node11</title>
<g id="a_edge10_Node000001_Node000011"><a xlink:title=" ">
<path fill="none" stroke="#63b8ff" d="M693.95,-335.79C710.12,-304.38 748.45,-230.09 781.12,-168 785.55,-159.59 790.49,-150.31 794.73,-142.38"/>
<polygon fill="#63b8ff" stroke="#63b8ff" points="797.78,-144.09 799.42,-133.63 791.61,-140.79 797.78,-144.09"/>
</a>
</g>
</g>
<!-- Node14 -->
<g id="Node000014" class="node">
<title>Node14</title>
<g id="a_Node000014"><a xlink:href="_r_t_t_i_8h.html" target="_top" xlink:title=" ">
<polygon fill="white" stroke="#666666" points="671.12,-132 625.12,-132 625.12,-112 671.12,-112 671.12,-132"/>
<text text-anchor="middle" x="648.12" y="-118.5" font-family="Helvetica,sans-Serif" font-size="10.00">RTTI.h</text>
</a>
</g>
</g>
<!-- Node1&#45;&gt;Node14 -->
<g id="edge15_Node000001_Node000014" class="edge">
<title>Node1&#45;&gt;Node14</title>
<g id="a_edge15_Node000001_Node000014"><a xlink:title=" ">
<path fill="none" stroke="#63b8ff" d="M683.57,-335.69C676.92,-295.8 659.07,-188.67 651.54,-143.51"/>
<polygon fill="#63b8ff" stroke="#63b8ff" points="655.02,-143.09 649.92,-133.8 648.12,-144.24 655.02,-143.09"/>
</a>
</g>
</g>
<!-- Node16 -->
<g id="Node000016" class="node">
<title>Node16</title>
<g id="a_Node000016"><a xlink:href="_attributed_8h.html" target="_top" xlink:title=" ">
<polygon fill="white" stroke="#666666" points="928,-300 824.25,-300 824.25,-280 928,-280 928,-300"/>
<text text-anchor="middle" x="876.12" y="-286.5" font-family="Helvetica,sans-Serif" font-size="10.00">Content/Attributed.h</text>
</a>
</g>
</g>
<!-- Node1&#45;&gt;Node16 -->
<g id="edge19_Node000001_Node000016" class="edge">
<title>Node1&#45;&gt;Node16</title>
<g id="a_edge19_Node000001_Node000016"><a xlink:title=" ">
<path fill="none" stroke="#63b8ff" d="M735.05,-335.55C766.16,-325.73 805.95,-313.16 835.34,-303.88"/>
<polygon fill="#63b8ff" stroke="#63b8ff" points="836.13,-307.3 844.61,-300.95 834.02,-300.63 836.13,-307.3"/>
</a>
</g>
</g>
<!-- Node27 -->
<g id="Node000027" class="node">
<title>Node27</title>
<g id="a_Node000027"><a xlink:href="_i_parse_handler_8h.html" target="_top" xlink:title=" ">
<polygon fill="white" stroke="#666666" points="1305.12,-244 1181.12,-244 1181.12,-224 1305.12,-224 1305.12,-244"/>
<text text-anchor="middle" x="1243.12" y="-230.5" font-family="Helvetica,sans-Serif" font-size="10.00">Content/IParseHandler.h</text>
</a>
</g>
</g>
<!-- Node1&#45;&gt;Node27 -->
<g id="edge44_Node000001_Node000027" class="edge">
<title>Node1&#45;&gt;Node27</title>
<g id="a_edge44_Node000001_Node000027"><a xlink:title=" ">
<path fill="none" stroke="#63b8ff" d="M763.06,-335.55C812.75,-325.53 878.79,-312.12 937.12,-300 1024.98,-281.74 1126.89,-259.98 1188.12,-246.84"/>
<polygon fill="#63b8ff" stroke="#63b8ff" points="1188.54,-250.33 1197.58,-244.8 1187.07,-243.48 1188.54,-250.33"/>
</a>
</g>
</g>
<!-- Node3 -->
<g id="Node000003" class="node">
<title>Node3</title>
<g id="a_Node000003"><a xlink:title=" ">
<polygon fill="#e0e0e0" stroke="#999999" points="579.38,-20 516.88,-20 516.88,0 579.38,0 579.38,-20"/>
<text text-anchor="middle" x="548.12" y="-6.5" font-family="Helvetica,sans-Serif" font-size="10.00">windows.h</text>
</a>
</g>
</g>
<!-- Node2&#45;&gt;Node3 -->
<g id="edge2_Node000002_Node000003" class="edge">
<title>Node2&#45;&gt;Node3</title>
<g id="a_edge2_Node000002_Node000003"><a xlink:title=" ">
<path fill="none" stroke="#63b8ff" d="M297.01,-55.54C350.54,-47.48 428.74,-35.12 505.85,-20.35"/>
<polygon fill="#63b8ff" stroke="#63b8ff" points="506.08,-23.87 515.23,-18.54 504.75,-17 506.08,-23.87"/>
</a>
</g>
</g>
<!-- Node4 -->
<g id="Node000004" class="node">
<title>Node4</title>
<g id="a_Node000004"><a xlink:title=" ">
<polygon fill="#e0e0e0" stroke="#999999" points="48.25,-20 0,-20 0,0 48.25,0 48.25,-20"/>
<text text-anchor="middle" x="24.12" y="-6.5" font-family="Helvetica,sans-Serif" font-size="10.00">cassert</text>
</a>
</g>
</g>
<!-- Node2&#45;&gt;Node4 -->
<g id="edge3_Node000002_Node000004" class="edge">
<title>Node2&#45;&gt;Node4</title>
<g id="a_edge3_Node000002_Node000004"><a xlink:title=" ">
<path fill="none" stroke="#63b8ff" d="M194.53,-55.5C161.42,-47.1 111.6,-34.37 59.72,-20.66"/>
<polygon fill="#63b8ff" stroke="#63b8ff" points="60.65,-17.29 50.09,-18.11 58.86,-24.05 60.65,-17.29"/>
</a>
</g>
</g>
<!-- Node5 -->
<g id="Node000005" class="node">
<title>Node5</title>
<g id="a_Node000005"><a xlink:title=" ">
<polygon fill="#e0e0e0" stroke="#999999" points="114.25,-20 66,-20 66,0 114.25,0 114.25,-20"/>
<text text-anchor="middle" x="90.12" y="-6.5" font-family="Helvetica,sans-Serif" font-size="10.00">cstddef</text>
</a>
</g>
</g>
<!-- Node2&#45;&gt;Node5 -->
<g id="edge4_Node000002_Node000005" class="edge">
<title>Node2&#45;&gt;Node5</title>
<g id="a_edge4_Node000002_Node000005"><a xlink:title=" ">
<path fill="none" stroke="#63b8ff" d="M207.39,-55.59C184.69,-46.96 150.8,-34.08 125.29,-24.37"/>
<polygon fill="#63b8ff" stroke="#63b8ff" points="126.58,-21.12 115.99,-20.84 124.09,-27.66 126.58,-21.12"/>
</a>
</g>
</g>
<!-- Node6 -->
<g id="Node000006" class="node">
<title>Node6</title>
<g id="a_Node000006"><a xlink:title=" ">
<polygon fill="#e0e0e0" stroke="#999999" points="177.75,-20 132.5,-20 132.5,0 177.75,0 177.75,-20"/>
<text text-anchor="middle" x="155.12" y="-6.5" font-family="Helvetica,sans-Serif" font-size="10.00">cstdint</text>
</a>
</g>
</g>
<!-- Node2&#45;&gt;Node6 -->
<g id="edge5_Node000002_Node000006" class="edge">
<title>Node2&#45;&gt;Node6</title>
<g id="a_edge5_Node000002_Node000006"><a xlink:title=" ">
<path fill="none" stroke="#63b8ff" d="M218.71,-55.59C207.52,-47.74 191.31,-36.38 178.07,-27.09"/>
<polygon fill="#63b8ff" stroke="#63b8ff" points="180.08,-24.22 169.88,-21.35 176.06,-29.96 180.08,-24.22"/>
</a>
</g>
</g>
<!-- Node7 -->
<g id="Node000007" class="node">
<title>Node7</title>
<g id="a_Node000007"><a xlink:title=" ">
<polygon fill="#e0e0e0" stroke="#999999" points="248.5,-20 195.75,-20 195.75,0 248.5,0 248.5,-20"/>
<text text-anchor="middle" x="222.12" y="-6.5" font-family="Helvetica,sans-Serif" font-size="10.00">cstdbool</text>
</a>
</g>
</g>
<!-- Node2&#45;&gt;Node7 -->
<g id="edge6_Node000002_Node000007" class="edge">
<title>Node2&#45;&gt;Node7</title>
<g id="a_edge6_Node000002_Node000007"><a xlink:title=" ">
<path fill="none" stroke="#63b8ff" d="M230.38,-55.59C229.15,-48.93 227.45,-39.75 225.91,-31.44"/>
<polygon fill="#63b8ff" stroke="#63b8ff" points="229.38,-30.98 224.12,-21.79 222.5,-32.26 229.38,-30.98"/>
</a>
</g>
</g>
<!-- Node2&#45;&gt;Node8 -->
<g id="edge7_Node000002_Node000008" class="edge">
<title>Node2&#45;&gt;Node8</title>
<g id="a_edge7_Node000002_Node000008"><a xlink:title=" ">
<path fill="none" stroke="#63b8ff" d="M298.4,-57.26C385.94,-46.95 534.25,-29.13 585.56,-20.02"/>
<polygon fill="#63b8ff" stroke="#63b8ff" points="586.02,-23.49 595.16,-18.13 584.68,-16.62 586.02,-23.49"/>
</a>
</g>
</g>
<!-- Node9 -->
<g id="Node000009" class="node">
<title>Node9</title>
<g id="a_Node000009"><a xlink:title=" ">
<polygon fill="#e0e0e0" stroke="#999999" points="321.25,-20 267,-20 267,0 321.25,0 321.25,-20"/>
<text text-anchor="middle" x="294.12" y="-6.5" font-family="Helvetica,sans-Serif" font-size="10.00">crtdefs.h</text>
</a>
</g>
</g>
<!-- Node2&#45;&gt;Node9 -->
<g id="edge8_Node000002_Node000009" class="edge">
<title>Node2&#45;&gt;Node9</title>
<g id="a_edge8_Node000002_Node000009"><a xlink:title=" ">
<path fill="none" stroke="#63b8ff" d="M242.92,-55.59C251.73,-47.93 264.38,-36.91 274.9,-27.75"/>
<polygon fill="#63b8ff" stroke="#63b8ff" points="277.07,-30.5 282.31,-21.29 272.47,-25.22 277.07,-30.5"/>
</a>
</g>
</g>
<!-- Node10 -->
<g id="Node000010" class="node">
<title>Node10</title>
<g id="a_Node000010"><a xlink:title=" ">
<polygon fill="#e0e0e0" stroke="#999999" points="499.12,-20 339.12,-20 339.12,0 499.12,0 499.12,-20"/>
<text text-anchor="middle" x="419.12" y="-6.5" font-family="Helvetica,sans-Serif" font-size="10.00">../src/memory/SystemAllocator.h</text>
</a>
</g>
</g>
<!-- Node2&#45;&gt;Node10 -->
<g id="edge9_Node000002_Node000010" class="edge">
<title>Node2&#45;&gt;Node10</title>
<g id="a_edge9_Node000002_Node000010"><a xlink:title=" ">
<path fill="none" stroke="#63b8ff" d="M264.7,-55.59C295.35,-46.74 341.47,-33.43 375.33,-23.65"/>
<polygon fill="#63b8ff" stroke="#63b8ff" points="376.21,-27.04 384.84,-20.9 374.27,-20.31 376.21,-27.04"/>
</a>
</g>
</g>
<!-- Node11&#45;&gt;Node2 -->
<g id="edge11_Node000011_Node000002" class="edge">
<title>Node11&#45;&gt;Node2</title>
<g id="a_edge11_Node000011_Node000002"><a xlink:title=" ">
<path fill="none" stroke="#63b8ff" d="M727.33,-113.37C722.52,-112.9 717.76,-112.44 713.12,-112 570.92,-98.39 405.02,-82.97 309.9,-74.17"/>
<polygon fill="#63b8ff" stroke="#63b8ff" points="310.45,-70.71 300.17,-73.27 309.8,-77.68 310.45,-70.71"/>
</a>
</g>
</g>
<!-- Node12 -->
<g id="Node000012" class="node">
<title>Node12</title>
<g id="a_Node000012"><a xlink:title=" ">
<polygon fill="#e0e0e0" stroke="#999999" points="1115.62,-76 1072.62,-76 1072.62,-56 1115.62,-56 1115.62,-76"/>
<text text-anchor="middle" x="1094.12" y="-62.5" font-family="Helvetica,sans-Serif" font-size="10.00">vector</text>
</a>
</g>
</g>
<!-- Node11&#45;&gt;Node12 -->
<g id="edge12_Node000011_Node000012" class="edge">
<title>Node11&#45;&gt;Node12</title>
<g id="a_edge12_Node000011_Node000012"><a xlink:title=" ">
<path fill="none" stroke="#63b8ff" d="M855.8,-111.53C914.84,-100.5 1010.72,-82.58 1060.98,-73.19"/>
<polygon fill="#63b8ff" stroke="#63b8ff" points="1061.47,-76.66 1070.66,-71.38 1060.19,-69.78 1061.47,-76.66"/>
</a>
</g>
</g>
<!-- Node13 -->
<g id="Node000013" class="node">
<title>Node13</title>
<g id="a_Node000013"><a xlink:title=" ">
<polygon fill="#e0e0e0" stroke="#999999" points="990.5,-76 907.75,-76 907.75,-56 990.5,-56 990.5,-76"/>
<text text-anchor="middle" x="949.12" y="-62.5" font-family="Helvetica,sans-Serif" font-size="10.00">unordered_map</text>
</a>
</g>
</g>
<!-- Node11&#45;&gt;Node13 -->
<g id="edge13_Node000011_Node000013" class="edge">
<title>Node11&#45;&gt;Node13</title>
<g id="a_edge13_Node000011_Node000013"><a xlink:title=" ">
<path fill="none" stroke="#63b8ff" d="M830.21,-111.59C853.19,-102.97 887.48,-90.12 913.34,-80.42"/>
<polygon fill="#63b8ff" stroke="#63b8ff" points="914.29,-83.8 922.43,-77.01 911.84,-77.25 914.29,-83.8"/>
</a>
</g>
</g>
<!-- Node14&#45;&gt;Node2 -->
<g id="edge16_Node000014_Node000002" class="edge">
<title>Node14&#45;&gt;Node2</title>
<g id="a_edge16_Node000014_Node000002"><a xlink:title=" ">
<path fill="none" stroke="#63b8ff" d="M624.87,-117.98C565.53,-110.28 406.41,-89.62 309.89,-77.09"/>
<polygon fill="#63b8ff" stroke="#63b8ff" points="310.6,-73.66 300.23,-75.84 309.7,-80.6 310.6,-73.66"/>
</a>
</g>
</g>
<!-- Node15 -->
<g id="Node000015" class="node">
<title>Node15</title>
<g id="a_Node000015"><a xlink:href="_r_t_t_i_8inl.html" target="_top" xlink:title=" ">
<polygon fill="white" stroke="#666666" points="753.38,-76 624.88,-76 624.88,-56 753.38,-56 753.38,-76"/>
<text text-anchor="middle" x="689.12" y="-62.5" font-family="Helvetica,sans-Serif" font-size="10.00">FieaGameEngine/RTTI.inl</text>
</a>
</g>
</g>
<!-- Node14&#45;&gt;Node15 -->
<g id="edge17_Node000014_Node000015" class="edge">
<title>Node14&#45;&gt;Node15</title>
<g id="a_edge17_Node000014_Node000015"><a xlink:title=" ">
<path fill="none" stroke="#63b8ff" d="M650,-111.59C654.11,-104.24 661.66,-93.8 669.17,-84.87"/>
<polygon fill="#63b8ff" stroke="#63b8ff" points="671.76,-87.22 675.81,-77.43 666.54,-82.55 671.76,-87.22"/>
</a>
</g>
</g>
<!-- Node15&#45;&gt;Node14 -->
<g id="edge18_Node000015_Node000014" class="edge">
<title>Node15&#45;&gt;Node14</title>
<g id="a_edge18_Node000015_Node000014"><a xlink:title=" ">
<path fill="none" stroke="#63b8ff" d="M687.31,-76.3C683.23,-83.62 675.7,-94.06 668.19,-103"/>
<polygon fill="#63b8ff" stroke="#63b8ff" points="665.58,-100.67 661.54,-110.46 670.81,-105.33 665.58,-100.67"/>
</a>
</g>
</g>
<!-- Node16&#45;&gt;Node12 -->
<g id="edge42_Node000016_Node000012" class="edge">
<title>Node16&#45;&gt;Node12</title>
<g id="a_edge42_Node000016_Node000012"><a xlink:title=" ">
<path fill="none" stroke="#63b8ff" d="M907.55,-279.55C948.57,-265.72 1020.19,-236.23 1063.12,-188 1082.19,-166.59 1087.77,-159.71 1095.12,-132 1097.41,-123.41 1095.22,-120.89 1095.12,-112 1095.04,-104.09 1094.86,-95.4 1094.68,-87.78"/>
<polygon fill="#63b8ff" stroke="#63b8ff" points="1098.18,-87.73 1094.43,-77.82 1091.19,-87.91 1098.18,-87.73"/>
</a>
</g>
</g>
<!-- Node16&#45;&gt;Node14 -->
<g id="edge20_Node000016_Node000014" class="edge">
<title>Node16&#45;&gt;Node14</title>
<g id="a_edge20_Node000016_Node000014"><a xlink:title=" ">
<path fill="none" stroke="#63b8ff" d="M863.09,-279.54C838.46,-261.67 783.42,-221.72 737.12,-188 714.29,-171.37 688.19,-152.3 670.18,-139.13"/>
<polygon fill="#63b8ff" stroke="#63b8ff" points="672.45,-136.45 662.31,-133.38 668.32,-142.1 672.45,-136.45"/>
</a>
</g>
</g>
<!-- Node17 -->
<g id="Node000017" class="node">
<title>Node17</title>
<g id="a_Node000017"><a xlink:href="_scope_8h.html" target="_top" xlink:title=" ">
<polygon fill="white" stroke="#666666" points="902.12,-244 850.12,-244 850.12,-224 902.12,-224 902.12,-244"/>
<text text-anchor="middle" x="876.12" y="-230.5" font-family="Helvetica,sans-Serif" font-size="10.00">Scope.h</text>
</a>
</g>
</g>
<!-- Node16&#45;&gt;Node17 -->
<g id="edge21_Node000016_Node000017" class="edge">
<title>Node16&#45;&gt;Node17</title>
<g id="a_edge21_Node000016_Node000017"><a xlink:title=" ">
<path fill="none" stroke="#63b8ff" d="M876.12,-279.59C876.12,-273.01 876.12,-263.96 876.12,-255.73"/>
<polygon fill="#63b8ff" stroke="#63b8ff" points="879.63,-255.81 876.13,-245.81 872.63,-255.81 879.63,-255.81"/>
</a>
</g>
</g>
<!-- Node26 -->
<g id="Node000026" class="node">
<title>Node26</title>
<g id="a_Node000026"><a xlink:title=" ">
<polygon fill="#e0e0e0" stroke="#999999" points="978.12,-244 920.12,-244 920.12,-224 978.12,-224 978.12,-244"/>
<text text-anchor="middle" x="949.12" y="-230.5" font-family="Helvetica,sans-Serif" font-size="10.00">functional</text>
</a>
</g>
</g>
<!-- Node16&#45;&gt;Node26 -->
<g id="edge43_Node000016_Node000026" class="edge">
<title>Node16&#45;&gt;Node26</title>
<g id="a_edge43_Node000016_Node000026"><a xlink:title=" ">
<path fill="none" stroke="#63b8ff" d="M888.84,-279.59C899.52,-271.7 915,-260.24 927.61,-250.92"/>
<polygon fill="#63b8ff" stroke="#63b8ff" points="929.38,-253.96 935.34,-245.2 925.22,-248.33 929.38,-253.96"/>
</a>
</g>
</g>
<!-- Node17&#45;&gt;Node12 -->
<g id="edge32_Node000017_Node000012" class="edge">
<title>Node17&#45;&gt;Node12</title>
<g id="a_edge32_Node000017_Node000012"><a xlink:title=" ">
<path fill="none" stroke="#63b8ff" d="M902.48,-226.12C948.39,-214.1 1038.45,-190.31 1041.12,-188 1071.55,-161.74 1085.16,-114.73 1090.71,-87.68"/>
<polygon fill="#63b8ff" stroke="#63b8ff" points="1094.13,-88.46 1092.51,-77.99 1087.25,-87.18 1094.13,-88.46"/>
</a>
</g>
</g>
<!-- Node17&#45;&gt;Node13 -->
<g id="edge33_Node000017_Node000013" class="edge">
<title>Node17&#45;&gt;Node13</title>
<g id="a_edge33_Node000017_Node000013"><a xlink:title=" ">
<path fill="none" stroke="#63b8ff" d="M902.59,-225.77C943.91,-214.37 1019.44,-192.98 1023.12,-188 1049.42,-152.45 1002.42,-107.24 972.01,-83.41"/>
<polygon fill="#63b8ff" stroke="#63b8ff" points="974.12,-80.62 964.04,-77.38 969.9,-86.2 974.12,-80.62"/>
</a>
</g>
</g>
<!-- Node17&#45;&gt;Node14 -->
<g id="edge22_Node000017_Node000014" class="edge">
<title>Node17&#45;&gt;Node14</title>
<g id="a_edge22_Node000017_Node000014"><a xlink:title=" ">
<path fill="none" stroke="#63b8ff" d="M856.08,-223.59C836.82,-214.53 806.94,-200.42 781.12,-188 745.3,-170.76 704.21,-150.62 677.3,-137.38"/>
<polygon fill="#63b8ff" stroke="#63b8ff" points="678.91,-134.28 668.39,-133 675.81,-140.56 678.91,-134.28"/>
</a>
</g>
</g>
<!-- Node18 -->
<g id="Node000018" class="node">
<title>Node18</title>
<g id="a_Node000018"><a xlink:href="_datum_8h.html" target="_top" xlink:title=" ">
<polygon fill="white" stroke="#666666" points="480.88,-188 427.38,-188 427.38,-168 480.88,-168 480.88,-188"/>
<text text-anchor="middle" x="454.12" y="-174.5" font-family="Helvetica,sans-Serif" font-size="10.00">Datum.h</text>
</a>
</g>
</g>
<!-- Node17&#45;&gt;Node18 -->
<g id="edge23_Node000017_Node000018" class="edge">
<title>Node17&#45;&gt;Node18</title>
<g id="a_edge23_Node000017_Node000018"><a xlink:title=" ">
<path fill="none" stroke="#63b8ff" d="M849.73,-229.62C777.68,-220.4 577.4,-194.78 492.72,-183.94"/>
<polygon fill="#63b8ff" stroke="#63b8ff" points="493.19,-180.47 482.83,-182.67 492.31,-187.41 493.19,-180.47"/>
</a>
</g>
</g>
<!-- Node23 -->
<g id="Node000023" class="node">
<title>Node23</title>
<g id="a_Node000023"><a xlink:title=" ">
<polygon fill="#e0e0e0" stroke="#999999" points="1014.5,-188 979.75,-188 979.75,-168 1014.5,-168 1014.5,-188"/>
<text text-anchor="middle" x="997.12" y="-174.5" font-family="Helvetica,sans-Serif" font-size="10.00">map</text>
</a>
</g>
</g>
<!-- Node17&#45;&gt;Node23 -->
<g id="edge34_Node000017_Node000023" class="edge">
<title>Node17&#45;&gt;Node23</title>
<g id="a_edge34_Node000017_Node000023"><a xlink:title=" ">
<path fill="none" stroke="#63b8ff" d="M897.2,-223.59C917.13,-214.7 947.16,-201.3 969.1,-191.51"/>
<polygon fill="#63b8ff" stroke="#63b8ff" points="970.35,-194.78 978.05,-187.51 967.49,-188.39 970.35,-194.78"/>
</a>
</g>
</g>
<!-- Node24 -->
<g id="Node000024" class="node">
<title>Node24</title>
<g id="a_Node000024"><a xlink:href="_factory_service_8h.html" target="_top" xlink:title=" ">
<polygon fill="white" stroke="#666666" points="962.12,-188 790.12,-188 790.12,-168 962.12,-168 962.12,-188"/>
<text text-anchor="middle" x="876.12" y="-174.5" font-family="Helvetica,sans-Serif" font-size="10.00">FIEAGameEngine/FactoryService.h</text>
</a>
</g>
</g>
<!-- Node17&#45;&gt;Node24 -->
<g id="edge35_Node000017_Node000024" class="edge">
<title>Node17&#45;&gt;Node24</title>
<g id="a_edge35_Node000017_Node000024"><a xlink:title=" ">
<path fill="none" stroke="#63b8ff" d="M876.12,-223.59C876.12,-217.01 876.12,-207.96 876.12,-199.73"/>
<polygon fill="#63b8ff" stroke="#63b8ff" points="879.63,-199.81 876.13,-189.81 872.63,-199.81 879.63,-199.81"/>
</a>
</g>
</g>
<!-- Node18&#45;&gt;Node8 -->
<g id="edge24_Node000018_Node000008" class="edge">
<title>Node18&#45;&gt;Node8</title>
<g id="a_edge24_Node000018_Node000008"><a xlink:title=" ">
<path fill="none" stroke="#63b8ff" d="M481.33,-174.1C509.29,-169.7 552.29,-158.79 578.12,-132 604.85,-104.28 613.26,-58.15 615.91,-31.57"/>
<polygon fill="#63b8ff" stroke="#63b8ff" points="619.39,-32.02 616.68,-21.77 612.41,-31.47 619.39,-32.02"/>
</a>
</g>
</g>
<!-- Node18&#45;&gt;Node14 -->
<g id="edge28_Node000018_Node000014" class="edge">
<title>Node18&#45;&gt;Node14</title>
<g id="a_edge28_Node000018_Node000014"><a xlink:title=" ">
<path fill="none" stroke="#63b8ff" d="M481.1,-169.49C515.73,-159.85 575.85,-143.12 613.73,-132.57"/>
<polygon fill="#63b8ff" stroke="#63b8ff" points="614.56,-135.97 623.26,-129.92 612.69,-129.23 614.56,-135.97"/>
</a>
</g>
</g>
<!-- Node19 -->
<g id="Node000019" class="node">
<title>Node19</title>
<g id="a_Node000019"><a xlink:title=" ">
<polygon fill="#e0e0e0" stroke="#999999" points="345,-132 289.25,-132 289.25,-112 345,-112 345,-132"/>
<text text-anchor="middle" x="317.12" y="-118.5" font-family="Helvetica,sans-Serif" font-size="10.00">charconv</text>
</a>
</g>
</g>
<!-- Node18&#45;&gt;Node19 -->
<g id="edge25_Node000018_Node000019" class="edge">
<title>Node18&#45;&gt;Node19</title>
<g id="a_edge25_Node000018_Node000019"><a xlink:title=" ">
<path fill="none" stroke="#63b8ff" d="M430.26,-167.59C408.59,-159.05 376.36,-146.35 351.83,-136.68"/>
<polygon fill="#63b8ff" stroke="#63b8ff" points="353.17,-133.45 342.58,-133.03 350.6,-139.96 353.17,-133.45"/>
</a>
</g>
</g>
<!-- Node20 -->
<g id="Node000020" class="node">
<title>Node20</title>
<g id="a_Node000020"><a xlink:title=" ">
<polygon fill="#e0e0e0" stroke="#999999" points="432.75,-132 363.5,-132 363.5,-112 432.75,-112 432.75,-132"/>
<text text-anchor="middle" x="398.12" y="-118.5" font-family="Helvetica,sans-Serif" font-size="10.00">glm/glm.hpp</text>
</a>
</g>
</g>
<!-- Node18&#45;&gt;Node20 -->
<g id="edge26_Node000018_Node000020" class="edge">
<title>Node18&#45;&gt;Node20</title>
<g id="a_edge26_Node000018_Node000020"><a xlink:title=" ">
<path fill="none" stroke="#63b8ff" d="M444.37,-167.59C436.5,-160.01 425.23,-149.13 415.78,-140.02"/>
<polygon fill="#63b8ff" stroke="#63b8ff" points="418.49,-137.77 408.86,-133.35 413.63,-142.81 418.49,-137.77"/>
</a>
</g>
</g>
<!-- Node21 -->
<g id="Node000021" class="node">
<title>Node21</title>
<g id="a_Node000021"><a xlink:title=" ">
<polygon fill="#e0e0e0" stroke="#999999" points="569.12,-132 451.12,-132 451.12,-112 569.12,-112 569.12,-132"/>
<text text-anchor="middle" x="510.12" y="-118.5" font-family="Helvetica,sans-Serif" font-size="10.00">glm/gtx/string_cast.hpp</text>
</a>
</g>
</g>
<!-- Node18&#45;&gt;Node21 -->
<g id="edge27_Node000018_Node000021" class="edge">
<title>Node18&#45;&gt;Node21</title>
<g id="a_edge27_Node000018_Node000021"><a xlink:title=" ">
<path fill="none" stroke="#63b8ff" d="M463.88,-167.59C471.75,-160.01 483.02,-149.13 492.47,-140.02"/>
<polygon fill="#63b8ff" stroke="#63b8ff" points="494.62,-142.81 499.39,-133.35 489.76,-137.77 494.62,-142.81"/>
</a>
</g>
</g>
<!-- Node22 -->
<g id="Node000022" class="node">
<title>Node22</title>
<g id="a_Node000022"><a xlink:href="_datum_8inl.html" target="_top" xlink:title=" ">
<polygon fill="white" stroke="#666666" points="271.12,-132 213.12,-132 213.12,-112 271.12,-112 271.12,-132"/>
<text text-anchor="middle" x="242.12" y="-118.5" font-family="Helvetica,sans-Serif" font-size="10.00">Datum.inl</text>
</a>
</g>
</g>
<!-- Node18&#45;&gt;Node22 -->
<g id="edge29_Node000018_Node000022" class="edge">
<title>Node18&#45;&gt;Node22</title>
<g id="a_edge29_Node000018_Node000022"><a xlink:title=" ">
<path fill="none" stroke="#63b8ff" d="M427.07,-171.22C390.37,-162.55 324.89,-145.98 282.44,-134.71"/>
<polygon fill="#63b8ff" stroke="#63b8ff" points="283.4,-131.35 272.84,-132.15 281.6,-138.11 283.4,-131.35"/>
</a>
</g>
</g>
<!-- Node22&#45;&gt;Node2 -->
<g id="edge30_Node000022_Node000002" class="edge">
<title>Node22&#45;&gt;Node2</title>
<g id="a_edge30_Node000022_Node000002"><a xlink:title=" ">
<path fill="none" stroke="#63b8ff" d="M240.38,-111.59C239.15,-104.93 237.45,-95.75 235.91,-87.44"/>
<polygon fill="#63b8ff" stroke="#63b8ff" points="239.38,-86.98 234.12,-77.79 232.5,-88.26 239.38,-86.98"/>
</a>
</g>
</g>
<!-- Node22&#45;&gt;Node18 -->
<g id="edge31_Node000022_Node000018" class="edge">
<title>Node22&#45;&gt;Node18</title>
<g id="a_edge31_Node000022_Node000018"><a xlink:title=" ">
<path fill="none" stroke="#63b8ff" d="M271.52,-129.33C309.24,-138.29 374.4,-154.8 415.9,-165.84"/>
<polygon fill="#63b8ff" stroke="#63b8ff" points="414.91,-169.2 425.47,-168.41 416.72,-162.44 414.91,-169.2"/>
</a>
</g>
</g>
<!-- Node24&#45;&gt;Node2 -->
<g id="edge36_Node000024_Node000002" class="edge">
<title>Node24&#45;&gt;Node2</title>
<g id="a_edge36_Node000024_Node000002"><a xlink:title=" ">
<path fill="none" stroke="#63b8ff" d="M834.09,-167.55C801.79,-159.69 756.38,-147.32 718.12,-132 700.41,-124.9 698.4,-117.5 680.12,-112 612.89,-91.77 419.41,-77.77 309.97,-71.22"/>
<polygon fill="#63b8ff" stroke="#63b8ff" points="310.38,-67.74 300.19,-70.64 309.97,-74.73 310.38,-67.74"/>
</a>
</g>
</g>
<!-- Node24&#45;&gt;Node8 -->
<g id="edge39_Node000024_Node000008" class="edge">
<title>Node24&#45;&gt;Node8</title>
<g id="a_edge39_Node000024_Node000008"><a xlink:title=" ">
<path fill="none" stroke="#63b8ff" d="M914.38,-167.66C935.29,-160.83 960.28,-149.62 977.12,-132 1001.43,-106.58 1022.49,-82.28 999.12,-56 975.95,-29.93 736.18,-16.44 648.78,-12.36"/>
<polygon fill="#63b8ff" stroke="#63b8ff" points="649.15,-8.87 639.01,-11.92 648.84,-15.87 649.15,-8.87"/>
</a>
</g>
</g>
<!-- Node24&#45;&gt;Node11 -->
<g id="edge38_Node000024_Node000011" class="edge">
<title>Node24&#45;&gt;Node11</title>
<g id="a_edge38_Node000024_Node000011"><a xlink:title=" ">
<path fill="none" stroke="#63b8ff" d="M863.76,-167.59C853.48,-159.77 838.61,-148.46 826.41,-139.19"/>
<polygon fill="#63b8ff" stroke="#63b8ff" points="828.63,-136.48 818.56,-133.21 824.4,-142.05 828.63,-136.48"/>
</a>
</g>
</g>
<!-- Node24&#45;&gt;Node13 -->
<g id="edge41_Node000024_Node000013" class="edge">
<title>Node24&#45;&gt;Node13</title>
<g id="a_edge41_Node000024_Node000013"><a xlink:title=" ">
<path fill="none" stroke="#63b8ff" d="M912.1,-167.59C930.17,-160.85 950.45,-149.74 961.12,-132 969.45,-118.18 965.01,-99.93 959.31,-86.28"/>
<polygon fill="#63b8ff" stroke="#63b8ff" points="962.58,-85.01 955.14,-77.47 956.26,-88.01 962.58,-85.01"/>
</a>
</g>
</g>
<!-- Node24&#45;&gt;Node14 -->
<g id="edge37_Node000024_Node000014" class="edge">
<title>Node24&#45;&gt;Node14</title>
<g id="a_edge37_Node000024_Node000014"><a xlink:title=" ">
<path fill="none" stroke="#63b8ff" d="M835.49,-167.52C796.81,-158.47 736.98,-144.41 685.12,-132 684.31,-131.8 683.48,-131.6 682.64,-131.4"/>
<polygon fill="#63b8ff" stroke="#63b8ff" points="683.62,-128.04 673.08,-129.09 681.98,-134.84 683.62,-128.04"/>
</a>
</g>
</g>
<!-- Node25 -->
<g id="Node000025" class="node">
<title>Node25</title>
<g id="a_Node000025"><a xlink:title=" ">
<polygon fill="#e0e0e0" stroke="#999999" points="951.75,-132 900.5,-132 900.5,-112 951.75,-112 951.75,-132"/>
<text text-anchor="middle" x="926.12" y="-118.5" font-family="Helvetica,sans-Serif" font-size="10.00">memory</text>
</a>
</g>
</g>
<!-- Node24&#45;&gt;Node25 -->
<g id="edge40_Node000024_Node000025" class="edge">
<title>Node24&#45;&gt;Node25</title>
<g id="a_edge40_Node000024_Node000025"><a xlink:title=" ">
<path fill="none" stroke="#63b8ff" d="M884.83,-167.59C891.72,-160.16 901.52,-149.58 909.84,-140.58"/>
<polygon fill="#63b8ff" stroke="#63b8ff" points="912.26,-143.12 916.49,-133.41 907.12,-138.37 912.26,-143.12"/>
</a>
</g>
</g>
<!-- Node27&#45;&gt;Node8 -->
<g id="edge48_Node000027_Node000008" class="edge">
<title>Node27&#45;&gt;Node8</title>
<g id="a_edge48_Node000027_Node000008"><a xlink:title=" ">
<path fill="none" stroke="#63b8ff" d="M1244.93,-223.53C1248.58,-201.27 1254.37,-145.02 1227.12,-112 1194.21,-72.11 1174.6,-71.05 1125.12,-56 1035.26,-28.67 745.4,-15.73 648.79,-12.1"/>
<polygon fill="#63b8ff" stroke="#63b8ff" points="649.12,-8.61 639,-11.74 648.86,-15.61 649.12,-8.61"/>
</a>
</g>
</g>
<!-- Node28 -->
<g id="Node000028" class="node">
<title>Node28</title>
<g id="a_Node000028"><a xlink:href="_parse_writer_8h.html" target="_top" xlink:title=" ">
<polygon fill="white" stroke="#666666" points="1235.75,-188 1160.5,-188 1160.5,-168 1235.75,-168 1235.75,-188"/>
<text text-anchor="middle" x="1198.12" y="-174.5" font-family="Helvetica,sans-Serif" font-size="10.00">ParseWriter.h</text>
</a>
</g>
</g>
<!-- Node27&#45;&gt;Node28 -->
<g id="edge45_Node000027_Node000028" class="edge">
<title>Node27&#45;&gt;Node28</title>
<g id="a_edge45_Node000027_Node000028"><a xlink:title=" ">
<path fill="none" stroke="#63b8ff" d="M1235.29,-223.59C1229.16,-216.24 1220.45,-205.8 1213.01,-196.87"/>
<polygon fill="#63b8ff" stroke="#63b8ff" points="1215.93,-194.9 1206.84,-189.46 1210.56,-199.38 1215.93,-194.9"/>
</a>
</g>
</g>
<!-- Node30 -->
<g id="Node000030" class="node">
<title>Node30</title>
<g id="a_Node000030"><a xlink:title=" ">
<polygon fill="#e0e0e0" stroke="#999999" points="1355.75,-188 1292.5,-188 1292.5,-168 1355.75,-168 1355.75,-188"/>
<text text-anchor="middle" x="1324.12" y="-174.5" font-family="Helvetica,sans-Serif" font-size="10.00">json/json.h</text>
</a>
</g>
</g>
<!-- Node27&#45;&gt;Node30 -->
<g id="edge49_Node000027_Node000030" class="edge">
<title>Node27&#45;&gt;Node30</title>
<g id="a_edge49_Node000027_Node000030"><a xlink:title=" ">
<path fill="none" stroke="#63b8ff" d="M1257.23,-223.59C1269.12,-215.67 1286.39,-204.16 1300.4,-194.82"/>
<polygon fill="#63b8ff" stroke="#63b8ff" points="1302.27,-197.78 1308.65,-189.32 1298.38,-191.95 1302.27,-197.78"/>
</a>
</g>
</g>
<!-- Node28&#45;&gt;Node14 -->
<g id="edge46_Node000028_Node000014" class="edge">
<title>Node28&#45;&gt;Node14</title>
<g id="a_edge46_Node000028_Node000014"><a xlink:title=" ">
<path fill="none" stroke="#63b8ff" d="M1160.12,-173.88C1078.9,-167.13 882.42,-150.26 718.12,-132 706.56,-130.71 693.93,-129.14 682.63,-127.68"/>
<polygon fill="#63b8ff" stroke="#63b8ff" points="683.31,-124.23 672.93,-126.4 682.39,-131.17 683.31,-124.23"/>
</a>
</g>
</g>
<!-- Node29 -->
<g id="Node000029" class="node">
<title>Node29</title>
<g id="a_Node000029"><a xlink:title=" ">
<polygon fill="#e0e0e0" stroke="#999999" points="1218.12,-132 1178.12,-132 1178.12,-112 1218.12,-112 1218.12,-132"/>
<text text-anchor="middle" x="1198.12" y="-118.5" font-family="Helvetica,sans-Serif" font-size="10.00">stack</text>
</a>
</g>
</g>
<!-- Node28&#45;&gt;Node29 -->
<g id="edge47_Node000028_Node000029" class="edge">
<title>Node28&#45;&gt;Node29</title>
<g id="a_edge47_Node000028_Node000029"><a xlink:title=" ">
<path fill="none" stroke="#63b8ff" d="M1198.12,-167.59C1198.12,-161.01 1198.12,-151.96 1198.12,-143.73"/>
<polygon fill="#63b8ff" stroke="#63b8ff" points="1201.63,-143.81 1198.13,-133.81 1194.63,-143.81 1201.63,-143.81"/>
</a>
</g>
</g>
</g>
</svg>
