<?xml version="1.0" encoding="UTF-8" standalone="no"?>
<!DOCTYPE svg PUBLIC "-//W3C//DTD SVG 1.1//EN"
 "http://www.w3.org/Graphics/SVG/1.1/DTD/svg11.dtd">
<!-- Generated by graphviz version 12.2.1 (20241206.2353)
 -->
<!-- Title: FIEAGameEngine/include/Content/Datum.h Pages: 1 -->
<svg width="667pt" height="208pt"
 viewBox="0.00 0.00 667.00 208.00" xmlns="http://www.w3.org/2000/svg" xmlns:xlink="http://www.w3.org/1999/xlink">
<g id="graph0" class="graph" transform="scale(1 1) rotate(0) translate(4 204)">
<title>FIEAGameEngine/include/Content/Datum.h</title>
<!-- Node1 -->
<g id="Node000001" class="node">
<title>Node1</title>
<g id="a_Node000001"><a xlink:title=" ">
<polygon fill="#999999" stroke="#666666" points="310.25,-200 181.75,-200 181.75,-168 310.25,-168 310.25,-200"/>
<text text-anchor="start" x="189.75" y="-186.5" font-family="Helvetica,sans-Serif" font-size="10.00">FIEAGameEngine/include</text>
<text text-anchor="middle" x="246" y="-174.5" font-family="Helvetica,sans-Serif" font-size="10.00">/Content/Datum.h</text>
</a>
</g>
</g>
<!-- Node2 -->
<g id="Node000002" class="node">
<title>Node2</title>
<g id="a_Node000002"><a xlink:title=" ">
<polygon fill="#e0e0e0" stroke="#999999" points="40,-20 0,-20 0,0 40,0 40,-20"/>
<text text-anchor="middle" x="20" y="-6.5" font-family="Helvetica,sans-Serif" font-size="10.00">string</text>
</a>
</g>
</g>
<!-- Node1&#45;&gt;Node2 -->
<g id="edge1_Node000001_Node000002" class="edge">
<title>Node1&#45;&gt;Node2</title>
<g id="a_edge1_Node000001_Node000002"><a xlink:title=" ">
<path fill="none" stroke="#63b8ff" d="M181.3,-177.57C120.67,-170.98 36.42,-157.44 16,-132 -7.04,-103.29 3.32,-57.21 12.16,-30.98"/>
<polygon fill="#63b8ff" stroke="#63b8ff" points="15.34,-32.48 15.48,-21.88 8.77,-30.08 15.34,-32.48"/>
</a>
</g>
</g>
<!-- Node3 -->
<g id="Node000003" class="node">
<title>Node3</title>
<g id="a_Node000003"><a xlink:title=" ">
<polygon fill="#e0e0e0" stroke="#999999" points="80.88,-132 25.12,-132 25.12,-112 80.88,-112 80.88,-132"/>
<text text-anchor="middle" x="53" y="-118.5" font-family="Helvetica,sans-Serif" font-size="10.00">charconv</text>
</a>
</g>
</g>
<!-- Node1&#45;&gt;Node3 -->
<g id="edge2_Node000001_Node000003" class="edge">
<title>Node1&#45;&gt;Node3</title>
<g id="a_edge2_Node000001_Node000003"><a xlink:title=" ">
<path fill="none" stroke="#63b8ff" d="M196.3,-167.55C163.91,-157.48 122.25,-144.53 92.2,-135.19"/>
<polygon fill="#63b8ff" stroke="#63b8ff" points="93.33,-131.87 82.75,-132.25 91.26,-138.56 93.33,-131.87"/>
</a>
</g>
</g>
<!-- Node4 -->
<g id="Node000004" class="node">
<title>Node4</title>
<g id="a_Node000004"><a xlink:title=" ">
<polygon fill="#e0e0e0" stroke="#999999" points="168.62,-132 99.38,-132 99.38,-112 168.62,-112 168.62,-132"/>
<text text-anchor="middle" x="134" y="-118.5" font-family="Helvetica,sans-Serif" font-size="10.00">glm/glm.hpp</text>
</a>
</g>
</g>
<!-- Node1&#45;&gt;Node4 -->
<g id="edge3_Node000001_Node000004" class="edge">
<title>Node1&#45;&gt;Node4</title>
<g id="a_edge3_Node000001_Node000004"><a xlink:title=" ">
<path fill="none" stroke="#63b8ff" d="M217.16,-167.55C199.98,-158.35 178.31,-146.74 161.39,-137.68"/>
<polygon fill="#63b8ff" stroke="#63b8ff" points="163.36,-134.76 152.9,-133.12 160.06,-140.93 163.36,-134.76"/>
</a>
</g>
</g>
<!-- Node5 -->
<g id="Node000005" class="node">
<title>Node5</title>
<g id="a_Node000005"><a xlink:title=" ">
<polygon fill="#e0e0e0" stroke="#999999" points="305,-132 187,-132 187,-112 305,-112 305,-132"/>
<text text-anchor="middle" x="246" y="-118.5" font-family="Helvetica,sans-Serif" font-size="10.00">glm/gtx/string_cast.hpp</text>
</a>
</g>
</g>
<!-- Node1&#45;&gt;Node5 -->
<g id="edge4_Node000001_Node000005" class="edge">
<title>Node1&#45;&gt;Node5</title>
<g id="a_edge4_Node000001_Node000005"><a xlink:title=" ">
<path fill="none" stroke="#63b8ff" d="M246,-167.55C246,-160.34 246,-151.66 246,-143.88"/>
<polygon fill="#63b8ff" stroke="#63b8ff" points="249.5,-143.92 246,-133.92 242.5,-143.92 249.5,-143.92"/>
</a>
</g>
</g>
<!-- Node6 -->
<g id="Node000006" class="node">
<title>Node6</title>
<g id="a_Node000006"><a xlink:href="_r_t_t_i_8h.html" target="_top" xlink:title=" ">
<polygon fill="white" stroke="#666666" points="526.88,-132 399.12,-132 399.12,-112 526.88,-112 526.88,-132"/>
<text text-anchor="middle" x="463" y="-118.5" font-family="Helvetica,sans-Serif" font-size="10.00">FIEAGameEngine/RTTI.h</text>
</a>
</g>
</g>
<!-- Node1&#45;&gt;Node6 -->
<g id="edge5_Node000001_Node000006" class="edge">
<title>Node1&#45;&gt;Node6</title>
<g id="a_edge5_Node000001_Node000006"><a xlink:title=" ">
<path fill="none" stroke="#63b8ff" d="M301.88,-167.55C337.87,-157.6 384.06,-144.83 417.74,-135.51"/>
<polygon fill="#63b8ff" stroke="#63b8ff" points="418.49,-138.94 427.2,-132.9 416.63,-132.19 418.49,-138.94"/>
</a>
</g>
</g>
<!-- Node16 -->
<g id="Node000016" class="node">
<title>Node16</title>
<g id="a_Node000016"><a xlink:href="_datum_8inl.html" target="_top" xlink:title=" ">
<polygon fill="white" stroke="#666666" points="381,-132 323,-132 323,-112 381,-112 381,-132"/>
<text text-anchor="middle" x="352" y="-118.5" font-family="Helvetica,sans-Serif" font-size="10.00">Datum.inl</text>
</a>
</g>
</g>
<!-- Node1&#45;&gt;Node16 -->
<g id="edge17_Node000001_Node000016" class="edge">
<title>Node1&#45;&gt;Node16</title>
<g id="a_edge17_Node000001_Node000016"><a xlink:title=" ">
<path fill="none" stroke="#63b8ff" d="M267.31,-167.55C282.52,-158.35 303.06,-146.74 320.18,-137.68"/>
<polygon fill="#63b8ff" stroke="#63b8ff" points="321.71,-140.82 328.97,-133.11 318.48,-134.61 321.71,-140.82"/>
</a>
</g>
</g>
<!-- Node7 -->
<g id="Node000007" class="node">
<title>Node7</title>
<g id="a_Node000007"><a xlink:href="_types_8h.html" target="_top" xlink:title=" ">
<polygon fill="white" stroke="#666666" points="381.12,-76 248.88,-76 248.88,-56 381.12,-56 381.12,-76"/>
<text text-anchor="middle" x="315" y="-62.5" font-family="Helvetica,sans-Serif" font-size="10.00">FIEAGameEngine/Types.h</text>
</a>
</g>
</g>
<!-- Node6&#45;&gt;Node7 -->
<g id="edge6_Node000006_Node000007" class="edge">
<title>Node6&#45;&gt;Node7</title>
<g id="a_edge6_Node000006_Node000007"><a xlink:title=" ">
<path fill="none" stroke="#63b8ff" d="M437.22,-111.59C413.6,-102.97 378.36,-90.12 351.78,-80.42"/>
<polygon fill="#63b8ff" stroke="#63b8ff" points="353,-77.14 342.4,-77 350.6,-83.71 353,-77.14"/>
</a>
</g>
</g>
<!-- Node15 -->
<g id="Node000015" class="node">
<title>Node15</title>
<g id="a_Node000015"><a xlink:href="_r_t_t_i_8inl.html" target="_top" xlink:title=" ">
<polygon fill="white" stroke="#666666" points="527.25,-76 398.75,-76 398.75,-56 527.25,-56 527.25,-76"/>
<text text-anchor="middle" x="463" y="-62.5" font-family="Helvetica,sans-Serif" font-size="10.00">FieaGameEngine/RTTI.inl</text>
</a>
</g>
</g>
<!-- Node6&#45;&gt;Node15 -->
<g id="edge15_Node000006_Node000015" class="edge">
<title>Node6&#45;&gt;Node15</title>
<g id="a_edge15_Node000006_Node000015"><a xlink:title=" ">
<path fill="none" stroke="#63b8ff" d="M457.73,-111.59C456.42,-105.01 455.98,-95.96 456.41,-87.73"/>
<polygon fill="#63b8ff" stroke="#63b8ff" points="459.89,-88.14 457.58,-77.8 452.94,-87.33 459.89,-88.14"/>
</a>
</g>
</g>
<!-- Node7&#45;&gt;Node2 -->
<g id="edge12_Node000007_Node000002" class="edge">
<title>Node7&#45;&gt;Node2</title>
<g id="a_edge12_Node000007_Node000002"><a xlink:title=" ">
<path fill="none" stroke="#63b8ff" d="M263.28,-55.53C202.09,-44.33 102.15,-26.04 51.52,-16.77"/>
<polygon fill="#63b8ff" stroke="#63b8ff" points="52.3,-13.35 41.83,-15 51.04,-20.24 52.3,-13.35"/>
</a>
</g>
</g>
<!-- Node8 -->
<g id="Node000008" class="node">
<title>Node8</title>
<g id="a_Node000008"><a xlink:title=" ">
<polygon fill="#e0e0e0" stroke="#999999" points="142.25,-20 79.75,-20 79.75,0 142.25,0 142.25,-20"/>
<text text-anchor="middle" x="111" y="-6.5" font-family="Helvetica,sans-Serif" font-size="10.00">windows.h</text>
</a>
</g>
</g>
<!-- Node7&#45;&gt;Node8 -->
<g id="edge7_Node000007_Node000008" class="edge">
<title>Node7&#45;&gt;Node8</title>
<g id="a_edge7_Node000007_Node000008"><a xlink:title=" ">
<path fill="none" stroke="#63b8ff" d="M279.47,-55.59C244.4,-46.31 190.76,-32.11 153.46,-22.24"/>
<polygon fill="#63b8ff" stroke="#63b8ff" points="154.47,-18.89 143.91,-19.71 152.68,-25.65 154.47,-18.89"/>
</a>
</g>
</g>
<!-- Node9 -->
<g id="Node000009" class="node">
<title>Node9</title>
<g id="a_Node000009"><a xlink:title=" ">
<polygon fill="#e0e0e0" stroke="#999999" points="208.12,-20 159.88,-20 159.88,0 208.12,0 208.12,-20"/>
<text text-anchor="middle" x="184" y="-6.5" font-family="Helvetica,sans-Serif" font-size="10.00">cassert</text>
</a>
</g>
</g>
<!-- Node7&#45;&gt;Node9 -->
<g id="edge8_Node000007_Node000009" class="edge">
<title>Node7&#45;&gt;Node9</title>
<g id="a_edge8_Node000007_Node000009"><a xlink:title=" ">
<path fill="none" stroke="#63b8ff" d="M292.18,-55.59C271.55,-47.09 240.92,-34.46 217.51,-24.81"/>
<polygon fill="#63b8ff" stroke="#63b8ff" points="218.98,-21.63 208.4,-21.06 216.31,-28.1 218.98,-21.63"/>
</a>
</g>
</g>
<!-- Node10 -->
<g id="Node000010" class="node">
<title>Node10</title>
<g id="a_Node000010"><a xlink:title=" ">
<polygon fill="#e0e0e0" stroke="#999999" points="274.12,-20 225.88,-20 225.88,0 274.12,0 274.12,-20"/>
<text text-anchor="middle" x="250" y="-6.5" font-family="Helvetica,sans-Serif" font-size="10.00">cstddef</text>
</a>
</g>
</g>
<!-- Node7&#45;&gt;Node10 -->
<g id="edge9_Node000007_Node000010" class="edge">
<title>Node7&#45;&gt;Node10</title>
<g id="a_edge9_Node000007_Node000010"><a xlink:title=" ">
<path fill="none" stroke="#63b8ff" d="M303.68,-55.59C294.36,-47.85 280.92,-36.69 269.82,-27.47"/>
<polygon fill="#63b8ff" stroke="#63b8ff" points="272.29,-24.96 262.36,-21.27 267.81,-30.35 272.29,-24.96"/>
</a>
</g>
</g>
<!-- Node11 -->
<g id="Node000011" class="node">
<title>Node11</title>
<g id="a_Node000011"><a xlink:title=" ">
<polygon fill="#e0e0e0" stroke="#999999" points="337.62,-20 292.38,-20 292.38,0 337.62,0 337.62,-20"/>
<text text-anchor="middle" x="315" y="-6.5" font-family="Helvetica,sans-Serif" font-size="10.00">cstdint</text>
</a>
</g>
</g>
<!-- Node7&#45;&gt;Node11 -->
<g id="edge10_Node000007_Node000011" class="edge">
<title>Node7&#45;&gt;Node11</title>
<g id="a_edge10_Node000007_Node000011"><a xlink:title=" ">
<path fill="none" stroke="#63b8ff" d="M315,-55.59C315,-49.01 315,-39.96 315,-31.73"/>
<polygon fill="#63b8ff" stroke="#63b8ff" points="318.5,-31.81 315,-21.81 311.5,-31.81 318.5,-31.81"/>
</a>
</g>
</g>
<!-- Node12 -->
<g id="Node000012" class="node">
<title>Node12</title>
<g id="a_Node000012"><a xlink:title=" ">
<polygon fill="#e0e0e0" stroke="#999999" points="408.38,-20 355.62,-20 355.62,0 408.38,0 408.38,-20"/>
<text text-anchor="middle" x="382" y="-6.5" font-family="Helvetica,sans-Serif" font-size="10.00">cstdbool</text>
</a>
</g>
</g>
<!-- Node7&#45;&gt;Node12 -->
<g id="edge11_Node000007_Node000012" class="edge">
<title>Node7&#45;&gt;Node12</title>
<g id="a_edge11_Node000007_Node000012"><a xlink:title=" ">
<path fill="none" stroke="#63b8ff" d="M326.67,-55.59C336.28,-47.85 350.13,-36.69 361.57,-27.47"/>
<polygon fill="#63b8ff" stroke="#63b8ff" points="363.7,-30.25 369.28,-21.25 359.3,-24.8 363.7,-30.25"/>
</a>
</g>
</g>
<!-- Node13 -->
<g id="Node000013" class="node">
<title>Node13</title>
<g id="a_Node000013"><a xlink:title=" ">
<polygon fill="#e0e0e0" stroke="#999999" points="481.12,-20 426.88,-20 426.88,0 481.12,0 481.12,-20"/>
<text text-anchor="middle" x="454" y="-6.5" font-family="Helvetica,sans-Serif" font-size="10.00">crtdefs.h</text>
</a>
</g>
</g>
<!-- Node7&#45;&gt;Node13 -->
<g id="edge13_Node000007_Node000013" class="edge">
<title>Node7&#45;&gt;Node13</title>
<g id="a_edge13_Node000007_Node000013"><a xlink:title=" ">
<path fill="none" stroke="#63b8ff" d="M339.21,-55.59C361.3,-47.01 394.2,-34.23 419.12,-24.55"/>
<polygon fill="#63b8ff" stroke="#63b8ff" points="420.13,-27.91 428.19,-21.03 417.6,-21.39 420.13,-27.91"/>
</a>
</g>
</g>
<!-- Node14 -->
<g id="Node000014" class="node">
<title>Node14</title>
<g id="a_Node000014"><a xlink:title=" ">
<polygon fill="#e0e0e0" stroke="#999999" points="659,-20 499,-20 499,0 659,0 659,-20"/>
<text text-anchor="middle" x="579" y="-6.5" font-family="Helvetica,sans-Serif" font-size="10.00">../src/memory/SystemAllocator.h</text>
</a>
</g>
</g>
<!-- Node7&#45;&gt;Node14 -->
<g id="edge14_Node000007_Node000014" class="edge">
<title>Node7&#45;&gt;Node14</title>
<g id="a_edge14_Node000007_Node000014"><a xlink:title=" ">
<path fill="none" stroke="#63b8ff" d="M361.29,-55.53C405.92,-46.4 473.58,-32.56 521.61,-22.74"/>
<polygon fill="#63b8ff" stroke="#63b8ff" points="522.19,-26.19 531.28,-20.76 520.78,-19.34 522.19,-26.19"/>
</a>
</g>
</g>
<!-- Node15&#45;&gt;Node6 -->
<g id="edge16_Node000015_Node000006" class="edge">
<title>Node15&#45;&gt;Node6</title>
<g id="a_edge16_Node000015_Node000006"><a xlink:title=" ">
<path fill="none" stroke="#63b8ff" d="M468.25,-76.3C469.59,-82.93 470.03,-92.11 469.58,-100.43"/>
<polygon fill="#63b8ff" stroke="#63b8ff" points="466.13,-99.75 468.44,-110.09 473.08,-100.57 466.13,-99.75"/>
</a>
</g>
</g>
<!-- Node16&#45;&gt;Node1 -->
<g id="edge19_Node000016_Node000001" class="edge">
<title>Node16&#45;&gt;Node1</title>
<g id="a_edge19_Node000016_Node000001"><a xlink:title=" ">
<path fill="none" stroke="#63b8ff" d="M340.45,-132.41C328.01,-140.34 307.89,-151.99 289.36,-162.12"/>
<polygon fill="#63b8ff" stroke="#63b8ff" points="287.76,-159 280.62,-166.83 291.08,-165.16 287.76,-159"/>
</a>
</g>
</g>
<!-- Node16&#45;&gt;Node7 -->
<g id="edge18_Node000016_Node000007" class="edge">
<title>Node16&#45;&gt;Node7</title>
<g id="a_edge18_Node000016_Node000007"><a xlink:title=" ">
<path fill="none" stroke="#63b8ff" d="M345.56,-111.59C340.67,-104.47 333.81,-94.45 327.82,-85.72"/>
<polygon fill="#63b8ff" stroke="#63b8ff" points="330.77,-83.82 322.23,-77.55 324.99,-87.77 330.77,-83.82"/>
</a>
</g>
</g>
</g>
</svg>
