<?xml version="1.0" encoding="UTF-8" standalone="no"?>
<!DOCTYPE svg PUBLIC "-//W3C//DTD SVG 1.1//EN"
 "http://www.w3.org/Graphics/SVG/1.1/DTD/svg11.dtd">
<!-- Generated by graphviz version 12.2.1 (20241206.2353)
 -->
<!-- Title: FIEAGameEngine/src/content/Datum.cpp Pages: 1 -->
<svg width="856pt" height="320pt"
 viewBox="0.00 0.00 856.45 320.00" xmlns="http://www.w3.org/2000/svg" xmlns:xlink="http://www.w3.org/1999/xlink">
<g id="graph0" class="graph" transform="scale(1 1) rotate(0) translate(4 316)">
<title>FIEAGameEngine/src/content/Datum.cpp</title>
<!-- Node1 -->
<g id="Node000001" class="node">
<title>Node1</title>
<g id="a_Node000001"><a xlink:title=" ">
<polygon fill="#999999" stroke="#666666" points="445.73,-312 334.48,-312 334.48,-280 445.73,-280 445.73,-312"/>
<text text-anchor="start" x="342.48" y="-298.5" font-family="Helvetica,sans-Serif" font-size="10.00">FIEAGameEngine/src</text>
<text text-anchor="middle" x="390.1" y="-286.5" font-family="Helvetica,sans-Serif" font-size="10.00">/content/Datum.cpp</text>
</a>
</g>
</g>
<!-- Node2 -->
<g id="Node000002" class="node">
<title>Node2</title>
<g id="a_Node000002"><a xlink:href="_types_8h.html" target="_top" xlink:title=" ">
<polygon fill="white" stroke="#666666" points="369.23,-76 236.98,-76 236.98,-56 369.23,-56 369.23,-76"/>
<text text-anchor="middle" x="303.1" y="-62.5" font-family="Helvetica,sans-Serif" font-size="10.00">FIEAGameEngine/Types.h</text>
</a>
</g>
</g>
<!-- Node1&#45;&gt;Node2 -->
<g id="edge1_Node000001_Node000002" class="edge">
<title>Node1&#45;&gt;Node2</title>
<g id="a_edge1_Node000001_Node000002"><a xlink:title=" ">
<path fill="none" stroke="#63b8ff" d="M334.32,-290.44C246.13,-279.87 77.01,-245.11 4.1,-132 -0.71,-124.53 -1.7,-118.74 4.1,-112 32.13,-79.44 146.58,-70.12 225.46,-67.63"/>
<polygon fill="#63b8ff" stroke="#63b8ff" points="225.41,-71.13 235.31,-67.35 225.21,-64.14 225.41,-71.13"/>
</a>
</g>
</g>
<!-- Node11 -->
<g id="Node000011" class="node">
<title>Node11</title>
<g id="a_Node000011"><a xlink:href="_datum_8h.html" target="_top" xlink:title=" ">
<polygon fill="white" stroke="#666666" points="386.6,-188 295.6,-188 295.6,-168 386.6,-168 386.6,-188"/>
<text text-anchor="middle" x="341.1" y="-174.5" font-family="Helvetica,sans-Serif" font-size="10.00">Content/Datum.h</text>
</a>
</g>
</g>
<!-- Node1&#45;&gt;Node11 -->
<g id="edge10_Node000001_Node000011" class="edge">
<title>Node1&#45;&gt;Node11</title>
<g id="a_edge10_Node000001_Node000011"><a xlink:title=" ">
<path fill="none" stroke="#63b8ff" d="M383.7,-279.84C374.95,-259.13 359.25,-221.95 349.55,-198.99"/>
<polygon fill="#63b8ff" stroke="#63b8ff" points="352.79,-197.68 345.68,-189.83 346.35,-200.41 352.79,-197.68"/>
</a>
</g>
</g>
<!-- Node13 -->
<g id="Node000013" class="node">
<title>Node13</title>
<g id="a_Node000013"><a xlink:title=" ">
<polygon fill="#e0e0e0" stroke="#999999" points="82.73,-132 13.48,-132 13.48,-112 82.73,-112 82.73,-132"/>
<text text-anchor="middle" x="48.1" y="-118.5" font-family="Helvetica,sans-Serif" font-size="10.00">glm/glm.hpp</text>
</a>
</g>
</g>
<!-- Node1&#45;&gt;Node13 -->
<g id="edge39_Node000001_Node000013" class="edge">
<title>Node1&#45;&gt;Node13</title>
<g id="a_edge39_Node000001_Node000013"><a xlink:title=" ">
<path fill="none" stroke="#63b8ff" d="M359.45,-279.58C293.89,-246.61 140.83,-169.63 76.93,-137.5"/>
<polygon fill="#63b8ff" stroke="#63b8ff" points="78.63,-134.43 68.12,-133.07 75.48,-140.69 78.63,-134.43"/>
</a>
</g>
</g>
<!-- Node18 -->
<g id="Node000018" class="node">
<title>Node18</title>
<g id="a_Node000018"><a xlink:href="_scope_8h.html" target="_top" xlink:title=" ">
<polygon fill="white" stroke="#666666" points="477.85,-244 388.35,-244 388.35,-224 477.85,-224 477.85,-244"/>
<text text-anchor="middle" x="433.1" y="-230.5" font-family="Helvetica,sans-Serif" font-size="10.00">Content/Scope.h</text>
</a>
</g>
</g>
<!-- Node1&#45;&gt;Node18 -->
<g id="edge22_Node000001_Node000018" class="edge">
<title>Node1&#45;&gt;Node18</title>
<g id="a_edge22_Node000001_Node000018"><a xlink:title=" ">
<path fill="none" stroke="#63b8ff" d="M401.18,-279.55C406.84,-271.65 413.77,-261.97 419.73,-253.66"/>
<polygon fill="#63b8ff" stroke="#63b8ff" points="422.5,-255.81 425.48,-245.64 416.81,-251.73 422.5,-255.81"/>
</a>
</g>
</g>
<!-- Node25 -->
<g id="Node000025" class="node">
<title>Node25</title>
<g id="a_Node000025"><a xlink:title=" ">
<polygon fill="#e0e0e0" stroke="#999999" points="546.73,-244 495.48,-244 495.48,-224 546.73,-224 546.73,-244"/>
<text text-anchor="middle" x="521.1" y="-230.5" font-family="Helvetica,sans-Serif" font-size="10.00">sstream</text>
</a>
</g>
</g>
<!-- Node1&#45;&gt;Node25 -->
<g id="edge38_Node000001_Node000025" class="edge">
<title>Node1&#45;&gt;Node25</title>
<g id="a_edge38_Node000001_Node000025"><a xlink:title=" ">
<path fill="none" stroke="#63b8ff" d="M423.84,-279.55C444.31,-270.17 470.24,-258.3 490.17,-249.17"/>
<polygon fill="#63b8ff" stroke="#63b8ff" points="491.55,-252.38 499.19,-245.04 488.64,-246.02 491.55,-252.38"/>
</a>
</g>
</g>
<!-- Node26 -->
<g id="Node000026" class="node">
<title>Node26</title>
<g id="a_Node000026"><a xlink:title=" ">
<polygon fill="#e0e0e0" stroke="#999999" points="707.85,-244 564.35,-244 564.35,-224 707.85,-224 707.85,-244"/>
<text text-anchor="middle" x="636.1" y="-230.5" font-family="Helvetica,sans-Serif" font-size="10.00">glm/gtc/matrix_transform.hpp</text>
</a>
</g>
</g>
<!-- Node1&#45;&gt;Node26 -->
<g id="edge40_Node000001_Node000026" class="edge">
<title>Node1&#45;&gt;Node26</title>
<g id="a_edge40_Node000001_Node000026"><a xlink:title=" ">
<path fill="none" stroke="#63b8ff" d="M445.92,-281.39C488.17,-271.08 545.66,-257.06 586.34,-247.14"/>
<polygon fill="#63b8ff" stroke="#63b8ff" points="586.98,-250.58 595.87,-244.81 585.33,-243.78 586.98,-250.58"/>
</a>
</g>
</g>
<!-- Node3 -->
<g id="Node000003" class="node">
<title>Node3</title>
<g id="a_Node000003"><a xlink:title=" ">
<polygon fill="#e0e0e0" stroke="#999999" points="97.35,-20 34.85,-20 34.85,0 97.35,0 97.35,-20"/>
<text text-anchor="middle" x="66.1" y="-6.5" font-family="Helvetica,sans-Serif" font-size="10.00">windows.h</text>
</a>
</g>
</g>
<!-- Node2&#45;&gt;Node3 -->
<g id="edge2_Node000002_Node000003" class="edge">
<title>Node2&#45;&gt;Node3</title>
<g id="a_edge2_Node000002_Node000003"><a xlink:title=" ">
<path fill="none" stroke="#63b8ff" d="M261.55,-55.53C218.65,-45.76 152.06,-30.58 108.76,-20.72"/>
<polygon fill="#63b8ff" stroke="#63b8ff" points="109.75,-17.35 99.22,-18.55 108.19,-24.18 109.75,-17.35"/>
</a>
</g>
</g>
<!-- Node4 -->
<g id="Node000004" class="node">
<title>Node4</title>
<g id="a_Node000004"><a xlink:title=" ">
<polygon fill="#e0e0e0" stroke="#999999" points="163.23,-20 114.98,-20 114.98,0 163.23,0 163.23,-20"/>
<text text-anchor="middle" x="139.1" y="-6.5" font-family="Helvetica,sans-Serif" font-size="10.00">cassert</text>
</a>
</g>
</g>
<!-- Node2&#45;&gt;Node4 -->
<g id="edge3_Node000002_Node000004" class="edge">
<title>Node2&#45;&gt;Node4</title>
<g id="a_edge3_Node000002_Node000004"><a xlink:title=" ">
<path fill="none" stroke="#63b8ff" d="M274.54,-55.59C246.71,-46.43 204.33,-32.48 174.4,-22.62"/>
<polygon fill="#63b8ff" stroke="#63b8ff" points="175.63,-19.34 165.04,-19.54 173.44,-25.99 175.63,-19.34"/>
</a>
</g>
</g>
<!-- Node5 -->
<g id="Node000005" class="node">
<title>Node5</title>
<g id="a_Node000005"><a xlink:title=" ">
<polygon fill="#e0e0e0" stroke="#999999" points="229.23,-20 180.98,-20 180.98,0 229.23,0 229.23,-20"/>
<text text-anchor="middle" x="205.1" y="-6.5" font-family="Helvetica,sans-Serif" font-size="10.00">cstddef</text>
</a>
</g>
</g>
<!-- Node2&#45;&gt;Node5 -->
<g id="edge4_Node000002_Node000005" class="edge">
<title>Node2&#45;&gt;Node5</title>
<g id="a_edge4_Node000002_Node000005"><a xlink:title=" ">
<path fill="none" stroke="#63b8ff" d="M286.03,-55.59C271.23,-47.44 249.54,-35.48 232.33,-26"/>
<polygon fill="#63b8ff" stroke="#63b8ff" points="234.08,-22.97 223.63,-21.21 230.7,-29.1 234.08,-22.97"/>
</a>
</g>
</g>
<!-- Node6 -->
<g id="Node000006" class="node">
<title>Node6</title>
<g id="a_Node000006"><a xlink:title=" ">
<polygon fill="#e0e0e0" stroke="#999999" points="292.73,-20 247.48,-20 247.48,0 292.73,0 292.73,-20"/>
<text text-anchor="middle" x="270.1" y="-6.5" font-family="Helvetica,sans-Serif" font-size="10.00">cstdint</text>
</a>
</g>
</g>
<!-- Node2&#45;&gt;Node6 -->
<g id="edge5_Node000002_Node000006" class="edge">
<title>Node2&#45;&gt;Node6</title>
<g id="a_edge5_Node000002_Node000006"><a xlink:title=" ">
<path fill="none" stroke="#63b8ff" d="M297.36,-55.59C293.05,-48.55 287.01,-38.67 281.71,-30"/>
<polygon fill="#63b8ff" stroke="#63b8ff" points="284.78,-28.3 276.57,-21.59 278.8,-31.95 284.78,-28.3"/>
</a>
</g>
</g>
<!-- Node7 -->
<g id="Node000007" class="node">
<title>Node7</title>
<g id="a_Node000007"><a xlink:title=" ">
<polygon fill="#e0e0e0" stroke="#999999" points="363.48,-20 310.73,-20 310.73,0 363.48,0 363.48,-20"/>
<text text-anchor="middle" x="337.1" y="-6.5" font-family="Helvetica,sans-Serif" font-size="10.00">cstdbool</text>
</a>
</g>
</g>
<!-- Node2&#45;&gt;Node7 -->
<g id="edge6_Node000002_Node000007" class="edge">
<title>Node2&#45;&gt;Node7</title>
<g id="a_edge6_Node000002_Node000007"><a xlink:title=" ">
<path fill="none" stroke="#63b8ff" d="M309.03,-55.59C313.46,-48.55 319.68,-38.67 325.14,-30"/>
<polygon fill="#63b8ff" stroke="#63b8ff" points="328.08,-31.91 330.44,-21.58 322.15,-28.18 328.08,-31.91"/>
</a>
</g>
</g>
<!-- Node8 -->
<g id="Node000008" class="node">
<title>Node8</title>
<g id="a_Node000008"><a xlink:title=" ">
<polygon fill="#e0e0e0" stroke="#999999" points="672.1,-20 632.1,-20 632.1,0 672.1,0 672.1,-20"/>
<text text-anchor="middle" x="652.1" y="-6.5" font-family="Helvetica,sans-Serif" font-size="10.00">string</text>
</a>
</g>
</g>
<!-- Node2&#45;&gt;Node8 -->
<g id="edge7_Node000002_Node000008" class="edge">
<title>Node2&#45;&gt;Node8</title>
<g id="a_edge7_Node000002_Node000008"><a xlink:title=" ">
<path fill="none" stroke="#63b8ff" d="M369.68,-56.92C443.92,-47.7 560.5,-32.55 620.42,-20.23"/>
<polygon fill="#63b8ff" stroke="#63b8ff" points="621.11,-23.66 630.14,-18.13 619.63,-16.82 621.11,-23.66"/>
</a>
</g>
</g>
<!-- Node9 -->
<g id="Node000009" class="node">
<title>Node9</title>
<g id="a_Node000009"><a xlink:title=" ">
<polygon fill="#e0e0e0" stroke="#999999" points="436.23,-20 381.98,-20 381.98,0 436.23,0 436.23,-20"/>
<text text-anchor="middle" x="409.1" y="-6.5" font-family="Helvetica,sans-Serif" font-size="10.00">crtdefs.h</text>
</a>
</g>
</g>
<!-- Node2&#45;&gt;Node9 -->
<g id="edge8_Node000002_Node000009" class="edge">
<title>Node2&#45;&gt;Node9</title>
<g id="a_edge8_Node000002_Node000009"><a xlink:title=" ">
<path fill="none" stroke="#63b8ff" d="M321.57,-55.59C337.81,-47.32 361.71,-35.14 380.44,-25.6"/>
<polygon fill="#63b8ff" stroke="#63b8ff" points="381.83,-28.82 389.15,-21.17 378.65,-22.59 381.83,-28.82"/>
</a>
</g>
</g>
<!-- Node10 -->
<g id="Node000010" class="node">
<title>Node10</title>
<g id="a_Node000010"><a xlink:title=" ">
<polygon fill="#e0e0e0" stroke="#999999" points="614.1,-20 454.1,-20 454.1,0 614.1,0 614.1,-20"/>
<text text-anchor="middle" x="534.1" y="-6.5" font-family="Helvetica,sans-Serif" font-size="10.00">../src/memory/SystemAllocator.h</text>
</a>
</g>
</g>
<!-- Node2&#45;&gt;Node10 -->
<g id="edge9_Node000002_Node000010" class="edge">
<title>Node2&#45;&gt;Node10</title>
<g id="a_edge9_Node000002_Node000010"><a xlink:title=" ">
<path fill="none" stroke="#63b8ff" d="M343.6,-55.53C382.24,-46.5 440.61,-32.85 482.55,-23.05"/>
<polygon fill="#63b8ff" stroke="#63b8ff" points="483.23,-26.49 492.17,-20.8 481.64,-19.67 483.23,-26.49"/>
</a>
</g>
</g>
<!-- Node11&#45;&gt;Node8 -->
<g id="edge11_Node000011_Node000008" class="edge">
<title>Node11&#45;&gt;Node8</title>
<g id="a_edge11_Node000011_Node000008"><a xlink:title=" ">
<path fill="none" stroke="#63b8ff" d="M349.7,-167.82C357.65,-159.05 369.51,-145.23 378.1,-132 398.67,-100.33 385.81,-78.54 416.1,-56 488.17,-2.38 529.13,-38.85 620.78,-20.12"/>
<polygon fill="#63b8ff" stroke="#63b8ff" points="621.44,-23.56 630.44,-17.96 619.91,-16.73 621.44,-23.56"/>
</a>
</g>
</g>
<!-- Node12 -->
<g id="Node000012" class="node">
<title>Node12</title>
<g id="a_Node000012"><a xlink:title=" ">
<polygon fill="#e0e0e0" stroke="#999999" points="368.98,-132 313.23,-132 313.23,-112 368.98,-112 368.98,-132"/>
<text text-anchor="middle" x="341.1" y="-118.5" font-family="Helvetica,sans-Serif" font-size="10.00">charconv</text>
</a>
</g>
</g>
<!-- Node11&#45;&gt;Node12 -->
<g id="edge12_Node000011_Node000012" class="edge">
<title>Node11&#45;&gt;Node12</title>
<g id="a_edge12_Node000011_Node000012"><a xlink:title=" ">
<path fill="none" stroke="#63b8ff" d="M341.1,-167.59C341.1,-161.01 341.1,-151.96 341.1,-143.73"/>
<polygon fill="#63b8ff" stroke="#63b8ff" points="344.6,-143.81 341.1,-133.81 337.6,-143.81 344.6,-143.81"/>
</a>
</g>
</g>
<!-- Node11&#45;&gt;Node13 -->
<g id="edge13_Node000011_Node000013" class="edge">
<title>Node11&#45;&gt;Node13</title>
<g id="a_edge13_Node000011_Node000013"><a xlink:title=" ">
<path fill="none" stroke="#63b8ff" d="M295.15,-169.02C247.48,-160.67 170.49,-146.99 94.37,-132.4"/>
<polygon fill="#63b8ff" stroke="#63b8ff" points="95.12,-128.98 84.64,-130.53 93.8,-135.86 95.12,-128.98"/>
</a>
</g>
</g>
<!-- Node14 -->
<g id="Node000014" class="node">
<title>Node14</title>
<g id="a_Node000014"><a xlink:title=" ">
<polygon fill="#e0e0e0" stroke="#999999" points="219.1,-132 101.1,-132 101.1,-112 219.1,-112 219.1,-132"/>
<text text-anchor="middle" x="160.1" y="-118.5" font-family="Helvetica,sans-Serif" font-size="10.00">glm/gtx/string_cast.hpp</text>
</a>
</g>
</g>
<!-- Node11&#45;&gt;Node14 -->
<g id="edge14_Node000011_Node000014" class="edge">
<title>Node11&#45;&gt;Node14</title>
<g id="a_edge14_Node000011_Node000014"><a xlink:title=" ">
<path fill="none" stroke="#63b8ff" d="M309.58,-167.59C279.91,-158.74 235.27,-145.43 202.5,-135.65"/>
<polygon fill="#63b8ff" stroke="#63b8ff" points="203.91,-132.42 193.33,-132.91 201.91,-139.13 203.91,-132.42"/>
</a>
</g>
</g>
<!-- Node15 -->
<g id="Node000015" class="node">
<title>Node15</title>
<g id="a_Node000015"><a xlink:href="_r_t_t_i_8h.html" target="_top" xlink:title=" ">
<polygon fill="white" stroke="#666666" points="552.98,-132 425.23,-132 425.23,-112 552.98,-112 552.98,-132"/>
<text text-anchor="middle" x="489.1" y="-118.5" font-family="Helvetica,sans-Serif" font-size="10.00">FIEAGameEngine/RTTI.h</text>
</a>
</g>
</g>
<!-- Node11&#45;&gt;Node15 -->
<g id="edge15_Node000011_Node000015" class="edge">
<title>Node11&#45;&gt;Node15</title>
<g id="a_edge15_Node000011_Node000015"><a xlink:title=" ">
<path fill="none" stroke="#63b8ff" d="M366.88,-167.59C390.51,-158.97 425.74,-146.12 452.32,-136.42"/>
<polygon fill="#63b8ff" stroke="#63b8ff" points="453.51,-139.71 461.7,-133 451.11,-133.14 453.51,-139.71"/>
</a>
</g>
</g>
<!-- Node17 -->
<g id="Node000017" class="node">
<title>Node17</title>
<g id="a_Node000017"><a xlink:href="_datum_8inl.html" target="_top" xlink:title=" ">
<polygon fill="white" stroke="#666666" points="295.1,-132 237.1,-132 237.1,-112 295.1,-112 295.1,-132"/>
<text text-anchor="middle" x="266.1" y="-118.5" font-family="Helvetica,sans-Serif" font-size="10.00">Datum.inl</text>
</a>
</g>
</g>
<!-- Node11&#45;&gt;Node17 -->
<g id="edge19_Node000011_Node000017" class="edge">
<title>Node11&#45;&gt;Node17</title>
<g id="a_edge19_Node000011_Node000017"><a xlink:title=" ">
<path fill="none" stroke="#63b8ff" d="M322.77,-167.59C310.47,-159.85 294.63,-148.69 282.7,-139.47"/>
<polygon fill="#63b8ff" stroke="#63b8ff" points="284.94,-136.78 274.95,-133.25 280.56,-142.24 284.94,-136.78"/>
</a>
</g>
</g>
<!-- Node15&#45;&gt;Node2 -->
<g id="edge16_Node000015_Node000002" class="edge">
<title>Node15&#45;&gt;Node2</title>
<g id="a_edge16_Node000015_Node000002"><a xlink:title=" ">
<path fill="none" stroke="#63b8ff" d="M456.7,-111.59C426.22,-102.74 380.35,-89.43 346.67,-79.65"/>
<polygon fill="#63b8ff" stroke="#63b8ff" points="347.79,-76.33 337.21,-76.9 345.84,-83.05 347.79,-76.33"/>
</a>
</g>
</g>
<!-- Node16 -->
<g id="Node000016" class="node">
<title>Node16</title>
<g id="a_Node000016"><a xlink:href="_r_t_t_i_8inl.html" target="_top" xlink:title=" ">
<polygon fill="white" stroke="#666666" points="553.35,-76 424.85,-76 424.85,-56 553.35,-56 553.35,-76"/>
<text text-anchor="middle" x="489.1" y="-62.5" font-family="Helvetica,sans-Serif" font-size="10.00">FieaGameEngine/RTTI.inl</text>
</a>
</g>
</g>
<!-- Node15&#45;&gt;Node16 -->
<g id="edge17_Node000015_Node000016" class="edge">
<title>Node15&#45;&gt;Node16</title>
<g id="a_edge17_Node000015_Node000016"><a xlink:title=" ">
<path fill="none" stroke="#63b8ff" d="M483.84,-111.59C482.52,-105.01 482.08,-95.96 482.52,-87.73"/>
<polygon fill="#63b8ff" stroke="#63b8ff" points="485.99,-88.14 483.68,-77.8 479.04,-87.33 485.99,-88.14"/>
</a>
</g>
</g>
<!-- Node16&#45;&gt;Node15 -->
<g id="edge18_Node000016_Node000015" class="edge">
<title>Node16&#45;&gt;Node15</title>
<g id="a_edge18_Node000016_Node000015"><a xlink:title=" ">
<path fill="none" stroke="#63b8ff" d="M494.35,-76.3C495.69,-82.93 496.14,-92.11 495.68,-100.43"/>
<polygon fill="#63b8ff" stroke="#63b8ff" points="492.24,-99.75 494.55,-110.09 499.19,-100.57 492.24,-99.75"/>
</a>
</g>
</g>
<!-- Node17&#45;&gt;Node2 -->
<g id="edge20_Node000017_Node000002" class="edge">
<title>Node17&#45;&gt;Node2</title>
<g id="a_edge20_Node000017_Node000002"><a xlink:title=" ">
<path fill="none" stroke="#63b8ff" d="M272.55,-111.59C277.43,-104.47 284.29,-94.45 290.28,-85.72"/>
<polygon fill="#63b8ff" stroke="#63b8ff" points="293.11,-87.77 295.88,-77.55 287.34,-83.82 293.11,-87.77"/>
</a>
</g>
</g>
<!-- Node17&#45;&gt;Node11 -->
<g id="edge21_Node000017_Node000011" class="edge">
<title>Node17&#45;&gt;Node11</title>
<g id="a_edge21_Node000017_Node000011"><a xlink:title=" ">
<path fill="none" stroke="#63b8ff" d="M284.55,-132.48C296.8,-140.2 312.52,-151.28 324.4,-160.45"/>
<polygon fill="#63b8ff" stroke="#63b8ff" points="322.13,-163.12 332.13,-166.65 326.51,-157.66 322.13,-163.12"/>
</a>
</g>
</g>
<!-- Node18&#45;&gt;Node11 -->
<g id="edge24_Node000018_Node000011" class="edge">
<title>Node18&#45;&gt;Node11</title>
<g id="a_edge24_Node000018_Node000011"><a xlink:title=" ">
<path fill="none" stroke="#63b8ff" d="M417.08,-223.59C403.31,-215.51 383.2,-203.71 367.13,-194.27"/>
<polygon fill="#63b8ff" stroke="#63b8ff" points="368.95,-191.29 358.56,-189.25 365.41,-197.33 368.95,-191.29"/>
</a>
</g>
</g>
<!-- Node18&#45;&gt;Node15 -->
<g id="edge23_Node000018_Node000015" class="edge">
<title>Node18&#45;&gt;Node15</title>
<g id="a_edge23_Node000018_Node000015"><a xlink:title=" ">
<path fill="none" stroke="#63b8ff" d="M438.73,-223.83C444.18,-214.83 452.54,-200.66 459.1,-188 466.81,-173.13 474.72,-155.91 480.48,-142.92"/>
<polygon fill="#63b8ff" stroke="#63b8ff" points="483.68,-144.34 484.49,-133.77 477.27,-141.53 483.68,-144.34"/>
</a>
</g>
</g>
<!-- Node19 -->
<g id="Node000019" class="node">
<title>Node19</title>
<g id="a_Node000019"><a xlink:title=" ">
<polygon fill="#e0e0e0" stroke="#999999" points="660.6,-76 617.6,-76 617.6,-56 660.6,-56 660.6,-76"/>
<text text-anchor="middle" x="639.1" y="-62.5" font-family="Helvetica,sans-Serif" font-size="10.00">vector</text>
</a>
</g>
</g>
<!-- Node18&#45;&gt;Node19 -->
<g id="edge25_Node000018_Node000019" class="edge">
<title>Node18&#45;&gt;Node19</title>
<g id="a_edge25_Node000018_Node000019"><a xlink:title=" ">
<path fill="none" stroke="#63b8ff" d="M445.31,-223.68C468.35,-206.04 519.73,-166.45 562.1,-132 581.89,-115.91 604.1,-97.08 619.57,-83.83"/>
<polygon fill="#63b8ff" stroke="#63b8ff" points="621.79,-86.54 627.09,-77.37 617.23,-81.23 621.79,-86.54"/>
</a>
</g>
</g>
<!-- Node20 -->
<g id="Node000020" class="node">
<title>Node20</title>
<g id="a_Node000020"><a xlink:title=" ">
<polygon fill="#e0e0e0" stroke="#999999" points="829.48,-76 746.73,-76 746.73,-56 829.48,-56 829.48,-76"/>
<text text-anchor="middle" x="788.1" y="-62.5" font-family="Helvetica,sans-Serif" font-size="10.00">unordered_map</text>
</a>
</g>
</g>
<!-- Node18&#45;&gt;Node20 -->
<g id="edge26_Node000018_Node000020" class="edge">
<title>Node18&#45;&gt;Node20</title>
<g id="a_edge26_Node000018_Node000020"><a xlink:title=" ">
<path fill="none" stroke="#63b8ff" d="M478.18,-225.19C480.86,-224.77 483.52,-224.37 486.1,-224 553.44,-214.3 734.73,-227.51 790.1,-188 819.28,-167.18 827.22,-146.39 817.1,-112 814.29,-102.45 808.76,-93.02 803.27,-85.27"/>
<polygon fill="#63b8ff" stroke="#63b8ff" points="806.1,-83.21 797.24,-77.4 800.55,-87.47 806.1,-83.21"/>
</a>
</g>
</g>
<!-- Node21 -->
<g id="Node000021" class="node">
<title>Node21</title>
<g id="a_Node000021"><a xlink:title=" ">
<polygon fill="#e0e0e0" stroke="#999999" points="450.48,-188 415.73,-188 415.73,-168 450.48,-168 450.48,-188"/>
<text text-anchor="middle" x="433.1" y="-174.5" font-family="Helvetica,sans-Serif" font-size="10.00">map</text>
</a>
</g>
</g>
<!-- Node18&#45;&gt;Node21 -->
<g id="edge27_Node000018_Node000021" class="edge">
<title>Node18&#45;&gt;Node21</title>
<g id="a_edge27_Node000018_Node000021"><a xlink:title=" ">
<path fill="none" stroke="#63b8ff" d="M433.1,-223.59C433.1,-217.01 433.1,-207.96 433.1,-199.73"/>
<polygon fill="#63b8ff" stroke="#63b8ff" points="436.6,-199.81 433.1,-189.81 429.6,-199.81 436.6,-199.81"/>
</a>
</g>
</g>
<!-- Node22 -->
<g id="Node000022" class="node">
<title>Node22</title>
<g id="a_Node000022"><a xlink:href="_factory_service_8h.html" target="_top" xlink:title=" ">
<polygon fill="white" stroke="#666666" points="781.1,-188 609.1,-188 609.1,-168 781.1,-168 781.1,-188"/>
<text text-anchor="middle" x="695.1" y="-174.5" font-family="Helvetica,sans-Serif" font-size="10.00">FIEAGameEngine/FactoryService.h</text>
</a>
</g>
</g>
<!-- Node18&#45;&gt;Node22 -->
<g id="edge28_Node000018_Node000022" class="edge">
<title>Node18&#45;&gt;Node22</title>
<g id="a_edge28_Node000018_Node000022"><a xlink:title=" ">
<path fill="none" stroke="#63b8ff" d="M478.14,-223.72C522.43,-214.59 590.2,-200.62 638.19,-190.73"/>
<polygon fill="#63b8ff" stroke="#63b8ff" points="638.76,-194.19 647.85,-188.74 637.35,-187.33 638.76,-194.19"/>
</a>
</g>
</g>
<!-- Node22&#45;&gt;Node2 -->
<g id="edge29_Node000022_Node000002" class="edge">
<title>Node22&#45;&gt;Node2</title>
<g id="a_edge29_Node000022_Node000002"><a xlink:title=" ">
<path fill="none" stroke="#63b8ff" d="M679.74,-167.69C655.58,-153.48 606.85,-126.5 562.1,-112 502.74,-92.77 432.92,-81.24 380.73,-74.68"/>
<polygon fill="#63b8ff" stroke="#63b8ff" points="381.39,-71.23 371.04,-73.5 380.55,-78.18 381.39,-71.23"/>
</a>
</g>
</g>
<!-- Node22&#45;&gt;Node8 -->
<g id="edge35_Node000022_Node000008" class="edge">
<title>Node22&#45;&gt;Node8</title>
<g id="a_edge35_Node000022_Node000008"><a xlink:title=" ">
<path fill="none" stroke="#63b8ff" d="M749.23,-167.58C772.67,-161.06 798.86,-150.15 817.1,-132 841.95,-107.29 859.77,-83.54 838.1,-56 819.21,-31.99 731.47,-19.25 683.55,-13.98"/>
<polygon fill="#63b8ff" stroke="#63b8ff" points="684.11,-10.52 673.79,-12.96 683.37,-17.48 684.11,-10.52"/>
</a>
</g>
</g>
<!-- Node22&#45;&gt;Node15 -->
<g id="edge30_Node000022_Node000015" class="edge">
<title>Node22&#45;&gt;Node15</title>
<g id="a_edge30_Node000022_Node000015"><a xlink:title=" ">
<path fill="none" stroke="#63b8ff" d="M659.22,-167.59C625.16,-158.67 573.77,-145.19 536.38,-135.39"/>
<polygon fill="#63b8ff" stroke="#63b8ff" points="537.29,-132.01 526.73,-132.86 535.52,-138.78 537.29,-132.01"/>
</a>
</g>
</g>
<!-- Node22&#45;&gt;Node20 -->
<g id="edge37_Node000022_Node000020" class="edge">
<title>Node22&#45;&gt;Node20</title>
<g id="a_edge37_Node000022_Node000020"><a xlink:title=" ">
<path fill="none" stroke="#63b8ff" d="M746.89,-167.56C767.02,-161.08 788.09,-150.21 800.1,-132 808.99,-118.53 804.49,-100.24 798.63,-86.5"/>
<polygon fill="#63b8ff" stroke="#63b8ff" points="801.82,-85.06 794.31,-77.59 795.52,-88.11 801.82,-85.06"/>
</a>
</g>
</g>
<!-- Node23 -->
<g id="Node000023" class="node">
<title>Node23</title>
<g id="a_Node000023"><a xlink:href="_service_mgr_8h.html" target="_top" xlink:title=" ">
<polygon fill="white" stroke="#666666" points="720.98,-132 647.23,-132 647.23,-112 720.98,-112 720.98,-132"/>
<text text-anchor="middle" x="684.1" y="-118.5" font-family="Helvetica,sans-Serif" font-size="10.00">ServiceMgr.h</text>
</a>
</g>
</g>
<!-- Node22&#45;&gt;Node23 -->
<g id="edge31_Node000022_Node000023" class="edge">
<title>Node22&#45;&gt;Node23</title>
<g id="a_edge31_Node000022_Node000023"><a xlink:title=" ">
<path fill="none" stroke="#63b8ff" d="M693.19,-167.59C691.83,-160.93 689.96,-151.75 688.27,-143.44"/>
<polygon fill="#63b8ff" stroke="#63b8ff" points="691.73,-142.88 686.3,-133.78 684.87,-144.28 691.73,-142.88"/>
</a>
</g>
</g>
<!-- Node24 -->
<g id="Node000024" class="node">
<title>Node24</title>
<g id="a_Node000024"><a xlink:title=" ">
<polygon fill="#e0e0e0" stroke="#999999" points="790.73,-132 739.48,-132 739.48,-112 790.73,-112 790.73,-132"/>
<text text-anchor="middle" x="765.1" y="-118.5" font-family="Helvetica,sans-Serif" font-size="10.00">memory</text>
</a>
</g>
</g>
<!-- Node22&#45;&gt;Node24 -->
<g id="edge36_Node000022_Node000024" class="edge">
<title>Node22&#45;&gt;Node24</title>
<g id="a_edge36_Node000022_Node000024"><a xlink:title=" ">
<path fill="none" stroke="#63b8ff" d="M707.3,-167.59C717.43,-159.77 732.09,-148.46 744.11,-139.19"/>
<polygon fill="#63b8ff" stroke="#63b8ff" points="746.07,-142.1 751.85,-133.22 741.8,-136.56 746.07,-142.1"/>
</a>
</g>
</g>
<!-- Node23&#45;&gt;Node2 -->
<g id="edge32_Node000023_Node000002" class="edge">
<title>Node23&#45;&gt;Node2</title>
<g id="a_edge32_Node000023_Node000002"><a xlink:title=" ">
<path fill="none" stroke="#63b8ff" d="M646.81,-114.24C642.2,-113.46 637.54,-112.69 633.1,-112 546.97,-98.53 447.82,-85.32 380.87,-76.73"/>
<polygon fill="#63b8ff" stroke="#63b8ff" points="381.45,-73.28 371.08,-75.48 380.56,-80.22 381.45,-73.28"/>
</a>
</g>
</g>
<!-- Node23&#45;&gt;Node19 -->
<g id="edge33_Node000023_Node000019" class="edge">
<title>Node23&#45;&gt;Node19</title>
<g id="a_edge33_Node000023_Node000019"><a xlink:title=" ">
<path fill="none" stroke="#63b8ff" d="M676.26,-111.59C670.13,-104.24 661.43,-93.8 653.99,-84.87"/>
<polygon fill="#63b8ff" stroke="#63b8ff" points="656.91,-82.9 647.82,-77.46 651.53,-87.38 656.91,-82.9"/>
</a>
</g>
</g>
<!-- Node23&#45;&gt;Node20 -->
<g id="edge34_Node000023_Node000020" class="edge">
<title>Node23&#45;&gt;Node20</title>
<g id="a_edge34_Node000023_Node000020"><a xlink:title=" ">
<path fill="none" stroke="#63b8ff" d="M702.22,-111.59C718.08,-103.36 741.39,-91.26 759.72,-81.74"/>
<polygon fill="#63b8ff" stroke="#63b8ff" points="761.24,-84.89 768.5,-77.18 758.02,-78.68 761.24,-84.89"/>
</a>
</g>
</g>
</g>
</svg>
