<?xml version="1.0" encoding="UTF-8" standalone="no"?>
<!DOCTYPE svg PUBLIC "-//W3C//DTD SVG 1.1//EN"
 "http://www.w3.org/Graphics/SVG/1.1/DTD/svg11.dtd">
<!-- Generated by graphviz version 12.2.1 (20241206.2353)
 -->
<!-- Title: FIEAGameEngine/include/Content/Datum.h Pages: 1 -->
<svg width="2049pt" height="380pt"
 viewBox="0.00 0.00 2049.25 380.00" xmlns="http://www.w3.org/2000/svg" xmlns:xlink="http://www.w3.org/1999/xlink">
<g id="graph0" class="graph" transform="scale(1 1) rotate(0) translate(4 376)">
<title>FIEAGameEngine/include/Content/Datum.h</title>
<!-- Node1 -->
<g id="Node000001" class="node">
<title>Node1</title>
<g id="a_Node000001"><a xlink:title=" ">
<polygon fill="#999999" stroke="#666666" points="663.62,-372 535.12,-372 535.12,-340 663.62,-340 663.62,-372"/>
<text text-anchor="start" x="543.12" y="-358.5" font-family="Helvetica,sans-Serif" font-size="10.00">FIEAGameEngine/include</text>
<text text-anchor="middle" x="599.38" y="-346.5" font-family="Helvetica,sans-Serif" font-size="10.00">/Content/Datum.h</text>
</a>
</g>
</g>
<!-- Node2 -->
<g id="Node000002" class="node">
<title>Node2</title>
<g id="a_Node000002"><a xlink:href="_datum_8inl.html" target="_top" xlink:title=" ">
<polygon fill="white" stroke="#666666" points="590.62,-304 462.12,-304 462.12,-272 590.62,-272 590.62,-304"/>
<text text-anchor="start" x="470.12" y="-290.5" font-family="Helvetica,sans-Serif" font-size="10.00">FIEAGameEngine/include</text>
<text text-anchor="middle" x="526.38" y="-278.5" font-family="Helvetica,sans-Serif" font-size="10.00">/Content/Datum.inl</text>
</a>
</g>
</g>
<!-- Node1&#45;&gt;Node2 -->
<g id="edge1_Node000001_Node000002" class="edge">
<title>Node1&#45;&gt;Node2</title>
<g id="a_edge1_Node000001_Node000002"><a xlink:title=" ">
<path fill="none" stroke="#63b8ff" d="M568.1,-332.54C557.2,-323.21 545.71,-312.62 537.42,-304.22"/>
<polygon fill="#63b8ff" stroke="#63b8ff" points="565.57,-334.99 575.48,-338.72 570.06,-329.62 565.57,-334.99"/>
</a>
</g>
</g>
<!-- Node3 -->
<g id="Node000003" class="node">
<title>Node3</title>
<g id="a_Node000003"><a xlink:href="_scope_8h.html" target="_top" xlink:title=" ">
<polygon fill="white" stroke="#666666" points="737.62,-304 609.12,-304 609.12,-272 737.62,-272 737.62,-304"/>
<text text-anchor="start" x="617.12" y="-290.5" font-family="Helvetica,sans-Serif" font-size="10.00">FIEAGameEngine/include</text>
<text text-anchor="middle" x="673.38" y="-278.5" font-family="Helvetica,sans-Serif" font-size="10.00">/Content/Scope.h</text>
</a>
</g>
</g>
<!-- Node1&#45;&gt;Node3 -->
<g id="edge3_Node000001_Node000003" class="edge">
<title>Node1&#45;&gt;Node3</title>
<g id="a_edge3_Node000001_Node000003"><a xlink:title=" ">
<path fill="none" stroke="#63b8ff" d="M625.11,-332.05C635.34,-322.92 646.84,-312.67 656.05,-304.45"/>
<polygon fill="#63b8ff" stroke="#63b8ff" points="622.8,-329.42 617.67,-338.68 627.46,-334.64 622.8,-329.42"/>
</a>
</g>
</g>
<!-- Node41 -->
<g id="Node000041" class="node">
<title>Node41</title>
<g id="a_Node000041"><a xlink:href="_datum_8cpp.html" target="_top" xlink:title=" ">
<polygon fill="white" stroke="#666666" points="1119,-236 1007.75,-236 1007.75,-204 1119,-204 1119,-236"/>
<text text-anchor="start" x="1015.75" y="-222.5" font-family="Helvetica,sans-Serif" font-size="10.00">FIEAGameEngine/src</text>
<text text-anchor="middle" x="1063.38" y="-210.5" font-family="Helvetica,sans-Serif" font-size="10.00">/content/Datum.cpp</text>
</a>
</g>
</g>
<!-- Node1&#45;&gt;Node41 -->
<g id="edge42_Node000001_Node000041" class="edge">
<title>Node1&#45;&gt;Node41</title>
<g id="a_edge42_Node000001_Node000041"><a xlink:title=" ">
<path fill="none" stroke="#63b8ff" d="M663.46,-336.49C755.7,-309.85 924.22,-261.19 1010.06,-236.4"/>
<polygon fill="#63b8ff" stroke="#63b8ff" points="662.69,-333.07 654.06,-339.21 664.63,-339.8 662.69,-333.07"/>
</a>
</g>
</g>
<!-- Node2&#45;&gt;Node1 -->
<g id="edge2_Node000002_Node000001" class="edge">
<title>Node2&#45;&gt;Node1</title>
<g id="a_edge2_Node000002_Node000001"><a xlink:title=" ">
<path fill="none" stroke="#63b8ff" d="M558.09,-311.84C568.82,-321.05 580.08,-331.42 588.24,-339.69"/>
<polygon fill="#63b8ff" stroke="#63b8ff" points="560.36,-309.17 550.44,-305.43 555.86,-314.53 560.36,-309.17"/>
</a>
</g>
</g>
<!-- Node4 -->
<g id="Node000004" class="node">
<title>Node4</title>
<g id="a_Node000004"><a xlink:href="_attributed_8h.html" target="_top" xlink:title=" ">
<polygon fill="white" stroke="#666666" points="406.62,-236 278.12,-236 278.12,-204 406.62,-204 406.62,-236"/>
<text text-anchor="start" x="286.12" y="-222.5" font-family="Helvetica,sans-Serif" font-size="10.00">FIEAGameEngine/include</text>
<text text-anchor="middle" x="342.38" y="-210.5" font-family="Helvetica,sans-Serif" font-size="10.00">/Content/Attributed.h</text>
</a>
</g>
</g>
<!-- Node3&#45;&gt;Node4 -->
<g id="edge4_Node000003_Node000004" class="edge">
<title>Node3&#45;&gt;Node4</title>
<g id="a_edge4_Node000003_Node000004"><a xlink:title=" ">
<path fill="none" stroke="#63b8ff" d="M597.69,-271.67C515.82,-255.42 493.65,-251.7 415.38,-236 412.58,-235.44 409.73,-234.87 406.85,-234.28"/>
<polygon fill="#63b8ff" stroke="#63b8ff" points="596.83,-275.07 607.32,-273.59 598.2,-268.21 596.83,-275.07"/>
</a>
</g>
</g>
<!-- Node27 -->
<g id="Node000027" class="node">
<title>Node27</title>
<g id="a_Node000027"><a xlink:href="_factory_tests_8cpp.html" target="_top" xlink:title=" ">
<polygon fill="white" stroke="#666666" points="118.75,-26 0,-26 0,-6 118.75,-6 118.75,-26"/>
<text text-anchor="middle" x="59.38" y="-12.5" font-family="Helvetica,sans-Serif" font-size="10.00">Tests/FactoryTests.cpp</text>
</a>
</g>
</g>
<!-- Node3&#45;&gt;Node27 -->
<g id="edge35_Node000003_Node000027" class="edge">
<title>Node3&#45;&gt;Node27</title>
<g id="a_edge35_Node000003_Node000027"><a xlink:title=" ">
<path fill="none" stroke="#63b8ff" d="M597.65,-272.03C510.18,-261.51 331.25,-269.99 269.38,-236 219.49,-208.59 228.26,-177.56 189.38,-136 148.4,-92.21 93.97,-45.72 70.7,-26.33"/>
<polygon fill="#63b8ff" stroke="#63b8ff" points="596.98,-275.47 607.36,-273.36 597.93,-268.53 596.98,-275.47"/>
</a>
</g>
</g>
<!-- Node34 -->
<g id="Node000034" class="node">
<title>Node34</title>
<g id="a_Node000034"><a xlink:href="_attribute_box_8h.html" target="_top" xlink:title=" ">
<polygon fill="#fff0f0" stroke="red" points="855.38,-162 713.38,-162 713.38,-142 855.38,-142 855.38,-162"/>
<text text-anchor="middle" x="784.38" y="-148.5" font-family="Helvetica,sans-Serif" font-size="10.00">Tests/Support/AttributeBox.h</text>
</a>
</g>
</g>
<!-- Node3&#45;&gt;Node34 -->
<g id="edge38_Node000003_Node000034" class="edge">
<title>Node3&#45;&gt;Node34</title>
<g id="a_edge38_Node000003_Node000034"><a xlink:title=" ">
<path fill="none" stroke="#63b8ff" d="M749.34,-281.79C814.36,-275.56 900.8,-262.45 922.38,-236 952.33,-199.28 882.12,-174.8 831.26,-162.45"/>
<polygon fill="#63b8ff" stroke="#63b8ff" points="749.02,-278.3 739.38,-282.7 749.66,-285.27 749.02,-278.3"/>
</a>
</g>
</g>
<!-- Node40 -->
<g id="Node000040" class="node">
<title>Node40</title>
<g id="a_Node000040"><a xlink:href="_factory_service_8cpp.html" target="_top" xlink:title=" ">
<polygon fill="white" stroke="#666666" points="536,-236 424.75,-236 424.75,-204 536,-204 536,-236"/>
<text text-anchor="start" x="432.75" y="-222.5" font-family="Helvetica,sans-Serif" font-size="10.00">FIEAGameEngine/src</text>
<text text-anchor="middle" x="480.38" y="-210.5" font-family="Helvetica,sans-Serif" font-size="10.00">/FactoryService.cpp</text>
</a>
</g>
</g>
<!-- Node3&#45;&gt;Node40 -->
<g id="edge17_Node000003_Node000040" class="edge">
<title>Node3&#45;&gt;Node40</title>
<g id="a_edge17_Node000003_Node000040"><a xlink:title=" ">
<path fill="none" stroke="#63b8ff" d="M617.29,-267.82C588.16,-257.86 553.05,-245.85 525.68,-236.49"/>
<polygon fill="#63b8ff" stroke="#63b8ff" points="616.1,-271.11 626.69,-271.04 618.36,-264.49 616.1,-271.11"/>
</a>
</g>
</g>
<!-- Node3&#45;&gt;Node41 -->
<g id="edge18_Node000003_Node000041" class="edge">
<title>Node3&#45;&gt;Node41</title>
<g id="a_edge18_Node000003_Node000041"><a xlink:title=" ">
<path fill="none" stroke="#63b8ff" d="M749.26,-276.06C814.22,-266.43 910.17,-251.53 993.38,-236 997.9,-235.16 1002.57,-234.24 1007.26,-233.3"/>
<polygon fill="#63b8ff" stroke="#63b8ff" points="748.78,-272.6 739.4,-277.52 749.81,-279.52 748.78,-272.6"/>
</a>
</g>
</g>
<!-- Node42 -->
<g id="Node000042" class="node">
<title>Node42</title>
<g id="a_Node000042"><a xlink:href="_scope_8cpp.html" target="_top" xlink:title=" ">
<polygon fill="white" stroke="#666666" points="665,-236 553.75,-236 553.75,-204 665,-204 665,-236"/>
<text text-anchor="start" x="561.75" y="-222.5" font-family="Helvetica,sans-Serif" font-size="10.00">FIEAGameEngine/src</text>
<text text-anchor="middle" x="609.38" y="-210.5" font-family="Helvetica,sans-Serif" font-size="10.00">/content/Scope.cpp</text>
</a>
</g>
</g>
<!-- Node3&#45;&gt;Node42 -->
<g id="edge19_Node000003_Node000042" class="edge">
<title>Node3&#45;&gt;Node42</title>
<g id="a_edge19_Node000003_Node000042"><a xlink:title=" ">
<path fill="none" stroke="#63b8ff" d="M650.52,-263.43C641.74,-254.38 631.96,-244.29 624.14,-236.22"/>
<polygon fill="#63b8ff" stroke="#63b8ff" points="648,-265.86 657.48,-270.61 653.03,-260.99 648,-265.86"/>
</a>
</g>
</g>
<!-- Node43 -->
<g id="Node000043" class="node">
<title>Node43</title>
<g id="a_Node000043"><a xlink:href="_scope_writer_8h.html" target="_top" xlink:title=" ">
<polygon fill="#fff0f0" stroke="red" points="1079.25,-100 963.5,-100 963.5,-68 1079.25,-68 1079.25,-100"/>
<text text-anchor="start" x="971.5" y="-86.5" font-family="Helvetica,sans-Serif" font-size="10.00">FIEAGameEngine/src</text>
<text text-anchor="middle" x="1021.38" y="-74.5" font-family="Helvetica,sans-Serif" font-size="10.00">/content/ScopeWriter.h</text>
</a>
</g>
</g>
<!-- Node3&#45;&gt;Node43 -->
<g id="edge20_Node000003_Node000043" class="edge">
<title>Node3&#45;&gt;Node43</title>
<g id="a_edge20_Node000003_Node000043"><a xlink:title=" ">
<path fill="none" stroke="#63b8ff" d="M749.11,-274.18C825.28,-261.03 932.58,-241.73 940.38,-236 987.37,-201.48 1009.88,-131.31 1017.86,-100.31"/>
<polygon fill="#63b8ff" stroke="#63b8ff" points="748.86,-270.67 739.6,-275.81 750.05,-277.57 748.86,-270.67"/>
</a>
</g>
</g>
<!-- Node53 -->
<g id="Node000053" class="node">
<title>Node53</title>
<g id="a_Node000053"><a xlink:href="_datum_test_8cpp.html" target="_top" xlink:title=" ">
<polygon fill="white" stroke="#666666" points="793.25,-230 683.5,-230 683.5,-210 793.25,-210 793.25,-230"/>
<text text-anchor="middle" x="738.38" y="-216.5" font-family="Helvetica,sans-Serif" font-size="10.00">Tests/DatumTest.cpp</text>
</a>
</g>
</g>
<!-- Node3&#45;&gt;Node53 -->
<g id="edge34_Node000003_Node000053" class="edge">
<title>Node3&#45;&gt;Node53</title>
<g id="a_edge34_Node000003_Node000053"><a xlink:title=" ">
<path fill="none" stroke="#63b8ff" d="M696.31,-263.71C707.65,-252.2 720.68,-238.97 729.2,-230.32"/>
<polygon fill="#63b8ff" stroke="#63b8ff" points="694.04,-261.03 689.51,-270.61 699.02,-265.95 694.04,-261.03"/>
</a>
</g>
</g>
<!-- Node54 -->
<g id="Node000054" class="node">
<title>Node54</title>
<g id="a_Node000054"><a xlink:href="_r_t_t_i_test_8cpp.html" target="_top" xlink:title=" ">
<polygon fill="white" stroke="#666666" points="913.5,-230 811.25,-230 811.25,-210 913.5,-210 913.5,-230"/>
<text text-anchor="middle" x="862.38" y="-216.5" font-family="Helvetica,sans-Serif" font-size="10.00">Tests/RTTITest.cpp</text>
</a>
</g>
</g>
<!-- Node3&#45;&gt;Node54 -->
<g id="edge36_Node000003_Node000054" class="edge">
<title>Node3&#45;&gt;Node54</title>
<g id="a_edge36_Node000003_Node000054"><a xlink:title=" ">
<path fill="none" stroke="#63b8ff" d="M728.28,-267.83C763.42,-255.56 807.47,-240.17 835.28,-230.46"/>
<polygon fill="#63b8ff" stroke="#63b8ff" points="727.4,-264.43 719.12,-271.03 729.71,-271.03 727.4,-264.43"/>
</a>
</g>
</g>
<!-- Node55 -->
<g id="Node000055" class="node">
<title>Node55</title>
<g id="a_Node000055"><a xlink:href="_scope_test_8cpp.html" target="_top" xlink:title=" ">
<polygon fill="white" stroke="#666666" points="180.5,-162 72.25,-162 72.25,-142 180.5,-142 180.5,-162"/>
<text text-anchor="middle" x="126.38" y="-148.5" font-family="Helvetica,sans-Serif" font-size="10.00">Tests/ScopeTest.cpp</text>
</a>
</g>
</g>
<!-- Node3&#45;&gt;Node55 -->
<g id="edge37_Node000003_Node000055" class="edge">
<title>Node3&#45;&gt;Node55</title>
<g id="a_edge37_Node000003_Node000055"><a xlink:title=" ">
<path fill="none" stroke="#63b8ff" d="M597.63,-272.04C493.13,-260.32 271.36,-276.72 194.38,-236 162.43,-219.1 139.85,-180.15 130.79,-162.27"/>
<polygon fill="#63b8ff" stroke="#63b8ff" points="597.01,-275.49 607.37,-273.29 597.9,-268.55 597.01,-275.49"/>
</a>
</g>
</g>
<!-- Node56 -->
<g id="Node000056" class="node">
<title>Node56</title>
<g id="a_Node000056"><a xlink:href="_scoped_foo_8h.html" target="_top" xlink:title=" ">
<polygon fill="#fff0f0" stroke="red" points="142.12,-230 4.62,-230 4.62,-210 142.12,-210 142.12,-230"/>
<text text-anchor="middle" x="73.38" y="-216.5" font-family="Helvetica,sans-Serif" font-size="10.00">Tests/Support/ScopedFoo.h</text>
</a>
</g>
</g>
<!-- Node3&#45;&gt;Node56 -->
<g id="edge39_Node000003_Node000056" class="edge">
<title>Node3&#45;&gt;Node56</title>
<g id="a_edge39_Node000003_Node000056"><a xlink:title=" ">
<path fill="none" stroke="#63b8ff" d="M597.62,-271.88C401.82,-244.96 348.61,-261.12 156.38,-236 144.9,-234.5 132.61,-232.5 121.09,-230.45"/>
<polygon fill="#63b8ff" stroke="#63b8ff" points="596.99,-275.33 607.38,-273.25 597.96,-268.4 596.99,-275.33"/>
</a>
</g>
</g>
<!-- Node5 -->
<g id="Node000005" class="node">
<title>Node5</title>
<g id="a_Node000005"><a xlink:href="_action_8h.html" target="_top" xlink:title=" ">
<polygon fill="#fff0f0" stroke="red" points="364.62,-168 236.12,-168 236.12,-136 364.62,-136 364.62,-168"/>
<text text-anchor="start" x="244.12" y="-154.5" font-family="Helvetica,sans-Serif" font-size="10.00">FIEAGameEngine/include</text>
<text text-anchor="middle" x="300.38" y="-142.5" font-family="Helvetica,sans-Serif" font-size="10.00">/Content/Actions/Action.h</text>
</a>
</g>
</g>
<!-- Node4&#45;&gt;Node5 -->
<g id="edge5_Node000004_Node000005" class="edge">
<title>Node4&#45;&gt;Node5</title>
<g id="a_edge5_Node000004_Node000005"><a xlink:title=" ">
<path fill="none" stroke="#63b8ff" d="M326.48,-194.02C320.96,-185.34 314.93,-175.88 310.06,-168.22"/>
<polygon fill="#63b8ff" stroke="#63b8ff" points="323.5,-195.86 331.82,-202.42 329.41,-192.1 323.5,-195.86"/>
</a>
</g>
</g>
<!-- Node24 -->
<g id="Node000024" class="node">
<title>Node24</title>
<g id="a_Node000024"><a xlink:href="_game_object_8h.html" target="_top" xlink:title=" ">
<polygon fill="#fff0f0" stroke="red" points="417.62,-100 289.12,-100 289.12,-68 417.62,-68 417.62,-100"/>
<text text-anchor="start" x="297.12" y="-86.5" font-family="Helvetica,sans-Serif" font-size="10.00">FIEAGameEngine/include</text>
<text text-anchor="middle" x="353.38" y="-74.5" font-family="Helvetica,sans-Serif" font-size="10.00">/Content/GameObject.h</text>
</a>
</g>
</g>
<!-- Node4&#45;&gt;Node24 -->
<g id="edge12_Node000004_Node000024" class="edge">
<title>Node4&#45;&gt;Node24</title>
<g id="a_edge12_Node000004_Node000024"><a xlink:title=" ">
<path fill="none" stroke="#63b8ff" d="M361.17,-194.17C366.14,-186.23 370.82,-177.12 373.38,-168 379.93,-144.59 369.88,-117.11 361.81,-100.38"/>
<polygon fill="#63b8ff" stroke="#63b8ff" points="358.4,-192.02 355.72,-202.27 364.21,-195.93 358.4,-192.02"/>
</a>
</g>
</g>
<!-- Node31 -->
<g id="Node000031" class="node">
<title>Node31</title>
<g id="a_Node000031"><a xlink:href="_content_service_8h.html" target="_top" xlink:title=" ">
<polygon fill="#fff0f0" stroke="red" points="634.62,-168 458.12,-168 458.12,-136 634.62,-136 634.62,-168"/>
<text text-anchor="start" x="466.12" y="-154.5" font-family="Helvetica,sans-Serif" font-size="10.00">FIEAGameEngine/include</text>
<text text-anchor="middle" x="546.38" y="-142.5" font-family="Helvetica,sans-Serif" font-size="10.00">/FIEAGameEngine/ContentService.h</text>
</a>
</g>
</g>
<!-- Node4&#45;&gt;Node31 -->
<g id="edge13_Node000004_Node000031" class="edge">
<title>Node4&#45;&gt;Node31</title>
<g id="a_edge13_Node000004_Node000031"><a xlink:title=" ">
<path fill="none" stroke="#63b8ff" d="M400.85,-200.08C431.79,-190.07 469.3,-177.94 498.49,-168.49"/>
<polygon fill="#63b8ff" stroke="#63b8ff" points="400.08,-196.65 391.64,-203.06 402.24,-203.31 400.08,-196.65"/>
</a>
</g>
</g>
<!-- Node32 -->
<g id="Node000032" class="node">
<title>Node32</title>
<g id="a_Node000032"><a xlink:href="_attributed_8cpp.html" target="_top" xlink:title=" ">
<polygon fill="white" stroke="#666666" points="576.88,-100 461.88,-100 461.88,-68 576.88,-68 576.88,-100"/>
<text text-anchor="start" x="469.88" y="-86.5" font-family="Helvetica,sans-Serif" font-size="10.00">FIEAGameEngine/src</text>
<text text-anchor="middle" x="519.38" y="-74.5" font-family="Helvetica,sans-Serif" font-size="10.00">/content/Attributed.cpp</text>
</a>
</g>
</g>
<!-- Node4&#45;&gt;Node32 -->
<g id="edge15_Node000004_Node000032" class="edge">
<title>Node4&#45;&gt;Node32</title>
<g id="a_edge15_Node000004_Node000032"><a xlink:title=" ">
<path fill="none" stroke="#63b8ff" d="M370.87,-196.52C392.33,-179.69 422.53,-156.18 449.38,-136 465.48,-123.89 483.9,-110.49 497.81,-100.46"/>
<polygon fill="#63b8ff" stroke="#63b8ff" points="368.85,-193.66 363.15,-202.59 373.17,-199.16 368.85,-193.66"/>
</a>
</g>
</g>
<!-- Node4&#45;&gt;Node34 -->
<g id="edge16_Node000004_Node000034" class="edge">
<title>Node4&#45;&gt;Node34</title>
<g id="a_edge16_Node000004_Node000034"><a xlink:title=" ">
<path fill="none" stroke="#63b8ff" d="M417.97,-203.62C526.4,-185.27 641.07,-170.3 713.08,-161.45"/>
<polygon fill="#63b8ff" stroke="#63b8ff" points="417.58,-200.13 408.31,-205.27 418.76,-207.03 417.58,-200.13"/>
</a>
</g>
</g>
<!-- Node5&#45;&gt;Node24 -->
<g id="edge6_Node000005_Node000024" class="edge">
<title>Node5&#45;&gt;Node24</title>
<g id="a_edge6_Node000005_Node000024"><a xlink:title=" ">
<path fill="none" stroke="#63b8ff" d="M319.75,-126.87C326.91,-117.96 334.81,-108.12 341.15,-100.22"/>
<polygon fill="#63b8ff" stroke="#63b8ff" points="317.15,-124.52 313.62,-134.51 322.61,-128.91 317.15,-124.52"/>
</a>
</g>
</g>
<!-- Node14 -->
<g id="Node000014" class="node">
<title>Node14</title>
<g id="a_Node000014"><a xlink:href="_action_handler_8cpp.html" target="_top" xlink:title=" ">
<polygon fill="white" stroke="#666666" points="271.62,-32 137.12,-32 137.12,0 271.62,0 271.62,-32"/>
<text text-anchor="start" x="145.12" y="-18.5" font-family="Helvetica,sans-Serif" font-size="10.00">FIEAGameEngine/src</text>
<text text-anchor="middle" x="204.38" y="-6.5" font-family="Helvetica,sans-Serif" font-size="10.00">/content/ActionHandler.cpp</text>
</a>
</g>
</g>
<!-- Node5&#45;&gt;Node14 -->
<g id="edge11_Node000005_Node000014" class="edge">
<title>Node5&#45;&gt;Node14</title>
<g id="a_edge11_Node000005_Node000014"><a xlink:title=" ">
<path fill="none" stroke="#63b8ff" d="M282.67,-126.28C262.94,-98.75 231.67,-55.11 215.26,-32.19"/>
<polygon fill="#63b8ff" stroke="#63b8ff" points="279.81,-128.31 288.48,-134.4 285.5,-124.23 279.81,-128.31"/>
</a>
</g>
</g>
<!-- Node24&#45;&gt;Node14 -->
<g id="edge7_Node000024_Node000014" class="edge">
<title>Node24&#45;&gt;Node14</title>
<g id="a_edge7_Node000024_Node000014"><a xlink:title=" ">
<path fill="none" stroke="#63b8ff" d="M307.98,-62.89C285.92,-53.12 259.83,-41.56 239.35,-32.49"/>
<polygon fill="#63b8ff" stroke="#63b8ff" points="306.5,-66.06 317.06,-66.91 309.33,-59.66 306.5,-66.06"/>
</a>
</g>
</g>
<!-- Node15 -->
<g id="Node000015" class="node">
<title>Node15</title>
<g id="a_Node000015"><a xlink:href="_action_list_handler_8cpp.html" target="_top" xlink:title=" ">
<polygon fill="white" stroke="#666666" points="439.5,-32 289.25,-32 289.25,0 439.5,0 439.5,-32"/>
<text text-anchor="start" x="297.25" y="-18.5" font-family="Helvetica,sans-Serif" font-size="10.00">FIEAGameEngine/src</text>
<text text-anchor="middle" x="364.38" y="-6.5" font-family="Helvetica,sans-Serif" font-size="10.00">/content/ActionListHandler.cpp</text>
</a>
</g>
</g>
<!-- Node24&#45;&gt;Node15 -->
<g id="edge8_Node000024_Node000015" class="edge">
<title>Node24&#45;&gt;Node15</title>
<g id="a_edge8_Node000024_Node000015"><a xlink:title=" ">
<path fill="none" stroke="#63b8ff" d="M357.77,-56.6C359.16,-48.32 360.63,-39.46 361.84,-32.22"/>
<polygon fill="#63b8ff" stroke="#63b8ff" points="354.37,-55.76 356.18,-66.2 361.27,-56.91 354.37,-55.76"/>
</a>
</g>
</g>
<!-- Node26 -->
<g id="Node000026" class="node">
<title>Node26</title>
<g id="a_Node000026"><a xlink:href="_game_object_handler_8cpp.html" target="_top" xlink:title=" ">
<polygon fill="white" stroke="#666666" points="619.12,-32 457.62,-32 457.62,0 619.12,0 619.12,-32"/>
<text text-anchor="start" x="465.62" y="-18.5" font-family="Helvetica,sans-Serif" font-size="10.00">FIEAGameEngine/src</text>
<text text-anchor="middle" x="538.38" y="-6.5" font-family="Helvetica,sans-Serif" font-size="10.00">/content/GameObjectHandler.cpp</text>
</a>
</g>
</g>
<!-- Node24&#45;&gt;Node26 -->
<g id="edge9_Node000024_Node000026" class="edge">
<title>Node24&#45;&gt;Node26</title>
<g id="a_edge9_Node000024_Node000026"><a xlink:title=" ">
<path fill="none" stroke="#63b8ff" d="M407.51,-63.69C435.35,-53.76 468.83,-41.81 494.95,-32.49"/>
<polygon fill="#63b8ff" stroke="#63b8ff" points="406.42,-60.36 398.17,-67.02 408.77,-66.95 406.42,-60.36"/>
</a>
</g>
</g>
<!-- Node24&#45;&gt;Node27 -->
<g id="edge10_Node000024_Node000027" class="edge">
<title>Node24&#45;&gt;Node27</title>
<g id="a_edge10_Node000024_Node000027"><a xlink:title=" ">
<path fill="none" stroke="#63b8ff" d="M277.9,-66.06C221.84,-53.47 147.44,-36.77 101.51,-26.46"/>
<polygon fill="#63b8ff" stroke="#63b8ff" points="276.85,-69.41 287.38,-68.18 278.39,-62.58 276.85,-69.41"/>
</a>
</g>
</g>
<!-- Node31&#45;&gt;Node32 -->
<g id="edge14_Node000031_Node000032" class="edge">
<title>Node31&#45;&gt;Node32</title>
<g id="a_edge14_Node000031_Node000032"><a xlink:title=" ">
<path fill="none" stroke="#63b8ff" d="M535.81,-125.17C532.35,-116.73 528.63,-107.63 525.6,-100.22"/>
<polygon fill="#63b8ff" stroke="#63b8ff" points="532.51,-126.36 539.54,-134.29 538.99,-123.71 532.51,-126.36"/>
</a>
</g>
</g>
<!-- Node43&#45;&gt;Node14 -->
<g id="edge21_Node000043_Node000014" class="edge">
<title>Node43&#45;&gt;Node14</title>
<g id="a_edge21_Node000043_Node000014"><a xlink:title=" ">
<path fill="none" stroke="#63b8ff" d="M951.52,-81.13C819.77,-76.95 525.76,-64.53 280.38,-32 277.58,-31.63 274.72,-31.22 271.85,-30.78"/>
<polygon fill="#63b8ff" stroke="#63b8ff" points="951.39,-84.63 961.49,-81.44 951.6,-77.63 951.39,-84.63"/>
</a>
</g>
</g>
<!-- Node43&#45;&gt;Node15 -->
<g id="edge22_Node000043_Node000015" class="edge">
<title>Node43&#45;&gt;Node15</title>
<g id="a_edge22_Node000043_Node000015"><a xlink:title=" ">
<path fill="none" stroke="#63b8ff" d="M951.65,-78.78C843.55,-71.79 629.13,-56.14 448.38,-32 445.59,-31.63 442.75,-31.23 439.88,-30.81"/>
<polygon fill="#63b8ff" stroke="#63b8ff" points="951.32,-82.26 961.52,-79.41 951.77,-75.28 951.32,-82.26"/>
</a>
</g>
</g>
<!-- Node43&#45;&gt;Node26 -->
<g id="edge25_Node000043_Node000026" class="edge">
<title>Node43&#45;&gt;Node26</title>
<g id="a_edge25_Node000043_Node000026"><a xlink:title=" ">
<path fill="none" stroke="#63b8ff" d="M951.82,-74.74C873.19,-65.23 741.41,-48.75 628.38,-32 625.4,-31.56 622.37,-31.1 619.31,-30.63"/>
<polygon fill="#63b8ff" stroke="#63b8ff" points="951.17,-78.19 961.52,-75.91 952.01,-71.24 951.17,-78.19"/>
</a>
</g>
</g>
<!-- Node44 -->
<g id="Node000044" class="node">
<title>Node44</title>
<g id="a_Node000044"><a xlink:href="_array_handler_8cpp.html" target="_top" xlink:title=" ">
<polygon fill="white" stroke="#666666" points="919.38,-32 789.38,-32 789.38,0 919.38,0 919.38,-32"/>
<text text-anchor="start" x="797.38" y="-18.5" font-family="Helvetica,sans-Serif" font-size="10.00">FIEAGameEngine/src</text>
<text text-anchor="middle" x="854.38" y="-6.5" font-family="Helvetica,sans-Serif" font-size="10.00">/content/ArrayHandler.cpp</text>
</a>
</g>
</g>
<!-- Node43&#45;&gt;Node44 -->
<g id="edge23_Node000043_Node000044" class="edge">
<title>Node43&#45;&gt;Node44</title>
<g id="a_edge23_Node000043_Node000044"><a xlink:title=" ">
<path fill="none" stroke="#63b8ff" d="M971.84,-63.42C946.84,-53.54 916.95,-41.73 893.57,-32.49"/>
<polygon fill="#63b8ff" stroke="#63b8ff" points="970.23,-66.55 980.81,-66.97 972.8,-60.04 970.23,-66.55"/>
</a>
</g>
</g>
<!-- Node45 -->
<g id="Node000045" class="node">
<title>Node45</title>
<g id="a_Node000045"><a xlink:href="_float_parse_handler_8cpp.html" target="_top" xlink:title=" ">
<polygon fill="white" stroke="#666666" points="1091.38,-32 937.38,-32 937.38,0 1091.38,0 1091.38,-32"/>
<text text-anchor="start" x="945.38" y="-18.5" font-family="Helvetica,sans-Serif" font-size="10.00">FIEAGameEngine/src</text>
<text text-anchor="middle" x="1014.38" y="-6.5" font-family="Helvetica,sans-Serif" font-size="10.00">/content/FloatParseHandler.cpp</text>
</a>
</g>
</g>
<!-- Node43&#45;&gt;Node45 -->
<g id="edge24_Node000043_Node000045" class="edge">
<title>Node43&#45;&gt;Node45</title>
<g id="a_edge24_Node000043_Node000045"><a xlink:title=" ">
<path fill="none" stroke="#63b8ff" d="M1018.54,-56.31C1017.68,-48.12 1016.75,-39.38 1015.99,-32.22"/>
<polygon fill="#63b8ff" stroke="#63b8ff" points="1015.06,-56.61 1019.59,-66.19 1022.02,-55.87 1015.06,-56.61"/>
</a>
</g>
</g>
<!-- Node46 -->
<g id="Node000046" class="node">
<title>Node46</title>
<g id="a_Node000046"><a xlink:href="_int_parse_handler_8cpp.html" target="_top" xlink:title=" ">
<polygon fill="white" stroke="#666666" points="1253.12,-32 1109.62,-32 1109.62,0 1253.12,0 1253.12,-32"/>
<text text-anchor="start" x="1117.62" y="-18.5" font-family="Helvetica,sans-Serif" font-size="10.00">FIEAGameEngine/src</text>
<text text-anchor="middle" x="1181.38" y="-6.5" font-family="Helvetica,sans-Serif" font-size="10.00">/content/IntParseHandler.cpp</text>
</a>
</g>
</g>
<!-- Node43&#45;&gt;Node46 -->
<g id="edge26_Node000043_Node000046" class="edge">
<title>Node43&#45;&gt;Node46</title>
<g id="a_edge26_Node000043_Node000046"><a xlink:title=" ">
<path fill="none" stroke="#63b8ff" d="M1069.48,-63.16C1093.29,-53.33 1121.63,-41.65 1143.82,-32.49"/>
<polygon fill="#63b8ff" stroke="#63b8ff" points="1068.2,-59.9 1060.29,-66.95 1070.87,-66.37 1068.2,-59.9"/>
</a>
</g>
</g>
<!-- Node47 -->
<g id="Node000047" class="node">
<title>Node47</title>
<g id="a_Node000047"><a xlink:href="_matrix_handler_8cpp.html" target="_top" xlink:title=" ">
<polygon fill="white" stroke="#666666" points="1405.25,-32 1271.5,-32 1271.5,0 1405.25,0 1405.25,-32"/>
<text text-anchor="start" x="1279.5" y="-18.5" font-family="Helvetica,sans-Serif" font-size="10.00">FIEAGameEngine/src</text>
<text text-anchor="middle" x="1338.38" y="-6.5" font-family="Helvetica,sans-Serif" font-size="10.00">/content/MatrixHandler.cpp</text>
</a>
</g>
</g>
<!-- Node43&#45;&gt;Node47 -->
<g id="edge27_Node000043_Node000047" class="edge">
<title>Node43&#45;&gt;Node47</title>
<g id="a_edge27_Node000043_Node000047"><a xlink:title=" ">
<path fill="none" stroke="#63b8ff" d="M1090.64,-68.58C1144.29,-57.41 1218.17,-42.03 1271.26,-30.97"/>
<polygon fill="#63b8ff" stroke="#63b8ff" points="1090.08,-65.12 1081,-70.59 1091.5,-71.97 1090.08,-65.12"/>
</a>
</g>
</g>
<!-- Node48 -->
<g id="Node000048" class="node">
<title>Node48</title>
<g id="a_Node000048"><a xlink:href="_scope_parse_handler_8cpp.html" target="_top" xlink:title=" ">
<polygon fill="white" stroke="#666666" points="1583.38,-32 1423.38,-32 1423.38,0 1583.38,0 1583.38,-32"/>
<text text-anchor="start" x="1431.38" y="-18.5" font-family="Helvetica,sans-Serif" font-size="10.00">FIEAGameEngine/src</text>
<text text-anchor="middle" x="1503.38" y="-6.5" font-family="Helvetica,sans-Serif" font-size="10.00">/content/ScopeParseHandler.cpp</text>
</a>
</g>
</g>
<!-- Node43&#45;&gt;Node48 -->
<g id="edge28_Node000043_Node000048" class="edge">
<title>Node43&#45;&gt;Node48</title>
<g id="a_edge28_Node000043_Node000048"><a xlink:title=" ">
<path fill="none" stroke="#63b8ff" d="M1090.94,-74.78C1169.57,-65.3 1301.36,-48.85 1414.38,-32 1417.32,-31.56 1420.32,-31.1 1423.34,-30.64"/>
<polygon fill="#63b8ff" stroke="#63b8ff" points="1090.75,-71.28 1081.24,-75.95 1091.58,-78.23 1090.75,-71.28"/>
</a>
</g>
</g>
<!-- Node49 -->
<g id="Node000049" class="node">
<title>Node49</title>
<g id="a_Node000049"><a xlink:href="_scope_writer_8cpp.html" target="_top" xlink:title=" ">
<polygon fill="white" stroke="#666666" points="1727.5,-32 1601.25,-32 1601.25,0 1727.5,0 1727.5,-32"/>
<text text-anchor="start" x="1609.25" y="-18.5" font-family="Helvetica,sans-Serif" font-size="10.00">FIEAGameEngine/src</text>
<text text-anchor="middle" x="1664.38" y="-6.5" font-family="Helvetica,sans-Serif" font-size="10.00">/content/ScopeWriter.cpp</text>
</a>
</g>
</g>
<!-- Node43&#45;&gt;Node49 -->
<g id="edge29_Node000043_Node000049" class="edge">
<title>Node43&#45;&gt;Node49</title>
<g id="a_edge29_Node000043_Node000049"><a xlink:title=" ">
<path fill="none" stroke="#63b8ff" d="M1090.95,-79.4C1198.79,-73.24 1412.61,-58.66 1592.38,-32 1595.15,-31.59 1597.99,-31.14 1600.84,-30.65"/>
<polygon fill="#63b8ff" stroke="#63b8ff" points="1090.89,-75.9 1081.1,-79.96 1091.28,-82.89 1090.89,-75.9"/>
</a>
</g>
</g>
<!-- Node50 -->
<g id="Node000050" class="node">
<title>Node50</title>
<g id="a_Node000050"><a xlink:href="_scope_writer_8inl.html" target="_top" xlink:title=" ">
<polygon fill="white" stroke="#666666" points="1865.5,-32 1745.25,-32 1745.25,0 1865.5,0 1865.5,-32"/>
<text text-anchor="start" x="1753.25" y="-18.5" font-family="Helvetica,sans-Serif" font-size="10.00">FIEAGameEngine/src</text>
<text text-anchor="middle" x="1805.38" y="-6.5" font-family="Helvetica,sans-Serif" font-size="10.00">/content/ScopeWriter.inl</text>
</a>
</g>
</g>
<!-- Node43&#45;&gt;Node50 -->
<g id="edge30_Node000043_Node000050" class="edge">
<title>Node43&#45;&gt;Node50</title>
<g id="a_edge30_Node000043_Node000050"><a xlink:title=" ">
<path fill="none" stroke="#63b8ff" d="M1091.21,-81.16C1218.37,-77.19 1495.63,-65.28 1727.38,-32 1733.08,-31.18 1739.01,-30.16 1744.96,-29.03"/>
<polygon fill="#63b8ff" stroke="#63b8ff" points="1091.14,-77.66 1081.25,-81.47 1091.36,-84.66 1091.14,-77.66"/>
</a>
</g>
</g>
<!-- Node51 -->
<g id="Node000051" class="node">
<title>Node51</title>
<g id="a_Node000051"><a xlink:href="_string_parse_handler_8cpp.html" target="_top" xlink:title=" ">
<polygon fill="white" stroke="#666666" points="2041.25,-32 1883.5,-32 1883.5,0 2041.25,0 2041.25,-32"/>
<text text-anchor="start" x="1891.5" y="-18.5" font-family="Helvetica,sans-Serif" font-size="10.00">FIEAGameEngine/src</text>
<text text-anchor="middle" x="1962.38" y="-6.5" font-family="Helvetica,sans-Serif" font-size="10.00">/content/StringParseHandler.cpp</text>
</a>
</g>
</g>
<!-- Node43&#45;&gt;Node51 -->
<g id="edge32_Node000043_Node000051" class="edge">
<title>Node43&#45;&gt;Node51</title>
<g id="a_edge32_Node000043_Node000051"><a xlink:title=" ">
<path fill="none" stroke="#63b8ff" d="M1091.14,-81.41C1237,-77.51 1584.68,-65.25 1874.38,-32 1877.3,-31.66 1880.28,-31.3 1883.28,-30.9"/>
<polygon fill="#63b8ff" stroke="#63b8ff" points="1091.16,-77.9 1081.25,-81.66 1091.34,-84.9 1091.16,-77.9"/>
</a>
</g>
</g>
<!-- Node52 -->
<g id="Node000052" class="node">
<title>Node52</title>
<g id="a_Node000052"><a xlink:href="_vector_handler_8cpp.html" target="_top" xlink:title=" ">
<polygon fill="white" stroke="#666666" points="771.62,-32 637.12,-32 637.12,0 771.62,0 771.62,-32"/>
<text text-anchor="start" x="645.12" y="-18.5" font-family="Helvetica,sans-Serif" font-size="10.00">FIEAGameEngine/src</text>
<text text-anchor="middle" x="704.38" y="-6.5" font-family="Helvetica,sans-Serif" font-size="10.00">/content/VectorHandler.cpp</text>
</a>
</g>
</g>
<!-- Node43&#45;&gt;Node52 -->
<g id="edge33_Node000043_Node000052" class="edge">
<title>Node43&#45;&gt;Node52</title>
<g id="a_edge33_Node000043_Node000052"><a xlink:title=" ">
<path fill="none" stroke="#63b8ff" d="M952.14,-68.59C898.68,-57.46 825.12,-42.14 772.05,-31.09"/>
<polygon fill="#63b8ff" stroke="#63b8ff" points="951.25,-71.97 961.75,-70.59 952.67,-65.12 951.25,-71.97"/>
</a>
</g>
</g>
<!-- Node50&#45;&gt;Node43 -->
<g id="edge31_Node000050_Node000043" class="edge">
<title>Node50&#45;&gt;Node43</title>
<g id="a_edge31_Node000050_Node000043"><a xlink:title=" ">
<path fill="none" stroke="#63b8ff" d="M1733.82,-33.64C1490.39,-67.64 1200.75,-78.6 1079.31,-81.8"/>
<polygon fill="#63b8ff" stroke="#63b8ff" points="1734.11,-37.13 1743.52,-32.26 1733.12,-30.2 1734.11,-37.13"/>
</a>
</g>
</g>
<!-- Node56&#45;&gt;Node27 -->
<g id="edge40_Node000056_Node000027" class="edge">
<title>Node56&#45;&gt;Node27</title>
<g id="a_edge40_Node000056_Node000027"><a xlink:title=" ">
<path fill="none" stroke="#63b8ff" d="M68.54,-198.46C66.57,-189.21 64.49,-178.11 63.38,-168 57.47,-114.57 58.46,-49.88 59.08,-26.23"/>
<polygon fill="#63b8ff" stroke="#63b8ff" points="65.12,-199.21 70.73,-208.2 71.94,-197.67 65.12,-199.21"/>
</a>
</g>
</g>
<!-- Node56&#45;&gt;Node55 -->
<g id="edge41_Node000056_Node000055" class="edge">
<title>Node56&#45;&gt;Node55</title>
<g id="a_edge41_Node000056_Node000055"><a xlink:title=" ">
<path fill="none" stroke="#63b8ff" d="M87.92,-200.88C97.91,-188.44 110.77,-172.43 118.8,-162.44"/>
<polygon fill="#63b8ff" stroke="#63b8ff" points="85.45,-198.38 81.92,-208.36 90.91,-202.76 85.45,-198.38"/>
</a>
</g>
</g>
</g>
</svg>
