<?xml version="1.0" encoding="UTF-8" standalone="no"?>
<!DOCTYPE svg PUBLIC "-//W3C//DTD SVG 1.1//EN"
 "http://www.w3.org/Graphics/SVG/1.1/DTD/svg11.dtd">
<!-- Generated by graphviz version 12.2.1 (20241206.2353)
 -->
<!-- Title: FIEAGameEngine/include/Content/Datum.inl Pages: 1 -->
<svg width="645pt" height="264pt"
 viewBox="0.00 0.00 645.12 264.00" xmlns="http://www.w3.org/2000/svg" xmlns:xlink="http://www.w3.org/1999/xlink">
<g id="graph0" class="graph" transform="scale(1 1) rotate(0) translate(4 260)">
<title>FIEAGameEngine/include/Content/Datum.inl</title>
<!-- Node1 -->
<g id="Node000001" class="node">
<title>Node1</title>
<g id="a_Node000001"><a xlink:title=" ">
<polygon fill="#999999" stroke="#666666" points="392.38,-256 263.88,-256 263.88,-224 392.38,-224 392.38,-256"/>
<text text-anchor="start" x="271.88" y="-242.5" font-family="Helvetica,sans-Serif" font-size="10.00">FIEAGameEngine/include</text>
<text text-anchor="middle" x="328.12" y="-230.5" font-family="Helvetica,sans-Serif" font-size="10.00">/Content/Datum.inl</text>
</a>
</g>
</g>
<!-- Node2 -->
<g id="Node000002" class="node">
<title>Node2</title>
<g id="a_Node000002"><a xlink:href="_types_8h.html" target="_top" xlink:title=" ">
<polygon fill="white" stroke="#666666" points="324.25,-76 192,-76 192,-56 324.25,-56 324.25,-76"/>
<text text-anchor="middle" x="258.12" y="-62.5" font-family="Helvetica,sans-Serif" font-size="10.00">FIEAGameEngine/Types.h</text>
</a>
</g>
</g>
<!-- Node1&#45;&gt;Node2 -->
<g id="edge1_Node000001_Node000002" class="edge">
<title>Node1&#45;&gt;Node2</title>
<g id="a_edge1_Node000001_Node000002"><a xlink:title=" ">
<path fill="none" stroke="#63b8ff" d="M277.92,-223.51C236.47,-207.76 180.34,-178.9 154.12,-132 139.94,-106.62 170.48,-89.82 202.07,-79.67"/>
<polygon fill="#63b8ff" stroke="#63b8ff" points="202.73,-83.13 211.31,-76.91 200.73,-76.42 202.73,-83.13"/>
</a>
</g>
</g>
<!-- Node11 -->
<g id="Node000011" class="node">
<title>Node11</title>
<g id="a_Node000011"><a xlink:href="_datum_8h.html" target="_top" xlink:title=" ">
<polygon fill="white" stroke="#666666" points="354.88,-188 301.38,-188 301.38,-168 354.88,-168 354.88,-188"/>
<text text-anchor="middle" x="328.12" y="-174.5" font-family="Helvetica,sans-Serif" font-size="10.00">Datum.h</text>
</a>
</g>
</g>
<!-- Node1&#45;&gt;Node11 -->
<g id="edge10_Node000001_Node000011" class="edge">
<title>Node1&#45;&gt;Node11</title>
<g id="a_edge10_Node000001_Node000011"><a xlink:title=" ">
<path fill="none" stroke="#63b8ff" d="M322.14,-223.55C321.31,-216.26 321.16,-207.45 321.68,-199.6"/>
<polygon fill="#63b8ff" stroke="#63b8ff" points="325.12,-200.26 322.87,-189.91 318.18,-199.41 325.12,-200.26"/>
</a>
</g>
</g>
<!-- Node3 -->
<g id="Node000003" class="node">
<title>Node3</title>
<g id="a_Node000003"><a xlink:title=" ">
<polygon fill="#e0e0e0" stroke="#999999" points="579.38,-20 516.88,-20 516.88,0 579.38,0 579.38,-20"/>
<text text-anchor="middle" x="548.12" y="-6.5" font-family="Helvetica,sans-Serif" font-size="10.00">windows.h</text>
</a>
</g>
</g>
<!-- Node2&#45;&gt;Node3 -->
<g id="edge2_Node000002_Node000003" class="edge">
<title>Node2&#45;&gt;Node3</title>
<g id="a_edge2_Node000002_Node000003"><a xlink:title=" ">
<path fill="none" stroke="#63b8ff" d="M314.85,-55.51C363.13,-47.27 434.59,-34.69 505.76,-20.41"/>
<polygon fill="#63b8ff" stroke="#63b8ff" points="506.12,-23.91 515.23,-18.5 504.73,-17.05 506.12,-23.91"/>
</a>
</g>
</g>
<!-- Node4 -->
<g id="Node000004" class="node">
<title>Node4</title>
<g id="a_Node000004"><a xlink:title=" ">
<polygon fill="#e0e0e0" stroke="#999999" points="48.25,-20 0,-20 0,0 48.25,0 48.25,-20"/>
<text text-anchor="middle" x="24.12" y="-6.5" font-family="Helvetica,sans-Serif" font-size="10.00">cassert</text>
</a>
</g>
</g>
<!-- Node2&#45;&gt;Node4 -->
<g id="edge3_Node000002_Node000004" class="edge">
<title>Node2&#45;&gt;Node4</title>
<g id="a_edge3_Node000002_Node000004"><a xlink:title=" ">
<path fill="none" stroke="#63b8ff" d="M213.28,-55.58C174.85,-47.37 117.75,-34.84 59.49,-20.51"/>
<polygon fill="#63b8ff" stroke="#63b8ff" points="60.62,-17.18 50.07,-18.17 58.94,-23.98 60.62,-17.18"/>
</a>
</g>
</g>
<!-- Node5 -->
<g id="Node000005" class="node">
<title>Node5</title>
<g id="a_Node000005"><a xlink:title=" ">
<polygon fill="#e0e0e0" stroke="#999999" points="114.25,-20 66,-20 66,0 114.25,0 114.25,-20"/>
<text text-anchor="middle" x="90.12" y="-6.5" font-family="Helvetica,sans-Serif" font-size="10.00">cstddef</text>
</a>
</g>
</g>
<!-- Node2&#45;&gt;Node5 -->
<g id="edge4_Node000002_Node000005" class="edge">
<title>Node2&#45;&gt;Node5</title>
<g id="a_edge4_Node000002_Node000005"><a xlink:title=" ">
<path fill="none" stroke="#63b8ff" d="M228.86,-55.59C200.06,-46.34 156.05,-32.19 125.35,-22.32"/>
<polygon fill="#63b8ff" stroke="#63b8ff" points="126.72,-19.09 116.13,-19.36 124.58,-25.75 126.72,-19.09"/>
</a>
</g>
</g>
<!-- Node6 -->
<g id="Node000006" class="node">
<title>Node6</title>
<g id="a_Node000006"><a xlink:title=" ">
<polygon fill="#e0e0e0" stroke="#999999" points="177.75,-20 132.5,-20 132.5,0 177.75,0 177.75,-20"/>
<text text-anchor="middle" x="155.12" y="-6.5" font-family="Helvetica,sans-Serif" font-size="10.00">cstdint</text>
</a>
</g>
</g>
<!-- Node2&#45;&gt;Node6 -->
<g id="edge5_Node000002_Node000006" class="edge">
<title>Node2&#45;&gt;Node6</title>
<g id="a_edge5_Node000002_Node000006"><a xlink:title=" ">
<path fill="none" stroke="#63b8ff" d="M240.18,-55.59C224.48,-47.36 201.39,-35.26 183.24,-25.74"/>
<polygon fill="#63b8ff" stroke="#63b8ff" points="185.03,-22.73 174.55,-21.18 181.78,-28.93 185.03,-22.73"/>
</a>
</g>
</g>
<!-- Node7 -->
<g id="Node000007" class="node">
<title>Node7</title>
<g id="a_Node000007"><a xlink:title=" ">
<polygon fill="#e0e0e0" stroke="#999999" points="248.5,-20 195.75,-20 195.75,0 248.5,0 248.5,-20"/>
<text text-anchor="middle" x="222.12" y="-6.5" font-family="Helvetica,sans-Serif" font-size="10.00">cstdbool</text>
</a>
</g>
</g>
<!-- Node2&#45;&gt;Node7 -->
<g id="edge6_Node000002_Node000007" class="edge">
<title>Node2&#45;&gt;Node7</title>
<g id="a_edge6_Node000002_Node000007"><a xlink:title=" ">
<path fill="none" stroke="#63b8ff" d="M251.85,-55.59C247.11,-48.47 240.43,-38.45 234.6,-29.72"/>
<polygon fill="#63b8ff" stroke="#63b8ff" points="237.62,-27.94 229.16,-21.56 231.8,-31.82 237.62,-27.94"/>
</a>
</g>
</g>
<!-- Node8 -->
<g id="Node000008" class="node">
<title>Node8</title>
<g id="a_Node000008"><a xlink:title=" ">
<polygon fill="#e0e0e0" stroke="#999999" points="637.12,-20 597.12,-20 597.12,0 637.12,0 637.12,-20"/>
<text text-anchor="middle" x="617.12" y="-6.5" font-family="Helvetica,sans-Serif" font-size="10.00">string</text>
</a>
</g>
</g>
<!-- Node2&#45;&gt;Node8 -->
<g id="edge7_Node000002_Node000008" class="edge">
<title>Node2&#45;&gt;Node8</title>
<g id="a_edge7_Node000002_Node000008"><a xlink:title=" ">
<path fill="none" stroke="#63b8ff" d="M324.75,-59.18C389.32,-52.81 490.12,-40.92 585.63,-20.25"/>
<polygon fill="#63b8ff" stroke="#63b8ff" points="586.15,-23.71 595.16,-18.14 584.65,-16.88 586.15,-23.71"/>
</a>
</g>
</g>
<!-- Node9 -->
<g id="Node000009" class="node">
<title>Node9</title>
<g id="a_Node000009"><a xlink:title=" ">
<polygon fill="#e0e0e0" stroke="#999999" points="321.25,-20 267,-20 267,0 321.25,0 321.25,-20"/>
<text text-anchor="middle" x="294.12" y="-6.5" font-family="Helvetica,sans-Serif" font-size="10.00">crtdefs.h</text>
</a>
</g>
</g>
<!-- Node2&#45;&gt;Node9 -->
<g id="edge8_Node000002_Node000009" class="edge">
<title>Node2&#45;&gt;Node9</title>
<g id="a_edge8_Node000002_Node000009"><a xlink:title=" ">
<path fill="none" stroke="#63b8ff" d="M264.4,-55.59C269.14,-48.47 275.82,-38.45 281.65,-29.72"/>
<polygon fill="#63b8ff" stroke="#63b8ff" points="284.45,-31.82 287.09,-21.56 278.63,-27.94 284.45,-31.82"/>
</a>
</g>
</g>
<!-- Node10 -->
<g id="Node000010" class="node">
<title>Node10</title>
<g id="a_Node000010"><a xlink:title=" ">
<polygon fill="#e0e0e0" stroke="#999999" points="499.12,-20 339.12,-20 339.12,0 499.12,0 499.12,-20"/>
<text text-anchor="middle" x="419.12" y="-6.5" font-family="Helvetica,sans-Serif" font-size="10.00">../src/memory/SystemAllocator.h</text>
</a>
</g>
</g>
<!-- Node2&#45;&gt;Node10 -->
<g id="edge9_Node000002_Node000010" class="edge">
<title>Node2&#45;&gt;Node10</title>
<g id="a_edge9_Node000002_Node000010"><a xlink:title=" ">
<path fill="none" stroke="#63b8ff" d="M286.17,-55.59C312.21,-46.86 351.23,-33.77 380.27,-24.03"/>
<polygon fill="#63b8ff" stroke="#63b8ff" points="381.06,-27.46 389.43,-20.96 378.83,-20.82 381.06,-27.46"/>
</a>
</g>
</g>
<!-- Node11&#45;&gt;Node1 -->
<g id="edge19_Node000011_Node000001" class="edge">
<title>Node11&#45;&gt;Node1</title>
<g id="a_edge19_Node000011_Node000001"><a xlink:title=" ">
<path fill="none" stroke="#63b8ff" d="M333.19,-188.41C334.47,-194.8 335.02,-203.6 334.84,-212.08"/>
<polygon fill="#63b8ff" stroke="#63b8ff" points="331.35,-211.84 334.21,-222.04 338.34,-212.28 331.35,-211.84"/>
</a>
</g>
</g>
<!-- Node11&#45;&gt;Node8 -->
<g id="edge11_Node000011_Node000008" class="edge">
<title>Node11&#45;&gt;Node8</title>
<g id="a_edge11_Node000011_Node000008"><a xlink:title=" ">
<path fill="none" stroke="#63b8ff" d="M355.04,-176.37C416.5,-174.36 564.43,-166.01 598.12,-132 624.35,-105.53 623.57,-58.6 620.47,-31.62"/>
<polygon fill="#63b8ff" stroke="#63b8ff" points="623.98,-31.39 619.13,-21.97 617.04,-32.35 623.98,-31.39"/>
</a>
</g>
</g>
<!-- Node12 -->
<g id="Node000012" class="node">
<title>Node12</title>
<g id="a_Node000012"><a xlink:title=" ">
<polygon fill="#e0e0e0" stroke="#999999" points="219,-132 163.25,-132 163.25,-112 219,-112 219,-132"/>
<text text-anchor="middle" x="191.12" y="-118.5" font-family="Helvetica,sans-Serif" font-size="10.00">charconv</text>
</a>
</g>
</g>
<!-- Node11&#45;&gt;Node12 -->
<g id="edge12_Node000011_Node000012" class="edge">
<title>Node11&#45;&gt;Node12</title>
<g id="a_edge12_Node000011_Node000012"><a xlink:title=" ">
<path fill="none" stroke="#63b8ff" d="M304.26,-167.59C282.59,-159.05 250.36,-146.35 225.83,-136.68"/>
<polygon fill="#63b8ff" stroke="#63b8ff" points="227.17,-133.45 216.58,-133.03 224.6,-139.96 227.17,-133.45"/>
</a>
</g>
</g>
<!-- Node13 -->
<g id="Node000013" class="node">
<title>Node13</title>
<g id="a_Node000013"><a xlink:title=" ">
<polygon fill="#e0e0e0" stroke="#999999" points="306.75,-132 237.5,-132 237.5,-112 306.75,-112 306.75,-132"/>
<text text-anchor="middle" x="272.12" y="-118.5" font-family="Helvetica,sans-Serif" font-size="10.00">glm/glm.hpp</text>
</a>
</g>
</g>
<!-- Node11&#45;&gt;Node13 -->
<g id="edge13_Node000011_Node000013" class="edge">
<title>Node11&#45;&gt;Node13</title>
<g id="a_edge13_Node000011_Node000013"><a xlink:title=" ">
<path fill="none" stroke="#63b8ff" d="M318.37,-167.59C310.5,-160.01 299.23,-149.13 289.78,-140.02"/>
<polygon fill="#63b8ff" stroke="#63b8ff" points="292.49,-137.77 282.86,-133.35 287.63,-142.81 292.49,-137.77"/>
</a>
</g>
</g>
<!-- Node14 -->
<g id="Node000014" class="node">
<title>Node14</title>
<g id="a_Node000014"><a xlink:title=" ">
<polygon fill="#e0e0e0" stroke="#999999" points="443.12,-132 325.12,-132 325.12,-112 443.12,-112 443.12,-132"/>
<text text-anchor="middle" x="384.12" y="-118.5" font-family="Helvetica,sans-Serif" font-size="10.00">glm/gtx/string_cast.hpp</text>
</a>
</g>
</g>
<!-- Node11&#45;&gt;Node14 -->
<g id="edge14_Node000011_Node000014" class="edge">
<title>Node11&#45;&gt;Node14</title>
<g id="a_edge14_Node000011_Node000014"><a xlink:title=" ">
<path fill="none" stroke="#63b8ff" d="M337.88,-167.59C345.75,-160.01 357.02,-149.13 366.47,-140.02"/>
<polygon fill="#63b8ff" stroke="#63b8ff" points="368.62,-142.81 373.39,-133.35 363.76,-137.77 368.62,-142.81"/>
</a>
</g>
</g>
<!-- Node15 -->
<g id="Node000015" class="node">
<title>Node15</title>
<g id="a_Node000015"><a xlink:href="_r_t_t_i_8h.html" target="_top" xlink:title=" ">
<polygon fill="white" stroke="#666666" points="589,-132 461.25,-132 461.25,-112 589,-112 589,-132"/>
<text text-anchor="middle" x="525.12" y="-118.5" font-family="Helvetica,sans-Serif" font-size="10.00">FIEAGameEngine/RTTI.h</text>
</a>
</g>
</g>
<!-- Node11&#45;&gt;Node15 -->
<g id="edge15_Node000011_Node000015" class="edge">
<title>Node11&#45;&gt;Node15</title>
<g id="a_edge15_Node000011_Node000015"><a xlink:title=" ">
<path fill="none" stroke="#63b8ff" d="M355.1,-169.6C387.14,-160.82 441.07,-146.04 479.6,-135.48"/>
<polygon fill="#63b8ff" stroke="#63b8ff" points="480.35,-138.9 489.07,-132.88 478.5,-132.15 480.35,-138.9"/>
</a>
</g>
</g>
<!-- Node15&#45;&gt;Node2 -->
<g id="edge16_Node000015_Node000002" class="edge">
<title>Node15&#45;&gt;Node2</title>
<g id="a_edge16_Node000015_Node000002"><a xlink:title=" ">
<path fill="none" stroke="#63b8ff" d="M478.31,-111.53C433.17,-102.4 364.74,-88.56 316.16,-78.74"/>
<polygon fill="#63b8ff" stroke="#63b8ff" points="316.86,-75.31 306.37,-76.76 315.48,-82.17 316.86,-75.31"/>
</a>
</g>
</g>
<!-- Node16 -->
<g id="Node000016" class="node">
<title>Node16</title>
<g id="a_Node000016"><a xlink:href="_r_t_t_i_8inl.html" target="_top" xlink:title=" ">
<polygon fill="white" stroke="#666666" points="589.38,-76 460.88,-76 460.88,-56 589.38,-56 589.38,-76"/>
<text text-anchor="middle" x="525.12" y="-62.5" font-family="Helvetica,sans-Serif" font-size="10.00">FieaGameEngine/RTTI.inl</text>
</a>
</g>
</g>
<!-- Node15&#45;&gt;Node16 -->
<g id="edge17_Node000015_Node000016" class="edge">
<title>Node15&#45;&gt;Node16</title>
<g id="a_edge17_Node000015_Node000016"><a xlink:title=" ">
<path fill="none" stroke="#63b8ff" d="M519.86,-111.59C518.54,-105.01 518.1,-95.96 518.54,-87.73"/>
<polygon fill="#63b8ff" stroke="#63b8ff" points="522.02,-88.14 519.7,-77.8 515.06,-87.33 522.02,-88.14"/>
</a>
</g>
</g>
<!-- Node16&#45;&gt;Node15 -->
<g id="edge18_Node000016_Node000015" class="edge">
<title>Node16&#45;&gt;Node15</title>
<g id="a_edge18_Node000016_Node000015"><a xlink:title=" ">
<path fill="none" stroke="#63b8ff" d="M530.37,-76.3C531.71,-82.93 532.16,-92.11 531.7,-100.43"/>
<polygon fill="#63b8ff" stroke="#63b8ff" points="528.26,-99.75 530.57,-110.09 535.21,-100.57 528.26,-99.75"/>
</a>
</g>
</g>
</g>
</svg>
