<?xml version="1.0" encoding="UTF-8" standalone="no"?>
<!DOCTYPE svg PUBLIC "-//W3C//DTD SVG 1.1//EN"
 "http://www.w3.org/Graphics/SVG/1.1/DTD/svg11.dtd">
<!-- Generated by graphviz version 12.2.1 (20241206.2353)
 -->
<!-- Title: FIEAGameEngine/include/Content/Actions/DelayedAction.h Pages: 1 -->
<svg width="463pt" height="108pt"
 viewBox="0.00 0.00 463.12 108.00" xmlns="http://www.w3.org/2000/svg" xmlns:xlink="http://www.w3.org/1999/xlink">
<g id="graph0" class="graph" transform="scale(1 1) rotate(0) translate(4 104)">
<title>FIEAGameEngine/include/Content/Actions/DelayedAction.h</title>
<!-- Node1 -->
<g id="Node000001" class="node">
<title>Node1</title>
<g id="a_Node000001"><a xlink:title=" ">
<polygon fill="#999999" stroke="#666666" points="325.88,-100 161.38,-100 161.38,-68 325.88,-68 325.88,-100"/>
<text text-anchor="start" x="169.38" y="-86.5" font-family="Helvetica,sans-Serif" font-size="10.00">FIEAGameEngine/include</text>
<text text-anchor="middle" x="243.62" y="-74.5" font-family="Helvetica,sans-Serif" font-size="10.00">/Content/Actions/DelayedAction.h</text>
</a>
</g>
</g>
<!-- Node2 -->
<g id="Node000002" class="node">
<title>Node2</title>
<g id="a_Node000002"><a xlink:href="_delayed_action_8cpp.html" target="_top" xlink:title=" ">
<polygon fill="white" stroke="#666666" points="171.25,-32 0,-32 0,0 171.25,0 171.25,-32"/>
<text text-anchor="start" x="8" y="-18.5" font-family="Helvetica,sans-Serif" font-size="10.00">FIEAGameEngine/src</text>
<text text-anchor="middle" x="85.62" y="-6.5" font-family="Helvetica,sans-Serif" font-size="10.00">/content/actions/DelayedAction.cpp</text>
</a>
</g>
</g>
<!-- Node1&#45;&gt;Node2 -->
<g id="edge1_Node000001_Node000002" class="edge">
<title>Node1&#45;&gt;Node2</title>
<g id="a_edge1_Node000001_Node000002"><a xlink:title=" ">
<path fill="none" stroke="#63b8ff" d="M196.13,-63.16C172.6,-53.33 144.63,-41.65 122.71,-32.49"/>
<polygon fill="#63b8ff" stroke="#63b8ff" points="194.61,-66.32 205.18,-66.94 197.31,-59.86 194.61,-66.32"/>
</a>
</g>
</g>
<!-- Node3 -->
<g id="Node000003" class="node">
<title>Node3</title>
<g id="a_Node000003"><a xlink:href="_action_test_8cpp.html" target="_top" xlink:title=" ">
<polygon fill="white" stroke="#666666" points="297.75,-26 189.5,-26 189.5,-6 297.75,-6 297.75,-26"/>
<text text-anchor="middle" x="243.62" y="-12.5" font-family="Helvetica,sans-Serif" font-size="10.00">Tests/ActionTest.cpp</text>
</a>
</g>
</g>
<!-- Node1&#45;&gt;Node3 -->
<g id="edge2_Node000001_Node000003" class="edge">
<title>Node1&#45;&gt;Node3</title>
<g id="a_edge2_Node000001_Node000003"><a xlink:title=" ">
<path fill="none" stroke="#63b8ff" d="M243.62,-56.31C243.62,-45.67 243.62,-34.13 243.62,-26.32"/>
<polygon fill="#63b8ff" stroke="#63b8ff" points="240.13,-56.18 243.63,-66.18 247.13,-56.18 240.13,-56.18"/>
</a>
</g>
</g>
<!-- Node4 -->
<g id="Node000004" class="node">
<title>Node4</title>
<g id="a_Node000004"><a xlink:href="_serialization_tests_8cpp.html" target="_top" xlink:title=" ">
<polygon fill="white" stroke="#666666" points="455.12,-26 316.12,-26 316.12,-6 455.12,-6 455.12,-26"/>
<text text-anchor="middle" x="385.62" y="-12.5" font-family="Helvetica,sans-Serif" font-size="10.00">Tests/SerializationTests.cpp</text>
</a>
</g>
</g>
<!-- Node1&#45;&gt;Node4 -->
<g id="edge3_Node000001_Node000004" class="edge">
<title>Node1&#45;&gt;Node4</title>
<g id="a_edge3_Node000001_Node000004"><a xlink:title=" ">
<path fill="none" stroke="#63b8ff" d="M287.28,-62.71C313.26,-50.63 345.01,-35.88 365.27,-26.46"/>
<polygon fill="#63b8ff" stroke="#63b8ff" points="285.88,-59.5 278.29,-66.89 288.83,-65.85 285.88,-59.5"/>
</a>
</g>
</g>
</g>
</svg>
