<?xml version="1.0" encoding="UTF-8" standalone="no"?>
<!DOCTYPE svg PUBLIC "-//W3C//DTD SVG 1.1//EN"
 "http://www.w3.org/Graphics/SVG/1.1/DTD/svg11.dtd">
<!-- Generated by graphviz version 12.2.1 (20241206.2353)
 -->
<!-- Title: Tests/Support/Empty.h Pages: 1 -->
<svg width="382pt" height="84pt"
 viewBox="0.00 0.00 382.00 84.00" xmlns="http://www.w3.org/2000/svg" xmlns:xlink="http://www.w3.org/1999/xlink">
<g id="graph0" class="graph" transform="scale(1 1) rotate(0) translate(4 80)">
<title>Tests/Support/Empty.h</title>
<!-- Node1 -->
<g id="Node000001" class="node">
<title>Node1</title>
<g id="a_Node000001"><a xlink:title=" ">
<polygon fill="#999999" stroke="#666666" points="236.75,-76 121,-76 121,-56 236.75,-56 236.75,-76"/>
<text text-anchor="middle" x="178.88" y="-62.5" font-family="Helvetica,sans-Serif" font-size="10.00">Tests/Support/Empty.h</text>
</a>
</g>
</g>
<!-- Node2 -->
<g id="Node000002" class="node">
<title>Node2</title>
<g id="a_Node000002"><a xlink:href="_datum_test_8cpp.html" target="_top" xlink:title=" ">
<polygon fill="white" stroke="#666666" points="109.75,-20 0,-20 0,0 109.75,0 109.75,-20"/>
<text text-anchor="middle" x="54.88" y="-6.5" font-family="Helvetica,sans-Serif" font-size="10.00">Tests/DatumTest.cpp</text>
</a>
</g>
</g>
<!-- Node1&#45;&gt;Node2 -->
<g id="edge1_Node000001_Node000002" class="edge">
<title>Node1&#45;&gt;Node2</title>
<g id="a_edge1_Node000001_Node000002"><a xlink:title=" ">
<path fill="none" stroke="#63b8ff" d="M146.75,-51.01C124.71,-41.41 96.05,-28.93 76.64,-20.48"/>
<polygon fill="#63b8ff" stroke="#63b8ff" points="145.32,-54.21 155.89,-54.99 148.12,-47.79 145.32,-54.21"/>
</a>
</g>
</g>
<!-- Node3 -->
<g id="Node000003" class="node">
<title>Node3</title>
<g id="a_Node000003"><a xlink:href="_r_t_t_i_test_8cpp.html" target="_top" xlink:title=" ">
<polygon fill="white" stroke="#666666" points="230,-20 127.75,-20 127.75,0 230,0 230,-20"/>
<text text-anchor="middle" x="178.88" y="-6.5" font-family="Helvetica,sans-Serif" font-size="10.00">Tests/RTTITest.cpp</text>
</a>
</g>
</g>
<!-- Node1&#45;&gt;Node3 -->
<g id="edge2_Node000001_Node000003" class="edge">
<title>Node1&#45;&gt;Node3</title>
<g id="a_edge2_Node000001_Node000003"><a xlink:title=" ">
<path fill="none" stroke="#63b8ff" d="M178.88,-44.13C178.88,-35.9 178.88,-26.85 178.88,-20.3"/>
<polygon fill="#63b8ff" stroke="#63b8ff" points="175.38,-44.08 178.88,-54.08 182.38,-44.08 175.38,-44.08"/>
</a>
</g>
</g>
<!-- Node4 -->
<g id="Node000004" class="node">
<title>Node4</title>
<g id="a_Node000004"><a xlink:href="_empty_8cpp.html" target="_top" xlink:title=" ">
<polygon fill="white" stroke="#666666" points="374,-20 247.75,-20 247.75,0 374,0 374,-20"/>
<text text-anchor="middle" x="310.88" y="-6.5" font-family="Helvetica,sans-Serif" font-size="10.00">Tests/Support/Empty.cpp</text>
</a>
</g>
</g>
<!-- Node1&#45;&gt;Node4 -->
<g id="edge3_Node000001_Node000004" class="edge">
<title>Node1&#45;&gt;Node4</title>
<g id="a_edge3_Node000001_Node000004"><a xlink:title=" ">
<path fill="none" stroke="#63b8ff" d="M212.43,-51.27C235.98,-41.64 266.86,-29.01 287.7,-20.48"/>
<polygon fill="#63b8ff" stroke="#63b8ff" points="211.2,-48 203.27,-55.02 213.85,-54.47 211.2,-48"/>
</a>
</g>
</g>
</g>
</svg>
