<?xml version="1.0" encoding="UTF-8" standalone="no"?>
<!DOCTYPE svg PUBLIC "-//W3C//DTD SVG 1.1//EN"
 "http://www.w3.org/Graphics/SVG/1.1/DTD/svg11.dtd">
<!-- Generated by graphviz version 12.2.1 (20241206.2353)
 -->
<!-- Title: Tests/Support/Empty.h Pages: 1 -->
<svg width="645pt" height="196pt"
 viewBox="0.00 0.00 645.25 196.00" xmlns="http://www.w3.org/2000/svg" xmlns:xlink="http://www.w3.org/1999/xlink">
<g id="graph0" class="graph" transform="scale(1 1) rotate(0) translate(4 192)">
<title>Tests/Support/Empty.h</title>
<!-- Node1 -->
<g id="Node000001" class="node">
<title>Node1</title>
<g id="a_Node000001"><a xlink:title=" ">
<polygon fill="#999999" stroke="#666666" points="270.88,-188 155.12,-188 155.12,-168 270.88,-168 270.88,-188"/>
<text text-anchor="middle" x="213" y="-174.5" font-family="Helvetica,sans-Serif" font-size="10.00">Tests/Support/Empty.h</text>
</a>
</g>
</g>
<!-- Node2 -->
<g id="Node000002" class="node">
<title>Node2</title>
<g id="a_Node000002"><a xlink:href="_types_8h.html" target="_top" xlink:title=" ">
<polygon fill="white" stroke="#666666" points="277.25,-76 148.75,-76 148.75,-56 277.25,-56 277.25,-76"/>
<text text-anchor="middle" x="213" y="-62.5" font-family="Helvetica,sans-Serif" font-size="10.00">FieaGameEngine/Types.h</text>
</a>
</g>
</g>
<!-- Node1&#45;&gt;Node2 -->
<g id="edge1_Node000001_Node000002" class="edge">
<title>Node1&#45;&gt;Node2</title>
<g id="a_edge1_Node000001_Node000002"><a xlink:title=" ">
<path fill="none" stroke="#63b8ff" d="M213,-167.62C213,-150.01 213,-111.59 213,-87.65"/>
<polygon fill="#63b8ff" stroke="#63b8ff" points="216.5,-87.87 213,-77.87 209.5,-87.87 216.5,-87.87"/>
</a>
</g>
</g>
<!-- Node8 -->
<g id="Node000008" class="node">
<title>Node8</title>
<g id="a_Node000008"><a xlink:title=" ">
<polygon fill="#e0e0e0" stroke="#999999" points="40,-20 0,-20 0,0 40,0 40,-20"/>
<text text-anchor="middle" x="20" y="-6.5" font-family="Helvetica,sans-Serif" font-size="10.00">string</text>
</a>
</g>
</g>
<!-- Node1&#45;&gt;Node8 -->
<g id="edge14_Node000001_Node000008" class="edge">
<title>Node1&#45;&gt;Node8</title>
<g id="a_edge14_Node000001_Node000008"><a xlink:title=" ">
<path fill="none" stroke="#63b8ff" d="M202.07,-167.6C170.62,-140.55 79.59,-62.26 39.43,-27.71"/>
<polygon fill="#63b8ff" stroke="#63b8ff" points="41.82,-25.15 31.96,-21.28 37.26,-30.46 41.82,-25.15"/>
</a>
</g>
</g>
<!-- Node11 -->
<g id="Node000011" class="node">
<title>Node11</title>
<g id="a_Node000011"><a xlink:href="_r_t_t_i_8h.html" target="_top" xlink:title=" ">
<polygon fill="white" stroke="#666666" points="395.88,-132 268.12,-132 268.12,-112 395.88,-112 395.88,-132"/>
<text text-anchor="middle" x="332" y="-118.5" font-family="Helvetica,sans-Serif" font-size="10.00">FIEAGameEngine/RTTI.h</text>
</a>
</g>
</g>
<!-- Node1&#45;&gt;Node11 -->
<g id="edge10_Node000001_Node000011" class="edge">
<title>Node1&#45;&gt;Node11</title>
<g id="a_edge10_Node000001_Node000011"><a xlink:title=" ">
<path fill="none" stroke="#63b8ff" d="M233.73,-167.59C252.21,-159.21 279.54,-146.8 300.69,-137.21"/>
<polygon fill="#63b8ff" stroke="#63b8ff" points="302.07,-140.42 309.73,-133.1 299.18,-134.05 302.07,-140.42"/>
</a>
</g>
</g>
<!-- Node3 -->
<g id="Node000003" class="node">
<title>Node3</title>
<g id="a_Node000003"><a xlink:title=" ">
<polygon fill="#e0e0e0" stroke="#999999" points="637.25,-20 574.75,-20 574.75,0 637.25,0 637.25,-20"/>
<text text-anchor="middle" x="606" y="-6.5" font-family="Helvetica,sans-Serif" font-size="10.00">windows.h</text>
</a>
</g>
</g>
<!-- Node2&#45;&gt;Node3 -->
<g id="edge2_Node000002_Node000003" class="edge">
<title>Node2&#45;&gt;Node3</title>
<g id="a_edge2_Node000002_Node000003"><a xlink:title=" ">
<path fill="none" stroke="#63b8ff" d="M277.49,-57.11C364.04,-46.48 512.08,-28.12 563.49,-20.18"/>
<polygon fill="#63b8ff" stroke="#63b8ff" points="563.82,-23.67 573.12,-18.6 562.69,-16.77 563.82,-23.67"/>
</a>
</g>
</g>
<!-- Node4 -->
<g id="Node000004" class="node">
<title>Node4</title>
<g id="a_Node000004"><a xlink:title=" ">
<polygon fill="#e0e0e0" stroke="#999999" points="106.12,-20 57.88,-20 57.88,0 106.12,0 106.12,-20"/>
<text text-anchor="middle" x="82" y="-6.5" font-family="Helvetica,sans-Serif" font-size="10.00">cassert</text>
</a>
</g>
</g>
<!-- Node2&#45;&gt;Node4 -->
<g id="edge3_Node000002_Node000004" class="edge">
<title>Node2&#45;&gt;Node4</title>
<g id="a_edge3_Node000002_Node000004"><a xlink:title=" ">
<path fill="none" stroke="#63b8ff" d="M190.18,-55.59C169.55,-47.09 138.92,-34.46 115.51,-24.81"/>
<polygon fill="#63b8ff" stroke="#63b8ff" points="116.98,-21.63 106.4,-21.06 114.31,-28.1 116.98,-21.63"/>
</a>
</g>
</g>
<!-- Node5 -->
<g id="Node000005" class="node">
<title>Node5</title>
<g id="a_Node000005"><a xlink:title=" ">
<polygon fill="#e0e0e0" stroke="#999999" points="172.12,-20 123.88,-20 123.88,0 172.12,0 172.12,-20"/>
<text text-anchor="middle" x="148" y="-6.5" font-family="Helvetica,sans-Serif" font-size="10.00">cstddef</text>
</a>
</g>
</g>
<!-- Node2&#45;&gt;Node5 -->
<g id="edge4_Node000002_Node000005" class="edge">
<title>Node2&#45;&gt;Node5</title>
<g id="a_edge4_Node000002_Node000005"><a xlink:title=" ">
<path fill="none" stroke="#63b8ff" d="M201.68,-55.59C192.36,-47.85 178.92,-36.69 167.82,-27.47"/>
<polygon fill="#63b8ff" stroke="#63b8ff" points="170.29,-24.96 160.36,-21.27 165.81,-30.35 170.29,-24.96"/>
</a>
</g>
</g>
<!-- Node6 -->
<g id="Node000006" class="node">
<title>Node6</title>
<g id="a_Node000006"><a xlink:title=" ">
<polygon fill="#e0e0e0" stroke="#999999" points="235.62,-20 190.38,-20 190.38,0 235.62,0 235.62,-20"/>
<text text-anchor="middle" x="213" y="-6.5" font-family="Helvetica,sans-Serif" font-size="10.00">cstdint</text>
</a>
</g>
</g>
<!-- Node2&#45;&gt;Node6 -->
<g id="edge5_Node000002_Node000006" class="edge">
<title>Node2&#45;&gt;Node6</title>
<g id="a_edge5_Node000002_Node000006"><a xlink:title=" ">
<path fill="none" stroke="#63b8ff" d="M213,-55.59C213,-49.01 213,-39.96 213,-31.73"/>
<polygon fill="#63b8ff" stroke="#63b8ff" points="216.5,-31.81 213,-21.81 209.5,-31.81 216.5,-31.81"/>
</a>
</g>
</g>
<!-- Node7 -->
<g id="Node000007" class="node">
<title>Node7</title>
<g id="a_Node000007"><a xlink:title=" ">
<polygon fill="#e0e0e0" stroke="#999999" points="306.38,-20 253.62,-20 253.62,0 306.38,0 306.38,-20"/>
<text text-anchor="middle" x="280" y="-6.5" font-family="Helvetica,sans-Serif" font-size="10.00">cstdbool</text>
</a>
</g>
</g>
<!-- Node2&#45;&gt;Node7 -->
<g id="edge6_Node000002_Node000007" class="edge">
<title>Node2&#45;&gt;Node7</title>
<g id="a_edge6_Node000002_Node000007"><a xlink:title=" ">
<path fill="none" stroke="#63b8ff" d="M224.67,-55.59C234.28,-47.85 248.13,-36.69 259.57,-27.47"/>
<polygon fill="#63b8ff" stroke="#63b8ff" points="261.7,-30.25 267.28,-21.25 257.3,-24.8 261.7,-30.25"/>
</a>
</g>
</g>
<!-- Node2&#45;&gt;Node8 -->
<g id="edge7_Node000002_Node000008" class="edge">
<title>Node2&#45;&gt;Node8</title>
<g id="a_edge7_Node000002_Node000008"><a xlink:title=" ">
<path fill="none" stroke="#63b8ff" d="M177.07,-55.51C146.06,-47.23 99.8,-34.7 51.03,-20.53"/>
<polygon fill="#63b8ff" stroke="#63b8ff" points="52.29,-17.25 41.71,-17.8 50.33,-23.97 52.29,-17.25"/>
</a>
</g>
</g>
<!-- Node9 -->
<g id="Node000009" class="node">
<title>Node9</title>
<g id="a_Node000009"><a xlink:title=" ">
<polygon fill="#e0e0e0" stroke="#999999" points="379.12,-20 324.88,-20 324.88,0 379.12,0 379.12,-20"/>
<text text-anchor="middle" x="352" y="-6.5" font-family="Helvetica,sans-Serif" font-size="10.00">crtdefs.h</text>
</a>
</g>
</g>
<!-- Node2&#45;&gt;Node9 -->
<g id="edge8_Node000002_Node000009" class="edge">
<title>Node2&#45;&gt;Node9</title>
<g id="a_edge8_Node000002_Node000009"><a xlink:title=" ">
<path fill="none" stroke="#63b8ff" d="M237.21,-55.59C259.3,-47.01 292.2,-34.23 317.12,-24.55"/>
<polygon fill="#63b8ff" stroke="#63b8ff" points="318.13,-27.91 326.19,-21.03 315.6,-21.39 318.13,-27.91"/>
</a>
</g>
</g>
<!-- Node10 -->
<g id="Node000010" class="node">
<title>Node10</title>
<g id="a_Node000010"><a xlink:title=" ">
<polygon fill="#e0e0e0" stroke="#999999" points="557,-20 397,-20 397,0 557,0 557,-20"/>
<text text-anchor="middle" x="477" y="-6.5" font-family="Helvetica,sans-Serif" font-size="10.00">../src/memory/SystemAllocator.h</text>
</a>
</g>
</g>
<!-- Node2&#45;&gt;Node10 -->
<g id="edge9_Node000002_Node000010" class="edge">
<title>Node2&#45;&gt;Node10</title>
<g id="a_edge9_Node000002_Node000010"><a xlink:title=" ">
<path fill="none" stroke="#63b8ff" d="M259.29,-55.53C303.92,-46.4 371.58,-32.56 419.61,-22.74"/>
<polygon fill="#63b8ff" stroke="#63b8ff" points="420.19,-26.19 429.28,-20.76 418.78,-19.34 420.19,-26.19"/>
</a>
</g>
</g>
<!-- Node11&#45;&gt;Node2 -->
<g id="edge11_Node000011_Node000002" class="edge">
<title>Node11&#45;&gt;Node2</title>
<g id="a_edge11_Node000011_Node000002"><a xlink:title=" ">
<path fill="none" stroke="#63b8ff" d="M311.27,-111.59C292.79,-103.21 265.46,-90.8 244.31,-81.21"/>
<polygon fill="#63b8ff" stroke="#63b8ff" points="245.82,-78.05 235.27,-77.1 242.93,-84.42 245.82,-78.05"/>
</a>
</g>
</g>
<!-- Node12 -->
<g id="Node000012" class="node">
<title>Node12</title>
<g id="a_Node000012"><a xlink:href="_r_t_t_i_8inl.html" target="_top" xlink:title=" ">
<polygon fill="white" stroke="#666666" points="424.25,-76 295.75,-76 295.75,-56 424.25,-56 424.25,-76"/>
<text text-anchor="middle" x="360" y="-62.5" font-family="Helvetica,sans-Serif" font-size="10.00">FieaGameEngine/RTTI.inl</text>
</a>
</g>
</g>
<!-- Node11&#45;&gt;Node12 -->
<g id="edge12_Node000011_Node000012" class="edge">
<title>Node11&#45;&gt;Node12</title>
<g id="a_edge12_Node000011_Node000012"><a xlink:title=" ">
<path fill="none" stroke="#63b8ff" d="M331.61,-111.59C333.88,-104.47 338.67,-94.45 343.84,-85.72"/>
<polygon fill="#63b8ff" stroke="#63b8ff" points="346.61,-87.87 349.11,-77.57 340.74,-84.06 346.61,-87.87"/>
</a>
</g>
</g>
<!-- Node12&#45;&gt;Node11 -->
<g id="edge13_Node000012_Node000011" class="edge">
<title>Node12&#45;&gt;Node11</title>
<g id="a_edge13_Node000012_Node000011"><a xlink:title=" ">
<path fill="none" stroke="#63b8ff" d="M360.42,-76.3C358.18,-83.39 353.4,-93.4 348.24,-102.15"/>
<polygon fill="#63b8ff" stroke="#63b8ff" points="345.45,-100.02 342.97,-110.32 351.33,-103.82 345.45,-100.02"/>
</a>
</g>
</g>
</g>
</svg>
