<?xml version="1.0" encoding="UTF-8" standalone="no"?>
<!DOCTYPE svg PUBLIC "-//W3C//DTD SVG 1.1//EN"
 "http://www.w3.org/Graphics/SVG/1.1/DTD/svg11.dtd">
<!-- Generated by graphviz version 12.2.1 (20241206.2353)
 -->
<!-- Title: FIEAGameEngine/include/FIEAGameEngine/FactoryService.h Pages: 1 -->
<svg width="1784pt" height="380pt"
 viewBox="0.00 0.00 1783.62 380.00" xmlns="http://www.w3.org/2000/svg" xmlns:xlink="http://www.w3.org/1999/xlink">
<g id="graph0" class="graph" transform="scale(1 1) rotate(0) translate(4 376)">
<title>FIEAGameEngine/include/FIEAGameEngine/FactoryService.h</title>
<!-- Node1 -->
<g id="Node000001" class="node">
<title>Node1</title>
<g id="a_Node000001"><a xlink:title=" ">
<polygon fill="#999999" stroke="#666666" points="777.88,-372 602.88,-372 602.88,-340 777.88,-340 777.88,-372"/>
<text text-anchor="start" x="610.88" y="-358.5" font-family="Helvetica,sans-Serif" font-size="10.00">FIEAGameEngine/include</text>
<text text-anchor="middle" x="690.38" y="-346.5" font-family="Helvetica,sans-Serif" font-size="10.00">/FIEAGameEngine/FactoryService.h</text>
</a>
</g>
</g>
<!-- Node2 -->
<g id="Node000002" class="node">
<title>Node2</title>
<g id="a_Node000002"><a xlink:href="_scope_8h.html" target="_top" xlink:title=" ">
<polygon fill="white" stroke="#666666" points="662.62,-304 534.12,-304 534.12,-272 662.62,-272 662.62,-304"/>
<text text-anchor="start" x="542.12" y="-290.5" font-family="Helvetica,sans-Serif" font-size="10.00">FIEAGameEngine/include</text>
<text text-anchor="middle" x="598.38" y="-278.5" font-family="Helvetica,sans-Serif" font-size="10.00">/Content/Scope.h</text>
</a>
</g>
</g>
<!-- Node1&#45;&gt;Node2 -->
<g id="edge1_Node000001_Node000002" class="edge">
<title>Node1&#45;&gt;Node2</title>
<g id="a_edge1_Node000001_Node000002"><a xlink:title=" ">
<path fill="none" stroke="#63b8ff" d="M659.91,-333.15C646.82,-323.75 631.83,-313 619.92,-304.45"/>
<polygon fill="#63b8ff" stroke="#63b8ff" points="657.64,-335.82 667.81,-338.81 661.72,-330.14 657.64,-335.82"/>
</a>
</g>
</g>
<!-- Node26 -->
<g id="Node000026" class="node">
<title>Node26</title>
<g id="a_Node000026"><a xlink:href="_factory_tests_8cpp.html" target="_top" xlink:title=" ">
<polygon fill="white" stroke="#666666" points="118.75,-26 0,-26 0,-6 118.75,-6 118.75,-26"/>
<text text-anchor="middle" x="59.38" y="-12.5" font-family="Helvetica,sans-Serif" font-size="10.00">Tests/FactoryTests.cpp</text>
</a>
</g>
</g>
<!-- Node1&#45;&gt;Node26 -->
<g id="edge48_Node000001_Node000026" class="edge">
<title>Node1&#45;&gt;Node26</title>
<g id="a_edge48_Node000001_Node000026"><a xlink:title=" ">
<path fill="none" stroke="#63b8ff" d="M590.92,-354.84C408.83,-351.83 40.38,-332.04 40.38,-221 40.38,-221 40.38,-221 40.38,-151 40.38,-103.77 52.09,-48.1 57.12,-26.36"/>
<polygon fill="#63b8ff" stroke="#63b8ff" points="590.81,-358.34 600.86,-354.99 590.92,-351.34 590.81,-358.34"/>
</a>
</g>
</g>
<!-- Node9 -->
<g id="Node000009" class="node">
<title>Node9</title>
<g id="a_Node000009"><a xlink:href="_serialization_tests_8cpp.html" target="_top" xlink:title=" ">
<polygon fill="white" stroke="#666666" points="351.88,-26 212.88,-26 212.88,-6 351.88,-6 351.88,-26"/>
<text text-anchor="middle" x="282.38" y="-12.5" font-family="Helvetica,sans-Serif" font-size="10.00">Tests/SerializationTests.cpp</text>
</a>
</g>
</g>
<!-- Node1&#45;&gt;Node9 -->
<g id="edge49_Node000001_Node000009" class="edge">
<title>Node1&#45;&gt;Node9</title>
<g id="a_edge49_Node000001_Node000009"><a xlink:title=" ">
<path fill="none" stroke="#63b8ff" d="M695.51,-328.55C700.37,-294.96 702.86,-237.38 671.38,-204 611.2,-140.21 557.4,-203.85 477.38,-168 456.32,-158.57 332.53,-58.01 293.89,-26.43"/>
<polygon fill="#63b8ff" stroke="#63b8ff" points="692.09,-327.82 693.92,-338.26 698.99,-328.95 692.09,-327.82"/>
</a>
</g>
</g>
<!-- Node33 -->
<g id="Node000033" class="node">
<title>Node33</title>
<g id="a_Node000033"><a xlink:href="_attribute_box_8h.html" target="_top" xlink:title=" ">
<polygon fill="white" stroke="#666666" points="1151.38,-162 1009.38,-162 1009.38,-142 1151.38,-142 1151.38,-162"/>
<text text-anchor="middle" x="1080.38" y="-148.5" font-family="Helvetica,sans-Serif" font-size="10.00">Tests/Support/AttributeBox.h</text>
</a>
</g>
</g>
<!-- Node1&#45;&gt;Node33 -->
<g id="edge50_Node000001_Node000033" class="edge">
<title>Node1&#45;&gt;Node33</title>
<g id="a_edge50_Node000001_Node000033"><a xlink:title=" ">
<path fill="none" stroke="#63b8ff" d="M789.47,-349.59C873.7,-339.58 991.73,-311.86 1061.38,-236 1080.47,-215.2 1081.65,-179.24 1081.02,-162.31"/>
<polygon fill="#63b8ff" stroke="#63b8ff" points="789.13,-346.1 779.58,-350.69 789.91,-353.06 789.13,-346.1"/>
</a>
</g>
</g>
<!-- Node39 -->
<g id="Node000039" class="node">
<title>Node39</title>
<g id="a_Node000039"><a xlink:href="_factory_service_8cpp.html" target="_top" xlink:title=" ">
<polygon fill="white" stroke="#666666" points="1220,-236 1108.75,-236 1108.75,-204 1220,-204 1220,-236"/>
<text text-anchor="start" x="1116.75" y="-222.5" font-family="Helvetica,sans-Serif" font-size="10.00">FIEAGameEngine/src</text>
<text text-anchor="middle" x="1164.38" y="-210.5" font-family="Helvetica,sans-Serif" font-size="10.00">/FactoryService.cpp</text>
</a>
</g>
</g>
<!-- Node1&#45;&gt;Node39 -->
<g id="edge46_Node000001_Node000039" class="edge">
<title>Node1&#45;&gt;Node39</title>
<g id="a_edge46_Node000001_Node000039"><a xlink:title=" ">
<path fill="none" stroke="#63b8ff" d="M789.49,-350.71C891.78,-344.84 1043.41,-331.7 1094.38,-304 1123.19,-288.34 1145.17,-255.62 1156.3,-236.27"/>
<polygon fill="#63b8ff" stroke="#63b8ff" points="789.5,-347.2 779.71,-351.26 789.89,-354.19 789.5,-347.2"/>
</a>
</g>
</g>
<!-- Node48 -->
<g id="Node000048" class="node">
<title>Node48</title>
<g id="a_Node000048"><a xlink:href="_scope_writer_8cpp.html" target="_top" xlink:title=" ">
<polygon fill="white" stroke="#666666" points="1635.5,-32 1509.25,-32 1509.25,0 1635.5,0 1635.5,-32"/>
<text text-anchor="start" x="1517.25" y="-18.5" font-family="Helvetica,sans-Serif" font-size="10.00">FIEAGameEngine/src</text>
<text text-anchor="middle" x="1572.38" y="-6.5" font-family="Helvetica,sans-Serif" font-size="10.00">/content/ScopeWriter.cpp</text>
</a>
</g>
</g>
<!-- Node1&#45;&gt;Node48 -->
<g id="edge47_Node000001_Node000048" class="edge">
<title>Node1&#45;&gt;Node48</title>
<g id="a_edge47_Node000001_Node000048"><a xlink:title=" ">
<path fill="none" stroke="#63b8ff" d="M789.61,-349.67C1014.66,-336.26 1544.38,-296.65 1544.38,-221 1544.38,-221 1544.38,-221 1544.38,-151 1544.38,-107.27 1558.84,-57.18 1566.98,-32.46"/>
<polygon fill="#63b8ff" stroke="#63b8ff" points="789.44,-346.17 779.66,-350.26 789.85,-353.16 789.44,-346.17"/>
</a>
</g>
</g>
<!-- Node55 -->
<g id="Node000055" class="node">
<title>Node55</title>
<g id="a_Node000055"><a xlink:href="_scoped_foo_8h.html" target="_top" xlink:title=" ">
<polygon fill="white" stroke="#666666" points="246.12,-230 108.62,-230 108.62,-210 246.12,-210 246.12,-230"/>
<text text-anchor="middle" x="177.38" y="-216.5" font-family="Helvetica,sans-Serif" font-size="10.00">Tests/Support/ScopedFoo.h</text>
</a>
</g>
</g>
<!-- Node1&#45;&gt;Node55 -->
<g id="edge51_Node000001_Node000055" class="edge">
<title>Node1&#45;&gt;Node55</title>
<g id="a_edge51_Node000001_Node000055"><a xlink:title=" ">
<path fill="none" stroke="#63b8ff" d="M620.23,-336.68C509.51,-307.76 298.12,-252.54 213.61,-230.46"/>
<polygon fill="#63b8ff" stroke="#63b8ff" points="619.25,-340.04 629.81,-339.18 621.02,-333.27 619.25,-340.04"/>
</a>
</g>
</g>
<!-- Node3 -->
<g id="Node000003" class="node">
<title>Node3</title>
<g id="a_Node000003"><a xlink:href="_attributed_8h.html" target="_top" xlink:title=" ">
<polygon fill="white" stroke="#666666" points="884.62,-236 756.12,-236 756.12,-204 884.62,-204 884.62,-236"/>
<text text-anchor="start" x="764.12" y="-222.5" font-family="Helvetica,sans-Serif" font-size="10.00">FIEAGameEngine/include</text>
<text text-anchor="middle" x="820.38" y="-210.5" font-family="Helvetica,sans-Serif" font-size="10.00">/Content/Attributed.h</text>
</a>
</g>
</g>
<!-- Node2&#45;&gt;Node3 -->
<g id="edge2_Node000002_Node000003" class="edge">
<title>Node2&#45;&gt;Node3</title>
<g id="a_edge2_Node000002_Node000003"><a xlink:title=" ">
<path fill="none" stroke="#63b8ff" d="M661.13,-268.34C694.96,-258.28 736.22,-246.02 768.27,-236.49"/>
<polygon fill="#63b8ff" stroke="#63b8ff" points="660.46,-264.89 651.87,-271.09 662.46,-271.6 660.46,-264.89"/>
</a>
</g>
</g>
<!-- Node2&#45;&gt;Node26 -->
<g id="edge37_Node000002_Node000026" class="edge">
<title>Node2&#45;&gt;Node26</title>
<g id="a_edge37_Node000002_Node000026"><a xlink:title=" ">
<path fill="none" stroke="#63b8ff" d="M522.46,-284.19C390.47,-278.6 129.79,-264.1 99.38,-236 67.94,-206.95 60.96,-64.22 59.65,-26.28"/>
<polygon fill="#63b8ff" stroke="#63b8ff" points="522.02,-287.68 532.15,-284.6 522.31,-280.69 522.02,-287.68"/>
</a>
</g>
</g>
<!-- Node2&#45;&gt;Node33 -->
<g id="edge40_Node000002_Node000033" class="edge">
<title>Node2&#45;&gt;Node33</title>
<g id="a_edge40_Node000002_Node000033"><a xlink:title=" ">
<path fill="none" stroke="#63b8ff" d="M674.3,-284.76C735.89,-280.43 823.62,-268.46 893.38,-236 913.39,-226.68 912.16,-214.87 931.38,-204 965.88,-184.48 1009.1,-170.71 1040.09,-162.44"/>
<polygon fill="#63b8ff" stroke="#63b8ff" points="674.38,-281.25 664.63,-285.38 674.83,-288.23 674.38,-281.25"/>
</a>
</g>
</g>
<!-- Node2&#45;&gt;Node39 -->
<g id="edge24_Node000002_Node000039" class="edge">
<title>Node2&#45;&gt;Node39</title>
<g id="a_edge24_Node000002_Node000039"><a xlink:title=" ">
<path fill="none" stroke="#63b8ff" d="M674.28,-279.46C766.07,-270.15 925.22,-253.41 1061.38,-236 1076.61,-234.05 1093.08,-231.74 1108.29,-229.53"/>
<polygon fill="#63b8ff" stroke="#63b8ff" points="673.98,-275.97 664.38,-280.46 674.68,-282.94 673.98,-275.97"/>
</a>
</g>
</g>
<!-- Node40 -->
<g id="Node000040" class="node">
<title>Node40</title>
<g id="a_Node000040"><a xlink:href="_datum_8cpp.html" target="_top" xlink:title=" ">
<polygon fill="white" stroke="#666666" points="1052,-236 940.75,-236 940.75,-204 1052,-204 1052,-236"/>
<text text-anchor="start" x="948.75" y="-222.5" font-family="Helvetica,sans-Serif" font-size="10.00">FIEAGameEngine/src</text>
<text text-anchor="middle" x="996.38" y="-210.5" font-family="Helvetica,sans-Serif" font-size="10.00">/content/Datum.cpp</text>
</a>
</g>
</g>
<!-- Node2&#45;&gt;Node40 -->
<g id="edge25_Node000002_Node000040" class="edge">
<title>Node2&#45;&gt;Node40</title>
<g id="a_edge25_Node000002_Node000040"><a xlink:title=" ">
<path fill="none" stroke="#63b8ff" d="M674.2,-276.46C740.81,-266.9 840.26,-251.91 926.38,-236 930.9,-235.16 935.57,-234.26 940.27,-233.32"/>
<polygon fill="#63b8ff" stroke="#63b8ff" points="673.88,-272.97 664.47,-277.85 674.87,-279.9 673.88,-272.97"/>
</a>
</g>
</g>
<!-- Node41 -->
<g id="Node000041" class="node">
<title>Node41</title>
<g id="a_Node000041"><a xlink:href="_scope_8cpp.html" target="_top" xlink:title=" ">
<polygon fill="white" stroke="#666666" points="414,-236 302.75,-236 302.75,-204 414,-204 414,-236"/>
<text text-anchor="start" x="310.75" y="-222.5" font-family="Helvetica,sans-Serif" font-size="10.00">FIEAGameEngine/src</text>
<text text-anchor="middle" x="358.38" y="-210.5" font-family="Helvetica,sans-Serif" font-size="10.00">/content/Scope.cpp</text>
</a>
</g>
</g>
<!-- Node2&#45;&gt;Node41 -->
<g id="edge26_Node000002_Node000041" class="edge">
<title>Node2&#45;&gt;Node41</title>
<g id="a_edge26_Node000002_Node000041"><a xlink:title=" ">
<path fill="none" stroke="#63b8ff" d="M531.44,-268.59C494.55,-258.45 449.28,-246 414.29,-236.38"/>
<polygon fill="#63b8ff" stroke="#63b8ff" points="530.08,-271.85 540.65,-271.12 531.93,-265.1 530.08,-271.85"/>
</a>
</g>
</g>
<!-- Node42 -->
<g id="Node000042" class="node">
<title>Node42</title>
<g id="a_Node000042"><a xlink:href="_scope_writer_8h.html" target="_top" xlink:title=" ">
<polygon fill="#fff0f0" stroke="red" points="958.25,-100 842.5,-100 842.5,-68 958.25,-68 958.25,-100"/>
<text text-anchor="start" x="850.5" y="-86.5" font-family="Helvetica,sans-Serif" font-size="10.00">FIEAGameEngine/src</text>
<text text-anchor="middle" x="900.38" y="-74.5" font-family="Helvetica,sans-Serif" font-size="10.00">/content/ScopeWriter.h</text>
</a>
</g>
</g>
<!-- Node2&#45;&gt;Node42 -->
<g id="edge27_Node000002_Node000042" class="edge">
<title>Node2&#45;&gt;Node42</title>
<g id="a_edge27_Node000002_Node000042"><a xlink:title=" ">
<path fill="none" stroke="#63b8ff" d="M631.21,-265.2C643.97,-256.43 658.58,-246.03 671.38,-236 724.41,-194.42 728.59,-172.3 785.38,-136 807.83,-121.65 835,-109.39 857.29,-100.5"/>
<polygon fill="#63b8ff" stroke="#63b8ff" points="629.41,-262.19 623.11,-270.71 633.35,-267.98 629.41,-262.19"/>
</a>
</g>
</g>
<!-- Node52 -->
<g id="Node000052" class="node">
<title>Node52</title>
<g id="a_Node000052"><a xlink:href="_datum_test_8cpp.html" target="_top" xlink:title=" ">
<polygon fill="white" stroke="#666666" points="542.25,-230 432.5,-230 432.5,-210 542.25,-210 542.25,-230"/>
<text text-anchor="middle" x="487.38" y="-216.5" font-family="Helvetica,sans-Serif" font-size="10.00">Tests/DatumTest.cpp</text>
</a>
</g>
</g>
<!-- Node2&#45;&gt;Node52 -->
<g id="edge36_Node000002_Node000052" class="edge">
<title>Node2&#45;&gt;Node52</title>
<g id="a_edge36_Node000002_Node000052"><a xlink:title=" ">
<path fill="none" stroke="#63b8ff" d="M562.61,-265.74C542.62,-253.85 518.7,-239.63 503.29,-230.46"/>
<polygon fill="#63b8ff" stroke="#63b8ff" points="560.67,-268.65 571.05,-270.75 564.24,-262.63 560.67,-268.65"/>
</a>
</g>
</g>
<!-- Node53 -->
<g id="Node000053" class="node">
<title>Node53</title>
<g id="a_Node000053"><a xlink:href="_r_t_t_i_test_8cpp.html" target="_top" xlink:title=" ">
<polygon fill="white" stroke="#666666" points="662.5,-230 560.25,-230 560.25,-210 662.5,-210 662.5,-230"/>
<text text-anchor="middle" x="611.38" y="-216.5" font-family="Helvetica,sans-Serif" font-size="10.00">Tests/RTTITest.cpp</text>
</a>
</g>
</g>
<!-- Node2&#45;&gt;Node53 -->
<g id="edge38_Node000002_Node000053" class="edge">
<title>Node2&#45;&gt;Node53</title>
<g id="a_edge38_Node000002_Node000053"><a xlink:title=" ">
<path fill="none" stroke="#63b8ff" d="M603.56,-260.66C605.68,-249.92 607.99,-238.21 609.54,-230.32"/>
<polygon fill="#63b8ff" stroke="#63b8ff" points="600.18,-259.72 601.68,-270.21 607.05,-261.07 600.18,-259.72"/>
</a>
</g>
</g>
<!-- Node54 -->
<g id="Node000054" class="node">
<title>Node54</title>
<g id="a_Node000054"><a xlink:href="_scope_test_8cpp.html" target="_top" xlink:title=" ">
<polygon fill="white" stroke="#666666" points="418.5,-162 310.25,-162 310.25,-142 418.5,-142 418.5,-162"/>
<text text-anchor="middle" x="364.38" y="-148.5" font-family="Helvetica,sans-Serif" font-size="10.00">Tests/ScopeTest.cpp</text>
</a>
</g>
</g>
<!-- Node2&#45;&gt;Node54 -->
<g id="edge39_Node000002_Node000054" class="edge">
<title>Node2&#45;&gt;Node54</title>
<g id="a_edge39_Node000002_Node000054"><a xlink:title=" ">
<path fill="none" stroke="#63b8ff" d="M522.73,-285.14C442.13,-281.38 322.2,-270.05 293.38,-236 270.71,-209.23 317.88,-177.8 345.79,-162.43"/>
<polygon fill="#63b8ff" stroke="#63b8ff" points="522.18,-288.62 532.32,-285.56 522.48,-281.63 522.18,-288.62"/>
</a>
</g>
</g>
<!-- Node2&#45;&gt;Node55 -->
<g id="edge41_Node000002_Node000055" class="edge">
<title>Node2&#45;&gt;Node55</title>
<g id="a_edge41_Node000002_Node000055"><a xlink:title=" ">
<path fill="none" stroke="#63b8ff" d="M522.69,-276.22C454.12,-266.3 350.36,-250.92 260.38,-236 249.97,-234.28 238.86,-232.33 228.25,-230.44"/>
<polygon fill="#63b8ff" stroke="#63b8ff" points="521.91,-279.65 532.31,-277.61 522.91,-272.72 521.91,-279.65"/>
</a>
</g>
</g>
<!-- Node4 -->
<g id="Node000004" class="node">
<title>Node4</title>
<g id="a_Node000004"><a xlink:href="_action_8h.html" target="_top" xlink:title=" ">
<polygon fill="#fff0f0" stroke="red" points="922.62,-168 794.12,-168 794.12,-136 922.62,-136 922.62,-168"/>
<text text-anchor="start" x="802.12" y="-154.5" font-family="Helvetica,sans-Serif" font-size="10.00">FIEAGameEngine/include</text>
<text text-anchor="middle" x="858.38" y="-142.5" font-family="Helvetica,sans-Serif" font-size="10.00">/Content/Actions/Action.h</text>
</a>
</g>
</g>
<!-- Node3&#45;&gt;Node4 -->
<g id="edge3_Node000003_Node000004" class="edge">
<title>Node3&#45;&gt;Node4</title>
<g id="a_edge3_Node000003_Node000004"><a xlink:title=" ">
<path fill="none" stroke="#63b8ff" d="M834.92,-193.74C839.87,-185.14 845.25,-175.79 849.61,-168.22"/>
<polygon fill="#63b8ff" stroke="#63b8ff" points="831.9,-191.97 829.94,-202.38 837.97,-195.46 831.9,-191.97"/>
</a>
</g>
</g>
<!-- Node23 -->
<g id="Node000023" class="node">
<title>Node23</title>
<g id="a_Node000023"><a xlink:href="_game_object_8h.html" target="_top" xlink:title=" ">
<polygon fill="#fff0f0" stroke="red" points="824.62,-100 696.12,-100 696.12,-68 824.62,-68 824.62,-100"/>
<text text-anchor="start" x="704.12" y="-86.5" font-family="Helvetica,sans-Serif" font-size="10.00">FIEAGameEngine/include</text>
<text text-anchor="middle" x="760.38" y="-74.5" font-family="Helvetica,sans-Serif" font-size="10.00">/Content/GameObject.h</text>
</a>
</g>
</g>
<!-- Node3&#45;&gt;Node23 -->
<g id="edge11_Node000003_Node000023" class="edge">
<title>Node3&#45;&gt;Node23</title>
<g id="a_edge11_Node000003_Node000023"><a xlink:title=" ">
<path fill="none" stroke="#63b8ff" d="M801.28,-194.47C795.6,-186.37 789.73,-177.09 785.38,-168 774.58,-145.47 767.27,-117.26 763.47,-100.21"/>
<polygon fill="#63b8ff" stroke="#63b8ff" points="798.39,-196.46 807.12,-202.47 804.05,-192.33 798.39,-196.46"/>
</a>
</g>
</g>
<!-- Node30 -->
<g id="Node000030" class="node">
<title>Node30</title>
<g id="a_Node000030"><a xlink:href="_content_service_8h.html" target="_top" xlink:title=" ">
<polygon fill="#fff0f0" stroke="red" points="662.62,-168 486.12,-168 486.12,-136 662.62,-136 662.62,-168"/>
<text text-anchor="start" x="494.12" y="-154.5" font-family="Helvetica,sans-Serif" font-size="10.00">FIEAGameEngine/include</text>
<text text-anchor="middle" x="574.38" y="-142.5" font-family="Helvetica,sans-Serif" font-size="10.00">/FIEAGameEngine/ContentService.h</text>
</a>
</g>
</g>
<!-- Node3&#45;&gt;Node30 -->
<g id="edge12_Node000003_Node000030" class="edge">
<title>Node3&#45;&gt;Node30</title>
<g id="a_edge12_Node000003_Node000030"><a xlink:title=" ">
<path fill="none" stroke="#63b8ff" d="M751.81,-200.6C714.14,-190.5 667.93,-178.1 632.12,-168.49"/>
<polygon fill="#63b8ff" stroke="#63b8ff" points="750.67,-203.92 761.24,-203.13 752.49,-197.16 750.67,-203.92"/>
</a>
</g>
</g>
<!-- Node31 -->
<g id="Node000031" class="node">
<title>Node31</title>
<g id="a_Node000031"><a xlink:href="_attributed_8cpp.html" target="_top" xlink:title=" ">
<polygon fill="white" stroke="#666666" points="639.88,-100 524.88,-100 524.88,-68 639.88,-68 639.88,-100"/>
<text text-anchor="start" x="532.88" y="-86.5" font-family="Helvetica,sans-Serif" font-size="10.00">FIEAGameEngine/src</text>
<text text-anchor="middle" x="582.38" y="-74.5" font-family="Helvetica,sans-Serif" font-size="10.00">/content/Attributed.cpp</text>
</a>
</g>
</g>
<!-- Node3&#45;&gt;Node31 -->
<g id="edge15_Node000003_Node000031" class="edge">
<title>Node3&#45;&gt;Node31</title>
<g id="a_edge15_Node000003_Node000031"><a xlink:title=" ">
<path fill="none" stroke="#63b8ff" d="M783.07,-198C734.96,-170.91 652.41,-124.43 609.72,-100.4"/>
<polygon fill="#63b8ff" stroke="#63b8ff" points="781.32,-201.03 791.75,-202.89 784.76,-194.93 781.32,-201.03"/>
</a>
</g>
</g>
<!-- Node3&#45;&gt;Node33 -->
<g id="edge16_Node000003_Node000033" class="edge">
<title>Node3&#45;&gt;Node33</title>
<g id="a_edge16_Node000003_Node000033"><a xlink:title=" ">
<path fill="none" stroke="#63b8ff" d="M892.49,-200.69C941.36,-188.29 1003.94,-172.4 1043.11,-162.46"/>
<polygon fill="#63b8ff" stroke="#63b8ff" points="891.63,-197.3 882.8,-203.15 893.35,-204.09 891.63,-197.3"/>
</a>
</g>
</g>
<!-- Node4&#45;&gt;Node23 -->
<g id="edge4_Node000004_Node000023" class="edge">
<title>Node4&#45;&gt;Node23</title>
<g id="a_edge4_Node000004_Node000023"><a xlink:title=" ">
<path fill="none" stroke="#63b8ff" d="M826.33,-129.42C812.29,-119.96 796.13,-109.08 783.32,-100.45"/>
<polygon fill="#63b8ff" stroke="#63b8ff" points="824.14,-132.16 834.39,-134.85 828.05,-126.36 824.14,-132.16"/>
</a>
</g>
</g>
<!-- Node13 -->
<g id="Node000013" class="node">
<title>Node13</title>
<g id="a_Node000013"><a xlink:href="_action_handler_8cpp.html" target="_top" xlink:title=" ">
<polygon fill="white" stroke="#666666" points="1333.62,-32 1199.12,-32 1199.12,0 1333.62,0 1333.62,-32"/>
<text text-anchor="start" x="1207.12" y="-18.5" font-family="Helvetica,sans-Serif" font-size="10.00">FIEAGameEngine/src</text>
<text text-anchor="middle" x="1266.38" y="-6.5" font-family="Helvetica,sans-Serif" font-size="10.00">/content/ActionHandler.cpp</text>
</a>
</g>
</g>
<!-- Node4&#45;&gt;Node13 -->
<g id="edge10_Node000004_Node000013" class="edge">
<title>Node4&#45;&gt;Node13</title>
<g id="a_edge10_Node000004_Node000013"><a xlink:title=" ">
<path fill="none" stroke="#63b8ff" d="M906.2,-131.44C950.45,-113.7 1018.27,-87.44 1078.38,-68 1119.72,-54.63 1166.93,-41.83 1203.69,-32.4"/>
<polygon fill="#63b8ff" stroke="#63b8ff" points="905.12,-128.1 897.15,-135.08 907.74,-134.59 905.12,-128.1"/>
</a>
</g>
</g>
<!-- Node23&#45;&gt;Node13 -->
<g id="edge5_Node000023_Node000013" class="edge">
<title>Node23&#45;&gt;Node13</title>
<g id="a_edge5_Node000023_Node000013"><a xlink:title=" ">
<path fill="none" stroke="#63b8ff" d="M835.81,-67.73C992.95,-44.42 1036.18,-54.94 1190.38,-32 1193.17,-31.58 1196.02,-31.14 1198.89,-30.66"/>
<polygon fill="#63b8ff" stroke="#63b8ff" points="835.66,-64.21 826.29,-69.16 836.7,-71.13 835.66,-64.21"/>
</a>
</g>
</g>
<!-- Node14 -->
<g id="Node000014" class="node">
<title>Node14</title>
<g id="a_Node000014"><a xlink:href="_action_list_handler_8cpp.html" target="_top" xlink:title=" ">
<polygon fill="white" stroke="#666666" points="699.5,-32 549.25,-32 549.25,0 699.5,0 699.5,-32"/>
<text text-anchor="start" x="557.25" y="-18.5" font-family="Helvetica,sans-Serif" font-size="10.00">FIEAGameEngine/src</text>
<text text-anchor="middle" x="624.38" y="-6.5" font-family="Helvetica,sans-Serif" font-size="10.00">/content/ActionListHandler.cpp</text>
</a>
</g>
</g>
<!-- Node23&#45;&gt;Node14 -->
<g id="edge6_Node000023_Node000014" class="edge">
<title>Node23&#45;&gt;Node14</title>
<g id="a_edge6_Node000023_Node000014"><a xlink:title=" ">
<path fill="none" stroke="#63b8ff" d="M718.35,-62.61C698.26,-52.86 674.61,-41.38 656.06,-32.38"/>
<polygon fill="#63b8ff" stroke="#63b8ff" points="716.6,-65.65 727.13,-66.87 719.66,-59.35 716.6,-65.65"/>
</a>
</g>
</g>
<!-- Node25 -->
<g id="Node000025" class="node">
<title>Node25</title>
<g id="a_Node000025"><a xlink:href="_game_object_handler_8cpp.html" target="_top" xlink:title=" ">
<polygon fill="white" stroke="#666666" points="531.12,-32 369.62,-32 369.62,0 531.12,0 531.12,-32"/>
<text text-anchor="start" x="377.62" y="-18.5" font-family="Helvetica,sans-Serif" font-size="10.00">FIEAGameEngine/src</text>
<text text-anchor="middle" x="450.38" y="-6.5" font-family="Helvetica,sans-Serif" font-size="10.00">/content/GameObjectHandler.cpp</text>
</a>
</g>
</g>
<!-- Node23&#45;&gt;Node25 -->
<g id="edge7_Node000023_Node000025" class="edge">
<title>Node23&#45;&gt;Node25</title>
<g id="a_edge7_Node000023_Node000025"><a xlink:title=" ">
<path fill="none" stroke="#63b8ff" d="M684.55,-66.86C635.35,-56.38 571.6,-42.81 523.04,-32.47"/>
<polygon fill="#63b8ff" stroke="#63b8ff" points="683.78,-70.27 694.29,-68.93 685.23,-63.42 683.78,-70.27"/>
</a>
</g>
</g>
<!-- Node23&#45;&gt;Node26 -->
<g id="edge8_Node000023_Node000026" class="edge">
<title>Node23&#45;&gt;Node26</title>
<g id="a_edge8_Node000023_Node000026"><a xlink:title=" ">
<path fill="none" stroke="#63b8ff" d="M684.82,-72.33C672.65,-70.77 660.17,-69.27 648.38,-68 451.08,-46.82 400.96,-50.28 203.38,-32 175.72,-29.44 145.11,-26.3 119.25,-23.55"/>
<polygon fill="#63b8ff" stroke="#63b8ff" points="684.02,-75.76 694.39,-73.58 684.92,-68.82 684.02,-75.76"/>
</a>
</g>
</g>
<!-- Node23&#45;&gt;Node9 -->
<g id="edge9_Node000023_Node000009" class="edge">
<title>Node23&#45;&gt;Node9</title>
<g id="a_edge9_Node000023_Node000009"><a xlink:title=" ">
<path fill="none" stroke="#63b8ff" d="M684.43,-68.32C683.74,-68.21 683.06,-68.1 682.38,-68 540,-46.39 502.75,-53.61 360.38,-32 350.01,-30.43 338.93,-28.47 328.47,-26.49"/>
<polygon fill="#63b8ff" stroke="#63b8ff" points="683.82,-71.76 694.25,-69.92 684.95,-64.85 683.82,-71.76"/>
</a>
</g>
</g>
<!-- Node30&#45;&gt;Node9 -->
<g id="edge14_Node000030_Node000009" class="edge">
<title>Node30&#45;&gt;Node9</title>
<g id="a_edge14_Node000030_Node000009"><a xlink:title=" ">
<path fill="none" stroke="#63b8ff" d="M547.76,-128.37C520.43,-105.29 480.73,-72.27 472.38,-68 446.98,-55.02 373.86,-37.27 326.09,-26.5"/>
<polygon fill="#63b8ff" stroke="#63b8ff" points="545.44,-131 555.34,-134.78 549.96,-125.65 545.44,-131"/>
</a>
</g>
</g>
<!-- Node30&#45;&gt;Node31 -->
<g id="edge13_Node000030_Node000031" class="edge">
<title>Node30&#45;&gt;Node31</title>
<g id="a_edge13_Node000030_Node000031"><a xlink:title=" ">
<path fill="none" stroke="#63b8ff" d="M577.61,-124.31C578.6,-116.12 579.66,-107.38 580.53,-100.22"/>
<polygon fill="#63b8ff" stroke="#63b8ff" points="574.14,-123.84 576.41,-134.19 581.09,-124.68 574.14,-123.84"/>
</a>
</g>
</g>
<!-- Node33&#45;&gt;Node9 -->
<g id="edge19_Node000033_Node000009" class="edge">
<title>Node33&#45;&gt;Node9</title>
<g id="a_edge19_Node000033_Node000009"><a xlink:title=" ">
<path fill="none" stroke="#63b8ff" d="M997.52,-142.71C890.66,-131.63 715.17,-112.02 687.38,-100 666.79,-91.1 668.98,-76.85 648.38,-68 529.85,-17.09 487.78,-52.19 360.38,-32 350.16,-30.38 339.24,-28.42 328.89,-26.46"/>
<polygon fill="#63b8ff" stroke="#63b8ff" points="997.1,-146.18 1007.41,-143.73 997.82,-139.22 997.1,-146.18"/>
</a>
</g>
</g>
<!-- Node34 -->
<g id="Node000034" class="node">
<title>Node34</title>
<g id="a_Node000034"><a xlink:href="_attribute_box_tests_8cpp.html" target="_top" xlink:title=" ">
<polygon fill="white" stroke="#666666" points="1491.25,-26 1351.5,-26 1351.5,-6 1491.25,-6 1491.25,-26"/>
<text text-anchor="middle" x="1421.38" y="-12.5" font-family="Helvetica,sans-Serif" font-size="10.00">Tests/AttributeBoxTests.cpp</text>
</a>
</g>
</g>
<!-- Node33&#45;&gt;Node34 -->
<g id="edge17_Node000033_Node000034" class="edge">
<title>Node33&#45;&gt;Node34</title>
<g id="a_edge17_Node000033_Node000034"><a xlink:title=" ">
<path fill="none" stroke="#63b8ff" d="M1079.06,-130.34C1079.06,-111.32 1082.36,-83.73 1099.38,-68 1139.45,-30.93 1288.55,-41.09 1342.38,-32 1352.42,-30.3 1363.17,-28.35 1373.39,-26.43"/>
<polygon fill="#63b8ff" stroke="#63b8ff" points="1075.55,-130.26 1079.39,-140.13 1082.55,-130.02 1075.55,-130.26"/>
</a>
</g>
</g>
<!-- Node35 -->
<g id="Node000035" class="node">
<title>Node35</title>
<g id="a_Node000035"><a xlink:href="_attributed_test_8cpp.html" target="_top" xlink:title=" ">
<polygon fill="white" stroke="#666666" points="1775.62,-26 1653.12,-26 1653.12,-6 1775.62,-6 1775.62,-26"/>
<text text-anchor="middle" x="1714.38" y="-12.5" font-family="Helvetica,sans-Serif" font-size="10.00">Tests/AttributedTest.cpp</text>
</a>
</g>
</g>
<!-- Node33&#45;&gt;Node35 -->
<g id="edge18_Node000033_Node000035" class="edge">
<title>Node33&#45;&gt;Node35</title>
<g id="a_edge18_Node000033_Node000035"><a xlink:title=" ">
<path fill="none" stroke="#63b8ff" d="M1163.18,-146.82C1248.1,-141.16 1383.52,-128.29 1497.38,-100 1572.53,-81.33 1657.02,-43.98 1694.56,-26.47"/>
<polygon fill="#63b8ff" stroke="#63b8ff" points="1163.06,-143.32 1153.3,-147.46 1163.51,-150.31 1163.06,-143.32"/>
</a>
</g>
</g>
<!-- Node36 -->
<g id="Node000036" class="node">
<title>Node36</title>
<g id="a_Node000036"><a xlink:href="_attribute_box_8cpp.html" target="_top" xlink:title=" ">
<polygon fill="white" stroke="#666666" points="1260.62,-94 1108.12,-94 1108.12,-74 1260.62,-74 1260.62,-94"/>
<text text-anchor="middle" x="1184.38" y="-80.5" font-family="Helvetica,sans-Serif" font-size="10.00">Tests/Support/AttributeBox.cpp</text>
</a>
</g>
</g>
<!-- Node33&#45;&gt;Node36 -->
<g id="edge20_Node000033_Node000036" class="edge">
<title>Node33&#45;&gt;Node36</title>
<g id="a_edge20_Node000033_Node000036"><a xlink:title=" ">
<path fill="none" stroke="#63b8ff" d="M1104.97,-135.39C1125.02,-122.67 1152.68,-105.12 1169.5,-94.44"/>
<polygon fill="#63b8ff" stroke="#63b8ff" points="1103.12,-132.42 1096.55,-140.73 1106.87,-138.33 1103.12,-132.42"/>
</a>
</g>
</g>
<!-- Node37 -->
<g id="Node000037" class="node">
<title>Node37</title>
<g id="a_Node000037"><a xlink:href="_attribute_box_plus_8h.html" target="_top" xlink:title=" ">
<polygon fill="#fff0f0" stroke="red" points="1488.25,-100 1354.5,-100 1354.5,-68 1488.25,-68 1488.25,-100"/>
<text text-anchor="start" x="1362.5" y="-86.5" font-family="Helvetica,sans-Serif" font-size="10.00">Tests/Support/AttributeBox</text>
<text text-anchor="middle" x="1421.38" y="-74.5" font-family="Helvetica,sans-Serif" font-size="10.00">Plus.h</text>
</a>
</g>
</g>
<!-- Node33&#45;&gt;Node37 -->
<g id="edge21_Node000033_Node000037" class="edge">
<title>Node33&#45;&gt;Node37</title>
<g id="a_edge21_Node000033_Node000037"><a xlink:title=" ">
<path fill="none" stroke="#63b8ff" d="M1140.38,-139.39C1200.19,-127.81 1291.87,-110.07 1354.11,-98.02"/>
<polygon fill="#63b8ff" stroke="#63b8ff" points="1139.87,-135.92 1130.72,-141.26 1141.2,-142.79 1139.87,-135.92"/>
</a>
</g>
</g>
<!-- Node37&#45;&gt;Node34 -->
<g id="edge22_Node000037_Node000034" class="edge">
<title>Node37&#45;&gt;Node34</title>
<g id="a_edge22_Node000037_Node000034"><a xlink:title=" ">
<path fill="none" stroke="#63b8ff" d="M1421.38,-56.31C1421.38,-45.67 1421.38,-34.13 1421.38,-26.32"/>
<polygon fill="#63b8ff" stroke="#63b8ff" points="1417.88,-56.18 1421.38,-66.18 1424.88,-56.18 1417.88,-56.18"/>
</a>
</g>
</g>
<!-- Node37&#45;&gt;Node35 -->
<g id="edge23_Node000037_Node000035" class="edge">
<title>Node37&#45;&gt;Node35</title>
<g id="a_edge23_Node000037_Node000035"><a xlink:title=" ">
<path fill="none" stroke="#63b8ff" d="M1499.81,-65.33C1555.27,-52.84 1627.48,-36.57 1672.37,-26.46"/>
<polygon fill="#63b8ff" stroke="#63b8ff" points="1499.06,-61.91 1490.07,-67.53 1500.6,-68.74 1499.06,-61.91"/>
</a>
</g>
</g>
<!-- Node42&#45;&gt;Node13 -->
<g id="edge28_Node000042_Node000013" class="edge">
<title>Node42&#45;&gt;Node13</title>
<g id="a_edge28_Node000042_Node000013"><a xlink:title=" ">
<path fill="none" stroke="#63b8ff" d="M969.5,-71.26C1028.3,-61.17 1114.96,-46.07 1190.38,-32 1193.15,-31.48 1195.98,-30.95 1198.84,-30.4"/>
<polygon fill="#63b8ff" stroke="#63b8ff" points="969.24,-67.75 959.98,-72.89 970.43,-74.65 969.24,-67.75"/>
</a>
</g>
</g>
<!-- Node42&#45;&gt;Node14 -->
<g id="edge29_Node000042_Node000014" class="edge">
<title>Node42&#45;&gt;Node14</title>
<g id="a_edge29_Node000042_Node000014"><a xlink:title=" ">
<path fill="none" stroke="#63b8ff" d="M831.08,-66.43C787.42,-55.99 731.45,-42.6 688.76,-32.4"/>
<polygon fill="#63b8ff" stroke="#63b8ff" points="830.17,-69.81 840.71,-68.73 831.8,-63 830.17,-69.81"/>
</a>
</g>
</g>
<!-- Node42&#45;&gt;Node25 -->
<g id="edge32_Node000042_Node000025" class="edge">
<title>Node42&#45;&gt;Node25</title>
<g id="a_edge32_Node000042_Node000025"><a xlink:title=" ">
<path fill="none" stroke="#63b8ff" d="M831.23,-67.74C702.17,-45.9 666.67,-50.28 540.38,-32 537.4,-31.57 534.36,-31.12 531.3,-30.66"/>
<polygon fill="#63b8ff" stroke="#63b8ff" points="830.4,-71.15 840.85,-69.39 831.58,-64.25 830.4,-71.15"/>
</a>
</g>
</g>
<!-- Node42&#45;&gt;Node9 -->
<g id="edge35_Node000042_Node000009" class="edge">
<title>Node42&#45;&gt;Node9</title>
<g id="a_edge35_Node000042_Node000009"><a xlink:title=" ">
<path fill="none" stroke="#63b8ff" d="M830.7,-67.75C622.85,-37.68 565.67,-59.46 360.38,-32 349.44,-30.54 337.72,-28.52 326.78,-26.45"/>
<polygon fill="#63b8ff" stroke="#63b8ff" points="830.1,-71.2 840.51,-69.19 831.12,-64.27 830.1,-71.2"/>
</a>
</g>
</g>
<!-- Node43 -->
<g id="Node000043" class="node">
<title>Node43</title>
<g id="a_Node000043"><a xlink:href="_array_handler_8cpp.html" target="_top" xlink:title=" ">
<polygon fill="white" stroke="#666666" points="1009.38,-32 879.38,-32 879.38,0 1009.38,0 1009.38,-32"/>
<text text-anchor="start" x="887.38" y="-18.5" font-family="Helvetica,sans-Serif" font-size="10.00">FIEAGameEngine/src</text>
<text text-anchor="middle" x="944.38" y="-6.5" font-family="Helvetica,sans-Serif" font-size="10.00">/content/ArrayHandler.cpp</text>
</a>
</g>
</g>
<!-- Node42&#45;&gt;Node43 -->
<g id="edge30_Node000042_Node000043" class="edge">
<title>Node42&#45;&gt;Node43</title>
<g id="a_edge30_Node000042_Node000043"><a xlink:title=" ">
<path fill="none" stroke="#63b8ff" d="M916.84,-58.3C922.68,-49.55 929.07,-39.96 934.23,-32.22"/>
<polygon fill="#63b8ff" stroke="#63b8ff" points="914.05,-56.17 911.42,-66.43 919.88,-60.05 914.05,-56.17"/>
</a>
</g>
</g>
<!-- Node44 -->
<g id="Node000044" class="node">
<title>Node44</title>
<g id="a_Node000044"><a xlink:href="_float_parse_handler_8cpp.html" target="_top" xlink:title=" ">
<polygon fill="white" stroke="#666666" points="1181.38,-32 1027.38,-32 1027.38,0 1181.38,0 1181.38,-32"/>
<text text-anchor="start" x="1035.38" y="-18.5" font-family="Helvetica,sans-Serif" font-size="10.00">FIEAGameEngine/src</text>
<text text-anchor="middle" x="1104.38" y="-6.5" font-family="Helvetica,sans-Serif" font-size="10.00">/content/FloatParseHandler.cpp</text>
</a>
</g>
</g>
<!-- Node42&#45;&gt;Node44 -->
<g id="edge31_Node000042_Node000044" class="edge">
<title>Node42&#45;&gt;Node44</title>
<g id="a_edge31_Node000042_Node000044"><a xlink:title=" ">
<path fill="none" stroke="#63b8ff" d="M958.85,-64.08C989.79,-54.07 1027.3,-41.94 1056.49,-32.49"/>
<polygon fill="#63b8ff" stroke="#63b8ff" points="958.08,-60.65 949.64,-67.06 960.24,-67.31 958.08,-60.65"/>
</a>
</g>
</g>
<!-- Node45 -->
<g id="Node000045" class="node">
<title>Node45</title>
<g id="a_Node000045"><a xlink:href="_int_parse_handler_8cpp.html" target="_top" xlink:title=" ">
<polygon fill="white" stroke="#666666" points="861.12,-32 717.62,-32 717.62,0 861.12,0 861.12,-32"/>
<text text-anchor="start" x="725.62" y="-18.5" font-family="Helvetica,sans-Serif" font-size="10.00">FIEAGameEngine/src</text>
<text text-anchor="middle" x="789.38" y="-6.5" font-family="Helvetica,sans-Serif" font-size="10.00">/content/IntParseHandler.cpp</text>
</a>
</g>
</g>
<!-- Node42&#45;&gt;Node45 -->
<g id="edge33_Node000042_Node000045" class="edge">
<title>Node42&#45;&gt;Node45</title>
<g id="a_edge33_Node000042_Node000045"><a xlink:title=" ">
<path fill="none" stroke="#63b8ff" d="M864.72,-61.8C848.62,-52.23 829.96,-41.13 815.24,-32.38"/>
<polygon fill="#63b8ff" stroke="#63b8ff" points="862.67,-64.65 873.05,-66.75 866.24,-58.63 862.67,-64.65"/>
</a>
</g>
</g>
<!-- Node42&#45;&gt;Node48 -->
<g id="edge34_Node000042_Node000048" class="edge">
<title>Node42&#45;&gt;Node48</title>
<g id="a_edge34_Node000042_Node000048"><a xlink:title=" ">
<path fill="none" stroke="#63b8ff" d="M969.65,-77.59C1116.32,-66.05 1449.02,-39.5 1500.38,-32 1503.15,-31.59 1505.99,-31.15 1508.85,-30.67"/>
<polygon fill="#63b8ff" stroke="#63b8ff" points="969.77,-74.06 960.08,-78.34 970.32,-81.04 969.77,-74.06"/>
</a>
</g>
</g>
<!-- Node55&#45;&gt;Node26 -->
<g id="edge42_Node000055_Node000026" class="edge">
<title>Node55&#45;&gt;Node26</title>
<g id="a_edge42_Node000055_Node000026"><a xlink:title=" ">
<path fill="none" stroke="#63b8ff" d="M143.33,-204.64C127.17,-196.19 108.92,-184 97.38,-168 64.64,-122.62 60,-51.9 59.42,-26.49"/>
<polygon fill="#63b8ff" stroke="#63b8ff" points="141.67,-207.72 152.19,-208.98 144.75,-201.44 141.67,-207.72"/>
</a>
</g>
</g>
<!-- Node55&#45;&gt;Node9 -->
<g id="edge44_Node000055_Node000009" class="edge">
<title>Node55&#45;&gt;Node9</title>
<g id="a_edge44_Node000055_Node000009"><a xlink:title=" ">
<path fill="none" stroke="#63b8ff" d="M216.53,-205.02C233.66,-196.88 252.34,-184.83 263.38,-168 293.36,-122.26 287.28,-51.76 283.85,-26.45"/>
<polygon fill="#63b8ff" stroke="#63b8ff" points="215.26,-201.75 207.52,-208.98 218.09,-208.16 215.26,-201.75"/>
</a>
</g>
</g>
<!-- Node55&#45;&gt;Node54 -->
<g id="edge43_Node000055_Node000054" class="edge">
<title>Node55&#45;&gt;Node54</title>
<g id="a_edge43_Node000055_Node000054"><a xlink:title=" ">
<path fill="none" stroke="#63b8ff" d="M214.83,-205.78C251.18,-192.95 305.44,-173.8 337.63,-162.44"/>
<polygon fill="#63b8ff" stroke="#63b8ff" points="213.86,-202.41 205.59,-209.04 216.19,-209.01 213.86,-202.41"/>
</a>
</g>
</g>
<!-- Node56 -->
<g id="Node000056" class="node">
<title>Node56</title>
<g id="a_Node000056"><a xlink:href="_scoped_foo_8cpp.html" target="_top" xlink:title=" ">
<polygon fill="white" stroke="#666666" points="254.38,-162 106.38,-162 106.38,-142 254.38,-142 254.38,-162"/>
<text text-anchor="middle" x="180.38" y="-148.5" font-family="Helvetica,sans-Serif" font-size="10.00">Tests/Support/ScopedFoo.cpp</text>
</a>
</g>
</g>
<!-- Node55&#45;&gt;Node56 -->
<g id="edge45_Node000055_Node000056" class="edge">
<title>Node55&#45;&gt;Node56</title>
<g id="a_edge45_Node000055_Node000056"><a xlink:title=" ">
<path fill="none" stroke="#63b8ff" d="M178.32,-198.28C178.86,-186.27 179.52,-171.74 179.95,-162.44"/>
<polygon fill="#63b8ff" stroke="#63b8ff" points="174.83,-197.88 177.87,-208.03 181.82,-198.2 174.83,-197.88"/>
</a>
</g>
</g>
</g>
</svg>
