<?xml version="1.0" encoding="UTF-8" standalone="no"?>
<!DOCTYPE svg PUBLIC "-//W3C//DTD SVG 1.1//EN"
 "http://www.w3.org/Graphics/SVG/1.1/DTD/svg11.dtd">
<!-- Generated by graphviz version 12.2.1 (20241206.2353)
 -->
<!-- Title: FIEAGameEngine/src/FactoryService.cpp Pages: 1 -->
<svg width="792pt" height="320pt"
 viewBox="0.00 0.00 792.11 320.00" xmlns="http://www.w3.org/2000/svg" xmlns:xlink="http://www.w3.org/1999/xlink">
<g id="graph0" class="graph" transform="scale(1 1) rotate(0) translate(4 316)">
<title>FIEAGameEngine/src/FactoryService.cpp</title>
<!-- Node1 -->
<g id="Node000001" class="node">
<title>Node1</title>
<g id="a_Node000001"><a xlink:title=" ">
<polygon fill="#999999" stroke="#666666" points="250.74,-312 139.49,-312 139.49,-280 250.74,-280 250.74,-312"/>
<text text-anchor="start" x="147.49" y="-298.5" font-family="Helvetica,sans-Serif" font-size="10.00">FIEAGameEngine/src</text>
<text text-anchor="middle" x="195.11" y="-286.5" font-family="Helvetica,sans-Serif" font-size="10.00">/FactoryService.cpp</text>
</a>
</g>
</g>
<!-- Node2 -->
<g id="Node000002" class="node">
<title>Node2</title>
<g id="a_Node000002"><a xlink:href="_factory_service_8h.html" target="_top" xlink:title=" ">
<polygon fill="white" stroke="#666666" points="176.24,-188 7.99,-188 7.99,-168 176.24,-168 176.24,-188"/>
<text text-anchor="middle" x="92.11" y="-174.5" font-family="Helvetica,sans-Serif" font-size="10.00">FieaGameEngine/FactoryService.h</text>
</a>
</g>
</g>
<!-- Node1&#45;&gt;Node2 -->
<g id="edge1_Node000001_Node000002" class="edge">
<title>Node1&#45;&gt;Node2</title>
<g id="a_edge1_Node000001_Node000002"><a xlink:title=" ">
<path fill="none" stroke="#63b8ff" d="M181.65,-279.84C162.67,-258.46 128.12,-219.55 107.94,-196.82"/>
<polygon fill="#63b8ff" stroke="#63b8ff" points="110.75,-194.72 101.5,-189.57 105.52,-199.37 110.75,-194.72"/>
</a>
</g>
</g>
<!-- Node18 -->
<g id="Node000018" class="node">
<title>Node18</title>
<g id="a_Node000018"><a xlink:href="_scope_8h.html" target="_top" xlink:title=" ">
<polygon fill="white" stroke="#666666" points="342.86,-244 253.36,-244 253.36,-224 342.86,-224 342.86,-244"/>
<text text-anchor="middle" x="298.11" y="-230.5" font-family="Helvetica,sans-Serif" font-size="10.00">Content/Scope.h</text>
</a>
</g>
</g>
<!-- Node1&#45;&gt;Node18 -->
<g id="edge22_Node000001_Node000018" class="edge">
<title>Node1&#45;&gt;Node18</title>
<g id="a_edge22_Node000001_Node000018"><a xlink:title=" ">
<path fill="none" stroke="#63b8ff" d="M221.64,-279.55C237.13,-270.52 256.61,-259.17 272.03,-250.19"/>
<polygon fill="#63b8ff" stroke="#63b8ff" points="273.77,-253.23 280.65,-245.17 270.25,-247.18 273.77,-253.23"/>
</a>
</g>
</g>
<!-- Node3 -->
<g id="Node000003" class="node">
<title>Node3</title>
<g id="a_Node000003"><a xlink:href="_types_8h.html" target="_top" xlink:title=" ">
<polygon fill="white" stroke="#666666" points="453.24,-76 320.99,-76 320.99,-56 453.24,-56 453.24,-76"/>
<text text-anchor="middle" x="387.11" y="-62.5" font-family="Helvetica,sans-Serif" font-size="10.00">FIEAGameEngine/Types.h</text>
</a>
</g>
</g>
<!-- Node2&#45;&gt;Node3 -->
<g id="edge2_Node000002_Node000003" class="edge">
<title>Node2&#45;&gt;Node3</title>
<g id="a_edge2_Node000002_Node000003"><a xlink:title=" ">
<path fill="none" stroke="#63b8ff" d="M128.05,-167.51C158.5,-159.15 203.12,-146.13 241.11,-132 282.39,-116.65 328.61,-95.35 357.77,-81.37"/>
<polygon fill="#63b8ff" stroke="#63b8ff" points="359.22,-84.56 366.7,-77.06 356.18,-78.26 359.22,-84.56"/>
</a>
</g>
</g>
<!-- Node9 -->
<g id="Node000009" class="node">
<title>Node9</title>
<g id="a_Node000009"><a xlink:title=" ">
<polygon fill="#e0e0e0" stroke="#999999" points="180.11,-20 140.11,-20 140.11,0 180.11,0 180.11,-20"/>
<text text-anchor="middle" x="160.11" y="-6.5" font-family="Helvetica,sans-Serif" font-size="10.00">string</text>
</a>
</g>
</g>
<!-- Node2&#45;&gt;Node9 -->
<g id="edge19_Node000002_Node000009" class="edge">
<title>Node2&#45;&gt;Node9</title>
<g id="a_edge19_Node000002_Node000009"><a xlink:title=" ">
<path fill="none" stroke="#63b8ff" d="M56.94,-167.56C26.51,-157.39 -10.61,-138.94 3.11,-112 28.54,-62.06 91.26,-33.5 129.28,-20.23"/>
<polygon fill="#63b8ff" stroke="#63b8ff" points="129.94,-23.7 138.32,-17.21 127.73,-17.05 129.94,-23.7"/>
</a>
</g>
</g>
<!-- Node12 -->
<g id="Node000012" class="node">
<title>Node12</title>
<g id="a_Node000012"><a xlink:href="_r_t_t_i_8h.html" target="_top" xlink:title=" ">
<polygon fill="white" stroke="#666666" points="410.11,-132 364.11,-132 364.11,-112 410.11,-112 410.11,-132"/>
<text text-anchor="middle" x="387.11" y="-118.5" font-family="Helvetica,sans-Serif" font-size="10.00">RTTI.h</text>
</a>
</g>
</g>
<!-- Node2&#45;&gt;Node12 -->
<g id="edge11_Node000002_Node000012" class="edge">
<title>Node2&#45;&gt;Node12</title>
<g id="a_edge11_Node000002_Node000012"><a xlink:title=" ">
<path fill="none" stroke="#63b8ff" d="M143.83,-167.53C203.93,-156.53 301.39,-138.69 352.82,-129.28"/>
<polygon fill="#63b8ff" stroke="#63b8ff" points="353.27,-132.75 362.47,-127.51 352,-125.87 353.27,-132.75"/>
</a>
</g>
</g>
<!-- Node14 -->
<g id="Node000014" class="node">
<title>Node14</title>
<g id="a_Node000014"><a xlink:href="_service_mgr_8h.html" target="_top" xlink:title=" ">
<polygon fill="white" stroke="#666666" points="231.99,-132 158.24,-132 158.24,-112 231.99,-112 231.99,-132"/>
<text text-anchor="middle" x="195.11" y="-118.5" font-family="Helvetica,sans-Serif" font-size="10.00">ServiceMgr.h</text>
</a>
</g>
</g>
<!-- Node2&#45;&gt;Node14 -->
<g id="edge15_Node000002_Node000014" class="edge">
<title>Node2&#45;&gt;Node14</title>
<g id="a_edge15_Node000002_Node000014"><a xlink:title=" ">
<path fill="none" stroke="#63b8ff" d="M110.05,-167.59C125.76,-159.36 148.84,-147.26 167,-137.74"/>
<polygon fill="#63b8ff" stroke="#63b8ff" points="168.46,-140.93 175.69,-133.18 165.21,-134.73 168.46,-140.93"/>
</a>
</g>
</g>
<!-- Node16 -->
<g id="Node000016" class="node">
<title>Node16</title>
<g id="a_Node000016"><a xlink:title=" ">
<polygon fill="#e0e0e0" stroke="#999999" points="171.49,-76 88.74,-76 88.74,-56 171.49,-56 171.49,-76"/>
<text text-anchor="middle" x="130.11" y="-62.5" font-family="Helvetica,sans-Serif" font-size="10.00">unordered_map</text>
</a>
</g>
</g>
<!-- Node2&#45;&gt;Node16 -->
<g id="edge21_Node000002_Node000016" class="edge">
<title>Node2&#45;&gt;Node16</title>
<g id="a_edge21_Node000002_Node000016"><a xlink:title=" ">
<path fill="none" stroke="#63b8ff" d="M95.35,-167.62C101.49,-149.84 114.95,-110.88 123.2,-87"/>
<polygon fill="#63b8ff" stroke="#63b8ff" points="126.43,-88.38 126.39,-77.79 119.81,-86.09 126.43,-88.38"/>
</a>
</g>
</g>
<!-- Node17 -->
<g id="Node000017" class="node">
<title>Node17</title>
<g id="a_Node000017"><a xlink:title=" ">
<polygon fill="#e0e0e0" stroke="#999999" points="63.74,-132 12.49,-132 12.49,-112 63.74,-112 63.74,-132"/>
<text text-anchor="middle" x="38.11" y="-118.5" font-family="Helvetica,sans-Serif" font-size="10.00">memory</text>
</a>
</g>
</g>
<!-- Node2&#45;&gt;Node17 -->
<g id="edge20_Node000002_Node000017" class="edge">
<title>Node2&#45;&gt;Node17</title>
<g id="a_edge20_Node000002_Node000017"><a xlink:title=" ">
<path fill="none" stroke="#63b8ff" d="M82.71,-167.59C75.2,-160.08 64.47,-149.35 55.42,-140.3"/>
<polygon fill="#63b8ff" stroke="#63b8ff" points="58.03,-137.96 48.48,-133.37 53.08,-142.91 58.03,-137.96"/>
</a>
</g>
</g>
<!-- Node4 -->
<g id="Node000004" class="node">
<title>Node4</title>
<g id="a_Node000004"><a xlink:title=" ">
<polygon fill="#e0e0e0" stroke="#999999" points="777.36,-20 714.86,-20 714.86,0 777.36,0 777.36,-20"/>
<text text-anchor="middle" x="746.11" y="-6.5" font-family="Helvetica,sans-Serif" font-size="10.00">windows.h</text>
</a>
</g>
</g>
<!-- Node3&#45;&gt;Node4 -->
<g id="edge3_Node000003_Node000004" class="edge">
<title>Node3&#45;&gt;Node4</title>
<g id="a_edge3_Node000003_Node000004"><a xlink:title=" ">
<path fill="none" stroke="#63b8ff" d="M453.7,-56.25C527.61,-46.44 643.44,-30.72 703.48,-20.32"/>
<polygon fill="#63b8ff" stroke="#63b8ff" points="704,-23.78 713.23,-18.58 702.77,-16.89 704,-23.78"/>
</a>
</g>
</g>
<!-- Node5 -->
<g id="Node000005" class="node">
<title>Node5</title>
<g id="a_Node000005"><a xlink:title=" ">
<polygon fill="#e0e0e0" stroke="#999999" points="246.24,-20 197.99,-20 197.99,0 246.24,0 246.24,-20"/>
<text text-anchor="middle" x="222.11" y="-6.5" font-family="Helvetica,sans-Serif" font-size="10.00">cassert</text>
</a>
</g>
</g>
<!-- Node3&#45;&gt;Node5 -->
<g id="edge4_Node000003_Node000005" class="edge">
<title>Node3&#45;&gt;Node5</title>
<g id="a_edge4_Node000003_Node000005"><a xlink:title=" ">
<path fill="none" stroke="#63b8ff" d="M358.37,-55.59C330.29,-46.4 287.49,-32.4 257.36,-22.54"/>
<polygon fill="#63b8ff" stroke="#63b8ff" points="258.53,-19.24 247.94,-19.45 256.35,-25.89 258.53,-19.24"/>
</a>
</g>
</g>
<!-- Node6 -->
<g id="Node000006" class="node">
<title>Node6</title>
<g id="a_Node000006"><a xlink:title=" ">
<polygon fill="#e0e0e0" stroke="#999999" points="312.24,-20 263.99,-20 263.99,0 312.24,0 312.24,-20"/>
<text text-anchor="middle" x="288.11" y="-6.5" font-family="Helvetica,sans-Serif" font-size="10.00">cstddef</text>
</a>
</g>
</g>
<!-- Node3&#45;&gt;Node6 -->
<g id="edge5_Node000003_Node000006" class="edge">
<title>Node3&#45;&gt;Node6</title>
<g id="a_edge5_Node000003_Node000006"><a xlink:title=" ">
<path fill="none" stroke="#63b8ff" d="M369.87,-55.59C354.77,-47.36 332.58,-35.26 315.13,-25.74"/>
<polygon fill="#63b8ff" stroke="#63b8ff" points="317.27,-22.92 306.82,-21.2 313.92,-29.07 317.27,-22.92"/>
</a>
</g>
</g>
<!-- Node7 -->
<g id="Node000007" class="node">
<title>Node7</title>
<g id="a_Node000007"><a xlink:title=" ">
<polygon fill="#e0e0e0" stroke="#999999" points="375.74,-20 330.49,-20 330.49,0 375.74,0 375.74,-20"/>
<text text-anchor="middle" x="353.11" y="-6.5" font-family="Helvetica,sans-Serif" font-size="10.00">cstdint</text>
</a>
</g>
</g>
<!-- Node3&#45;&gt;Node7 -->
<g id="edge6_Node000003_Node000007" class="edge">
<title>Node3&#45;&gt;Node7</title>
<g id="a_edge6_Node000003_Node000007"><a xlink:title=" ">
<path fill="none" stroke="#63b8ff" d="M381.19,-55.59C376.75,-48.55 370.53,-38.67 365.08,-30"/>
<polygon fill="#63b8ff" stroke="#63b8ff" points="368.06,-28.18 359.77,-21.58 362.14,-31.91 368.06,-28.18"/>
</a>
</g>
</g>
<!-- Node8 -->
<g id="Node000008" class="node">
<title>Node8</title>
<g id="a_Node000008"><a xlink:title=" ">
<polygon fill="#e0e0e0" stroke="#999999" points="446.49,-20 393.74,-20 393.74,0 446.49,0 446.49,-20"/>
<text text-anchor="middle" x="420.11" y="-6.5" font-family="Helvetica,sans-Serif" font-size="10.00">cstdbool</text>
</a>
</g>
</g>
<!-- Node3&#45;&gt;Node8 -->
<g id="edge7_Node000003_Node000008" class="edge">
<title>Node3&#45;&gt;Node8</title>
<g id="a_edge7_Node000003_Node000008"><a xlink:title=" ">
<path fill="none" stroke="#63b8ff" d="M392.86,-55.59C397.17,-48.55 403.2,-38.67 408.5,-30"/>
<polygon fill="#63b8ff" stroke="#63b8ff" points="411.41,-31.95 413.64,-21.59 405.44,-28.3 411.41,-31.95"/>
</a>
</g>
</g>
<!-- Node3&#45;&gt;Node9 -->
<g id="edge8_Node000003_Node000009" class="edge">
<title>Node3&#45;&gt;Node9</title>
<g id="a_edge8_Node000003_Node000009"><a xlink:title=" ">
<path fill="none" stroke="#63b8ff" d="M340.85,-55.55C303.01,-47.58 247.87,-35.43 191.29,-20.43"/>
<polygon fill="#63b8ff" stroke="#63b8ff" points="192.36,-17.09 181.8,-17.89 190.55,-23.86 192.36,-17.09"/>
</a>
</g>
</g>
<!-- Node10 -->
<g id="Node000010" class="node">
<title>Node10</title>
<g id="a_Node000010"><a xlink:title=" ">
<polygon fill="#e0e0e0" stroke="#999999" points="519.24,-20 464.99,-20 464.99,0 519.24,0 519.24,-20"/>
<text text-anchor="middle" x="492.11" y="-6.5" font-family="Helvetica,sans-Serif" font-size="10.00">crtdefs.h</text>
</a>
</g>
</g>
<!-- Node3&#45;&gt;Node10 -->
<g id="edge9_Node000003_Node000010" class="edge">
<title>Node3&#45;&gt;Node10</title>
<g id="a_edge9_Node000003_Node000010"><a xlink:title=" ">
<path fill="none" stroke="#63b8ff" d="M405.4,-55.59C421.41,-47.36 444.95,-35.26 463.46,-25.74"/>
<polygon fill="#63b8ff" stroke="#63b8ff" points="465.04,-28.86 472.33,-21.17 461.84,-22.63 465.04,-28.86"/>
</a>
</g>
</g>
<!-- Node11 -->
<g id="Node000011" class="node">
<title>Node11</title>
<g id="a_Node000011"><a xlink:title=" ">
<polygon fill="#e0e0e0" stroke="#999999" points="697.11,-20 537.11,-20 537.11,0 697.11,0 697.11,-20"/>
<text text-anchor="middle" x="617.11" y="-6.5" font-family="Helvetica,sans-Serif" font-size="10.00">../src/memory/SystemAllocator.h</text>
</a>
</g>
</g>
<!-- Node3&#45;&gt;Node11 -->
<g id="edge10_Node000003_Node000011" class="edge">
<title>Node3&#45;&gt;Node11</title>
<g id="a_edge10_Node000003_Node000011"><a xlink:title=" ">
<path fill="none" stroke="#63b8ff" d="M427.44,-55.53C465.91,-46.5 524.03,-32.85 565.79,-23.05"/>
<polygon fill="#63b8ff" stroke="#63b8ff" points="566.42,-26.5 575.36,-20.8 564.82,-19.68 566.42,-26.5"/>
</a>
</g>
</g>
<!-- Node12&#45;&gt;Node3 -->
<g id="edge12_Node000012_Node000003" class="edge">
<title>Node12&#45;&gt;Node3</title>
<g id="a_edge12_Node000012_Node000003"><a xlink:title=" ">
<path fill="none" stroke="#63b8ff" d="M387.11,-111.59C387.11,-105.01 387.11,-95.96 387.11,-87.73"/>
<polygon fill="#63b8ff" stroke="#63b8ff" points="390.61,-87.81 387.11,-77.81 383.61,-87.81 390.61,-87.81"/>
</a>
</g>
</g>
<!-- Node13 -->
<g id="Node000013" class="node">
<title>Node13</title>
<g id="a_Node000013"><a xlink:href="_r_t_t_i_8inl.html" target="_top" xlink:title=" ">
<polygon fill="white" stroke="#666666" points="599.36,-76 470.86,-76 470.86,-56 599.36,-56 599.36,-76"/>
<text text-anchor="middle" x="535.11" y="-62.5" font-family="Helvetica,sans-Serif" font-size="10.00">FieaGameEngine/RTTI.inl</text>
</a>
</g>
</g>
<!-- Node12&#45;&gt;Node13 -->
<g id="edge13_Node000012_Node000013" class="edge">
<title>Node12&#45;&gt;Node13</title>
<g id="a_edge13_Node000012_Node000013"><a xlink:title=" ">
<path fill="none" stroke="#63b8ff" d="M407.63,-111.59C429.72,-102.9 465.17,-89.89 493.15,-80.16"/>
<polygon fill="#63b8ff" stroke="#63b8ff" points="494.1,-83.54 502.42,-76.97 491.82,-76.92 494.1,-83.54"/>
</a>
</g>
</g>
<!-- Node13&#45;&gt;Node12 -->
<g id="edge14_Node000013_Node000012" class="edge">
<title>Node13&#45;&gt;Node12</title>
<g id="a_edge14_Node000013_Node000012"><a xlink:title=" ">
<path fill="none" stroke="#63b8ff" d="M514.83,-76.31C490.69,-85.83 450.37,-100.56 421.4,-110.49"/>
<polygon fill="#63b8ff" stroke="#63b8ff" points="420.32,-107.16 411.96,-113.68 422.56,-113.79 420.32,-107.16"/>
</a>
</g>
</g>
<!-- Node14&#45;&gt;Node3 -->
<g id="edge16_Node000014_Node000003" class="edge">
<title>Node14&#45;&gt;Node3</title>
<g id="a_edge16_Node000014_Node000003"><a xlink:title=" ">
<path fill="none" stroke="#63b8ff" d="M228.56,-111.59C260.16,-102.71 307.79,-89.31 342.59,-79.52"/>
<polygon fill="#63b8ff" stroke="#63b8ff" points="343.27,-82.97 351.95,-76.89 341.38,-76.23 343.27,-82.97"/>
</a>
</g>
</g>
<!-- Node15 -->
<g id="Node000015" class="node">
<title>Node15</title>
<g id="a_Node000015"><a xlink:title=" ">
<polygon fill="#e0e0e0" stroke="#999999" points="248.61,-76 205.61,-76 205.61,-56 248.61,-56 248.61,-76"/>
<text text-anchor="middle" x="227.11" y="-62.5" font-family="Helvetica,sans-Serif" font-size="10.00">vector</text>
</a>
</g>
</g>
<!-- Node14&#45;&gt;Node15 -->
<g id="edge17_Node000014_Node000015" class="edge">
<title>Node14&#45;&gt;Node15</title>
<g id="a_edge17_Node000014_Node000015"><a xlink:title=" ">
<path fill="none" stroke="#63b8ff" d="M200.69,-111.59C204.86,-104.55 210.72,-94.67 215.85,-86"/>
<polygon fill="#63b8ff" stroke="#63b8ff" points="218.74,-87.99 220.83,-77.6 212.72,-84.42 218.74,-87.99"/>
</a>
</g>
</g>
<!-- Node14&#45;&gt;Node16 -->
<g id="edge18_Node000014_Node000016" class="edge">
<title>Node14&#45;&gt;Node16</title>
<g id="a_edge18_Node000014_Node000016"><a xlink:title=" ">
<path fill="none" stroke="#63b8ff" d="M183.79,-111.59C174.47,-103.85 161.03,-92.69 149.94,-83.47"/>
<polygon fill="#63b8ff" stroke="#63b8ff" points="152.4,-80.96 142.47,-77.27 147.92,-86.35 152.4,-80.96"/>
</a>
</g>
</g>
<!-- Node18&#45;&gt;Node2 -->
<g id="edge36_Node000018_Node000002" class="edge">
<title>Node18&#45;&gt;Node2</title>
<g id="a_edge36_Node000018_Node000002"><a xlink:title=" ">
<path fill="none" stroke="#63b8ff" d="M262.23,-223.59C228.17,-214.67 176.78,-201.19 139.39,-191.39"/>
<polygon fill="#63b8ff" stroke="#63b8ff" points="140.3,-188.01 129.74,-188.86 138.52,-194.78 140.3,-188.01"/>
</a>
</g>
</g>
<!-- Node18&#45;&gt;Node12 -->
<g id="edge23_Node000018_Node000012" class="edge">
<title>Node18&#45;&gt;Node12</title>
<g id="a_edge23_Node000018_Node000012"><a xlink:title=" ">
<path fill="none" stroke="#63b8ff" d="M305.7,-223.62C320.48,-205.36 353.35,-164.73 372.49,-141.07"/>
<polygon fill="#63b8ff" stroke="#63b8ff" points="375.02,-143.51 378.59,-133.53 369.58,-139.1 375.02,-143.51"/>
</a>
</g>
</g>
<!-- Node18&#45;&gt;Node15 -->
<g id="edge33_Node000018_Node000015" class="edge">
<title>Node18&#45;&gt;Node15</title>
<g id="a_edge33_Node000018_Node000015"><a xlink:title=" ">
<path fill="none" stroke="#63b8ff" d="M294.09,-223.6C282.82,-197.23 250.72,-122.19 235.42,-86.42"/>
<polygon fill="#63b8ff" stroke="#63b8ff" points="238.83,-85.51 231.68,-77.69 232.4,-88.26 238.83,-85.51"/>
</a>
</g>
</g>
<!-- Node18&#45;&gt;Node16 -->
<g id="edge34_Node000018_Node000016" class="edge">
<title>Node18&#45;&gt;Node16</title>
<g id="a_edge34_Node000018_Node000016"><a xlink:title=" ">
<path fill="none" stroke="#63b8ff" d="M281.44,-223.65C246.5,-203.75 167.33,-157 149.11,-132 139.57,-118.91 134.8,-101.07 132.42,-87.4"/>
<polygon fill="#63b8ff" stroke="#63b8ff" points="135.92,-87.17 131.06,-77.76 128.99,-88.15 135.92,-87.17"/>
</a>
</g>
</g>
<!-- Node19 -->
<g id="Node000019" class="node">
<title>Node19</title>
<g id="a_Node000019"><a xlink:href="_datum_8h.html" target="_top" xlink:title=" ">
<polygon fill="white" stroke="#666666" points="483.86,-188 430.36,-188 430.36,-168 483.86,-168 483.86,-188"/>
<text text-anchor="middle" x="457.11" y="-174.5" font-family="Helvetica,sans-Serif" font-size="10.00">Datum.h</text>
</a>
</g>
</g>
<!-- Node18&#45;&gt;Node19 -->
<g id="edge24_Node000018_Node000019" class="edge">
<title>Node18&#45;&gt;Node19</title>
<g id="a_edge24_Node000018_Node000019"><a xlink:title=" ">
<path fill="none" stroke="#63b8ff" d="M325.81,-223.59C351.65,-214.82 390.43,-201.65 419.15,-191.89"/>
<polygon fill="#63b8ff" stroke="#63b8ff" points="420.22,-195.22 428.57,-188.69 417.97,-188.6 420.22,-195.22"/>
</a>
</g>
</g>
<!-- Node24 -->
<g id="Node000024" class="node">
<title>Node24</title>
<g id="a_Node000024"><a xlink:title=" ">
<polygon fill="#e0e0e0" stroke="#999999" points="398.49,-188 363.74,-188 363.74,-168 398.49,-168 398.49,-188"/>
<text text-anchor="middle" x="381.11" y="-174.5" font-family="Helvetica,sans-Serif" font-size="10.00">map</text>
</a>
</g>
</g>
<!-- Node18&#45;&gt;Node24 -->
<g id="edge35_Node000018_Node000024" class="edge">
<title>Node18&#45;&gt;Node24</title>
<g id="a_edge35_Node000018_Node000024"><a xlink:title=" ">
<path fill="none" stroke="#63b8ff" d="M312.57,-223.59C324.87,-215.59 342.79,-203.93 357.22,-194.54"/>
<polygon fill="#63b8ff" stroke="#63b8ff" points="358.8,-197.69 365.27,-189.3 354.98,-191.82 358.8,-197.69"/>
</a>
</g>
</g>
<!-- Node19&#45;&gt;Node9 -->
<g id="edge25_Node000019_Node000009" class="edge">
<title>Node19&#45;&gt;Node9</title>
<g id="a_edge25_Node000019_Node000009"><a xlink:title=" ">
<path fill="none" stroke="#63b8ff" d="M431.09,-167.59C409.93,-159.47 379.68,-146.73 355.11,-132 308.14,-103.84 304.87,-84.51 258.11,-56 236.63,-42.9 210.7,-31.16 190.91,-22.95"/>
<polygon fill="#63b8ff" stroke="#63b8ff" points="192.31,-19.75 181.73,-19.23 189.68,-26.23 192.31,-19.75"/>
</a>
</g>
</g>
<!-- Node19&#45;&gt;Node12 -->
<g id="edge29_Node000019_Node000012" class="edge">
<title>Node19&#45;&gt;Node12</title>
<g id="a_edge29_Node000019_Node000012"><a xlink:title=" ">
<path fill="none" stroke="#63b8ff" d="M444.92,-167.59C434.78,-159.77 420.12,-148.46 408.1,-139.19"/>
<polygon fill="#63b8ff" stroke="#63b8ff" points="410.42,-136.56 400.36,-133.22 406.14,-142.1 410.42,-136.56"/>
</a>
</g>
</g>
<!-- Node20 -->
<g id="Node000020" class="node">
<title>Node20</title>
<g id="a_Node000020"><a xlink:title=" ">
<polygon fill="#e0e0e0" stroke="#999999" points="559.99,-132 504.24,-132 504.24,-112 559.99,-112 559.99,-132"/>
<text text-anchor="middle" x="532.11" y="-118.5" font-family="Helvetica,sans-Serif" font-size="10.00">charconv</text>
</a>
</g>
</g>
<!-- Node19&#45;&gt;Node20 -->
<g id="edge26_Node000019_Node000020" class="edge">
<title>Node19&#45;&gt;Node20</title>
<g id="a_edge26_Node000019_Node000020"><a xlink:title=" ">
<path fill="none" stroke="#63b8ff" d="M470.18,-167.59C481.08,-159.74 496.86,-148.38 509.77,-139.09"/>
<polygon fill="#63b8ff" stroke="#63b8ff" points="511.65,-142.05 517.72,-133.36 507.56,-136.37 511.65,-142.05"/>
</a>
</g>
</g>
<!-- Node21 -->
<g id="Node000021" class="node">
<title>Node21</title>
<g id="a_Node000021"><a xlink:title=" ">
<polygon fill="#e0e0e0" stroke="#999999" points="647.74,-132 578.49,-132 578.49,-112 647.74,-112 647.74,-132"/>
<text text-anchor="middle" x="613.11" y="-118.5" font-family="Helvetica,sans-Serif" font-size="10.00">glm/glm.hpp</text>
</a>
</g>
</g>
<!-- Node19&#45;&gt;Node21 -->
<g id="edge27_Node000019_Node000021" class="edge">
<title>Node19&#45;&gt;Node21</title>
<g id="a_edge27_Node000019_Node000021"><a xlink:title=" ">
<path fill="none" stroke="#63b8ff" d="M484.29,-167.59C509.41,-158.9 546.99,-145.89 575.09,-136.16"/>
<polygon fill="#63b8ff" stroke="#63b8ff" points="575.99,-139.55 584.3,-132.97 573.7,-132.94 575.99,-139.55"/>
</a>
</g>
</g>
<!-- Node22 -->
<g id="Node000022" class="node">
<title>Node22</title>
<g id="a_Node000022"><a xlink:title=" ">
<polygon fill="#e0e0e0" stroke="#999999" points="784.11,-132 666.11,-132 666.11,-112 784.11,-112 784.11,-132"/>
<text text-anchor="middle" x="725.11" y="-118.5" font-family="Helvetica,sans-Serif" font-size="10.00">glm/gtx/string_cast.hpp</text>
</a>
</g>
</g>
<!-- Node19&#45;&gt;Node22 -->
<g id="edge28_Node000019_Node000022" class="edge">
<title>Node19&#45;&gt;Node22</title>
<g id="a_edge28_Node000019_Node000022"><a xlink:title=" ">
<path fill="none" stroke="#63b8ff" d="M484.28,-171.53C526.95,-162.93 610.62,-146.07 667.21,-134.67"/>
<polygon fill="#63b8ff" stroke="#63b8ff" points="667.55,-138.17 676.66,-132.76 666.17,-131.31 667.55,-138.17"/>
</a>
</g>
</g>
<!-- Node23 -->
<g id="Node000023" class="node">
<title>Node23</title>
<g id="a_Node000023"><a xlink:href="_datum_8inl.html" target="_top" xlink:title=" ">
<polygon fill="white" stroke="#666666" points="486.11,-132 428.11,-132 428.11,-112 486.11,-112 486.11,-132"/>
<text text-anchor="middle" x="457.11" y="-118.5" font-family="Helvetica,sans-Serif" font-size="10.00">Datum.inl</text>
</a>
</g>
</g>
<!-- Node19&#45;&gt;Node23 -->
<g id="edge30_Node000019_Node000023" class="edge">
<title>Node19&#45;&gt;Node23</title>
<g id="a_edge30_Node000019_Node000023"><a xlink:title=" ">
<path fill="none" stroke="#63b8ff" d="M451.85,-167.59C450.53,-161.01 450.09,-151.96 450.53,-143.73"/>
<polygon fill="#63b8ff" stroke="#63b8ff" points="454,-144.14 451.69,-133.8 447.05,-143.33 454,-144.14"/>
</a>
</g>
</g>
<!-- Node23&#45;&gt;Node3 -->
<g id="edge31_Node000023_Node000003" class="edge">
<title>Node23&#45;&gt;Node3</title>
<g id="a_edge31_Node000023_Node000003"><a xlink:title=" ">
<path fill="none" stroke="#63b8ff" d="M444.92,-111.59C434.78,-103.77 420.12,-92.46 408.1,-83.19"/>
<polygon fill="#63b8ff" stroke="#63b8ff" points="410.42,-80.56 400.36,-77.22 406.14,-86.1 410.42,-80.56"/>
</a>
</g>
</g>
<!-- Node23&#45;&gt;Node19 -->
<g id="edge32_Node000023_Node000019" class="edge">
<title>Node23&#45;&gt;Node19</title>
<g id="a_edge32_Node000023_Node000019"><a xlink:title=" ">
<path fill="none" stroke="#63b8ff" d="M462.36,-132.3C463.7,-138.93 464.14,-148.11 463.69,-156.43"/>
<polygon fill="#63b8ff" stroke="#63b8ff" points="460.24,-155.75 462.56,-166.09 467.2,-156.57 460.24,-155.75"/>
</a>
</g>
</g>
</g>
</svg>
