<?xml version="1.0" encoding="UTF-8" standalone="no"?>
<!DOCTYPE svg PUBLIC "-//W3C//DTD SVG 1.1//EN"
 "http://www.w3.org/Graphics/SVG/1.1/DTD/svg11.dtd">
<!-- Generated by graphviz version 12.2.1 (20241206.2353)
 -->
<!-- Title: FIEAGameEngine/include/FIEAGameEngine/FactoryService.h Pages: 1 -->
<svg width="645pt" height="208pt"
 viewBox="0.00 0.00 645.25 208.00" xmlns="http://www.w3.org/2000/svg" xmlns:xlink="http://www.w3.org/1999/xlink">
<g id="graph0" class="graph" transform="scale(1 1) rotate(0) translate(4 204)">
<title>FIEAGameEngine/include/FIEAGameEngine/FactoryService.h</title>
<!-- Node1 -->
<g id="Node000001" class="node">
<title>Node1</title>
<g id="a_Node000001"><a xlink:title=" ">
<polygon fill="#999999" stroke="#666666" points="379.5,-200 204.5,-200 204.5,-168 379.5,-168 379.5,-200"/>
<text text-anchor="start" x="212.5" y="-186.5" font-family="Helvetica,sans-Serif" font-size="10.00">FIEAGameEngine/include</text>
<text text-anchor="middle" x="292" y="-174.5" font-family="Helvetica,sans-Serif" font-size="10.00">/FIEAGameEngine/FactoryService.h</text>
</a>
</g>
</g>
<!-- Node2 -->
<g id="Node000002" class="node">
<title>Node2</title>
<g id="a_Node000002"><a xlink:href="_types_8h.html" target="_top" xlink:title=" ">
<polygon fill="white" stroke="#666666" points="326.12,-76 193.88,-76 193.88,-56 326.12,-56 326.12,-76"/>
<text text-anchor="middle" x="260" y="-62.5" font-family="Helvetica,sans-Serif" font-size="10.00">FIEAGameEngine/Types.h</text>
</a>
</g>
</g>
<!-- Node1&#45;&gt;Node2 -->
<g id="edge1_Node000001_Node000002" class="edge">
<title>Node1&#45;&gt;Node2</title>
<g id="a_edge1_Node000001_Node000002"><a xlink:title=" ">
<path fill="none" stroke="#63b8ff" d="M287.82,-167.84C282.13,-147.22 271.94,-110.29 265.6,-87.31"/>
<polygon fill="#63b8ff" stroke="#63b8ff" points="269.04,-86.61 263.01,-77.9 262.29,-88.47 269.04,-86.61"/>
</a>
</g>
</g>
<!-- Node8 -->
<g id="Node000008" class="node">
<title>Node8</title>
<g id="a_Node000008"><a xlink:title=" ">
<polygon fill="#e0e0e0" stroke="#999999" points="40,-20 0,-20 0,0 40,0 40,-20"/>
<text text-anchor="middle" x="20" y="-6.5" font-family="Helvetica,sans-Serif" font-size="10.00">string</text>
</a>
</g>
</g>
<!-- Node1&#45;&gt;Node8 -->
<g id="edge18_Node000001_Node000008" class="edge">
<title>Node1&#45;&gt;Node8</title>
<g id="a_edge18_Node000001_Node000008"><a xlink:title=" ">
<path fill="none" stroke="#63b8ff" d="M204.12,-168.79C147.93,-154.93 78.43,-127.95 39,-76 29.2,-63.09 24.45,-45.25 22.15,-31.52"/>
<polygon fill="#63b8ff" stroke="#63b8ff" points="25.64,-31.27 20.85,-21.83 18.71,-32.2 25.64,-31.27"/>
</a>
</g>
</g>
<!-- Node11 -->
<g id="Node000011" class="node">
<title>Node11</title>
<g id="a_Node000011"><a xlink:href="_r_t_t_i_8h.html" target="_top" xlink:title=" ">
<polygon fill="white" stroke="#666666" points="184,-132 138,-132 138,-112 184,-112 184,-132"/>
<text text-anchor="middle" x="161" y="-118.5" font-family="Helvetica,sans-Serif" font-size="10.00">RTTI.h</text>
</a>
</g>
</g>
<!-- Node1&#45;&gt;Node11 -->
<g id="edge10_Node000001_Node000011" class="edge">
<title>Node1&#45;&gt;Node11</title>
<g id="a_edge10_Node000001_Node000011"><a xlink:title=" ">
<path fill="none" stroke="#63b8ff" d="M258.26,-167.55C237.8,-158.17 211.87,-146.3 191.93,-137.17"/>
<polygon fill="#63b8ff" stroke="#63b8ff" points="193.47,-134.02 182.92,-133.04 190.55,-140.38 193.47,-134.02"/>
</a>
</g>
</g>
<!-- Node13 -->
<g id="Node000013" class="node">
<title>Node13</title>
<g id="a_Node000013"><a xlink:href="_service_mgr_8h.html" target="_top" xlink:title=" ">
<polygon fill="white" stroke="#666666" points="361.88,-132 288.12,-132 288.12,-112 361.88,-112 361.88,-132"/>
<text text-anchor="middle" x="325" y="-118.5" font-family="Helvetica,sans-Serif" font-size="10.00">ServiceMgr.h</text>
</a>
</g>
</g>
<!-- Node1&#45;&gt;Node13 -->
<g id="edge14_Node000001_Node000013" class="edge">
<title>Node1&#45;&gt;Node13</title>
<g id="a_edge14_Node000001_Node000013"><a xlink:title=" ">
<path fill="none" stroke="#63b8ff" d="M300.5,-167.55C304.7,-159.91 309.81,-150.61 314.28,-142.49"/>
<polygon fill="#63b8ff" stroke="#63b8ff" points="317.34,-144.18 319.1,-133.73 311.21,-140.81 317.34,-144.18"/>
</a>
</g>
</g>
<!-- Node15 -->
<g id="Node000015" class="node">
<title>Node15</title>
<g id="a_Node000015"><a xlink:title=" ">
<polygon fill="#e0e0e0" stroke="#999999" points="488.38,-76 405.62,-76 405.62,-56 488.38,-56 488.38,-76"/>
<text text-anchor="middle" x="447" y="-62.5" font-family="Helvetica,sans-Serif" font-size="10.00">unordered_map</text>
</a>
</g>
</g>
<!-- Node1&#45;&gt;Node15 -->
<g id="edge20_Node000001_Node000015" class="edge">
<title>Node1&#45;&gt;Node15</title>
<g id="a_edge20_Node000001_Node000015"><a xlink:title=" ">
<path fill="none" stroke="#63b8ff" d="M317.85,-167.54C333.57,-157.83 353.85,-144.78 371,-132 391.52,-116.71 413.61,-97.48 428.65,-83.91"/>
<polygon fill="#63b8ff" stroke="#63b8ff" points="430.88,-86.62 435.92,-77.3 426.16,-81.44 430.88,-86.62"/>
</a>
</g>
</g>
<!-- Node16 -->
<g id="Node000016" class="node">
<title>Node16</title>
<g id="a_Node000016"><a xlink:title=" ">
<polygon fill="#e0e0e0" stroke="#999999" points="469.62,-132 418.38,-132 418.38,-112 469.62,-112 469.62,-132"/>
<text text-anchor="middle" x="444" y="-118.5" font-family="Helvetica,sans-Serif" font-size="10.00">memory</text>
</a>
</g>
</g>
<!-- Node1&#45;&gt;Node16 -->
<g id="edge19_Node000001_Node000016" class="edge">
<title>Node1&#45;&gt;Node16</title>
<g id="a_edge19_Node000001_Node000016"><a xlink:title=" ">
<path fill="none" stroke="#63b8ff" d="M331.14,-167.55C355.44,-157.96 386.38,-145.75 409.71,-136.54"/>
<polygon fill="#63b8ff" stroke="#63b8ff" points="410.74,-139.89 418.76,-132.96 408.17,-133.38 410.74,-139.89"/>
</a>
</g>
</g>
<!-- Node3 -->
<g id="Node000003" class="node">
<title>Node3</title>
<g id="a_Node000003"><a xlink:title=" ">
<polygon fill="#e0e0e0" stroke="#999999" points="637.25,-20 574.75,-20 574.75,0 637.25,0 637.25,-20"/>
<text text-anchor="middle" x="606" y="-6.5" font-family="Helvetica,sans-Serif" font-size="10.00">windows.h</text>
</a>
</g>
</g>
<!-- Node2&#45;&gt;Node3 -->
<g id="edge2_Node000002_Node000003" class="edge">
<title>Node2&#45;&gt;Node3</title>
<g id="a_edge2_Node000002_Node000003"><a xlink:title=" ">
<path fill="none" stroke="#63b8ff" d="M326.5,-56.69C386.09,-48.91 476.15,-36.33 563.42,-20.37"/>
<polygon fill="#63b8ff" stroke="#63b8ff" points="563.92,-23.83 573.11,-18.57 562.65,-16.95 563.92,-23.83"/>
</a>
</g>
</g>
<!-- Node4 -->
<g id="Node000004" class="node">
<title>Node4</title>
<g id="a_Node000004"><a xlink:title=" ">
<polygon fill="#e0e0e0" stroke="#999999" points="106.12,-20 57.88,-20 57.88,0 106.12,0 106.12,-20"/>
<text text-anchor="middle" x="82" y="-6.5" font-family="Helvetica,sans-Serif" font-size="10.00">cassert</text>
</a>
</g>
</g>
<!-- Node2&#45;&gt;Node4 -->
<g id="edge3_Node000002_Node000004" class="edge">
<title>Node2&#45;&gt;Node4</title>
<g id="a_edge3_Node000002_Node000004"><a xlink:title=" ">
<path fill="none" stroke="#63b8ff" d="M228.99,-55.59C197.81,-46.13 149.8,-31.57 117.2,-21.68"/>
<polygon fill="#63b8ff" stroke="#63b8ff" points="118.4,-18.38 107.81,-18.83 116.37,-25.08 118.4,-18.38"/>
</a>
</g>
</g>
<!-- Node5 -->
<g id="Node000005" class="node">
<title>Node5</title>
<g id="a_Node000005"><a xlink:title=" ">
<polygon fill="#e0e0e0" stroke="#999999" points="172.12,-20 123.88,-20 123.88,0 172.12,0 172.12,-20"/>
<text text-anchor="middle" x="148" y="-6.5" font-family="Helvetica,sans-Serif" font-size="10.00">cstddef</text>
</a>
</g>
</g>
<!-- Node2&#45;&gt;Node5 -->
<g id="edge4_Node000002_Node000005" class="edge">
<title>Node2&#45;&gt;Node5</title>
<g id="a_edge4_Node000002_Node000005"><a xlink:title=" ">
<path fill="none" stroke="#63b8ff" d="M240.49,-55.59C223.25,-47.28 197.84,-35.03 178.01,-25.47"/>
<polygon fill="#63b8ff" stroke="#63b8ff" points="179.55,-22.33 169.02,-21.14 176.51,-28.63 179.55,-22.33"/>
</a>
</g>
</g>
<!-- Node6 -->
<g id="Node000006" class="node">
<title>Node6</title>
<g id="a_Node000006"><a xlink:title=" ">
<polygon fill="#e0e0e0" stroke="#999999" points="235.62,-20 190.38,-20 190.38,0 235.62,0 235.62,-20"/>
<text text-anchor="middle" x="213" y="-6.5" font-family="Helvetica,sans-Serif" font-size="10.00">cstdint</text>
</a>
</g>
</g>
<!-- Node2&#45;&gt;Node6 -->
<g id="edge5_Node000002_Node000006" class="edge">
<title>Node2&#45;&gt;Node6</title>
<g id="a_edge5_Node000002_Node000006"><a xlink:title=" ">
<path fill="none" stroke="#63b8ff" d="M251.81,-55.59C245.41,-48.24 236.32,-37.8 228.55,-28.87"/>
<polygon fill="#63b8ff" stroke="#63b8ff" points="231.29,-26.69 222.09,-21.44 226.01,-31.28 231.29,-26.69"/>
</a>
</g>
</g>
<!-- Node7 -->
<g id="Node000007" class="node">
<title>Node7</title>
<g id="a_Node000007"><a xlink:title=" ">
<polygon fill="#e0e0e0" stroke="#999999" points="306.38,-20 253.62,-20 253.62,0 306.38,0 306.38,-20"/>
<text text-anchor="middle" x="280" y="-6.5" font-family="Helvetica,sans-Serif" font-size="10.00">cstdbool</text>
</a>
</g>
</g>
<!-- Node2&#45;&gt;Node7 -->
<g id="edge6_Node000002_Node000007" class="edge">
<title>Node2&#45;&gt;Node7</title>
<g id="a_edge6_Node000002_Node000007"><a xlink:title=" ">
<path fill="none" stroke="#63b8ff" d="M263.48,-55.59C266.01,-48.78 269.51,-39.32 272.64,-30.86"/>
<polygon fill="#63b8ff" stroke="#63b8ff" points="275.84,-32.31 276.03,-21.72 269.28,-29.88 275.84,-32.31"/>
</a>
</g>
</g>
<!-- Node2&#45;&gt;Node8 -->
<g id="edge7_Node000002_Node000008" class="edge">
<title>Node2&#45;&gt;Node8</title>
<g id="a_edge7_Node000002_Node000008"><a xlink:title=" ">
<path fill="none" stroke="#63b8ff" d="M209.39,-55.55C168.97,-47.7 110.68,-35.71 51.31,-20.42"/>
<polygon fill="#63b8ff" stroke="#63b8ff" points="52.24,-17.05 41.68,-17.91 50.47,-23.82 52.24,-17.05"/>
</a>
</g>
</g>
<!-- Node9 -->
<g id="Node000009" class="node">
<title>Node9</title>
<g id="a_Node000009"><a xlink:title=" ">
<polygon fill="#e0e0e0" stroke="#999999" points="379.12,-20 324.88,-20 324.88,0 379.12,0 379.12,-20"/>
<text text-anchor="middle" x="352" y="-6.5" font-family="Helvetica,sans-Serif" font-size="10.00">crtdefs.h</text>
</a>
</g>
</g>
<!-- Node2&#45;&gt;Node9 -->
<g id="edge8_Node000002_Node000009" class="edge">
<title>Node2&#45;&gt;Node9</title>
<g id="a_edge8_Node000002_Node000009"><a xlink:title=" ">
<path fill="none" stroke="#63b8ff" d="M276.03,-55.59C289.79,-47.51 309.9,-35.71 325.98,-26.27"/>
<polygon fill="#63b8ff" stroke="#63b8ff" points="327.69,-29.33 334.54,-21.25 324.15,-23.29 327.69,-29.33"/>
</a>
</g>
</g>
<!-- Node10 -->
<g id="Node000010" class="node">
<title>Node10</title>
<g id="a_Node000010"><a xlink:title=" ">
<polygon fill="#e0e0e0" stroke="#999999" points="557,-20 397,-20 397,0 557,0 557,-20"/>
<text text-anchor="middle" x="477" y="-6.5" font-family="Helvetica,sans-Serif" font-size="10.00">../src/memory/SystemAllocator.h</text>
</a>
</g>
</g>
<!-- Node2&#45;&gt;Node10 -->
<g id="edge9_Node000002_Node000010" class="edge">
<title>Node2&#45;&gt;Node10</title>
<g id="a_edge9_Node000002_Node000010"><a xlink:title=" ">
<path fill="none" stroke="#63b8ff" d="M297.8,-55.59C333.91,-46.61 388.51,-33.02 427.96,-23.2"/>
<polygon fill="#63b8ff" stroke="#63b8ff" points="428.58,-26.66 437.44,-20.84 426.89,-19.86 428.58,-26.66"/>
</a>
</g>
</g>
<!-- Node11&#45;&gt;Node2 -->
<g id="edge11_Node000011_Node000002" class="edge">
<title>Node11&#45;&gt;Node2</title>
<g id="a_edge11_Node000011_Node000002"><a xlink:title=" ">
<path fill="none" stroke="#63b8ff" d="M178.24,-111.59C193.34,-103.36 215.53,-91.26 232.98,-81.74"/>
<polygon fill="#63b8ff" stroke="#63b8ff" points="234.19,-85.07 241.29,-77.2 230.84,-78.92 234.19,-85.07"/>
</a>
</g>
</g>
<!-- Node12 -->
<g id="Node000012" class="node">
<title>Node12</title>
<g id="a_Node000012"><a xlink:href="_r_t_t_i_8inl.html" target="_top" xlink:title=" ">
<polygon fill="white" stroke="#666666" points="176.25,-76 47.75,-76 47.75,-56 176.25,-56 176.25,-76"/>
<text text-anchor="middle" x="112" y="-62.5" font-family="Helvetica,sans-Serif" font-size="10.00">FieaGameEngine/RTTI.inl</text>
</a>
</g>
</g>
<!-- Node11&#45;&gt;Node12 -->
<g id="edge12_Node000011_Node000012" class="edge">
<title>Node11&#45;&gt;Node12</title>
<g id="a_edge12_Node000011_Node000012"><a xlink:title=" ">
<path fill="none" stroke="#63b8ff" d="M147.2,-111.59C139.14,-104.32 129.41,-94.02 122.05,-85.15"/>
<polygon fill="#63b8ff" stroke="#63b8ff" points="125.01,-83.25 116.12,-77.49 119.48,-87.54 125.01,-83.25"/>
</a>
</g>
</g>
<!-- Node12&#45;&gt;Node11 -->
<g id="edge13_Node000012_Node000011" class="edge">
<title>Node12&#45;&gt;Node11</title>
<g id="a_edge13_Node000012_Node000011"><a xlink:title=" ">
<path fill="none" stroke="#63b8ff" d="M125.68,-76.3C133.73,-83.55 143.46,-93.84 150.84,-102.72"/>
<polygon fill="#63b8ff" stroke="#63b8ff" points="147.91,-104.65 156.8,-110.4 153.43,-100.35 147.91,-104.65"/>
</a>
</g>
</g>
<!-- Node13&#45;&gt;Node2 -->
<g id="edge15_Node000013_Node000002" class="edge">
<title>Node13&#45;&gt;Node2</title>
<g id="a_edge15_Node000013_Node000002"><a xlink:title=" ">
<path fill="none" stroke="#63b8ff" d="M313.68,-111.59C304.36,-103.85 290.92,-92.69 279.82,-83.47"/>
<polygon fill="#63b8ff" stroke="#63b8ff" points="282.29,-80.96 272.36,-77.27 277.81,-86.35 282.29,-80.96"/>
</a>
</g>
</g>
<!-- Node14 -->
<g id="Node000014" class="node">
<title>Node14</title>
<g id="a_Node000014"><a xlink:title=" ">
<polygon fill="#e0e0e0" stroke="#999999" points="387.5,-76 344.5,-76 344.5,-56 387.5,-56 387.5,-76"/>
<text text-anchor="middle" x="366" y="-62.5" font-family="Helvetica,sans-Serif" font-size="10.00">vector</text>
</a>
</g>
</g>
<!-- Node13&#45;&gt;Node14 -->
<g id="edge16_Node000013_Node000014" class="edge">
<title>Node13&#45;&gt;Node14</title>
<g id="a_edge16_Node000013_Node000014"><a xlink:title=" ">
<path fill="none" stroke="#63b8ff" d="M332.14,-111.59C337.61,-104.39 345.32,-94.23 352.01,-85.43"/>
<polygon fill="#63b8ff" stroke="#63b8ff" points="354.77,-87.58 358.02,-77.5 349.19,-83.35 354.77,-87.58"/>
</a>
</g>
</g>
<!-- Node13&#45;&gt;Node15 -->
<g id="edge17_Node000013_Node000015" class="edge">
<title>Node13&#45;&gt;Node15</title>
<g id="a_edge17_Node000013_Node000015"><a xlink:title=" ">
<path fill="none" stroke="#63b8ff" d="M346.25,-111.59C365.29,-103.17 393.48,-90.69 415.2,-81.07"/>
<polygon fill="#63b8ff" stroke="#63b8ff" points="416.47,-84.34 424.2,-77.09 413.64,-77.94 416.47,-84.34"/>
</a>
</g>
</g>
</g>
</svg>
