<?xml version="1.0" encoding="UTF-8" standalone="no"?>
<!DOCTYPE svg PUBLIC "-//W3C//DTD SVG 1.1//EN"
 "http://www.w3.org/Graphics/SVG/1.1/DTD/svg11.dtd">
<!-- Generated by graphviz version 12.2.1 (20241206.2353)
 -->
<!-- Title: FIEAGameEngine/src/content/FloatParseHandler.cpp Pages: 1 -->
<svg width="1079pt" height="376pt"
 viewBox="0.00 0.00 1079.38 376.00" xmlns="http://www.w3.org/2000/svg" xmlns:xlink="http://www.w3.org/1999/xlink">
<g id="graph0" class="graph" transform="scale(1 1) rotate(0) translate(4 372)">
<title>FIEAGameEngine/src/content/FloatParseHandler.cpp</title>
<!-- Node1 -->
<g id="Node000001" class="node">
<title>Node1</title>
<g id="a_Node000001"><a xlink:title=" ">
<polygon fill="#999999" stroke="#666666" points="329.25,-368 175.25,-368 175.25,-336 329.25,-336 329.25,-368"/>
<text text-anchor="start" x="183.25" y="-354.5" font-family="Helvetica,sans-Serif" font-size="10.00">FIEAGameEngine/src</text>
<text text-anchor="middle" x="252.25" y="-342.5" font-family="Helvetica,sans-Serif" font-size="10.00">/content/FloatParseHandler.cpp</text>
</a>
</g>
</g>
<!-- Node2 -->
<g id="Node000002" class="node">
<title>Node2</title>
<g id="a_Node000002"><a xlink:href="_float_parse_handler_8h.html" target="_top" xlink:title=" ">
<polygon fill="white" stroke="#666666" points="155.62,-300 12.88,-300 12.88,-280 155.62,-280 155.62,-300"/>
<text text-anchor="middle" x="84.25" y="-286.5" font-family="Helvetica,sans-Serif" font-size="10.00">Content/FloatParseHandler.h</text>
</a>
</g>
</g>
<!-- Node1&#45;&gt;Node2 -->
<g id="edge1_Node000001_Node000002" class="edge">
<title>Node1&#45;&gt;Node2</title>
<g id="a_edge1_Node000001_Node000002"><a xlink:title=" ">
<path fill="none" stroke="#63b8ff" d="M208.99,-335.55C181.76,-325.83 147.01,-313.41 121.11,-304.16"/>
<polygon fill="#63b8ff" stroke="#63b8ff" points="122.61,-300.98 112.02,-300.92 120.26,-307.58 122.61,-300.98"/>
</a>
</g>
</g>
<!-- Node18 -->
<g id="Node000018" class="node">
<title>Node18</title>
<g id="a_Node000018"><a xlink:href="_test_writer_8h.html" target="_top" xlink:title=" ">
<polygon fill="white" stroke="#666666" points="897.5,-244 829,-244 829,-224 897.5,-224 897.5,-244"/>
<text text-anchor="middle" x="863.25" y="-230.5" font-family="Helvetica,sans-Serif" font-size="10.00">TestWriter.h</text>
</a>
</g>
</g>
<!-- Node1&#45;&gt;Node18 -->
<g id="edge19_Node000001_Node000018" class="edge">
<title>Node1&#45;&gt;Node18</title>
<g id="a_edge19_Node000001_Node000018"><a xlink:title=" ">
<path fill="none" stroke="#63b8ff" d="M329.63,-336.31C458.7,-311.8 713.97,-263.34 817.76,-243.64"/>
<polygon fill="#63b8ff" stroke="#63b8ff" points="818.13,-247.13 827.3,-241.83 816.82,-240.25 818.13,-247.13"/>
</a>
</g>
</g>
<!-- Node20 -->
<g id="Node000020" class="node">
<title>Node20</title>
<g id="a_Node000020"><a xlink:href="_scope_writer_8h.html" target="_top" xlink:title=" ">
<polygon fill="white" stroke="#666666" points="291,-300 213.5,-300 213.5,-280 291,-280 291,-300"/>
<text text-anchor="middle" x="252.25" y="-286.5" font-family="Helvetica,sans-Serif" font-size="10.00">ScopeWriter.h</text>
</a>
</g>
</g>
<!-- Node1&#45;&gt;Node20 -->
<g id="edge23_Node000001_Node000020" class="edge">
<title>Node1&#45;&gt;Node20</title>
<g id="a_edge23_Node000001_Node000020"><a xlink:title=" ">
<path fill="none" stroke="#63b8ff" d="M252.25,-335.55C252.25,-328.34 252.25,-319.66 252.25,-311.88"/>
<polygon fill="#63b8ff" stroke="#63b8ff" points="255.75,-311.92 252.25,-301.92 248.75,-311.92 255.75,-311.92"/>
</a>
</g>
</g>
<!-- Node3 -->
<g id="Node000003" class="node">
<title>Node3</title>
<g id="a_Node000003"><a xlink:href="_i_parse_handler_8h.html" target="_top" xlink:title=" ">
<polygon fill="white" stroke="#666666" points="86.5,-244 0,-244 0,-224 86.5,-224 86.5,-244"/>
<text text-anchor="middle" x="43.25" y="-230.5" font-family="Helvetica,sans-Serif" font-size="10.00">IParseHandler.h</text>
</a>
</g>
</g>
<!-- Node2&#45;&gt;Node3 -->
<g id="edge2_Node000002_Node000003" class="edge">
<title>Node2&#45;&gt;Node3</title>
<g id="a_edge2_Node000002_Node000003"><a xlink:title=" ">
<path fill="none" stroke="#63b8ff" d="M77.11,-279.59C71.64,-272.39 63.93,-262.23 57.24,-253.43"/>
<polygon fill="#63b8ff" stroke="#63b8ff" points="60.06,-251.35 51.23,-245.5 54.48,-255.58 60.06,-251.35"/>
</a>
</g>
</g>
<!-- Node4 -->
<g id="Node000004" class="node">
<title>Node4</title>
<g id="a_Node000004"><a xlink:href="_parse_writer_8h.html" target="_top" xlink:title=" ">
<polygon fill="white" stroke="#666666" points="236.88,-188 161.62,-188 161.62,-168 236.88,-168 236.88,-188"/>
<text text-anchor="middle" x="199.25" y="-174.5" font-family="Helvetica,sans-Serif" font-size="10.00">ParseWriter.h</text>
</a>
</g>
</g>
<!-- Node3&#45;&gt;Node4 -->
<g id="edge3_Node000003_Node000004" class="edge">
<title>Node3&#45;&gt;Node4</title>
<g id="a_edge3_Node000003_Node000004"><a xlink:title=" ">
<path fill="none" stroke="#63b8ff" d="M70.42,-223.59C95.55,-214.9 133.13,-201.89 161.23,-192.16"/>
<polygon fill="#63b8ff" stroke="#63b8ff" points="162.13,-195.55 170.43,-188.97 159.84,-188.94 162.13,-195.55"/>
</a>
</g>
</g>
<!-- Node12 -->
<g id="Node000012" class="node">
<title>Node12</title>
<g id="a_Node000012"><a xlink:title=" ">
<polygon fill="#e0e0e0" stroke="#999999" points="415.25,-20 375.25,-20 375.25,0 415.25,0 415.25,-20"/>
<text text-anchor="middle" x="395.25" y="-6.5" font-family="Helvetica,sans-Serif" font-size="10.00">string</text>
</a>
</g>
</g>
<!-- Node3&#45;&gt;Node12 -->
<g id="edge17_Node000003_Node000012" class="edge">
<title>Node3&#45;&gt;Node12</title>
<g id="a_edge17_Node000003_Node000012"><a xlink:title=" ">
<path fill="none" stroke="#63b8ff" d="M38.73,-223.86C33.03,-210.98 24.8,-186.96 32.25,-168 57.75,-103.06 80.11,-87.72 142.25,-56 215.3,-18.71 313.91,-11.77 363.69,-10.82"/>
<polygon fill="#63b8ff" stroke="#63b8ff" points="363.49,-14.33 373.45,-10.71 363.42,-7.33 363.49,-14.33"/>
</a>
</g>
</g>
<!-- Node17 -->
<g id="Node000017" class="node">
<title>Node17</title>
<g id="a_Node000017"><a xlink:title=" ">
<polygon fill="#e0e0e0" stroke="#999999" points="104.88,-188 41.62,-188 41.62,-168 104.88,-168 104.88,-188"/>
<text text-anchor="middle" x="73.25" y="-174.5" font-family="Helvetica,sans-Serif" font-size="10.00">json/json.h</text>
</a>
</g>
</g>
<!-- Node3&#45;&gt;Node17 -->
<g id="edge18_Node000003_Node000017" class="edge">
<title>Node3&#45;&gt;Node17</title>
<g id="a_edge18_Node000003_Node000017"><a xlink:title=" ">
<path fill="none" stroke="#63b8ff" d="M48.48,-223.59C52.35,-216.63 57.76,-206.89 62.53,-198.29"/>
<polygon fill="#63b8ff" stroke="#63b8ff" points="65.55,-200.06 67.35,-189.62 59.43,-196.66 65.55,-200.06"/>
</a>
</g>
</g>
<!-- Node5 -->
<g id="Node000005" class="node">
<title>Node5</title>
<g id="a_Node000005"><a xlink:href="_r_t_t_i_8h.html" target="_top" xlink:title=" ">
<polygon fill="white" stroke="#666666" points="279.12,-132 151.38,-132 151.38,-112 279.12,-112 279.12,-132"/>
<text text-anchor="middle" x="215.25" y="-118.5" font-family="Helvetica,sans-Serif" font-size="10.00">FIEAGameEngine/RTTI.h</text>
</a>
</g>
</g>
<!-- Node4&#45;&gt;Node5 -->
<g id="edge4_Node000004_Node000005" class="edge">
<title>Node4&#45;&gt;Node5</title>
<g id="a_edge4_Node000004_Node000005"><a xlink:title=" ">
<path fill="none" stroke="#63b8ff" d="M202.04,-167.59C204.03,-160.86 206.8,-151.53 209.28,-143.15"/>
<polygon fill="#63b8ff" stroke="#63b8ff" points="212.58,-144.33 212.06,-133.75 205.87,-142.34 212.58,-144.33"/>
</a>
</g>
</g>
<!-- Node16 -->
<g id="Node000016" class="node">
<title>Node16</title>
<g id="a_Node000016"><a xlink:title=" ">
<polygon fill="#e0e0e0" stroke="#999999" points="133.25,-132 93.25,-132 93.25,-112 133.25,-112 133.25,-132"/>
<text text-anchor="middle" x="113.25" y="-118.5" font-family="Helvetica,sans-Serif" font-size="10.00">stack</text>
</a>
</g>
</g>
<!-- Node4&#45;&gt;Node16 -->
<g id="edge16_Node000004_Node000016" class="edge">
<title>Node4&#45;&gt;Node16</title>
<g id="a_edge16_Node000004_Node000016"><a xlink:title=" ">
<path fill="none" stroke="#63b8ff" d="M184.27,-167.59C171.52,-159.59 152.96,-147.93 138.01,-138.54"/>
<polygon fill="#63b8ff" stroke="#63b8ff" points="139.96,-135.64 129.63,-133.28 136.24,-141.57 139.96,-135.64"/>
</a>
</g>
</g>
<!-- Node6 -->
<g id="Node000006" class="node">
<title>Node6</title>
<g id="a_Node000006"><a xlink:href="_types_8h.html" target="_top" xlink:title=" ">
<polygon fill="white" stroke="#666666" points="845.38,-76 713.12,-76 713.12,-56 845.38,-56 845.38,-76"/>
<text text-anchor="middle" x="779.25" y="-62.5" font-family="Helvetica,sans-Serif" font-size="10.00">FIEAGameEngine/Types.h</text>
</a>
</g>
</g>
<!-- Node5&#45;&gt;Node6 -->
<g id="edge5_Node000005_Node000006" class="edge">
<title>Node5&#45;&gt;Node6</title>
<g id="a_edge5_Node000005_Node000006"><a xlink:title=" ">
<path fill="none" stroke="#63b8ff" d="M279.4,-114.86C383.65,-104.88 589.48,-85.17 701.75,-74.42"/>
<polygon fill="#63b8ff" stroke="#63b8ff" points="701.85,-77.93 711.48,-73.49 701.19,-70.96 701.85,-77.93"/>
</a>
</g>
</g>
<!-- Node15 -->
<g id="Node000015" class="node">
<title>Node15</title>
<g id="a_Node000015"><a xlink:href="_r_t_t_i_8inl.html" target="_top" xlink:title=" ">
<polygon fill="white" stroke="#666666" points="279.5,-76 151,-76 151,-56 279.5,-56 279.5,-76"/>
<text text-anchor="middle" x="215.25" y="-62.5" font-family="Helvetica,sans-Serif" font-size="10.00">FieaGameEngine/RTTI.inl</text>
</a>
</g>
</g>
<!-- Node5&#45;&gt;Node15 -->
<g id="edge14_Node000005_Node000015" class="edge">
<title>Node5&#45;&gt;Node15</title>
<g id="a_edge14_Node000005_Node000015"><a xlink:title=" ">
<path fill="none" stroke="#63b8ff" d="M209.98,-111.59C208.67,-105.01 208.23,-95.96 208.66,-87.73"/>
<polygon fill="#63b8ff" stroke="#63b8ff" points="212.14,-88.14 209.83,-77.8 205.19,-87.33 212.14,-88.14"/>
</a>
</g>
</g>
<!-- Node7 -->
<g id="Node000007" class="node">
<title>Node7</title>
<g id="a_Node000007"><a xlink:title=" ">
<polygon fill="#e0e0e0" stroke="#999999" points="939.5,-20 877,-20 877,0 939.5,0 939.5,-20"/>
<text text-anchor="middle" x="908.25" y="-6.5" font-family="Helvetica,sans-Serif" font-size="10.00">windows.h</text>
</a>
</g>
</g>
<!-- Node6&#45;&gt;Node7 -->
<g id="edge6_Node000006_Node000007" class="edge">
<title>Node6&#45;&gt;Node7</title>
<g id="a_edge6_Node000006_Node000007"><a xlink:title=" ">
<path fill="none" stroke="#63b8ff" d="M801.72,-55.59C822.04,-47.09 852.2,-34.46 875.26,-24.81"/>
<polygon fill="#63b8ff" stroke="#63b8ff" points="876.34,-28.15 884.21,-21.06 873.63,-21.7 876.34,-28.15"/>
</a>
</g>
</g>
<!-- Node8 -->
<g id="Node000008" class="node">
<title>Node8</title>
<g id="a_Node000008"><a xlink:title=" ">
<polygon fill="#e0e0e0" stroke="#999999" points="1005.38,-20 957.12,-20 957.12,0 1005.38,0 1005.38,-20"/>
<text text-anchor="middle" x="981.25" y="-6.5" font-family="Helvetica,sans-Serif" font-size="10.00">cassert</text>
</a>
</g>
</g>
<!-- Node6&#45;&gt;Node8 -->
<g id="edge7_Node000006_Node000008" class="edge">
<title>Node6&#45;&gt;Node8</title>
<g id="a_edge7_Node000006_Node000008"><a xlink:title=" ">
<path fill="none" stroke="#63b8ff" d="M814.87,-55.58C846.82,-47.12 895.25,-34.26 945.91,-20.62"/>
<polygon fill="#63b8ff" stroke="#63b8ff" points="946.54,-24.08 955.28,-18.09 944.72,-17.32 946.54,-24.08"/>
</a>
</g>
</g>
<!-- Node9 -->
<g id="Node000009" class="node">
<title>Node9</title>
<g id="a_Node000009"><a xlink:title=" ">
<polygon fill="#e0e0e0" stroke="#999999" points="1071.38,-20 1023.12,-20 1023.12,0 1071.38,0 1071.38,-20"/>
<text text-anchor="middle" x="1047.25" y="-6.5" font-family="Helvetica,sans-Serif" font-size="10.00">cstddef</text>
</a>
</g>
</g>
<!-- Node6&#45;&gt;Node9 -->
<g id="edge8_Node000006_Node000009" class="edge">
<title>Node6&#45;&gt;Node9</title>
<g id="a_edge8_Node000006_Node000009"><a xlink:title=" ">
<path fill="none" stroke="#63b8ff" d="M835.06,-55.56C880.31,-47.63 945.97,-35.48 1011.8,-20.43"/>
<polygon fill="#63b8ff" stroke="#63b8ff" points="1012.36,-23.9 1021.32,-18.24 1010.79,-17.08 1012.36,-23.9"/>
</a>
</g>
</g>
<!-- Node10 -->
<g id="Node000010" class="node">
<title>Node10</title>
<g id="a_Node000010"><a xlink:title=" ">
<polygon fill="#e0e0e0" stroke="#999999" points="537.88,-20 492.62,-20 492.62,0 537.88,0 537.88,-20"/>
<text text-anchor="middle" x="515.25" y="-6.5" font-family="Helvetica,sans-Serif" font-size="10.00">cstdint</text>
</a>
</g>
</g>
<!-- Node6&#45;&gt;Node10 -->
<g id="edge9_Node000006_Node000010" class="edge">
<title>Node6&#45;&gt;Node10</title>
<g id="a_edge9_Node000006_Node000010"><a xlink:title=" ">
<path fill="none" stroke="#63b8ff" d="M723.66,-55.55C678.98,-47.65 614.38,-35.56 549.16,-20.3"/>
<polygon fill="#63b8ff" stroke="#63b8ff" points="550.27,-16.96 539.74,-18.07 548.66,-23.78 550.27,-16.96"/>
</a>
</g>
</g>
<!-- Node11 -->
<g id="Node000011" class="node">
<title>Node11</title>
<g id="a_Node000011"><a xlink:title=" ">
<polygon fill="#e0e0e0" stroke="#999999" points="608.62,-20 555.88,-20 555.88,0 608.62,0 608.62,-20"/>
<text text-anchor="middle" x="582.25" y="-6.5" font-family="Helvetica,sans-Serif" font-size="10.00">cstdbool</text>
</a>
</g>
</g>
<!-- Node6&#45;&gt;Node11 -->
<g id="edge10_Node000006_Node000011" class="edge">
<title>Node6&#45;&gt;Node11</title>
<g id="a_edge10_Node000006_Node000011"><a xlink:title=" ">
<path fill="none" stroke="#63b8ff" d="M744.94,-55.59C710.02,-46.02 656.05,-31.23 619.96,-21.34"/>
<polygon fill="#63b8ff" stroke="#63b8ff" points="620.94,-17.98 610.37,-18.71 619.09,-24.73 620.94,-17.98"/>
</a>
</g>
</g>
<!-- Node6&#45;&gt;Node12 -->
<g id="edge11_Node000006_Node000012" class="edge">
<title>Node6&#45;&gt;Node12</title>
<g id="a_edge11_Node000006_Node000012"><a xlink:title=" ">
<path fill="none" stroke="#63b8ff" d="M712.8,-55.66C629.11,-43.89 488.75,-24.15 426.55,-15.4"/>
<polygon fill="#63b8ff" stroke="#63b8ff" points="427.42,-11.99 417.03,-14.06 426.45,-18.92 427.42,-11.99"/>
</a>
</g>
</g>
<!-- Node13 -->
<g id="Node000013" class="node">
<title>Node13</title>
<g id="a_Node000013"><a xlink:title=" ">
<polygon fill="#e0e0e0" stroke="#999999" points="681.38,-20 627.12,-20 627.12,0 681.38,0 681.38,-20"/>
<text text-anchor="middle" x="654.25" y="-6.5" font-family="Helvetica,sans-Serif" font-size="10.00">crtdefs.h</text>
</a>
</g>
</g>
<!-- Node6&#45;&gt;Node13 -->
<g id="edge12_Node000006_Node000013" class="edge">
<title>Node6&#45;&gt;Node13</title>
<g id="a_edge12_Node000006_Node000013"><a xlink:title=" ">
<path fill="none" stroke="#63b8ff" d="M757.48,-55.59C737.88,-47.13 708.82,-34.58 686.53,-24.94"/>
<polygon fill="#63b8ff" stroke="#63b8ff" points="688.15,-21.83 677.58,-21.08 685.37,-28.26 688.15,-21.83"/>
</a>
</g>
</g>
<!-- Node14 -->
<g id="Node000014" class="node">
<title>Node14</title>
<g id="a_Node000014"><a xlink:title=" ">
<polygon fill="#e0e0e0" stroke="#999999" points="859.25,-20 699.25,-20 699.25,0 859.25,0 859.25,-20"/>
<text text-anchor="middle" x="779.25" y="-6.5" font-family="Helvetica,sans-Serif" font-size="10.00">../src/memory/SystemAllocator.h</text>
</a>
</g>
</g>
<!-- Node6&#45;&gt;Node14 -->
<g id="edge13_Node000006_Node000014" class="edge">
<title>Node6&#45;&gt;Node14</title>
<g id="a_edge13_Node000006_Node000014"><a xlink:title=" ">
<path fill="none" stroke="#63b8ff" d="M779.25,-55.59C779.25,-49.01 779.25,-39.96 779.25,-31.73"/>
<polygon fill="#63b8ff" stroke="#63b8ff" points="782.75,-31.81 779.25,-21.81 775.75,-31.81 782.75,-31.81"/>
</a>
</g>
</g>
<!-- Node15&#45;&gt;Node5 -->
<g id="edge15_Node000015_Node000005" class="edge">
<title>Node15&#45;&gt;Node5</title>
<g id="a_edge15_Node000015_Node000005"><a xlink:title=" ">
<path fill="none" stroke="#63b8ff" d="M220.5,-76.3C221.84,-82.93 222.28,-92.11 221.83,-100.43"/>
<polygon fill="#63b8ff" stroke="#63b8ff" points="218.38,-99.75 220.69,-110.09 225.33,-100.57 218.38,-99.75"/>
</a>
</g>
</g>
<!-- Node18&#45;&gt;Node4 -->
<g id="edge21_Node000018_Node000004" class="edge">
<title>Node18&#45;&gt;Node4</title>
<g id="a_edge21_Node000018_Node000004"><a xlink:title=" ">
<path fill="none" stroke="#63b8ff" d="M828.63,-230.65C738.75,-224.47 490.58,-206.94 284.25,-188 272.72,-186.94 260.33,-185.69 248.67,-184.47"/>
<polygon fill="#63b8ff" stroke="#63b8ff" points="249.13,-181 238.81,-183.42 248.39,-187.96 249.13,-181"/>
</a>
</g>
</g>
<!-- Node18&#45;&gt;Node6 -->
<g id="edge20_Node000018_Node000006" class="edge">
<title>Node18&#45;&gt;Node6</title>
<g id="a_edge20_Node000018_Node000006"><a xlink:title=" ">
<path fill="none" stroke="#63b8ff" d="M872.34,-223.74C892.15,-202.4 935.45,-148.8 909.25,-112 896.8,-94.52 877.08,-83.77 856.72,-77.17"/>
<polygon fill="#63b8ff" stroke="#63b8ff" points="857.75,-73.83 847.17,-74.42 855.81,-80.55 857.75,-73.83"/>
</a>
</g>
</g>
<!-- Node19 -->
<g id="Node000019" class="node">
<title>Node19</title>
<g id="a_Node000019"><a xlink:title=" ">
<polygon fill="#e0e0e0" stroke="#999999" points="834.75,-188 791.75,-188 791.75,-168 834.75,-168 834.75,-188"/>
<text text-anchor="middle" x="813.25" y="-174.5" font-family="Helvetica,sans-Serif" font-size="10.00">vector</text>
</a>
</g>
</g>
<!-- Node18&#45;&gt;Node19 -->
<g id="edge22_Node000018_Node000019" class="edge">
<title>Node18&#45;&gt;Node19</title>
<g id="a_edge22_Node000018_Node000019"><a xlink:title=" ">
<path fill="none" stroke="#63b8ff" d="M854.54,-223.59C847.66,-216.16 837.86,-205.58 829.53,-196.58"/>
<polygon fill="#63b8ff" stroke="#63b8ff" points="832.25,-194.37 822.89,-189.41 827.11,-199.12 832.25,-194.37"/>
</a>
</g>
</g>
<!-- Node20&#45;&gt;Node4 -->
<g id="edge25_Node000020_Node000004" class="edge">
<title>Node20&#45;&gt;Node4</title>
<g id="a_edge25_Node000020_Node000004"><a xlink:title=" ">
<path fill="none" stroke="#63b8ff" d="M249.59,-279.91C245.68,-267.1 237.82,-243.16 228.25,-224 223.75,-214.98 217.85,-205.53 212.56,-197.62"/>
<polygon fill="#63b8ff" stroke="#63b8ff" points="215.53,-195.77 206.96,-189.54 209.78,-199.76 215.53,-195.77"/>
</a>
</g>
</g>
<!-- Node20&#45;&gt;Node6 -->
<g id="edge24_Node000020_Node000006" class="edge">
<title>Node20&#45;&gt;Node6</title>
<g id="a_edge24_Node000020_Node000006"><a xlink:title=" ">
<path fill="none" stroke="#63b8ff" d="M291.23,-282.56C337.68,-274.62 417.54,-260.2 485.25,-244 507.23,-238.74 862.65,-150.04 876.25,-132 893.9,-108.58 860.64,-90.88 828.36,-79.9"/>
<polygon fill="#63b8ff" stroke="#63b8ff" points="829.56,-76.61 818.97,-76.9 827.43,-83.28 829.56,-76.61"/>
</a>
</g>
</g>
<!-- Node20&#45;&gt;Node16 -->
<g id="edge27_Node000020_Node000016" class="edge">
<title>Node20&#45;&gt;Node16</title>
<g id="a_edge27_Node000020_Node000016"><a xlink:title=" ">
<path fill="none" stroke="#63b8ff" d="M244.92,-279.78C234.45,-266.8 214.36,-242.67 195.25,-224 177.43,-206.58 168.44,-206.95 152.25,-188 140.36,-174.09 129.88,-156.11 122.79,-142.59"/>
<polygon fill="#63b8ff" stroke="#63b8ff" points="125.99,-141.16 118.35,-133.82 119.74,-144.32 125.99,-141.16"/>
</a>
</g>
</g>
<!-- Node20&#45;&gt;Node19 -->
<g id="edge26_Node000020_Node000019" class="edge">
<title>Node20&#45;&gt;Node19</title>
<g id="a_edge26_Node000020_Node000019"><a xlink:title=" ">
<path fill="none" stroke="#63b8ff" d="M291.46,-287.75C406.36,-283.8 736.76,-270.25 777.25,-244 792.96,-233.81 802.43,-214.27 807.69,-199.27"/>
<polygon fill="#63b8ff" stroke="#63b8ff" points="810.97,-200.5 810.59,-189.91 804.28,-198.43 810.97,-200.5"/>
</a>
</g>
</g>
<!-- Node21 -->
<g id="Node000021" class="node">
<title>Node21</title>
<g id="a_Node000021"><a xlink:href="_scope_8h.html" target="_top" xlink:title=" ">
<polygon fill="white" stroke="#666666" points="476,-244 386.5,-244 386.5,-224 476,-224 476,-244"/>
<text text-anchor="middle" x="431.25" y="-230.5" font-family="Helvetica,sans-Serif" font-size="10.00">Content/Scope.h</text>
</a>
</g>
</g>
<!-- Node20&#45;&gt;Node21 -->
<g id="edge28_Node000020_Node000021" class="edge">
<title>Node20&#45;&gt;Node21</title>
<g id="a_edge28_Node000020_Node000021"><a xlink:title=" ">
<path fill="none" stroke="#63b8ff" d="M283.43,-279.59C312.64,-270.78 356.53,-257.54 388.9,-247.78"/>
<polygon fill="#63b8ff" stroke="#63b8ff" points="389.82,-251.16 398.38,-244.92 387.79,-244.45 389.82,-251.16"/>
</a>
</g>
</g>
<!-- Node32 -->
<g id="Node000032" class="node">
<title>Node32</title>
<g id="a_Node000032"><a xlink:href="_scope_writer_8inl.html" target="_top" xlink:title=" ">
<polygon fill="white" stroke="#666666" points="186.25,-244 104.25,-244 104.25,-224 186.25,-224 186.25,-244"/>
<text text-anchor="middle" x="145.25" y="-230.5" font-family="Helvetica,sans-Serif" font-size="10.00">ScopeWriter.inl</text>
</a>
</g>
</g>
<!-- Node20&#45;&gt;Node32 -->
<g id="edge47_Node000020_Node000032" class="edge">
<title>Node20&#45;&gt;Node32</title>
<g id="a_edge47_Node000020_Node000032"><a xlink:title=" ">
<path fill="none" stroke="#63b8ff" d="M228.35,-279.59C210.38,-271.36 186.13,-259.26 168.36,-249.74"/>
<polygon fill="#63b8ff" stroke="#63b8ff" points="170.53,-246.93 160.08,-245.21 167.17,-253.08 170.53,-246.93"/>
</a>
</g>
</g>
<!-- Node21&#45;&gt;Node5 -->
<g id="edge29_Node000021_Node000005" class="edge">
<title>Node21&#45;&gt;Node5</title>
<g id="a_edge29_Node000021_Node000005"><a xlink:title=" ">
<path fill="none" stroke="#63b8ff" d="M386.32,-224.85C356.03,-218.05 315.98,-206.44 284.25,-188 263,-175.66 243.07,-155.6 230.15,-141.03"/>
<polygon fill="#63b8ff" stroke="#63b8ff" points="232.88,-138.84 223.71,-133.53 227.57,-143.4 232.88,-138.84"/>
</a>
</g>
</g>
<!-- Node21&#45;&gt;Node19 -->
<g id="edge39_Node000021_Node000019" class="edge">
<title>Node21&#45;&gt;Node19</title>
<g id="a_edge39_Node000021_Node000019"><a xlink:title=" ">
<path fill="none" stroke="#63b8ff" d="M476.19,-226.65C553.96,-215.65 711.87,-193.33 780.34,-183.65"/>
<polygon fill="#63b8ff" stroke="#63b8ff" points="780.76,-187.13 790.18,-182.26 779.78,-180.2 780.76,-187.13"/>
</a>
</g>
</g>
<!-- Node22 -->
<g id="Node000022" class="node">
<title>Node22</title>
<g id="a_Node000022"><a xlink:href="_datum_8h.html" target="_top" xlink:title=" ">
<polygon fill="white" stroke="#666666" points="664,-188 610.5,-188 610.5,-168 664,-168 664,-188"/>
<text text-anchor="middle" x="637.25" y="-174.5" font-family="Helvetica,sans-Serif" font-size="10.00">Datum.h</text>
</a>
</g>
</g>
<!-- Node21&#45;&gt;Node22 -->
<g id="edge30_Node000021_Node000022" class="edge">
<title>Node21&#45;&gt;Node22</title>
<g id="a_edge30_Node000021_Node000022"><a xlink:title=" ">
<path fill="none" stroke="#63b8ff" d="M467.13,-223.59C504.11,-213.9 561.54,-198.85 599.27,-188.96"/>
<polygon fill="#63b8ff" stroke="#63b8ff" points="600.06,-192.37 608.84,-186.45 598.28,-185.6 600.06,-192.37"/>
</a>
</g>
</g>
<!-- Node27 -->
<g id="Node000027" class="node">
<title>Node27</title>
<g id="a_Node000027"><a xlink:title=" ">
<polygon fill="#e0e0e0" stroke="#999999" points="455.62,-132 372.88,-132 372.88,-112 455.62,-112 455.62,-132"/>
<text text-anchor="middle" x="414.25" y="-118.5" font-family="Helvetica,sans-Serif" font-size="10.00">unordered_map</text>
</a>
</g>
</g>
<!-- Node21&#45;&gt;Node27 -->
<g id="edge40_Node000021_Node000027" class="edge">
<title>Node21&#45;&gt;Node27</title>
<g id="a_edge40_Node000021_Node000027"><a xlink:title=" ">
<path fill="none" stroke="#63b8ff" d="M469.18,-223.51C502.83,-213.14 544.1,-194.41 526.25,-168 518.33,-156.29 487.66,-144.42 460.41,-135.82"/>
<polygon fill="#63b8ff" stroke="#63b8ff" points="461.44,-132.48 450.85,-132.9 459.39,-139.17 461.44,-132.48"/>
</a>
</g>
</g>
<!-- Node28 -->
<g id="Node000028" class="node">
<title>Node28</title>
<g id="a_Node000028"><a xlink:title=" ">
<polygon fill="#e0e0e0" stroke="#999999" points="327.62,-188 292.88,-188 292.88,-168 327.62,-168 327.62,-188"/>
<text text-anchor="middle" x="310.25" y="-174.5" font-family="Helvetica,sans-Serif" font-size="10.00">map</text>
</a>
</g>
</g>
<!-- Node21&#45;&gt;Node28 -->
<g id="edge41_Node000021_Node000028" class="edge">
<title>Node21&#45;&gt;Node28</title>
<g id="a_edge41_Node000021_Node000028"><a xlink:title=" ">
<path fill="none" stroke="#63b8ff" d="M410.17,-223.59C390.25,-214.7 360.22,-201.3 338.28,-191.51"/>
<polygon fill="#63b8ff" stroke="#63b8ff" points="339.88,-188.39 329.32,-187.51 337.03,-194.78 339.88,-188.39"/>
</a>
</g>
</g>
<!-- Node29 -->
<g id="Node000029" class="node">
<title>Node29</title>
<g id="a_Node000029"><a xlink:href="_factory_service_8h.html" target="_top" xlink:title=" ">
<polygon fill="#fff0f0" stroke="red" points="517.25,-188 345.25,-188 345.25,-168 517.25,-168 517.25,-188"/>
<text text-anchor="middle" x="431.25" y="-174.5" font-family="Helvetica,sans-Serif" font-size="10.00">FIEAGameEngine/FactoryService.h</text>
</a>
</g>
</g>
<!-- Node21&#45;&gt;Node29 -->
<g id="edge42_Node000021_Node000029" class="edge">
<title>Node21&#45;&gt;Node29</title>
<g id="a_edge42_Node000021_Node000029"><a xlink:title=" ">
<path fill="none" stroke="#63b8ff" d="M431.25,-223.59C431.25,-217.01 431.25,-207.96 431.25,-199.73"/>
<polygon fill="#63b8ff" stroke="#63b8ff" points="434.75,-199.81 431.25,-189.81 427.75,-199.81 434.75,-199.81"/>
</a>
</g>
</g>
<!-- Node22&#45;&gt;Node5 -->
<g id="edge35_Node000022_Node000005" class="edge">
<title>Node22&#45;&gt;Node5</title>
<g id="a_edge35_Node000022_Node000005"><a xlink:title=" ">
<path fill="none" stroke="#63b8ff" d="M610.21,-173.54C546.75,-165.42 386.44,-144.91 290.7,-132.65"/>
<polygon fill="#63b8ff" stroke="#63b8ff" points="291.22,-129.19 280.85,-131.39 290.33,-136.14 291.22,-129.19"/>
</a>
</g>
</g>
<!-- Node22&#45;&gt;Node12 -->
<g id="edge31_Node000022_Node000012" class="edge">
<title>Node22&#45;&gt;Node12</title>
<g id="a_edge31_Node000022_Node000012"><a xlink:title=" ">
<path fill="none" stroke="#63b8ff" d="M610.04,-172.29C581.39,-166.38 535.84,-154.21 502.25,-132 460.52,-104.4 424.98,-56.5 407.28,-30"/>
<polygon fill="#63b8ff" stroke="#63b8ff" points="410.22,-28.11 401.83,-21.64 404.36,-31.93 410.22,-28.11"/>
</a>
</g>
</g>
<!-- Node23 -->
<g id="Node000023" class="node">
<title>Node23</title>
<g id="a_Node000023"><a xlink:title=" ">
<polygon fill="#e0e0e0" stroke="#999999" points="791.12,-132 735.38,-132 735.38,-112 791.12,-112 791.12,-132"/>
<text text-anchor="middle" x="763.25" y="-118.5" font-family="Helvetica,sans-Serif" font-size="10.00">charconv</text>
</a>
</g>
</g>
<!-- Node22&#45;&gt;Node23 -->
<g id="edge32_Node000022_Node000023" class="edge">
<title>Node22&#45;&gt;Node23</title>
<g id="a_edge32_Node000022_Node000023"><a xlink:title=" ">
<path fill="none" stroke="#63b8ff" d="M659.2,-167.59C678.95,-159.13 708.24,-146.58 730.72,-136.94"/>
<polygon fill="#63b8ff" stroke="#63b8ff" points="731.93,-140.23 739.74,-133.08 729.17,-133.8 731.93,-140.23"/>
</a>
</g>
</g>
<!-- Node24 -->
<g id="Node000024" class="node">
<title>Node24</title>
<g id="a_Node000024"><a xlink:title=" ">
<polygon fill="#e0e0e0" stroke="#999999" points="580.88,-132 511.62,-132 511.62,-112 580.88,-112 580.88,-132"/>
<text text-anchor="middle" x="546.25" y="-118.5" font-family="Helvetica,sans-Serif" font-size="10.00">glm/glm.hpp</text>
</a>
</g>
</g>
<!-- Node22&#45;&gt;Node24 -->
<g id="edge33_Node000022_Node000024" class="edge">
<title>Node22&#45;&gt;Node24</title>
<g id="a_edge33_Node000022_Node000024"><a xlink:title=" ">
<path fill="none" stroke="#63b8ff" d="M621.4,-167.59C607.78,-159.51 587.89,-147.71 571.99,-138.27"/>
<polygon fill="#63b8ff" stroke="#63b8ff" points="573.91,-135.35 563.53,-133.25 570.34,-141.37 573.91,-135.35"/>
</a>
</g>
</g>
<!-- Node25 -->
<g id="Node000025" class="node">
<title>Node25</title>
<g id="a_Node000025"><a xlink:title=" ">
<polygon fill="#e0e0e0" stroke="#999999" points="717.25,-132 599.25,-132 599.25,-112 717.25,-112 717.25,-132"/>
<text text-anchor="middle" x="658.25" y="-118.5" font-family="Helvetica,sans-Serif" font-size="10.00">glm/gtx/string_cast.hpp</text>
</a>
</g>
</g>
<!-- Node22&#45;&gt;Node25 -->
<g id="edge34_Node000022_Node000025" class="edge">
<title>Node22&#45;&gt;Node25</title>
<g id="a_edge34_Node000022_Node000025"><a xlink:title=" ">
<path fill="none" stroke="#63b8ff" d="M640.91,-167.59C643.56,-160.78 647.24,-151.32 650.53,-142.86"/>
<polygon fill="#63b8ff" stroke="#63b8ff" points="653.72,-144.3 654.09,-133.71 647.2,-141.76 653.72,-144.3"/>
</a>
</g>
</g>
<!-- Node26 -->
<g id="Node000026" class="node">
<title>Node26</title>
<g id="a_Node000026"><a xlink:href="_datum_8inl.html" target="_top" xlink:title=" ">
<polygon fill="white" stroke="#666666" points="867.25,-132 809.25,-132 809.25,-112 867.25,-112 867.25,-132"/>
<text text-anchor="middle" x="838.25" y="-118.5" font-family="Helvetica,sans-Serif" font-size="10.00">Datum.inl</text>
</a>
</g>
</g>
<!-- Node22&#45;&gt;Node26 -->
<g id="edge36_Node000022_Node000026" class="edge">
<title>Node22&#45;&gt;Node26</title>
<g id="a_edge36_Node000022_Node000026"><a xlink:title=" ">
<path fill="none" stroke="#63b8ff" d="M664.43,-168.32C698.87,-158.5 758.18,-142.55 797.88,-132.43"/>
<polygon fill="#63b8ff" stroke="#63b8ff" points="798.72,-135.83 807.56,-129.98 797.01,-129.04 798.72,-135.83"/>
</a>
</g>
</g>
<!-- Node26&#45;&gt;Node6 -->
<g id="edge37_Node000026_Node000006" class="edge">
<title>Node26&#45;&gt;Node6</title>
<g id="a_edge37_Node000026_Node000006"><a xlink:title=" ">
<path fill="none" stroke="#63b8ff" d="M827.97,-111.59C819.68,-104.01 807.8,-93.13 797.85,-84.02"/>
<polygon fill="#63b8ff" stroke="#63b8ff" points="800.27,-81.49 790.53,-77.32 795.54,-86.65 800.27,-81.49"/>
</a>
</g>
</g>
<!-- Node26&#45;&gt;Node22 -->
<g id="edge38_Node000026_Node000022" class="edge">
<title>Node26&#45;&gt;Node22</title>
<g id="a_edge38_Node000026_Node000022"><a xlink:title=" ">
<path fill="none" stroke="#63b8ff" d="M808.82,-132.32C773.39,-142.38 714.09,-158.3 675.24,-168.18"/>
<polygon fill="#63b8ff" stroke="#63b8ff" points="674.69,-164.71 665.85,-170.54 676.4,-171.49 674.69,-164.71"/>
</a>
</g>
</g>
<!-- Node29&#45;&gt;Node5 -->
<g id="edge44_Node000029_Node000005" class="edge">
<title>Node29&#45;&gt;Node5</title>
<g id="a_edge44_Node000029_Node000005"><a xlink:title=" ">
<path fill="none" stroke="#63b8ff" d="M393.63,-167.59C357.76,-158.63 303.56,-145.08 264.32,-135.27"/>
<polygon fill="#63b8ff" stroke="#63b8ff" points="265.19,-131.88 254.64,-132.85 263.49,-138.67 265.19,-131.88"/>
</a>
</g>
</g>
<!-- Node29&#45;&gt;Node6 -->
<g id="edge43_Node000029_Node000006" class="edge">
<title>Node29&#45;&gt;Node6</title>
<g id="a_edge43_Node000029_Node000006"><a xlink:title=" ">
<path fill="none" stroke="#63b8ff" d="M408.78,-167.51C382.7,-155.21 345.52,-132.87 364.25,-112 386.3,-87.43 587.27,-75.03 701.24,-69.93"/>
<polygon fill="#63b8ff" stroke="#63b8ff" points="701.32,-73.43 711.15,-69.5 701.01,-66.44 701.32,-73.43"/>
</a>
</g>
</g>
<!-- Node29&#45;&gt;Node12 -->
<g id="edge45_Node000029_Node000012" class="edge">
<title>Node29&#45;&gt;Node12</title>
<g id="a_edge45_Node000029_Node000012"><a xlink:title=" ">
<path fill="none" stroke="#63b8ff" d="M401.31,-167.61C384.57,-160.65 365.12,-149.32 355.25,-132 335.99,-98.21 362.04,-53.78 380.25,-29.24"/>
<polygon fill="#63b8ff" stroke="#63b8ff" points="382.89,-31.55 386.27,-21.51 377.37,-27.26 382.89,-31.55"/>
</a>
</g>
</g>
<!-- Node29&#45;&gt;Node27 -->
<g id="edge46_Node000029_Node000027" class="edge">
<title>Node29&#45;&gt;Node27</title>
<g id="a_edge46_Node000029_Node000027"><a xlink:title=" ">
<path fill="none" stroke="#63b8ff" d="M428.29,-167.59C426.17,-160.86 423.23,-151.53 420.59,-143.15"/>
<polygon fill="#63b8ff" stroke="#63b8ff" points="423.97,-142.23 417.63,-133.74 417.3,-144.33 423.97,-142.23"/>
</a>
</g>
</g>
<!-- Node32&#45;&gt;Node20 -->
<g id="edge48_Node000032_Node000020" class="edge">
<title>Node32&#45;&gt;Node20</title>
<g id="a_edge48_Node000032_Node000020"><a xlink:title=" ">
<path fill="none" stroke="#63b8ff" d="M169.31,-244.48C187.15,-252.66 211.12,-264.62 228.8,-274.08"/>
<polygon fill="#63b8ff" stroke="#63b8ff" points="227.1,-277.14 237.55,-278.87 230.46,-271 227.1,-277.14"/>
</a>
</g>
</g>
</g>
</svg>
