<?xml version="1.0" encoding="UTF-8" standalone="no"?>
<!DOCTYPE svg PUBLIC "-//W3C//DTD SVG 1.1//EN"
 "http://www.w3.org/Graphics/SVG/1.1/DTD/svg11.dtd">
<!-- Generated by graphviz version 12.2.1 (20241206.2353)
 -->
<!-- Title: Tests/Support/FooManager.h Pages: 1 -->
<svg width="308pt" height="84pt"
 viewBox="0.00 0.00 308.25 84.00" xmlns="http://www.w3.org/2000/svg" xmlns:xlink="http://www.w3.org/1999/xlink">
<g id="graph0" class="graph" transform="scale(1 1) rotate(0) translate(4 80)">
<title>Tests/Support/FooManager.h</title>
<!-- Node1 -->
<g id="Node000001" class="node">
<title>Node1</title>
<g id="a_Node000001"><a xlink:title=" ">
<polygon fill="#999999" stroke="#666666" points="215,-76 73,-76 73,-56 215,-56 215,-76"/>
<text text-anchor="middle" x="144" y="-62.5" font-family="Helvetica,sans-Serif" font-size="10.00">Tests/Support/FooManager.h</text>
</a>
</g>
</g>
<!-- Node2 -->
<g id="Node000002" class="node">
<title>Node2</title>
<g id="a_Node000002"><a xlink:href="_service_mgr_test_8cpp.html" target="_top" xlink:title=" ">
<polygon fill="white" stroke="#666666" points="130,-20 0,-20 0,0 130,0 130,-20"/>
<text text-anchor="middle" x="65" y="-6.5" font-family="Helvetica,sans-Serif" font-size="10.00">Tests/ServiceMgrTest.cpp</text>
</a>
</g>
</g>
<!-- Node1&#45;&gt;Node2 -->
<g id="edge1_Node000001_Node000002" class="edge">
<title>Node1&#45;&gt;Node2</title>
<g id="a_edge1_Node000001_Node000002"><a xlink:title=" ">
<path fill="none" stroke="#63b8ff" d="M120.99,-49.27C107.34,-39.94 90.5,-28.43 78.87,-20.48"/>
<polygon fill="#63b8ff" stroke="#63b8ff" points="118.76,-51.99 128.99,-54.74 122.71,-46.21 118.76,-51.99"/>
</a>
</g>
</g>
<!-- Node3 -->
<g id="Node000003" class="node">
<title>Node3</title>
<g id="a_Node000003"><a xlink:href="_foo_manager_8cpp.html" target="_top" xlink:title=" ">
<polygon fill="white" stroke="#666666" points="300.25,-20 147.75,-20 147.75,0 300.25,0 300.25,-20"/>
<text text-anchor="middle" x="224" y="-6.5" font-family="Helvetica,sans-Serif" font-size="10.00">Tests/Support/FooManager.cpp</text>
</a>
</g>
</g>
<!-- Node1&#45;&gt;Node3 -->
<g id="edge2_Node000001_Node000003" class="edge">
<title>Node1&#45;&gt;Node3</title>
<g id="a_edge2_Node000001_Node000003"><a xlink:title=" ">
<path fill="none" stroke="#63b8ff" d="M167.3,-49.27C181.12,-39.94 198.18,-28.43 209.96,-20.48"/>
<polygon fill="#63b8ff" stroke="#63b8ff" points="165.52,-46.25 159.19,-54.75 169.44,-52.05 165.52,-46.25"/>
</a>
</g>
</g>
</g>
</svg>
