<?xml version="1.0" encoding="UTF-8" standalone="no"?>
<!DOCTYPE svg PUBLIC "-//W3C//DTD SVG 1.1//EN"
 "http://www.w3.org/Graphics/SVG/1.1/DTD/svg11.dtd">
<!-- Generated by graphviz version 12.2.1 (20241206.2353)
 -->
<!-- Title: Tests/Support/FooManager.cpp Pages: 1 -->
<svg width="711pt" height="252pt"
 viewBox="0.00 0.00 711.25 252.00" xmlns="http://www.w3.org/2000/svg" xmlns:xlink="http://www.w3.org/1999/xlink">
<g id="graph0" class="graph" transform="scale(1 1) rotate(0) translate(4 248)">
<title>Tests/Support/FooManager.cpp</title>
<!-- Node1 -->
<g id="Node000001" class="node">
<title>Node1</title>
<g id="a_Node000001"><a xlink:title=" ">
<polygon fill="#999999" stroke="#666666" points="289.25,-244 136.75,-244 136.75,-224 289.25,-224 289.25,-244"/>
<text text-anchor="middle" x="213" y="-230.5" font-family="Helvetica,sans-Serif" font-size="10.00">Tests/Support/FooManager.cpp</text>
</a>
</g>
</g>
<!-- Node2 -->
<g id="Node000002" class="node">
<title>Node2</title>
<g id="a_Node000002"><a xlink:href="_types_8h.html" target="_top" xlink:title=" ">
<polygon fill="white" stroke="#666666" points="426.25,-76 297.75,-76 297.75,-56 426.25,-56 426.25,-76"/>
<text text-anchor="middle" x="362" y="-62.5" font-family="Helvetica,sans-Serif" font-size="10.00">FieaGameEngine/Types.h</text>
</a>
</g>
</g>
<!-- Node1&#45;&gt;Node2 -->
<g id="edge1_Node000001_Node000002" class="edge">
<title>Node1&#45;&gt;Node2</title>
<g id="a_edge1_Node000001_Node000002"><a xlink:title=" ">
<path fill="none" stroke="#63b8ff" d="M289.58,-224.87C336.91,-218.09 391.32,-206.49 406,-188 430.77,-156.79 399.72,-110.39 378.57,-85.08"/>
<polygon fill="#63b8ff" stroke="#63b8ff" points="381.29,-82.87 372.08,-77.62 376.01,-87.46 381.29,-82.87"/>
</a>
</g>
</g>
<!-- Node8 -->
<g id="Node000008" class="node">
<title>Node8</title>
<g id="a_Node000008"><a xlink:title=" ">
<polygon fill="#e0e0e0" stroke="#999999" points="40,-20 0,-20 0,0 40,0 40,-20"/>
<text text-anchor="middle" x="20" y="-6.5" font-family="Helvetica,sans-Serif" font-size="10.00">string</text>
</a>
</g>
</g>
<!-- Node1&#45;&gt;Node8 -->
<g id="edge31_Node000001_Node000008" class="edge">
<title>Node1&#45;&gt;Node8</title>
<g id="a_edge31_Node000001_Node000008"><a xlink:title=" ">
<path fill="none" stroke="#63b8ff" d="M139.01,-223.51C114.89,-217.05 89.78,-206.2 72,-188 29.35,-144.35 21.38,-67.63 20.1,-31.24"/>
<polygon fill="#63b8ff" stroke="#63b8ff" points="23.6,-31.61 19.9,-21.69 16.61,-31.76 23.6,-31.61"/>
</a>
</g>
</g>
<!-- Node11 -->
<g id="Node000011" class="node">
<title>Node11</title>
<g id="a_Node000011"><a xlink:href="_foo_manager_8h.html" target="_top" xlink:title=" ">
<polygon fill="white" stroke="#666666" points="185.12,-188 106.88,-188 106.88,-168 185.12,-168 185.12,-188"/>
<text text-anchor="middle" x="146" y="-174.5" font-family="Helvetica,sans-Serif" font-size="10.00">FooManager.h</text>
</a>
</g>
</g>
<!-- Node1&#45;&gt;Node11 -->
<g id="edge10_Node000001_Node000011" class="edge">
<title>Node1&#45;&gt;Node11</title>
<g id="a_edge10_Node000001_Node000011"><a xlink:title=" ">
<path fill="none" stroke="#63b8ff" d="M201.33,-223.59C191.72,-215.85 177.87,-204.69 166.43,-195.47"/>
<polygon fill="#63b8ff" stroke="#63b8ff" points="168.7,-192.8 158.72,-189.25 164.3,-198.25 168.7,-192.8"/>
</a>
</g>
</g>
<!-- Node12 -->
<g id="Node000012" class="node">
<title>Node12</title>
<g id="a_Node000012"><a xlink:href="_service_mgr_8h.html" target="_top" xlink:title=" ">
<polygon fill="white" stroke="#666666" points="290.75,-132 135.25,-132 135.25,-112 290.75,-112 290.75,-132"/>
<text text-anchor="middle" x="213" y="-118.5" font-family="Helvetica,sans-Serif" font-size="10.00">FIEAGameEngine/ServiceMgr.h</text>
</a>
</g>
</g>
<!-- Node1&#45;&gt;Node12 -->
<g id="edge28_Node000001_Node000012" class="edge">
<title>Node1&#45;&gt;Node12</title>
<g id="a_edge28_Node000001_Node000012"><a xlink:title=" ">
<path fill="none" stroke="#63b8ff" d="M213,-223.62C213,-206.01 213,-167.59 213,-143.65"/>
<polygon fill="#63b8ff" stroke="#63b8ff" points="216.5,-143.87 213,-133.87 209.5,-143.87 216.5,-143.87"/>
</a>
</g>
</g>
<!-- Node13 -->
<g id="Node000013" class="node">
<title>Node13</title>
<g id="a_Node000013"><a xlink:title=" ">
<polygon fill="#e0e0e0" stroke="#999999" points="94.5,-76 51.5,-76 51.5,-56 94.5,-56 94.5,-76"/>
<text text-anchor="middle" x="73" y="-62.5" font-family="Helvetica,sans-Serif" font-size="10.00">vector</text>
</a>
</g>
</g>
<!-- Node1&#45;&gt;Node13 -->
<g id="edge29_Node000001_Node000013" class="edge">
<title>Node1&#45;&gt;Node13</title>
<g id="a_edge29_Node000001_Node000013"><a xlink:title=" ">
<path fill="none" stroke="#63b8ff" d="M146.09,-223.59C124.06,-217.14 101.52,-206.28 87,-188 64.16,-159.26 65.86,-113.86 69.32,-87.61"/>
<polygon fill="#63b8ff" stroke="#63b8ff" points="72.75,-88.33 70.83,-77.91 65.83,-87.26 72.75,-88.33"/>
</a>
</g>
</g>
<!-- Node14 -->
<g id="Node000014" class="node">
<title>Node14</title>
<g id="a_Node000014"><a xlink:title=" ">
<polygon fill="#e0e0e0" stroke="#999999" points="234.38,-76 151.62,-76 151.62,-56 234.38,-56 234.38,-76"/>
<text text-anchor="middle" x="193" y="-62.5" font-family="Helvetica,sans-Serif" font-size="10.00">unordered_map</text>
</a>
</g>
</g>
<!-- Node1&#45;&gt;Node14 -->
<g id="edge30_Node000001_Node000014" class="edge">
<title>Node1&#45;&gt;Node14</title>
<g id="a_edge30_Node000001_Node000014"><a xlink:title=" ">
<path fill="none" stroke="#63b8ff" d="M152.21,-223.54C131.5,-217.09 110.45,-206.24 98,-188 70.89,-148.28 128.92,-104.57 165.73,-82.14"/>
<polygon fill="#63b8ff" stroke="#63b8ff" points="167.32,-85.26 174.16,-77.16 163.77,-79.23 167.32,-85.26"/>
</a>
</g>
</g>
<!-- Node15 -->
<g id="Node000015" class="node">
<title>Node15</title>
<g id="a_Node000015"><a xlink:href="_i_foo_maker_8h.html" target="_top" xlink:title=" ">
<polygon fill="white" stroke="#666666" points="397.38,-188 326.62,-188 326.62,-168 397.38,-168 397.38,-188"/>
<text text-anchor="middle" x="362" y="-174.5" font-family="Helvetica,sans-Serif" font-size="10.00">IFooMaker.h</text>
</a>
</g>
</g>
<!-- Node1&#45;&gt;Node15 -->
<g id="edge15_Node000001_Node000015" class="edge">
<title>Node1&#45;&gt;Node15</title>
<g id="a_edge15_Node000001_Node000015"><a xlink:title=" ">
<path fill="none" stroke="#63b8ff" d="M238.95,-223.59C262.84,-214.94 298.53,-202 325.33,-192.29"/>
<polygon fill="#63b8ff" stroke="#63b8ff" points="326.21,-195.69 334.42,-189 323.83,-189.11 326.21,-195.69"/>
</a>
</g>
</g>
<!-- Node16 -->
<g id="Node000016" class="node">
<title>Node16</title>
<g id="a_Node000016"><a xlink:href="_i_foo_taker_8h.html" target="_top" xlink:title=" ">
<polygon fill="white" stroke="#666666" points="308.88,-188 241.12,-188 241.12,-168 308.88,-168 308.88,-188"/>
<text text-anchor="middle" x="275" y="-174.5" font-family="Helvetica,sans-Serif" font-size="10.00">IFooTaker.h</text>
</a>
</g>
</g>
<!-- Node1&#45;&gt;Node16 -->
<g id="edge18_Node000001_Node000016" class="edge">
<title>Node1&#45;&gt;Node16</title>
<g id="a_edge18_Node000001_Node000016"><a xlink:title=" ">
<path fill="none" stroke="#63b8ff" d="M223.8,-223.59C232.6,-215.93 245.25,-204.91 255.77,-195.75"/>
<polygon fill="#63b8ff" stroke="#63b8ff" points="257.94,-198.5 263.18,-189.29 253.34,-193.22 257.94,-198.5"/>
</a>
</g>
</g>
<!-- Node17 -->
<g id="Node000017" class="node">
<title>Node17</title>
<g id="a_Node000017"><a xlink:href="_foo_8h.html" target="_top" xlink:title=" ">
<polygon fill="white" stroke="#666666" points="509.38,-188 468.62,-188 468.62,-168 509.38,-168 509.38,-188"/>
<text text-anchor="middle" x="489" y="-174.5" font-family="Helvetica,sans-Serif" font-size="10.00">Foo.h</text>
</a>
</g>
</g>
<!-- Node1&#45;&gt;Node17 -->
<g id="edge21_Node000001_Node000017" class="edge">
<title>Node1&#45;&gt;Node17</title>
<g id="a_edge21_Node000001_Node000017"><a xlink:title=" ">
<path fill="none" stroke="#63b8ff" d="M261.39,-223.53C317.69,-212.52 409.04,-194.65 457.1,-185.24"/>
<polygon fill="#63b8ff" stroke="#63b8ff" points="457.71,-188.69 466.86,-183.33 456.37,-181.82 457.71,-188.69"/>
</a>
</g>
</g>
<!-- Node3 -->
<g id="Node000003" class="node">
<title>Node3</title>
<g id="a_Node000003"><a xlink:title=" ">
<polygon fill="#e0e0e0" stroke="#999999" points="522.25,-20 459.75,-20 459.75,0 522.25,0 522.25,-20"/>
<text text-anchor="middle" x="491" y="-6.5" font-family="Helvetica,sans-Serif" font-size="10.00">windows.h</text>
</a>
</g>
</g>
<!-- Node2&#45;&gt;Node3 -->
<g id="edge2_Node000002_Node000003" class="edge">
<title>Node2&#45;&gt;Node3</title>
<g id="a_edge2_Node000002_Node000003"><a xlink:title=" ">
<path fill="none" stroke="#63b8ff" d="M384.47,-55.59C404.79,-47.09 434.95,-34.46 458.01,-24.81"/>
<polygon fill="#63b8ff" stroke="#63b8ff" points="459.09,-28.15 466.96,-21.06 456.38,-21.7 459.09,-28.15"/>
</a>
</g>
</g>
<!-- Node4 -->
<g id="Node000004" class="node">
<title>Node4</title>
<g id="a_Node000004"><a xlink:title=" ">
<polygon fill="#e0e0e0" stroke="#999999" points="588.12,-20 539.88,-20 539.88,0 588.12,0 588.12,-20"/>
<text text-anchor="middle" x="564" y="-6.5" font-family="Helvetica,sans-Serif" font-size="10.00">cassert</text>
</a>
</g>
</g>
<!-- Node2&#45;&gt;Node4 -->
<g id="edge3_Node000002_Node000004" class="edge">
<title>Node2&#45;&gt;Node4</title>
<g id="a_edge3_Node000002_Node000004"><a xlink:title=" ">
<path fill="none" stroke="#63b8ff" d="M397.62,-55.58C429.57,-47.12 478,-34.26 528.66,-20.62"/>
<polygon fill="#63b8ff" stroke="#63b8ff" points="529.29,-24.08 538.03,-18.09 527.47,-17.32 529.29,-24.08"/>
</a>
</g>
</g>
<!-- Node5 -->
<g id="Node000005" class="node">
<title>Node5</title>
<g id="a_Node000005"><a xlink:title=" ">
<polygon fill="#e0e0e0" stroke="#999999" points="654.12,-20 605.88,-20 605.88,0 654.12,0 654.12,-20"/>
<text text-anchor="middle" x="630" y="-6.5" font-family="Helvetica,sans-Serif" font-size="10.00">cstddef</text>
</a>
</g>
</g>
<!-- Node2&#45;&gt;Node5 -->
<g id="edge4_Node000002_Node000005" class="edge">
<title>Node2&#45;&gt;Node5</title>
<g id="a_edge4_Node000002_Node000005"><a xlink:title=" ">
<path fill="none" stroke="#63b8ff" d="M417.81,-55.56C463.06,-47.63 528.72,-35.48 594.55,-20.43"/>
<polygon fill="#63b8ff" stroke="#63b8ff" points="595.11,-23.9 604.07,-18.24 593.54,-17.08 595.11,-23.9"/>
</a>
</g>
</g>
<!-- Node6 -->
<g id="Node000006" class="node">
<title>Node6</title>
<g id="a_Node000006"><a xlink:title=" ">
<polygon fill="#e0e0e0" stroke="#999999" points="120.62,-20 75.38,-20 75.38,0 120.62,0 120.62,-20"/>
<text text-anchor="middle" x="98" y="-6.5" font-family="Helvetica,sans-Serif" font-size="10.00">cstdint</text>
</a>
</g>
</g>
<!-- Node2&#45;&gt;Node6 -->
<g id="edge5_Node000002_Node000006" class="edge">
<title>Node2&#45;&gt;Node6</title>
<g id="a_edge5_Node000002_Node000006"><a xlink:title=" ">
<path fill="none" stroke="#63b8ff" d="M306.41,-55.55C261.73,-47.65 197.13,-35.56 131.91,-20.3"/>
<polygon fill="#63b8ff" stroke="#63b8ff" points="133.02,-16.96 122.49,-18.07 131.41,-23.78 133.02,-16.96"/>
</a>
</g>
</g>
<!-- Node7 -->
<g id="Node000007" class="node">
<title>Node7</title>
<g id="a_Node000007"><a xlink:title=" ">
<polygon fill="#e0e0e0" stroke="#999999" points="191.38,-20 138.62,-20 138.62,0 191.38,0 191.38,-20"/>
<text text-anchor="middle" x="165" y="-6.5" font-family="Helvetica,sans-Serif" font-size="10.00">cstdbool</text>
</a>
</g>
</g>
<!-- Node2&#45;&gt;Node7 -->
<g id="edge6_Node000002_Node000007" class="edge">
<title>Node2&#45;&gt;Node7</title>
<g id="a_edge6_Node000002_Node000007"><a xlink:title=" ">
<path fill="none" stroke="#63b8ff" d="M327.69,-55.59C292.77,-46.02 238.8,-31.23 202.71,-21.34"/>
<polygon fill="#63b8ff" stroke="#63b8ff" points="203.69,-17.98 193.12,-18.71 201.84,-24.73 203.69,-17.98"/>
</a>
</g>
</g>
<!-- Node2&#45;&gt;Node8 -->
<g id="edge7_Node000002_Node000008" class="edge">
<title>Node2&#45;&gt;Node8</title>
<g id="a_edge7_Node000002_Node000008"><a xlink:title=" ">
<path fill="none" stroke="#63b8ff" d="M297.49,-56C237.44,-47.42 145.51,-33.82 66,-20 61.22,-19.17 56.17,-18.24 51.24,-17.3"/>
<polygon fill="#63b8ff" stroke="#63b8ff" points="52.09,-13.9 41.6,-15.42 50.75,-20.77 52.09,-13.9"/>
</a>
</g>
</g>
<!-- Node9 -->
<g id="Node000009" class="node">
<title>Node9</title>
<g id="a_Node000009"><a xlink:title=" ">
<polygon fill="#e0e0e0" stroke="#999999" points="264.12,-20 209.88,-20 209.88,0 264.12,0 264.12,-20"/>
<text text-anchor="middle" x="237" y="-6.5" font-family="Helvetica,sans-Serif" font-size="10.00">crtdefs.h</text>
</a>
</g>
</g>
<!-- Node2&#45;&gt;Node9 -->
<g id="edge8_Node000002_Node000009" class="edge">
<title>Node2&#45;&gt;Node9</title>
<g id="a_edge8_Node000002_Node000009"><a xlink:title=" ">
<path fill="none" stroke="#63b8ff" d="M340.23,-55.59C320.63,-47.13 291.57,-34.58 269.28,-24.94"/>
<polygon fill="#63b8ff" stroke="#63b8ff" points="270.9,-21.83 260.33,-21.08 268.12,-28.26 270.9,-21.83"/>
</a>
</g>
</g>
<!-- Node10 -->
<g id="Node000010" class="node">
<title>Node10</title>
<g id="a_Node000010"><a xlink:title=" ">
<polygon fill="#e0e0e0" stroke="#999999" points="442,-20 282,-20 282,0 442,0 442,-20"/>
<text text-anchor="middle" x="362" y="-6.5" font-family="Helvetica,sans-Serif" font-size="10.00">../src/memory/SystemAllocator.h</text>
</a>
</g>
</g>
<!-- Node2&#45;&gt;Node10 -->
<g id="edge9_Node000002_Node000010" class="edge">
<title>Node2&#45;&gt;Node10</title>
<g id="a_edge9_Node000002_Node000010"><a xlink:title=" ">
<path fill="none" stroke="#63b8ff" d="M362,-55.59C362,-49.01 362,-39.96 362,-31.73"/>
<polygon fill="#63b8ff" stroke="#63b8ff" points="365.5,-31.81 362,-21.81 358.5,-31.81 365.5,-31.81"/>
</a>
</g>
</g>
<!-- Node11&#45;&gt;Node12 -->
<g id="edge11_Node000011_Node000012" class="edge">
<title>Node11&#45;&gt;Node12</title>
<g id="a_edge11_Node000011_Node000012"><a xlink:title=" ">
<path fill="none" stroke="#63b8ff" d="M157.67,-167.59C167.28,-159.85 181.13,-148.69 192.57,-139.47"/>
<polygon fill="#63b8ff" stroke="#63b8ff" points="194.7,-142.25 200.28,-133.25 190.3,-136.8 194.7,-142.25"/>
</a>
</g>
</g>
<!-- Node12&#45;&gt;Node2 -->
<g id="edge12_Node000012_Node000002" class="edge">
<title>Node12&#45;&gt;Node2</title>
<g id="a_edge12_Node000012_Node000002"><a xlink:title=" ">
<path fill="none" stroke="#63b8ff" d="M238.95,-111.59C262.84,-102.94 298.53,-90 325.33,-80.29"/>
<polygon fill="#63b8ff" stroke="#63b8ff" points="326.21,-83.69 334.42,-77 323.83,-77.11 326.21,-83.69"/>
</a>
</g>
</g>
<!-- Node12&#45;&gt;Node13 -->
<g id="edge13_Node000012_Node000013" class="edge">
<title>Node12&#45;&gt;Node13</title>
<g id="a_edge13_Node000012_Node000013"><a xlink:title=" ">
<path fill="none" stroke="#63b8ff" d="M188.61,-111.59C165.55,-102.7 130.78,-89.29 105.39,-79.49"/>
<polygon fill="#63b8ff" stroke="#63b8ff" points="106.81,-76.29 96.22,-75.96 104.29,-82.82 106.81,-76.29"/>
</a>
</g>
</g>
<!-- Node12&#45;&gt;Node14 -->
<g id="edge14_Node000012_Node000014" class="edge">
<title>Node12&#45;&gt;Node14</title>
<g id="a_edge14_Node000012_Node000014"><a xlink:title=" ">
<path fill="none" stroke="#63b8ff" d="M209.52,-111.59C206.99,-104.78 203.49,-95.32 200.36,-86.86"/>
<polygon fill="#63b8ff" stroke="#63b8ff" points="203.72,-85.88 196.97,-77.72 197.16,-88.31 203.72,-85.88"/>
</a>
</g>
</g>
<!-- Node15&#45;&gt;Node2 -->
<g id="edge16_Node000015_Node000002" class="edge">
<title>Node15&#45;&gt;Node2</title>
<g id="a_edge16_Node000015_Node000002"><a xlink:title=" ">
<path fill="none" stroke="#63b8ff" d="M362,-167.62C362,-150.01 362,-111.59 362,-87.65"/>
<polygon fill="#63b8ff" stroke="#63b8ff" points="365.5,-87.87 362,-77.87 358.5,-87.87 365.5,-87.87"/>
</a>
</g>
</g>
<!-- Node15&#45;&gt;Node12 -->
<g id="edge17_Node000015_Node000012" class="edge">
<title>Node15&#45;&gt;Node12</title>
<g id="a_edge17_Node000015_Node000012"><a xlink:title=" ">
<path fill="none" stroke="#63b8ff" d="M336.05,-167.59C312.16,-158.94 276.47,-146 249.67,-136.29"/>
<polygon fill="#63b8ff" stroke="#63b8ff" points="251.17,-133.11 240.58,-133 248.79,-139.69 251.17,-133.11"/>
</a>
</g>
</g>
<!-- Node16&#45;&gt;Node2 -->
<g id="edge19_Node000016_Node000002" class="edge">
<title>Node16&#45;&gt;Node2</title>
<g id="a_edge19_Node000016_Node000002"><a xlink:title=" ">
<path fill="none" stroke="#63b8ff" d="M282.42,-167.62C296.8,-149.44 328.71,-109.09 347.46,-85.38"/>
<polygon fill="#63b8ff" stroke="#63b8ff" points="350.2,-87.56 353.66,-77.54 344.71,-83.21 350.2,-87.56"/>
</a>
</g>
</g>
<!-- Node16&#45;&gt;Node12 -->
<g id="edge20_Node000016_Node000012" class="edge">
<title>Node16&#45;&gt;Node12</title>
<g id="a_edge20_Node000016_Node000012"><a xlink:title=" ">
<path fill="none" stroke="#63b8ff" d="M264.2,-167.59C255.4,-159.93 242.75,-148.91 232.23,-139.75"/>
<polygon fill="#63b8ff" stroke="#63b8ff" points="234.66,-137.22 224.82,-133.29 230.06,-142.5 234.66,-137.22"/>
</a>
</g>
</g>
<!-- Node17&#45;&gt;Node2 -->
<g id="edge22_Node000017_Node000002" class="edge">
<title>Node17&#45;&gt;Node2</title>
<g id="a_edge22_Node000017_Node000002"><a xlink:title=" ">
<path fill="none" stroke="#63b8ff" d="M480.94,-167.63C469.42,-154.5 447.27,-130.17 426,-112 413.65,-101.46 398.89,-90.95 386.65,-82.74"/>
<polygon fill="#63b8ff" stroke="#63b8ff" points="388.61,-79.84 378.33,-77.27 384.76,-85.69 388.61,-79.84"/>
</a>
</g>
</g>
<!-- Node18 -->
<g id="Node000018" class="node">
<title>Node18</title>
<g id="a_Node000018"><a xlink:href="_r_t_t_i_8h.html" target="_top" xlink:title=" ">
<polygon fill="white" stroke="#666666" points="702.88,-132 575.12,-132 575.12,-112 702.88,-112 702.88,-132"/>
<text text-anchor="middle" x="639" y="-118.5" font-family="Helvetica,sans-Serif" font-size="10.00">FIEAGameEngine/RTTI.h</text>
</a>
</g>
</g>
<!-- Node17&#45;&gt;Node18 -->
<g id="edge23_Node000017_Node000018" class="edge">
<title>Node17&#45;&gt;Node18</title>
<g id="a_edge23_Node000017_Node000018"><a xlink:title=" ">
<path fill="none" stroke="#63b8ff" d="M509.86,-169.49C533.7,-160.91 573.17,-146.7 602.21,-136.24"/>
<polygon fill="#63b8ff" stroke="#63b8ff" points="603.13,-139.63 611.35,-132.95 600.76,-133.05 603.13,-139.63"/>
</a>
</g>
</g>
<!-- Node20 -->
<g id="Node000020" class="node">
<title>Node20</title>
<g id="a_Node000020"><a xlink:title=" ">
<polygon fill="#e0e0e0" stroke="#999999" points="557.5,-132 478.5,-132 478.5,-112 557.5,-112 557.5,-132"/>
<text text-anchor="middle" x="518" y="-118.5" font-family="Helvetica,sans-Serif" font-size="10.00">CppUnitTest.h</text>
</a>
</g>
</g>
<!-- Node17&#45;&gt;Node20 -->
<g id="edge27_Node000017_Node000020" class="edge">
<title>Node17&#45;&gt;Node20</title>
<g id="a_edge27_Node000017_Node000020"><a xlink:title=" ">
<path fill="none" stroke="#63b8ff" d="M494.05,-167.59C497.79,-160.63 503.02,-150.89 507.64,-142.29"/>
<polygon fill="#63b8ff" stroke="#63b8ff" points="510.64,-144.1 512.29,-133.63 504.48,-140.79 510.64,-144.1"/>
</a>
</g>
</g>
<!-- Node18&#45;&gt;Node2 -->
<g id="edge24_Node000018_Node000002" class="edge">
<title>Node18&#45;&gt;Node2</title>
<g id="a_edge24_Node000018_Node000002"><a xlink:title=" ">
<path fill="none" stroke="#63b8ff" d="M590.43,-111.53C543.41,-102.36 472.01,-88.45 421.58,-78.61"/>
<polygon fill="#63b8ff" stroke="#63b8ff" points="422.48,-75.22 412,-76.75 421.14,-82.1 422.48,-75.22"/>
</a>
</g>
</g>
<!-- Node19 -->
<g id="Node000019" class="node">
<title>Node19</title>
<g id="a_Node000019"><a xlink:href="_r_t_t_i_8inl.html" target="_top" xlink:title=" ">
<polygon fill="white" stroke="#666666" points="703.25,-76 574.75,-76 574.75,-56 703.25,-56 703.25,-76"/>
<text text-anchor="middle" x="639" y="-62.5" font-family="Helvetica,sans-Serif" font-size="10.00">FieaGameEngine/RTTI.inl</text>
</a>
</g>
</g>
<!-- Node18&#45;&gt;Node19 -->
<g id="edge25_Node000018_Node000019" class="edge">
<title>Node18&#45;&gt;Node19</title>
<g id="a_edge25_Node000018_Node000019"><a xlink:title=" ">
<path fill="none" stroke="#63b8ff" d="M633.73,-111.59C632.42,-105.01 631.98,-95.96 632.41,-87.73"/>
<polygon fill="#63b8ff" stroke="#63b8ff" points="635.89,-88.14 633.58,-77.8 628.94,-87.33 635.89,-88.14"/>
</a>
</g>
</g>
<!-- Node19&#45;&gt;Node18 -->
<g id="edge26_Node000019_Node000018" class="edge">
<title>Node19&#45;&gt;Node18</title>
<g id="a_edge26_Node000019_Node000018"><a xlink:title=" ">
<path fill="none" stroke="#63b8ff" d="M644.25,-76.3C645.59,-82.93 646.03,-92.11 645.58,-100.43"/>
<polygon fill="#63b8ff" stroke="#63b8ff" points="642.13,-99.75 644.44,-110.09 649.08,-100.57 642.13,-99.75"/>
</a>
</g>
</g>
</g>
</svg>
