<?xml version="1.0" encoding="UTF-8" standalone="no"?>
<!DOCTYPE svg PUBLIC "-//W3C//DTD SVG 1.1//EN"
 "http://www.w3.org/Graphics/SVG/1.1/DTD/svg11.dtd">
<!-- Generated by graphviz version 12.2.1 (20241206.2353)
 -->
<!-- Title: Tests/Support/Foo.h Pages: 1 -->
<svg width="1243pt" height="220pt"
 viewBox="0.00 0.00 1242.50 220.00" xmlns="http://www.w3.org/2000/svg" xmlns:xlink="http://www.w3.org/1999/xlink">
<g id="graph0" class="graph" transform="scale(1 1) rotate(0) translate(4 216)">
<title>Tests/Support/Foo.h</title>
<!-- Node1 -->
<g id="Node000001" class="node">
<title>Node1</title>
<g id="a_Node000001"><a xlink:title=" ">
<polygon fill="#999999" stroke="#666666" points="631.5,-212 527,-212 527,-192 631.5,-192 631.5,-212"/>
<text text-anchor="middle" x="579.25" y="-198.5" font-family="Helvetica,sans-Serif" font-size="10.00">Tests/Support/Foo.h</text>
</a>
</g>
</g>
<!-- Node2 -->
<g id="Node000002" class="node">
<title>Node2</title>
<g id="a_Node000002"><a xlink:href="_container_test_8cpp.html" target="_top" xlink:title=" ">
<polygon fill="white" stroke="#666666" points="122.5,-156 0,-156 0,-136 122.5,-136 122.5,-156"/>
<text text-anchor="middle" x="61.25" y="-142.5" font-family="Helvetica,sans-Serif" font-size="10.00">Tests/ContainerTest.cpp</text>
</a>
</g>
</g>
<!-- Node1&#45;&gt;Node2 -->
<g id="edge1_Node000001_Node000002" class="edge">
<title>Node1&#45;&gt;Node2</title>
<g id="a_edge1_Node000001_Node000002"><a xlink:title=" ">
<path fill="none" stroke="#63b8ff" d="M515.53,-195.16C428.6,-187.07 268.01,-171.66 131.25,-156 128.45,-155.68 125.59,-155.34 122.7,-155"/>
<polygon fill="#63b8ff" stroke="#63b8ff" points="514.99,-198.63 525.27,-196.07 515.64,-191.66 514.99,-198.63"/>
</a>
</g>
</g>
<!-- Node3 -->
<g id="Node000003" class="node">
<title>Node3</title>
<g id="a_Node000003"><a xlink:href="_core_test_8cpp.html" target="_top" xlink:title=" ">
<polygon fill="white" stroke="#666666" points="242,-156 140.5,-156 140.5,-136 242,-136 242,-156"/>
<text text-anchor="middle" x="191.25" y="-142.5" font-family="Helvetica,sans-Serif" font-size="10.00">Tests/CoreTest.cpp</text>
</a>
</g>
</g>
<!-- Node1&#45;&gt;Node3 -->
<g id="edge2_Node000001_Node000003" class="edge">
<title>Node1&#45;&gt;Node3</title>
<g id="a_edge2_Node000001_Node000003"><a xlink:title=" ">
<path fill="none" stroke="#63b8ff" d="M515.62,-192.51C449.51,-183.63 343.08,-169.19 251.25,-156 248.33,-155.58 245.33,-155.15 242.31,-154.7"/>
<polygon fill="#63b8ff" stroke="#63b8ff" points="514.8,-195.93 525.17,-193.79 515.73,-188.99 514.8,-195.93"/>
</a>
</g>
</g>
<!-- Node4 -->
<g id="Node000004" class="node">
<title>Node4</title>
<g id="a_Node000004"><a xlink:href="_datum_test_8cpp.html" target="_top" xlink:title=" ">
<polygon fill="white" stroke="#666666" points="370.12,-156 260.38,-156 260.38,-136 370.12,-136 370.12,-156"/>
<text text-anchor="middle" x="315.25" y="-142.5" font-family="Helvetica,sans-Serif" font-size="10.00">Tests/DatumTest.cpp</text>
</a>
</g>
</g>
<!-- Node1&#45;&gt;Node4 -->
<g id="edge3_Node000001_Node000004" class="edge">
<title>Node1&#45;&gt;Node4</title>
<g id="a_edge3_Node000001_Node000004"><a xlink:title=" ">
<path fill="none" stroke="#63b8ff" d="M521.81,-189.25C473.76,-179.42 406.1,-165.58 361.48,-156.46"/>
<polygon fill="#63b8ff" stroke="#63b8ff" points="520.98,-192.65 531.48,-191.23 522.38,-185.8 520.98,-192.65"/>
</a>
</g>
</g>
<!-- Node5 -->
<g id="Node000005" class="node">
<title>Node5</title>
<g id="a_Node000005"><a xlink:href="_foo_tests_8cpp.html" target="_top" xlink:title=" ">
<polygon fill="white" stroke="#666666" points="490.38,-156 388.12,-156 388.12,-136 490.38,-136 490.38,-156"/>
<text text-anchor="middle" x="439.25" y="-142.5" font-family="Helvetica,sans-Serif" font-size="10.00">Tests/FooTests.cpp</text>
</a>
</g>
</g>
<!-- Node1&#45;&gt;Node5 -->
<g id="edge4_Node000001_Node000005" class="edge">
<title>Node1&#45;&gt;Node5</title>
<g id="a_edge4_Node000001_Node000005"><a xlink:title=" ">
<path fill="none" stroke="#63b8ff" d="M544.33,-187.53C519.28,-177.87 486.14,-165.08 463.83,-156.48"/>
<polygon fill="#63b8ff" stroke="#63b8ff" points="542.86,-190.72 553.45,-191.05 545.38,-184.18 542.86,-190.72"/>
</a>
</g>
</g>
<!-- Node6 -->
<g id="Node000006" class="node">
<title>Node6</title>
<g id="a_Node000006"><a xlink:href="_heap_allocator_test_8cpp.html" target="_top" xlink:title=" ">
<polygon fill="white" stroke="#666666" points="650.25,-156 508.25,-156 508.25,-136 650.25,-136 650.25,-156"/>
<text text-anchor="middle" x="579.25" y="-142.5" font-family="Helvetica,sans-Serif" font-size="10.00">Tests/HeapAllocatorTest.cpp</text>
</a>
</g>
</g>
<!-- Node1&#45;&gt;Node6 -->
<g id="edge5_Node000001_Node000006" class="edge">
<title>Node1&#45;&gt;Node6</title>
<g id="a_edge5_Node000001_Node000006"><a xlink:title=" ">
<path fill="none" stroke="#63b8ff" d="M579.25,-180.13C579.25,-171.9 579.25,-162.85 579.25,-156.3"/>
<polygon fill="#63b8ff" stroke="#63b8ff" points="575.75,-180.08 579.25,-190.08 582.75,-180.08 575.75,-180.08"/>
</a>
</g>
</g>
<!-- Node7 -->
<g id="Node000007" class="node">
<title>Node7</title>
<g id="a_Node000007"><a xlink:href="_r_t_t_i_test_8cpp.html" target="_top" xlink:title=" ">
<polygon fill="white" stroke="#666666" points="770.38,-156 668.12,-156 668.12,-136 770.38,-136 770.38,-156"/>
<text text-anchor="middle" x="719.25" y="-142.5" font-family="Helvetica,sans-Serif" font-size="10.00">Tests/RTTITest.cpp</text>
</a>
</g>
</g>
<!-- Node1&#45;&gt;Node7 -->
<g id="edge6_Node000001_Node000007" class="edge">
<title>Node1&#45;&gt;Node7</title>
<g id="a_edge6_Node000001_Node000007"><a xlink:title=" ">
<path fill="none" stroke="#63b8ff" d="M614.17,-187.53C639.22,-177.87 672.36,-165.08 694.67,-156.48"/>
<polygon fill="#63b8ff" stroke="#63b8ff" points="613.12,-184.18 605.05,-191.05 615.64,-190.72 613.12,-184.18"/>
</a>
</g>
</g>
<!-- Node8 -->
<g id="Node000008" class="node">
<title>Node8</title>
<g id="a_Node000008"><a xlink:href="_attribute_box_8h.html" target="_top" xlink:title=" ">
<polygon fill="white" stroke="#666666" points="930.25,-156 788.25,-156 788.25,-136 930.25,-136 930.25,-156"/>
<text text-anchor="middle" x="859.25" y="-142.5" font-family="Helvetica,sans-Serif" font-size="10.00">Tests/Support/AttributeBox.h</text>
</a>
</g>
</g>
<!-- Node1&#45;&gt;Node8 -->
<g id="edge7_Node000001_Node000008" class="edge">
<title>Node1&#45;&gt;Node8</title>
<g id="a_edge7_Node000001_Node000008"><a xlink:title=" ">
<path fill="none" stroke="#63b8ff" d="M639.53,-189.37C690.53,-179.54 762.7,-165.62 810.21,-156.46"/>
<polygon fill="#63b8ff" stroke="#63b8ff" points="638.99,-185.92 629.83,-191.25 640.31,-192.79 638.99,-185.92"/>
</a>
</g>
</g>
<!-- Node15 -->
<g id="Node000015" class="node">
<title>Node15</title>
<g id="a_Node000015"><a xlink:href="_foo_8cpp.html" target="_top" xlink:title=" ">
<polygon fill="white" stroke="#666666" points="1063.75,-156 948.75,-156 948.75,-136 1063.75,-136 1063.75,-156"/>
<text text-anchor="middle" x="1006.25" y="-142.5" font-family="Helvetica,sans-Serif" font-size="10.00">Tests/Support/Foo.cpp</text>
</a>
</g>
</g>
<!-- Node1&#45;&gt;Node15 -->
<g id="edge16_Node000001_Node000015" class="edge">
<title>Node1&#45;&gt;Node15</title>
<g id="a_edge16_Node000001_Node000015"><a xlink:title=" ">
<path fill="none" stroke="#63b8ff" d="M642.85,-193.23C714.81,-184.39 835.49,-169.45 939.25,-156 942.28,-155.61 945.38,-155.2 948.51,-154.79"/>
<polygon fill="#63b8ff" stroke="#63b8ff" points="642.74,-189.72 633.24,-194.41 643.59,-196.66 642.74,-189.72"/>
</a>
</g>
</g>
<!-- Node16 -->
<g id="Node000016" class="node">
<title>Node16</title>
<g id="a_Node000016"><a xlink:href="_foo_manager_8cpp.html" target="_top" xlink:title=" ">
<polygon fill="white" stroke="#666666" points="1234.5,-156 1082,-156 1082,-136 1234.5,-136 1234.5,-156"/>
<text text-anchor="middle" x="1158.25" y="-142.5" font-family="Helvetica,sans-Serif" font-size="10.00">Tests/Support/FooManager.cpp</text>
</a>
</g>
</g>
<!-- Node1&#45;&gt;Node16 -->
<g id="edge17_Node000001_Node000016" class="edge">
<title>Node1&#45;&gt;Node16</title>
<g id="a_edge17_Node000001_Node000016"><a xlink:title=" ">
<path fill="none" stroke="#63b8ff" d="M643.24,-195.47C737.44,-187.27 918.99,-171.19 1073.25,-156 1076.06,-155.72 1078.91,-155.44 1081.8,-155.15"/>
<polygon fill="#63b8ff" stroke="#63b8ff" points="643.08,-191.97 633.42,-196.33 643.69,-198.95 643.08,-191.97"/>
</a>
</g>
</g>
<!-- Node9 -->
<g id="Node000009" class="node">
<title>Node9</title>
<g id="a_Node000009"><a xlink:href="_attribute_box_tests_8cpp.html" target="_top" xlink:title=" ">
<polygon fill="white" stroke="#666666" points="680.12,-26 540.38,-26 540.38,-6 680.12,-6 680.12,-26"/>
<text text-anchor="middle" x="610.25" y="-12.5" font-family="Helvetica,sans-Serif" font-size="10.00">Tests/AttributeBoxTests.cpp</text>
</a>
</g>
</g>
<!-- Node8&#45;&gt;Node9 -->
<g id="edge8_Node000008_Node000009" class="edge">
<title>Node8&#45;&gt;Node9</title>
<g id="a_edge8_Node000008_Node000009"><a xlink:title=" ">
<path fill="none" stroke="#63b8ff" d="M780.4,-133.88C718.26,-124.41 640.28,-110.68 629.25,-100 608.86,-80.25 608.37,-43.44 609.4,-26.27"/>
<polygon fill="#63b8ff" stroke="#63b8ff" points="779.5,-137.28 789.91,-135.31 780.54,-130.36 779.5,-137.28"/>
</a>
</g>
</g>
<!-- Node10 -->
<g id="Node000010" class="node">
<title>Node10</title>
<g id="a_Node000010"><a xlink:href="_attributed_test_8cpp.html" target="_top" xlink:title=" ">
<polygon fill="white" stroke="#666666" points="1080.5,-26 958,-26 958,-6 1080.5,-6 1080.5,-26"/>
<text text-anchor="middle" x="1019.25" y="-12.5" font-family="Helvetica,sans-Serif" font-size="10.00">Tests/AttributedTest.cpp</text>
</a>
</g>
</g>
<!-- Node8&#45;&gt;Node10 -->
<g id="edge9_Node000008_Node000010" class="edge">
<title>Node8&#45;&gt;Node10</title>
<g id="a_edge9_Node000008_Node000010"><a xlink:title=" ">
<path fill="none" stroke="#63b8ff" d="M941.9,-135.35C1010.12,-126.53 1097.44,-112.93 1108.25,-100 1117.37,-89.09 1115.38,-80.31 1108.25,-68 1096.2,-47.2 1072.1,-34.15 1052.02,-26.47"/>
<polygon fill="#63b8ff" stroke="#63b8ff" points="941.68,-131.85 932.2,-136.59 942.56,-138.79 941.68,-131.85"/>
</a>
</g>
</g>
<!-- Node11 -->
<g id="Node000011" class="node">
<title>Node11</title>
<g id="a_Node000011"><a xlink:href="_serialization_tests_8cpp.html" target="_top" xlink:title=" ">
<polygon fill="white" stroke="#666666" points="928.75,-94 789.75,-94 789.75,-74 928.75,-74 928.75,-94"/>
<text text-anchor="middle" x="859.25" y="-80.5" font-family="Helvetica,sans-Serif" font-size="10.00">Tests/SerializationTests.cpp</text>
</a>
</g>
</g>
<!-- Node8&#45;&gt;Node11 -->
<g id="edge10_Node000008_Node000011" class="edge">
<title>Node8&#45;&gt;Node11</title>
<g id="a_edge10_Node000008_Node000011"><a xlink:title=" ">
<path fill="none" stroke="#63b8ff" d="M859.25,-124.25C859.25,-113.97 859.25,-102.09 859.25,-94.11"/>
<polygon fill="#63b8ff" stroke="#63b8ff" points="855.75,-124.11 859.25,-134.11 862.75,-124.11 855.75,-124.11"/>
</a>
</g>
</g>
<!-- Node12 -->
<g id="Node000012" class="node">
<title>Node12</title>
<g id="a_Node000012"><a xlink:href="_attribute_box_8cpp.html" target="_top" xlink:title=" ">
<polygon fill="white" stroke="#666666" points="1099.5,-94 947,-94 947,-74 1099.5,-74 1099.5,-94"/>
<text text-anchor="middle" x="1023.25" y="-80.5" font-family="Helvetica,sans-Serif" font-size="10.00">Tests/Support/AttributeBox.cpp</text>
</a>
</g>
</g>
<!-- Node8&#45;&gt;Node12 -->
<g id="edge11_Node000008_Node000012" class="edge">
<title>Node8&#45;&gt;Node12</title>
<g id="a_edge11_Node000008_Node000012"><a xlink:title=" ">
<path fill="none" stroke="#63b8ff" d="M895.64,-131.69C926.55,-120.38 970.14,-104.43 997.53,-94.41"/>
<polygon fill="#63b8ff" stroke="#63b8ff" points="894.49,-128.38 886.3,-135.1 896.89,-134.96 894.49,-128.38"/>
</a>
</g>
</g>
<!-- Node13 -->
<g id="Node000013" class="node">
<title>Node13</title>
<g id="a_Node000013"><a xlink:href="_attribute_box_plus_8h.html" target="_top" xlink:title=" ">
<polygon fill="white" stroke="#666666" points="772.12,-100 638.38,-100 638.38,-68 772.12,-68 772.12,-100"/>
<text text-anchor="start" x="646.38" y="-86.5" font-family="Helvetica,sans-Serif" font-size="10.00">Tests/Support/AttributeBox</text>
<text text-anchor="middle" x="705.25" y="-74.5" font-family="Helvetica,sans-Serif" font-size="10.00">Plus.h</text>
</a>
</g>
</g>
<!-- Node8&#45;&gt;Node13 -->
<g id="edge12_Node000008_Node000013" class="edge">
<title>Node8&#45;&gt;Node13</title>
<g id="a_edge12_Node000008_Node000013"><a xlink:title=" ">
<path fill="none" stroke="#63b8ff" d="M824.6,-131.5C800.98,-122.3 769.65,-110.09 745.01,-100.49"/>
<polygon fill="#63b8ff" stroke="#63b8ff" points="823.19,-134.71 833.78,-135.08 825.73,-128.18 823.19,-134.71"/>
</a>
</g>
</g>
<!-- Node13&#45;&gt;Node9 -->
<g id="edge13_Node000013_Node000009" class="edge">
<title>Node13&#45;&gt;Node9</title>
<g id="a_edge13_Node000013_Node000009"><a xlink:title=" ">
<path fill="none" stroke="#63b8ff" d="M674.12,-61.37C657.03,-49.5 636.71,-35.39 623.66,-26.32"/>
<polygon fill="#63b8ff" stroke="#63b8ff" points="671.76,-64 681.97,-66.83 675.76,-58.25 671.76,-64"/>
</a>
</g>
</g>
<!-- Node13&#45;&gt;Node10 -->
<g id="edge14_Node000013_Node000010" class="edge">
<title>Node13&#45;&gt;Node10</title>
<g id="a_edge14_Node000013_Node000010"><a xlink:title=" ">
<path fill="none" stroke="#63b8ff" d="M783.58,-66.53C843.71,-53.9 924.59,-36.9 974.26,-26.46"/>
<polygon fill="#63b8ff" stroke="#63b8ff" points="783.16,-63.05 774.09,-68.53 784.6,-69.9 783.16,-63.05"/>
</a>
</g>
</g>
<!-- Node14 -->
<g id="Node000014" class="node">
<title>Node14</title>
<g id="a_Node000014"><a xlink:href="_attribute_box_plus_8cpp.html" target="_top" xlink:title=" ">
<polygon fill="white" stroke="#666666" points="832.12,-32 698.38,-32 698.38,0 832.12,0 832.12,-32"/>
<text text-anchor="start" x="706.38" y="-18.5" font-family="Helvetica,sans-Serif" font-size="10.00">Tests/Support/AttributeBox</text>
<text text-anchor="middle" x="765.25" y="-6.5" font-family="Helvetica,sans-Serif" font-size="10.00">Plus.cpp</text>
</a>
</g>
</g>
<!-- Node13&#45;&gt;Node14 -->
<g id="edge15_Node000013_Node000014" class="edge">
<title>Node13&#45;&gt;Node14</title>
<g id="a_edge15_Node000013_Node000014"><a xlink:title=" ">
<path fill="none" stroke="#63b8ff" d="M726.68,-59.43C734.91,-50.38 744.08,-40.29 751.41,-32.22"/>
<polygon fill="#63b8ff" stroke="#63b8ff" points="724.32,-56.82 720.18,-66.57 729.5,-61.53 724.32,-56.82"/>
</a>
</g>
</g>
</g>
</svg>
