<?xml version="1.0" encoding="UTF-8" standalone="no"?>
<!DOCTYPE svg PUBLIC "-//W3C//DTD SVG 1.1//EN"
 "http://www.w3.org/Graphics/SVG/1.1/DTD/svg11.dtd">
<!-- Generated by graphviz version 12.2.1 (20241206.2353)
 -->
<!-- Title: FIEAGameEngine/src/content/GameObjectHandler.cpp Pages: 1 -->
<svg width="899pt" height="488pt"
 viewBox="0.00 0.00 898.50 488.00" xmlns="http://www.w3.org/2000/svg" xmlns:xlink="http://www.w3.org/1999/xlink">
<g id="graph0" class="graph" transform="scale(1 1) rotate(0) translate(4 484)">
<title>FIEAGameEngine/src/content/GameObjectHandler.cpp</title>
<!-- Node1 -->
<g id="Node000001" class="node">
<title>Node1</title>
<g id="a_Node000001"><a xlink:title=" ">
<polygon fill="#999999" stroke="#666666" points="432.88,-480 271.38,-480 271.38,-448 432.88,-448 432.88,-480"/>
<text text-anchor="start" x="279.38" y="-466.5" font-family="Helvetica,sans-Serif" font-size="10.00">FIEAGameEngine/src</text>
<text text-anchor="middle" x="352.12" y="-454.5" font-family="Helvetica,sans-Serif" font-size="10.00">/content/GameObjectHandler.cpp</text>
</a>
</g>
</g>
<!-- Node2 -->
<g id="Node000002" class="node">
<title>Node2</title>
<g id="a_Node000002"><a xlink:href="_game_object_handler_8h.html" target="_top" xlink:title=" ">
<polygon fill="white" stroke="#666666" points="269.25,-412 119,-412 119,-392 269.25,-392 269.25,-412"/>
<text text-anchor="middle" x="194.12" y="-398.5" font-family="Helvetica,sans-Serif" font-size="10.00">Content/GameObjectHandler.h</text>
</a>
</g>
</g>
<!-- Node1&#45;&gt;Node2 -->
<g id="edge1_Node000001_Node000002" class="edge">
<title>Node1&#45;&gt;Node2</title>
<g id="a_edge1_Node000001_Node000002"><a xlink:title=" ">
<path fill="none" stroke="#63b8ff" d="M311.44,-447.55C286.06,-437.91 253.73,-425.64 229.44,-416.41"/>
<polygon fill="#63b8ff" stroke="#63b8ff" points="230.91,-413.22 220.31,-412.95 228.42,-419.77 230.91,-413.22"/>
</a>
</g>
</g>
<!-- Node18 -->
<g id="Node000018" class="node">
<title>Node18</title>
<g id="a_Node000018"><a xlink:href="_game_object_8h.html" target="_top" xlink:title=" ">
<polygon fill="white" stroke="#666666" points="552.38,-412 435.88,-412 435.88,-392 552.38,-392 552.38,-412"/>
<text text-anchor="middle" x="494.12" y="-398.5" font-family="Helvetica,sans-Serif" font-size="10.00">Content/GameObject.h</text>
</a>
</g>
</g>
<!-- Node1&#45;&gt;Node18 -->
<g id="edge19_Node000001_Node000018" class="edge">
<title>Node1&#45;&gt;Node18</title>
<g id="a_edge19_Node000001_Node000018"><a xlink:title=" ">
<path fill="none" stroke="#63b8ff" d="M388.69,-447.55C411.19,-438.04 439.77,-425.97 461.5,-416.79"/>
<polygon fill="#63b8ff" stroke="#63b8ff" points="462.62,-420.11 470.47,-413 459.89,-413.67 462.62,-420.11"/>
</a>
</g>
</g>
<!-- Node34 -->
<g id="Node000034" class="node">
<title>Node34</title>
<g id="a_Node000034"><a xlink:href="_scope_writer_8h.html" target="_top" xlink:title=" ">
<polygon fill="white" stroke="#666666" points="455.88,-300 378.38,-300 378.38,-280 455.88,-280 455.88,-300"/>
<text text-anchor="middle" x="417.12" y="-286.5" font-family="Helvetica,sans-Serif" font-size="10.00">ScopeWriter.h</text>
</a>
</g>
</g>
<!-- Node1&#45;&gt;Node34 -->
<g id="edge39_Node000001_Node000034" class="edge">
<title>Node1&#45;&gt;Node34</title>
<g id="a_edge39_Node000001_Node000034"><a xlink:title=" ">
<path fill="none" stroke="#63b8ff" d="M357.89,-447.74C369.68,-416.55 396.51,-345.56 409.62,-310.85"/>
<polygon fill="#63b8ff" stroke="#63b8ff" points="412.85,-312.22 413.11,-301.63 406.3,-309.74 412.85,-312.22"/>
</a>
</g>
</g>
<!-- Node36 -->
<g id="Node000036" class="node">
<title>Node36</title>
<g id="a_Node000036"><a xlink:href="_test_writer_8h.html" target="_top" xlink:title=" ">
<polygon fill="white" stroke="#666666" points="351.38,-300 282.88,-300 282.88,-280 351.38,-280 351.38,-300"/>
<text text-anchor="middle" x="317.12" y="-286.5" font-family="Helvetica,sans-Serif" font-size="10.00">TestWriter.h</text>
</a>
</g>
</g>
<!-- Node1&#45;&gt;Node36 -->
<g id="edge47_Node000001_Node000036" class="edge">
<title>Node1&#45;&gt;Node36</title>
<g id="a_edge47_Node000001_Node000036"><a xlink:title=" ">
<path fill="none" stroke="#63b8ff" d="M349.02,-447.74C342.7,-416.69 328.35,-346.18 321.26,-311.31"/>
<polygon fill="#63b8ff" stroke="#63b8ff" points="324.72,-310.79 319.3,-301.69 317.87,-312.19 324.72,-310.79"/>
</a>
</g>
</g>
<!-- Node3 -->
<g id="Node000003" class="node">
<title>Node3</title>
<g id="a_Node000003"><a xlink:href="_i_parse_handler_8h.html" target="_top" xlink:title=" ">
<polygon fill="white" stroke="#666666" points="145.38,-300 58.88,-300 58.88,-280 145.38,-280 145.38,-300"/>
<text text-anchor="middle" x="102.12" y="-286.5" font-family="Helvetica,sans-Serif" font-size="10.00">IParseHandler.h</text>
</a>
</g>
</g>
<!-- Node2&#45;&gt;Node3 -->
<g id="edge2_Node000002_Node000003" class="edge">
<title>Node2&#45;&gt;Node3</title>
<g id="a_edge2_Node000002_Node000003"><a xlink:title=" ">
<path fill="none" stroke="#63b8ff" d="M186.28,-391.62C171,-373.36 137.03,-332.73 117.24,-309.07"/>
<polygon fill="#63b8ff" stroke="#63b8ff" points="120.02,-306.94 110.92,-301.52 114.65,-311.43 120.02,-306.94"/>
</a>
</g>
</g>
<!-- Node4 -->
<g id="Node000004" class="node">
<title>Node4</title>
<g id="a_Node000004"><a xlink:href="_parse_writer_8h.html" target="_top" xlink:title=" ">
<polygon fill="white" stroke="#666666" points="247.75,-244 172.5,-244 172.5,-224 247.75,-224 247.75,-244"/>
<text text-anchor="middle" x="210.12" y="-230.5" font-family="Helvetica,sans-Serif" font-size="10.00">ParseWriter.h</text>
</a>
</g>
</g>
<!-- Node3&#45;&gt;Node4 -->
<g id="edge3_Node000003_Node000004" class="edge">
<title>Node3&#45;&gt;Node4</title>
<g id="a_edge3_Node000003_Node000004"><a xlink:title=" ">
<path fill="none" stroke="#63b8ff" d="M120.94,-279.59C137.48,-271.32 161.84,-259.14 180.92,-249.6"/>
<polygon fill="#63b8ff" stroke="#63b8ff" points="182.43,-252.76 189.81,-245.16 179.3,-246.5 182.43,-252.76"/>
</a>
</g>
</g>
<!-- Node12 -->
<g id="Node000012" class="node">
<title>Node12</title>
<g id="a_Node000012"><a xlink:title=" ">
<polygon fill="#e0e0e0" stroke="#999999" points="639.12,-20 599.12,-20 599.12,0 639.12,0 639.12,-20"/>
<text text-anchor="middle" x="619.12" y="-6.5" font-family="Helvetica,sans-Serif" font-size="10.00">string</text>
</a>
</g>
</g>
<!-- Node3&#45;&gt;Node12 -->
<g id="edge17_Node000003_Node000012" class="edge">
<title>Node3&#45;&gt;Node12</title>
<g id="a_edge17_Node000003_Node000012"><a xlink:title=" ">
<path fill="none" stroke="#63b8ff" d="M82.56,-279.65C60.25,-267.68 28.64,-245.84 43.12,-224 149.26,-64 258.86,-116.36 441.12,-56 501.74,-35.93 521.18,-37.19 587.72,-19.96"/>
<polygon fill="#63b8ff" stroke="#63b8ff" points="588.58,-23.35 597.35,-17.42 586.79,-16.58 588.58,-23.35"/>
</a>
</g>
</g>
<!-- Node17 -->
<g id="Node000017" class="node">
<title>Node17</title>
<g id="a_Node000017"><a xlink:title=" ">
<polygon fill="#e0e0e0" stroke="#999999" points="115.75,-244 52.5,-244 52.5,-224 115.75,-224 115.75,-244"/>
<text text-anchor="middle" x="84.12" y="-230.5" font-family="Helvetica,sans-Serif" font-size="10.00">json/json.h</text>
</a>
</g>
</g>
<!-- Node3&#45;&gt;Node17 -->
<g id="edge18_Node000003_Node000017" class="edge">
<title>Node3&#45;&gt;Node17</title>
<g id="a_edge18_Node000003_Node000017"><a xlink:title=" ">
<path fill="none" stroke="#63b8ff" d="M98.99,-279.59C96.74,-272.86 93.64,-263.53 90.84,-255.15"/>
<polygon fill="#63b8ff" stroke="#63b8ff" points="94.19,-254.11 87.7,-245.73 87.55,-256.33 94.19,-254.11"/>
</a>
</g>
</g>
<!-- Node5 -->
<g id="Node000005" class="node">
<title>Node5</title>
<g id="a_Node000005"><a xlink:href="_r_t_t_i_8h.html" target="_top" xlink:title=" ">
<polygon fill="white" stroke="#666666" points="578,-132 450.25,-132 450.25,-112 578,-112 578,-132"/>
<text text-anchor="middle" x="514.12" y="-118.5" font-family="Helvetica,sans-Serif" font-size="10.00">FIEAGameEngine/RTTI.h</text>
</a>
</g>
</g>
<!-- Node4&#45;&gt;Node5 -->
<g id="edge4_Node000004_Node000005" class="edge">
<title>Node4&#45;&gt;Node5</title>
<g id="a_edge4_Node000004_Node000005"><a xlink:title=" ">
<path fill="none" stroke="#63b8ff" d="M219.13,-223.83C233.72,-209.56 264.02,-182.18 295.12,-168 340.35,-147.38 395.13,-136.13 438.59,-130.03"/>
<polygon fill="#63b8ff" stroke="#63b8ff" points="439,-133.51 448.45,-128.72 438.08,-126.57 439,-133.51"/>
</a>
</g>
</g>
<!-- Node16 -->
<g id="Node000016" class="node">
<title>Node16</title>
<g id="a_Node000016"><a xlink:title=" ">
<polygon fill="#e0e0e0" stroke="#999999" points="344.12,-188 304.12,-188 304.12,-168 344.12,-168 344.12,-188"/>
<text text-anchor="middle" x="324.12" y="-174.5" font-family="Helvetica,sans-Serif" font-size="10.00">stack</text>
</a>
</g>
</g>
<!-- Node4&#45;&gt;Node16 -->
<g id="edge16_Node000004_Node000016" class="edge">
<title>Node4&#45;&gt;Node16</title>
<g id="a_edge16_Node000004_Node000016"><a xlink:title=" ">
<path fill="none" stroke="#63b8ff" d="M229.98,-223.59C247.61,-215.24 273.63,-202.92 293.85,-193.34"/>
<polygon fill="#63b8ff" stroke="#63b8ff" points="295.21,-196.57 302.74,-189.13 292.21,-190.25 295.21,-196.57"/>
</a>
</g>
</g>
<!-- Node6 -->
<g id="Node000006" class="node">
<title>Node6</title>
<g id="a_Node000006"><a xlink:href="_types_8h.html" target="_top" xlink:title=" ">
<polygon fill="white" stroke="#666666" points="288.25,-76 156,-76 156,-56 288.25,-56 288.25,-76"/>
<text text-anchor="middle" x="222.12" y="-62.5" font-family="Helvetica,sans-Serif" font-size="10.00">FIEAGameEngine/Types.h</text>
</a>
</g>
</g>
<!-- Node5&#45;&gt;Node6 -->
<g id="edge5_Node000005_Node000006" class="edge">
<title>Node5&#45;&gt;Node6</title>
<g id="a_edge5_Node000005_Node000006"><a xlink:title=" ">
<path fill="none" stroke="#63b8ff" d="M462.93,-111.53C413.15,-102.33 337.46,-88.33 284.26,-78.49"/>
<polygon fill="#63b8ff" stroke="#63b8ff" points="285.22,-75.11 274.75,-76.73 283.95,-81.99 285.22,-75.11"/>
</a>
</g>
</g>
<!-- Node15 -->
<g id="Node000015" class="node">
<title>Node15</title>
<g id="a_Node000015"><a xlink:href="_r_t_t_i_8inl.html" target="_top" xlink:title=" ">
<polygon fill="white" stroke="#666666" points="578.38,-76 449.88,-76 449.88,-56 578.38,-56 578.38,-76"/>
<text text-anchor="middle" x="514.12" y="-62.5" font-family="Helvetica,sans-Serif" font-size="10.00">FieaGameEngine/RTTI.inl</text>
</a>
</g>
</g>
<!-- Node5&#45;&gt;Node15 -->
<g id="edge14_Node000005_Node000015" class="edge">
<title>Node5&#45;&gt;Node15</title>
<g id="a_edge14_Node000005_Node000015"><a xlink:title=" ">
<path fill="none" stroke="#63b8ff" d="M508.86,-111.59C507.54,-105.01 507.1,-95.96 507.54,-87.73"/>
<polygon fill="#63b8ff" stroke="#63b8ff" points="511.02,-88.14 508.7,-77.8 504.06,-87.33 511.02,-88.14"/>
</a>
</g>
</g>
<!-- Node7 -->
<g id="Node000007" class="node">
<title>Node7</title>
<g id="a_Node000007"><a xlink:title=" ">
<polygon fill="#e0e0e0" stroke="#999999" points="579.38,-20 516.88,-20 516.88,0 579.38,0 579.38,-20"/>
<text text-anchor="middle" x="548.12" y="-6.5" font-family="Helvetica,sans-Serif" font-size="10.00">windows.h</text>
</a>
</g>
</g>
<!-- Node6&#45;&gt;Node7 -->
<g id="edge6_Node000006_Node000007" class="edge">
<title>Node6&#45;&gt;Node7</title>
<g id="a_edge6_Node000006_Node000007"><a xlink:title=" ">
<path fill="none" stroke="#63b8ff" d="M288.51,-55.81C344,-47.84 425.48,-35.48 505.45,-20.41"/>
<polygon fill="#63b8ff" stroke="#63b8ff" points="506.07,-23.86 515.24,-18.55 504.76,-16.98 506.07,-23.86"/>
</a>
</g>
</g>
<!-- Node8 -->
<g id="Node000008" class="node">
<title>Node8</title>
<g id="a_Node000008"><a xlink:title=" ">
<polygon fill="#e0e0e0" stroke="#999999" points="48.25,-20 0,-20 0,0 48.25,0 48.25,-20"/>
<text text-anchor="middle" x="24.12" y="-6.5" font-family="Helvetica,sans-Serif" font-size="10.00">cassert</text>
</a>
</g>
</g>
<!-- Node6&#45;&gt;Node8 -->
<g id="edge7_Node000006_Node000008" class="edge">
<title>Node6&#45;&gt;Node8</title>
<g id="a_edge7_Node000006_Node000008"><a xlink:title=" ">
<path fill="none" stroke="#63b8ff" d="M187.64,-55.59C151.74,-45.81 95.82,-30.55 59.57,-20.67"/>
<polygon fill="#63b8ff" stroke="#63b8ff" points="60.58,-17.31 50.01,-18.06 58.73,-24.07 60.58,-17.31"/>
</a>
</g>
</g>
<!-- Node9 -->
<g id="Node000009" class="node">
<title>Node9</title>
<g id="a_Node000009"><a xlink:title=" ">
<polygon fill="#e0e0e0" stroke="#999999" points="114.25,-20 66,-20 66,0 114.25,0 114.25,-20"/>
<text text-anchor="middle" x="90.12" y="-6.5" font-family="Helvetica,sans-Serif" font-size="10.00">cstddef</text>
</a>
</g>
</g>
<!-- Node6&#45;&gt;Node9 -->
<g id="edge8_Node000006_Node000009" class="edge">
<title>Node6&#45;&gt;Node9</title>
<g id="a_edge8_Node000006_Node000009"><a xlink:title=" ">
<path fill="none" stroke="#63b8ff" d="M199.13,-55.59C178.34,-47.09 147.47,-34.46 123.89,-24.81"/>
<polygon fill="#63b8ff" stroke="#63b8ff" points="125.28,-21.6 114.7,-21.05 122.63,-28.08 125.28,-21.6"/>
</a>
</g>
</g>
<!-- Node10 -->
<g id="Node000010" class="node">
<title>Node10</title>
<g id="a_Node000010"><a xlink:title=" ">
<polygon fill="#e0e0e0" stroke="#999999" points="177.75,-20 132.5,-20 132.5,0 177.75,0 177.75,-20"/>
<text text-anchor="middle" x="155.12" y="-6.5" font-family="Helvetica,sans-Serif" font-size="10.00">cstdint</text>
</a>
</g>
</g>
<!-- Node6&#45;&gt;Node10 -->
<g id="edge9_Node000006_Node000010" class="edge">
<title>Node6&#45;&gt;Node10</title>
<g id="a_edge9_Node000006_Node000010"><a xlink:title=" ">
<path fill="none" stroke="#63b8ff" d="M210.45,-55.59C200.85,-47.85 187,-36.69 175.56,-27.47"/>
<polygon fill="#63b8ff" stroke="#63b8ff" points="177.82,-24.8 167.84,-21.25 173.43,-30.25 177.82,-24.8"/>
</a>
</g>
</g>
<!-- Node11 -->
<g id="Node000011" class="node">
<title>Node11</title>
<g id="a_Node000011"><a xlink:title=" ">
<polygon fill="#e0e0e0" stroke="#999999" points="248.5,-20 195.75,-20 195.75,0 248.5,0 248.5,-20"/>
<text text-anchor="middle" x="222.12" y="-6.5" font-family="Helvetica,sans-Serif" font-size="10.00">cstdbool</text>
</a>
</g>
</g>
<!-- Node6&#45;&gt;Node11 -->
<g id="edge10_Node000006_Node000011" class="edge">
<title>Node6&#45;&gt;Node11</title>
<g id="a_edge10_Node000006_Node000011"><a xlink:title=" ">
<path fill="none" stroke="#63b8ff" d="M222.12,-55.59C222.12,-49.01 222.12,-39.96 222.12,-31.73"/>
<polygon fill="#63b8ff" stroke="#63b8ff" points="225.63,-31.81 222.13,-21.81 218.63,-31.81 225.63,-31.81"/>
</a>
</g>
</g>
<!-- Node6&#45;&gt;Node12 -->
<g id="edge11_Node000006_Node000012" class="edge">
<title>Node6&#45;&gt;Node12</title>
<g id="a_edge11_Node000006_Node000012"><a xlink:title=" ">
<path fill="none" stroke="#63b8ff" d="M288.64,-57.41C378.74,-47.04 533.58,-28.91 587.67,-19.51"/>
<polygon fill="#63b8ff" stroke="#63b8ff" points="588.24,-22.97 597.41,-17.66 586.93,-16.09 588.24,-22.97"/>
</a>
</g>
</g>
<!-- Node13 -->
<g id="Node000013" class="node">
<title>Node13</title>
<g id="a_Node000013"><a xlink:title=" ">
<polygon fill="#e0e0e0" stroke="#999999" points="321.25,-20 267,-20 267,0 321.25,0 321.25,-20"/>
<text text-anchor="middle" x="294.12" y="-6.5" font-family="Helvetica,sans-Serif" font-size="10.00">crtdefs.h</text>
</a>
</g>
</g>
<!-- Node6&#45;&gt;Node13 -->
<g id="edge12_Node000006_Node000013" class="edge">
<title>Node6&#45;&gt;Node13</title>
<g id="a_edge12_Node000006_Node000013"><a xlink:title=" ">
<path fill="none" stroke="#63b8ff" d="M234.67,-55.59C245.09,-47.77 260.17,-36.46 272.54,-27.19"/>
<polygon fill="#63b8ff" stroke="#63b8ff" points="274.62,-30.01 280.52,-21.21 270.42,-24.41 274.62,-30.01"/>
</a>
</g>
</g>
<!-- Node14 -->
<g id="Node000014" class="node">
<title>Node14</title>
<g id="a_Node000014"><a xlink:title=" ">
<polygon fill="#e0e0e0" stroke="#999999" points="499.12,-20 339.12,-20 339.12,0 499.12,0 499.12,-20"/>
<text text-anchor="middle" x="419.12" y="-6.5" font-family="Helvetica,sans-Serif" font-size="10.00">../src/memory/SystemAllocator.h</text>
</a>
</g>
</g>
<!-- Node6&#45;&gt;Node14 -->
<g id="edge13_Node000006_Node000014" class="edge">
<title>Node6&#45;&gt;Node14</title>
<g id="a_edge13_Node000006_Node000014"><a xlink:title=" ">
<path fill="none" stroke="#63b8ff" d="M256.44,-55.59C288.87,-46.71 337.74,-33.31 373.45,-23.52"/>
<polygon fill="#63b8ff" stroke="#63b8ff" points="374.36,-26.9 383.08,-20.88 372.51,-20.15 374.36,-26.9"/>
</a>
</g>
</g>
<!-- Node15&#45;&gt;Node5 -->
<g id="edge15_Node000015_Node000005" class="edge">
<title>Node15&#45;&gt;Node5</title>
<g id="a_edge15_Node000015_Node000005"><a xlink:title=" ">
<path fill="none" stroke="#63b8ff" d="M519.37,-76.3C520.71,-82.93 521.16,-92.11 520.7,-100.43"/>
<polygon fill="#63b8ff" stroke="#63b8ff" points="517.26,-99.75 519.57,-110.09 524.21,-100.57 517.26,-99.75"/>
</a>
</g>
</g>
<!-- Node19 -->
<g id="Node000019" class="node">
<title>Node19</title>
<g id="a_Node000019"><a xlink:href="_attributed_8h.html" target="_top" xlink:title=" ">
<polygon fill="white" stroke="#666666" points="599.25,-300 533,-300 533,-280 599.25,-280 599.25,-300"/>
<text text-anchor="middle" x="566.12" y="-286.5" font-family="Helvetica,sans-Serif" font-size="10.00">Attributed.h</text>
</a>
</g>
</g>
<!-- Node18&#45;&gt;Node19 -->
<g id="edge20_Node000018_Node000019" class="edge">
<title>Node18&#45;&gt;Node19</title>
<g id="a_edge20_Node000018_Node000019"><a xlink:title=" ">
<path fill="none" stroke="#63b8ff" d="M495.11,-391.91C496.89,-378.68 501.61,-353.75 513.12,-336 520.49,-324.64 531.58,-314.6 541.71,-306.9"/>
<polygon fill="#63b8ff" stroke="#63b8ff" points="543.65,-309.81 549.75,-301.15 539.58,-304.12 543.65,-309.81"/>
</a>
</g>
</g>
<!-- Node33 -->
<g id="Node000033" class="node">
<title>Node33</title>
<g id="a_Node000033"><a xlink:href="_action_8h.html" target="_top" xlink:title=" ">
<polygon fill="white" stroke="#666666" points="610.12,-356 522.12,-356 522.12,-336 610.12,-336 610.12,-356"/>
<text text-anchor="middle" x="566.12" y="-342.5" font-family="Helvetica,sans-Serif" font-size="10.00">Actions/Action.h</text>
</a>
</g>
</g>
<!-- Node18&#45;&gt;Node33 -->
<g id="edge37_Node000018_Node000033" class="edge">
<title>Node18&#45;&gt;Node33</title>
<g id="a_edge37_Node000018_Node000033"><a xlink:title=" ">
<path fill="none" stroke="#63b8ff" d="M506.67,-391.59C517.09,-383.77 532.17,-372.46 544.54,-363.19"/>
<polygon fill="#63b8ff" stroke="#63b8ff" points="546.62,-366.01 552.52,-357.21 542.42,-360.41 546.62,-366.01"/>
</a>
</g>
</g>
<!-- Node19&#45;&gt;Node5 -->
<g id="edge21_Node000019_Node000005" class="edge">
<title>Node19&#45;&gt;Node5</title>
<g id="a_edge21_Node000019_Node000005"><a xlink:title=" ">
<path fill="none" stroke="#63b8ff" d="M563.18,-279.6C554.96,-253.35 531.62,-178.84 520.35,-142.89"/>
<polygon fill="#63b8ff" stroke="#63b8ff" points="523.82,-142.24 517.49,-133.74 517.14,-144.33 523.82,-142.24"/>
</a>
</g>
</g>
<!-- Node20 -->
<g id="Node000020" class="node">
<title>Node20</title>
<g id="a_Node000020"><a xlink:href="_scope_8h.html" target="_top" xlink:title=" ">
<polygon fill="white" stroke="#666666" points="646.12,-244 594.12,-244 594.12,-224 646.12,-224 646.12,-244"/>
<text text-anchor="middle" x="620.12" y="-230.5" font-family="Helvetica,sans-Serif" font-size="10.00">Scope.h</text>
</a>
</g>
</g>
<!-- Node19&#45;&gt;Node20 -->
<g id="edge22_Node000019_Node000020" class="edge">
<title>Node19&#45;&gt;Node20</title>
<g id="a_edge22_Node000019_Node000020"><a xlink:title=" ">
<path fill="none" stroke="#63b8ff" d="M575.53,-279.59C583.04,-272.08 593.77,-261.35 602.82,-252.3"/>
<polygon fill="#63b8ff" stroke="#63b8ff" points="605.16,-254.91 609.76,-245.37 600.21,-249.96 605.16,-254.91"/>
</a>
</g>
</g>
<!-- Node26 -->
<g id="Node000026" class="node">
<title>Node26</title>
<g id="a_Node000026"><a xlink:title=" ">
<polygon fill="#e0e0e0" stroke="#999999" points="472.62,-188 429.62,-188 429.62,-168 472.62,-168 472.62,-188"/>
<text text-anchor="middle" x="451.12" y="-174.5" font-family="Helvetica,sans-Serif" font-size="10.00">vector</text>
</a>
</g>
</g>
<!-- Node19&#45;&gt;Node26 -->
<g id="edge35_Node000019_Node000026" class="edge">
<title>Node19&#45;&gt;Node26</title>
<g id="a_edge35_Node000019_Node000026"><a xlink:title=" ">
<path fill="none" stroke="#63b8ff" d="M556.32,-279.62C536.97,-261.11 493.62,-219.65 469.03,-196.13"/>
<polygon fill="#63b8ff" stroke="#63b8ff" points="471.64,-193.78 462,-189.4 466.81,-198.84 471.64,-193.78"/>
</a>
</g>
</g>
<!-- Node32 -->
<g id="Node000032" class="node">
<title>Node32</title>
<g id="a_Node000032"><a xlink:title=" ">
<polygon fill="#e0e0e0" stroke="#999999" points="722.12,-244 664.12,-244 664.12,-224 722.12,-224 722.12,-244"/>
<text text-anchor="middle" x="693.12" y="-230.5" font-family="Helvetica,sans-Serif" font-size="10.00">functional</text>
</a>
</g>
</g>
<!-- Node19&#45;&gt;Node32 -->
<g id="edge36_Node000019_Node000032" class="edge">
<title>Node19&#45;&gt;Node32</title>
<g id="a_edge36_Node000019_Node000032"><a xlink:title=" ">
<path fill="none" stroke="#63b8ff" d="M588.25,-279.59C608.16,-271.13 637.68,-258.58 660.33,-248.94"/>
<polygon fill="#63b8ff" stroke="#63b8ff" points="661.6,-252.21 669.44,-245.07 658.87,-245.76 661.6,-252.21"/>
</a>
</g>
</g>
<!-- Node20&#45;&gt;Node5 -->
<g id="edge23_Node000020_Node000005" class="edge">
<title>Node20&#45;&gt;Node5</title>
<g id="a_edge23_Node000020_Node000005"><a xlink:title=" ">
<path fill="none" stroke="#63b8ff" d="M604.17,-223.62C590.9,-215.32 572,-202.34 558.12,-188 544.67,-174.09 532.6,-155.61 524.52,-141.91"/>
<polygon fill="#63b8ff" stroke="#63b8ff" points="527.69,-140.4 519.7,-133.44 521.6,-143.86 527.69,-140.4"/>
</a>
</g>
</g>
<!-- Node21 -->
<g id="Node000021" class="node">
<title>Node21</title>
<g id="a_Node000021"><a xlink:href="_datum_8h.html" target="_top" xlink:title=" ">
<polygon fill="#fff0f0" stroke="red" points="672.88,-188 619.38,-188 619.38,-168 672.88,-168 672.88,-188"/>
<text text-anchor="middle" x="646.12" y="-174.5" font-family="Helvetica,sans-Serif" font-size="10.00">Datum.h</text>
</a>
</g>
</g>
<!-- Node20&#45;&gt;Node21 -->
<g id="edge24_Node000020_Node000021" class="edge">
<title>Node20&#45;&gt;Node21</title>
<g id="a_edge24_Node000020_Node000021"><a xlink:title=" ">
<path fill="none" stroke="#63b8ff" d="M624.65,-223.59C627.97,-216.7 632.59,-207.1 636.7,-198.57"/>
<polygon fill="#63b8ff" stroke="#63b8ff" points="639.81,-200.19 640.99,-189.66 633.5,-197.15 639.81,-200.19"/>
</a>
</g>
</g>
<!-- Node20&#45;&gt;Node26 -->
<g id="edge27_Node000020_Node000026" class="edge">
<title>Node20&#45;&gt;Node26</title>
<g id="a_edge27_Node000020_Node000026"><a xlink:title=" ">
<path fill="none" stroke="#63b8ff" d="M593.72,-224.56C563.99,-215.06 515.66,-199.62 483.64,-189.39"/>
<polygon fill="#63b8ff" stroke="#63b8ff" points="485.08,-186.17 474.49,-186.46 482.95,-192.84 485.08,-186.17"/>
</a>
</g>
</g>
<!-- Node27 -->
<g id="Node000027" class="node">
<title>Node27</title>
<g id="a_Node000027"><a xlink:title=" ">
<polygon fill="#e0e0e0" stroke="#999999" points="890.5,-132 807.75,-132 807.75,-112 890.5,-112 890.5,-132"/>
<text text-anchor="middle" x="849.12" y="-118.5" font-family="Helvetica,sans-Serif" font-size="10.00">unordered_map</text>
</a>
</g>
</g>
<!-- Node20&#45;&gt;Node27 -->
<g id="edge28_Node000020_Node000027" class="edge">
<title>Node20&#45;&gt;Node27</title>
<g id="a_edge28_Node000020_Node000027"><a xlink:title=" ">
<path fill="none" stroke="#63b8ff" d="M646.44,-225.97C649.36,-225.27 652.3,-224.6 655.12,-224 702.95,-213.9 840.52,-225.29 872.12,-188 883.45,-174.65 874.33,-155.34 864.42,-141.23"/>
<polygon fill="#63b8ff" stroke="#63b8ff" points="867.47,-139.45 858.61,-133.64 861.91,-143.71 867.47,-139.45"/>
</a>
</g>
</g>
<!-- Node28 -->
<g id="Node000028" class="node">
<title>Node28</title>
<g id="a_Node000028"><a xlink:title=" ">
<polygon fill="#e0e0e0" stroke="#999999" points="601.5,-188 566.75,-188 566.75,-168 601.5,-168 601.5,-188"/>
<text text-anchor="middle" x="584.12" y="-174.5" font-family="Helvetica,sans-Serif" font-size="10.00">map</text>
</a>
</g>
</g>
<!-- Node20&#45;&gt;Node28 -->
<g id="edge29_Node000020_Node000028" class="edge">
<title>Node20&#45;&gt;Node28</title>
<g id="a_edge29_Node000020_Node000028"><a xlink:title=" ">
<path fill="none" stroke="#63b8ff" d="M613.85,-223.59C609.11,-216.47 602.43,-206.45 596.6,-197.72"/>
<polygon fill="#63b8ff" stroke="#63b8ff" points="599.62,-195.94 591.16,-189.56 593.8,-199.82 599.62,-195.94"/>
</a>
</g>
</g>
<!-- Node29 -->
<g id="Node000029" class="node">
<title>Node29</title>
<g id="a_Node000029"><a xlink:href="_factory_service_8h.html" target="_top" xlink:title=" ">
<polygon fill="#fff0f0" stroke="red" points="863.12,-188 691.12,-188 691.12,-168 863.12,-168 863.12,-188"/>
<text text-anchor="middle" x="777.12" y="-174.5" font-family="Helvetica,sans-Serif" font-size="10.00">FIEAGameEngine/FactoryService.h</text>
</a>
</g>
</g>
<!-- Node20&#45;&gt;Node29 -->
<g id="edge30_Node000020_Node000029" class="edge">
<title>Node20&#45;&gt;Node29</title>
<g id="a_edge30_Node000020_Node000029"><a xlink:title=" ">
<path fill="none" stroke="#63b8ff" d="M646.4,-223.96C671.68,-215.27 710.18,-202.03 738.86,-192.16"/>
<polygon fill="#63b8ff" stroke="#63b8ff" points="739.96,-195.49 748.27,-188.92 737.68,-188.87 739.96,-195.49"/>
</a>
</g>
</g>
<!-- Node21&#45;&gt;Node5 -->
<g id="edge26_Node000021_Node000005" class="edge">
<title>Node21&#45;&gt;Node5</title>
<g id="a_edge26_Node000021_Node000005"><a xlink:title=" ">
<path fill="none" stroke="#63b8ff" d="M623.13,-167.59C602.34,-159.09 571.47,-146.46 547.89,-136.81"/>
<polygon fill="#63b8ff" stroke="#63b8ff" points="549.28,-133.6 538.7,-133.05 546.63,-140.08 549.28,-133.6"/>
</a>
</g>
</g>
<!-- Node21&#45;&gt;Node12 -->
<g id="edge25_Node000021_Node000012" class="edge">
<title>Node21&#45;&gt;Node12</title>
<g id="a_edge25_Node000021_Node000012"><a xlink:title=" ">
<path fill="none" stroke="#63b8ff" d="M644.6,-167.6C640.34,-141.46 628.31,-67.48 622.44,-31.36"/>
<polygon fill="#63b8ff" stroke="#63b8ff" points="625.94,-31.1 620.88,-21.79 619.03,-32.22 625.94,-31.1"/>
</a>
</g>
</g>
<!-- Node29&#45;&gt;Node5 -->
<g id="edge32_Node000029_Node000005" class="edge">
<title>Node29&#45;&gt;Node5</title>
<g id="a_edge32_Node000029_Node000005"><a xlink:title=" ">
<path fill="none" stroke="#63b8ff" d="M731.01,-167.53C686.55,-158.4 619.15,-144.56 571.29,-134.74"/>
<polygon fill="#63b8ff" stroke="#63b8ff" points="572.17,-131.34 561.67,-132.76 570.76,-138.2 572.17,-131.34"/>
</a>
</g>
</g>
<!-- Node29&#45;&gt;Node6 -->
<g id="edge31_Node000029_Node000006" class="edge">
<title>Node29&#45;&gt;Node6</title>
<g id="a_edge31_Node000029_Node000006"><a xlink:title=" ">
<path fill="none" stroke="#63b8ff" d="M754.47,-167.53C719.29,-153.23 649.13,-126.27 587.12,-112 489.32,-89.5 374.02,-77.66 299.58,-71.88"/>
<polygon fill="#63b8ff" stroke="#63b8ff" points="300.19,-68.42 289.95,-71.15 299.66,-75.4 300.19,-68.42"/>
</a>
</g>
</g>
<!-- Node29&#45;&gt;Node12 -->
<g id="edge33_Node000029_Node000012" class="edge">
<title>Node29&#45;&gt;Node12</title>
<g id="a_edge33_Node000029_Node000012"><a xlink:title=" ">
<path fill="none" stroke="#63b8ff" d="M768.18,-167.6C742.65,-140.78 669.17,-63.57 635.87,-28.6"/>
<polygon fill="#63b8ff" stroke="#63b8ff" points="638.45,-26.22 629.02,-21.39 633.38,-31.05 638.45,-26.22"/>
</a>
</g>
</g>
<!-- Node29&#45;&gt;Node27 -->
<g id="edge34_Node000029_Node000027" class="edge">
<title>Node29&#45;&gt;Node27</title>
<g id="a_edge34_Node000029_Node000027"><a xlink:title=" ">
<path fill="none" stroke="#63b8ff" d="M789.67,-167.59C800.09,-159.77 815.17,-148.46 827.54,-139.19"/>
<polygon fill="#63b8ff" stroke="#63b8ff" points="829.62,-142.01 835.52,-133.21 825.42,-136.41 829.62,-142.01"/>
</a>
</g>
</g>
<!-- Node33&#45;&gt;Node19 -->
<g id="edge38_Node000033_Node000019" class="edge">
<title>Node33&#45;&gt;Node19</title>
<g id="a_edge38_Node000033_Node000019"><a xlink:title=" ">
<path fill="none" stroke="#63b8ff" d="M566.12,-335.59C566.12,-329.01 566.12,-319.96 566.12,-311.73"/>
<polygon fill="#63b8ff" stroke="#63b8ff" points="569.63,-311.81 566.13,-301.81 562.63,-311.81 569.63,-311.81"/>
</a>
</g>
</g>
<!-- Node34&#45;&gt;Node4 -->
<g id="edge41_Node000034_Node000004" class="edge">
<title>Node34&#45;&gt;Node4</title>
<g id="a_edge41_Node000034_Node000004"><a xlink:title=" ">
<path fill="none" stroke="#63b8ff" d="M381.07,-279.59C346.7,-270.63 294.76,-257.08 257.15,-247.27"/>
<polygon fill="#63b8ff" stroke="#63b8ff" points="258.49,-244 247.93,-244.86 256.72,-250.77 258.49,-244"/>
</a>
</g>
</g>
<!-- Node34&#45;&gt;Node6 -->
<g id="edge40_Node000034_Node000006" class="edge">
<title>Node34&#45;&gt;Node6</title>
<g id="a_edge40_Node000034_Node000006"><a xlink:title=" ">
<path fill="none" stroke="#63b8ff" d="M401.88,-279.51C388.36,-270.84 368.31,-257.38 352.12,-244 324.76,-221.37 317.14,-215.87 295.12,-188 268.87,-154.76 244.82,-111.32 231.95,-86.55"/>
<polygon fill="#63b8ff" stroke="#63b8ff" points="235.07,-84.97 227.4,-77.66 228.84,-88.15 235.07,-84.97"/>
</a>
</g>
</g>
<!-- Node34&#45;&gt;Node16 -->
<g id="edge43_Node000034_Node000016" class="edge">
<title>Node34&#45;&gt;Node16</title>
<g id="a_edge43_Node000034_Node000016"><a xlink:title=" ">
<path fill="none" stroke="#63b8ff" d="M406.76,-279.81C397.09,-271.03 382.5,-257.2 371.12,-244 358.36,-229.18 345.45,-211.06 336.4,-197.72"/>
<polygon fill="#63b8ff" stroke="#63b8ff" points="339.35,-195.83 330.89,-189.45 333.53,-199.72 339.35,-195.83"/>
</a>
</g>
</g>
<!-- Node34&#45;&gt;Node20 -->
<g id="edge44_Node000034_Node000020" class="edge">
<title>Node34&#45;&gt;Node20</title>
<g id="a_edge44_Node000034_Node000020"><a xlink:title=" ">
<path fill="none" stroke="#63b8ff" d="M452.48,-279.59C489.03,-269.87 545.84,-254.76 583.02,-244.87"/>
<polygon fill="#63b8ff" stroke="#63b8ff" points="583.65,-248.32 592.42,-242.37 581.85,-241.56 583.65,-248.32"/>
</a>
</g>
</g>
<!-- Node34&#45;&gt;Node26 -->
<g id="edge42_Node000034_Node000026" class="edge">
<title>Node34&#45;&gt;Node26</title>
<g id="a_edge42_Node000034_Node000026"><a xlink:title=" ">
<path fill="none" stroke="#63b8ff" d="M435.34,-279.51C447.96,-271.82 463.77,-259.69 471.12,-244 478.16,-228.98 471.45,-210.88 463.97,-197.59"/>
<polygon fill="#63b8ff" stroke="#63b8ff" points="467.12,-196.03 458.85,-189.41 461.18,-199.74 467.12,-196.03"/>
</a>
</g>
</g>
<!-- Node35 -->
<g id="Node000035" class="node">
<title>Node35</title>
<g id="a_Node000035"><a xlink:href="_scope_writer_8inl.html" target="_top" xlink:title=" ">
<polygon fill="white" stroke="#666666" points="462.12,-244 380.12,-244 380.12,-224 462.12,-224 462.12,-244"/>
<text text-anchor="middle" x="421.12" y="-230.5" font-family="Helvetica,sans-Serif" font-size="10.00">ScopeWriter.inl</text>
</a>
</g>
</g>
<!-- Node34&#45;&gt;Node35 -->
<g id="edge45_Node000034_Node000035" class="edge">
<title>Node34&#45;&gt;Node35</title>
<g id="a_edge45_Node000034_Node000035"><a xlink:title=" ">
<path fill="none" stroke="#63b8ff" d="M412.55,-279.59C411.71,-272.93 411.96,-263.75 413.04,-255.44"/>
<polygon fill="#63b8ff" stroke="#63b8ff" points="416.45,-256.27 414.9,-245.78 409.57,-254.94 416.45,-256.27"/>
</a>
</g>
</g>
<!-- Node35&#45;&gt;Node34 -->
<g id="edge46_Node000035_Node000034" class="edge">
<title>Node35&#45;&gt;Node34</title>
<g id="a_edge46_Node000035_Node000034"><a xlink:title=" ">
<path fill="none" stroke="#63b8ff" d="M425.68,-244.3C426.53,-250.93 426.3,-260.11 425.23,-268.43"/>
<polygon fill="#63b8ff" stroke="#63b8ff" points="421.82,-267.63 423.37,-278.11 428.69,-268.94 421.82,-267.63"/>
</a>
</g>
</g>
<!-- Node36&#45;&gt;Node4 -->
<g id="edge49_Node000036_Node000004" class="edge">
<title>Node36&#45;&gt;Node4</title>
<g id="a_edge49_Node000036_Node000004"><a xlink:title=" ">
<path fill="none" stroke="#63b8ff" d="M298.49,-279.59C282.09,-271.32 257.97,-259.14 239.06,-249.6"/>
<polygon fill="#63b8ff" stroke="#63b8ff" points="240.76,-246.54 230.26,-245.16 237.61,-252.79 240.76,-246.54"/>
</a>
</g>
</g>
<!-- Node36&#45;&gt;Node6 -->
<g id="edge48_Node000036_Node000006" class="edge">
<title>Node36&#45;&gt;Node6</title>
<g id="a_edge48_Node000036_Node000006"><a xlink:title=" ">
<path fill="none" stroke="#63b8ff" d="M282.55,-283.77C241.7,-276.81 177.45,-263.11 163.12,-244 125.65,-194.01 178.13,-118.88 206.29,-84.86"/>
<polygon fill="#63b8ff" stroke="#63b8ff" points="208.69,-87.45 212.51,-77.57 203.36,-82.91 208.69,-87.45"/>
</a>
</g>
</g>
<!-- Node36&#45;&gt;Node26 -->
<g id="edge50_Node000036_Node000026" class="edge">
<title>Node36&#45;&gt;Node26</title>
<g id="a_edge50_Node000036_Node000026"><a xlink:title=" ">
<path fill="none" stroke="#63b8ff" d="M323.21,-279.69C332.39,-266.18 350.84,-240.91 371.12,-224 385.74,-211.81 404.14,-201.2 419.6,-193.35"/>
<polygon fill="#63b8ff" stroke="#63b8ff" points="420.96,-196.58 428.39,-189.04 417.87,-190.3 420.96,-196.58"/>
</a>
</g>
</g>
</g>
</svg>
