<?xml version="1.0" encoding="UTF-8" standalone="no"?>
<!DOCTYPE svg PUBLIC "-//W3C//DTD SVG 1.1//EN"
 "http://www.w3.org/Graphics/SVG/1.1/DTD/svg11.dtd">
<!-- Generated by graphviz version 12.2.1 (20241206.2353)
 -->
<!-- Title: FIEAGameEngine/src/memory/Heap.h Pages: 1 -->
<svg width="608pt" height="108pt"
 viewBox="0.00 0.00 608.00 108.00" xmlns="http://www.w3.org/2000/svg" xmlns:xlink="http://www.w3.org/1999/xlink">
<g id="graph0" class="graph" transform="scale(1 1) rotate(0) translate(4 104)">
<title>FIEAGameEngine/src/memory/Heap.h</title>
<!-- Node1 -->
<g id="Node000001" class="node">
<title>Node1</title>
<g id="a_Node000001"><a xlink:title=" ">
<polygon fill="#999999" stroke="#666666" points="337.25,-100 226,-100 226,-68 337.25,-68 337.25,-100"/>
<text text-anchor="start" x="234" y="-86.5" font-family="Helvetica,sans-Serif" font-size="10.00">FIEAGameEngine/src</text>
<text text-anchor="middle" x="281.62" y="-74.5" font-family="Helvetica,sans-Serif" font-size="10.00">/memory/Heap.h</text>
</a>
</g>
</g>
<!-- Node2 -->
<g id="Node000002" class="node">
<title>Node2</title>
<g id="a_Node000002"><a xlink:href="_heap_8cpp.html" target="_top" xlink:title=" ">
<polygon fill="white" stroke="#666666" points="111.25,-32 0,-32 0,0 111.25,0 111.25,-32"/>
<text text-anchor="start" x="8" y="-18.5" font-family="Helvetica,sans-Serif" font-size="10.00">FIEAGameEngine/src</text>
<text text-anchor="middle" x="55.62" y="-6.5" font-family="Helvetica,sans-Serif" font-size="10.00">/memory/Heap.cpp</text>
</a>
</g>
</g>
<!-- Node1&#45;&gt;Node2 -->
<g id="edge1_Node000001_Node000002" class="edge">
<title>Node1&#45;&gt;Node2</title>
<g id="a_edge1_Node000001_Node000002"><a xlink:title=" ">
<path fill="none" stroke="#63b8ff" d="M217.74,-64.34C183.3,-54.28 141.29,-42.02 108.67,-32.49"/>
<polygon fill="#63b8ff" stroke="#63b8ff" points="216.6,-67.66 227.19,-67.1 218.57,-60.94 216.6,-67.66"/>
</a>
</g>
</g>
<!-- Node3 -->
<g id="Node000003" class="node">
<title>Node3</title>
<g id="a_Node000003"><a xlink:href="_memory_service_8cpp.html" target="_top" xlink:title=" ">
<polygon fill="white" stroke="#666666" points="273.75,-32 129.5,-32 129.5,0 273.75,0 273.75,-32"/>
<text text-anchor="start" x="137.5" y="-18.5" font-family="Helvetica,sans-Serif" font-size="10.00">FIEAGameEngine/src</text>
<text text-anchor="middle" x="201.62" y="-6.5" font-family="Helvetica,sans-Serif" font-size="10.00">/memory/MemoryService.cpp</text>
</a>
</g>
</g>
<!-- Node1&#45;&gt;Node3 -->
<g id="edge2_Node000001_Node000003" class="edge">
<title>Node1&#45;&gt;Node3</title>
<g id="a_edge2_Node000001_Node000003"><a xlink:title=" ">
<path fill="none" stroke="#63b8ff" d="M254.47,-60.6C243.25,-51.34 230.51,-40.83 220.36,-32.45"/>
<polygon fill="#63b8ff" stroke="#63b8ff" points="251.96,-63.07 261.9,-66.73 256.42,-57.67 251.96,-63.07"/>
</a>
</g>
</g>
<!-- Node4 -->
<g id="Node000004" class="node">
<title>Node4</title>
<g id="a_Node000004"><a xlink:href="_heap_allocator_test_8cpp.html" target="_top" xlink:title=" ">
<polygon fill="white" stroke="#666666" points="433.62,-26 291.62,-26 291.62,-6 433.62,-6 433.62,-26"/>
<text text-anchor="middle" x="362.62" y="-12.5" font-family="Helvetica,sans-Serif" font-size="10.00">Tests/HeapAllocatorTest.cpp</text>
</a>
</g>
</g>
<!-- Node1&#45;&gt;Node4 -->
<g id="edge3_Node000001_Node000004" class="edge">
<title>Node1&#45;&gt;Node4</title>
<g id="a_edge3_Node000001_Node000004"><a xlink:title=" ">
<path fill="none" stroke="#63b8ff" d="M308.98,-60.71C323.38,-48.98 340.27,-35.22 351.19,-26.32"/>
<polygon fill="#63b8ff" stroke="#63b8ff" points="307.13,-57.71 301.58,-66.74 311.55,-63.13 307.13,-57.71"/>
</a>
</g>
</g>
<!-- Node5 -->
<g id="Node000005" class="node">
<title>Node5</title>
<g id="a_Node000005"><a xlink:href="_memory_service_test_8cpp.html" target="_top" xlink:title=" ">
<polygon fill="white" stroke="#666666" points="600,-26 451.25,-26 451.25,-6 600,-6 600,-26"/>
<text text-anchor="middle" x="525.62" y="-12.5" font-family="Helvetica,sans-Serif" font-size="10.00">Tests/MemoryServiceTest.cpp</text>
</a>
</g>
</g>
<!-- Node1&#45;&gt;Node5 -->
<g id="edge4_Node000001_Node000005" class="edge">
<title>Node1&#45;&gt;Node5</title>
<g id="a_edge4_Node000001_Node000005"><a xlink:title=" ">
<path fill="none" stroke="#63b8ff" d="M348.68,-64.86C394.63,-52.43 453.73,-36.45 490.65,-26.46"/>
<polygon fill="#63b8ff" stroke="#63b8ff" points="347.8,-61.47 339.06,-67.46 349.63,-68.23 347.8,-61.47"/>
</a>
</g>
</g>
</g>
</svg>
