<?xml version="1.0" encoding="UTF-8" standalone="no"?>
<!DOCTYPE svg PUBLIC "-//W3C//DTD SVG 1.1//EN"
 "http://www.w3.org/Graphics/SVG/1.1/DTD/svg11.dtd">
<!-- Generated by graphviz version 12.2.1 (20241206.2353)
 -->
<!-- Title: FIEAGameEngine/include/Content/IParseHandler.h Pages: 1 -->
<svg width="2208pt" height="176pt"
 viewBox="0.00 0.00 2207.88 176.00" xmlns="http://www.w3.org/2000/svg" xmlns:xlink="http://www.w3.org/1999/xlink">
<g id="graph0" class="graph" transform="scale(1 1) rotate(0) translate(4 172)">
<title>FIEAGameEngine/include/Content/IParseHandler.h</title>
<!-- Node1 -->
<g id="Node000001" class="node">
<title>Node1</title>
<g id="a_Node000001"><a xlink:title=" ">
<polygon fill="#999999" stroke="#666666" points="1187.5,-168 1059,-168 1059,-136 1187.5,-136 1187.5,-168"/>
<text text-anchor="start" x="1067" y="-154.5" font-family="Helvetica,sans-Serif" font-size="10.00">FIEAGameEngine/include</text>
<text text-anchor="middle" x="1123.25" y="-142.5" font-family="Helvetica,sans-Serif" font-size="10.00">/Content/IParseHandler.h</text>
</a>
</g>
</g>
<!-- Node2 -->
<g id="Node000002" class="node">
<title>Node2</title>
<g id="a_Node000002"><a xlink:href="_action_handler_8h.html" target="_top" xlink:title=" ">
<polygon fill="white" stroke="#666666" points="321.5,-100 193,-100 193,-68 321.5,-68 321.5,-100"/>
<text text-anchor="start" x="201" y="-86.5" font-family="Helvetica,sans-Serif" font-size="10.00">FIEAGameEngine/include</text>
<text text-anchor="middle" x="257.25" y="-74.5" font-family="Helvetica,sans-Serif" font-size="10.00">/Content/ActionHandler.h</text>
</a>
</g>
</g>
<!-- Node1&#45;&gt;Node2 -->
<g id="edge1_Node000001_Node000002" class="edge">
<title>Node1&#45;&gt;Node2</title>
<g id="a_edge1_Node000001_Node000002"><a xlink:title=" ">
<path fill="none" stroke="#63b8ff" d="M1047.6,-149.62C906.14,-146.26 592.18,-135.16 330.25,-100 327.43,-99.62 324.55,-99.2 321.65,-98.74"/>
<polygon fill="#63b8ff" stroke="#63b8ff" points="1047.12,-153.11 1057.2,-149.84 1047.28,-146.11 1047.12,-153.11"/>
</a>
</g>
</g>
<!-- Node5 -->
<g id="Node000005" class="node">
<title>Node5</title>
<g id="a_Node000005"><a xlink:href="_action_list_handler_8h.html" target="_top" xlink:title=" ">
<polygon fill="white" stroke="#666666" points="481.25,-100 339.25,-100 339.25,-68 481.25,-68 481.25,-100"/>
<text text-anchor="start" x="347.25" y="-86.5" font-family="Helvetica,sans-Serif" font-size="10.00">FIEAGameEngine/include</text>
<text text-anchor="middle" x="410.25" y="-74.5" font-family="Helvetica,sans-Serif" font-size="10.00">/Content/ActionListHandler.h</text>
</a>
</g>
</g>
<!-- Node1&#45;&gt;Node5 -->
<g id="edge4_Node000001_Node000005" class="edge">
<title>Node1&#45;&gt;Node5</title>
<g id="a_edge4_Node000001_Node000005"><a xlink:title=" ">
<path fill="none" stroke="#63b8ff" d="M1047.27,-147.46C928.16,-141.33 690.4,-126.75 490.25,-100 487.45,-99.63 484.6,-99.22 481.72,-98.79"/>
<polygon fill="#63b8ff" stroke="#63b8ff" points="1047.09,-150.96 1057.26,-147.97 1047.45,-143.96 1047.09,-150.96"/>
</a>
</g>
</g>
<!-- Node7 -->
<g id="Node000007" class="node">
<title>Node7</title>
<g id="a_Node000007"><a xlink:href="_array_handler_8h.html" target="_top" xlink:title=" ">
<polygon fill="white" stroke="#666666" points="627.5,-100 499,-100 499,-68 627.5,-68 627.5,-100"/>
<text text-anchor="start" x="507" y="-86.5" font-family="Helvetica,sans-Serif" font-size="10.00">FIEAGameEngine/include</text>
<text text-anchor="middle" x="563.25" y="-74.5" font-family="Helvetica,sans-Serif" font-size="10.00">/Content/ArrayHandler.h</text>
</a>
</g>
</g>
<!-- Node1&#45;&gt;Node7 -->
<g id="edge7_Node000001_Node000007" class="edge">
<title>Node1&#45;&gt;Node7</title>
<g id="a_edge7_Node000001_Node000007"><a xlink:title=" ">
<path fill="none" stroke="#63b8ff" d="M1047.45,-145.38C951.41,-137.74 780.96,-122.39 636.25,-100 633.44,-99.56 630.57,-99.09 627.67,-98.6"/>
<polygon fill="#63b8ff" stroke="#63b8ff" points="1047.03,-148.86 1057.28,-146.16 1047.58,-141.88 1047.03,-148.86"/>
</a>
</g>
</g>
<!-- Node9 -->
<g id="Node000009" class="node">
<title>Node9</title>
<g id="a_Node000009"><a xlink:href="_float_parse_handler_8h.html" target="_top" xlink:title=" ">
<polygon fill="white" stroke="#666666" points="791.12,-100 645.38,-100 645.38,-68 791.12,-68 791.12,-100"/>
<text text-anchor="start" x="653.38" y="-86.5" font-family="Helvetica,sans-Serif" font-size="10.00">FIEAGameEngine/include</text>
<text text-anchor="middle" x="718.25" y="-74.5" font-family="Helvetica,sans-Serif" font-size="10.00">/Content/FloatParseHandler.h</text>
</a>
</g>
</g>
<!-- Node1&#45;&gt;Node9 -->
<g id="edge10_Node000001_Node000009" class="edge">
<title>Node1&#45;&gt;Node9</title>
<g id="a_edge10_Node000001_Node000009"><a xlink:title=" ">
<path fill="none" stroke="#63b8ff" d="M1047.48,-139.57C981.97,-129.56 884.76,-114.4 800.25,-100 797.4,-99.51 794.49,-99.01 791.55,-98.5"/>
<polygon fill="#63b8ff" stroke="#63b8ff" points="1046.61,-142.98 1057.02,-141.02 1047.67,-136.06 1046.61,-142.98"/>
</a>
</g>
</g>
<!-- Node11 -->
<g id="Node000011" class="node">
<title>Node11</title>
<g id="a_Node000011"><a xlink:href="_game_object_handler_8h.html" target="_top" xlink:title=" ">
<polygon fill="white" stroke="#666666" points="962.88,-100 809.62,-100 809.62,-68 962.88,-68 962.88,-100"/>
<text text-anchor="start" x="817.62" y="-86.5" font-family="Helvetica,sans-Serif" font-size="10.00">FIEAGameEngine/include</text>
<text text-anchor="middle" x="886.25" y="-74.5" font-family="Helvetica,sans-Serif" font-size="10.00">/Content/GameObjectHandler.h</text>
</a>
</g>
</g>
<!-- Node1&#45;&gt;Node11 -->
<g id="edge13_Node000001_Node000011" class="edge">
<title>Node1&#45;&gt;Node11</title>
<g id="a_edge13_Node000001_Node000011"><a xlink:title=" ">
<path fill="none" stroke="#63b8ff" d="M1056.73,-132.47C1020.52,-122.39 976.24,-110.06 941.88,-100.49"/>
<polygon fill="#63b8ff" stroke="#63b8ff" points="1055.65,-135.81 1066.23,-135.12 1057.53,-129.07 1055.65,-135.81"/>
</a>
</g>
</g>
<!-- Node13 -->
<g id="Node000013" class="node">
<title>Node13</title>
<g id="a_Node000013"><a xlink:href="_int_parse_handler_8h.html" target="_top" xlink:title=" ">
<polygon fill="white" stroke="#666666" points="1115.88,-100 980.62,-100 980.62,-68 1115.88,-68 1115.88,-100"/>
<text text-anchor="start" x="988.62" y="-86.5" font-family="Helvetica,sans-Serif" font-size="10.00">FIEAGameEngine/include</text>
<text text-anchor="middle" x="1048.25" y="-74.5" font-family="Helvetica,sans-Serif" font-size="10.00">/Content/IntParseHandler.h</text>
</a>
</g>
</g>
<!-- Node1&#45;&gt;Node13 -->
<g id="edge16_Node000001_Node000013" class="edge">
<title>Node1&#45;&gt;Node13</title>
<g id="a_edge16_Node000001_Node000013"><a xlink:title=" ">
<path fill="none" stroke="#63b8ff" d="M1097.48,-128.32C1087.03,-119.13 1075.24,-108.75 1065.81,-100.45"/>
<polygon fill="#63b8ff" stroke="#63b8ff" points="1094.9,-130.71 1104.72,-134.69 1099.52,-125.46 1094.9,-130.71"/>
</a>
</g>
</g>
<!-- Node15 -->
<g id="Node000015" class="node">
<title>Node15</title>
<g id="a_Node000015"><a xlink:href="_matrix_handler_8h.html" target="_top" xlink:title=" ">
<polygon fill="white" stroke="#666666" points="1262.5,-100 1134,-100 1134,-68 1262.5,-68 1262.5,-100"/>
<text text-anchor="start" x="1142" y="-86.5" font-family="Helvetica,sans-Serif" font-size="10.00">FIEAGameEngine/include</text>
<text text-anchor="middle" x="1198.25" y="-74.5" font-family="Helvetica,sans-Serif" font-size="10.00">/Content/MatrixHandler.h</text>
</a>
</g>
</g>
<!-- Node1&#45;&gt;Node15 -->
<g id="edge19_Node000001_Node000015" class="edge">
<title>Node1&#45;&gt;Node15</title>
<g id="a_edge19_Node000001_Node000015"><a xlink:title=" ">
<path fill="none" stroke="#63b8ff" d="M1149.02,-128.32C1159.47,-119.13 1171.26,-108.75 1180.69,-100.45"/>
<polygon fill="#63b8ff" stroke="#63b8ff" points="1146.98,-125.46 1141.78,-134.69 1151.6,-130.71 1146.98,-125.46"/>
</a>
</g>
</g>
<!-- Node17 -->
<g id="Node000017" class="node">
<title>Node17</title>
<g id="a_Node000017"><a xlink:href="_scope_parse_handler_8h.html" target="_top" xlink:title=" ">
<polygon fill="white" stroke="#666666" points="1432.12,-100 1280.38,-100 1280.38,-68 1432.12,-68 1432.12,-100"/>
<text text-anchor="start" x="1288.38" y="-86.5" font-family="Helvetica,sans-Serif" font-size="10.00">FIEAGameEngine/include</text>
<text text-anchor="middle" x="1356.25" y="-74.5" font-family="Helvetica,sans-Serif" font-size="10.00">/Content/ScopeParseHandler.h</text>
</a>
</g>
</g>
<!-- Node1&#45;&gt;Node17 -->
<g id="edge22_Node000001_Node000017" class="edge">
<title>Node1&#45;&gt;Node17</title>
<g id="a_edge22_Node000001_Node000017"><a xlink:title=" ">
<path fill="none" stroke="#63b8ff" d="M1188.65,-132.47C1224.25,-122.39 1267.78,-110.06 1301.56,-100.49"/>
<polygon fill="#63b8ff" stroke="#63b8ff" points="1188,-129.02 1179.33,-135.11 1189.91,-135.76 1188,-129.02"/>
</a>
</g>
</g>
<!-- Node19 -->
<g id="Node000019" class="node">
<title>Node19</title>
<g id="a_Node000019"><a xlink:href="_string_parse_handler_8h.html" target="_top" xlink:title=" ">
<polygon fill="white" stroke="#666666" points="1600,-100 1450.5,-100 1450.5,-68 1600,-68 1600,-100"/>
<text text-anchor="start" x="1458.5" y="-86.5" font-family="Helvetica,sans-Serif" font-size="10.00">FIEAGameEngine/include</text>
<text text-anchor="middle" x="1525.25" y="-74.5" font-family="Helvetica,sans-Serif" font-size="10.00">/Content/StringParseHandler.h</text>
</a>
</g>
</g>
<!-- Node1&#45;&gt;Node19 -->
<g id="edge25_Node000001_Node000019" class="edge">
<title>Node1&#45;&gt;Node19</title>
<g id="a_edge25_Node000001_Node000019"><a xlink:title=" ">
<path fill="none" stroke="#63b8ff" d="M1199.14,-139.22C1263.6,-129.11 1358.56,-114.01 1441.25,-100 1444.17,-99.5 1447.15,-99 1450.16,-98.48"/>
<polygon fill="#63b8ff" stroke="#63b8ff" points="1198.7,-135.74 1189.36,-140.75 1199.78,-142.66 1198.7,-135.74"/>
</a>
</g>
</g>
<!-- Node21 -->
<g id="Node000021" class="node">
<title>Node21</title>
<g id="a_Node000021"><a xlink:href="vector_handler_8h.html" target="_top" xlink:title=" ">
<polygon fill="white" stroke="#666666" points="1746.5,-100 1618,-100 1618,-68 1746.5,-68 1746.5,-100"/>
<text text-anchor="start" x="1626" y="-86.5" font-family="Helvetica,sans-Serif" font-size="10.00">FIEAGameEngine/include</text>
<text text-anchor="middle" x="1682.25" y="-74.5" font-family="Helvetica,sans-Serif" font-size="10.00">/Content/vectorHandler.h</text>
</a>
</g>
</g>
<!-- Node1&#45;&gt;Node21 -->
<g id="edge28_Node000001_Node000021" class="edge">
<title>Node1&#45;&gt;Node21</title>
<g id="a_edge28_Node000001_Node000021"><a xlink:title=" ">
<path fill="none" stroke="#63b8ff" d="M1199.3,-145.34C1295.21,-137.68 1465.04,-122.33 1609.25,-100 1612.06,-99.56 1614.93,-99.09 1617.83,-98.6"/>
<polygon fill="#63b8ff" stroke="#63b8ff" points="1199.18,-141.84 1189.48,-146.12 1199.73,-148.82 1199.18,-141.84"/>
</a>
</g>
</g>
<!-- Node23 -->
<g id="Node000023" class="node">
<title>Node23</title>
<g id="a_Node000023"><a xlink:href="_content_service_8h.html" target="_top" xlink:title=" ">
<polygon fill="white" stroke="#666666" points="1941.5,-100 1765,-100 1765,-68 1941.5,-68 1941.5,-100"/>
<text text-anchor="start" x="1773" y="-86.5" font-family="Helvetica,sans-Serif" font-size="10.00">FIEAGameEngine/include</text>
<text text-anchor="middle" x="1853.25" y="-74.5" font-family="Helvetica,sans-Serif" font-size="10.00">/FIEAGameEngine/ContentService.h</text>
</a>
</g>
</g>
<!-- Node1&#45;&gt;Node23 -->
<g id="edge31_Node000001_Node000023" class="edge">
<title>Node1&#45;&gt;Node23</title>
<g id="a_edge31_Node000001_Node000023"><a xlink:title=" ">
<path fill="none" stroke="#63b8ff" d="M1199.48,-146.61C1318.42,-139.37 1555.26,-123.34 1755.25,-100 1758.33,-99.64 1761.46,-99.26 1764.61,-98.86"/>
<polygon fill="#63b8ff" stroke="#63b8ff" points="1199.28,-143.12 1189.51,-147.21 1199.7,-150.1 1199.28,-143.12"/>
</a>
</g>
</g>
<!-- Node26 -->
<g id="Node000026" class="node">
<title>Node26</title>
<g id="a_Node000026"><a xlink:href="_parser_8h.html" target="_top" xlink:title=" ">
<polygon fill="white" stroke="#666666" points="2070.88,-100 1959.62,-100 1959.62,-68 2070.88,-68 2070.88,-100"/>
<text text-anchor="start" x="1967.62" y="-86.5" font-family="Helvetica,sans-Serif" font-size="10.00">FIEAGameEngine/src</text>
<text text-anchor="middle" x="2015.25" y="-74.5" font-family="Helvetica,sans-Serif" font-size="10.00">/content/Parser.h</text>
</a>
</g>
</g>
<!-- Node1&#45;&gt;Node26 -->
<g id="edge35_Node000001_Node000026" class="edge">
<title>Node1&#45;&gt;Node26</title>
<g id="a_edge35_Node000001_Node000026"><a xlink:title=" ">
<path fill="none" stroke="#63b8ff" d="M1199.44,-150.5C1345.73,-148.6 1675.82,-139.85 1950.25,-100 1953.23,-99.57 1956.27,-99.07 1959.34,-98.52"/>
<polygon fill="#63b8ff" stroke="#63b8ff" points="1199.43,-147 1189.47,-150.62 1199.52,-154 1199.43,-147"/>
</a>
</g>
</g>
<!-- Node3 -->
<g id="Node000003" class="node">
<title>Node3</title>
<g id="a_Node000003"><a xlink:href="_action_handler_8cpp.html" target="_top" xlink:title=" ">
<polygon fill="white" stroke="#666666" points="134.5,-32 0,-32 0,0 134.5,0 134.5,-32"/>
<text text-anchor="start" x="8" y="-18.5" font-family="Helvetica,sans-Serif" font-size="10.00">FIEAGameEngine/src</text>
<text text-anchor="middle" x="67.25" y="-6.5" font-family="Helvetica,sans-Serif" font-size="10.00">/content/ActionHandler.cpp</text>
</a>
</g>
</g>
<!-- Node2&#45;&gt;Node3 -->
<g id="edge2_Node000002_Node000003" class="edge">
<title>Node2&#45;&gt;Node3</title>
<g id="a_edge2_Node000002_Node000003"><a xlink:title=" ">
<path fill="none" stroke="#63b8ff" d="M202.03,-63.82C173.36,-53.86 138.8,-41.85 111.85,-32.49"/>
<polygon fill="#63b8ff" stroke="#63b8ff" points="200.68,-67.05 211.27,-67.03 202.98,-60.44 200.68,-67.05"/>
</a>
</g>
</g>
<!-- Node4 -->
<g id="Node000004" class="node">
<title>Node4</title>
<g id="a_Node000004"><a xlink:href="_serialization_tests_8cpp.html" target="_top" xlink:title=" ">
<polygon fill="white" stroke="#666666" points="958.75,-26 819.75,-26 819.75,-6 958.75,-6 958.75,-26"/>
<text text-anchor="middle" x="889.25" y="-12.5" font-family="Helvetica,sans-Serif" font-size="10.00">Tests/SerializationTests.cpp</text>
</a>
</g>
</g>
<!-- Node2&#45;&gt;Node4 -->
<g id="edge3_Node000002_Node000004" class="edge">
<title>Node2&#45;&gt;Node4</title>
<g id="a_edge3_Node000002_Node000004"><a xlink:title=" ">
<path fill="none" stroke="#63b8ff" d="M332.84,-67.76C544.53,-39.1 602.38,-59.81 811.25,-32 822.19,-30.54 833.9,-28.53 844.85,-26.46"/>
<polygon fill="#63b8ff" stroke="#63b8ff" points="332.59,-64.26 323.16,-69.09 333.54,-71.2 332.59,-64.26"/>
</a>
</g>
</g>
<!-- Node5&#45;&gt;Node4 -->
<g id="edge6_Node000005_Node000004" class="edge">
<title>Node5&#45;&gt;Node4</title>
<g id="a_edge6_Node000005_Node000004"><a xlink:title=" ">
<path fill="none" stroke="#63b8ff" d="M492.98,-67.66C634.18,-47.09 672.92,-53.02 811.25,-32 821.61,-30.43 832.7,-28.46 843.16,-26.48"/>
<polygon fill="#63b8ff" stroke="#63b8ff" points="492.61,-64.18 483.23,-69.11 493.64,-71.1 492.61,-64.18"/>
</a>
</g>
</g>
<!-- Node6 -->
<g id="Node000006" class="node">
<title>Node6</title>
<g id="a_Node000006"><a xlink:href="_action_list_handler_8cpp.html" target="_top" xlink:title=" ">
<polygon fill="white" stroke="#666666" points="302.38,-32 152.12,-32 152.12,0 302.38,0 302.38,-32"/>
<text text-anchor="start" x="160.12" y="-18.5" font-family="Helvetica,sans-Serif" font-size="10.00">FIEAGameEngine/src</text>
<text text-anchor="middle" x="227.25" y="-6.5" font-family="Helvetica,sans-Serif" font-size="10.00">/content/ActionListHandler.cpp</text>
</a>
</g>
</g>
<!-- Node5&#45;&gt;Node6 -->
<g id="edge5_Node000005_Node000006" class="edge">
<title>Node5&#45;&gt;Node6</title>
<g id="a_edge5_Node000005_Node000006"><a xlink:title=" ">
<path fill="none" stroke="#63b8ff" d="M356.7,-63.69C329.16,-53.76 296.05,-41.81 270.2,-32.49"/>
<polygon fill="#63b8ff" stroke="#63b8ff" points="355.33,-66.91 365.92,-67.01 357.7,-60.33 355.33,-66.91"/>
</a>
</g>
</g>
<!-- Node7&#45;&gt;Node4 -->
<g id="edge9_Node000007_Node000004" class="edge">
<title>Node7&#45;&gt;Node4</title>
<g id="a_edge9_Node000007_Node000004"><a xlink:title=" ">
<path fill="none" stroke="#63b8ff" d="M638.57,-67.53C715.46,-51.9 793.61,-36.18 842.14,-26.44"/>
<polygon fill="#63b8ff" stroke="#63b8ff" points="638.32,-64.01 629.22,-69.43 639.71,-70.87 638.32,-64.01"/>
</a>
</g>
</g>
<!-- Node8 -->
<g id="Node000008" class="node">
<title>Node8</title>
<g id="a_Node000008"><a xlink:href="_array_handler_8cpp.html" target="_top" xlink:title=" ">
<polygon fill="white" stroke="#666666" points="450.25,-32 320.25,-32 320.25,0 450.25,0 450.25,-32"/>
<text text-anchor="start" x="328.25" y="-18.5" font-family="Helvetica,sans-Serif" font-size="10.00">FIEAGameEngine/src</text>
<text text-anchor="middle" x="385.25" y="-6.5" font-family="Helvetica,sans-Serif" font-size="10.00">/content/ArrayHandler.cpp</text>
</a>
</g>
</g>
<!-- Node7&#45;&gt;Node8 -->
<g id="edge8_Node000007_Node000008" class="edge">
<title>Node7&#45;&gt;Node8</title>
<g id="a_edge8_Node000007_Node000008"><a xlink:title=" ">
<path fill="none" stroke="#63b8ff" d="M510.81,-63.56C484.09,-53.65 452.06,-41.77 427.03,-32.49"/>
<polygon fill="#63b8ff" stroke="#63b8ff" points="509.5,-66.8 520.1,-67 511.94,-60.24 509.5,-66.8"/>
</a>
</g>
</g>
<!-- Node9&#45;&gt;Node4 -->
<g id="edge12_Node000009_Node000004" class="edge">
<title>Node9&#45;&gt;Node4</title>
<g id="a_edge12_Node000009_Node000004"><a xlink:title=" ">
<path fill="none" stroke="#63b8ff" d="M768.75,-63.51C800.4,-51.29 839.8,-36.09 864.74,-26.46"/>
<polygon fill="#63b8ff" stroke="#63b8ff" points="767.82,-60.11 759.75,-66.98 770.34,-66.65 767.82,-60.11"/>
</a>
</g>
</g>
<!-- Node10 -->
<g id="Node000010" class="node">
<title>Node10</title>
<g id="a_Node000010"><a xlink:href="_float_parse_handler_8cpp.html" target="_top" xlink:title=" ">
<polygon fill="white" stroke="#666666" points="622.25,-32 468.25,-32 468.25,0 622.25,0 622.25,-32"/>
<text text-anchor="start" x="476.25" y="-18.5" font-family="Helvetica,sans-Serif" font-size="10.00">FIEAGameEngine/src</text>
<text text-anchor="middle" x="545.25" y="-6.5" font-family="Helvetica,sans-Serif" font-size="10.00">/content/FloatParseHandler.cpp</text>
</a>
</g>
</g>
<!-- Node9&#45;&gt;Node10 -->
<g id="edge11_Node000009_Node000010" class="edge">
<title>Node9&#45;&gt;Node10</title>
<g id="a_edge11_Node000009_Node000010"><a xlink:title=" ">
<path fill="none" stroke="#63b8ff" d="M666.94,-63.42C641.04,-53.54 610.07,-41.73 585.86,-32.49"/>
<polygon fill="#63b8ff" stroke="#63b8ff" points="665.68,-66.69 676.28,-66.99 668.18,-60.15 665.68,-66.69"/>
</a>
</g>
</g>
<!-- Node11&#45;&gt;Node4 -->
<g id="edge15_Node000011_Node000004" class="edge">
<title>Node11&#45;&gt;Node4</title>
<g id="a_edge15_Node000011_Node000004"><a xlink:title=" ">
<path fill="none" stroke="#63b8ff" d="M887.46,-56.31C887.95,-45.67 888.47,-34.13 888.83,-26.32"/>
<polygon fill="#63b8ff" stroke="#63b8ff" points="883.97,-56.03 887.01,-66.18 890.97,-56.35 883.97,-56.03"/>
</a>
</g>
</g>
<!-- Node12 -->
<g id="Node000012" class="node">
<title>Node12</title>
<g id="a_Node000012"><a xlink:href="_game_object_handler_8cpp.html" target="_top" xlink:title=" ">
<polygon fill="white" stroke="#666666" points="802,-32 640.5,-32 640.5,0 802,0 802,-32"/>
<text text-anchor="start" x="648.5" y="-18.5" font-family="Helvetica,sans-Serif" font-size="10.00">FIEAGameEngine/src</text>
<text text-anchor="middle" x="721.25" y="-6.5" font-family="Helvetica,sans-Serif" font-size="10.00">/content/GameObjectHandler.cpp</text>
</a>
</g>
</g>
<!-- Node11&#45;&gt;Node12 -->
<g id="edge14_Node000011_Node000012" class="edge">
<title>Node11&#45;&gt;Node12</title>
<g id="a_edge14_Node000011_Node000012"><a xlink:title=" ">
<path fill="none" stroke="#63b8ff" d="M836.98,-63.29C812.35,-53.44 782.97,-41.69 759.98,-32.49"/>
<polygon fill="#63b8ff" stroke="#63b8ff" points="835.57,-66.5 846.16,-66.96 838.17,-60 835.57,-66.5"/>
</a>
</g>
</g>
<!-- Node13&#45;&gt;Node4 -->
<g id="edge18_Node000013_Node000004" class="edge">
<title>Node13&#45;&gt;Node4</title>
<g id="a_edge18_Node000013_Node000004"><a xlink:title=" ">
<path fill="none" stroke="#63b8ff" d="M1000.53,-63.19C971.23,-51.03 935.03,-36 912.04,-26.46"/>
<polygon fill="#63b8ff" stroke="#63b8ff" points="999,-66.34 1009.57,-66.95 1001.68,-59.88 999,-66.34"/>
</a>
</g>
</g>
<!-- Node14 -->
<g id="Node000014" class="node">
<title>Node14</title>
<g id="a_Node000014"><a xlink:href="_int_parse_handler_8cpp.html" target="_top" xlink:title=" ">
<polygon fill="white" stroke="#666666" points="1120,-32 976.5,-32 976.5,0 1120,0 1120,-32"/>
<text text-anchor="start" x="984.5" y="-18.5" font-family="Helvetica,sans-Serif" font-size="10.00">FIEAGameEngine/src</text>
<text text-anchor="middle" x="1048.25" y="-6.5" font-family="Helvetica,sans-Serif" font-size="10.00">/content/IntParseHandler.cpp</text>
</a>
</g>
</g>
<!-- Node13&#45;&gt;Node14 -->
<g id="edge17_Node000013_Node000014" class="edge">
<title>Node13&#45;&gt;Node14</title>
<g id="a_edge17_Node000013_Node000014"><a xlink:title=" ">
<path fill="none" stroke="#63b8ff" d="M1048.25,-56.31C1048.25,-48.12 1048.25,-39.38 1048.25,-32.22"/>
<polygon fill="#63b8ff" stroke="#63b8ff" points="1044.75,-56.18 1048.25,-66.18 1051.75,-56.18 1044.75,-56.18"/>
</a>
</g>
</g>
<!-- Node15&#45;&gt;Node4 -->
<g id="edge21_Node000015_Node000004" class="edge">
<title>Node15&#45;&gt;Node4</title>
<g id="a_edge21_Node000015_Node000004"><a xlink:title=" ">
<path fill="none" stroke="#63b8ff" d="M1122.67,-66.86C1063.39,-54.19 982.92,-37.01 933.62,-26.48"/>
<polygon fill="#63b8ff" stroke="#63b8ff" points="1121.86,-70.26 1132.37,-68.93 1123.32,-63.42 1121.86,-70.26"/>
</a>
</g>
</g>
<!-- Node16 -->
<g id="Node000016" class="node">
<title>Node16</title>
<g id="a_Node000016"><a xlink:href="_matrix_handler_8cpp.html" target="_top" xlink:title=" ">
<polygon fill="white" stroke="#666666" points="1272.12,-32 1138.38,-32 1138.38,0 1272.12,0 1272.12,-32"/>
<text text-anchor="start" x="1146.38" y="-18.5" font-family="Helvetica,sans-Serif" font-size="10.00">FIEAGameEngine/src</text>
<text text-anchor="middle" x="1205.25" y="-6.5" font-family="Helvetica,sans-Serif" font-size="10.00">/content/MatrixHandler.cpp</text>
</a>
</g>
</g>
<!-- Node15&#45;&gt;Node16 -->
<g id="edge20_Node000015_Node000016" class="edge">
<title>Node15&#45;&gt;Node16</title>
<g id="a_edge20_Node000015_Node000016"><a xlink:title=" ">
<path fill="none" stroke="#63b8ff" d="M1201.08,-56.31C1201.95,-48.12 1202.88,-39.38 1203.64,-32.22"/>
<polygon fill="#63b8ff" stroke="#63b8ff" points="1197.61,-55.87 1200.03,-66.19 1204.57,-56.61 1197.61,-55.87"/>
</a>
</g>
</g>
<!-- Node17&#45;&gt;Node4 -->
<g id="edge24_Node000017_Node000004" class="edge">
<title>Node17&#45;&gt;Node4</title>
<g id="a_edge24_Node000017_Node000004"><a xlink:title=" ">
<path fill="none" stroke="#63b8ff" d="M1269.15,-67.75C1134.74,-48.4 1098.15,-52.31 967.25,-32 956.89,-30.39 945.81,-28.42 935.35,-26.44"/>
<polygon fill="#63b8ff" stroke="#63b8ff" points="1268.39,-71.18 1278.79,-69.16 1269.4,-64.25 1268.39,-71.18"/>
</a>
</g>
</g>
<!-- Node18 -->
<g id="Node000018" class="node">
<title>Node18</title>
<g id="a_Node000018"><a xlink:href="_scope_parse_handler_8cpp.html" target="_top" xlink:title=" ">
<polygon fill="white" stroke="#666666" points="1450.25,-32 1290.25,-32 1290.25,0 1450.25,0 1450.25,-32"/>
<text text-anchor="start" x="1298.25" y="-18.5" font-family="Helvetica,sans-Serif" font-size="10.00">FIEAGameEngine/src</text>
<text text-anchor="middle" x="1370.25" y="-6.5" font-family="Helvetica,sans-Serif" font-size="10.00">/content/ScopeParseHandler.cpp</text>
</a>
</g>
</g>
<!-- Node17&#45;&gt;Node18 -->
<g id="edge23_Node000017_Node000018" class="edge">
<title>Node17&#45;&gt;Node18</title>
<g id="a_edge23_Node000017_Node000018"><a xlink:title=" ">
<path fill="none" stroke="#63b8ff" d="M1361.85,-56.6C1363.61,-48.32 1365.49,-39.46 1367.02,-32.22"/>
<polygon fill="#63b8ff" stroke="#63b8ff" points="1358.46,-55.7 1359.81,-66.21 1365.31,-57.16 1358.46,-55.7"/>
</a>
</g>
</g>
<!-- Node19&#45;&gt;Node4 -->
<g id="edge27_Node000019_Node000004" class="edge">
<title>Node19&#45;&gt;Node4</title>
<g id="a_edge27_Node000019_Node000004"><a xlink:title=" ">
<path fill="none" stroke="#63b8ff" d="M1438.83,-67.79C1229.68,-42.04 1172.98,-59.5 967.25,-32 956.32,-30.54 944.6,-28.53 933.65,-26.45"/>
<polygon fill="#63b8ff" stroke="#63b8ff" points="1438.34,-71.25 1448.7,-69.02 1439.21,-64.31 1438.34,-71.25"/>
</a>
</g>
</g>
<!-- Node20 -->
<g id="Node000020" class="node">
<title>Node20</title>
<g id="a_Node000020"><a xlink:href="_string_parse_handler_8cpp.html" target="_top" xlink:title=" ">
<polygon fill="white" stroke="#666666" points="1626.12,-32 1468.38,-32 1468.38,0 1626.12,0 1626.12,-32"/>
<text text-anchor="start" x="1476.38" y="-18.5" font-family="Helvetica,sans-Serif" font-size="10.00">FIEAGameEngine/src</text>
<text text-anchor="middle" x="1547.25" y="-6.5" font-family="Helvetica,sans-Serif" font-size="10.00">/content/StringParseHandler.cpp</text>
</a>
</g>
</g>
<!-- Node19&#45;&gt;Node20 -->
<g id="edge26_Node000019_Node000020" class="edge">
<title>Node19&#45;&gt;Node20</title>
<g id="a_edge26_Node000019_Node000020"><a xlink:title=" ">
<path fill="none" stroke="#63b8ff" d="M1533.95,-56.89C1536.74,-48.52 1539.74,-39.54 1542.18,-32.22"/>
<polygon fill="#63b8ff" stroke="#63b8ff" points="1530.67,-55.66 1530.83,-66.26 1537.31,-57.88 1530.67,-55.66"/>
</a>
</g>
</g>
<!-- Node21&#45;&gt;Node4 -->
<g id="edge30_Node000021_Node000004" class="edge">
<title>Node21&#45;&gt;Node4</title>
<g id="a_edge30_Node000021_Node000004"><a xlink:title=" ">
<path fill="none" stroke="#63b8ff" d="M1606.83,-67.82C1323.92,-32.04 1247.27,-66.62 967.25,-32 956.03,-30.61 943.99,-28.58 932.82,-26.45"/>
<polygon fill="#63b8ff" stroke="#63b8ff" points="1605.98,-71.24 1616.35,-69.04 1606.88,-64.29 1605.98,-71.24"/>
</a>
</g>
</g>
<!-- Node22 -->
<g id="Node000022" class="node">
<title>Node22</title>
<g id="a_Node000022"><a xlink:href="_vector_handler_8cpp.html" target="_top" xlink:title=" ">
<polygon fill="white" stroke="#666666" points="1778.5,-32 1644,-32 1644,0 1778.5,0 1778.5,-32"/>
<text text-anchor="start" x="1652" y="-18.5" font-family="Helvetica,sans-Serif" font-size="10.00">FIEAGameEngine/src</text>
<text text-anchor="middle" x="1711.25" y="-6.5" font-family="Helvetica,sans-Serif" font-size="10.00">/content/VectorHandler.cpp</text>
</a>
</g>
</g>
<!-- Node21&#45;&gt;Node22 -->
<g id="edge29_Node000021_Node000022" class="edge">
<title>Node21&#45;&gt;Node22</title>
<g id="a_edge29_Node000021_Node000022"><a xlink:title=" ">
<path fill="none" stroke="#63b8ff" d="M1693.6,-57.17C1697.31,-48.73 1701.31,-39.63 1704.56,-32.22"/>
<polygon fill="#63b8ff" stroke="#63b8ff" points="1690.4,-55.74 1689.58,-66.31 1696.81,-58.56 1690.4,-55.74"/>
</a>
</g>
</g>
<!-- Node23&#45;&gt;Node4 -->
<g id="edge34_Node000023_Node000004" class="edge">
<title>Node23&#45;&gt;Node4</title>
<g id="a_edge34_Node000023_Node000004"><a xlink:title=" ">
<path fill="none" stroke="#63b8ff" d="M1753.18,-67.88C1404.39,-34.27 1311.67,-72.77 967.25,-32 955.88,-30.65 943.69,-28.6 932.4,-26.45"/>
<polygon fill="#63b8ff" stroke="#63b8ff" points="1752.83,-71.37 1763.12,-68.86 1753.51,-64.4 1752.83,-71.37"/>
</a>
</g>
</g>
<!-- Node24 -->
<g id="Node000024" class="node">
<title>Node24</title>
<g id="a_Node000024"><a xlink:href="_attributed_8cpp.html" target="_top" xlink:title=" ">
<polygon fill="white" stroke="#666666" points="1911.75,-32 1796.75,-32 1796.75,0 1911.75,0 1911.75,-32"/>
<text text-anchor="start" x="1804.75" y="-18.5" font-family="Helvetica,sans-Serif" font-size="10.00">FIEAGameEngine/src</text>
<text text-anchor="middle" x="1854.25" y="-6.5" font-family="Helvetica,sans-Serif" font-size="10.00">/content/Attributed.cpp</text>
</a>
</g>
</g>
<!-- Node23&#45;&gt;Node24 -->
<g id="edge32_Node000023_Node000024" class="edge">
<title>Node23&#45;&gt;Node24</title>
<g id="a_edge32_Node000023_Node000024"><a xlink:title=" ">
<path fill="none" stroke="#63b8ff" d="M1853.65,-56.31C1853.78,-48.12 1853.91,-39.38 1854.02,-32.22"/>
<polygon fill="#63b8ff" stroke="#63b8ff" points="1850.16,-56.13 1853.5,-66.18 1857.16,-56.23 1850.16,-56.13"/>
</a>
</g>
</g>
<!-- Node25 -->
<g id="Node000025" class="node">
<title>Node25</title>
<g id="a_Node000025"><a xlink:href="_content_service_8cpp.html" target="_top" xlink:title=" ">
<polygon fill="white" stroke="#666666" points="2070.5,-32 1930,-32 1930,0 2070.5,0 2070.5,-32"/>
<text text-anchor="start" x="1938" y="-18.5" font-family="Helvetica,sans-Serif" font-size="10.00">FIEAGameEngine/src</text>
<text text-anchor="middle" x="2000.25" y="-6.5" font-family="Helvetica,sans-Serif" font-size="10.00">/content/ContentService.cpp</text>
</a>
</g>
</g>
<!-- Node23&#45;&gt;Node25 -->
<g id="edge33_Node000023_Node000025" class="edge">
<title>Node23&#45;&gt;Node25</title>
<g id="a_edge33_Node000023_Node000025"><a xlink:title=" ">
<path fill="none" stroke="#63b8ff" d="M1898.04,-62.89C1919.79,-53.12 1945.54,-41.56 1965.75,-32.49"/>
<polygon fill="#63b8ff" stroke="#63b8ff" points="1896.78,-59.62 1889.1,-66.91 1899.65,-66 1896.78,-59.62"/>
</a>
</g>
</g>
<!-- Node26&#45;&gt;Node25 -->
<g id="edge36_Node000026_Node000025" class="edge">
<title>Node26&#45;&gt;Node25</title>
<g id="a_edge36_Node000026_Node000025"><a xlink:title=" ">
<path fill="none" stroke="#63b8ff" d="M2009.25,-56.6C2007.37,-48.32 2005.35,-39.46 2003.71,-32.22"/>
<polygon fill="#63b8ff" stroke="#63b8ff" points="2005.81,-57.24 2011.44,-66.22 2012.63,-55.69 2005.81,-57.24"/>
</a>
</g>
</g>
<!-- Node27 -->
<g id="Node000027" class="node">
<title>Node27</title>
<g id="a_Node000027"><a xlink:href="_parser_8cpp.html" target="_top" xlink:title=" ">
<polygon fill="white" stroke="#666666" points="2199.88,-32 2088.62,-32 2088.62,0 2199.88,0 2199.88,-32"/>
<text text-anchor="start" x="2096.62" y="-18.5" font-family="Helvetica,sans-Serif" font-size="10.00">FIEAGameEngine/src</text>
<text text-anchor="middle" x="2144.25" y="-6.5" font-family="Helvetica,sans-Serif" font-size="10.00">/content/Parser.cpp</text>
</a>
</g>
</g>
<!-- Node26&#45;&gt;Node27 -->
<g id="edge37_Node000026_Node000027" class="edge">
<title>Node26&#45;&gt;Node27</title>
<g id="a_edge37_Node000026_Node000027"><a xlink:title=" ">
<path fill="none" stroke="#63b8ff" d="M2055.63,-62.34C2074.58,-52.65 2096.76,-41.3 2114.19,-32.38"/>
<polygon fill="#63b8ff" stroke="#63b8ff" points="2054.15,-59.17 2046.84,-66.84 2057.34,-65.4 2054.15,-59.17"/>
</a>
</g>
</g>
</g>
</svg>
