<?xml version="1.0" encoding="UTF-8" standalone="no"?>
<!DOCTYPE svg PUBLIC "-//W3C//DTD SVG 1.1//EN"
 "http://www.w3.org/Graphics/SVG/1.1/DTD/svg11.dtd">
<!-- Generated by graphviz version 12.2.1 (20241206.2353)
 -->
<!-- Title: FIEAGameEngine/include/Content/Actions/IncrementAction.h Pages: 1 -->
<svg width="424pt" height="120pt"
 viewBox="0.00 0.00 423.62 120.00" xmlns="http://www.w3.org/2000/svg" xmlns:xlink="http://www.w3.org/1999/xlink">
<g id="graph0" class="graph" transform="scale(1 1) rotate(0) translate(4 116)">
<title>FIEAGameEngine/include/Content/Actions/IncrementAction.h</title>
<!-- Node1 -->
<g id="Node000001" class="node">
<title>Node1</title>
<g id="a_Node000001"><a xlink:title=" ">
<polygon fill="#999999" stroke="#666666" points="290.12,-112 118.12,-112 118.12,-80 290.12,-80 290.12,-112"/>
<text text-anchor="start" x="126.12" y="-98.5" font-family="Helvetica,sans-Serif" font-size="10.00">FIEAGameEngine/include</text>
<text text-anchor="middle" x="204.12" y="-86.5" font-family="Helvetica,sans-Serif" font-size="10.00">/Content/Actions/IncrementAction.h</text>
</a>
</g>
</g>
<!-- Node2 -->
<g id="Node000002" class="node">
<title>Node2</title>
<g id="a_Node000002"><a xlink:href="_increment_action_8cpp.html" target="_top" xlink:title=" ">
<polygon fill="white" stroke="#666666" points="132.25,-44 0,-44 0,0 132.25,0 132.25,-44"/>
<text text-anchor="start" x="8" y="-30.5" font-family="Helvetica,sans-Serif" font-size="10.00">FIEAGameEngine/src</text>
<text text-anchor="start" x="8" y="-18.5" font-family="Helvetica,sans-Serif" font-size="10.00">/content/actions/Increment</text>
<text text-anchor="middle" x="66.12" y="-6.5" font-family="Helvetica,sans-Serif" font-size="10.00">Action.cpp</text>
</a>
</g>
</g>
<!-- Node1&#45;&gt;Node2 -->
<g id="edge1_Node000001_Node000002" class="edge">
<title>Node1&#45;&gt;Node2</title>
<g id="a_edge1_Node000001_Node000002"><a xlink:title=" ">
<path fill="none" stroke="#63b8ff" d="M164.38,-74.27C146.45,-64.91 125.28,-53.87 107.2,-44.43"/>
<polygon fill="#63b8ff" stroke="#63b8ff" points="162.69,-77.33 173.18,-78.85 165.93,-71.13 162.69,-77.33"/>
</a>
</g>
</g>
<!-- Node3 -->
<g id="Node000003" class="node">
<title>Node3</title>
<g id="a_Node000003"><a xlink:href="_action_test_8cpp.html" target="_top" xlink:title=" ">
<polygon fill="white" stroke="#666666" points="258.25,-32 150,-32 150,-12 258.25,-12 258.25,-32"/>
<text text-anchor="middle" x="204.12" y="-18.5" font-family="Helvetica,sans-Serif" font-size="10.00">Tests/ActionTest.cpp</text>
</a>
</g>
</g>
<!-- Node1&#45;&gt;Node3 -->
<g id="edge2_Node000001_Node000003" class="edge">
<title>Node1&#45;&gt;Node3</title>
<g id="a_edge2_Node000001_Node000003"><a xlink:title=" ">
<path fill="none" stroke="#63b8ff" d="M204.12,-68.34C204.12,-55.7 204.12,-41.41 204.12,-32.31"/>
<polygon fill="#63b8ff" stroke="#63b8ff" points="200.63,-68.22 204.13,-78.22 207.63,-68.22 200.63,-68.22"/>
</a>
</g>
</g>
<!-- Node4 -->
<g id="Node000004" class="node">
<title>Node4</title>
<g id="a_Node000004"><a xlink:href="_serialization_tests_8cpp.html" target="_top" xlink:title=" ">
<polygon fill="white" stroke="#666666" points="415.62,-32 276.62,-32 276.62,-12 415.62,-12 415.62,-32"/>
<text text-anchor="middle" x="346.12" y="-18.5" font-family="Helvetica,sans-Serif" font-size="10.00">Tests/SerializationTests.cpp</text>
</a>
</g>
</g>
<!-- Node1&#45;&gt;Node4 -->
<g id="edge3_Node000001_Node000004" class="edge">
<title>Node1&#45;&gt;Node4</title>
<g id="a_edge3_Node000001_Node000004"><a xlink:title=" ">
<path fill="none" stroke="#63b8ff" d="M244.62,-74.47C271.86,-60.66 306.49,-43.1 327.45,-32.47"/>
<polygon fill="#63b8ff" stroke="#63b8ff" points="243.27,-71.23 235.94,-78.87 246.44,-77.47 243.27,-71.23"/>
</a>
</g>
</g>
</g>
</svg>
