<?xml version="1.0" encoding="UTF-8" standalone="no"?>
<!DOCTYPE svg PUBLIC "-//W3C//DTD SVG 1.1//EN"
 "http://www.w3.org/Graphics/SVG/1.1/DTD/svg11.dtd">
<!-- Generated by graphviz version 12.2.1 (20241206.2353)
 -->
<!-- Title: FIEAGameEngine/include/FIEAGameEngine/List.h Pages: 1 -->
<svg width="252pt" height="108pt"
 viewBox="0.00 0.00 251.75 108.00" xmlns="http://www.w3.org/2000/svg" xmlns:xlink="http://www.w3.org/1999/xlink">
<g id="graph0" class="graph" transform="scale(1 1) rotate(0) translate(4 104)">
<title>FIEAGameEngine/include/FIEAGameEngine/List.h</title>
<!-- Node1 -->
<g id="Node000001" class="node">
<title>Node1</title>
<g id="a_Node000001"><a xlink:title=" ">
<polygon fill="#999999" stroke="#666666" points="128.88,-100 0.38,-100 0.38,-68 128.88,-68 128.88,-100"/>
<text text-anchor="start" x="8.38" y="-86.5" font-family="Helvetica,sans-Serif" font-size="10.00">FIEAGameEngine/include</text>
<text text-anchor="middle" x="64.62" y="-74.5" font-family="Helvetica,sans-Serif" font-size="10.00">/FIEAGameEngine/List.h</text>
</a>
</g>
</g>
<!-- Node2 -->
<g id="Node000002" class="node">
<title>Node2</title>
<g id="a_Node000002"><a xlink:href="_list_8inl.html" target="_top" xlink:title=" ">
<polygon fill="white" stroke="#666666" points="129.25,-32 0,-32 0,0 129.25,0 129.25,-32"/>
<text text-anchor="start" x="8" y="-18.5" font-family="Helvetica,sans-Serif" font-size="10.00">FIEAGameEngine/include</text>
<text text-anchor="middle" x="64.62" y="-6.5" font-family="Helvetica,sans-Serif" font-size="10.00">/FIEAGameEngine/List.inl</text>
</a>
</g>
</g>
<!-- Node1&#45;&gt;Node2 -->
<g id="edge1_Node000001_Node000002" class="edge">
<title>Node1&#45;&gt;Node2</title>
<g id="a_edge1_Node000001_Node000002"><a xlink:title=" ">
<path fill="none" stroke="#63b8ff" d="M57.99,-56.31C57.69,-48.12 57.98,-39.38 58.83,-32.22"/>
<polygon fill="#63b8ff" stroke="#63b8ff" points="54.49,-56.47 58.71,-66.18 61.47,-55.95 54.49,-56.47"/>
</a>
</g>
</g>
<!-- Node3 -->
<g id="Node000003" class="node">
<title>Node3</title>
<g id="a_Node000003"><a xlink:href="_list_test_8cpp.html" target="_top" xlink:title=" ">
<polygon fill="white" stroke="#666666" points="243.75,-26 147.5,-26 147.5,-6 243.75,-6 243.75,-26"/>
<text text-anchor="middle" x="195.62" y="-12.5" font-family="Helvetica,sans-Serif" font-size="10.00">Tests/ListTest.cpp</text>
</a>
</g>
</g>
<!-- Node1&#45;&gt;Node3 -->
<g id="edge3_Node000001_Node000003" class="edge">
<title>Node1&#45;&gt;Node3</title>
<g id="a_edge3_Node000001_Node000003"><a xlink:title=" ">
<path fill="none" stroke="#63b8ff" d="M105.54,-62.39C129.39,-50.37 158.32,-35.79 176.85,-26.46"/>
<polygon fill="#63b8ff" stroke="#63b8ff" points="104.05,-59.22 96.69,-66.84 107.2,-65.47 104.05,-59.22"/>
</a>
</g>
</g>
<!-- Node2&#45;&gt;Node1 -->
<g id="edge2_Node000002_Node000001" class="edge">
<title>Node2&#45;&gt;Node1</title>
<g id="a_edge2_Node000002_Node000001"><a xlink:title=" ">
<path fill="none" stroke="#63b8ff" d="M71.26,-43.59C71.56,-51.79 71.28,-60.53 70.43,-67.69"/>
<polygon fill="#63b8ff" stroke="#63b8ff" points="74.76,-43.45 70.53,-33.73 67.78,-43.97 74.76,-43.45"/>
</a>
</g>
</g>
</g>
</svg>
