<?xml version="1.0" encoding="UTF-8" standalone="no"?>
<!DOCTYPE svg PUBLIC "-//W3C//DTD SVG 1.1//EN"
 "http://www.w3.org/Graphics/SVG/1.1/DTD/svg11.dtd">
<!-- Generated by graphviz version 12.2.1 (20241206.2353)
 -->
<!-- Title: FIEAGameEngine/src/content/MatrixHandler.cpp Pages: 1 -->
<svg width="1167pt" height="376pt"
 viewBox="0.00 0.00 1166.88 376.00" xmlns="http://www.w3.org/2000/svg" xmlns:xlink="http://www.w3.org/1999/xlink">
<g id="graph0" class="graph" transform="scale(1 1) rotate(0) translate(4 372)">
<title>FIEAGameEngine/src/content/MatrixHandler.cpp</title>
<!-- Node1 -->
<g id="Node000001" class="node">
<title>Node1</title>
<g id="a_Node000001"><a xlink:title=" ">
<polygon fill="#999999" stroke="#666666" points="361.5,-368 227.75,-368 227.75,-336 361.5,-336 361.5,-368"/>
<text text-anchor="start" x="235.75" y="-354.5" font-family="Helvetica,sans-Serif" font-size="10.00">FIEAGameEngine/src</text>
<text text-anchor="middle" x="294.62" y="-342.5" font-family="Helvetica,sans-Serif" font-size="10.00">/content/MatrixHandler.cpp</text>
</a>
</g>
</g>
<!-- Node2 -->
<g id="Node000002" class="node">
<title>Node2</title>
<g id="a_Node000002"><a xlink:href="_matrix_handler_8h.html" target="_top" xlink:title=" ">
<polygon fill="white" stroke="#666666" points="194.88,-300 72.38,-300 72.38,-280 194.88,-280 194.88,-300"/>
<text text-anchor="middle" x="133.62" y="-286.5" font-family="Helvetica,sans-Serif" font-size="10.00">Content/MatrixHandler.h</text>
</a>
</g>
</g>
<!-- Node1&#45;&gt;Node2 -->
<g id="edge1_Node000001_Node000002" class="edge">
<title>Node1&#45;&gt;Node2</title>
<g id="a_edge1_Node000001_Node000002"><a xlink:title=" ">
<path fill="none" stroke="#63b8ff" d="M253.16,-335.55C227.31,-325.91 194.37,-313.64 169.61,-304.41"/>
<polygon fill="#63b8ff" stroke="#63b8ff" points="170.88,-301.15 160.29,-300.94 168.44,-307.71 170.88,-301.15"/>
</a>
</g>
</g>
<!-- Node18 -->
<g id="Node000018" class="node">
<title>Node18</title>
<g id="a_Node000018"><a xlink:href="_test_writer_8h.html" target="_top" xlink:title=" ">
<polygon fill="white" stroke="#666666" points="225.88,-244 157.38,-244 157.38,-224 225.88,-224 225.88,-244"/>
<text text-anchor="middle" x="191.62" y="-230.5" font-family="Helvetica,sans-Serif" font-size="10.00">TestWriter.h</text>
</a>
</g>
</g>
<!-- Node1&#45;&gt;Node18 -->
<g id="edge19_Node000001_Node000018" class="edge">
<title>Node1&#45;&gt;Node18</title>
<g id="a_edge19_Node000001_Node000018"><a xlink:title=" ">
<path fill="none" stroke="#63b8ff" d="M281.16,-335.84C262.18,-314.46 227.63,-275.55 207.45,-252.82"/>
<polygon fill="#63b8ff" stroke="#63b8ff" points="210.27,-250.72 201.01,-245.57 205.03,-255.37 210.27,-250.72"/>
</a>
</g>
</g>
<!-- Node20 -->
<g id="Node000020" class="node">
<title>Node20</title>
<g id="a_Node000020"><a xlink:href="_scope_writer_8h.html" target="_top" xlink:title=" ">
<polygon fill="white" stroke="#666666" points="368.38,-300 290.88,-300 290.88,-280 368.38,-280 368.38,-300"/>
<text text-anchor="middle" x="329.62" y="-286.5" font-family="Helvetica,sans-Serif" font-size="10.00">ScopeWriter.h</text>
</a>
</g>
</g>
<!-- Node1&#45;&gt;Node20 -->
<g id="edge23_Node000001_Node000020" class="edge">
<title>Node1&#45;&gt;Node20</title>
<g id="a_edge23_Node000001_Node000020"><a xlink:title=" ">
<path fill="none" stroke="#63b8ff" d="M303.64,-335.55C308.14,-327.82 313.64,-318.4 318.42,-310.21"/>
<polygon fill="#63b8ff" stroke="#63b8ff" points="321.36,-312.12 323.37,-301.72 315.31,-308.59 321.36,-312.12"/>
</a>
</g>
</g>
<!-- Node33 -->
<g id="Node000033" class="node">
<title>Node33</title>
<g id="a_Node000033"><a xlink:title=" ">
<polygon fill="#e0e0e0" stroke="#999999" points="426.62,-300 386.62,-300 386.62,-280 426.62,-280 426.62,-300"/>
<text text-anchor="middle" x="406.62" y="-286.5" font-family="Helvetica,sans-Serif" font-size="10.00">regex</text>
</a>
</g>
</g>
<!-- Node1&#45;&gt;Node33 -->
<g id="edge46_Node000001_Node000033" class="edge">
<title>Node1&#45;&gt;Node33</title>
<g id="a_edge46_Node000001_Node000033"><a xlink:title=" ">
<path fill="none" stroke="#63b8ff" d="M323.47,-335.55C340.64,-326.35 362.32,-314.74 379.23,-305.68"/>
<polygon fill="#63b8ff" stroke="#63b8ff" points="380.57,-308.93 387.73,-301.12 377.26,-302.76 380.57,-308.93"/>
</a>
</g>
</g>
<!-- Node3 -->
<g id="Node000003" class="node">
<title>Node3</title>
<g id="a_Node000003"><a xlink:href="_i_parse_handler_8h.html" target="_top" xlink:title=" ">
<polygon fill="white" stroke="#666666" points="136.88,-244 50.38,-244 50.38,-224 136.88,-224 136.88,-244"/>
<text text-anchor="middle" x="93.62" y="-230.5" font-family="Helvetica,sans-Serif" font-size="10.00">IParseHandler.h</text>
</a>
</g>
</g>
<!-- Node2&#45;&gt;Node3 -->
<g id="edge2_Node000002_Node000003" class="edge">
<title>Node2&#45;&gt;Node3</title>
<g id="a_edge2_Node000002_Node000003"><a xlink:title=" ">
<path fill="none" stroke="#63b8ff" d="M126.66,-279.59C121.32,-272.39 113.8,-262.23 107.28,-253.43"/>
<polygon fill="#63b8ff" stroke="#63b8ff" points="110.18,-251.47 101.41,-245.51 104.55,-255.63 110.18,-251.47"/>
</a>
</g>
</g>
<!-- Node4 -->
<g id="Node000004" class="node">
<title>Node4</title>
<g id="a_Node000004"><a xlink:href="_parse_writer_8h.html" target="_top" xlink:title=" ">
<polygon fill="white" stroke="#666666" points="233.25,-188 158,-188 158,-168 233.25,-168 233.25,-188"/>
<text text-anchor="middle" x="195.62" y="-174.5" font-family="Helvetica,sans-Serif" font-size="10.00">ParseWriter.h</text>
</a>
</g>
</g>
<!-- Node3&#45;&gt;Node4 -->
<g id="edge3_Node000003_Node000004" class="edge">
<title>Node3&#45;&gt;Node4</title>
<g id="a_edge3_Node000003_Node000004"><a xlink:title=" ">
<path fill="none" stroke="#63b8ff" d="M111.39,-223.59C126.95,-215.36 149.81,-203.26 167.79,-193.74"/>
<polygon fill="#63b8ff" stroke="#63b8ff" points="169.18,-196.96 176.38,-189.19 165.91,-190.77 169.18,-196.96"/>
</a>
</g>
</g>
<!-- Node12 -->
<g id="Node000012" class="node">
<title>Node12</title>
<g id="a_Node000012"><a xlink:title=" ">
<polygon fill="#e0e0e0" stroke="#999999" points="552.62,-20 512.62,-20 512.62,0 552.62,0 552.62,-20"/>
<text text-anchor="middle" x="532.62" y="-6.5" font-family="Helvetica,sans-Serif" font-size="10.00">string</text>
</a>
</g>
</g>
<!-- Node3&#45;&gt;Node12 -->
<g id="edge17_Node000003_Node000012" class="edge">
<title>Node3&#45;&gt;Node12</title>
<g id="a_edge17_Node000003_Node000012"><a xlink:title=" ">
<path fill="none" stroke="#63b8ff" d="M93.74,-223.53C94.57,-200.77 99.94,-142.64 132.62,-112 186.9,-61.11 416.53,-26.3 501.14,-14.99"/>
<polygon fill="#63b8ff" stroke="#63b8ff" points="501.36,-18.49 510.81,-13.72 500.44,-11.55 501.36,-18.49"/>
</a>
</g>
</g>
<!-- Node17 -->
<g id="Node000017" class="node">
<title>Node17</title>
<g id="a_Node000017"><a xlink:title=" ">
<polygon fill="#e0e0e0" stroke="#999999" points="63.25,-188 0,-188 0,-168 63.25,-168 63.25,-188"/>
<text text-anchor="middle" x="31.62" y="-174.5" font-family="Helvetica,sans-Serif" font-size="10.00">json/json.h</text>
</a>
</g>
</g>
<!-- Node3&#45;&gt;Node17 -->
<g id="edge18_Node000003_Node000017" class="edge">
<title>Node3&#45;&gt;Node17</title>
<g id="a_edge18_Node000003_Node000017"><a xlink:title=" ">
<path fill="none" stroke="#63b8ff" d="M82.83,-223.59C74.02,-215.93 61.37,-204.91 50.85,-195.75"/>
<polygon fill="#63b8ff" stroke="#63b8ff" points="53.28,-193.22 43.44,-189.29 48.68,-198.5 53.28,-193.22"/>
</a>
</g>
</g>
<!-- Node5 -->
<g id="Node000005" class="node">
<title>Node5</title>
<g id="a_Node000005"><a xlink:href="_r_t_t_i_8h.html" target="_top" xlink:title=" ">
<polygon fill="white" stroke="#666666" points="679.5,-132 551.75,-132 551.75,-112 679.5,-112 679.5,-132"/>
<text text-anchor="middle" x="615.62" y="-118.5" font-family="Helvetica,sans-Serif" font-size="10.00">FIEAGameEngine/RTTI.h</text>
</a>
</g>
</g>
<!-- Node4&#45;&gt;Node5 -->
<g id="edge4_Node000004_Node000005" class="edge">
<title>Node4&#45;&gt;Node5</title>
<g id="a_edge4_Node000004_Node000005"><a xlink:title=" ">
<path fill="none" stroke="#63b8ff" d="M233.64,-172.11C302.77,-163.22 450.24,-144.26 540.38,-132.67"/>
<polygon fill="#63b8ff" stroke="#63b8ff" points="540.64,-136.17 550.12,-131.42 539.75,-129.23 540.64,-136.17"/>
</a>
</g>
</g>
<!-- Node16 -->
<g id="Node000016" class="node">
<title>Node16</title>
<g id="a_Node000016"><a xlink:title=" ">
<polygon fill="#e0e0e0" stroke="#999999" points="197.62,-132 157.62,-132 157.62,-112 197.62,-112 197.62,-132"/>
<text text-anchor="middle" x="177.62" y="-118.5" font-family="Helvetica,sans-Serif" font-size="10.00">stack</text>
</a>
</g>
</g>
<!-- Node4&#45;&gt;Node16 -->
<g id="edge16_Node000004_Node000016" class="edge">
<title>Node4&#45;&gt;Node16</title>
<g id="a_edge16_Node000004_Node000016"><a xlink:title=" ">
<path fill="none" stroke="#63b8ff" d="M192.49,-167.59C190.24,-160.86 187.14,-151.53 184.34,-143.15"/>
<polygon fill="#63b8ff" stroke="#63b8ff" points="187.69,-142.11 181.2,-133.73 181.05,-144.33 187.69,-142.11"/>
</a>
</g>
</g>
<!-- Node6 -->
<g id="Node000006" class="node">
<title>Node6</title>
<g id="a_Node000006"><a xlink:href="_types_8h.html" target="_top" xlink:title=" ">
<polygon fill="white" stroke="#666666" points="867.75,-76 735.5,-76 735.5,-56 867.75,-56 867.75,-76"/>
<text text-anchor="middle" x="801.62" y="-62.5" font-family="Helvetica,sans-Serif" font-size="10.00">FIEAGameEngine/Types.h</text>
</a>
</g>
</g>
<!-- Node5&#45;&gt;Node6 -->
<g id="edge5_Node000005_Node000006" class="edge">
<title>Node5&#45;&gt;Node6</title>
<g id="a_edge5_Node000005_Node000006"><a xlink:title=" ">
<path fill="none" stroke="#63b8ff" d="M648.02,-111.59C678.51,-102.74 724.38,-89.43 758.06,-79.65"/>
<polygon fill="#63b8ff" stroke="#63b8ff" points="758.89,-83.05 767.52,-76.9 756.94,-76.33 758.89,-83.05"/>
</a>
</g>
</g>
<!-- Node15 -->
<g id="Node000015" class="node">
<title>Node15</title>
<g id="a_Node000015"><a xlink:href="_r_t_t_i_8inl.html" target="_top" xlink:title=" ">
<polygon fill="white" stroke="#666666" points="679.88,-76 551.38,-76 551.38,-56 679.88,-56 679.88,-76"/>
<text text-anchor="middle" x="615.62" y="-62.5" font-family="Helvetica,sans-Serif" font-size="10.00">FieaGameEngine/RTTI.inl</text>
</a>
</g>
</g>
<!-- Node5&#45;&gt;Node15 -->
<g id="edge14_Node000005_Node000015" class="edge">
<title>Node5&#45;&gt;Node15</title>
<g id="a_edge14_Node000005_Node000015"><a xlink:title=" ">
<path fill="none" stroke="#63b8ff" d="M610.36,-111.59C609.04,-105.01 608.6,-95.96 609.04,-87.73"/>
<polygon fill="#63b8ff" stroke="#63b8ff" points="612.52,-88.14 610.2,-77.8 605.56,-87.33 612.52,-88.14"/>
</a>
</g>
</g>
<!-- Node7 -->
<g id="Node000007" class="node">
<title>Node7</title>
<g id="a_Node000007"><a xlink:title=" ">
<polygon fill="#e0e0e0" stroke="#999999" points="1158.88,-20 1096.38,-20 1096.38,0 1158.88,0 1158.88,-20"/>
<text text-anchor="middle" x="1127.62" y="-6.5" font-family="Helvetica,sans-Serif" font-size="10.00">windows.h</text>
</a>
</g>
</g>
<!-- Node6&#45;&gt;Node7 -->
<g id="edge6_Node000006_Node000007" class="edge">
<title>Node6&#45;&gt;Node7</title>
<g id="a_edge6_Node000006_Node000007"><a xlink:title=" ">
<path fill="none" stroke="#63b8ff" d="M868.01,-55.81C923.5,-47.84 1004.98,-35.48 1084.95,-20.41"/>
<polygon fill="#63b8ff" stroke="#63b8ff" points="1085.57,-23.86 1094.74,-18.55 1084.26,-16.98 1085.57,-23.86"/>
</a>
</g>
</g>
<!-- Node8 -->
<g id="Node000008" class="node">
<title>Node8</title>
<g id="a_Node000008"><a xlink:title=" ">
<polygon fill="#e0e0e0" stroke="#999999" points="627.75,-20 579.5,-20 579.5,0 627.75,0 627.75,-20"/>
<text text-anchor="middle" x="603.62" y="-6.5" font-family="Helvetica,sans-Serif" font-size="10.00">cassert</text>
</a>
</g>
</g>
<!-- Node6&#45;&gt;Node8 -->
<g id="edge7_Node000006_Node000008" class="edge">
<title>Node6&#45;&gt;Node8</title>
<g id="a_edge7_Node000006_Node000008"><a xlink:title=" ">
<path fill="none" stroke="#63b8ff" d="M767.14,-55.59C731.24,-45.81 675.32,-30.55 639.07,-20.67"/>
<polygon fill="#63b8ff" stroke="#63b8ff" points="640.08,-17.31 629.51,-18.06 638.23,-24.07 640.08,-17.31"/>
</a>
</g>
</g>
<!-- Node9 -->
<g id="Node000009" class="node">
<title>Node9</title>
<g id="a_Node000009"><a xlink:title=" ">
<polygon fill="#e0e0e0" stroke="#999999" points="693.75,-20 645.5,-20 645.5,0 693.75,0 693.75,-20"/>
<text text-anchor="middle" x="669.62" y="-6.5" font-family="Helvetica,sans-Serif" font-size="10.00">cstddef</text>
</a>
</g>
</g>
<!-- Node6&#45;&gt;Node9 -->
<g id="edge8_Node000006_Node000009" class="edge">
<title>Node6&#45;&gt;Node9</title>
<g id="a_edge8_Node000006_Node000009"><a xlink:title=" ">
<path fill="none" stroke="#63b8ff" d="M778.63,-55.59C757.84,-47.09 726.97,-34.46 703.39,-24.81"/>
<polygon fill="#63b8ff" stroke="#63b8ff" points="704.78,-21.6 694.2,-21.05 702.13,-28.08 704.78,-21.6"/>
</a>
</g>
</g>
<!-- Node10 -->
<g id="Node000010" class="node">
<title>Node10</title>
<g id="a_Node000010"><a xlink:title=" ">
<polygon fill="#e0e0e0" stroke="#999999" points="757.25,-20 712,-20 712,0 757.25,0 757.25,-20"/>
<text text-anchor="middle" x="734.62" y="-6.5" font-family="Helvetica,sans-Serif" font-size="10.00">cstdint</text>
</a>
</g>
</g>
<!-- Node6&#45;&gt;Node10 -->
<g id="edge9_Node000006_Node000010" class="edge">
<title>Node6&#45;&gt;Node10</title>
<g id="a_edge9_Node000006_Node000010"><a xlink:title=" ">
<path fill="none" stroke="#63b8ff" d="M789.95,-55.59C780.35,-47.85 766.5,-36.69 755.06,-27.47"/>
<polygon fill="#63b8ff" stroke="#63b8ff" points="757.32,-24.8 747.34,-21.25 752.93,-30.25 757.32,-24.8"/>
</a>
</g>
</g>
<!-- Node11 -->
<g id="Node000011" class="node">
<title>Node11</title>
<g id="a_Node000011"><a xlink:title=" ">
<polygon fill="#e0e0e0" stroke="#999999" points="828,-20 775.25,-20 775.25,0 828,0 828,-20"/>
<text text-anchor="middle" x="801.62" y="-6.5" font-family="Helvetica,sans-Serif" font-size="10.00">cstdbool</text>
</a>
</g>
</g>
<!-- Node6&#45;&gt;Node11 -->
<g id="edge10_Node000006_Node000011" class="edge">
<title>Node6&#45;&gt;Node11</title>
<g id="a_edge10_Node000006_Node000011"><a xlink:title=" ">
<path fill="none" stroke="#63b8ff" d="M801.62,-55.59C801.62,-49.01 801.62,-39.96 801.62,-31.73"/>
<polygon fill="#63b8ff" stroke="#63b8ff" points="805.13,-31.81 801.63,-21.81 798.13,-31.81 805.13,-31.81"/>
</a>
</g>
</g>
<!-- Node6&#45;&gt;Node12 -->
<g id="edge11_Node000006_Node000012" class="edge">
<title>Node6&#45;&gt;Node12</title>
<g id="a_edge11_Node000006_Node000012"><a xlink:title=" ">
<path fill="none" stroke="#63b8ff" d="M750.13,-55.58C703.23,-46.86 632.13,-33.27 570.62,-20 568.49,-19.54 566.29,-19.05 564.07,-18.55"/>
<polygon fill="#63b8ff" stroke="#63b8ff" points="565.11,-15.2 554.58,-16.35 563.53,-22.02 565.11,-15.2"/>
</a>
</g>
</g>
<!-- Node13 -->
<g id="Node000013" class="node">
<title>Node13</title>
<g id="a_Node000013"><a xlink:title=" ">
<polygon fill="#e0e0e0" stroke="#999999" points="900.75,-20 846.5,-20 846.5,0 900.75,0 900.75,-20"/>
<text text-anchor="middle" x="873.62" y="-6.5" font-family="Helvetica,sans-Serif" font-size="10.00">crtdefs.h</text>
</a>
</g>
</g>
<!-- Node6&#45;&gt;Node13 -->
<g id="edge12_Node000006_Node000013" class="edge">
<title>Node6&#45;&gt;Node13</title>
<g id="a_edge12_Node000006_Node000013"><a xlink:title=" ">
<path fill="none" stroke="#63b8ff" d="M814.17,-55.59C824.59,-47.77 839.67,-36.46 852.04,-27.19"/>
<polygon fill="#63b8ff" stroke="#63b8ff" points="854.12,-30.01 860.02,-21.21 849.92,-24.41 854.12,-30.01"/>
</a>
</g>
</g>
<!-- Node14 -->
<g id="Node000014" class="node">
<title>Node14</title>
<g id="a_Node000014"><a xlink:title=" ">
<polygon fill="#e0e0e0" stroke="#999999" points="1078.62,-20 918.62,-20 918.62,0 1078.62,0 1078.62,-20"/>
<text text-anchor="middle" x="998.62" y="-6.5" font-family="Helvetica,sans-Serif" font-size="10.00">../src/memory/SystemAllocator.h</text>
</a>
</g>
</g>
<!-- Node6&#45;&gt;Node14 -->
<g id="edge13_Node000006_Node000014" class="edge">
<title>Node6&#45;&gt;Node14</title>
<g id="a_edge13_Node000006_Node000014"><a xlink:title=" ">
<path fill="none" stroke="#63b8ff" d="M835.94,-55.59C868.37,-46.71 917.24,-33.31 952.95,-23.52"/>
<polygon fill="#63b8ff" stroke="#63b8ff" points="953.86,-26.9 962.58,-20.88 952.01,-20.15 953.86,-26.9"/>
</a>
</g>
</g>
<!-- Node15&#45;&gt;Node5 -->
<g id="edge15_Node000015_Node000005" class="edge">
<title>Node15&#45;&gt;Node5</title>
<g id="a_edge15_Node000015_Node000005"><a xlink:title=" ">
<path fill="none" stroke="#63b8ff" d="M620.87,-76.3C622.21,-82.93 622.66,-92.11 622.2,-100.43"/>
<polygon fill="#63b8ff" stroke="#63b8ff" points="618.76,-99.75 621.07,-110.09 625.71,-100.57 618.76,-99.75"/>
</a>
</g>
</g>
<!-- Node18&#45;&gt;Node4 -->
<g id="edge21_Node000018_Node000004" class="edge">
<title>Node18&#45;&gt;Node4</title>
<g id="a_edge21_Node000018_Node000004"><a xlink:title=" ">
<path fill="none" stroke="#63b8ff" d="M192.32,-223.59C192.81,-217.01 193.48,-207.96 194.09,-199.73"/>
<polygon fill="#63b8ff" stroke="#63b8ff" points="197.58,-200.04 194.82,-189.81 190.6,-199.52 197.58,-200.04"/>
</a>
</g>
</g>
<!-- Node18&#45;&gt;Node6 -->
<g id="edge20_Node000018_Node000006" class="edge">
<title>Node18&#45;&gt;Node6</title>
<g id="a_edge20_Node000018_Node000006"><a xlink:title=" ">
<path fill="none" stroke="#63b8ff" d="M178.3,-223.66C168.02,-215.56 154.58,-202.84 148.62,-188 136.05,-156.65 125.55,-136.67 148.62,-112 189.71,-68.09 628.65,-80.39 688.62,-76 700,-75.17 712.02,-74.25 723.81,-73.33"/>
<polygon fill="#63b8ff" stroke="#63b8ff" points="723.81,-76.84 733.5,-72.57 723.26,-69.86 723.81,-76.84"/>
</a>
</g>
</g>
<!-- Node19 -->
<g id="Node000019" class="node">
<title>Node19</title>
<g id="a_Node000019"><a xlink:title=" ">
<polygon fill="#e0e0e0" stroke="#999999" points="363.12,-188 320.12,-188 320.12,-168 363.12,-168 363.12,-188"/>
<text text-anchor="middle" x="341.62" y="-174.5" font-family="Helvetica,sans-Serif" font-size="10.00">vector</text>
</a>
</g>
</g>
<!-- Node18&#45;&gt;Node19 -->
<g id="edge22_Node000018_Node000019" class="edge">
<title>Node18&#45;&gt;Node19</title>
<g id="a_edge22_Node000018_Node000019"><a xlink:title=" ">
<path fill="none" stroke="#63b8ff" d="M217.75,-223.59C243.13,-214.46 281.73,-200.56 309.09,-190.71"/>
<polygon fill="#63b8ff" stroke="#63b8ff" points="310.05,-194.09 318.27,-187.41 307.67,-187.5 310.05,-194.09"/>
</a>
</g>
</g>
<!-- Node20&#45;&gt;Node4 -->
<g id="edge25_Node000020_Node000004" class="edge">
<title>Node20&#45;&gt;Node4</title>
<g id="a_edge25_Node000020_Node000004"><a xlink:title=" ">
<path fill="none" stroke="#63b8ff" d="M318.2,-279.62C295.46,-260.95 244.25,-218.92 215.74,-195.52"/>
<polygon fill="#63b8ff" stroke="#63b8ff" points="218.14,-192.95 208.19,-189.32 213.7,-198.37 218.14,-192.95"/>
</a>
</g>
</g>
<!-- Node20&#45;&gt;Node6 -->
<g id="edge24_Node000020_Node000006" class="edge">
<title>Node20&#45;&gt;Node6</title>
<g id="a_edge24_Node000020_Node000006"><a xlink:title=" ">
<path fill="none" stroke="#63b8ff" d="M368.65,-281.63C371.68,-281.07 374.7,-280.52 377.62,-280 573.43,-244.94 645.73,-291.45 815.62,-188 849.95,-167.1 883.02,-147.74 864.62,-112 857.99,-99.11 845.77,-89.1 833.85,-81.83"/>
<polygon fill="#63b8ff" stroke="#63b8ff" points="835.79,-78.9 825.35,-77.09 832.39,-85.02 835.79,-78.9"/>
</a>
</g>
</g>
<!-- Node20&#45;&gt;Node16 -->
<g id="edge27_Node000020_Node000016" class="edge">
<title>Node20&#45;&gt;Node16</title>
<g id="a_edge27_Node000020_Node000016"><a xlink:title=" ">
<path fill="none" stroke="#63b8ff" d="M324.44,-279.69C312.2,-258.25 279.72,-204.44 242.62,-168 231.04,-156.62 216.27,-146.14 203.74,-138.16"/>
<polygon fill="#63b8ff" stroke="#63b8ff" points="205.91,-135.39 195.56,-133.13 202.24,-141.35 205.91,-135.39"/>
</a>
</g>
</g>
<!-- Node20&#45;&gt;Node19 -->
<g id="edge26_Node000020_Node000019" class="edge">
<title>Node20&#45;&gt;Node19</title>
<g id="a_edge26_Node000020_Node000019"><a xlink:title=" ">
<path fill="none" stroke="#63b8ff" d="M330.65,-279.62C332.57,-262.01 336.76,-223.59 339.37,-199.65"/>
<polygon fill="#63b8ff" stroke="#63b8ff" points="342.84,-200.18 340.44,-189.86 335.88,-199.42 342.84,-200.18"/>
</a>
</g>
</g>
<!-- Node21 -->
<g id="Node000021" class="node">
<title>Node21</title>
<g id="a_Node000021"><a xlink:href="_scope_8h.html" target="_top" xlink:title=" ">
<polygon fill="white" stroke="#666666" points="579.38,-244 489.88,-244 489.88,-224 579.38,-224 579.38,-244"/>
<text text-anchor="middle" x="534.62" y="-230.5" font-family="Helvetica,sans-Serif" font-size="10.00">Content/Scope.h</text>
</a>
</g>
</g>
<!-- Node20&#45;&gt;Node21 -->
<g id="edge28_Node000020_Node000021" class="edge">
<title>Node20&#45;&gt;Node21</title>
<g id="a_edge28_Node000020_Node000021"><a xlink:title=" ">
<path fill="none" stroke="#63b8ff" d="M365.33,-279.59C399.22,-270.67 450.37,-257.19 487.57,-247.39"/>
<polygon fill="#63b8ff" stroke="#63b8ff" points="488.4,-250.8 497.17,-244.87 486.61,-244.03 488.4,-250.8"/>
</a>
</g>
</g>
<!-- Node32 -->
<g id="Node000032" class="node">
<title>Node32</title>
<g id="a_Node000032"><a xlink:href="_scope_writer_8inl.html" target="_top" xlink:title=" ">
<polygon fill="white" stroke="#666666" points="439.62,-244 357.62,-244 357.62,-224 439.62,-224 439.62,-244"/>
<text text-anchor="middle" x="398.62" y="-230.5" font-family="Helvetica,sans-Serif" font-size="10.00">ScopeWriter.inl</text>
</a>
</g>
</g>
<!-- Node20&#45;&gt;Node32 -->
<g id="edge44_Node000020_Node000032" class="edge">
<title>Node20&#45;&gt;Node32</title>
<g id="a_edge44_Node000020_Node000032"><a xlink:title=" ">
<path fill="none" stroke="#63b8ff" d="M336.38,-279.59C344.84,-271.74 359.03,-260.38 371.83,-251.09"/>
<polygon fill="#63b8ff" stroke="#63b8ff" points="373.83,-253.97 379.99,-245.35 369.8,-248.24 373.83,-253.97"/>
</a>
</g>
</g>
<!-- Node21&#45;&gt;Node5 -->
<g id="edge29_Node000021_Node000005" class="edge">
<title>Node21&#45;&gt;Node5</title>
<g id="a_edge29_Node000021_Node000005"><a xlink:title=" ">
<path fill="none" stroke="#63b8ff" d="M535.43,-223.79C537,-210.41 541.44,-185.3 553.62,-168 562.18,-155.85 575.08,-145.74 586.9,-138.19"/>
<polygon fill="#63b8ff" stroke="#63b8ff" points="588.37,-141.39 595.15,-133.25 584.77,-135.38 588.37,-141.39"/>
</a>
</g>
</g>
<!-- Node21&#45;&gt;Node19 -->
<g id="edge36_Node000021_Node000019" class="edge">
<title>Node21&#45;&gt;Node19</title>
<g id="a_edge36_Node000021_Node000019"><a xlink:title=" ">
<path fill="none" stroke="#63b8ff" d="M501.01,-223.59C465.34,-213.61 409.37,-197.95 374.13,-188.1"/>
<polygon fill="#63b8ff" stroke="#63b8ff" points="375.5,-184.84 364.93,-185.52 373.62,-191.59 375.5,-184.84"/>
</a>
</g>
</g>
<!-- Node22 -->
<g id="Node000022" class="node">
<title>Node22</title>
<g id="a_Node000022"><a xlink:href="_datum_8h.html" target="_top" xlink:title=" ">
<polygon fill="#fff0f0" stroke="red" points="500.38,-188 446.88,-188 446.88,-168 500.38,-168 500.38,-188"/>
<text text-anchor="middle" x="473.62" y="-174.5" font-family="Helvetica,sans-Serif" font-size="10.00">Datum.h</text>
</a>
</g>
</g>
<!-- Node21&#45;&gt;Node22 -->
<g id="edge30_Node000021_Node000022" class="edge">
<title>Node21&#45;&gt;Node22</title>
<g id="a_edge30_Node000021_Node000022"><a xlink:title=" ">
<path fill="none" stroke="#63b8ff" d="M524,-223.59C515.34,-215.93 502.89,-204.91 492.54,-195.75"/>
<polygon fill="#63b8ff" stroke="#63b8ff" points="495.07,-193.31 485.26,-189.3 490.43,-198.55 495.07,-193.31"/>
</a>
</g>
</g>
<!-- Node27 -->
<g id="Node000027" class="node">
<title>Node27</title>
<g id="a_Node000027"><a xlink:title=" ">
<polygon fill="#e0e0e0" stroke="#999999" points="856,-132 773.25,-132 773.25,-112 856,-112 856,-132"/>
<text text-anchor="middle" x="814.62" y="-118.5" font-family="Helvetica,sans-Serif" font-size="10.00">unordered_map</text>
</a>
</g>
</g>
<!-- Node21&#45;&gt;Node27 -->
<g id="edge37_Node000021_Node000027" class="edge">
<title>Node21&#45;&gt;Node27</title>
<g id="a_edge37_Node000021_Node000027"><a xlink:title=" ">
<path fill="none" stroke="#63b8ff" d="M579.62,-230.88C645.66,-226.85 764.41,-215.86 795.62,-188 808.11,-176.86 812.58,-158.02 814.1,-143.48"/>
<polygon fill="#63b8ff" stroke="#63b8ff" points="817.58,-143.82 814.7,-133.63 810.6,-143.39 817.58,-143.82"/>
</a>
</g>
</g>
<!-- Node28 -->
<g id="Node000028" class="node">
<title>Node28</title>
<g id="a_Node000028"><a xlink:title=" ">
<polygon fill="#e0e0e0" stroke="#999999" points="787,-188 752.25,-188 752.25,-168 787,-168 787,-188"/>
<text text-anchor="middle" x="769.62" y="-174.5" font-family="Helvetica,sans-Serif" font-size="10.00">map</text>
</a>
</g>
</g>
<!-- Node21&#45;&gt;Node28 -->
<g id="edge38_Node000021_Node000028" class="edge">
<title>Node21&#45;&gt;Node28</title>
<g id="a_edge38_Node000021_Node000028"><a xlink:title=" ">
<path fill="none" stroke="#63b8ff" d="M579.86,-224.9C620.04,-217.35 680.53,-205.08 740.94,-188.52"/>
<polygon fill="#63b8ff" stroke="#63b8ff" points="741.66,-191.95 750.35,-185.89 739.78,-185.2 741.66,-191.95"/>
</a>
</g>
</g>
<!-- Node29 -->
<g id="Node000029" class="node">
<title>Node29</title>
<g id="a_Node000029"><a xlink:href="_factory_service_8h.html" target="_top" xlink:title=" ">
<polygon fill="#fff0f0" stroke="red" points="734.62,-188 562.62,-188 562.62,-168 734.62,-168 734.62,-188"/>
<text text-anchor="middle" x="648.62" y="-174.5" font-family="Helvetica,sans-Serif" font-size="10.00">FIEAGameEngine/FactoryService.h</text>
</a>
</g>
</g>
<!-- Node21&#45;&gt;Node29 -->
<g id="edge39_Node000021_Node000029" class="edge">
<title>Node21&#45;&gt;Node29</title>
<g id="a_edge39_Node000021_Node000029"><a xlink:title=" ">
<path fill="none" stroke="#63b8ff" d="M554.48,-223.59C572.11,-215.24 598.13,-202.92 618.35,-193.34"/>
<polygon fill="#63b8ff" stroke="#63b8ff" points="619.71,-196.57 627.24,-189.13 616.71,-190.25 619.71,-196.57"/>
</a>
</g>
</g>
<!-- Node22&#45;&gt;Node5 -->
<g id="edge35_Node000022_Node000005" class="edge">
<title>Node22&#45;&gt;Node5</title>
<g id="a_edge35_Node000022_Node000005"><a xlink:title=" ">
<path fill="none" stroke="#63b8ff" d="M498.36,-167.59C520.92,-159.01 554.53,-146.23 579.99,-136.55"/>
<polygon fill="#63b8ff" stroke="#63b8ff" points="581.18,-139.84 589.28,-133.02 578.69,-133.3 581.18,-139.84"/>
</a>
</g>
</g>
<!-- Node22&#45;&gt;Node12 -->
<g id="edge31_Node000022_Node000012" class="edge">
<title>Node22&#45;&gt;Node12</title>
<g id="a_edge31_Node000022_Node000012"><a xlink:title=" ">
<path fill="none" stroke="#63b8ff" d="M481.66,-167.63C488.71,-158.94 498.73,-145.37 504.62,-132 519.37,-98.57 526.86,-56.38 530.24,-31.67"/>
<polygon fill="#63b8ff" stroke="#63b8ff" points="533.69,-32.35 531.46,-21.99 526.74,-31.47 533.69,-32.35"/>
</a>
</g>
</g>
<!-- Node23 -->
<g id="Node000023" class="node">
<title>Node23</title>
<g id="a_Node000023"><a xlink:title=" ">
<polygon fill="#e0e0e0" stroke="#999999" points="495.5,-132 439.75,-132 439.75,-112 495.5,-112 495.5,-132"/>
<text text-anchor="middle" x="467.62" y="-118.5" font-family="Helvetica,sans-Serif" font-size="10.00">charconv</text>
</a>
</g>
</g>
<!-- Node22&#45;&gt;Node23 -->
<g id="edge32_Node000022_Node000023" class="edge">
<title>Node22&#45;&gt;Node23</title>
<g id="a_edge32_Node000022_Node000023"><a xlink:title=" ">
<path fill="none" stroke="#63b8ff" d="M472.58,-167.59C471.85,-161.01 470.84,-151.96 469.93,-143.73"/>
<polygon fill="#63b8ff" stroke="#63b8ff" points="473.41,-143.35 468.83,-133.8 466.45,-144.13 473.41,-143.35"/>
</a>
</g>
</g>
<!-- Node24 -->
<g id="Node000024" class="node">
<title>Node24</title>
<g id="a_Node000024"><a xlink:title=" ">
<polygon fill="#e0e0e0" stroke="#999999" points="285.25,-132 216,-132 216,-112 285.25,-112 285.25,-132"/>
<text text-anchor="middle" x="250.62" y="-118.5" font-family="Helvetica,sans-Serif" font-size="10.00">glm/glm.hpp</text>
</a>
</g>
</g>
<!-- Node22&#45;&gt;Node24 -->
<g id="edge33_Node000022_Node000024" class="edge">
<title>Node22&#45;&gt;Node24</title>
<g id="a_edge33_Node000022_Node000024"><a xlink:title=" ">
<path fill="none" stroke="#63b8ff" d="M446.73,-170.49C409.56,-161.49 341.98,-145.12 296.69,-134.15"/>
<polygon fill="#63b8ff" stroke="#63b8ff" points="297.7,-130.8 287.16,-131.85 296.05,-137.6 297.7,-130.8"/>
</a>
</g>
</g>
<!-- Node25 -->
<g id="Node000025" class="node">
<title>Node25</title>
<g id="a_Node000025"><a xlink:title=" ">
<polygon fill="#e0e0e0" stroke="#999999" points="421.62,-132 303.62,-132 303.62,-112 421.62,-112 421.62,-132"/>
<text text-anchor="middle" x="362.62" y="-118.5" font-family="Helvetica,sans-Serif" font-size="10.00">glm/gtx/string_cast.hpp</text>
</a>
</g>
</g>
<!-- Node22&#45;&gt;Node25 -->
<g id="edge34_Node000022_Node000025" class="edge">
<title>Node22&#45;&gt;Node25</title>
<g id="a_edge34_Node000022_Node000025"><a xlink:title=" ">
<path fill="none" stroke="#63b8ff" d="M454.29,-167.59C437.21,-159.28 412.02,-147.03 392.37,-137.47"/>
<polygon fill="#63b8ff" stroke="#63b8ff" points="394,-134.37 383.47,-133.14 390.93,-140.66 394,-134.37"/>
</a>
</g>
</g>
<!-- Node29&#45;&gt;Node5 -->
<g id="edge41_Node000029_Node000005" class="edge">
<title>Node29&#45;&gt;Node5</title>
<g id="a_edge41_Node000029_Node000005"><a xlink:title=" ">
<path fill="none" stroke="#63b8ff" d="M642.88,-167.59C638.57,-160.55 632.53,-150.67 627.24,-142"/>
<polygon fill="#63b8ff" stroke="#63b8ff" points="630.3,-140.3 622.1,-133.59 624.32,-143.95 630.3,-140.3"/>
</a>
</g>
</g>
<!-- Node29&#45;&gt;Node6 -->
<g id="edge40_Node000029_Node000006" class="edge">
<title>Node29&#45;&gt;Node6</title>
<g id="a_edge40_Node000029_Node000006"><a xlink:title=" ">
<path fill="none" stroke="#63b8ff" d="M665.25,-167.58C680.31,-158.86 702.93,-145.27 721.62,-132 743.34,-116.59 766.84,-97.13 782.71,-83.54"/>
<polygon fill="#63b8ff" stroke="#63b8ff" points="784.68,-86.46 789.96,-77.28 780.1,-81.17 784.68,-86.46"/>
</a>
</g>
</g>
<!-- Node29&#45;&gt;Node12 -->
<g id="edge42_Node000029_Node000012" class="edge">
<title>Node29&#45;&gt;Node12</title>
<g id="a_edge42_Node000029_Node000012"><a xlink:title=" ">
<path fill="none" stroke="#63b8ff" d="M660.65,-167.78C670.28,-159.59 683.05,-146.66 688.62,-132 700.63,-100.43 708.93,-82.99 688.62,-56 684.79,-50.91 608.53,-30.55 564.08,-19.04"/>
<polygon fill="#63b8ff" stroke="#63b8ff" points="565.02,-15.67 554.46,-16.56 563.27,-22.45 565.02,-15.67"/>
</a>
</g>
</g>
<!-- Node29&#45;&gt;Node27 -->
<g id="edge43_Node000029_Node000027" class="edge">
<title>Node29&#45;&gt;Node27</title>
<g id="a_edge43_Node000029_Node000027"><a xlink:title=" ">
<path fill="none" stroke="#63b8ff" d="M677.54,-167.59C704.39,-158.86 744.62,-145.77 774.56,-136.03"/>
<polygon fill="#63b8ff" stroke="#63b8ff" points="775.62,-139.37 784.05,-132.95 773.45,-132.71 775.62,-139.37"/>
</a>
</g>
</g>
<!-- Node32&#45;&gt;Node20 -->
<g id="edge45_Node000032_Node000020" class="edge">
<title>Node32&#45;&gt;Node20</title>
<g id="a_edge45_Node000032_Node000020"><a xlink:title=" ">
<path fill="none" stroke="#63b8ff" d="M391.99,-244.3C383.45,-252.24 368.95,-263.84 355.98,-273.23"/>
<polygon fill="#63b8ff" stroke="#63b8ff" points="354.32,-270.11 348.15,-278.72 358.35,-275.84 354.32,-270.11"/>
</a>
</g>
</g>
</g>
</svg>
