<?xml version="1.0" encoding="UTF-8" standalone="no"?>
<!DOCTYPE svg PUBLIC "-//W3C//DTD SVG 1.1//EN"
 "http://www.w3.org/Graphics/SVG/1.1/DTD/svg11.dtd">
<!-- Generated by graphviz version 12.2.1 (20241206.2353)
 -->
<!-- Title: FIEAGameEngine/include/FIEAGameEngine/MemoryService.h Pages: 1 -->
<svg width="765pt" height="108pt"
 viewBox="0.00 0.00 765.12 108.00" xmlns="http://www.w3.org/2000/svg" xmlns:xlink="http://www.w3.org/1999/xlink">
<g id="graph0" class="graph" transform="scale(1 1) rotate(0) translate(4 104)">
<title>FIEAGameEngine/include/FIEAGameEngine/MemoryService.h</title>
<!-- Node1 -->
<g id="Node000001" class="node">
<title>Node1</title>
<g id="a_Node000001"><a xlink:title=" ">
<polygon fill="#999999" stroke="#666666" points="451.25,-100 274,-100 274,-68 451.25,-68 451.25,-100"/>
<text text-anchor="start" x="282" y="-86.5" font-family="Helvetica,sans-Serif" font-size="10.00">FIEAGameEngine/include</text>
<text text-anchor="middle" x="362.62" y="-74.5" font-family="Helvetica,sans-Serif" font-size="10.00">/FIEAGameEngine/MemoryService.h</text>
</a>
</g>
</g>
<!-- Node2 -->
<g id="Node000002" class="node">
<title>Node2</title>
<g id="a_Node000002"><a xlink:href="_service_mgr_8cpp.html" target="_top" xlink:title=" ">
<polygon fill="white" stroke="#666666" points="111.25,-32 0,-32 0,0 111.25,0 111.25,-32"/>
<text text-anchor="start" x="8" y="-18.5" font-family="Helvetica,sans-Serif" font-size="10.00">FIEAGameEngine/src</text>
<text text-anchor="middle" x="55.62" y="-6.5" font-family="Helvetica,sans-Serif" font-size="10.00">/ServiceMgr.cpp</text>
</a>
</g>
</g>
<!-- Node1&#45;&gt;Node2 -->
<g id="edge1_Node000001_Node000002" class="edge">
<title>Node1&#45;&gt;Node2</title>
<g id="a_edge1_Node000001_Node000002"><a xlink:title=" ">
<path fill="none" stroke="#63b8ff" d="M276.15,-65.19C229.95,-55.58 172.14,-43.37 120.62,-32 117.68,-31.35 114.67,-30.68 111.63,-30"/>
<polygon fill="#63b8ff" stroke="#63b8ff" points="275.35,-68.6 285.85,-67.21 276.77,-61.75 275.35,-68.6"/>
</a>
</g>
</g>
<!-- Node3 -->
<g id="Node000003" class="node">
<title>Node3</title>
<g id="a_Node000003"><a xlink:href="_memory_service_8cpp.html" target="_top" xlink:title=" ">
<polygon fill="white" stroke="#666666" points="273.75,-32 129.5,-32 129.5,0 273.75,0 273.75,-32"/>
<text text-anchor="start" x="137.5" y="-18.5" font-family="Helvetica,sans-Serif" font-size="10.00">FIEAGameEngine/src</text>
<text text-anchor="middle" x="201.62" y="-6.5" font-family="Helvetica,sans-Serif" font-size="10.00">/memory/MemoryService.cpp</text>
</a>
</g>
</g>
<!-- Node1&#45;&gt;Node3 -->
<g id="edge2_Node000001_Node000003" class="edge">
<title>Node1&#45;&gt;Node3</title>
<g id="a_edge2_Node000001_Node000003"><a xlink:title=" ">
<path fill="none" stroke="#63b8ff" d="M314.55,-63.29C290.51,-53.44 261.85,-41.69 239.41,-32.49"/>
<polygon fill="#63b8ff" stroke="#63b8ff" points="312.9,-66.4 323.48,-66.95 315.55,-59.92 312.9,-66.4"/>
</a>
</g>
</g>
<!-- Node4 -->
<g id="Node000004" class="node">
<title>Node4</title>
<g id="a_Node000004"><a xlink:href="_heap_allocator_test_8cpp.html" target="_top" xlink:title=" ">
<polygon fill="white" stroke="#666666" points="433.62,-26 291.62,-26 291.62,-6 433.62,-6 433.62,-26"/>
<text text-anchor="middle" x="362.62" y="-12.5" font-family="Helvetica,sans-Serif" font-size="10.00">Tests/HeapAllocatorTest.cpp</text>
</a>
</g>
</g>
<!-- Node1&#45;&gt;Node4 -->
<g id="edge3_Node000001_Node000004" class="edge">
<title>Node1&#45;&gt;Node4</title>
<g id="a_edge3_Node000001_Node000004"><a xlink:title=" ">
<path fill="none" stroke="#63b8ff" d="M362.62,-56.31C362.62,-45.67 362.62,-34.13 362.62,-26.32"/>
<polygon fill="#63b8ff" stroke="#63b8ff" points="359.13,-56.18 362.63,-66.18 366.13,-56.18 359.13,-56.18"/>
</a>
</g>
</g>
<!-- Node5 -->
<g id="Node000005" class="node">
<title>Node5</title>
<g id="a_Node000005"><a xlink:href="_memory_service_test_8cpp.html" target="_top" xlink:title=" ">
<polygon fill="white" stroke="#666666" points="600,-26 451.25,-26 451.25,-6 600,-6 600,-26"/>
<text text-anchor="middle" x="525.62" y="-12.5" font-family="Helvetica,sans-Serif" font-size="10.00">Tests/MemoryServiceTest.cpp</text>
</a>
</g>
</g>
<!-- Node1&#45;&gt;Node5 -->
<g id="edge4_Node000001_Node000005" class="edge">
<title>Node1&#45;&gt;Node5</title>
<g id="a_edge4_Node000001_Node000005"><a xlink:title=" ">
<path fill="none" stroke="#63b8ff" d="M411.15,-63.35C441.26,-51.16 478.59,-36.05 502.26,-26.46"/>
<polygon fill="#63b8ff" stroke="#63b8ff" points="410.2,-59.96 402.24,-66.96 412.83,-66.45 410.2,-59.96"/>
</a>
</g>
</g>
<!-- Node6 -->
<g id="Node000006" class="node">
<title>Node6</title>
<g id="a_Node000006"><a xlink:href="_serialization_tests_8cpp.html" target="_top" xlink:title=" ">
<polygon fill="white" stroke="#666666" points="757.12,-26 618.12,-26 618.12,-6 757.12,-6 757.12,-26"/>
<text text-anchor="middle" x="687.62" y="-12.5" font-family="Helvetica,sans-Serif" font-size="10.00">Tests/SerializationTests.cpp</text>
</a>
</g>
</g>
<!-- Node1&#45;&gt;Node6 -->
<g id="edge5_Node000001_Node000006" class="edge">
<title>Node1&#45;&gt;Node6</title>
<g id="a_edge5_Node000001_Node000006"><a xlink:title=" ">
<path fill="none" stroke="#63b8ff" d="M450.08,-65.24C511.54,-52.76 591.36,-36.55 641.04,-26.46"/>
<polygon fill="#63b8ff" stroke="#63b8ff" points="449.41,-61.8 440.31,-67.22 450.8,-68.66 449.41,-61.8"/>
</a>
</g>
</g>
</g>
</svg>
