<?xml version="1.0" encoding="UTF-8" standalone="no"?>
<!DOCTYPE svg PUBLIC "-//W3C//DTD SVG 1.1//EN"
 "http://www.w3.org/Graphics/SVG/1.1/DTD/svg11.dtd">
<!-- Generated by graphviz version 12.2.1 (20241206.2353)
 -->
<!-- Title: FIEAGameEngine/src/memory/MemoryService.cpp Pages: 1 -->
<svg width="882pt" height="264pt"
 viewBox="0.00 0.00 881.62 264.00" xmlns="http://www.w3.org/2000/svg" xmlns:xlink="http://www.w3.org/1999/xlink">
<g id="graph0" class="graph" transform="scale(1 1) rotate(0) translate(4 260)">
<title>FIEAGameEngine/src/memory/MemoryService.cpp</title>
<!-- Node1 -->
<g id="Node000001" class="node">
<title>Node1</title>
<g id="a_Node000001"><a xlink:title=" ">
<polygon fill="#999999" stroke="#666666" points="608.12,-256 463.88,-256 463.88,-224 608.12,-224 608.12,-256"/>
<text text-anchor="start" x="471.88" y="-242.5" font-family="Helvetica,sans-Serif" font-size="10.00">FIEAGameEngine/src</text>
<text text-anchor="middle" x="536" y="-230.5" font-family="Helvetica,sans-Serif" font-size="10.00">/memory/MemoryService.cpp</text>
</a>
</g>
</g>
<!-- Node2 -->
<g id="Node000002" class="node">
<title>Node2</title>
<g id="a_Node000002"><a xlink:href="_memory_service_8h.html" target="_top" xlink:title=" ">
<polygon fill="white" stroke="#666666" points="344.12,-188 169.88,-188 169.88,-168 344.12,-168 344.12,-188"/>
<text text-anchor="middle" x="257" y="-174.5" font-family="Helvetica,sans-Serif" font-size="10.00">FIEAGameEngine/MemoryService.h</text>
</a>
</g>
</g>
<!-- Node1&#45;&gt;Node2 -->
<g id="edge1_Node000001_Node000002" class="edge">
<title>Node1&#45;&gt;Node2</title>
<g id="a_edge1_Node000001_Node000002"><a xlink:title=" ">
<path fill="none" stroke="#63b8ff" d="M464.15,-223.55C416.87,-213.38 355.91,-200.27 312.39,-190.91"/>
<polygon fill="#63b8ff" stroke="#63b8ff" points="313.15,-187.5 302.64,-188.81 311.68,-194.34 313.15,-187.5"/>
</a>
</g>
</g>
<!-- Node13 -->
<g id="Node000013" class="node">
<title>Node13</title>
<g id="a_Node000013"><a xlink:title=" ">
<polygon fill="#e0e0e0" stroke="#999999" points="163.5,-76 120.5,-76 120.5,-56 163.5,-56 163.5,-76"/>
<text text-anchor="middle" x="142" y="-62.5" font-family="Helvetica,sans-Serif" font-size="10.00">vector</text>
</a>
</g>
</g>
<!-- Node1&#45;&gt;Node13 -->
<g id="edge26_Node000001_Node000013" class="edge">
<title>Node1&#45;&gt;Node13</title>
<g id="a_edge26_Node000001_Node000013"><a xlink:title=" ">
<path fill="none" stroke="#63b8ff" d="M463.59,-239.07C366.83,-237.54 202.65,-228.81 161,-188 134.25,-161.79 135.31,-114.38 138.58,-87.34"/>
<polygon fill="#63b8ff" stroke="#63b8ff" points="142.01,-88.09 139.98,-77.69 135.08,-87.08 142.01,-88.09"/>
</a>
</g>
</g>
<!-- Node14 -->
<g id="Node000014" class="node">
<title>Node14</title>
<g id="a_Node000014"><a xlink:title=" ">
<polygon fill="#e0e0e0" stroke="#999999" points="549.38,-76 466.62,-76 466.62,-56 549.38,-56 549.38,-76"/>
<text text-anchor="middle" x="508" y="-62.5" font-family="Helvetica,sans-Serif" font-size="10.00">unordered_map</text>
</a>
</g>
</g>
<!-- Node1&#45;&gt;Node14 -->
<g id="edge27_Node000001_Node000014" class="edge">
<title>Node1&#45;&gt;Node14</title>
<g id="a_edge27_Node000001_Node000014"><a xlink:title=" ">
<path fill="none" stroke="#63b8ff" d="M533.52,-223.74C528.46,-192.69 516.98,-122.18 511.31,-87.31"/>
<polygon fill="#63b8ff" stroke="#63b8ff" points="514.8,-87.01 509.74,-77.7 507.89,-88.14 514.8,-87.01"/>
</a>
</g>
</g>
<!-- Node15 -->
<g id="Node000015" class="node">
<title>Node15</title>
<g id="a_Node000015"><a xlink:href="_heap_8h.html" target="_top" xlink:title=" ">
<polygon fill="white" stroke="#666666" points="479.75,-132 432.25,-132 432.25,-112 479.75,-112 479.75,-132"/>
<text text-anchor="middle" x="456" y="-118.5" font-family="Helvetica,sans-Serif" font-size="10.00">Heap.h</text>
</a>
</g>
</g>
<!-- Node1&#45;&gt;Node15 -->
<g id="edge17_Node000001_Node000015" class="edge">
<title>Node1&#45;&gt;Node15</title>
<g id="a_edge17_Node000001_Node000015"><a xlink:title=" ">
<path fill="none" stroke="#63b8ff" d="M522.47,-223.88C513.89,-213.99 502.79,-200.61 494,-188 483.6,-173.09 473.29,-155.2 466.03,-141.96"/>
<polygon fill="#63b8ff" stroke="#63b8ff" points="469.27,-140.59 461.44,-133.44 463.11,-143.91 469.27,-140.59"/>
</a>
</g>
</g>
<!-- Node16 -->
<g id="Node000016" class="node">
<title>Node16</title>
<g id="a_Node000016"><a xlink:href="_tracker_8h.html" target="_top" xlink:title=" ">
<polygon fill="white" stroke="#666666" points="602.62,-188 545.38,-188 545.38,-168 602.62,-168 602.62,-188"/>
<text text-anchor="middle" x="574" y="-174.5" font-family="Helvetica,sans-Serif" font-size="10.00">Tracker.h</text>
</a>
</g>
</g>
<!-- Node1&#45;&gt;Node16 -->
<g id="edge19_Node000001_Node000016" class="edge">
<title>Node1&#45;&gt;Node16</title>
<g id="a_edge19_Node000001_Node000016"><a xlink:title=" ">
<path fill="none" stroke="#63b8ff" d="M545.79,-223.55C550.73,-215.74 556.78,-206.19 562.01,-197.94"/>
<polygon fill="#63b8ff" stroke="#63b8ff" points="564.84,-200.01 567.23,-189.69 558.92,-196.26 564.84,-200.01"/>
</a>
</g>
</g>
<!-- Node18 -->
<g id="Node000018" class="node">
<title>Node18</title>
<g id="a_Node000018"><a xlink:title=" ">
<polygon fill="#e0e0e0" stroke="#999999" points="873.62,-132 822.38,-132 822.38,-112 873.62,-112 873.62,-132"/>
<text text-anchor="middle" x="848" y="-118.5" font-family="Helvetica,sans-Serif" font-size="10.00">ostream</text>
</a>
</g>
</g>
<!-- Node1&#45;&gt;Node18 -->
<g id="edge28_Node000001_Node000018" class="edge">
<title>Node1&#45;&gt;Node18</title>
<g id="a_edge28_Node000001_Node000018"><a xlink:title=" ">
<path fill="none" stroke="#63b8ff" d="M558.77,-223.53C586.35,-205.02 631.43,-175.57 650,-168 715.48,-141.3 738.66,-148.46 810.99,-132.34"/>
<polygon fill="#63b8ff" stroke="#63b8ff" points="811.6,-135.79 820.56,-130.12 810.02,-128.97 811.6,-135.79"/>
</a>
</g>
</g>
<!-- Node21 -->
<g id="Node000021" class="node">
<title>Node21</title>
<g id="a_Node000021"><a xlink:title=" ">
<polygon fill="#e0e0e0" stroke="#999999" points="699,-188 659,-188 659,-168 699,-168 699,-188"/>
<text text-anchor="middle" x="679" y="-174.5" font-family="Helvetica,sans-Serif" font-size="10.00">stack</text>
</a>
</g>
</g>
<!-- Node1&#45;&gt;Node21 -->
<g id="edge29_Node000001_Node000021" class="edge">
<title>Node1&#45;&gt;Node21</title>
<g id="a_edge29_Node000001_Node000021"><a xlink:title=" ">
<path fill="none" stroke="#63b8ff" d="M572.83,-223.55C596.19,-213.75 626.07,-201.21 648.17,-191.93"/>
<polygon fill="#63b8ff" stroke="#63b8ff" points="649.38,-195.22 657.25,-188.13 646.67,-188.77 649.38,-195.22"/>
</a>
</g>
</g>
<!-- Node22 -->
<g id="Node000022" class="node">
<title>Node22</title>
<g id="a_Node000022"><a xlink:title=" ">
<polygon fill="#e0e0e0" stroke="#999999" points="751,-188 717,-188 717,-168 751,-168 751,-188"/>
<text text-anchor="middle" x="734" y="-174.5" font-family="Helvetica,sans-Serif" font-size="10.00">new</text>
</a>
</g>
</g>
<!-- Node1&#45;&gt;Node22 -->
<g id="edge30_Node000001_Node000022" class="edge">
<title>Node1&#45;&gt;Node22</title>
<g id="a_edge30_Node000001_Node000022"><a xlink:title=" ">
<path fill="none" stroke="#63b8ff" d="M590.42,-223.54C621.77,-214.48 662.14,-202.56 705.82,-188.6"/>
<polygon fill="#63b8ff" stroke="#63b8ff" points="706.8,-191.97 715.25,-185.57 704.66,-185.3 706.8,-191.97"/>
</a>
</g>
</g>
<!-- Node3 -->
<g id="Node000003" class="node">
<title>Node3</title>
<g id="a_Node000003"><a xlink:href="_types_8h.html" target="_top" xlink:title=" ">
<polygon fill="white" stroke="#666666" points="427.12,-76 294.88,-76 294.88,-56 427.12,-56 427.12,-76"/>
<text text-anchor="middle" x="361" y="-62.5" font-family="Helvetica,sans-Serif" font-size="10.00">FIEAGameEngine/Types.h</text>
</a>
</g>
</g>
<!-- Node2&#45;&gt;Node3 -->
<g id="edge2_Node000002_Node000003" class="edge">
<title>Node2&#45;&gt;Node3</title>
<g id="a_edge2_Node000002_Node000003"><a xlink:title=" ">
<path fill="none" stroke="#63b8ff" d="M252.27,-167.7C246.15,-154.2 237.54,-128.96 249,-112 259.2,-96.9 275.4,-86.87 292.33,-80.2"/>
<polygon fill="#63b8ff" stroke="#63b8ff" points="293.23,-83.6 301.5,-76.98 290.91,-77 293.23,-83.6"/>
</a>
</g>
</g>
<!-- Node9 -->
<g id="Node000009" class="node">
<title>Node9</title>
<g id="a_Node000009"><a xlink:title=" ">
<polygon fill="#e0e0e0" stroke="#999999" points="218,-20 178,-20 178,0 218,0 218,-20"/>
<text text-anchor="middle" x="198" y="-6.5" font-family="Helvetica,sans-Serif" font-size="10.00">string</text>
</a>
</g>
</g>
<!-- Node2&#45;&gt;Node9 -->
<g id="edge15_Node000002_Node000009" class="edge">
<title>Node2&#45;&gt;Node9</title>
<g id="a_edge15_Node000002_Node000009"><a xlink:title=" ">
<path fill="none" stroke="#63b8ff" d="M253.13,-167.75C249.38,-158.69 243.6,-144.47 239,-132 226.05,-96.92 212.37,-55.56 204.54,-31.41"/>
<polygon fill="#63b8ff" stroke="#63b8ff" points="207.88,-30.36 201.48,-21.91 201.22,-32.51 207.88,-30.36"/>
</a>
</g>
</g>
<!-- Node11 -->
<g id="Node000011" class="node">
<title>Node11</title>
<g id="a_Node000011"><a xlink:title=" ">
<polygon fill="#e0e0e0" stroke="#999999" points="160,-20 0,-20 0,0 160,0 160,-20"/>
<text text-anchor="middle" x="80" y="-6.5" font-family="Helvetica,sans-Serif" font-size="10.00">../src/memory/SystemAllocator.h</text>
</a>
</g>
</g>
<!-- Node2&#45;&gt;Node11 -->
<g id="edge16_Node000002_Node000011" class="edge">
<title>Node2&#45;&gt;Node11</title>
<g id="a_edge16_Node000002_Node000011"><a xlink:title=" ">
<path fill="none" stroke="#63b8ff" d="M237.07,-167.52C206.46,-152.1 147.56,-118.95 111,-76 99.72,-62.75 91.54,-44.69 86.42,-30.96"/>
<polygon fill="#63b8ff" stroke="#63b8ff" points="89.79,-29.99 83.21,-21.68 83.17,-32.28 89.79,-29.99"/>
</a>
</g>
</g>
<!-- Node12 -->
<g id="Node000012" class="node">
<title>Node12</title>
<g id="a_Node000012"><a xlink:href="_service_mgr_8h.html" target="_top" xlink:title=" ">
<polygon fill="white" stroke="#666666" points="413.75,-132 258.25,-132 258.25,-112 413.75,-112 413.75,-132"/>
<text text-anchor="middle" x="336" y="-118.5" font-family="Helvetica,sans-Serif" font-size="10.00">FIEAGameEngine/ServiceMgr.h</text>
</a>
</g>
</g>
<!-- Node2&#45;&gt;Node12 -->
<g id="edge11_Node000002_Node000012" class="edge">
<title>Node2&#45;&gt;Node12</title>
<g id="a_edge11_Node000002_Node000012"><a xlink:title=" ">
<path fill="none" stroke="#63b8ff" d="M270.76,-167.59C282.36,-159.67 299.2,-148.16 312.86,-138.82"/>
<polygon fill="#63b8ff" stroke="#63b8ff" points="314.6,-141.87 320.88,-133.33 310.65,-136.09 314.6,-141.87"/>
</a>
</g>
</g>
<!-- Node4 -->
<g id="Node000004" class="node">
<title>Node4</title>
<g id="a_Node000004"><a xlink:title=" ">
<polygon fill="#e0e0e0" stroke="#999999" points="298.25,-20 235.75,-20 235.75,0 298.25,0 298.25,-20"/>
<text text-anchor="middle" x="267" y="-6.5" font-family="Helvetica,sans-Serif" font-size="10.00">windows.h</text>
</a>
</g>
</g>
<!-- Node3&#45;&gt;Node4 -->
<g id="edge3_Node000003_Node000004" class="edge">
<title>Node3&#45;&gt;Node4</title>
<g id="a_edge3_Node000003_Node000004"><a xlink:title=" ">
<path fill="none" stroke="#63b8ff" d="M344.63,-55.59C330.43,-47.44 309.62,-35.48 293.12,-26"/>
<polygon fill="#63b8ff" stroke="#63b8ff" points="295.23,-23.18 284.81,-21.23 291.74,-29.25 295.23,-23.18"/>
</a>
</g>
</g>
<!-- Node5 -->
<g id="Node000005" class="node">
<title>Node5</title>
<g id="a_Node000005"><a xlink:title=" ">
<polygon fill="#e0e0e0" stroke="#999999" points="364.12,-20 315.88,-20 315.88,0 364.12,0 364.12,-20"/>
<text text-anchor="middle" x="340" y="-6.5" font-family="Helvetica,sans-Serif" font-size="10.00">cassert</text>
</a>
</g>
</g>
<!-- Node3&#45;&gt;Node5 -->
<g id="edge4_Node000003_Node000005" class="edge">
<title>Node3&#45;&gt;Node5</title>
<g id="a_edge4_Node000003_Node000005"><a xlink:title=" ">
<path fill="none" stroke="#63b8ff" d="M357.34,-55.59C354.69,-48.78 351.01,-39.32 347.72,-30.86"/>
<polygon fill="#63b8ff" stroke="#63b8ff" points="351.05,-29.76 344.16,-21.71 344.53,-32.3 351.05,-29.76"/>
</a>
</g>
</g>
<!-- Node6 -->
<g id="Node000006" class="node">
<title>Node6</title>
<g id="a_Node000006"><a xlink:title=" ">
<polygon fill="#e0e0e0" stroke="#999999" points="430.12,-20 381.88,-20 381.88,0 430.12,0 430.12,-20"/>
<text text-anchor="middle" x="406" y="-6.5" font-family="Helvetica,sans-Serif" font-size="10.00">cstddef</text>
</a>
</g>
</g>
<!-- Node3&#45;&gt;Node6 -->
<g id="edge5_Node000003_Node000006" class="edge">
<title>Node3&#45;&gt;Node6</title>
<g id="a_edge5_Node000003_Node000006"><a xlink:title=" ">
<path fill="none" stroke="#63b8ff" d="M368.84,-55.59C374.97,-48.24 383.67,-37.8 391.11,-28.87"/>
<polygon fill="#63b8ff" stroke="#63b8ff" points="393.57,-31.38 397.28,-21.46 388.19,-26.9 393.57,-31.38"/>
</a>
</g>
</g>
<!-- Node7 -->
<g id="Node000007" class="node">
<title>Node7</title>
<g id="a_Node000007"><a xlink:title=" ">
<polygon fill="#e0e0e0" stroke="#999999" points="493.62,-20 448.38,-20 448.38,0 493.62,0 493.62,-20"/>
<text text-anchor="middle" x="471" y="-6.5" font-family="Helvetica,sans-Serif" font-size="10.00">cstdint</text>
</a>
</g>
</g>
<!-- Node3&#45;&gt;Node7 -->
<g id="edge6_Node000003_Node000007" class="edge">
<title>Node3&#45;&gt;Node7</title>
<g id="a_edge6_Node000003_Node000007"><a xlink:title=" ">
<path fill="none" stroke="#63b8ff" d="M380.16,-55.59C397.09,-47.28 422.05,-35.03 441.52,-25.47"/>
<polygon fill="#63b8ff" stroke="#63b8ff" points="442.9,-28.7 450.33,-21.15 439.81,-22.41 442.9,-28.7"/>
</a>
</g>
</g>
<!-- Node8 -->
<g id="Node000008" class="node">
<title>Node8</title>
<g id="a_Node000008"><a xlink:title=" ">
<polygon fill="#e0e0e0" stroke="#999999" points="564.38,-20 511.62,-20 511.62,0 564.38,0 564.38,-20"/>
<text text-anchor="middle" x="538" y="-6.5" font-family="Helvetica,sans-Serif" font-size="10.00">cstdbool</text>
</a>
</g>
</g>
<!-- Node3&#45;&gt;Node8 -->
<g id="edge7_Node000003_Node000008" class="edge">
<title>Node3&#45;&gt;Node8</title>
<g id="a_edge7_Node000003_Node000008"><a xlink:title=" ">
<path fill="none" stroke="#63b8ff" d="M391.83,-55.59C422.04,-46.38 468.14,-32.31 500.47,-22.45"/>
<polygon fill="#63b8ff" stroke="#63b8ff" points="501.29,-25.86 509.83,-19.59 499.25,-19.16 501.29,-25.86"/>
</a>
</g>
</g>
<!-- Node3&#45;&gt;Node9 -->
<g id="edge8_Node000003_Node000009" class="edge">
<title>Node3&#45;&gt;Node9</title>
<g id="a_edge8_Node000003_Node000009"><a xlink:title=" ">
<path fill="none" stroke="#63b8ff" d="M332.61,-55.59C303.65,-46 258.86,-31.16 229,-21.27"/>
<polygon fill="#63b8ff" stroke="#63b8ff" points="230.38,-18.04 219.78,-18.22 228.17,-24.68 230.38,-18.04"/>
</a>
</g>
</g>
<!-- Node10 -->
<g id="Node000010" class="node">
<title>Node10</title>
<g id="a_Node000010"><a xlink:title=" ">
<polygon fill="#e0e0e0" stroke="#999999" points="637.12,-20 582.88,-20 582.88,0 637.12,0 637.12,-20"/>
<text text-anchor="middle" x="610" y="-6.5" font-family="Helvetica,sans-Serif" font-size="10.00">crtdefs.h</text>
</a>
</g>
</g>
<!-- Node3&#45;&gt;Node10 -->
<g id="edge9_Node000003_Node000010" class="edge">
<title>Node3&#45;&gt;Node10</title>
<g id="a_edge9_Node000003_Node000010"><a xlink:title=" ">
<path fill="none" stroke="#63b8ff" d="M407.4,-55.56C448.06,-47.2 509.02,-34.44 571.66,-20.25"/>
<polygon fill="#63b8ff" stroke="#63b8ff" points="572.09,-23.74 581.07,-18.11 570.54,-16.92 572.09,-23.74"/>
</a>
</g>
</g>
<!-- Node3&#45;&gt;Node11 -->
<g id="edge10_Node000003_Node000011" class="edge">
<title>Node3&#45;&gt;Node11</title>
<g id="a_edge10_Node000003_Node000011"><a xlink:title=" ">
<path fill="none" stroke="#63b8ff" d="M311.73,-55.53C264.03,-46.36 191.6,-32.45 140.44,-22.61"/>
<polygon fill="#63b8ff" stroke="#63b8ff" points="141.18,-19.19 130.7,-20.74 139.86,-26.07 141.18,-19.19"/>
</a>
</g>
</g>
<!-- Node12&#45;&gt;Node3 -->
<g id="edge12_Node000012_Node000003" class="edge">
<title>Node12&#45;&gt;Node3</title>
<g id="a_edge12_Node000012_Node000003"><a xlink:title=" ">
<path fill="none" stroke="#63b8ff" d="M340.35,-111.59C343.55,-104.7 347.99,-95.1 351.94,-86.57"/>
<polygon fill="#63b8ff" stroke="#63b8ff" points="355.03,-88.22 356.06,-77.67 348.68,-85.28 355.03,-88.22"/>
</a>
</g>
</g>
<!-- Node12&#45;&gt;Node13 -->
<g id="edge13_Node000012_Node000013" class="edge">
<title>Node12&#45;&gt;Node13</title>
<g id="a_edge13_Node000012_Node000013"><a xlink:title=" ">
<path fill="none" stroke="#63b8ff" d="M302.21,-111.59C266.36,-101.61 210.1,-85.95 174.68,-76.1"/>
<polygon fill="#63b8ff" stroke="#63b8ff" points="175.99,-72.83 165.42,-73.52 174.11,-79.57 175.99,-72.83"/>
</a>
</g>
</g>
<!-- Node12&#45;&gt;Node14 -->
<g id="edge14_Node000012_Node000014" class="edge">
<title>Node12&#45;&gt;Node14</title>
<g id="a_edge14_Node000012_Node000014"><a xlink:title=" ">
<path fill="none" stroke="#63b8ff" d="M365.96,-111.59C393.91,-102.82 435.83,-89.66 466.9,-79.9"/>
<polygon fill="#63b8ff" stroke="#63b8ff" points="467.87,-83.27 476.36,-76.93 465.77,-76.59 467.87,-83.27"/>
</a>
</g>
</g>
<!-- Node15&#45;&gt;Node3 -->
<g id="edge18_Node000015_Node000003" class="edge">
<title>Node15&#45;&gt;Node3</title>
<g id="a_edge18_Node000015_Node000003"><a xlink:title=" ">
<path fill="none" stroke="#63b8ff" d="M439.45,-111.59C425.1,-103.44 404.07,-91.48 387.4,-82"/>
<polygon fill="#63b8ff" stroke="#63b8ff" points="389.42,-79.13 378.99,-77.23 385.96,-85.21 389.42,-79.13"/>
</a>
</g>
</g>
<!-- Node16&#45;&gt;Node3 -->
<g id="edge20_Node000016_Node000003" class="edge">
<title>Node16&#45;&gt;Node3</title>
<g id="a_edge20_Node000016_Node000003"><a xlink:title=" ">
<path fill="none" stroke="#63b8ff" d="M564,-167.65C548.82,-153.86 518.58,-127.99 489,-112 463.57,-98.26 433.11,-87.35 408.29,-79.72"/>
<polygon fill="#63b8ff" stroke="#63b8ff" points="409.35,-76.38 398.76,-76.88 407.35,-83.09 409.35,-76.38"/>
</a>
</g>
</g>
<!-- Node16&#45;&gt;Node14 -->
<g id="edge21_Node000016_Node000014" class="edge">
<title>Node16&#45;&gt;Node14</title>
<g id="a_edge21_Node000016_Node000014"><a xlink:title=" ">
<path fill="none" stroke="#63b8ff" d="M573.83,-167.94C573.21,-154.75 570.59,-129.88 560,-112 553.27,-100.64 542.64,-90.69 532.75,-83.06"/>
<polygon fill="#63b8ff" stroke="#63b8ff" points="535.02,-80.38 524.86,-77.36 530.92,-86.05 535.02,-80.38"/>
</a>
</g>
</g>
<!-- Node17 -->
<g id="Node000017" class="node">
<title>Node17</title>
<g id="a_Node000017"><a xlink:title=" ">
<polygon fill="#e0e0e0" stroke="#999999" points="689.75,-132 612.25,-132 612.25,-112 689.75,-112 689.75,-132"/>
<text text-anchor="middle" x="651" y="-118.5" font-family="Helvetica,sans-Serif" font-size="10.00">unordered_set</text>
</a>
</g>
</g>
<!-- Node16&#45;&gt;Node17 -->
<g id="edge22_Node000016_Node000017" class="edge">
<title>Node16&#45;&gt;Node17</title>
<g id="a_edge22_Node000016_Node000017"><a xlink:title=" ">
<path fill="none" stroke="#63b8ff" d="M587.41,-167.59C598.61,-159.74 614.81,-148.38 628.06,-139.09"/>
<polygon fill="#63b8ff" stroke="#63b8ff" points="630.07,-141.96 636.24,-133.35 626.05,-136.22 630.07,-141.96"/>
</a>
</g>
</g>
<!-- Node16&#45;&gt;Node18 -->
<g id="edge23_Node000016_Node000018" class="edge">
<title>Node16&#45;&gt;Node18</title>
<g id="a_edge23_Node000016_Node000018"><a xlink:title=" ">
<path fill="none" stroke="#63b8ff" d="M603.12,-170.8C607.76,-169.85 612.51,-168.88 617,-168 700.43,-151.61 724.59,-151.06 810.92,-132.33"/>
<polygon fill="#63b8ff" stroke="#63b8ff" points="811.56,-135.77 820.58,-130.21 810.06,-128.93 811.56,-135.77"/>
</a>
</g>
</g>
<!-- Node19 -->
<g id="Node000019" class="node">
<title>Node19</title>
<g id="a_Node000019"><a xlink:href="_system_allocator_8h.html" target="_top" xlink:title=" ">
<polygon fill="white" stroke="#666666" points="804.12,-132 707.88,-132 707.88,-112 804.12,-112 804.12,-132"/>
<text text-anchor="middle" x="756" y="-118.5" font-family="Helvetica,sans-Serif" font-size="10.00">SystemAllocator.h</text>
</a>
</g>
</g>
<!-- Node16&#45;&gt;Node19 -->
<g id="edge24_Node000016_Node000019" class="edge">
<title>Node16&#45;&gt;Node19</title>
<g id="a_edge24_Node000016_Node000019"><a xlink:title=" ">
<path fill="none" stroke="#63b8ff" d="M602.84,-168.44C632.56,-159.63 679.21,-145.78 713.23,-135.69"/>
<polygon fill="#63b8ff" stroke="#63b8ff" points="714.2,-139.05 722.79,-132.85 712.2,-132.34 714.2,-139.05"/>
</a>
</g>
</g>
<!-- Node20 -->
<g id="Node000020" class="node">
<title>Node20</title>
<g id="a_Node000020"><a xlink:title=" ">
<polygon fill="#e0e0e0" stroke="#999999" points="778.25,-76 733.75,-76 733.75,-56 778.25,-56 778.25,-76"/>
<text text-anchor="middle" x="756" y="-62.5" font-family="Helvetica,sans-Serif" font-size="10.00">cstdlib</text>
</a>
</g>
</g>
<!-- Node19&#45;&gt;Node20 -->
<g id="edge25_Node000019_Node000020" class="edge">
<title>Node19&#45;&gt;Node20</title>
<g id="a_edge25_Node000019_Node000020"><a xlink:title=" ">
<path fill="none" stroke="#63b8ff" d="M756,-111.59C756,-105.01 756,-95.96 756,-87.73"/>
<polygon fill="#63b8ff" stroke="#63b8ff" points="759.5,-87.81 756,-77.81 752.5,-87.81 759.5,-87.81"/>
</a>
</g>
</g>
</g>
</svg>
