<?xml version="1.0" encoding="UTF-8" standalone="no"?>
<!DOCTYPE svg PUBLIC "-//W3C//DTD SVG 1.1//EN"
 "http://www.w3.org/Graphics/SVG/1.1/DTD/svg11.dtd">
<!-- Generated by graphviz version 12.2.1 (20241206.2353)
 -->
<!-- Title: FIEAGameEngine/include/FIEAGameEngine/MemoryService.h Pages: 1 -->
<svg width="645pt" height="208pt"
 viewBox="0.00 0.00 645.12 208.00" xmlns="http://www.w3.org/2000/svg" xmlns:xlink="http://www.w3.org/1999/xlink">
<g id="graph0" class="graph" transform="scale(1 1) rotate(0) translate(4 204)">
<title>FIEAGameEngine/include/FIEAGameEngine/MemoryService.h</title>
<!-- Node1 -->
<g id="Node000001" class="node">
<title>Node1</title>
<g id="a_Node000001"><a xlink:title=" ">
<polygon fill="#999999" stroke="#666666" points="279.62,-200 102.38,-200 102.38,-168 279.62,-168 279.62,-200"/>
<text text-anchor="start" x="110.38" y="-186.5" font-family="Helvetica,sans-Serif" font-size="10.00">FIEAGameEngine/include</text>
<text text-anchor="middle" x="191" y="-174.5" font-family="Helvetica,sans-Serif" font-size="10.00">/FIEAGameEngine/MemoryService.h</text>
</a>
</g>
</g>
<!-- Node2 -->
<g id="Node000002" class="node">
<title>Node2</title>
<g id="a_Node000002"><a xlink:href="_types_8h.html" target="_top" xlink:title=" ">
<polygon fill="white" stroke="#666666" points="369.12,-76 236.88,-76 236.88,-56 369.12,-56 369.12,-76"/>
<text text-anchor="middle" x="303" y="-62.5" font-family="Helvetica,sans-Serif" font-size="10.00">FIEAGameEngine/Types.h</text>
</a>
</g>
</g>
<!-- Node1&#45;&gt;Node2 -->
<g id="edge1_Node000001_Node000002" class="edge">
<title>Node1&#45;&gt;Node2</title>
<g id="a_edge1_Node000001_Node000002"><a xlink:title=" ">
<path fill="none" stroke="#63b8ff" d="M205.64,-167.84C226.37,-146.37 264.18,-107.2 286.08,-84.52"/>
<polygon fill="#63b8ff" stroke="#63b8ff" points="288.41,-87.15 292.84,-77.53 283.37,-82.29 288.41,-87.15"/>
</a>
</g>
</g>
<!-- Node8 -->
<g id="Node000008" class="node">
<title>Node8</title>
<g id="a_Node000008"><a xlink:title=" ">
<polygon fill="#e0e0e0" stroke="#999999" points="40,-20 0,-20 0,0 40,0 40,-20"/>
<text text-anchor="middle" x="20" y="-6.5" font-family="Helvetica,sans-Serif" font-size="10.00">string</text>
</a>
</g>
</g>
<!-- Node1&#45;&gt;Node8 -->
<g id="edge14_Node000001_Node000008" class="edge">
<title>Node1&#45;&gt;Node8</title>
<g id="a_edge14_Node000001_Node000008"><a xlink:title=" ">
<path fill="none" stroke="#63b8ff" d="M175.82,-167.74C144.01,-135.74 70.52,-61.81 37.1,-28.2"/>
<polygon fill="#63b8ff" stroke="#63b8ff" points="39.76,-25.91 30.22,-21.28 34.79,-30.84 39.76,-25.91"/>
</a>
</g>
</g>
<!-- Node10 -->
<g id="Node000010" class="node">
<title>Node10</title>
<g id="a_Node000010"><a xlink:title=" ">
<polygon fill="#e0e0e0" stroke="#999999" points="218,-20 58,-20 58,0 218,0 218,-20"/>
<text text-anchor="middle" x="138" y="-6.5" font-family="Helvetica,sans-Serif" font-size="10.00">../src/memory/SystemAllocator.h</text>
</a>
</g>
</g>
<!-- Node1&#45;&gt;Node10 -->
<g id="edge15_Node000001_Node000010" class="edge">
<title>Node1&#45;&gt;Node10</title>
<g id="a_edge15_Node000001_Node000010"><a xlink:title=" ">
<path fill="none" stroke="#63b8ff" d="M186.3,-167.74C176.69,-136.55 154.81,-65.56 144.12,-30.85"/>
<polygon fill="#63b8ff" stroke="#63b8ff" points="147.57,-30.18 141.28,-21.66 140.88,-32.24 147.57,-30.18"/>
</a>
</g>
</g>
<!-- Node11 -->
<g id="Node000011" class="node">
<title>Node11</title>
<g id="a_Node000011"><a xlink:href="_service_mgr_8h.html" target="_top" xlink:title=" ">
<polygon fill="white" stroke="#666666" points="471.75,-132 316.25,-132 316.25,-112 471.75,-112 471.75,-132"/>
<text text-anchor="middle" x="394" y="-118.5" font-family="Helvetica,sans-Serif" font-size="10.00">FIEAGameEngine/ServiceMgr.h</text>
</a>
</g>
</g>
<!-- Node1&#45;&gt;Node11 -->
<g id="edge10_Node000001_Node000011" class="edge">
<title>Node1&#45;&gt;Node11</title>
<g id="a_edge10_Node000001_Node000011"><a xlink:title=" ">
<path fill="none" stroke="#63b8ff" d="M243.28,-167.55C276.65,-157.68 319.4,-145.05 350.84,-135.76"/>
<polygon fill="#63b8ff" stroke="#63b8ff" points="351.82,-139.12 360.42,-132.93 349.84,-132.4 351.82,-139.12"/>
</a>
</g>
</g>
<!-- Node3 -->
<g id="Node000003" class="node">
<title>Node3</title>
<g id="a_Node000003"><a xlink:title=" ">
<polygon fill="#e0e0e0" stroke="#999999" points="298.25,-20 235.75,-20 235.75,0 298.25,0 298.25,-20"/>
<text text-anchor="middle" x="267" y="-6.5" font-family="Helvetica,sans-Serif" font-size="10.00">windows.h</text>
</a>
</g>
</g>
<!-- Node2&#45;&gt;Node3 -->
<g id="edge2_Node000002_Node000003" class="edge">
<title>Node2&#45;&gt;Node3</title>
<g id="a_edge2_Node000002_Node000003"><a xlink:title=" ">
<path fill="none" stroke="#63b8ff" d="M296.73,-55.59C291.98,-48.47 285.3,-38.45 279.48,-29.72"/>
<polygon fill="#63b8ff" stroke="#63b8ff" points="282.5,-27.94 274.04,-21.56 276.67,-31.82 282.5,-27.94"/>
</a>
</g>
</g>
<!-- Node4 -->
<g id="Node000004" class="node">
<title>Node4</title>
<g id="a_Node000004"><a xlink:title=" ">
<polygon fill="#e0e0e0" stroke="#999999" points="364.12,-20 315.88,-20 315.88,0 364.12,0 364.12,-20"/>
<text text-anchor="middle" x="340" y="-6.5" font-family="Helvetica,sans-Serif" font-size="10.00">cassert</text>
</a>
</g>
</g>
<!-- Node2&#45;&gt;Node4 -->
<g id="edge3_Node000002_Node000004" class="edge">
<title>Node2&#45;&gt;Node4</title>
<g id="a_edge3_Node000002_Node000004"><a xlink:title=" ">
<path fill="none" stroke="#63b8ff" d="M309.44,-55.59C314.33,-48.47 321.19,-38.45 327.18,-29.72"/>
<polygon fill="#63b8ff" stroke="#63b8ff" points="330.01,-31.77 332.77,-21.55 324.23,-27.82 330.01,-31.77"/>
</a>
</g>
</g>
<!-- Node5 -->
<g id="Node000005" class="node">
<title>Node5</title>
<g id="a_Node000005"><a xlink:title=" ">
<polygon fill="#e0e0e0" stroke="#999999" points="430.12,-20 381.88,-20 381.88,0 430.12,0 430.12,-20"/>
<text text-anchor="middle" x="406" y="-6.5" font-family="Helvetica,sans-Serif" font-size="10.00">cstddef</text>
</a>
</g>
</g>
<!-- Node2&#45;&gt;Node5 -->
<g id="edge4_Node000002_Node000005" class="edge">
<title>Node2&#45;&gt;Node5</title>
<g id="a_edge4_Node000002_Node000005"><a xlink:title=" ">
<path fill="none" stroke="#63b8ff" d="M320.94,-55.59C336.65,-47.36 359.73,-35.26 377.89,-25.74"/>
<polygon fill="#63b8ff" stroke="#63b8ff" points="379.35,-28.93 386.58,-21.18 376.1,-22.73 379.35,-28.93"/>
</a>
</g>
</g>
<!-- Node6 -->
<g id="Node000006" class="node">
<title>Node6</title>
<g id="a_Node000006"><a xlink:title=" ">
<polygon fill="#e0e0e0" stroke="#999999" points="493.62,-20 448.38,-20 448.38,0 493.62,0 493.62,-20"/>
<text text-anchor="middle" x="471" y="-6.5" font-family="Helvetica,sans-Serif" font-size="10.00">cstdint</text>
</a>
</g>
</g>
<!-- Node2&#45;&gt;Node6 -->
<g id="edge5_Node000002_Node000006" class="edge">
<title>Node2&#45;&gt;Node6</title>
<g id="a_edge5_Node000002_Node000006"><a xlink:title=" ">
<path fill="none" stroke="#63b8ff" d="M332.26,-55.59C361.57,-46.17 406.62,-31.7 437.37,-21.81"/>
<polygon fill="#63b8ff" stroke="#63b8ff" points="438.11,-25.25 446.56,-18.85 435.97,-18.58 438.11,-25.25"/>
</a>
</g>
</g>
<!-- Node7 -->
<g id="Node000007" class="node">
<title>Node7</title>
<g id="a_Node000007"><a xlink:title=" ">
<polygon fill="#e0e0e0" stroke="#999999" points="564.38,-20 511.62,-20 511.62,0 564.38,0 564.38,-20"/>
<text text-anchor="middle" x="538" y="-6.5" font-family="Helvetica,sans-Serif" font-size="10.00">cstdbool</text>
</a>
</g>
</g>
<!-- Node2&#45;&gt;Node7 -->
<g id="edge6_Node000002_Node000007" class="edge">
<title>Node2&#45;&gt;Node7</title>
<g id="a_edge6_Node000002_Node000007"><a xlink:title=" ">
<path fill="none" stroke="#63b8ff" d="M346.79,-55.55C384.99,-47.21 442.18,-34.52 500.39,-20.58"/>
<polygon fill="#63b8ff" stroke="#63b8ff" points="500.89,-24.06 509.8,-18.32 499.25,-17.25 500.89,-24.06"/>
</a>
</g>
</g>
<!-- Node2&#45;&gt;Node8 -->
<g id="edge7_Node000002_Node000008" class="edge">
<title>Node2&#45;&gt;Node8</title>
<g id="a_edge7_Node000002_Node000008"><a xlink:title=" ">
<path fill="none" stroke="#63b8ff" d="M236.48,-55.55C187.57,-48.08 119.35,-36.54 51.14,-20.27"/>
<polygon fill="#63b8ff" stroke="#63b8ff" points="52.21,-16.93 41.66,-17.98 50.56,-23.73 52.21,-16.93"/>
</a>
</g>
</g>
<!-- Node9 -->
<g id="Node000009" class="node">
<title>Node9</title>
<g id="a_Node000009"><a xlink:title=" ">
<polygon fill="#e0e0e0" stroke="#999999" points="637.12,-20 582.88,-20 582.88,0 637.12,0 637.12,-20"/>
<text text-anchor="middle" x="610" y="-6.5" font-family="Helvetica,sans-Serif" font-size="10.00">crtdefs.h</text>
</a>
</g>
</g>
<!-- Node2&#45;&gt;Node9 -->
<g id="edge8_Node000002_Node000009" class="edge">
<title>Node2&#45;&gt;Node9</title>
<g id="a_edge8_Node000002_Node000009"><a xlink:title=" ">
<path fill="none" stroke="#63b8ff" d="M368.17,-55.51C420.44,-47.59 495.92,-35.45 571.43,-20.18"/>
<polygon fill="#63b8ff" stroke="#63b8ff" points="571.99,-23.64 581.09,-18.21 570.59,-16.78 571.99,-23.64"/>
</a>
</g>
</g>
<!-- Node2&#45;&gt;Node10 -->
<g id="edge9_Node000002_Node000010" class="edge">
<title>Node2&#45;&gt;Node10</title>
<g id="a_edge9_Node000002_Node000010"><a xlink:title=" ">
<path fill="none" stroke="#63b8ff" d="M274.26,-55.59C247.57,-46.86 207.58,-33.77 177.82,-24.03"/>
<polygon fill="#63b8ff" stroke="#63b8ff" points="179,-20.73 168.4,-20.95 176.82,-27.39 179,-20.73"/>
</a>
</g>
</g>
<!-- Node11&#45;&gt;Node2 -->
<g id="edge11_Node000011_Node000002" class="edge">
<title>Node11&#45;&gt;Node2</title>
<g id="a_edge11_Node000011_Node000002"><a xlink:title=" ">
<path fill="none" stroke="#63b8ff" d="M378.15,-111.59C364.53,-103.51 344.64,-91.71 328.74,-82.27"/>
<polygon fill="#63b8ff" stroke="#63b8ff" points="330.66,-79.35 320.28,-77.25 327.09,-85.37 330.66,-79.35"/>
</a>
</g>
</g>
<!-- Node12 -->
<g id="Node000012" class="node">
<title>Node12</title>
<g id="a_Node000012"><a xlink:title=" ">
<polygon fill="#e0e0e0" stroke="#999999" points="531.5,-76 488.5,-76 488.5,-56 531.5,-56 531.5,-76"/>
<text text-anchor="middle" x="510" y="-62.5" font-family="Helvetica,sans-Serif" font-size="10.00">vector</text>
</a>
</g>
</g>
<!-- Node11&#45;&gt;Node12 -->
<g id="edge12_Node000011_Node000012" class="edge">
<title>Node11&#45;&gt;Node12</title>
<g id="a_edge12_Node000011_Node000012"><a xlink:title=" ">
<path fill="none" stroke="#63b8ff" d="M414.21,-111.59C432.23,-103.21 458.87,-90.8 479.48,-81.21"/>
<polygon fill="#63b8ff" stroke="#63b8ff" points="480.68,-84.51 488.26,-77.12 477.72,-78.17 480.68,-84.51"/>
</a>
</g>
</g>
<!-- Node13 -->
<g id="Node000013" class="node">
<title>Node13</title>
<g id="a_Node000013"><a xlink:title=" ">
<polygon fill="#e0e0e0" stroke="#999999" points="470.38,-76 387.62,-76 387.62,-56 470.38,-56 470.38,-76"/>
<text text-anchor="middle" x="429" y="-62.5" font-family="Helvetica,sans-Serif" font-size="10.00">unordered_map</text>
</a>
</g>
</g>
<!-- Node11&#45;&gt;Node13 -->
<g id="edge13_Node000011_Node000013" class="edge">
<title>Node11&#45;&gt;Node13</title>
<g id="a_edge13_Node000011_Node000013"><a xlink:title=" ">
<path fill="none" stroke="#63b8ff" d="M400.1,-111.59C404.71,-104.47 411.21,-94.45 416.87,-85.72"/>
<polygon fill="#63b8ff" stroke="#63b8ff" points="419.65,-87.86 422.15,-77.57 413.77,-84.06 419.65,-87.86"/>
</a>
</g>
</g>
</g>
</svg>
