<?xml version="1.0" encoding="UTF-8" standalone="no"?>
<!DOCTYPE svg PUBLIC "-//W3C//DTD SVG 1.1//EN"
 "http://www.w3.org/Graphics/SVG/1.1/DTD/svg11.dtd">
<!-- Generated by graphviz version 12.2.1 (20241206.2353)
 -->
<!-- Title: FIEAGameEngine/src/content/Parser.cpp Pages: 1 -->
<svg width="917pt" height="376pt"
 viewBox="0.00 0.00 916.75 376.00" xmlns="http://www.w3.org/2000/svg" xmlns:xlink="http://www.w3.org/1999/xlink">
<g id="graph0" class="graph" transform="scale(1 1) rotate(0) translate(4 372)">
<title>FIEAGameEngine/src/content/Parser.cpp</title>
<!-- Node1 -->
<g id="Node000001" class="node">
<title>Node1</title>
<g id="a_Node000001"><a xlink:title=" ">
<polygon fill="#999999" stroke="#666666" points="817.88,-368 706.62,-368 706.62,-336 817.88,-336 817.88,-368"/>
<text text-anchor="start" x="714.62" y="-354.5" font-family="Helvetica,sans-Serif" font-size="10.00">FIEAGameEngine/src</text>
<text text-anchor="middle" x="762.25" y="-342.5" font-family="Helvetica,sans-Serif" font-size="10.00">/content/Parser.cpp</text>
</a>
</g>
</g>
<!-- Node2 -->
<g id="Node000002" class="node">
<title>Node2</title>
<g id="a_Node000002"><a xlink:href="_types_8h.html" target="_top" xlink:title=" ">
<polygon fill="white" stroke="#666666" points="348.38,-76 216.12,-76 216.12,-56 348.38,-56 348.38,-76"/>
<text text-anchor="middle" x="282.25" y="-62.5" font-family="Helvetica,sans-Serif" font-size="10.00">FIEAGameEngine/Types.h</text>
</a>
</g>
</g>
<!-- Node1&#45;&gt;Node2 -->
<g id="edge1_Node000001_Node000002" class="edge">
<title>Node1&#45;&gt;Node2</title>
<g id="a_edge1_Node000001_Node000002"><a xlink:title=" ">
<path fill="none" stroke="#63b8ff" d="M706.4,-348.72C583.26,-342.18 299.25,-318.07 299.25,-235 299.25,-235 299.25,-235 299.25,-177 299.25,-145.5 292.36,-109.52 287.35,-87.53"/>
<polygon fill="#63b8ff" stroke="#63b8ff" points="290.76,-86.73 285.04,-77.81 283.95,-88.35 290.76,-86.73"/>
</a>
</g>
</g>
<!-- Node11 -->
<g id="Node000011" class="node">
<title>Node11</title>
<g id="a_Node000011"><a xlink:href="_parser_8h.html" target="_top" xlink:title=" ">
<polygon fill="white" stroke="#666666" points="615.62,-300 562.88,-300 562.88,-280 615.62,-280 615.62,-300"/>
<text text-anchor="middle" x="589.25" y="-286.5" font-family="Helvetica,sans-Serif" font-size="10.00">Parser.h</text>
</a>
</g>
</g>
<!-- Node1&#45;&gt;Node11 -->
<g id="edge10_Node000001_Node000011" class="edge">
<title>Node1&#45;&gt;Node11</title>
<g id="a_edge10_Node000001_Node000011"><a xlink:title=" ">
<path fill="none" stroke="#63b8ff" d="M717.7,-335.55C689.58,-325.8 653.66,-313.34 626.95,-304.08"/>
<polygon fill="#63b8ff" stroke="#63b8ff" points="628.15,-300.79 617.55,-300.82 625.85,-307.4 628.15,-300.79"/>
</a>
</g>
</g>
<!-- Node17 -->
<g id="Node000017" class="node">
<title>Node17</title>
<g id="a_Node000017"><a xlink:title=" ">
<polygon fill="#e0e0e0" stroke="#999999" points="755.88,-188 692.62,-188 692.62,-168 755.88,-168 755.88,-188"/>
<text text-anchor="middle" x="724.25" y="-174.5" font-family="Helvetica,sans-Serif" font-size="10.00">json/json.h</text>
</a>
</g>
</g>
<!-- Node1&#45;&gt;Node17 -->
<g id="edge26_Node000001_Node000017" class="edge">
<title>Node1&#45;&gt;Node17</title>
<g id="a_edge26_Node000001_Node000017"><a xlink:title=" ">
<path fill="none" stroke="#63b8ff" d="M758.88,-335.74C752.02,-304.69 736.44,-234.18 728.74,-199.31"/>
<polygon fill="#63b8ff" stroke="#63b8ff" points="732.19,-198.7 726.61,-189.69 725.35,-200.21 732.19,-198.7"/>
</a>
</g>
</g>
<!-- Node19 -->
<g id="Node000019" class="node">
<title>Node19</title>
<g id="a_Node000019"><a xlink:title=" ">
<polygon fill="#e0e0e0" stroke="#999999" points="841.88,-300 790.62,-300 790.62,-280 841.88,-280 841.88,-300"/>
<text text-anchor="middle" x="816.25" y="-286.5" font-family="Helvetica,sans-Serif" font-size="10.00">sstream</text>
</a>
</g>
</g>
<!-- Node1&#45;&gt;Node19 -->
<g id="edge24_Node000001_Node000019" class="edge">
<title>Node1&#45;&gt;Node19</title>
<g id="a_edge24_Node000001_Node000019"><a xlink:title=" ">
<path fill="none" stroke="#63b8ff" d="M776.16,-335.55C783.5,-327.39 792.55,-317.33 800.19,-308.84"/>
<polygon fill="#63b8ff" stroke="#63b8ff" points="802.68,-311.31 806.77,-301.53 797.48,-306.62 802.68,-311.31"/>
</a>
</g>
</g>
<!-- Node20 -->
<g id="Node000020" class="node">
<title>Node20</title>
<g id="a_Node000020"><a xlink:title=" ">
<polygon fill="#e0e0e0" stroke="#999999" points="908.75,-300 859.75,-300 859.75,-280 908.75,-280 908.75,-300"/>
<text text-anchor="middle" x="884.25" y="-286.5" font-family="Helvetica,sans-Serif" font-size="10.00">fstream</text>
</a>
</g>
</g>
<!-- Node1&#45;&gt;Node20 -->
<g id="edge25_Node000001_Node000020" class="edge">
<title>Node1&#45;&gt;Node20</title>
<g id="a_edge25_Node000001_Node000020"><a xlink:title=" ">
<path fill="none" stroke="#63b8ff" d="M793.67,-335.55C812.55,-326.26 836.43,-314.52 854.93,-305.42"/>
<polygon fill="#63b8ff" stroke="#63b8ff" points="856.33,-308.63 863.76,-301.08 853.24,-302.35 856.33,-308.63"/>
</a>
</g>
</g>
<!-- Node3 -->
<g id="Node000003" class="node">
<title>Node3</title>
<g id="a_Node000003"><a xlink:title=" ">
<polygon fill="#e0e0e0" stroke="#999999" points="62.5,-20 0,-20 0,0 62.5,0 62.5,-20"/>
<text text-anchor="middle" x="31.25" y="-6.5" font-family="Helvetica,sans-Serif" font-size="10.00">windows.h</text>
</a>
</g>
</g>
<!-- Node2&#45;&gt;Node3 -->
<g id="edge2_Node000002_Node000003" class="edge">
<title>Node2&#45;&gt;Node3</title>
<g id="a_edge2_Node000002_Node000003"><a xlink:title=" ">
<path fill="none" stroke="#63b8ff" d="M237.35,-55.58C197.04,-47.08 135.92,-34.12 73.87,-20.56"/>
<polygon fill="#63b8ff" stroke="#63b8ff" points="74.68,-17.15 64.16,-18.43 73.18,-23.99 74.68,-17.15"/>
</a>
</g>
</g>
<!-- Node4 -->
<g id="Node000004" class="node">
<title>Node4</title>
<g id="a_Node000004"><a xlink:title=" ">
<polygon fill="#e0e0e0" stroke="#999999" points="128.38,-20 80.12,-20 80.12,0 128.38,0 128.38,-20"/>
<text text-anchor="middle" x="104.25" y="-6.5" font-family="Helvetica,sans-Serif" font-size="10.00">cassert</text>
</a>
</g>
</g>
<!-- Node2&#45;&gt;Node4 -->
<g id="edge3_Node000002_Node000004" class="edge">
<title>Node2&#45;&gt;Node4</title>
<g id="a_edge3_Node000002_Node000004"><a xlink:title=" ">
<path fill="none" stroke="#63b8ff" d="M251.24,-55.59C220.06,-46.13 172.05,-31.57 139.45,-21.68"/>
<polygon fill="#63b8ff" stroke="#63b8ff" points="140.65,-18.38 130.06,-18.83 138.62,-25.08 140.65,-18.38"/>
</a>
</g>
</g>
<!-- Node5 -->
<g id="Node000005" class="node">
<title>Node5</title>
<g id="a_Node000005"><a xlink:title=" ">
<polygon fill="#e0e0e0" stroke="#999999" points="194.38,-20 146.12,-20 146.12,0 194.38,0 194.38,-20"/>
<text text-anchor="middle" x="170.25" y="-6.5" font-family="Helvetica,sans-Serif" font-size="10.00">cstddef</text>
</a>
</g>
</g>
<!-- Node2&#45;&gt;Node5 -->
<g id="edge4_Node000002_Node000005" class="edge">
<title>Node2&#45;&gt;Node5</title>
<g id="a_edge4_Node000002_Node000005"><a xlink:title=" ">
<path fill="none" stroke="#63b8ff" d="M262.74,-55.59C245.5,-47.28 220.09,-35.03 200.26,-25.47"/>
<polygon fill="#63b8ff" stroke="#63b8ff" points="201.8,-22.33 191.27,-21.14 198.76,-28.63 201.8,-22.33"/>
</a>
</g>
</g>
<!-- Node6 -->
<g id="Node000006" class="node">
<title>Node6</title>
<g id="a_Node000006"><a xlink:title=" ">
<polygon fill="#e0e0e0" stroke="#999999" points="257.88,-20 212.62,-20 212.62,0 257.88,0 257.88,-20"/>
<text text-anchor="middle" x="235.25" y="-6.5" font-family="Helvetica,sans-Serif" font-size="10.00">cstdint</text>
</a>
</g>
</g>
<!-- Node2&#45;&gt;Node6 -->
<g id="edge5_Node000002_Node000006" class="edge">
<title>Node2&#45;&gt;Node6</title>
<g id="a_edge5_Node000002_Node000006"><a xlink:title=" ">
<path fill="none" stroke="#63b8ff" d="M274.06,-55.59C267.66,-48.24 258.57,-37.8 250.8,-28.87"/>
<polygon fill="#63b8ff" stroke="#63b8ff" points="253.54,-26.69 244.34,-21.44 248.26,-31.28 253.54,-26.69"/>
</a>
</g>
</g>
<!-- Node7 -->
<g id="Node000007" class="node">
<title>Node7</title>
<g id="a_Node000007"><a xlink:title=" ">
<polygon fill="#e0e0e0" stroke="#999999" points="328.62,-20 275.88,-20 275.88,0 328.62,0 328.62,-20"/>
<text text-anchor="middle" x="302.25" y="-6.5" font-family="Helvetica,sans-Serif" font-size="10.00">cstdbool</text>
</a>
</g>
</g>
<!-- Node2&#45;&gt;Node7 -->
<g id="edge6_Node000002_Node000007" class="edge">
<title>Node2&#45;&gt;Node7</title>
<g id="a_edge6_Node000002_Node000007"><a xlink:title=" ">
<path fill="none" stroke="#63b8ff" d="M285.73,-55.59C288.26,-48.78 291.76,-39.32 294.89,-30.86"/>
<polygon fill="#63b8ff" stroke="#63b8ff" points="298.09,-32.31 298.28,-21.72 291.53,-29.88 298.09,-32.31"/>
</a>
</g>
</g>
<!-- Node8 -->
<g id="Node000008" class="node">
<title>Node8</title>
<g id="a_Node000008"><a xlink:title=" ">
<polygon fill="#e0e0e0" stroke="#999999" points="637.25,-20 597.25,-20 597.25,0 637.25,0 637.25,-20"/>
<text text-anchor="middle" x="617.25" y="-6.5" font-family="Helvetica,sans-Serif" font-size="10.00">string</text>
</a>
</g>
</g>
<!-- Node2&#45;&gt;Node8 -->
<g id="edge7_Node000002_Node000008" class="edge">
<title>Node2&#45;&gt;Node8</title>
<g id="a_edge7_Node000002_Node000008"><a xlink:title=" ">
<path fill="none" stroke="#63b8ff" d="M348.59,-56.47C419.58,-47.14 528.72,-32.16 585.75,-20.21"/>
<polygon fill="#63b8ff" stroke="#63b8ff" points="586.27,-23.68 595.28,-18.11 584.76,-16.85 586.27,-23.68"/>
</a>
</g>
</g>
<!-- Node9 -->
<g id="Node000009" class="node">
<title>Node9</title>
<g id="a_Node000009"><a xlink:title=" ">
<polygon fill="#e0e0e0" stroke="#999999" points="401.38,-20 347.12,-20 347.12,0 401.38,0 401.38,-20"/>
<text text-anchor="middle" x="374.25" y="-6.5" font-family="Helvetica,sans-Serif" font-size="10.00">crtdefs.h</text>
</a>
</g>
</g>
<!-- Node2&#45;&gt;Node9 -->
<g id="edge8_Node000002_Node000009" class="edge">
<title>Node2&#45;&gt;Node9</title>
<g id="a_edge8_Node000002_Node000009"><a xlink:title=" ">
<path fill="none" stroke="#63b8ff" d="M298.28,-55.59C312.04,-47.51 332.15,-35.71 348.23,-26.27"/>
<polygon fill="#63b8ff" stroke="#63b8ff" points="349.94,-29.33 356.79,-21.25 346.4,-23.29 349.94,-29.33"/>
</a>
</g>
</g>
<!-- Node10 -->
<g id="Node000010" class="node">
<title>Node10</title>
<g id="a_Node000010"><a xlink:title=" ">
<polygon fill="#e0e0e0" stroke="#999999" points="579.25,-20 419.25,-20 419.25,0 579.25,0 579.25,-20"/>
<text text-anchor="middle" x="499.25" y="-6.5" font-family="Helvetica,sans-Serif" font-size="10.00">../src/memory/SystemAllocator.h</text>
</a>
</g>
</g>
<!-- Node2&#45;&gt;Node10 -->
<g id="edge9_Node000002_Node000010" class="edge">
<title>Node2&#45;&gt;Node10</title>
<g id="a_edge9_Node000002_Node000010"><a xlink:title=" ">
<path fill="none" stroke="#63b8ff" d="M320.05,-55.59C356.16,-46.61 410.76,-33.02 450.21,-23.2"/>
<polygon fill="#63b8ff" stroke="#63b8ff" points="450.83,-26.66 459.69,-20.84 449.14,-19.86 450.83,-26.66"/>
</a>
</g>
</g>
<!-- Node11&#45;&gt;Node8 -->
<g id="edge22_Node000011_Node000008" class="edge">
<title>Node11&#45;&gt;Node8</title>
<g id="a_edge22_Node000011_Node000008"><a xlink:title=" ">
<path fill="none" stroke="#63b8ff" d="M581.87,-279.65C575.53,-270.98 566.85,-257.42 563.25,-244 560.95,-235.41 562.15,-232.82 563.25,-224 572.29,-151.56 597.99,-68.4 610.39,-31.02"/>
<polygon fill="#63b8ff" stroke="#63b8ff" points="613.68,-32.21 613.56,-21.62 607.05,-29.98 613.68,-32.21"/>
</a>
</g>
</g>
<!-- Node12 -->
<g id="Node000012" class="node">
<title>Node12</title>
<g id="a_Node000012"><a xlink:href="_i_parse_handler_8h.html" target="_top" xlink:title=" ">
<polygon fill="white" stroke="#666666" points="696.25,-244 572.25,-244 572.25,-224 696.25,-224 696.25,-244"/>
<text text-anchor="middle" x="634.25" y="-230.5" font-family="Helvetica,sans-Serif" font-size="10.00">Content/IParseHandler.h</text>
</a>
</g>
</g>
<!-- Node11&#45;&gt;Node12 -->
<g id="edge11_Node000011_Node000012" class="edge">
<title>Node11&#45;&gt;Node12</title>
<g id="a_edge11_Node000011_Node000012"><a xlink:title=" ">
<path fill="none" stroke="#63b8ff" d="M597.09,-279.59C603.22,-272.24 611.92,-261.8 619.36,-252.87"/>
<polygon fill="#63b8ff" stroke="#63b8ff" points="621.82,-255.38 625.53,-245.46 616.44,-250.9 621.82,-255.38"/>
</a>
</g>
</g>
<!-- Node13 -->
<g id="Node000013" class="node">
<title>Node13</title>
<g id="a_Node000013"><a xlink:href="_parse_writer_8h.html" target="_top" xlink:title=" ">
<polygon fill="white" stroke="#666666" points="529.88,-188 454.62,-188 454.62,-168 529.88,-168 529.88,-188"/>
<text text-anchor="middle" x="492.25" y="-174.5" font-family="Helvetica,sans-Serif" font-size="10.00">ParseWriter.h</text>
</a>
</g>
</g>
<!-- Node11&#45;&gt;Node13 -->
<g id="edge20_Node000011_Node000013" class="edge">
<title>Node11&#45;&gt;Node13</title>
<g id="a_edge20_Node000011_Node000013"><a xlink:title=" ">
<path fill="none" stroke="#63b8ff" d="M573.61,-279.52C560.87,-271.26 542.97,-258.38 530.25,-244 518.07,-230.23 507.81,-211.97 501.03,-198.32"/>
<polygon fill="#63b8ff" stroke="#63b8ff" points="504.29,-197.02 496.84,-189.49 497.97,-200.03 504.29,-197.02"/>
</a>
</g>
</g>
<!-- Node11&#45;&gt;Node17 -->
<g id="edge23_Node000011_Node000017" class="edge">
<title>Node11&#45;&gt;Node17</title>
<g id="a_edge23_Node000011_Node000017"><a xlink:title=" ">
<path fill="none" stroke="#63b8ff" d="M616.09,-285.5C642.41,-280.68 681.88,-269.46 705.25,-244 716.44,-231.81 721.07,-213.37 722.97,-199.24"/>
<polygon fill="#63b8ff" stroke="#63b8ff" points="726.41,-200 723.89,-189.71 719.44,-199.33 726.41,-200"/>
</a>
</g>
</g>
<!-- Node18 -->
<g id="Node000018" class="node">
<title>Node18</title>
<g id="a_Node000018"><a xlink:title=" ">
<polygon fill="#e0e0e0" stroke="#999999" points="478,-244 424.5,-244 424.5,-224 478,-224 478,-244"/>
<text text-anchor="middle" x="451.25" y="-230.5" font-family="Helvetica,sans-Serif" font-size="10.00">iostream</text>
</a>
</g>
</g>
<!-- Node11&#45;&gt;Node18 -->
<g id="edge21_Node000011_Node000018" class="edge">
<title>Node11&#45;&gt;Node18</title>
<g id="a_edge21_Node000011_Node000018"><a xlink:title=" ">
<path fill="none" stroke="#63b8ff" d="M565.21,-279.59C543.28,-271.01 510.62,-258.23 485.88,-248.55"/>
<polygon fill="#63b8ff" stroke="#63b8ff" points="487.47,-245.42 476.88,-245.03 484.92,-251.93 487.47,-245.42"/>
</a>
</g>
</g>
<!-- Node12&#45;&gt;Node8 -->
<g id="edge18_Node000012_Node000008" class="edge">
<title>Node12&#45;&gt;Node8</title>
<g id="a_edge18_Node000012_Node000008"><a xlink:title=" ">
<path fill="none" stroke="#63b8ff" d="M633.54,-223.74C631.01,-190.74 622.4,-78.31 618.83,-31.61"/>
<polygon fill="#63b8ff" stroke="#63b8ff" points="622.33,-31.51 618.08,-21.81 615.35,-32.04 622.33,-31.51"/>
</a>
</g>
</g>
<!-- Node12&#45;&gt;Node13 -->
<g id="edge12_Node000012_Node000013" class="edge">
<title>Node12&#45;&gt;Node13</title>
<g id="a_edge12_Node000012_Node000013"><a xlink:title=" ">
<path fill="none" stroke="#63b8ff" d="M609.52,-223.59C586.95,-215.01 553.34,-202.23 527.88,-192.55"/>
<polygon fill="#63b8ff" stroke="#63b8ff" points="529.18,-189.3 518.59,-189.02 526.7,-195.84 529.18,-189.3"/>
</a>
</g>
</g>
<!-- Node12&#45;&gt;Node17 -->
<g id="edge19_Node000012_Node000017" class="edge">
<title>Node12&#45;&gt;Node17</title>
<g id="a_edge19_Node000012_Node000017"><a xlink:title=" ">
<path fill="none" stroke="#63b8ff" d="M649.93,-223.59C663.39,-215.51 683.07,-203.71 698.79,-194.27"/>
<polygon fill="#63b8ff" stroke="#63b8ff" points="700.38,-197.4 707.15,-189.26 696.78,-191.4 700.38,-197.4"/>
</a>
</g>
</g>
<!-- Node14 -->
<g id="Node000014" class="node">
<title>Node14</title>
<g id="a_Node000014"><a xlink:href="_r_t_t_i_8h.html" target="_top" xlink:title=" ">
<polygon fill="white" stroke="#666666" points="472.12,-132 344.38,-132 344.38,-112 472.12,-112 472.12,-132"/>
<text text-anchor="middle" x="408.25" y="-118.5" font-family="Helvetica,sans-Serif" font-size="10.00">FIEAGameEngine/RTTI.h</text>
</a>
</g>
</g>
<!-- Node13&#45;&gt;Node14 -->
<g id="edge13_Node000013_Node000014" class="edge">
<title>Node13&#45;&gt;Node14</title>
<g id="a_edge13_Node000013_Node000014"><a xlink:title=" ">
<path fill="none" stroke="#63b8ff" d="M477.62,-167.59C465.17,-159.59 447.03,-147.93 432.43,-138.54"/>
<polygon fill="#63b8ff" stroke="#63b8ff" points="434.57,-135.76 424.27,-133.3 430.79,-141.65 434.57,-135.76"/>
</a>
</g>
</g>
<!-- Node16 -->
<g id="Node000016" class="node">
<title>Node16</title>
<g id="a_Node000016"><a xlink:title=" ">
<polygon fill="#e0e0e0" stroke="#999999" points="530.25,-132 490.25,-132 490.25,-112 530.25,-112 530.25,-132"/>
<text text-anchor="middle" x="510.25" y="-118.5" font-family="Helvetica,sans-Serif" font-size="10.00">stack</text>
</a>
</g>
</g>
<!-- Node13&#45;&gt;Node16 -->
<g id="edge17_Node000013_Node000016" class="edge">
<title>Node13&#45;&gt;Node16</title>
<g id="a_edge17_Node000013_Node000016"><a xlink:title=" ">
<path fill="none" stroke="#63b8ff" d="M495.39,-167.59C497.63,-160.86 500.74,-151.53 503.53,-143.15"/>
<polygon fill="#63b8ff" stroke="#63b8ff" points="506.83,-144.33 506.67,-133.73 500.19,-142.11 506.83,-144.33"/>
</a>
</g>
</g>
<!-- Node14&#45;&gt;Node2 -->
<g id="edge14_Node000014_Node000002" class="edge">
<title>Node14&#45;&gt;Node2</title>
<g id="a_edge14_Node000014_Node000002"><a xlink:title=" ">
<path fill="none" stroke="#63b8ff" d="M386.3,-111.59C366.55,-103.13 337.26,-90.58 314.78,-80.94"/>
<polygon fill="#63b8ff" stroke="#63b8ff" points="316.33,-77.8 305.76,-77.08 313.57,-84.23 316.33,-77.8"/>
</a>
</g>
</g>
<!-- Node15 -->
<g id="Node000015" class="node">
<title>Node15</title>
<g id="a_Node000015"><a xlink:href="_r_t_t_i_8inl.html" target="_top" xlink:title=" ">
<polygon fill="white" stroke="#666666" points="494.5,-76 366,-76 366,-56 494.5,-56 494.5,-76"/>
<text text-anchor="middle" x="430.25" y="-62.5" font-family="Helvetica,sans-Serif" font-size="10.00">FieaGameEngine/RTTI.inl</text>
</a>
</g>
</g>
<!-- Node14&#45;&gt;Node15 -->
<g id="edge15_Node000014_Node000015" class="edge">
<title>Node14&#45;&gt;Node15</title>
<g id="a_edge15_Node000014_Node000015"><a xlink:title=" ">
<path fill="none" stroke="#63b8ff" d="M406.82,-111.59C408.26,-104.63 411.82,-94.89 415.89,-86.29"/>
<polygon fill="#63b8ff" stroke="#63b8ff" points="418.89,-88.11 420.5,-77.63 412.71,-84.81 418.89,-88.11"/>
</a>
</g>
</g>
<!-- Node15&#45;&gt;Node14 -->
<g id="edge16_Node000015_Node000014" class="edge">
<title>Node15&#45;&gt;Node14</title>
<g id="a_edge16_Node000015_Node000014"><a xlink:title=" ">
<path fill="none" stroke="#63b8ff" d="M431.71,-76.3C430.29,-83.24 426.74,-92.97 422.67,-101.58"/>
<polygon fill="#63b8ff" stroke="#63b8ff" points="419.66,-99.78 418.06,-110.26 425.84,-103.07 419.66,-99.78"/>
</a>
</g>
</g>
</g>
</svg>
