<?xml version="1.0" encoding="UTF-8" standalone="no"?>
<!DOCTYPE svg PUBLIC "-//W3C//DTD SVG 1.1//EN"
 "http://www.w3.org/Graphics/SVG/1.1/DTD/svg11.dtd">
<!-- Generated by graphviz version 12.2.1 (20241206.2353)
 -->
<!-- Title: FIEAGameEngine/src/content/Parser.h Pages: 1 -->
<svg width="799pt" height="320pt"
 viewBox="0.00 0.00 799.00 320.00" xmlns="http://www.w3.org/2000/svg" xmlns:xlink="http://www.w3.org/1999/xlink">
<g id="graph0" class="graph" transform="scale(1 1) rotate(0) translate(4 316)">
<title>FIEAGameEngine/src/content/Parser.h</title>
<!-- Node1 -->
<g id="Node000001" class="node">
<title>Node1</title>
<g id="a_Node000001"><a xlink:title=" ">
<polygon fill="#999999" stroke="#666666" points="726.88,-312 615.62,-312 615.62,-280 726.88,-280 726.88,-312"/>
<text text-anchor="start" x="623.62" y="-298.5" font-family="Helvetica,sans-Serif" font-size="10.00">FIEAGameEngine/src</text>
<text text-anchor="middle" x="671.25" y="-286.5" font-family="Helvetica,sans-Serif" font-size="10.00">/content/Parser.h</text>
</a>
</g>
</g>
<!-- Node2 -->
<g id="Node000002" class="node">
<title>Node2</title>
<g id="a_Node000002"><a xlink:href="_i_parse_handler_8h.html" target="_top" xlink:title=" ">
<polygon fill="white" stroke="#666666" points="643.25,-244 519.25,-244 519.25,-224 643.25,-224 643.25,-244"/>
<text text-anchor="middle" x="581.25" y="-230.5" font-family="Helvetica,sans-Serif" font-size="10.00">Content/IParseHandler.h</text>
</a>
</g>
</g>
<!-- Node1&#45;&gt;Node2 -->
<g id="edge1_Node000001_Node000002" class="edge">
<title>Node1&#45;&gt;Node2</title>
<g id="a_edge1_Node000001_Node000002"><a xlink:title=" ">
<path fill="none" stroke="#63b8ff" d="M648.07,-279.55C634.79,-270.69 618.16,-259.61 604.82,-250.71"/>
<polygon fill="#63b8ff" stroke="#63b8ff" points="606.88,-247.88 596.62,-245.25 603,-253.71 606.88,-247.88"/>
</a>
</g>
</g>
<!-- Node3 -->
<g id="Node000003" class="node">
<title>Node3</title>
<g id="a_Node000003"><a xlink:href="_parse_writer_8h.html" target="_top" xlink:title=" ">
<polygon fill="white" stroke="#666666" points="544.88,-188 469.62,-188 469.62,-168 544.88,-168 544.88,-188"/>
<text text-anchor="middle" x="507.25" y="-174.5" font-family="Helvetica,sans-Serif" font-size="10.00">ParseWriter.h</text>
</a>
</g>
</g>
<!-- Node1&#45;&gt;Node3 -->
<g id="edge18_Node000001_Node000003" class="edge">
<title>Node1&#45;&gt;Node3</title>
<g id="a_edge18_Node000001_Node000003"><a xlink:title=" ">
<path fill="none" stroke="#63b8ff" d="M615.48,-292.88C579.43,-288.31 534.81,-275.97 510.25,-244 500.56,-231.39 500.62,-212.99 502.64,-198.99"/>
<polygon fill="#63b8ff" stroke="#63b8ff" points="506,-200.03 504.43,-189.55 499.13,-198.72 506,-200.03"/>
</a>
</g>
</g>
<!-- Node11 -->
<g id="Node000011" class="node">
<title>Node11</title>
<g id="a_Node000011"><a xlink:title=" ">
<polygon fill="#e0e0e0" stroke="#999999" points="637.25,-20 597.25,-20 597.25,0 637.25,0 637.25,-20"/>
<text text-anchor="middle" x="617.25" y="-6.5" font-family="Helvetica,sans-Serif" font-size="10.00">string</text>
</a>
</g>
</g>
<!-- Node1&#45;&gt;Node11 -->
<g id="edge20_Node000001_Node000011" class="edge">
<title>Node1&#45;&gt;Node11</title>
<g id="a_edge20_Node000001_Node000011"><a xlink:title=" ">
<path fill="none" stroke="#63b8ff" d="M679.68,-279.76C690.88,-258.07 709.25,-216.72 709.25,-179 709.25,-179 709.25,-179 709.25,-121 709.25,-79.31 669.89,-45.1 642.66,-26.42"/>
<polygon fill="#63b8ff" stroke="#63b8ff" points="644.82,-23.65 634.54,-21.08 640.98,-29.5 644.82,-23.65"/>
</a>
</g>
</g>
<!-- Node16 -->
<g id="Node000016" class="node">
<title>Node16</title>
<g id="a_Node000016"><a xlink:title=" ">
<polygon fill="#e0e0e0" stroke="#999999" points="678.88,-188 615.62,-188 615.62,-168 678.88,-168 678.88,-188"/>
<text text-anchor="middle" x="647.25" y="-174.5" font-family="Helvetica,sans-Serif" font-size="10.00">json/json.h</text>
</a>
</g>
</g>
<!-- Node1&#45;&gt;Node16 -->
<g id="edge21_Node000001_Node000016" class="edge">
<title>Node1&#45;&gt;Node16</title>
<g id="a_edge21_Node000001_Node000016"><a xlink:title=" ">
<path fill="none" stroke="#63b8ff" d="M668.11,-279.84C663.87,-259.32 656.28,-222.63 651.52,-199.62"/>
<polygon fill="#63b8ff" stroke="#63b8ff" points="654.96,-199 649.51,-189.92 648.11,-200.42 654.96,-199"/>
</a>
</g>
</g>
<!-- Node17 -->
<g id="Node000017" class="node">
<title>Node17</title>
<g id="a_Node000017"><a xlink:title=" ">
<polygon fill="#e0e0e0" stroke="#999999" points="791,-244 737.5,-244 737.5,-224 791,-224 791,-244"/>
<text text-anchor="middle" x="764.25" y="-230.5" font-family="Helvetica,sans-Serif" font-size="10.00">iostream</text>
</a>
</g>
</g>
<!-- Node1&#45;&gt;Node17 -->
<g id="edge19_Node000001_Node000017" class="edge">
<title>Node1&#45;&gt;Node17</title>
<g id="a_edge19_Node000001_Node000017"><a xlink:title=" ">
<path fill="none" stroke="#63b8ff" d="M695.2,-279.55C709.06,-270.61 726.44,-259.39 740.3,-250.45"/>
<polygon fill="#63b8ff" stroke="#63b8ff" points="741.89,-253.59 748.4,-245.23 738.1,-247.71 741.89,-253.59"/>
</a>
</g>
</g>
<!-- Node2&#45;&gt;Node3 -->
<g id="edge2_Node000002_Node000003" class="edge">
<title>Node2&#45;&gt;Node3</title>
<g id="a_edge2_Node000002_Node000003"><a xlink:title=" ">
<path fill="none" stroke="#63b8ff" d="M568.36,-223.59C557.54,-215.7 541.84,-204.24 529.06,-194.92"/>
<polygon fill="#63b8ff" stroke="#63b8ff" points="531.36,-192.26 521.21,-189.19 527.23,-197.91 531.36,-192.26"/>
</a>
</g>
</g>
<!-- Node2&#45;&gt;Node11 -->
<g id="edge16_Node000002_Node000011" class="edge">
<title>Node2&#45;&gt;Node11</title>
<g id="a_edge16_Node000002_Node000011"><a xlink:title=" ">
<path fill="none" stroke="#63b8ff" d="M582.75,-223.74C588.1,-190.74 606.33,-78.31 613.91,-31.61"/>
<polygon fill="#63b8ff" stroke="#63b8ff" points="617.35,-32.22 615.5,-21.79 610.44,-31.1 617.35,-32.22"/>
</a>
</g>
</g>
<!-- Node2&#45;&gt;Node16 -->
<g id="edge17_Node000002_Node000016" class="edge">
<title>Node2&#45;&gt;Node16</title>
<g id="a_edge17_Node000002_Node000016"><a xlink:title=" ">
<path fill="none" stroke="#63b8ff" d="M592.75,-223.59C602.21,-215.85 615.85,-204.69 627.12,-195.47"/>
<polygon fill="#63b8ff" stroke="#63b8ff" points="629.19,-198.3 634.71,-189.26 624.76,-192.88 629.19,-198.3"/>
</a>
</g>
</g>
<!-- Node4 -->
<g id="Node000004" class="node">
<title>Node4</title>
<g id="a_Node000004"><a xlink:href="_r_t_t_i_8h.html" target="_top" xlink:title=" ">
<polygon fill="white" stroke="#666666" points="480.12,-132 352.38,-132 352.38,-112 480.12,-112 480.12,-132"/>
<text text-anchor="middle" x="416.25" y="-118.5" font-family="Helvetica,sans-Serif" font-size="10.00">FIEAGameEngine/RTTI.h</text>
</a>
</g>
</g>
<!-- Node3&#45;&gt;Node4 -->
<g id="edge3_Node000003_Node000004" class="edge">
<title>Node3&#45;&gt;Node4</title>
<g id="a_edge3_Node000003_Node000004"><a xlink:title=" ">
<path fill="none" stroke="#63b8ff" d="M491.4,-167.59C477.78,-159.51 457.89,-147.71 441.99,-138.27"/>
<polygon fill="#63b8ff" stroke="#63b8ff" points="443.91,-135.35 433.53,-133.25 440.34,-141.37 443.91,-135.35"/>
</a>
</g>
</g>
<!-- Node15 -->
<g id="Node000015" class="node">
<title>Node15</title>
<g id="a_Node000015"><a xlink:title=" ">
<polygon fill="#e0e0e0" stroke="#999999" points="538.25,-132 498.25,-132 498.25,-112 538.25,-112 538.25,-132"/>
<text text-anchor="middle" x="518.25" y="-118.5" font-family="Helvetica,sans-Serif" font-size="10.00">stack</text>
</a>
</g>
</g>
<!-- Node3&#45;&gt;Node15 -->
<g id="edge15_Node000003_Node000015" class="edge">
<title>Node3&#45;&gt;Node15</title>
<g id="a_edge15_Node000003_Node000015"><a xlink:title=" ">
<path fill="none" stroke="#63b8ff" d="M509.17,-167.59C510.52,-160.93 512.39,-151.75 514.09,-143.44"/>
<polygon fill="#63b8ff" stroke="#63b8ff" points="517.49,-144.28 516.05,-133.78 510.63,-142.88 517.49,-144.28"/>
</a>
</g>
</g>
<!-- Node5 -->
<g id="Node000005" class="node">
<title>Node5</title>
<g id="a_Node000005"><a xlink:href="_types_8h.html" target="_top" xlink:title=" ">
<polygon fill="white" stroke="#666666" points="334.38,-76 202.12,-76 202.12,-56 334.38,-56 334.38,-76"/>
<text text-anchor="middle" x="268.25" y="-62.5" font-family="Helvetica,sans-Serif" font-size="10.00">FIEAGameEngine/Types.h</text>
</a>
</g>
</g>
<!-- Node4&#45;&gt;Node5 -->
<g id="edge4_Node000004_Node000005" class="edge">
<title>Node4&#45;&gt;Node5</title>
<g id="a_edge4_Node000004_Node000005"><a xlink:title=" ">
<path fill="none" stroke="#63b8ff" d="M390.47,-111.59C366.85,-102.97 331.61,-90.12 305.03,-80.42"/>
<polygon fill="#63b8ff" stroke="#63b8ff" points="306.25,-77.14 295.65,-77 303.85,-83.71 306.25,-77.14"/>
</a>
</g>
</g>
<!-- Node14 -->
<g id="Node000014" class="node">
<title>Node14</title>
<g id="a_Node000014"><a xlink:href="_r_t_t_i_8inl.html" target="_top" xlink:title=" ">
<polygon fill="white" stroke="#666666" points="480.5,-76 352,-76 352,-56 480.5,-56 480.5,-76"/>
<text text-anchor="middle" x="416.25" y="-62.5" font-family="Helvetica,sans-Serif" font-size="10.00">FieaGameEngine/RTTI.inl</text>
</a>
</g>
</g>
<!-- Node4&#45;&gt;Node14 -->
<g id="edge13_Node000004_Node000014" class="edge">
<title>Node4&#45;&gt;Node14</title>
<g id="a_edge13_Node000004_Node000014"><a xlink:title=" ">
<path fill="none" stroke="#63b8ff" d="M410.98,-111.59C409.67,-105.01 409.23,-95.96 409.66,-87.73"/>
<polygon fill="#63b8ff" stroke="#63b8ff" points="413.14,-88.14 410.83,-77.8 406.19,-87.33 413.14,-88.14"/>
</a>
</g>
</g>
<!-- Node6 -->
<g id="Node000006" class="node">
<title>Node6</title>
<g id="a_Node000006"><a xlink:title=" ">
<polygon fill="#e0e0e0" stroke="#999999" points="62.5,-20 0,-20 0,0 62.5,0 62.5,-20"/>
<text text-anchor="middle" x="31.25" y="-6.5" font-family="Helvetica,sans-Serif" font-size="10.00">windows.h</text>
</a>
</g>
</g>
<!-- Node5&#45;&gt;Node6 -->
<g id="edge5_Node000005_Node000006" class="edge">
<title>Node5&#45;&gt;Node6</title>
<g id="a_edge5_Node000005_Node000006"><a xlink:title=" ">
<path fill="none" stroke="#63b8ff" d="M226.7,-55.53C183.8,-45.76 117.2,-30.58 73.91,-20.72"/>
<polygon fill="#63b8ff" stroke="#63b8ff" points="74.89,-17.35 64.37,-18.55 73.34,-24.18 74.89,-17.35"/>
</a>
</g>
</g>
<!-- Node7 -->
<g id="Node000007" class="node">
<title>Node7</title>
<g id="a_Node000007"><a xlink:title=" ">
<polygon fill="#e0e0e0" stroke="#999999" points="128.38,-20 80.12,-20 80.12,0 128.38,0 128.38,-20"/>
<text text-anchor="middle" x="104.25" y="-6.5" font-family="Helvetica,sans-Serif" font-size="10.00">cassert</text>
</a>
</g>
</g>
<!-- Node5&#45;&gt;Node7 -->
<g id="edge6_Node000005_Node000007" class="edge">
<title>Node5&#45;&gt;Node7</title>
<g id="a_edge6_Node000005_Node000007"><a xlink:title=" ">
<path fill="none" stroke="#63b8ff" d="M239.68,-55.59C211.85,-46.43 169.48,-32.48 139.55,-22.62"/>
<polygon fill="#63b8ff" stroke="#63b8ff" points="140.78,-19.34 130.18,-19.54 138.59,-25.99 140.78,-19.34"/>
</a>
</g>
</g>
<!-- Node8 -->
<g id="Node000008" class="node">
<title>Node8</title>
<g id="a_Node000008"><a xlink:title=" ">
<polygon fill="#e0e0e0" stroke="#999999" points="194.38,-20 146.12,-20 146.12,0 194.38,0 194.38,-20"/>
<text text-anchor="middle" x="170.25" y="-6.5" font-family="Helvetica,sans-Serif" font-size="10.00">cstddef</text>
</a>
</g>
</g>
<!-- Node5&#45;&gt;Node8 -->
<g id="edge7_Node000005_Node000008" class="edge">
<title>Node5&#45;&gt;Node8</title>
<g id="a_edge7_Node000005_Node000008"><a xlink:title=" ">
<path fill="none" stroke="#63b8ff" d="M251.18,-55.59C236.37,-47.44 214.68,-35.48 197.48,-26"/>
<polygon fill="#63b8ff" stroke="#63b8ff" points="199.23,-22.97 188.78,-21.21 195.85,-29.1 199.23,-22.97"/>
</a>
</g>
</g>
<!-- Node9 -->
<g id="Node000009" class="node">
<title>Node9</title>
<g id="a_Node000009"><a xlink:title=" ">
<polygon fill="#e0e0e0" stroke="#999999" points="257.88,-20 212.62,-20 212.62,0 257.88,0 257.88,-20"/>
<text text-anchor="middle" x="235.25" y="-6.5" font-family="Helvetica,sans-Serif" font-size="10.00">cstdint</text>
</a>
</g>
</g>
<!-- Node5&#45;&gt;Node9 -->
<g id="edge8_Node000005_Node000009" class="edge">
<title>Node5&#45;&gt;Node9</title>
<g id="a_edge8_Node000005_Node000009"><a xlink:title=" ">
<path fill="none" stroke="#63b8ff" d="M262.5,-55.59C258.2,-48.55 252.16,-38.67 246.86,-30"/>
<polygon fill="#63b8ff" stroke="#63b8ff" points="249.92,-28.3 241.72,-21.59 243.95,-31.95 249.92,-28.3"/>
</a>
</g>
</g>
<!-- Node10 -->
<g id="Node000010" class="node">
<title>Node10</title>
<g id="a_Node000010"><a xlink:title=" ">
<polygon fill="#e0e0e0" stroke="#999999" points="328.62,-20 275.88,-20 275.88,0 328.62,0 328.62,-20"/>
<text text-anchor="middle" x="302.25" y="-6.5" font-family="Helvetica,sans-Serif" font-size="10.00">cstdbool</text>
</a>
</g>
</g>
<!-- Node5&#45;&gt;Node10 -->
<g id="edge9_Node000005_Node000010" class="edge">
<title>Node5&#45;&gt;Node10</title>
<g id="a_edge9_Node000005_Node000010"><a xlink:title=" ">
<path fill="none" stroke="#63b8ff" d="M274.17,-55.59C278.61,-48.55 284.83,-38.67 290.29,-30"/>
<polygon fill="#63b8ff" stroke="#63b8ff" points="293.22,-31.91 295.59,-21.58 287.3,-28.18 293.22,-31.91"/>
</a>
</g>
</g>
<!-- Node5&#45;&gt;Node11 -->
<g id="edge10_Node000005_Node000011" class="edge">
<title>Node5&#45;&gt;Node11</title>
<g id="a_edge10_Node000005_Node000011"><a xlink:title=" ">
<path fill="none" stroke="#63b8ff" d="M334.83,-56.92C409.07,-47.7 525.64,-32.55 585.57,-20.23"/>
<polygon fill="#63b8ff" stroke="#63b8ff" points="586.25,-23.66 595.29,-18.13 584.77,-16.82 586.25,-23.66"/>
</a>
</g>
</g>
<!-- Node12 -->
<g id="Node000012" class="node">
<title>Node12</title>
<g id="a_Node000012"><a xlink:title=" ">
<polygon fill="#e0e0e0" stroke="#999999" points="401.38,-20 347.12,-20 347.12,0 401.38,0 401.38,-20"/>
<text text-anchor="middle" x="374.25" y="-6.5" font-family="Helvetica,sans-Serif" font-size="10.00">crtdefs.h</text>
</a>
</g>
</g>
<!-- Node5&#45;&gt;Node12 -->
<g id="edge11_Node000005_Node000012" class="edge">
<title>Node5&#45;&gt;Node12</title>
<g id="a_edge11_Node000005_Node000012"><a xlink:title=" ">
<path fill="none" stroke="#63b8ff" d="M286.71,-55.59C302.95,-47.32 326.86,-35.14 345.58,-25.6"/>
<polygon fill="#63b8ff" stroke="#63b8ff" points="346.97,-28.82 354.29,-21.17 343.79,-22.59 346.97,-28.82"/>
</a>
</g>
</g>
<!-- Node13 -->
<g id="Node000013" class="node">
<title>Node13</title>
<g id="a_Node000013"><a xlink:title=" ">
<polygon fill="#e0e0e0" stroke="#999999" points="579.25,-20 419.25,-20 419.25,0 579.25,0 579.25,-20"/>
<text text-anchor="middle" x="499.25" y="-6.5" font-family="Helvetica,sans-Serif" font-size="10.00">../src/memory/SystemAllocator.h</text>
</a>
</g>
</g>
<!-- Node5&#45;&gt;Node13 -->
<g id="edge12_Node000005_Node000013" class="edge">
<title>Node5&#45;&gt;Node13</title>
<g id="a_edge12_Node000005_Node000013"><a xlink:title=" ">
<path fill="none" stroke="#63b8ff" d="M308.75,-55.53C347.39,-46.5 405.76,-32.85 447.7,-23.05"/>
<polygon fill="#63b8ff" stroke="#63b8ff" points="448.38,-26.49 457.32,-20.8 446.79,-19.67 448.38,-26.49"/>
</a>
</g>
</g>
<!-- Node14&#45;&gt;Node4 -->
<g id="edge14_Node000014_Node000004" class="edge">
<title>Node14&#45;&gt;Node4</title>
<g id="a_edge14_Node000014_Node000004"><a xlink:title=" ">
<path fill="none" stroke="#63b8ff" d="M421.5,-76.3C422.84,-82.93 423.28,-92.11 422.83,-100.43"/>
<polygon fill="#63b8ff" stroke="#63b8ff" points="419.38,-99.75 421.69,-110.09 426.33,-100.57 419.38,-99.75"/>
</a>
</g>
</g>
</g>
</svg>
