<?xml version="1.0" encoding="UTF-8" standalone="no"?>
<!DOCTYPE svg PUBLIC "-//W3C//DTD SVG 1.1//EN"
 "http://www.w3.org/Graphics/SVG/1.1/DTD/svg11.dtd">
<!-- Generated by graphviz version 12.2.1 (20241206.2353)
 -->
<!-- Title: FIEAGameEngine/include/Content/ParseWriter.h Pages: 1 -->
<svg width="2325pt" height="244pt"
 viewBox="0.00 0.00 2324.62 244.00" xmlns="http://www.w3.org/2000/svg" xmlns:xlink="http://www.w3.org/1999/xlink">
<g id="graph0" class="graph" transform="scale(1 1) rotate(0) translate(4 240)">
<title>FIEAGameEngine/include/Content/ParseWriter.h</title>
<!-- Node1 -->
<g id="Node000001" class="node">
<title>Node1</title>
<g id="a_Node000001"><a xlink:title=" ">
<polygon fill="#999999" stroke="#666666" points="1270.88,-236 1142.38,-236 1142.38,-204 1270.88,-204 1270.88,-236"/>
<text text-anchor="start" x="1150.38" y="-222.5" font-family="Helvetica,sans-Serif" font-size="10.00">FIEAGameEngine/include</text>
<text text-anchor="middle" x="1206.62" y="-210.5" font-family="Helvetica,sans-Serif" font-size="10.00">/Content/ParseWriter.h</text>
</a>
</g>
</g>
<!-- Node2 -->
<g id="Node000002" class="node">
<title>Node2</title>
<g id="a_Node000002"><a xlink:href="_i_parse_handler_8h.html" target="_top" xlink:title=" ">
<polygon fill="white" stroke="#666666" points="1092.88,-168 964.38,-168 964.38,-136 1092.88,-136 1092.88,-168"/>
<text text-anchor="start" x="972.38" y="-154.5" font-family="Helvetica,sans-Serif" font-size="10.00">FIEAGameEngine/include</text>
<text text-anchor="middle" x="1028.62" y="-142.5" font-family="Helvetica,sans-Serif" font-size="10.00">/Content/IParseHandler.h</text>
</a>
</g>
</g>
<!-- Node1&#45;&gt;Node2 -->
<g id="edge1_Node000001_Node000002" class="edge">
<title>Node1&#45;&gt;Node2</title>
<g id="a_edge1_Node000001_Node000002"><a xlink:title=" ">
<path fill="none" stroke="#63b8ff" d="M1154.18,-199.56C1127.47,-189.65 1095.43,-177.77 1070.4,-168.49"/>
<polygon fill="#63b8ff" stroke="#63b8ff" points="1152.88,-202.8 1163.47,-203 1155.31,-196.24 1152.88,-202.8"/>
</a>
</g>
</g>
<!-- Node27 -->
<g id="Node000027" class="node">
<title>Node27</title>
<g id="a_Node000027"><a xlink:href="_parser_8h.html" target="_top" xlink:title=" ">
<polygon fill="white" stroke="#666666" points="111.25,-100 0,-100 0,-68 111.25,-68 111.25,-100"/>
<text text-anchor="start" x="8" y="-86.5" font-family="Helvetica,sans-Serif" font-size="10.00">FIEAGameEngine/src</text>
<text text-anchor="middle" x="55.62" y="-74.5" font-family="Helvetica,sans-Serif" font-size="10.00">/content/Parser.h</text>
</a>
</g>
</g>
<!-- Node1&#45;&gt;Node27 -->
<g id="edge27_Node000001_Node000027" class="edge">
<title>Node1&#45;&gt;Node27</title>
<g id="a_edge27_Node000001_Node000027"><a xlink:title=" ">
<path fill="none" stroke="#63b8ff" d="M1130.7,-213.77C953.11,-200.87 497.11,-163.84 120.62,-100 117.66,-99.5 114.62,-98.94 111.56,-98.35"/>
<polygon fill="#63b8ff" stroke="#63b8ff" points="1130.26,-217.25 1140.49,-214.48 1130.76,-210.27 1130.26,-217.25"/>
</a>
</g>
</g>
<!-- Node29 -->
<g id="Node000029" class="node">
<title>Node29</title>
<g id="a_Node000029"><a xlink:href="_parse_writer_8cpp.html" target="_top" xlink:title=" ">
<polygon fill="white" stroke="#666666" points="1268.62,-168 1144.62,-168 1144.62,-136 1268.62,-136 1268.62,-168"/>
<text text-anchor="start" x="1152.62" y="-154.5" font-family="Helvetica,sans-Serif" font-size="10.00">FIEAGameEngine/src</text>
<text text-anchor="middle" x="1206.62" y="-142.5" font-family="Helvetica,sans-Serif" font-size="10.00">/content/ParseWriter.cpp</text>
</a>
</g>
</g>
<!-- Node1&#45;&gt;Node29 -->
<g id="edge26_Node000001_Node000029" class="edge">
<title>Node1&#45;&gt;Node29</title>
<g id="a_edge26_Node000001_Node000029"><a xlink:title=" ">
<path fill="none" stroke="#63b8ff" d="M1206.62,-192.31C1206.62,-184.12 1206.62,-175.38 1206.62,-168.22"/>
<polygon fill="#63b8ff" stroke="#63b8ff" points="1203.13,-192.18 1206.63,-202.18 1210.13,-192.18 1203.13,-192.18"/>
</a>
</g>
</g>
<!-- Node30 -->
<g id="Node000030" class="node">
<title>Node30</title>
<g id="a_Node000030"><a xlink:href="_scope_writer_8h.html" target="_top" xlink:title=" ">
<polygon fill="#fff0f0" stroke="red" points="1863.5,-100 1747.75,-100 1747.75,-68 1863.5,-68 1863.5,-100"/>
<text text-anchor="start" x="1755.75" y="-86.5" font-family="Helvetica,sans-Serif" font-size="10.00">FIEAGameEngine/src</text>
<text text-anchor="middle" x="1805.62" y="-74.5" font-family="Helvetica,sans-Serif" font-size="10.00">/content/ScopeWriter.h</text>
</a>
</g>
</g>
<!-- Node1&#45;&gt;Node30 -->
<g id="edge28_Node000001_Node000030" class="edge">
<title>Node1&#45;&gt;Node30</title>
<g id="a_edge28_Node000001_Node000030"><a xlink:title=" ">
<path fill="none" stroke="#63b8ff" d="M1282.56,-202.02C1385.78,-178.94 1576.16,-136.36 1738.62,-100 1741.53,-99.35 1744.51,-98.68 1747.52,-98.01"/>
<polygon fill="#63b8ff" stroke="#63b8ff" points="1281.79,-198.6 1272.8,-204.2 1283.32,-205.44 1281.79,-198.6"/>
</a>
</g>
</g>
<!-- Node33 -->
<g id="Node000033" class="node">
<title>Node33</title>
<g id="a_Node000033"><a xlink:href="_test_writer_8h.html" target="_top" xlink:title=" ">
<polygon fill="#fff0f0" stroke="red" points="1397.75,-94 1265.5,-94 1265.5,-74 1397.75,-74 1397.75,-94"/>
<text text-anchor="middle" x="1331.62" y="-80.5" font-family="Helvetica,sans-Serif" font-size="10.00">Tests/Support/TestWriter.h</text>
</a>
</g>
</g>
<!-- Node1&#45;&gt;Node33 -->
<g id="edge41_Node000001_Node000033" class="edge">
<title>Node1&#45;&gt;Node33</title>
<g id="a_edge41_Node000001_Node000033"><a xlink:title=" ">
<path fill="none" stroke="#63b8ff" d="M1242.12,-197.35C1254.17,-189.04 1267.2,-178.91 1277.62,-168 1300.06,-144.5 1318.8,-110.46 1327.08,-94.25"/>
<polygon fill="#63b8ff" stroke="#63b8ff" points="1240.38,-194.3 1234,-202.76 1244.26,-200.13 1240.38,-194.3"/>
</a>
</g>
</g>
<!-- Node3 -->
<g id="Node000003" class="node">
<title>Node3</title>
<g id="a_Node000003"><a xlink:href="_action_handler_8h.html" target="_top" xlink:title=" ">
<polygon fill="#fff0f0" stroke="red" points="1247.88,-100 1119.38,-100 1119.38,-68 1247.88,-68 1247.88,-100"/>
<text text-anchor="start" x="1127.38" y="-86.5" font-family="Helvetica,sans-Serif" font-size="10.00">FIEAGameEngine/include</text>
<text text-anchor="middle" x="1183.62" y="-74.5" font-family="Helvetica,sans-Serif" font-size="10.00">/Content/ActionHandler.h</text>
</a>
</g>
</g>
<!-- Node2&#45;&gt;Node3 -->
<g id="edge2_Node000002_Node000003" class="edge">
<title>Node2&#45;&gt;Node3</title>
<g id="a_edge2_Node000002_Node000003"><a xlink:title=" ">
<path fill="none" stroke="#63b8ff" d="M1075.53,-131.03C1098.54,-121.23 1125.84,-109.61 1147.24,-100.49"/>
<polygon fill="#63b8ff" stroke="#63b8ff" points="1074.19,-127.79 1066.36,-134.93 1076.93,-134.24 1074.19,-127.79"/>
</a>
</g>
</g>
<!-- Node6 -->
<g id="Node000006" class="node">
<title>Node6</title>
<g id="a_Node000006"><a xlink:href="_action_list_handler_8h.html" target="_top" xlink:title=" ">
<polygon fill="#fff0f0" stroke="red" points="1557.62,-100 1415.62,-100 1415.62,-68 1557.62,-68 1557.62,-100"/>
<text text-anchor="start" x="1423.62" y="-86.5" font-family="Helvetica,sans-Serif" font-size="10.00">FIEAGameEngine/include</text>
<text text-anchor="middle" x="1486.62" y="-74.5" font-family="Helvetica,sans-Serif" font-size="10.00">/Content/ActionListHandler.h</text>
</a>
</g>
</g>
<!-- Node2&#45;&gt;Node6 -->
<g id="edge4_Node000002_Node000006" class="edge">
<title>Node2&#45;&gt;Node6</title>
<g id="a_edge4_Node000002_Node000006"><a xlink:title=" ">
<path fill="none" stroke="#63b8ff" d="M1104.41,-140.31C1114.89,-138.85 1125.52,-137.38 1135.62,-136 1256.01,-119.57 1286.65,-119.2 1406.62,-100 1409.42,-99.55 1412.26,-99.08 1415.13,-98.6"/>
<polygon fill="#63b8ff" stroke="#63b8ff" points="1104.04,-136.82 1094.62,-141.67 1105,-143.76 1104.04,-136.82"/>
</a>
</g>
</g>
<!-- Node8 -->
<g id="Node000008" class="node">
<title>Node8</title>
<g id="a_Node000008"><a xlink:href="_array_handler_8h.html" target="_top" xlink:title=" ">
<polygon fill="#fff0f0" stroke="red" points="2239.88,-100 2111.38,-100 2111.38,-68 2239.88,-68 2239.88,-100"/>
<text text-anchor="start" x="2119.38" y="-86.5" font-family="Helvetica,sans-Serif" font-size="10.00">FIEAGameEngine/include</text>
<text text-anchor="middle" x="2175.62" y="-74.5" font-family="Helvetica,sans-Serif" font-size="10.00">/Content/ArrayHandler.h</text>
</a>
</g>
</g>
<!-- Node2&#45;&gt;Node8 -->
<g id="edge6_Node000002_Node000008" class="edge">
<title>Node2&#45;&gt;Node8</title>
<g id="a_edge6_Node000002_Node000008"><a xlink:title=" ">
<path fill="none" stroke="#63b8ff" d="M1104.52,-139.42C1114.95,-138.1 1125.54,-136.91 1135.62,-136 1530.35,-100.45 1631.28,-127.86 2026.62,-100 2054.37,-98.04 2084.96,-95.1 2111.16,-92.34"/>
<polygon fill="#63b8ff" stroke="#63b8ff" points="1104.26,-135.92 1094.79,-140.69 1105.16,-142.86 1104.26,-135.92"/>
</a>
</g>
</g>
<!-- Node10 -->
<g id="Node000010" class="node">
<title>Node10</title>
<g id="a_Node000010"><a xlink:href="_float_parse_handler_8h.html" target="_top" xlink:title=" ">
<polygon fill="#fff0f0" stroke="red" points="1101.5,-100 955.75,-100 955.75,-68 1101.5,-68 1101.5,-100"/>
<text text-anchor="start" x="963.75" y="-86.5" font-family="Helvetica,sans-Serif" font-size="10.00">FIEAGameEngine/include</text>
<text text-anchor="middle" x="1028.62" y="-74.5" font-family="Helvetica,sans-Serif" font-size="10.00">/Content/FloatParseHandler.h</text>
</a>
</g>
</g>
<!-- Node2&#45;&gt;Node10 -->
<g id="edge8_Node000002_Node000010" class="edge">
<title>Node2&#45;&gt;Node10</title>
<g id="a_edge8_Node000002_Node000010"><a xlink:title=" ">
<path fill="none" stroke="#63b8ff" d="M1028.62,-124.31C1028.62,-116.12 1028.62,-107.38 1028.62,-100.22"/>
<polygon fill="#63b8ff" stroke="#63b8ff" points="1025.13,-124.18 1028.63,-134.18 1032.13,-124.18 1025.13,-124.18"/>
</a>
</g>
</g>
<!-- Node12 -->
<g id="Node000012" class="node">
<title>Node12</title>
<g id="a_Node000012"><a xlink:href="_game_object_handler_8h.html" target="_top" xlink:title=" ">
<polygon fill="#fff0f0" stroke="red" points="1729.25,-100 1576,-100 1576,-68 1729.25,-68 1729.25,-100"/>
<text text-anchor="start" x="1584" y="-86.5" font-family="Helvetica,sans-Serif" font-size="10.00">FIEAGameEngine/include</text>
<text text-anchor="middle" x="1652.62" y="-74.5" font-family="Helvetica,sans-Serif" font-size="10.00">/Content/GameObjectHandler.h</text>
</a>
</g>
</g>
<!-- Node2&#45;&gt;Node12 -->
<g id="edge10_Node000002_Node000012" class="edge">
<title>Node2&#45;&gt;Node12</title>
<g id="a_edge10_Node000002_Node000012"><a xlink:title=" ">
<path fill="none" stroke="#63b8ff" d="M1104.56,-139.82C1114.99,-138.44 1125.56,-137.12 1135.62,-136 1326.66,-114.65 1375.98,-124.54 1566.62,-100 1569.63,-99.61 1572.69,-99.19 1575.78,-98.75"/>
<polygon fill="#63b8ff" stroke="#63b8ff" points="1104.28,-136.33 1094.84,-141.13 1105.22,-143.26 1104.28,-136.33"/>
</a>
</g>
</g>
<!-- Node14 -->
<g id="Node000014" class="node">
<title>Node14</title>
<g id="a_Node000014"><a xlink:href="_int_parse_handler_8h.html" target="_top" xlink:title=" ">
<polygon fill="#fff0f0" stroke="red" points="2017.25,-100 1882,-100 1882,-68 2017.25,-68 2017.25,-100"/>
<text text-anchor="start" x="1890" y="-86.5" font-family="Helvetica,sans-Serif" font-size="10.00">FIEAGameEngine/include</text>
<text text-anchor="middle" x="1949.62" y="-74.5" font-family="Helvetica,sans-Serif" font-size="10.00">/Content/IntParseHandler.h</text>
</a>
</g>
</g>
<!-- Node2&#45;&gt;Node14 -->
<g id="edge12_Node000002_Node000014" class="edge">
<title>Node2&#45;&gt;Node14</title>
<g id="a_edge12_Node000002_Node000014"><a xlink:title=" ">
<path fill="none" stroke="#63b8ff" d="M1104.53,-139.5C1114.96,-138.17 1125.54,-136.95 1135.62,-136 1462.12,-105.2 1547.06,-139.46 1872.62,-100 1875.6,-99.64 1878.63,-99.23 1881.69,-98.78"/>
<polygon fill="#63b8ff" stroke="#63b8ff" points="1104.26,-136 1094.8,-140.78 1105.17,-142.94 1104.26,-136"/>
</a>
</g>
</g>
<!-- Node16 -->
<g id="Node000016" class="node">
<title>Node16</title>
<g id="a_Node000016"><a xlink:href="_matrix_handler_8h.html" target="_top" xlink:title=" ">
<polygon fill="#fff0f0" stroke="red" points="452.88,-100 324.38,-100 324.38,-68 452.88,-68 452.88,-100"/>
<text text-anchor="start" x="332.38" y="-86.5" font-family="Helvetica,sans-Serif" font-size="10.00">FIEAGameEngine/include</text>
<text text-anchor="middle" x="388.62" y="-74.5" font-family="Helvetica,sans-Serif" font-size="10.00">/Content/MatrixHandler.h</text>
</a>
</g>
</g>
<!-- Node2&#45;&gt;Node16 -->
<g id="edge14_Node000002_Node000016" class="edge">
<title>Node2&#45;&gt;Node16</title>
<g id="a_edge14_Node000002_Node000016"><a xlink:title=" ">
<path fill="none" stroke="#63b8ff" d="M953.09,-146.85C844.28,-140.26 637.3,-125.49 462.62,-100 459.51,-99.55 456.33,-99.04 453.13,-98.51"/>
<polygon fill="#63b8ff" stroke="#63b8ff" points="952.57,-150.32 962.76,-147.43 952.99,-143.33 952.57,-150.32"/>
</a>
</g>
</g>
<!-- Node18 -->
<g id="Node000018" class="node">
<title>Node18</title>
<g id="a_Node000018"><a xlink:href="_scope_parse_handler_8h.html" target="_top" xlink:title=" ">
<polygon fill="#fff0f0" stroke="red" points="769.5,-100 617.75,-100 617.75,-68 769.5,-68 769.5,-100"/>
<text text-anchor="start" x="625.75" y="-86.5" font-family="Helvetica,sans-Serif" font-size="10.00">FIEAGameEngine/include</text>
<text text-anchor="middle" x="693.62" y="-74.5" font-family="Helvetica,sans-Serif" font-size="10.00">/Content/ScopeParseHandler.h</text>
</a>
</g>
</g>
<!-- Node2&#45;&gt;Node18 -->
<g id="edge16_Node000002_Node000018" class="edge">
<title>Node2&#45;&gt;Node18</title>
<g id="a_edge16_Node000002_Node000018"><a xlink:title=" ">
<path fill="none" stroke="#63b8ff" d="M953,-136.1C898.27,-125.32 824.59,-110.8 769.75,-100"/>
<polygon fill="#63b8ff" stroke="#63b8ff" points="952.06,-139.48 962.55,-137.98 953.41,-132.61 952.06,-139.48"/>
</a>
</g>
</g>
<!-- Node20 -->
<g id="Node000020" class="node">
<title>Node20</title>
<g id="a_Node000020"><a xlink:href="_string_parse_handler_8h.html" target="_top" xlink:title=" ">
<polygon fill="#fff0f0" stroke="red" points="937.38,-100 787.88,-100 787.88,-68 937.38,-68 937.38,-100"/>
<text text-anchor="start" x="795.88" y="-86.5" font-family="Helvetica,sans-Serif" font-size="10.00">FIEAGameEngine/include</text>
<text text-anchor="middle" x="862.62" y="-74.5" font-family="Helvetica,sans-Serif" font-size="10.00">/Content/StringParseHandler.h</text>
</a>
</g>
</g>
<!-- Node2&#45;&gt;Node20 -->
<g id="edge18_Node000002_Node000020" class="edge">
<title>Node2&#45;&gt;Node20</title>
<g id="a_edge18_Node000002_Node000020"><a xlink:title=" ">
<path fill="none" stroke="#63b8ff" d="M979.05,-131.29C954.27,-121.44 924.72,-109.69 901.59,-100.49"/>
<polygon fill="#63b8ff" stroke="#63b8ff" points="977.71,-134.52 988.3,-134.97 980.3,-128.02 977.71,-134.52"/>
</a>
</g>
</g>
<!-- Node22 -->
<g id="Node000022" class="node">
<title>Node22</title>
<g id="a_Node000022"><a xlink:href="vector_handler_8h.html" target="_top" xlink:title=" ">
<polygon fill="#fff0f0" stroke="red" points="599.88,-100 471.38,-100 471.38,-68 599.88,-68 599.88,-100"/>
<text text-anchor="start" x="479.38" y="-86.5" font-family="Helvetica,sans-Serif" font-size="10.00">FIEAGameEngine/include</text>
<text text-anchor="middle" x="535.62" y="-74.5" font-family="Helvetica,sans-Serif" font-size="10.00">/Content/vectorHandler.h</text>
</a>
</g>
</g>
<!-- Node2&#45;&gt;Node22 -->
<g id="edge20_Node000002_Node000022" class="edge">
<title>Node2&#45;&gt;Node22</title>
<g id="a_edge20_Node000002_Node000022"><a xlink:title=" ">
<path fill="none" stroke="#63b8ff" d="M952.73,-143.67C868.41,-135.09 728.35,-119.54 608.62,-100 605.82,-99.54 602.95,-99.05 600.06,-98.54"/>
<polygon fill="#63b8ff" stroke="#63b8ff" points="952.19,-147.14 962.49,-144.66 952.89,-140.17 952.19,-147.14"/>
</a>
</g>
</g>
<!-- Node24 -->
<g id="Node000024" class="node">
<title>Node24</title>
<g id="a_Node000024"><a xlink:href="_content_service_8h.html" target="_top" xlink:title=" ">
<polygon fill="#fff0f0" stroke="red" points="305.88,-100 129.38,-100 129.38,-68 305.88,-68 305.88,-100"/>
<text text-anchor="start" x="137.38" y="-86.5" font-family="Helvetica,sans-Serif" font-size="10.00">FIEAGameEngine/include</text>
<text text-anchor="middle" x="217.62" y="-74.5" font-family="Helvetica,sans-Serif" font-size="10.00">/FIEAGameEngine/ContentService.h</text>
</a>
</g>
</g>
<!-- Node2&#45;&gt;Node24 -->
<g id="edge21_Node000002_Node000024" class="edge">
<title>Node2&#45;&gt;Node24</title>
<g id="a_edge21_Node000002_Node000024"><a xlink:title=" ">
<path fill="none" stroke="#63b8ff" d="M952.65,-147.58C822.12,-141.25 546.97,-125.94 315.62,-100 312.55,-99.65 309.42,-99.28 306.26,-98.89"/>
<polygon fill="#63b8ff" stroke="#63b8ff" points="952.4,-151.07 962.56,-148.05 952.74,-144.08 952.4,-151.07"/>
</a>
</g>
</g>
<!-- Node2&#45;&gt;Node27 -->
<g id="edge23_Node000002_Node000027" class="edge">
<title>Node2&#45;&gt;Node27</title>
<g id="a_edge23_Node000002_Node000027"><a xlink:title=" ">
<path fill="none" stroke="#63b8ff" d="M952.49,-148.4C764.2,-141.7 280.43,-122.76 120.62,-100 117.64,-99.58 114.6,-99.08 111.53,-98.54"/>
<polygon fill="#63b8ff" stroke="#63b8ff" points="952.29,-151.89 962.41,-148.75 952.54,-144.9 952.29,-151.89"/>
</a>
</g>
</g>
<!-- Node4 -->
<g id="Node000004" class="node">
<title>Node4</title>
<g id="a_Node000004"><a xlink:href="_action_handler_8cpp.html" target="_top" xlink:title=" ">
<polygon fill="white" stroke="#666666" points="1376.88,-32 1242.38,-32 1242.38,0 1376.88,0 1376.88,-32"/>
<text text-anchor="start" x="1250.38" y="-18.5" font-family="Helvetica,sans-Serif" font-size="10.00">FIEAGameEngine/src</text>
<text text-anchor="middle" x="1309.62" y="-6.5" font-family="Helvetica,sans-Serif" font-size="10.00">/content/ActionHandler.cpp</text>
</a>
</g>
</g>
<!-- Node3&#45;&gt;Node4 -->
<g id="edge3_Node000003_Node000004" class="edge">
<title>Node3&#45;&gt;Node4</title>
<g id="a_edge3_Node000003_Node000004"><a xlink:title=" ">
<path fill="none" stroke="#63b8ff" d="M1223.33,-62.2C1241.77,-52.54 1263.32,-41.26 1280.27,-32.38"/>
<polygon fill="#63b8ff" stroke="#63b8ff" points="1221.74,-59.08 1214.51,-66.82 1224.99,-65.28 1221.74,-59.08"/>
</a>
</g>
</g>
<!-- Node7 -->
<g id="Node000007" class="node">
<title>Node7</title>
<g id="a_Node000007"><a xlink:href="_action_list_handler_8cpp.html" target="_top" xlink:title=" ">
<polygon fill="white" stroke="#666666" points="1544.75,-32 1394.5,-32 1394.5,0 1544.75,0 1544.75,-32"/>
<text text-anchor="start" x="1402.5" y="-18.5" font-family="Helvetica,sans-Serif" font-size="10.00">FIEAGameEngine/src</text>
<text text-anchor="middle" x="1469.62" y="-6.5" font-family="Helvetica,sans-Serif" font-size="10.00">/content/ActionListHandler.cpp</text>
</a>
</g>
</g>
<!-- Node6&#45;&gt;Node7 -->
<g id="edge5_Node000006_Node000007" class="edge">
<title>Node6&#45;&gt;Node7</title>
<g id="a_edge5_Node000006_Node000007"><a xlink:title=" ">
<path fill="none" stroke="#63b8ff" d="M1479.83,-56.6C1477.69,-48.32 1475.41,-39.46 1473.55,-32.22"/>
<polygon fill="#63b8ff" stroke="#63b8ff" points="1476.42,-57.42 1482.3,-66.23 1483.2,-55.67 1476.42,-57.42"/>
</a>
</g>
</g>
<!-- Node9 -->
<g id="Node000009" class="node">
<title>Node9</title>
<g id="a_Node000009"><a xlink:href="_array_handler_8cpp.html" target="_top" xlink:title=" ">
<polygon fill="white" stroke="#666666" points="2316.62,-32 2186.62,-32 2186.62,0 2316.62,0 2316.62,-32"/>
<text text-anchor="start" x="2194.62" y="-18.5" font-family="Helvetica,sans-Serif" font-size="10.00">FIEAGameEngine/src</text>
<text text-anchor="middle" x="2251.62" y="-6.5" font-family="Helvetica,sans-Serif" font-size="10.00">/content/ArrayHandler.cpp</text>
</a>
</g>
</g>
<!-- Node8&#45;&gt;Node9 -->
<g id="edge7_Node000008_Node000009" class="edge">
<title>Node8&#45;&gt;Node9</title>
<g id="a_edge7_Node000008_Node000009"><a xlink:title=" ">
<path fill="none" stroke="#63b8ff" d="M2201.74,-60.32C2212.32,-51.13 2224.28,-40.75 2233.83,-32.45"/>
<polygon fill="#63b8ff" stroke="#63b8ff" points="2199.65,-57.5 2194.39,-66.7 2204.24,-62.79 2199.65,-57.5"/>
</a>
</g>
</g>
<!-- Node11 -->
<g id="Node000011" class="node">
<title>Node11</title>
<g id="a_Node000011"><a xlink:href="_float_parse_handler_8cpp.html" target="_top" xlink:title=" ">
<polygon fill="white" stroke="#666666" points="1224.62,-32 1070.62,-32 1070.62,0 1224.62,0 1224.62,-32"/>
<text text-anchor="start" x="1078.62" y="-18.5" font-family="Helvetica,sans-Serif" font-size="10.00">FIEAGameEngine/src</text>
<text text-anchor="middle" x="1147.62" y="-6.5" font-family="Helvetica,sans-Serif" font-size="10.00">/content/FloatParseHandler.cpp</text>
</a>
</g>
</g>
<!-- Node10&#45;&gt;Node11 -->
<g id="edge9_Node000010_Node000011" class="edge">
<title>Node10&#45;&gt;Node11</title>
<g id="a_edge9_Node000010_Node000011"><a xlink:title=" ">
<path fill="none" stroke="#63b8ff" d="M1066.36,-62.07C1083.73,-52.44 1103.97,-41.21 1119.9,-32.38"/>
<polygon fill="#63b8ff" stroke="#63b8ff" points="1064.9,-58.88 1057.85,-66.79 1068.29,-65 1064.9,-58.88"/>
</a>
</g>
</g>
<!-- Node13 -->
<g id="Node000013" class="node">
<title>Node13</title>
<g id="a_Node000013"><a xlink:href="_game_object_handler_8cpp.html" target="_top" xlink:title=" ">
<polygon fill="white" stroke="#666666" points="1724.38,-32 1562.88,-32 1562.88,0 1724.38,0 1724.38,-32"/>
<text text-anchor="start" x="1570.88" y="-18.5" font-family="Helvetica,sans-Serif" font-size="10.00">FIEAGameEngine/src</text>
<text text-anchor="middle" x="1643.62" y="-6.5" font-family="Helvetica,sans-Serif" font-size="10.00">/content/GameObjectHandler.cpp</text>
</a>
</g>
</g>
<!-- Node12&#45;&gt;Node13 -->
<g id="edge11_Node000012_Node000013" class="edge">
<title>Node12&#45;&gt;Node13</title>
<g id="a_edge11_Node000012_Node000013"><a xlink:title=" ">
<path fill="none" stroke="#63b8ff" d="M1648.99,-56.31C1647.87,-48.12 1646.68,-39.38 1645.7,-32.22"/>
<polygon fill="#63b8ff" stroke="#63b8ff" points="1645.51,-56.76 1650.33,-66.19 1652.45,-55.81 1645.51,-56.76"/>
</a>
</g>
</g>
<!-- Node15 -->
<g id="Node000015" class="node">
<title>Node15</title>
<g id="a_Node000015"><a xlink:href="_int_parse_handler_8cpp.html" target="_top" xlink:title=" ">
<polygon fill="white" stroke="#666666" points="1886.38,-32 1742.88,-32 1742.88,0 1886.38,0 1886.38,-32"/>
<text text-anchor="start" x="1750.88" y="-18.5" font-family="Helvetica,sans-Serif" font-size="10.00">FIEAGameEngine/src</text>
<text text-anchor="middle" x="1814.62" y="-6.5" font-family="Helvetica,sans-Serif" font-size="10.00">/content/IntParseHandler.cpp</text>
</a>
</g>
</g>
<!-- Node14&#45;&gt;Node15 -->
<g id="edge13_Node000014_Node000015" class="edge">
<title>Node14&#45;&gt;Node15</title>
<g id="a_edge13_Node000014_Node000015"><a xlink:title=" ">
<path fill="none" stroke="#63b8ff" d="M1907.64,-62.47C1887.75,-52.75 1864.41,-41.34 1846.08,-32.38"/>
<polygon fill="#63b8ff" stroke="#63b8ff" points="1906.09,-65.61 1916.61,-66.86 1909.17,-59.32 1906.09,-65.61"/>
</a>
</g>
</g>
<!-- Node17 -->
<g id="Node000017" class="node">
<title>Node17</title>
<g id="a_Node000017"><a xlink:href="_matrix_handler_8cpp.html" target="_top" xlink:title=" ">
<polygon fill="white" stroke="#666666" points="698.5,-32 564.75,-32 564.75,0 698.5,0 698.5,-32"/>
<text text-anchor="start" x="572.75" y="-18.5" font-family="Helvetica,sans-Serif" font-size="10.00">FIEAGameEngine/src</text>
<text text-anchor="middle" x="631.62" y="-6.5" font-family="Helvetica,sans-Serif" font-size="10.00">/content/MatrixHandler.cpp</text>
</a>
</g>
</g>
<!-- Node16&#45;&gt;Node17 -->
<g id="edge15_Node000016_Node000017" class="edge">
<title>Node16&#45;&gt;Node17</title>
<g id="a_edge15_Node000016_Node000017"><a xlink:title=" ">
<path fill="none" stroke="#63b8ff" d="M456.35,-64.6C493.57,-54.5 539.21,-42.1 574.59,-32.49"/>
<polygon fill="#63b8ff" stroke="#63b8ff" points="455.79,-61.13 447.06,-67.13 457.63,-67.89 455.79,-61.13"/>
</a>
</g>
</g>
<!-- Node19 -->
<g id="Node000019" class="node">
<title>Node19</title>
<g id="a_Node000019"><a xlink:href="_scope_parse_handler_8cpp.html" target="_top" xlink:title=" ">
<polygon fill="white" stroke="#666666" points="876.62,-32 716.62,-32 716.62,0 876.62,0 876.62,-32"/>
<text text-anchor="start" x="724.62" y="-18.5" font-family="Helvetica,sans-Serif" font-size="10.00">FIEAGameEngine/src</text>
<text text-anchor="middle" x="796.62" y="-6.5" font-family="Helvetica,sans-Serif" font-size="10.00">/content/ScopeParseHandler.cpp</text>
</a>
</g>
</g>
<!-- Node18&#45;&gt;Node19 -->
<g id="edge17_Node000018_Node000019" class="edge">
<title>Node18&#45;&gt;Node19</title>
<g id="a_edge17_Node000018_Node000019"><a xlink:title=" ">
<path fill="none" stroke="#63b8ff" d="M727.14,-61.53C741.98,-52.02 759.09,-41.05 772.63,-32.38"/>
<polygon fill="#63b8ff" stroke="#63b8ff" points="725.58,-58.37 719.05,-66.71 729.36,-64.26 725.58,-58.37"/>
</a>
</g>
</g>
<!-- Node21 -->
<g id="Node000021" class="node">
<title>Node21</title>
<g id="a_Node000021"><a xlink:href="_string_parse_handler_8cpp.html" target="_top" xlink:title=" ">
<polygon fill="white" stroke="#666666" points="1052.5,-32 894.75,-32 894.75,0 1052.5,0 1052.5,-32"/>
<text text-anchor="start" x="902.75" y="-18.5" font-family="Helvetica,sans-Serif" font-size="10.00">FIEAGameEngine/src</text>
<text text-anchor="middle" x="973.62" y="-6.5" font-family="Helvetica,sans-Serif" font-size="10.00">/content/StringParseHandler.cpp</text>
</a>
</g>
</g>
<!-- Node20&#45;&gt;Node21 -->
<g id="edge19_Node000020_Node000021" class="edge">
<title>Node20&#45;&gt;Node21</title>
<g id="a_edge19_Node000020_Node000021"><a xlink:title=" ">
<path fill="none" stroke="#63b8ff" d="M898.28,-61.8C914.38,-52.23 933.04,-41.13 947.76,-32.38"/>
<polygon fill="#63b8ff" stroke="#63b8ff" points="896.76,-58.63 889.95,-66.75 900.33,-64.65 896.76,-58.63"/>
</a>
</g>
</g>
<!-- Node26 -->
<g id="Node000026" class="node">
<title>Node26</title>
<g id="a_Node000026"><a xlink:href="_content_service_8cpp.html" target="_top" xlink:title=" ">
<polygon fill="white" stroke="#666666" points="278.88,-32 138.38,-32 138.38,0 278.88,0 278.88,-32"/>
<text text-anchor="start" x="146.38" y="-18.5" font-family="Helvetica,sans-Serif" font-size="10.00">FIEAGameEngine/src</text>
<text text-anchor="middle" x="208.62" y="-6.5" font-family="Helvetica,sans-Serif" font-size="10.00">/content/ContentService.cpp</text>
</a>
</g>
</g>
<!-- Node24&#45;&gt;Node26 -->
<g id="edge22_Node000024_Node000026" class="edge">
<title>Node24&#45;&gt;Node26</title>
<g id="a_edge22_Node000024_Node000026"><a xlink:title=" ">
<path fill="none" stroke="#63b8ff" d="M213.99,-56.31C212.87,-48.12 211.68,-39.38 210.7,-32.22"/>
<polygon fill="#63b8ff" stroke="#63b8ff" points="210.51,-56.76 215.33,-66.19 217.45,-55.81 210.51,-56.76"/>
</a>
</g>
</g>
<!-- Node27&#45;&gt;Node26 -->
<g id="edge24_Node000027_Node000026" class="edge">
<title>Node27&#45;&gt;Node26</title>
<g id="a_edge24_Node000027_Node000026"><a xlink:title=" ">
<path fill="none" stroke="#63b8ff" d="M101.93,-63.03C124.64,-53.23 151.58,-41.61 172.71,-32.49"/>
<polygon fill="#63b8ff" stroke="#63b8ff" points="100.68,-59.75 92.89,-66.93 103.45,-66.18 100.68,-59.75"/>
</a>
</g>
</g>
<!-- Node28 -->
<g id="Node000028" class="node">
<title>Node28</title>
<g id="a_Node000028"><a xlink:href="_parser_8cpp.html" target="_top" xlink:title=" ">
<polygon fill="white" stroke="#666666" points="111.25,-32 0,-32 0,0 111.25,0 111.25,-32"/>
<text text-anchor="start" x="8" y="-18.5" font-family="Helvetica,sans-Serif" font-size="10.00">FIEAGameEngine/src</text>
<text text-anchor="middle" x="55.62" y="-6.5" font-family="Helvetica,sans-Serif" font-size="10.00">/content/Parser.cpp</text>
</a>
</g>
</g>
<!-- Node27&#45;&gt;Node28 -->
<g id="edge25_Node000027_Node000028" class="edge">
<title>Node27&#45;&gt;Node28</title>
<g id="a_edge25_Node000027_Node000028"><a xlink:title=" ">
<path fill="none" stroke="#63b8ff" d="M55.62,-56.31C55.62,-48.12 55.62,-39.38 55.62,-32.22"/>
<polygon fill="#63b8ff" stroke="#63b8ff" points="52.13,-56.18 55.63,-66.18 59.13,-56.18 52.13,-56.18"/>
</a>
</g>
</g>
<!-- Node30&#45;&gt;Node4 -->
<g id="edge29_Node000030_Node000004" class="edge">
<title>Node30&#45;&gt;Node4</title>
<g id="a_edge29_Node000030_Node000004"><a xlink:title=" ">
<path fill="none" stroke="#63b8ff" d="M1736.69,-67.82C1581.04,-43.28 1538.09,-54.77 1385.62,-32 1382.83,-31.58 1379.99,-31.13 1377.11,-30.66"/>
<polygon fill="#63b8ff" stroke="#63b8ff" points="1735.68,-71.2 1746.11,-69.33 1736.79,-64.29 1735.68,-71.2"/>
</a>
</g>
</g>
<!-- Node30&#45;&gt;Node7 -->
<g id="edge30_Node000030_Node000007" class="edge">
<title>Node30&#45;&gt;Node7</title>
<g id="a_edge30_Node000030_Node000007"><a xlink:title=" ">
<path fill="none" stroke="#63b8ff" d="M1736.69,-67.64C1666.24,-53.17 1596.48,-40.06 1545.12,-30.63"/>
<polygon fill="#63b8ff" stroke="#63b8ff" points="1735.56,-70.98 1746.06,-69.57 1736.98,-64.12 1735.56,-70.98"/>
</a>
</g>
</g>
<!-- Node30&#45;&gt;Node9 -->
<g id="edge31_Node000030_Node000009" class="edge">
<title>Node30&#45;&gt;Node9</title>
<g id="a_edge31_Node000030_Node000009"><a xlink:title=" ">
<path fill="none" stroke="#63b8ff" d="M1874.79,-67.75C2009.13,-45.49 2046.4,-53.01 2177.62,-32 2180.47,-31.54 2183.38,-31.06 2186.31,-30.54"/>
<polygon fill="#63b8ff" stroke="#63b8ff" points="1874.43,-64.26 1865.15,-69.37 1875.59,-71.16 1874.43,-64.26"/>
</a>
</g>
</g>
<!-- Node30&#45;&gt;Node11 -->
<g id="edge32_Node000030_Node000011" class="edge">
<title>Node30&#45;&gt;Node11</title>
<g id="a_edge32_Node000030_Node000011"><a xlink:title=" ">
<path fill="none" stroke="#63b8ff" d="M1735.88,-67.75C1513.99,-36.11 1453.26,-58.91 1233.62,-32 1230.77,-31.65 1227.86,-31.27 1224.92,-30.86"/>
<polygon fill="#63b8ff" stroke="#63b8ff" points="1735.36,-71.21 1745.76,-69.18 1736.36,-64.28 1735.36,-71.21"/>
</a>
</g>
</g>
<!-- Node30&#45;&gt;Node13 -->
<g id="edge33_Node000030_Node000013" class="edge">
<title>Node30&#45;&gt;Node13</title>
<g id="a_edge33_Node000030_Node000013"><a xlink:title=" ">
<path fill="none" stroke="#63b8ff" d="M1757.25,-63.29C1733.06,-53.44 1704.22,-41.69 1681.65,-32.49"/>
<polygon fill="#63b8ff" stroke="#63b8ff" points="1755.66,-66.42 1766.24,-66.95 1758.3,-59.94 1755.66,-66.42"/>
</a>
</g>
</g>
<!-- Node30&#45;&gt;Node15 -->
<g id="edge34_Node000030_Node000015" class="edge">
<title>Node30&#45;&gt;Node15</title>
<g id="a_edge34_Node000030_Node000015"><a xlink:title=" ">
<path fill="none" stroke="#63b8ff" d="M1809.26,-56.31C1810.38,-48.12 1811.57,-39.38 1812.55,-32.22"/>
<polygon fill="#63b8ff" stroke="#63b8ff" points="1805.8,-55.81 1807.92,-66.19 1812.74,-56.76 1805.8,-55.81"/>
</a>
</g>
</g>
<!-- Node30&#45;&gt;Node17 -->
<g id="edge35_Node000030_Node000017" class="edge">
<title>Node30&#45;&gt;Node17</title>
<g id="a_edge35_Node000030_Node000017"><a xlink:title=" ">
<path fill="none" stroke="#63b8ff" d="M1736.14,-67.85C1281.88,-10.86 1159.43,-84.14 707.62,-32 704.69,-31.66 701.69,-31.27 698.67,-30.84"/>
<polygon fill="#63b8ff" stroke="#63b8ff" points="1735.41,-71.29 1745.77,-69.08 1736.29,-64.34 1735.41,-71.29"/>
</a>
</g>
</g>
<!-- Node30&#45;&gt;Node19 -->
<g id="edge36_Node000030_Node000019" class="edge">
<title>Node30&#45;&gt;Node19</title>
<g id="a_edge36_Node000030_Node000019"><a xlink:title=" ">
<path fill="none" stroke="#63b8ff" d="M1736.08,-67.83C1360.47,-19.39 1259.32,-71.22 885.62,-32 882.82,-31.71 879.97,-31.38 877.09,-31.02"/>
<polygon fill="#63b8ff" stroke="#63b8ff" points="1735.4,-71.27 1745.77,-69.1 1736.31,-64.33 1735.4,-71.27"/>
</a>
</g>
</g>
<!-- Node30&#45;&gt;Node21 -->
<g id="edge40_Node000030_Node000021" class="edge">
<title>Node30&#45;&gt;Node21</title>
<g id="a_edge40_Node000030_Node000021"><a xlink:title=" ">
<path fill="none" stroke="#63b8ff" d="M1736.12,-67.81C1438.16,-27.87 1357.43,-64.96 1061.62,-32 1058.7,-31.67 1055.72,-31.31 1052.72,-30.93"/>
<polygon fill="#63b8ff" stroke="#63b8ff" points="1735.38,-71.25 1745.76,-69.13 1736.33,-64.31 1735.38,-71.25"/>
</a>
</g>
</g>
<!-- Node31 -->
<g id="Node000031" class="node">
<title>Node31</title>
<g id="a_Node000031"><a xlink:href="_scope_writer_8cpp.html" target="_top" xlink:title=" ">
<polygon fill="white" stroke="#666666" points="2030.75,-32 1904.5,-32 1904.5,0 2030.75,0 2030.75,-32"/>
<text text-anchor="start" x="1912.5" y="-18.5" font-family="Helvetica,sans-Serif" font-size="10.00">FIEAGameEngine/src</text>
<text text-anchor="middle" x="1967.62" y="-6.5" font-family="Helvetica,sans-Serif" font-size="10.00">/content/ScopeWriter.cpp</text>
</a>
</g>
</g>
<!-- Node30&#45;&gt;Node31 -->
<g id="edge37_Node000030_Node000031" class="edge">
<title>Node30&#45;&gt;Node31</title>
<g id="a_edge37_Node000030_Node000031"><a xlink:title=" ">
<path fill="none" stroke="#63b8ff" d="M1854,-63.29C1878.19,-53.44 1907.03,-41.69 1929.6,-32.49"/>
<polygon fill="#63b8ff" stroke="#63b8ff" points="1852.95,-59.94 1845.01,-66.95 1855.59,-66.42 1852.95,-59.94"/>
</a>
</g>
</g>
<!-- Node32 -->
<g id="Node000032" class="node">
<title>Node32</title>
<g id="a_Node000032"><a xlink:href="_scope_writer_8inl.html" target="_top" xlink:title=" ">
<polygon fill="white" stroke="#666666" points="2168.75,-32 2048.5,-32 2048.5,0 2168.75,0 2168.75,-32"/>
<text text-anchor="start" x="2056.5" y="-18.5" font-family="Helvetica,sans-Serif" font-size="10.00">FIEAGameEngine/src</text>
<text text-anchor="middle" x="2108.62" y="-6.5" font-family="Helvetica,sans-Serif" font-size="10.00">/content/ScopeWriter.inl</text>
</a>
</g>
</g>
<!-- Node30&#45;&gt;Node32 -->
<g id="edge38_Node000030_Node000032" class="edge">
<title>Node30&#45;&gt;Node32</title>
<g id="a_edge38_Node000030_Node000032"><a xlink:title=" ">
<path fill="none" stroke="#63b8ff" d="M1875.29,-65.44C1939.98,-51.27 1960.47,-47.19 2030.62,-32 2036.26,-30.78 2042.15,-29.5 2048.06,-28.23"/>
<polygon fill="#63b8ff" stroke="#63b8ff" points="1874.56,-62.02 1865.54,-67.58 1876.05,-68.86 1874.56,-62.02"/>
</a>
</g>
</g>
<!-- Node32&#45;&gt;Node30 -->
<g id="edge39_Node000032_Node000030" class="edge">
<title>Node32&#45;&gt;Node30</title>
<g id="a_edge39_Node000032_Node000030"><a xlink:title=" ">
<path fill="none" stroke="#63b8ff" d="M2036.95,-34.52C1972.22,-48.5 1951.74,-52.6 1881.62,-68 1875.92,-69.25 1869.94,-70.58 1863.95,-71.9"/>
<polygon fill="#63b8ff" stroke="#63b8ff" points="2037.68,-37.95 2046.71,-32.41 2036.2,-31.11 2037.68,-37.95"/>
</a>
</g>
</g>
<!-- Node33&#45;&gt;Node4 -->
<g id="edge42_Node000033_Node000004" class="edge">
<title>Node33&#45;&gt;Node4</title>
<g id="a_edge42_Node000033_Node000004"><a xlink:title=" ">
<path fill="none" stroke="#63b8ff" d="M1324.88,-62.75C1321.61,-52.94 1317.74,-41.36 1314.73,-32.3"/>
<polygon fill="#63b8ff" stroke="#63b8ff" points="1321.51,-63.73 1327.99,-72.11 1328.15,-61.51 1321.51,-63.73"/>
</a>
</g>
</g>
<!-- Node33&#45;&gt;Node7 -->
<g id="edge43_Node000033_Node000007" class="edge">
<title>Node33&#45;&gt;Node7</title>
<g id="a_edge43_Node000033_Node000007"><a xlink:title=" ">
<path fill="none" stroke="#63b8ff" d="M1361.65,-68.64C1384.01,-57.95 1414.49,-43.37 1437.37,-32.43"/>
<polygon fill="#63b8ff" stroke="#63b8ff" points="1360.27,-65.42 1352.76,-72.89 1363.29,-71.73 1360.27,-65.42"/>
</a>
</g>
</g>
<!-- Node33&#45;&gt;Node9 -->
<g id="edge44_Node000033_Node000009" class="edge">
<title>Node33&#45;&gt;Node9</title>
<g id="a_edge44_Node000033_Node000009"><a xlink:title=" ">
<path fill="none" stroke="#63b8ff" d="M1384.27,-71.43C1391.75,-70.09 1399.36,-68.89 1406.62,-68 1747.11,-26.24 1837.19,-74.2 2177.62,-32 2180.49,-31.65 2183.4,-31.24 2186.34,-30.8"/>
<polygon fill="#63b8ff" stroke="#63b8ff" points="1383.76,-67.97 1374.59,-73.26 1385.06,-74.85 1383.76,-67.97"/>
</a>
</g>
</g>
<!-- Node33&#45;&gt;Node11 -->
<g id="edge45_Node000033_Node000011" class="edge">
<title>Node33&#45;&gt;Node11</title>
<g id="a_edge45_Node000033_Node000011"><a xlink:title=" ">
<path fill="none" stroke="#63b8ff" d="M1294.8,-69.79C1264.75,-59.01 1222.25,-43.77 1190.64,-32.43"/>
<polygon fill="#63b8ff" stroke="#63b8ff" points="1293.24,-72.95 1303.84,-73.03 1295.61,-66.36 1293.24,-72.95"/>
</a>
</g>
</g>
<!-- Node33&#45;&gt;Node13 -->
<g id="edge46_Node000033_Node000013" class="edge">
<title>Node33&#45;&gt;Node13</title>
<g id="a_edge46_Node000033_Node000013"><a xlink:title=" ">
<path fill="none" stroke="#63b8ff" d="M1387.47,-71.19C1438.56,-60.38 1514.46,-44.32 1570.39,-32.49"/>
<polygon fill="#63b8ff" stroke="#63b8ff" points="1386.87,-67.74 1377.81,-73.23 1388.32,-74.59 1386.87,-67.74"/>
</a>
</g>
</g>
<!-- Node33&#45;&gt;Node15 -->
<g id="edge47_Node000033_Node000015" class="edge">
<title>Node33&#45;&gt;Node15</title>
<g id="a_edge47_Node000033_Node000015"><a xlink:title=" ">
<path fill="none" stroke="#63b8ff" d="M1386.69,-71.41C1393.39,-70.17 1400.15,-69 1406.62,-68 1551.12,-45.64 1588.98,-53.33 1733.62,-32 1736.6,-31.56 1739.63,-31.09 1742.68,-30.61"/>
<polygon fill="#63b8ff" stroke="#63b8ff" points="1386.18,-67.95 1377.02,-73.26 1387.5,-74.82 1386.18,-67.95"/>
</a>
</g>
</g>
<!-- Node33&#45;&gt;Node17 -->
<g id="edge48_Node000033_Node000017" class="edge">
<title>Node33&#45;&gt;Node17</title>
<g id="a_edge48_Node000033_Node000017"><a xlink:title=" ">
<path fill="none" stroke="#63b8ff" d="M1278.16,-71.41C1270.95,-70.11 1263.62,-68.93 1256.62,-68 1014.21,-35.95 950.08,-63.74 707.62,-32 704.69,-31.62 701.7,-31.19 698.68,-30.72"/>
<polygon fill="#63b8ff" stroke="#63b8ff" points="1277.38,-74.83 1287.86,-73.25 1278.69,-67.95 1277.38,-74.83"/>
</a>
</g>
</g>
<!-- Node33&#45;&gt;Node19 -->
<g id="edge49_Node000033_Node000019" class="edge">
<title>Node33&#45;&gt;Node19</title>
<g id="a_edge49_Node000033_Node000019"><a xlink:title=" ">
<path fill="none" stroke="#63b8ff" d="M1276.84,-71.38C1270.05,-70.14 1263.19,-68.97 1256.62,-68 1092.75,-43.72 1049.85,-53.78 885.62,-32 882.83,-31.63 879.99,-31.24 877.12,-30.83"/>
<polygon fill="#63b8ff" stroke="#63b8ff" points="1276.16,-74.82 1286.64,-73.25 1277.47,-67.94 1276.16,-74.82"/>
</a>
</g>
</g>
<!-- Node33&#45;&gt;Node21 -->
<g id="edge50_Node000033_Node000021" class="edge">
<title>Node33&#45;&gt;Node21</title>
<g id="a_edge50_Node000033_Node000021"><a xlink:title=" ">
<path fill="none" stroke="#63b8ff" d="M1273.77,-71.31C1267.98,-70.18 1262.19,-69.06 1256.62,-68 1187.96,-54.95 1109.76,-40.92 1052.99,-30.88"/>
<polygon fill="#63b8ff" stroke="#63b8ff" points="1272.87,-74.7 1283.36,-73.21 1274.23,-67.84 1272.87,-74.7"/>
</a>
</g>
</g>
</g>
</svg>
