<?xml version="1.0" encoding="UTF-8" standalone="no"?>
<!DOCTYPE svg PUBLIC "-//W3C//DTD SVG 1.1//EN"
 "http://www.w3.org/Graphics/SVG/1.1/DTD/svg11.dtd">
<!-- Generated by graphviz version 12.2.1 (20241206.2353)
 -->
<!-- Title: FIEAGameEngine/include/FIEAGameEngine/RTTI.inl Pages: 1 -->
<svg width="1864pt" height="504pt"
 viewBox="0.00 0.00 1864.15 504.00" xmlns="http://www.w3.org/2000/svg" xmlns:xlink="http://www.w3.org/1999/xlink">
<g id="graph0" class="graph" transform="scale(1 1) rotate(0) translate(4 500)">
<title>FIEAGameEngine/include/FIEAGameEngine/RTTI.inl</title>
<!-- Node1 -->
<g id="Node000001" class="node">
<title>Node1</title>
<g id="a_Node000001"><a xlink:title=" ">
<polygon fill="#999999" stroke="#666666" points="796.78,-496 661.53,-496 661.53,-464 796.78,-464 796.78,-496"/>
<text text-anchor="start" x="669.53" y="-482.5" font-family="Helvetica,sans-Serif" font-size="10.00">FIEAGameEngine/include</text>
<text text-anchor="middle" x="729.15" y="-470.5" font-family="Helvetica,sans-Serif" font-size="10.00">/FIEAGameEngine/RTTI.inl</text>
</a>
</g>
</g>
<!-- Node2 -->
<g id="Node000002" class="node">
<title>Node2</title>
<g id="a_Node000002"><a xlink:href="_r_t_t_i_8h.html" target="_top" xlink:title=" ">
<polygon fill="white" stroke="#666666" points="794.53,-428 663.78,-428 663.78,-396 794.53,-396 794.53,-428"/>
<text text-anchor="start" x="671.78" y="-414.5" font-family="Helvetica,sans-Serif" font-size="10.00">FIEAGameEngine/include</text>
<text text-anchor="middle" x="729.15" y="-402.5" font-family="Helvetica,sans-Serif" font-size="10.00">/FIEAGameEngine/RTTI.h</text>
</a>
</g>
</g>
<!-- Node1&#45;&gt;Node2 -->
<g id="edge1_Node000001_Node000002" class="edge">
<title>Node1&#45;&gt;Node2</title>
<g id="a_edge1_Node000001_Node000002"><a xlink:title=" ">
<path fill="none" stroke="#63b8ff" d="M722.51,-452.31C722.22,-444.12 722.51,-435.38 723.36,-428.22"/>
<polygon fill="#63b8ff" stroke="#63b8ff" points="719.02,-452.47 723.24,-462.18 726,-451.95 719.02,-452.47"/>
</a>
</g>
</g>
<!-- Node2&#45;&gt;Node1 -->
<g id="edge45_Node000002_Node000001" class="edge">
<title>Node2&#45;&gt;Node1</title>
<g id="a_edge45_Node000002_Node000001"><a xlink:title=" ">
<path fill="none" stroke="#63b8ff" d="M735.79,-439.59C736.09,-447.79 735.81,-456.53 734.95,-463.69"/>
<polygon fill="#63b8ff" stroke="#63b8ff" points="739.29,-439.45 735.06,-429.73 732.31,-439.97 739.29,-439.45"/>
</a>
</g>
</g>
<!-- Node3 -->
<g id="Node000003" class="node">
<title>Node3</title>
<g id="a_Node000003"><a xlink:href="_attributed_8h.html" target="_top" xlink:title=" ">
<polygon fill="white" stroke="#666666" points="1078.4,-224 949.9,-224 949.9,-192 1078.4,-192 1078.4,-224"/>
<text text-anchor="start" x="957.9" y="-210.5" font-family="Helvetica,sans-Serif" font-size="10.00">FIEAGameEngine/include</text>
<text text-anchor="middle" x="1014.15" y="-198.5" font-family="Helvetica,sans-Serif" font-size="10.00">/Content/Attributed.h</text>
</a>
</g>
</g>
<!-- Node2&#45;&gt;Node3 -->
<g id="edge2_Node000002_Node000003" class="edge">
<title>Node2&#45;&gt;Node3</title>
<g id="a_edge2_Node000002_Node000003"><a xlink:title=" ">
<path fill="none" stroke="#63b8ff" d="M749.57,-387.47C778.58,-355.2 834.62,-297 892.15,-260 915.13,-245.22 943.11,-233.16 966.47,-224.49"/>
<polygon fill="#63b8ff" stroke="#63b8ff" points="747.16,-384.91 743.14,-394.71 752.39,-389.56 747.16,-384.91"/>
</a>
</g>
</g>
<!-- Node30 -->
<g id="Node000030" class="node">
<title>Node30</title>
<g id="a_Node000030"><a xlink:href="_content_service_8h.html" target="_top" xlink:title=" ">
<polygon fill="#fff0f0" stroke="red" points="1336.4,-156 1159.9,-156 1159.9,-124 1336.4,-124 1336.4,-156"/>
<text text-anchor="start" x="1167.9" y="-142.5" font-family="Helvetica,sans-Serif" font-size="10.00">FIEAGameEngine/include</text>
<text text-anchor="middle" x="1248.15" y="-130.5" font-family="Helvetica,sans-Serif" font-size="10.00">/FIEAGameEngine/ContentService.h</text>
</a>
</g>
</g>
<!-- Node2&#45;&gt;Node30 -->
<g id="edge38_Node000002_Node000030" class="edge">
<title>Node2&#45;&gt;Node30</title>
<g id="a_edge38_Node000002_Node000030"><a xlink:title=" ">
<path fill="none" stroke="#63b8ff" d="M806.16,-402.6C858.22,-395.27 927.84,-382.22 986.15,-360 1097.49,-317.58 1140.58,-315.27 1217.15,-224 1233.86,-204.09 1242.02,-174.29 1245.64,-156.34"/>
<polygon fill="#63b8ff" stroke="#63b8ff" points="805.93,-399.1 796.5,-403.91 806.88,-406.03 805.93,-399.1"/>
</a>
</g>
</g>
<!-- Node39 -->
<g id="Node000039" class="node">
<title>Node39</title>
<g id="a_Node000039"><a xlink:href="_datum_8h.html" target="_top" xlink:title=" ">
<polygon fill="white" stroke="#666666" points="977.4,-360 848.9,-360 848.9,-328 977.4,-328 977.4,-360"/>
<text text-anchor="start" x="856.9" y="-346.5" font-family="Helvetica,sans-Serif" font-size="10.00">FIEAGameEngine/include</text>
<text text-anchor="middle" x="913.15" y="-334.5" font-family="Helvetica,sans-Serif" font-size="10.00">/Content/Datum.h</text>
</a>
</g>
</g>
<!-- Node2&#45;&gt;Node39 -->
<g id="edge11_Node000002_Node000039" class="edge">
<title>Node2&#45;&gt;Node39</title>
<g id="a_edge11_Node000002_Node000039"><a xlink:title=" ">
<path fill="none" stroke="#63b8ff" d="M782.99,-391.69C810.69,-381.76 843.98,-369.81 869.97,-360.49"/>
<polygon fill="#63b8ff" stroke="#63b8ff" points="781.95,-388.34 773.72,-395.01 784.31,-394.93 781.95,-388.34"/>
</a>
</g>
</g>
<!-- Node41 -->
<g id="Node000041" class="node">
<title>Node41</title>
<g id="a_Node000041"><a xlink:href="_scope_8h.html" target="_top" xlink:title=" ">
<polygon fill="white" stroke="#666666" points="793.4,-292 664.9,-292 664.9,-260 793.4,-260 793.4,-292"/>
<text text-anchor="start" x="672.9" y="-278.5" font-family="Helvetica,sans-Serif" font-size="10.00">FIEAGameEngine/include</text>
<text text-anchor="middle" x="729.15" y="-266.5" font-family="Helvetica,sans-Serif" font-size="10.00">/Content/Scope.h</text>
</a>
</g>
</g>
<!-- Node2&#45;&gt;Node41 -->
<g id="edge37_Node000002_Node000041" class="edge">
<title>Node2&#45;&gt;Node41</title>
<g id="a_edge37_Node000002_Node000041"><a xlink:title=" ">
<path fill="none" stroke="#63b8ff" d="M729.15,-384.45C729.15,-356.84 729.15,-314.6 729.15,-292.19"/>
<polygon fill="#63b8ff" stroke="#63b8ff" points="725.65,-384.11 729.15,-394.11 732.65,-384.11 725.65,-384.11"/>
</a>
</g>
</g>
<!-- Node58 -->
<g id="Node000058" class="node">
<title>Node58</title>
<g id="a_Node000058"><a xlink:href="_scoped_foo_8h.html" target="_top" xlink:title=" ">
<polygon fill="#fff0f0" stroke="red" points="519.9,-218 382.4,-218 382.4,-198 519.9,-198 519.9,-218"/>
<text text-anchor="middle" x="451.15" y="-204.5" font-family="Helvetica,sans-Serif" font-size="10.00">Tests/Support/ScopedFoo.h</text>
</a>
</g>
</g>
<!-- Node2&#45;&gt;Node58 -->
<g id="edge54_Node000002_Node000058" class="edge">
<title>Node2&#45;&gt;Node58</title>
<g id="a_edge54_Node000002_Node000058"><a xlink:title=" ">
<path fill="none" stroke="#63b8ff" d="M652.41,-404.22C589.35,-397.05 506.7,-383.44 483.15,-360 443.46,-320.48 447.25,-244.85 449.98,-218.4"/>
<polygon fill="#63b8ff" stroke="#63b8ff" points="651.71,-407.66 662.04,-405.28 652.48,-400.7 651.71,-407.66"/>
</a>
</g>
</g>
<!-- Node60 -->
<g id="Node000060" class="node">
<title>Node60</title>
<g id="a_Node000060"><a xlink:href="_parse_writer_8h.html" target="_top" xlink:title=" ">
<polygon fill="white" stroke="#666666" points="1600.4,-292 1471.9,-292 1471.9,-260 1600.4,-260 1600.4,-292"/>
<text text-anchor="start" x="1479.9" y="-278.5" font-family="Helvetica,sans-Serif" font-size="10.00">FIEAGameEngine/include</text>
<text text-anchor="middle" x="1536.15" y="-266.5" font-family="Helvetica,sans-Serif" font-size="10.00">/Content/ParseWriter.h</text>
</a>
</g>
</g>
<!-- Node2&#45;&gt;Node60 -->
<g id="edge29_Node000002_Node000060" class="edge">
<title>Node2&#45;&gt;Node60</title>
<g id="a_edge29_Node000002_Node000060"><a xlink:title=" ">
<path fill="none" stroke="#63b8ff" d="M806.16,-408.51C930.9,-403.64 1171.13,-390.53 1250.15,-360 1272.38,-351.41 1271.43,-337.79 1293.15,-328 1350.44,-302.19 1421.26,-289.24 1471.64,-282.87"/>
<polygon fill="#63b8ff" stroke="#63b8ff" points="806.2,-405.01 796.34,-408.89 806.47,-412 806.2,-405.01"/>
</a>
</g>
</g>
<!-- Node77 -->
<g id="Node000077" class="node">
<title>Node77</title>
<g id="a_Node000077"><a xlink:href="_factory_service_8h.html" target="_top" xlink:title=" ">
<polygon fill="#fff0f0" stroke="red" points="667.65,-360 492.65,-360 492.65,-328 667.65,-328 667.65,-360"/>
<text text-anchor="start" x="500.65" y="-346.5" font-family="Helvetica,sans-Serif" font-size="10.00">FIEAGameEngine/include</text>
<text text-anchor="middle" x="580.15" y="-334.5" font-family="Helvetica,sans-Serif" font-size="10.00">/FIEAGameEngine/FactoryService.h</text>
</a>
</g>
</g>
<!-- Node2&#45;&gt;Node77 -->
<g id="edge39_Node000002_Node000077" class="edge">
<title>Node2&#45;&gt;Node77</title>
<g id="a_edge39_Node000002_Node000077"><a xlink:title=" ">
<path fill="none" stroke="#63b8ff" d="M683.76,-390.89C661.7,-381.12 635.61,-369.56 615.13,-360.49"/>
<polygon fill="#63b8ff" stroke="#63b8ff" points="682.28,-394.06 692.84,-394.91 685.11,-387.66 682.28,-394.06"/>
</a>
</g>
</g>
<!-- Node78 -->
<g id="Node000078" class="node">
<title>Node78</title>
<g id="a_Node000078"><a xlink:href="_r_t_t_i_8cpp.html" target="_top" xlink:title=" ">
<polygon fill="white" stroke="#666666" points="1413.78,-360 1302.53,-360 1302.53,-328 1413.78,-328 1413.78,-360"/>
<text text-anchor="start" x="1310.53" y="-346.5" font-family="Helvetica,sans-Serif" font-size="10.00">FIEAGameEngine/src</text>
<text text-anchor="middle" x="1358.15" y="-334.5" font-family="Helvetica,sans-Serif" font-size="10.00">/RTTI.cpp</text>
</a>
</g>
</g>
<!-- Node2&#45;&gt;Node78 -->
<g id="edge46_Node000002_Node000078" class="edge">
<title>Node2&#45;&gt;Node78</title>
<g id="a_edge46_Node000002_Node000078"><a xlink:title=" ">
<path fill="none" stroke="#63b8ff" d="M806.31,-406.9C914.47,-400.48 1117.12,-386.03 1288.15,-360 1292.7,-359.31 1297.39,-358.5 1302.1,-357.63"/>
<polygon fill="#63b8ff" stroke="#63b8ff" points="806.16,-403.4 796.38,-407.48 806.57,-410.39 806.16,-403.4"/>
</a>
</g>
</g>
<!-- Node79 -->
<g id="Node000079" class="node">
<title>Node79</title>
<g id="a_Node000079"><a xlink:href="_empty_8h.html" target="_top" xlink:title=" ">
<polygon fill="#fff0f0" stroke="red" points="236.03,-286 120.28,-286 120.28,-266 236.03,-266 236.03,-286"/>
<text text-anchor="middle" x="178.15" y="-272.5" font-family="Helvetica,sans-Serif" font-size="10.00">Tests/Support/Empty.h</text>
</a>
</g>
</g>
<!-- Node2&#45;&gt;Node79 -->
<g id="edge47_Node000002_Node000079" class="edge">
<title>Node2&#45;&gt;Node79</title>
<g id="a_edge47_Node000002_Node000079"><a xlink:title=" ">
<path fill="none" stroke="#63b8ff" d="M652.2,-409.21C571.29,-405.47 441.11,-394.11 334.15,-360 277.74,-342.01 217.72,-303.97 191.6,-286.34"/>
<polygon fill="#63b8ff" stroke="#63b8ff" points="651.63,-412.69 661.78,-409.63 651.94,-405.7 651.63,-412.69"/>
</a>
</g>
</g>
<!-- Node81 -->
<g id="Node000081" class="node">
<title>Node81</title>
<g id="a_Node000081"><a xlink:href="_foo_8h.html" target="_top" xlink:title=" ">
<polygon fill="#fff0f0" stroke="red" points="358.4,-286 253.9,-286 253.9,-266 358.4,-266 358.4,-286"/>
<text text-anchor="middle" x="306.15" y="-272.5" font-family="Helvetica,sans-Serif" font-size="10.00">Tests/Support/Foo.h</text>
</a>
</g>
</g>
<!-- Node2&#45;&gt;Node81 -->
<g id="edge50_Node000002_Node000081" class="edge">
<title>Node2&#45;&gt;Node81</title>
<g id="a_edge50_Node000002_Node000081"><a xlink:title=" ">
<path fill="none" stroke="#63b8ff" d="M652.1,-406.64C561.78,-400.38 418.51,-386.57 372.15,-360 341.33,-342.33 319.47,-304.13 310.58,-286.4"/>
<polygon fill="#63b8ff" stroke="#63b8ff" points="651.66,-410.12 661.88,-407.3 652.14,-403.13 651.66,-410.12"/>
</a>
</g>
</g>
<!-- Node88 -->
<g id="Node000088" class="node">
<title>Node88</title>
<g id="a_Node000088"><a xlink:href="_tests_8h.html" target="_top" xlink:title=" ">
<polygon fill="#fff0f0" stroke="red" points="79.78,-286 4.53,-286 4.53,-266 79.78,-266 79.78,-286"/>
<text text-anchor="middle" x="42.15" y="-272.5" font-family="Helvetica,sans-Serif" font-size="10.00">Tests/Tests.h</text>
</a>
</g>
</g>
<!-- Node2&#45;&gt;Node88 -->
<g id="edge55_Node000002_Node000088" class="edge">
<title>Node2&#45;&gt;Node88</title>
<g id="a_edge55_Node000002_Node000088"><a xlink:title=" ">
<path fill="none" stroke="#63b8ff" d="M652.24,-408.71C558.3,-404.53 395.11,-392.8 259.15,-360 183.67,-341.79 99.01,-304.04 61.65,-286.43"/>
<polygon fill="#63b8ff" stroke="#63b8ff" points="651.97,-412.2 662.11,-409.13 652.27,-405.21 651.97,-412.2"/>
</a>
</g>
</g>
<!-- Node4 -->
<g id="Node000004" class="node">
<title>Node4</title>
<g id="a_Node000004"><a xlink:href="_action_8h.html" target="_top" xlink:title=" ">
<polygon fill="#fff0f0" stroke="red" points="1066.4,-156 937.9,-156 937.9,-124 1066.4,-124 1066.4,-156"/>
<text text-anchor="start" x="945.9" y="-142.5" font-family="Helvetica,sans-Serif" font-size="10.00">FIEAGameEngine/include</text>
<text text-anchor="middle" x="1002.15" y="-130.5" font-family="Helvetica,sans-Serif" font-size="10.00">/Content/Actions/Action.h</text>
</a>
</g>
</g>
<!-- Node3&#45;&gt;Node4 -->
<g id="edge3_Node000003_Node000004" class="edge">
<title>Node3&#45;&gt;Node4</title>
<g id="a_edge3_Node000003_Node000004"><a xlink:title=" ">
<path fill="none" stroke="#63b8ff" d="M1009.35,-180.6C1007.85,-172.32 1006.24,-163.46 1004.92,-156.22"/>
<polygon fill="#63b8ff" stroke="#63b8ff" points="1005.87,-180.99 1011.1,-190.2 1012.75,-179.74 1005.87,-180.99"/>
</a>
</g>
</g>
<!-- Node23 -->
<g id="Node000023" class="node">
<title>Node23</title>
<g id="a_Node000023"><a xlink:href="_game_object_8h.html" target="_top" xlink:title=" ">
<polygon fill="#fff0f0" stroke="red" points="1066.4,-88 937.9,-88 937.9,-56 1066.4,-56 1066.4,-88"/>
<text text-anchor="start" x="945.9" y="-74.5" font-family="Helvetica,sans-Serif" font-size="10.00">FIEAGameEngine/include</text>
<text text-anchor="middle" x="1002.15" y="-62.5" font-family="Helvetica,sans-Serif" font-size="10.00">/Content/GameObject.h</text>
</a>
</g>
</g>
<!-- Node3&#45;&gt;Node23 -->
<g id="edge6_Node000003_Node000023" class="edge">
<title>Node3&#45;&gt;Node23</title>
<g id="a_edge6_Node000003_Node000023"><a xlink:title=" ">
<path fill="none" stroke="#63b8ff" d="M1050.85,-184.96C1060.57,-177.14 1069.83,-167.39 1075.15,-156 1081.18,-143.12 1081.73,-136.61 1075.15,-124 1067.08,-108.51 1051.91,-96.76 1037.48,-88.46"/>
<polygon fill="#63b8ff" stroke="#63b8ff" points="1049.05,-181.93 1043.11,-190.7 1053.22,-187.56 1049.05,-181.93"/>
</a>
</g>
</g>
<!-- Node3&#45;&gt;Node30 -->
<g id="edge7_Node000003_Node000030" class="edge">
<title>Node3&#45;&gt;Node30</title>
<g id="a_edge7_Node000003_Node000030"><a xlink:title=" ">
<path fill="none" stroke="#63b8ff" d="M1079.84,-188.47C1115.59,-178.39 1159.31,-166.06 1193.23,-156.49"/>
<polygon fill="#63b8ff" stroke="#63b8ff" points="1079.15,-185.03 1070.47,-191.12 1081.05,-191.77 1079.15,-185.03"/>
</a>
</g>
</g>
<!-- Node31 -->
<g id="Node000031" class="node">
<title>Node31</title>
<g id="a_Node000031"><a xlink:href="_attributed_8cpp.html" target="_top" xlink:title=" ">
<polygon fill="white" stroke="#666666" points="1252.65,-88 1137.65,-88 1137.65,-56 1252.65,-56 1252.65,-88"/>
<text text-anchor="start" x="1145.65" y="-74.5" font-family="Helvetica,sans-Serif" font-size="10.00">FIEAGameEngine/src</text>
<text text-anchor="middle" x="1195.15" y="-62.5" font-family="Helvetica,sans-Serif" font-size="10.00">/content/Attributed.cpp</text>
</a>
</g>
</g>
<!-- Node3&#45;&gt;Node31 -->
<g id="edge9_Node000003_Node000031" class="edge">
<title>Node3&#45;&gt;Node31</title>
<g id="a_edge9_Node000003_Node000031"><a xlink:title=" ">
<path fill="none" stroke="#63b8ff" d="M1047.94,-185.55C1061.55,-176.67 1077.28,-166.1 1091.15,-156 1122.16,-133.43 1156.68,-105.23 1177.12,-88.19"/>
<polygon fill="#63b8ff" stroke="#63b8ff" points="1046.22,-182.49 1039.73,-190.86 1050.03,-188.37 1046.22,-182.49"/>
</a>
</g>
</g>
<!-- Node33 -->
<g id="Node000033" class="node">
<title>Node33</title>
<g id="a_Node000033"><a xlink:href="_attribute_box_8h.html" target="_top" xlink:title=" ">
<polygon fill="#fff0f0" stroke="red" points="688.15,-150 546.15,-150 546.15,-130 688.15,-130 688.15,-150"/>
<text text-anchor="middle" x="617.15" y="-136.5" font-family="Helvetica,sans-Serif" font-size="10.00">Tests/Support/AttributeBox.h</text>
</a>
</g>
</g>
<!-- Node3&#45;&gt;Node33 -->
<g id="edge10_Node000003_Node000033" class="edge">
<title>Node3&#45;&gt;Node33</title>
<g id="a_edge10_Node000003_Node000033"><a xlink:title=" ">
<path fill="none" stroke="#63b8ff" d="M938.42,-194.41C861.32,-181.59 743.56,-162.01 674.07,-150.46"/>
<polygon fill="#63b8ff" stroke="#63b8ff" points="937.55,-197.81 947.99,-196 938.7,-190.91 937.55,-197.81"/>
</a>
</g>
</g>
<!-- Node4&#45;&gt;Node23 -->
<g id="edge4_Node000004_Node000023" class="edge">
<title>Node4&#45;&gt;Node23</title>
<g id="a_edge4_Node000004_Node000023"><a xlink:title=" ">
<path fill="none" stroke="#63b8ff" d="M1002.15,-112.31C1002.15,-104.12 1002.15,-95.38 1002.15,-88.22"/>
<polygon fill="#63b8ff" stroke="#63b8ff" points="998.65,-112.18 1002.15,-122.18 1005.65,-112.18 998.65,-112.18"/>
</a>
</g>
</g>
<!-- Node26 -->
<g id="Node000026" class="node">
<title>Node26</title>
<g id="a_Node000026"><a xlink:href="_factory_tests_8cpp.html" target="_top" xlink:title=" ">
<polygon fill="white" stroke="#666666" points="577.53,-20 458.78,-20 458.78,0 577.53,0 577.53,-20"/>
<text text-anchor="middle" x="518.15" y="-6.5" font-family="Helvetica,sans-Serif" font-size="10.00">Tests/FactoryTests.cpp</text>
</a>
</g>
</g>
<!-- Node23&#45;&gt;Node26 -->
<g id="edge5_Node000023_Node000026" class="edge">
<title>Node23&#45;&gt;Node26</title>
<g id="a_edge5_Node000023_Node000026"><a xlink:title=" ">
<path fill="none" stroke="#63b8ff" d="M926.21,-56.31C925.52,-56.21 924.84,-56.1 924.15,-56 801.62,-37.46 657.19,-23.26 577.86,-16.12"/>
<polygon fill="#63b8ff" stroke="#63b8ff" points="925.6,-59.76 936.03,-57.92 926.73,-52.85 925.6,-59.76"/>
</a>
</g>
</g>
<!-- Node30&#45;&gt;Node31 -->
<g id="edge8_Node000030_Node000031" class="edge">
<title>Node30&#45;&gt;Node31</title>
<g id="a_edge8_Node000030_Node000031"><a xlink:title=" ">
<path fill="none" stroke="#63b8ff" d="M1228.78,-114.87C1221.62,-105.96 1213.72,-96.12 1207.38,-88.22"/>
<polygon fill="#63b8ff" stroke="#63b8ff" points="1225.92,-116.91 1234.91,-122.51 1231.38,-112.52 1225.92,-116.91"/>
</a>
</g>
</g>
<!-- Node40 -->
<g id="Node000040" class="node">
<title>Node40</title>
<g id="a_Node000040"><a xlink:href="_datum_8inl.html" target="_top" xlink:title=" ">
<polygon fill="white" stroke="#666666" points="1042.4,-292 913.9,-292 913.9,-260 1042.4,-260 1042.4,-292"/>
<text text-anchor="start" x="921.9" y="-278.5" font-family="Helvetica,sans-Serif" font-size="10.00">FIEAGameEngine/include</text>
<text text-anchor="middle" x="978.15" y="-266.5" font-family="Helvetica,sans-Serif" font-size="10.00">/Content/Datum.inl</text>
</a>
</g>
</g>
<!-- Node39&#45;&gt;Node40 -->
<g id="edge12_Node000039_Node000040" class="edge">
<title>Node39&#45;&gt;Node40</title>
<g id="a_edge12_Node000039_Node000040"><a xlink:title=" ">
<path fill="none" stroke="#63b8ff" d="M930.07,-319.21C938.37,-310.3 948.34,-300.42 957.12,-292.45"/>
<polygon fill="#63b8ff" stroke="#63b8ff" points="927.54,-316.8 923.44,-326.57 932.74,-321.48 927.54,-316.8"/>
</a>
</g>
</g>
<!-- Node39&#45;&gt;Node41 -->
<g id="edge14_Node000039_Node000041" class="edge">
<title>Node39&#45;&gt;Node41</title>
<g id="a_edge14_Node000039_Node000041"><a xlink:title=" ">
<path fill="none" stroke="#63b8ff" d="M859.31,-323.69C831.62,-313.76 798.33,-301.81 772.34,-292.49"/>
<polygon fill="#63b8ff" stroke="#63b8ff" points="857.99,-326.93 868.59,-327.01 860.36,-320.34 857.99,-326.93"/>
</a>
</g>
</g>
<!-- Node43 -->
<g id="Node000043" class="node">
<title>Node43</title>
<g id="a_Node000043"><a xlink:href="_datum_8cpp.html" target="_top" xlink:title=" ">
<polygon fill="white" stroke="#666666" points="1207.78,-224 1096.53,-224 1096.53,-192 1207.78,-192 1207.78,-224"/>
<text text-anchor="start" x="1104.53" y="-210.5" font-family="Helvetica,sans-Serif" font-size="10.00">FIEAGameEngine/src</text>
<text text-anchor="middle" x="1152.15" y="-198.5" font-family="Helvetica,sans-Serif" font-size="10.00">/content/Datum.cpp</text>
</a>
</g>
</g>
<!-- Node39&#45;&gt;Node43 -->
<g id="edge28_Node000039_Node000043" class="edge">
<title>Node39&#45;&gt;Node43</title>
<g id="a_edge28_Node000039_Node000043"><a xlink:title=" ">
<path fill="none" stroke="#63b8ff" d="M901.8,-317.01C895.89,-299.05 892.28,-275.67 905.15,-260 957.5,-196.29 1006.53,-241.27 1087.15,-224 1090.1,-223.37 1093.11,-222.71 1096.16,-222.04"/>
<polygon fill="#63b8ff" stroke="#63b8ff" points="898.46,-318.06 905.23,-326.21 905.02,-315.62 898.46,-318.06"/>
</a>
</g>
</g>
<!-- Node40&#45;&gt;Node39 -->
<g id="edge13_Node000040_Node000039" class="edge">
<title>Node40&#45;&gt;Node39</title>
<g id="a_edge13_Node000040_Node000039"><a xlink:title=" ">
<path fill="none" stroke="#63b8ff" d="M961.27,-300.76C952.91,-309.73 942.86,-319.7 934.03,-327.69"/>
<polygon fill="#63b8ff" stroke="#63b8ff" points="963.85,-303.12 967.94,-293.35 958.64,-298.44 963.85,-303.12"/>
</a>
</g>
</g>
<!-- Node41&#45;&gt;Node3 -->
<g id="edge15_Node000041_Node000003" class="edge">
<title>Node41&#45;&gt;Node3</title>
<g id="a_edge15_Node000041_Node000003"><a xlink:title=" ">
<path fill="none" stroke="#63b8ff" d="M805.03,-257.43C850.16,-246.98 906.79,-233.86 949.74,-223.92"/>
<polygon fill="#63b8ff" stroke="#63b8ff" points="804.25,-254.02 795.3,-259.68 805.83,-260.84 804.25,-254.02"/>
</a>
</g>
</g>
<!-- Node41&#45;&gt;Node26 -->
<g id="edge21_Node000041_Node000026" class="edge">
<title>Node41&#45;&gt;Node26</title>
<g id="a_edge21_Node000041_Node000026"><a xlink:title=" ">
<path fill="none" stroke="#63b8ff" d="M804.98,-266.38C863.59,-256.28 930.5,-235.07 903.15,-192 831.11,-78.52 666.91,-34.91 578,-19.18"/>
<polygon fill="#63b8ff" stroke="#63b8ff" points="804.58,-262.9 795.27,-267.96 805.7,-269.81 804.58,-262.9"/>
</a>
</g>
</g>
<!-- Node41&#45;&gt;Node33 -->
<g id="edge24_Node000041_Node000033" class="edge">
<title>Node41&#45;&gt;Node33</title>
<g id="a_edge24_Node000041_Node000033"><a xlink:title=" ">
<path fill="none" stroke="#63b8ff" d="M736.58,-248.43C739.83,-231.02 740.83,-208.52 730.15,-192 716.08,-170.21 690.22,-157.64 666.79,-150.43"/>
<polygon fill="#63b8ff" stroke="#63b8ff" points="733.2,-247.53 734.42,-258.05 740.02,-249.06 733.2,-247.53"/>
</a>
</g>
</g>
<!-- Node42 -->
<g id="Node000042" class="node">
<title>Node42</title>
<g id="a_Node000042"><a xlink:href="_factory_service_8cpp.html" target="_top" xlink:title=" ">
<polygon fill="white" stroke="#666666" points="687.78,-224 576.53,-224 576.53,-192 687.78,-192 687.78,-224"/>
<text text-anchor="start" x="584.53" y="-210.5" font-family="Helvetica,sans-Serif" font-size="10.00">FIEAGameEngine/src</text>
<text text-anchor="middle" x="632.15" y="-198.5" font-family="Helvetica,sans-Serif" font-size="10.00">/FactoryService.cpp</text>
</a>
</g>
</g>
<!-- Node41&#45;&gt;Node42 -->
<g id="edge16_Node000041_Node000042" class="edge">
<title>Node41&#45;&gt;Node42</title>
<g id="a_edge16_Node000041_Node000042"><a xlink:title=" ">
<path fill="none" stroke="#63b8ff" d="M697.44,-253.42C683.54,-243.96 667.54,-233.08 654.87,-224.45"/>
<polygon fill="#63b8ff" stroke="#63b8ff" points="695.17,-256.11 705.4,-258.84 699.11,-250.32 695.17,-256.11"/>
</a>
</g>
</g>
<!-- Node41&#45;&gt;Node43 -->
<g id="edge17_Node000041_Node000043" class="edge">
<title>Node41&#45;&gt;Node43</title>
<g id="a_edge17_Node000041_Node000043"><a xlink:title=" ">
<path fill="none" stroke="#63b8ff" d="M805.09,-266.09C877.76,-257.11 990.34,-242.03 1087.15,-224 1090.11,-223.45 1093.14,-222.85 1096.2,-222.23"/>
<polygon fill="#63b8ff" stroke="#63b8ff" points="804.77,-262.6 795.27,-267.29 805.63,-269.55 804.77,-262.6"/>
</a>
</g>
</g>
<!-- Node44 -->
<g id="Node000044" class="node">
<title>Node44</title>
<g id="a_Node000044"><a xlink:href="_scope_8cpp.html" target="_top" xlink:title=" ">
<polygon fill="white" stroke="#666666" points="893.78,-224 782.53,-224 782.53,-192 893.78,-192 893.78,-224"/>
<text text-anchor="start" x="790.53" y="-210.5" font-family="Helvetica,sans-Serif" font-size="10.00">FIEAGameEngine/src</text>
<text text-anchor="middle" x="838.15" y="-198.5" font-family="Helvetica,sans-Serif" font-size="10.00">/content/Scope.cpp</text>
</a>
</g>
</g>
<!-- Node41&#45;&gt;Node44 -->
<g id="edge18_Node000041_Node000044" class="edge">
<title>Node41&#45;&gt;Node44</title>
<g id="a_edge18_Node000041_Node000044"><a xlink:title=" ">
<path fill="none" stroke="#63b8ff" d="M764.17,-253.8C779.98,-244.23 798.3,-233.13 812.76,-224.38"/>
<polygon fill="#63b8ff" stroke="#63b8ff" points="762.75,-250.57 756,-258.74 766.37,-256.56 762.75,-250.57"/>
</a>
</g>
</g>
<!-- Node45 -->
<g id="Node000045" class="node">
<title>Node45</title>
<g id="a_Node000045"><a xlink:href="_scope_writer_8h.html" target="_top" xlink:title=" ">
<polygon fill="#fff0f0" stroke="red" points="1380.03,-224 1264.28,-224 1264.28,-192 1380.03,-192 1380.03,-224"/>
<text text-anchor="start" x="1272.28" y="-210.5" font-family="Helvetica,sans-Serif" font-size="10.00">FIEAGameEngine/src</text>
<text text-anchor="middle" x="1322.15" y="-198.5" font-family="Helvetica,sans-Serif" font-size="10.00">/content/ScopeWriter.h</text>
</a>
</g>
</g>
<!-- Node41&#45;&gt;Node45 -->
<g id="edge19_Node000041_Node000045" class="edge">
<title>Node41&#45;&gt;Node45</title>
<g id="a_edge19_Node000041_Node000045"><a xlink:title=" ">
<path fill="none" stroke="#63b8ff" d="M804.91,-267.98C900.95,-258.87 1071.54,-242 1217.15,-224 1232.32,-222.12 1248.69,-219.89 1263.89,-217.72"/>
<polygon fill="#63b8ff" stroke="#63b8ff" points="804.71,-264.48 795.09,-268.91 805.37,-271.45 804.71,-264.48"/>
</a>
</g>
</g>
<!-- Node55 -->
<g id="Node000055" class="node">
<title>Node55</title>
<g id="a_Node000055"><a xlink:href="_datum_test_8cpp.html" target="_top" xlink:title=" ">
<polygon fill="white" stroke="#666666" points="168.03,-218 58.28,-218 58.28,-198 168.03,-198 168.03,-218"/>
<text text-anchor="middle" x="113.15" y="-204.5" font-family="Helvetica,sans-Serif" font-size="10.00">Tests/DatumTest.cpp</text>
</a>
</g>
</g>
<!-- Node41&#45;&gt;Node55 -->
<g id="edge20_Node000041_Node000055" class="edge">
<title>Node41&#45;&gt;Node55</title>
<g id="a_edge20_Node000041_Node000055"><a xlink:title=" ">
<path fill="none" stroke="#63b8ff" d="M653.33,-271.32C546.55,-265.37 346.03,-251.46 177.15,-224 168.14,-222.53 158.51,-220.52 149.53,-218.44"/>
<polygon fill="#63b8ff" stroke="#63b8ff" points="652.93,-274.8 663.11,-271.85 653.32,-267.81 652.93,-274.8"/>
</a>
</g>
</g>
<!-- Node56 -->
<g id="Node000056" class="node">
<title>Node56</title>
<g id="a_Node000056"><a xlink:href="_r_t_t_i_test_8cpp.html" target="_top" xlink:title=" ">
<polygon fill="white" stroke="#666666" points="288.28,-218 186.03,-218 186.03,-198 288.28,-198 288.28,-218"/>
<text text-anchor="middle" x="237.15" y="-204.5" font-family="Helvetica,sans-Serif" font-size="10.00">Tests/RTTITest.cpp</text>
</a>
</g>
</g>
<!-- Node41&#45;&gt;Node56 -->
<g id="edge22_Node000041_Node000056" class="edge">
<title>Node41&#45;&gt;Node56</title>
<g id="a_edge22_Node000041_Node000056"><a xlink:title=" ">
<path fill="none" stroke="#63b8ff" d="M653.23,-264.81C552.05,-251.24 375.69,-227.58 288.69,-215.91"/>
<polygon fill="#63b8ff" stroke="#63b8ff" points="652.7,-268.28 663.08,-266.14 653.63,-261.34 652.7,-268.28"/>
</a>
</g>
</g>
<!-- Node57 -->
<g id="Node000057" class="node">
<title>Node57</title>
<g id="a_Node000057"><a xlink:href="_scope_test_8cpp.html" target="_top" xlink:title=" ">
<polygon fill="white" stroke="#666666" points="490.28,-150 382.03,-150 382.03,-130 490.28,-130 490.28,-150"/>
<text text-anchor="middle" x="436.15" y="-136.5" font-family="Helvetica,sans-Serif" font-size="10.00">Tests/ScopeTest.cpp</text>
</a>
</g>
</g>
<!-- Node41&#45;&gt;Node57 -->
<g id="edge23_Node000041_Node000057" class="edge">
<title>Node41&#45;&gt;Node57</title>
<g id="a_edge23_Node000041_Node000057"><a xlink:title=" ">
<path fill="none" stroke="#63b8ff" d="M725.69,-248.31C721.86,-229.78 713.85,-206 697.15,-192 689.24,-185.36 564.79,-163.07 490.64,-150.26"/>
<polygon fill="#63b8ff" stroke="#63b8ff" points="722.23,-248.83 727.39,-258.08 729.12,-247.63 722.23,-248.83"/>
</a>
</g>
</g>
<!-- Node41&#45;&gt;Node58 -->
<g id="edge25_Node000041_Node000058" class="edge">
<title>Node41&#45;&gt;Node58</title>
<g id="a_edge25_Node000041_Node000058"><a xlink:title=" ">
<path fill="none" stroke="#63b8ff" d="M653.71,-257.09C601.13,-244.61 533.11,-228.46 490.8,-218.41"/>
<polygon fill="#63b8ff" stroke="#63b8ff" points="652.67,-260.44 663.2,-259.34 654.28,-253.63 652.67,-260.44"/>
</a>
</g>
</g>
<!-- Node58&#45;&gt;Node26 -->
<g id="edge26_Node000058_Node000026" class="edge">
<title>Node58&#45;&gt;Node26</title>
<g id="a_edge26_Node000058_Node000026"><a xlink:title=" ">
<path fill="none" stroke="#63b8ff" d="M472.25,-190.15C482.07,-181.1 492.93,-169.12 499.15,-156 521.45,-108.97 520.22,-44.28 518.85,-20.37"/>
<polygon fill="#63b8ff" stroke="#63b8ff" points="470.09,-187.39 464.83,-196.59 474.67,-192.68 470.09,-187.39"/>
</a>
</g>
</g>
<!-- Node58&#45;&gt;Node57 -->
<g id="edge27_Node000058_Node000057" class="edge">
<title>Node58&#45;&gt;Node57</title>
<g id="a_edge27_Node000058_Node000057"><a xlink:title=" ">
<path fill="none" stroke="#63b8ff" d="M446.53,-186.65C443.79,-174.58 440.44,-159.84 438.3,-150.44"/>
<polygon fill="#63b8ff" stroke="#63b8ff" points="443.04,-187.09 448.67,-196.07 449.87,-185.54 443.04,-187.09"/>
</a>
</g>
</g>
<!-- Node60&#45;&gt;Node45 -->
<g id="edge35_Node000060_Node000045" class="edge">
<title>Node60&#45;&gt;Node45</title>
<g id="a_edge35_Node000060_Node000045"><a xlink:title=" ">
<path fill="none" stroke="#63b8ff" d="M1475.24,-256.21C1442.7,-246.18 1403.14,-233.98 1372.38,-224.49"/>
<polygon fill="#63b8ff" stroke="#63b8ff" points="1473.95,-259.48 1484.53,-259.08 1476.01,-252.79 1473.95,-259.48"/>
</a>
</g>
</g>
<!-- Node61 -->
<g id="Node000061" class="node">
<title>Node61</title>
<g id="a_Node000061"><a xlink:href="_i_parse_handler_8h.html" target="_top" xlink:title=" ">
<polygon fill="#fff0f0" stroke="red" points="1526.4,-224 1397.9,-224 1397.9,-192 1526.4,-192 1526.4,-224"/>
<text text-anchor="start" x="1405.9" y="-210.5" font-family="Helvetica,sans-Serif" font-size="10.00">FIEAGameEngine/include</text>
<text text-anchor="middle" x="1462.15" y="-198.5" font-family="Helvetica,sans-Serif" font-size="10.00">/Content/IParseHandler.h</text>
</a>
</g>
</g>
<!-- Node60&#45;&gt;Node61 -->
<g id="edge30_Node000060_Node000061" class="edge">
<title>Node60&#45;&gt;Node61</title>
<g id="a_edge30_Node000060_Node000061"><a xlink:title=" ">
<path fill="none" stroke="#63b8ff" d="M1510.42,-252.05C1500.19,-242.92 1488.69,-232.67 1479.48,-224.45"/>
<polygon fill="#63b8ff" stroke="#63b8ff" points="1508.07,-254.64 1517.86,-258.68 1512.73,-249.42 1508.07,-254.64"/>
</a>
</g>
</g>
<!-- Node72 -->
<g id="Node000072" class="node">
<title>Node72</title>
<g id="a_Node000072"><a xlink:href="_parser_8h.html" target="_top" xlink:title=" ">
<polygon fill="#fff0f0" stroke="red" points="1638.78,-156 1527.53,-156 1527.53,-124 1638.78,-124 1638.78,-156"/>
<text text-anchor="start" x="1535.53" y="-142.5" font-family="Helvetica,sans-Serif" font-size="10.00">FIEAGameEngine/src</text>
<text text-anchor="middle" x="1583.15" y="-130.5" font-family="Helvetica,sans-Serif" font-size="10.00">/content/Parser.h</text>
</a>
</g>
</g>
<!-- Node60&#45;&gt;Node72 -->
<g id="edge34_Node000060_Node000072" class="edge">
<title>Node60&#45;&gt;Node72</title>
<g id="a_edge34_Node000060_Node000072"><a xlink:title=" ">
<path fill="none" stroke="#63b8ff" d="M1611.68,-267.44C1639.42,-260.57 1668.17,-247.76 1685.15,-224 1693.42,-212.43 1692.63,-204.1 1685.15,-192 1674.74,-175.16 1656.9,-163.69 1639.03,-155.97"/>
<polygon fill="#63b8ff" stroke="#63b8ff" points="1611.19,-263.96 1602.19,-269.54 1612.71,-270.79 1611.19,-263.96"/>
</a>
</g>
</g>
<!-- Node74 -->
<g id="Node000074" class="node">
<title>Node74</title>
<g id="a_Node000074"><a xlink:href="_parse_writer_8cpp.html" target="_top" xlink:title=" ">
<polygon fill="white" stroke="#666666" points="1856.15,-224 1732.15,-224 1732.15,-192 1856.15,-192 1856.15,-224"/>
<text text-anchor="start" x="1740.15" y="-210.5" font-family="Helvetica,sans-Serif" font-size="10.00">FIEAGameEngine/src</text>
<text text-anchor="middle" x="1794.15" y="-198.5" font-family="Helvetica,sans-Serif" font-size="10.00">/content/ParseWriter.cpp</text>
</a>
</g>
</g>
<!-- Node60&#45;&gt;Node74 -->
<g id="edge33_Node000060_Node000074" class="edge">
<title>Node60&#45;&gt;Node74</title>
<g id="a_edge33_Node000060_Node000074"><a xlink:title=" ">
<path fill="none" stroke="#63b8ff" d="M1607.55,-256.73C1647.16,-246.6 1695.87,-234.14 1733.6,-224.49"/>
<polygon fill="#63b8ff" stroke="#63b8ff" points="1606.93,-253.28 1598.11,-259.15 1608.66,-260.06 1606.93,-253.28"/>
</a>
</g>
</g>
<!-- Node75 -->
<g id="Node000075" class="node">
<title>Node75</title>
<g id="a_Node000075"><a xlink:href="_test_writer_8h.html" target="_top" xlink:title=" ">
<polygon fill="#fff0f0" stroke="red" points="1676.28,-218 1544.03,-218 1544.03,-198 1676.28,-198 1676.28,-218"/>
<text text-anchor="middle" x="1610.15" y="-204.5" font-family="Helvetica,sans-Serif" font-size="10.00">Tests/Support/TestWriter.h</text>
</a>
</g>
</g>
<!-- Node60&#45;&gt;Node75 -->
<g id="edge36_Node000060_Node000075" class="edge">
<title>Node60&#45;&gt;Node75</title>
<g id="a_edge36_Node000060_Node000075"><a xlink:title=" ">
<path fill="none" stroke="#63b8ff" d="M1561.89,-252.04C1574.88,-240.46 1589.92,-227.05 1599.71,-218.32"/>
<polygon fill="#63b8ff" stroke="#63b8ff" points="1559.58,-249.42 1554.45,-258.68 1564.24,-254.64 1559.58,-249.42"/>
</a>
</g>
</g>
<!-- Node61&#45;&gt;Node30 -->
<g id="edge31_Node000061_Node000030" class="edge">
<title>Node61&#45;&gt;Node30</title>
<g id="a_edge31_Node000061_Node000030"><a xlink:title=" ">
<path fill="none" stroke="#63b8ff" d="M1401.24,-188.21C1368.7,-178.18 1329.14,-165.98 1298.38,-156.49"/>
<polygon fill="#63b8ff" stroke="#63b8ff" points="1399.95,-191.48 1410.53,-191.08 1402.01,-184.79 1399.95,-191.48"/>
</a>
</g>
</g>
<!-- Node61&#45;&gt;Node72 -->
<g id="edge32_Node000061_Node000072" class="edge">
<title>Node61&#45;&gt;Node72</title>
<g id="a_edge32_Node000061_Node000072"><a xlink:title=" ">
<path fill="none" stroke="#63b8ff" d="M1500.53,-186.07C1518.19,-176.44 1538.76,-165.21 1554.96,-156.38"/>
<polygon fill="#63b8ff" stroke="#63b8ff" points="1498.95,-182.94 1491.85,-190.8 1502.31,-189.09 1498.95,-182.94"/>
</a>
</g>
</g>
<!-- Node77&#45;&gt;Node26 -->
<g id="edge42_Node000077_Node000026" class="edge">
<title>Node77&#45;&gt;Node26</title>
<g id="a_edge42_Node000077_Node000026"><a xlink:title=" ">
<path fill="none" stroke="#63b8ff" d="M511.82,-323.79C463.7,-306.3 402.78,-275.2 373.15,-224 350.9,-185.53 353.65,-163.93 373.15,-124 398.86,-71.38 462.21,-36.14 496.04,-20.39"/>
<polygon fill="#63b8ff" stroke="#63b8ff" points="510.48,-327.03 521.07,-327.03 512.79,-320.42 510.48,-327.03"/>
</a>
</g>
</g>
<!-- Node77&#45;&gt;Node33 -->
<g id="edge43_Node000077_Node000033" class="edge">
<title>Node77&#45;&gt;Node33</title>
<g id="a_edge43_Node000077_Node000033"><a xlink:title=" ">
<path fill="none" stroke="#63b8ff" d="M570.91,-317C561.44,-286.01 550.3,-233.26 567.15,-192 574.37,-174.32 591,-159.46 603.1,-150.42"/>
<polygon fill="#63b8ff" stroke="#63b8ff" points="567.51,-317.87 573.92,-326.3 574.17,-315.71 567.51,-317.87"/>
</a>
</g>
</g>
<!-- Node77&#45;&gt;Node41 -->
<g id="edge40_Node000077_Node000041" class="edge">
<title>Node77&#45;&gt;Node41</title>
<g id="a_edge40_Node000077_Node000041"><a xlink:title=" ">
<path fill="none" stroke="#63b8ff" d="M625.55,-322.89C647.6,-313.12 673.7,-301.56 694.18,-292.49"/>
<polygon fill="#63b8ff" stroke="#63b8ff" points="624.2,-319.66 616.47,-326.91 627.03,-326.06 624.2,-319.66"/>
</a>
</g>
</g>
<!-- Node77&#45;&gt;Node42 -->
<g id="edge41_Node000077_Node000042" class="edge">
<title>Node77&#45;&gt;Node42</title>
<g id="a_edge41_Node000077_Node000042"><a xlink:title=" ">
<path fill="none" stroke="#63b8ff" d="M590.17,-317.19C600.87,-289.6 617.48,-246.8 626.26,-224.19"/>
<polygon fill="#63b8ff" stroke="#63b8ff" points="587.02,-315.63 586.67,-326.22 593.55,-318.16 587.02,-315.63"/>
</a>
</g>
</g>
<!-- Node77&#45;&gt;Node58 -->
<g id="edge44_Node000077_Node000058" class="edge">
<title>Node77&#45;&gt;Node58</title>
<g id="a_edge44_Node000077_Node000058"><a xlink:title=" ">
<path fill="none" stroke="#63b8ff" d="M557.41,-319.38C528.48,-289.33 479.91,-238.87 460.03,-218.22"/>
<polygon fill="#63b8ff" stroke="#63b8ff" points="554.85,-321.76 564.31,-326.54 559.89,-316.91 554.85,-321.76"/>
</a>
</g>
</g>
<!-- Node79&#45;&gt;Node55 -->
<g id="edge48_Node000079_Node000055" class="edge">
<title>Node79&#45;&gt;Node55</title>
<g id="a_edge48_Node000079_Node000055"><a xlink:title=" ">
<path fill="none" stroke="#63b8ff" d="M161.03,-257.61C148.68,-245.07 132.48,-228.63 122.45,-218.44"/>
<polygon fill="#63b8ff" stroke="#63b8ff" points="158.27,-259.8 167.78,-264.47 163.26,-254.88 158.27,-259.8"/>
</a>
</g>
</g>
<!-- Node79&#45;&gt;Node56 -->
<g id="edge49_Node000079_Node000056" class="edge">
<title>Node79&#45;&gt;Node56</title>
<g id="a_edge49_Node000079_Node000056"><a xlink:title=" ">
<path fill="none" stroke="#63b8ff" d="M194.02,-257.25C205.19,-244.76 219.7,-228.53 228.72,-218.44"/>
<polygon fill="#63b8ff" stroke="#63b8ff" points="191.67,-254.63 187.62,-264.42 196.89,-259.29 191.67,-254.63"/>
</a>
</g>
</g>
<!-- Node81&#45;&gt;Node33 -->
<g id="edge53_Node000081_Node000033" class="edge">
<title>Node81&#45;&gt;Node33</title>
<g id="a_edge53_Node000081_Node000033"><a xlink:title=" ">
<path fill="none" stroke="#63b8ff" d="M316.42,-255.71C327.71,-236.46 347.68,-207.58 373.15,-192 401.67,-174.56 484.64,-159.59 545.95,-150.47"/>
<polygon fill="#63b8ff" stroke="#63b8ff" points="313.51,-253.75 311.67,-264.19 319.62,-257.17 313.51,-253.75"/>
</a>
</g>
</g>
<!-- Node81&#45;&gt;Node55 -->
<g id="edge51_Node000081_Node000055" class="edge">
<title>Node81&#45;&gt;Node55</title>
<g id="a_edge51_Node000081_Node000055"><a xlink:title=" ">
<path fill="none" stroke="#63b8ff" d="M267.98,-261.95C230.47,-249.12 174.12,-229.85 140.75,-218.44"/>
<polygon fill="#63b8ff" stroke="#63b8ff" points="266.47,-265.13 277.07,-265.05 268.74,-258.51 266.47,-265.13"/>
</a>
</g>
</g>
<!-- Node81&#45;&gt;Node56 -->
<g id="edge52_Node000081_Node000056" class="edge">
<title>Node81&#45;&gt;Node56</title>
<g id="a_edge52_Node000081_Node000056"><a xlink:title=" ">
<path fill="none" stroke="#63b8ff" d="M287.98,-257.61C274.87,-245.07 257.67,-228.63 247.02,-218.44"/>
<polygon fill="#63b8ff" stroke="#63b8ff" points="285.53,-260.11 295.17,-264.5 290.37,-255.06 285.53,-260.11"/>
</a>
</g>
</g>
<!-- Node88&#45;&gt;Node26 -->
<g id="edge57_Node000088_Node000026" class="edge">
<title>Node88&#45;&gt;Node26</title>
<g id="a_edge57_Node000088_Node000026"><a xlink:title=" ">
<path fill="none" stroke="#63b8ff" d="M24.53,-257.6C9.05,-240.16 -8.95,-212.95 5.15,-192 106.82,-41 346.21,-14.77 458.3,-11.03"/>
<polygon fill="#63b8ff" stroke="#63b8ff" points="21.76,-259.77 31.16,-264.65 26.85,-254.97 21.76,-259.77"/>
</a>
</g>
</g>
<!-- Node88&#45;&gt;Node33 -->
<g id="edge60_Node000088_Node000033" class="edge">
<title>Node88&#45;&gt;Node33</title>
<g id="a_edge60_Node000088_Node000033"><a xlink:title=" ">
<path fill="none" stroke="#63b8ff" d="M37.25,-254.46C34.07,-235.52 33.09,-207.99 49.15,-192 84.7,-156.61 449.26,-161.16 499.15,-156 514.66,-154.39 531.29,-152.43 547.02,-150.46"/>
<polygon fill="#63b8ff" stroke="#63b8ff" points="33.82,-255.13 39.25,-264.22 40.67,-253.72 33.82,-255.13"/>
</a>
</g>
</g>
<!-- Node88&#45;&gt;Node55 -->
<g id="edge56_Node000088_Node000055" class="edge">
<title>Node88&#45;&gt;Node55</title>
<g id="a_edge56_Node000088_Node000055"><a xlink:title=" ">
<path fill="none" stroke="#63b8ff" d="M60.47,-257.97C74.01,-245.39 91.94,-228.72 103,-218.44"/>
<polygon fill="#63b8ff" stroke="#63b8ff" points="58.38,-255.14 53.43,-264.51 63.14,-260.27 58.38,-255.14"/>
</a>
</g>
</g>
<!-- Node88&#45;&gt;Node56 -->
<g id="edge58_Node000088_Node000056" class="edge">
<title>Node88&#45;&gt;Node56</title>
<g id="a_edge58_Node000088_Node000056"><a xlink:title=" ">
<path fill="none" stroke="#63b8ff" d="M80.72,-261.95C118.63,-249.12 175.55,-229.85 209.27,-218.44"/>
<polygon fill="#63b8ff" stroke="#63b8ff" points="79.88,-258.54 71.53,-265.06 82.12,-265.17 79.88,-258.54"/>
</a>
</g>
</g>
<!-- Node88&#45;&gt;Node57 -->
<g id="edge59_Node000088_Node000057" class="edge">
<title>Node88&#45;&gt;Node57</title>
<g id="a_edge59_Node000088_Node000057"><a xlink:title=" ">
<path fill="none" stroke="#63b8ff" d="M27.24,-256.48C14.35,-238.09 0.1,-210.12 16.15,-192 40.02,-165.06 273.54,-149.48 381.69,-143.65"/>
<polygon fill="#63b8ff" stroke="#63b8ff" points="24.36,-258.46 33.16,-264.37 29.96,-254.26 24.36,-258.46"/>
</a>
</g>
</g>
</g>
</svg>
