<?xml version="1.0" encoding="UTF-8" standalone="no"?>
<!DOCTYPE svg PUBLIC "-//W3C//DTD SVG 1.1//EN"
 "http://www.w3.org/Graphics/SVG/1.1/DTD/svg11.dtd">
<!-- Generated by graphviz version 12.2.1 (20241206.2353)
 -->
<!-- Title: FIEAGameEngine/include/FIEAGameEngine/RTTI.h Pages: 1 -->
<svg width="1864pt" height="436pt"
 viewBox="0.00 0.00 1863.82 436.00" xmlns="http://www.w3.org/2000/svg" xmlns:xlink="http://www.w3.org/1999/xlink">
<g id="graph0" class="graph" transform="scale(1 1) rotate(0) translate(4 432)">
<title>FIEAGameEngine/include/FIEAGameEngine/RTTI.h</title>
<!-- Node1 -->
<g id="Node000001" class="node">
<title>Node1</title>
<g id="a_Node000001"><a xlink:title=" ">
<polygon fill="#999999" stroke="#666666" points="1037.19,-428 906.44,-428 906.44,-396 1037.19,-396 1037.19,-428"/>
<text text-anchor="start" x="914.44" y="-414.5" font-family="Helvetica,sans-Serif" font-size="10.00">FIEAGameEngine/include</text>
<text text-anchor="middle" x="971.82" y="-402.5" font-family="Helvetica,sans-Serif" font-size="10.00">/FIEAGameEngine/RTTI.h</text>
</a>
</g>
</g>
<!-- Node2 -->
<g id="Node000002" class="node">
<title>Node2</title>
<g id="a_Node000002"><a xlink:href="_attributed_8h.html" target="_top" xlink:title=" ">
<polygon fill="white" stroke="#666666" points="1078.07,-224 949.57,-224 949.57,-192 1078.07,-192 1078.07,-224"/>
<text text-anchor="start" x="957.57" y="-210.5" font-family="Helvetica,sans-Serif" font-size="10.00">FIEAGameEngine/include</text>
<text text-anchor="middle" x="1013.82" y="-198.5" font-family="Helvetica,sans-Serif" font-size="10.00">/Content/Attributed.h</text>
</a>
</g>
</g>
<!-- Node1&#45;&gt;Node2 -->
<g id="edge1_Node000001_Node000002" class="edge">
<title>Node1&#45;&gt;Node2</title>
<g id="a_edge1_Node000001_Node000002"><a xlink:title=" ">
<path fill="none" stroke="#63b8ff" d="M977.29,-384.66C986.18,-341.89 1003.49,-258.67 1010.62,-224.36"/>
<polygon fill="#63b8ff" stroke="#63b8ff" points="973.89,-383.83 975.28,-394.34 980.74,-385.26 973.89,-383.83"/>
</a>
</g>
</g>
<!-- Node29 -->
<g id="Node000029" class="node">
<title>Node29</title>
<g id="a_Node000029"><a xlink:href="_content_service_8h.html" target="_top" xlink:title=" ">
<polygon fill="#fff0f0" stroke="red" points="1408.07,-156 1231.57,-156 1231.57,-124 1408.07,-124 1408.07,-156"/>
<text text-anchor="start" x="1239.57" y="-142.5" font-family="Helvetica,sans-Serif" font-size="10.00">FIEAGameEngine/include</text>
<text text-anchor="middle" x="1319.82" y="-130.5" font-family="Helvetica,sans-Serif" font-size="10.00">/FIEAGameEngine/ContentService.h</text>
</a>
</g>
</g>
<!-- Node1&#45;&gt;Node29 -->
<g id="edge37_Node000001_Node000029" class="edge">
<title>Node1&#45;&gt;Node29</title>
<g id="a_edge37_Node000001_Node000029"><a xlink:title=" ">
<path fill="none" stroke="#63b8ff" d="M1048.87,-399.33C1140.98,-380.65 1290.28,-334.19 1350.82,-224 1363.11,-201.62 1346.42,-173.37 1333.17,-156.26"/>
<polygon fill="#63b8ff" stroke="#63b8ff" points="1048.28,-395.88 1039.14,-401.23 1049.62,-402.75 1048.28,-395.88"/>
</a>
</g>
</g>
<!-- Node38 -->
<g id="Node000038" class="node">
<title>Node38</title>
<g id="a_Node000038"><a xlink:href="_datum_8h.html" target="_top" xlink:title=" ">
<polygon fill="white" stroke="#666666" points="1128.07,-360 999.57,-360 999.57,-328 1128.07,-328 1128.07,-360"/>
<text text-anchor="start" x="1007.57" y="-346.5" font-family="Helvetica,sans-Serif" font-size="10.00">FIEAGameEngine/include</text>
<text text-anchor="middle" x="1063.82" y="-334.5" font-family="Helvetica,sans-Serif" font-size="10.00">/Content/Datum.h</text>
</a>
</g>
</g>
<!-- Node1&#45;&gt;Node38 -->
<g id="edge10_Node000001_Node000038" class="edge">
<title>Node1&#45;&gt;Node38</title>
<g id="a_edge10_Node000001_Node000038"><a xlink:title=" ">
<path fill="none" stroke="#63b8ff" d="M1002.28,-389.15C1015.37,-379.75 1030.36,-369 1042.27,-360.45"/>
<polygon fill="#63b8ff" stroke="#63b8ff" points="1000.47,-386.14 994.38,-394.81 1004.55,-391.82 1000.47,-386.14"/>
</a>
</g>
</g>
<!-- Node40 -->
<g id="Node000040" class="node">
<title>Node40</title>
<g id="a_Node000040"><a xlink:href="_scope_8h.html" target="_top" xlink:title=" ">
<polygon fill="white" stroke="#666666" points="860.07,-292 731.57,-292 731.57,-260 860.07,-260 860.07,-292"/>
<text text-anchor="start" x="739.57" y="-278.5" font-family="Helvetica,sans-Serif" font-size="10.00">FIEAGameEngine/include</text>
<text text-anchor="middle" x="795.82" y="-266.5" font-family="Helvetica,sans-Serif" font-size="10.00">/Content/Scope.h</text>
</a>
</g>
</g>
<!-- Node1&#45;&gt;Node40 -->
<g id="edge36_Node000001_Node000040" class="edge">
<title>Node1&#45;&gt;Node40</title>
<g id="a_edge36_Node000001_Node000040"><a xlink:title=" ">
<path fill="none" stroke="#63b8ff" d="M942.64,-388.79C906.86,-361.55 847.14,-316.08 816.04,-292.4"/>
<polygon fill="#63b8ff" stroke="#63b8ff" points="940.34,-391.44 950.42,-394.71 944.59,-385.87 940.34,-391.44"/>
</a>
</g>
</g>
<!-- Node57 -->
<g id="Node000057" class="node">
<title>Node57</title>
<g id="a_Node000057"><a xlink:href="_scoped_foo_8h.html" target="_top" xlink:title=" ">
<polygon fill="#fff0f0" stroke="red" points="519.57,-218 382.07,-218 382.07,-198 519.57,-198 519.57,-218"/>
<text text-anchor="middle" x="450.82" y="-204.5" font-family="Helvetica,sans-Serif" font-size="10.00">Tests/Support/ScopedFoo.h</text>
</a>
</g>
</g>
<!-- Node1&#45;&gt;Node57 -->
<g id="edge54_Node000001_Node000057" class="edge">
<title>Node1&#45;&gt;Node57</title>
<g id="a_edge54_Node000001_Node000057"><a xlink:title=" ">
<path fill="none" stroke="#63b8ff" d="M894.94,-407.93C764.69,-402.01 511.77,-387.14 481.82,-360 440.16,-322.27 445.99,-244.83 449.42,-218.22"/>
<polygon fill="#63b8ff" stroke="#63b8ff" points="894.73,-411.42 904.88,-408.37 895.04,-404.43 894.73,-411.42"/>
</a>
</g>
</g>
<!-- Node59 -->
<g id="Node000059" class="node">
<title>Node59</title>
<g id="a_Node000059"><a xlink:href="_parse_writer_8h.html" target="_top" xlink:title=" ">
<polygon fill="white" stroke="#666666" points="1600.07,-292 1471.57,-292 1471.57,-260 1600.07,-260 1600.07,-292"/>
<text text-anchor="start" x="1479.57" y="-278.5" font-family="Helvetica,sans-Serif" font-size="10.00">FIEAGameEngine/include</text>
<text text-anchor="middle" x="1535.82" y="-266.5" font-family="Helvetica,sans-Serif" font-size="10.00">/Content/ParseWriter.h</text>
</a>
</g>
</g>
<!-- Node1&#45;&gt;Node59 -->
<g id="edge28_Node000001_Node000059" class="edge">
<title>Node1&#45;&gt;Node59</title>
<g id="a_edge28_Node000001_Node000059"><a xlink:title=" ">
<path fill="none" stroke="#63b8ff" d="M1048.94,-411.34C1125.46,-409.17 1244.72,-398.95 1339.82,-360 1361.86,-350.97 1361.69,-339.02 1382.82,-328 1411.74,-312.92 1446.02,-301 1474.8,-292.49"/>
<polygon fill="#63b8ff" stroke="#63b8ff" points="1048.93,-407.84 1039.02,-411.57 1049.1,-414.83 1048.93,-407.84"/>
</a>
</g>
</g>
<!-- Node76 -->
<g id="Node000076" class="node">
<title>Node76</title>
<g id="a_Node000076"><a xlink:href="_factory_service_8h.html" target="_top" xlink:title=" ">
<polygon fill="#fff0f0" stroke="red" points="666.32,-360 491.32,-360 491.32,-328 666.32,-328 666.32,-360"/>
<text text-anchor="start" x="499.32" y="-346.5" font-family="Helvetica,sans-Serif" font-size="10.00">FIEAGameEngine/include</text>
<text text-anchor="middle" x="578.82" y="-334.5" font-family="Helvetica,sans-Serif" font-size="10.00">/FIEAGameEngine/FactoryService.h</text>
</a>
</g>
</g>
<!-- Node1&#45;&gt;Node76 -->
<g id="edge38_Node000001_Node000076" class="edge">
<title>Node1&#45;&gt;Node76</title>
<g id="a_edge38_Node000001_Node000076"><a xlink:title=" ">
<path fill="none" stroke="#63b8ff" d="M894.95,-398.09C829.38,-387.08 735.11,-371.25 666.58,-359.74"/>
<polygon fill="#63b8ff" stroke="#63b8ff" points="894.1,-401.5 904.54,-399.7 895.26,-394.59 894.1,-401.5"/>
</a>
</g>
</g>
<!-- Node77 -->
<g id="Node000077" class="node">
<title>Node77</title>
<g id="a_Node000077"><a xlink:href="_r_t_t_i_8inl.html" target="_top" xlink:title=" ">
<polygon fill="white" stroke="#666666" points="1527.44,-360 1392.19,-360 1392.19,-328 1527.44,-328 1527.44,-360"/>
<text text-anchor="start" x="1400.19" y="-346.5" font-family="Helvetica,sans-Serif" font-size="10.00">FIEAGameEngine/include</text>
<text text-anchor="middle" x="1459.82" y="-334.5" font-family="Helvetica,sans-Serif" font-size="10.00">/FIEAGameEngine/RTTI.inl</text>
</a>
</g>
</g>
<!-- Node1&#45;&gt;Node77 -->
<g id="edge44_Node000001_Node000077" class="edge">
<title>Node1&#45;&gt;Node77</title>
<g id="a_edge44_Node000001_Node000077"><a xlink:title=" ">
<path fill="none" stroke="#63b8ff" d="M1048.64,-401.87C1128.73,-392.58 1257.67,-377.13 1368.82,-360 1376.25,-358.85 1384.05,-357.55 1391.84,-356.21"/>
<polygon fill="#63b8ff" stroke="#63b8ff" points="1048.7,-398.34 1039.17,-402.97 1049.51,-405.29 1048.7,-398.34"/>
</a>
</g>
</g>
<!-- Node78 -->
<g id="Node000078" class="node">
<title>Node78</title>
<g id="a_Node000078"><a xlink:href="_r_t_t_i_8cpp.html" target="_top" xlink:title=" ">
<polygon fill="white" stroke="#666666" points="1656.44,-360 1545.19,-360 1545.19,-328 1656.44,-328 1656.44,-360"/>
<text text-anchor="start" x="1553.19" y="-346.5" font-family="Helvetica,sans-Serif" font-size="10.00">FIEAGameEngine/src</text>
<text text-anchor="middle" x="1600.82" y="-334.5" font-family="Helvetica,sans-Serif" font-size="10.00">/RTTI.cpp</text>
</a>
</g>
</g>
<!-- Node1&#45;&gt;Node78 -->
<g id="edge46_Node000001_Node000078" class="edge">
<title>Node1&#45;&gt;Node78</title>
<g id="a_edge46_Node000001_Node000078"><a xlink:title=" ">
<path fill="none" stroke="#63b8ff" d="M1048.65,-407.48C1157.75,-401.72 1363.56,-387.98 1536.82,-360 1539.41,-359.58 1542.05,-359.12 1544.71,-358.62"/>
<polygon fill="#63b8ff" stroke="#63b8ff" points="1048.75,-403.97 1038.95,-407.99 1049.12,-410.97 1048.75,-403.97"/>
</a>
</g>
</g>
<!-- Node79 -->
<g id="Node000079" class="node">
<title>Node79</title>
<g id="a_Node000079"><a xlink:href="_empty_8h.html" target="_top" xlink:title=" ">
<polygon fill="#fff0f0" stroke="red" points="235.69,-286 119.94,-286 119.94,-266 235.69,-266 235.69,-286"/>
<text text-anchor="middle" x="177.82" y="-272.5" font-family="Helvetica,sans-Serif" font-size="10.00">Tests/Support/Empty.h</text>
</a>
</g>
</g>
<!-- Node1&#45;&gt;Node79 -->
<g id="edge47_Node000001_Node000079" class="edge">
<title>Node1&#45;&gt;Node79</title>
<g id="a_edge47_Node000001_Node000079"><a xlink:title=" ">
<path fill="none" stroke="#63b8ff" d="M894.5,-408.75C748.34,-403.85 436.94,-390.14 333.82,-360 276.69,-343.3 216.56,-304.25 190.78,-286.31"/>
<polygon fill="#63b8ff" stroke="#63b8ff" points="894.38,-412.25 904.49,-409.08 894.61,-405.25 894.38,-412.25"/>
</a>
</g>
</g>
<!-- Node81 -->
<g id="Node000081" class="node">
<title>Node81</title>
<g id="a_Node000081"><a xlink:href="_foo_8h.html" target="_top" xlink:title=" ">
<polygon fill="#fff0f0" stroke="red" points="358.07,-286 253.57,-286 253.57,-266 358.07,-266 358.07,-286"/>
<text text-anchor="middle" x="305.82" y="-272.5" font-family="Helvetica,sans-Serif" font-size="10.00">Tests/Support/Foo.h</text>
</a>
</g>
</g>
<!-- Node1&#45;&gt;Node81 -->
<g id="edge50_Node000001_Node000081" class="edge">
<title>Node1&#45;&gt;Node81</title>
<g id="a_edge50_Node000001_Node000081"><a xlink:title=" ">
<path fill="none" stroke="#63b8ff" d="M895.03,-411.92C754.07,-412.4 460.36,-407.44 371.82,-360 340.33,-343.13 318.66,-304.16 310.01,-286.28"/>
<polygon fill="#63b8ff" stroke="#63b8ff" points="894.64,-415.42 904.62,-411.87 894.61,-408.42 894.64,-415.42"/>
</a>
</g>
</g>
<!-- Node88 -->
<g id="Node000088" class="node">
<title>Node88</title>
<g id="a_Node000088"><a xlink:href="_tests_8h.html" target="_top" xlink:title=" ">
<polygon fill="#fff0f0" stroke="red" points="79.44,-286 4.19,-286 4.19,-266 79.44,-266 79.44,-286"/>
<text text-anchor="middle" x="41.82" y="-272.5" font-family="Helvetica,sans-Serif" font-size="10.00">Tests/Tests.h</text>
</a>
</g>
</g>
<!-- Node1&#45;&gt;Node88 -->
<g id="edge55_Node000001_Node000088" class="edge">
<title>Node1&#45;&gt;Node88</title>
<g id="a_edge55_Node000001_Node000088"><a xlink:title=" ">
<path fill="none" stroke="#63b8ff" d="M895.02,-408.35C736.57,-402.43 378.24,-386.5 258.82,-360 182.62,-343.09 97.63,-304.32 60.68,-286.4"/>
<polygon fill="#63b8ff" stroke="#63b8ff" points="894.44,-411.84 904.56,-408.71 894.7,-404.84 894.44,-411.84"/>
</a>
</g>
</g>
<!-- Node3 -->
<g id="Node000003" class="node">
<title>Node3</title>
<g id="a_Node000003"><a xlink:href="_action_8h.html" target="_top" xlink:title=" ">
<polygon fill="#fff0f0" stroke="red" points="986.07,-156 857.57,-156 857.57,-124 986.07,-124 986.07,-156"/>
<text text-anchor="start" x="865.57" y="-142.5" font-family="Helvetica,sans-Serif" font-size="10.00">FIEAGameEngine/include</text>
<text text-anchor="middle" x="921.82" y="-130.5" font-family="Helvetica,sans-Serif" font-size="10.00">/Content/Actions/Action.h</text>
</a>
</g>
</g>
<!-- Node2&#45;&gt;Node3 -->
<g id="edge2_Node000002_Node000003" class="edge">
<title>Node2&#45;&gt;Node3</title>
<g id="a_edge2_Node000002_Node000003"><a xlink:title=" ">
<path fill="none" stroke="#63b8ff" d="M983.35,-185.15C970.26,-175.75 955.27,-165 943.36,-156.45"/>
<polygon fill="#63b8ff" stroke="#63b8ff" points="981.08,-187.82 991.25,-190.81 985.16,-182.14 981.08,-187.82"/>
</a>
</g>
</g>
<!-- Node22 -->
<g id="Node000022" class="node">
<title>Node22</title>
<g id="a_Node000022"><a xlink:href="_game_object_8h.html" target="_top" xlink:title=" ">
<polygon fill="#fff0f0" stroke="red" points="986.07,-88 857.57,-88 857.57,-56 986.07,-56 986.07,-88"/>
<text text-anchor="start" x="865.57" y="-74.5" font-family="Helvetica,sans-Serif" font-size="10.00">FIEAGameEngine/include</text>
<text text-anchor="middle" x="921.82" y="-62.5" font-family="Helvetica,sans-Serif" font-size="10.00">/Content/GameObject.h</text>
</a>
</g>
</g>
<!-- Node2&#45;&gt;Node22 -->
<g id="edge5_Node000002_Node000022" class="edge">
<title>Node2&#45;&gt;Node22</title>
<g id="a_edge5_Node000002_Node000022"><a xlink:title=" ">
<path fill="none" stroke="#63b8ff" d="M1012.6,-180.32C1010.7,-163 1006.04,-140.65 994.82,-124 984.62,-108.87 968.31,-96.85 953.7,-88.29"/>
<polygon fill="#63b8ff" stroke="#63b8ff" points="1009.1,-180.44 1013.42,-190.11 1016.08,-179.86 1009.1,-180.44"/>
</a>
</g>
</g>
<!-- Node2&#45;&gt;Node29 -->
<g id="edge6_Node000002_Node000029" class="edge">
<title>Node2&#45;&gt;Node29</title>
<g id="a_edge6_Node000002_Node000029"><a xlink:title=" ">
<path fill="none" stroke="#63b8ff" d="M1089.4,-190.7C1137.89,-180.24 1200.46,-166.74 1248.16,-156.46"/>
<polygon fill="#63b8ff" stroke="#63b8ff" points="1088.85,-187.23 1079.82,-192.76 1090.33,-194.08 1088.85,-187.23"/>
</a>
</g>
</g>
<!-- Node30 -->
<g id="Node000030" class="node">
<title>Node30</title>
<g id="a_Node000030"><a xlink:href="_attributed_8cpp.html" target="_top" xlink:title=" ">
<polygon fill="white" stroke="#666666" points="1288.32,-88 1173.32,-88 1173.32,-56 1288.32,-56 1288.32,-88"/>
<text text-anchor="start" x="1181.32" y="-74.5" font-family="Helvetica,sans-Serif" font-size="10.00">FIEAGameEngine/src</text>
<text text-anchor="middle" x="1230.82" y="-62.5" font-family="Helvetica,sans-Serif" font-size="10.00">/content/Attributed.cpp</text>
</a>
</g>
</g>
<!-- Node2&#45;&gt;Node30 -->
<g id="edge8_Node000002_Node000030" class="edge">
<title>Node2&#45;&gt;Node30</title>
<g id="a_edge8_Node000002_Node000030"><a xlink:title=" ">
<path fill="none" stroke="#63b8ff" d="M1048.38,-185.65C1092.33,-158.52 1167.12,-112.33 1205.88,-88.4"/>
<polygon fill="#63b8ff" stroke="#63b8ff" points="1046.67,-182.6 1040,-190.83 1050.34,-188.56 1046.67,-182.6"/>
</a>
</g>
</g>
<!-- Node32 -->
<g id="Node000032" class="node">
<title>Node32</title>
<g id="a_Node000032"><a xlink:href="_attribute_box_8h.html" target="_top" xlink:title=" ">
<polygon fill="#fff0f0" stroke="red" points="687.82,-150 545.82,-150 545.82,-130 687.82,-130 687.82,-150"/>
<text text-anchor="middle" x="616.82" y="-136.5" font-family="Helvetica,sans-Serif" font-size="10.00">Tests/Support/AttributeBox.h</text>
</a>
</g>
</g>
<!-- Node2&#45;&gt;Node32 -->
<g id="edge9_Node000002_Node000032" class="edge">
<title>Node2&#45;&gt;Node32</title>
<g id="a_edge9_Node000002_Node000032"><a xlink:title=" ">
<path fill="none" stroke="#63b8ff" d="M937.86,-192.36C937.18,-192.24 936.49,-192.12 935.82,-192 847.16,-176.39 744.28,-160.31 679.86,-150.48"/>
<polygon fill="#63b8ff" stroke="#63b8ff" points="937.2,-195.8 947.66,-194.13 938.44,-188.91 937.2,-195.8"/>
</a>
</g>
</g>
<!-- Node3&#45;&gt;Node22 -->
<g id="edge3_Node000003_Node000022" class="edge">
<title>Node3&#45;&gt;Node22</title>
<g id="a_edge3_Node000003_Node000022"><a xlink:title=" ">
<path fill="none" stroke="#63b8ff" d="M921.82,-112.31C921.82,-104.12 921.82,-95.38 921.82,-88.22"/>
<polygon fill="#63b8ff" stroke="#63b8ff" points="918.32,-112.18 921.82,-122.18 925.32,-112.18 918.32,-112.18"/>
</a>
</g>
</g>
<!-- Node25 -->
<g id="Node000025" class="node">
<title>Node25</title>
<g id="a_Node000025"><a xlink:href="_factory_tests_8cpp.html" target="_top" xlink:title=" ">
<polygon fill="white" stroke="#666666" points="451.19,-20 332.44,-20 332.44,0 451.19,0 451.19,-20"/>
<text text-anchor="middle" x="391.82" y="-6.5" font-family="Helvetica,sans-Serif" font-size="10.00">Tests/FactoryTests.cpp</text>
</a>
</g>
</g>
<!-- Node22&#45;&gt;Node25 -->
<g id="edge4_Node000022_Node000025" class="edge">
<title>Node22&#45;&gt;Node25</title>
<g id="a_edge4_Node000022_Node000025"><a xlink:title=" ">
<path fill="none" stroke="#63b8ff" d="M845.82,-62.4C739.5,-50.36 548.55,-28.74 451.68,-17.78"/>
<polygon fill="#63b8ff" stroke="#63b8ff" points="845.26,-65.86 855.59,-63.5 846.05,-58.9 845.26,-65.86"/>
</a>
</g>
</g>
<!-- Node29&#45;&gt;Node30 -->
<g id="edge7_Node000029_Node000030" class="edge">
<title>Node29&#45;&gt;Node30</title>
<g id="a_edge7_Node000029_Node000030"><a xlink:title=" ">
<path fill="none" stroke="#63b8ff" d="M1289.98,-116.87C1277.4,-107.55 1263.06,-96.91 1251.65,-88.45"/>
<polygon fill="#63b8ff" stroke="#63b8ff" points="1287.84,-119.65 1297.96,-122.79 1292.01,-114.02 1287.84,-119.65"/>
</a>
</g>
</g>
<!-- Node39 -->
<g id="Node000039" class="node">
<title>Node39</title>
<g id="a_Node000039"><a xlink:href="_datum_8inl.html" target="_top" xlink:title=" ">
<polygon fill="white" stroke="#666666" points="1193.07,-292 1064.57,-292 1064.57,-260 1193.07,-260 1193.07,-292"/>
<text text-anchor="start" x="1072.57" y="-278.5" font-family="Helvetica,sans-Serif" font-size="10.00">FIEAGameEngine/include</text>
<text text-anchor="middle" x="1128.82" y="-266.5" font-family="Helvetica,sans-Serif" font-size="10.00">/Content/Datum.inl</text>
</a>
</g>
</g>
<!-- Node38&#45;&gt;Node39 -->
<g id="edge11_Node000038_Node000039" class="edge">
<title>Node38&#45;&gt;Node39</title>
<g id="a_edge11_Node000038_Node000039"><a xlink:title=" ">
<path fill="none" stroke="#63b8ff" d="M1080.73,-319.21C1089.03,-310.3 1099,-300.42 1107.78,-292.45"/>
<polygon fill="#63b8ff" stroke="#63b8ff" points="1078.2,-316.8 1074.1,-326.57 1083.4,-321.48 1078.2,-316.8"/>
</a>
</g>
</g>
<!-- Node38&#45;&gt;Node40 -->
<g id="edge13_Node000038_Node000040" class="edge">
<title>Node38&#45;&gt;Node40</title>
<g id="a_edge13_Node000038_Node000040"><a xlink:title=" ">
<path fill="none" stroke="#63b8ff" d="M989.91,-324.8C948.73,-314.66 897.99,-302.16 858.72,-292.49"/>
<polygon fill="#63b8ff" stroke="#63b8ff" points="988.96,-328.17 999.51,-327.16 990.64,-321.37 988.96,-328.17"/>
</a>
</g>
</g>
<!-- Node42 -->
<g id="Node000042" class="node">
<title>Node42</title>
<g id="a_Node000042"><a xlink:href="_datum_8cpp.html" target="_top" xlink:title=" ">
<polygon fill="white" stroke="#666666" points="1207.44,-224 1096.19,-224 1096.19,-192 1207.44,-192 1207.44,-224"/>
<text text-anchor="start" x="1104.19" y="-210.5" font-family="Helvetica,sans-Serif" font-size="10.00">FIEAGameEngine/src</text>
<text text-anchor="middle" x="1151.82" y="-198.5" font-family="Helvetica,sans-Serif" font-size="10.00">/content/Datum.cpp</text>
</a>
</g>
</g>
<!-- Node38&#45;&gt;Node42 -->
<g id="edge27_Node000038_Node000042" class="edge">
<title>Node38&#45;&gt;Node42</title>
<g id="a_edge27_Node000038_Node000042"><a xlink:title=" ">
<path fill="none" stroke="#63b8ff" d="M1053.7,-317.2C1048.64,-299.84 1045.54,-277.1 1055.82,-260 1065.64,-243.66 1082.65,-232.28 1099.65,-224.48"/>
<polygon fill="#63b8ff" stroke="#63b8ff" points="1050.24,-317.88 1056.71,-326.27 1056.89,-315.68 1050.24,-317.88"/>
</a>
</g>
</g>
<!-- Node39&#45;&gt;Node38 -->
<g id="edge12_Node000039_Node000038" class="edge">
<title>Node39&#45;&gt;Node38</title>
<g id="a_edge12_Node000039_Node000038"><a xlink:title=" ">
<path fill="none" stroke="#63b8ff" d="M1111.93,-300.76C1103.57,-309.73 1093.52,-319.7 1084.69,-327.69"/>
<polygon fill="#63b8ff" stroke="#63b8ff" points="1114.51,-303.12 1118.6,-293.35 1109.31,-298.44 1114.51,-303.12"/>
</a>
</g>
</g>
<!-- Node40&#45;&gt;Node2 -->
<g id="edge14_Node000040_Node000002" class="edge">
<title>Node40&#45;&gt;Node2</title>
<g id="a_edge14_Node000040_Node000002"><a xlink:title=" ">
<path fill="none" stroke="#63b8ff" d="M857.87,-256.21C891.01,-246.18 931.32,-233.98 962.65,-224.49"/>
<polygon fill="#63b8ff" stroke="#63b8ff" points="856.93,-252.84 848.38,-259.09 858.96,-259.54 856.93,-252.84"/>
</a>
</g>
</g>
<!-- Node40&#45;&gt;Node25 -->
<g id="edge20_Node000040_Node000025" class="edge">
<title>Node40&#45;&gt;Node25</title>
<g id="a_edge20_Node000040_Node000025"><a xlink:title=" ">
<path fill="none" stroke="#63b8ff" d="M781.82,-249.7C760.32,-211.56 719.28,-141.9 696.82,-124 621.84,-64.28 512.19,-34.07 446.82,-20.5"/>
<polygon fill="#63b8ff" stroke="#63b8ff" points="778.66,-251.21 786.6,-258.23 784.77,-247.79 778.66,-251.21"/>
</a>
</g>
</g>
<!-- Node40&#45;&gt;Node32 -->
<g id="edge23_Node000040_Node000032" class="edge">
<title>Node40&#45;&gt;Node32</title>
<g id="a_edge23_Node000040_Node000032"><a xlink:title=" ">
<path fill="none" stroke="#63b8ff" d="M867.28,-254.68C881.36,-247.31 894.37,-237.37 902.82,-224 910.41,-211.97 911.95,-202.9 902.82,-192 875.94,-159.91 763.66,-147.99 688.04,-143.58"/>
<polygon fill="#63b8ff" stroke="#63b8ff" points="865.79,-251.51 858.25,-258.95 868.79,-257.83 865.79,-251.51"/>
</a>
</g>
</g>
<!-- Node41 -->
<g id="Node000041" class="node">
<title>Node41</title>
<g id="a_Node000041"><a xlink:href="_factory_service_8cpp.html" target="_top" xlink:title=" ">
<polygon fill="white" stroke="#666666" points="687.44,-224 576.19,-224 576.19,-192 687.44,-192 687.44,-224"/>
<text text-anchor="start" x="584.19" y="-210.5" font-family="Helvetica,sans-Serif" font-size="10.00">FIEAGameEngine/src</text>
<text text-anchor="middle" x="631.82" y="-198.5" font-family="Helvetica,sans-Serif" font-size="10.00">/FactoryService.cpp</text>
</a>
</g>
</g>
<!-- Node40&#45;&gt;Node41 -->
<g id="edge15_Node000040_Node000041" class="edge">
<title>Node40&#45;&gt;Node41</title>
<g id="a_edge15_Node000040_Node000041"><a xlink:title=" ">
<path fill="none" stroke="#63b8ff" d="M746.84,-255.29C722.36,-245.44 693.16,-233.69 670.31,-224.49"/>
<polygon fill="#63b8ff" stroke="#63b8ff" points="745.38,-258.47 755.96,-258.96 747.99,-251.98 745.38,-258.47"/>
</a>
</g>
</g>
<!-- Node40&#45;&gt;Node42 -->
<g id="edge16_Node000040_Node000042" class="edge">
<title>Node40&#45;&gt;Node42</title>
<g id="a_edge16_Node000040_Node000042"><a xlink:title=" ">
<path fill="none" stroke="#63b8ff" d="M871.5,-262.87C930.35,-253.17 1013.97,-238.78 1086.82,-224 1089.77,-223.4 1092.79,-222.77 1095.84,-222.12"/>
<polygon fill="#63b8ff" stroke="#63b8ff" points="871.23,-259.37 861.93,-264.44 872.37,-266.28 871.23,-259.37"/>
</a>
</g>
</g>
<!-- Node43 -->
<g id="Node000043" class="node">
<title>Node43</title>
<g id="a_Node000043"><a xlink:href="_scope_8cpp.html" target="_top" xlink:title=" ">
<polygon fill="white" stroke="#666666" points="893.44,-224 782.19,-224 782.19,-192 893.44,-192 893.44,-224"/>
<text text-anchor="start" x="790.19" y="-210.5" font-family="Helvetica,sans-Serif" font-size="10.00">FIEAGameEngine/src</text>
<text text-anchor="middle" x="837.82" y="-198.5" font-family="Helvetica,sans-Serif" font-size="10.00">/content/Scope.cpp</text>
</a>
</g>
</g>
<!-- Node40&#45;&gt;Node43 -->
<g id="edge17_Node000040_Node000043" class="edge">
<title>Node40&#45;&gt;Node43</title>
<g id="a_edge17_Node000040_Node000043"><a xlink:title=" ">
<path fill="none" stroke="#63b8ff" d="M811.71,-250.02C817.23,-241.34 823.26,-231.88 828.13,-224.22"/>
<polygon fill="#63b8ff" stroke="#63b8ff" points="808.78,-248.1 806.37,-258.42 814.69,-251.86 808.78,-248.1"/>
</a>
</g>
</g>
<!-- Node44 -->
<g id="Node000044" class="node">
<title>Node44</title>
<g id="a_Node000044"><a xlink:href="_scope_writer_8h.html" target="_top" xlink:title=" ">
<polygon fill="#fff0f0" stroke="red" points="1341.69,-224 1225.94,-224 1225.94,-192 1341.69,-192 1341.69,-224"/>
<text text-anchor="start" x="1233.94" y="-210.5" font-family="Helvetica,sans-Serif" font-size="10.00">FIEAGameEngine/src</text>
<text text-anchor="middle" x="1283.82" y="-198.5" font-family="Helvetica,sans-Serif" font-size="10.00">/content/ScopeWriter.h</text>
</a>
</g>
</g>
<!-- Node40&#45;&gt;Node44 -->
<g id="edge18_Node000040_Node000044" class="edge">
<title>Node40&#45;&gt;Node44</title>
<g id="a_edge18_Node000040_Node000044"><a xlink:title=" ">
<path fill="none" stroke="#63b8ff" d="M871.59,-268.12C956.13,-259.91 1096.81,-244.65 1216.82,-224 1219.75,-223.49 1222.75,-222.94 1225.78,-222.36"/>
<polygon fill="#63b8ff" stroke="#63b8ff" points="871.42,-264.62 861.8,-269.06 872.09,-271.58 871.42,-264.62"/>
</a>
</g>
</g>
<!-- Node54 -->
<g id="Node000054" class="node">
<title>Node54</title>
<g id="a_Node000054"><a xlink:href="_datum_test_8cpp.html" target="_top" xlink:title=" ">
<polygon fill="white" stroke="#666666" points="167.69,-218 57.94,-218 57.94,-198 167.69,-198 167.69,-218"/>
<text text-anchor="middle" x="112.82" y="-204.5" font-family="Helvetica,sans-Serif" font-size="10.00">Tests/DatumTest.cpp</text>
</a>
</g>
</g>
<!-- Node40&#45;&gt;Node54 -->
<g id="edge19_Node000040_Node000054" class="edge">
<title>Node40&#45;&gt;Node54</title>
<g id="a_edge19_Node000040_Node000054"><a xlink:title=" ">
<path fill="none" stroke="#63b8ff" d="M719.97,-272.37C602.83,-267.49 371.13,-254.6 176.82,-224 167.68,-222.56 157.92,-220.53 148.85,-218.43"/>
<polygon fill="#63b8ff" stroke="#63b8ff" points="719.64,-275.86 729.77,-272.77 719.92,-268.86 719.64,-275.86"/>
</a>
</g>
</g>
<!-- Node55 -->
<g id="Node000055" class="node">
<title>Node55</title>
<g id="a_Node000055"><a xlink:href="_r_t_t_i_test_8cpp.html" target="_top" xlink:title=" ">
<polygon fill="white" stroke="#666666" points="287.94,-218 185.69,-218 185.69,-198 287.94,-198 287.94,-218"/>
<text text-anchor="middle" x="236.82" y="-204.5" font-family="Helvetica,sans-Serif" font-size="10.00">Tests/RTTITest.cpp</text>
</a>
</g>
</g>
<!-- Node40&#45;&gt;Node55 -->
<g id="edge21_Node000040_Node000055" class="edge">
<title>Node40&#45;&gt;Node55</title>
<g id="a_edge21_Node000040_Node000055"><a xlink:title=" ">
<path fill="none" stroke="#63b8ff" d="M719.94,-266.04C604.32,-252.39 387.03,-226.74 288.16,-215.06"/>
<polygon fill="#63b8ff" stroke="#63b8ff" points="719.3,-269.49 729.64,-267.19 720.12,-262.54 719.3,-269.49"/>
</a>
</g>
</g>
<!-- Node56 -->
<g id="Node000056" class="node">
<title>Node56</title>
<g id="a_Node000056"><a xlink:href="_scope_test_8cpp.html" target="_top" xlink:title=" ">
<polygon fill="white" stroke="#666666" points="527.94,-150 419.69,-150 419.69,-130 527.94,-130 527.94,-150"/>
<text text-anchor="middle" x="473.82" y="-136.5" font-family="Helvetica,sans-Serif" font-size="10.00">Tests/ScopeTest.cpp</text>
</a>
</g>
</g>
<!-- Node40&#45;&gt;Node56 -->
<g id="edge22_Node000040_Node000056" class="edge">
<title>Node40&#45;&gt;Node56</title>
<g id="a_edge22_Node000040_Node000056"><a xlink:title=" ">
<path fill="none" stroke="#63b8ff" d="M771.41,-252.22C747.68,-230.51 712.93,-199.97 696.82,-192 631.49,-159.67 607.83,-172.44 536.82,-156 529.15,-154.22 520.96,-152.3 513.12,-150.44"/>
<polygon fill="#63b8ff" stroke="#63b8ff" points="768.76,-254.54 778.49,-258.74 773.51,-249.39 768.76,-254.54"/>
</a>
</g>
</g>
<!-- Node40&#45;&gt;Node57 -->
<g id="edge24_Node000040_Node000057" class="edge">
<title>Node40&#45;&gt;Node57</title>
<g id="a_edge24_Node000040_Node000057"><a xlink:title=" ">
<path fill="none" stroke="#63b8ff" d="M720.04,-260.5C653.28,-247.73 557.95,-229.49 500.46,-218.5"/>
<polygon fill="#63b8ff" stroke="#63b8ff" points="719.36,-263.94 729.84,-262.38 720.68,-257.06 719.36,-263.94"/>
</a>
</g>
</g>
<!-- Node57&#45;&gt;Node25 -->
<g id="edge25_Node000057_Node000025" class="edge">
<title>Node57&#45;&gt;Node25</title>
<g id="a_edge25_Node000057_Node000025"><a xlink:title=" ">
<path fill="none" stroke="#63b8ff" d="M433.06,-189.31C424.93,-180.13 415.98,-168.29 410.82,-156 390.66,-108.01 390.6,-43.9 391.38,-20.26"/>
<polygon fill="#63b8ff" stroke="#63b8ff" points="430.32,-191.5 439.71,-196.4 435.43,-186.71 430.32,-191.5"/>
</a>
</g>
</g>
<!-- Node57&#45;&gt;Node56 -->
<g id="edge26_Node000057_Node000056" class="edge">
<title>Node57&#45;&gt;Node56</title>
<g id="a_edge26_Node000057_Node000056"><a xlink:title=" ">
<path fill="none" stroke="#63b8ff" d="M457.77,-187.03C462.01,-174.89 467.21,-159.94 470.53,-150.44"/>
<polygon fill="#63b8ff" stroke="#63b8ff" points="454.59,-185.52 454.61,-196.11 461.2,-187.82 454.59,-185.52"/>
</a>
</g>
</g>
<!-- Node59&#45;&gt;Node44 -->
<g id="edge34_Node000059_Node000044" class="edge">
<title>Node59&#45;&gt;Node44</title>
<g id="a_edge34_Node000059_Node000044"><a xlink:title=" ">
<path fill="none" stroke="#63b8ff" d="M1465.75,-256.65C1426.82,-246.45 1378.95,-233.92 1342.09,-224.26"/>
<polygon fill="#63b8ff" stroke="#63b8ff" points="1464.71,-259.99 1475.27,-259.14 1466.48,-253.22 1464.71,-259.99"/>
</a>
</g>
</g>
<!-- Node60 -->
<g id="Node000060" class="node">
<title>Node60</title>
<g id="a_Node000060"><a xlink:href="_i_parse_handler_8h.html" target="_top" xlink:title=" ">
<polygon fill="#fff0f0" stroke="red" points="1526.07,-224 1397.57,-224 1397.57,-192 1526.07,-192 1526.07,-224"/>
<text text-anchor="start" x="1405.57" y="-210.5" font-family="Helvetica,sans-Serif" font-size="10.00">FIEAGameEngine/include</text>
<text text-anchor="middle" x="1461.82" y="-198.5" font-family="Helvetica,sans-Serif" font-size="10.00">/Content/IParseHandler.h</text>
</a>
</g>
</g>
<!-- Node59&#45;&gt;Node60 -->
<g id="edge29_Node000059_Node000060" class="edge">
<title>Node59&#45;&gt;Node60</title>
<g id="a_edge29_Node000059_Node000060"><a xlink:title=" ">
<path fill="none" stroke="#63b8ff" d="M1510.08,-252.05C1499.85,-242.92 1488.35,-232.67 1479.14,-224.45"/>
<polygon fill="#63b8ff" stroke="#63b8ff" points="1507.73,-254.64 1517.52,-258.68 1512.39,-249.42 1507.73,-254.64"/>
</a>
</g>
</g>
<!-- Node71 -->
<g id="Node000071" class="node">
<title>Node71</title>
<g id="a_Node000071"><a xlink:href="_parser_8h.html" target="_top" xlink:title=" ">
<polygon fill="#fff0f0" stroke="red" points="1567.44,-156 1456.19,-156 1456.19,-124 1567.44,-124 1567.44,-156"/>
<text text-anchor="start" x="1464.19" y="-142.5" font-family="Helvetica,sans-Serif" font-size="10.00">FIEAGameEngine/src</text>
<text text-anchor="middle" x="1511.82" y="-130.5" font-family="Helvetica,sans-Serif" font-size="10.00">/content/Parser.h</text>
</a>
</g>
</g>
<!-- Node59&#45;&gt;Node71 -->
<g id="edge33_Node000059_Node000071" class="edge">
<title>Node59&#45;&gt;Node71</title>
<g id="a_edge33_Node000059_Node000071"><a xlink:title=" ">
<path fill="none" stroke="#63b8ff" d="M1611.45,-260.75C1660.27,-248.03 1710.29,-226.06 1684.82,-192 1670.61,-173 1612.63,-158.63 1567.66,-150.06"/>
<polygon fill="#63b8ff" stroke="#63b8ff" points="1610.76,-257.32 1601.9,-263.12 1612.45,-264.11 1610.76,-257.32"/>
</a>
</g>
</g>
<!-- Node73 -->
<g id="Node000073" class="node">
<title>Node73</title>
<g id="a_Node000073"><a xlink:href="_parse_writer_8cpp.html" target="_top" xlink:title=" ">
<polygon fill="white" stroke="#666666" points="1855.82,-224 1731.82,-224 1731.82,-192 1855.82,-192 1855.82,-224"/>
<text text-anchor="start" x="1739.82" y="-210.5" font-family="Helvetica,sans-Serif" font-size="10.00">FIEAGameEngine/src</text>
<text text-anchor="middle" x="1793.82" y="-198.5" font-family="Helvetica,sans-Serif" font-size="10.00">/content/ParseWriter.cpp</text>
</a>
</g>
</g>
<!-- Node59&#45;&gt;Node73 -->
<g id="edge32_Node000059_Node000073" class="edge">
<title>Node59&#45;&gt;Node73</title>
<g id="a_edge32_Node000059_Node000073"><a xlink:title=" ">
<path fill="none" stroke="#63b8ff" d="M1607.22,-256.73C1646.82,-246.6 1695.53,-234.14 1733.26,-224.49"/>
<polygon fill="#63b8ff" stroke="#63b8ff" points="1606.59,-253.28 1597.77,-259.15 1608.33,-260.06 1606.59,-253.28"/>
</a>
</g>
</g>
<!-- Node74 -->
<g id="Node000074" class="node">
<title>Node74</title>
<g id="a_Node000074"><a xlink:href="_test_writer_8h.html" target="_top" xlink:title=" ">
<polygon fill="#fff0f0" stroke="red" points="1675.94,-218 1543.69,-218 1543.69,-198 1675.94,-198 1675.94,-218"/>
<text text-anchor="middle" x="1609.82" y="-204.5" font-family="Helvetica,sans-Serif" font-size="10.00">Tests/Support/TestWriter.h</text>
</a>
</g>
</g>
<!-- Node59&#45;&gt;Node74 -->
<g id="edge35_Node000059_Node000074" class="edge">
<title>Node59&#45;&gt;Node74</title>
<g id="a_edge35_Node000059_Node000074"><a xlink:title=" ">
<path fill="none" stroke="#63b8ff" d="M1561.55,-252.04C1574.54,-240.46 1589.58,-227.05 1599.37,-218.32"/>
<polygon fill="#63b8ff" stroke="#63b8ff" points="1559.24,-249.42 1554.11,-258.68 1563.9,-254.64 1559.24,-249.42"/>
</a>
</g>
</g>
<!-- Node60&#45;&gt;Node29 -->
<g id="edge30_Node000060_Node000029" class="edge">
<title>Node60&#45;&gt;Node29</title>
<g id="a_edge30_Node000060_Node000029"><a xlink:title=" ">
<path fill="none" stroke="#63b8ff" d="M1418.23,-186.74C1397.19,-176.96 1372.36,-165.42 1352.9,-156.38"/>
<polygon fill="#63b8ff" stroke="#63b8ff" points="1416.61,-189.85 1427.15,-190.89 1419.56,-183.5 1416.61,-189.85"/>
</a>
</g>
</g>
<!-- Node60&#45;&gt;Node71 -->
<g id="edge31_Node000060_Node000071" class="edge">
<title>Node60&#45;&gt;Node71</title>
<g id="a_edge31_Node000060_Node000071"><a xlink:title=" ">
<path fill="none" stroke="#63b8ff" d="M1480.31,-182.59C1487,-173.75 1494.36,-164.04 1500.28,-156.22"/>
<polygon fill="#63b8ff" stroke="#63b8ff" points="1477.57,-180.4 1474.33,-190.49 1483.15,-184.63 1477.57,-180.4"/>
</a>
</g>
</g>
<!-- Node76&#45;&gt;Node25 -->
<g id="edge41_Node000076_Node000025" class="edge">
<title>Node76&#45;&gt;Node25</title>
<g id="a_edge41_Node000076_Node000025"><a xlink:title=" ">
<path fill="none" stroke="#63b8ff" d="M511.27,-323.87C463.3,-306.36 402.38,-275.21 372.82,-224 332.91,-154.87 373.44,-51.62 387.44,-20.32"/>
<polygon fill="#63b8ff" stroke="#63b8ff" points="509.89,-327.1 520.48,-327.11 512.21,-320.49 509.89,-327.1"/>
</a>
</g>
</g>
<!-- Node76&#45;&gt;Node32 -->
<g id="edge42_Node000076_Node000032" class="edge">
<title>Node76&#45;&gt;Node32</title>
<g id="a_edge42_Node000076_Node000032"><a xlink:title=" ">
<path fill="none" stroke="#63b8ff" d="M569.84,-316.99C560.67,-286 549.97,-233.23 566.82,-192 574.04,-174.32 590.66,-159.46 602.77,-150.42"/>
<polygon fill="#63b8ff" stroke="#63b8ff" points="566.42,-317.8 572.76,-326.29 573.1,-315.7 566.42,-317.8"/>
</a>
</g>
</g>
<!-- Node76&#45;&gt;Node40 -->
<g id="edge39_Node000076_Node000040" class="edge">
<title>Node76&#45;&gt;Node40</title>
<g id="a_edge39_Node000076_Node000040"><a xlink:title=" ">
<path fill="none" stroke="#63b8ff" d="M640.58,-324.21C673.58,-314.18 713.69,-301.98 744.88,-292.49"/>
<polygon fill="#63b8ff" stroke="#63b8ff" points="639.69,-320.83 631.14,-327.09 641.73,-327.52 639.69,-320.83"/>
</a>
</g>
</g>
<!-- Node76&#45;&gt;Node41 -->
<g id="edge40_Node000076_Node000041" class="edge">
<title>Node76&#45;&gt;Node41</title>
<g id="a_edge40_Node000076_Node000041"><a xlink:title=" ">
<path fill="none" stroke="#63b8ff" d="M589.02,-317.19C599.93,-289.6 616.86,-246.8 625.81,-224.19"/>
<polygon fill="#63b8ff" stroke="#63b8ff" points="585.88,-315.63 585.45,-326.22 592.38,-318.21 585.88,-315.63"/>
</a>
</g>
</g>
<!-- Node76&#45;&gt;Node57 -->
<g id="edge43_Node000076_Node000057" class="edge">
<title>Node76&#45;&gt;Node57</title>
<g id="a_edge43_Node000076_Node000057"><a xlink:title=" ">
<path fill="none" stroke="#63b8ff" d="M556.25,-319.38C527.55,-289.33 479.34,-238.87 459.63,-218.22"/>
<polygon fill="#63b8ff" stroke="#63b8ff" points="553.65,-321.72 563.09,-326.53 558.71,-316.89 553.65,-321.72"/>
</a>
</g>
</g>
<!-- Node77&#45;&gt;Node1 -->
<g id="edge45_Node000077_Node000001" class="edge">
<title>Node77&#45;&gt;Node1</title>
<g id="a_edge45_Node000077_Node000001"><a xlink:title=" ">
<path fill="none" stroke="#63b8ff" d="M1380.73,-360.91C1255.72,-379.89 1117.34,-396.03 1037.61,-404.56"/>
<polygon fill="#63b8ff" stroke="#63b8ff" points="1381.16,-364.38 1390.52,-359.41 1380.11,-357.47 1381.16,-364.38"/>
</a>
</g>
</g>
<!-- Node79&#45;&gt;Node54 -->
<g id="edge48_Node000079_Node000054" class="edge">
<title>Node79&#45;&gt;Node54</title>
<g id="a_edge48_Node000079_Node000054"><a xlink:title=" ">
<path fill="none" stroke="#63b8ff" d="M160.69,-257.61C148.34,-245.07 132.14,-228.63 122.11,-218.44"/>
<polygon fill="#63b8ff" stroke="#63b8ff" points="157.93,-259.8 167.44,-264.47 162.92,-254.88 157.93,-259.8"/>
</a>
</g>
</g>
<!-- Node79&#45;&gt;Node55 -->
<g id="edge49_Node000079_Node000055" class="edge">
<title>Node79&#45;&gt;Node55</title>
<g id="a_edge49_Node000079_Node000055"><a xlink:title=" ">
<path fill="none" stroke="#63b8ff" d="M193.68,-257.25C204.85,-244.76 219.36,-228.53 228.38,-218.44"/>
<polygon fill="#63b8ff" stroke="#63b8ff" points="191.33,-254.63 187.28,-264.42 196.55,-259.29 191.33,-254.63"/>
</a>
</g>
</g>
<!-- Node81&#45;&gt;Node32 -->
<g id="edge53_Node000081_Node000032" class="edge">
<title>Node81&#45;&gt;Node32</title>
<g id="a_edge53_Node000081_Node000032"><a xlink:title=" ">
<path fill="none" stroke="#63b8ff" d="M316.09,-255.71C327.38,-236.46 347.34,-207.58 372.82,-192 381.12,-186.92 498.38,-163.77 567.27,-150.47"/>
<polygon fill="#63b8ff" stroke="#63b8ff" points="313.17,-253.75 311.34,-264.19 319.28,-257.17 313.17,-253.75"/>
</a>
</g>
</g>
<!-- Node81&#45;&gt;Node54 -->
<g id="edge51_Node000081_Node000054" class="edge">
<title>Node81&#45;&gt;Node54</title>
<g id="a_edge51_Node000081_Node000054"><a xlink:title=" ">
<path fill="none" stroke="#63b8ff" d="M267.64,-261.95C230.13,-249.12 173.79,-229.85 140.42,-218.44"/>
<polygon fill="#63b8ff" stroke="#63b8ff" points="266.14,-265.13 276.73,-265.05 268.4,-258.51 266.14,-265.13"/>
</a>
</g>
</g>
<!-- Node81&#45;&gt;Node55 -->
<g id="edge52_Node000081_Node000055" class="edge">
<title>Node81&#45;&gt;Node55</title>
<g id="a_edge52_Node000081_Node000055"><a xlink:title=" ">
<path fill="none" stroke="#63b8ff" d="M287.64,-257.61C274.53,-245.07 257.33,-228.63 246.68,-218.44"/>
<polygon fill="#63b8ff" stroke="#63b8ff" points="285.19,-260.11 294.84,-264.5 290.03,-255.06 285.19,-260.11"/>
</a>
</g>
</g>
<!-- Node88&#45;&gt;Node25 -->
<g id="edge57_Node000088_Node000025" class="edge">
<title>Node88&#45;&gt;Node25</title>
<g id="a_edge57_Node000088_Node000025"><a xlink:title=" ">
<path fill="none" stroke="#63b8ff" d="M24.17,-257.48C8.94,-240.14 -8.67,-213.2 4.82,-192 77.38,-77.95 242.77,-34.55 332.03,-19.01"/>
<polygon fill="#63b8ff" stroke="#63b8ff" points="21.33,-259.56 30.72,-264.48 26.45,-254.78 21.33,-259.56"/>
</a>
</g>
</g>
<!-- Node88&#45;&gt;Node32 -->
<g id="edge60_Node000088_Node000032" class="edge">
<title>Node88&#45;&gt;Node32</title>
<g id="a_edge60_Node000088_Node000032"><a xlink:title=" ">
<path fill="none" stroke="#63b8ff" d="M36.89,-254.44C33.7,-235.48 32.7,-207.94 48.82,-192 87.46,-153.76 482.9,-163.02 536.82,-156 548.03,-154.54 560.04,-152.53 571.27,-150.45"/>
<polygon fill="#63b8ff" stroke="#63b8ff" points="33.46,-255.12 38.9,-264.21 40.31,-253.71 33.46,-255.12"/>
</a>
</g>
</g>
<!-- Node88&#45;&gt;Node54 -->
<g id="edge56_Node000088_Node000054" class="edge">
<title>Node88&#45;&gt;Node54</title>
<g id="a_edge56_Node000088_Node000054"><a xlink:title=" ">
<path fill="none" stroke="#63b8ff" d="M60.13,-257.97C73.67,-245.39 91.6,-228.72 102.66,-218.44"/>
<polygon fill="#63b8ff" stroke="#63b8ff" points="58.04,-255.14 53.1,-264.51 62.8,-260.27 58.04,-255.14"/>
</a>
</g>
</g>
<!-- Node88&#45;&gt;Node55 -->
<g id="edge58_Node000088_Node000055" class="edge">
<title>Node88&#45;&gt;Node55</title>
<g id="a_edge58_Node000088_Node000055"><a xlink:title=" ">
<path fill="none" stroke="#63b8ff" d="M80.38,-261.95C118.29,-249.12 175.21,-229.85 208.93,-218.44"/>
<polygon fill="#63b8ff" stroke="#63b8ff" points="79.54,-258.54 71.19,-265.06 81.78,-265.17 79.54,-258.54"/>
</a>
</g>
</g>
<!-- Node88&#45;&gt;Node56 -->
<g id="edge59_Node000088_Node000056" class="edge">
<title>Node88&#45;&gt;Node56</title>
<g id="a_edge59_Node000088_Node000056"><a xlink:title=" ">
<path fill="none" stroke="#63b8ff" d="M26.87,-256.44C13.94,-238.03 -0.33,-210.04 15.82,-192 42.32,-162.38 303.73,-148.01 419.32,-143.07"/>
<polygon fill="#63b8ff" stroke="#63b8ff" points="24,-258.45 32.8,-264.35 29.6,-254.25 24,-258.45"/>
</a>
</g>
</g>
</g>
</svg>
