<?xml version="1.0" encoding="UTF-8" standalone="no"?>
<!DOCTYPE svg PUBLIC "-//W3C//DTD SVG 1.1//EN"
 "http://www.w3.org/Graphics/SVG/1.1/DTD/svg11.dtd">
<!-- Generated by graphviz version 12.2.1 (20241206.2353)
 -->
<!-- Title: FIEAGameEngine/src/content/ScopeWriter.h Pages: 1 -->
<svg width="2070pt" height="108pt"
 viewBox="0.00 0.00 2069.75 108.00" xmlns="http://www.w3.org/2000/svg" xmlns:xlink="http://www.w3.org/1999/xlink">
<g id="graph0" class="graph" transform="scale(1 1) rotate(0) translate(4 104)">
<title>FIEAGameEngine/src/content/ScopeWriter.h</title>
<!-- Node1 -->
<g id="Node000001" class="node">
<title>Node1</title>
<g id="a_Node000001"><a xlink:title=" ">
<polygon fill="#999999" stroke="#666666" points="1189.12,-100 1073.38,-100 1073.38,-68 1189.12,-68 1189.12,-100"/>
<text text-anchor="start" x="1081.38" y="-86.5" font-family="Helvetica,sans-Serif" font-size="10.00">FIEAGameEngine/src</text>
<text text-anchor="middle" x="1131.25" y="-74.5" font-family="Helvetica,sans-Serif" font-size="10.00">/content/ScopeWriter.h</text>
</a>
</g>
</g>
<!-- Node2 -->
<g id="Node000002" class="node">
<title>Node2</title>
<g id="a_Node000002"><a xlink:href="_action_handler_8cpp.html" target="_top" xlink:title=" ">
<polygon fill="white" stroke="#666666" points="134.5,-32 0,-32 0,0 134.5,0 134.5,-32"/>
<text text-anchor="start" x="8" y="-18.5" font-family="Helvetica,sans-Serif" font-size="10.00">FIEAGameEngine/src</text>
<text text-anchor="middle" x="67.25" y="-6.5" font-family="Helvetica,sans-Serif" font-size="10.00">/content/ActionHandler.cpp</text>
</a>
</g>
</g>
<!-- Node1&#45;&gt;Node2 -->
<g id="edge1_Node000001_Node000002" class="edge">
<title>Node1&#45;&gt;Node2</title>
<g id="a_edge1_Node000001_Node000002"><a xlink:title=" ">
<path fill="none" stroke="#63b8ff" d="M1061.89,-82.83C900.25,-81.68 486.16,-74.47 143.25,-32 140.45,-31.65 137.59,-31.26 134.71,-30.84"/>
<polygon fill="#63b8ff" stroke="#63b8ff" points="1061.55,-86.33 1071.58,-82.89 1061.6,-79.33 1061.55,-86.33"/>
</a>
</g>
</g>
<!-- Node3 -->
<g id="Node000003" class="node">
<title>Node3</title>
<g id="a_Node000003"><a xlink:href="_action_list_handler_8cpp.html" target="_top" xlink:title=" ">
<polygon fill="white" stroke="#666666" points="302.38,-32 152.12,-32 152.12,0 302.38,0 302.38,-32"/>
<text text-anchor="start" x="160.12" y="-18.5" font-family="Helvetica,sans-Serif" font-size="10.00">FIEAGameEngine/src</text>
<text text-anchor="middle" x="227.25" y="-6.5" font-family="Helvetica,sans-Serif" font-size="10.00">/content/ActionListHandler.cpp</text>
</a>
</g>
</g>
<!-- Node1&#45;&gt;Node3 -->
<g id="edge2_Node000001_Node000003" class="edge">
<title>Node1&#45;&gt;Node3</title>
<g id="a_edge2_Node000001_Node000003"><a xlink:title=" ">
<path fill="none" stroke="#63b8ff" d="M1061.37,-81.35C919.52,-77.41 587.78,-65.18 311.25,-32 308.46,-31.66 305.61,-31.3 302.74,-30.9"/>
<polygon fill="#63b8ff" stroke="#63b8ff" points="1061.28,-84.85 1071.37,-81.62 1061.47,-77.85 1061.28,-84.85"/>
</a>
</g>
</g>
<!-- Node4 -->
<g id="Node000004" class="node">
<title>Node4</title>
<g id="a_Node000004"><a xlink:href="_array_handler_8cpp.html" target="_top" xlink:title=" ">
<polygon fill="white" stroke="#666666" points="450.25,-32 320.25,-32 320.25,0 450.25,0 450.25,-32"/>
<text text-anchor="start" x="328.25" y="-18.5" font-family="Helvetica,sans-Serif" font-size="10.00">FIEAGameEngine/src</text>
<text text-anchor="middle" x="385.25" y="-6.5" font-family="Helvetica,sans-Serif" font-size="10.00">/content/ArrayHandler.cpp</text>
</a>
</g>
</g>
<!-- Node1&#45;&gt;Node4 -->
<g id="edge3_Node000001_Node000004" class="edge">
<title>Node1&#45;&gt;Node4</title>
<g id="a_edge3_Node000001_Node000004"><a xlink:title=" ">
<path fill="none" stroke="#63b8ff" d="M1061.61,-80.57C939.25,-75.66 677.9,-62.34 459.25,-32 456.39,-31.6 453.48,-31.16 450.54,-30.69"/>
<polygon fill="#63b8ff" stroke="#63b8ff" points="1061.37,-84.06 1071.5,-80.96 1061.65,-77.07 1061.37,-84.06"/>
</a>
</g>
</g>
<!-- Node5 -->
<g id="Node000005" class="node">
<title>Node5</title>
<g id="a_Node000005"><a xlink:href="_float_parse_handler_8cpp.html" target="_top" xlink:title=" ">
<polygon fill="white" stroke="#666666" points="622.25,-32 468.25,-32 468.25,0 622.25,0 622.25,-32"/>
<text text-anchor="start" x="476.25" y="-18.5" font-family="Helvetica,sans-Serif" font-size="10.00">FIEAGameEngine/src</text>
<text text-anchor="middle" x="545.25" y="-6.5" font-family="Helvetica,sans-Serif" font-size="10.00">/content/FloatParseHandler.cpp</text>
</a>
</g>
</g>
<!-- Node1&#45;&gt;Node5 -->
<g id="edge4_Node000001_Node000005" class="edge">
<title>Node1&#45;&gt;Node5</title>
<g id="a_edge4_Node000001_Node000005"><a xlink:title=" ">
<path fill="none" stroke="#63b8ff" d="M1061.59,-77.47C964.8,-69.42 784.29,-53.12 631.25,-32 628.4,-31.61 625.49,-31.19 622.56,-30.75"/>
<polygon fill="#63b8ff" stroke="#63b8ff" points="1061.2,-80.95 1071.46,-78.28 1061.78,-73.97 1061.2,-80.95"/>
</a>
</g>
</g>
<!-- Node6 -->
<g id="Node000006" class="node">
<title>Node6</title>
<g id="a_Node000006"><a xlink:href="_game_object_handler_8cpp.html" target="_top" xlink:title=" ">
<polygon fill="white" stroke="#666666" points="802,-32 640.5,-32 640.5,0 802,0 802,-32"/>
<text text-anchor="start" x="648.5" y="-18.5" font-family="Helvetica,sans-Serif" font-size="10.00">FIEAGameEngine/src</text>
<text text-anchor="middle" x="721.25" y="-6.5" font-family="Helvetica,sans-Serif" font-size="10.00">/content/GameObjectHandler.cpp</text>
</a>
</g>
</g>
<!-- Node1&#45;&gt;Node6 -->
<g id="edge5_Node000001_Node000006" class="edge">
<title>Node1&#45;&gt;Node6</title>
<g id="a_edge5_Node000001_Node000006"><a xlink:title=" ">
<path fill="none" stroke="#63b8ff" d="M1061.84,-72.08C997,-61.85 897.54,-46.07 811.25,-32 808.28,-31.52 805.25,-31.02 802.2,-30.52"/>
<polygon fill="#63b8ff" stroke="#63b8ff" points="1061.21,-75.53 1071.63,-73.63 1062.3,-68.61 1061.21,-75.53"/>
</a>
</g>
</g>
<!-- Node7 -->
<g id="Node000007" class="node">
<title>Node7</title>
<g id="a_Node000007"><a xlink:href="_int_parse_handler_8cpp.html" target="_top" xlink:title=" ">
<polygon fill="white" stroke="#666666" points="964,-32 820.5,-32 820.5,0 964,0 964,-32"/>
<text text-anchor="start" x="828.5" y="-18.5" font-family="Helvetica,sans-Serif" font-size="10.00">FIEAGameEngine/src</text>
<text text-anchor="middle" x="892.25" y="-6.5" font-family="Helvetica,sans-Serif" font-size="10.00">/content/IntParseHandler.cpp</text>
</a>
</g>
</g>
<!-- Node1&#45;&gt;Node7 -->
<g id="edge6_Node000001_Node000007" class="edge">
<title>Node1&#45;&gt;Node7</title>
<g id="a_edge6_Node000001_Node000007"><a xlink:title=" ">
<path fill="none" stroke="#63b8ff" d="M1064.16,-64.47C1027.65,-54.39 982.99,-42.06 948.35,-32.49"/>
<polygon fill="#63b8ff" stroke="#63b8ff" points="1063.19,-67.83 1073.76,-67.12 1065.05,-61.09 1063.19,-67.83"/>
</a>
</g>
</g>
<!-- Node8 -->
<g id="Node000008" class="node">
<title>Node8</title>
<g id="a_Node000008"><a xlink:href="_matrix_handler_8cpp.html" target="_top" xlink:title=" ">
<polygon fill="white" stroke="#666666" points="1116.12,-32 982.38,-32 982.38,0 1116.12,0 1116.12,-32"/>
<text text-anchor="start" x="990.38" y="-18.5" font-family="Helvetica,sans-Serif" font-size="10.00">FIEAGameEngine/src</text>
<text text-anchor="middle" x="1049.25" y="-6.5" font-family="Helvetica,sans-Serif" font-size="10.00">/content/MatrixHandler.cpp</text>
</a>
</g>
</g>
<!-- Node1&#45;&gt;Node8 -->
<g id="edge7_Node000001_Node000008" class="edge">
<title>Node1&#45;&gt;Node8</title>
<g id="a_edge7_Node000001_Node000008"><a xlink:title=" ">
<path fill="none" stroke="#63b8ff" d="M1103.42,-60.6C1091.91,-51.34 1078.86,-40.83 1068.45,-32.45"/>
<polygon fill="#63b8ff" stroke="#63b8ff" points="1101.07,-63.2 1111.05,-66.74 1105.46,-57.75 1101.07,-63.2"/>
</a>
</g>
</g>
<!-- Node9 -->
<g id="Node000009" class="node">
<title>Node9</title>
<g id="a_Node000009"><a xlink:href="_scope_parse_handler_8cpp.html" target="_top" xlink:title=" ">
<polygon fill="white" stroke="#666666" points="1294.25,-32 1134.25,-32 1134.25,0 1294.25,0 1294.25,-32"/>
<text text-anchor="start" x="1142.25" y="-18.5" font-family="Helvetica,sans-Serif" font-size="10.00">FIEAGameEngine/src</text>
<text text-anchor="middle" x="1214.25" y="-6.5" font-family="Helvetica,sans-Serif" font-size="10.00">/content/ScopeParseHandler.cpp</text>
</a>
</g>
</g>
<!-- Node1&#45;&gt;Node9 -->
<g id="edge8_Node000001_Node000009" class="edge">
<title>Node1&#45;&gt;Node9</title>
<g id="a_edge8_Node000001_Node000009"><a xlink:title=" ">
<path fill="none" stroke="#63b8ff" d="M1159.42,-60.6C1171.07,-51.34 1184.28,-40.83 1194.82,-32.45"/>
<polygon fill="#63b8ff" stroke="#63b8ff" points="1157.33,-57.79 1151.69,-66.75 1161.69,-63.27 1157.33,-57.79"/>
</a>
</g>
</g>
<!-- Node10 -->
<g id="Node000010" class="node">
<title>Node10</title>
<g id="a_Node000010"><a xlink:href="_scope_writer_8cpp.html" target="_top" xlink:title=" ">
<polygon fill="white" stroke="#666666" points="1438.38,-32 1312.12,-32 1312.12,0 1438.38,0 1438.38,-32"/>
<text text-anchor="start" x="1320.12" y="-18.5" font-family="Helvetica,sans-Serif" font-size="10.00">FIEAGameEngine/src</text>
<text text-anchor="middle" x="1375.25" y="-6.5" font-family="Helvetica,sans-Serif" font-size="10.00">/content/ScopeWriter.cpp</text>
</a>
</g>
</g>
<!-- Node1&#45;&gt;Node10 -->
<g id="edge9_Node000001_Node000010" class="edge">
<title>Node1&#45;&gt;Node10</title>
<g id="a_edge9_Node000001_Node000010"><a xlink:title=" ">
<path fill="none" stroke="#63b8ff" d="M1199.26,-64.6C1236.62,-54.5 1282.45,-42.1 1317.98,-32.49"/>
<polygon fill="#63b8ff" stroke="#63b8ff" points="1198.66,-61.14 1189.92,-67.13 1200.49,-67.9 1198.66,-61.14"/>
</a>
</g>
</g>
<!-- Node11 -->
<g id="Node000011" class="node">
<title>Node11</title>
<g id="a_Node000011"><a xlink:href="_scope_writer_8inl.html" target="_top" xlink:title=" ">
<polygon fill="white" stroke="#666666" points="1576.38,-32 1456.12,-32 1456.12,0 1576.38,0 1576.38,-32"/>
<text text-anchor="start" x="1464.12" y="-18.5" font-family="Helvetica,sans-Serif" font-size="10.00">FIEAGameEngine/src</text>
<text text-anchor="middle" x="1516.25" y="-6.5" font-family="Helvetica,sans-Serif" font-size="10.00">/content/ScopeWriter.inl</text>
</a>
</g>
</g>
<!-- Node1&#45;&gt;Node11 -->
<g id="edge10_Node000001_Node000011" class="edge">
<title>Node1&#45;&gt;Node11</title>
<g id="a_edge10_Node000001_Node000011"><a xlink:title=" ">
<path fill="none" stroke="#63b8ff" d="M1200.88,-71.78C1263.22,-62.14 1356.91,-47.39 1438.25,-32 1443.91,-30.93 1449.82,-29.75 1455.75,-28.53"/>
<polygon fill="#63b8ff" stroke="#63b8ff" points="1200.46,-68.31 1191.11,-73.29 1201.53,-75.23 1200.46,-68.31"/>
</a>
</g>
</g>
<!-- Node12 -->
<g id="Node000012" class="node">
<title>Node12</title>
<g id="a_Node000012"><a xlink:href="_string_parse_handler_8cpp.html" target="_top" xlink:title=" ">
<polygon fill="white" stroke="#666666" points="1752.12,-32 1594.38,-32 1594.38,0 1752.12,0 1752.12,-32"/>
<text text-anchor="start" x="1602.38" y="-18.5" font-family="Helvetica,sans-Serif" font-size="10.00">FIEAGameEngine/src</text>
<text text-anchor="middle" x="1673.25" y="-6.5" font-family="Helvetica,sans-Serif" font-size="10.00">/content/StringParseHandler.cpp</text>
</a>
</g>
</g>
<!-- Node1&#45;&gt;Node12 -->
<g id="edge12_Node000001_Node000012" class="edge">
<title>Node1&#45;&gt;Node12</title>
<g id="a_edge12_Node000001_Node000012"><a xlink:title=" ">
<path fill="none" stroke="#63b8ff" d="M1200.75,-76.43C1289.96,-67.72 1449.45,-51.19 1585.25,-32 1588.17,-31.59 1591.13,-31.15 1594.13,-30.71"/>
<polygon fill="#63b8ff" stroke="#63b8ff" points="1200.55,-72.94 1190.94,-77.39 1201.23,-79.9 1200.55,-72.94"/>
</a>
</g>
</g>
<!-- Node13 -->
<g id="Node000013" class="node">
<title>Node13</title>
<g id="a_Node000013"><a xlink:href="_vector_handler_8cpp.html" target="_top" xlink:title=" ">
<polygon fill="white" stroke="#666666" points="1904.5,-32 1770,-32 1770,0 1904.5,0 1904.5,-32"/>
<text text-anchor="start" x="1778" y="-18.5" font-family="Helvetica,sans-Serif" font-size="10.00">FIEAGameEngine/src</text>
<text text-anchor="middle" x="1837.25" y="-6.5" font-family="Helvetica,sans-Serif" font-size="10.00">/content/VectorHandler.cpp</text>
</a>
</g>
</g>
<!-- Node1&#45;&gt;Node13 -->
<g id="edge13_Node000001_Node000013" class="edge">
<title>Node1&#45;&gt;Node13</title>
<g id="a_edge13_Node000001_Node000013"><a xlink:title=" ">
<path fill="none" stroke="#63b8ff" d="M1200.44,-79.98C1316.72,-74.34 1558.5,-60.12 1761.25,-32 1764.05,-31.61 1766.9,-31.19 1769.77,-30.73"/>
<polygon fill="#63b8ff" stroke="#63b8ff" points="1200.59,-76.47 1190.76,-80.45 1200.92,-83.47 1200.59,-76.47"/>
</a>
</g>
</g>
<!-- Node14 -->
<g id="Node000014" class="node">
<title>Node14</title>
<g id="a_Node000014"><a xlink:href="_serialization_tests_8cpp.html" target="_top" xlink:title=" ">
<polygon fill="white" stroke="#666666" points="2061.75,-26 1922.75,-26 1922.75,-6 2061.75,-6 2061.75,-26"/>
<text text-anchor="middle" x="1992.25" y="-12.5" font-family="Helvetica,sans-Serif" font-size="10.00">Tests/SerializationTests.cpp</text>
</a>
</g>
</g>
<!-- Node1&#45;&gt;Node14 -->
<g id="edge14_Node000001_Node000014" class="edge">
<title>Node1&#45;&gt;Node14</title>
<g id="a_edge14_Node000001_Node000014"><a xlink:title=" ">
<path fill="none" stroke="#63b8ff" d="M1200.47,-81.33C1337.19,-77.41 1651.35,-65.28 1913.25,-32 1924.47,-30.57 1936.5,-28.55 1947.7,-26.45"/>
<polygon fill="#63b8ff" stroke="#63b8ff" points="1200.77,-77.82 1190.88,-81.6 1200.97,-84.82 1200.77,-77.82"/>
</a>
</g>
</g>
<!-- Node11&#45;&gt;Node1 -->
<g id="edge11_Node000011_Node000001" class="edge">
<title>Node11&#45;&gt;Node1</title>
<g id="a_edge11_Node000011_Node000001"><a xlink:title=" ">
<path fill="none" stroke="#63b8ff" d="M1444.52,-34.2C1354.53,-50.93 1252.12,-66.63 1189.5,-75.51"/>
<polygon fill="#63b8ff" stroke="#63b8ff" points="1445.04,-37.66 1454.22,-32.38 1443.75,-30.78 1445.04,-37.66"/>
</a>
</g>
</g>
</g>
</svg>
