<?xml version="1.0" encoding="UTF-8" standalone="no"?>
<!DOCTYPE svg PUBLIC "-//W3C//DTD SVG 1.1//EN"
 "http://www.w3.org/Graphics/SVG/1.1/DTD/svg11.dtd">
<!-- Generated by graphviz version 12.2.1 (20241206.2353)
 -->
<!-- Title: FIEAGameEngine/src/content/ScopeWriter.cpp Pages: 1 -->
<svg width="1000pt" height="376pt"
 viewBox="0.00 0.00 999.75 376.00" xmlns="http://www.w3.org/2000/svg" xmlns:xlink="http://www.w3.org/1999/xlink">
<g id="graph0" class="graph" transform="scale(1 1) rotate(0) translate(4 372)">
<title>FIEAGameEngine/src/content/ScopeWriter.cpp</title>
<!-- Node1 -->
<g id="Node000001" class="node">
<title>Node1</title>
<g id="a_Node000001"><a xlink:title=" ">
<polygon fill="#999999" stroke="#666666" points="373.38,-368 247.12,-368 247.12,-336 373.38,-336 373.38,-368"/>
<text text-anchor="start" x="255.12" y="-354.5" font-family="Helvetica,sans-Serif" font-size="10.00">FIEAGameEngine/src</text>
<text text-anchor="middle" x="310.25" y="-342.5" font-family="Helvetica,sans-Serif" font-size="10.00">/content/ScopeWriter.cpp</text>
</a>
</g>
</g>
<!-- Node2 -->
<g id="Node000002" class="node">
<title>Node2</title>
<g id="a_Node000002"><a xlink:href="_scope_writer_8h.html" target="_top" xlink:title=" ">
<polygon fill="white" stroke="#666666" points="676,-300 598.5,-300 598.5,-280 676,-280 676,-300"/>
<text text-anchor="middle" x="637.25" y="-286.5" font-family="Helvetica,sans-Serif" font-size="10.00">ScopeWriter.h</text>
</a>
</g>
</g>
<!-- Node1&#45;&gt;Node2 -->
<g id="edge1_Node000001_Node000002" class="edge">
<title>Node1&#45;&gt;Node2</title>
<g id="a_edge1_Node000001_Node000002"><a xlink:title=" ">
<path fill="none" stroke="#63b8ff" d="M373.69,-339.36C435.89,-327.95 529.5,-310.77 586.8,-300.26"/>
<polygon fill="#63b8ff" stroke="#63b8ff" points="587.41,-303.7 596.62,-298.46 586.15,-296.82 587.41,-303.7"/>
</a>
</g>
</g>
<!-- Node25 -->
<g id="Node000025" class="node">
<title>Node25</title>
<g id="a_Node000025"><a xlink:href="_factory_service_8h.html" target="_top" xlink:title=" ">
<polygon fill="white" stroke="#666666" points="377.25,-188 205.25,-188 205.25,-168 377.25,-168 377.25,-188"/>
<text text-anchor="middle" x="291.25" y="-174.5" font-family="Helvetica,sans-Serif" font-size="10.00">FIEAGameEngine/FactoryService.h</text>
</a>
</g>
</g>
<!-- Node1&#45;&gt;Node25 -->
<g id="edge45_Node000001_Node000025" class="edge">
<title>Node1&#45;&gt;Node25</title>
<g id="a_edge45_Node000001_Node000025"><a xlink:title=" ">
<path fill="none" stroke="#63b8ff" d="M308.56,-335.74C305.13,-304.69 297.35,-234.18 293.49,-199.31"/>
<polygon fill="#63b8ff" stroke="#63b8ff" points="297.01,-199.27 292.43,-189.71 290.05,-200.04 297.01,-199.27"/>
</a>
</g>
</g>
<!-- Node3 -->
<g id="Node000003" class="node">
<title>Node3</title>
<g id="a_Node000003"><a xlink:href="_types_8h.html" target="_top" xlink:title=" ">
<polygon fill="white" stroke="#666666" points="334.38,-76 202.12,-76 202.12,-56 334.38,-56 334.38,-76"/>
<text text-anchor="middle" x="268.25" y="-62.5" font-family="Helvetica,sans-Serif" font-size="10.00">FIEAGameEngine/Types.h</text>
</a>
</g>
</g>
<!-- Node2&#45;&gt;Node3 -->
<g id="edge2_Node000002_Node000003" class="edge">
<title>Node2&#45;&gt;Node3</title>
<g id="a_edge2_Node000002_Node000003"><a xlink:title=" ">
<path fill="none" stroke="#63b8ff" d="M598.31,-284.37C484.08,-269.84 154.81,-220.69 105.25,-132 100.91,-124.24 99.87,-119.07 105.25,-112 116.5,-97.22 156.44,-86.06 193.96,-78.55"/>
<polygon fill="#63b8ff" stroke="#63b8ff" points="194.33,-82.05 203.49,-76.72 193.01,-75.17 194.33,-82.05"/>
</a>
</g>
</g>
<!-- Node12 -->
<g id="Node000012" class="node">
<title>Node12</title>
<g id="a_Node000012"><a xlink:href="_parse_writer_8h.html" target="_top" xlink:title=" ">
<polygon fill="white" stroke="#666666" points="651.62,-244 538.88,-244 538.88,-224 651.62,-224 651.62,-244"/>
<text text-anchor="middle" x="595.25" y="-230.5" font-family="Helvetica,sans-Serif" font-size="10.00">Content/ParseWriter.h</text>
</a>
</g>
</g>
<!-- Node2&#45;&gt;Node12 -->
<g id="edge11_Node000002_Node000012" class="edge">
<title>Node2&#45;&gt;Node12</title>
<g id="a_edge11_Node000002_Node000012"><a xlink:title=" ">
<path fill="none" stroke="#63b8ff" d="M629.93,-279.59C624.27,-272.32 616.26,-262.02 609.36,-253.15"/>
<polygon fill="#63b8ff" stroke="#63b8ff" points="612.31,-251.24 603.41,-245.49 606.79,-255.54 612.31,-251.24"/>
</a>
</g>
</g>
<!-- Node15 -->
<g id="Node000015" class="node">
<title>Node15</title>
<g id="a_Node000015"><a xlink:title=" ">
<polygon fill="#e0e0e0" stroke="#999999" points="968.25,-188 928.25,-188 928.25,-168 968.25,-168 968.25,-188"/>
<text text-anchor="middle" x="948.25" y="-174.5" font-family="Helvetica,sans-Serif" font-size="10.00">stack</text>
</a>
</g>
</g>
<!-- Node2&#45;&gt;Node15 -->
<g id="edge18_Node000002_Node000015" class="edge">
<title>Node2&#45;&gt;Node15</title>
<g id="a_edge18_Node000002_Node000015"><a xlink:title=" ">
<path fill="none" stroke="#63b8ff" d="M643.05,-279.65C652.61,-265.13 673.14,-237.43 698.25,-224 784.07,-178.1 819.1,-208.47 914.25,-188 915.08,-187.82 915.92,-187.64 916.76,-187.45"/>
<polygon fill="#63b8ff" stroke="#63b8ff" points="917.48,-190.87 926.36,-185.1 915.81,-184.07 917.48,-190.87"/>
</a>
</g>
</g>
<!-- Node16 -->
<g id="Node000016" class="node">
<title>Node16</title>
<g id="a_Node000016"><a xlink:title=" ">
<polygon fill="#e0e0e0" stroke="#999999" points="991.75,-76 948.75,-76 948.75,-56 991.75,-56 991.75,-76"/>
<text text-anchor="middle" x="970.25" y="-62.5" font-family="Helvetica,sans-Serif" font-size="10.00">vector</text>
</a>
</g>
</g>
<!-- Node2&#45;&gt;Node16 -->
<g id="edge17_Node000002_Node000016" class="edge">
<title>Node2&#45;&gt;Node16</title>
<g id="a_edge17_Node000002_Node000016"><a xlink:title=" ">
<path fill="none" stroke="#63b8ff" d="M676.45,-283.31C757.96,-270.59 941.19,-237.06 977.25,-188 998.98,-158.43 987.86,-113 978.56,-87.04"/>
<polygon fill="#63b8ff" stroke="#63b8ff" points="981.83,-85.79 974.96,-77.72 975.3,-88.31 981.83,-85.79"/>
</a>
</g>
</g>
<!-- Node17 -->
<g id="Node000017" class="node">
<title>Node17</title>
<g id="a_Node000017"><a xlink:href="_scope_8h.html" target="_top" xlink:title=" ">
<polygon fill="white" stroke="#666666" points="521,-244 431.5,-244 431.5,-224 521,-224 521,-244"/>
<text text-anchor="middle" x="476.25" y="-230.5" font-family="Helvetica,sans-Serif" font-size="10.00">Content/Scope.h</text>
</a>
</g>
</g>
<!-- Node2&#45;&gt;Node17 -->
<g id="edge19_Node000002_Node000017" class="edge">
<title>Node2&#45;&gt;Node17</title>
<g id="a_edge19_Node000002_Node000017"><a xlink:title=" ">
<path fill="none" stroke="#63b8ff" d="M609.21,-279.59C583.16,-270.86 544.15,-257.77 515.11,-248.03"/>
<polygon fill="#63b8ff" stroke="#63b8ff" points="516.54,-244.82 505.95,-244.96 514.32,-251.46 516.54,-244.82"/>
</a>
</g>
</g>
<!-- Node28 -->
<g id="Node000028" class="node">
<title>Node28</title>
<g id="a_Node000028"><a xlink:href="_scope_writer_8inl.html" target="_top" xlink:title=" ">
<polygon fill="white" stroke="#666666" points="789.25,-244 707.25,-244 707.25,-224 789.25,-224 789.25,-244"/>
<text text-anchor="middle" x="748.25" y="-230.5" font-family="Helvetica,sans-Serif" font-size="10.00">ScopeWriter.inl</text>
</a>
</g>
</g>
<!-- Node2&#45;&gt;Node28 -->
<g id="edge43_Node000002_Node000028" class="edge">
<title>Node2&#45;&gt;Node28</title>
<g id="a_edge43_Node000002_Node000028"><a xlink:title=" ">
<path fill="none" stroke="#63b8ff" d="M651.32,-279.59C666.88,-271.21 692.12,-258.8 713.02,-249.21"/>
<polygon fill="#63b8ff" stroke="#63b8ff" points="714.43,-252.41 722.1,-245.1 711.55,-246.03 714.43,-252.41"/>
</a>
</g>
</g>
<!-- Node4 -->
<g id="Node000004" class="node">
<title>Node4</title>
<g id="a_Node000004"><a xlink:title=" ">
<polygon fill="#e0e0e0" stroke="#999999" points="62.5,-20 0,-20 0,0 62.5,0 62.5,-20"/>
<text text-anchor="middle" x="31.25" y="-6.5" font-family="Helvetica,sans-Serif" font-size="10.00">windows.h</text>
</a>
</g>
</g>
<!-- Node3&#45;&gt;Node4 -->
<g id="edge3_Node000003_Node000004" class="edge">
<title>Node3&#45;&gt;Node4</title>
<g id="a_edge3_Node000003_Node000004"><a xlink:title=" ">
<path fill="none" stroke="#63b8ff" d="M226.7,-55.53C183.8,-45.76 117.2,-30.58 73.91,-20.72"/>
<polygon fill="#63b8ff" stroke="#63b8ff" points="74.89,-17.35 64.37,-18.55 73.34,-24.18 74.89,-17.35"/>
</a>
</g>
</g>
<!-- Node5 -->
<g id="Node000005" class="node">
<title>Node5</title>
<g id="a_Node000005"><a xlink:title=" ">
<polygon fill="#e0e0e0" stroke="#999999" points="128.38,-20 80.12,-20 80.12,0 128.38,0 128.38,-20"/>
<text text-anchor="middle" x="104.25" y="-6.5" font-family="Helvetica,sans-Serif" font-size="10.00">cassert</text>
</a>
</g>
</g>
<!-- Node3&#45;&gt;Node5 -->
<g id="edge4_Node000003_Node000005" class="edge">
<title>Node3&#45;&gt;Node5</title>
<g id="a_edge4_Node000003_Node000005"><a xlink:title=" ">
<path fill="none" stroke="#63b8ff" d="M239.68,-55.59C211.85,-46.43 169.48,-32.48 139.55,-22.62"/>
<polygon fill="#63b8ff" stroke="#63b8ff" points="140.78,-19.34 130.18,-19.54 138.59,-25.99 140.78,-19.34"/>
</a>
</g>
</g>
<!-- Node6 -->
<g id="Node000006" class="node">
<title>Node6</title>
<g id="a_Node000006"><a xlink:title=" ">
<polygon fill="#e0e0e0" stroke="#999999" points="194.38,-20 146.12,-20 146.12,0 194.38,0 194.38,-20"/>
<text text-anchor="middle" x="170.25" y="-6.5" font-family="Helvetica,sans-Serif" font-size="10.00">cstddef</text>
</a>
</g>
</g>
<!-- Node3&#45;&gt;Node6 -->
<g id="edge5_Node000003_Node000006" class="edge">
<title>Node3&#45;&gt;Node6</title>
<g id="a_edge5_Node000003_Node000006"><a xlink:title=" ">
<path fill="none" stroke="#63b8ff" d="M251.18,-55.59C236.37,-47.44 214.68,-35.48 197.48,-26"/>
<polygon fill="#63b8ff" stroke="#63b8ff" points="199.23,-22.97 188.78,-21.21 195.85,-29.1 199.23,-22.97"/>
</a>
</g>
</g>
<!-- Node7 -->
<g id="Node000007" class="node">
<title>Node7</title>
<g id="a_Node000007"><a xlink:title=" ">
<polygon fill="#e0e0e0" stroke="#999999" points="257.88,-20 212.62,-20 212.62,0 257.88,0 257.88,-20"/>
<text text-anchor="middle" x="235.25" y="-6.5" font-family="Helvetica,sans-Serif" font-size="10.00">cstdint</text>
</a>
</g>
</g>
<!-- Node3&#45;&gt;Node7 -->
<g id="edge6_Node000003_Node000007" class="edge">
<title>Node3&#45;&gt;Node7</title>
<g id="a_edge6_Node000003_Node000007"><a xlink:title=" ">
<path fill="none" stroke="#63b8ff" d="M262.5,-55.59C258.2,-48.55 252.16,-38.67 246.86,-30"/>
<polygon fill="#63b8ff" stroke="#63b8ff" points="249.92,-28.3 241.72,-21.59 243.95,-31.95 249.92,-28.3"/>
</a>
</g>
</g>
<!-- Node8 -->
<g id="Node000008" class="node">
<title>Node8</title>
<g id="a_Node000008"><a xlink:title=" ">
<polygon fill="#e0e0e0" stroke="#999999" points="328.62,-20 275.88,-20 275.88,0 328.62,0 328.62,-20"/>
<text text-anchor="middle" x="302.25" y="-6.5" font-family="Helvetica,sans-Serif" font-size="10.00">cstdbool</text>
</a>
</g>
</g>
<!-- Node3&#45;&gt;Node8 -->
<g id="edge7_Node000003_Node000008" class="edge">
<title>Node3&#45;&gt;Node8</title>
<g id="a_edge7_Node000003_Node000008"><a xlink:title=" ">
<path fill="none" stroke="#63b8ff" d="M274.17,-55.59C278.61,-48.55 284.83,-38.67 290.29,-30"/>
<polygon fill="#63b8ff" stroke="#63b8ff" points="293.22,-31.91 295.59,-21.58 287.3,-28.18 293.22,-31.91"/>
</a>
</g>
</g>
<!-- Node9 -->
<g id="Node000009" class="node">
<title>Node9</title>
<g id="a_Node000009"><a xlink:title=" ">
<polygon fill="#e0e0e0" stroke="#999999" points="637.25,-20 597.25,-20 597.25,0 637.25,0 637.25,-20"/>
<text text-anchor="middle" x="617.25" y="-6.5" font-family="Helvetica,sans-Serif" font-size="10.00">string</text>
</a>
</g>
</g>
<!-- Node3&#45;&gt;Node9 -->
<g id="edge8_Node000003_Node000009" class="edge">
<title>Node3&#45;&gt;Node9</title>
<g id="a_edge8_Node000003_Node000009"><a xlink:title=" ">
<path fill="none" stroke="#63b8ff" d="M334.83,-56.92C409.07,-47.7 525.64,-32.55 585.57,-20.23"/>
<polygon fill="#63b8ff" stroke="#63b8ff" points="586.25,-23.66 595.29,-18.13 584.77,-16.82 586.25,-23.66"/>
</a>
</g>
</g>
<!-- Node10 -->
<g id="Node000010" class="node">
<title>Node10</title>
<g id="a_Node000010"><a xlink:title=" ">
<polygon fill="#e0e0e0" stroke="#999999" points="401.38,-20 347.12,-20 347.12,0 401.38,0 401.38,-20"/>
<text text-anchor="middle" x="374.25" y="-6.5" font-family="Helvetica,sans-Serif" font-size="10.00">crtdefs.h</text>
</a>
</g>
</g>
<!-- Node3&#45;&gt;Node10 -->
<g id="edge9_Node000003_Node000010" class="edge">
<title>Node3&#45;&gt;Node10</title>
<g id="a_edge9_Node000003_Node000010"><a xlink:title=" ">
<path fill="none" stroke="#63b8ff" d="M286.71,-55.59C302.95,-47.32 326.86,-35.14 345.58,-25.6"/>
<polygon fill="#63b8ff" stroke="#63b8ff" points="346.97,-28.82 354.29,-21.17 343.79,-22.59 346.97,-28.82"/>
</a>
</g>
</g>
<!-- Node11 -->
<g id="Node000011" class="node">
<title>Node11</title>
<g id="a_Node000011"><a xlink:title=" ">
<polygon fill="#e0e0e0" stroke="#999999" points="579.25,-20 419.25,-20 419.25,0 579.25,0 579.25,-20"/>
<text text-anchor="middle" x="499.25" y="-6.5" font-family="Helvetica,sans-Serif" font-size="10.00">../src/memory/SystemAllocator.h</text>
</a>
</g>
</g>
<!-- Node3&#45;&gt;Node11 -->
<g id="edge10_Node000003_Node000011" class="edge">
<title>Node3&#45;&gt;Node11</title>
<g id="a_edge10_Node000003_Node000011"><a xlink:title=" ">
<path fill="none" stroke="#63b8ff" d="M308.75,-55.53C347.39,-46.5 405.76,-32.85 447.7,-23.05"/>
<polygon fill="#63b8ff" stroke="#63b8ff" points="448.38,-26.49 457.32,-20.8 446.79,-19.67 448.38,-26.49"/>
</a>
</g>
</g>
<!-- Node13 -->
<g id="Node000013" class="node">
<title>Node13</title>
<g id="a_Node000013"><a xlink:href="_r_t_t_i_8h.html" target="_top" xlink:title=" ">
<polygon fill="white" stroke="#666666" points="518.12,-132 390.38,-132 390.38,-112 518.12,-112 518.12,-132"/>
<text text-anchor="middle" x="454.25" y="-118.5" font-family="Helvetica,sans-Serif" font-size="10.00">FIEAGameEngine/RTTI.h</text>
</a>
</g>
</g>
<!-- Node12&#45;&gt;Node13 -->
<g id="edge12_Node000012_Node000013" class="edge">
<title>Node12&#45;&gt;Node13</title>
<g id="a_edge12_Node000012_Node000013"><a xlink:title=" ">
<path fill="none" stroke="#63b8ff" d="M586.23,-223.59C573.34,-210.41 548.63,-186.02 525.25,-168 511.16,-157.14 494.38,-146.42 480.68,-138.16"/>
<polygon fill="#63b8ff" stroke="#63b8ff" points="482.58,-135.22 472.2,-133.14 479.02,-141.25 482.58,-135.22"/>
</a>
</g>
</g>
<!-- Node12&#45;&gt;Node15 -->
<g id="edge16_Node000012_Node000015" class="edge">
<title>Node12&#45;&gt;Node15</title>
<g id="a_edge16_Node000012_Node000015"><a xlink:title=" ">
<path fill="none" stroke="#63b8ff" d="M651.81,-225.39C736.52,-213.94 889.13,-193.08 914.25,-188 915.08,-187.83 915.92,-187.66 916.77,-187.47"/>
<polygon fill="#63b8ff" stroke="#63b8ff" points="917.46,-190.91 926.37,-185.17 915.83,-184.1 917.46,-190.91"/>
</a>
</g>
</g>
<!-- Node13&#45;&gt;Node3 -->
<g id="edge13_Node000013_Node000003" class="edge">
<title>Node13&#45;&gt;Node3</title>
<g id="a_edge13_Node000013_Node000003"><a xlink:title=" ">
<path fill="none" stroke="#63b8ff" d="M421.85,-111.59C391.37,-102.74 345.49,-89.43 311.82,-79.65"/>
<polygon fill="#63b8ff" stroke="#63b8ff" points="312.93,-76.33 302.36,-76.9 310.98,-83.05 312.93,-76.33"/>
</a>
</g>
</g>
<!-- Node14 -->
<g id="Node000014" class="node">
<title>Node14</title>
<g id="a_Node000014"><a xlink:href="_r_t_t_i_8inl.html" target="_top" xlink:title=" ">
<polygon fill="white" stroke="#666666" points="518.5,-76 390,-76 390,-56 518.5,-56 518.5,-76"/>
<text text-anchor="middle" x="454.25" y="-62.5" font-family="Helvetica,sans-Serif" font-size="10.00">FieaGameEngine/RTTI.inl</text>
</a>
</g>
</g>
<!-- Node13&#45;&gt;Node14 -->
<g id="edge14_Node000013_Node000014" class="edge">
<title>Node13&#45;&gt;Node14</title>
<g id="a_edge14_Node000013_Node000014"><a xlink:title=" ">
<path fill="none" stroke="#63b8ff" d="M448.98,-111.59C447.67,-105.01 447.23,-95.96 447.66,-87.73"/>
<polygon fill="#63b8ff" stroke="#63b8ff" points="451.14,-88.14 448.83,-77.8 444.19,-87.33 451.14,-88.14"/>
</a>
</g>
</g>
<!-- Node14&#45;&gt;Node13 -->
<g id="edge15_Node000014_Node000013" class="edge">
<title>Node14&#45;&gt;Node13</title>
<g id="a_edge15_Node000014_Node000013"><a xlink:title=" ">
<path fill="none" stroke="#63b8ff" d="M459.5,-76.3C460.84,-82.93 461.28,-92.11 460.83,-100.43"/>
<polygon fill="#63b8ff" stroke="#63b8ff" points="457.38,-99.75 459.69,-110.09 464.33,-100.57 457.38,-99.75"/>
</a>
</g>
</g>
<!-- Node17&#45;&gt;Node13 -->
<g id="edge20_Node000017_Node000013" class="edge">
<title>Node17&#45;&gt;Node13</title>
<g id="a_edge20_Node000017_Node000013"><a xlink:title=" ">
<path fill="none" stroke="#63b8ff" d="M474.37,-223.62C470.83,-205.92 463.1,-167.24 458.31,-143.32"/>
<polygon fill="#63b8ff" stroke="#63b8ff" points="461.81,-142.96 456.42,-133.84 454.95,-144.33 461.81,-142.96"/>
</a>
</g>
</g>
<!-- Node17&#45;&gt;Node16 -->
<g id="edge30_Node000017_Node000016" class="edge">
<title>Node17&#45;&gt;Node16</title>
<g id="a_edge30_Node000017_Node000016"><a xlink:title=" ">
<path fill="none" stroke="#63b8ff" d="M521.12,-224.59C627.07,-204.46 886.46,-153.63 920.25,-132 938,-120.64 951.95,-100.67 960.55,-85.86"/>
<polygon fill="#63b8ff" stroke="#63b8ff" points="963.39,-87.96 965.12,-77.51 957.25,-84.6 963.39,-87.96"/>
</a>
</g>
</g>
<!-- Node18 -->
<g id="Node000018" class="node">
<title>Node18</title>
<g id="a_Node000018"><a xlink:href="_datum_8h.html" target="_top" xlink:title=" ">
<polygon fill="white" stroke="#666666" points="657,-188 603.5,-188 603.5,-168 657,-168 657,-188"/>
<text text-anchor="middle" x="630.25" y="-174.5" font-family="Helvetica,sans-Serif" font-size="10.00">Datum.h</text>
</a>
</g>
</g>
<!-- Node17&#45;&gt;Node18 -->
<g id="edge21_Node000017_Node000018" class="edge">
<title>Node17&#45;&gt;Node18</title>
<g id="a_edge21_Node000017_Node000018"><a xlink:title=" ">
<path fill="none" stroke="#63b8ff" d="M503.07,-223.59C527.88,-214.9 564.98,-201.89 592.72,-192.16"/>
<polygon fill="#63b8ff" stroke="#63b8ff" points="593.51,-195.59 601.79,-188.98 591.19,-188.99 593.51,-195.59"/>
</a>
</g>
</g>
<!-- Node23 -->
<g id="Node000023" class="node">
<title>Node23</title>
<g id="a_Node000023"><a xlink:title=" ">
<polygon fill="#e0e0e0" stroke="#999999" points="183.62,-76 100.88,-76 100.88,-56 183.62,-56 183.62,-76"/>
<text text-anchor="middle" x="142.25" y="-62.5" font-family="Helvetica,sans-Serif" font-size="10.00">unordered_map</text>
</a>
</g>
</g>
<!-- Node17&#45;&gt;Node23 -->
<g id="edge31_Node000017_Node000023" class="edge">
<title>Node17&#45;&gt;Node23</title>
<g id="a_edge31_Node000017_Node000023"><a xlink:title=" ">
<path fill="none" stroke="#63b8ff" d="M431.24,-231.17C374.75,-227.66 275.64,-217.48 196.25,-188 151.73,-171.47 128.42,-173.46 105.25,-132 96.16,-115.73 108.9,-97.27 121.84,-84.19"/>
<polygon fill="#63b8ff" stroke="#63b8ff" points="124.11,-86.86 129.04,-77.48 119.34,-81.73 124.11,-86.86"/>
</a>
</g>
</g>
<!-- Node24 -->
<g id="Node000024" class="node">
<title>Node24</title>
<g id="a_Node000024"><a xlink:title=" ">
<polygon fill="#e0e0e0" stroke="#999999" points="516.62,-188 481.88,-188 481.88,-168 516.62,-168 516.62,-188"/>
<text text-anchor="middle" x="499.25" y="-174.5" font-family="Helvetica,sans-Serif" font-size="10.00">map</text>
</a>
</g>
</g>
<!-- Node17&#45;&gt;Node24 -->
<g id="edge32_Node000017_Node000024" class="edge">
<title>Node17&#45;&gt;Node24</title>
<g id="a_edge32_Node000017_Node000024"><a xlink:title=" ">
<path fill="none" stroke="#63b8ff" d="M480.26,-223.59C483.16,-216.78 487.19,-207.32 490.79,-198.86"/>
<polygon fill="#63b8ff" stroke="#63b8ff" points="494,-200.26 494.7,-189.69 487.56,-197.52 494,-200.26"/>
</a>
</g>
</g>
<!-- Node17&#45;&gt;Node25 -->
<g id="edge33_Node000017_Node000025" class="edge">
<title>Node17&#45;&gt;Node25</title>
<g id="a_edge33_Node000017_Node000025"><a xlink:title=" ">
<path fill="none" stroke="#63b8ff" d="M444.03,-223.59C413.7,-214.74 368.08,-201.43 334.58,-191.65"/>
<polygon fill="#63b8ff" stroke="#63b8ff" points="335.76,-188.35 325.18,-188.9 333.8,-195.07 335.76,-188.35"/>
</a>
</g>
</g>
<!-- Node18&#45;&gt;Node9 -->
<g id="edge22_Node000018_Node000009" class="edge">
<title>Node18&#45;&gt;Node9</title>
<g id="a_edge22_Node000018_Node000009"><a xlink:title=" ">
<path fill="none" stroke="#63b8ff" d="M657.18,-176.74C719.38,-175.52 870.1,-168.75 901.25,-132 973.9,-46.29 737.11,-19.81 648.97,-13.04"/>
<polygon fill="#63b8ff" stroke="#63b8ff" points="649.3,-9.55 639.07,-12.31 648.79,-16.53 649.3,-9.55"/>
</a>
</g>
</g>
<!-- Node18&#45;&gt;Node13 -->
<g id="edge26_Node000018_Node000013" class="edge">
<title>Node18&#45;&gt;Node13</title>
<g id="a_edge26_Node000018_Node000013"><a xlink:title=" ">
<path fill="none" stroke="#63b8ff" d="M603.14,-168.68C574.46,-159.88 528.87,-145.89 495.68,-135.71"/>
<polygon fill="#63b8ff" stroke="#63b8ff" points="496.98,-132.45 486.4,-132.86 494.93,-139.14 496.98,-132.45"/>
</a>
</g>
</g>
<!-- Node19 -->
<g id="Node000019" class="node">
<title>Node19</title>
<g id="a_Node000019"><a xlink:title=" ">
<polygon fill="#e0e0e0" stroke="#999999" points="892.12,-132 836.38,-132 836.38,-112 892.12,-112 892.12,-132"/>
<text text-anchor="middle" x="864.25" y="-118.5" font-family="Helvetica,sans-Serif" font-size="10.00">charconv</text>
</a>
</g>
</g>
<!-- Node18&#45;&gt;Node19 -->
<g id="edge23_Node000018_Node000019" class="edge">
<title>Node18&#45;&gt;Node19</title>
<g id="a_edge23_Node000018_Node000019"><a xlink:title=" ">
<path fill="none" stroke="#63b8ff" d="M657.36,-170.93C693.37,-162.85 759.22,-147.97 825,-132.51"/>
<polygon fill="#63b8ff" stroke="#63b8ff" points="825.57,-135.97 834.5,-130.27 823.97,-129.15 825.57,-135.97"/>
</a>
</g>
</g>
<!-- Node20 -->
<g id="Node000020" class="node">
<title>Node20</title>
<g id="a_Node000020"><a xlink:title=" ">
<polygon fill="#e0e0e0" stroke="#999999" points="681.88,-132 612.62,-132 612.62,-112 681.88,-112 681.88,-132"/>
<text text-anchor="middle" x="647.25" y="-118.5" font-family="Helvetica,sans-Serif" font-size="10.00">glm/glm.hpp</text>
</a>
</g>
</g>
<!-- Node18&#45;&gt;Node20 -->
<g id="edge24_Node000018_Node000020" class="edge">
<title>Node18&#45;&gt;Node20</title>
<g id="a_edge24_Node000018_Node000020"><a xlink:title=" ">
<path fill="none" stroke="#63b8ff" d="M633.21,-167.59C635.33,-160.86 638.27,-151.53 640.91,-143.15"/>
<polygon fill="#63b8ff" stroke="#63b8ff" points="644.2,-144.33 643.87,-133.74 637.53,-142.23 644.2,-144.33"/>
</a>
</g>
</g>
<!-- Node21 -->
<g id="Node000021" class="node">
<title>Node21</title>
<g id="a_Node000021"><a xlink:title=" ">
<polygon fill="#e0e0e0" stroke="#999999" points="818.25,-132 700.25,-132 700.25,-112 818.25,-112 818.25,-132"/>
<text text-anchor="middle" x="759.25" y="-118.5" font-family="Helvetica,sans-Serif" font-size="10.00">glm/gtx/string_cast.hpp</text>
</a>
</g>
</g>
<!-- Node18&#45;&gt;Node21 -->
<g id="edge25_Node000018_Node000021" class="edge">
<title>Node18&#45;&gt;Node21</title>
<g id="a_edge25_Node000018_Node000021"><a xlink:title=" ">
<path fill="none" stroke="#63b8ff" d="M652.72,-167.59C673.04,-159.09 703.2,-146.46 726.26,-136.81"/>
<polygon fill="#63b8ff" stroke="#63b8ff" points="727.34,-140.15 735.21,-133.06 724.63,-133.7 727.34,-140.15"/>
</a>
</g>
</g>
<!-- Node22 -->
<g id="Node000022" class="node">
<title>Node22</title>
<g id="a_Node000022"><a xlink:href="_datum_8inl.html" target="_top" xlink:title=" ">
<polygon fill="white" stroke="#666666" points="594.25,-132 536.25,-132 536.25,-112 594.25,-112 594.25,-132"/>
<text text-anchor="middle" x="565.25" y="-118.5" font-family="Helvetica,sans-Serif" font-size="10.00">Datum.inl</text>
</a>
</g>
</g>
<!-- Node18&#45;&gt;Node22 -->
<g id="edge27_Node000018_Node000022" class="edge">
<title>Node18&#45;&gt;Node22</title>
<g id="a_edge27_Node000018_Node000022"><a xlink:title=" ">
<path fill="none" stroke="#63b8ff" d="M613.66,-167.59C603.01,-160.01 589.57,-149.13 579.42,-140.02"/>
<polygon fill="#63b8ff" stroke="#63b8ff" points="581.98,-137.63 572.3,-133.33 577.19,-142.73 581.98,-137.63"/>
</a>
</g>
</g>
<!-- Node22&#45;&gt;Node3 -->
<g id="edge28_Node000022_Node000003" class="edge">
<title>Node22&#45;&gt;Node3</title>
<g id="a_edge28_Node000022_Node000003"><a xlink:title=" ">
<path fill="none" stroke="#63b8ff" d="M535.83,-113.85C532.94,-113.2 530.04,-112.57 527.25,-112 464.25,-99.08 392.13,-86.75 340.03,-78.27"/>
<polygon fill="#63b8ff" stroke="#63b8ff" points="340.81,-74.86 330.38,-76.71 339.7,-81.77 340.81,-74.86"/>
</a>
</g>
</g>
<!-- Node22&#45;&gt;Node18 -->
<g id="edge29_Node000022_Node000018" class="edge">
<title>Node22&#45;&gt;Node18</title>
<g id="a_edge29_Node000022_Node000018"><a xlink:title=" ">
<path fill="none" stroke="#63b8ff" d="M581.94,-132.48C592.55,-140.04 605.89,-150.83 615.99,-159.9"/>
<polygon fill="#63b8ff" stroke="#63b8ff" points="613.4,-162.27 623.09,-166.56 618.19,-157.16 613.4,-162.27"/>
</a>
</g>
</g>
<!-- Node25&#45;&gt;Node3 -->
<g id="edge34_Node000025_Node000003" class="edge">
<title>Node25&#45;&gt;Node3</title>
<g id="a_edge34_Node000025_Node000003"><a xlink:title=" ">
<path fill="none" stroke="#63b8ff" d="M296.5,-167.53C302.92,-154.68 312.1,-131.13 305.25,-112 301.57,-101.73 294.43,-92.13 287.39,-84.46"/>
<polygon fill="#63b8ff" stroke="#63b8ff" points="289.99,-82.11 280.46,-77.48 285.03,-87.04 289.99,-82.11"/>
</a>
</g>
</g>
<!-- Node25&#45;&gt;Node9 -->
<g id="edge40_Node000025_Node000009" class="edge">
<title>Node25&#45;&gt;Node9</title>
<g id="a_edge40_Node000025_Node000009"><a xlink:title=" ">
<path fill="none" stroke="#63b8ff" d="M297.52,-167.77C315.97,-140.74 369.49,-63.24 381.25,-56 457.75,-8.92 494.61,-39.35 585.95,-20.15"/>
<polygon fill="#63b8ff" stroke="#63b8ff" points="586.61,-23.59 595.58,-17.96 585.06,-16.77 586.61,-23.59"/>
</a>
</g>
</g>
<!-- Node25&#45;&gt;Node13 -->
<g id="edge35_Node000025_Node000013" class="edge">
<title>Node25&#45;&gt;Node13</title>
<g id="a_edge35_Node000025_Node000013"><a xlink:title=" ">
<path fill="none" stroke="#63b8ff" d="M319.64,-167.59C346.01,-158.86 385.51,-145.77 414.91,-136.03"/>
<polygon fill="#63b8ff" stroke="#63b8ff" points="415.81,-139.42 424.2,-132.96 413.61,-132.78 415.81,-139.42"/>
</a>
</g>
</g>
<!-- Node25&#45;&gt;Node23 -->
<g id="edge42_Node000025_Node000023" class="edge">
<title>Node25&#45;&gt;Node23</title>
<g id="a_edge42_Node000025_Node000023"><a xlink:title=" ">
<path fill="none" stroke="#63b8ff" d="M272.26,-167.54C256.01,-159.1 232.29,-145.95 213.25,-132 193.34,-117.42 172.78,-98.03 158.94,-84.24"/>
<polygon fill="#63b8ff" stroke="#63b8ff" points="161.47,-81.82 151.95,-77.16 156.49,-86.74 161.47,-81.82"/>
</a>
</g>
</g>
<!-- Node26 -->
<g id="Node000026" class="node">
<title>Node26</title>
<g id="a_Node000026"><a xlink:href="_service_mgr_8h.html" target="_top" xlink:title=" ">
<polygon fill="white" stroke="#666666" points="296.12,-132 222.38,-132 222.38,-112 296.12,-112 296.12,-132"/>
<text text-anchor="middle" x="259.25" y="-118.5" font-family="Helvetica,sans-Serif" font-size="10.00">ServiceMgr.h</text>
</a>
</g>
</g>
<!-- Node25&#45;&gt;Node26 -->
<g id="edge36_Node000025_Node000026" class="edge">
<title>Node25&#45;&gt;Node26</title>
<g id="a_edge36_Node000025_Node000026"><a xlink:title=" ">
<path fill="none" stroke="#63b8ff" d="M285.68,-167.59C281.5,-160.55 275.65,-150.67 270.51,-142"/>
<polygon fill="#63b8ff" stroke="#63b8ff" points="273.64,-140.42 265.53,-133.6 267.62,-143.99 273.64,-140.42"/>
</a>
</g>
</g>
<!-- Node27 -->
<g id="Node000027" class="node">
<title>Node27</title>
<g id="a_Node000027"><a xlink:title=" ">
<polygon fill="#e0e0e0" stroke="#999999" points="165.88,-132 114.62,-132 114.62,-112 165.88,-112 165.88,-132"/>
<text text-anchor="middle" x="140.25" y="-118.5" font-family="Helvetica,sans-Serif" font-size="10.00">memory</text>
</a>
</g>
</g>
<!-- Node25&#45;&gt;Node27 -->
<g id="edge41_Node000025_Node000027" class="edge">
<title>Node25&#45;&gt;Node27</title>
<g id="a_edge41_Node000025_Node000027"><a xlink:title=" ">
<path fill="none" stroke="#63b8ff" d="M264.95,-167.59C240.59,-158.88 204.13,-145.84 176.92,-136.11"/>
<polygon fill="#63b8ff" stroke="#63b8ff" points="178.27,-132.88 167.68,-132.81 175.91,-139.47 178.27,-132.88"/>
</a>
</g>
</g>
<!-- Node26&#45;&gt;Node3 -->
<g id="edge37_Node000026_Node000003" class="edge">
<title>Node26&#45;&gt;Node3</title>
<g id="a_edge37_Node000026_Node000003"><a xlink:title=" ">
<path fill="none" stroke="#63b8ff" d="M260.82,-111.59C261.93,-104.93 263.46,-95.75 264.84,-87.44"/>
<polygon fill="#63b8ff" stroke="#63b8ff" points="268.26,-88.23 266.45,-77.79 261.36,-87.08 268.26,-88.23"/>
</a>
</g>
</g>
<!-- Node26&#45;&gt;Node16 -->
<g id="edge38_Node000026_Node000016" class="edge">
<title>Node26&#45;&gt;Node16</title>
<g id="a_edge38_Node000026_Node000016"><a xlink:title=" ">
<path fill="none" stroke="#63b8ff" d="M296.48,-118.17C420.52,-108.75 818.63,-78.52 936.85,-69.54"/>
<polygon fill="#63b8ff" stroke="#63b8ff" points="937.11,-73.03 946.81,-68.78 936.58,-66.05 937.11,-73.03"/>
</a>
</g>
</g>
<!-- Node26&#45;&gt;Node23 -->
<g id="edge39_Node000026_Node000023" class="edge">
<title>Node26&#45;&gt;Node23</title>
<g id="a_edge39_Node000026_Node000023"><a xlink:title=" ">
<path fill="none" stroke="#63b8ff" d="M238.87,-111.59C220.69,-103.21 193.82,-90.8 173.03,-81.21"/>
<polygon fill="#63b8ff" stroke="#63b8ff" points="174.71,-78.13 164.16,-77.11 171.78,-84.48 174.71,-78.13"/>
</a>
</g>
</g>
<!-- Node28&#45;&gt;Node2 -->
<g id="edge44_Node000028_Node000002" class="edge">
<title>Node28&#45;&gt;Node2</title>
<g id="a_edge44_Node000028_Node000002"><a xlink:title=" ">
<path fill="none" stroke="#63b8ff" d="M734.05,-244.48C718.43,-252.89 693.17,-265.3 672.29,-274.88"/>
<polygon fill="#63b8ff" stroke="#63b8ff" points="670.9,-271.67 663.23,-278.97 673.79,-278.04 670.9,-271.67"/>
</a>
</g>
</g>
</g>
</svg>
