<?xml version="1.0" encoding="UTF-8" standalone="no"?>
<!DOCTYPE svg PUBLIC "-//W3C//DTD SVG 1.1//EN"
 "http://www.w3.org/Graphics/SVG/1.1/DTD/svg11.dtd">
<!-- Generated by graphviz version 12.2.1 (20241206.2353)
 -->
<!-- Title: FIEAGameEngine/include/Content/Scope.h Pages: 1 -->
<svg width="3026pt" height="312pt"
 viewBox="0.00 0.00 3026.12 312.00" xmlns="http://www.w3.org/2000/svg" xmlns:xlink="http://www.w3.org/1999/xlink">
<g id="graph0" class="graph" transform="scale(1 1) rotate(0) translate(4 308)">
<title>FIEAGameEngine/include/Content/Scope.h</title>
<!-- Node1 -->
<g id="Node000001" class="node">
<title>Node1</title>
<g id="a_Node000001"><a xlink:title=" ">
<polygon fill="#999999" stroke="#666666" points="2436.25,-304 2307.75,-304 2307.75,-272 2436.25,-272 2436.25,-304"/>
<text text-anchor="start" x="2315.75" y="-290.5" font-family="Helvetica,sans-Serif" font-size="10.00">FIEAGameEngine/include</text>
<text text-anchor="middle" x="2372" y="-278.5" font-family="Helvetica,sans-Serif" font-size="10.00">/Content/Scope.h</text>
</a>
</g>
</g>
<!-- Node2 -->
<g id="Node000002" class="node">
<title>Node2</title>
<g id="a_Node000002"><a xlink:href="_attributed_8h.html" target="_top" xlink:title=" ">
<polygon fill="white" stroke="#666666" points="2028.25,-236 1899.75,-236 1899.75,-204 2028.25,-204 2028.25,-236"/>
<text text-anchor="start" x="1907.75" y="-222.5" font-family="Helvetica,sans-Serif" font-size="10.00">FIEAGameEngine/include</text>
<text text-anchor="middle" x="1964" y="-210.5" font-family="Helvetica,sans-Serif" font-size="10.00">/Content/Attributed.h</text>
</a>
</g>
</g>
<!-- Node1&#45;&gt;Node2 -->
<g id="edge1_Node000001_Node000002" class="edge">
<title>Node1&#45;&gt;Node2</title>
<g id="a_edge1_Node000001_Node000002"><a xlink:title=" ">
<path fill="none" stroke="#63b8ff" d="M2296.31,-274.76C2219.36,-262.31 2101.41,-243.23 2028.68,-231.46"/>
<polygon fill="#63b8ff" stroke="#63b8ff" points="2295.43,-278.16 2305.86,-276.3 2296.54,-271.25 2295.43,-278.16"/>
</a>
</g>
</g>
<!-- Node25 -->
<g id="Node000025" class="node">
<title>Node25</title>
<g id="a_Node000025"><a xlink:href="_factory_tests_8cpp.html" target="_top" xlink:title=" ">
<polygon fill="white" stroke="#666666" points="2266.38,-26 2147.62,-26 2147.62,-6 2266.38,-6 2266.38,-26"/>
<text text-anchor="middle" x="2207" y="-12.5" font-family="Helvetica,sans-Serif" font-size="10.00">Tests/FactoryTests.cpp</text>
</a>
</g>
</g>
<!-- Node1&#45;&gt;Node25 -->
<g id="edge37_Node000001_Node000025" class="edge">
<title>Node1&#45;&gt;Node25</title>
<g id="a_edge37_Node000001_Node000025"><a xlink:title=" ">
<path fill="none" stroke="#63b8ff" d="M2296.03,-274.16C2254.65,-265.45 2209.39,-252.52 2197,-236 2171.76,-202.36 2197.55,-63.59 2205.08,-26.27"/>
<polygon fill="#63b8ff" stroke="#63b8ff" points="2295.3,-277.59 2305.8,-276.15 2296.7,-270.73 2295.3,-277.59"/>
</a>
</g>
</g>
<!-- Node32 -->
<g id="Node000032" class="node">
<title>Node32</title>
<g id="a_Node000032"><a xlink:href="_attribute_box_8h.html" target="_top" xlink:title=" ">
<polygon fill="#fff0f0" stroke="red" points="1939,-162 1797,-162 1797,-142 1939,-142 1939,-162"/>
<text text-anchor="middle" x="1868" y="-148.5" font-family="Helvetica,sans-Serif" font-size="10.00">Tests/Support/AttributeBox.h</text>
</a>
</g>
</g>
<!-- Node1&#45;&gt;Node32 -->
<g id="edge40_Node000001_Node000032" class="edge">
<title>Node1&#45;&gt;Node32</title>
<g id="a_edge40_Node000001_Node000032"><a xlink:title=" ">
<path fill="none" stroke="#63b8ff" d="M2296.22,-283.6C2168.5,-277.19 1921.24,-261.63 1891,-236 1869.1,-217.44 1867.11,-180.03 1867.49,-162.49"/>
<polygon fill="#63b8ff" stroke="#63b8ff" points="2295.78,-287.08 2305.94,-284.08 2296.13,-280.09 2295.78,-287.08"/>
</a>
</g>
</g>
<!-- Node38 -->
<g id="Node000038" class="node">
<title>Node38</title>
<g id="a_Node000038"><a xlink:href="_factory_service_8cpp.html" target="_top" xlink:title=" ">
<polygon fill="white" stroke="#666666" points="2511.62,-236 2400.38,-236 2400.38,-204 2511.62,-204 2511.62,-236"/>
<text text-anchor="start" x="2408.38" y="-222.5" font-family="Helvetica,sans-Serif" font-size="10.00">FIEAGameEngine/src</text>
<text text-anchor="middle" x="2456" y="-210.5" font-family="Helvetica,sans-Serif" font-size="10.00">/FactoryService.cpp</text>
</a>
</g>
</g>
<!-- Node1&#45;&gt;Node38 -->
<g id="edge18_Node000001_Node000038" class="edge">
<title>Node1&#45;&gt;Node38</title>
<g id="a_edge18_Node000001_Node000038"><a xlink:title=" ">
<path fill="none" stroke="#63b8ff" d="M2400.51,-264.6C2412.3,-255.34 2425.67,-244.83 2436.33,-236.45"/>
<polygon fill="#63b8ff" stroke="#63b8ff" points="2398.37,-261.83 2392.67,-270.76 2402.7,-267.33 2398.37,-261.83"/>
</a>
</g>
</g>
<!-- Node39 -->
<g id="Node000039" class="node">
<title>Node39</title>
<g id="a_Node000039"><a xlink:href="_datum_8cpp.html" target="_top" xlink:title=" ">
<polygon fill="white" stroke="#666666" points="2640.62,-236 2529.38,-236 2529.38,-204 2640.62,-204 2640.62,-236"/>
<text text-anchor="start" x="2537.38" y="-222.5" font-family="Helvetica,sans-Serif" font-size="10.00">FIEAGameEngine/src</text>
<text text-anchor="middle" x="2585" y="-210.5" font-family="Helvetica,sans-Serif" font-size="10.00">/content/Datum.cpp</text>
</a>
</g>
</g>
<!-- Node1&#45;&gt;Node39 -->
<g id="edge19_Node000001_Node000039" class="edge">
<title>Node1&#45;&gt;Node39</title>
<g id="a_edge19_Node000001_Node000039"><a xlink:title=" ">
<path fill="none" stroke="#63b8ff" d="M2432.63,-268.21C2465.01,-258.18 2504.39,-245.98 2535.01,-236.49"/>
<polygon fill="#63b8ff" stroke="#63b8ff" points="2431.9,-264.77 2423.38,-271.08 2433.97,-271.46 2431.9,-264.77"/>
</a>
</g>
</g>
<!-- Node40 -->
<g id="Node000040" class="node">
<title>Node40</title>
<g id="a_Node000040"><a xlink:href="_scope_8cpp.html" target="_top" xlink:title=" ">
<polygon fill="white" stroke="#666666" points="2769.62,-236 2658.38,-236 2658.38,-204 2769.62,-204 2769.62,-236"/>
<text text-anchor="start" x="2666.38" y="-222.5" font-family="Helvetica,sans-Serif" font-size="10.00">FIEAGameEngine/src</text>
<text text-anchor="middle" x="2714" y="-210.5" font-family="Helvetica,sans-Serif" font-size="10.00">/content/Scope.cpp</text>
</a>
</g>
</g>
<!-- Node1&#45;&gt;Node40 -->
<g id="edge20_Node000001_Node000040" class="edge">
<title>Node1&#45;&gt;Node40</title>
<g id="a_edge20_Node000001_Node000040"><a xlink:title=" ">
<path fill="none" stroke="#63b8ff" d="M2447.75,-274.13C2503.75,-264.37 2581.81,-250.24 2650,-236 2652.68,-235.44 2655.42,-234.85 2658.19,-234.25"/>
<polygon fill="#63b8ff" stroke="#63b8ff" points="2447.24,-270.67 2437.99,-275.83 2448.44,-277.56 2447.24,-270.67"/>
</a>
</g>
</g>
<!-- Node41 -->
<g id="Node000041" class="node">
<title>Node41</title>
<g id="a_Node000041"><a xlink:href="_scope_writer_8h.html" target="_top" xlink:title=" ">
<polygon fill="white" stroke="#666666" points="1082.88,-100 967.12,-100 967.12,-68 1082.88,-68 1082.88,-100"/>
<text text-anchor="start" x="975.12" y="-86.5" font-family="Helvetica,sans-Serif" font-size="10.00">FIEAGameEngine/src</text>
<text text-anchor="middle" x="1025" y="-74.5" font-family="Helvetica,sans-Serif" font-size="10.00">/content/ScopeWriter.h</text>
</a>
</g>
</g>
<!-- Node1&#45;&gt;Node41 -->
<g id="edge21_Node000001_Node000041" class="edge">
<title>Node1&#45;&gt;Node41</title>
<g id="a_edge21_Node000001_Node000041"><a xlink:title=" ">
<path fill="none" stroke="#63b8ff" d="M2296,-281.13C2197.15,-273.08 2019.22,-257.16 1868,-236 1571.48,-194.5 1219.83,-124.86 1083.26,-97.02"/>
<polygon fill="#63b8ff" stroke="#63b8ff" points="2295.61,-284.61 2305.86,-281.93 2296.17,-277.63 2295.61,-284.61"/>
</a>
</g>
</g>
<!-- Node51 -->
<g id="Node000051" class="node">
<title>Node51</title>
<g id="a_Node000051"><a xlink:href="_datum_test_8cpp.html" target="_top" xlink:title=" ">
<polygon fill="white" stroke="#666666" points="2897.88,-230 2788.12,-230 2788.12,-210 2897.88,-210 2897.88,-230"/>
<text text-anchor="middle" x="2843" y="-216.5" font-family="Helvetica,sans-Serif" font-size="10.00">Tests/DatumTest.cpp</text>
</a>
</g>
</g>
<!-- Node1&#45;&gt;Node51 -->
<g id="edge36_Node000001_Node000051" class="edge">
<title>Node1&#45;&gt;Node51</title>
<g id="a_edge36_Node000001_Node000051"><a xlink:title=" ">
<path fill="none" stroke="#63b8ff" d="M2447.68,-279.93C2529.68,-271.71 2664.19,-256.59 2779,-236 2787.65,-234.45 2796.89,-232.47 2805.57,-230.47"/>
<polygon fill="#63b8ff" stroke="#63b8ff" points="2447.58,-276.42 2437.97,-280.89 2448.27,-283.39 2447.58,-276.42"/>
</a>
</g>
</g>
<!-- Node52 -->
<g id="Node000052" class="node">
<title>Node52</title>
<g id="a_Node000052"><a xlink:href="_r_t_t_i_test_8cpp.html" target="_top" xlink:title=" ">
<polygon fill="white" stroke="#666666" points="3018.12,-230 2915.88,-230 2915.88,-210 3018.12,-210 3018.12,-230"/>
<text text-anchor="middle" x="2967" y="-216.5" font-family="Helvetica,sans-Serif" font-size="10.00">Tests/RTTITest.cpp</text>
</a>
</g>
</g>
<!-- Node1&#45;&gt;Node52 -->
<g id="edge38_Node000001_Node000052" class="edge">
<title>Node1&#45;&gt;Node52</title>
<g id="a_edge38_Node000001_Node000052"><a xlink:title=" ">
<path fill="none" stroke="#63b8ff" d="M2447.98,-283.35C2552.13,-277.53 2744.8,-263.84 2907,-236 2915.47,-234.55 2924.5,-232.54 2932.92,-230.46"/>
<polygon fill="#63b8ff" stroke="#63b8ff" points="2447.95,-279.85 2438.16,-283.89 2448.34,-286.84 2447.95,-279.85"/>
</a>
</g>
</g>
<!-- Node53 -->
<g id="Node000053" class="node">
<title>Node53</title>
<g id="a_Node000053"><a xlink:href="_scope_test_8cpp.html" target="_top" xlink:title=" ">
<polygon fill="white" stroke="#666666" points="2419.12,-162 2310.88,-162 2310.88,-142 2419.12,-142 2419.12,-162"/>
<text text-anchor="middle" x="2365" y="-148.5" font-family="Helvetica,sans-Serif" font-size="10.00">Tests/ScopeTest.cpp</text>
</a>
</g>
</g>
<!-- Node1&#45;&gt;Node53 -->
<g id="edge39_Node000001_Node000053" class="edge">
<title>Node1&#45;&gt;Node53</title>
<g id="a_edge39_Node000001_Node000053"><a xlink:title=" ">
<path fill="none" stroke="#63b8ff" d="M2370.6,-260.21C2369.02,-229.9 2366.52,-182.16 2365.48,-162.22"/>
<polygon fill="#63b8ff" stroke="#63b8ff" points="2367.1,-260.31 2371.12,-270.12 2374.09,-259.95 2367.1,-260.31"/>
</a>
</g>
</g>
<!-- Node54 -->
<g id="Node000054" class="node">
<title>Node54</title>
<g id="a_Node000054"><a xlink:href="_scoped_foo_8h.html" target="_top" xlink:title=" ">
<polygon fill="#fff0f0" stroke="red" points="2343.75,-230 2206.25,-230 2206.25,-210 2343.75,-210 2343.75,-230"/>
<text text-anchor="middle" x="2275" y="-216.5" font-family="Helvetica,sans-Serif" font-size="10.00">Tests/Support/ScopedFoo.h</text>
</a>
</g>
</g>
<!-- Node1&#45;&gt;Node54 -->
<g id="edge41_Node000001_Node000054" class="edge">
<title>Node1&#45;&gt;Node54</title>
<g id="a_edge41_Node000001_Node000054"><a xlink:title=" ">
<path fill="none" stroke="#63b8ff" d="M2340.21,-265.37C2322.76,-253.5 2302.02,-239.39 2288.69,-230.32"/>
<polygon fill="#63b8ff" stroke="#63b8ff" points="2338.01,-268.11 2348.25,-270.84 2341.95,-262.32 2338.01,-268.11"/>
</a>
</g>
</g>
<!-- Node3 -->
<g id="Node000003" class="node">
<title>Node3</title>
<g id="a_Node000003"><a xlink:href="_action_8h.html" target="_top" xlink:title=" ">
<polygon fill="#fff0f0" stroke="red" points="1779.25,-168 1650.75,-168 1650.75,-136 1779.25,-136 1779.25,-168"/>
<text text-anchor="start" x="1658.75" y="-154.5" font-family="Helvetica,sans-Serif" font-size="10.00">FIEAGameEngine/include</text>
<text text-anchor="middle" x="1715" y="-142.5" font-family="Helvetica,sans-Serif" font-size="10.00">/Content/Actions/Action.h</text>
</a>
</g>
</g>
<!-- Node2&#45;&gt;Node3 -->
<g id="edge2_Node000002_Node000003" class="edge">
<title>Node2&#45;&gt;Node3</title>
<g id="a_edge2_Node000002_Node000003"><a xlink:title=" ">
<path fill="none" stroke="#63b8ff" d="M1894.6,-200.6C1856.47,-190.5 1809.7,-178.1 1773.44,-168.49"/>
<polygon fill="#63b8ff" stroke="#63b8ff" points="1893.59,-203.96 1904.16,-203.14 1895.39,-197.19 1893.59,-203.96"/>
</a>
</g>
</g>
<!-- Node22 -->
<g id="Node000022" class="node">
<title>Node22</title>
<g id="a_Node000022"><a xlink:href="_game_object_8h.html" target="_top" xlink:title=" ">
<polygon fill="#fff0f0" stroke="red" points="1735.25,-100 1606.75,-100 1606.75,-68 1735.25,-68 1735.25,-100"/>
<text text-anchor="start" x="1614.75" y="-86.5" font-family="Helvetica,sans-Serif" font-size="10.00">FIEAGameEngine/include</text>
<text text-anchor="middle" x="1671" y="-74.5" font-family="Helvetica,sans-Serif" font-size="10.00">/Content/GameObject.h</text>
</a>
</g>
</g>
<!-- Node2&#45;&gt;Node22 -->
<g id="edge10_Node000002_Node000022" class="edge">
<title>Node2&#45;&gt;Node22</title>
<g id="a_edge10_Node000002_Node000022"><a xlink:title=" ">
<path fill="none" stroke="#63b8ff" d="M1888.08,-217.92C1803.05,-214.91 1673.01,-204.31 1642,-168 1625.25,-148.38 1643.25,-118.5 1657.42,-100.45"/>
<polygon fill="#63b8ff" stroke="#63b8ff" points="1887.89,-221.42 1898,-218.24 1888.12,-214.42 1887.89,-221.42"/>
</a>
</g>
</g>
<!-- Node29 -->
<g id="Node000029" class="node">
<title>Node29</title>
<g id="a_Node000029"><a xlink:href="_content_service_8h.html" target="_top" xlink:title=" ">
<polygon fill="#fff0f0" stroke="red" points="2171.25,-168 1994.75,-168 1994.75,-136 2171.25,-136 2171.25,-168"/>
<text text-anchor="start" x="2002.75" y="-154.5" font-family="Helvetica,sans-Serif" font-size="10.00">FIEAGameEngine/include</text>
<text text-anchor="middle" x="2083" y="-142.5" font-family="Helvetica,sans-Serif" font-size="10.00">/FIEAGameEngine/ContentService.h</text>
</a>
</g>
</g>
<!-- Node2&#45;&gt;Node29 -->
<g id="edge11_Node000002_Node000029" class="edge">
<title>Node2&#45;&gt;Node29</title>
<g id="a_edge11_Node000002_Node000029"><a xlink:title=" ">
<path fill="none" stroke="#63b8ff" d="M2001.74,-198.07C2019.11,-188.44 2039.34,-177.21 2055.27,-168.38"/>
<polygon fill="#63b8ff" stroke="#63b8ff" points="2000.27,-194.88 1993.22,-202.79 2003.67,-201 2000.27,-194.88"/>
</a>
</g>
</g>
<!-- Node30 -->
<g id="Node000030" class="node">
<title>Node30</title>
<g id="a_Node000030"><a xlink:href="_attributed_8cpp.html" target="_top" xlink:title=" ">
<polygon fill="white" stroke="#666666" points="2102.5,-100 1987.5,-100 1987.5,-68 2102.5,-68 2102.5,-100"/>
<text text-anchor="start" x="1995.5" y="-86.5" font-family="Helvetica,sans-Serif" font-size="10.00">FIEAGameEngine/src</text>
<text text-anchor="middle" x="2045" y="-74.5" font-family="Helvetica,sans-Serif" font-size="10.00">/content/Attributed.cpp</text>
</a>
</g>
</g>
<!-- Node2&#45;&gt;Node30 -->
<g id="edge14_Node000002_Node000030" class="edge">
<title>Node2&#45;&gt;Node30</title>
<g id="a_edge14_Node000002_Node000030"><a xlink:title=" ">
<path fill="none" stroke="#63b8ff" d="M1966.91,-192.6C1969.74,-175.44 1975.28,-153.15 1986,-136 1994.9,-121.76 2009.02,-109.35 2021.21,-100.34"/>
<polygon fill="#63b8ff" stroke="#63b8ff" points="1963.51,-191.64 1965.56,-202.04 1970.44,-192.63 1963.51,-191.64"/>
</a>
</g>
</g>
<!-- Node2&#45;&gt;Node32 -->
<g id="edge15_Node000002_Node000032" class="edge">
<title>Node2&#45;&gt;Node32</title>
<g id="a_edge15_Node000002_Node000032"><a xlink:title=" ">
<path fill="none" stroke="#63b8ff" d="M1932.54,-197.37C1915.27,-185.5 1894.74,-171.39 1881.55,-162.32"/>
<polygon fill="#63b8ff" stroke="#63b8ff" points="1930.26,-200.05 1940.49,-202.83 1934.23,-194.29 1930.26,-200.05"/>
</a>
</g>
</g>
<!-- Node3&#45;&gt;Node22 -->
<g id="edge3_Node000003_Node000022" class="edge">
<title>Node3&#45;&gt;Node22</title>
<g id="a_edge3_Node000003_Node000022"><a xlink:title=" ">
<path fill="none" stroke="#63b8ff" d="M1698.54,-126.3C1692.7,-117.55 1686.31,-107.96 1681.15,-100.22"/>
<polygon fill="#63b8ff" stroke="#63b8ff" points="1695.5,-128.05 1703.96,-134.43 1701.32,-124.17 1695.5,-128.05"/>
</a>
</g>
</g>
<!-- Node12 -->
<g id="Node000012" class="node">
<title>Node12</title>
<g id="a_Node000012"><a xlink:href="_action_handler_8cpp.html" target="_top" xlink:title=" ">
<polygon fill="white" stroke="#666666" points="1904.25,-32 1769.75,-32 1769.75,0 1904.25,0 1904.25,-32"/>
<text text-anchor="start" x="1777.75" y="-18.5" font-family="Helvetica,sans-Serif" font-size="10.00">FIEAGameEngine/src</text>
<text text-anchor="middle" x="1837" y="-6.5" font-family="Helvetica,sans-Serif" font-size="10.00">/content/ActionHandler.cpp</text>
</a>
</g>
</g>
<!-- Node3&#45;&gt;Node12 -->
<g id="edge9_Node000003_Node000012" class="edge">
<title>Node3&#45;&gt;Node12</title>
<g id="a_edge9_Node000003_Node000012"><a xlink:title=" ">
<path fill="none" stroke="#63b8ff" d="M1732.89,-127.01C1745.91,-110.02 1764.3,-86.96 1782,-68 1793.73,-55.44 1807.99,-42.27 1819.05,-32.46"/>
<polygon fill="#63b8ff" stroke="#63b8ff" points="1730.41,-124.48 1727.16,-134.56 1735.99,-128.71 1730.41,-124.48"/>
</a>
</g>
</g>
<!-- Node22&#45;&gt;Node12 -->
<g id="edge4_Node000022_Node000012" class="edge">
<title>Node22&#45;&gt;Node12</title>
<g id="a_edge4_Node000022_Node000012"><a xlink:title=" ">
<path fill="none" stroke="#63b8ff" d="M1720.57,-63.29C1745.35,-53.44 1774.91,-41.69 1798.04,-32.49"/>
<polygon fill="#63b8ff" stroke="#63b8ff" points="1719.33,-60.02 1711.33,-66.97 1721.91,-66.52 1719.33,-60.02"/>
</a>
</g>
</g>
<!-- Node13 -->
<g id="Node000013" class="node">
<title>Node13</title>
<g id="a_Node000013"><a xlink:href="_action_list_handler_8cpp.html" target="_top" xlink:title=" ">
<polygon fill="white" stroke="#666666" points="1572.12,-32 1421.88,-32 1421.88,0 1572.12,0 1572.12,-32"/>
<text text-anchor="start" x="1429.88" y="-18.5" font-family="Helvetica,sans-Serif" font-size="10.00">FIEAGameEngine/src</text>
<text text-anchor="middle" x="1497" y="-6.5" font-family="Helvetica,sans-Serif" font-size="10.00">/content/ActionListHandler.cpp</text>
</a>
</g>
</g>
<!-- Node22&#45;&gt;Node13 -->
<g id="edge5_Node000022_Node000013" class="edge">
<title>Node22&#45;&gt;Node13</title>
<g id="a_edge5_Node000022_Node000013"><a xlink:title=" ">
<path fill="none" stroke="#63b8ff" d="M1619.74,-63.56C1593.62,-53.65 1562.3,-41.77 1537.84,-32.49"/>
<polygon fill="#63b8ff" stroke="#63b8ff" points="1618.2,-66.72 1628.79,-66.99 1620.68,-60.17 1618.2,-66.72"/>
</a>
</g>
</g>
<!-- Node24 -->
<g id="Node000024" class="node">
<title>Node24</title>
<g id="a_Node000024"><a xlink:href="_game_object_handler_8cpp.html" target="_top" xlink:title=" ">
<polygon fill="white" stroke="#666666" points="1751.75,-32 1590.25,-32 1590.25,0 1751.75,0 1751.75,-32"/>
<text text-anchor="start" x="1598.25" y="-18.5" font-family="Helvetica,sans-Serif" font-size="10.00">FIEAGameEngine/src</text>
<text text-anchor="middle" x="1671" y="-6.5" font-family="Helvetica,sans-Serif" font-size="10.00">/content/GameObjectHandler.cpp</text>
</a>
</g>
</g>
<!-- Node22&#45;&gt;Node24 -->
<g id="edge6_Node000022_Node000024" class="edge">
<title>Node22&#45;&gt;Node24</title>
<g id="a_edge6_Node000022_Node000024"><a xlink:title=" ">
<path fill="none" stroke="#63b8ff" d="M1671,-56.31C1671,-48.12 1671,-39.38 1671,-32.22"/>
<polygon fill="#63b8ff" stroke="#63b8ff" points="1667.5,-56.18 1671,-66.18 1674.5,-56.18 1667.5,-56.18"/>
</a>
</g>
</g>
<!-- Node22&#45;&gt;Node25 -->
<g id="edge7_Node000022_Node000025" class="edge">
<title>Node22&#45;&gt;Node25</title>
<g id="a_edge7_Node000022_Node000025"><a xlink:title=" ">
<path fill="none" stroke="#63b8ff" d="M1746.75,-72.61C1758.54,-71.04 1770.6,-69.45 1782,-68 1912.11,-51.4 2064.83,-33.45 2147.14,-23.9"/>
<polygon fill="#63b8ff" stroke="#63b8ff" points="1746.49,-69.11 1737.04,-73.91 1747.42,-76.05 1746.49,-69.11"/>
</a>
</g>
</g>
<!-- Node8 -->
<g id="Node000008" class="node">
<title>Node8</title>
<g id="a_Node000008"><a xlink:href="_serialization_tests_8cpp.html" target="_top" xlink:title=" ">
<polygon fill="white" stroke="#666666" points="2061.5,-26 1922.5,-26 1922.5,-6 2061.5,-6 2061.5,-26"/>
<text text-anchor="middle" x="1992" y="-12.5" font-family="Helvetica,sans-Serif" font-size="10.00">Tests/SerializationTests.cpp</text>
</a>
</g>
</g>
<!-- Node22&#45;&gt;Node8 -->
<g id="edge8_Node000022_Node000008" class="edge">
<title>Node22&#45;&gt;Node8</title>
<g id="a_edge8_Node000022_Node000008"><a xlink:title=" ">
<path fill="none" stroke="#63b8ff" d="M1746.85,-67.41C1808.77,-54.67 1894.25,-37.1 1946.19,-26.42"/>
<polygon fill="#63b8ff" stroke="#63b8ff" points="1746.15,-63.98 1737.06,-69.42 1747.56,-70.83 1746.15,-63.98"/>
</a>
</g>
</g>
<!-- Node29&#45;&gt;Node8 -->
<g id="edge13_Node000029_Node000008" class="edge">
<title>Node29&#45;&gt;Node8</title>
<g id="a_edge13_Node000029_Node000008"><a xlink:title=" ">
<path fill="none" stroke="#63b8ff" d="M2102.51,-126.63C2113.88,-109.27 2123.87,-85.94 2112,-68 2097.51,-46.1 2071.51,-33.58 2047.41,-26.43"/>
<polygon fill="#63b8ff" stroke="#63b8ff" points="2099.97,-124.17 2097.05,-134.35 2105.68,-128.21 2099.97,-124.17"/>
</a>
</g>
</g>
<!-- Node29&#45;&gt;Node30 -->
<g id="edge12_Node000029_Node000030" class="edge">
<title>Node29&#45;&gt;Node30</title>
<g id="a_edge12_Node000029_Node000030"><a xlink:title=" ">
<path fill="none" stroke="#63b8ff" d="M2068.46,-125.74C2063.5,-117.14 2058.12,-107.79 2053.77,-100.22"/>
<polygon fill="#63b8ff" stroke="#63b8ff" points="2065.41,-127.46 2073.43,-134.38 2071.47,-123.97 2065.41,-127.46"/>
</a>
</g>
</g>
<!-- Node32&#45;&gt;Node8 -->
<g id="edge17_Node000032_Node000008" class="edge">
<title>Node32&#45;&gt;Node8</title>
<g id="a_edge17_Node000032_Node000008"><a xlink:title=" ">
<path fill="none" stroke="#63b8ff" d="M1894.61,-135.74C1909.11,-126.59 1926.75,-114.02 1940,-100 1962.07,-76.64 1979.9,-42.53 1987.71,-26.28"/>
<polygon fill="#63b8ff" stroke="#63b8ff" points="1893.17,-132.52 1886.46,-140.72 1896.81,-138.5 1893.17,-132.52"/>
</a>
</g>
</g>
<!-- Node33 -->
<g id="Node000033" class="node">
<title>Node33</title>
<g id="a_Node000033"><a xlink:href="_attribute_box_tests_8cpp.html" target="_top" xlink:title=" ">
<polygon fill="white" stroke="#666666" points="1930.88,-94 1791.12,-94 1791.12,-74 1930.88,-74 1930.88,-94"/>
<text text-anchor="middle" x="1861" y="-80.5" font-family="Helvetica,sans-Serif" font-size="10.00">Tests/AttributeBoxTests.cpp</text>
</a>
</g>
</g>
<!-- Node32&#45;&gt;Node33 -->
<g id="edge16_Node000032_Node000033" class="edge">
<title>Node32&#45;&gt;Node33</title>
<g id="a_edge16_Node000032_Node000033"><a xlink:title=" ">
<path fill="none" stroke="#63b8ff" d="M1865.8,-130.28C1864.53,-118.27 1862.99,-103.74 1862,-94.44"/>
<polygon fill="#63b8ff" stroke="#63b8ff" points="1862.3,-130.46 1866.84,-140.04 1869.26,-129.73 1862.3,-130.46"/>
</a>
</g>
</g>
<!-- Node41&#45;&gt;Node12 -->
<g id="edge22_Node000041_Node000012" class="edge">
<title>Node41&#45;&gt;Node12</title>
<g id="a_edge22_Node000041_Node000012"><a xlink:title=" ">
<path fill="none" stroke="#63b8ff" d="M1094.38,-81.1C1225.24,-76.87 1517.27,-64.37 1761,-32 1763.8,-31.63 1766.65,-31.22 1769.53,-30.77"/>
<polygon fill="#63b8ff" stroke="#63b8ff" points="1094.37,-77.6 1084.49,-81.41 1094.6,-84.59 1094.37,-77.6"/>
</a>
</g>
</g>
<!-- Node41&#45;&gt;Node13 -->
<g id="edge23_Node000041_Node000013" class="edge">
<title>Node41&#45;&gt;Node13</title>
<g id="a_edge23_Node000041_Node000013"><a xlink:title=" ">
<path fill="none" stroke="#63b8ff" d="M1094.38,-74.86C1172.11,-65.51 1301.81,-49.23 1413,-32 1415.78,-31.57 1418.61,-31.12 1421.47,-30.66"/>
<polygon fill="#63b8ff" stroke="#63b8ff" points="1094.31,-71.34 1084.8,-76.01 1095.14,-78.29 1094.31,-71.34"/>
</a>
</g>
</g>
<!-- Node41&#45;&gt;Node24 -->
<g id="edge26_Node000041_Node000024" class="edge">
<title>Node41&#45;&gt;Node24</title>
<g id="a_edge26_Node000041_Node000024"><a xlink:title=" ">
<path fill="none" stroke="#63b8ff" d="M1094.62,-78.27C1200.08,-70.73 1406.56,-54.51 1581,-32 1583.98,-31.61 1587.02,-31.2 1590.09,-30.77"/>
<polygon fill="#63b8ff" stroke="#63b8ff" points="1094.42,-74.77 1084.7,-78.97 1094.92,-81.76 1094.42,-74.77"/>
</a>
</g>
</g>
<!-- Node41&#45;&gt;Node8 -->
<g id="edge35_Node000041_Node000008" class="edge">
<title>Node41&#45;&gt;Node8</title>
<g id="a_edge35_Node000041_Node000008"><a xlink:title=" ">
<path fill="none" stroke="#63b8ff" d="M1094.43,-82.08C1244.41,-79.44 1609.59,-69.36 1913,-32 1924.36,-30.6 1936.55,-28.56 1947.87,-26.43"/>
<polygon fill="#63b8ff" stroke="#63b8ff" points="1094.61,-78.58 1084.67,-82.25 1094.73,-85.58 1094.61,-78.58"/>
</a>
</g>
</g>
<!-- Node42 -->
<g id="Node000042" class="node">
<title>Node42</title>
<g id="a_Node000042"><a xlink:href="_array_handler_8cpp.html" target="_top" xlink:title=" ">
<polygon fill="white" stroke="#666666" points="1404,-32 1274,-32 1274,0 1404,0 1404,-32"/>
<text text-anchor="start" x="1282" y="-18.5" font-family="Helvetica,sans-Serif" font-size="10.00">FIEAGameEngine/src</text>
<text text-anchor="middle" x="1339" y="-6.5" font-family="Helvetica,sans-Serif" font-size="10.00">/content/ArrayHandler.cpp</text>
</a>
</g>
</g>
<!-- Node41&#45;&gt;Node42 -->
<g id="edge24_Node000041_Node000042" class="edge">
<title>Node41&#45;&gt;Node42</title>
<g id="a_edge24_Node000041_Node000042"><a xlink:title=" ">
<path fill="none" stroke="#63b8ff" d="M1094.42,-68.41C1147.88,-57.17 1221.26,-41.75 1273.67,-30.73"/>
<polygon fill="#63b8ff" stroke="#63b8ff" points="1093.87,-64.95 1084.81,-70.43 1095.31,-71.8 1093.87,-64.95"/>
</a>
</g>
</g>
<!-- Node43 -->
<g id="Node000043" class="node">
<title>Node43</title>
<g id="a_Node000043"><a xlink:href="_float_parse_handler_8cpp.html" target="_top" xlink:title=" ">
<polygon fill="white" stroke="#666666" points="154,-32 0,-32 0,0 154,0 154,-32"/>
<text text-anchor="start" x="8" y="-18.5" font-family="Helvetica,sans-Serif" font-size="10.00">FIEAGameEngine/src</text>
<text text-anchor="middle" x="77" y="-6.5" font-family="Helvetica,sans-Serif" font-size="10.00">/content/FloatParseHandler.cpp</text>
</a>
</g>
</g>
<!-- Node41&#45;&gt;Node43 -->
<g id="edge25_Node000041_Node000043" class="edge">
<title>Node41&#45;&gt;Node43</title>
<g id="a_edge25_Node000041_Node000043"><a xlink:title=" ">
<path fill="none" stroke="#63b8ff" d="M955.31,-81.56C808.38,-77.93 456.23,-66.13 163,-32 160.14,-31.67 157.23,-31.3 154.29,-30.91"/>
<polygon fill="#63b8ff" stroke="#63b8ff" points="955.19,-85.06 965.27,-81.8 955.36,-78.06 955.19,-85.06"/>
</a>
</g>
</g>
<!-- Node44 -->
<g id="Node000044" class="node">
<title>Node44</title>
<g id="a_Node000044"><a xlink:href="_int_parse_handler_8cpp.html" target="_top" xlink:title=" ">
<polygon fill="white" stroke="#666666" points="315.75,-32 172.25,-32 172.25,0 315.75,0 315.75,-32"/>
<text text-anchor="start" x="180.25" y="-18.5" font-family="Helvetica,sans-Serif" font-size="10.00">FIEAGameEngine/src</text>
<text text-anchor="middle" x="244" y="-6.5" font-family="Helvetica,sans-Serif" font-size="10.00">/content/IntParseHandler.cpp</text>
</a>
</g>
</g>
<!-- Node41&#45;&gt;Node44 -->
<g id="edge27_Node000041_Node000044" class="edge">
<title>Node41&#45;&gt;Node44</title>
<g id="a_edge27_Node000041_Node000044"><a xlink:title=" ">
<path fill="none" stroke="#63b8ff" d="M955.33,-80.47C829.18,-75.33 554.7,-61.54 325,-32 322.02,-31.62 318.99,-31.2 315.92,-30.75"/>
<polygon fill="#63b8ff" stroke="#63b8ff" points="955.06,-83.96 965.19,-80.87 955.34,-76.97 955.06,-83.96"/>
</a>
</g>
</g>
<!-- Node45 -->
<g id="Node000045" class="node">
<title>Node45</title>
<g id="a_Node000045"><a xlink:href="_matrix_handler_8cpp.html" target="_top" xlink:title=" ">
<polygon fill="white" stroke="#666666" points="467.88,-32 334.12,-32 334.12,0 467.88,0 467.88,-32"/>
<text text-anchor="start" x="342.12" y="-18.5" font-family="Helvetica,sans-Serif" font-size="10.00">FIEAGameEngine/src</text>
<text text-anchor="middle" x="401" y="-6.5" font-family="Helvetica,sans-Serif" font-size="10.00">/content/MatrixHandler.cpp</text>
</a>
</g>
</g>
<!-- Node41&#45;&gt;Node45 -->
<g id="edge28_Node000041_Node000045" class="edge">
<title>Node41&#45;&gt;Node45</title>
<g id="a_edge28_Node000041_Node000045"><a xlink:title=" ">
<path fill="none" stroke="#63b8ff" d="M955.47,-78.81C851.15,-72.01 648.13,-56.78 477,-32 474.07,-31.58 471.09,-31.11 468.07,-30.62"/>
<polygon fill="#63b8ff" stroke="#63b8ff" points="955.06,-82.29 965.27,-79.44 955.51,-75.31 955.06,-82.29"/>
</a>
</g>
</g>
<!-- Node46 -->
<g id="Node000046" class="node">
<title>Node46</title>
<g id="a_Node000046"><a xlink:href="_scope_parse_handler_8cpp.html" target="_top" xlink:title=" ">
<polygon fill="white" stroke="#666666" points="646,-32 486,-32 486,0 646,0 646,-32"/>
<text text-anchor="start" x="494" y="-18.5" font-family="Helvetica,sans-Serif" font-size="10.00">FIEAGameEngine/src</text>
<text text-anchor="middle" x="566" y="-6.5" font-family="Helvetica,sans-Serif" font-size="10.00">/content/ScopeParseHandler.cpp</text>
</a>
</g>
</g>
<!-- Node41&#45;&gt;Node46 -->
<g id="edge29_Node000041_Node000046" class="edge">
<title>Node41&#45;&gt;Node46</title>
<g id="a_edge29_Node000041_Node000046"><a xlink:title=" ">
<path fill="none" stroke="#63b8ff" d="M955.85,-74.1C881.45,-64.37 759.71,-48.04 655,-32 652.06,-31.55 649.06,-31.08 646.04,-30.61"/>
<polygon fill="#63b8ff" stroke="#63b8ff" points="955.05,-77.52 965.42,-75.35 955.96,-70.58 955.05,-77.52"/>
</a>
</g>
</g>
<!-- Node47 -->
<g id="Node000047" class="node">
<title>Node47</title>
<g id="a_Node000047"><a xlink:href="_scope_writer_8cpp.html" target="_top" xlink:title=" ">
<polygon fill="white" stroke="#666666" points="790.12,-32 663.88,-32 663.88,0 790.12,0 790.12,-32"/>
<text text-anchor="start" x="671.88" y="-18.5" font-family="Helvetica,sans-Serif" font-size="10.00">FIEAGameEngine/src</text>
<text text-anchor="middle" x="727" y="-6.5" font-family="Helvetica,sans-Serif" font-size="10.00">/content/ScopeWriter.cpp</text>
</a>
</g>
</g>
<!-- Node41&#45;&gt;Node47 -->
<g id="edge30_Node000041_Node000047" class="edge">
<title>Node41&#45;&gt;Node47</title>
<g id="a_edge30_Node000041_Node000047"><a xlink:title=" ">
<path fill="none" stroke="#63b8ff" d="M955.81,-67.68C905.88,-56.62 838.99,-41.8 790.43,-31.05"/>
<polygon fill="#63b8ff" stroke="#63b8ff" points="954.84,-71.05 965.36,-69.79 956.35,-64.21 954.84,-71.05"/>
</a>
</g>
</g>
<!-- Node48 -->
<g id="Node000048" class="node">
<title>Node48</title>
<g id="a_Node000048"><a xlink:href="_scope_writer_8inl.html" target="_top" xlink:title=" ">
<polygon fill="white" stroke="#666666" points="928.12,-32 807.88,-32 807.88,0 928.12,0 928.12,-32"/>
<text text-anchor="start" x="815.88" y="-18.5" font-family="Helvetica,sans-Serif" font-size="10.00">FIEAGameEngine/src</text>
<text text-anchor="middle" x="868" y="-6.5" font-family="Helvetica,sans-Serif" font-size="10.00">/content/ScopeWriter.inl</text>
</a>
</g>
</g>
<!-- Node41&#45;&gt;Node48 -->
<g id="edge31_Node000041_Node000048" class="edge">
<title>Node41&#45;&gt;Node48</title>
<g id="a_edge31_Node000041_Node000048"><a xlink:title=" ">
<path fill="none" stroke="#63b8ff" d="M971.88,-63.29C947.64,-53.44 919.83,-41.69 899.03,-32.49"/>
<polygon fill="#63b8ff" stroke="#63b8ff" points="970.38,-66.46 980.97,-66.96 973,-59.97 970.38,-66.46"/>
</a>
</g>
</g>
<!-- Node49 -->
<g id="Node000049" class="node">
<title>Node49</title>
<g id="a_Node000049"><a xlink:href="_string_parse_handler_8cpp.html" target="_top" xlink:title=" ">
<polygon fill="white" stroke="#666666" points="1103.88,-32 946.12,-32 946.12,0 1103.88,0 1103.88,-32"/>
<text text-anchor="start" x="954.12" y="-18.5" font-family="Helvetica,sans-Serif" font-size="10.00">FIEAGameEngine/src</text>
<text text-anchor="middle" x="1025" y="-6.5" font-family="Helvetica,sans-Serif" font-size="10.00">/content/StringParseHandler.cpp</text>
</a>
</g>
</g>
<!-- Node41&#45;&gt;Node49 -->
<g id="edge33_Node000041_Node000049" class="edge">
<title>Node41&#45;&gt;Node49</title>
<g id="a_edge33_Node000041_Node000049"><a xlink:title=" ">
<path fill="none" stroke="#63b8ff" d="M1025,-56.31C1025,-48.12 1025,-39.38 1025,-32.22"/>
<polygon fill="#63b8ff" stroke="#63b8ff" points="1021.5,-56.18 1025,-66.18 1028.5,-56.18 1021.5,-56.18"/>
</a>
</g>
</g>
<!-- Node50 -->
<g id="Node000050" class="node">
<title>Node50</title>
<g id="a_Node000050"><a xlink:href="_vector_handler_8cpp.html" target="_top" xlink:title=" ">
<polygon fill="white" stroke="#666666" points="1256.25,-32 1121.75,-32 1121.75,0 1256.25,0 1256.25,-32"/>
<text text-anchor="start" x="1129.75" y="-18.5" font-family="Helvetica,sans-Serif" font-size="10.00">FIEAGameEngine/src</text>
<text text-anchor="middle" x="1189" y="-6.5" font-family="Helvetica,sans-Serif" font-size="10.00">/content/VectorHandler.cpp</text>
</a>
</g>
</g>
<!-- Node41&#45;&gt;Node50 -->
<g id="edge34_Node000041_Node000050" class="edge">
<title>Node41&#45;&gt;Node50</title>
<g id="a_edge34_Node000041_Node000050"><a xlink:title=" ">
<path fill="none" stroke="#63b8ff" d="M1073.97,-63.29C1098.46,-53.44 1127.65,-41.69 1150.51,-32.49"/>
<polygon fill="#63b8ff" stroke="#63b8ff" points="1072.83,-59.98 1064.85,-66.96 1075.44,-66.47 1072.83,-59.98"/>
</a>
</g>
</g>
<!-- Node48&#45;&gt;Node41 -->
<g id="edge32_Node000048_Node000041" class="edge">
<title>Node48&#45;&gt;Node41</title>
<g id="a_edge32_Node000048_Node000041"><a xlink:title=" ">
<path fill="none" stroke="#63b8ff" d="M921.17,-36.73C945.41,-46.58 973.22,-58.33 994.01,-67.53"/>
<polygon fill="#63b8ff" stroke="#63b8ff" points="922.66,-33.56 912.08,-33.06 920.04,-40.05 922.66,-33.56"/>
</a>
</g>
</g>
<!-- Node54&#45;&gt;Node25 -->
<g id="edge42_Node000054_Node000025" class="edge">
<title>Node54&#45;&gt;Node25</title>
<g id="a_edge42_Node000054_Node000025"><a xlink:title=" ">
<path fill="none" stroke="#63b8ff" d="M2269.65,-198.98C2265.03,-182.09 2258.02,-157.33 2251,-136 2237.44,-94.78 2218.69,-46.53 2210.77,-26.48"/>
<polygon fill="#63b8ff" stroke="#63b8ff" points="2266.17,-199.52 2272.16,-208.26 2272.93,-197.69 2266.17,-199.52"/>
</a>
</g>
</g>
<!-- Node54&#45;&gt;Node8 -->
<g id="edge44_Node000054_Node000008" class="edge">
<title>Node54&#45;&gt;Node8</title>
<g id="a_edge44_Node000054_Node000008"><a xlink:title=" ">
<path fill="none" stroke="#63b8ff" d="M2261.93,-200.94C2238.54,-169.77 2186.55,-105.65 2129,-68 2098.63,-48.13 2059.44,-34.55 2030.76,-26.42"/>
<polygon fill="#63b8ff" stroke="#63b8ff" points="2258.84,-202.64 2267.59,-208.6 2264.47,-198.48 2258.84,-202.64"/>
</a>
</g>
</g>
<!-- Node54&#45;&gt;Node53 -->
<g id="edge43_Node000054_Node000053" class="edge">
<title>Node54&#45;&gt;Node53</title>
<g id="a_edge43_Node000054_Node000053"><a xlink:title=" ">
<path fill="none" stroke="#63b8ff" d="M2296.76,-203.04C2314.07,-190.35 2337.7,-173.02 2352.13,-162.44"/>
<polygon fill="#63b8ff" stroke="#63b8ff" points="2295.11,-199.91 2289.12,-208.65 2299.25,-205.56 2295.11,-199.91"/>
</a>
</g>
</g>
</g>
</svg>
