<?xml version="1.0" encoding="UTF-8" standalone="no"?>
<!DOCTYPE svg PUBLIC "-//W3C//DTD SVG 1.1//EN"
 "http://www.w3.org/Graphics/SVG/1.1/DTD/svg11.dtd">
<!-- Generated by graphviz version 12.2.1 (20241206.2353)
 -->
<!-- Title: FIEAGameEngine/src/content/ScopeWriter.h Pages: 1 -->
<svg width="1104pt" height="320pt"
 viewBox="0.00 0.00 1104.12 320.00" xmlns="http://www.w3.org/2000/svg" xmlns:xlink="http://www.w3.org/1999/xlink">
<g id="graph0" class="graph" transform="scale(1 1) rotate(0) translate(4 316)">
<title>FIEAGameEngine/src/content/ScopeWriter.h</title>
<!-- Node1 -->
<g id="Node000001" class="node">
<title>Node1</title>
<g id="a_Node000001"><a xlink:title=" ">
<polygon fill="#999999" stroke="#666666" points="615,-312 499.25,-312 499.25,-280 615,-280 615,-312"/>
<text text-anchor="start" x="507.25" y="-298.5" font-family="Helvetica,sans-Serif" font-size="10.00">FIEAGameEngine/src</text>
<text text-anchor="middle" x="557.12" y="-286.5" font-family="Helvetica,sans-Serif" font-size="10.00">/content/ScopeWriter.h</text>
</a>
</g>
</g>
<!-- Node2 -->
<g id="Node000002" class="node">
<title>Node2</title>
<g id="a_Node000002"><a xlink:href="_types_8h.html" target="_top" xlink:title=" ">
<polygon fill="white" stroke="#666666" points="324.25,-76 192,-76 192,-56 324.25,-56 324.25,-76"/>
<text text-anchor="middle" x="258.12" y="-62.5" font-family="Helvetica,sans-Serif" font-size="10.00">FIEAGameEngine/Types.h</text>
</a>
</g>
</g>
<!-- Node1&#45;&gt;Node2 -->
<g id="edge1_Node000001_Node000002" class="edge">
<title>Node1&#45;&gt;Node2</title>
<g id="a_edge1_Node000001_Node000002"><a xlink:title=" ">
<path fill="none" stroke="#63b8ff" d="M499.05,-291.72C378.99,-283.56 110.23,-257.74 57.12,-188 14.17,-131.59 122.56,-95.95 196.33,-78.92"/>
<polygon fill="#63b8ff" stroke="#63b8ff" points="196.93,-82.37 205.92,-76.77 195.4,-75.54 196.93,-82.37"/>
</a>
</g>
</g>
<!-- Node11 -->
<g id="Node000011" class="node">
<title>Node11</title>
<g id="a_Node000011"><a xlink:href="_parse_writer_8h.html" target="_top" xlink:title=" ">
<polygon fill="white" stroke="#666666" points="494.5,-244 381.75,-244 381.75,-224 494.5,-224 494.5,-244"/>
<text text-anchor="middle" x="438.12" y="-230.5" font-family="Helvetica,sans-Serif" font-size="10.00">Content/ParseWriter.h</text>
</a>
</g>
</g>
<!-- Node1&#45;&gt;Node11 -->
<g id="edge10_Node000001_Node000011" class="edge">
<title>Node1&#45;&gt;Node11</title>
<g id="a_edge10_Node000001_Node000011"><a xlink:title=" ">
<path fill="none" stroke="#63b8ff" d="M526.48,-279.55C508.14,-270.3 484.99,-258.63 466.98,-249.55"/>
<polygon fill="#63b8ff" stroke="#63b8ff" points="468.64,-246.47 458.14,-245.09 465.49,-252.72 468.64,-246.47"/>
</a>
</g>
</g>
<!-- Node14 -->
<g id="Node000014" class="node">
<title>Node14</title>
<g id="a_Node000014"><a xlink:title=" ">
<polygon fill="#e0e0e0" stroke="#999999" points="106.12,-188 66.12,-188 66.12,-168 106.12,-168 106.12,-188"/>
<text text-anchor="middle" x="86.12" y="-174.5" font-family="Helvetica,sans-Serif" font-size="10.00">stack</text>
</a>
</g>
</g>
<!-- Node1&#45;&gt;Node14 -->
<g id="edge17_Node000001_Node000014" class="edge">
<title>Node1&#45;&gt;Node14</title>
<g id="a_edge17_Node000001_Node000014"><a xlink:title=" ">
<path fill="none" stroke="#63b8ff" d="M499.08,-281.15C415.28,-261.08 255.61,-222.52 120.12,-188 119.3,-187.79 118.47,-187.58 117.63,-187.36"/>
<polygon fill="#63b8ff" stroke="#63b8ff" points="118.63,-184.01 108.07,-184.87 116.86,-190.78 118.63,-184.01"/>
</a>
</g>
</g>
<!-- Node15 -->
<g id="Node000015" class="node">
<title>Node15</title>
<g id="a_Node000015"><a xlink:title=" ">
<polygon fill="#e0e0e0" stroke="#999999" points="981.62,-76 938.62,-76 938.62,-56 981.62,-56 981.62,-76"/>
<text text-anchor="middle" x="960.12" y="-62.5" font-family="Helvetica,sans-Serif" font-size="10.00">vector</text>
</a>
</g>
</g>
<!-- Node1&#45;&gt;Node15 -->
<g id="edge16_Node000001_Node000015" class="edge">
<title>Node1&#45;&gt;Node15</title>
<g id="a_edge16_Node000001_Node000015"><a xlink:title=" ">
<path fill="none" stroke="#63b8ff" d="M615.21,-285.94C698.31,-269.89 850.42,-228.58 935.12,-132 946.22,-119.35 952.64,-101.23 956.19,-87.34"/>
<polygon fill="#63b8ff" stroke="#63b8ff" points="959.53,-88.46 958.29,-77.94 952.7,-86.94 959.53,-88.46"/>
</a>
</g>
</g>
<!-- Node16 -->
<g id="Node000016" class="node">
<title>Node16</title>
<g id="a_Node000016"><a xlink:href="_scope_8h.html" target="_top" xlink:title=" ">
<polygon fill="white" stroke="#666666" points="601.88,-244 512.38,-244 512.38,-224 601.88,-224 601.88,-244"/>
<text text-anchor="middle" x="557.12" y="-230.5" font-family="Helvetica,sans-Serif" font-size="10.00">Content/Scope.h</text>
</a>
</g>
</g>
<!-- Node1&#45;&gt;Node16 -->
<g id="edge18_Node000001_Node000016" class="edge">
<title>Node1&#45;&gt;Node16</title>
<g id="a_edge18_Node000001_Node000016"><a xlink:title=" ">
<path fill="none" stroke="#63b8ff" d="M557.12,-279.55C557.12,-272.34 557.12,-263.66 557.12,-255.88"/>
<polygon fill="#63b8ff" stroke="#63b8ff" points="560.63,-255.92 557.13,-245.92 553.63,-255.92 560.63,-255.92"/>
</a>
</g>
</g>
<!-- Node27 -->
<g id="Node000027" class="node">
<title>Node27</title>
<g id="a_Node000027"><a xlink:href="_scope_writer_8inl.html" target="_top" xlink:title=" ">
<polygon fill="white" stroke="#666666" points="1096.12,-244 1014.12,-244 1014.12,-224 1096.12,-224 1096.12,-244"/>
<text text-anchor="middle" x="1055.12" y="-230.5" font-family="Helvetica,sans-Serif" font-size="10.00">ScopeWriter.inl</text>
</a>
</g>
</g>
<!-- Node1&#45;&gt;Node27 -->
<g id="edge42_Node000001_Node000027" class="edge">
<title>Node1&#45;&gt;Node27</title>
<g id="a_edge42_Node000001_Node000027"><a xlink:title=" ">
<path fill="none" stroke="#63b8ff" d="M615.33,-288.57C698.75,-279.71 856.75,-262.72 991.12,-244 994.88,-243.48 998.77,-242.9 1002.71,-242.31"/>
<polygon fill="#63b8ff" stroke="#63b8ff" points="1002.98,-245.81 1012.33,-240.82 1001.91,-238.89 1002.98,-245.81"/>
</a>
</g>
</g>
<!-- Node3 -->
<g id="Node000003" class="node">
<title>Node3</title>
<g id="a_Node000003"><a xlink:title=" ">
<polygon fill="#e0e0e0" stroke="#999999" points="579.38,-20 516.88,-20 516.88,0 579.38,0 579.38,-20"/>
<text text-anchor="middle" x="548.12" y="-6.5" font-family="Helvetica,sans-Serif" font-size="10.00">windows.h</text>
</a>
</g>
</g>
<!-- Node2&#45;&gt;Node3 -->
<g id="edge2_Node000002_Node000003" class="edge">
<title>Node2&#45;&gt;Node3</title>
<g id="a_edge2_Node000002_Node000003"><a xlink:title=" ">
<path fill="none" stroke="#63b8ff" d="M314.85,-55.51C363.13,-47.27 434.59,-34.69 505.76,-20.41"/>
<polygon fill="#63b8ff" stroke="#63b8ff" points="506.12,-23.91 515.23,-18.5 504.73,-17.05 506.12,-23.91"/>
</a>
</g>
</g>
<!-- Node4 -->
<g id="Node000004" class="node">
<title>Node4</title>
<g id="a_Node000004"><a xlink:title=" ">
<polygon fill="#e0e0e0" stroke="#999999" points="48.25,-20 0,-20 0,0 48.25,0 48.25,-20"/>
<text text-anchor="middle" x="24.12" y="-6.5" font-family="Helvetica,sans-Serif" font-size="10.00">cassert</text>
</a>
</g>
</g>
<!-- Node2&#45;&gt;Node4 -->
<g id="edge3_Node000002_Node000004" class="edge">
<title>Node2&#45;&gt;Node4</title>
<g id="a_edge3_Node000002_Node000004"><a xlink:title=" ">
<path fill="none" stroke="#63b8ff" d="M213.28,-55.58C174.85,-47.37 117.75,-34.84 59.49,-20.51"/>
<polygon fill="#63b8ff" stroke="#63b8ff" points="60.62,-17.18 50.07,-18.17 58.94,-23.98 60.62,-17.18"/>
</a>
</g>
</g>
<!-- Node5 -->
<g id="Node000005" class="node">
<title>Node5</title>
<g id="a_Node000005"><a xlink:title=" ">
<polygon fill="#e0e0e0" stroke="#999999" points="114.25,-20 66,-20 66,0 114.25,0 114.25,-20"/>
<text text-anchor="middle" x="90.12" y="-6.5" font-family="Helvetica,sans-Serif" font-size="10.00">cstddef</text>
</a>
</g>
</g>
<!-- Node2&#45;&gt;Node5 -->
<g id="edge4_Node000002_Node000005" class="edge">
<title>Node2&#45;&gt;Node5</title>
<g id="a_edge4_Node000002_Node000005"><a xlink:title=" ">
<path fill="none" stroke="#63b8ff" d="M228.86,-55.59C200.06,-46.34 156.05,-32.19 125.35,-22.32"/>
<polygon fill="#63b8ff" stroke="#63b8ff" points="126.72,-19.09 116.13,-19.36 124.58,-25.75 126.72,-19.09"/>
</a>
</g>
</g>
<!-- Node6 -->
<g id="Node000006" class="node">
<title>Node6</title>
<g id="a_Node000006"><a xlink:title=" ">
<polygon fill="#e0e0e0" stroke="#999999" points="177.75,-20 132.5,-20 132.5,0 177.75,0 177.75,-20"/>
<text text-anchor="middle" x="155.12" y="-6.5" font-family="Helvetica,sans-Serif" font-size="10.00">cstdint</text>
</a>
</g>
</g>
<!-- Node2&#45;&gt;Node6 -->
<g id="edge5_Node000002_Node000006" class="edge">
<title>Node2&#45;&gt;Node6</title>
<g id="a_edge5_Node000002_Node000006"><a xlink:title=" ">
<path fill="none" stroke="#63b8ff" d="M240.18,-55.59C224.48,-47.36 201.39,-35.26 183.24,-25.74"/>
<polygon fill="#63b8ff" stroke="#63b8ff" points="185.03,-22.73 174.55,-21.18 181.78,-28.93 185.03,-22.73"/>
</a>
</g>
</g>
<!-- Node7 -->
<g id="Node000007" class="node">
<title>Node7</title>
<g id="a_Node000007"><a xlink:title=" ">
<polygon fill="#e0e0e0" stroke="#999999" points="248.5,-20 195.75,-20 195.75,0 248.5,0 248.5,-20"/>
<text text-anchor="middle" x="222.12" y="-6.5" font-family="Helvetica,sans-Serif" font-size="10.00">cstdbool</text>
</a>
</g>
</g>
<!-- Node2&#45;&gt;Node7 -->
<g id="edge6_Node000002_Node000007" class="edge">
<title>Node2&#45;&gt;Node7</title>
<g id="a_edge6_Node000002_Node000007"><a xlink:title=" ">
<path fill="none" stroke="#63b8ff" d="M251.85,-55.59C247.11,-48.47 240.43,-38.45 234.6,-29.72"/>
<polygon fill="#63b8ff" stroke="#63b8ff" points="237.62,-27.94 229.16,-21.56 231.8,-31.82 237.62,-27.94"/>
</a>
</g>
</g>
<!-- Node8 -->
<g id="Node000008" class="node">
<title>Node8</title>
<g id="a_Node000008"><a xlink:title=" ">
<polygon fill="#e0e0e0" stroke="#999999" points="637.12,-20 597.12,-20 597.12,0 637.12,0 637.12,-20"/>
<text text-anchor="middle" x="617.12" y="-6.5" font-family="Helvetica,sans-Serif" font-size="10.00">string</text>
</a>
</g>
</g>
<!-- Node2&#45;&gt;Node8 -->
<g id="edge7_Node000002_Node000008" class="edge">
<title>Node2&#45;&gt;Node8</title>
<g id="a_edge7_Node000002_Node000008"><a xlink:title=" ">
<path fill="none" stroke="#63b8ff" d="M324.65,-57.25C401.21,-48.11 523.42,-32.81 585.43,-20.22"/>
<polygon fill="#63b8ff" stroke="#63b8ff" points="586.12,-23.65 595.16,-18.13 584.65,-16.8 586.12,-23.65"/>
</a>
</g>
</g>
<!-- Node9 -->
<g id="Node000009" class="node">
<title>Node9</title>
<g id="a_Node000009"><a xlink:title=" ">
<polygon fill="#e0e0e0" stroke="#999999" points="321.25,-20 267,-20 267,0 321.25,0 321.25,-20"/>
<text text-anchor="middle" x="294.12" y="-6.5" font-family="Helvetica,sans-Serif" font-size="10.00">crtdefs.h</text>
</a>
</g>
</g>
<!-- Node2&#45;&gt;Node9 -->
<g id="edge8_Node000002_Node000009" class="edge">
<title>Node2&#45;&gt;Node9</title>
<g id="a_edge8_Node000002_Node000009"><a xlink:title=" ">
<path fill="none" stroke="#63b8ff" d="M264.4,-55.59C269.14,-48.47 275.82,-38.45 281.65,-29.72"/>
<polygon fill="#63b8ff" stroke="#63b8ff" points="284.45,-31.82 287.09,-21.56 278.63,-27.94 284.45,-31.82"/>
</a>
</g>
</g>
<!-- Node10 -->
<g id="Node000010" class="node">
<title>Node10</title>
<g id="a_Node000010"><a xlink:title=" ">
<polygon fill="#e0e0e0" stroke="#999999" points="499.12,-20 339.12,-20 339.12,0 499.12,0 499.12,-20"/>
<text text-anchor="middle" x="419.12" y="-6.5" font-family="Helvetica,sans-Serif" font-size="10.00">../src/memory/SystemAllocator.h</text>
</a>
</g>
</g>
<!-- Node2&#45;&gt;Node10 -->
<g id="edge9_Node000002_Node000010" class="edge">
<title>Node2&#45;&gt;Node10</title>
<g id="a_edge9_Node000002_Node000010"><a xlink:title=" ">
<path fill="none" stroke="#63b8ff" d="M286.17,-55.59C312.21,-46.86 351.23,-33.77 380.27,-24.03"/>
<polygon fill="#63b8ff" stroke="#63b8ff" points="381.06,-27.46 389.43,-20.96 378.83,-20.82 381.06,-27.46"/>
</a>
</g>
</g>
<!-- Node12 -->
<g id="Node000012" class="node">
<title>Node12</title>
<g id="a_Node000012"><a xlink:href="_r_t_t_i_8h.html" target="_top" xlink:title=" ">
<polygon fill="white" stroke="#666666" points="508,-132 380.25,-132 380.25,-112 508,-112 508,-132"/>
<text text-anchor="middle" x="444.12" y="-118.5" font-family="Helvetica,sans-Serif" font-size="10.00">FIEAGameEngine/RTTI.h</text>
</a>
</g>
</g>
<!-- Node11&#45;&gt;Node12 -->
<g id="edge11_Node000011_Node000012" class="edge">
<title>Node11&#45;&gt;Node12</title>
<g id="a_edge11_Node000011_Node000012"><a xlink:title=" ">
<path fill="none" stroke="#63b8ff" d="M438.64,-223.62C439.6,-206.01 441.69,-167.59 443,-143.65"/>
<polygon fill="#63b8ff" stroke="#63b8ff" points="446.48,-144.04 443.53,-133.87 439.49,-143.66 446.48,-144.04"/>
</a>
</g>
</g>
<!-- Node11&#45;&gt;Node14 -->
<g id="edge15_Node000011_Node000014" class="edge">
<title>Node11&#45;&gt;Node14</title>
<g id="a_edge15_Node000011_Node000014"><a xlink:title=" ">
<path fill="none" stroke="#63b8ff" d="M381.49,-227.03C317.62,-219.83 210.84,-206.36 120.12,-188 119.29,-187.83 118.45,-187.66 117.61,-187.47"/>
<polygon fill="#63b8ff" stroke="#63b8ff" points="118.54,-184.1 108,-185.17 116.91,-190.9 118.54,-184.1"/>
</a>
</g>
</g>
<!-- Node12&#45;&gt;Node2 -->
<g id="edge12_Node000012_Node000002" class="edge">
<title>Node12&#45;&gt;Node2</title>
<g id="a_edge12_Node000012_Node000002"><a xlink:title=" ">
<path fill="none" stroke="#63b8ff" d="M411.73,-111.59C381.24,-102.74 335.37,-89.43 301.69,-79.65"/>
<polygon fill="#63b8ff" stroke="#63b8ff" points="302.81,-76.33 292.23,-76.9 300.86,-83.05 302.81,-76.33"/>
</a>
</g>
</g>
<!-- Node13 -->
<g id="Node000013" class="node">
<title>Node13</title>
<g id="a_Node000013"><a xlink:href="_r_t_t_i_8inl.html" target="_top" xlink:title=" ">
<polygon fill="white" stroke="#666666" points="508.38,-76 379.88,-76 379.88,-56 508.38,-56 508.38,-76"/>
<text text-anchor="middle" x="444.12" y="-62.5" font-family="Helvetica,sans-Serif" font-size="10.00">FieaGameEngine/RTTI.inl</text>
</a>
</g>
</g>
<!-- Node12&#45;&gt;Node13 -->
<g id="edge13_Node000012_Node000013" class="edge">
<title>Node12&#45;&gt;Node13</title>
<g id="a_edge13_Node000012_Node000013"><a xlink:title=" ">
<path fill="none" stroke="#63b8ff" d="M438.86,-111.59C437.54,-105.01 437.1,-95.96 437.54,-87.73"/>
<polygon fill="#63b8ff" stroke="#63b8ff" points="441.02,-88.14 438.7,-77.8 434.06,-87.33 441.02,-88.14"/>
</a>
</g>
</g>
<!-- Node13&#45;&gt;Node12 -->
<g id="edge14_Node000013_Node000012" class="edge">
<title>Node13&#45;&gt;Node12</title>
<g id="a_edge14_Node000013_Node000012"><a xlink:title=" ">
<path fill="none" stroke="#63b8ff" d="M449.37,-76.3C450.71,-82.93 451.16,-92.11 450.7,-100.43"/>
<polygon fill="#63b8ff" stroke="#63b8ff" points="447.26,-99.75 449.57,-110.09 454.21,-100.57 447.26,-99.75"/>
</a>
</g>
</g>
<!-- Node16&#45;&gt;Node12 -->
<g id="edge19_Node000016_Node000012" class="edge">
<title>Node16&#45;&gt;Node12</title>
<g id="a_edge19_Node000016_Node000012"><a xlink:title=" ">
<path fill="none" stroke="#63b8ff" d="M547.49,-223.62C528.48,-205.11 485.88,-163.65 461.72,-140.13"/>
<polygon fill="#63b8ff" stroke="#63b8ff" points="464.43,-137.88 454.82,-133.41 459.54,-142.89 464.43,-137.88"/>
</a>
</g>
</g>
<!-- Node16&#45;&gt;Node15 -->
<g id="edge29_Node000016_Node000015" class="edge">
<title>Node16&#45;&gt;Node15</title>
<g id="a_edge29_Node000016_Node000015"><a xlink:title=" ">
<path fill="none" stroke="#63b8ff" d="M602.17,-229.17C673.2,-221.26 813.12,-197.92 910.12,-132 927.39,-120.27 941.28,-100.65 950,-86.03"/>
<polygon fill="#63b8ff" stroke="#63b8ff" points="953.03,-87.79 954.88,-77.36 946.93,-84.35 953.03,-87.79"/>
</a>
</g>
</g>
<!-- Node17 -->
<g id="Node000017" class="node">
<title>Node17</title>
<g id="a_Node000017"><a xlink:href="_datum_8h.html" target="_top" xlink:title=" ">
<polygon fill="white" stroke="#666666" points="583.88,-188 530.38,-188 530.38,-168 583.88,-168 583.88,-188"/>
<text text-anchor="middle" x="557.12" y="-174.5" font-family="Helvetica,sans-Serif" font-size="10.00">Datum.h</text>
</a>
</g>
</g>
<!-- Node16&#45;&gt;Node17 -->
<g id="edge20_Node000016_Node000017" class="edge">
<title>Node16&#45;&gt;Node17</title>
<g id="a_edge20_Node000016_Node000017"><a xlink:title=" ">
<path fill="none" stroke="#63b8ff" d="M557.12,-223.59C557.12,-217.01 557.12,-207.96 557.12,-199.73"/>
<polygon fill="#63b8ff" stroke="#63b8ff" points="560.63,-199.81 557.13,-189.81 553.63,-199.81 560.63,-199.81"/>
</a>
</g>
</g>
<!-- Node22 -->
<g id="Node000022" class="node">
<title>Node22</title>
<g id="a_Node000022"><a xlink:title=" ">
<polygon fill="#e0e0e0" stroke="#999999" points="155.5,-76 72.75,-76 72.75,-56 155.5,-56 155.5,-76"/>
<text text-anchor="middle" x="114.12" y="-62.5" font-family="Helvetica,sans-Serif" font-size="10.00">unordered_map</text>
</a>
</g>
</g>
<!-- Node16&#45;&gt;Node22 -->
<g id="edge30_Node000016_Node000022" class="edge">
<title>Node16&#45;&gt;Node22</title>
<g id="a_edge30_Node000016_Node000022"><a xlink:title=" ">
<path fill="none" stroke="#63b8ff" d="M512.07,-225.32C509.05,-224.86 506.04,-224.41 503.12,-224 365.35,-204.56 316.26,-250.87 192.12,-188 151.94,-167.64 129.67,-115.97 120.02,-87.17"/>
<polygon fill="#63b8ff" stroke="#63b8ff" points="123.42,-86.32 117.09,-77.83 116.74,-88.42 123.42,-86.32"/>
</a>
</g>
</g>
<!-- Node23 -->
<g id="Node000023" class="node">
<title>Node23</title>
<g id="a_Node000023"><a xlink:title=" ">
<polygon fill="#e0e0e0" stroke="#999999" points="636.5,-188 601.75,-188 601.75,-168 636.5,-168 636.5,-188"/>
<text text-anchor="middle" x="619.12" y="-174.5" font-family="Helvetica,sans-Serif" font-size="10.00">map</text>
</a>
</g>
</g>
<!-- Node16&#45;&gt;Node23 -->
<g id="edge31_Node000016_Node000023" class="edge">
<title>Node16&#45;&gt;Node23</title>
<g id="a_edge31_Node000016_Node000023"><a xlink:title=" ">
<path fill="none" stroke="#63b8ff" d="M567.92,-223.59C576.73,-215.93 589.38,-204.91 599.9,-195.75"/>
<polygon fill="#63b8ff" stroke="#63b8ff" points="602.07,-198.5 607.31,-189.29 597.47,-193.22 602.07,-198.5"/>
</a>
</g>
</g>
<!-- Node24 -->
<g id="Node000024" class="node">
<title>Node24</title>
<g id="a_Node000024"><a xlink:href="_factory_service_8h.html" target="_top" xlink:title=" ">
<polygon fill="white" stroke="#666666" points="373.12,-188 201.12,-188 201.12,-168 373.12,-168 373.12,-188"/>
<text text-anchor="middle" x="287.12" y="-174.5" font-family="Helvetica,sans-Serif" font-size="10.00">FIEAGameEngine/FactoryService.h</text>
</a>
</g>
</g>
<!-- Node16&#45;&gt;Node24 -->
<g id="edge32_Node000016_Node000024" class="edge">
<title>Node16&#45;&gt;Node24</title>
<g id="a_edge32_Node000016_Node000024"><a xlink:title=" ">
<path fill="none" stroke="#63b8ff" d="M511.93,-223.96C466.25,-214.83 395.46,-200.67 345.54,-190.68"/>
<polygon fill="#63b8ff" stroke="#63b8ff" points="346.26,-187.26 335.76,-188.73 344.88,-194.12 346.26,-187.26"/>
</a>
</g>
</g>
<!-- Node17&#45;&gt;Node8 -->
<g id="edge21_Node000017_Node000008" class="edge">
<title>Node17&#45;&gt;Node8</title>
<g id="a_edge21_Node000017_Node000008"><a xlink:title=" ">
<path fill="none" stroke="#63b8ff" d="M584.17,-169.85C587.18,-169.17 590.21,-168.54 593.12,-168 658.72,-155.89 846.88,-181.91 891.12,-132 963.2,-50.69 735.08,-21.5 648.79,-13.52"/>
<polygon fill="#63b8ff" stroke="#63b8ff" points="649.15,-10.04 638.88,-12.64 648.54,-17.01 649.15,-10.04"/>
</a>
</g>
</g>
<!-- Node17&#45;&gt;Node12 -->
<g id="edge25_Node000017_Node000012" class="edge">
<title>Node17&#45;&gt;Node12</title>
<g id="a_edge25_Node000017_Node000012"><a xlink:title=" ">
<path fill="none" stroke="#63b8ff" d="M537.44,-167.59C519.97,-159.24 494.17,-146.92 474.13,-137.34"/>
<polygon fill="#63b8ff" stroke="#63b8ff" points="475.86,-134.29 465.33,-133.13 472.84,-140.6 475.86,-134.29"/>
</a>
</g>
</g>
<!-- Node18 -->
<g id="Node000018" class="node">
<title>Node18</title>
<g id="a_Node000018"><a xlink:title=" ">
<polygon fill="#e0e0e0" stroke="#999999" points="794,-132 738.25,-132 738.25,-112 794,-112 794,-132"/>
<text text-anchor="middle" x="766.12" y="-118.5" font-family="Helvetica,sans-Serif" font-size="10.00">charconv</text>
</a>
</g>
</g>
<!-- Node17&#45;&gt;Node18 -->
<g id="edge22_Node000017_Node000018" class="edge">
<title>Node17&#45;&gt;Node18</title>
<g id="a_edge22_Node000017_Node000018"><a xlink:title=" ">
<path fill="none" stroke="#63b8ff" d="M584.02,-170.05C620.3,-160.68 685.17,-143.92 726.89,-133.14"/>
<polygon fill="#63b8ff" stroke="#63b8ff" points="727.73,-136.54 736.53,-130.65 725.98,-129.76 727.73,-136.54"/>
</a>
</g>
</g>
<!-- Node19 -->
<g id="Node000019" class="node">
<title>Node19</title>
<g id="a_Node000019"><a xlink:title=" ">
<polygon fill="#e0e0e0" stroke="#999999" points="881.75,-132 812.5,-132 812.5,-112 881.75,-112 881.75,-132"/>
<text text-anchor="middle" x="847.12" y="-118.5" font-family="Helvetica,sans-Serif" font-size="10.00">glm/glm.hpp</text>
</a>
</g>
</g>
<!-- Node17&#45;&gt;Node19 -->
<g id="edge23_Node000017_Node000019" class="edge">
<title>Node17&#45;&gt;Node19</title>
<g id="a_edge23_Node000017_Node000019"><a xlink:title=" ">
<path fill="none" stroke="#63b8ff" d="M584.2,-170C587.2,-169.29 590.23,-168.61 593.12,-168 682.35,-149.23 708.16,-149.45 801.04,-132.33"/>
<polygon fill="#63b8ff" stroke="#63b8ff" points="801.4,-135.82 810.59,-130.55 800.12,-128.94 801.4,-135.82"/>
</a>
</g>
</g>
<!-- Node20 -->
<g id="Node000020" class="node">
<title>Node20</title>
<g id="a_Node000020"><a xlink:title=" ">
<polygon fill="#e0e0e0" stroke="#999999" points="720.12,-132 602.12,-132 602.12,-112 720.12,-112 720.12,-132"/>
<text text-anchor="middle" x="661.12" y="-118.5" font-family="Helvetica,sans-Serif" font-size="10.00">glm/gtx/string_cast.hpp</text>
</a>
</g>
</g>
<!-- Node17&#45;&gt;Node20 -->
<g id="edge24_Node000017_Node000020" class="edge">
<title>Node17&#45;&gt;Node20</title>
<g id="a_edge24_Node000017_Node000020"><a xlink:title=" ">
<path fill="none" stroke="#63b8ff" d="M575.24,-167.59C591.1,-159.36 614.41,-147.26 632.74,-137.74"/>
<polygon fill="#63b8ff" stroke="#63b8ff" points="634.26,-140.89 641.52,-133.18 631.04,-134.68 634.26,-140.89"/>
</a>
</g>
</g>
<!-- Node21 -->
<g id="Node000021" class="node">
<title>Node21</title>
<g id="a_Node000021"><a xlink:href="_datum_8inl.html" target="_top" xlink:title=" ">
<polygon fill="white" stroke="#666666" points="584.12,-132 526.12,-132 526.12,-112 584.12,-112 584.12,-132"/>
<text text-anchor="middle" x="555.12" y="-118.5" font-family="Helvetica,sans-Serif" font-size="10.00">Datum.inl</text>
</a>
</g>
</g>
<!-- Node17&#45;&gt;Node21 -->
<g id="edge26_Node000017_Node000021" class="edge">
<title>Node17&#45;&gt;Node21</title>
<g id="a_edge26_Node000017_Node000021"><a xlink:title=" ">
<path fill="none" stroke="#63b8ff" d="M551.51,-167.59C549.95,-161.01 549.17,-151.96 549.31,-143.73"/>
<polygon fill="#63b8ff" stroke="#63b8ff" points="552.79,-144.05 550.1,-133.81 545.81,-143.5 552.79,-144.05"/>
</a>
</g>
</g>
<!-- Node21&#45;&gt;Node2 -->
<g id="edge27_Node000021_Node000002" class="edge">
<title>Node21&#45;&gt;Node2</title>
<g id="a_edge27_Node000021_Node000002"><a xlink:title=" ">
<path fill="none" stroke="#63b8ff" d="M525.71,-113.85C522.81,-113.2 519.91,-112.57 517.12,-112 454.13,-99.08 382.01,-86.75 329.9,-78.27"/>
<polygon fill="#63b8ff" stroke="#63b8ff" points="330.69,-74.86 320.26,-76.71 329.57,-81.77 330.69,-74.86"/>
</a>
</g>
</g>
<!-- Node21&#45;&gt;Node17 -->
<g id="edge28_Node000021_Node000017" class="edge">
<title>Node21&#45;&gt;Node17</title>
<g id="a_edge28_Node000021_Node000017"><a xlink:title=" ">
<path fill="none" stroke="#63b8ff" d="M560.71,-132.3C562.28,-138.85 563.07,-147.9 562.94,-156.13"/>
<polygon fill="#63b8ff" stroke="#63b8ff" points="559.46,-155.84 562.16,-166.09 566.44,-156.39 559.46,-155.84"/>
</a>
</g>
</g>
<!-- Node24&#45;&gt;Node2 -->
<g id="edge33_Node000024_Node000002" class="edge">
<title>Node24&#45;&gt;Node2</title>
<g id="a_edge33_Node000024_Node000002"><a xlink:title=" ">
<path fill="none" stroke="#63b8ff" d="M225.51,-167.57C204.72,-161.12 183.63,-150.27 171.12,-132 155.66,-109.42 185.71,-91.54 214.63,-80.3"/>
<polygon fill="#63b8ff" stroke="#63b8ff" points="215.53,-83.7 223.73,-76.98 213.13,-77.12 215.53,-83.7"/>
</a>
</g>
</g>
<!-- Node24&#45;&gt;Node8 -->
<g id="edge39_Node000024_Node000008" class="edge">
<title>Node24&#45;&gt;Node8</title>
<g id="a_edge39_Node000024_Node000008"><a xlink:title=" ">
<path fill="none" stroke="#63b8ff" d="M298.78,-167.55C308.78,-159.01 323.12,-145.72 333.12,-132 355.37,-101.49 340.74,-78.42 371.12,-56 446.94,-0.05 489.83,-39.45 585.62,-20.17"/>
<polygon fill="#63b8ff" stroke="#63b8ff" points="586.14,-23.64 595.15,-18.07 584.63,-16.8 586.14,-23.64"/>
</a>
</g>
</g>
<!-- Node24&#45;&gt;Node12 -->
<g id="edge34_Node000024_Node000012" class="edge">
<title>Node24&#45;&gt;Node12</title>
<g id="a_edge34_Node000024_Node000012"><a xlink:title=" ">
<path fill="none" stroke="#63b8ff" d="M314.47,-167.59C339.76,-158.9 377.58,-145.89 405.86,-136.16"/>
<polygon fill="#63b8ff" stroke="#63b8ff" points="406.82,-139.53 415.13,-132.97 404.54,-132.91 406.82,-139.53"/>
</a>
</g>
</g>
<!-- Node24&#45;&gt;Node22 -->
<g id="edge41_Node000024_Node000022" class="edge">
<title>Node24&#45;&gt;Node22</title>
<g id="a_edge41_Node000024_Node000022"><a xlink:title=" ">
<path fill="none" stroke="#63b8ff" d="M242.81,-167.57C217.7,-160.67 186.7,-149.42 163.12,-132 146.64,-119.82 133.11,-100.58 124.47,-86.18"/>
<polygon fill="#63b8ff" stroke="#63b8ff" points="127.6,-84.59 119.6,-77.64 121.51,-88.06 127.6,-84.59"/>
</a>
</g>
</g>
<!-- Node25 -->
<g id="Node000025" class="node">
<title>Node25</title>
<g id="a_Node000025"><a xlink:href="_service_mgr_8h.html" target="_top" xlink:title=" ">
<polygon fill="white" stroke="#666666" points="324,-132 250.25,-132 250.25,-112 324,-112 324,-132"/>
<text text-anchor="middle" x="287.12" y="-118.5" font-family="Helvetica,sans-Serif" font-size="10.00">ServiceMgr.h</text>
</a>
</g>
</g>
<!-- Node24&#45;&gt;Node25 -->
<g id="edge35_Node000024_Node000025" class="edge">
<title>Node24&#45;&gt;Node25</title>
<g id="a_edge35_Node000024_Node000025"><a xlink:title=" ">
<path fill="none" stroke="#63b8ff" d="M287.12,-167.59C287.12,-161.01 287.12,-151.96 287.12,-143.73"/>
<polygon fill="#63b8ff" stroke="#63b8ff" points="290.63,-143.81 287.13,-133.81 283.63,-143.81 290.63,-143.81"/>
</a>
</g>
</g>
<!-- Node26 -->
<g id="Node000026" class="node">
<title>Node26</title>
<g id="a_Node000026"><a xlink:title=" ">
<polygon fill="#e0e0e0" stroke="#999999" points="231.75,-132 180.5,-132 180.5,-112 231.75,-112 231.75,-132"/>
<text text-anchor="middle" x="206.12" y="-118.5" font-family="Helvetica,sans-Serif" font-size="10.00">memory</text>
</a>
</g>
</g>
<!-- Node24&#45;&gt;Node26 -->
<g id="edge40_Node000024_Node000026" class="edge">
<title>Node24&#45;&gt;Node26</title>
<g id="a_edge40_Node000024_Node000026"><a xlink:title=" ">
<path fill="none" stroke="#63b8ff" d="M273.02,-167.59C261.13,-159.67 243.86,-148.16 229.85,-138.82"/>
<polygon fill="#63b8ff" stroke="#63b8ff" points="231.87,-135.95 221.6,-133.32 227.98,-141.78 231.87,-135.95"/>
</a>
</g>
</g>
<!-- Node25&#45;&gt;Node2 -->
<g id="edge36_Node000025_Node000002" class="edge">
<title>Node25&#45;&gt;Node2</title>
<g id="a_edge36_Node000025_Node000002"><a xlink:title=" ">
<path fill="none" stroke="#63b8ff" d="M282.07,-111.59C278.33,-104.63 273.1,-94.89 268.48,-86.29"/>
<polygon fill="#63b8ff" stroke="#63b8ff" points="271.65,-84.79 263.83,-77.63 265.48,-88.1 271.65,-84.79"/>
</a>
</g>
</g>
<!-- Node25&#45;&gt;Node15 -->
<g id="edge37_Node000025_Node000015" class="edge">
<title>Node25&#45;&gt;Node15</title>
<g id="a_edge37_Node000025_Node000015"><a xlink:title=" ">
<path fill="none" stroke="#63b8ff" d="M324.32,-116.77C338.9,-115.17 355.79,-113.41 371.12,-112 582.51,-92.61 837.12,-75.16 926.87,-69.18"/>
<polygon fill="#63b8ff" stroke="#63b8ff" points="926.92,-72.69 936.67,-68.53 926.46,-65.7 926.92,-72.69"/>
</a>
</g>
</g>
<!-- Node25&#45;&gt;Node22 -->
<g id="edge38_Node000025_Node000022" class="edge">
<title>Node25&#45;&gt;Node22</title>
<g id="a_edge38_Node000025_Node000022"><a xlink:title=" ">
<path fill="none" stroke="#63b8ff" d="M256.99,-111.59C228.88,-102.82 186.71,-89.66 155.47,-79.9"/>
<polygon fill="#63b8ff" stroke="#63b8ff" points="156.53,-76.57 145.94,-76.93 154.44,-83.25 156.53,-76.57"/>
</a>
</g>
</g>
<!-- Node27&#45;&gt;Node1 -->
<g id="edge43_Node000027_Node000001" class="edge">
<title>Node27&#45;&gt;Node1</title>
<g id="a_edge43_Node000027_Node000001"><a xlink:title=" ">
<path fill="none" stroke="#63b8ff" d="M1013.78,-243.34C1012.21,-243.56 1010.66,-243.79 1009.12,-244 874.33,-262.78 715.76,-279.81 626.72,-288.65"/>
<polygon fill="#63b8ff" stroke="#63b8ff" points="626.54,-285.15 616.93,-289.61 627.22,-292.12 626.54,-285.15"/>
</a>
</g>
</g>
</g>
</svg>
