<?xml version="1.0" encoding="UTF-8" standalone="no"?>
<!DOCTYPE svg PUBLIC "-//W3C//DTD SVG 1.1//EN"
 "http://www.w3.org/Graphics/SVG/1.1/DTD/svg11.dtd">
<!-- Generated by graphviz version 12.2.1 (20241206.2353)
 -->
<!-- Title: Tests/Support/ScopedFoo.h Pages: 1 -->
<svg width="1010pt" height="308pt"
 viewBox="0.00 0.00 1009.88 308.00" xmlns="http://www.w3.org/2000/svg" xmlns:xlink="http://www.w3.org/1999/xlink">
<g id="graph0" class="graph" transform="scale(1 1) rotate(0) translate(4 304)">
<title>Tests/Support/ScopedFoo.h</title>
<!-- Node1 -->
<g id="Node000001" class="node">
<title>Node1</title>
<g id="a_Node000001"><a xlink:title=" ">
<polygon fill="#999999" stroke="#666666" points="747,-300 609.5,-300 609.5,-280 747,-280 747,-300"/>
<text text-anchor="middle" x="678.25" y="-286.5" font-family="Helvetica,sans-Serif" font-size="10.00">Tests/Support/ScopedFoo.h</text>
</a>
</g>
</g>
<!-- Node2 -->
<g id="Node000002" class="node">
<title>Node2</title>
<g id="a_Node000002"><a xlink:href="_types_8h.html" target="_top" xlink:title=" ">
<polygon fill="white" stroke="#666666" points="332.5,-76 204,-76 204,-56 332.5,-56 332.5,-76"/>
<text text-anchor="middle" x="268.25" y="-62.5" font-family="Helvetica,sans-Serif" font-size="10.00">FieaGameEngine/Types.h</text>
</a>
</g>
</g>
<!-- Node1&#45;&gt;Node2 -->
<g id="edge1_Node000001_Node000002" class="edge">
<title>Node1&#45;&gt;Node2</title>
<g id="a_edge1_Node000001_Node000002"><a xlink:title=" ">
<path fill="none" stroke="#63b8ff" d="M609.02,-281.26C468.53,-263.92 158.4,-216.64 101.25,-132 96.28,-124.63 95.84,-119.06 101.25,-112 112.84,-96.87 154.02,-85.68 192.58,-78.24"/>
<polygon fill="#63b8ff" stroke="#63b8ff" points="193.2,-81.68 202.4,-76.42 191.93,-74.8 193.2,-81.68"/>
</a>
</g>
</g>
<!-- Node11 -->
<g id="Node000011" class="node">
<title>Node11</title>
<g id="a_Node000011"><a xlink:href="_scope_8h.html" target="_top" xlink:title=" ">
<polygon fill="white" stroke="#666666" points="721.88,-244 634.62,-244 634.62,-224 721.88,-224 721.88,-244"/>
<text text-anchor="middle" x="678.25" y="-230.5" font-family="Helvetica,sans-Serif" font-size="10.00">content/Scope.h</text>
</a>
</g>
</g>
<!-- Node1&#45;&gt;Node11 -->
<g id="edge10_Node000001_Node000011" class="edge">
<title>Node1&#45;&gt;Node11</title>
<g id="a_edge10_Node000001_Node000011"><a xlink:title=" ">
<path fill="none" stroke="#63b8ff" d="M678.25,-279.59C678.25,-273.01 678.25,-263.96 678.25,-255.73"/>
<polygon fill="#63b8ff" stroke="#63b8ff" points="681.75,-255.81 678.25,-245.81 674.75,-255.81 681.75,-255.81"/>
</a>
</g>
</g>
<!-- Node12 -->
<g id="Node000012" class="node">
<title>Node12</title>
<g id="a_Node000012"><a xlink:href="_r_t_t_i_8h.html" target="_top" xlink:title=" ">
<polygon fill="white" stroke="#666666" points="238.12,-132 110.38,-132 110.38,-112 238.12,-112 238.12,-132"/>
<text text-anchor="middle" x="174.25" y="-118.5" font-family="Helvetica,sans-Serif" font-size="10.00">FIEAGameEngine/RTTI.h</text>
</a>
</g>
</g>
<!-- Node1&#45;&gt;Node12 -->
<g id="edge37_Node000001_Node000012" class="edge">
<title>Node1&#45;&gt;Node12</title>
<g id="a_edge37_Node000001_Node000012"><a xlink:title=" ">
<path fill="none" stroke="#63b8ff" d="M620.85,-279.56C542.66,-265.52 399.25,-235.59 284.25,-188 252.05,-174.67 217.94,-153.22 196.39,-138.64"/>
<polygon fill="#63b8ff" stroke="#63b8ff" points="198.63,-135.93 188.41,-133.14 194.66,-141.69 198.63,-135.93"/>
</a>
</g>
</g>
<!-- Node22 -->
<g id="Node000022" class="node">
<title>Node22</title>
<g id="a_Node000022"><a xlink:href="_factory_service_8h.html" target="_top" xlink:title=" ">
<polygon fill="white" stroke="#666666" points="970.25,-188 798.25,-188 798.25,-168 970.25,-168 970.25,-188"/>
<text text-anchor="middle" x="884.25" y="-174.5" font-family="Helvetica,sans-Serif" font-size="10.00">FIEAGameEngine/FactoryService.h</text>
</a>
</g>
</g>
<!-- Node1&#45;&gt;Node22 -->
<g id="edge38_Node000001_Node000022" class="edge">
<title>Node1&#45;&gt;Node22</title>
<g id="a_edge38_Node000001_Node000022"><a xlink:title=" ">
<path fill="none" stroke="#63b8ff" d="M689.57,-279.64C706.38,-266.07 739.28,-240.74 770.25,-224 793.79,-211.28 821.71,-200.19 844.03,-192.21"/>
<polygon fill="#63b8ff" stroke="#63b8ff" points="845.1,-195.54 853.38,-188.94 842.79,-188.94 845.1,-195.54"/>
</a>
</g>
</g>
<!-- Node25 -->
<g id="Node000025" class="node">
<title>Node25</title>
<g id="a_Node000025"><a xlink:title=" ">
<polygon fill="#e0e0e0" stroke="#999999" points="857.75,-244 778.75,-244 778.75,-224 857.75,-224 857.75,-244"/>
<text text-anchor="middle" x="818.25" y="-230.5" font-family="Helvetica,sans-Serif" font-size="10.00">CppUnitTest.h</text>
</a>
</g>
</g>
<!-- Node1&#45;&gt;Node25 -->
<g id="edge39_Node000001_Node000025" class="edge">
<title>Node1&#45;&gt;Node25</title>
<g id="a_edge39_Node000001_Node000025"><a xlink:title=" ">
<path fill="none" stroke="#63b8ff" d="M702.64,-279.59C724.88,-271.01 758.02,-258.23 783.12,-248.55"/>
<polygon fill="#63b8ff" stroke="#63b8ff" points="784.19,-251.89 792.26,-245.02 781.67,-245.36 784.19,-251.89"/>
</a>
</g>
</g>
<!-- Node3 -->
<g id="Node000003" class="node">
<title>Node3</title>
<g id="a_Node000003"><a xlink:title=" ">
<polygon fill="#e0e0e0" stroke="#999999" points="62.5,-20 0,-20 0,0 62.5,0 62.5,-20"/>
<text text-anchor="middle" x="31.25" y="-6.5" font-family="Helvetica,sans-Serif" font-size="10.00">windows.h</text>
</a>
</g>
</g>
<!-- Node2&#45;&gt;Node3 -->
<g id="edge2_Node000002_Node000003" class="edge">
<title>Node2&#45;&gt;Node3</title>
<g id="a_edge2_Node000002_Node000003"><a xlink:title=" ">
<path fill="none" stroke="#63b8ff" d="M226.7,-55.53C183.8,-45.76 117.2,-30.58 73.91,-20.72"/>
<polygon fill="#63b8ff" stroke="#63b8ff" points="74.89,-17.35 64.37,-18.55 73.34,-24.18 74.89,-17.35"/>
</a>
</g>
</g>
<!-- Node4 -->
<g id="Node000004" class="node">
<title>Node4</title>
<g id="a_Node000004"><a xlink:title=" ">
<polygon fill="#e0e0e0" stroke="#999999" points="128.38,-20 80.12,-20 80.12,0 128.38,0 128.38,-20"/>
<text text-anchor="middle" x="104.25" y="-6.5" font-family="Helvetica,sans-Serif" font-size="10.00">cassert</text>
</a>
</g>
</g>
<!-- Node2&#45;&gt;Node4 -->
<g id="edge3_Node000002_Node000004" class="edge">
<title>Node2&#45;&gt;Node4</title>
<g id="a_edge3_Node000002_Node000004"><a xlink:title=" ">
<path fill="none" stroke="#63b8ff" d="M239.68,-55.59C211.85,-46.43 169.48,-32.48 139.55,-22.62"/>
<polygon fill="#63b8ff" stroke="#63b8ff" points="140.78,-19.34 130.18,-19.54 138.59,-25.99 140.78,-19.34"/>
</a>
</g>
</g>
<!-- Node5 -->
<g id="Node000005" class="node">
<title>Node5</title>
<g id="a_Node000005"><a xlink:title=" ">
<polygon fill="#e0e0e0" stroke="#999999" points="194.38,-20 146.12,-20 146.12,0 194.38,0 194.38,-20"/>
<text text-anchor="middle" x="170.25" y="-6.5" font-family="Helvetica,sans-Serif" font-size="10.00">cstddef</text>
</a>
</g>
</g>
<!-- Node2&#45;&gt;Node5 -->
<g id="edge4_Node000002_Node000005" class="edge">
<title>Node2&#45;&gt;Node5</title>
<g id="a_edge4_Node000002_Node000005"><a xlink:title=" ">
<path fill="none" stroke="#63b8ff" d="M251.18,-55.59C236.37,-47.44 214.68,-35.48 197.48,-26"/>
<polygon fill="#63b8ff" stroke="#63b8ff" points="199.23,-22.97 188.78,-21.21 195.85,-29.1 199.23,-22.97"/>
</a>
</g>
</g>
<!-- Node6 -->
<g id="Node000006" class="node">
<title>Node6</title>
<g id="a_Node000006"><a xlink:title=" ">
<polygon fill="#e0e0e0" stroke="#999999" points="257.88,-20 212.62,-20 212.62,0 257.88,0 257.88,-20"/>
<text text-anchor="middle" x="235.25" y="-6.5" font-family="Helvetica,sans-Serif" font-size="10.00">cstdint</text>
</a>
</g>
</g>
<!-- Node2&#45;&gt;Node6 -->
<g id="edge5_Node000002_Node000006" class="edge">
<title>Node2&#45;&gt;Node6</title>
<g id="a_edge5_Node000002_Node000006"><a xlink:title=" ">
<path fill="none" stroke="#63b8ff" d="M262.5,-55.59C258.2,-48.55 252.16,-38.67 246.86,-30"/>
<polygon fill="#63b8ff" stroke="#63b8ff" points="249.92,-28.3 241.72,-21.59 243.95,-31.95 249.92,-28.3"/>
</a>
</g>
</g>
<!-- Node7 -->
<g id="Node000007" class="node">
<title>Node7</title>
<g id="a_Node000007"><a xlink:title=" ">
<polygon fill="#e0e0e0" stroke="#999999" points="328.62,-20 275.88,-20 275.88,0 328.62,0 328.62,-20"/>
<text text-anchor="middle" x="302.25" y="-6.5" font-family="Helvetica,sans-Serif" font-size="10.00">cstdbool</text>
</a>
</g>
</g>
<!-- Node2&#45;&gt;Node7 -->
<g id="edge6_Node000002_Node000007" class="edge">
<title>Node2&#45;&gt;Node7</title>
<g id="a_edge6_Node000002_Node000007"><a xlink:title=" ">
<path fill="none" stroke="#63b8ff" d="M274.17,-55.59C278.61,-48.55 284.83,-38.67 290.29,-30"/>
<polygon fill="#63b8ff" stroke="#63b8ff" points="293.22,-31.91 295.59,-21.58 287.3,-28.18 293.22,-31.91"/>
</a>
</g>
</g>
<!-- Node8 -->
<g id="Node000008" class="node">
<title>Node8</title>
<g id="a_Node000008"><a xlink:title=" ">
<polygon fill="#e0e0e0" stroke="#999999" points="637.25,-20 597.25,-20 597.25,0 637.25,0 637.25,-20"/>
<text text-anchor="middle" x="617.25" y="-6.5" font-family="Helvetica,sans-Serif" font-size="10.00">string</text>
</a>
</g>
</g>
<!-- Node2&#45;&gt;Node8 -->
<g id="edge7_Node000002_Node000008" class="edge">
<title>Node2&#45;&gt;Node8</title>
<g id="a_edge7_Node000002_Node000008"><a xlink:title=" ">
<path fill="none" stroke="#63b8ff" d="M332.76,-57.18C407,-47.97 525.5,-32.6 585.85,-20.17"/>
<polygon fill="#63b8ff" stroke="#63b8ff" points="586.25,-23.66 595.29,-18.13 584.77,-16.82 586.25,-23.66"/>
</a>
</g>
</g>
<!-- Node9 -->
<g id="Node000009" class="node">
<title>Node9</title>
<g id="a_Node000009"><a xlink:title=" ">
<polygon fill="#e0e0e0" stroke="#999999" points="401.38,-20 347.12,-20 347.12,0 401.38,0 401.38,-20"/>
<text text-anchor="middle" x="374.25" y="-6.5" font-family="Helvetica,sans-Serif" font-size="10.00">crtdefs.h</text>
</a>
</g>
</g>
<!-- Node2&#45;&gt;Node9 -->
<g id="edge8_Node000002_Node000009" class="edge">
<title>Node2&#45;&gt;Node9</title>
<g id="a_edge8_Node000002_Node000009"><a xlink:title=" ">
<path fill="none" stroke="#63b8ff" d="M286.71,-55.59C302.95,-47.32 326.86,-35.14 345.58,-25.6"/>
<polygon fill="#63b8ff" stroke="#63b8ff" points="346.97,-28.82 354.29,-21.17 343.79,-22.59 346.97,-28.82"/>
</a>
</g>
</g>
<!-- Node10 -->
<g id="Node000010" class="node">
<title>Node10</title>
<g id="a_Node000010"><a xlink:title=" ">
<polygon fill="#e0e0e0" stroke="#999999" points="579.25,-20 419.25,-20 419.25,0 579.25,0 579.25,-20"/>
<text text-anchor="middle" x="499.25" y="-6.5" font-family="Helvetica,sans-Serif" font-size="10.00">../src/memory/SystemAllocator.h</text>
</a>
</g>
</g>
<!-- Node2&#45;&gt;Node10 -->
<g id="edge9_Node000002_Node000010" class="edge">
<title>Node2&#45;&gt;Node10</title>
<g id="a_edge9_Node000002_Node000010"><a xlink:title=" ">
<path fill="none" stroke="#63b8ff" d="M308.75,-55.53C347.39,-46.5 405.76,-32.85 447.7,-23.05"/>
<polygon fill="#63b8ff" stroke="#63b8ff" points="448.38,-26.49 457.32,-20.8 446.79,-19.67 448.38,-26.49"/>
</a>
</g>
</g>
<!-- Node11&#45;&gt;Node12 -->
<g id="edge11_Node000011_Node000012" class="edge">
<title>Node11&#45;&gt;Node12</title>
<g id="a_edge11_Node000011_Node000012"><a xlink:title=" ">
<path fill="none" stroke="#63b8ff" d="M634.33,-229.87C571.35,-224.72 452.08,-212.49 353.25,-188 300.17,-174.85 240.97,-151.56 205.7,-136.72"/>
<polygon fill="#63b8ff" stroke="#63b8ff" points="207.53,-133.69 196.95,-133 204.79,-140.13 207.53,-133.69"/>
</a>
</g>
</g>
<!-- Node14 -->
<g id="Node000014" class="node">
<title>Node14</title>
<g id="a_Node000014"><a xlink:href="_datum_8h.html" target="_top" xlink:title=" ">
<polygon fill="white" stroke="#666666" points="416,-188 362.5,-188 362.5,-168 416,-168 416,-188"/>
<text text-anchor="middle" x="389.25" y="-174.5" font-family="Helvetica,sans-Serif" font-size="10.00">Datum.h</text>
</a>
</g>
</g>
<!-- Node11&#45;&gt;Node14 -->
<g id="edge15_Node000011_Node000014" class="edge">
<title>Node11&#45;&gt;Node14</title>
<g id="a_edge15_Node000011_Node000014"><a xlink:title=" ">
<path fill="none" stroke="#63b8ff" d="M634.36,-224.8C577.87,-214.24 480.65,-196.08 427.2,-186.09"/>
<polygon fill="#63b8ff" stroke="#63b8ff" points="428.14,-182.71 417.67,-184.31 426.85,-189.59 428.14,-182.71"/>
</a>
</g>
</g>
<!-- Node19 -->
<g id="Node000019" class="node">
<title>Node19</title>
<g id="a_Node000019"><a xlink:title=" ">
<polygon fill="#e0e0e0" stroke="#999999" points="742.75,-76 699.75,-76 699.75,-56 742.75,-56 742.75,-76"/>
<text text-anchor="middle" x="721.25" y="-62.5" font-family="Helvetica,sans-Serif" font-size="10.00">vector</text>
</a>
</g>
</g>
<!-- Node11&#45;&gt;Node19 -->
<g id="edge24_Node000011_Node000019" class="edge">
<title>Node11&#45;&gt;Node19</title>
<g id="a_edge24_Node000011_Node000019"><a xlink:title=" ">
<path fill="none" stroke="#63b8ff" d="M680.69,-223.6C687.46,-197.46 706.62,-123.48 715.98,-87.36"/>
<polygon fill="#63b8ff" stroke="#63b8ff" points="719.34,-88.32 718.46,-77.76 712.57,-86.57 719.34,-88.32"/>
</a>
</g>
</g>
<!-- Node20 -->
<g id="Node000020" class="node">
<title>Node20</title>
<g id="a_Node000020"><a xlink:title=" ">
<polygon fill="#e0e0e0" stroke="#999999" points="887.62,-76 804.88,-76 804.88,-56 887.62,-56 887.62,-76"/>
<text text-anchor="middle" x="846.25" y="-62.5" font-family="Helvetica,sans-Serif" font-size="10.00">unordered_map</text>
</a>
</g>
</g>
<!-- Node11&#45;&gt;Node20 -->
<g id="edge25_Node000011_Node000020" class="edge">
<title>Node11&#45;&gt;Node20</title>
<g id="a_edge25_Node000011_Node000020"><a xlink:title=" ">
<path fill="none" stroke="#63b8ff" d="M695.24,-223.53C730.42,-203.62 809.41,-157.18 827.25,-132 836.61,-118.78 841.4,-100.95 843.83,-87.32"/>
<polygon fill="#63b8ff" stroke="#63b8ff" points="847.25,-88.12 845.24,-77.72 840.32,-87.1 847.25,-88.12"/>
</a>
</g>
</g>
<!-- Node21 -->
<g id="Node000021" class="node">
<title>Node21</title>
<g id="a_Node000021"><a xlink:title=" ">
<polygon fill="#e0e0e0" stroke="#999999" points="740.62,-188 705.88,-188 705.88,-168 740.62,-168 740.62,-188"/>
<text text-anchor="middle" x="723.25" y="-174.5" font-family="Helvetica,sans-Serif" font-size="10.00">map</text>
</a>
</g>
</g>
<!-- Node11&#45;&gt;Node21 -->
<g id="edge26_Node000011_Node000021" class="edge">
<title>Node11&#45;&gt;Node21</title>
<g id="a_edge26_Node000011_Node000021"><a xlink:title=" ">
<path fill="none" stroke="#63b8ff" d="M686.09,-223.59C692.22,-216.24 700.92,-205.8 708.36,-196.87"/>
<polygon fill="#63b8ff" stroke="#63b8ff" points="710.82,-199.38 714.53,-189.46 705.44,-194.9 710.82,-199.38"/>
</a>
</g>
</g>
<!-- Node11&#45;&gt;Node22 -->
<g id="edge27_Node000011_Node000022" class="edge">
<title>Node11&#45;&gt;Node22</title>
<g id="a_edge27_Node000011_Node000022"><a xlink:title=" ">
<path fill="none" stroke="#63b8ff" d="M714.13,-223.59C748.19,-214.67 799.58,-201.19 836.97,-191.39"/>
<polygon fill="#63b8ff" stroke="#63b8ff" points="837.84,-194.78 846.62,-188.86 836.06,-188.01 837.84,-194.78"/>
</a>
</g>
</g>
<!-- Node12&#45;&gt;Node2 -->
<g id="edge12_Node000012_Node000002" class="edge">
<title>Node12&#45;&gt;Node2</title>
<g id="a_edge12_Node000012_Node000002"><a xlink:title=" ">
<path fill="none" stroke="#63b8ff" d="M190.62,-111.59C204.82,-103.44 225.63,-91.48 242.13,-82"/>
<polygon fill="#63b8ff" stroke="#63b8ff" points="243.51,-85.25 250.44,-77.23 240.02,-79.18 243.51,-85.25"/>
</a>
</g>
</g>
<!-- Node13 -->
<g id="Node000013" class="node">
<title>Node13</title>
<g id="a_Node000013"><a xlink:href="_r_t_t_i_8inl.html" target="_top" xlink:title=" ">
<polygon fill="white" stroke="#666666" points="185.5,-76 57,-76 57,-56 185.5,-56 185.5,-76"/>
<text text-anchor="middle" x="121.25" y="-62.5" font-family="Helvetica,sans-Serif" font-size="10.00">FieaGameEngine/RTTI.inl</text>
</a>
</g>
</g>
<!-- Node12&#45;&gt;Node13 -->
<g id="edge13_Node000012_Node000013" class="edge">
<title>Node12&#45;&gt;Node13</title>
<g id="a_edge13_Node000012_Node000013"><a xlink:title=" ">
<path fill="none" stroke="#63b8ff" d="M159.75,-111.59C151.06,-104.24 140.43,-93.8 132.39,-84.87"/>
<polygon fill="#63b8ff" stroke="#63b8ff" points="135.24,-82.82 126.11,-77.45 129.9,-87.35 135.24,-82.82"/>
</a>
</g>
</g>
<!-- Node13&#45;&gt;Node12 -->
<g id="edge14_Node000013_Node000012" class="edge">
<title>Node13&#45;&gt;Node12</title>
<g id="a_edge14_Node000013_Node000012"><a xlink:title=" ">
<path fill="none" stroke="#63b8ff" d="M135.62,-76.3C144.3,-83.62 154.92,-94.06 162.99,-103"/>
<polygon fill="#63b8ff" stroke="#63b8ff" points="160.17,-105.08 169.31,-110.44 165.5,-100.55 160.17,-105.08"/>
</a>
</g>
</g>
<!-- Node14&#45;&gt;Node8 -->
<g id="edge16_Node000014_Node000008" class="edge">
<title>Node14&#45;&gt;Node8</title>
<g id="a_edge16_Node000014_Node000008"><a xlink:title=" ">
<path fill="none" stroke="#63b8ff" d="M379.61,-167.61C367.29,-154.44 348.95,-130.08 361.25,-112 374.56,-92.44 520.58,-42.67 585.94,-21.16"/>
<polygon fill="#63b8ff" stroke="#63b8ff" points="586.94,-24.51 595.35,-18.07 584.76,-17.86 586.94,-24.51"/>
</a>
</g>
</g>
<!-- Node14&#45;&gt;Node12 -->
<g id="edge20_Node000014_Node000012" class="edge">
<title>Node14&#45;&gt;Node12</title>
<g id="a_edge20_Node000014_Node000012"><a xlink:title=" ">
<path fill="none" stroke="#63b8ff" d="M362.02,-170.16C327.06,-161.38 265.8,-145.99 222.78,-135.19"/>
<polygon fill="#63b8ff" stroke="#63b8ff" points="223.74,-131.82 213.19,-132.78 222.03,-138.61 223.74,-131.82"/>
</a>
</g>
</g>
<!-- Node15 -->
<g id="Node000015" class="node">
<title>Node15</title>
<g id="a_Node000015"><a xlink:title=" ">
<polygon fill="#e0e0e0" stroke="#999999" points="562.12,-132 506.38,-132 506.38,-112 562.12,-112 562.12,-132"/>
<text text-anchor="middle" x="534.25" y="-118.5" font-family="Helvetica,sans-Serif" font-size="10.00">charconv</text>
</a>
</g>
</g>
<!-- Node14&#45;&gt;Node15 -->
<g id="edge17_Node000014_Node000015" class="edge">
<title>Node14&#45;&gt;Node15</title>
<g id="a_edge17_Node000014_Node000015"><a xlink:title=" ">
<path fill="none" stroke="#63b8ff" d="M414.51,-167.59C437.65,-158.97 472.17,-146.12 498.21,-136.42"/>
<polygon fill="#63b8ff" stroke="#63b8ff" points="499.23,-139.78 507.38,-133.01 496.78,-133.22 499.23,-139.78"/>
</a>
</g>
</g>
<!-- Node16 -->
<g id="Node000016" class="node">
<title>Node16</title>
<g id="a_Node000016"><a xlink:title=" ">
<polygon fill="#e0e0e0" stroke="#999999" points="649.88,-132 580.62,-132 580.62,-112 649.88,-112 649.88,-132"/>
<text text-anchor="middle" x="615.25" y="-118.5" font-family="Helvetica,sans-Serif" font-size="10.00">glm/glm.hpp</text>
</a>
</g>
</g>
<!-- Node14&#45;&gt;Node16 -->
<g id="edge18_Node000014_Node000016" class="edge">
<title>Node14&#45;&gt;Node16</title>
<g id="a_edge18_Node000014_Node000016"><a xlink:title=" ">
<path fill="none" stroke="#63b8ff" d="M416.06,-170.59C453.79,-161.58 523.07,-145.03 569.15,-134.01"/>
<polygon fill="#63b8ff" stroke="#63b8ff" points="569.95,-137.42 578.86,-131.69 568.32,-130.61 569.95,-137.42"/>
</a>
</g>
</g>
<!-- Node17 -->
<g id="Node000017" class="node">
<title>Node17</title>
<g id="a_Node000017"><a xlink:title=" ">
<polygon fill="#e0e0e0" stroke="#999999" points="488.25,-132 370.25,-132 370.25,-112 488.25,-112 488.25,-132"/>
<text text-anchor="middle" x="429.25" y="-118.5" font-family="Helvetica,sans-Serif" font-size="10.00">glm/gtx/string_cast.hpp</text>
</a>
</g>
</g>
<!-- Node14&#45;&gt;Node17 -->
<g id="edge19_Node000014_Node000017" class="edge">
<title>Node14&#45;&gt;Node17</title>
<g id="a_edge19_Node000014_Node000017"><a xlink:title=" ">
<path fill="none" stroke="#63b8ff" d="M396.22,-167.59C401.55,-160.39 409.08,-150.23 415.6,-141.43"/>
<polygon fill="#63b8ff" stroke="#63b8ff" points="418.32,-143.63 421.46,-133.51 412.7,-139.47 418.32,-143.63"/>
</a>
</g>
</g>
<!-- Node18 -->
<g id="Node000018" class="node">
<title>Node18</title>
<g id="a_Node000018"><a xlink:href="_datum_8inl.html" target="_top" xlink:title=" ">
<polygon fill="white" stroke="#666666" points="314.25,-132 256.25,-132 256.25,-112 314.25,-112 314.25,-132"/>
<text text-anchor="middle" x="285.25" y="-118.5" font-family="Helvetica,sans-Serif" font-size="10.00">Datum.inl</text>
</a>
</g>
</g>
<!-- Node14&#45;&gt;Node18 -->
<g id="edge21_Node000014_Node000018" class="edge">
<title>Node14&#45;&gt;Node18</title>
<g id="a_edge21_Node000014_Node000018"><a xlink:title=" ">
<path fill="none" stroke="#63b8ff" d="M365.87,-167.59C348.52,-159.44 325.22,-147.48 308.03,-138"/>
<polygon fill="#63b8ff" stroke="#63b8ff" points="309.97,-135.08 299.54,-133.22 306.54,-141.18 309.97,-135.08"/>
</a>
</g>
</g>
<!-- Node18&#45;&gt;Node2 -->
<g id="edge22_Node000018_Node000002" class="edge">
<title>Node18&#45;&gt;Node2</title>
<g id="a_edge22_Node000018_Node000002"><a xlink:title=" ">
<path fill="none" stroke="#63b8ff" d="M282.29,-111.59C280.17,-104.86 277.23,-95.53 274.59,-87.15"/>
<polygon fill="#63b8ff" stroke="#63b8ff" points="277.97,-86.23 271.63,-77.74 271.3,-88.33 277.97,-86.23"/>
</a>
</g>
</g>
<!-- Node18&#45;&gt;Node14 -->
<g id="edge23_Node000018_Node000014" class="edge">
<title>Node18&#45;&gt;Node14</title>
<g id="a_edge23_Node000018_Node000014"><a xlink:title=" ">
<path fill="none" stroke="#63b8ff" d="M308.79,-132.48C326.17,-140.66 349.47,-152.62 366.63,-162.08"/>
<polygon fill="#63b8ff" stroke="#63b8ff" points="364.65,-164.99 375.08,-166.85 368.09,-158.89 364.65,-164.99"/>
</a>
</g>
</g>
<!-- Node22&#45;&gt;Node2 -->
<g id="edge28_Node000022_Node000002" class="edge">
<title>Node22&#45;&gt;Node2</title>
<g id="a_edge28_Node000022_Node000002"><a xlink:title=" ">
<path fill="none" stroke="#63b8ff" d="M852.68,-167.56C795.38,-150.48 678.39,-115.84 659.25,-112 550.85,-90.26 423.3,-78.03 344.09,-71.97"/>
<polygon fill="#63b8ff" stroke="#63b8ff" points="344.51,-68.49 334.27,-71.23 343.98,-75.47 344.51,-68.49"/>
</a>
</g>
</g>
<!-- Node22&#45;&gt;Node8 -->
<g id="edge34_Node000022_Node000008" class="edge">
<title>Node22&#45;&gt;Node8</title>
<g id="a_edge34_Node000022_Node000008"><a xlink:title=" ">
<path fill="none" stroke="#63b8ff" d="M889.15,-167.78C900.21,-145.59 924.03,-88.63 896.25,-56 864.73,-18.99 714.83,-12.31 648.71,-11.19"/>
<polygon fill="#63b8ff" stroke="#63b8ff" points="648.94,-7.69 638.9,-11.05 648.85,-14.69 648.94,-7.69"/>
</a>
</g>
</g>
<!-- Node22&#45;&gt;Node12 -->
<g id="edge29_Node000022_Node000012" class="edge">
<title>Node22&#45;&gt;Node12</title>
<g id="a_edge29_Node000022_Node000012"><a xlink:title=" ">
<path fill="none" stroke="#63b8ff" d="M797.8,-171.15C644.42,-160.72 333.58,-139.43 249.6,-132.12"/>
<polygon fill="#63b8ff" stroke="#63b8ff" points="250.11,-128.65 239.83,-131.23 249.47,-135.62 250.11,-128.65"/>
</a>
</g>
</g>
<!-- Node22&#45;&gt;Node20 -->
<g id="edge36_Node000022_Node000020" class="edge">
<title>Node22&#45;&gt;Node20</title>
<g id="a_edge36_Node000022_Node000020"><a xlink:title=" ">
<path fill="none" stroke="#63b8ff" d="M881.01,-167.62C874.87,-149.84 861.41,-110.88 853.16,-87"/>
<polygon fill="#63b8ff" stroke="#63b8ff" points="856.55,-86.09 849.98,-77.79 849.93,-88.38 856.55,-86.09"/>
</a>
</g>
</g>
<!-- Node23 -->
<g id="Node000023" class="node">
<title>Node23</title>
<g id="a_Node000023"><a xlink:href="_service_mgr_8h.html" target="_top" xlink:title=" ">
<polygon fill="white" stroke="#666666" points="818.12,-132 744.38,-132 744.38,-112 818.12,-112 818.12,-132"/>
<text text-anchor="middle" x="781.25" y="-118.5" font-family="Helvetica,sans-Serif" font-size="10.00">ServiceMgr.h</text>
</a>
</g>
</g>
<!-- Node22&#45;&gt;Node23 -->
<g id="edge30_Node000022_Node000023" class="edge">
<title>Node22&#45;&gt;Node23</title>
<g id="a_edge30_Node000022_Node000023"><a xlink:title=" ">
<path fill="none" stroke="#63b8ff" d="M866.31,-167.59C850.6,-159.36 827.52,-147.26 809.36,-137.74"/>
<polygon fill="#63b8ff" stroke="#63b8ff" points="811.15,-134.73 800.67,-133.18 807.9,-140.93 811.15,-134.73"/>
</a>
</g>
</g>
<!-- Node24 -->
<g id="Node000024" class="node">
<title>Node24</title>
<g id="a_Node000024"><a xlink:title=" ">
<polygon fill="#e0e0e0" stroke="#999999" points="1001.88,-132 950.62,-132 950.62,-112 1001.88,-112 1001.88,-132"/>
<text text-anchor="middle" x="976.25" y="-118.5" font-family="Helvetica,sans-Serif" font-size="10.00">memory</text>
</a>
</g>
</g>
<!-- Node22&#45;&gt;Node24 -->
<g id="edge35_Node000022_Node000024" class="edge">
<title>Node22&#45;&gt;Node24</title>
<g id="a_edge35_Node000022_Node000024"><a xlink:title=" ">
<path fill="none" stroke="#63b8ff" d="M900.28,-167.59C914.04,-159.51 934.15,-147.71 950.23,-138.27"/>
<polygon fill="#63b8ff" stroke="#63b8ff" points="951.94,-141.33 958.79,-133.25 948.4,-135.29 951.94,-141.33"/>
</a>
</g>
</g>
<!-- Node23&#45;&gt;Node2 -->
<g id="edge31_Node000023_Node000002" class="edge">
<title>Node23&#45;&gt;Node2</title>
<g id="a_edge31_Node000023_Node000002"><a xlink:title=" ">
<path fill="none" stroke="#63b8ff" d="M743.98,-114.08C739.36,-113.32 734.7,-112.61 730.25,-112 594.72,-93.47 435.81,-79.73 344.1,-72.57"/>
<polygon fill="#63b8ff" stroke="#63b8ff" points="344.46,-69.09 334.22,-71.81 343.92,-76.07 344.46,-69.09"/>
</a>
</g>
</g>
<!-- Node23&#45;&gt;Node19 -->
<g id="edge32_Node000023_Node000019" class="edge">
<title>Node23&#45;&gt;Node19</title>
<g id="a_edge32_Node000023_Node000019"><a xlink:title=" ">
<path fill="none" stroke="#63b8ff" d="M770.8,-111.59C762.28,-103.93 750.04,-92.91 739.86,-83.75"/>
<polygon fill="#63b8ff" stroke="#63b8ff" points="742.48,-81.4 732.71,-77.31 737.8,-86.6 742.48,-81.4"/>
</a>
</g>
</g>
<!-- Node23&#45;&gt;Node20 -->
<g id="edge33_Node000023_Node000020" class="edge">
<title>Node23&#45;&gt;Node20</title>
<g id="a_edge33_Node000023_Node000020"><a xlink:title=" ">
<path fill="none" stroke="#63b8ff" d="M792.57,-111.59C801.89,-103.85 815.33,-92.69 826.43,-83.47"/>
<polygon fill="#63b8ff" stroke="#63b8ff" points="828.44,-86.35 833.89,-77.27 823.96,-80.96 828.44,-86.35"/>
</a>
</g>
</g>
</g>
</svg>
