<?xml version="1.0" encoding="UTF-8" standalone="no"?>
<!DOCTYPE svg PUBLIC "-//W3C//DTD SVG 1.1//EN"
 "http://www.w3.org/Graphics/SVG/1.1/DTD/svg11.dtd">
<!-- Generated by graphviz version 12.2.1 (20241206.2353)
 -->
<!-- Title: FIEAGameEngine/include/Content/Scope.h Pages: 1 -->
<svg width="893pt" height="264pt"
 viewBox="0.00 0.00 893.00 264.00" xmlns="http://www.w3.org/2000/svg" xmlns:xlink="http://www.w3.org/1999/xlink">
<g id="graph0" class="graph" transform="scale(1 1) rotate(0) translate(4 260)">
<title>FIEAGameEngine/include/Content/Scope.h</title>
<!-- Node1 -->
<g id="Node000001" class="node">
<title>Node1</title>
<g id="a_Node000001"><a xlink:title=" ">
<polygon fill="#999999" stroke="#666666" points="797.88,-256 669.38,-256 669.38,-224 797.88,-224 797.88,-256"/>
<text text-anchor="start" x="677.38" y="-242.5" font-family="Helvetica,sans-Serif" font-size="10.00">FIEAGameEngine/include</text>
<text text-anchor="middle" x="733.62" y="-230.5" font-family="Helvetica,sans-Serif" font-size="10.00">/Content/Scope.h</text>
</a>
</g>
</g>
<!-- Node2 -->
<g id="Node000002" class="node">
<title>Node2</title>
<g id="a_Node000002"><a xlink:href="_r_t_t_i_8h.html" target="_top" xlink:title=" ">
<polygon fill="white" stroke="#666666" points="501.5,-132 373.75,-132 373.75,-112 501.5,-112 501.5,-132"/>
<text text-anchor="middle" x="437.62" y="-118.5" font-family="Helvetica,sans-Serif" font-size="10.00">FIEAGameEngine/RTTI.h</text>
</a>
</g>
</g>
<!-- Node1&#45;&gt;Node2 -->
<g id="edge1_Node000001_Node000002" class="edge">
<title>Node1&#45;&gt;Node2</title>
<g id="a_edge1_Node000001_Node000002"><a xlink:title=" ">
<path fill="none" stroke="#63b8ff" d="M682.84,-223.55C652.83,-214.05 614.24,-201.2 580.62,-188 540.56,-172.27 495.54,-151.23 466.91,-137.4"/>
<polygon fill="#63b8ff" stroke="#63b8ff" points="468.66,-134.37 458.14,-133.15 465.61,-140.66 468.66,-134.37"/>
</a>
</g>
</g>
<!-- Node13 -->
<g id="Node000013" class="node">
<title>Node13</title>
<g id="a_Node000013"><a xlink:href="_datum_8h.html" target="_top" xlink:title=" ">
<polygon fill="white" stroke="#666666" points="317.38,-188 263.88,-188 263.88,-168 317.38,-168 317.38,-188"/>
<text text-anchor="middle" x="290.62" y="-174.5" font-family="Helvetica,sans-Serif" font-size="10.00">Datum.h</text>
</a>
</g>
</g>
<!-- Node1&#45;&gt;Node13 -->
<g id="edge13_Node000001_Node000013" class="edge">
<title>Node1&#45;&gt;Node13</title>
<g id="a_edge13_Node000001_Node000013"><a xlink:title=" ">
<path fill="none" stroke="#63b8ff" d="M669.21,-230.28C575.7,-217.61 405.25,-194.52 329.13,-184.21"/>
<polygon fill="#63b8ff" stroke="#63b8ff" points="329.63,-180.75 319.25,-182.88 328.69,-187.69 329.63,-180.75"/>
</a>
</g>
</g>
<!-- Node18 -->
<g id="Node000018" class="node">
<title>Node18</title>
<g id="a_Node000018"><a xlink:title=" ">
<polygon fill="#e0e0e0" stroke="#999999" points="773.12,-76 730.12,-76 730.12,-56 773.12,-56 773.12,-76"/>
<text text-anchor="middle" x="751.62" y="-62.5" font-family="Helvetica,sans-Serif" font-size="10.00">vector</text>
</a>
</g>
</g>
<!-- Node1&#45;&gt;Node18 -->
<g id="edge22_Node000001_Node000018" class="edge">
<title>Node1&#45;&gt;Node18</title>
<g id="a_edge22_Node000001_Node000018"><a xlink:title=" ">
<path fill="none" stroke="#63b8ff" d="M746.81,-223.83C754.67,-214.14 764.31,-200.98 770.62,-188 781.95,-164.73 783.03,-157.63 786.62,-132 787.86,-123.2 789.51,-120.41 786.62,-112 783.15,-101.88 776.38,-92.29 769.7,-84.58"/>
<polygon fill="#63b8ff" stroke="#63b8ff" points="772.27,-82.2 762.88,-77.3 767.17,-86.99 772.27,-82.2"/>
</a>
</g>
</g>
<!-- Node19 -->
<g id="Node000019" class="node">
<title>Node19</title>
<g id="a_Node000019"><a xlink:title=" ">
<polygon fill="#e0e0e0" stroke="#999999" points="885,-76 802.25,-76 802.25,-56 885,-56 885,-76"/>
<text text-anchor="middle" x="843.62" y="-62.5" font-family="Helvetica,sans-Serif" font-size="10.00">unordered_map</text>
</a>
</g>
</g>
<!-- Node1&#45;&gt;Node19 -->
<g id="edge23_Node000001_Node000019" class="edge">
<title>Node1&#45;&gt;Node19</title>
<g id="a_edge23_Node000001_Node000019"><a xlink:title=" ">
<path fill="none" stroke="#63b8ff" d="M798.33,-230.96C824.99,-224.1 853.39,-211.42 869.62,-188 891.15,-156.94 870.83,-111.45 856,-86.01"/>
<polygon fill="#63b8ff" stroke="#63b8ff" points="859.13,-84.42 850.91,-77.73 853.16,-88.08 859.13,-84.42"/>
</a>
</g>
</g>
<!-- Node20 -->
<g id="Node000020" class="node">
<title>Node20</title>
<g id="a_Node000020"><a xlink:title=" ">
<polygon fill="#e0e0e0" stroke="#999999" points="861,-188 826.25,-188 826.25,-168 861,-168 861,-188"/>
<text text-anchor="middle" x="843.62" y="-174.5" font-family="Helvetica,sans-Serif" font-size="10.00">map</text>
</a>
</g>
</g>
<!-- Node1&#45;&gt;Node20 -->
<g id="edge24_Node000001_Node000020" class="edge">
<title>Node1&#45;&gt;Node20</title>
<g id="a_edge24_Node000001_Node000020"><a xlink:title=" ">
<path fill="none" stroke="#63b8ff" d="M761.95,-223.55C778.82,-214.35 800.11,-202.74 816.72,-193.68"/>
<polygon fill="#63b8ff" stroke="#63b8ff" points="817.95,-196.99 825.05,-189.13 814.59,-190.85 817.95,-196.99"/>
</a>
</g>
</g>
<!-- Node21 -->
<g id="Node000021" class="node">
<title>Node21</title>
<g id="a_Node000021"><a xlink:href="_factory_service_8h.html" target="_top" xlink:title=" ">
<polygon fill="white" stroke="#666666" points="761.62,-188 589.62,-188 589.62,-168 761.62,-168 761.62,-188"/>
<text text-anchor="middle" x="675.62" y="-174.5" font-family="Helvetica,sans-Serif" font-size="10.00">FIEAGameEngine/FactoryService.h</text>
</a>
</g>
</g>
<!-- Node1&#45;&gt;Node21 -->
<g id="edge25_Node000001_Node000021" class="edge">
<title>Node1&#45;&gt;Node21</title>
<g id="a_edge25_Node000001_Node000021"><a xlink:title=" ">
<path fill="none" stroke="#63b8ff" d="M718.69,-223.55C710.72,-215.3 700.87,-205.12 692.61,-196.57"/>
<polygon fill="#63b8ff" stroke="#63b8ff" points="695.24,-194.25 685.77,-189.5 690.21,-199.12 695.24,-194.25"/>
</a>
</g>
</g>
<!-- Node3 -->
<g id="Node000003" class="node">
<title>Node3</title>
<g id="a_Node000003"><a xlink:href="_types_8h.html" target="_top" xlink:title=" ">
<polygon fill="white" stroke="#666666" points="521.75,-76 389.5,-76 389.5,-56 521.75,-56 521.75,-76"/>
<text text-anchor="middle" x="455.62" y="-62.5" font-family="Helvetica,sans-Serif" font-size="10.00">FIEAGameEngine/Types.h</text>
</a>
</g>
</g>
<!-- Node2&#45;&gt;Node3 -->
<g id="edge2_Node000002_Node000003" class="edge">
<title>Node2&#45;&gt;Node3</title>
<g id="a_edge2_Node000002_Node000003"><a xlink:title=" ">
<path fill="none" stroke="#63b8ff" d="M440.76,-111.59C443.01,-104.86 446.11,-95.53 448.91,-87.15"/>
<polygon fill="#63b8ff" stroke="#63b8ff" points="452.2,-88.33 452.05,-77.73 445.56,-86.11 452.2,-88.33"/>
</a>
</g>
</g>
<!-- Node12 -->
<g id="Node000012" class="node">
<title>Node12</title>
<g id="a_Node000012"><a xlink:href="_r_t_t_i_8inl.html" target="_top" xlink:title=" ">
<polygon fill="white" stroke="#666666" points="371.88,-76 243.38,-76 243.38,-56 371.88,-56 371.88,-76"/>
<text text-anchor="middle" x="307.62" y="-62.5" font-family="Helvetica,sans-Serif" font-size="10.00">FieaGameEngine/RTTI.inl</text>
</a>
</g>
</g>
<!-- Node2&#45;&gt;Node12 -->
<g id="edge11_Node000002_Node000012" class="edge">
<title>Node2&#45;&gt;Node12</title>
<g id="a_edge11_Node000002_Node000012"><a xlink:title=" ">
<path fill="none" stroke="#63b8ff" d="M409.71,-111.59C387.74,-103.17 357.45,-90.69 335.5,-81.07"/>
<polygon fill="#63b8ff" stroke="#63b8ff" points="337.11,-77.96 326.55,-77.09 334.26,-84.36 337.11,-77.96"/>
</a>
</g>
</g>
<!-- Node4 -->
<g id="Node000004" class="node">
<title>Node4</title>
<g id="a_Node000004"><a xlink:title=" ">
<polygon fill="#e0e0e0" stroke="#999999" points="179.88,-20 117.38,-20 117.38,0 179.88,0 179.88,-20"/>
<text text-anchor="middle" x="148.62" y="-6.5" font-family="Helvetica,sans-Serif" font-size="10.00">windows.h</text>
</a>
</g>
</g>
<!-- Node3&#45;&gt;Node4 -->
<g id="edge3_Node000003_Node000004" class="edge">
<title>Node3&#45;&gt;Node4</title>
<g id="a_edge3_Node000003_Node000004"><a xlink:title=" ">
<path fill="none" stroke="#63b8ff" d="M393.68,-55.54C341.99,-47.42 266.14,-34.99 191.1,-20.4"/>
<polygon fill="#63b8ff" stroke="#63b8ff" points="192.01,-17.02 181.52,-18.53 190.66,-23.89 192.01,-17.02"/>
</a>
</g>
</g>
<!-- Node5 -->
<g id="Node000005" class="node">
<title>Node5</title>
<g id="a_Node000005"><a xlink:title=" ">
<polygon fill="#e0e0e0" stroke="#999999" points="245.75,-20 197.5,-20 197.5,0 245.75,0 245.75,-20"/>
<text text-anchor="middle" x="221.62" y="-6.5" font-family="Helvetica,sans-Serif" font-size="10.00">cassert</text>
</a>
</g>
</g>
<!-- Node3&#45;&gt;Node5 -->
<g id="edge4_Node000003_Node000005" class="edge">
<title>Node3&#45;&gt;Node5</title>
<g id="a_edge4_Node000003_Node000005"><a xlink:title=" ">
<path fill="none" stroke="#63b8ff" d="M410.78,-55.58C372.35,-47.37 315.25,-34.84 256.99,-20.51"/>
<polygon fill="#63b8ff" stroke="#63b8ff" points="258.12,-17.18 247.57,-18.17 256.44,-23.98 258.12,-17.18"/>
</a>
</g>
</g>
<!-- Node6 -->
<g id="Node000006" class="node">
<title>Node6</title>
<g id="a_Node000006"><a xlink:title=" ">
<polygon fill="#e0e0e0" stroke="#999999" points="311.75,-20 263.5,-20 263.5,0 311.75,0 311.75,-20"/>
<text text-anchor="middle" x="287.62" y="-6.5" font-family="Helvetica,sans-Serif" font-size="10.00">cstddef</text>
</a>
</g>
</g>
<!-- Node3&#45;&gt;Node6 -->
<g id="edge5_Node000003_Node000006" class="edge">
<title>Node3&#45;&gt;Node6</title>
<g id="a_edge5_Node000003_Node000006"><a xlink:title=" ">
<path fill="none" stroke="#63b8ff" d="M426.36,-55.59C397.56,-46.34 353.55,-32.19 322.85,-22.32"/>
<polygon fill="#63b8ff" stroke="#63b8ff" points="324.22,-19.09 313.63,-19.36 322.08,-25.75 324.22,-19.09"/>
</a>
</g>
</g>
<!-- Node7 -->
<g id="Node000007" class="node">
<title>Node7</title>
<g id="a_Node000007"><a xlink:title=" ">
<polygon fill="#e0e0e0" stroke="#999999" points="375.25,-20 330,-20 330,0 375.25,0 375.25,-20"/>
<text text-anchor="middle" x="352.62" y="-6.5" font-family="Helvetica,sans-Serif" font-size="10.00">cstdint</text>
</a>
</g>
</g>
<!-- Node3&#45;&gt;Node7 -->
<g id="edge6_Node000003_Node000007" class="edge">
<title>Node3&#45;&gt;Node7</title>
<g id="a_edge6_Node000003_Node000007"><a xlink:title=" ">
<path fill="none" stroke="#63b8ff" d="M437.68,-55.59C421.98,-47.36 398.89,-35.26 380.74,-25.74"/>
<polygon fill="#63b8ff" stroke="#63b8ff" points="382.53,-22.73 372.05,-21.18 379.28,-28.93 382.53,-22.73"/>
</a>
</g>
</g>
<!-- Node8 -->
<g id="Node000008" class="node">
<title>Node8</title>
<g id="a_Node000008"><a xlink:title=" ">
<polygon fill="#e0e0e0" stroke="#999999" points="446,-20 393.25,-20 393.25,0 446,0 446,-20"/>
<text text-anchor="middle" x="419.62" y="-6.5" font-family="Helvetica,sans-Serif" font-size="10.00">cstdbool</text>
</a>
</g>
</g>
<!-- Node3&#45;&gt;Node8 -->
<g id="edge7_Node000003_Node000008" class="edge">
<title>Node3&#45;&gt;Node8</title>
<g id="a_edge7_Node000003_Node000008"><a xlink:title=" ">
<path fill="none" stroke="#63b8ff" d="M449.35,-55.59C444.61,-48.47 437.93,-38.45 432.1,-29.72"/>
<polygon fill="#63b8ff" stroke="#63b8ff" points="435.12,-27.94 426.66,-21.56 429.3,-31.82 435.12,-27.94"/>
</a>
</g>
</g>
<!-- Node9 -->
<g id="Node000009" class="node">
<title>Node9</title>
<g id="a_Node000009"><a xlink:title=" ">
<polygon fill="#e0e0e0" stroke="#999999" points="754.62,-20 714.62,-20 714.62,0 754.62,0 754.62,-20"/>
<text text-anchor="middle" x="734.62" y="-6.5" font-family="Helvetica,sans-Serif" font-size="10.00">string</text>
</a>
</g>
</g>
<!-- Node3&#45;&gt;Node9 -->
<g id="edge8_Node000003_Node000009" class="edge">
<title>Node3&#45;&gt;Node9</title>
<g id="a_edge8_Node000003_Node000009"><a xlink:title=" ">
<path fill="none" stroke="#63b8ff" d="M520.83,-55.51C568.98,-47.99 636.25,-36.42 703.62,-20.25"/>
<polygon fill="#63b8ff" stroke="#63b8ff" points="704.07,-23.74 712.96,-17.97 702.42,-16.94 704.07,-23.74"/>
</a>
</g>
</g>
<!-- Node10 -->
<g id="Node000010" class="node">
<title>Node10</title>
<g id="a_Node000010"><a xlink:title=" ">
<polygon fill="#e0e0e0" stroke="#999999" points="518.75,-20 464.5,-20 464.5,0 518.75,0 518.75,-20"/>
<text text-anchor="middle" x="491.62" y="-6.5" font-family="Helvetica,sans-Serif" font-size="10.00">crtdefs.h</text>
</a>
</g>
</g>
<!-- Node3&#45;&gt;Node10 -->
<g id="edge9_Node000003_Node000010" class="edge">
<title>Node3&#45;&gt;Node10</title>
<g id="a_edge9_Node000003_Node000010"><a xlink:title=" ">
<path fill="none" stroke="#63b8ff" d="M461.9,-55.59C466.64,-48.47 473.32,-38.45 479.15,-29.72"/>
<polygon fill="#63b8ff" stroke="#63b8ff" points="481.95,-31.82 484.59,-21.56 476.13,-27.94 481.95,-31.82"/>
</a>
</g>
</g>
<!-- Node11 -->
<g id="Node000011" class="node">
<title>Node11</title>
<g id="a_Node000011"><a xlink:title=" ">
<polygon fill="#e0e0e0" stroke="#999999" points="696.62,-20 536.62,-20 536.62,0 696.62,0 696.62,-20"/>
<text text-anchor="middle" x="616.62" y="-6.5" font-family="Helvetica,sans-Serif" font-size="10.00">../src/memory/SystemAllocator.h</text>
</a>
</g>
</g>
<!-- Node3&#45;&gt;Node11 -->
<g id="edge10_Node000003_Node000011" class="edge">
<title>Node3&#45;&gt;Node11</title>
<g id="a_edge10_Node000003_Node000011"><a xlink:title=" ">
<path fill="none" stroke="#63b8ff" d="M483.67,-55.59C509.71,-46.86 548.73,-33.77 577.77,-24.03"/>
<polygon fill="#63b8ff" stroke="#63b8ff" points="578.56,-27.46 586.93,-20.96 576.33,-20.82 578.56,-27.46"/>
</a>
</g>
</g>
<!-- Node12&#45;&gt;Node2 -->
<g id="edge12_Node000012_Node000002" class="edge">
<title>Node12&#45;&gt;Node2</title>
<g id="a_edge12_Node000012_Node000002"><a xlink:title=" ">
<path fill="none" stroke="#63b8ff" d="M335.73,-76.48C357.75,-84.93 388.04,-97.41 409.94,-107.01"/>
<polygon fill="#63b8ff" stroke="#63b8ff" points="408.31,-110.11 418.86,-110.98 411.15,-103.72 408.31,-110.11"/>
</a>
</g>
</g>
<!-- Node13&#45;&gt;Node2 -->
<g id="edge18_Node000013_Node000002" class="edge">
<title>Node13&#45;&gt;Node2</title>
<g id="a_edge18_Node000013_Node000002"><a xlink:title=" ">
<path fill="none" stroke="#63b8ff" d="M316.23,-167.59C339.69,-158.97 374.69,-146.12 401.09,-136.42"/>
<polygon fill="#63b8ff" stroke="#63b8ff" points="402.22,-139.73 410.4,-133 399.81,-133.16 402.22,-139.73"/>
</a>
</g>
</g>
<!-- Node13&#45;&gt;Node9 -->
<g id="edge14_Node000013_Node000009" class="edge">
<title>Node13&#45;&gt;Node9</title>
<g id="a_edge14_Node000013_Node000009"><a xlink:title=" ">
<path fill="none" stroke="#63b8ff" d="M317.73,-174.05C359.96,-168.89 443.57,-156.36 510.62,-132 588.04,-103.87 671.44,-52.58 711.09,-26.75"/>
<polygon fill="#63b8ff" stroke="#63b8ff" points="712.95,-29.72 719.38,-21.3 709.1,-23.87 712.95,-29.72"/>
</a>
</g>
</g>
<!-- Node14 -->
<g id="Node000014" class="node">
<title>Node14</title>
<g id="a_Node000014"><a xlink:title=" ">
<polygon fill="#e0e0e0" stroke="#999999" points="355.5,-132 299.75,-132 299.75,-112 355.5,-112 355.5,-132"/>
<text text-anchor="middle" x="327.62" y="-118.5" font-family="Helvetica,sans-Serif" font-size="10.00">charconv</text>
</a>
</g>
</g>
<!-- Node13&#45;&gt;Node14 -->
<g id="edge15_Node000013_Node000014" class="edge">
<title>Node13&#45;&gt;Node14</title>
<g id="a_edge15_Node000013_Node000014"><a xlink:title=" ">
<path fill="none" stroke="#63b8ff" d="M297.07,-167.59C301.95,-160.47 308.82,-150.45 314.8,-141.72"/>
<polygon fill="#63b8ff" stroke="#63b8ff" points="317.63,-143.77 320.4,-133.55 311.86,-139.82 317.63,-143.77"/>
</a>
</g>
</g>
<!-- Node15 -->
<g id="Node000015" class="node">
<title>Node15</title>
<g id="a_Node000015"><a xlink:title=" ">
<polygon fill="#e0e0e0" stroke="#999999" points="69.25,-132 0,-132 0,-112 69.25,-112 69.25,-132"/>
<text text-anchor="middle" x="34.62" y="-118.5" font-family="Helvetica,sans-Serif" font-size="10.00">glm/glm.hpp</text>
</a>
</g>
</g>
<!-- Node13&#45;&gt;Node15 -->
<g id="edge16_Node000013_Node000015" class="edge">
<title>Node13&#45;&gt;Node15</title>
<g id="a_edge16_Node000013_Node000015"><a xlink:title=" ">
<path fill="none" stroke="#63b8ff" d="M263.71,-171.32C220.3,-162.17 134.29,-144.02 80.89,-132.76"/>
<polygon fill="#63b8ff" stroke="#63b8ff" points="81.69,-129.35 71.18,-130.71 80.24,-136.2 81.69,-129.35"/>
</a>
</g>
</g>
<!-- Node16 -->
<g id="Node000016" class="node">
<title>Node16</title>
<g id="a_Node000016"><a xlink:title=" ">
<polygon fill="#e0e0e0" stroke="#999999" points="205.62,-132 87.62,-132 87.62,-112 205.62,-112 205.62,-132"/>
<text text-anchor="middle" x="146.62" y="-118.5" font-family="Helvetica,sans-Serif" font-size="10.00">glm/gtx/string_cast.hpp</text>
</a>
</g>
</g>
<!-- Node13&#45;&gt;Node16 -->
<g id="edge17_Node000013_Node000016" class="edge">
<title>Node13&#45;&gt;Node16</title>
<g id="a_edge17_Node000013_Node000016"><a xlink:title=" ">
<path fill="none" stroke="#63b8ff" d="M265.54,-167.59C242.56,-158.97 208.27,-146.12 182.41,-136.42"/>
<polygon fill="#63b8ff" stroke="#63b8ff" points="183.91,-133.25 173.32,-133.01 181.46,-139.8 183.91,-133.25"/>
</a>
</g>
</g>
<!-- Node17 -->
<g id="Node000017" class="node">
<title>Node17</title>
<g id="a_Node000017"><a xlink:href="_datum_8inl.html" target="_top" xlink:title=" ">
<polygon fill="white" stroke="#666666" points="281.62,-132 223.62,-132 223.62,-112 281.62,-112 281.62,-132"/>
<text text-anchor="middle" x="252.62" y="-118.5" font-family="Helvetica,sans-Serif" font-size="10.00">Datum.inl</text>
</a>
</g>
</g>
<!-- Node13&#45;&gt;Node17 -->
<g id="edge19_Node000013_Node000017" class="edge">
<title>Node13&#45;&gt;Node17</title>
<g id="a_edge19_Node000013_Node000017"><a xlink:title=" ">
<path fill="none" stroke="#63b8ff" d="M278.74,-167.59C272.37,-160.55 265.01,-150.67 259.52,-142"/>
<polygon fill="#63b8ff" stroke="#63b8ff" points="262.71,-140.53 254.68,-133.61 256.64,-144.02 262.71,-140.53"/>
</a>
</g>
</g>
<!-- Node17&#45;&gt;Node3 -->
<g id="edge20_Node000017_Node000003" class="edge">
<title>Node17&#45;&gt;Node3</title>
<g id="a_edge20_Node000017_Node000003"><a xlink:title=" ">
<path fill="none" stroke="#63b8ff" d="M281.71,-113.26C314.94,-104.42 369.77,-89.84 408.98,-79.41"/>
<polygon fill="#63b8ff" stroke="#63b8ff" points="409.88,-82.79 418.64,-76.84 408.08,-76.03 409.88,-82.79"/>
</a>
</g>
</g>
<!-- Node17&#45;&gt;Node13 -->
<g id="edge21_Node000017_Node000013" class="edge">
<title>Node17&#45;&gt;Node13</title>
<g id="a_edge21_Node000017_Node000013"><a xlink:title=" ">
<path fill="none" stroke="#63b8ff" d="M264.41,-132.3C270.77,-139.32 278.13,-149.19 283.65,-157.87"/>
<polygon fill="#63b8ff" stroke="#63b8ff" points="280.48,-159.38 288.52,-166.28 286.54,-155.87 280.48,-159.38"/>
</a>
</g>
</g>
<!-- Node21&#45;&gt;Node2 -->
<g id="edge27_Node000021_Node000002" class="edge">
<title>Node21&#45;&gt;Node2</title>
<g id="a_edge27_Node000021_Node000002"><a xlink:title=" ">
<path fill="none" stroke="#63b8ff" d="M633.9,-167.53C594,-158.48 533.69,-144.8 490.46,-134.99"/>
<polygon fill="#63b8ff" stroke="#63b8ff" points="491.31,-131.59 480.78,-132.79 489.76,-138.42 491.31,-131.59"/>
</a>
</g>
</g>
<!-- Node21&#45;&gt;Node3 -->
<g id="edge26_Node000021_Node000003" class="edge">
<title>Node21&#45;&gt;Node3</title>
<g id="a_edge26_Node000021_Node000003"><a xlink:title=" ">
<path fill="none" stroke="#63b8ff" d="M656.87,-167.62C618.39,-148.38 530.3,-104.34 484.49,-81.43"/>
<polygon fill="#63b8ff" stroke="#63b8ff" points="486.2,-78.37 475.69,-77.03 483.07,-84.63 486.2,-78.37"/>
</a>
</g>
</g>
<!-- Node21&#45;&gt;Node9 -->
<g id="edge32_Node000021_Node000009" class="edge">
<title>Node21&#45;&gt;Node9</title>
<g id="a_edge32_Node000021_Node000009"><a xlink:title=" ">
<path fill="none" stroke="#63b8ff" d="M678.06,-167.66C681.44,-154.95 687.91,-131.57 694.62,-112 704.45,-83.37 717.68,-50.94 726.18,-30.73"/>
<polygon fill="#63b8ff" stroke="#63b8ff" points="729.31,-32.33 729.99,-21.75 722.86,-29.59 729.31,-32.33"/>
</a>
</g>
</g>
<!-- Node21&#45;&gt;Node19 -->
<g id="edge34_Node000021_Node000019" class="edge">
<title>Node21&#45;&gt;Node19</title>
<g id="a_edge34_Node000021_Node000019"><a xlink:title=" ">
<path fill="none" stroke="#63b8ff" d="M710.23,-167.57C733.25,-160.23 763.41,-148.51 786.62,-132 804.54,-119.26 820.61,-99.83 831.09,-85.52"/>
<polygon fill="#63b8ff" stroke="#63b8ff" points="833.9,-87.61 836.8,-77.42 828.18,-83.58 833.9,-87.61"/>
</a>
</g>
</g>
<!-- Node22 -->
<g id="Node000022" class="node">
<title>Node22</title>
<g id="a_Node000022"><a xlink:href="_service_mgr_8h.html" target="_top" xlink:title=" ">
<polygon fill="white" stroke="#666666" points="777.5,-132 703.75,-132 703.75,-112 777.5,-112 777.5,-132"/>
<text text-anchor="middle" x="740.62" y="-118.5" font-family="Helvetica,sans-Serif" font-size="10.00">ServiceMgr.h</text>
</a>
</g>
</g>
<!-- Node21&#45;&gt;Node22 -->
<g id="edge28_Node000021_Node000022" class="edge">
<title>Node21&#45;&gt;Node22</title>
<g id="a_edge28_Node000021_Node000022"><a xlink:title=" ">
<path fill="none" stroke="#63b8ff" d="M686.95,-167.59C696.27,-159.85 709.7,-148.69 720.8,-139.47"/>
<polygon fill="#63b8ff" stroke="#63b8ff" points="722.81,-142.35 728.27,-133.27 718.34,-136.96 722.81,-142.35"/>
</a>
</g>
</g>
<!-- Node23 -->
<g id="Node000023" class="node">
<title>Node23</title>
<g id="a_Node000023"><a xlink:title=" ">
<polygon fill="#e0e0e0" stroke="#999999" points="647.25,-132 596,-132 596,-112 647.25,-112 647.25,-132"/>
<text text-anchor="middle" x="621.62" y="-118.5" font-family="Helvetica,sans-Serif" font-size="10.00">memory</text>
</a>
</g>
</g>
<!-- Node21&#45;&gt;Node23 -->
<g id="edge33_Node000021_Node000023" class="edge">
<title>Node21&#45;&gt;Node23</title>
<g id="a_edge33_Node000021_Node000023"><a xlink:title=" ">
<path fill="none" stroke="#63b8ff" d="M666.22,-167.59C658.71,-160.08 647.98,-149.35 638.93,-140.3"/>
<polygon fill="#63b8ff" stroke="#63b8ff" points="641.54,-137.96 631.99,-133.37 636.59,-142.91 641.54,-137.96"/>
</a>
</g>
</g>
<!-- Node22&#45;&gt;Node3 -->
<g id="edge29_Node000022_Node000003" class="edge">
<title>Node22&#45;&gt;Node3</title>
<g id="a_edge29_Node000022_Node000003"><a xlink:title=" ">
<path fill="none" stroke="#63b8ff" d="M703.37,-113.94C655.91,-104.95 573.26,-89.29 516.58,-78.55"/>
<polygon fill="#63b8ff" stroke="#63b8ff" points="517.57,-75.17 507.09,-76.75 516.26,-82.05 517.57,-75.17"/>
</a>
</g>
</g>
<!-- Node22&#45;&gt;Node18 -->
<g id="edge30_Node000022_Node000018" class="edge">
<title>Node22&#45;&gt;Node18</title>
<g id="a_edge30_Node000022_Node000018"><a xlink:title=" ">
<path fill="none" stroke="#63b8ff" d="M742.54,-111.59C743.9,-104.93 745.77,-95.75 747.46,-87.44"/>
<polygon fill="#63b8ff" stroke="#63b8ff" points="750.86,-88.28 749.43,-77.78 744,-86.88 750.86,-88.28"/>
</a>
</g>
</g>
<!-- Node22&#45;&gt;Node19 -->
<g id="edge31_Node000022_Node000019" class="edge">
<title>Node22&#45;&gt;Node19</title>
<g id="a_edge31_Node000022_Node000019"><a xlink:title=" ">
<path fill="none" stroke="#63b8ff" d="M758.57,-111.59C774.27,-103.36 797.36,-91.26 815.51,-81.74"/>
<polygon fill="#63b8ff" stroke="#63b8ff" points="816.97,-84.93 824.2,-77.18 813.72,-78.73 816.97,-84.93"/>
</a>
</g>
</g>
</g>
</svg>
