<?xml version="1.0" encoding="UTF-8" standalone="no"?>
<!DOCTYPE svg PUBLIC "-//W3C//DTD SVG 1.1//EN"
 "http://www.w3.org/Graphics/SVG/1.1/DTD/svg11.dtd">
<!-- Generated by graphviz version 12.2.1 (20241206.2353)
 -->
<!-- Title: FIEAGameEngine/include/Content/ScopeParseHandler.h Pages: 1 -->
<svg width="326pt" height="108pt"
 viewBox="0.00 0.00 325.50 108.00" xmlns="http://www.w3.org/2000/svg" xmlns:xlink="http://www.w3.org/1999/xlink">
<g id="graph0" class="graph" transform="scale(1 1) rotate(0) translate(4 104)">
<title>FIEAGameEngine/include/Content/ScopeParseHandler.h</title>
<!-- Node1 -->
<g id="Node000001" class="node">
<title>Node1</title>
<g id="a_Node000001"><a xlink:title=" ">
<polygon fill="#999999" stroke="#666666" points="239.88,-100 88.12,-100 88.12,-68 239.88,-68 239.88,-100"/>
<text text-anchor="start" x="96.12" y="-86.5" font-family="Helvetica,sans-Serif" font-size="10.00">FIEAGameEngine/include</text>
<text text-anchor="middle" x="164" y="-74.5" font-family="Helvetica,sans-Serif" font-size="10.00">/Content/ScopeParseHandler.h</text>
</a>
</g>
</g>
<!-- Node2 -->
<g id="Node000002" class="node">
<title>Node2</title>
<g id="a_Node000002"><a xlink:href="_scope_parse_handler_8cpp.html" target="_top" xlink:title=" ">
<polygon fill="white" stroke="#666666" points="160,-32 0,-32 0,0 160,0 160,-32"/>
<text text-anchor="start" x="8" y="-18.5" font-family="Helvetica,sans-Serif" font-size="10.00">FIEAGameEngine/src</text>
<text text-anchor="middle" x="80" y="-6.5" font-family="Helvetica,sans-Serif" font-size="10.00">/content/ScopeParseHandler.cpp</text>
</a>
</g>
</g>
<!-- Node1&#45;&gt;Node2 -->
<g id="edge1_Node000001_Node000002" class="edge">
<title>Node1&#45;&gt;Node2</title>
<g id="a_edge1_Node000001_Node000002"><a xlink:title=" ">
<path fill="none" stroke="#63b8ff" d="M135.49,-60.6C123.7,-51.34 110.33,-40.83 99.67,-32.45"/>
<polygon fill="#63b8ff" stroke="#63b8ff" points="133.3,-63.33 143.33,-66.76 137.63,-57.83 133.3,-63.33"/>
</a>
</g>
</g>
<!-- Node3 -->
<g id="Node000003" class="node">
<title>Node3</title>
<g id="a_Node000003"><a xlink:href="_serialization_tests_8cpp.html" target="_top" xlink:title=" ">
<polygon fill="white" stroke="#666666" points="317.5,-26 178.5,-26 178.5,-6 317.5,-6 317.5,-26"/>
<text text-anchor="middle" x="248" y="-12.5" font-family="Helvetica,sans-Serif" font-size="10.00">Tests/SerializationTests.cpp</text>
</a>
</g>
</g>
<!-- Node1&#45;&gt;Node3 -->
<g id="edge2_Node000001_Node000003" class="edge">
<title>Node1&#45;&gt;Node3</title>
<g id="a_edge2_Node000001_Node000003"><a xlink:title=" ">
<path fill="none" stroke="#63b8ff" d="M192.37,-60.71C207.3,-48.98 224.81,-35.22 236.14,-26.32"/>
<polygon fill="#63b8ff" stroke="#63b8ff" points="190.37,-57.83 184.67,-66.76 194.7,-63.33 190.37,-57.83"/>
</a>
</g>
</g>
</g>
</svg>
