<?xml version="1.0" encoding="UTF-8" standalone="no"?>
<!DOCTYPE svg PUBLIC "-//W3C//DTD SVG 1.1//EN"
 "http://www.w3.org/Graphics/SVG/1.1/DTD/svg11.dtd">
<!-- Generated by graphviz version 12.2.1 (20241206.2353)
 -->
<!-- Title: FIEAGameEngine/src/content/ScopeWriter.inl Pages: 1 -->
<svg width="1932pt" height="176pt"
 viewBox="0.00 0.00 1931.75 176.00" xmlns="http://www.w3.org/2000/svg" xmlns:xlink="http://www.w3.org/1999/xlink">
<g id="graph0" class="graph" transform="scale(1 1) rotate(0) translate(4 172)">
<title>FIEAGameEngine/src/content/ScopeWriter.inl</title>
<!-- Node1 -->
<g id="Node000001" class="node">
<title>Node1</title>
<g id="a_Node000001"><a xlink:title=" ">
<polygon fill="#999999" stroke="#666666" points="1030.38,-168 910.12,-168 910.12,-136 1030.38,-136 1030.38,-168"/>
<text text-anchor="start" x="918.12" y="-154.5" font-family="Helvetica,sans-Serif" font-size="10.00">FIEAGameEngine/src</text>
<text text-anchor="middle" x="970.25" y="-142.5" font-family="Helvetica,sans-Serif" font-size="10.00">/content/ScopeWriter.inl</text>
</a>
</g>
</g>
<!-- Node2 -->
<g id="Node000002" class="node">
<title>Node2</title>
<g id="a_Node000002"><a xlink:href="_scope_writer_8h.html" target="_top" xlink:title=" ">
<polygon fill="white" stroke="#666666" points="1028.12,-100 912.38,-100 912.38,-68 1028.12,-68 1028.12,-100"/>
<text text-anchor="start" x="920.38" y="-86.5" font-family="Helvetica,sans-Serif" font-size="10.00">FIEAGameEngine/src</text>
<text text-anchor="middle" x="970.25" y="-74.5" font-family="Helvetica,sans-Serif" font-size="10.00">/content/ScopeWriter.h</text>
</a>
</g>
</g>
<!-- Node1&#45;&gt;Node2 -->
<g id="edge1_Node000001_Node000002" class="edge">
<title>Node1&#45;&gt;Node2</title>
<g id="a_edge1_Node000001_Node000002"><a xlink:title=" ">
<path fill="none" stroke="#63b8ff" d="M963.61,-124.31C963.32,-116.12 963.6,-107.38 964.46,-100.22"/>
<polygon fill="#63b8ff" stroke="#63b8ff" points="960.11,-124.47 964.34,-134.18 967.09,-123.95 960.11,-124.47"/>
</a>
</g>
</g>
<!-- Node2&#45;&gt;Node1 -->
<g id="edge11_Node000002_Node000001" class="edge">
<title>Node2&#45;&gt;Node1</title>
<g id="a_edge11_Node000002_Node000001"><a xlink:title=" ">
<path fill="none" stroke="#63b8ff" d="M976.89,-111.59C977.18,-119.79 976.9,-128.53 976.05,-135.69"/>
<polygon fill="#63b8ff" stroke="#63b8ff" points="980.38,-111.45 976.15,-101.73 973.4,-111.97 980.38,-111.45"/>
</a>
</g>
</g>
<!-- Node3 -->
<g id="Node000003" class="node">
<title>Node3</title>
<g id="a_Node000003"><a xlink:href="_action_handler_8cpp.html" target="_top" xlink:title=" ">
<polygon fill="white" stroke="#666666" points="134.5,-32 0,-32 0,0 134.5,0 134.5,-32"/>
<text text-anchor="start" x="8" y="-18.5" font-family="Helvetica,sans-Serif" font-size="10.00">FIEAGameEngine/src</text>
<text text-anchor="middle" x="67.25" y="-6.5" font-family="Helvetica,sans-Serif" font-size="10.00">/content/ActionHandler.cpp</text>
</a>
</g>
</g>
<!-- Node2&#45;&gt;Node3 -->
<g id="edge2_Node000002_Node000003" class="edge">
<title>Node2&#45;&gt;Node3</title>
<g id="a_edge2_Node000002_Node000003"><a xlink:title=" ">
<path fill="none" stroke="#63b8ff" d="M900.95,-81.84C758.49,-78.78 422.63,-68.02 143.25,-32 140.45,-31.64 137.6,-31.24 134.72,-30.8"/>
<polygon fill="#63b8ff" stroke="#63b8ff" points="900.51,-85.33 910.58,-82.04 900.66,-78.33 900.51,-85.33"/>
</a>
</g>
</g>
<!-- Node4 -->
<g id="Node000004" class="node">
<title>Node4</title>
<g id="a_Node000004"><a xlink:href="_action_list_handler_8cpp.html" target="_top" xlink:title=" ">
<polygon fill="white" stroke="#666666" points="302.38,-32 152.12,-32 152.12,0 302.38,0 302.38,-32"/>
<text text-anchor="start" x="160.12" y="-18.5" font-family="Helvetica,sans-Serif" font-size="10.00">FIEAGameEngine/src</text>
<text text-anchor="middle" x="227.25" y="-6.5" font-family="Helvetica,sans-Serif" font-size="10.00">/content/ActionListHandler.cpp</text>
</a>
</g>
</g>
<!-- Node2&#45;&gt;Node4 -->
<g id="edge3_Node000002_Node000004" class="edge">
<title>Node2&#45;&gt;Node4</title>
<g id="a_edge3_Node000002_Node000004"><a xlink:title=" ">
<path fill="none" stroke="#63b8ff" d="M901.1,-79.92C780.83,-74.05 525.45,-59.34 311.25,-32 308.46,-31.64 305.62,-31.26 302.75,-30.85"/>
<polygon fill="#63b8ff" stroke="#63b8ff" points="900.65,-83.4 910.8,-80.38 900.98,-76.41 900.65,-83.4"/>
</a>
</g>
</g>
<!-- Node5 -->
<g id="Node000005" class="node">
<title>Node5</title>
<g id="a_Node000005"><a xlink:href="_array_handler_8cpp.html" target="_top" xlink:title=" ">
<polygon fill="white" stroke="#666666" points="450.25,-32 320.25,-32 320.25,0 450.25,0 450.25,-32"/>
<text text-anchor="start" x="328.25" y="-18.5" font-family="Helvetica,sans-Serif" font-size="10.00">FIEAGameEngine/src</text>
<text text-anchor="middle" x="385.25" y="-6.5" font-family="Helvetica,sans-Serif" font-size="10.00">/content/ArrayHandler.cpp</text>
</a>
</g>
</g>
<!-- Node2&#45;&gt;Node5 -->
<g id="edge4_Node000002_Node000005" class="edge">
<title>Node2&#45;&gt;Node5</title>
<g id="a_edge4_Node000002_Node000005"><a xlink:title=" ">
<path fill="none" stroke="#63b8ff" d="M900.87,-78.3C802.33,-71.12 616.34,-55.7 459.25,-32 456.4,-31.57 453.49,-31.1 450.56,-30.61"/>
<polygon fill="#63b8ff" stroke="#63b8ff" points="900.42,-81.77 910.65,-79 900.92,-74.79 900.42,-81.77"/>
</a>
</g>
</g>
<!-- Node6 -->
<g id="Node000006" class="node">
<title>Node6</title>
<g id="a_Node000006"><a xlink:href="_float_parse_handler_8cpp.html" target="_top" xlink:title=" ">
<polygon fill="white" stroke="#666666" points="622.25,-32 468.25,-32 468.25,0 622.25,0 622.25,-32"/>
<text text-anchor="start" x="476.25" y="-18.5" font-family="Helvetica,sans-Serif" font-size="10.00">FIEAGameEngine/src</text>
<text text-anchor="middle" x="545.25" y="-6.5" font-family="Helvetica,sans-Serif" font-size="10.00">/content/FloatParseHandler.cpp</text>
</a>
</g>
</g>
<!-- Node2&#45;&gt;Node6 -->
<g id="edge5_Node000002_Node000006" class="edge">
<title>Node2&#45;&gt;Node6</title>
<g id="a_edge5_Node000002_Node000006"><a xlink:title=" ">
<path fill="none" stroke="#63b8ff" d="M900.92,-73.05C832.35,-63.1 724.46,-47.14 631.25,-32 628.41,-31.54 625.51,-31.06 622.59,-30.58"/>
<polygon fill="#63b8ff" stroke="#63b8ff" points="900.1,-76.47 910.5,-74.44 901.11,-69.54 900.1,-76.47"/>
</a>
</g>
</g>
<!-- Node7 -->
<g id="Node000007" class="node">
<title>Node7</title>
<g id="a_Node000007"><a xlink:href="_game_object_handler_8cpp.html" target="_top" xlink:title=" ">
<polygon fill="white" stroke="#666666" points="802,-32 640.5,-32 640.5,0 802,0 802,-32"/>
<text text-anchor="start" x="648.5" y="-18.5" font-family="Helvetica,sans-Serif" font-size="10.00">FIEAGameEngine/src</text>
<text text-anchor="middle" x="721.25" y="-6.5" font-family="Helvetica,sans-Serif" font-size="10.00">/content/GameObjectHandler.cpp</text>
</a>
</g>
</g>
<!-- Node2&#45;&gt;Node7 -->
<g id="edge6_Node000002_Node000007" class="edge">
<title>Node2&#45;&gt;Node7</title>
<g id="a_edge6_Node000002_Node000007"><a xlink:title=" ">
<path fill="none" stroke="#63b8ff" d="M901.12,-64.68C862.84,-54.53 815.79,-42.06 779.41,-32.42"/>
<polygon fill="#63b8ff" stroke="#63b8ff" points="900.16,-68.04 910.72,-67.22 901.95,-61.28 900.16,-68.04"/>
</a>
</g>
</g>
<!-- Node8 -->
<g id="Node000008" class="node">
<title>Node8</title>
<g id="a_Node000008"><a xlink:href="_int_parse_handler_8cpp.html" target="_top" xlink:title=" ">
<polygon fill="white" stroke="#666666" points="964,-32 820.5,-32 820.5,0 964,0 964,-32"/>
<text text-anchor="start" x="828.5" y="-18.5" font-family="Helvetica,sans-Serif" font-size="10.00">FIEAGameEngine/src</text>
<text text-anchor="middle" x="892.25" y="-6.5" font-family="Helvetica,sans-Serif" font-size="10.00">/content/IntParseHandler.cpp</text>
</a>
</g>
</g>
<!-- Node2&#45;&gt;Node8 -->
<g id="edge7_Node000002_Node000008" class="edge">
<title>Node2&#45;&gt;Node8</title>
<g id="a_edge7_Node000002_Node000008"><a xlink:title=" ">
<path fill="none" stroke="#63b8ff" d="M943.45,-60.32C932.58,-51.13 920.32,-40.75 910.51,-32.45"/>
<polygon fill="#63b8ff" stroke="#63b8ff" points="941.11,-62.93 951,-66.71 945.63,-57.58 941.11,-62.93"/>
</a>
</g>
</g>
<!-- Node9 -->
<g id="Node000009" class="node">
<title>Node9</title>
<g id="a_Node000009"><a xlink:href="_matrix_handler_8cpp.html" target="_top" xlink:title=" ">
<polygon fill="white" stroke="#666666" points="1116.12,-32 982.38,-32 982.38,0 1116.12,0 1116.12,-32"/>
<text text-anchor="start" x="990.38" y="-18.5" font-family="Helvetica,sans-Serif" font-size="10.00">FIEAGameEngine/src</text>
<text text-anchor="middle" x="1049.25" y="-6.5" font-family="Helvetica,sans-Serif" font-size="10.00">/content/MatrixHandler.cpp</text>
</a>
</g>
</g>
<!-- Node2&#45;&gt;Node9 -->
<g id="edge8_Node000002_Node000009" class="edge">
<title>Node2&#45;&gt;Node9</title>
<g id="a_edge8_Node000002_Node000009"><a xlink:title=" ">
<path fill="none" stroke="#63b8ff" d="M997.39,-60.32C1008.4,-51.13 1020.82,-40.75 1030.75,-32.45"/>
<polygon fill="#63b8ff" stroke="#63b8ff" points="995.16,-57.62 989.73,-66.72 999.65,-63 995.16,-57.62"/>
</a>
</g>
</g>
<!-- Node10 -->
<g id="Node000010" class="node">
<title>Node10</title>
<g id="a_Node000010"><a xlink:href="_scope_parse_handler_8cpp.html" target="_top" xlink:title=" ">
<polygon fill="white" stroke="#666666" points="1294.25,-32 1134.25,-32 1134.25,0 1294.25,0 1294.25,-32"/>
<text text-anchor="start" x="1142.25" y="-18.5" font-family="Helvetica,sans-Serif" font-size="10.00">FIEAGameEngine/src</text>
<text text-anchor="middle" x="1214.25" y="-6.5" font-family="Helvetica,sans-Serif" font-size="10.00">/content/ScopeParseHandler.cpp</text>
</a>
</g>
</g>
<!-- Node2&#45;&gt;Node10 -->
<g id="edge9_Node000002_Node000010" class="edge">
<title>Node2&#45;&gt;Node10</title>
<g id="a_edge9_Node000002_Node000010"><a xlink:title=" ">
<path fill="none" stroke="#63b8ff" d="M1038.26,-64.6C1075.62,-54.5 1121.45,-42.1 1156.98,-32.49"/>
<polygon fill="#63b8ff" stroke="#63b8ff" points="1037.66,-61.14 1028.92,-67.13 1039.49,-67.9 1037.66,-61.14"/>
</a>
</g>
</g>
<!-- Node11 -->
<g id="Node000011" class="node">
<title>Node11</title>
<g id="a_Node000011"><a xlink:href="_scope_writer_8cpp.html" target="_top" xlink:title=" ">
<polygon fill="white" stroke="#666666" points="1438.38,-32 1312.12,-32 1312.12,0 1438.38,0 1438.38,-32"/>
<text text-anchor="start" x="1320.12" y="-18.5" font-family="Helvetica,sans-Serif" font-size="10.00">FIEAGameEngine/src</text>
<text text-anchor="middle" x="1375.25" y="-6.5" font-family="Helvetica,sans-Serif" font-size="10.00">/content/ScopeWriter.cpp</text>
</a>
</g>
</g>
<!-- Node2&#45;&gt;Node11 -->
<g id="edge10_Node000002_Node000011" class="edge">
<title>Node2&#45;&gt;Node11</title>
<g id="a_edge10_Node000002_Node000011"><a xlink:title=" ">
<path fill="none" stroke="#63b8ff" d="M1039.78,-73.45C1107.27,-63.93 1212.52,-48.39 1303.25,-32 1306.01,-31.5 1308.84,-30.98 1311.68,-30.44"/>
<polygon fill="#63b8ff" stroke="#63b8ff" points="1039.37,-69.98 1029.96,-74.84 1040.35,-76.91 1039.37,-69.98"/>
</a>
</g>
</g>
<!-- Node12 -->
<g id="Node000012" class="node">
<title>Node12</title>
<g id="a_Node000012"><a xlink:href="_string_parse_handler_8cpp.html" target="_top" xlink:title=" ">
<polygon fill="white" stroke="#666666" points="1614.12,-32 1456.38,-32 1456.38,0 1614.12,0 1614.12,-32"/>
<text text-anchor="start" x="1464.38" y="-18.5" font-family="Helvetica,sans-Serif" font-size="10.00">FIEAGameEngine/src</text>
<text text-anchor="middle" x="1535.25" y="-6.5" font-family="Helvetica,sans-Serif" font-size="10.00">/content/StringParseHandler.cpp</text>
</a>
</g>
</g>
<!-- Node2&#45;&gt;Node12 -->
<g id="edge12_Node000002_Node000012" class="edge">
<title>Node2&#45;&gt;Node12</title>
<g id="a_edge12_Node000002_Node000012"><a xlink:title=" ">
<path fill="none" stroke="#63b8ff" d="M1039.63,-76.95C1132.61,-68.53 1302.72,-52.02 1447.25,-32 1450.17,-31.6 1453.14,-31.17 1456.13,-30.73"/>
<polygon fill="#63b8ff" stroke="#63b8ff" points="1039.55,-73.44 1029.91,-77.82 1040.18,-80.41 1039.55,-73.44"/>
</a>
</g>
</g>
<!-- Node13 -->
<g id="Node000013" class="node">
<title>Node13</title>
<g id="a_Node000013"><a xlink:href="_vector_handler_8cpp.html" target="_top" xlink:title=" ">
<polygon fill="white" stroke="#666666" points="1766.5,-32 1632,-32 1632,0 1766.5,0 1766.5,-32"/>
<text text-anchor="start" x="1640" y="-18.5" font-family="Helvetica,sans-Serif" font-size="10.00">FIEAGameEngine/src</text>
<text text-anchor="middle" x="1699.25" y="-6.5" font-family="Helvetica,sans-Serif" font-size="10.00">/content/VectorHandler.cpp</text>
</a>
</g>
</g>
<!-- Node2&#45;&gt;Node13 -->
<g id="edge13_Node000002_Node000013" class="edge">
<title>Node2&#45;&gt;Node13</title>
<g id="a_edge13_Node000002_Node000013"><a xlink:title=" ">
<path fill="none" stroke="#63b8ff" d="M1039.74,-80.24C1159.39,-74.9 1411.8,-61.02 1623.25,-32 1626.05,-31.62 1628.9,-31.19 1631.77,-30.74"/>
<polygon fill="#63b8ff" stroke="#63b8ff" points="1039.94,-76.73 1030.1,-80.67 1040.24,-83.73 1039.94,-76.73"/>
</a>
</g>
</g>
<!-- Node14 -->
<g id="Node000014" class="node">
<title>Node14</title>
<g id="a_Node000014"><a xlink:href="_serialization_tests_8cpp.html" target="_top" xlink:title=" ">
<polygon fill="white" stroke="#666666" points="1923.75,-26 1784.75,-26 1784.75,-6 1923.75,-6 1923.75,-26"/>
<text text-anchor="middle" x="1854.25" y="-12.5" font-family="Helvetica,sans-Serif" font-size="10.00">Tests/SerializationTests.cpp</text>
</a>
</g>
</g>
<!-- Node2&#45;&gt;Node14 -->
<g id="edge14_Node000002_Node000014" class="edge">
<title>Node2&#45;&gt;Node14</title>
<g id="a_edge14_Node000002_Node000014"><a xlink:title=" ">
<path fill="none" stroke="#63b8ff" d="M1039.92,-81.5C1179.82,-77.85 1504.64,-66.13 1775.25,-32 1786.47,-30.59 1798.5,-28.56 1809.7,-26.46"/>
<polygon fill="#63b8ff" stroke="#63b8ff" points="1039.99,-78 1030.08,-81.75 1040.17,-85 1039.99,-78"/>
</a>
</g>
</g>
</g>
</svg>
