<?xml version="1.0" encoding="UTF-8" standalone="no"?>
<!DOCTYPE svg PUBLIC "-//W3C//DTD SVG 1.1//EN"
 "http://www.w3.org/Graphics/SVG/1.1/DTD/svg11.dtd">
<!-- Generated by graphviz version 12.2.1 (20241206.2353)
 -->
<!-- Title: FIEAGameEngine/include/FIEAGameEngine/ServiceMgr.h Pages: 1 -->
<svg width="2193pt" height="380pt"
 viewBox="0.00 0.00 2193.25 380.00" xmlns="http://www.w3.org/2000/svg" xmlns:xlink="http://www.w3.org/1999/xlink">
<g id="graph0" class="graph" transform="scale(1 1) rotate(0) translate(4 376)">
<title>FIEAGameEngine/include/FIEAGameEngine/ServiceMgr.h</title>
<!-- Node1 -->
<g id="Node000001" class="node">
<title>Node1</title>
<g id="a_Node000001"><a xlink:title=" ">
<polygon fill="#999999" stroke="#666666" points="1096.5,-372 938,-372 938,-340 1096.5,-340 1096.5,-372"/>
<text text-anchor="start" x="946" y="-358.5" font-family="Helvetica,sans-Serif" font-size="10.00">FIEAGameEngine/include</text>
<text text-anchor="middle" x="1017.25" y="-346.5" font-family="Helvetica,sans-Serif" font-size="10.00">/FIEAGameEngine/ServiceMgr.h</text>
</a>
</g>
</g>
<!-- Node2 -->
<g id="Node000002" class="node">
<title>Node2</title>
<g id="a_Node000002"><a xlink:href="_clock_service_8h.html" target="_top" xlink:title=" ">
<polygon fill="white" stroke="#666666" points="478,-304 310.5,-304 310.5,-272 478,-272 478,-304"/>
<text text-anchor="start" x="318.5" y="-290.5" font-family="Helvetica,sans-Serif" font-size="10.00">FIEAGameEngine/include</text>
<text text-anchor="middle" x="394.25" y="-278.5" font-family="Helvetica,sans-Serif" font-size="10.00">/FIEAGameEngine/ClockService.h</text>
</a>
</g>
</g>
<!-- Node1&#45;&gt;Node2 -->
<g id="edge1_Node000001_Node000002" class="edge">
<title>Node1&#45;&gt;Node2</title>
<g id="a_edge1_Node000001_Node000002"><a xlink:title=" ">
<path fill="none" stroke="#63b8ff" d="M926.19,-346.52C825.02,-336.93 656.83,-320.49 512.25,-304 501.27,-302.75 489.73,-301.36 478.34,-299.96"/>
<polygon fill="#63b8ff" stroke="#63b8ff" points="925.8,-349.99 936.08,-347.45 926.46,-343.03 925.8,-349.99"/>
</a>
</g>
</g>
<!-- Node3 -->
<g id="Node000003" class="node">
<title>Node3</title>
<g id="a_Node000003"><a xlink:href="_clock_service_8cpp.html" target="_top" xlink:title=" ">
<polygon fill="white" stroke="#666666" points="122.5,-236 0,-236 0,-204 122.5,-204 122.5,-236"/>
<text text-anchor="start" x="8" y="-222.5" font-family="Helvetica,sans-Serif" font-size="10.00">FIEAGameEngine/src</text>
<text text-anchor="middle" x="61.25" y="-210.5" font-family="Helvetica,sans-Serif" font-size="10.00">/clock/ClockService.cpp</text>
</a>
</g>
</g>
<!-- Node1&#45;&gt;Node3 -->
<g id="edge39_Node000001_Node000003" class="edge">
<title>Node1&#45;&gt;Node3</title>
<g id="a_edge39_Node000001_Node000003"><a xlink:title=" ">
<path fill="none" stroke="#63b8ff" d="M926.13,-352.68C752.8,-347.63 381.81,-333.66 257.25,-304 194.52,-289.06 126.24,-255.92 89.12,-236.34"/>
<polygon fill="#63b8ff" stroke="#63b8ff" points="925.9,-356.17 935.99,-352.96 926.1,-349.17 925.9,-356.17"/>
</a>
</g>
</g>
<!-- Node4 -->
<g id="Node000004" class="node">
<title>Node4</title>
<g id="a_Node000004"><a xlink:href="_delayed_action_8cpp.html" target="_top" xlink:title=" ">
<polygon fill="white" stroke="#666666" points="311.88,-236 140.62,-236 140.62,-204 311.88,-204 311.88,-236"/>
<text text-anchor="start" x="148.62" y="-222.5" font-family="Helvetica,sans-Serif" font-size="10.00">FIEAGameEngine/src</text>
<text text-anchor="middle" x="226.25" y="-210.5" font-family="Helvetica,sans-Serif" font-size="10.00">/content/actions/DelayedAction.cpp</text>
</a>
</g>
</g>
<!-- Node1&#45;&gt;Node4 -->
<g id="edge40_Node000001_Node000004" class="edge">
<title>Node1&#45;&gt;Node4</title>
<g id="a_edge40_Node000001_Node000004"><a xlink:title=" ">
<path fill="none" stroke="#63b8ff" d="M926.53,-352.31C746.38,-346.42 356.12,-330.75 301.25,-304 270.7,-289.11 246.87,-255.79 234.85,-236.2"/>
<polygon fill="#63b8ff" stroke="#63b8ff" points="926.2,-355.8 936.31,-352.63 926.43,-348.81 926.2,-355.8"/>
</a>
</g>
</g>
<!-- Node5 -->
<g id="Node000005" class="node">
<title>Node5</title>
<g id="a_Node000005"><a xlink:href="_timed_action_8cpp.html" target="_top" xlink:title=" ">
<polygon fill="white" stroke="#666666" points="618.38,-236 456.12,-236 456.12,-204 618.38,-204 618.38,-236"/>
<text text-anchor="start" x="464.12" y="-222.5" font-family="Helvetica,sans-Serif" font-size="10.00">FIEAGameEngine/src</text>
<text text-anchor="middle" x="537.25" y="-210.5" font-family="Helvetica,sans-Serif" font-size="10.00">/content/actions/TimedAction.cpp</text>
</a>
</g>
</g>
<!-- Node1&#45;&gt;Node5 -->
<g id="edge41_Node000001_Node000005" class="edge">
<title>Node1&#45;&gt;Node5</title>
<g id="a_edge41_Node000001_Node000005"><a xlink:title=" ">
<path fill="none" stroke="#63b8ff" d="M926.24,-355.14C812.57,-353.55 626.4,-344.57 572.25,-304 550.6,-287.78 542.23,-255.58 539.07,-236.4"/>
<polygon fill="#63b8ff" stroke="#63b8ff" points="926.13,-358.64 936.17,-355.26 926.22,-351.64 926.13,-358.64"/>
</a>
</g>
</g>
<!-- Node7 -->
<g id="Node000007" class="node">
<title>Node7</title>
<g id="a_Node000007"><a xlink:href="_service_mgr_test_8cpp.html" target="_top" xlink:title=" ">
<polygon fill="white" stroke="#666666" points="766.25,-230 636.25,-230 636.25,-210 766.25,-210 766.25,-230"/>
<text text-anchor="middle" x="701.25" y="-216.5" font-family="Helvetica,sans-Serif" font-size="10.00">Tests/ServiceMgrTest.cpp</text>
</a>
</g>
</g>
<!-- Node1&#45;&gt;Node7 -->
<g id="edge45_Node000001_Node000007" class="edge">
<title>Node1&#45;&gt;Node7</title>
<g id="a_edge45_Node000001_Node000007"><a xlink:title=" ">
<path fill="none" stroke="#63b8ff" d="M926.21,-350.65C805.67,-343.95 605.63,-329.16 583.25,-304 553.87,-270.97 621.09,-244.03 665.68,-230.48"/>
<polygon fill="#63b8ff" stroke="#63b8ff" points="925.93,-354.14 936.11,-351.19 926.31,-347.15 925.93,-354.14"/>
</a>
</g>
</g>
<!-- Node8 -->
<g id="Node000008" class="node">
<title>Node8</title>
<g id="a_Node000008"><a xlink:href="_content_service_8h.html" target="_top" xlink:title=" ">
<polygon fill="white" stroke="#666666" points="1063.5,-100 887,-100 887,-68 1063.5,-68 1063.5,-100"/>
<text text-anchor="start" x="895" y="-86.5" font-family="Helvetica,sans-Serif" font-size="10.00">FIEAGameEngine/include</text>
<text text-anchor="middle" x="975.25" y="-74.5" font-family="Helvetica,sans-Serif" font-size="10.00">/FIEAGameEngine/ContentService.h</text>
</a>
</g>
</g>
<!-- Node1&#45;&gt;Node8 -->
<g id="edge7_Node000001_Node000008" class="edge">
<title>Node1&#45;&gt;Node8</title>
<g id="a_edge7_Node000001_Node000008"><a xlink:title=" ">
<path fill="none" stroke="#63b8ff" d="M1043.63,-331.85C1059.66,-314.9 1074.82,-291.55 1062.25,-272 1041.38,-239.55 1004.98,-267.89 983.25,-236 954.72,-194.13 964.66,-129.57 971.28,-100.33"/>
<polygon fill="#63b8ff" stroke="#63b8ff" points="1041.52,-329.02 1036.89,-338.55 1046.45,-333.99 1041.52,-329.02"/>
</a>
</g>
</g>
<!-- Node12 -->
<g id="Node000012" class="node">
<title>Node12</title>
<g id="a_Node000012"><a xlink:href="_factory_service_8h.html" target="_top" xlink:title=" ">
<polygon fill="white" stroke="#666666" points="1371.75,-304 1196.75,-304 1196.75,-272 1371.75,-272 1371.75,-304"/>
<text text-anchor="start" x="1204.75" y="-290.5" font-family="Helvetica,sans-Serif" font-size="10.00">FIEAGameEngine/include</text>
<text text-anchor="middle" x="1284.25" y="-278.5" font-family="Helvetica,sans-Serif" font-size="10.00">/FIEAGameEngine/FactoryService.h</text>
</a>
</g>
</g>
<!-- Node1&#45;&gt;Node12 -->
<g id="edge11_Node000001_Node000012" class="edge">
<title>Node1&#45;&gt;Node12</title>
<g id="a_edge11_Node000001_Node000012"><a xlink:title=" ">
<path fill="none" stroke="#63b8ff" d="M1090.88,-336.8C1131.91,-326.66 1182.46,-314.16 1221.58,-304.49"/>
<polygon fill="#63b8ff" stroke="#63b8ff" points="1090.19,-333.37 1081.32,-339.16 1091.87,-340.16 1090.19,-333.37"/>
</a>
</g>
</g>
<!-- Node38 -->
<g id="Node000038" class="node">
<title>Node38</title>
<g id="a_Node000038"><a xlink:href="_attribute_box_tests_8cpp.html" target="_top" xlink:title=" ">
<polygon fill="white" stroke="#666666" points="1835.12,-26 1695.38,-26 1695.38,-6 1835.12,-6 1835.12,-26"/>
<text text-anchor="middle" x="1765.25" y="-12.5" font-family="Helvetica,sans-Serif" font-size="10.00">Tests/AttributeBoxTests.cpp</text>
</a>
</g>
</g>
<!-- Node1&#45;&gt;Node38 -->
<g id="edge42_Node000001_Node000038" class="edge">
<title>Node1&#45;&gt;Node38</title>
<g id="a_edge42_Node000001_Node000038"><a xlink:title=" ">
<path fill="none" stroke="#63b8ff" d="M1107.95,-353.73C1376.23,-348.77 2147.25,-325.44 2147.25,-221 2147.25,-221 2147.25,-221 2147.25,-151 2147.25,-85.11 1942.33,-43.86 1832.66,-26.5"/>
<polygon fill="#63b8ff" stroke="#63b8ff" points="1108.16,-350.22 1098.22,-353.9 1108.28,-357.22 1108.16,-350.22"/>
</a>
</g>
</g>
<!-- Node39 -->
<g id="Node000039" class="node">
<title>Node39</title>
<g id="a_Node000039"><a xlink:href="_attributed_test_8cpp.html" target="_top" xlink:title=" ">
<polygon fill="white" stroke="#666666" points="2124.5,-26 2002,-26 2002,-6 2124.5,-6 2124.5,-26"/>
<text text-anchor="middle" x="2063.25" y="-12.5" font-family="Helvetica,sans-Serif" font-size="10.00">Tests/AttributedTest.cpp</text>
</a>
</g>
</g>
<!-- Node1&#45;&gt;Node39 -->
<g id="edge43_Node000001_Node000039" class="edge">
<title>Node1&#45;&gt;Node39</title>
<g id="a_edge43_Node000001_Node000039"><a xlink:title=" ">
<path fill="none" stroke="#63b8ff" d="M1108.08,-354.85C1320.43,-353.77 1844.24,-346.71 2014.25,-304 2096.18,-283.42 2185.25,-305.48 2185.25,-221 2185.25,-221 2185.25,-221 2185.25,-151 2185.25,-90.44 2116.27,-45.19 2082.05,-26.46"/>
<polygon fill="#63b8ff" stroke="#63b8ff" points="1108.17,-351.35 1098.19,-354.89 1108.21,-358.35 1108.17,-351.35"/>
</a>
</g>
</g>
<!-- Node61 -->
<g id="Node000061" class="node">
<title>Node61</title>
<g id="a_Node000061"><a xlink:href="_memory_service_8h.html" target="_top" xlink:title=" ">
<polygon fill="white" stroke="#666666" points="1776.88,-304 1599.62,-304 1599.62,-272 1776.88,-272 1776.88,-304"/>
<text text-anchor="start" x="1607.62" y="-290.5" font-family="Helvetica,sans-Serif" font-size="10.00">FIEAGameEngine/include</text>
<text text-anchor="middle" x="1688.25" y="-278.5" font-family="Helvetica,sans-Serif" font-size="10.00">/FIEAGameEngine/MemoryService.h</text>
</a>
</g>
</g>
<!-- Node1&#45;&gt;Node61 -->
<g id="edge32_Node000001_Node000061" class="edge">
<title>Node1&#45;&gt;Node61</title>
<g id="a_edge32_Node000001_Node000061"><a xlink:title=" ">
<path fill="none" stroke="#63b8ff" d="M1108.23,-346.05C1237.11,-333.37 1471.33,-310.34 1599.16,-297.76"/>
<polygon fill="#63b8ff" stroke="#63b8ff" points="1107.97,-342.56 1098.36,-347.02 1108.66,-349.53 1107.97,-342.56"/>
</a>
</g>
</g>
<!-- Node62 -->
<g id="Node000062" class="node">
<title>Node62</title>
<g id="a_Node000062"><a xlink:href="_service_mgr_8cpp.html" target="_top" xlink:title=" ">
<polygon fill="white" stroke="#666666" points="1592.88,-236 1481.62,-236 1481.62,-204 1592.88,-204 1592.88,-236"/>
<text text-anchor="start" x="1489.62" y="-222.5" font-family="Helvetica,sans-Serif" font-size="10.00">FIEAGameEngine/src</text>
<text text-anchor="middle" x="1537.25" y="-210.5" font-family="Helvetica,sans-Serif" font-size="10.00">/ServiceMgr.cpp</text>
</a>
</g>
</g>
<!-- Node1&#45;&gt;Node62 -->
<g id="edge38_Node000001_Node000062" class="edge">
<title>Node1&#45;&gt;Node62</title>
<g id="a_edge38_Node000001_Node000062"><a xlink:title=" ">
<path fill="none" stroke="#63b8ff" d="M1108.04,-351.07C1182.9,-345.77 1291.05,-333.3 1381.25,-304 1431.73,-287.6 1485.22,-255.46 1514.61,-236.35"/>
<polygon fill="#63b8ff" stroke="#63b8ff" points="1108.04,-347.57 1098.29,-351.73 1108.51,-354.55 1108.04,-347.57"/>
</a>
</g>
</g>
<!-- Node65 -->
<g id="Node000065" class="node">
<title>Node65</title>
<g id="a_Node000065"><a xlink:href="_memory_service_test_8cpp.html" target="_top" xlink:title=" ">
<polygon fill="white" stroke="#666666" points="2119.62,-230 1970.88,-230 1970.88,-210 2119.62,-210 2119.62,-230"/>
<text text-anchor="middle" x="2045.25" y="-216.5" font-family="Helvetica,sans-Serif" font-size="10.00">Tests/MemoryServiceTest.cpp</text>
</a>
</g>
</g>
<!-- Node1&#45;&gt;Node65 -->
<g id="edge44_Node000001_Node000065" class="edge">
<title>Node1&#45;&gt;Node65</title>
<g id="a_edge44_Node000001_Node000065"><a xlink:title=" ">
<path fill="none" stroke="#63b8ff" d="M1108.24,-351.75C1282.81,-345.05 1658.74,-328.28 1786.25,-304 1876,-286.91 1978.05,-248.23 2022.52,-230.37"/>
<polygon fill="#63b8ff" stroke="#63b8ff" points="1108.16,-348.25 1098.3,-352.13 1108.42,-355.24 1108.16,-348.25"/>
</a>
</g>
</g>
<!-- Node66 -->
<g id="Node000066" class="node">
<title>Node66</title>
<g id="a_Node000066"><a xlink:href="_foo_manager_8cpp.html" target="_top" xlink:title=" ">
<polygon fill="white" stroke="#666666" points="936.5,-230 784,-230 784,-210 936.5,-210 936.5,-230"/>
<text text-anchor="middle" x="860.25" y="-216.5" font-family="Helvetica,sans-Serif" font-size="10.00">Tests/Support/FooManager.cpp</text>
</a>
</g>
</g>
<!-- Node1&#45;&gt;Node66 -->
<g id="edge46_Node000001_Node000066" class="edge">
<title>Node1&#45;&gt;Node66</title>
<g id="a_edge46_Node000001_Node000066"><a xlink:title=" ">
<path fill="none" stroke="#63b8ff" d="M1036.81,-330.41C1048.32,-312.75 1058.31,-289.15 1045.25,-272 1036.65,-260.7 957.44,-241.83 905.49,-230.49"/>
<polygon fill="#63b8ff" stroke="#63b8ff" points="1034.16,-328.1 1031.26,-338.29 1039.88,-332.13 1034.16,-328.1"/>
</a>
</g>
</g>
<!-- Node67 -->
<g id="Node000067" class="node">
<title>Node67</title>
<g id="a_Node000067"><a xlink:href="_foo_manager_8h.html" target="_top" xlink:title=" ">
<polygon fill="white" stroke="#666666" points="734.25,-298 592.25,-298 592.25,-278 734.25,-278 734.25,-298"/>
<text text-anchor="middle" x="663.25" y="-284.5" font-family="Helvetica,sans-Serif" font-size="10.00">Tests/Support/FooManager.h</text>
</a>
</g>
</g>
<!-- Node1&#45;&gt;Node67 -->
<g id="edge47_Node000001_Node000067" class="edge">
<title>Node1&#45;&gt;Node67</title>
<g id="a_edge47_Node000001_Node000067"><a xlink:title=" ">
<path fill="none" stroke="#63b8ff" d="M926.37,-338.12C873.03,-328.2 804.31,-315.41 743.25,-304 733.67,-302.21 723.44,-300.29 713.61,-298.45"/>
<polygon fill="#63b8ff" stroke="#63b8ff" points="925.55,-341.52 936.03,-339.91 926.83,-334.64 925.55,-341.52"/>
</a>
</g>
</g>
<!-- Node68 -->
<g id="Node000068" class="node">
<title>Node68</title>
<g id="a_Node000068"><a xlink:href="_i_foo_maker_8h.html" target="_top" xlink:title=" ">
<polygon fill="white" stroke="#666666" points="886.5,-298 752,-298 752,-278 886.5,-278 886.5,-298"/>
<text text-anchor="middle" x="819.25" y="-284.5" font-family="Helvetica,sans-Serif" font-size="10.00">Tests/Support/IFooMaker.h</text>
</a>
</g>
</g>
<!-- Node1&#45;&gt;Node68 -->
<g id="edge50_Node000001_Node000068" class="edge">
<title>Node1&#45;&gt;Node68</title>
<g id="a_edge50_Node000001_Node000068"><a xlink:title=" ">
<path fill="none" stroke="#63b8ff" d="M960.21,-335.99C923.32,-323.69 876.89,-308.21 847.63,-298.46"/>
<polygon fill="#63b8ff" stroke="#63b8ff" points="958.8,-339.21 969.39,-339.05 961.01,-332.56 958.8,-339.21"/>
</a>
</g>
</g>
<!-- Node69 -->
<g id="Node000069" class="node">
<title>Node69</title>
<g id="a_Node000069"><a xlink:href="_i_foo_taker_8h.html" target="_top" xlink:title=" ">
<polygon fill="white" stroke="#666666" points="1036,-298 904.5,-298 904.5,-278 1036,-278 1036,-298"/>
<text text-anchor="middle" x="970.25" y="-284.5" font-family="Helvetica,sans-Serif" font-size="10.00">Tests/Support/IFooTaker.h</text>
</a>
</g>
</g>
<!-- Node1&#45;&gt;Node69 -->
<g id="edge53_Node000001_Node000069" class="edge">
<title>Node1&#45;&gt;Node69</title>
<g id="a_edge53_Node000001_Node000069"><a xlink:title=" ">
<path fill="none" stroke="#63b8ff" d="M999.7,-330.36C991.74,-319.18 982.8,-306.63 976.88,-298.32"/>
<polygon fill="#63b8ff" stroke="#63b8ff" points="996.82,-332.34 1005.47,-338.46 1002.52,-328.28 996.82,-332.34"/>
</a>
</g>
</g>
<!-- Node2&#45;&gt;Node3 -->
<g id="edge2_Node000002_Node000003" class="edge">
<title>Node2&#45;&gt;Node3</title>
<g id="a_edge2_Node000002_Node000003"><a xlink:title=" ">
<path fill="none" stroke="#63b8ff" d="M300.95,-269.37C250.63,-259.74 187.49,-247.48 131.25,-236 128.45,-235.43 125.59,-234.84 122.7,-234.24"/>
<polygon fill="#63b8ff" stroke="#63b8ff" points="300.17,-272.78 310.65,-271.22 301.48,-265.91 300.17,-272.78"/>
</a>
</g>
</g>
<!-- Node2&#45;&gt;Node4 -->
<g id="edge3_Node000002_Node000004" class="edge">
<title>Node2&#45;&gt;Node4</title>
<g id="a_edge3_Node000002_Node000004"><a xlink:title=" ">
<path fill="none" stroke="#63b8ff" d="M344.42,-267.42C319.27,-257.54 289.2,-245.73 265.68,-236.49"/>
<polygon fill="#63b8ff" stroke="#63b8ff" points="342.87,-270.57 353.45,-270.97 345.43,-264.06 342.87,-270.57"/>
</a>
</g>
</g>
<!-- Node2&#45;&gt;Node5 -->
<g id="edge4_Node000002_Node000005" class="edge">
<title>Node2&#45;&gt;Node5</title>
<g id="a_edge4_Node000002_Node000005"><a xlink:title=" ">
<path fill="none" stroke="#63b8ff" d="M438.14,-266.74C459.33,-256.96 484.34,-245.42 503.93,-236.38"/>
<polygon fill="#63b8ff" stroke="#63b8ff" points="436.76,-263.52 429.15,-270.89 439.7,-269.88 436.76,-263.52"/>
</a>
</g>
</g>
<!-- Node6 -->
<g id="Node000006" class="node">
<title>Node6</title>
<g id="a_Node000006"><a xlink:href="_action_test_8cpp.html" target="_top" xlink:title=" ">
<polygon fill="white" stroke="#666666" points="438.38,-230 330.12,-230 330.12,-210 438.38,-210 438.38,-230"/>
<text text-anchor="middle" x="384.25" y="-216.5" font-family="Helvetica,sans-Serif" font-size="10.00">Tests/ActionTest.cpp</text>
</a>
</g>
</g>
<!-- Node2&#45;&gt;Node6 -->
<g id="edge5_Node000002_Node000006" class="edge">
<title>Node2&#45;&gt;Node6</title>
<g id="a_edge5_Node000002_Node000006"><a xlink:title=" ">
<path fill="none" stroke="#63b8ff" d="M390.21,-260.31C388.59,-249.67 386.84,-238.13 385.66,-230.32"/>
<polygon fill="#63b8ff" stroke="#63b8ff" points="386.75,-260.83 391.7,-270.2 393.67,-259.78 386.75,-260.83"/>
</a>
</g>
</g>
<!-- Node2&#45;&gt;Node7 -->
<g id="edge6_Node000002_Node000007" class="edge">
<title>Node2&#45;&gt;Node7</title>
<g id="a_edge6_Node000002_Node000007"><a xlink:title=" ">
<path fill="none" stroke="#63b8ff" d="M477.22,-269.16C535.23,-256.69 610.42,-240.53 657.25,-230.46"/>
<polygon fill="#63b8ff" stroke="#63b8ff" points="476.75,-265.68 467.71,-271.21 478.22,-272.53 476.75,-265.68"/>
</a>
</g>
</g>
<!-- Node9 -->
<g id="Node000009" class="node">
<title>Node9</title>
<g id="a_Node000009"><a xlink:href="_attributed_8cpp.html" target="_top" xlink:title=" ">
<polygon fill="white" stroke="#666666" points="1148.75,-32 1033.75,-32 1033.75,0 1148.75,0 1148.75,-32"/>
<text text-anchor="start" x="1041.75" y="-18.5" font-family="Helvetica,sans-Serif" font-size="10.00">FIEAGameEngine/src</text>
<text text-anchor="middle" x="1091.25" y="-6.5" font-family="Helvetica,sans-Serif" font-size="10.00">/content/Attributed.cpp</text>
</a>
</g>
</g>
<!-- Node8&#45;&gt;Node9 -->
<g id="edge8_Node000008_Node000009" class="edge">
<title>Node8&#45;&gt;Node9</title>
<g id="a_edge8_Node000008_Node000009"><a xlink:title=" ">
<path fill="none" stroke="#63b8ff" d="M1012.04,-62.07C1028.97,-52.44 1048.69,-41.21 1064.22,-32.38"/>
<polygon fill="#63b8ff" stroke="#63b8ff" points="1010.72,-58.79 1003.76,-66.78 1014.18,-64.87 1010.72,-58.79"/>
</a>
</g>
</g>
<!-- Node10 -->
<g id="Node000010" class="node">
<title>Node10</title>
<g id="a_Node000010"><a xlink:href="_content_service_8cpp.html" target="_top" xlink:title=" ">
<polygon fill="white" stroke="#666666" points="1015.5,-32 875,-32 875,0 1015.5,0 1015.5,-32"/>
<text text-anchor="start" x="883" y="-18.5" font-family="Helvetica,sans-Serif" font-size="10.00">FIEAGameEngine/src</text>
<text text-anchor="middle" x="945.25" y="-6.5" font-family="Helvetica,sans-Serif" font-size="10.00">/content/ContentService.cpp</text>
</a>
</g>
</g>
<!-- Node8&#45;&gt;Node10 -->
<g id="edge9_Node000008_Node000010" class="edge">
<title>Node8&#45;&gt;Node10</title>
<g id="a_edge9_Node000008_Node000010"><a xlink:title=" ">
<path fill="none" stroke="#63b8ff" d="M963.64,-57.45C959.76,-48.93 955.57,-39.71 952.17,-32.22"/>
<polygon fill="#63b8ff" stroke="#63b8ff" points="960.34,-58.66 967.67,-66.31 966.71,-55.76 960.34,-58.66"/>
</a>
</g>
</g>
<!-- Node11 -->
<g id="Node000011" class="node">
<title>Node11</title>
<g id="a_Node000011"><a xlink:href="_serialization_tests_8cpp.html" target="_top" xlink:title=" ">
<polygon fill="white" stroke="#666666" points="1379.75,-26 1240.75,-26 1240.75,-6 1379.75,-6 1379.75,-26"/>
<text text-anchor="middle" x="1310.25" y="-12.5" font-family="Helvetica,sans-Serif" font-size="10.00">Tests/SerializationTests.cpp</text>
</a>
</g>
</g>
<!-- Node8&#45;&gt;Node11 -->
<g id="edge10_Node000008_Node000011" class="edge">
<title>Node8&#45;&gt;Node11</title>
<g id="a_edge10_Node000008_Node000011"><a xlink:title=" ">
<path fill="none" stroke="#63b8ff" d="M1065,-65.32C1128.41,-52.83 1210.92,-36.57 1262.23,-26.46"/>
<polygon fill="#63b8ff" stroke="#63b8ff" points="1064.41,-61.87 1055.28,-67.23 1065.77,-68.73 1064.41,-61.87"/>
</a>
</g>
</g>
<!-- Node12&#45;&gt;Node11 -->
<g id="edge29_Node000012_Node000011" class="edge">
<title>Node12&#45;&gt;Node11</title>
<g id="a_edge29_Node000012_Node000011"><a xlink:title=" ">
<path fill="none" stroke="#63b8ff" d="M1331.17,-267.12C1398.33,-238.2 1515.03,-186.01 1526.25,-168 1572.8,-93.23 1427.21,-45.53 1352.12,-26.46"/>
<polygon fill="#63b8ff" stroke="#63b8ff" points="1330.05,-263.79 1322.24,-270.95 1332.81,-270.23 1330.05,-263.79"/>
</a>
</g>
</g>
<!-- Node13 -->
<g id="Node000013" class="node">
<title>Node13</title>
<g id="a_Node000013"><a xlink:href="_scope_8h.html" target="_top" xlink:title=" ">
<polygon fill="#fff0f0" stroke="red" points="1302.5,-236 1174,-236 1174,-204 1302.5,-204 1302.5,-236"/>
<text text-anchor="start" x="1182" y="-222.5" font-family="Helvetica,sans-Serif" font-size="10.00">FIEAGameEngine/include</text>
<text text-anchor="middle" x="1238.25" y="-210.5" font-family="Helvetica,sans-Serif" font-size="10.00">/Content/Scope.h</text>
</a>
</g>
</g>
<!-- Node12&#45;&gt;Node13 -->
<g id="edge12_Node000012_Node000013" class="edge">
<title>Node12&#45;&gt;Node13</title>
<g id="a_edge12_Node000012_Node000013"><a xlink:title=" ">
<path fill="none" stroke="#63b8ff" d="M1267.04,-262.3C1260.94,-253.55 1254.25,-243.96 1248.86,-236.22"/>
<polygon fill="#63b8ff" stroke="#63b8ff" points="1264.13,-264.25 1272.72,-270.45 1269.87,-260.25 1264.13,-264.25"/>
</a>
</g>
</g>
<!-- Node37 -->
<g id="Node000037" class="node">
<title>Node37</title>
<g id="a_Node000037"><a xlink:href="_attribute_box_8h.html" target="_top" xlink:title=" ">
<polygon fill="#fff0f0" stroke="red" points="1264.25,-94 1122.25,-94 1122.25,-74 1264.25,-74 1264.25,-94"/>
<text text-anchor="middle" x="1193.25" y="-80.5" font-family="Helvetica,sans-Serif" font-size="10.00">Tests/Support/AttributeBox.h</text>
</a>
</g>
</g>
<!-- Node12&#45;&gt;Node37 -->
<g id="edge30_Node000012_Node000037" class="edge">
<title>Node12&#45;&gt;Node37</title>
<g id="a_edge30_Node000012_Node000037"><a xlink:title=" ">
<path fill="none" stroke="#63b8ff" d="M1202.19,-266.87C1187.59,-259.54 1174.2,-249.57 1165.25,-236 1134.87,-189.92 1171.93,-119.63 1187.23,-94.41"/>
<polygon fill="#63b8ff" stroke="#63b8ff" points="1200.53,-269.96 1211.08,-270.9 1203.42,-263.58 1200.53,-269.96"/>
</a>
</g>
</g>
<!-- Node43 -->
<g id="Node000043" class="node">
<title>Node43</title>
<g id="a_Node000043"><a xlink:href="_factory_service_8cpp.html" target="_top" xlink:title=" ">
<polygon fill="white" stroke="#666666" points="1516.88,-168 1405.62,-168 1405.62,-136 1516.88,-136 1516.88,-168"/>
<text text-anchor="start" x="1413.62" y="-154.5" font-family="Helvetica,sans-Serif" font-size="10.00">FIEAGameEngine/src</text>
<text text-anchor="middle" x="1461.25" y="-142.5" font-family="Helvetica,sans-Serif" font-size="10.00">/FactoryService.cpp</text>
</a>
</g>
</g>
<!-- Node12&#45;&gt;Node43 -->
<g id="edge26_Node000012_Node000043" class="edge">
<title>Node12&#45;&gt;Node43</title>
<g id="a_edge26_Node000012_Node000043"><a xlink:title=" ">
<path fill="none" stroke="#63b8ff" d="M1313.59,-264.79C1349.57,-237.55 1409.63,-192.08 1440.91,-168.4"/>
<polygon fill="#63b8ff" stroke="#63b8ff" points="1311.62,-261.89 1305.76,-270.71 1315.85,-267.47 1311.62,-261.89"/>
</a>
</g>
</g>
<!-- Node33 -->
<g id="Node000033" class="node">
<title>Node33</title>
<g id="a_Node000033"><a xlink:href="_factory_tests_8cpp.html" target="_top" xlink:title=" ">
<polygon fill="white" stroke="#666666" points="1456.62,-94 1337.88,-94 1337.88,-74 1456.62,-74 1456.62,-94"/>
<text text-anchor="middle" x="1397.25" y="-80.5" font-family="Helvetica,sans-Serif" font-size="10.00">Tests/FactoryTests.cpp</text>
</a>
</g>
</g>
<!-- Node12&#45;&gt;Node33 -->
<g id="edge28_Node000012_Node000033" class="edge">
<title>Node12&#45;&gt;Node33</title>
<g id="a_edge28_Node000012_Node000033"><a xlink:title=" ">
<path fill="none" stroke="#63b8ff" d="M1331.17,-267.12C1398.33,-238.2 1515.03,-186.01 1526.25,-168 1533.77,-155.93 1534.25,-147.76 1526.25,-136 1510.61,-113 1482.82,-100.37 1457.04,-93.44"/>
<polygon fill="#63b8ff" stroke="#63b8ff" points="1330.05,-263.79 1322.24,-270.95 1332.81,-270.23 1330.05,-263.79"/>
</a>
</g>
</g>
<!-- Node59 -->
<g id="Node000059" class="node">
<title>Node59</title>
<g id="a_Node000059"><a xlink:href="_scoped_foo_8h.html" target="_top" xlink:title=" ">
<polygon fill="#fff0f0" stroke="red" points="1388,-162 1250.5,-162 1250.5,-142 1388,-142 1388,-162"/>
<text text-anchor="middle" x="1319.25" y="-148.5" font-family="Helvetica,sans-Serif" font-size="10.00">Tests/Support/ScopedFoo.h</text>
</a>
</g>
</g>
<!-- Node12&#45;&gt;Node59 -->
<g id="edge31_Node000012_Node000059" class="edge">
<title>Node12&#45;&gt;Node59</title>
<g id="a_edge31_Node000012_Node000059"><a xlink:title=" ">
<path fill="none" stroke="#63b8ff" d="M1300.06,-261.84C1304.39,-253.85 1308.61,-244.81 1311.25,-236 1318.99,-210.21 1319.7,-178.08 1319.52,-162.44"/>
<polygon fill="#63b8ff" stroke="#63b8ff" points="1297.15,-259.89 1295.2,-270.3 1303.22,-263.38 1297.15,-259.89"/>
</a>
</g>
</g>
<!-- Node52 -->
<g id="Node000052" class="node">
<title>Node52</title>
<g id="a_Node000052"><a xlink:href="_scope_writer_8cpp.html" target="_top" xlink:title=" ">
<polygon fill="white" stroke="#666666" points="1118.38,-236 992.12,-236 992.12,-204 1118.38,-204 1118.38,-236"/>
<text text-anchor="start" x="1000.12" y="-222.5" font-family="Helvetica,sans-Serif" font-size="10.00">FIEAGameEngine/src</text>
<text text-anchor="middle" x="1055.25" y="-210.5" font-family="Helvetica,sans-Serif" font-size="10.00">/content/ScopeWriter.cpp</text>
</a>
</g>
</g>
<!-- Node12&#45;&gt;Node52 -->
<g id="edge27_Node000012_Node000052" class="edge">
<title>Node12&#45;&gt;Node52</title>
<g id="a_edge27_Node000012_Node000052"><a xlink:title=" ">
<path fill="none" stroke="#63b8ff" d="M1219.52,-268.34C1184.62,-258.28 1142.05,-246.02 1109,-236.49"/>
<polygon fill="#63b8ff" stroke="#63b8ff" points="1218.53,-271.7 1229.11,-271.11 1220.47,-264.97 1218.53,-271.7"/>
</a>
</g>
</g>
<!-- Node14 -->
<g id="Node000014" class="node">
<title>Node14</title>
<g id="a_Node000014"><a xlink:href="_attributed_8h.html" target="_top" xlink:title=" ">
<polygon fill="#fff0f0" stroke="red" points="1118.5,-168 990,-168 990,-136 1118.5,-136 1118.5,-168"/>
<text text-anchor="start" x="998" y="-154.5" font-family="Helvetica,sans-Serif" font-size="10.00">FIEAGameEngine/include</text>
<text text-anchor="middle" x="1054.25" y="-142.5" font-family="Helvetica,sans-Serif" font-size="10.00">/Content/Attributed.h</text>
</a>
</g>
</g>
<!-- Node13&#45;&gt;Node14 -->
<g id="edge13_Node000013_Node000014" class="edge">
<title>Node13&#45;&gt;Node14</title>
<g id="a_edge13_Node000013_Node000014"><a xlink:title=" ">
<path fill="none" stroke="#63b8ff" d="M1184.41,-199.69C1156.72,-189.76 1123.42,-177.81 1097.44,-168.49"/>
<polygon fill="#63b8ff" stroke="#63b8ff" points="1183.09,-202.93 1193.69,-203.01 1185.45,-196.34 1183.09,-202.93"/>
</a>
</g>
</g>
<!-- Node13&#45;&gt;Node37 -->
<g id="edge22_Node000013_Node000037" class="edge">
<title>Node13&#45;&gt;Node37</title>
<g id="a_edge22_Node000013_Node000037"><a xlink:title=" ">
<path fill="none" stroke="#63b8ff" d="M1221.26,-194.15C1216.42,-186.1 1211.57,-176.94 1208.25,-168 1198.78,-142.46 1195.15,-110.22 1193.88,-94.5"/>
<polygon fill="#63b8ff" stroke="#63b8ff" points="1218.16,-195.79 1226.46,-202.36 1224.07,-192.04 1218.16,-195.79"/>
</a>
</g>
</g>
<!-- Node13&#45;&gt;Node43 -->
<g id="edge20_Node000013_Node000043" class="edge">
<title>Node13&#45;&gt;Node43</title>
<g id="a_edge20_Node000013_Node000043"><a xlink:title=" ">
<path fill="none" stroke="#63b8ff" d="M1301.29,-200.34C1335.27,-190.28 1376.72,-178.02 1408.91,-168.49"/>
<polygon fill="#63b8ff" stroke="#63b8ff" points="1300.58,-196.9 1291.98,-203.1 1302.57,-203.61 1300.58,-196.9"/>
</a>
</g>
</g>
<!-- Node13&#45;&gt;Node33 -->
<g id="edge21_Node000013_Node000033" class="edge">
<title>Node13&#45;&gt;Node33</title>
<g id="a_edge21_Node000013_Node000033"><a xlink:title=" ">
<path fill="none" stroke="#63b8ff" d="M1231.91,-192.22C1229.34,-174.54 1229.34,-151.82 1241.25,-136 1263.62,-106.3 1303.72,-93.62 1337.66,-88.34"/>
<polygon fill="#63b8ff" stroke="#63b8ff" points="1228.46,-192.81 1233.7,-202.01 1235.34,-191.55 1228.46,-192.81"/>
</a>
</g>
</g>
<!-- Node13&#45;&gt;Node59 -->
<g id="edge23_Node000013_Node000059" class="edge">
<title>Node13&#45;&gt;Node59</title>
<g id="a_edge23_Node000013_Node000059"><a xlink:title=" ">
<path fill="none" stroke="#63b8ff" d="M1265.61,-196.71C1280.01,-184.98 1296.89,-171.22 1307.82,-162.32"/>
<polygon fill="#63b8ff" stroke="#63b8ff" points="1263.75,-193.71 1258.21,-202.74 1268.17,-199.13 1263.75,-193.71"/>
</a>
</g>
</g>
<!-- Node14&#45;&gt;Node8 -->
<g id="edge14_Node000014_Node000008" class="edge">
<title>Node14&#45;&gt;Node8</title>
<g id="a_edge14_Node000014_Node000008"><a xlink:title=" ">
<path fill="none" stroke="#63b8ff" d="M1027.11,-128.32C1016.1,-119.13 1003.68,-108.75 993.75,-100.45"/>
<polygon fill="#63b8ff" stroke="#63b8ff" points="1024.85,-131 1034.77,-134.72 1029.34,-125.62 1024.85,-131"/>
</a>
</g>
</g>
<!-- Node14&#45;&gt;Node9 -->
<g id="edge15_Node000014_Node000009" class="edge">
<title>Node14&#45;&gt;Node9</title>
<g id="a_edge15_Node000014_Node000009"><a xlink:title=" ">
<path fill="none" stroke="#63b8ff" d="M1064.17,-124.72C1066.97,-116.84 1069.9,-108.12 1072.25,-100 1079,-76.72 1084.9,-49.2 1088.27,-32.43"/>
<polygon fill="#63b8ff" stroke="#63b8ff" points="1060.89,-123.51 1060.75,-134.1 1067.46,-125.91 1060.89,-123.51"/>
</a>
</g>
</g>
<!-- Node14&#45;&gt;Node37 -->
<g id="edge16_Node000014_Node000037" class="edge">
<title>Node14&#45;&gt;Node37</title>
<g id="a_edge16_Node000014_Node000037"><a xlink:title=" ">
<path fill="none" stroke="#63b8ff" d="M1096.99,-130.71C1122.42,-118.63 1153.49,-103.88 1173.33,-94.46"/>
<polygon fill="#63b8ff" stroke="#63b8ff" points="1095.74,-127.43 1088.21,-134.88 1098.74,-133.75 1095.74,-127.43"/>
</a>
</g>
</g>
<!-- Node37&#45;&gt;Node11 -->
<g id="edge19_Node000037_Node000011" class="edge">
<title>Node37&#45;&gt;Node11</title>
<g id="a_edge19_Node000037_Node000011"><a xlink:title=" ">
<path fill="none" stroke="#63b8ff" d="M1219.99,-67.91C1242.61,-55.15 1274.33,-37.26 1293.52,-26.44"/>
<polygon fill="#63b8ff" stroke="#63b8ff" points="1218.32,-64.84 1211.33,-72.8 1221.76,-70.94 1218.32,-64.84"/>
</a>
</g>
</g>
<!-- Node37&#45;&gt;Node38 -->
<g id="edge17_Node000037_Node000038" class="edge">
<title>Node37&#45;&gt;Node38</title>
<g id="a_edge17_Node000037_Node000038"><a xlink:title=" ">
<path fill="none" stroke="#63b8ff" d="M1275.86,-73.47C1388.79,-60.44 1589.41,-37.29 1695.31,-25.07"/>
<polygon fill="#63b8ff" stroke="#63b8ff" points="1275.57,-69.98 1266.04,-74.6 1276.38,-76.93 1275.57,-69.98"/>
</a>
</g>
</g>
<!-- Node37&#45;&gt;Node39 -->
<g id="edge18_Node000037_Node000039" class="edge">
<title>Node37&#45;&gt;Node39</title>
<g id="a_edge18_Node000037_Node000039"><a xlink:title=" ">
<path fill="none" stroke="#63b8ff" d="M1275.9,-73.34C1293.5,-71.44 1311.98,-69.55 1329.25,-68 1362.51,-65.01 1831.24,-32.87 2001.78,-21.2"/>
<polygon fill="#63b8ff" stroke="#63b8ff" points="1275.55,-69.86 1265.99,-74.43 1276.31,-76.82 1275.55,-69.86"/>
</a>
</g>
</g>
<!-- Node59&#45;&gt;Node11 -->
<g id="edge25_Node000059_Node000011" class="edge">
<title>Node59&#45;&gt;Node11</title>
<g id="a_edge25_Node000059_Node000011"><a xlink:title=" ">
<path fill="none" stroke="#63b8ff" d="M1317.87,-130.41C1315.88,-100.87 1312.31,-47.66 1310.87,-26.27"/>
<polygon fill="#63b8ff" stroke="#63b8ff" points="1314.37,-130.54 1318.53,-140.28 1321.35,-130.07 1314.37,-130.54"/>
</a>
</g>
</g>
<!-- Node59&#45;&gt;Node33 -->
<g id="edge24_Node000059_Node000033" class="edge">
<title>Node59&#45;&gt;Node33</title>
<g id="a_edge24_Node000059_Node000033"><a xlink:title=" ">
<path fill="none" stroke="#63b8ff" d="M1338.95,-134.33C1353.87,-121.71 1373.82,-104.82 1386.1,-94.44"/>
<polygon fill="#63b8ff" stroke="#63b8ff" points="1336.95,-131.43 1331.58,-140.57 1341.48,-136.78 1336.95,-131.43"/>
</a>
</g>
</g>
<!-- Node61&#45;&gt;Node11 -->
<g id="edge37_Node000061_Node000011" class="edge">
<title>Node61&#45;&gt;Node11</title>
<g id="a_edge37_Node000061_Node000011"><a xlink:title=" ">
<path fill="none" stroke="#63b8ff" d="M1665.46,-263.66C1657.33,-255.11 1648.22,-245.26 1640.25,-236 1578.31,-164.02 1587.76,-119.92 1508.25,-68 1470.06,-43.06 1420.32,-30.31 1380.25,-23.79"/>
<polygon fill="#63b8ff" stroke="#63b8ff" points="1662.68,-265.82 1672.13,-270.61 1667.73,-260.98 1662.68,-265.82"/>
</a>
</g>
</g>
<!-- Node61&#45;&gt;Node62 -->
<g id="edge33_Node000061_Node000062" class="edge">
<title>Node61&#45;&gt;Node62</title>
<g id="a_edge33_Node000061_Node000062"><a xlink:title=" ">
<path fill="none" stroke="#63b8ff" d="M1642.55,-267.03C1620.13,-257.23 1593.54,-245.61 1572.69,-236.49"/>
<polygon fill="#63b8ff" stroke="#63b8ff" points="1640.9,-270.12 1651.46,-270.92 1643.7,-263.71 1640.9,-270.12"/>
</a>
</g>
</g>
<!-- Node63 -->
<g id="Node000063" class="node">
<title>Node63</title>
<g id="a_Node000063"><a xlink:href="_memory_service_8cpp.html" target="_top" xlink:title=" ">
<polygon fill="white" stroke="#666666" points="1793.38,-236 1649.12,-236 1649.12,-204 1793.38,-204 1793.38,-236"/>
<text text-anchor="start" x="1657.12" y="-222.5" font-family="Helvetica,sans-Serif" font-size="10.00">FIEAGameEngine/src</text>
<text text-anchor="middle" x="1721.25" y="-210.5" font-family="Helvetica,sans-Serif" font-size="10.00">/memory/MemoryService.cpp</text>
</a>
</g>
</g>
<!-- Node61&#45;&gt;Node63 -->
<g id="edge34_Node000061_Node000063" class="edge">
<title>Node61&#45;&gt;Node63</title>
<g id="a_edge34_Node000061_Node000063"><a xlink:title=" ">
<path fill="none" stroke="#63b8ff" d="M1701.02,-261.45C1705.28,-252.93 1709.9,-243.71 1713.64,-236.22"/>
<polygon fill="#63b8ff" stroke="#63b8ff" points="1697.92,-259.83 1696.58,-270.34 1704.18,-262.96 1697.92,-259.83"/>
</a>
</g>
</g>
<!-- Node64 -->
<g id="Node000064" class="node">
<title>Node64</title>
<g id="a_Node000064"><a xlink:href="_heap_allocator_test_8cpp.html" target="_top" xlink:title=" ">
<polygon fill="white" stroke="#666666" points="1953.25,-230 1811.25,-230 1811.25,-210 1953.25,-210 1953.25,-230"/>
<text text-anchor="middle" x="1882.25" y="-216.5" font-family="Helvetica,sans-Serif" font-size="10.00">Tests/HeapAllocatorTest.cpp</text>
</a>
</g>
</g>
<!-- Node61&#45;&gt;Node64 -->
<g id="edge35_Node000061_Node000064" class="edge">
<title>Node61&#45;&gt;Node64</title>
<g id="a_edge35_Node000061_Node000064"><a xlink:title=" ">
<path fill="none" stroke="#63b8ff" d="M1744.61,-267.83C1780.67,-255.56 1825.9,-240.17 1854.44,-230.46"/>
<polygon fill="#63b8ff" stroke="#63b8ff" points="1743.51,-264.5 1735.17,-271.04 1745.76,-271.13 1743.51,-264.5"/>
</a>
</g>
</g>
<!-- Node61&#45;&gt;Node65 -->
<g id="edge36_Node000061_Node000065" class="edge">
<title>Node61&#45;&gt;Node65</title>
<g id="a_edge36_Node000061_Node000065"><a xlink:title=" ">
<path fill="none" stroke="#63b8ff" d="M1783.05,-269.47C1850.74,-256.96 1939.17,-240.61 1994.08,-230.46"/>
<polygon fill="#63b8ff" stroke="#63b8ff" points="1782.64,-265.99 1773.44,-271.25 1783.91,-272.87 1782.64,-265.99"/>
</a>
</g>
</g>
<!-- Node67&#45;&gt;Node7 -->
<g id="edge48_Node000067_Node000007" class="edge">
<title>Node67&#45;&gt;Node7</title>
<g id="a_edge48_Node000067_Node000007"><a xlink:title=" ">
<path fill="none" stroke="#63b8ff" d="M674.32,-267.78C681.38,-255.51 690.23,-240.14 695.82,-230.44"/>
<polygon fill="#63b8ff" stroke="#63b8ff" points="671.41,-265.82 669.45,-276.23 677.47,-269.31 671.41,-265.82"/>
</a>
</g>
</g>
<!-- Node67&#45;&gt;Node66 -->
<g id="edge49_Node000067_Node000066" class="edge">
<title>Node67&#45;&gt;Node66</title>
<g id="a_edge49_Node000067_Node000066"><a xlink:title=" ">
<path fill="none" stroke="#63b8ff" d="M702.21,-273.95C740.51,-261.12 798.02,-241.85 832.08,-230.44"/>
<polygon fill="#63b8ff" stroke="#63b8ff" points="701.28,-270.57 692.91,-277.06 703.5,-277.2 701.28,-270.57"/>
</a>
</g>
</g>
<!-- Node68&#45;&gt;Node7 -->
<g id="edge51_Node000068_Node000007" class="edge">
<title>Node68&#45;&gt;Node7</title>
<g id="a_edge51_Node000068_Node000007"><a xlink:title=" ">
<path fill="none" stroke="#63b8ff" d="M792.59,-272.09C769.75,-259.32 737.56,-241.31 718.13,-230.44"/>
<polygon fill="#63b8ff" stroke="#63b8ff" points="790.59,-274.98 801.02,-276.8 794,-268.87 790.59,-274.98"/>
</a>
</g>
</g>
<!-- Node68&#45;&gt;Node66 -->
<g id="edge52_Node000068_Node000066" class="edge">
<title>Node68&#45;&gt;Node66</title>
<g id="a_edge52_Node000068_Node000066"><a xlink:title=" ">
<path fill="none" stroke="#63b8ff" d="M831.19,-267.78C838.81,-255.51 848.36,-240.14 854.39,-230.44"/>
<polygon fill="#63b8ff" stroke="#63b8ff" points="828.23,-265.92 825.92,-276.26 834.17,-269.61 828.23,-265.92"/>
</a>
</g>
</g>
<!-- Node69&#45;&gt;Node7 -->
<g id="edge54_Node000069_Node000007" class="edge">
<title>Node69&#45;&gt;Node7</title>
<g id="a_edge54_Node000069_Node000007"><a xlink:title=" ">
<path fill="none" stroke="#63b8ff" d="M920.71,-274.84C868.48,-262.03 787.33,-242.12 739.72,-230.44"/>
<polygon fill="#63b8ff" stroke="#63b8ff" points="919.69,-278.2 930.24,-277.18 921.36,-271.4 919.69,-278.2"/>
</a>
</g>
</g>
<!-- Node69&#45;&gt;Node66 -->
<g id="edge55_Node000069_Node000066" class="edge">
<title>Node69&#45;&gt;Node66</title>
<g id="a_edge55_Node000069_Node000066"><a xlink:title=" ">
<path fill="none" stroke="#63b8ff" d="M944.82,-271.74C923.57,-258.99 893.94,-241.21 875.98,-230.44"/>
<polygon fill="#63b8ff" stroke="#63b8ff" points="942.82,-274.62 953.19,-276.77 946.42,-268.62 942.82,-274.62"/>
</a>
</g>
</g>
</g>
</svg>
