<?xml version="1.0" encoding="UTF-8" standalone="no"?>
<!DOCTYPE svg PUBLIC "-//W3C//DTD SVG 1.1//EN"
 "http://www.w3.org/Graphics/SVG/1.1/DTD/svg11.dtd">
<!-- Generated by graphviz version 12.2.1 (20241206.2353)
 -->
<!-- Title: FIEAGameEngine/src/ServiceMgr.cpp Pages: 1 -->
<svg width="645pt" height="264pt"
 viewBox="0.00 0.00 645.25 264.00" xmlns="http://www.w3.org/2000/svg" xmlns:xlink="http://www.w3.org/1999/xlink">
<g id="graph0" class="graph" transform="scale(1 1) rotate(0) translate(4 260)">
<title>FIEAGameEngine/src/ServiceMgr.cpp</title>
<!-- Node1 -->
<g id="Node000001" class="node">
<title>Node1</title>
<g id="a_Node000001"><a xlink:title=" ">
<polygon fill="#999999" stroke="#666666" points="407.88,-256 296.62,-256 296.62,-224 407.88,-224 407.88,-256"/>
<text text-anchor="start" x="304.62" y="-242.5" font-family="Helvetica,sans-Serif" font-size="10.00">FIEAGameEngine/src</text>
<text text-anchor="middle" x="352.25" y="-230.5" font-family="Helvetica,sans-Serif" font-size="10.00">/ServiceMgr.cpp</text>
</a>
</g>
</g>
<!-- Node2 -->
<g id="Node000002" class="node">
<title>Node2</title>
<g id="a_Node000002"><a xlink:href="_types_8h.html" target="_top" xlink:title=" ">
<polygon fill="white" stroke="#666666" points="328.38,-76 196.12,-76 196.12,-56 328.38,-56 328.38,-76"/>
<text text-anchor="middle" x="262.25" y="-62.5" font-family="Helvetica,sans-Serif" font-size="10.00">FIEAGameEngine/Types.h</text>
</a>
</g>
</g>
<!-- Node1&#45;&gt;Node2 -->
<g id="edge1_Node000001_Node000002" class="edge">
<title>Node1&#45;&gt;Node2</title>
<g id="a_edge1_Node000001_Node000002"><a xlink:title=" ">
<path fill="none" stroke="#63b8ff" d="M343.12,-223.61C331.01,-203.01 309.19,-165.2 292.25,-132 284.64,-117.08 276.73,-99.86 270.94,-86.89"/>
<polygon fill="#63b8ff" stroke="#63b8ff" points="274.15,-85.49 266.91,-77.75 267.74,-88.31 274.15,-85.49"/>
</a>
</g>
</g>
<!-- Node11 -->
<g id="Node000011" class="node">
<title>Node11</title>
<g id="a_Node000011"><a xlink:href="_service_mgr_8h.html" target="_top" xlink:title=" ">
<polygon fill="white" stroke="#666666" points="484,-132 328.5,-132 328.5,-112 484,-112 484,-132"/>
<text text-anchor="middle" x="406.25" y="-118.5" font-family="Helvetica,sans-Serif" font-size="10.00">FIEAGameEngine/ServiceMgr.h</text>
</a>
</g>
</g>
<!-- Node1&#45;&gt;Node11 -->
<g id="edge10_Node000001_Node000011" class="edge">
<title>Node1&#45;&gt;Node11</title>
<g id="a_edge10_Node000001_Node000011"><a xlink:title=" ">
<path fill="none" stroke="#63b8ff" d="M354.53,-223.69C357.14,-208.87 362.28,-186.05 371.25,-168 376.07,-158.3 383.17,-148.66 389.72,-140.81"/>
<polygon fill="#63b8ff" stroke="#63b8ff" points="392.28,-143.2 396.24,-133.38 387.02,-138.59 392.28,-143.2"/>
</a>
</g>
</g>
<!-- Node14 -->
<g id="Node000014" class="node">
<title>Node14</title>
<g id="a_Node000014"><a xlink:href="_memory_service_8h.html" target="_top" xlink:title=" ">
<polygon fill="white" stroke="#666666" points="554.38,-188 380.12,-188 380.12,-168 554.38,-168 554.38,-188"/>
<text text-anchor="middle" x="467.25" y="-174.5" font-family="Helvetica,sans-Serif" font-size="10.00">FIEAGameEngine/MemoryService.h</text>
</a>
</g>
</g>
<!-- Node1&#45;&gt;Node14 -->
<g id="edge14_Node000001_Node000014" class="edge">
<title>Node1&#45;&gt;Node14</title>
<g id="a_edge14_Node000001_Node000014"><a xlink:title=" ">
<path fill="none" stroke="#63b8ff" d="M381.87,-223.55C399.5,-214.35 421.75,-202.74 439.12,-193.68"/>
<polygon fill="#63b8ff" stroke="#63b8ff" points="440.63,-196.84 447.88,-189.11 437.39,-190.63 440.63,-196.84"/>
</a>
</g>
</g>
<!-- Node3 -->
<g id="Node000003" class="node">
<title>Node3</title>
<g id="a_Node000003"><a xlink:title=" ">
<polygon fill="#e0e0e0" stroke="#999999" points="62.5,-20 0,-20 0,0 62.5,0 62.5,-20"/>
<text text-anchor="middle" x="31.25" y="-6.5" font-family="Helvetica,sans-Serif" font-size="10.00">windows.h</text>
</a>
</g>
</g>
<!-- Node2&#45;&gt;Node3 -->
<g id="edge2_Node000002_Node000003" class="edge">
<title>Node2&#45;&gt;Node3</title>
<g id="a_edge2_Node000002_Node000003"><a xlink:title=" ">
<path fill="none" stroke="#63b8ff" d="M221.75,-55.53C180.26,-45.83 116.04,-30.82 73.82,-20.95"/>
<polygon fill="#63b8ff" stroke="#63b8ff" points="74.8,-17.59 64.27,-18.72 73.21,-24.4 74.8,-17.59"/>
</a>
</g>
</g>
<!-- Node4 -->
<g id="Node000004" class="node">
<title>Node4</title>
<g id="a_Node000004"><a xlink:title=" ">
<polygon fill="#e0e0e0" stroke="#999999" points="128.38,-20 80.12,-20 80.12,0 128.38,0 128.38,-20"/>
<text text-anchor="middle" x="104.25" y="-6.5" font-family="Helvetica,sans-Serif" font-size="10.00">cassert</text>
</a>
</g>
</g>
<!-- Node2&#45;&gt;Node4 -->
<g id="edge3_Node000002_Node000004" class="edge">
<title>Node2&#45;&gt;Node4</title>
<g id="a_edge3_Node000002_Node000004"><a xlink:title=" ">
<path fill="none" stroke="#63b8ff" d="M234.73,-55.59C208.35,-46.58 168.4,-32.92 139.66,-23.1"/>
<polygon fill="#63b8ff" stroke="#63b8ff" points="140.89,-19.82 130.29,-19.9 138.62,-26.45 140.89,-19.82"/>
</a>
</g>
</g>
<!-- Node5 -->
<g id="Node000005" class="node">
<title>Node5</title>
<g id="a_Node000005"><a xlink:title=" ">
<polygon fill="#e0e0e0" stroke="#999999" points="194.38,-20 146.12,-20 146.12,0 194.38,0 194.38,-20"/>
<text text-anchor="middle" x="170.25" y="-6.5" font-family="Helvetica,sans-Serif" font-size="10.00">cstddef</text>
</a>
</g>
</g>
<!-- Node2&#45;&gt;Node5 -->
<g id="edge4_Node000002_Node000005" class="edge">
<title>Node2&#45;&gt;Node5</title>
<g id="a_edge4_Node000002_Node000005"><a xlink:title=" ">
<path fill="none" stroke="#63b8ff" d="M246.22,-55.59C232.46,-47.51 212.35,-35.71 196.27,-26.27"/>
<polygon fill="#63b8ff" stroke="#63b8ff" points="198.1,-23.29 187.71,-21.25 194.56,-29.33 198.1,-23.29"/>
</a>
</g>
</g>
<!-- Node6 -->
<g id="Node000006" class="node">
<title>Node6</title>
<g id="a_Node000006"><a xlink:title=" ">
<polygon fill="#e0e0e0" stroke="#999999" points="257.88,-20 212.62,-20 212.62,0 257.88,0 257.88,-20"/>
<text text-anchor="middle" x="235.25" y="-6.5" font-family="Helvetica,sans-Serif" font-size="10.00">cstdint</text>
</a>
</g>
</g>
<!-- Node2&#45;&gt;Node6 -->
<g id="edge5_Node000002_Node000006" class="edge">
<title>Node2&#45;&gt;Node6</title>
<g id="a_edge5_Node000002_Node000006"><a xlink:title=" ">
<path fill="none" stroke="#63b8ff" d="M257.55,-55.59C254.1,-48.7 249.3,-39.1 245.04,-30.57"/>
<polygon fill="#63b8ff" stroke="#63b8ff" points="248.18,-29.03 240.58,-21.65 241.92,-32.16 248.18,-29.03"/>
</a>
</g>
</g>
<!-- Node7 -->
<g id="Node000007" class="node">
<title>Node7</title>
<g id="a_Node000007"><a xlink:title=" ">
<polygon fill="#e0e0e0" stroke="#999999" points="328.62,-20 275.88,-20 275.88,0 328.62,0 328.62,-20"/>
<text text-anchor="middle" x="302.25" y="-6.5" font-family="Helvetica,sans-Serif" font-size="10.00">cstdbool</text>
</a>
</g>
</g>
<!-- Node2&#45;&gt;Node7 -->
<g id="edge6_Node000002_Node000007" class="edge">
<title>Node2&#45;&gt;Node7</title>
<g id="a_edge6_Node000002_Node000007"><a xlink:title=" ">
<path fill="none" stroke="#63b8ff" d="M269.22,-55.59C274.55,-48.39 282.08,-38.23 288.6,-29.43"/>
<polygon fill="#63b8ff" stroke="#63b8ff" points="291.32,-31.63 294.46,-21.51 285.7,-27.47 291.32,-31.63"/>
</a>
</g>
</g>
<!-- Node8 -->
<g id="Node000008" class="node">
<title>Node8</title>
<g id="a_Node000008"><a xlink:title=" ">
<polygon fill="#e0e0e0" stroke="#999999" points="637.25,-20 597.25,-20 597.25,0 637.25,0 637.25,-20"/>
<text text-anchor="middle" x="617.25" y="-6.5" font-family="Helvetica,sans-Serif" font-size="10.00">string</text>
</a>
</g>
</g>
<!-- Node2&#45;&gt;Node8 -->
<g id="edge7_Node000002_Node000008" class="edge">
<title>Node2&#45;&gt;Node8</title>
<g id="a_edge7_Node000002_Node000008"><a xlink:title=" ">
<path fill="none" stroke="#63b8ff" d="M328.67,-57.14C404.36,-47.96 524.54,-32.69 585.7,-20.19"/>
<polygon fill="#63b8ff" stroke="#63b8ff" points="586.25,-23.65 595.29,-18.13 584.77,-16.81 586.25,-23.65"/>
</a>
</g>
</g>
<!-- Node9 -->
<g id="Node000009" class="node">
<title>Node9</title>
<g id="a_Node000009"><a xlink:title=" ">
<polygon fill="#e0e0e0" stroke="#999999" points="401.38,-20 347.12,-20 347.12,0 401.38,0 401.38,-20"/>
<text text-anchor="middle" x="374.25" y="-6.5" font-family="Helvetica,sans-Serif" font-size="10.00">crtdefs.h</text>
</a>
</g>
</g>
<!-- Node2&#45;&gt;Node9 -->
<g id="edge8_Node000002_Node000009" class="edge">
<title>Node2&#45;&gt;Node9</title>
<g id="a_edge8_Node000002_Node000009"><a xlink:title=" ">
<path fill="none" stroke="#63b8ff" d="M281.76,-55.59C299,-47.28 324.41,-35.03 344.24,-25.47"/>
<polygon fill="#63b8ff" stroke="#63b8ff" points="345.74,-28.63 353.23,-21.14 342.7,-22.33 345.74,-28.63"/>
</a>
</g>
</g>
<!-- Node10 -->
<g id="Node000010" class="node">
<title>Node10</title>
<g id="a_Node000010"><a xlink:title=" ">
<polygon fill="#e0e0e0" stroke="#999999" points="579.25,-20 419.25,-20 419.25,0 579.25,0 579.25,-20"/>
<text text-anchor="middle" x="499.25" y="-6.5" font-family="Helvetica,sans-Serif" font-size="10.00">../src/memory/SystemAllocator.h</text>
</a>
</g>
</g>
<!-- Node2&#45;&gt;Node10 -->
<g id="edge9_Node000002_Node000010" class="edge">
<title>Node2&#45;&gt;Node10</title>
<g id="a_edge9_Node000002_Node000010"><a xlink:title=" ">
<path fill="none" stroke="#63b8ff" d="M303.8,-55.53C343.53,-46.48 403.59,-32.8 446.64,-22.99"/>
<polygon fill="#63b8ff" stroke="#63b8ff" points="447.3,-26.43 456.27,-20.79 445.74,-19.6 447.3,-26.43"/>
</a>
</g>
</g>
<!-- Node11&#45;&gt;Node2 -->
<g id="edge11_Node000011_Node000002" class="edge">
<title>Node11&#45;&gt;Node2</title>
<g id="a_edge11_Node000011_Node000002"><a xlink:title=" ">
<path fill="none" stroke="#63b8ff" d="M381.17,-111.59C358.18,-102.97 323.9,-90.12 298.04,-80.42"/>
<polygon fill="#63b8ff" stroke="#63b8ff" points="299.54,-77.25 288.95,-77.01 297.08,-83.8 299.54,-77.25"/>
</a>
</g>
</g>
<!-- Node12 -->
<g id="Node000012" class="node">
<title>Node12</title>
<g id="a_Node000012"><a xlink:title=" ">
<polygon fill="#e0e0e0" stroke="#999999" points="490.75,-76 447.75,-76 447.75,-56 490.75,-56 490.75,-76"/>
<text text-anchor="middle" x="469.25" y="-62.5" font-family="Helvetica,sans-Serif" font-size="10.00">vector</text>
</a>
</g>
</g>
<!-- Node11&#45;&gt;Node12 -->
<g id="edge12_Node000011_Node000012" class="edge">
<title>Node11&#45;&gt;Node12</title>
<g id="a_edge12_Node000011_Node000012"><a xlink:title=" ">
<path fill="none" stroke="#63b8ff" d="M417.22,-111.59C426.17,-103.93 439.02,-92.91 449.71,-83.75"/>
<polygon fill="#63b8ff" stroke="#63b8ff" points="451.94,-86.45 457.25,-77.28 447.38,-81.13 451.94,-86.45"/>
</a>
</g>
</g>
<!-- Node13 -->
<g id="Node000013" class="node">
<title>Node13</title>
<g id="a_Node000013"><a xlink:title=" ">
<polygon fill="#e0e0e0" stroke="#999999" points="429.62,-76 346.88,-76 346.88,-56 429.62,-56 429.62,-76"/>
<text text-anchor="middle" x="388.25" y="-62.5" font-family="Helvetica,sans-Serif" font-size="10.00">unordered_map</text>
</a>
</g>
</g>
<!-- Node11&#45;&gt;Node13 -->
<g id="edge13_Node000011_Node000013" class="edge">
<title>Node11&#45;&gt;Node13</title>
<g id="a_edge13_Node000011_Node000013"><a xlink:title=" ">
<path fill="none" stroke="#63b8ff" d="M403.11,-111.59C400.87,-104.86 397.76,-95.53 394.97,-87.15"/>
<polygon fill="#63b8ff" stroke="#63b8ff" points="398.31,-86.11 391.83,-77.73 391.67,-88.33 398.31,-86.11"/>
</a>
</g>
</g>
<!-- Node14&#45;&gt;Node2 -->
<g id="edge15_Node000014_Node000002" class="edge">
<title>Node14&#45;&gt;Node2</title>
<g id="a_edge15_Node000014_Node000002"><a xlink:title=" ">
<path fill="none" stroke="#63b8ff" d="M410.68,-167.52C381.68,-160.82 346.78,-149.76 319.25,-132 300.78,-120.08 284.79,-100.53 274.48,-85.97"/>
<polygon fill="#63b8ff" stroke="#63b8ff" points="277.38,-84.01 268.88,-77.69 271.59,-87.94 277.38,-84.01"/>
</a>
</g>
</g>
<!-- Node14&#45;&gt;Node8 -->
<g id="edge17_Node000014_Node000008" class="edge">
<title>Node14&#45;&gt;Node8</title>
<g id="a_edge17_Node000014_Node000008"><a xlink:title=" ">
<path fill="none" stroke="#63b8ff" d="M476,-167.75C484.54,-158.69 497.87,-144.47 509.25,-132 542.43,-95.65 580.65,-52.53 601.56,-28.83"/>
<polygon fill="#63b8ff" stroke="#63b8ff" points="603.93,-31.43 607.92,-21.61 598.68,-26.8 603.93,-31.43"/>
</a>
</g>
</g>
<!-- Node14&#45;&gt;Node10 -->
<g id="edge18_Node000014_Node000010" class="edge">
<title>Node14&#45;&gt;Node10</title>
<g id="a_edge18_Node000014_Node000010"><a xlink:title=" ">
<path fill="none" stroke="#63b8ff" d="M474.24,-167.53C480.31,-158.78 488.82,-145.17 493.25,-132 504.6,-98.21 503.55,-56.14 501.55,-31.55"/>
<polygon fill="#63b8ff" stroke="#63b8ff" points="505.06,-31.55 500.62,-21.93 498.1,-32.22 505.06,-31.55"/>
</a>
</g>
</g>
<!-- Node14&#45;&gt;Node11 -->
<g id="edge16_Node000014_Node000011" class="edge">
<title>Node14&#45;&gt;Node11</title>
<g id="a_edge16_Node000014_Node000011"><a xlink:title=" ">
<path fill="none" stroke="#63b8ff" d="M456.62,-167.59C447.97,-159.93 435.52,-148.91 425.17,-139.75"/>
<polygon fill="#63b8ff" stroke="#63b8ff" points="427.69,-137.31 417.89,-133.3 423.05,-142.55 427.69,-137.31"/>
</a>
</g>
</g>
</g>
</svg>
