<?xml version="1.0" encoding="UTF-8" standalone="no"?>
<!DOCTYPE svg PUBLIC "-//W3C//DTD SVG 1.1//EN"
 "http://www.w3.org/Graphics/SVG/1.1/DTD/svg11.dtd">
<!-- Generated by graphviz version 12.2.1 (20241206.2353)
 -->
<!-- Title: FIEAGameEngine/include/FIEAGameEngine/Timer.h Pages: 1 -->
<svg width="644pt" height="152pt"
 viewBox="0.00 0.00 644.25 152.00" xmlns="http://www.w3.org/2000/svg" xmlns:xlink="http://www.w3.org/1999/xlink">
<g id="graph0" class="graph" transform="scale(1 1) rotate(0) translate(4 148)">
<title>FIEAGameEngine/include/FIEAGameEngine/Timer.h</title>
<!-- Node1 -->
<g id="Node000001" class="node">
<title>Node1</title>
<g id="a_Node000001"><a xlink:title=" ">
<polygon fill="#999999" stroke="#666666" points="387.12,-144 253.38,-144 253.38,-112 387.12,-112 387.12,-144"/>
<text text-anchor="start" x="261.38" y="-130.5" font-family="Helvetica,sans-Serif" font-size="10.00">FIEAGameEngine/include</text>
<text text-anchor="middle" x="320.25" y="-118.5" font-family="Helvetica,sans-Serif" font-size="10.00">/FIEAGameEngine/Timer.h</text>
</a>
</g>
</g>
<!-- Node2 -->
<g id="Node000002" class="node">
<title>Node2</title>
<g id="a_Node000002"><a xlink:href="_types_8h.html" target="_top" xlink:title=" ">
<polygon fill="white" stroke="#666666" points="332.5,-76 204,-76 204,-56 332.5,-56 332.5,-76"/>
<text text-anchor="middle" x="268.25" y="-62.5" font-family="Helvetica,sans-Serif" font-size="10.00">FieaGameEngine/Types.h</text>
</a>
</g>
</g>
<!-- Node1&#45;&gt;Node2 -->
<g id="edge1_Node000001_Node000002" class="edge">
<title>Node1&#45;&gt;Node2</title>
<g id="a_edge1_Node000001_Node000002"><a xlink:title=" ">
<path fill="none" stroke="#63b8ff" d="M306.86,-111.55C299.79,-103.39 291.07,-93.33 283.71,-84.84"/>
<polygon fill="#63b8ff" stroke="#63b8ff" points="286.59,-82.82 277.39,-77.55 281.3,-87.4 286.59,-82.82"/>
</a>
</g>
</g>
<!-- Node11 -->
<g id="Node000011" class="node">
<title>Node11</title>
<g id="a_Node000011"><a xlink:title=" ">
<polygon fill="#e0e0e0" stroke="#999999" points="395.88,-76 350.62,-76 350.62,-56 395.88,-56 395.88,-76"/>
<text text-anchor="middle" x="373.25" y="-62.5" font-family="Helvetica,sans-Serif" font-size="10.00">chrono</text>
</a>
</g>
</g>
<!-- Node1&#45;&gt;Node11 -->
<g id="edge10_Node000001_Node000011" class="edge">
<title>Node1&#45;&gt;Node11</title>
<g id="a_edge10_Node000001_Node000011"><a xlink:title=" ">
<path fill="none" stroke="#63b8ff" d="M333.9,-111.55C341.11,-103.39 349.99,-93.33 357.49,-84.84"/>
<polygon fill="#63b8ff" stroke="#63b8ff" points="359.94,-87.35 363.94,-77.54 354.69,-82.72 359.94,-87.35"/>
</a>
</g>
</g>
<!-- Node3 -->
<g id="Node000003" class="node">
<title>Node3</title>
<g id="a_Node000003"><a xlink:title=" ">
<polygon fill="#e0e0e0" stroke="#999999" points="62.5,-20 0,-20 0,0 62.5,0 62.5,-20"/>
<text text-anchor="middle" x="31.25" y="-6.5" font-family="Helvetica,sans-Serif" font-size="10.00">windows.h</text>
</a>
</g>
</g>
<!-- Node2&#45;&gt;Node3 -->
<g id="edge2_Node000002_Node000003" class="edge">
<title>Node2&#45;&gt;Node3</title>
<g id="a_edge2_Node000002_Node000003"><a xlink:title=" ">
<path fill="none" stroke="#63b8ff" d="M226.7,-55.53C183.8,-45.76 117.2,-30.58 73.91,-20.72"/>
<polygon fill="#63b8ff" stroke="#63b8ff" points="74.89,-17.35 64.37,-18.55 73.34,-24.18 74.89,-17.35"/>
</a>
</g>
</g>
<!-- Node4 -->
<g id="Node000004" class="node">
<title>Node4</title>
<g id="a_Node000004"><a xlink:title=" ">
<polygon fill="#e0e0e0" stroke="#999999" points="128.38,-20 80.12,-20 80.12,0 128.38,0 128.38,-20"/>
<text text-anchor="middle" x="104.25" y="-6.5" font-family="Helvetica,sans-Serif" font-size="10.00">cassert</text>
</a>
</g>
</g>
<!-- Node2&#45;&gt;Node4 -->
<g id="edge3_Node000002_Node000004" class="edge">
<title>Node2&#45;&gt;Node4</title>
<g id="a_edge3_Node000002_Node000004"><a xlink:title=" ">
<path fill="none" stroke="#63b8ff" d="M239.68,-55.59C211.85,-46.43 169.48,-32.48 139.55,-22.62"/>
<polygon fill="#63b8ff" stroke="#63b8ff" points="140.78,-19.34 130.18,-19.54 138.59,-25.99 140.78,-19.34"/>
</a>
</g>
</g>
<!-- Node5 -->
<g id="Node000005" class="node">
<title>Node5</title>
<g id="a_Node000005"><a xlink:title=" ">
<polygon fill="#e0e0e0" stroke="#999999" points="194.38,-20 146.12,-20 146.12,0 194.38,0 194.38,-20"/>
<text text-anchor="middle" x="170.25" y="-6.5" font-family="Helvetica,sans-Serif" font-size="10.00">cstddef</text>
</a>
</g>
</g>
<!-- Node2&#45;&gt;Node5 -->
<g id="edge4_Node000002_Node000005" class="edge">
<title>Node2&#45;&gt;Node5</title>
<g id="a_edge4_Node000002_Node000005"><a xlink:title=" ">
<path fill="none" stroke="#63b8ff" d="M251.18,-55.59C236.37,-47.44 214.68,-35.48 197.48,-26"/>
<polygon fill="#63b8ff" stroke="#63b8ff" points="199.23,-22.97 188.78,-21.21 195.85,-29.1 199.23,-22.97"/>
</a>
</g>
</g>
<!-- Node6 -->
<g id="Node000006" class="node">
<title>Node6</title>
<g id="a_Node000006"><a xlink:title=" ">
<polygon fill="#e0e0e0" stroke="#999999" points="257.88,-20 212.62,-20 212.62,0 257.88,0 257.88,-20"/>
<text text-anchor="middle" x="235.25" y="-6.5" font-family="Helvetica,sans-Serif" font-size="10.00">cstdint</text>
</a>
</g>
</g>
<!-- Node2&#45;&gt;Node6 -->
<g id="edge5_Node000002_Node000006" class="edge">
<title>Node2&#45;&gt;Node6</title>
<g id="a_edge5_Node000002_Node000006"><a xlink:title=" ">
<path fill="none" stroke="#63b8ff" d="M262.5,-55.59C258.2,-48.55 252.16,-38.67 246.86,-30"/>
<polygon fill="#63b8ff" stroke="#63b8ff" points="249.92,-28.3 241.72,-21.59 243.95,-31.95 249.92,-28.3"/>
</a>
</g>
</g>
<!-- Node7 -->
<g id="Node000007" class="node">
<title>Node7</title>
<g id="a_Node000007"><a xlink:title=" ">
<polygon fill="#e0e0e0" stroke="#999999" points="328.62,-20 275.88,-20 275.88,0 328.62,0 328.62,-20"/>
<text text-anchor="middle" x="302.25" y="-6.5" font-family="Helvetica,sans-Serif" font-size="10.00">cstdbool</text>
</a>
</g>
</g>
<!-- Node2&#45;&gt;Node7 -->
<g id="edge6_Node000002_Node000007" class="edge">
<title>Node2&#45;&gt;Node7</title>
<g id="a_edge6_Node000002_Node000007"><a xlink:title=" ">
<path fill="none" stroke="#63b8ff" d="M274.17,-55.59C278.61,-48.55 284.83,-38.67 290.29,-30"/>
<polygon fill="#63b8ff" stroke="#63b8ff" points="293.22,-31.91 295.59,-21.58 287.3,-28.18 293.22,-31.91"/>
</a>
</g>
</g>
<!-- Node8 -->
<g id="Node000008" class="node">
<title>Node8</title>
<g id="a_Node000008"><a xlink:title=" ">
<polygon fill="#e0e0e0" stroke="#999999" points="386.25,-20 346.25,-20 346.25,0 386.25,0 386.25,-20"/>
<text text-anchor="middle" x="366.25" y="-6.5" font-family="Helvetica,sans-Serif" font-size="10.00">string</text>
</a>
</g>
</g>
<!-- Node2&#45;&gt;Node8 -->
<g id="edge7_Node000002_Node000008" class="edge">
<title>Node2&#45;&gt;Node8</title>
<g id="a_edge7_Node000002_Node000008"><a xlink:title=" ">
<path fill="none" stroke="#63b8ff" d="M285.32,-55.59C300.13,-47.44 321.82,-35.48 339.02,-26"/>
<polygon fill="#63b8ff" stroke="#63b8ff" points="340.65,-29.1 347.72,-21.21 337.27,-22.97 340.65,-29.1"/>
</a>
</g>
</g>
<!-- Node9 -->
<g id="Node000009" class="node">
<title>Node9</title>
<g id="a_Node000009"><a xlink:title=" ">
<polygon fill="#e0e0e0" stroke="#999999" points="458.38,-20 404.12,-20 404.12,0 458.38,0 458.38,-20"/>
<text text-anchor="middle" x="431.25" y="-6.5" font-family="Helvetica,sans-Serif" font-size="10.00">crtdefs.h</text>
</a>
</g>
</g>
<!-- Node2&#45;&gt;Node9 -->
<g id="edge8_Node000002_Node000009" class="edge">
<title>Node2&#45;&gt;Node9</title>
<g id="a_edge8_Node000002_Node000009"><a xlink:title=" ">
<path fill="none" stroke="#63b8ff" d="M296.64,-55.59C323.33,-46.75 363.48,-33.45 392.99,-23.68"/>
<polygon fill="#63b8ff" stroke="#63b8ff" points="393.9,-27.06 402.29,-20.59 391.7,-20.42 393.9,-27.06"/>
</a>
</g>
</g>
<!-- Node10 -->
<g id="Node000010" class="node">
<title>Node10</title>
<g id="a_Node000010"><a xlink:title=" ">
<polygon fill="#e0e0e0" stroke="#999999" points="636.25,-20 476.25,-20 476.25,0 636.25,0 636.25,-20"/>
<text text-anchor="middle" x="556.25" y="-6.5" font-family="Helvetica,sans-Serif" font-size="10.00">../src/memory/SystemAllocator.h</text>
</a>
</g>
</g>
<!-- Node2&#45;&gt;Node10 -->
<g id="edge9_Node000002_Node000010" class="edge">
<title>Node2&#45;&gt;Node10</title>
<g id="a_edge9_Node000002_Node000010"><a xlink:title=" ">
<path fill="none" stroke="#63b8ff" d="M318.75,-55.53C367.74,-46.35 442.18,-32.39 494.64,-22.55"/>
<polygon fill="#63b8ff" stroke="#63b8ff" points="495.14,-26.02 504.33,-20.74 493.85,-19.14 495.14,-26.02"/>
</a>
</g>
</g>
</g>
</svg>
