<?xml version="1.0" encoding="UTF-8" standalone="no"?>
<!DOCTYPE svg PUBLIC "-//W3C//DTD SVG 1.1//EN"
 "http://www.w3.org/Graphics/SVG/1.1/DTD/svg11.dtd">
<!-- Generated by graphviz version 12.2.1 (20241206.2353)
 -->
<!-- Title: FIEAGameEngine/include/Content/Actions/TimedAction.h Pages: 1 -->
<svg width="454pt" height="108pt"
 viewBox="0.00 0.00 453.62 108.00" xmlns="http://www.w3.org/2000/svg" xmlns:xlink="http://www.w3.org/1999/xlink">
<g id="graph0" class="graph" transform="scale(1 1) rotate(0) translate(4 104)">
<title>FIEAGameEngine/include/Content/Actions/TimedAction.h</title>
<!-- Node1 -->
<g id="Node000001" class="node">
<title>Node1</title>
<g id="a_Node000001"><a xlink:title=" ">
<polygon fill="#999999" stroke="#666666" points="311.88,-100 156.38,-100 156.38,-68 311.88,-68 311.88,-100"/>
<text text-anchor="start" x="164.38" y="-86.5" font-family="Helvetica,sans-Serif" font-size="10.00">FIEAGameEngine/include</text>
<text text-anchor="middle" x="234.12" y="-74.5" font-family="Helvetica,sans-Serif" font-size="10.00">/Content/Actions/TimedAction.h</text>
</a>
</g>
</g>
<!-- Node2 -->
<g id="Node000002" class="node">
<title>Node2</title>
<g id="a_Node000002"><a xlink:href="_timed_action_8cpp.html" target="_top" xlink:title=" ">
<polygon fill="white" stroke="#666666" points="162.25,-32 0,-32 0,0 162.25,0 162.25,-32"/>
<text text-anchor="start" x="8" y="-18.5" font-family="Helvetica,sans-Serif" font-size="10.00">FIEAGameEngine/src</text>
<text text-anchor="middle" x="81.12" y="-6.5" font-family="Helvetica,sans-Serif" font-size="10.00">/content/actions/TimedAction.cpp</text>
</a>
</g>
</g>
<!-- Node1&#45;&gt;Node2 -->
<g id="edge1_Node000001_Node000002" class="edge">
<title>Node1&#45;&gt;Node2</title>
<g id="a_edge1_Node000001_Node000002"><a xlink:title=" ">
<path fill="none" stroke="#63b8ff" d="M187.82,-63.03C165.11,-53.23 138.17,-41.61 117.04,-32.49"/>
<polygon fill="#63b8ff" stroke="#63b8ff" points="186.3,-66.18 196.86,-66.93 189.07,-59.75 186.3,-66.18"/>
</a>
</g>
</g>
<!-- Node3 -->
<g id="Node000003" class="node">
<title>Node3</title>
<g id="a_Node000003"><a xlink:href="_action_test_8cpp.html" target="_top" xlink:title=" ">
<polygon fill="white" stroke="#666666" points="288.25,-26 180,-26 180,-6 288.25,-6 288.25,-26"/>
<text text-anchor="middle" x="234.12" y="-12.5" font-family="Helvetica,sans-Serif" font-size="10.00">Tests/ActionTest.cpp</text>
</a>
</g>
</g>
<!-- Node1&#45;&gt;Node3 -->
<g id="edge2_Node000001_Node000003" class="edge">
<title>Node1&#45;&gt;Node3</title>
<g id="a_edge2_Node000001_Node000003"><a xlink:title=" ">
<path fill="none" stroke="#63b8ff" d="M234.12,-56.31C234.12,-45.67 234.12,-34.13 234.12,-26.32"/>
<polygon fill="#63b8ff" stroke="#63b8ff" points="230.63,-56.18 234.13,-66.18 237.63,-56.18 230.63,-56.18"/>
</a>
</g>
</g>
<!-- Node4 -->
<g id="Node000004" class="node">
<title>Node4</title>
<g id="a_Node000004"><a xlink:href="_serialization_tests_8cpp.html" target="_top" xlink:title=" ">
<polygon fill="white" stroke="#666666" points="445.62,-26 306.62,-26 306.62,-6 445.62,-6 445.62,-26"/>
<text text-anchor="middle" x="376.12" y="-12.5" font-family="Helvetica,sans-Serif" font-size="10.00">Tests/SerializationTests.cpp</text>
</a>
</g>
</g>
<!-- Node1&#45;&gt;Node4 -->
<g id="edge3_Node000001_Node000004" class="edge">
<title>Node1&#45;&gt;Node4</title>
<g id="a_edge3_Node000001_Node000004"><a xlink:title=" ">
<path fill="none" stroke="#63b8ff" d="M277.78,-62.71C303.76,-50.63 335.51,-35.88 355.77,-26.46"/>
<polygon fill="#63b8ff" stroke="#63b8ff" points="276.38,-59.5 268.79,-66.89 279.33,-65.85 276.38,-59.5"/>
</a>
</g>
</g>
</g>
</svg>
