<?xml version="1.0" encoding="UTF-8" standalone="no"?>
<!DOCTYPE svg PUBLIC "-//W3C//DTD SVG 1.1//EN"
 "http://www.w3.org/Graphics/SVG/1.1/DTD/svg11.dtd">
<!-- Generated by graphviz version 12.2.1 (20241206.2353)
 -->
<!-- Title: FIEAGameEngine/src/content/actions/TimedAction.cpp Pages: 1 -->
<svg width="1024pt" height="544pt"
 viewBox="0.00 0.00 1023.53 544.00" xmlns="http://www.w3.org/2000/svg" xmlns:xlink="http://www.w3.org/1999/xlink">
<g id="graph0" class="graph" transform="scale(1 1) rotate(0) translate(4 540)">
<title>FIEAGameEngine/src/content/actions/TimedAction.cpp</title>
<!-- Node1 -->
<g id="Node000001" class="node">
<title>Node1</title>
<g id="a_Node000001"><a xlink:title=" ">
<polygon fill="#999999" stroke="#666666" points="910.66,-536 748.41,-536 748.41,-504 910.66,-504 910.66,-536"/>
<text text-anchor="start" x="756.41" y="-522.5" font-family="Helvetica,sans-Serif" font-size="10.00">FIEAGameEngine/src</text>
<text text-anchor="middle" x="829.53" y="-510.5" font-family="Helvetica,sans-Serif" font-size="10.00">/content/actions/TimedAction.cpp</text>
</a>
</g>
</g>
<!-- Node2 -->
<g id="Node000002" class="node">
<title>Node2</title>
<g id="a_Node000002"><a xlink:href="_timed_action_8h.html" target="_top" xlink:title=" ">
<polygon fill="white" stroke="#666666" points="777.78,-468 625.28,-468 625.28,-448 777.78,-448 777.78,-468"/>
<text text-anchor="middle" x="701.53" y="-454.5" font-family="Helvetica,sans-Serif" font-size="10.00">Content/Actions/TimedAction.h</text>
</a>
</g>
</g>
<!-- Node1&#45;&gt;Node2 -->
<g id="edge1_Node000001_Node000002" class="edge">
<title>Node1&#45;&gt;Node2</title>
<g id="a_edge1_Node000001_Node000002"><a xlink:title=" ">
<path fill="none" stroke="#63b8ff" d="M796.57,-503.55C776.66,-494.22 751.47,-482.41 732.03,-473.29"/>
<polygon fill="#63b8ff" stroke="#63b8ff" points="733.52,-470.13 722.98,-469.05 730.54,-476.46 733.52,-470.13"/>
</a>
</g>
</g>
<!-- Node27 -->
<g id="Node000027" class="node">
<title>Node27</title>
<g id="a_Node000027"><a xlink:href="_service_mgr_8h.html" target="_top" xlink:title=" ">
<polygon fill="white" stroke="#666666" points="879.41,-132 805.66,-132 805.66,-112 879.41,-112 879.41,-132"/>
<text text-anchor="middle" x="842.53" y="-118.5" font-family="Helvetica,sans-Serif" font-size="10.00">ServiceMgr.h</text>
</a>
</g>
</g>
<!-- Node1&#45;&gt;Node27 -->
<g id="edge43_Node000001_Node000027" class="edge">
<title>Node1&#45;&gt;Node27</title>
<g id="a_edge43_Node000001_Node000027"><a xlink:title=" ">
<path fill="none" stroke="#63b8ff" d="M904.38,-503.53C956.07,-487.97 1015.53,-458.09 1015.53,-403 1015.53,-403 1015.53,-403 1015.53,-233 1015.53,-173.6 942.02,-144.9 890.84,-132.12"/>
<polygon fill="#63b8ff" stroke="#63b8ff" points="891.66,-128.71 881.12,-129.83 890.05,-135.53 891.66,-128.71"/>
</a>
</g>
</g>
<!-- Node30 -->
<g id="Node000030" class="node">
<title>Node30</title>
<g id="a_Node000030"><a xlink:href="_clock_service_8h.html" target="_top" xlink:title=" ">
<polygon fill="white" stroke="#666666" points="911.78,-188 747.28,-188 747.28,-168 911.78,-168 911.78,-188"/>
<text text-anchor="middle" x="829.53" y="-174.5" font-family="Helvetica,sans-Serif" font-size="10.00">FIEAGameEngine/ClockService.h</text>
</a>
</g>
</g>
<!-- Node1&#45;&gt;Node30 -->
<g id="edge44_Node000001_Node000030" class="edge">
<title>Node1&#45;&gt;Node30</title>
<g id="a_edge44_Node000001_Node000030"><a xlink:title=" ">
<path fill="none" stroke="#63b8ff" d="M829.53,-503.61C829.53,-481.4 829.53,-439.05 829.53,-403 829.53,-403 829.53,-403 829.53,-289 829.53,-257.87 829.53,-221.78 829.53,-199.68"/>
<polygon fill="#63b8ff" stroke="#63b8ff" points="833.03,-199.93 829.53,-189.93 826.03,-199.93 833.03,-199.93"/>
</a>
</g>
</g>
<!-- Node3 -->
<g id="Node000003" class="node">
<title>Node3</title>
<g id="a_Node000003"><a xlink:href="_action_list_8h.html" target="_top" xlink:title=" ">
<polygon fill="white" stroke="#666666" points="686.41,-412 618.66,-412 618.66,-392 686.41,-392 686.41,-412"/>
<text text-anchor="middle" x="652.53" y="-398.5" font-family="Helvetica,sans-Serif" font-size="10.00">ActionList.h</text>
</a>
</g>
</g>
<!-- Node2&#45;&gt;Node3 -->
<g id="edge2_Node000002_Node000003" class="edge">
<title>Node2&#45;&gt;Node3</title>
<g id="a_edge2_Node000002_Node000003"><a xlink:title=" ">
<path fill="none" stroke="#63b8ff" d="M693,-447.59C686.25,-440.16 676.65,-429.58 668.49,-420.58"/>
<polygon fill="#63b8ff" stroke="#63b8ff" points="671.3,-418.47 661.99,-413.42 666.12,-423.18 671.3,-418.47"/>
</a>
</g>
</g>
<!-- Node4 -->
<g id="Node000004" class="node">
<title>Node4</title>
<g id="a_Node000004"><a xlink:href="_action_8h.html" target="_top" xlink:title=" ">
<polygon fill="white" stroke="#666666" points="580.53,-356 528.53,-356 528.53,-336 580.53,-336 580.53,-356"/>
<text text-anchor="middle" x="554.53" y="-342.5" font-family="Helvetica,sans-Serif" font-size="10.00">Action.h</text>
</a>
</g>
</g>
<!-- Node3&#45;&gt;Node4 -->
<g id="edge3_Node000003_Node000004" class="edge">
<title>Node3&#45;&gt;Node4</title>
<g id="a_edge3_Node000003_Node000004"><a xlink:title=" ">
<path fill="none" stroke="#63b8ff" d="M635.46,-391.59C620.66,-383.44 598.97,-371.48 581.77,-362"/>
<polygon fill="#63b8ff" stroke="#63b8ff" points="583.51,-358.97 573.06,-357.21 580.13,-365.1 583.51,-358.97"/>
</a>
</g>
</g>
<!-- Node5 -->
<g id="Node000005" class="node">
<title>Node5</title>
<g id="a_Node000005"><a xlink:href="_attributed_8h.html" target="_top" xlink:title=" ">
<polygon fill="white" stroke="#666666" points="579.16,-300 503.91,-300 503.91,-280 579.16,-280 579.16,-300"/>
<text text-anchor="middle" x="541.53" y="-286.5" font-family="Helvetica,sans-Serif" font-size="10.00">../Attributed.h</text>
</a>
</g>
</g>
<!-- Node4&#45;&gt;Node5 -->
<g id="edge4_Node000004_Node000005" class="edge">
<title>Node4&#45;&gt;Node5</title>
<g id="a_edge4_Node000004_Node000005"><a xlink:title=" ">
<path fill="none" stroke="#63b8ff" d="M552.27,-335.59C550.67,-328.93 548.45,-319.75 546.46,-311.44"/>
<polygon fill="#63b8ff" stroke="#63b8ff" points="549.87,-310.67 544.13,-301.77 543.07,-312.31 549.87,-310.67"/>
</a>
</g>
</g>
<!-- Node6 -->
<g id="Node000006" class="node">
<title>Node6</title>
<g id="a_Node000006"><a xlink:href="_r_t_t_i_8h.html" target="_top" xlink:title=" ">
<polygon fill="white" stroke="#666666" points="527.41,-132 399.66,-132 399.66,-112 527.41,-112 527.41,-132"/>
<text text-anchor="middle" x="463.53" y="-118.5" font-family="Helvetica,sans-Serif" font-size="10.00">FIEAGameEngine/RTTI.h</text>
</a>
</g>
</g>
<!-- Node5&#45;&gt;Node6 -->
<g id="edge5_Node000005_Node000006" class="edge">
<title>Node5&#45;&gt;Node6</title>
<g id="a_edge5_Node000005_Node000006"><a xlink:title=" ">
<path fill="none" stroke="#63b8ff" d="M539.62,-279.93C536.76,-267.14 530.81,-243.22 522.53,-224 509.53,-193.8 489.38,-161.4 476.32,-141.67"/>
<polygon fill="#63b8ff" stroke="#63b8ff" points="479.38,-139.94 470.89,-133.59 473.57,-143.85 479.38,-139.94"/>
</a>
</g>
</g>
<!-- Node17 -->
<g id="Node000017" class="node">
<title>Node17</title>
<g id="a_Node000017"><a xlink:href="_scope_8h.html" target="_top" xlink:title=" ">
<polygon fill="white" stroke="#666666" points="437.53,-244 385.53,-244 385.53,-224 437.53,-224 437.53,-244"/>
<text text-anchor="middle" x="411.53" y="-230.5" font-family="Helvetica,sans-Serif" font-size="10.00">Scope.h</text>
</a>
</g>
</g>
<!-- Node5&#45;&gt;Node17 -->
<g id="edge17_Node000005_Node000017" class="edge">
<title>Node5&#45;&gt;Node17</title>
<g id="a_edge17_Node000005_Node000017"><a xlink:title=" ">
<path fill="none" stroke="#63b8ff" d="M518.89,-279.59C498.42,-271.09 468.02,-258.46 444.78,-248.81"/>
<polygon fill="#63b8ff" stroke="#63b8ff" points="446.33,-245.66 435.75,-245.06 443.65,-252.13 446.33,-245.66"/>
</a>
</g>
</g>
<!-- Node23 -->
<g id="Node000023" class="node">
<title>Node23</title>
<g id="a_Node000023"><a xlink:title=" ">
<polygon fill="#e0e0e0" stroke="#999999" points="961.03,-76 918.03,-76 918.03,-56 961.03,-56 961.03,-76"/>
<text text-anchor="middle" x="939.53" y="-62.5" font-family="Helvetica,sans-Serif" font-size="10.00">vector</text>
</a>
</g>
</g>
<!-- Node5&#45;&gt;Node23 -->
<g id="edge41_Node000005_Node000023" class="edge">
<title>Node5&#45;&gt;Node23</title>
<g id="a_edge41_Node000005_Node000023"><a xlink:title=" ">
<path fill="none" stroke="#63b8ff" d="M579.43,-284.21C668.77,-272.2 888.99,-238.11 941.53,-188 966.58,-164.11 965.4,-145.92 958.53,-112 956.77,-103.29 953.27,-94.17 949.74,-86.43"/>
<polygon fill="#63b8ff" stroke="#63b8ff" points="952.98,-85.09 945.43,-77.66 946.7,-88.18 952.98,-85.09"/>
</a>
</g>
</g>
<!-- Node29 -->
<g id="Node000029" class="node">
<title>Node29</title>
<g id="a_Node000029"><a xlink:title=" ">
<polygon fill="#e0e0e0" stroke="#999999" points="513.53,-244 455.53,-244 455.53,-224 513.53,-224 513.53,-244"/>
<text text-anchor="middle" x="484.53" y="-230.5" font-family="Helvetica,sans-Serif" font-size="10.00">functional</text>
</a>
</g>
</g>
<!-- Node5&#45;&gt;Node29 -->
<g id="edge42_Node000005_Node000029" class="edge">
<title>Node5&#45;&gt;Node29</title>
<g id="a_edge42_Node000005_Node000029"><a xlink:title=" ">
<path fill="none" stroke="#63b8ff" d="M531.61,-279.59C523.6,-272.01 512.12,-261.13 502.5,-252.02"/>
<polygon fill="#63b8ff" stroke="#63b8ff" points="505.11,-249.68 495.45,-245.34 500.3,-254.76 505.11,-249.68"/>
</a>
</g>
</g>
<!-- Node7 -->
<g id="Node000007" class="node">
<title>Node7</title>
<g id="a_Node000007"><a xlink:href="_types_8h.html" target="_top" xlink:title=" ">
<polygon fill="white" stroke="#666666" points="749.66,-76 617.41,-76 617.41,-56 749.66,-56 749.66,-76"/>
<text text-anchor="middle" x="683.53" y="-62.5" font-family="Helvetica,sans-Serif" font-size="10.00">FIEAGameEngine/Types.h</text>
</a>
</g>
</g>
<!-- Node6&#45;&gt;Node7 -->
<g id="edge6_Node000006_Node000007" class="edge">
<title>Node6&#45;&gt;Node7</title>
<g id="a_edge6_Node000006_Node000007"><a xlink:title=" ">
<path fill="none" stroke="#63b8ff" d="M502.11,-111.53C538.75,-102.54 594.02,-88.97 633.93,-79.18"/>
<polygon fill="#63b8ff" stroke="#63b8ff" points="634.66,-82.6 643.54,-76.82 632.99,-75.8 634.66,-82.6"/>
</a>
</g>
</g>
<!-- Node16 -->
<g id="Node000016" class="node">
<title>Node16</title>
<g id="a_Node000016"><a xlink:href="_r_t_t_i_8inl.html" target="_top" xlink:title=" ">
<polygon fill="white" stroke="#666666" points="527.78,-76 399.28,-76 399.28,-56 527.78,-56 527.78,-76"/>
<text text-anchor="middle" x="463.53" y="-62.5" font-family="Helvetica,sans-Serif" font-size="10.00">FieaGameEngine/RTTI.inl</text>
</a>
</g>
</g>
<!-- Node6&#45;&gt;Node16 -->
<g id="edge15_Node000006_Node000016" class="edge">
<title>Node6&#45;&gt;Node16</title>
<g id="a_edge15_Node000006_Node000016"><a xlink:title=" ">
<path fill="none" stroke="#63b8ff" d="M458.27,-111.59C456.95,-105.01 456.51,-95.96 456.95,-87.73"/>
<polygon fill="#63b8ff" stroke="#63b8ff" points="460.42,-88.14 458.11,-77.8 453.47,-87.33 460.42,-88.14"/>
</a>
</g>
</g>
<!-- Node8 -->
<g id="Node000008" class="node">
<title>Node8</title>
<g id="a_Node000008"><a xlink:title=" ">
<polygon fill="#e0e0e0" stroke="#999999" points="778.78,-20 716.28,-20 716.28,0 778.78,0 778.78,-20"/>
<text text-anchor="middle" x="747.53" y="-6.5" font-family="Helvetica,sans-Serif" font-size="10.00">windows.h</text>
</a>
</g>
</g>
<!-- Node7&#45;&gt;Node8 -->
<g id="edge7_Node000007_Node000008" class="edge">
<title>Node7&#45;&gt;Node8</title>
<g id="a_edge7_Node000007_Node000008"><a xlink:title=" ">
<path fill="none" stroke="#63b8ff" d="M694.68,-55.59C703.86,-47.85 717.09,-36.69 728.02,-27.47"/>
<polygon fill="#63b8ff" stroke="#63b8ff" points="729.97,-30.4 735.36,-21.27 725.46,-25.05 729.97,-30.4"/>
</a>
</g>
</g>
<!-- Node9 -->
<g id="Node000009" class="node">
<title>Node9</title>
<g id="a_Node000009"><a xlink:title=" ">
<polygon fill="#e0e0e0" stroke="#999999" points="844.66,-20 796.41,-20 796.41,0 844.66,0 844.66,-20"/>
<text text-anchor="middle" x="820.53" y="-6.5" font-family="Helvetica,sans-Serif" font-size="10.00">cassert</text>
</a>
</g>
</g>
<!-- Node7&#45;&gt;Node9 -->
<g id="edge8_Node000007_Node000009" class="edge">
<title>Node7&#45;&gt;Node9</title>
<g id="a_edge8_Node000007_Node000009"><a xlink:title=" ">
<path fill="none" stroke="#63b8ff" d="M707.4,-55.59C729.07,-47.05 761.3,-34.35 785.83,-24.68"/>
<polygon fill="#63b8ff" stroke="#63b8ff" points="787.06,-27.96 795.08,-21.03 784.49,-21.45 787.06,-27.96"/>
</a>
</g>
</g>
<!-- Node10 -->
<g id="Node000010" class="node">
<title>Node10</title>
<g id="a_Node000010"><a xlink:title=" ">
<polygon fill="#e0e0e0" stroke="#999999" points="910.66,-20 862.41,-20 862.41,0 910.66,0 910.66,-20"/>
<text text-anchor="middle" x="886.53" y="-6.5" font-family="Helvetica,sans-Serif" font-size="10.00">cstddef</text>
</a>
</g>
</g>
<!-- Node7&#45;&gt;Node10 -->
<g id="edge9_Node000007_Node000010" class="edge">
<title>Node7&#45;&gt;Node10</title>
<g id="a_edge9_Node000007_Node000010"><a xlink:title=" ">
<path fill="none" stroke="#63b8ff" d="M719.7,-55.51C751.85,-47.06 800.4,-34.24 851.17,-20.62"/>
<polygon fill="#63b8ff" stroke="#63b8ff" points="851.82,-24.07 860.57,-18.1 850,-17.31 851.82,-24.07"/>
</a>
</g>
</g>
<!-- Node11 -->
<g id="Node000011" class="node">
<title>Node11</title>
<g id="a_Node000011"><a xlink:title=" ">
<polygon fill="#e0e0e0" stroke="#999999" points="974.16,-20 928.91,-20 928.91,0 974.16,0 974.16,-20"/>
<text text-anchor="middle" x="951.53" y="-6.5" font-family="Helvetica,sans-Serif" font-size="10.00">cstdint</text>
</a>
</g>
</g>
<!-- Node7&#45;&gt;Node11 -->
<g id="edge10_Node000007_Node000011" class="edge">
<title>Node7&#45;&gt;Node11</title>
<g id="a_edge10_Node000007_Node000011"><a xlink:title=" ">
<path fill="none" stroke="#63b8ff" d="M740.57,-55.54C786.02,-47.68 851.49,-35.65 917.5,-20.32"/>
<polygon fill="#63b8ff" stroke="#63b8ff" points="918.12,-23.77 927.05,-18.07 916.51,-16.95 918.12,-23.77"/>
</a>
</g>
</g>
<!-- Node12 -->
<g id="Node000012" class="node">
<title>Node12</title>
<g id="a_Node000012"><a xlink:title=" ">
<polygon fill="#e0e0e0" stroke="#999999" points="447.91,-20 395.16,-20 395.16,0 447.91,0 447.91,-20"/>
<text text-anchor="middle" x="421.53" y="-6.5" font-family="Helvetica,sans-Serif" font-size="10.00">cstdbool</text>
</a>
</g>
</g>
<!-- Node7&#45;&gt;Node12 -->
<g id="edge11_Node000007_Node000012" class="edge">
<title>Node7&#45;&gt;Node12</title>
<g id="a_edge11_Node000007_Node000012"><a xlink:title=" ">
<path fill="none" stroke="#63b8ff" d="M632.22,-55.52C588.74,-47.32 524.48,-34.81 459.15,-20.27"/>
<polygon fill="#63b8ff" stroke="#63b8ff" points="460.24,-16.93 449.71,-18.16 458.71,-23.76 460.24,-16.93"/>
</a>
</g>
</g>
<!-- Node13 -->
<g id="Node000013" class="node">
<title>Node13</title>
<g id="a_Node000013"><a xlink:title=" ">
<polygon fill="#e0e0e0" stroke="#999999" points="377.53,-20 337.53,-20 337.53,0 377.53,0 377.53,-20"/>
<text text-anchor="middle" x="357.53" y="-6.5" font-family="Helvetica,sans-Serif" font-size="10.00">string</text>
</a>
</g>
</g>
<!-- Node7&#45;&gt;Node13 -->
<g id="edge12_Node000007_Node000013" class="edge">
<title>Node7&#45;&gt;Node13</title>
<g id="a_edge12_Node000007_Node000013"><a xlink:title=" ">
<path fill="none" stroke="#63b8ff" d="M616.94,-57.82C558.99,-50.91 472.62,-39.04 389.24,-20.34"/>
<polygon fill="#63b8ff" stroke="#63b8ff" points="390.03,-16.93 379.5,-18.12 388.47,-23.75 390.03,-16.93"/>
</a>
</g>
</g>
<!-- Node14 -->
<g id="Node000014" class="node">
<title>Node14</title>
<g id="a_Node000014"><a xlink:title=" ">
<polygon fill="#e0e0e0" stroke="#999999" points="520.66,-20 466.41,-20 466.41,0 520.66,0 520.66,-20"/>
<text text-anchor="middle" x="493.53" y="-6.5" font-family="Helvetica,sans-Serif" font-size="10.00">crtdefs.h</text>
</a>
</g>
</g>
<!-- Node7&#45;&gt;Node14 -->
<g id="edge13_Node000007_Node000014" class="edge">
<title>Node7&#45;&gt;Node14</title>
<g id="a_edge13_Node000007_Node000014"><a xlink:title=" ">
<path fill="none" stroke="#63b8ff" d="M650.44,-55.59C617.34,-46.19 566.48,-31.73 531.7,-21.85"/>
<polygon fill="#63b8ff" stroke="#63b8ff" points="533.05,-18.59 522.47,-19.22 531.13,-25.32 533.05,-18.59"/>
</a>
</g>
</g>
<!-- Node15 -->
<g id="Node000015" class="node">
<title>Node15</title>
<g id="a_Node000015"><a xlink:title=" ">
<polygon fill="#e0e0e0" stroke="#999999" points="698.53,-20 538.53,-20 538.53,0 698.53,0 698.53,-20"/>
<text text-anchor="middle" x="618.53" y="-6.5" font-family="Helvetica,sans-Serif" font-size="10.00">../src/memory/SystemAllocator.h</text>
</a>
</g>
</g>
<!-- Node7&#45;&gt;Node15 -->
<g id="edge14_Node000007_Node000015" class="edge">
<title>Node7&#45;&gt;Node15</title>
<g id="a_edge14_Node000007_Node000015"><a xlink:title=" ">
<path fill="none" stroke="#63b8ff" d="M672.21,-55.59C662.89,-47.85 649.46,-36.69 638.36,-27.47"/>
<polygon fill="#63b8ff" stroke="#63b8ff" points="640.82,-24.96 630.89,-21.27 636.35,-30.35 640.82,-24.96"/>
</a>
</g>
</g>
<!-- Node16&#45;&gt;Node6 -->
<g id="edge16_Node000016_Node000006" class="edge">
<title>Node16&#45;&gt;Node6</title>
<g id="a_edge16_Node000016_Node000006"><a xlink:title=" ">
<path fill="none" stroke="#63b8ff" d="M468.78,-76.3C470.12,-82.93 470.57,-92.11 470.11,-100.43"/>
<polygon fill="#63b8ff" stroke="#63b8ff" points="466.67,-99.75 468.98,-110.09 473.62,-100.57 466.67,-99.75"/>
</a>
</g>
</g>
<!-- Node17&#45;&gt;Node6 -->
<g id="edge18_Node000017_Node000006" class="edge">
<title>Node17&#45;&gt;Node6</title>
<g id="a_edge18_Node000017_Node000006"><a xlink:title=" ">
<path fill="none" stroke="#63b8ff" d="M415.97,-223.62C424.41,-205.76 442.96,-166.53 454.24,-142.67"/>
<polygon fill="#63b8ff" stroke="#63b8ff" points="457.36,-144.26 458.47,-133.72 451.03,-141.27 457.36,-144.26"/>
</a>
</g>
</g>
<!-- Node18 -->
<g id="Node000018" class="node">
<title>Node18</title>
<g id="a_Node000018"><a xlink:href="_datum_8h.html" target="_top" xlink:title=" ">
<polygon fill="white" stroke="#666666" points="379.28,-188 325.78,-188 325.78,-168 379.28,-168 379.28,-188"/>
<text text-anchor="middle" x="352.53" y="-174.5" font-family="Helvetica,sans-Serif" font-size="10.00">Datum.h</text>
</a>
</g>
</g>
<!-- Node17&#45;&gt;Node18 -->
<g id="edge19_Node000017_Node000018" class="edge">
<title>Node17&#45;&gt;Node18</title>
<g id="a_edge19_Node000017_Node000018"><a xlink:title=" ">
<path fill="none" stroke="#63b8ff" d="M401.26,-223.59C392.97,-216.01 381.09,-205.13 371.13,-196.02"/>
<polygon fill="#63b8ff" stroke="#63b8ff" points="373.55,-193.49 363.81,-189.32 368.82,-198.65 373.55,-193.49"/>
</a>
</g>
</g>
<!-- Node17&#45;&gt;Node23 -->
<g id="edge28_Node000017_Node000023" class="edge">
<title>Node17&#45;&gt;Node23</title>
<g id="a_edge28_Node000017_Node000023"><a xlink:title=" ">
<path fill="none" stroke="#63b8ff" d="M437.8,-225.72C440.73,-225.06 443.69,-224.47 446.53,-224 498.65,-215.39 881.72,-223.83 920.53,-188 948.05,-162.6 946.7,-114.88 943.18,-87.58"/>
<polygon fill="#63b8ff" stroke="#63b8ff" points="946.65,-87.16 941.68,-77.8 939.74,-88.22 946.65,-87.16"/>
</a>
</g>
</g>
<!-- Node24 -->
<g id="Node000024" class="node">
<title>Node24</title>
<g id="a_Node000024"><a xlink:title=" ">
<polygon fill="#e0e0e0" stroke="#999999" points="850.91,-76 768.16,-76 768.16,-56 850.91,-56 850.91,-76"/>
<text text-anchor="middle" x="809.53" y="-62.5" font-family="Helvetica,sans-Serif" font-size="10.00">unordered_map</text>
</a>
</g>
</g>
<!-- Node17&#45;&gt;Node24 -->
<g id="edge29_Node000017_Node000024" class="edge">
<title>Node17&#45;&gt;Node24</title>
<g id="a_edge29_Node000017_Node000024"><a xlink:title=" ">
<path fill="none" stroke="#63b8ff" d="M426.29,-223.5C461.51,-201.18 553.84,-144.82 637.53,-112 676.56,-96.7 722.58,-84.97 757.2,-77.32"/>
<polygon fill="#63b8ff" stroke="#63b8ff" points="757.5,-80.84 766.53,-75.31 756.02,-74 757.5,-80.84"/>
</a>
</g>
</g>
<!-- Node25 -->
<g id="Node000025" class="node">
<title>Node25</title>
<g id="a_Node000025"><a xlink:title=" ">
<polygon fill="#e0e0e0" stroke="#999999" points="307.91,-188 273.16,-188 273.16,-168 307.91,-168 307.91,-188"/>
<text text-anchor="middle" x="290.53" y="-174.5" font-family="Helvetica,sans-Serif" font-size="10.00">map</text>
</a>
</g>
</g>
<!-- Node17&#45;&gt;Node25 -->
<g id="edge30_Node000017_Node000025" class="edge">
<title>Node17&#45;&gt;Node25</title>
<g id="a_edge30_Node000017_Node000025"><a xlink:title=" ">
<path fill="none" stroke="#63b8ff" d="M390.46,-223.59C370.53,-214.7 340.5,-201.3 318.56,-191.51"/>
<polygon fill="#63b8ff" stroke="#63b8ff" points="320.17,-188.39 309.61,-187.51 317.31,-194.78 320.17,-188.39"/>
</a>
</g>
</g>
<!-- Node26 -->
<g id="Node000026" class="node">
<title>Node26</title>
<g id="a_Node000026"><a xlink:href="_factory_service_8h.html" target="_top" xlink:title=" ">
<polygon fill="white" stroke="#666666" points="729.53,-188 557.53,-188 557.53,-168 729.53,-168 729.53,-188"/>
<text text-anchor="middle" x="643.53" y="-174.5" font-family="Helvetica,sans-Serif" font-size="10.00">FIEAGameEngine/FactoryService.h</text>
</a>
</g>
</g>
<!-- Node17&#45;&gt;Node26 -->
<g id="edge31_Node000017_Node000026" class="edge">
<title>Node17&#45;&gt;Node26</title>
<g id="a_edge31_Node000017_Node000026"><a xlink:title=" ">
<path fill="none" stroke="#63b8ff" d="M437.89,-226.14C440.8,-225.41 443.73,-224.68 446.53,-224 494.73,-212.3 549.78,-199.8 589.41,-190.95"/>
<polygon fill="#63b8ff" stroke="#63b8ff" points="589.94,-194.42 598.94,-188.83 588.41,-187.58 589.94,-194.42"/>
</a>
</g>
</g>
<!-- Node18&#45;&gt;Node6 -->
<g id="edge24_Node000018_Node000006" class="edge">
<title>Node18&#45;&gt;Node6</title>
<g id="a_edge24_Node000018_Node000006"><a xlink:title=" ">
<path fill="none" stroke="#63b8ff" d="M371.87,-167.59C388.95,-159.28 414.14,-147.03 433.79,-137.47"/>
<polygon fill="#63b8ff" stroke="#63b8ff" points="435.23,-140.66 442.69,-133.14 432.16,-134.37 435.23,-140.66"/>
</a>
</g>
</g>
<!-- Node18&#45;&gt;Node13 -->
<g id="edge20_Node000018_Node000013" class="edge">
<title>Node18&#45;&gt;Node13</title>
<g id="a_edge20_Node000018_Node000013"><a xlink:title=" ">
<path fill="none" stroke="#63b8ff" d="M325.49,-169.85C322.48,-169.17 319.45,-168.54 316.53,-168 250.5,-155.83 61.1,-182.23 16.53,-132 -72.61,-31.52 225.08,-14.48 325.57,-11.59"/>
<polygon fill="#63b8ff" stroke="#63b8ff" points="325.65,-15.09 335.56,-11.33 325.47,-8.09 325.65,-15.09"/>
</a>
</g>
</g>
<!-- Node19 -->
<g id="Node000019" class="node">
<title>Node19</title>
<g id="a_Node000019"><a xlink:title=" ">
<polygon fill="#e0e0e0" stroke="#999999" points="81.41,-132 25.66,-132 25.66,-112 81.41,-112 81.41,-132"/>
<text text-anchor="middle" x="53.53" y="-118.5" font-family="Helvetica,sans-Serif" font-size="10.00">charconv</text>
</a>
</g>
</g>
<!-- Node18&#45;&gt;Node19 -->
<g id="edge21_Node000018_Node000019" class="edge">
<title>Node18&#45;&gt;Node19</title>
<g id="a_edge21_Node000018_Node000019"><a xlink:title=" ">
<path fill="none" stroke="#63b8ff" d="M325.47,-169.96C322.46,-169.26 319.44,-168.59 316.53,-168 220.38,-148.36 192.21,-151.76 92.91,-132.33"/>
<polygon fill="#63b8ff" stroke="#63b8ff" points="93.74,-128.93 83.25,-130.41 92.37,-135.79 93.74,-128.93"/>
</a>
</g>
</g>
<!-- Node20 -->
<g id="Node000020" class="node">
<title>Node20</title>
<g id="a_Node000020"><a xlink:title=" ">
<polygon fill="#e0e0e0" stroke="#999999" points="169.16,-132 99.91,-132 99.91,-112 169.16,-112 169.16,-132"/>
<text text-anchor="middle" x="134.53" y="-118.5" font-family="Helvetica,sans-Serif" font-size="10.00">glm/glm.hpp</text>
</a>
</g>
</g>
<!-- Node18&#45;&gt;Node20 -->
<g id="edge22_Node000018_Node000020" class="edge">
<title>Node18&#45;&gt;Node20</title>
<g id="a_edge22_Node000018_Node000020"><a xlink:title=" ">
<path fill="none" stroke="#63b8ff" d="M325.41,-170.21C322.42,-169.46 319.41,-168.72 316.53,-168 270.16,-156.47 217.12,-143.36 180.31,-134.28"/>
<polygon fill="#63b8ff" stroke="#63b8ff" points="181.45,-130.96 170.9,-131.96 179.77,-137.76 181.45,-130.96"/>
</a>
</g>
</g>
<!-- Node21 -->
<g id="Node000021" class="node">
<title>Node21</title>
<g id="a_Node000021"><a xlink:title=" ">
<polygon fill="#e0e0e0" stroke="#999999" points="305.53,-132 187.53,-132 187.53,-112 305.53,-112 305.53,-132"/>
<text text-anchor="middle" x="246.53" y="-118.5" font-family="Helvetica,sans-Serif" font-size="10.00">glm/gtx/string_cast.hpp</text>
</a>
</g>
</g>
<!-- Node18&#45;&gt;Node21 -->
<g id="edge23_Node000018_Node000021" class="edge">
<title>Node18&#45;&gt;Node21</title>
<g id="a_edge23_Node000018_Node000021"><a xlink:title=" ">
<path fill="none" stroke="#63b8ff" d="M334.07,-167.59C317.83,-159.32 293.93,-147.14 275.2,-137.6"/>
<polygon fill="#63b8ff" stroke="#63b8ff" points="276.99,-134.59 266.49,-133.17 273.81,-140.82 276.99,-134.59"/>
</a>
</g>
</g>
<!-- Node22 -->
<g id="Node000022" class="node">
<title>Node22</title>
<g id="a_Node000022"><a xlink:href="_datum_8inl.html" target="_top" xlink:title=" ">
<polygon fill="white" stroke="#666666" points="381.53,-132 323.53,-132 323.53,-112 381.53,-112 381.53,-132"/>
<text text-anchor="middle" x="352.53" y="-118.5" font-family="Helvetica,sans-Serif" font-size="10.00">Datum.inl</text>
</a>
</g>
</g>
<!-- Node18&#45;&gt;Node22 -->
<g id="edge25_Node000018_Node000022" class="edge">
<title>Node18&#45;&gt;Node22</title>
<g id="a_edge25_Node000018_Node000022"><a xlink:title=" ">
<path fill="none" stroke="#63b8ff" d="M347.27,-167.59C345.95,-161.01 345.51,-151.96 345.95,-143.73"/>
<polygon fill="#63b8ff" stroke="#63b8ff" points="349.42,-144.14 347.11,-133.8 342.47,-143.33 349.42,-144.14"/>
</a>
</g>
</g>
<!-- Node22&#45;&gt;Node7 -->
<g id="edge26_Node000022_Node000007" class="edge">
<title>Node22&#45;&gt;Node7</title>
<g id="a_edge26_Node000022_Node000007"><a xlink:title=" ">
<path fill="none" stroke="#63b8ff" d="M381.94,-113.79C384.84,-113.15 387.74,-112.54 390.53,-112 463.14,-97.85 546.58,-85.4 605.8,-77.21"/>
<polygon fill="#63b8ff" stroke="#63b8ff" points="606.01,-80.71 615.44,-75.88 605.06,-73.78 606.01,-80.71"/>
</a>
</g>
</g>
<!-- Node22&#45;&gt;Node18 -->
<g id="edge27_Node000022_Node000018" class="edge">
<title>Node22&#45;&gt;Node18</title>
<g id="a_edge27_Node000022_Node000018"><a xlink:title=" ">
<path fill="none" stroke="#63b8ff" d="M357.78,-132.3C359.12,-138.93 359.57,-148.11 359.11,-156.43"/>
<polygon fill="#63b8ff" stroke="#63b8ff" points="355.67,-155.75 357.98,-166.09 362.62,-156.57 355.67,-155.75"/>
</a>
</g>
</g>
<!-- Node26&#45;&gt;Node6 -->
<g id="edge33_Node000026_Node000006" class="edge">
<title>Node26&#45;&gt;Node6</title>
<g id="a_edge33_Node000026_Node000006"><a xlink:title=" ">
<path fill="none" stroke="#63b8ff" d="M612.18,-167.59C582.81,-158.78 538.67,-145.54 506.12,-135.78"/>
<polygon fill="#63b8ff" stroke="#63b8ff" points="507.17,-132.44 496.58,-132.91 505.16,-139.14 507.17,-132.44"/>
</a>
</g>
</g>
<!-- Node26&#45;&gt;Node7 -->
<g id="edge32_Node000026_Node000007" class="edge">
<title>Node26&#45;&gt;Node7</title>
<g id="a_edge32_Node000026_Node000007"><a xlink:title=" ">
<path fill="none" stroke="#63b8ff" d="M674.24,-167.55C691.12,-160.62 710.59,-149.32 720.53,-132 729.81,-115.83 717.05,-97.36 704.05,-84.25"/>
<polygon fill="#63b8ff" stroke="#63b8ff" points="706.52,-81.76 696.81,-77.52 701.75,-86.89 706.52,-81.76"/>
</a>
</g>
</g>
<!-- Node26&#45;&gt;Node13 -->
<g id="edge38_Node000026_Node000013" class="edge">
<title>Node26&#45;&gt;Node13</title>
<g id="a_edge38_Node000026_Node000013"><a xlink:title=" ">
<path fill="none" stroke="#63b8ff" d="M638.15,-167.7C624.4,-144.81 585.57,-85.47 536.53,-56 480.75,-22.48 455.28,-36.53 388.8,-20.33"/>
<polygon fill="#63b8ff" stroke="#63b8ff" points="389.79,-16.98 379.23,-17.84 388.03,-23.75 389.79,-16.98"/>
</a>
</g>
</g>
<!-- Node26&#45;&gt;Node24 -->
<g id="edge40_Node000026_Node000024" class="edge">
<title>Node26&#45;&gt;Node24</title>
<g id="a_edge40_Node000026_Node000024"><a xlink:title=" ">
<path fill="none" stroke="#63b8ff" d="M641.61,-167.8C639.29,-153.98 637.21,-127.78 650.53,-112 657.64,-103.58 713.48,-89.06 757,-78.79"/>
<polygon fill="#63b8ff" stroke="#63b8ff" points="757.63,-82.24 766.57,-76.56 756.04,-75.42 757.63,-82.24"/>
</a>
</g>
</g>
<!-- Node26&#45;&gt;Node27 -->
<g id="edge34_Node000026_Node000027" class="edge">
<title>Node26&#45;&gt;Node27</title>
<g id="a_edge34_Node000026_Node000027"><a xlink:title=" ">
<path fill="none" stroke="#63b8ff" d="M678.2,-167.59C711.1,-158.67 760.75,-145.19 796.86,-135.39"/>
<polygon fill="#63b8ff" stroke="#63b8ff" points="797.41,-138.87 806.14,-132.88 795.57,-132.12 797.41,-138.87"/>
</a>
</g>
</g>
<!-- Node28 -->
<g id="Node000028" class="node">
<title>Node28</title>
<g id="a_Node000028"><a xlink:title=" ">
<polygon fill="#e0e0e0" stroke="#999999" points="711.16,-132 659.91,-132 659.91,-112 711.16,-112 711.16,-132"/>
<text text-anchor="middle" x="685.53" y="-118.5" font-family="Helvetica,sans-Serif" font-size="10.00">memory</text>
</a>
</g>
</g>
<!-- Node26&#45;&gt;Node28 -->
<g id="edge39_Node000026_Node000028" class="edge">
<title>Node26&#45;&gt;Node28</title>
<g id="a_edge39_Node000026_Node000028"><a xlink:title=" ">
<path fill="none" stroke="#63b8ff" d="M650.85,-167.59C656.51,-160.32 664.52,-150.02 671.42,-141.15"/>
<polygon fill="#63b8ff" stroke="#63b8ff" points="674,-143.54 677.37,-133.49 668.47,-139.24 674,-143.54"/>
</a>
</g>
</g>
<!-- Node27&#45;&gt;Node7 -->
<g id="edge35_Node000027_Node000007" class="edge">
<title>Node27&#45;&gt;Node7</title>
<g id="a_edge35_Node000027_Node000007"><a xlink:title=" ">
<path fill="none" stroke="#63b8ff" d="M814.84,-111.59C789.23,-102.9 750.93,-89.89 722.29,-80.16"/>
<polygon fill="#63b8ff" stroke="#63b8ff" points="723.47,-76.87 712.88,-76.97 721.22,-83.5 723.47,-76.87"/>
</a>
</g>
</g>
<!-- Node27&#45;&gt;Node23 -->
<g id="edge36_Node000027_Node000023" class="edge">
<title>Node27&#45;&gt;Node23</title>
<g id="a_edge36_Node000027_Node000023"><a xlink:title=" ">
<path fill="none" stroke="#63b8ff" d="M859.43,-111.59C874.08,-103.44 895.56,-91.48 912.58,-82"/>
<polygon fill="#63b8ff" stroke="#63b8ff" points="914.15,-85.14 921.18,-77.22 910.74,-79.02 914.15,-85.14"/>
</a>
</g>
</g>
<!-- Node27&#45;&gt;Node24 -->
<g id="edge37_Node000027_Node000024" class="edge">
<title>Node27&#45;&gt;Node24</title>
<g id="a_edge37_Node000027_Node000024"><a xlink:title=" ">
<path fill="none" stroke="#63b8ff" d="M836.79,-111.59C832.48,-104.55 826.44,-94.67 821.15,-86"/>
<polygon fill="#63b8ff" stroke="#63b8ff" points="824.21,-84.3 816.01,-77.59 818.23,-87.95 824.21,-84.3"/>
</a>
</g>
</g>
<!-- Node30&#45;&gt;Node7 -->
<g id="edge45_Node000030_Node000007" class="edge">
<title>Node30&#45;&gt;Node7</title>
<g id="a_edge45_Node000030_Node000007"><a xlink:title=" ">
<path fill="none" stroke="#63b8ff" d="M817.09,-167.62C792.2,-148.87 736.03,-106.55 705.05,-83.21"/>
<polygon fill="#63b8ff" stroke="#63b8ff" points="707.25,-80.49 697.16,-77.27 703.04,-86.08 707.25,-80.49"/>
</a>
</g>
</g>
<!-- Node30&#45;&gt;Node27 -->
<g id="edge46_Node000030_Node000027" class="edge">
<title>Node30&#45;&gt;Node27</title>
<g id="a_edge46_Node000030_Node000027"><a xlink:title=" ">
<path fill="none" stroke="#63b8ff" d="M831.8,-167.59C833.4,-160.93 835.61,-151.75 837.61,-143.44"/>
<polygon fill="#63b8ff" stroke="#63b8ff" points="841,-144.31 839.94,-133.77 834.2,-142.67 841,-144.31"/>
</a>
</g>
</g>
</g>
</svg>
