<?xml version="1.0" encoding="UTF-8" standalone="no"?>
<!DOCTYPE svg PUBLIC "-//W3C//DTD SVG 1.1//EN"
 "http://www.w3.org/Graphics/SVG/1.1/DTD/svg11.dtd">
<!-- Generated by graphviz version 12.2.1 (20241206.2353)
 -->
<!-- Title: FIEAGameEngine/src/memory/Tracker.h Pages: 1 -->
<svg width="744pt" height="152pt"
 viewBox="0.00 0.00 744.38 152.00" xmlns="http://www.w3.org/2000/svg" xmlns:xlink="http://www.w3.org/1999/xlink">
<g id="graph0" class="graph" transform="scale(1 1) rotate(0) translate(4 148)">
<title>FIEAGameEngine/src/memory/Tracker.h</title>
<!-- Node1 -->
<g id="Node000001" class="node">
<title>Node1</title>
<g id="a_Node000001"><a xlink:title=" ">
<polygon fill="#999999" stroke="#666666" points="569.88,-144 458.62,-144 458.62,-112 569.88,-112 569.88,-144"/>
<text text-anchor="start" x="466.62" y="-130.5" font-family="Helvetica,sans-Serif" font-size="10.00">FIEAGameEngine/src</text>
<text text-anchor="middle" x="514.25" y="-118.5" font-family="Helvetica,sans-Serif" font-size="10.00">/memory/Tracker.h</text>
</a>
</g>
</g>
<!-- Node2 -->
<g id="Node000002" class="node">
<title>Node2</title>
<g id="a_Node000002"><a xlink:href="_types_8h.html" target="_top" xlink:title=" ">
<polygon fill="white" stroke="#666666" points="356.38,-76 224.12,-76 224.12,-56 356.38,-56 356.38,-76"/>
<text text-anchor="middle" x="290.25" y="-62.5" font-family="Helvetica,sans-Serif" font-size="10.00">FIEAGameEngine/Types.h</text>
</a>
</g>
</g>
<!-- Node1&#45;&gt;Node2 -->
<g id="edge1_Node000001_Node000002" class="edge">
<title>Node1&#45;&gt;Node2</title>
<g id="a_edge1_Node000001_Node000002"><a xlink:title=" ">
<path fill="none" stroke="#63b8ff" d="M458.3,-112.01C420.77,-101.96 371.92,-88.88 336.57,-79.41"/>
<polygon fill="#63b8ff" stroke="#63b8ff" points="337.62,-76.07 327.06,-76.86 335.81,-82.83 337.62,-76.07"/>
</a>
</g>
</g>
<!-- Node11 -->
<g id="Node000011" class="node">
<title>Node11</title>
<g id="a_Node000011"><a xlink:title=" ">
<polygon fill="#e0e0e0" stroke="#999999" points="457.62,-76 374.88,-76 374.88,-56 457.62,-56 457.62,-76"/>
<text text-anchor="middle" x="416.25" y="-62.5" font-family="Helvetica,sans-Serif" font-size="10.00">unordered_map</text>
</a>
</g>
</g>
<!-- Node1&#45;&gt;Node11 -->
<g id="edge10_Node000001_Node000011" class="edge">
<title>Node1&#45;&gt;Node11</title>
<g id="a_edge10_Node000001_Node000011"><a xlink:title=" ">
<path fill="none" stroke="#63b8ff" d="M489.01,-111.55C474.27,-102.52 455.73,-91.17 441.06,-82.19"/>
<polygon fill="#63b8ff" stroke="#63b8ff" points="443.26,-79.43 432.91,-77.2 439.61,-85.4 443.26,-79.43"/>
</a>
</g>
</g>
<!-- Node12 -->
<g id="Node000012" class="node">
<title>Node12</title>
<g id="a_Node000012"><a xlink:title=" ">
<polygon fill="#e0e0e0" stroke="#999999" points="553,-76 475.5,-76 475.5,-56 553,-56 553,-76"/>
<text text-anchor="middle" x="514.25" y="-62.5" font-family="Helvetica,sans-Serif" font-size="10.00">unordered_set</text>
</a>
</g>
</g>
<!-- Node1&#45;&gt;Node12 -->
<g id="edge11_Node000001_Node000012" class="edge">
<title>Node1&#45;&gt;Node12</title>
<g id="a_edge11_Node000001_Node000012"><a xlink:title=" ">
<path fill="none" stroke="#63b8ff" d="M514.25,-111.55C514.25,-104.34 514.25,-95.66 514.25,-87.88"/>
<polygon fill="#63b8ff" stroke="#63b8ff" points="517.75,-87.92 514.25,-77.92 510.75,-87.92 517.75,-87.92"/>
</a>
</g>
</g>
<!-- Node13 -->
<g id="Node000013" class="node">
<title>Node13</title>
<g id="a_Node000013"><a xlink:title=" ">
<polygon fill="#e0e0e0" stroke="#999999" points="621.88,-76 570.62,-76 570.62,-56 621.88,-56 621.88,-76"/>
<text text-anchor="middle" x="596.25" y="-62.5" font-family="Helvetica,sans-Serif" font-size="10.00">ostream</text>
</a>
</g>
</g>
<!-- Node1&#45;&gt;Node13 -->
<g id="edge12_Node000001_Node000013" class="edge">
<title>Node1&#45;&gt;Node13</title>
<g id="a_edge12_Node000001_Node000013"><a xlink:title=" ">
<path fill="none" stroke="#63b8ff" d="M535.37,-111.55C547.35,-102.78 562.32,-91.83 574.42,-82.97"/>
<polygon fill="#63b8ff" stroke="#63b8ff" points="576.17,-86.03 582.17,-77.3 572.03,-80.38 576.17,-86.03"/>
</a>
</g>
</g>
<!-- Node14 -->
<g id="Node000014" class="node">
<title>Node14</title>
<g id="a_Node000014"><a xlink:href="_system_allocator_8h.html" target="_top" xlink:title=" ">
<polygon fill="white" stroke="#666666" points="736.38,-76 640.12,-76 640.12,-56 736.38,-56 736.38,-76"/>
<text text-anchor="middle" x="688.25" y="-62.5" font-family="Helvetica,sans-Serif" font-size="10.00">SystemAllocator.h</text>
</a>
</g>
</g>
<!-- Node1&#45;&gt;Node14 -->
<g id="edge13_Node000001_Node000014" class="edge">
<title>Node1&#45;&gt;Node14</title>
<g id="a_edge13_Node000001_Node000014"><a xlink:title=" ">
<path fill="none" stroke="#63b8ff" d="M559.06,-111.55C587.17,-101.86 623.02,-89.49 649.83,-80.25"/>
<polygon fill="#63b8ff" stroke="#63b8ff" points="650.97,-83.56 659.28,-76.99 648.69,-76.94 650.97,-83.56"/>
</a>
</g>
</g>
<!-- Node3 -->
<g id="Node000003" class="node">
<title>Node3</title>
<g id="a_Node000003"><a xlink:title=" ">
<polygon fill="#e0e0e0" stroke="#999999" points="62.5,-20 0,-20 0,0 62.5,0 62.5,-20"/>
<text text-anchor="middle" x="31.25" y="-6.5" font-family="Helvetica,sans-Serif" font-size="10.00">windows.h</text>
</a>
</g>
</g>
<!-- Node2&#45;&gt;Node3 -->
<g id="edge2_Node000002_Node000003" class="edge">
<title>Node2&#45;&gt;Node3</title>
<g id="a_edge2_Node000002_Node000003"><a xlink:title=" ">
<path fill="none" stroke="#63b8ff" d="M242.78,-55.51C200.81,-47.06 137.64,-34.2 73.77,-20.51"/>
<polygon fill="#63b8ff" stroke="#63b8ff" points="74.67,-17.13 64.16,-18.45 73.2,-23.97 74.67,-17.13"/>
</a>
</g>
</g>
<!-- Node4 -->
<g id="Node000004" class="node">
<title>Node4</title>
<g id="a_Node000004"><a xlink:title=" ">
<polygon fill="#e0e0e0" stroke="#999999" points="128.38,-20 80.12,-20 80.12,0 128.38,0 128.38,-20"/>
<text text-anchor="middle" x="104.25" y="-6.5" font-family="Helvetica,sans-Serif" font-size="10.00">cassert</text>
</a>
</g>
</g>
<!-- Node2&#45;&gt;Node4 -->
<g id="edge3_Node000002_Node000004" class="edge">
<title>Node2&#45;&gt;Node4</title>
<g id="a_edge3_Node000002_Node000004"><a xlink:title=" ">
<path fill="none" stroke="#63b8ff" d="M257.85,-55.59C224.84,-46.01 173.79,-31.19 139.71,-21.3"/>
<polygon fill="#63b8ff" stroke="#63b8ff" points="140.89,-17.99 130.31,-18.57 138.94,-24.72 140.89,-17.99"/>
</a>
</g>
</g>
<!-- Node5 -->
<g id="Node000005" class="node">
<title>Node5</title>
<g id="a_Node000005"><a xlink:title=" ">
<polygon fill="#e0e0e0" stroke="#999999" points="194.38,-20 146.12,-20 146.12,0 194.38,0 194.38,-20"/>
<text text-anchor="middle" x="170.25" y="-6.5" font-family="Helvetica,sans-Serif" font-size="10.00">cstddef</text>
</a>
</g>
</g>
<!-- Node2&#45;&gt;Node5 -->
<g id="edge4_Node000002_Node000005" class="edge">
<title>Node2&#45;&gt;Node5</title>
<g id="a_edge4_Node000002_Node000005"><a xlink:title=" ">
<path fill="none" stroke="#63b8ff" d="M269.35,-55.59C250.62,-47.17 222.89,-34.69 201.53,-25.07"/>
<polygon fill="#63b8ff" stroke="#63b8ff" points="203.25,-22.01 192.7,-21.1 200.38,-28.4 203.25,-22.01"/>
</a>
</g>
</g>
<!-- Node6 -->
<g id="Node000006" class="node">
<title>Node6</title>
<g id="a_Node000006"><a xlink:title=" ">
<polygon fill="#e0e0e0" stroke="#999999" points="257.88,-20 212.62,-20 212.62,0 257.88,0 257.88,-20"/>
<text text-anchor="middle" x="235.25" y="-6.5" font-family="Helvetica,sans-Serif" font-size="10.00">cstdint</text>
</a>
</g>
</g>
<!-- Node2&#45;&gt;Node6 -->
<g id="edge5_Node000002_Node000006" class="edge">
<title>Node2&#45;&gt;Node6</title>
<g id="a_edge5_Node000002_Node000006"><a xlink:title=" ">
<path fill="none" stroke="#63b8ff" d="M280.67,-55.59C273.02,-48.08 262.09,-37.35 252.87,-28.3"/>
<polygon fill="#63b8ff" stroke="#63b8ff" points="255.39,-25.87 245.8,-21.36 250.48,-30.86 255.39,-25.87"/>
</a>
</g>
</g>
<!-- Node7 -->
<g id="Node000007" class="node">
<title>Node7</title>
<g id="a_Node000007"><a xlink:title=" ">
<polygon fill="#e0e0e0" stroke="#999999" points="328.62,-20 275.88,-20 275.88,0 328.62,0 328.62,-20"/>
<text text-anchor="middle" x="302.25" y="-6.5" font-family="Helvetica,sans-Serif" font-size="10.00">cstdbool</text>
</a>
</g>
</g>
<!-- Node2&#45;&gt;Node7 -->
<g id="edge6_Node000002_Node000007" class="edge">
<title>Node2&#45;&gt;Node7</title>
<g id="a_edge6_Node000002_Node000007"><a xlink:title=" ">
<path fill="none" stroke="#63b8ff" d="M292.34,-55.59C293.82,-48.93 295.86,-39.75 297.71,-31.44"/>
<polygon fill="#63b8ff" stroke="#63b8ff" points="301.1,-32.3 299.86,-21.78 294.27,-30.78 301.1,-32.3"/>
</a>
</g>
</g>
<!-- Node8 -->
<g id="Node000008" class="node">
<title>Node8</title>
<g id="a_Node000008"><a xlink:title=" ">
<polygon fill="#e0e0e0" stroke="#999999" points="386.25,-20 346.25,-20 346.25,0 386.25,0 386.25,-20"/>
<text text-anchor="middle" x="366.25" y="-6.5" font-family="Helvetica,sans-Serif" font-size="10.00">string</text>
</a>
</g>
</g>
<!-- Node2&#45;&gt;Node8 -->
<g id="edge7_Node000002_Node000008" class="edge">
<title>Node2&#45;&gt;Node8</title>
<g id="a_edge7_Node000002_Node000008"><a xlink:title=" ">
<path fill="none" stroke="#63b8ff" d="M303.49,-55.59C314.54,-47.74 330.53,-36.38 343.61,-27.09"/>
<polygon fill="#63b8ff" stroke="#63b8ff" points="345.55,-30 351.67,-21.36 341.5,-24.3 345.55,-30"/>
</a>
</g>
</g>
<!-- Node9 -->
<g id="Node000009" class="node">
<title>Node9</title>
<g id="a_Node000009"><a xlink:title=" ">
<polygon fill="#e0e0e0" stroke="#999999" points="458.38,-20 404.12,-20 404.12,0 458.38,0 458.38,-20"/>
<text text-anchor="middle" x="431.25" y="-6.5" font-family="Helvetica,sans-Serif" font-size="10.00">crtdefs.h</text>
</a>
</g>
</g>
<!-- Node2&#45;&gt;Node9 -->
<g id="edge8_Node000002_Node000009" class="edge">
<title>Node2&#45;&gt;Node9</title>
<g id="a_edge8_Node000002_Node000009"><a xlink:title=" ">
<path fill="none" stroke="#63b8ff" d="M314.81,-55.59C337.22,-47.01 370.59,-34.23 395.87,-24.55"/>
<polygon fill="#63b8ff" stroke="#63b8ff" points="397,-27.87 405.08,-21.02 394.49,-21.33 397,-27.87"/>
</a>
</g>
</g>
<!-- Node10 -->
<g id="Node000010" class="node">
<title>Node10</title>
<g id="a_Node000010"><a xlink:title=" ">
<polygon fill="#e0e0e0" stroke="#999999" points="636.25,-20 476.25,-20 476.25,0 636.25,0 636.25,-20"/>
<text text-anchor="middle" x="556.25" y="-6.5" font-family="Helvetica,sans-Serif" font-size="10.00">../src/memory/SystemAllocator.h</text>
</a>
</g>
</g>
<!-- Node2&#45;&gt;Node10 -->
<g id="edge9_Node000002_Node000010" class="edge">
<title>Node2&#45;&gt;Node10</title>
<g id="a_edge9_Node000002_Node000010"><a xlink:title=" ">
<path fill="none" stroke="#63b8ff" d="M336.89,-55.53C381.86,-46.4 450.03,-32.56 498.43,-22.74"/>
<polygon fill="#63b8ff" stroke="#63b8ff" points="499.08,-26.18 508.18,-20.76 497.69,-19.32 499.08,-26.18"/>
</a>
</g>
</g>
<!-- Node15 -->
<g id="Node000015" class="node">
<title>Node15</title>
<g id="a_Node000015"><a xlink:title=" ">
<polygon fill="#e0e0e0" stroke="#999999" points="710.5,-20 666,-20 666,0 710.5,0 710.5,-20"/>
<text text-anchor="middle" x="688.25" y="-6.5" font-family="Helvetica,sans-Serif" font-size="10.00">cstdlib</text>
</a>
</g>
</g>
<!-- Node14&#45;&gt;Node15 -->
<g id="edge14_Node000014_Node000015" class="edge">
<title>Node14&#45;&gt;Node15</title>
<g id="a_edge14_Node000014_Node000015"><a xlink:title=" ">
<path fill="none" stroke="#63b8ff" d="M688.25,-55.59C688.25,-49.01 688.25,-39.96 688.25,-31.73"/>
<polygon fill="#63b8ff" stroke="#63b8ff" points="691.75,-31.81 688.25,-21.81 684.75,-31.81 691.75,-31.81"/>
</a>
</g>
</g>
</g>
</svg>
