<?xml version="1.0" encoding="UTF-8" standalone="no"?>
<!DOCTYPE svg PUBLIC "-//W3C//DTD SVG 1.1//EN"
 "http://www.w3.org/Graphics/SVG/1.1/DTD/svg11.dtd">
<!-- Generated by graphviz version 12.2.1 (20241206.2353)
 -->
<!-- Title: FIEAGameEngine/include/Content/Actions/WhileActionList.h Pages: 1 -->
<svg width="754pt" height="132pt"
 viewBox="0.00 0.00 753.75 132.00" xmlns="http://www.w3.org/2000/svg" xmlns:xlink="http://www.w3.org/1999/xlink">
<g id="graph0" class="graph" transform="scale(1 1) rotate(0) translate(4 128)">
<title>FIEAGameEngine/include/Content/Actions/WhileActionList.h</title>
<!-- Node1 -->
<g id="Node000001" class="node">
<title>Node1</title>
<g id="a_Node000001"><a xlink:title=" ">
<polygon fill="#999999" stroke="#666666" points="463.75,-124 318.75,-124 318.75,-80 463.75,-80 463.75,-124"/>
<text text-anchor="start" x="326.75" y="-110.5" font-family="Helvetica,sans-Serif" font-size="10.00">FIEAGameEngine/include</text>
<text text-anchor="start" x="326.75" y="-98.5" font-family="Helvetica,sans-Serif" font-size="10.00">/Content/Actions/WhileAction</text>
<text text-anchor="middle" x="391.25" y="-86.5" font-family="Helvetica,sans-Serif" font-size="10.00">List.h</text>
</a>
</g>
</g>
<!-- Node2 -->
<g id="Node000002" class="node">
<title>Node2</title>
<g id="a_Node000002"><a xlink:href="_action_handler_8cpp.html" target="_top" xlink:title=" ">
<polygon fill="white" stroke="#666666" points="134.5,-38 0,-38 0,-6 134.5,-6 134.5,-38"/>
<text text-anchor="start" x="8" y="-24.5" font-family="Helvetica,sans-Serif" font-size="10.00">FIEAGameEngine/src</text>
<text text-anchor="middle" x="67.25" y="-12.5" font-family="Helvetica,sans-Serif" font-size="10.00">/content/ActionHandler.cpp</text>
</a>
</g>
</g>
<!-- Node1&#45;&gt;Node2 -->
<g id="edge1_Node000001_Node000002" class="edge">
<title>Node1&#45;&gt;Node2</title>
<g id="a_edge1_Node000001_Node000002"><a xlink:title=" ">
<path fill="none" stroke="#63b8ff" d="M307.34,-82.67C259.2,-71.92 197.69,-57.77 143.25,-44 136.35,-42.25 129.12,-40.35 121.97,-38.43"/>
<polygon fill="#63b8ff" stroke="#63b8ff" points="306.34,-86.03 316.87,-84.79 307.87,-79.2 306.34,-86.03"/>
</a>
</g>
</g>
<!-- Node3 -->
<g id="Node000003" class="node">
<title>Node3</title>
<g id="a_Node000003"><a xlink:href="_action_list_handler_8cpp.html" target="_top" xlink:title=" ">
<polygon fill="white" stroke="#666666" points="302.38,-38 152.12,-38 152.12,-6 302.38,-6 302.38,-38"/>
<text text-anchor="start" x="160.12" y="-24.5" font-family="Helvetica,sans-Serif" font-size="10.00">FIEAGameEngine/src</text>
<text text-anchor="middle" x="227.25" y="-12.5" font-family="Helvetica,sans-Serif" font-size="10.00">/content/ActionListHandler.cpp</text>
</a>
</g>
</g>
<!-- Node1&#45;&gt;Node3 -->
<g id="edge2_Node000001_Node000003" class="edge">
<title>Node1&#45;&gt;Node3</title>
<g id="a_edge2_Node000001_Node000003"><a xlink:title=" ">
<path fill="none" stroke="#63b8ff" d="M336.2,-74.82C310.83,-62.75 281.58,-48.84 259.79,-38.47"/>
<polygon fill="#63b8ff" stroke="#63b8ff" points="334.54,-77.9 345.07,-79.04 337.54,-71.58 334.54,-77.9"/>
</a>
</g>
</g>
<!-- Node4 -->
<g id="Node000004" class="node">
<title>Node4</title>
<g id="a_Node000004"><a xlink:href="_while_action_list_8cpp.html" target="_top" xlink:title=" ">
<polygon fill="white" stroke="#666666" points="461.88,-44 320.62,-44 320.62,0 461.88,0 461.88,-44"/>
<text text-anchor="start" x="328.62" y="-30.5" font-family="Helvetica,sans-Serif" font-size="10.00">FIEAGameEngine/src</text>
<text text-anchor="start" x="328.62" y="-18.5" font-family="Helvetica,sans-Serif" font-size="10.00">/content/actions/WhileAction</text>
<text text-anchor="middle" x="391.25" y="-6.5" font-family="Helvetica,sans-Serif" font-size="10.00">List.cpp</text>
</a>
</g>
</g>
<!-- Node1&#45;&gt;Node4 -->
<g id="edge3_Node000001_Node000004" class="edge">
<title>Node1&#45;&gt;Node4</title>
<g id="a_edge3_Node000001_Node000004"><a xlink:title=" ">
<path fill="none" stroke="#63b8ff" d="M391.25,-68.25C391.25,-60.15 391.25,-51.68 391.25,-44.29"/>
<polygon fill="#63b8ff" stroke="#63b8ff" points="387.75,-68.17 391.25,-78.17 394.75,-68.17 387.75,-68.17"/>
</a>
</g>
</g>
<!-- Node5 -->
<g id="Node000005" class="node">
<title>Node5</title>
<g id="a_Node000005"><a xlink:href="_action_test_8cpp.html" target="_top" xlink:title=" ">
<polygon fill="white" stroke="#666666" points="588.38,-32 480.12,-32 480.12,-12 588.38,-12 588.38,-32"/>
<text text-anchor="middle" x="534.25" y="-18.5" font-family="Helvetica,sans-Serif" font-size="10.00">Tests/ActionTest.cpp</text>
</a>
</g>
</g>
<!-- Node1&#45;&gt;Node5 -->
<g id="edge4_Node000001_Node000005" class="edge">
<title>Node1&#45;&gt;Node5</title>
<g id="a_edge4_Node000001_Node000005"><a xlink:title=" ">
<path fill="none" stroke="#63b8ff" d="M440.23,-74.28C466.76,-59.81 497.9,-42.83 516.84,-32.5"/>
<polygon fill="#63b8ff" stroke="#63b8ff" points="438.76,-71.1 431.65,-78.96 442.11,-77.25 438.76,-71.1"/>
</a>
</g>
</g>
<!-- Node6 -->
<g id="Node000006" class="node">
<title>Node6</title>
<g id="a_Node000006"><a xlink:href="_serialization_tests_8cpp.html" target="_top" xlink:title=" ">
<polygon fill="white" stroke="#666666" points="745.75,-32 606.75,-32 606.75,-12 745.75,-12 745.75,-32"/>
<text text-anchor="middle" x="676.25" y="-18.5" font-family="Helvetica,sans-Serif" font-size="10.00">Tests/SerializationTests.cpp</text>
</a>
</g>
</g>
<!-- Node1&#45;&gt;Node6 -->
<g id="edge5_Node000001_Node000006" class="edge">
<title>Node1&#45;&gt;Node6</title>
<g id="a_edge5_Node000001_Node000006"><a xlink:title=" ">
<path fill="none" stroke="#63b8ff" d="M474.82,-78.13C530.45,-62.9 600.62,-43.7 641.75,-32.44"/>
<polygon fill="#63b8ff" stroke="#63b8ff" points="474.09,-74.7 465.36,-80.72 475.93,-81.45 474.09,-74.7"/>
</a>
</g>
</g>
</g>
</svg>
