<?xml version="1.0" encoding="UTF-8" standalone="no"?>
<!DOCTYPE svg PUBLIC "-//W3C//DTD SVG 1.1//EN"
 "http://www.w3.org/Graphics/SVG/1.1/DTD/svg11.dtd">
<!-- Generated by graphviz version 12.2.1 (20241206.2353)
 -->
<!-- Title: FIEAGameEngine/include/Content/Actions/WhileActionList.h Pages: 1 -->
<svg width="926pt" height="500pt"
 viewBox="0.00 0.00 925.99 500.00" xmlns="http://www.w3.org/2000/svg" xmlns:xlink="http://www.w3.org/1999/xlink">
<g id="graph0" class="graph" transform="scale(1 1) rotate(0) translate(4 496)">
<title>FIEAGameEngine/include/Content/Actions/WhileActionList.h</title>
<!-- Node1 -->
<g id="Node000001" class="node">
<title>Node1</title>
<g id="a_Node000001"><a xlink:title=" ">
<polygon fill="#999999" stroke="#666666" points="669.75,-492 524.75,-492 524.75,-448 669.75,-448 669.75,-492"/>
<text text-anchor="start" x="532.75" y="-478.5" font-family="Helvetica,sans-Serif" font-size="10.00">FIEAGameEngine/include</text>
<text text-anchor="start" x="532.75" y="-466.5" font-family="Helvetica,sans-Serif" font-size="10.00">/Content/Actions/WhileAction</text>
<text text-anchor="middle" x="597.25" y="-454.5" font-family="Helvetica,sans-Serif" font-size="10.00">List.h</text>
</a>
</g>
</g>
<!-- Node2 -->
<g id="Node000002" class="node">
<title>Node2</title>
<g id="a_Node000002"><a xlink:href="_action_list_8h.html" target="_top" xlink:title=" ">
<polygon fill="white" stroke="#666666" points="631.12,-412 563.38,-412 563.38,-392 631.12,-392 631.12,-412"/>
<text text-anchor="middle" x="597.25" y="-398.5" font-family="Helvetica,sans-Serif" font-size="10.00">ActionList.h</text>
</a>
</g>
</g>
<!-- Node1&#45;&gt;Node2 -->
<g id="edge1_Node000001_Node000002" class="edge">
<title>Node1&#45;&gt;Node2</title>
<g id="a_edge1_Node000001_Node000002"><a xlink:title=" ">
<path fill="none" stroke="#63b8ff" d="M597.25,-447.75C597.25,-440.13 597.25,-431.53 597.25,-423.93"/>
<polygon fill="#63b8ff" stroke="#63b8ff" points="600.75,-423.93 597.25,-413.93 593.75,-423.93 600.75,-423.93"/>
</a>
</g>
</g>
<!-- Node3 -->
<g id="Node000003" class="node">
<title>Node3</title>
<g id="a_Node000003"><a xlink:href="_action_8h.html" target="_top" xlink:title=" ">
<polygon fill="white" stroke="#666666" points="623.25,-356 571.25,-356 571.25,-336 623.25,-336 623.25,-356"/>
<text text-anchor="middle" x="597.25" y="-342.5" font-family="Helvetica,sans-Serif" font-size="10.00">Action.h</text>
</a>
</g>
</g>
<!-- Node2&#45;&gt;Node3 -->
<g id="edge2_Node000002_Node000003" class="edge">
<title>Node2&#45;&gt;Node3</title>
<g id="a_edge2_Node000002_Node000003"><a xlink:title=" ">
<path fill="none" stroke="#63b8ff" d="M597.25,-391.59C597.25,-385.01 597.25,-375.96 597.25,-367.73"/>
<polygon fill="#63b8ff" stroke="#63b8ff" points="600.75,-367.81 597.25,-357.81 593.75,-367.81 600.75,-367.81"/>
</a>
</g>
</g>
<!-- Node4 -->
<g id="Node000004" class="node">
<title>Node4</title>
<g id="a_Node000004"><a xlink:href="_attributed_8h.html" target="_top" xlink:title=" ">
<polygon fill="white" stroke="#666666" points="634.88,-300 559.62,-300 559.62,-280 634.88,-280 634.88,-300"/>
<text text-anchor="middle" x="597.25" y="-286.5" font-family="Helvetica,sans-Serif" font-size="10.00">../Attributed.h</text>
</a>
</g>
</g>
<!-- Node3&#45;&gt;Node4 -->
<g id="edge3_Node000003_Node000004" class="edge">
<title>Node3&#45;&gt;Node4</title>
<g id="a_edge3_Node000003_Node000004"><a xlink:title=" ">
<path fill="none" stroke="#63b8ff" d="M597.25,-335.59C597.25,-329.01 597.25,-319.96 597.25,-311.73"/>
<polygon fill="#63b8ff" stroke="#63b8ff" points="600.75,-311.81 597.25,-301.81 593.75,-311.81 600.75,-311.81"/>
</a>
</g>
</g>
<!-- Node5 -->
<g id="Node000005" class="node">
<title>Node5</title>
<g id="a_Node000005"><a xlink:href="_r_t_t_i_8h.html" target="_top" xlink:title=" ">
<polygon fill="white" stroke="#666666" points="892.12,-132 764.38,-132 764.38,-112 892.12,-112 892.12,-132"/>
<text text-anchor="middle" x="828.25" y="-118.5" font-family="Helvetica,sans-Serif" font-size="10.00">FIEAGameEngine/RTTI.h</text>
</a>
</g>
</g>
<!-- Node4&#45;&gt;Node5 -->
<g id="edge4_Node000004_Node000005" class="edge">
<title>Node4&#45;&gt;Node5</title>
<g id="a_edge4_Node000004_Node000005"><a xlink:title=" ">
<path fill="none" stroke="#63b8ff" d="M610.33,-279.6C648.29,-252.32 758.77,-172.93 806.2,-138.85"/>
<polygon fill="#63b8ff" stroke="#63b8ff" points="808,-141.86 814.08,-133.18 803.92,-136.17 808,-141.86"/>
</a>
</g>
</g>
<!-- Node16 -->
<g id="Node000016" class="node">
<title>Node16</title>
<g id="a_Node000016"><a xlink:href="_scope_8h.html" target="_top" xlink:title=" ">
<polygon fill="white" stroke="#666666" points="551.25,-244 499.25,-244 499.25,-224 551.25,-224 551.25,-244"/>
<text text-anchor="middle" x="525.25" y="-230.5" font-family="Helvetica,sans-Serif" font-size="10.00">Scope.h</text>
</a>
</g>
</g>
<!-- Node4&#45;&gt;Node16 -->
<g id="edge16_Node000004_Node000016" class="edge">
<title>Node4&#45;&gt;Node16</title>
<g id="a_edge16_Node000004_Node000016"><a xlink:title=" ">
<path fill="none" stroke="#63b8ff" d="M584.71,-279.59C574.28,-271.77 559.2,-260.46 546.84,-251.19"/>
<polygon fill="#63b8ff" stroke="#63b8ff" points="548.96,-248.41 538.86,-245.21 544.76,-254.01 548.96,-248.41"/>
</a>
</g>
</g>
<!-- Node22 -->
<g id="Node000022" class="node">
<title>Node22</title>
<g id="a_Node000022"><a xlink:title=" ">
<polygon fill="#e0e0e0" stroke="#999999" points="73.75,-76 30.75,-76 30.75,-56 73.75,-56 73.75,-76"/>
<text text-anchor="middle" x="52.25" y="-62.5" font-family="Helvetica,sans-Serif" font-size="10.00">vector</text>
</a>
</g>
</g>
<!-- Node4&#45;&gt;Node22 -->
<g id="edge40_Node000004_Node000022" class="edge">
<title>Node4&#45;&gt;Node22</title>
<g id="a_edge40_Node000004_Node000022"><a xlink:title=" ">
<path fill="none" stroke="#63b8ff" d="M559.39,-287.61C480.44,-283.19 294.69,-264.76 163.25,-188 118.92,-162.11 82.03,-112.76 64.05,-85.78"/>
<polygon fill="#63b8ff" stroke="#63b8ff" points="67.11,-84.07 58.74,-77.59 61.24,-87.88 67.11,-84.07"/>
</a>
</g>
</g>
<!-- Node28 -->
<g id="Node000028" class="node">
<title>Node28</title>
<g id="a_Node000028"><a xlink:title=" ">
<polygon fill="#e0e0e0" stroke="#999999" points="756.25,-244 698.25,-244 698.25,-224 756.25,-224 756.25,-244"/>
<text text-anchor="middle" x="727.25" y="-230.5" font-family="Helvetica,sans-Serif" font-size="10.00">functional</text>
</a>
</g>
</g>
<!-- Node4&#45;&gt;Node28 -->
<g id="edge41_Node000004_Node000028" class="edge">
<title>Node4&#45;&gt;Node28</title>
<g id="a_edge41_Node000004_Node000028"><a xlink:title=" ">
<path fill="none" stroke="#63b8ff" d="M619.89,-279.59C640.37,-271.09 670.77,-258.46 694,-248.81"/>
<polygon fill="#63b8ff" stroke="#63b8ff" points="695.14,-252.13 703.03,-245.06 692.45,-245.66 695.14,-252.13"/>
</a>
</g>
</g>
<!-- Node6 -->
<g id="Node000006" class="node">
<title>Node6</title>
<g id="a_Node000006"><a xlink:href="_types_8h.html" target="_top" xlink:title=" ">
<polygon fill="white" stroke="#666666" points="334.38,-76 202.12,-76 202.12,-56 334.38,-56 334.38,-76"/>
<text text-anchor="middle" x="268.25" y="-62.5" font-family="Helvetica,sans-Serif" font-size="10.00">FIEAGameEngine/Types.h</text>
</a>
</g>
</g>
<!-- Node5&#45;&gt;Node6 -->
<g id="edge5_Node000005_Node000006" class="edge">
<title>Node5&#45;&gt;Node6</title>
<g id="a_edge5_Node000005_Node000006"><a xlink:title=" ">
<path fill="none" stroke="#63b8ff" d="M764.17,-112.99C761.15,-112.65 758.17,-112.31 755.25,-112 610.85,-96.43 442,-81.58 345.84,-73.43"/>
<polygon fill="#63b8ff" stroke="#63b8ff" points="346.25,-69.96 335.99,-72.6 345.66,-76.93 346.25,-69.96"/>
</a>
</g>
</g>
<!-- Node15 -->
<g id="Node000015" class="node">
<title>Node15</title>
<g id="a_Node000015"><a xlink:href="_r_t_t_i_8inl.html" target="_top" xlink:title=" ">
<polygon fill="white" stroke="#666666" points="892.5,-76 764,-76 764,-56 892.5,-56 892.5,-76"/>
<text text-anchor="middle" x="828.25" y="-62.5" font-family="Helvetica,sans-Serif" font-size="10.00">FieaGameEngine/RTTI.inl</text>
</a>
</g>
</g>
<!-- Node5&#45;&gt;Node15 -->
<g id="edge14_Node000005_Node000015" class="edge">
<title>Node5&#45;&gt;Node15</title>
<g id="a_edge14_Node000005_Node000015"><a xlink:title=" ">
<path fill="none" stroke="#63b8ff" d="M822.98,-111.59C821.67,-105.01 821.23,-95.96 821.66,-87.73"/>
<polygon fill="#63b8ff" stroke="#63b8ff" points="825.14,-88.14 822.83,-77.8 818.19,-87.33 825.14,-88.14"/>
</a>
</g>
</g>
<!-- Node7 -->
<g id="Node000007" class="node">
<title>Node7</title>
<g id="a_Node000007"><a xlink:title=" ">
<polygon fill="#e0e0e0" stroke="#999999" points="62.5,-20 0,-20 0,0 62.5,0 62.5,-20"/>
<text text-anchor="middle" x="31.25" y="-6.5" font-family="Helvetica,sans-Serif" font-size="10.00">windows.h</text>
</a>
</g>
</g>
<!-- Node6&#45;&gt;Node7 -->
<g id="edge6_Node000006_Node000007" class="edge">
<title>Node6&#45;&gt;Node7</title>
<g id="a_edge6_Node000006_Node000007"><a xlink:title=" ">
<path fill="none" stroke="#63b8ff" d="M226.7,-55.53C183.8,-45.76 117.2,-30.58 73.91,-20.72"/>
<polygon fill="#63b8ff" stroke="#63b8ff" points="74.89,-17.35 64.37,-18.55 73.34,-24.18 74.89,-17.35"/>
</a>
</g>
</g>
<!-- Node8 -->
<g id="Node000008" class="node">
<title>Node8</title>
<g id="a_Node000008"><a xlink:title=" ">
<polygon fill="#e0e0e0" stroke="#999999" points="128.38,-20 80.12,-20 80.12,0 128.38,0 128.38,-20"/>
<text text-anchor="middle" x="104.25" y="-6.5" font-family="Helvetica,sans-Serif" font-size="10.00">cassert</text>
</a>
</g>
</g>
<!-- Node6&#45;&gt;Node8 -->
<g id="edge7_Node000006_Node000008" class="edge">
<title>Node6&#45;&gt;Node8</title>
<g id="a_edge7_Node000006_Node000008"><a xlink:title=" ">
<path fill="none" stroke="#63b8ff" d="M239.68,-55.59C211.85,-46.43 169.48,-32.48 139.55,-22.62"/>
<polygon fill="#63b8ff" stroke="#63b8ff" points="140.78,-19.34 130.18,-19.54 138.59,-25.99 140.78,-19.34"/>
</a>
</g>
</g>
<!-- Node9 -->
<g id="Node000009" class="node">
<title>Node9</title>
<g id="a_Node000009"><a xlink:title=" ">
<polygon fill="#e0e0e0" stroke="#999999" points="194.38,-20 146.12,-20 146.12,0 194.38,0 194.38,-20"/>
<text text-anchor="middle" x="170.25" y="-6.5" font-family="Helvetica,sans-Serif" font-size="10.00">cstddef</text>
</a>
</g>
</g>
<!-- Node6&#45;&gt;Node9 -->
<g id="edge8_Node000006_Node000009" class="edge">
<title>Node6&#45;&gt;Node9</title>
<g id="a_edge8_Node000006_Node000009"><a xlink:title=" ">
<path fill="none" stroke="#63b8ff" d="M251.18,-55.59C236.37,-47.44 214.68,-35.48 197.48,-26"/>
<polygon fill="#63b8ff" stroke="#63b8ff" points="199.23,-22.97 188.78,-21.21 195.85,-29.1 199.23,-22.97"/>
</a>
</g>
</g>
<!-- Node10 -->
<g id="Node000010" class="node">
<title>Node10</title>
<g id="a_Node000010"><a xlink:title=" ">
<polygon fill="#e0e0e0" stroke="#999999" points="257.88,-20 212.62,-20 212.62,0 257.88,0 257.88,-20"/>
<text text-anchor="middle" x="235.25" y="-6.5" font-family="Helvetica,sans-Serif" font-size="10.00">cstdint</text>
</a>
</g>
</g>
<!-- Node6&#45;&gt;Node10 -->
<g id="edge9_Node000006_Node000010" class="edge">
<title>Node6&#45;&gt;Node10</title>
<g id="a_edge9_Node000006_Node000010"><a xlink:title=" ">
<path fill="none" stroke="#63b8ff" d="M262.5,-55.59C258.2,-48.55 252.16,-38.67 246.86,-30"/>
<polygon fill="#63b8ff" stroke="#63b8ff" points="249.92,-28.3 241.72,-21.59 243.95,-31.95 249.92,-28.3"/>
</a>
</g>
</g>
<!-- Node11 -->
<g id="Node000011" class="node">
<title>Node11</title>
<g id="a_Node000011"><a xlink:title=" ">
<polygon fill="#e0e0e0" stroke="#999999" points="328.62,-20 275.88,-20 275.88,0 328.62,0 328.62,-20"/>
<text text-anchor="middle" x="302.25" y="-6.5" font-family="Helvetica,sans-Serif" font-size="10.00">cstdbool</text>
</a>
</g>
</g>
<!-- Node6&#45;&gt;Node11 -->
<g id="edge10_Node000006_Node000011" class="edge">
<title>Node6&#45;&gt;Node11</title>
<g id="a_edge10_Node000006_Node000011"><a xlink:title=" ">
<path fill="none" stroke="#63b8ff" d="M274.17,-55.59C278.61,-48.55 284.83,-38.67 290.29,-30"/>
<polygon fill="#63b8ff" stroke="#63b8ff" points="293.22,-31.91 295.59,-21.58 287.3,-28.18 293.22,-31.91"/>
</a>
</g>
</g>
<!-- Node12 -->
<g id="Node000012" class="node">
<title>Node12</title>
<g id="a_Node000012"><a xlink:title=" ">
<polygon fill="#e0e0e0" stroke="#999999" points="637.25,-20 597.25,-20 597.25,0 637.25,0 637.25,-20"/>
<text text-anchor="middle" x="617.25" y="-6.5" font-family="Helvetica,sans-Serif" font-size="10.00">string</text>
</a>
</g>
</g>
<!-- Node6&#45;&gt;Node12 -->
<g id="edge11_Node000006_Node000012" class="edge">
<title>Node6&#45;&gt;Node12</title>
<g id="a_edge11_Node000006_Node000012"><a xlink:title=" ">
<path fill="none" stroke="#63b8ff" d="M334.83,-56.92C409.07,-47.7 525.64,-32.55 585.57,-20.23"/>
<polygon fill="#63b8ff" stroke="#63b8ff" points="586.25,-23.66 595.29,-18.13 584.77,-16.82 586.25,-23.66"/>
</a>
</g>
</g>
<!-- Node13 -->
<g id="Node000013" class="node">
<title>Node13</title>
<g id="a_Node000013"><a xlink:title=" ">
<polygon fill="#e0e0e0" stroke="#999999" points="401.38,-20 347.12,-20 347.12,0 401.38,0 401.38,-20"/>
<text text-anchor="middle" x="374.25" y="-6.5" font-family="Helvetica,sans-Serif" font-size="10.00">crtdefs.h</text>
</a>
</g>
</g>
<!-- Node6&#45;&gt;Node13 -->
<g id="edge12_Node000006_Node000013" class="edge">
<title>Node6&#45;&gt;Node13</title>
<g id="a_edge12_Node000006_Node000013"><a xlink:title=" ">
<path fill="none" stroke="#63b8ff" d="M286.71,-55.59C302.95,-47.32 326.86,-35.14 345.58,-25.6"/>
<polygon fill="#63b8ff" stroke="#63b8ff" points="346.97,-28.82 354.29,-21.17 343.79,-22.59 346.97,-28.82"/>
</a>
</g>
</g>
<!-- Node14 -->
<g id="Node000014" class="node">
<title>Node14</title>
<g id="a_Node000014"><a xlink:title=" ">
<polygon fill="#e0e0e0" stroke="#999999" points="579.25,-20 419.25,-20 419.25,0 579.25,0 579.25,-20"/>
<text text-anchor="middle" x="499.25" y="-6.5" font-family="Helvetica,sans-Serif" font-size="10.00">../src/memory/SystemAllocator.h</text>
</a>
</g>
</g>
<!-- Node6&#45;&gt;Node14 -->
<g id="edge13_Node000006_Node000014" class="edge">
<title>Node6&#45;&gt;Node14</title>
<g id="a_edge13_Node000006_Node000014"><a xlink:title=" ">
<path fill="none" stroke="#63b8ff" d="M308.75,-55.53C347.39,-46.5 405.76,-32.85 447.7,-23.05"/>
<polygon fill="#63b8ff" stroke="#63b8ff" points="448.38,-26.49 457.32,-20.8 446.79,-19.67 448.38,-26.49"/>
</a>
</g>
</g>
<!-- Node15&#45;&gt;Node5 -->
<g id="edge15_Node000015_Node000005" class="edge">
<title>Node15&#45;&gt;Node5</title>
<g id="a_edge15_Node000015_Node000005"><a xlink:title=" ">
<path fill="none" stroke="#63b8ff" d="M833.5,-76.3C834.84,-82.93 835.28,-92.11 834.83,-100.43"/>
<polygon fill="#63b8ff" stroke="#63b8ff" points="831.38,-99.75 833.69,-110.09 838.33,-100.57 831.38,-99.75"/>
</a>
</g>
</g>
<!-- Node16&#45;&gt;Node5 -->
<g id="edge17_Node000016_Node000005" class="edge">
<title>Node16&#45;&gt;Node5</title>
<g id="a_edge17_Node000016_Node000005"><a xlink:title=" ">
<path fill="none" stroke="#63b8ff" d="M543.84,-223.51C577.21,-206.52 644.87,-172.26 656.25,-168 693.52,-154.05 736.87,-142.73 770.73,-134.94"/>
<polygon fill="#63b8ff" stroke="#63b8ff" points="771.37,-138.39 780.35,-132.77 769.83,-131.56 771.37,-138.39"/>
</a>
</g>
</g>
<!-- Node17 -->
<g id="Node000017" class="node">
<title>Node17</title>
<g id="a_Node000017"><a xlink:href="_datum_8h.html" target="_top" xlink:title=" ">
<polygon fill="white" stroke="#666666" points="552,-188 498.5,-188 498.5,-168 552,-168 552,-188"/>
<text text-anchor="middle" x="525.25" y="-174.5" font-family="Helvetica,sans-Serif" font-size="10.00">Datum.h</text>
</a>
</g>
</g>
<!-- Node16&#45;&gt;Node17 -->
<g id="edge18_Node000016_Node000017" class="edge">
<title>Node16&#45;&gt;Node17</title>
<g id="a_edge18_Node000016_Node000017"><a xlink:title=" ">
<path fill="none" stroke="#63b8ff" d="M525.25,-223.59C525.25,-217.01 525.25,-207.96 525.25,-199.73"/>
<polygon fill="#63b8ff" stroke="#63b8ff" points="528.75,-199.81 525.25,-189.81 521.75,-199.81 528.75,-199.81"/>
</a>
</g>
</g>
<!-- Node16&#45;&gt;Node22 -->
<g id="edge27_Node000016_Node000022" class="edge">
<title>Node16&#45;&gt;Node22</title>
<g id="a_edge27_Node000016_Node000022"><a xlink:title=" ">
<path fill="none" stroke="#63b8ff" d="M498.76,-232.14C446.06,-229.75 324.87,-220.83 229.25,-188 163.52,-165.44 99.53,-111.43 69.7,-83.85"/>
<polygon fill="#63b8ff" stroke="#63b8ff" points="72.35,-81.54 62.67,-77.23 67.55,-86.64 72.35,-81.54"/>
</a>
</g>
</g>
<!-- Node23 -->
<g id="Node000023" class="node">
<title>Node23</title>
<g id="a_Node000023"><a xlink:title=" ">
<polygon fill="#e0e0e0" stroke="#999999" points="174.62,-76 91.88,-76 91.88,-56 174.62,-56 174.62,-76"/>
<text text-anchor="middle" x="133.25" y="-62.5" font-family="Helvetica,sans-Serif" font-size="10.00">unordered_map</text>
</a>
</g>
</g>
<!-- Node16&#45;&gt;Node23 -->
<g id="edge28_Node000016_Node000023" class="edge">
<title>Node16&#45;&gt;Node23</title>
<g id="a_edge28_Node000016_Node000023"><a xlink:title=" ">
<path fill="none" stroke="#63b8ff" d="M498.76,-232.14C446.06,-229.75 324.87,-220.83 229.25,-188 181.07,-171.46 155.01,-175.95 129.25,-132 121.37,-118.56 123.13,-100.75 126.44,-87.17"/>
<polygon fill="#63b8ff" stroke="#63b8ff" points="129.8,-88.18 129.25,-77.59 123.08,-86.2 129.8,-88.18"/>
</a>
</g>
</g>
<!-- Node24 -->
<g id="Node000024" class="node">
<title>Node24</title>
<g id="a_Node000024"><a xlink:title=" ">
<polygon fill="#e0e0e0" stroke="#999999" points="604.62,-188 569.88,-188 569.88,-168 604.62,-168 604.62,-188"/>
<text text-anchor="middle" x="587.25" y="-174.5" font-family="Helvetica,sans-Serif" font-size="10.00">map</text>
</a>
</g>
</g>
<!-- Node16&#45;&gt;Node24 -->
<g id="edge29_Node000016_Node000024" class="edge">
<title>Node16&#45;&gt;Node24</title>
<g id="a_edge29_Node000016_Node000024"><a xlink:title=" ">
<path fill="none" stroke="#63b8ff" d="M536.05,-223.59C544.85,-215.93 557.5,-204.91 568.02,-195.75"/>
<polygon fill="#63b8ff" stroke="#63b8ff" points="570.19,-198.5 575.43,-189.29 565.59,-193.22 570.19,-198.5"/>
</a>
</g>
</g>
<!-- Node25 -->
<g id="Node000025" class="node">
<title>Node25</title>
<g id="a_Node000025"><a xlink:href="_factory_service_8h.html" target="_top" xlink:title=" ">
<polygon fill="white" stroke="#666666" points="410.25,-188 238.25,-188 238.25,-168 410.25,-168 410.25,-188"/>
<text text-anchor="middle" x="324.25" y="-174.5" font-family="Helvetica,sans-Serif" font-size="10.00">FIEAGameEngine/FactoryService.h</text>
</a>
</g>
</g>
<!-- Node16&#45;&gt;Node25 -->
<g id="edge30_Node000016_Node000025" class="edge">
<title>Node16&#45;&gt;Node25</title>
<g id="a_edge30_Node000016_Node000025"><a xlink:title=" ">
<path fill="none" stroke="#63b8ff" d="M498.97,-225.94C466.36,-217.18 410.19,-202.09 370.35,-191.38"/>
<polygon fill="#63b8ff" stroke="#63b8ff" points="371.35,-188.03 360.78,-188.81 369.53,-194.79 371.35,-188.03"/>
</a>
</g>
</g>
<!-- Node17&#45;&gt;Node5 -->
<g id="edge23_Node000017_Node000005" class="edge">
<title>Node17&#45;&gt;Node5</title>
<g id="a_edge23_Node000017_Node000005"><a xlink:title=" ">
<path fill="none" stroke="#63b8ff" d="M552.32,-169.99C555.33,-169.28 558.35,-168.61 561.25,-168 625.58,-154.56 699.28,-142.38 752.93,-134.09"/>
<polygon fill="#63b8ff" stroke="#63b8ff" points="753.21,-137.59 762.56,-132.61 752.15,-130.67 753.21,-137.59"/>
</a>
</g>
</g>
<!-- Node17&#45;&gt;Node12 -->
<g id="edge19_Node000017_Node000012" class="edge">
<title>Node17&#45;&gt;Node12</title>
<g id="a_edge19_Node000017_Node000012"><a xlink:title=" ">
<path fill="none" stroke="#63b8ff" d="M552.29,-169.81C555.3,-169.14 558.33,-168.52 561.25,-168 636.06,-154.75 850.43,-188.48 901.25,-132 923.84,-106.89 923.19,-81.69 901.25,-56 869.06,-18.31 715.93,-12.01 648.85,-11.09"/>
<polygon fill="#63b8ff" stroke="#63b8ff" points="649.29,-7.59 639.26,-10.99 649.22,-14.59 649.29,-7.59"/>
</a>
</g>
</g>
<!-- Node18 -->
<g id="Node000018" class="node">
<title>Node18</title>
<g id="a_Node000018"><a xlink:title=" ">
<polygon fill="#e0e0e0" stroke="#999999" points="658.12,-132 602.38,-132 602.38,-112 658.12,-112 658.12,-132"/>
<text text-anchor="middle" x="630.25" y="-118.5" font-family="Helvetica,sans-Serif" font-size="10.00">charconv</text>
</a>
</g>
</g>
<!-- Node17&#45;&gt;Node18 -->
<g id="edge20_Node000017_Node000018" class="edge">
<title>Node17&#45;&gt;Node18</title>
<g id="a_edge20_Node000017_Node000018"><a xlink:title=" ">
<path fill="none" stroke="#63b8ff" d="M543.54,-167.59C559.55,-159.36 583.08,-147.26 601.59,-137.74"/>
<polygon fill="#63b8ff" stroke="#63b8ff" points="603.18,-140.86 610.47,-133.17 599.98,-134.63 603.18,-140.86"/>
</a>
</g>
</g>
<!-- Node19 -->
<g id="Node000019" class="node">
<title>Node19</title>
<g id="a_Node000019"><a xlink:title=" ">
<polygon fill="#e0e0e0" stroke="#999999" points="745.88,-132 676.62,-132 676.62,-112 745.88,-112 745.88,-132"/>
<text text-anchor="middle" x="711.25" y="-118.5" font-family="Helvetica,sans-Serif" font-size="10.00">glm/glm.hpp</text>
</a>
</g>
</g>
<!-- Node17&#45;&gt;Node19 -->
<g id="edge21_Node000017_Node000019" class="edge">
<title>Node17&#45;&gt;Node19</title>
<g id="a_edge21_Node000017_Node000019"><a xlink:title=" ">
<path fill="none" stroke="#63b8ff" d="M552.3,-169.15C582.61,-160.35 632.19,-145.95 667.92,-135.58"/>
<polygon fill="#63b8ff" stroke="#63b8ff" points="668.45,-139.07 677.07,-132.92 666.5,-132.35 668.45,-139.07"/>
</a>
</g>
</g>
<!-- Node20 -->
<g id="Node000020" class="node">
<title>Node20</title>
<g id="a_Node000020"><a xlink:title=" ">
<polygon fill="#e0e0e0" stroke="#999999" points="584.25,-132 466.25,-132 466.25,-112 584.25,-112 584.25,-132"/>
<text text-anchor="middle" x="525.25" y="-118.5" font-family="Helvetica,sans-Serif" font-size="10.00">glm/gtx/string_cast.hpp</text>
</a>
</g>
</g>
<!-- Node17&#45;&gt;Node20 -->
<g id="edge22_Node000017_Node000020" class="edge">
<title>Node17&#45;&gt;Node20</title>
<g id="a_edge22_Node000017_Node000020"><a xlink:title=" ">
<path fill="none" stroke="#63b8ff" d="M525.25,-167.59C525.25,-161.01 525.25,-151.96 525.25,-143.73"/>
<polygon fill="#63b8ff" stroke="#63b8ff" points="528.75,-143.81 525.25,-133.81 521.75,-143.81 528.75,-143.81"/>
</a>
</g>
</g>
<!-- Node21 -->
<g id="Node000021" class="node">
<title>Node21</title>
<g id="a_Node000021"><a xlink:href="_datum_8inl.html" target="_top" xlink:title=" ">
<polygon fill="white" stroke="#666666" points="448.25,-132 390.25,-132 390.25,-112 448.25,-112 448.25,-132"/>
<text text-anchor="middle" x="419.25" y="-118.5" font-family="Helvetica,sans-Serif" font-size="10.00">Datum.inl</text>
</a>
</g>
</g>
<!-- Node17&#45;&gt;Node21 -->
<g id="edge24_Node000017_Node000021" class="edge">
<title>Node17&#45;&gt;Node21</title>
<g id="a_edge24_Node000017_Node000021"><a xlink:title=" ">
<path fill="none" stroke="#63b8ff" d="M501.52,-167.59C483.87,-159.44 460.12,-147.48 442.58,-138"/>
<polygon fill="#63b8ff" stroke="#63b8ff" points="444.35,-134.98 433.9,-133.21 440.96,-141.11 444.35,-134.98"/>
</a>
</g>
</g>
<!-- Node21&#45;&gt;Node6 -->
<g id="edge25_Node000021_Node000006" class="edge">
<title>Node21&#45;&gt;Node6</title>
<g id="a_edge25_Node000021_Node000006"><a xlink:title=" ">
<path fill="none" stroke="#63b8ff" d="M392.95,-111.59C368.74,-102.94 332.57,-90 305.41,-80.29"/>
<polygon fill="#63b8ff" stroke="#63b8ff" points="306.78,-77.06 296.18,-76.99 304.42,-83.65 306.78,-77.06"/>
</a>
</g>
</g>
<!-- Node21&#45;&gt;Node17 -->
<g id="edge26_Node000021_Node000017" class="edge">
<title>Node21&#45;&gt;Node17</title>
<g id="a_edge26_Node000021_Node000017"><a xlink:title=" ">
<path fill="none" stroke="#63b8ff" d="M443.14,-132.48C460.82,-140.66 484.57,-152.62 502.07,-162.08"/>
<polygon fill="#63b8ff" stroke="#63b8ff" points="500.28,-165.09 510.73,-166.86 503.67,-158.96 500.28,-165.09"/>
</a>
</g>
</g>
<!-- Node25&#45;&gt;Node5 -->
<g id="edge32_Node000025_Node000005" class="edge">
<title>Node25&#45;&gt;Node5</title>
<g id="a_edge32_Node000025_Node000005"><a xlink:title=" ">
<path fill="none" stroke="#63b8ff" d="M410.57,-168.46C495.07,-160 627.78,-146.42 752.86,-132.25"/>
<polygon fill="#63b8ff" stroke="#63b8ff" points="753.12,-135.75 762.66,-131.14 752.33,-128.79 753.12,-135.75"/>
</a>
</g>
</g>
<!-- Node25&#45;&gt;Node6 -->
<g id="edge31_Node000025_Node000006" class="edge">
<title>Node25&#45;&gt;Node6</title>
<g id="a_edge31_Node000025_Node000006"><a xlink:title=" ">
<path fill="none" stroke="#63b8ff" d="M322.76,-167.73C320.4,-154.7 315.03,-130.5 305.25,-112 300.02,-102.1 292.39,-92.35 285.42,-84.47"/>
<polygon fill="#63b8ff" stroke="#63b8ff" points="288.12,-82.23 278.75,-77.29 283,-87 288.12,-82.23"/>
</a>
</g>
</g>
<!-- Node25&#45;&gt;Node12 -->
<g id="edge37_Node000025_Node000012" class="edge">
<title>Node25&#45;&gt;Node12</title>
<g id="a_edge37_Node000025_Node000012"><a xlink:title=" ">
<path fill="none" stroke="#63b8ff" d="M330.24,-167.87C339.66,-154.13 359.14,-128.04 381.25,-112 415.76,-86.97 530.5,-42.94 586.28,-22.29"/>
<polygon fill="#63b8ff" stroke="#63b8ff" points="587.32,-25.63 595.5,-18.89 584.9,-19.07 587.32,-25.63"/>
</a>
</g>
</g>
<!-- Node25&#45;&gt;Node23 -->
<g id="edge39_Node000025_Node000023" class="edge">
<title>Node25&#45;&gt;Node23</title>
<g id="a_edge39_Node000025_Node000023"><a xlink:title=" ">
<path fill="none" stroke="#63b8ff" d="M253.45,-167.57C209.36,-160.2 158.26,-148.44 143.25,-132 132.41,-120.13 130.47,-101.66 130.92,-87.44"/>
<polygon fill="#63b8ff" stroke="#63b8ff" points="134.38,-88.05 131.65,-77.82 127.4,-87.52 134.38,-88.05"/>
</a>
</g>
</g>
<!-- Node26 -->
<g id="Node000026" class="node">
<title>Node26</title>
<g id="a_Node000026"><a xlink:href="_service_mgr_8h.html" target="_top" xlink:title=" ">
<polygon fill="white" stroke="#666666" points="296.12,-132 222.38,-132 222.38,-112 296.12,-112 296.12,-132"/>
<text text-anchor="middle" x="259.25" y="-118.5" font-family="Helvetica,sans-Serif" font-size="10.00">ServiceMgr.h</text>
</a>
</g>
</g>
<!-- Node25&#45;&gt;Node26 -->
<g id="edge33_Node000025_Node000026" class="edge">
<title>Node25&#45;&gt;Node26</title>
<g id="a_edge33_Node000025_Node000026"><a xlink:title=" ">
<path fill="none" stroke="#63b8ff" d="M312.93,-167.59C303.61,-159.85 290.17,-148.69 279.07,-139.47"/>
<polygon fill="#63b8ff" stroke="#63b8ff" points="281.54,-136.96 271.61,-133.27 277.06,-142.35 281.54,-136.96"/>
</a>
</g>
</g>
<!-- Node27 -->
<g id="Node000027" class="node">
<title>Node27</title>
<g id="a_Node000027"><a xlink:title=" ">
<polygon fill="#e0e0e0" stroke="#999999" points="203.88,-132 152.62,-132 152.62,-112 203.88,-112 203.88,-132"/>
<text text-anchor="middle" x="178.25" y="-118.5" font-family="Helvetica,sans-Serif" font-size="10.00">memory</text>
</a>
</g>
</g>
<!-- Node25&#45;&gt;Node27 -->
<g id="edge38_Node000025_Node000027" class="edge">
<title>Node25&#45;&gt;Node27</title>
<g id="a_edge38_Node000025_Node000027"><a xlink:title=" ">
<path fill="none" stroke="#63b8ff" d="M298.82,-167.59C275.51,-158.97 240.75,-146.12 214.53,-136.42"/>
<polygon fill="#63b8ff" stroke="#63b8ff" points="215.89,-133.19 205.3,-133 213.46,-139.76 215.89,-133.19"/>
</a>
</g>
</g>
<!-- Node26&#45;&gt;Node6 -->
<g id="edge34_Node000026_Node000006" class="edge">
<title>Node26&#45;&gt;Node6</title>
<g id="a_edge34_Node000026_Node000006"><a xlink:title=" ">
<path fill="none" stroke="#63b8ff" d="M260.82,-111.59C261.93,-104.93 263.46,-95.75 264.84,-87.44"/>
<polygon fill="#63b8ff" stroke="#63b8ff" points="268.26,-88.23 266.45,-77.79 261.36,-87.08 268.26,-88.23"/>
</a>
</g>
</g>
<!-- Node26&#45;&gt;Node22 -->
<g id="edge35_Node000026_Node000022" class="edge">
<title>Node26&#45;&gt;Node22</title>
<g id="a_edge35_Node000026_Node000022"><a xlink:title=" ">
<path fill="none" stroke="#63b8ff" d="M222.08,-111.86C188.69,-103.58 138.07,-90.82 85.2,-76.47"/>
<polygon fill="#63b8ff" stroke="#63b8ff" points="86.27,-73.13 75.7,-73.88 84.43,-79.89 86.27,-73.13"/>
</a>
</g>
</g>
<!-- Node26&#45;&gt;Node23 -->
<g id="edge36_Node000026_Node000023" class="edge">
<title>Node26&#45;&gt;Node23</title>
<g id="a_edge36_Node000026_Node000023"><a xlink:title=" ">
<path fill="none" stroke="#63b8ff" d="M237.3,-111.59C217.55,-103.13 188.26,-90.58 165.78,-80.94"/>
<polygon fill="#63b8ff" stroke="#63b8ff" points="167.33,-77.8 156.76,-77.08 164.57,-84.23 167.33,-77.8"/>
</a>
</g>
</g>
</g>
</svg>
