<?xml version="1.0" encoding="UTF-8" standalone="no"?>
<!DOCTYPE svg PUBLIC "-//W3C//DTD SVG 1.1//EN"
 "http://www.w3.org/Graphics/SVG/1.1/DTD/svg11.dtd">
<!-- Generated by graphviz version 12.2.1 (20241206.2353)
 -->
<!-- Title: Fiea::Engine::Content::ContentService::DeserializeFromFile Pages: 1 -->
<svg width="479pt" height="64pt"
 viewBox="0.00 0.00 479.00 64.00" xmlns="http://www.w3.org/2000/svg" xmlns:xlink="http://www.w3.org/1999/xlink">
<g id="graph0" class="graph" transform="scale(1 1) rotate(0) translate(4 60)">
<title>Fiea::Engine::Content::ContentService::DeserializeFromFile</title>
<!-- Node1 -->
<g id="Node000001" class="node">
<title>Node1</title>
<g id="a_Node000001"><a xlink:title=" ">
<polygon fill="#999999" stroke="#666666" points="144.25,-44 0,-44 0,0 144.25,0 144.25,-44"/>
<text text-anchor="start" x="8" y="-30.5" font-family="Helvetica,sans-Serif" font-size="10.00">Fiea::Engine::Content</text>
<text text-anchor="start" x="8" y="-18.5" font-family="Helvetica,sans-Serif" font-size="10.00">::ContentService::Deserialize</text>
<text text-anchor="middle" x="72.12" y="-6.5" font-family="Helvetica,sans-Serif" font-size="10.00">FromFile</text>
</a>
</g>
</g>
<!-- Node2 -->
<g id="Node000002" class="node">
<title>Node2</title>
<g id="a_Node000002"><a xlink:href="class_fiea_1_1_engine_1_1_content_1_1_parser.html#a56cea7a6cabe187ce72b2b414cc448f6" target="_top" xlink:title=" ">
<polygon fill="white" stroke="#666666" points="323.75,-38 180.25,-38 180.25,-6 323.75,-6 323.75,-38"/>
<text text-anchor="start" x="188.25" y="-24.5" font-family="Helvetica,sans-Serif" font-size="10.00">Fiea::Engine::Content</text>
<text text-anchor="middle" x="252" y="-12.5" font-family="Helvetica,sans-Serif" font-size="10.00">::Parser::DeserializeFromFile</text>
</a>
</g>
</g>
<!-- Node1&#45;&gt;Node2 -->
<g id="edge1_Node000001_Node000002" class="edge">
<title>Node1&#45;&gt;Node2</title>
<g id="a_edge1_Node000001_Node000002"><a xlink:title=" ">
<path fill="none" stroke="#63b8ff" d="M144.7,-22C152.49,-22 160.46,-22 168.36,-22"/>
<polygon fill="#63b8ff" stroke="#63b8ff" points="168.34,-25.5 178.34,-22 168.34,-18.5 168.34,-25.5"/>
</a>
</g>
</g>
<!-- Node3 -->
<g id="Node000003" class="node">
<title>Node3</title>
<g id="a_Node000003"><a xlink:href="class_fiea_1_1_engine_1_1_content_1_1_parser.html#aa51c11193123aa6abaed83708e786c53" target="_top" xlink:title=" ">
<polygon fill="white" stroke="#666666" points="471,-38 359.75,-38 359.75,-6 471,-6 471,-38"/>
<text text-anchor="start" x="367.75" y="-24.5" font-family="Helvetica,sans-Serif" font-size="10.00">Fiea::Engine::Content</text>
<text text-anchor="middle" x="415.38" y="-12.5" font-family="Helvetica,sans-Serif" font-size="10.00">::Parser::Deserialize</text>
</a>
</g>
</g>
<!-- Node2&#45;&gt;Node3 -->
<g id="edge2_Node000002_Node000003" class="edge">
<title>Node2&#45;&gt;Node3</title>
<g id="a_edge2_Node000002_Node000003"><a xlink:title=" ">
<path fill="none" stroke="#63b8ff" d="M323.78,-22C331.95,-22 340.27,-22 348.37,-22"/>
<polygon fill="#63b8ff" stroke="#63b8ff" points="348.15,-25.5 358.15,-22 348.15,-18.5 348.15,-25.5"/>
</a>
</g>
</g>
<!-- Node3&#45;&gt;Node3 -->
<g id="edge3_Node000003_Node000003" class="edge">
<title>Node3&#45;&gt;Node3</title>
<g id="a_edge3_Node000003_Node000003"><a xlink:title=" ">
<path fill="none" stroke="#63b8ff" d="M386.21,-38.44C380.76,-47.58 390.49,-56 415.38,-56 428.99,-56 438.06,-53.48 442.6,-49.71"/>
<polygon fill="#63b8ff" stroke="#63b8ff" points="446.04,-50.38 444.28,-39.93 439.14,-49.19 446.04,-50.38"/>
</a>
</g>
</g>
</g>
</svg>
