<?xml version="1.0" encoding="UTF-8" standalone="no"?>
<!DOCTYPE svg PUBLIC "-//W3C//DTD SVG 1.1//EN"
 "http://www.w3.org/Graphics/SVG/1.1/DTD/svg11.dtd">
<!-- Generated by graphviz version 12.2.1 (20241206.2353)
 -->
<!-- Title: Fiea::Engine::Content::Actions::Action::Cleanup Pages: 1 -->
<svg width="490pt" height="290pt"
 viewBox="0.00 0.00 490.25 290.00" xmlns="http://www.w3.org/2000/svg" xmlns:xlink="http://www.w3.org/1999/xlink">
<g id="graph0" class="graph" transform="scale(1 1) rotate(0) translate(4 286)">
<title>Fiea::Engine::Content::Actions::Action::Cleanup</title>
<!-- Node1 -->
<g id="Node000001" class="node">
<title>Node1</title>
<g id="a_Node000001"><a xlink:title=" ">
<polygon fill="#999999" stroke="#666666" points="482.25,-157 351.5,-157 351.5,-125 482.25,-125 482.25,-157"/>
<text text-anchor="start" x="359.5" y="-143.5" font-family="Helvetica,sans-Serif" font-size="10.00">Fiea::Engine::Content</text>
<text text-anchor="middle" x="416.88" y="-131.5" font-family="Helvetica,sans-Serif" font-size="10.00">::Actions::Action::Cleanup</text>
</a>
</g>
</g>
<!-- Node2 -->
<g id="Node000002" class="node">
<title>Node2</title>
<g id="a_Node000002"><a xlink:href="class_fiea_1_1_engine_1_1_content_1_1_actions_1_1_action.html#a698815d895c6612c8ae91f6094d1c297" target="_top" xlink:title="Update is not a virtual function, the actions users of engine define will define Init,...">
<polygon fill="white" stroke="#666666" points="315.5,-157 189.25,-157 189.25,-125 315.5,-125 315.5,-157"/>
<text text-anchor="start" x="197.25" y="-143.5" font-family="Helvetica,sans-Serif" font-size="10.00">Fiea::Engine::Content</text>
<text text-anchor="middle" x="252.38" y="-131.5" font-family="Helvetica,sans-Serif" font-size="10.00">::Actions::Action::Update</text>
</a>
</g>
</g>
<!-- Node1&#45;&gt;Node2 -->
<g id="edge1_Node000001_Node000002" class="edge">
<title>Node1&#45;&gt;Node2</title>
<g id="a_edge1_Node000001_Node000002"><a xlink:title=" ">
<path fill="none" stroke="#63b8ff" d="M339.93,-141C331.91,-141 323.83,-141 315.99,-141"/>
<polygon fill="#63b8ff" stroke="#63b8ff" points="339.67,-144.5 349.67,-141 339.67,-137.5 339.67,-144.5"/>
</a>
</g>
</g>
<!-- Node3 -->
<g id="Node000003" class="node">
<title>Node3</title>
<g id="a_Node000003"><a xlink:href="class_fiea_1_1_engine_1_1_content_1_1_actions_1_1_action_list.html#a61d6676694ddead07acc69a9dea0da24" target="_top" xlink:title="Init is called as the action is starting, Usually we put all the code that needs to run once....">
<polygon fill="white" stroke="#666666" points="138.62,-282 14.62,-282 14.62,-250 138.62,-250 138.62,-282"/>
<text text-anchor="start" x="22.62" y="-268.5" font-family="Helvetica,sans-Serif" font-size="10.00">Fiea::Engine::Content</text>
<text text-anchor="middle" x="76.62" y="-256.5" font-family="Helvetica,sans-Serif" font-size="10.00">::Actions::ActionList::Init</text>
</a>
</g>
</g>
<!-- Node2&#45;&gt;Node3 -->
<g id="edge2_Node000002_Node000003" class="edge">
<title>Node2&#45;&gt;Node3</title>
<g id="a_edge2_Node000002_Node000003"><a xlink:title=" ">
<path fill="none" stroke="#63b8ff" d="M232.51,-166.16C214.43,-188.67 185.23,-221.08 153.25,-241 148.09,-244.22 142.46,-247.07 136.69,-249.58"/>
<polygon fill="#63b8ff" stroke="#63b8ff" points="235.19,-168.41 238.61,-158.38 229.69,-164.08 235.19,-168.41"/>
</a>
</g>
</g>
<!-- Node4 -->
<g id="Node000004" class="node">
<title>Node4</title>
<g id="a_Node000004"><a xlink:href="class_fiea_1_1_engine_1_1_content_1_1_actions_1_1_while_action_list.html#a972d59921793e006691ec0c2f0f32a87" target="_top" xlink:title="Initial setup if any for the action.">
<polygon fill="white" stroke="#666666" points="151,-232 2.25,-232 2.25,-200 151,-200 151,-232"/>
<text text-anchor="start" x="10.25" y="-218.5" font-family="Helvetica,sans-Serif" font-size="10.00">Fiea::Engine::Content</text>
<text text-anchor="middle" x="76.62" y="-206.5" font-family="Helvetica,sans-Serif" font-size="10.00">::Actions::WhileActionList::Init</text>
</a>
</g>
</g>
<!-- Node2&#45;&gt;Node4 -->
<g id="edge3_Node000002_Node000004" class="edge">
<title>Node2&#45;&gt;Node4</title>
<g id="a_edge3_Node000002_Node000004"><a xlink:title=" ">
<path fill="none" stroke="#63b8ff" d="M212.32,-162.62C194.59,-171.99 173.16,-182.69 153.25,-191 146.1,-193.98 138.46,-196.86 130.89,-199.53"/>
<polygon fill="#63b8ff" stroke="#63b8ff" points="213.8,-165.81 220.96,-158 210.49,-159.63 213.8,-165.81"/>
</a>
</g>
</g>
<!-- Node5 -->
<g id="Node000005" class="node">
<title>Node5</title>
<g id="a_Node000005"><a xlink:href="class_fiea_1_1_engine_1_1_content_1_1_actions_1_1_action_list.html#ad7daf7d0f6bb5b868c4cb602aaf8a236" target="_top" xlink:title="Any code that we want to run recursively goes here. It returns false if it needs to run one more iter...">
<polygon fill="white" stroke="#666666" points="140.88,-182 12.38,-182 12.38,-150 140.88,-150 140.88,-182"/>
<text text-anchor="start" x="20.38" y="-168.5" font-family="Helvetica,sans-Serif" font-size="10.00">Fiea::Engine::Content</text>
<text text-anchor="middle" x="76.62" y="-156.5" font-family="Helvetica,sans-Serif" font-size="10.00">::Actions::ActionList::Run</text>
</a>
</g>
</g>
<!-- Node2&#45;&gt;Node5 -->
<g id="edge4_Node000002_Node000005" class="edge">
<title>Node2&#45;&gt;Node5</title>
<g id="a_edge4_Node000002_Node000005"><a xlink:title=" ">
<path fill="none" stroke="#63b8ff" d="M178.02,-151.55C165.77,-153.32 153.16,-155.13 141.18,-156.86"/>
<polygon fill="#63b8ff" stroke="#63b8ff" points="178.24,-155.06 187.64,-150.17 177.24,-148.13 178.24,-155.06"/>
</a>
</g>
</g>
<!-- Node6 -->
<g id="Node000006" class="node">
<title>Node6</title>
<g id="a_Node000006"><a xlink:href="class_fiea_1_1_engine_1_1_content_1_1_actions_1_1_delayed_action.html#a2f06440518f0083c5302251ba2d5e3c0" target="_top" xlink:title="Checks if the delay is over. And executes the actions until they all are over.">
<polygon fill="white" stroke="#666666" points="151,-132 2.25,-132 2.25,-100 151,-100 151,-132"/>
<text text-anchor="start" x="10.25" y="-118.5" font-family="Helvetica,sans-Serif" font-size="10.00">Fiea::Engine::Content</text>
<text text-anchor="middle" x="76.62" y="-106.5" font-family="Helvetica,sans-Serif" font-size="10.00">::Actions::DelayedAction::Run</text>
</a>
</g>
</g>
<!-- Node2&#45;&gt;Node6 -->
<g id="edge5_Node000002_Node000006" class="edge">
<title>Node2&#45;&gt;Node6</title>
<g id="a_edge5_Node000002_Node000006"><a xlink:title=" ">
<path fill="none" stroke="#63b8ff" d="M177.76,-130.41C168.99,-129.15 160.04,-127.86 151.28,-126.6"/>
<polygon fill="#63b8ff" stroke="#63b8ff" points="177.24,-133.87 187.64,-131.83 178.24,-126.94 177.24,-133.87"/>
</a>
</g>
</g>
<!-- Node7 -->
<g id="Node000007" class="node">
<title>Node7</title>
<g id="a_Node000007"><a xlink:href="class_fiea_1_1_engine_1_1_content_1_1_actions_1_1_timed_action.html#acaf7a9c271c20baaeeb15b4fa713f323" target="_top" xlink:title="Executes all the actions the TimedAction contains. It checks if the current time is less than the tar...">
<polygon fill="white" stroke="#666666" points="146.5,-82 6.75,-82 6.75,-50 146.5,-50 146.5,-82"/>
<text text-anchor="start" x="14.75" y="-68.5" font-family="Helvetica,sans-Serif" font-size="10.00">Fiea::Engine::Content</text>
<text text-anchor="middle" x="76.62" y="-56.5" font-family="Helvetica,sans-Serif" font-size="10.00">::Actions::TimedAction::Run</text>
</a>
</g>
</g>
<!-- Node2&#45;&gt;Node7 -->
<g id="edge6_Node000002_Node000007" class="edge">
<title>Node2&#45;&gt;Node7</title>
<g id="a_edge6_Node000002_Node000007"><a xlink:title=" ">
<path fill="none" stroke="#63b8ff" d="M212.32,-119.38C194.59,-110.01 173.16,-99.31 153.25,-91 146.1,-88.02 138.46,-85.14 130.89,-82.47"/>
<polygon fill="#63b8ff" stroke="#63b8ff" points="210.49,-122.37 220.96,-124 213.8,-116.19 210.49,-122.37"/>
</a>
</g>
</g>
<!-- Node8 -->
<g id="Node000008" class="node">
<title>Node8</title>
<g id="a_Node000008"><a xlink:href="class_fiea_1_1_engine_1_1_content_1_1_actions_1_1_while_action_list.html#a87d627d5c0691325cb255ad15934e5d8" target="_top" xlink:title="The logic that needs to run repetitively.">
<polygon fill="white" stroke="#666666" points="153.25,-32 0,-32 0,0 153.25,0 153.25,-32"/>
<text text-anchor="start" x="8" y="-18.5" font-family="Helvetica,sans-Serif" font-size="10.00">Fiea::Engine::Content</text>
<text text-anchor="middle" x="76.62" y="-6.5" font-family="Helvetica,sans-Serif" font-size="10.00">::Actions::WhileActionList::Run</text>
</a>
</g>
</g>
<!-- Node2&#45;&gt;Node8 -->
<g id="edge7_Node000002_Node000008" class="edge">
<title>Node2&#45;&gt;Node8</title>
<g id="a_edge7_Node000002_Node000008"><a xlink:title=" ">
<path fill="none" stroke="#63b8ff" d="M232.51,-115.84C214.43,-93.33 185.23,-60.92 153.25,-41 148.09,-37.78 142.46,-34.93 136.69,-32.42"/>
<polygon fill="#63b8ff" stroke="#63b8ff" points="229.69,-117.92 238.61,-123.62 235.19,-113.59 229.69,-117.92"/>
</a>
</g>
</g>
</g>
</svg>
