<?xml version="1.0" encoding="UTF-8" standalone="no"?>
<!DOCTYPE svg PUBLIC "-//W3C//DTD SVG 1.1//EN"
 "http://www.w3.org/Graphics/SVG/1.1/DTD/svg11.dtd">
<!-- Generated by graphviz version 12.2.1 (20241206.2353)
 -->
<!-- Title: Fiea::Engine::Content::ContentService Pages: 1 -->
<svg width="622pt" height="332pt"
 viewBox="0.00 0.00 621.88 332.00" xmlns="http://www.w3.org/2000/svg" xmlns:xlink="http://www.w3.org/1999/xlink">
<g id="graph0" class="graph" transform="scale(1 1) rotate(0) translate(4 328)">
<title>Fiea::Engine::Content::ContentService</title>
<!-- Node1 -->
<g id="Node000001" class="node">
<title>Node1</title>
<g id="a_Node000001"><a xlink:title=" ">
<polygon fill="#999999" stroke="none" points="352.5,-192 225,-192 225,0 352.5,0 352.5,-192"/>
<text text-anchor="start" x="241.12" y="-178.5" font-family="Helvetica,sans-Serif" font-size="10.00">Fiea::Engine::Content</text>
<text text-anchor="start" x="252" y="-166.5" font-family="Helvetica,sans-Serif" font-size="10.00">::ContentService</text>
<text text-anchor="start" x="287.25" y="-150.5" font-family="Helvetica,sans-Serif" font-size="10.00"> </text>
<text text-anchor="start" x="229" y="-134.5" font-family="Helvetica,sans-Serif" font-size="10.00">+</text>
<text text-anchor="start" x="239" y="-134.5" font-family="Helvetica,sans-Serif" font-size="10.00">ContentService()</text>
<text text-anchor="start" x="229" y="-118.5" font-family="Helvetica,sans-Serif" font-size="10.00">+</text>
<text text-anchor="start" x="239" y="-118.5" font-family="Helvetica,sans-Serif" font-size="10.00">~ContentService()</text>
<text text-anchor="start" x="229" y="-102.5" font-family="Helvetica,sans-Serif" font-size="10.00">+</text>
<text text-anchor="start" x="239" y="-102.5" font-family="Helvetica,sans-Serif" font-size="10.00">RegisterClassDefinition()</text>
<text text-anchor="start" x="229" y="-86.5" font-family="Helvetica,sans-Serif" font-size="10.00">+</text>
<text text-anchor="start" x="239" y="-86.5" font-family="Helvetica,sans-Serif" font-size="10.00">RetrieveClassDefinition()</text>
<text text-anchor="start" x="229" y="-70.5" font-family="Helvetica,sans-Serif" font-size="10.00">+</text>
<text text-anchor="start" x="239" y="-70.5" font-family="Helvetica,sans-Serif" font-size="10.00">AddHandler()</text>
<text text-anchor="start" x="229" y="-54.5" font-family="Helvetica,sans-Serif" font-size="10.00">+</text>
<text text-anchor="start" x="239" y="-54.5" font-family="Helvetica,sans-Serif" font-size="10.00">RemoveHandler()</text>
<text text-anchor="start" x="229" y="-38.5" font-family="Helvetica,sans-Serif" font-size="10.00">+</text>
<text text-anchor="start" x="239" y="-38.5" font-family="Helvetica,sans-Serif" font-size="10.00">Deserialize()</text>
<text text-anchor="start" x="229" y="-22.5" font-family="Helvetica,sans-Serif" font-size="10.00">+</text>
<text text-anchor="start" x="239" y="-22.5" font-family="Helvetica,sans-Serif" font-size="10.00">Deserialize()</text>
<text text-anchor="start" x="229" y="-6.5" font-family="Helvetica,sans-Serif" font-size="10.00">+</text>
<text text-anchor="start" x="239" y="-6.5" font-family="Helvetica,sans-Serif" font-size="10.00">DeserializeFromFile()</text>
<polygon fill="#666666" stroke="#666666" points="225,-162 225,-162 352.5,-162 352.5,-162 225,-162"/>
<polygon fill="#666666" stroke="#666666" points="225,-146 225,-146 352.5,-146 352.5,-146 225,-146"/>
<polygon fill="none" stroke="#666666" points="225,0 225,-192 352.5,-192 352.5,0 225,0"/>
</a>
</g>
</g>
<!-- Node2 -->
<g id="Node000002" class="node">
<title>Node2</title>
<g id="a_Node000002"><a xlink:href="struct_fiea_1_1_engine_1_1_content_1_1_i_type_registrar.html" target="_top" xlink:title=" ">
<polygon fill="white" stroke="none" points="127.5,-316 0,-316 0,-236 127.5,-236 127.5,-316"/>
<text text-anchor="start" x="16.12" y="-302.5" font-family="Helvetica,sans-Serif" font-size="10.00">Fiea::Engine::Content</text>
<text text-anchor="start" x="28.88" y="-290.5" font-family="Helvetica,sans-Serif" font-size="10.00">::ITypeRegistrar</text>
<text text-anchor="start" x="62.25" y="-274.5" font-family="Helvetica,sans-Serif" font-size="10.00"> </text>
<text text-anchor="start" x="4" y="-258.5" font-family="Helvetica,sans-Serif" font-size="10.00">+</text>
<text text-anchor="start" x="14" y="-258.5" font-family="Helvetica,sans-Serif" font-size="10.00">RegisterClassDefinition()</text>
<text text-anchor="start" x="4" y="-242.5" font-family="Helvetica,sans-Serif" font-size="10.00">+</text>
<text text-anchor="start" x="14" y="-242.5" font-family="Helvetica,sans-Serif" font-size="10.00">GetInterfaceId()</text>
<polygon fill="#666666" stroke="#666666" points="0,-286 0,-286 127.5,-286 127.5,-286 0,-286"/>
<polygon fill="#666666" stroke="#666666" points="0,-270 0,-270 127.5,-270 127.5,-270 0,-270"/>
<polygon fill="none" stroke="#666666" points="0,-236 0,-316 127.5,-316 127.5,-236 0,-236"/>
</a>
</g>
</g>
<!-- Node2&#45;&gt;Node1 -->
<g id="edge1_Node000001_Node000002" class="edge">
<title>Node2&#45;&gt;Node1</title>
<g id="a_edge1_Node000001_Node000002"><a xlink:title=" ">
<path fill="none" stroke="#63b8ff" d="M121.58,-229.25C153.28,-204.17 192.64,-173.03 225.21,-147.27"/>
<polygon fill="none" stroke="#63b8ff" points="119.71,-226.27 114.04,-235.22 124.05,-231.76 119.71,-226.27"/>
</a>
</g>
</g>
<!-- Node3 -->
<g id="Node000003" class="node">
<title>Node3</title>
<g id="a_Node000003"><a xlink:href="struct_fiea_1_1_engine_1_1_content_1_1_i_type_provider.html" target="_top" xlink:title=" ">
<polygon fill="white" stroke="none" points="273.5,-308 146,-308 146,-244 273.5,-244 273.5,-308"/>
<text text-anchor="start" x="162.12" y="-294.5" font-family="Helvetica,sans-Serif" font-size="10.00">Fiea::Engine::Content</text>
<text text-anchor="start" x="176.75" y="-282.5" font-family="Helvetica,sans-Serif" font-size="10.00">::ITypeProvider</text>
<text text-anchor="start" x="208.25" y="-266.5" font-family="Helvetica,sans-Serif" font-size="10.00"> </text>
<text text-anchor="start" x="150" y="-250.5" font-family="Helvetica,sans-Serif" font-size="10.00">+</text>
<text text-anchor="start" x="160" y="-250.5" font-family="Helvetica,sans-Serif" font-size="10.00">RetrieveClassDefinition()</text>
<polygon fill="#666666" stroke="#666666" points="146,-278 146,-278 273.5,-278 273.5,-278 146,-278"/>
<polygon fill="#666666" stroke="#666666" points="146,-262 146,-262 273.5,-262 273.5,-262 146,-262"/>
<polygon fill="none" stroke="#666666" points="146,-244 146,-308 273.5,-308 273.5,-244 146,-244"/>
</a>
</g>
</g>
<!-- Node3&#45;&gt;Node1 -->
<g id="edge2_Node000001_Node000003" class="edge">
<title>Node3&#45;&gt;Node1</title>
<g id="a_edge2_Node000001_Node000003"><a xlink:title=" ">
<path fill="none" stroke="#63b8ff" d="M227.87,-234.16C233.54,-221.4 240.04,-206.75 246.64,-191.88"/>
<polygon fill="none" stroke="#63b8ff" points="224.8,-232.46 223.94,-243.02 231.2,-235.3 224.8,-232.46"/>
</a>
</g>
</g>
<!-- Node4 -->
<g id="Node000004" class="node">
<title>Node4</title>
<g id="a_Node000004"><a xlink:href="struct_fiea_1_1_engine_1_1_content_1_1_i_json_config.html" target="_top" xlink:title=" ">
<polygon fill="white" stroke="none" points="443.88,-316 291.62,-316 291.62,-236 443.88,-236 443.88,-316"/>
<text text-anchor="start" x="320.12" y="-302.5" font-family="Helvetica,sans-Serif" font-size="10.00">Fiea::Engine::Content</text>
<text text-anchor="start" x="338.5" y="-290.5" font-family="Helvetica,sans-Serif" font-size="10.00">::IJsonConfig</text>
<text text-anchor="start" x="295.62" y="-274.5" font-family="Helvetica,sans-Serif" font-size="10.00">+</text>
<text text-anchor="start" x="305.62" y="-274.5" font-family="Helvetica,sans-Serif" font-size="10.00">FIEA_SERVICE_INTERFACE</text>
<text text-anchor="start" x="295.62" y="-258.5" font-family="Helvetica,sans-Serif" font-size="10.00">+</text>
<text text-anchor="start" x="305.62" y="-258.5" font-family="Helvetica,sans-Serif" font-size="10.00">AddHandler()</text>
<text text-anchor="start" x="295.62" y="-242.5" font-family="Helvetica,sans-Serif" font-size="10.00">+</text>
<text text-anchor="start" x="305.62" y="-242.5" font-family="Helvetica,sans-Serif" font-size="10.00">RemoveHandler()</text>
<polygon fill="#666666" stroke="#666666" points="291.62,-286 291.62,-286 443.88,-286 443.88,-286 291.62,-286"/>
<polygon fill="#666666" stroke="#666666" points="291.62,-270 291.62,-270 303.62,-270 303.62,-270 291.62,-270"/>
<polygon fill="#666666" stroke="#666666" points="303.62,-270 303.62,-270 443.88,-270 443.88,-270 303.62,-270"/>
<polygon fill="none" stroke="#666666" points="291.62,-236 291.62,-316 443.88,-316 443.88,-236 291.62,-236"/>
</a>
</g>
</g>
<!-- Node4&#45;&gt;Node1 -->
<g id="edge3_Node000001_Node000004" class="edge">
<title>Node4&#45;&gt;Node1</title>
<g id="a_edge3_Node000001_Node000004"><a xlink:title=" ">
<path fill="none" stroke="#63b8ff" d="M346.01,-226.02C341.26,-215.31 336.07,-203.61 330.82,-191.79"/>
<polygon fill="none" stroke="#63b8ff" points="342.74,-227.27 349.99,-234.99 349.14,-224.43 342.74,-227.27"/>
</a>
</g>
</g>
<!-- Node5 -->
<g id="Node000005" class="node">
<title>Node5</title>
<g id="a_Node000005"><a xlink:href="struct_fiea_1_1_engine_1_1_content_1_1_i_json_parser.html" target="_top" xlink:title=" ">
<polygon fill="white" stroke="none" points="613.88,-324 461.62,-324 461.62,-228 613.88,-228 613.88,-324"/>
<text text-anchor="start" x="490.12" y="-310.5" font-family="Helvetica,sans-Serif" font-size="10.00">Fiea::Engine::Content</text>
<text text-anchor="start" x="508.5" y="-298.5" font-family="Helvetica,sans-Serif" font-size="10.00">::IJsonParser</text>
<text text-anchor="start" x="465.62" y="-282.5" font-family="Helvetica,sans-Serif" font-size="10.00">+</text>
<text text-anchor="start" x="475.62" y="-282.5" font-family="Helvetica,sans-Serif" font-size="10.00">FIEA_SERVICE_INTERFACE</text>
<text text-anchor="start" x="465.62" y="-266.5" font-family="Helvetica,sans-Serif" font-size="10.00">+</text>
<text text-anchor="start" x="475.62" y="-266.5" font-family="Helvetica,sans-Serif" font-size="10.00">Deserialize()</text>
<text text-anchor="start" x="465.62" y="-250.5" font-family="Helvetica,sans-Serif" font-size="10.00">+</text>
<text text-anchor="start" x="475.62" y="-250.5" font-family="Helvetica,sans-Serif" font-size="10.00">Deserialize()</text>
<text text-anchor="start" x="465.62" y="-234.5" font-family="Helvetica,sans-Serif" font-size="10.00">+</text>
<text text-anchor="start" x="475.62" y="-234.5" font-family="Helvetica,sans-Serif" font-size="10.00">DeserializeFromFile()</text>
<polygon fill="#666666" stroke="#666666" points="461.62,-294 461.62,-294 613.88,-294 613.88,-294 461.62,-294"/>
<polygon fill="#666666" stroke="#666666" points="461.62,-278 461.62,-278 473.62,-278 473.62,-278 461.62,-278"/>
<polygon fill="#666666" stroke="#666666" points="473.62,-278 473.62,-278 613.88,-278 613.88,-278 473.62,-278"/>
<polygon fill="none" stroke="#666666" points="461.62,-228 461.62,-324 613.88,-324 613.88,-228 461.62,-228"/>
</a>
</g>
</g>
<!-- Node5&#45;&gt;Node1 -->
<g id="edge4_Node000001_Node000005" class="edge">
<title>Node5&#45;&gt;Node1</title>
<g id="a_edge4_Node000001_Node000005"><a xlink:title=" ">
<path fill="none" stroke="#63b8ff" d="M463.04,-221.59C427.8,-196.4 386.17,-166.64 352.44,-142.53"/>
<polygon fill="none" stroke="#63b8ff" points="460.93,-224.38 471.1,-227.35 465,-218.69 460.93,-224.38"/>
</a>
</g>
</g>
</g>
</svg>
