<?xml version="1.0" encoding="UTF-8" standalone="no"?>
<!DOCTYPE svg PUBLIC "-//W3C//DTD SVG 1.1//EN"
 "http://www.w3.org/Graphics/SVG/1.1/DTD/svg11.dtd">
<!-- Generated by graphviz version 12.2.1 (20241206.2353)
 -->
<!-- Title: Fiea::Engine::Content::Scope::Find Pages: 1 -->
<svg width="636pt" height="984pt"
 viewBox="0.00 0.00 636.00 984.00" xmlns="http://www.w3.org/2000/svg" xmlns:xlink="http://www.w3.org/1999/xlink">
<g id="graph0" class="graph" transform="scale(1 1) rotate(0) translate(4 980)">
<title>Fiea::Engine::Content::Scope::Find</title>
<!-- Node1 -->
<g id="Node000001" class="node">
<title>Node1</title>
<g id="a_Node000001"><a xlink:title="Return the Datum at the requested key, or nullptr if not found.">
<polygon fill="#999999" stroke="#666666" points="628,-389 516.75,-389 516.75,-357 628,-357 628,-389"/>
<text text-anchor="start" x="524.75" y="-375.5" font-family="Helvetica,sans-Serif" font-size="10.00">Fiea::Engine::Content</text>
<text text-anchor="middle" x="572.38" y="-363.5" font-family="Helvetica,sans-Serif" font-size="10.00">::Scope::Find</text>
</a>
</g>
</g>
<!-- Node2 -->
<g id="Node000002" class="node">
<title>Node2</title>
<g id="a_Node000002"><a xlink:href="class_fiea_1_1_engine_1_1_game_object.html#a86ede0bbc21133ffa8f398b0636c8b52" target="_top" xlink:title=" ">
<polygon fill="white" stroke="#666666" points="468.75,-976 337.25,-976 337.25,-944 468.75,-944 468.75,-976"/>
<text text-anchor="start" x="345.25" y="-962.5" font-family="Helvetica,sans-Serif" font-size="10.00">Fiea::Engine::GameObject</text>
<text text-anchor="middle" x="403" y="-950.5" font-family="Helvetica,sans-Serif" font-size="10.00">::AddAction</text>
</a>
</g>
</g>
<!-- Node1&#45;&gt;Node2 -->
<g id="edge1_Node000001_Node000002" class="edge">
<title>Node1&#45;&gt;Node2</title>
<g id="a_edge1_Node000001_Node000002"><a xlink:title=" ">
<path fill="none" stroke="#63b8ff" d="M570.61,-400.85C567.29,-502.68 550.84,-853.1 480.75,-935 477.38,-938.94 473.38,-942.26 469,-945.06"/>
<polygon fill="#63b8ff" stroke="#63b8ff" points="574.11,-401.06 570.92,-390.96 567.11,-400.84 574.11,-401.06"/>
</a>
</g>
</g>
<!-- Node3 -->
<g id="Node000003" class="node">
<title>Node3</title>
<g id="a_Node000003"><a xlink:href="class_fiea_1_1_engine_1_1_content_1_1_actions_1_1_action_list.html#a61d6676694ddead07acc69a9dea0da24" target="_top" xlink:title="Init is called as the action is starting, Usually we put all the code that needs to run once....">
<polygon fill="white" stroke="#666666" points="465,-926 341,-926 341,-894 465,-894 465,-926"/>
<text text-anchor="start" x="349" y="-912.5" font-family="Helvetica,sans-Serif" font-size="10.00">Fiea::Engine::Content</text>
<text text-anchor="middle" x="403" y="-900.5" font-family="Helvetica,sans-Serif" font-size="10.00">::Actions::ActionList::Init</text>
</a>
</g>
</g>
<!-- Node1&#45;&gt;Node3 -->
<g id="edge2_Node000001_Node000003" class="edge">
<title>Node1&#45;&gt;Node3</title>
<g id="a_edge2_Node000001_Node000003"><a xlink:title=" ">
<path fill="none" stroke="#63b8ff" d="M570.15,-400.53C565.35,-496.02 544.86,-811.25 480.75,-885 476.43,-889.97 471.11,-893.96 465.3,-897.16"/>
<polygon fill="#63b8ff" stroke="#63b8ff" points="573.63,-400.94 570.62,-390.79 566.64,-400.61 573.63,-400.94"/>
</a>
</g>
</g>
<!-- Node4 -->
<g id="Node000004" class="node">
<title>Node4</title>
<g id="a_Node000004"><a xlink:href="class_fiea_1_1_engine_1_1_tests_1_1_support_1_1_action_add_datum.html#a8038baa36384ba9702596cbe3e41780e" target="_top" xlink:title=" ">
<polygon fill="white" stroke="#666666" points="480.75,-876 325.25,-876 325.25,-844 480.75,-844 480.75,-876"/>
<text text-anchor="start" x="333.25" y="-862.5" font-family="Helvetica,sans-Serif" font-size="10.00">Fiea::Engine::Tests</text>
<text text-anchor="middle" x="403" y="-850.5" font-family="Helvetica,sans-Serif" font-size="10.00">::Support::ActionAddDatum::Init</text>
</a>
</g>
</g>
<!-- Node1&#45;&gt;Node4 -->
<g id="edge3_Node000001_Node000004" class="edge">
<title>Node1&#45;&gt;Node4</title>
<g id="a_edge3_Node000001_Node000004"><a xlink:title=" ">
<path fill="none" stroke="#63b8ff" d="M569.58,-400.42C563.2,-489.59 538.85,-769.4 480.75,-835 477.87,-838.25 474.56,-841.08 470.97,-843.55"/>
<polygon fill="#63b8ff" stroke="#63b8ff" points="573.05,-400.87 570.25,-390.65 566.07,-400.39 573.05,-400.87"/>
</a>
</g>
</g>
<!-- Node5 -->
<g id="Node000005" class="node">
<title>Node5</title>
<g id="a_Node000005"><a xlink:href="class_fiea_1_1_engine_1_1_content_1_1_attributed.html#aa5969fb315f7ab6f858bde895196fe1f" target="_top" xlink:title="Is the string provided by the user an attribute.">
<polygon fill="white" stroke="#666666" points="460.5,-826 345.5,-826 345.5,-794 460.5,-794 460.5,-826"/>
<text text-anchor="start" x="353.5" y="-812.5" font-family="Helvetica,sans-Serif" font-size="10.00">Fiea::Engine::Content</text>
<text text-anchor="middle" x="403" y="-800.5" font-family="Helvetica,sans-Serif" font-size="10.00">::Attributed::IsAttribute</text>
</a>
</g>
</g>
<!-- Node1&#45;&gt;Node5 -->
<g id="edge4_Node000001_Node000005" class="edge">
<title>Node1&#45;&gt;Node5</title>
<g id="a_edge4_Node000001_Node000005"><a xlink:title=" ">
<path fill="none" stroke="#63b8ff" d="M568.59,-400.74C559.83,-482.76 530.49,-721.97 480.75,-780 475.26,-786.41 468.22,-791.46 460.64,-795.43"/>
<polygon fill="#63b8ff" stroke="#63b8ff" points="572.06,-401.22 569.61,-390.91 565.09,-400.49 572.06,-401.22"/>
</a>
</g>
</g>
<!-- Node8 -->
<g id="Node000008" class="node">
<title>Node8</title>
<g id="a_Node000008"><a xlink:href="namespace_fiea_1_1_engine_1_1_tests.html#acf19d1e24b6e04bb3eefd39b994f462d" target="_top" xlink:title=" ">
<polygon fill="white" stroke="#666666" points="100.75,-826 0,-826 0,-794 100.75,-794 100.75,-826"/>
<text text-anchor="start" x="8" y="-812.5" font-family="Helvetica,sans-Serif" font-size="10.00">Fiea::Engine::Tests</text>
<text text-anchor="middle" x="50.38" y="-800.5" font-family="Helvetica,sans-Serif" font-size="10.00">::TEST_CLASS</text>
</a>
</g>
</g>
<!-- Node1&#45;&gt;Node8 -->
<g id="edge30_Node000001_Node000008" class="edge">
<title>Node1&#45;&gt;Node8</title>
<g id="a_edge30_Node000001_Node000008"><a xlink:title=" ">
<path fill="none" stroke="#63b8ff" d="M560.58,-399.48C530.07,-470.55 435.8,-666.02 289.25,-753 230.46,-787.9 151.53,-801.45 101.05,-806.69"/>
<polygon fill="#63b8ff" stroke="#63b8ff" points="563.67,-401.14 564.34,-390.57 557.22,-398.42 563.67,-401.14"/>
</a>
</g>
</g>
<!-- Node9 -->
<g id="Node000009" class="node">
<title>Node9</title>
<g id="a_Node000009"><a xlink:href="class_fiea_1_1_engine_1_1_content_1_1_scope_writer.html#a9b532cf2870d114a3cb24555ddd1cba5" target="_top" xlink:title=" ">
<polygon fill="white" stroke="#666666" points="473.25,-532 332.75,-532 332.75,-488 473.25,-488 473.25,-532"/>
<text text-anchor="start" x="340.75" y="-518.5" font-family="Helvetica,sans-Serif" font-size="10.00">Fiea::Engine::Content</text>
<text text-anchor="start" x="340.75" y="-506.5" font-family="Helvetica,sans-Serif" font-size="10.00">::ScopeWriter::IsKeyStorage</text>
<text text-anchor="middle" x="403" y="-494.5" font-family="Helvetica,sans-Serif" font-size="10.00">External</text>
</a>
</g>
</g>
<!-- Node1&#45;&gt;Node9 -->
<g id="edge8_Node000001_Node000009" class="edge">
<title>Node1&#45;&gt;Node9</title>
<g id="a_edge8_Node000001_Node000009"><a xlink:title=" ">
<path fill="none" stroke="#63b8ff" d="M554.92,-398.51C538.57,-422.13 511.53,-456.85 480.75,-479 476.43,-482.11 471.76,-484.96 466.93,-487.57"/>
<polygon fill="#63b8ff" stroke="#63b8ff" points="557.71,-400.63 560.41,-390.39 551.91,-396.71 557.71,-400.63"/>
</a>
</g>
</g>
<!-- Node22 -->
<g id="Node000022" class="node">
<title>Node22</title>
<g id="a_Node000022"><a xlink:href="class_fiea_1_1_engine_1_1_content_1_1_scope.html#aa6308433cea4af43f97e24234524500c" target="_top" xlink:title=" ">
<polygon fill="#fff0f0" stroke="red" points="463.88,-470 342.12,-470 342.12,-438 463.88,-438 463.88,-470"/>
<text text-anchor="start" x="350.12" y="-456.5" font-family="Helvetica,sans-Serif" font-size="10.00">Fiea::Engine::Content</text>
<text text-anchor="middle" x="403" y="-444.5" font-family="Helvetica,sans-Serif" font-size="10.00">::Scope::RemoveDatum</text>
</a>
</g>
</g>
<!-- Node1&#45;&gt;Node22 -->
<g id="edge21_Node000001_Node000022" class="edge">
<title>Node1&#45;&gt;Node22</title>
<g id="a_edge21_Node000001_Node000022"><a xlink:title=" ">
<path fill="none" stroke="#63b8ff" d="M539.02,-395.61C522.19,-406.69 500.95,-419.63 480.75,-429 474.14,-432.07 467.05,-434.92 459.94,-437.52"/>
<polygon fill="#63b8ff" stroke="#63b8ff" points="540.77,-398.66 547.13,-390.19 536.87,-392.84 540.77,-398.66"/>
</a>
</g>
</g>
<!-- Node24 -->
<g id="Node000024" class="node">
<title>Node24</title>
<g id="a_Node000024"><a xlink:href="class_fiea_1_1_engine_1_1_content_1_1_actions_1_1_action_list.html#a174321b3790604e933b2210235d2c62a" target="_top" xlink:title="Resets the actions owned by the list.">
<polygon fill="#fff0f0" stroke="red" points="459,-420 347,-420 347,-376 459,-376 459,-420"/>
<text text-anchor="start" x="355" y="-406.5" font-family="Helvetica,sans-Serif" font-size="10.00">Fiea::Engine::Content</text>
<text text-anchor="start" x="355" y="-394.5" font-family="Helvetica,sans-Serif" font-size="10.00">::Actions::ActionList</text>
<text text-anchor="middle" x="403" y="-382.5" font-family="Helvetica,sans-Serif" font-size="10.00">::ResetOwnedActions</text>
</a>
</g>
</g>
<!-- Node1&#45;&gt;Node24 -->
<g id="edge22_Node000001_Node000024" class="edge">
<title>Node1&#45;&gt;Node24</title>
<g id="a_edge22_Node000001_Node000024"><a xlink:title=" ">
<path fill="none" stroke="#63b8ff" d="M505.58,-382.83C490.23,-385.12 474.05,-387.54 459.21,-389.75"/>
<polygon fill="#63b8ff" stroke="#63b8ff" points="505.7,-386.35 515.07,-381.41 504.67,-379.43 505.7,-386.35"/>
</a>
</g>
</g>
<!-- Node27 -->
<g id="Node000027" class="node">
<title>Node27</title>
<g id="a_Node000027"><a xlink:href="class_fiea_1_1_engine_1_1_content_1_1_actions_1_1_delayed_action.html#a2f06440518f0083c5302251ba2d5e3c0" target="_top" xlink:title="Checks if the delay is over. And executes the actions until they all are over.">
<polygon fill="white" stroke="#666666" points="287.38,-96 138.62,-96 138.62,-64 287.38,-64 287.38,-96"/>
<text text-anchor="start" x="146.62" y="-82.5" font-family="Helvetica,sans-Serif" font-size="10.00">Fiea::Engine::Content</text>
<text text-anchor="middle" x="213" y="-70.5" font-family="Helvetica,sans-Serif" font-size="10.00">::Actions::DelayedAction::Run</text>
</a>
</g>
</g>
<!-- Node1&#45;&gt;Node27 -->
<g id="edge25_Node000001_Node000027" class="edge">
<title>Node1&#45;&gt;Node27</title>
<g id="a_edge25_Node000001_Node000027"><a xlink:title=" ">
<path fill="none" stroke="#63b8ff" d="M505.31,-365.16C436.77,-356.41 337.82,-341.79 325.25,-329 254.58,-257.08 354.57,-181.82 289.25,-105 286.49,-101.75 283.29,-98.92 279.8,-96.45"/>
<polygon fill="#63b8ff" stroke="#63b8ff" points="504.6,-368.6 514.96,-366.38 505.47,-361.65 504.6,-368.6"/>
</a>
</g>
</g>
<!-- Node28 -->
<g id="Node000028" class="node">
<title>Node28</title>
<g id="a_Node000028"><a xlink:href="class_fiea_1_1_engine_1_1_content_1_1_actions_1_1_action_list.html#ad7daf7d0f6bb5b868c4cb602aaf8a236" target="_top" xlink:title="Any code that we want to run recursively goes here. It returns false if it needs to run one more iter...">
<polygon fill="white" stroke="#666666" points="467.25,-320 338.75,-320 338.75,-288 467.25,-288 467.25,-320"/>
<text text-anchor="start" x="346.75" y="-306.5" font-family="Helvetica,sans-Serif" font-size="10.00">Fiea::Engine::Content</text>
<text text-anchor="middle" x="403" y="-294.5" font-family="Helvetica,sans-Serif" font-size="10.00">::Actions::ActionList::Run</text>
</a>
</g>
</g>
<!-- Node1&#45;&gt;Node28 -->
<g id="edge24_Node000001_Node000028" class="edge">
<title>Node1&#45;&gt;Node28</title>
<g id="a_edge24_Node000001_Node000028"><a xlink:title=" ">
<path fill="none" stroke="#63b8ff" d="M523.74,-352.14C509.92,-346.19 494.77,-339.75 480.75,-334 469.77,-329.49 457.84,-324.75 446.73,-320.41"/>
<polygon fill="#63b8ff" stroke="#63b8ff" points="522.06,-355.23 532.63,-355.99 524.84,-348.8 522.06,-355.23"/>
</a>
</g>
</g>
<!-- Node29 -->
<g id="Node000029" class="node">
<title>Node29</title>
<g id="a_Node000029"><a xlink:href="class_fiea_1_1_engine_1_1_content_1_1_actions_1_1_timed_action.html#acaf7a9c271c20baaeeb15b4fa713f323" target="_top" xlink:title="Executes all the actions the TimedAction contains. It checks if the current time is less than the tar...">
<polygon fill="white" stroke="#666666" points="472.88,-270 333.12,-270 333.12,-238 472.88,-238 472.88,-270"/>
<text text-anchor="start" x="341.12" y="-256.5" font-family="Helvetica,sans-Serif" font-size="10.00">Fiea::Engine::Content</text>
<text text-anchor="middle" x="403" y="-244.5" font-family="Helvetica,sans-Serif" font-size="10.00">::Actions::TimedAction::Run</text>
</a>
</g>
</g>
<!-- Node1&#45;&gt;Node29 -->
<g id="edge26_Node000001_Node000029" class="edge">
<title>Node1&#45;&gt;Node29</title>
<g id="a_edge26_Node000001_Node000029"><a xlink:title=" ">
<path fill="none" stroke="#63b8ff" d="M552.75,-347.65C536.04,-326.56 509.74,-297.15 480.75,-279 475.64,-275.8 470.08,-272.97 464.37,-270.48"/>
<polygon fill="#63b8ff" stroke="#63b8ff" points="549.92,-349.71 558.8,-355.49 555.46,-345.43 549.92,-349.71"/>
</a>
</g>
</g>
<!-- Node30 -->
<g id="Node000030" class="node">
<title>Node30</title>
<g id="a_Node000030"><a xlink:href="class_fiea_1_1_engine_1_1_content_1_1_actions_1_1_while_action_list.html#a87d627d5c0691325cb255ad15934e5d8" target="_top" xlink:title="The logic that needs to run repetitively.">
<polygon fill="white" stroke="#666666" points="479.62,-220 326.38,-220 326.38,-188 479.62,-188 479.62,-220"/>
<text text-anchor="start" x="334.38" y="-206.5" font-family="Helvetica,sans-Serif" font-size="10.00">Fiea::Engine::Content</text>
<text text-anchor="middle" x="403" y="-194.5" font-family="Helvetica,sans-Serif" font-size="10.00">::Actions::WhileActionList::Run</text>
</a>
</g>
</g>
<!-- Node1&#45;&gt;Node30 -->
<g id="edge27_Node000001_Node000030" class="edge">
<title>Node1&#45;&gt;Node30</title>
<g id="a_edge27_Node000001_Node000030"><a xlink:title=" ">
<path fill="none" stroke="#63b8ff" d="M561.18,-346.1C547.6,-313.78 520.56,-260.02 480.75,-229 476.55,-225.73 471.91,-222.87 467.04,-220.39"/>
<polygon fill="#63b8ff" stroke="#63b8ff" points="557.85,-347.22 564.85,-355.17 564.34,-344.59 557.85,-347.22"/>
</a>
</g>
</g>
<!-- Node31 -->
<g id="Node000031" class="node">
<title>Node31</title>
<g id="a_Node000031"><a xlink:href="class_fiea_1_1_engine_1_1_content_1_1_scope.html#a780212af791d1a9fd9b244877d8ce3d8" target="_top" xlink:title="Finds the key in all of its parentage. Output Scope will hold the pointer to the parent that actually...">
<polygon fill="#fff0f0" stroke="red" points="458.62,-170 347.38,-170 347.38,-138 458.62,-138 458.62,-170"/>
<text text-anchor="start" x="355.38" y="-156.5" font-family="Helvetica,sans-Serif" font-size="10.00">Fiea::Engine::Content</text>
<text text-anchor="middle" x="403" y="-144.5" font-family="Helvetica,sans-Serif" font-size="10.00">::Scope::Search</text>
</a>
</g>
</g>
<!-- Node1&#45;&gt;Node31 -->
<g id="edge28_Node000001_Node000031" class="edge">
<title>Node1&#45;&gt;Node31</title>
<g id="a_edge28_Node000001_Node000031"><a xlink:title=" ">
<path fill="none" stroke="#63b8ff" d="M565.88,-345.58C556.08,-303.74 531.67,-224.05 480.75,-179 474.45,-173.43 466.89,-169.1 459,-165.73"/>
<polygon fill="#63b8ff" stroke="#63b8ff" points="562.4,-346.08 567.99,-355.09 569.24,-344.56 562.4,-346.08"/>
</a>
</g>
</g>
<!-- Node35 -->
<g id="Node000035" class="node">
<title>Node35</title>
<g id="a_Node000035"><a xlink:href="namespace_fiea_1_1_engine_1_1_tests.html#aaa7584a8b305871c6cc1d1144266a08f" target="_top" xlink:title=" ">
<polygon fill="white" stroke="#666666" points="453.38,-120 352.62,-120 352.62,-88 453.38,-88 453.38,-120"/>
<text text-anchor="start" x="360.62" y="-106.5" font-family="Helvetica,sans-Serif" font-size="10.00">Fiea::Engine::Tests</text>
<text text-anchor="middle" x="403" y="-94.5" font-family="Helvetica,sans-Serif" font-size="10.00">::TEST_CLASS</text>
</a>
</g>
</g>
<!-- Node1&#45;&gt;Node35 -->
<g id="edge29_Node000001_Node000035" class="edge">
<title>Node1&#45;&gt;Node35</title>
<g id="a_edge29_Node000001_Node000035"><a xlink:title=" ">
<path fill="none" stroke="#63b8ff" d="M568.88,-345.54C562.86,-295.44 543.09,-188.85 480.75,-129 473.17,-121.72 463.44,-116.56 453.48,-112.9"/>
<polygon fill="#63b8ff" stroke="#63b8ff" points="565.37,-345.66 569.94,-355.22 572.33,-344.9 565.37,-345.66"/>
</a>
</g>
</g>
<!-- Node36 -->
<g id="Node000036" class="node">
<title>Node36</title>
<g id="a_Node000036"><a xlink:href="namespace_fiea_1_1_engine_1_1_tests.html#abf824a753b0112aae643057c7f756482" target="_top" xlink:title=" ">
<polygon fill="white" stroke="#666666" points="263.38,-39 162.62,-39 162.62,-7 263.38,-7 263.38,-39"/>
<text text-anchor="start" x="170.62" y="-25.5" font-family="Helvetica,sans-Serif" font-size="10.00">Fiea::Engine::Tests</text>
<text text-anchor="middle" x="213" y="-13.5" font-family="Helvetica,sans-Serif" font-size="10.00">::TEST_CLASS</text>
</a>
</g>
</g>
<!-- Node1&#45;&gt;Node36 -->
<g id="edge31_Node000001_Node000036" class="edge">
<title>Node1&#45;&gt;Node36</title>
<g id="a_edge31_Node000001_Node000036"><a xlink:title=" ">
<path fill="none" stroke="#63b8ff" d="M571.56,-345.47C570.36,-287.05 558.86,-150.23 480.75,-79 472.72,-71.68 338.79,-46.02 263.83,-32.11"/>
<polygon fill="#63b8ff" stroke="#63b8ff" points="568.06,-345.22 571.66,-355.18 575.06,-345.14 568.06,-345.22"/>
</a>
</g>
</g>
<!-- Node37 -->
<g id="Node000037" class="node">
<title>Node37</title>
<g id="a_Node000037"><a xlink:href="class_fiea_1_1_engine_1_1_game_object.html#ae53c9484e5fdc34b527e85fffe8af53e" target="_top" xlink:title=" ">
<polygon fill="white" stroke="#666666" points="468.75,-32 337.25,-32 337.25,0 468.75,0 468.75,-32"/>
<text text-anchor="start" x="345.25" y="-18.5" font-family="Helvetica,sans-Serif" font-size="10.00">Fiea::Engine::GameObject</text>
<text text-anchor="middle" x="403" y="-6.5" font-family="Helvetica,sans-Serif" font-size="10.00">::Update</text>
</a>
</g>
</g>
<!-- Node1&#45;&gt;Node37 -->
<g id="edge32_Node000001_Node000037" class="edge">
<title>Node1&#45;&gt;Node37</title>
<g id="a_edge32_Node000001_Node000037"><a xlink:title=" ">
<path fill="none" stroke="#63b8ff" d="M571.59,-345.22C570.57,-283.46 559.59,-133.35 480.75,-46 475.86,-40.58 469.87,-36.14 463.42,-32.48"/>
<polygon fill="#63b8ff" stroke="#63b8ff" points="568.09,-345.19 571.67,-355.16 575.09,-345.13 568.09,-345.19"/>
</a>
</g>
</g>
<!-- Node6 -->
<g id="Node000006" class="node">
<title>Node6</title>
<g id="a_Node000006"><a xlink:href="class_fiea_1_1_engine_1_1_content_1_1_attributed.html#adaed7bf877c03d16edb097acff6bd8ac" target="_top" xlink:title="Is the attribute added to the instance?">
<polygon fill="#fff0f0" stroke="red" points="289.25,-870 136.75,-870 136.75,-838 289.25,-838 289.25,-870"/>
<text text-anchor="start" x="144.75" y="-856.5" font-family="Helvetica,sans-Serif" font-size="10.00">Fiea::Engine::Content</text>
<text text-anchor="middle" x="213" y="-844.5" font-family="Helvetica,sans-Serif" font-size="10.00">::Attributed::IsInstanceAttribute</text>
</a>
</g>
</g>
<!-- Node5&#45;&gt;Node6 -->
<g id="edge5_Node000005_Node000006" class="edge">
<title>Node5&#45;&gt;Node6</title>
<g id="a_edge5_Node000005_Node000006"><a xlink:title=" ">
<path fill="none" stroke="#63b8ff" d="M334.09,-825.89C317.92,-829.68 300.63,-833.73 284.35,-837.54"/>
<polygon fill="#63b8ff" stroke="#63b8ff" points="334.67,-829.35 343.61,-823.67 333.08,-822.54 334.67,-829.35"/>
</a>
</g>
</g>
<!-- Node5&#45;&gt;Node8 -->
<g id="edge7_Node000005_Node000008" class="edge">
<title>Node5&#45;&gt;Node8</title>
<g id="a_edge7_Node000005_Node000008"><a xlink:title=" ">
<path fill="none" stroke="#63b8ff" d="M333.8,-810C265.53,-810 162.13,-810 101.2,-810"/>
<polygon fill="#63b8ff" stroke="#63b8ff" points="333.76,-813.5 343.76,-810 333.76,-806.5 333.76,-813.5"/>
</a>
</g>
</g>
<!-- Node6&#45;&gt;Node8 -->
<g id="edge6_Node000006_Node000008" class="edge">
<title>Node6&#45;&gt;Node8</title>
<g id="a_edge6_Node000006_Node000008"><a xlink:title=" ">
<path fill="none" stroke="#63b8ff" d="M141.44,-834.67C127.89,-830.96 113.97,-827.15 101.25,-823.66"/>
<polygon fill="#63b8ff" stroke="#63b8ff" points="140.16,-837.95 150.73,-837.22 142.01,-831.2 140.16,-837.95"/>
</a>
</g>
</g>
<!-- Node10 -->
<g id="Node000010" class="node">
<title>Node10</title>
<g id="a_Node000010"><a xlink:href="class_fiea_1_1_engine_1_1_content_1_1_array_handler.html#a12c964e02fd52210a503839f93f9bcd5" target="_top" xlink:title=" ">
<polygon fill="white" stroke="#666666" points="275.75,-744 150.25,-744 150.25,-712 275.75,-712 275.75,-744"/>
<text text-anchor="start" x="158.25" y="-730.5" font-family="Helvetica,sans-Serif" font-size="10.00">Fiea::Engine::Content</text>
<text text-anchor="middle" x="213" y="-718.5" font-family="Helvetica,sans-Serif" font-size="10.00">::ArrayHandler::EnterKey</text>
</a>
</g>
</g>
<!-- Node9&#45;&gt;Node10 -->
<g id="edge9_Node000009_Node000010" class="edge">
<title>Node9&#45;&gt;Node10</title>
<g id="a_edge9_Node000009_Node000010"><a xlink:title=" ">
<path fill="none" stroke="#63b8ff" d="M391.09,-542.98C375.27,-585.85 341.96,-660.26 289.25,-703 285.19,-706.3 280.67,-709.16 275.93,-711.66"/>
<polygon fill="#63b8ff" stroke="#63b8ff" points="394.33,-544.31 394.4,-533.72 387.74,-541.96 394.33,-544.31"/>
</a>
</g>
</g>
<!-- Node11 -->
<g id="Node000011" class="node">
<title>Node11</title>
<g id="a_Node000011"><a xlink:href="class_fiea_1_1_engine_1_1_content_1_1_float_parse_handler.html#abc4c8eb2ad52cd9ebdafba350e9a58d7" target="_top" xlink:title=" ">
<polygon fill="white" stroke="#666666" points="268.62,-694 157.38,-694 157.38,-650 268.62,-650 268.62,-694"/>
<text text-anchor="start" x="165.38" y="-680.5" font-family="Helvetica,sans-Serif" font-size="10.00">Fiea::Engine::Content</text>
<text text-anchor="start" x="165.38" y="-668.5" font-family="Helvetica,sans-Serif" font-size="10.00">::FloatParseHandler::</text>
<text text-anchor="middle" x="213" y="-656.5" font-family="Helvetica,sans-Serif" font-size="10.00">EnterKey</text>
</a>
</g>
</g>
<!-- Node9&#45;&gt;Node11 -->
<g id="edge10_Node000009_Node000011" class="edge">
<title>Node9&#45;&gt;Node11</title>
<g id="a_edge10_Node000009_Node000011"><a xlink:title=" ">
<path fill="none" stroke="#63b8ff" d="M381.33,-541.62C360.91,-570.76 327.28,-613.54 289.25,-641 283.06,-645.47 276.14,-649.43 269.06,-652.9"/>
<polygon fill="#63b8ff" stroke="#63b8ff" points="384.1,-543.77 386.88,-533.55 378.33,-539.81 384.1,-543.77"/>
</a>
</g>
</g>
<!-- Node12 -->
<g id="Node000012" class="node">
<title>Node12</title>
<g id="a_Node000012"><a xlink:href="class_fiea_1_1_engine_1_1_content_1_1_int_parse_handler.html#aa99263839bdc482fcd4a5874ef682029" target="_top" xlink:title=" ">
<polygon fill="white" stroke="#666666" points="282.5,-632 143.5,-632 143.5,-600 282.5,-600 282.5,-632"/>
<text text-anchor="start" x="151.5" y="-618.5" font-family="Helvetica,sans-Serif" font-size="10.00">Fiea::Engine::Content</text>
<text text-anchor="middle" x="213" y="-606.5" font-family="Helvetica,sans-Serif" font-size="10.00">::IntParseHandler::EnterKey</text>
</a>
</g>
</g>
<!-- Node9&#45;&gt;Node12 -->
<g id="edge11_Node000009_Node000012" class="edge">
<title>Node9&#45;&gt;Node12</title>
<g id="a_edge11_Node000009_Node000012"><a xlink:title=" ">
<path fill="none" stroke="#63b8ff" d="M366.98,-539.4C345.58,-556.25 317.05,-576.81 289.25,-591 283.12,-594.13 276.51,-596.99 269.85,-599.57"/>
<polygon fill="#63b8ff" stroke="#63b8ff" points="368.89,-542.35 374.51,-533.37 364.52,-536.88 368.89,-542.35"/>
</a>
</g>
</g>
<!-- Node13 -->
<g id="Node000013" class="node">
<title>Node13</title>
<g id="a_Node000013"><a xlink:href="class_fiea_1_1_engine_1_1_content_1_1_matrix_handler.html#af6b07a2232dbc15a91484634a6881499" target="_top" xlink:title=" ">
<polygon fill="white" stroke="#666666" points="277.62,-582 148.38,-582 148.38,-550 277.62,-550 277.62,-582"/>
<text text-anchor="start" x="156.38" y="-568.5" font-family="Helvetica,sans-Serif" font-size="10.00">Fiea::Engine::Content</text>
<text text-anchor="middle" x="213" y="-556.5" font-family="Helvetica,sans-Serif" font-size="10.00">::MatrixHandler::EnterKey</text>
</a>
</g>
</g>
<!-- Node9&#45;&gt;Node13 -->
<g id="edge12_Node000009_Node000013" class="edge">
<title>Node9&#45;&gt;Node13</title>
<g id="a_edge12_Node000009_Node000013"><a xlink:title=" ">
<path fill="none" stroke="#63b8ff" d="M321.41,-534C303.82,-539.25 285.58,-544.68 269.24,-549.55"/>
<polygon fill="#63b8ff" stroke="#63b8ff" points="322.23,-537.41 330.81,-531.2 320.23,-530.71 322.23,-537.41"/>
</a>
</g>
</g>
<!-- Node14 -->
<g id="Node000014" class="node">
<title>Node14</title>
<g id="a_Node000014"><a xlink:href="class_fiea_1_1_engine_1_1_content_1_1_string_parse_handler.html#a6e8f0ecc1992ee741847c1ad14069a30" target="_top" xlink:title=" ">
<polygon fill="white" stroke="#666666" points="268.62,-532 157.38,-532 157.38,-488 268.62,-488 268.62,-532"/>
<text text-anchor="start" x="165.38" y="-518.5" font-family="Helvetica,sans-Serif" font-size="10.00">Fiea::Engine::Content</text>
<text text-anchor="start" x="165.38" y="-506.5" font-family="Helvetica,sans-Serif" font-size="10.00">::StringParseHandler</text>
<text text-anchor="middle" x="213" y="-494.5" font-family="Helvetica,sans-Serif" font-size="10.00">::EnterKey</text>
</a>
</g>
</g>
<!-- Node9&#45;&gt;Node14 -->
<g id="edge13_Node000009_Node000014" class="edge">
<title>Node9&#45;&gt;Node14</title>
<g id="a_edge13_Node000009_Node000014"><a xlink:title=" ">
<path fill="none" stroke="#63b8ff" d="M320.86,-510C303.33,-510 285.19,-510 268.94,-510"/>
<polygon fill="#63b8ff" stroke="#63b8ff" points="320.75,-513.5 330.75,-510 320.75,-506.5 320.75,-513.5"/>
</a>
</g>
</g>
<!-- Node15 -->
<g id="Node000015" class="node">
<title>Node15</title>
<g id="a_Node000015"><a xlink:href="class_fiea_1_1_engine_1_1_content_1_1_vector_handler.html#a79774cea459da02c0eb57bcf2ca84821" target="_top" xlink:title=" ">
<polygon fill="white" stroke="#666666" points="278,-470 148,-470 148,-438 278,-438 278,-470"/>
<text text-anchor="start" x="156" y="-456.5" font-family="Helvetica,sans-Serif" font-size="10.00">Fiea::Engine::Content</text>
<text text-anchor="middle" x="213" y="-444.5" font-family="Helvetica,sans-Serif" font-size="10.00">::VectorHandler::EnterKey</text>
</a>
</g>
</g>
<!-- Node9&#45;&gt;Node15 -->
<g id="edge14_Node000009_Node000015" class="edge">
<title>Node9&#45;&gt;Node15</title>
<g id="a_edge14_Node000009_Node000015"><a xlink:title=" ">
<path fill="none" stroke="#63b8ff" d="M321.41,-486C303.82,-480.75 285.58,-475.32 269.24,-470.45"/>
<polygon fill="#63b8ff" stroke="#63b8ff" points="320.23,-489.29 330.81,-488.8 322.23,-482.59 320.23,-489.29"/>
</a>
</g>
</g>
<!-- Node16 -->
<g id="Node000016" class="node">
<title>Node16</title>
<g id="a_Node000016"><a xlink:href="class_fiea_1_1_engine_1_1_content_1_1_array_handler.html#ad73a1f195217bd25e227ae2081eb1496" target="_top" xlink:title=" ">
<polygon fill="white" stroke="#666666" points="272.75,-420 153.25,-420 153.25,-388 272.75,-388 272.75,-420"/>
<text text-anchor="start" x="161.25" y="-406.5" font-family="Helvetica,sans-Serif" font-size="10.00">Fiea::Engine::Content</text>
<text text-anchor="middle" x="213" y="-394.5" font-family="Helvetica,sans-Serif" font-size="10.00">::ArrayHandler::ExitKey</text>
</a>
</g>
</g>
<!-- Node9&#45;&gt;Node16 -->
<g id="edge15_Node000009_Node000016" class="edge">
<title>Node9&#45;&gt;Node16</title>
<g id="a_edge15_Node000009_Node000016"><a xlink:title=" ">
<path fill="none" stroke="#63b8ff" d="M328.67,-481.56C327.5,-480.73 326.36,-479.87 325.25,-479 303.71,-462.1 311.32,-445.22 289.25,-429 284.26,-425.33 278.7,-422.18 272.92,-419.48"/>
<polygon fill="#63b8ff" stroke="#63b8ff" points="326.42,-484.27 336.73,-486.71 330.19,-478.37 326.42,-484.27"/>
</a>
</g>
</g>
<!-- Node17 -->
<g id="Node000017" class="node">
<title>Node17</title>
<g id="a_Node000017"><a xlink:href="class_fiea_1_1_engine_1_1_content_1_1_float_parse_handler.html#a9ed0c49e00db3cb599446a039694ca69" target="_top" xlink:title=" ">
<polygon fill="white" stroke="#666666" points="268.62,-370 157.38,-370 157.38,-326 268.62,-326 268.62,-370"/>
<text text-anchor="start" x="165.38" y="-356.5" font-family="Helvetica,sans-Serif" font-size="10.00">Fiea::Engine::Content</text>
<text text-anchor="start" x="165.38" y="-344.5" font-family="Helvetica,sans-Serif" font-size="10.00">::FloatParseHandler::</text>
<text text-anchor="middle" x="213" y="-332.5" font-family="Helvetica,sans-Serif" font-size="10.00">ExitKey</text>
</a>
</g>
</g>
<!-- Node9&#45;&gt;Node17 -->
<g id="edge16_Node000009_Node000017" class="edge">
<title>Node9&#45;&gt;Node17</title>
<g id="a_edge16_Node000009_Node000017"><a xlink:title=" ">
<path fill="none" stroke="#63b8ff" d="M326.73,-480.48C326.22,-480 325.73,-479.5 325.25,-479 292.49,-444.96 321.89,-413.15 289.25,-379 283.49,-372.97 276.39,-368.08 268.87,-364.11"/>
<polygon fill="#63b8ff" stroke="#63b8ff" points="324.39,-483.09 334.34,-486.73 328.83,-477.68 324.39,-483.09"/>
</a>
</g>
</g>
<!-- Node18 -->
<g id="Node000018" class="node">
<title>Node18</title>
<g id="a_Node000018"><a xlink:href="class_fiea_1_1_engine_1_1_content_1_1_int_parse_handler.html#a8b3d1d183b22a50852fa91fb6aaf129a" target="_top" xlink:title=" ">
<polygon fill="white" stroke="#666666" points="279.5,-308 146.5,-308 146.5,-276 279.5,-276 279.5,-308"/>
<text text-anchor="start" x="154.5" y="-294.5" font-family="Helvetica,sans-Serif" font-size="10.00">Fiea::Engine::Content</text>
<text text-anchor="middle" x="213" y="-282.5" font-family="Helvetica,sans-Serif" font-size="10.00">::IntParseHandler::ExitKey</text>
</a>
</g>
</g>
<!-- Node9&#45;&gt;Node18 -->
<g id="edge17_Node000009_Node000018" class="edge">
<title>Node9&#45;&gt;Node18</title>
<g id="a_edge17_Node000009_Node000018"><a xlink:title=" ">
<path fill="none" stroke="#63b8ff" d="M326.02,-479.89C325.76,-479.59 325.5,-479.3 325.25,-479 277.58,-422.72 338.67,-371.75 289.25,-317 286.3,-313.73 282.91,-310.89 279.24,-308.42"/>
<polygon fill="#63b8ff" stroke="#63b8ff" points="323.51,-482.34 333.23,-486.57 328.28,-477.21 323.51,-482.34"/>
</a>
</g>
</g>
<!-- Node19 -->
<g id="Node000019" class="node">
<title>Node19</title>
<g id="a_Node000019"><a xlink:href="class_fiea_1_1_engine_1_1_content_1_1_matrix_handler.html#a6dfd14f5166eee8535e73cbc4e3bc69f" target="_top" xlink:title=" ">
<polygon fill="white" stroke="#666666" points="274.62,-258 151.38,-258 151.38,-226 274.62,-226 274.62,-258"/>
<text text-anchor="start" x="159.38" y="-244.5" font-family="Helvetica,sans-Serif" font-size="10.00">Fiea::Engine::Content</text>
<text text-anchor="middle" x="213" y="-232.5" font-family="Helvetica,sans-Serif" font-size="10.00">::MatrixHandler::ExitKey</text>
</a>
</g>
</g>
<!-- Node9&#45;&gt;Node19 -->
<g id="edge18_Node000009_Node000019" class="edge">
<title>Node9&#45;&gt;Node19</title>
<g id="a_edge18_Node000009_Node000019"><a xlink:title=" ">
<path fill="none" stroke="#63b8ff" d="M326,-479.9C325.74,-479.61 325.49,-479.3 325.25,-479 265.34,-404.54 351.48,-339.53 289.25,-267 285.22,-262.3 280.28,-258.48 274.87,-255.37"/>
<polygon fill="#63b8ff" stroke="#63b8ff" points="323.43,-482.29 333.05,-486.71 328.29,-477.25 323.43,-482.29"/>
</a>
</g>
</g>
<!-- Node20 -->
<g id="Node000020" class="node">
<title>Node20</title>
<g id="a_Node000020"><a xlink:href="class_fiea_1_1_engine_1_1_content_1_1_string_parse_handler.html#a9e31a96c6f070198f3f259075e736aa3" target="_top" xlink:title=" ">
<polygon fill="white" stroke="#666666" points="268.62,-208 157.38,-208 157.38,-164 268.62,-164 268.62,-208"/>
<text text-anchor="start" x="165.38" y="-194.5" font-family="Helvetica,sans-Serif" font-size="10.00">Fiea::Engine::Content</text>
<text text-anchor="start" x="165.38" y="-182.5" font-family="Helvetica,sans-Serif" font-size="10.00">::StringParseHandler</text>
<text text-anchor="middle" x="213" y="-170.5" font-family="Helvetica,sans-Serif" font-size="10.00">::ExitKey</text>
</a>
</g>
</g>
<!-- Node9&#45;&gt;Node20 -->
<g id="edge19_Node000009_Node000020" class="edge">
<title>Node9&#45;&gt;Node20</title>
<g id="a_edge19_Node000009_Node000020"><a xlink:title=" ">
<path fill="none" stroke="#63b8ff" d="M325.72,-479.59C325.56,-479.4 325.4,-479.2 325.25,-479 253.02,-386.27 361.16,-309.98 289.25,-217 283.89,-210.07 276.71,-204.68 268.91,-200.49"/>
<polygon fill="#63b8ff" stroke="#63b8ff" points="323.08,-481.9 332.62,-486.51 328.04,-476.96 323.08,-481.9"/>
</a>
</g>
</g>
<!-- Node21 -->
<g id="Node000021" class="node">
<title>Node21</title>
<g id="a_Node000021"><a xlink:href="class_fiea_1_1_engine_1_1_content_1_1_vector_handler.html#ae3b22ca8db36059cc9377169fe59d308" target="_top" xlink:title=" ">
<polygon fill="white" stroke="#666666" points="275,-146 151,-146 151,-114 275,-114 275,-146"/>
<text text-anchor="start" x="159" y="-132.5" font-family="Helvetica,sans-Serif" font-size="10.00">Fiea::Engine::Content</text>
<text text-anchor="middle" x="213" y="-120.5" font-family="Helvetica,sans-Serif" font-size="10.00">::VectorHandler::ExitKey</text>
</a>
</g>
</g>
<!-- Node9&#45;&gt;Node21 -->
<g id="edge20_Node000009_Node000021" class="edge">
<title>Node9&#45;&gt;Node21</title>
<g id="a_edge20_Node000009_Node000021"><a xlink:title=" ">
<path fill="none" stroke="#63b8ff" d="M325.71,-479.6C325.56,-479.4 325.4,-479.2 325.25,-479 237.71,-363.55 380.39,-267.63 289.25,-155 285.35,-150.18 280.5,-146.29 275.15,-143.14"/>
<polygon fill="#63b8ff" stroke="#63b8ff" points="323.04,-481.87 332.53,-486.58 328.05,-476.98 323.04,-481.87"/>
</a>
</g>
</g>
<!-- Node24&#45;&gt;Node27 -->
<g id="edge23_Node000024_Node000027" class="edge">
<title>Node24&#45;&gt;Node27</title>
<g id="a_edge23_Node000024_Node000027"><a xlink:title=" ">
<path fill="none" stroke="#63b8ff" d="M337.4,-374.21C332.81,-370.67 328.66,-366.62 325.25,-362 256.77,-269.19 363.08,-193.61 289.25,-105 286.52,-101.72 283.34,-98.87 279.88,-96.39"/>
<polygon fill="#63b8ff" stroke="#63b8ff" points="335.16,-376.92 345.42,-379.57 339.05,-371.11 335.16,-376.92"/>
</a>
</g>
</g>
<!-- Node37&#45;&gt;Node36 -->
<g id="edge33_Node000037_Node000036" class="edge">
<title>Node37&#45;&gt;Node36</title>
<g id="a_edge33_Node000037_Node000036"><a xlink:title=" ">
<path fill="none" stroke="#63b8ff" d="M325.36,-18.85C304.56,-19.63 282.58,-20.45 263.69,-21.15"/>
<polygon fill="#63b8ff" stroke="#63b8ff" points="325.4,-22.35 335.26,-18.48 325.14,-15.36 325.4,-22.35"/>
</a>
</g>
</g>
</g>
</svg>
