<?xml version="1.0" encoding="UTF-8" standalone="no"?>
<!DOCTYPE svg PUBLIC "-//W3C//DTD SVG 1.1//EN"
 "http://www.w3.org/Graphics/SVG/1.1/DTD/svg11.dtd">
<!-- Generated by graphviz version 12.2.1 (20241206.2353)
 -->
<!-- Title: Fiea::Engine::Content::Parser::Deserialize Pages: 1 -->
<svg width="480pt" height="146pt"
 viewBox="0.00 0.00 479.75 146.00" xmlns="http://www.w3.org/2000/svg" xmlns:xlink="http://www.w3.org/1999/xlink">
<g id="graph0" class="graph" transform="scale(1 1) rotate(0) translate(4 142)">
<title>Fiea::Engine::Content::Parser::Deserialize</title>
<!-- Node1 -->
<g id="Node000001" class="node">
<title>Node1</title>
<g id="a_Node000001"><a xlink:title=" ">
<polygon fill="#999999" stroke="#666666" points="471.75,-88 360.5,-88 360.5,-56 471.75,-56 471.75,-88"/>
<text text-anchor="start" x="368.5" y="-74.5" font-family="Helvetica,sans-Serif" font-size="10.00">Fiea::Engine::Content</text>
<text text-anchor="middle" x="416.12" y="-62.5" font-family="Helvetica,sans-Serif" font-size="10.00">::Parser::Deserialize</text>
</a>
</g>
</g>
<!-- Node1&#45;&gt;Node1 -->
<g id="edge2_Node000001_Node000001" class="edge">
<title>Node1&#45;&gt;Node1</title>
<g id="a_edge2_Node000001_Node000001"><a xlink:title=" ">
<path fill="none" stroke="#63b8ff" d="M443.41,-99.71C438.86,-103.48 429.77,-106 416.12,-106 391.18,-106 381.43,-97.58 386.89,-88.44"/>
<polygon fill="#63b8ff" stroke="#63b8ff" points="446.85,-100.38 445.1,-89.93 439.95,-99.19 446.85,-100.38"/>
</a>
</g>
</g>
<!-- Node2 -->
<g id="Node000002" class="node">
<title>Node2</title>
<g id="a_Node000002"><a xlink:href="class_fiea_1_1_engine_1_1_content_1_1_content_service.html#a60f69536cd81afad4fc1a528620d1d47" target="_top" xlink:title=" ">
<polygon fill="white" stroke="#666666" points="324.5,-138 180.25,-138 180.25,-106 324.5,-106 324.5,-138"/>
<text text-anchor="start" x="188.25" y="-124.5" font-family="Helvetica,sans-Serif" font-size="10.00">Fiea::Engine::Content</text>
<text text-anchor="middle" x="252.38" y="-112.5" font-family="Helvetica,sans-Serif" font-size="10.00">::ContentService::Deserialize</text>
</a>
</g>
</g>
<!-- Node1&#45;&gt;Node2 -->
<g id="edge1_Node000001_Node000002" class="edge">
<title>Node1&#45;&gt;Node2</title>
<g id="a_edge1_Node000001_Node000002"><a xlink:title=" ">
<path fill="none" stroke="#63b8ff" d="M351.54,-91.66C336.71,-96.24 321.07,-101.08 306.73,-105.51"/>
<polygon fill="#63b8ff" stroke="#63b8ff" points="352.2,-95.12 360.72,-88.82 350.13,-88.43 352.2,-95.12"/>
</a>
</g>
</g>
<!-- Node3 -->
<g id="Node000003" class="node">
<title>Node3</title>
<g id="a_Node000003"><a xlink:href="class_fiea_1_1_engine_1_1_content_1_1_content_service.html#a9f29a7c5838ae0186db6c20056e17126" target="_top" xlink:title=" ">
<polygon fill="white" stroke="#666666" points="324.5,-88 180.25,-88 180.25,-56 324.5,-56 324.5,-88"/>
<text text-anchor="start" x="188.25" y="-74.5" font-family="Helvetica,sans-Serif" font-size="10.00">Fiea::Engine::Content</text>
<text text-anchor="middle" x="252.38" y="-62.5" font-family="Helvetica,sans-Serif" font-size="10.00">::ContentService::Deserialize</text>
</a>
</g>
</g>
<!-- Node1&#45;&gt;Node3 -->
<g id="edge3_Node000001_Node000003" class="edge">
<title>Node1&#45;&gt;Node3</title>
<g id="a_edge3_Node000001_Node000003"><a xlink:title=" ">
<path fill="none" stroke="#63b8ff" d="M348.96,-72C341.06,-72 332.97,-72 325,-72"/>
<polygon fill="#63b8ff" stroke="#63b8ff" points="348.85,-75.5 358.85,-72 348.85,-68.5 348.85,-75.5"/>
</a>
</g>
</g>
<!-- Node4 -->
<g id="Node000004" class="node">
<title>Node4</title>
<g id="a_Node000004"><a xlink:href="class_fiea_1_1_engine_1_1_content_1_1_parser.html#a56cea7a6cabe187ce72b2b414cc448f6" target="_top" xlink:title=" ">
<polygon fill="white" stroke="#666666" points="324.12,-38 180.62,-38 180.62,-6 324.12,-6 324.12,-38"/>
<text text-anchor="start" x="188.62" y="-24.5" font-family="Helvetica,sans-Serif" font-size="10.00">Fiea::Engine::Content</text>
<text text-anchor="middle" x="252.38" y="-12.5" font-family="Helvetica,sans-Serif" font-size="10.00">::Parser::DeserializeFromFile</text>
</a>
</g>
</g>
<!-- Node1&#45;&gt;Node4 -->
<g id="edge4_Node000001_Node000004" class="edge">
<title>Node1&#45;&gt;Node4</title>
<g id="a_edge4_Node000001_Node000004"><a xlink:title=" ">
<path fill="none" stroke="#63b8ff" d="M351.54,-52.34C336.71,-47.76 321.07,-42.92 306.73,-38.49"/>
<polygon fill="#63b8ff" stroke="#63b8ff" points="350.13,-55.57 360.72,-55.18 352.2,-48.88 350.13,-55.57"/>
</a>
</g>
</g>
<!-- Node5 -->
<g id="Node000005" class="node">
<title>Node5</title>
<g id="a_Node000005"><a xlink:href="class_fiea_1_1_engine_1_1_content_1_1_content_service.html#aab4896f82ddc4bd63de9a30d924353d4" target="_top" xlink:title=" ">
<polygon fill="white" stroke="#666666" points="144.25,-44 0,-44 0,0 144.25,0 144.25,-44"/>
<text text-anchor="start" x="8" y="-30.5" font-family="Helvetica,sans-Serif" font-size="10.00">Fiea::Engine::Content</text>
<text text-anchor="start" x="8" y="-18.5" font-family="Helvetica,sans-Serif" font-size="10.00">::ContentService::Deserialize</text>
<text text-anchor="middle" x="72.12" y="-6.5" font-family="Helvetica,sans-Serif" font-size="10.00">FromFile</text>
</a>
</g>
</g>
<!-- Node4&#45;&gt;Node5 -->
<g id="edge5_Node000004_Node000005" class="edge">
<title>Node4&#45;&gt;Node5</title>
<g id="a_edge5_Node000004_Node000005"><a xlink:title=" ">
<path fill="none" stroke="#63b8ff" d="M168.78,-22C160.67,-22 152.5,-22 144.52,-22"/>
<polygon fill="#63b8ff" stroke="#63b8ff" points="168.64,-25.5 178.64,-22 168.64,-18.5 168.64,-25.5"/>
</a>
</g>
</g>
</g>
</svg>
