<?xml version="1.0" encoding="UTF-8" standalone="no"?>
<!DOCTYPE svg PUBLIC "-//W3C//DTD SVG 1.1//EN"
 "http://www.w3.org/Graphics/SVG/1.1/DTD/svg11.dtd">
<!-- Generated by graphviz version 12.2.1 (20241206.2353)
 -->
<!-- Title: Fiea::Engine::GameObject::operator== Pages: 1 -->
<svg width="608pt" height="78pt"
 viewBox="0.00 0.00 608.25 78.00" xmlns="http://www.w3.org/2000/svg" xmlns:xlink="http://www.w3.org/1999/xlink">
<g id="graph0" class="graph" transform="scale(1 1) rotate(0) translate(4 74)">
<title>Fiea::Engine::GameObject::operator==</title>
<!-- Node1 -->
<g id="Node000001" class="node">
<title>Node1</title>
<g id="a_Node000001"><a xlink:title=" ">
<polygon fill="#999999" stroke="#666666" points="131.5,-54 0,-54 0,-22 131.5,-22 131.5,-54"/>
<text text-anchor="start" x="8" y="-40.5" font-family="Helvetica,sans-Serif" font-size="10.00">Fiea::Engine::GameObject</text>
<text text-anchor="middle" x="65.75" y="-28.5" font-family="Helvetica,sans-Serif" font-size="10.00">::operator==</text>
</a>
</g>
</g>
<!-- Node2 -->
<g id="Node000002" class="node">
<title>Node2</title>
<g id="a_Node000002"><a xlink:href="class_fiea_1_1_engine_1_1_game_object.html#a1d65d71f93d2e93cc95fd305183a85b3" target="_top" xlink:title="virtual function part of the vtable pointer. We are calling in the equality operator overloaded funct...">
<polygon fill="white" stroke="#666666" points="299,-54 167.5,-54 167.5,-22 299,-22 299,-54"/>
<text text-anchor="start" x="175.5" y="-40.5" font-family="Helvetica,sans-Serif" font-size="10.00">Fiea::Engine::GameObject</text>
<text text-anchor="middle" x="233.25" y="-28.5" font-family="Helvetica,sans-Serif" font-size="10.00">::Equals</text>
</a>
</g>
</g>
<!-- Node1&#45;&gt;Node2 -->
<g id="edge1_Node000001_Node000002" class="edge">
<title>Node1&#45;&gt;Node2</title>
<g id="a_edge1_Node000001_Node000002"><a xlink:title=" ">
<path fill="none" stroke="#63b8ff" d="M131.68,-38C139.63,-38 147.79,-38 155.88,-38"/>
<polygon fill="#63b8ff" stroke="#63b8ff" points="155.72,-41.5 165.72,-38 155.72,-34.5 155.72,-41.5"/>
</a>
</g>
</g>
<!-- Node3 -->
<g id="Node000003" class="node">
<title>Node3</title>
<g id="a_Node000003"><a xlink:href="class_fiea_1_1_engine_1_1_r_t_t_i.html#a15bd5993c8ad04da47af440298ebbb30" target="_top" xlink:title=" ">
<polygon fill="white" stroke="#666666" points="451.5,-70 335,-70 335,-50 451.5,-50 451.5,-70"/>
<text text-anchor="middle" x="393.25" y="-56.5" font-family="Helvetica,sans-Serif" font-size="10.00">Fiea::Engine::RTTI::As</text>
</a>
</g>
</g>
<!-- Node2&#45;&gt;Node3 -->
<g id="edge2_Node000002_Node000003" class="edge">
<title>Node2&#45;&gt;Node3</title>
<g id="a_edge2_Node000002_Node000003"><a xlink:title=" ">
<path fill="none" stroke="#63b8ff" d="M299.43,-47.08C307.4,-48.19 315.57,-49.32 323.59,-50.44"/>
<polygon fill="#63b8ff" stroke="#63b8ff" points="322.91,-53.88 333.3,-51.79 323.88,-46.95 322.91,-53.88"/>
</a>
</g>
</g>
<!-- Node5 -->
<g id="Node000005" class="node">
<title>Node5</title>
<g id="a_Node000005"><a xlink:href="class_fiea_1_1_engine_1_1_r_t_t_i.html#a876bebbe7b3149483c43a87f55f4ea99" target="_top" xlink:title=" ">
<polygon fill="white" stroke="#666666" points="442.5,-32 344,-32 344,0 442.5,0 442.5,-32"/>
<text text-anchor="start" x="352" y="-18.5" font-family="Helvetica,sans-Serif" font-size="10.00">Fiea::Engine::RTTI</text>
<text text-anchor="middle" x="393.25" y="-6.5" font-family="Helvetica,sans-Serif" font-size="10.00">::TypeIdInstance</text>
</a>
</g>
</g>
<!-- Node2&#45;&gt;Node5 -->
<g id="edge4_Node000002_Node000005" class="edge">
<title>Node2&#45;&gt;Node5</title>
<g id="a_edge4_Node000002_Node000005"><a xlink:title=" ">
<path fill="none" stroke="#63b8ff" d="M299.43,-28.92C310.29,-27.41 321.51,-25.85 332.24,-24.36"/>
<polygon fill="#63b8ff" stroke="#63b8ff" points="332.72,-27.82 342.14,-22.98 331.75,-20.89 332.72,-27.82"/>
</a>
</g>
</g>
<!-- Node4 -->
<g id="Node000004" class="node">
<title>Node4</title>
<g id="a_Node000004"><a xlink:href="class_fiea_1_1_engine_1_1_r_t_t_i.html#ac0a7d875e4513b2aca7594abcd4418ef" target="_top" xlink:title=" ">
<polygon fill="white" stroke="#666666" points="600.25,-70 487.5,-70 487.5,-50 600.25,-50 600.25,-70"/>
<text text-anchor="middle" x="543.88" y="-56.5" font-family="Helvetica,sans-Serif" font-size="10.00">Fiea::Engine::RTTI::Is</text>
</a>
</g>
</g>
<!-- Node3&#45;&gt;Node4 -->
<g id="edge3_Node000003_Node000004" class="edge">
<title>Node3&#45;&gt;Node4</title>
<g id="a_edge3_Node000003_Node000004"><a xlink:title=" ">
<path fill="none" stroke="#63b8ff" d="M451.71,-60C459.6,-60 467.75,-60 475.78,-60"/>
<polygon fill="#63b8ff" stroke="#63b8ff" points="475.52,-63.5 485.52,-60 475.52,-56.5 475.52,-63.5"/>
</a>
</g>
</g>
</g>
</svg>
