<?xml version="1.0" encoding="UTF-8" standalone="no"?>
<!DOCTYPE svg PUBLIC "-//W3C//DTD SVG 1.1//EN"
 "http://www.w3.org/Graphics/SVG/1.1/DTD/svg11.dtd">
<!-- Generated by graphviz version 12.2.1 (20241206.2353)
 -->
<!-- Title: Fiea::Engine::List::operator= Pages: 1 -->
<svg width="251pt" height="78pt"
 viewBox="0.00 0.00 250.75 78.00" xmlns="http://www.w3.org/2000/svg" xmlns:xlink="http://www.w3.org/1999/xlink">
<g id="graph0" class="graph" transform="scale(1 1) rotate(0) translate(4 74)">
<title>Fiea::Engine::List::operator=</title>
<!-- Node1 -->
<g id="Node000001" class="node">
<title>Node1</title>
<g id="a_Node000001"><a xlink:title="Assign operator. It is used when List a = b. Transfers all elements from one list to another.">
<polygon fill="#999999" stroke="#666666" points="92.5,-48 0,-48 0,-16 92.5,-16 92.5,-48"/>
<text text-anchor="start" x="8" y="-34.5" font-family="Helvetica,sans-Serif" font-size="10.00">Fiea::Engine::List</text>
<text text-anchor="middle" x="46.25" y="-22.5" font-family="Helvetica,sans-Serif" font-size="10.00">::operator=</text>
</a>
</g>
</g>
<!-- Node2 -->
<g id="Node000002" class="node">
<title>Node2</title>
<g id="a_Node000002"><a xlink:href="class_fiea_1_1_engine_1_1_list.html#a95a54eb9516d0e6a240069dc6f81b106" target="_top" xlink:title="Returns an iterator that holds the first element of the list.">
<polygon fill="white" stroke="#666666" points="231.88,-70 139.38,-70 139.38,-38 231.88,-38 231.88,-70"/>
<text text-anchor="start" x="147.38" y="-56.5" font-family="Helvetica,sans-Serif" font-size="10.00">Fiea::Engine::List</text>
<text text-anchor="middle" x="185.62" y="-44.5" font-family="Helvetica,sans-Serif" font-size="10.00">::begin</text>
</a>
</g>
</g>
<!-- Node1&#45;&gt;Node2 -->
<g id="edge1_Node000001_Node000002" class="edge">
<title>Node1&#45;&gt;Node2</title>
<g id="a_edge1_Node000001_Node000002"><a xlink:title=" ">
<path fill="none" stroke="#63b8ff" d="M92.99,-39.33C104.12,-41.11 116.15,-43.03 127.72,-44.89"/>
<polygon fill="#63b8ff" stroke="#63b8ff" points="127.16,-48.34 137.59,-46.47 128.27,-41.43 127.16,-48.34"/>
</a>
</g>
</g>
<!-- Node3 -->
<g id="Node000003" class="node">
<title>Node3</title>
<g id="a_Node000003"><a xlink:href="class_fiea_1_1_engine_1_1_list.html#a964d262d4dd1ba56624187155216cf5e" target="_top" xlink:title="Returns an iterator that holds the sentinel which is the node after the last node.">
<polygon fill="white" stroke="#666666" points="242.75,-20 128.5,-20 128.5,0 242.75,0 242.75,-20"/>
<text text-anchor="middle" x="185.62" y="-6.5" font-family="Helvetica,sans-Serif" font-size="10.00">Fiea::Engine::List::end</text>
</a>
</g>
</g>
<!-- Node1&#45;&gt;Node3 -->
<g id="edge2_Node000001_Node000003" class="edge">
<title>Node1&#45;&gt;Node3</title>
<g id="a_edge2_Node000001_Node000003"><a xlink:title=" ">
<path fill="none" stroke="#63b8ff" d="M92.99,-24.67C100.63,-23.45 108.7,-22.16 116.75,-20.87"/>
<polygon fill="#63b8ff" stroke="#63b8ff" points="117.27,-24.33 126.59,-19.29 116.16,-17.42 117.27,-24.33"/>
</a>
</g>
</g>
</g>
</svg>
