<?xml version="1.0" encoding="UTF-8" standalone="no"?>
<!DOCTYPE svg PUBLIC "-//W3C//DTD SVG 1.1//EN"
 "http://www.w3.org/Graphics/SVG/1.1/DTD/svg11.dtd">
<!-- Generated by graphviz version 12.2.1 (20241206.2353)
 -->
<!-- Title: Fiea::Engine::Memory::MemoryService Pages: 1 -->
<svg width="368pt" height="392pt"
 viewBox="0.00 0.00 368.00 392.00" xmlns="http://www.w3.org/2000/svg" xmlns:xlink="http://www.w3.org/1999/xlink">
<g id="graph0" class="graph" transform="scale(1 1) rotate(0) translate(4 388)">
<title>Fiea::Engine::Memory::MemoryService</title>
<!-- Node1 -->
<g id="Node000001" class="node">
<title>Node1</title>
<g id="a_Node000001"><a xlink:title="The main class that handles all heaps and via the interfaces it exposes relevant functionalities such...">
<polygon fill="#999999" stroke="none" points="275.62,-224 144.38,-224 144.38,0 275.62,0 275.62,-224"/>
<text text-anchor="start" x="162" y="-210.5" font-family="Helvetica,sans-Serif" font-size="10.00">Fiea::Engine::Memory</text>
<text text-anchor="start" x="172.88" y="-198.5" font-family="Helvetica,sans-Serif" font-size="10.00">::MemoryService</text>
<text text-anchor="start" x="208.5" y="-182.5" font-family="Helvetica,sans-Serif" font-size="10.00"> </text>
<text text-anchor="start" x="148.38" y="-166.5" font-family="Helvetica,sans-Serif" font-size="10.00">+</text>
<text text-anchor="start" x="158.38" y="-166.5" font-family="Helvetica,sans-Serif" font-size="10.00">FIEA_SERVICE_BIND2()</text>
<text text-anchor="start" x="148.38" y="-150.5" font-family="Helvetica,sans-Serif" font-size="10.00">+</text>
<text text-anchor="start" x="158.38" y="-150.5" font-family="Helvetica,sans-Serif" font-size="10.00">MemoryService()</text>
<text text-anchor="start" x="148.38" y="-134.5" font-family="Helvetica,sans-Serif" font-size="10.00">+</text>
<text text-anchor="start" x="158.38" y="-134.5" font-family="Helvetica,sans-Serif" font-size="10.00">~MemoryService()</text>
<text text-anchor="start" x="148.38" y="-118.5" font-family="Helvetica,sans-Serif" font-size="10.00">+</text>
<text text-anchor="start" x="158.38" y="-118.5" font-family="Helvetica,sans-Serif" font-size="10.00">CreateHeap()</text>
<text text-anchor="start" x="148.38" y="-102.5" font-family="Helvetica,sans-Serif" font-size="10.00">+</text>
<text text-anchor="start" x="158.38" y="-102.5" font-family="Helvetica,sans-Serif" font-size="10.00">DestroyHeap()</text>
<text text-anchor="start" x="148.38" y="-86.5" font-family="Helvetica,sans-Serif" font-size="10.00">+</text>
<text text-anchor="start" x="158.38" y="-86.5" font-family="Helvetica,sans-Serif" font-size="10.00">GetAllocator()</text>
<text text-anchor="start" x="148.38" y="-70.5" font-family="Helvetica,sans-Serif" font-size="10.00">+</text>
<text text-anchor="start" x="158.38" y="-70.5" font-family="Helvetica,sans-Serif" font-size="10.00">GetAllocator()</text>
<text text-anchor="start" x="148.38" y="-54.5" font-family="Helvetica,sans-Serif" font-size="10.00">+</text>
<text text-anchor="start" x="158.38" y="-54.5" font-family="Helvetica,sans-Serif" font-size="10.00">DefaultAlloc()</text>
<text text-anchor="start" x="148.38" y="-38.5" font-family="Helvetica,sans-Serif" font-size="10.00">+</text>
<text text-anchor="start" x="158.38" y="-38.5" font-family="Helvetica,sans-Serif" font-size="10.00">DefaultFree()</text>
<text text-anchor="start" x="148.38" y="-22.5" font-family="Helvetica,sans-Serif" font-size="10.00">+</text>
<text text-anchor="start" x="158.38" y="-22.5" font-family="Helvetica,sans-Serif" font-size="10.00">PushDefaultAllocator()</text>
<text text-anchor="start" x="148.38" y="-6.5" font-family="Helvetica,sans-Serif" font-size="10.00">+</text>
<text text-anchor="start" x="158.38" y="-6.5" font-family="Helvetica,sans-Serif" font-size="10.00">PopDefaultAllocator()</text>
<polygon fill="#666666" stroke="#666666" points="144.38,-194 144.38,-194 275.62,-194 275.62,-194 144.38,-194"/>
<polygon fill="#666666" stroke="#666666" points="144.38,-178 144.38,-178 275.62,-178 275.62,-178 144.38,-178"/>
<polygon fill="none" stroke="#666666" points="144.38,0 144.38,-224 275.62,-224 275.62,0 144.38,0"/>
</a>
</g>
</g>
<!-- Node2 -->
<g id="Node000002" class="node">
<title>Node2</title>
<g id="a_Node000002"><a xlink:href="struct_fiea_1_1_engine_1_1_memory_1_1_i_memory_service.html" target="_top" xlink:title=" ">
<polygon fill="white" stroke="none" points="104,-368 0,-368 0,-288 104,-288 104,-368"/>
<text text-anchor="start" x="4" y="-354.5" font-family="Helvetica,sans-Serif" font-size="10.00">Fiea::Engine::Memory</text>
<text text-anchor="start" x="13.38" y="-342.5" font-family="Helvetica,sans-Serif" font-size="10.00">::IMemoryService</text>
<text text-anchor="start" x="50.5" y="-326.5" font-family="Helvetica,sans-Serif" font-size="10.00"> </text>
<text text-anchor="start" x="9.56" y="-310.5" font-family="Helvetica,sans-Serif" font-size="10.00">+</text>
<text text-anchor="start" x="25.12" y="-310.5" font-family="Helvetica,sans-Serif" font-size="10.00">CreateHeap()</text>
<text text-anchor="start" x="9.56" y="-294.5" font-family="Helvetica,sans-Serif" font-size="10.00">+</text>
<text text-anchor="start" x="25.12" y="-294.5" font-family="Helvetica,sans-Serif" font-size="10.00">DestroyHeap()</text>
<polygon fill="#666666" stroke="#666666" points="0,-338 0,-338 104,-338 104,-338 0,-338"/>
<polygon fill="#666666" stroke="#666666" points="0,-322 0,-322 104,-322 104,-322 0,-322"/>
<polygon fill="none" stroke="#666666" points="0,-288 0,-368 104,-368 104,-288 0,-288"/>
</a>
</g>
</g>
<!-- Node2&#45;&gt;Node1 -->
<g id="edge1_Node000001_Node000002" class="edge">
<title>Node2&#45;&gt;Node1</title>
<g id="a_edge1_Node000001_Node000002"><a xlink:title=" ">
<path fill="none" stroke="#63b8ff" d="M87.35,-279.12C104.22,-256.27 124.97,-228.17 144.56,-201.63"/>
<polygon fill="none" stroke="#63b8ff" points="84.64,-276.9 81.51,-287.03 90.27,-281.06 84.64,-276.9"/>
</a>
</g>
</g>
<!-- Node3 -->
<g id="Node000003" class="node">
<title>Node3</title>
<g id="a_Node000003"><a xlink:href="struct_fiea_1_1_engine_1_1_memory_1_1_i_allocator_provider.html" target="_top" xlink:title=" ">
<polygon fill="white" stroke="none" points="238.12,-384 121.88,-384 121.88,-272 238.12,-272 238.12,-384"/>
<text text-anchor="start" x="132" y="-370.5" font-family="Helvetica,sans-Serif" font-size="10.00">Fiea::Engine::Memory</text>
<text text-anchor="start" x="138.38" y="-358.5" font-family="Helvetica,sans-Serif" font-size="10.00">::IAllocatorProvider</text>
<text text-anchor="start" x="178.5" y="-342.5" font-family="Helvetica,sans-Serif" font-size="10.00"> </text>
<text text-anchor="start" x="125.88" y="-326.5" font-family="Helvetica,sans-Serif" font-size="10.00">+</text>
<text text-anchor="start" x="135.88" y="-326.5" font-family="Helvetica,sans-Serif" font-size="10.00">GetAllocator()</text>
<text text-anchor="start" x="125.88" y="-310.5" font-family="Helvetica,sans-Serif" font-size="10.00">+</text>
<text text-anchor="start" x="135.88" y="-310.5" font-family="Helvetica,sans-Serif" font-size="10.00">GetAllocator()</text>
<text text-anchor="start" x="125.88" y="-294.5" font-family="Helvetica,sans-Serif" font-size="10.00">+</text>
<text text-anchor="start" x="135.88" y="-294.5" font-family="Helvetica,sans-Serif" font-size="10.00">PushDefaultAllocator()</text>
<text text-anchor="start" x="125.88" y="-278.5" font-family="Helvetica,sans-Serif" font-size="10.00">+</text>
<text text-anchor="start" x="135.88" y="-278.5" font-family="Helvetica,sans-Serif" font-size="10.00">PopDefaultAllocator()</text>
<polygon fill="#666666" stroke="#666666" points="121.88,-354 121.88,-354 238.12,-354 238.12,-354 121.88,-354"/>
<polygon fill="#666666" stroke="#666666" points="121.88,-338 121.88,-338 238.12,-338 238.12,-338 121.88,-338"/>
<polygon fill="none" stroke="#666666" points="121.88,-272 121.88,-384 238.12,-384 238.12,-272 121.88,-272"/>
</a>
</g>
</g>
<!-- Node3&#45;&gt;Node1 -->
<g id="edge2_Node000001_Node000003" class="edge">
<title>Node3&#45;&gt;Node1</title>
<g id="a_edge2_Node000001_Node000003"><a xlink:title=" ">
<path fill="none" stroke="#63b8ff" d="M189.24,-261.08C190.9,-249.24 192.67,-236.61 194.45,-223.9"/>
<polygon fill="none" stroke="#63b8ff" points="185.82,-260.28 187.9,-270.67 192.75,-261.25 185.82,-260.28"/>
</a>
</g>
</g>
<!-- Node4 -->
<g id="Node000004" class="node">
<title>Node4</title>
<g id="a_Node000004"><a xlink:href="class_fiea_1_1_engine_1_1_memory_1_1_i_default_allocator.html" target="_top" xlink:title=" ">
<polygon fill="white" stroke="none" points="360,-368 256,-368 256,-288 360,-288 360,-368"/>
<text text-anchor="start" x="260" y="-354.5" font-family="Helvetica,sans-Serif" font-size="10.00">Fiea::Engine::Memory</text>
<text text-anchor="start" x="268.62" y="-342.5" font-family="Helvetica,sans-Serif" font-size="10.00">::IDefaultAllocator</text>
<text text-anchor="start" x="306.5" y="-326.5" font-family="Helvetica,sans-Serif" font-size="10.00"> </text>
<text text-anchor="start" x="266.69" y="-310.5" font-family="Helvetica,sans-Serif" font-size="10.00">+</text>
<text text-anchor="start" x="283.38" y="-310.5" font-family="Helvetica,sans-Serif" font-size="10.00">DefaultAlloc()</text>
<text text-anchor="start" x="266.69" y="-294.5" font-family="Helvetica,sans-Serif" font-size="10.00">+</text>
<text text-anchor="start" x="283.38" y="-294.5" font-family="Helvetica,sans-Serif" font-size="10.00">DefaultFree()</text>
<polygon fill="#666666" stroke="#666666" points="256,-338 256,-338 360,-338 360,-338 256,-338"/>
<polygon fill="#666666" stroke="#666666" points="256,-322 256,-322 360,-322 360,-322 256,-322"/>
<polygon fill="none" stroke="#666666" points="256,-288 256,-368 360,-368 360,-288 256,-288"/>
</a>
</g>
</g>
<!-- Node4&#45;&gt;Node1 -->
<g id="edge3_Node000001_Node000004" class="edge">
<title>Node4&#45;&gt;Node1</title>
<g id="a_edge3_Node000001_Node000004"><a xlink:title=" ">
<path fill="none" stroke="#63b8ff" d="M280.23,-278.09C275.99,-270.12 271.77,-261.88 268,-254 263.38,-244.33 258.77,-234.19 254.28,-223.97"/>
<polygon fill="none" stroke="#63b8ff" points="277.04,-279.55 284.88,-286.68 283.2,-276.22 277.04,-279.55"/>
</a>
</g>
</g>
<!-- Node4&#45;&gt;Node1 -->
<g id="edge4_Node000001_Node000004" class="edge">
<title>Node4&#45;&gt;Node1</title>
<g id="a_edge4_Node000001_Node000004"><a xlink:title=" ">
<path fill="none" stroke="#63b8ff" d="M290.25,-288.25C283.28,-273.01 274.85,-254.61 266.12,-235.54"/>
<polygon fill="none" stroke="#63b8ff" points="266.17,-235.66 260.04,-231.87 261.17,-224.75 267.31,-228.54 266.17,-235.66"/>
</a>
</g>
<text text-anchor="middle" x="315.5" y="-244.5" font-family="Helvetica,sans-Serif" font-size="10.00" fill="grey"> +_DefaultAllocator</text>
</g>
</g>
</svg>
