<?xml version="1.0" encoding="UTF-8" standalone="no"?>
<!DOCTYPE svg PUBLIC "-//W3C//DTD SVG 1.1//EN"
 "http://www.w3.org/Graphics/SVG/1.1/DTD/svg11.dtd">
<!-- Generated by graphviz version 12.2.1 (20241206.2353)
 -->
<!-- Title: Fiea::Engine::Content::ScopeWriter::IsKeyStorageExternal Pages: 1 -->
<svg width="324pt" height="638pt"
 viewBox="0.00 0.00 323.50 638.00" xmlns="http://www.w3.org/2000/svg" xmlns:xlink="http://www.w3.org/1999/xlink">
<g id="graph0" class="graph" transform="scale(1 1) rotate(0) translate(4 634)">
<title>Fiea::Engine::Content::ScopeWriter::IsKeyStorageExternal</title>
<!-- Node1 -->
<g id="Node000001" class="node">
<title>Node1</title>
<g id="a_Node000001"><a xlink:title=" ">
<polygon fill="#999999" stroke="#666666" points="315.5,-337 175,-337 175,-293 315.5,-293 315.5,-337"/>
<text text-anchor="start" x="183" y="-323.5" font-family="Helvetica,sans-Serif" font-size="10.00">Fiea::Engine::Content</text>
<text text-anchor="start" x="183" y="-311.5" font-family="Helvetica,sans-Serif" font-size="10.00">::ScopeWriter::IsKeyStorage</text>
<text text-anchor="middle" x="245.25" y="-299.5" font-family="Helvetica,sans-Serif" font-size="10.00">External</text>
</a>
</g>
</g>
<!-- Node2 -->
<g id="Node000002" class="node">
<title>Node2</title>
<g id="a_Node000002"><a xlink:href="class_fiea_1_1_engine_1_1_content_1_1_array_handler.html#a12c964e02fd52210a503839f93f9bcd5" target="_top" xlink:title=" ">
<polygon fill="white" stroke="#666666" points="132.25,-630 6.75,-630 6.75,-598 132.25,-598 132.25,-630"/>
<text text-anchor="start" x="14.75" y="-616.5" font-family="Helvetica,sans-Serif" font-size="10.00">Fiea::Engine::Content</text>
<text text-anchor="middle" x="69.5" y="-604.5" font-family="Helvetica,sans-Serif" font-size="10.00">::ArrayHandler::EnterKey</text>
</a>
</g>
</g>
<!-- Node1&#45;&gt;Node2 -->
<g id="edge1_Node000001_Node000002" class="edge">
<title>Node1&#45;&gt;Node2</title>
<g id="a_edge1_Node000001_Node000002"><a xlink:title=" ">
<path fill="none" stroke="#63b8ff" d="M240.39,-348.4C232.08,-405.4 207.35,-521.79 139,-589 135.66,-592.28 131.85,-595.14 127.79,-597.63"/>
<polygon fill="#63b8ff" stroke="#63b8ff" points="243.83,-349.06 241.72,-338.68 236.9,-348.11 243.83,-349.06"/>
</a>
</g>
</g>
<!-- Node3 -->
<g id="Node000003" class="node">
<title>Node3</title>
<g id="a_Node000003"><a xlink:href="class_fiea_1_1_engine_1_1_content_1_1_float_parse_handler.html#abc4c8eb2ad52cd9ebdafba350e9a58d7" target="_top" xlink:title=" ">
<polygon fill="white" stroke="#666666" points="125.12,-580 13.88,-580 13.88,-536 125.12,-536 125.12,-580"/>
<text text-anchor="start" x="21.88" y="-566.5" font-family="Helvetica,sans-Serif" font-size="10.00">Fiea::Engine::Content</text>
<text text-anchor="start" x="21.88" y="-554.5" font-family="Helvetica,sans-Serif" font-size="10.00">::FloatParseHandler::</text>
<text text-anchor="middle" x="69.5" y="-542.5" font-family="Helvetica,sans-Serif" font-size="10.00">EnterKey</text>
</a>
</g>
</g>
<!-- Node1&#45;&gt;Node3 -->
<g id="edge2_Node000001_Node000003" class="edge">
<title>Node1&#45;&gt;Node3</title>
<g id="a_edge2_Node000001_Node000003"><a xlink:title=" ">
<path fill="none" stroke="#63b8ff" d="M235.45,-348.26C221.81,-393.98 191.5,-476.34 139,-527 134.96,-530.9 130.35,-534.36 125.46,-537.42"/>
<polygon fill="#63b8ff" stroke="#63b8ff" points="238.81,-349.23 238.22,-338.65 232.08,-347.29 238.81,-349.23"/>
</a>
</g>
</g>
<!-- Node4 -->
<g id="Node000004" class="node">
<title>Node4</title>
<g id="a_Node000004"><a xlink:href="class_fiea_1_1_engine_1_1_content_1_1_int_parse_handler.html#aa99263839bdc482fcd4a5874ef682029" target="_top" xlink:title=" ">
<polygon fill="white" stroke="#666666" points="139,-518 0,-518 0,-486 139,-486 139,-518"/>
<text text-anchor="start" x="8" y="-504.5" font-family="Helvetica,sans-Serif" font-size="10.00">Fiea::Engine::Content</text>
<text text-anchor="middle" x="69.5" y="-492.5" font-family="Helvetica,sans-Serif" font-size="10.00">::IntParseHandler::EnterKey</text>
</a>
</g>
</g>
<!-- Node1&#45;&gt;Node4 -->
<g id="edge3_Node000001_Node000004" class="edge">
<title>Node1&#45;&gt;Node4</title>
<g id="a_edge3_Node000001_Node000004"><a xlink:title=" ">
<path fill="none" stroke="#63b8ff" d="M230.83,-347.47C214.27,-383.8 182.83,-442.11 139,-477 134.94,-480.23 130.42,-483.07 125.7,-485.56"/>
<polygon fill="#63b8ff" stroke="#63b8ff" points="233.82,-349.34 234.68,-338.78 227.43,-346.5 233.82,-349.34"/>
</a>
</g>
</g>
<!-- Node5 -->
<g id="Node000005" class="node">
<title>Node5</title>
<g id="a_Node000005"><a xlink:href="class_fiea_1_1_engine_1_1_content_1_1_matrix_handler.html#af6b07a2232dbc15a91484634a6881499" target="_top" xlink:title=" ">
<polygon fill="white" stroke="#666666" points="134.12,-468 4.88,-468 4.88,-436 134.12,-436 134.12,-468"/>
<text text-anchor="start" x="12.88" y="-454.5" font-family="Helvetica,sans-Serif" font-size="10.00">Fiea::Engine::Content</text>
<text text-anchor="middle" x="69.5" y="-442.5" font-family="Helvetica,sans-Serif" font-size="10.00">::MatrixHandler::EnterKey</text>
</a>
</g>
</g>
<!-- Node1&#45;&gt;Node5 -->
<g id="edge4_Node000001_Node000005" class="edge">
<title>Node1&#45;&gt;Node5</title>
<g id="a_edge4_Node000001_Node000005"><a xlink:title=" ">
<path fill="none" stroke="#63b8ff" d="M221.49,-346.33C202.02,-371.18 171.98,-405.24 139,-427 134.14,-430.21 128.81,-433.07 123.35,-435.61"/>
<polygon fill="#63b8ff" stroke="#63b8ff" points="224.19,-348.57 227.5,-338.5 218.63,-344.3 224.19,-348.57"/>
</a>
</g>
</g>
<!-- Node6 -->
<g id="Node000006" class="node">
<title>Node6</title>
<g id="a_Node000006"><a xlink:href="class_fiea_1_1_engine_1_1_content_1_1_string_parse_handler.html#a6e8f0ecc1992ee741847c1ad14069a30" target="_top" xlink:title=" ">
<polygon fill="white" stroke="#666666" points="125.12,-418 13.88,-418 13.88,-374 125.12,-374 125.12,-418"/>
<text text-anchor="start" x="21.88" y="-404.5" font-family="Helvetica,sans-Serif" font-size="10.00">Fiea::Engine::Content</text>
<text text-anchor="start" x="21.88" y="-392.5" font-family="Helvetica,sans-Serif" font-size="10.00">::StringParseHandler</text>
<text text-anchor="middle" x="69.5" y="-380.5" font-family="Helvetica,sans-Serif" font-size="10.00">::EnterKey</text>
</a>
</g>
</g>
<!-- Node1&#45;&gt;Node6 -->
<g id="edge5_Node000001_Node000006" class="edge">
<title>Node1&#45;&gt;Node6</title>
<g id="a_edge5_Node000001_Node000006"><a xlink:title=" ">
<path fill="none" stroke="#63b8ff" d="M187.38,-342.25C171.73,-349.69 154.73,-357.7 139,-365 132.96,-367.8 126.61,-370.72 120.31,-373.59"/>
<polygon fill="#63b8ff" stroke="#63b8ff" points="188.55,-345.57 196.08,-338.11 185.54,-339.25 188.55,-345.57"/>
</a>
</g>
</g>
<!-- Node7 -->
<g id="Node000007" class="node">
<title>Node7</title>
<g id="a_Node000007"><a xlink:href="class_fiea_1_1_engine_1_1_content_1_1_vector_handler.html#a79774cea459da02c0eb57bcf2ca84821" target="_top" xlink:title=" ">
<polygon fill="white" stroke="#666666" points="134.5,-356 4.5,-356 4.5,-324 134.5,-324 134.5,-356"/>
<text text-anchor="start" x="12.5" y="-342.5" font-family="Helvetica,sans-Serif" font-size="10.00">Fiea::Engine::Content</text>
<text text-anchor="middle" x="69.5" y="-330.5" font-family="Helvetica,sans-Serif" font-size="10.00">::VectorHandler::EnterKey</text>
</a>
</g>
</g>
<!-- Node1&#45;&gt;Node7 -->
<g id="edge6_Node000001_Node000007" class="edge">
<title>Node1&#45;&gt;Node7</title>
<g id="a_edge6_Node000001_Node000007"><a xlink:title=" ">
<path fill="none" stroke="#63b8ff" d="M163.41,-326.63C153.83,-328.01 144.15,-329.4 134.84,-330.74"/>
<polygon fill="#63b8ff" stroke="#63b8ff" points="163.68,-330.13 173.08,-325.24 162.69,-323.2 163.68,-330.13"/>
</a>
</g>
</g>
<!-- Node8 -->
<g id="Node000008" class="node">
<title>Node8</title>
<g id="a_Node000008"><a xlink:href="class_fiea_1_1_engine_1_1_content_1_1_array_handler.html#ad73a1f195217bd25e227ae2081eb1496" target="_top" xlink:title=" ">
<polygon fill="white" stroke="#666666" points="129.25,-306 9.75,-306 9.75,-274 129.25,-274 129.25,-306"/>
<text text-anchor="start" x="17.75" y="-292.5" font-family="Helvetica,sans-Serif" font-size="10.00">Fiea::Engine::Content</text>
<text text-anchor="middle" x="69.5" y="-280.5" font-family="Helvetica,sans-Serif" font-size="10.00">::ArrayHandler::ExitKey</text>
</a>
</g>
</g>
<!-- Node1&#45;&gt;Node8 -->
<g id="edge7_Node000001_Node000008" class="edge">
<title>Node1&#45;&gt;Node8</title>
<g id="a_edge7_Node000001_Node000008"><a xlink:title=" ">
<path fill="none" stroke="#63b8ff" d="M163.29,-303.35C151.92,-301.72 140.42,-300.06 129.57,-298.5"/>
<polygon fill="#63b8ff" stroke="#63b8ff" points="162.69,-306.8 173.08,-304.76 163.68,-299.87 162.69,-306.8"/>
</a>
</g>
</g>
<!-- Node9 -->
<g id="Node000009" class="node">
<title>Node9</title>
<g id="a_Node000009"><a xlink:href="class_fiea_1_1_engine_1_1_content_1_1_float_parse_handler.html#a9ed0c49e00db3cb599446a039694ca69" target="_top" xlink:title=" ">
<polygon fill="white" stroke="#666666" points="125.12,-256 13.88,-256 13.88,-212 125.12,-212 125.12,-256"/>
<text text-anchor="start" x="21.88" y="-242.5" font-family="Helvetica,sans-Serif" font-size="10.00">Fiea::Engine::Content</text>
<text text-anchor="start" x="21.88" y="-230.5" font-family="Helvetica,sans-Serif" font-size="10.00">::FloatParseHandler::</text>
<text text-anchor="middle" x="69.5" y="-218.5" font-family="Helvetica,sans-Serif" font-size="10.00">ExitKey</text>
</a>
</g>
</g>
<!-- Node1&#45;&gt;Node9 -->
<g id="edge8_Node000001_Node000009" class="edge">
<title>Node1&#45;&gt;Node9</title>
<g id="a_edge8_Node000001_Node000009"><a xlink:title=" ">
<path fill="none" stroke="#63b8ff" d="M187.38,-287.75C171.73,-280.31 154.73,-272.3 139,-265 132.96,-262.2 126.61,-259.28 120.31,-256.41"/>
<polygon fill="#63b8ff" stroke="#63b8ff" points="185.54,-290.75 196.08,-291.89 188.55,-284.43 185.54,-290.75"/>
</a>
</g>
</g>
<!-- Node10 -->
<g id="Node000010" class="node">
<title>Node10</title>
<g id="a_Node000010"><a xlink:href="class_fiea_1_1_engine_1_1_content_1_1_int_parse_handler.html#a8b3d1d183b22a50852fa91fb6aaf129a" target="_top" xlink:title=" ">
<polygon fill="white" stroke="#666666" points="136,-194 3,-194 3,-162 136,-162 136,-194"/>
<text text-anchor="start" x="11" y="-180.5" font-family="Helvetica,sans-Serif" font-size="10.00">Fiea::Engine::Content</text>
<text text-anchor="middle" x="69.5" y="-168.5" font-family="Helvetica,sans-Serif" font-size="10.00">::IntParseHandler::ExitKey</text>
</a>
</g>
</g>
<!-- Node1&#45;&gt;Node10 -->
<g id="edge9_Node000001_Node000010" class="edge">
<title>Node1&#45;&gt;Node10</title>
<g id="a_edge9_Node000001_Node000010"><a xlink:title=" ">
<path fill="none" stroke="#63b8ff" d="M221.49,-283.67C202.02,-258.82 171.98,-224.76 139,-203 134.14,-199.79 128.81,-196.93 123.35,-194.39"/>
<polygon fill="#63b8ff" stroke="#63b8ff" points="218.63,-285.7 227.5,-291.5 224.19,-281.43 218.63,-285.7"/>
</a>
</g>
</g>
<!-- Node11 -->
<g id="Node000011" class="node">
<title>Node11</title>
<g id="a_Node000011"><a xlink:href="class_fiea_1_1_engine_1_1_content_1_1_matrix_handler.html#a6dfd14f5166eee8535e73cbc4e3bc69f" target="_top" xlink:title=" ">
<polygon fill="white" stroke="#666666" points="131.12,-144 7.88,-144 7.88,-112 131.12,-112 131.12,-144"/>
<text text-anchor="start" x="15.88" y="-130.5" font-family="Helvetica,sans-Serif" font-size="10.00">Fiea::Engine::Content</text>
<text text-anchor="middle" x="69.5" y="-118.5" font-family="Helvetica,sans-Serif" font-size="10.00">::MatrixHandler::ExitKey</text>
</a>
</g>
</g>
<!-- Node1&#45;&gt;Node11 -->
<g id="edge10_Node000001_Node000011" class="edge">
<title>Node1&#45;&gt;Node11</title>
<g id="a_edge10_Node000001_Node000011"><a xlink:title=" ">
<path fill="none" stroke="#63b8ff" d="M230.83,-282.53C214.27,-246.2 182.83,-187.89 139,-153 134.94,-149.77 130.42,-146.93 125.7,-144.44"/>
<polygon fill="#63b8ff" stroke="#63b8ff" points="227.43,-283.5 234.68,-291.22 233.82,-280.66 227.43,-283.5"/>
</a>
</g>
</g>
<!-- Node12 -->
<g id="Node000012" class="node">
<title>Node12</title>
<g id="a_Node000012"><a xlink:href="class_fiea_1_1_engine_1_1_content_1_1_string_parse_handler.html#a9e31a96c6f070198f3f259075e736aa3" target="_top" xlink:title=" ">
<polygon fill="white" stroke="#666666" points="125.12,-94 13.88,-94 13.88,-50 125.12,-50 125.12,-94"/>
<text text-anchor="start" x="21.88" y="-80.5" font-family="Helvetica,sans-Serif" font-size="10.00">Fiea::Engine::Content</text>
<text text-anchor="start" x="21.88" y="-68.5" font-family="Helvetica,sans-Serif" font-size="10.00">::StringParseHandler</text>
<text text-anchor="middle" x="69.5" y="-56.5" font-family="Helvetica,sans-Serif" font-size="10.00">::ExitKey</text>
</a>
</g>
</g>
<!-- Node1&#45;&gt;Node12 -->
<g id="edge11_Node000001_Node000012" class="edge">
<title>Node1&#45;&gt;Node12</title>
<g id="a_edge11_Node000001_Node000012"><a xlink:title=" ">
<path fill="none" stroke="#63b8ff" d="M235.45,-281.74C221.81,-236.02 191.5,-153.66 139,-103 134.96,-99.1 130.35,-95.64 125.46,-92.58"/>
<polygon fill="#63b8ff" stroke="#63b8ff" points="232.08,-282.71 238.22,-291.35 238.81,-280.77 232.08,-282.71"/>
</a>
</g>
</g>
<!-- Node13 -->
<g id="Node000013" class="node">
<title>Node13</title>
<g id="a_Node000013"><a xlink:href="class_fiea_1_1_engine_1_1_content_1_1_vector_handler.html#ae3b22ca8db36059cc9377169fe59d308" target="_top" xlink:title=" ">
<polygon fill="white" stroke="#666666" points="131.5,-32 7.5,-32 7.5,0 131.5,0 131.5,-32"/>
<text text-anchor="start" x="15.5" y="-18.5" font-family="Helvetica,sans-Serif" font-size="10.00">Fiea::Engine::Content</text>
<text text-anchor="middle" x="69.5" y="-6.5" font-family="Helvetica,sans-Serif" font-size="10.00">::VectorHandler::ExitKey</text>
</a>
</g>
</g>
<!-- Node1&#45;&gt;Node13 -->
<g id="edge12_Node000001_Node000013" class="edge">
<title>Node1&#45;&gt;Node13</title>
<g id="a_edge12_Node000001_Node000013"><a xlink:title=" ">
<path fill="none" stroke="#63b8ff" d="M240.39,-281.6C232.08,-224.6 207.35,-108.21 139,-41 135.66,-37.72 131.85,-34.86 127.79,-32.37"/>
<polygon fill="#63b8ff" stroke="#63b8ff" points="236.9,-281.89 241.72,-291.32 243.83,-280.94 236.9,-281.89"/>
</a>
</g>
</g>
</g>
</svg>
