<?xml version="1.0" encoding="UTF-8" standalone="no"?>
<!DOCTYPE svg PUBLIC "-//W3C//DTD SVG 1.1//EN"
 "http://www.w3.org/Graphics/SVG/1.1/DTD/svg11.dtd">
<!-- Generated by graphviz version 12.2.1 (20241206.2353)
 -->
<!-- Title: Fiea::Engine::Content::IntParseHandler::EnterKey Pages: 1 -->
<svg width="668pt" height="378pt"
 viewBox="0.00 0.00 668.25 378.00" xmlns="http://www.w3.org/2000/svg" xmlns:xlink="http://www.w3.org/1999/xlink">
<g id="graph0" class="graph" transform="scale(1 1) rotate(0) translate(4 374)">
<title>Fiea::Engine::Content::IntParseHandler::EnterKey</title>
<!-- Node1 -->
<g id="Node000001" class="node">
<title>Node1</title>
<g id="a_Node000001"><a xlink:title=" ">
<polygon fill="#999999" stroke="#666666" points="139,-179 0,-179 0,-147 139,-147 139,-179"/>
<text text-anchor="start" x="8" y="-165.5" font-family="Helvetica,sans-Serif" font-size="10.00">Fiea::Engine::Content</text>
<text text-anchor="middle" x="69.5" y="-153.5" font-family="Helvetica,sans-Serif" font-size="10.00">::IntParseHandler::EnterKey</text>
</a>
</g>
</g>
<!-- Node2 -->
<g id="Node000002" class="node">
<title>Node2</title>
<g id="a_Node000002"><a xlink:href="class_fiea_1_1_engine_1_1_content_1_1_scope_writer.html#a2ed39f31d26f92f8d74c13b4fc466f77" target="_top" xlink:title="This function should be called for ading string, float or ints into the Scope. Any other data type wo...">
<polygon fill="white" stroke="#666666" points="308.75,-270 194.5,-270 194.5,-238 308.75,-238 308.75,-270"/>
<text text-anchor="start" x="202.5" y="-256.5" font-family="Helvetica,sans-Serif" font-size="10.00">Fiea::Engine::Content</text>
<text text-anchor="middle" x="251.62" y="-244.5" font-family="Helvetica,sans-Serif" font-size="10.00">::ScopeWriter::Append</text>
</a>
</g>
</g>
<!-- Node1&#45;&gt;Node2 -->
<g id="edge1_Node000001_Node000002" class="edge">
<title>Node1&#45;&gt;Node2</title>
<g id="a_edge1_Node000001_Node000002"><a xlink:title=" ">
<path fill="none" stroke="#63b8ff" d="M103.12,-179.48C132.58,-194.36 176.1,-216.35 208.25,-232.59"/>
<polygon fill="#63b8ff" stroke="#63b8ff" points="206.39,-235.58 216.9,-236.96 209.55,-229.33 206.39,-235.58"/>
</a>
</g>
</g>
<!-- Node10 -->
<g id="Node000010" class="node">
<title>Node10</title>
<g id="a_Node000010"><a xlink:href="class_fiea_1_1_engine_1_1_r_t_t_i.html#a15bd5993c8ad04da47af440298ebbb30" target="_top" xlink:title=" ">
<polygon fill="white" stroke="#666666" points="309.88,-173 193.38,-173 193.38,-153 309.88,-153 309.88,-173"/>
<text text-anchor="middle" x="251.62" y="-159.5" font-family="Helvetica,sans-Serif" font-size="10.00">Fiea::Engine::RTTI::As</text>
</a>
</g>
</g>
<!-- Node1&#45;&gt;Node10 -->
<g id="edge9_Node000001_Node000010" class="edge">
<title>Node1&#45;&gt;Node10</title>
<g id="a_edge9_Node000001_Node000010"><a xlink:title=" ">
<path fill="none" stroke="#63b8ff" d="M139.37,-163C153.18,-163 167.7,-163 181.52,-163"/>
<polygon fill="#63b8ff" stroke="#63b8ff" points="181.42,-166.5 191.42,-163 181.42,-159.5 181.42,-166.5"/>
</a>
</g>
</g>
<!-- Node12 -->
<g id="Node000012" class="node">
<title>Node12</title>
<g id="a_Node000012"><a xlink:href="class_fiea_1_1_engine_1_1_content_1_1_scope_writer.html#a9b532cf2870d114a3cb24555ddd1cba5" target="_top" xlink:title=" ">
<polygon fill="white" stroke="#666666" points="321.88,-135 181.38,-135 181.38,-91 321.88,-91 321.88,-135"/>
<text text-anchor="start" x="189.38" y="-121.5" font-family="Helvetica,sans-Serif" font-size="10.00">Fiea::Engine::Content</text>
<text text-anchor="start" x="189.38" y="-109.5" font-family="Helvetica,sans-Serif" font-size="10.00">::ScopeWriter::IsKeyStorage</text>
<text text-anchor="middle" x="251.62" y="-97.5" font-family="Helvetica,sans-Serif" font-size="10.00">External</text>
</a>
</g>
</g>
<!-- Node1&#45;&gt;Node12 -->
<g id="edge11_Node000001_Node000012" class="edge">
<title>Node1&#45;&gt;Node12</title>
<g id="a_edge11_Node000001_Node000012"><a xlink:title=" ">
<path fill="none" stroke="#63b8ff" d="M129.73,-146.56C142.67,-142.97 156.59,-139.1 170.2,-135.32"/>
<polygon fill="#63b8ff" stroke="#63b8ff" points="170.87,-138.77 179.57,-132.72 169,-132.03 170.87,-138.77"/>
</a>
</g>
</g>
<!-- Node15 -->
<g id="Node000015" class="node">
<title>Node15</title>
<g id="a_Node000015"><a xlink:href="class_fiea_1_1_engine_1_1_tests_1_1_support_1_1_test_writer.html#a946ad7b46089f3a8aa37d0e42a96f330" target="_top" xlink:title=" ">
<polygon fill="white" stroke="#666666" points="304.62,-54 198.62,-54 198.62,-10 304.62,-10 304.62,-54"/>
<text text-anchor="start" x="206.62" y="-40.5" font-family="Helvetica,sans-Serif" font-size="10.00">Fiea::Engine::Tests</text>
<text text-anchor="start" x="206.62" y="-28.5" font-family="Helvetica,sans-Serif" font-size="10.00">::Support::TestWriter</text>
<text text-anchor="middle" x="251.62" y="-16.5" font-family="Helvetica,sans-Serif" font-size="10.00">::RecordInt</text>
</a>
</g>
</g>
<!-- Node1&#45;&gt;Node15 -->
<g id="edge14_Node000001_Node000015" class="edge">
<title>Node1&#45;&gt;Node15</title>
<g id="a_edge14_Node000001_Node000015"><a xlink:title=" ">
<path fill="none" stroke="#63b8ff" d="M90.58,-146.71C111.37,-130.01 144.96,-103.53 175,-82 184.99,-74.84 195.92,-67.4 206.29,-60.51"/>
<polygon fill="#63b8ff" stroke="#63b8ff" points="207.93,-63.62 214.35,-55.19 204.08,-57.78 207.93,-63.62"/>
</a>
</g>
</g>
<!-- Node17 -->
<g id="Node000017" class="node">
<title>Node17</title>
<g id="a_Node000017"><a xlink:href="class_fiea_1_1_engine_1_1_content_1_1_scope_writer.html#a81d8847be5d2eb6189de44fcfb04a134" target="_top" xlink:title=" ">
<polygon fill="white" stroke="#666666" points="328.25,-354 175,-354 175,-310 328.25,-310 328.25,-354"/>
<text text-anchor="start" x="183" y="-340.5" font-family="Helvetica,sans-Serif" font-size="10.00">Fiea::Engine::Content</text>
<text text-anchor="start" x="183" y="-328.5" font-family="Helvetica,sans-Serif" font-size="10.00">::ScopeWriter::SetExternalData</text>
<text text-anchor="middle" x="251.62" y="-316.5" font-family="Helvetica,sans-Serif" font-size="10.00">Teller</text>
</a>
</g>
</g>
<!-- Node1&#45;&gt;Node17 -->
<g id="edge16_Node000001_Node000017" class="edge">
<title>Node1&#45;&gt;Node17</title>
<g id="a_edge16_Node000001_Node000017"><a xlink:title=" ">
<path fill="none" stroke="#63b8ff" d="M83.31,-179.44C102.05,-202.94 138.66,-246.85 175,-279 184.47,-287.38 195.28,-295.62 205.71,-303.02"/>
<polygon fill="#63b8ff" stroke="#63b8ff" points="203.67,-305.87 213.88,-308.7 207.66,-300.12 203.67,-305.87"/>
</a>
</g>
</g>
<!-- Node3 -->
<g id="Node000003" class="node">
<title>Node3</title>
<g id="a_Node000003"><a xlink:href="class_fiea_1_1_engine_1_1_content_1_1_scope.html#aa91d6470fd3d3f402bbb2e765be54455" target="_top" xlink:title="Return a reference to the Datum at this key. create a new Datum, if one is not found.">
<polygon fill="white" stroke="#666666" points="493.12,-320 381.88,-320 381.88,-288 493.12,-288 493.12,-320"/>
<text text-anchor="start" x="389.88" y="-306.5" font-family="Helvetica,sans-Serif" font-size="10.00">Fiea::Engine::Content</text>
<text text-anchor="middle" x="437.5" y="-294.5" font-family="Helvetica,sans-Serif" font-size="10.00">::Scope::Append</text>
</a>
</g>
</g>
<!-- Node2&#45;&gt;Node3 -->
<g id="edge2_Node000002_Node000003" class="edge">
<title>Node2&#45;&gt;Node3</title>
<g id="a_edge2_Node000002_Node000003"><a xlink:title=" ">
<path fill="none" stroke="#63b8ff" d="M309.04,-269.34C328.46,-274.62 350.38,-280.58 370.49,-286.05"/>
<polygon fill="#63b8ff" stroke="#63b8ff" points="369.42,-289.39 379.99,-288.63 371.26,-282.63 369.42,-289.39"/>
</a>
</g>
</g>
<!-- Node4 -->
<g id="Node000004" class="node">
<title>Node4</title>
<g id="a_Node000004"><a xlink:href="class_fiea_1_1_engine_1_1_content_1_1_scope_writer.html#a626dca625d92c898453cf9d75d9573d3" target="_top" xlink:title=" ">
<polygon fill="white" stroke="#666666" points="510.75,-370 364.25,-370 364.25,-338 510.75,-338 510.75,-370"/>
<text text-anchor="start" x="372.25" y="-356.5" font-family="Helvetica,sans-Serif" font-size="10.00">Fiea::Engine::Content</text>
<text text-anchor="middle" x="437.5" y="-344.5" font-family="Helvetica,sans-Serif" font-size="10.00">::ScopeWriter::IsDataExternal</text>
</a>
</g>
</g>
<!-- Node2&#45;&gt;Node4 -->
<g id="edge3_Node000002_Node000004" class="edge">
<title>Node2&#45;&gt;Node4</title>
<g id="a_edge3_Node000002_Node000004"><a xlink:title=" ">
<path fill="none" stroke="#63b8ff" d="M280.38,-270.29C294.88,-279.04 312.78,-290.22 328.25,-301 344.88,-312.59 346.43,-319.33 364.25,-329 366.89,-330.43 369.63,-331.81 372.44,-333.13"/>
<polygon fill="#63b8ff" stroke="#63b8ff" points="370.82,-336.24 381.39,-337.03 373.62,-329.82 370.82,-336.24"/>
</a>
</g>
</g>
<!-- Node5 -->
<g id="Node000005" class="node">
<title>Node5</title>
<g id="a_Node000005"><a xlink:href="class_fiea_1_1_engine_1_1_content_1_1_datum.html#a4ccb082ce85390925305f19a24daaed8" target="_top" xlink:title="This function is for pushing an element at the back of the data union array. It is using a universal ...">
<polygon fill="white" stroke="#666666" points="493.12,-270 381.88,-270 381.88,-238 493.12,-238 493.12,-270"/>
<text text-anchor="start" x="389.88" y="-256.5" font-family="Helvetica,sans-Serif" font-size="10.00">Fiea::Engine::Content</text>
<text text-anchor="middle" x="437.5" y="-244.5" font-family="Helvetica,sans-Serif" font-size="10.00">::Datum::Push</text>
</a>
</g>
</g>
<!-- Node2&#45;&gt;Node5 -->
<g id="edge4_Node000002_Node000005" class="edge">
<title>Node2&#45;&gt;Node5</title>
<g id="a_edge4_Node000002_Node000005"><a xlink:title=" ">
<path fill="none" stroke="#63b8ff" d="M309.04,-254C328.37,-254 350.17,-254 370.21,-254"/>
<polygon fill="#63b8ff" stroke="#63b8ff" points="369.94,-257.5 379.94,-254 369.94,-250.5 369.94,-257.5"/>
</a>
</g>
</g>
<!-- Node9 -->
<g id="Node000009" class="node">
<title>Node9</title>
<g id="a_Node000009"><a xlink:href="class_fiea_1_1_engine_1_1_content_1_1_datum.html#a2e77039e198d4eb10dfd1795117bf4d3" target="_top" xlink:title="Set value at a specific index. This uses universal operator so it can bind to lrefs and rrefs.">
<polygon fill="white" stroke="#666666" points="493.12,-220 381.88,-220 381.88,-188 493.12,-188 493.12,-220"/>
<text text-anchor="start" x="389.88" y="-206.5" font-family="Helvetica,sans-Serif" font-size="10.00">Fiea::Engine::Content</text>
<text text-anchor="middle" x="437.5" y="-194.5" font-family="Helvetica,sans-Serif" font-size="10.00">::Datum::Set</text>
</a>
</g>
</g>
<!-- Node2&#45;&gt;Node9 -->
<g id="edge8_Node000002_Node000009" class="edge">
<title>Node2&#45;&gt;Node9</title>
<g id="a_edge8_Node000002_Node000009"><a xlink:title=" ">
<path fill="none" stroke="#63b8ff" d="M309.04,-238.66C328.46,-233.38 350.38,-227.42 370.49,-221.95"/>
<polygon fill="#63b8ff" stroke="#63b8ff" points="371.26,-225.37 379.99,-219.37 369.42,-218.61 371.26,-225.37"/>
</a>
</g>
</g>
<!-- Node6 -->
<g id="Node000006" class="node">
<title>Node6</title>
<g id="a_Node000006"><a xlink:href="class_fiea_1_1_engine_1_1_content_1_1_datum.html#ac2c889535360fcb22e94133869c4ae29" target="_top" xlink:title=" ">
<polygon fill="white" stroke="#666666" points="659.12,-320 547.88,-320 547.88,-288 659.12,-288 659.12,-320"/>
<text text-anchor="start" x="555.88" y="-306.5" font-family="Helvetica,sans-Serif" font-size="10.00">Fiea::Engine::Content</text>
<text text-anchor="middle" x="603.5" y="-294.5" font-family="Helvetica,sans-Serif" font-size="10.00">::Datum::GetMaxSize</text>
</a>
</g>
</g>
<!-- Node5&#45;&gt;Node6 -->
<g id="edge5_Node000005_Node000006" class="edge">
<title>Node5&#45;&gt;Node6</title>
<g id="a_edge5_Node000005_Node000006"><a xlink:title=" ">
<path fill="none" stroke="#63b8ff" d="M492.2,-270.37C506.71,-274.8 522.56,-279.63 537.61,-284.22"/>
<polygon fill="#63b8ff" stroke="#63b8ff" points="536.37,-287.5 546.95,-287.06 538.41,-280.8 536.37,-287.5"/>
</a>
</g>
</g>
<!-- Node7 -->
<g id="Node000007" class="node">
<title>Node7</title>
<g id="a_Node000007"><a xlink:href="class_fiea_1_1_engine_1_1_content_1_1_datum.html#aede9c541fd5184f33e84640a787d421d" target="_top" xlink:title=" ">
<polygon fill="white" stroke="#666666" points="660.25,-270 546.75,-270 546.75,-238 660.25,-238 660.25,-270"/>
<text text-anchor="start" x="554.75" y="-256.5" font-family="Helvetica,sans-Serif" font-size="10.00">Fiea::Engine::Content</text>
<text text-anchor="middle" x="603.5" y="-244.5" font-family="Helvetica,sans-Serif" font-size="10.00">::Datum::HasMaxSize</text>
</a>
</g>
</g>
<!-- Node5&#45;&gt;Node7 -->
<g id="edge6_Node000005_Node000007" class="edge">
<title>Node5&#45;&gt;Node7</title>
<g id="a_edge6_Node000005_Node000007"><a xlink:title=" ">
<path fill="none" stroke="#63b8ff" d="M493.57,-254C506.87,-254 521.24,-254 535.04,-254"/>
<polygon fill="#63b8ff" stroke="#63b8ff" points="534.95,-257.5 544.95,-254 534.95,-250.5 534.95,-257.5"/>
</a>
</g>
</g>
<!-- Node8 -->
<g id="Node000008" class="node">
<title>Node8</title>
<g id="a_Node000008"><a xlink:href="class_fiea_1_1_engine_1_1_content_1_1_datum.html#acae68c3bc8b20345e4c3790fa37bd8d5" target="_top" xlink:title=" ">
<polygon fill="white" stroke="#666666" points="659.12,-220 547.88,-220 547.88,-188 659.12,-188 659.12,-220"/>
<text text-anchor="start" x="555.88" y="-206.5" font-family="Helvetica,sans-Serif" font-size="10.00">Fiea::Engine::Content</text>
<text text-anchor="middle" x="603.5" y="-194.5" font-family="Helvetica,sans-Serif" font-size="10.00">::Datum::Size</text>
</a>
</g>
</g>
<!-- Node5&#45;&gt;Node8 -->
<g id="edge7_Node000005_Node000008" class="edge">
<title>Node5&#45;&gt;Node8</title>
<g id="a_edge7_Node000005_Node000008"><a xlink:title=" ">
<path fill="none" stroke="#63b8ff" d="M492.2,-237.63C506.71,-233.2 522.56,-228.37 537.61,-223.78"/>
<polygon fill="#63b8ff" stroke="#63b8ff" points="538.41,-227.2 546.95,-220.94 536.37,-220.5 538.41,-227.2"/>
</a>
</g>
</g>
<!-- Node11 -->
<g id="Node000011" class="node">
<title>Node11</title>
<g id="a_Node000011"><a xlink:href="class_fiea_1_1_engine_1_1_r_t_t_i.html#ac0a7d875e4513b2aca7594abcd4418ef" target="_top" xlink:title=" ">
<polygon fill="white" stroke="#666666" points="493.88,-170 381.12,-170 381.12,-150 493.88,-150 493.88,-170"/>
<text text-anchor="middle" x="437.5" y="-156.5" font-family="Helvetica,sans-Serif" font-size="10.00">Fiea::Engine::RTTI::Is</text>
</a>
</g>
</g>
<!-- Node10&#45;&gt;Node11 -->
<g id="edge10_Node000010_Node000011" class="edge">
<title>Node10&#45;&gt;Node11</title>
<g id="a_edge10_Node000010_Node000011"><a xlink:title=" ">
<path fill="none" stroke="#63b8ff" d="M310.3,-162.06C329.05,-161.75 350.02,-161.41 369.41,-161.09"/>
<polygon fill="#63b8ff" stroke="#63b8ff" points="369.46,-164.59 379.4,-160.93 369.35,-157.6 369.46,-164.59"/>
</a>
</g>
</g>
<!-- Node13 -->
<g id="Node000013" class="node">
<title>Node13</title>
<g id="a_Node000013"><a xlink:href="class_fiea_1_1_engine_1_1_content_1_1_scope.html#ad924c01785b239991fc0e56a63295612" target="_top" xlink:title="Return the Datum at the requested key, or nullptr if not found.">
<polygon fill="white" stroke="#666666" points="493.12,-132 381.88,-132 381.88,-100 493.12,-100 493.12,-132"/>
<text text-anchor="start" x="389.88" y="-118.5" font-family="Helvetica,sans-Serif" font-size="10.00">Fiea::Engine::Content</text>
<text text-anchor="middle" x="437.5" y="-106.5" font-family="Helvetica,sans-Serif" font-size="10.00">::Scope::Find</text>
</a>
</g>
</g>
<!-- Node12&#45;&gt;Node13 -->
<g id="edge12_Node000012_Node000013" class="edge">
<title>Node12&#45;&gt;Node13</title>
<g id="a_edge12_Node000012_Node000013"><a xlink:title=" ">
<path fill="none" stroke="#63b8ff" d="M322.14,-114.13C337.93,-114.39 354.67,-114.66 370.32,-114.92"/>
<polygon fill="#63b8ff" stroke="#63b8ff" points="369.93,-118.41 379.98,-115.08 370.04,-111.42 369.93,-118.41"/>
</a>
</g>
</g>
<!-- Node14 -->
<g id="Node000014" class="node">
<title>Node14</title>
<g id="a_Node000014"><a xlink:href="class_fiea_1_1_engine_1_1_content_1_1_datum.html#a9b05337db582483976624ab93839bfa7" target="_top" xlink:title=" ">
<polygon fill="white" stroke="#666666" points="505.12,-82 369.88,-82 369.88,-50 505.12,-50 505.12,-82"/>
<text text-anchor="start" x="377.88" y="-68.5" font-family="Helvetica,sans-Serif" font-size="10.00">Fiea::Engine::Content</text>
<text text-anchor="middle" x="437.5" y="-56.5" font-family="Helvetica,sans-Serif" font-size="10.00">::Datum::IsStorageExternal</text>
</a>
</g>
</g>
<!-- Node12&#45;&gt;Node14 -->
<g id="edge13_Node000012_Node000014" class="edge">
<title>Node12&#45;&gt;Node14</title>
<g id="a_edge13_Node000012_Node000014"><a xlink:title=" ">
<path fill="none" stroke="#63b8ff" d="M322.14,-95.23C334.8,-91.99 348.07,-88.6 360.9,-85.32"/>
<polygon fill="#63b8ff" stroke="#63b8ff" points="361.75,-88.72 370.57,-82.85 360.02,-81.94 361.75,-88.72"/>
</a>
</g>
</g>
<!-- Node16 -->
<g id="Node000016" class="node">
<title>Node16</title>
<g id="a_Node000016"><a xlink:href="class_fiea_1_1_engine_1_1_content_1_1_parse_writer.html#aa995198558bdd6c2342b5cca3309b0b4" target="_top" xlink:title=" ">
<polygon fill="white" stroke="#666666" points="493.12,-32 381.88,-32 381.88,0 493.12,0 493.12,-32"/>
<text text-anchor="start" x="389.88" y="-18.5" font-family="Helvetica,sans-Serif" font-size="10.00">Fiea::Engine::Content</text>
<text text-anchor="middle" x="437.5" y="-6.5" font-family="Helvetica,sans-Serif" font-size="10.00">::ParseWriter::Depth</text>
</a>
</g>
</g>
<!-- Node15&#45;&gt;Node16 -->
<g id="edge15_Node000015_Node000016" class="edge">
<title>Node15&#45;&gt;Node16</title>
<g id="a_edge15_Node000015_Node000016"><a xlink:title=" ">
<path fill="none" stroke="#63b8ff" d="M304.82,-27.46C325.16,-25.69 348.72,-23.64 370.23,-21.77"/>
<polygon fill="#63b8ff" stroke="#63b8ff" points="370.44,-25.26 380.1,-20.91 369.83,-18.29 370.44,-25.26"/>
</a>
</g>
</g>
<!-- Node17&#45;&gt;Node4 -->
<g id="edge17_Node000017_Node000004" class="edge">
<title>Node17&#45;&gt;Node4</title>
<g id="a_edge17_Node000017_Node000004"><a xlink:title=" ">
<path fill="none" stroke="#63b8ff" d="M328.74,-341.11C336.67,-342.06 344.75,-343.02 352.75,-343.98"/>
<polygon fill="#63b8ff" stroke="#63b8ff" points="352.14,-347.43 362.48,-345.14 352.97,-340.48 352.14,-347.43"/>
</a>
</g>
</g>
</g>
</svg>
