<?xml version="1.0" encoding="UTF-8" standalone="no"?>
<!DOCTYPE svg PUBLIC "-//W3C//DTD SVG 1.1//EN"
 "http://www.w3.org/Graphics/SVG/1.1/DTD/svg11.dtd">
<!-- Generated by graphviz version 12.2.1 (20241206.2353)
 -->
<!-- Title: Fiea::Engine::List&lt; T &gt;::ListNode Pages: 1 -->
<svg width="141pt" height="260pt"
 viewBox="0.00 0.00 140.50 260.00" xmlns="http://www.w3.org/2000/svg" xmlns:xlink="http://www.w3.org/1999/xlink">
<g id="graph0" class="graph" transform="scale(1 1) rotate(0) translate(4 256)">
<title>Fiea::Engine::List&lt; T &gt;::ListNode</title>
<!-- Node1 -->
<g id="Node000001" class="node">
<title>Node1</title>
<g id="a_Node000001"><a xlink:title="Nested class ListNode Each link in the list is is represented by this class.">
<polygon fill="#999999" stroke="none" points="84.5,-96 0,-96 0,0 84.5,0 84.5,-96"/>
<text text-anchor="start" x="4" y="-82.5" font-family="Helvetica,sans-Serif" font-size="10.00">Fiea::Engine::List</text>
<text text-anchor="start" x="8.12" y="-70.5" font-family="Helvetica,sans-Serif" font-size="10.00">&lt; T &gt;::ListNode</text>
<text text-anchor="start" x="9.38" y="-54.5" font-family="Helvetica,sans-Serif" font-size="10.00">+</text>
<text text-anchor="start" x="24.75" y="-54.5" font-family="Helvetica,sans-Serif" font-size="10.00">Val</text>
<text text-anchor="start" x="9.38" y="-38.5" font-family="Helvetica,sans-Serif" font-size="10.00">+</text>
<text text-anchor="start" x="24.75" y="-38.5" font-family="Helvetica,sans-Serif" font-size="10.00">ListNode()</text>
<text text-anchor="start" x="9.38" y="-22.5" font-family="Helvetica,sans-Serif" font-size="10.00">+</text>
<text text-anchor="start" x="24.75" y="-22.5" font-family="Helvetica,sans-Serif" font-size="10.00">ListNode()</text>
<text text-anchor="start" x="9.38" y="-6.5" font-family="Helvetica,sans-Serif" font-size="10.00">+</text>
<text text-anchor="start" x="24.75" y="-6.5" font-family="Helvetica,sans-Serif" font-size="10.00">ListNode()</text>
<polygon fill="#666666" stroke="#666666" points="0,-66 0,-66 84.5,-66 84.5,-66 0,-66"/>
<polygon fill="#666666" stroke="#666666" points="0,-50 0,-50 22.75,-50 22.75,-50 0,-50"/>
<polygon fill="#666666" stroke="#666666" points="22.75,-50 22.75,-50 84.5,-50 84.5,-50 22.75,-50"/>
<polygon fill="none" stroke="#666666" points="0,0 0,-96 84.5,-96 84.5,0 0,0"/>
</a>
</g>
</g>
<!-- Node2 -->
<g id="Node000002" class="node">
<title>Node2</title>
<g id="a_Node000002"><a xlink:href="class_fiea_1_1_engine_1_1_list_1_1_list_node.html" target="_top" xlink:title="Nested class ListNode Each link in the list is is represented by this class.">
<polygon fill="white" stroke="none" points="84.5,-252 0,-252 0,-156 84.5,-156 84.5,-252"/>
<text text-anchor="start" x="4" y="-238.5" font-family="Helvetica,sans-Serif" font-size="10.00">Fiea::Engine::List</text>
<text text-anchor="start" x="8.12" y="-226.5" font-family="Helvetica,sans-Serif" font-size="10.00">&lt; T &gt;::ListNode</text>
<text text-anchor="start" x="9.38" y="-210.5" font-family="Helvetica,sans-Serif" font-size="10.00">+</text>
<text text-anchor="start" x="24.75" y="-210.5" font-family="Helvetica,sans-Serif" font-size="10.00">Val</text>
<text text-anchor="start" x="9.38" y="-194.5" font-family="Helvetica,sans-Serif" font-size="10.00">+</text>
<text text-anchor="start" x="24.75" y="-194.5" font-family="Helvetica,sans-Serif" font-size="10.00">ListNode()</text>
<text text-anchor="start" x="9.38" y="-178.5" font-family="Helvetica,sans-Serif" font-size="10.00">+</text>
<text text-anchor="start" x="24.75" y="-178.5" font-family="Helvetica,sans-Serif" font-size="10.00">ListNode()</text>
<text text-anchor="start" x="9.38" y="-162.5" font-family="Helvetica,sans-Serif" font-size="10.00">+</text>
<text text-anchor="start" x="24.75" y="-162.5" font-family="Helvetica,sans-Serif" font-size="10.00">ListNode()</text>
<polygon fill="#666666" stroke="#666666" points="0,-222 0,-222 84.5,-222 84.5,-222 0,-222"/>
<polygon fill="#666666" stroke="#666666" points="0,-206 0,-206 22.75,-206 22.75,-206 0,-206"/>
<polygon fill="#666666" stroke="#666666" points="22.75,-206 22.75,-206 84.5,-206 84.5,-206 22.75,-206"/>
<polygon fill="none" stroke="#666666" points="0,-156 0,-252 84.5,-252 84.5,-156 0,-156"/>
</a>
</g>
</g>
<!-- Node2&#45;&gt;Node1 -->
<g id="edge1_Node000001_Node000002" class="edge">
<title>Node2&#45;&gt;Node1</title>
<g id="a_edge1_Node000001_Node000002"><a xlink:title=" ">
<path fill="none" stroke="#63b8ff" d="M42.25,-156.38C42.25,-141.44 42.25,-124.68 42.25,-108.93"/>
<polygon fill="none" stroke="#63b8ff" points="42.25,-108.9 38.25,-102.9 42.25,-96.9 46.25,-102.9 42.25,-108.9"/>
</a>
</g>
<text text-anchor="middle" x="57.25" y="-128.5" font-family="Helvetica,sans-Serif" font-size="10.00" fill="grey"> +Next</text>
<text text-anchor="middle" x="57.25" y="-116.5" font-family="Helvetica,sans-Serif" font-size="10.00" fill="grey">+Prev</text>
</g>
<!-- Node2&#45;&gt;Node2 -->
<g id="edge2_Node000002_Node000002" class="edge">
<title>Node2&#45;&gt;Node2</title>
<g id="a_edge2_Node000002_Node000002"><a xlink:title=" ">
<path fill="none" stroke="#63b8ff" d="M84.48,-218.4C94.81,-217.33 102.5,-212.53 102.5,-204 102.5,-199.47 100.33,-195.99 96.75,-193.56"/>
<polygon fill="none" stroke="#63b8ff" points="96.76,-193.57 89.82,-195.53 85.34,-189.88 92.28,-187.92 96.76,-193.57"/>
</a>
</g>
<text text-anchor="middle" x="117.5" y="-206.5" font-family="Helvetica,sans-Serif" font-size="10.00" fill="grey"> +Next</text>
<text text-anchor="middle" x="117.5" y="-194.5" font-family="Helvetica,sans-Serif" font-size="10.00" fill="grey">+Prev</text>
</g>
</g>
</svg>
