<?xml version="1.0" encoding="UTF-8" standalone="no"?>
<!DOCTYPE svg PUBLIC "-//W3C//DTD SVG 1.1//EN"
 "http://www.w3.org/Graphics/SVG/1.1/DTD/svg11.dtd">
<!-- Generated by graphviz version 12.2.1 (20241206.2353)
 -->
<!-- Title: Fiea::Engine::List::push_back Pages: 1 -->
<svg width="229pt" height="90pt"
 viewBox="0.00 0.00 229.00 90.00" xmlns="http://www.w3.org/2000/svg" xmlns:xlink="http://www.w3.org/1999/xlink">
<g id="graph0" class="graph" transform="scale(1 1) rotate(0) translate(4 86)">
<title>Fiea::Engine::List::push_back</title>
<!-- Node1 -->
<g id="Node000001" class="node">
<title>Node1</title>
<g id="a_Node000001"><a xlink:title="Pushes a const ref to the back of the list.">
<polygon fill="#999999" stroke="#666666" points="221,-57 128.5,-57 128.5,-25 221,-25 221,-57"/>
<text text-anchor="start" x="136.5" y="-43.5" font-family="Helvetica,sans-Serif" font-size="10.00">Fiea::Engine::List</text>
<text text-anchor="middle" x="174.75" y="-31.5" font-family="Helvetica,sans-Serif" font-size="10.00">::push_back</text>
</a>
</g>
</g>
<!-- Node2 -->
<g id="Node000002" class="node">
<title>Node2</title>
<g id="a_Node000002"><a xlink:href="class_fiea_1_1_engine_1_1_list.html#a313ef54da90b47744992f5e2bf444292" target="_top" xlink:title="Copy constructor.">
<polygon fill="white" stroke="#666666" points="92.5,-82 0,-82 0,-50 92.5,-50 92.5,-82"/>
<text text-anchor="start" x="8" y="-68.5" font-family="Helvetica,sans-Serif" font-size="10.00">Fiea::Engine::List</text>
<text text-anchor="middle" x="46.25" y="-56.5" font-family="Helvetica,sans-Serif" font-size="10.00">::List</text>
</a>
</g>
</g>
<!-- Node1&#45;&gt;Node2 -->
<g id="edge1_Node000001_Node000002" class="edge">
<title>Node1&#45;&gt;Node2</title>
<g id="a_edge1_Node000001_Node000002"><a xlink:title=" ">
<path fill="none" stroke="#63b8ff" d="M116.86,-52.24C108.82,-53.83 100.64,-55.45 92.85,-56.99"/>
<polygon fill="#63b8ff" stroke="#63b8ff" points="117.46,-55.69 126.6,-50.32 116.11,-48.82 117.46,-55.69"/>
</a>
</g>
</g>
<!-- Node3 -->
<g id="Node000003" class="node">
<title>Node3</title>
<g id="a_Node000003"><a xlink:href="class_fiea_1_1_engine_1_1_list.html#af2be884740ed72769538a143df392b5d" target="_top" xlink:title="Using the std::initializer_list to construct my list.">
<polygon fill="white" stroke="#666666" points="92.5,-32 0,-32 0,0 92.5,0 92.5,-32"/>
<text text-anchor="start" x="8" y="-18.5" font-family="Helvetica,sans-Serif" font-size="10.00">Fiea::Engine::List</text>
<text text-anchor="middle" x="46.25" y="-6.5" font-family="Helvetica,sans-Serif" font-size="10.00">::List</text>
</a>
</g>
</g>
<!-- Node1&#45;&gt;Node3 -->
<g id="edge2_Node000001_Node000003" class="edge">
<title>Node1&#45;&gt;Node3</title>
<g id="a_edge2_Node000001_Node000003"><a xlink:title=" ">
<path fill="none" stroke="#63b8ff" d="M116.86,-29.76C108.82,-28.17 100.64,-26.55 92.85,-25.01"/>
<polygon fill="#63b8ff" stroke="#63b8ff" points="116.11,-33.18 126.6,-31.68 117.46,-26.31 116.11,-33.18"/>
</a>
</g>
</g>
</g>
</svg>
