<?xml version="1.0" encoding="UTF-8" standalone="no"?>
<!DOCTYPE svg PUBLIC "-//W3C//DTD SVG 1.1//EN"
 "http://www.w3.org/Graphics/SVG/1.1/DTD/svg11.dtd">
<!-- Generated by graphviz version 12.2.1 (20241206.2353)
 -->
<!-- Title: Fiea::Engine::Content::Scope::GetParent Pages: 1 -->
<svg width="499pt" height="264pt"
 viewBox="0.00 0.00 498.50 264.00" xmlns="http://www.w3.org/2000/svg" xmlns:xlink="http://www.w3.org/1999/xlink">
<g id="graph0" class="graph" transform="scale(1 1) rotate(0) translate(4 260)">
<title>Fiea::Engine::Content::Scope::GetParent</title>
<!-- Node1 -->
<g id="Node000001" class="node">
<title>Node1</title>
<g id="a_Node000001"><a xlink:title="Getter for Parent.">
<polygon fill="#999999" stroke="#666666" points="490.5,-169 379.25,-169 379.25,-137 490.5,-137 490.5,-169"/>
<text text-anchor="start" x="387.25" y="-155.5" font-family="Helvetica,sans-Serif" font-size="10.00">Fiea::Engine::Content</text>
<text text-anchor="middle" x="434.88" y="-143.5" font-family="Helvetica,sans-Serif" font-size="10.00">::Scope::GetParent</text>
</a>
</g>
</g>
<!-- Node2 -->
<g id="Node000002" class="node">
<title>Node2</title>
<g id="a_Node000002"><a xlink:href="class_fiea_1_1_engine_1_1_tests_1_1_support_1_1_action_add_datum.html#a1aebd064164f82b30dffe7a12172c6b1" target="_top" xlink:title=" ">
<polygon fill="white" stroke="#666666" points="333.5,-256 197.5,-256 197.5,-212 333.5,-212 333.5,-256"/>
<text text-anchor="start" x="205.5" y="-242.5" font-family="Helvetica,sans-Serif" font-size="10.00">Fiea::Engine::Tests</text>
<text text-anchor="start" x="205.5" y="-230.5" font-family="Helvetica,sans-Serif" font-size="10.00">::Support::ActionAddDatum</text>
<text text-anchor="middle" x="265.5" y="-218.5" font-family="Helvetica,sans-Serif" font-size="10.00">::Cleanup</text>
</a>
</g>
</g>
<!-- Node1&#45;&gt;Node2 -->
<g id="edge1_Node000001_Node000002" class="edge">
<title>Node1&#45;&gt;Node2</title>
<g id="a_edge1_Node000001_Node000002"><a xlink:title=" ">
<path fill="none" stroke="#63b8ff" d="M396.55,-174.92C380.39,-184.06 361.12,-194.5 343.25,-203 337.15,-205.9 330.7,-208.78 324.24,-211.55"/>
<polygon fill="#63b8ff" stroke="#63b8ff" points="397.9,-178.18 404.85,-170.18 394.43,-172.1 397.9,-178.18"/>
</a>
</g>
</g>
<!-- Node3 -->
<g id="Node000003" class="node">
<title>Node3</title>
<g id="a_Node000003"><a xlink:href="class_fiea_1_1_engine_1_1_content_1_1_actions_1_1_while_action_list.html#a972d59921793e006691ec0c2f0f32a87" target="_top" xlink:title="Initial setup if any for the action.">
<polygon fill="white" stroke="#666666" points="339.88,-194 191.12,-194 191.12,-162 339.88,-162 339.88,-194"/>
<text text-anchor="start" x="199.12" y="-180.5" font-family="Helvetica,sans-Serif" font-size="10.00">Fiea::Engine::Content</text>
<text text-anchor="middle" x="265.5" y="-168.5" font-family="Helvetica,sans-Serif" font-size="10.00">::Actions::WhileActionList::Init</text>
</a>
</g>
</g>
<!-- Node1&#45;&gt;Node3 -->
<g id="edge2_Node000001_Node000003" class="edge">
<title>Node1&#45;&gt;Node3</title>
<g id="a_edge2_Node000001_Node000003"><a xlink:title=" ">
<path fill="none" stroke="#63b8ff" d="M367.81,-162.87C358.77,-164.22 349.45,-165.61 340.29,-166.98"/>
<polygon fill="#63b8ff" stroke="#63b8ff" points="368.2,-166.35 377.57,-161.41 367.17,-159.43 368.2,-166.35"/>
</a>
</g>
</g>
<!-- Node4 -->
<g id="Node000004" class="node">
<title>Node4</title>
<g id="a_Node000004"><a xlink:href="class_fiea_1_1_engine_1_1_tests_1_1_support_1_1_action_add_datum.html#a8038baa36384ba9702596cbe3e41780e" target="_top" xlink:title=" ">
<polygon fill="white" stroke="#666666" points="343.25,-144 187.75,-144 187.75,-112 343.25,-112 343.25,-144"/>
<text text-anchor="start" x="195.75" y="-130.5" font-family="Helvetica,sans-Serif" font-size="10.00">Fiea::Engine::Tests</text>
<text text-anchor="middle" x="265.5" y="-118.5" font-family="Helvetica,sans-Serif" font-size="10.00">::Support::ActionAddDatum::Init</text>
</a>
</g>
</g>
<!-- Node1&#45;&gt;Node4 -->
<g id="edge3_Node000001_Node000004" class="edge">
<title>Node1&#45;&gt;Node4</title>
<g id="a_edge3_Node000001_Node000004"><a xlink:title=" ">
<path fill="none" stroke="#63b8ff" d="M367.95,-143.15C359.96,-141.96 351.74,-140.73 343.6,-139.52"/>
<polygon fill="#63b8ff" stroke="#63b8ff" points="367.17,-146.57 377.57,-144.59 368.2,-139.65 367.17,-146.57"/>
</a>
</g>
</g>
<!-- Node5 -->
<g id="Node000005" class="node">
<title>Node5</title>
<g id="a_Node000005"><a xlink:href="class_fiea_1_1_engine_1_1_content_1_1_scope.html#a780212af791d1a9fd9b244877d8ce3d8" target="_top" xlink:title="Finds the key in all of its parentage. Output Scope will hold the pointer to the parent that actually...">
<polygon fill="white" stroke="#666666" points="321.12,-94 209.88,-94 209.88,-62 321.12,-62 321.12,-94"/>
<text text-anchor="start" x="217.88" y="-80.5" font-family="Helvetica,sans-Serif" font-size="10.00">Fiea::Engine::Content</text>
<text text-anchor="middle" x="265.5" y="-68.5" font-family="Helvetica,sans-Serif" font-size="10.00">::Scope::Search</text>
</a>
</g>
</g>
<!-- Node1&#45;&gt;Node5 -->
<g id="edge4_Node000001_Node000005" class="edge">
<title>Node1&#45;&gt;Node5</title>
<g id="a_edge4_Node000001_Node000005"><a xlink:title=" ">
<path fill="none" stroke="#63b8ff" d="M397.55,-130.89C381.29,-121.55 361.68,-111 343.25,-103 336.18,-99.93 328.6,-97.03 321.07,-94.36"/>
<polygon fill="#63b8ff" stroke="#63b8ff" points="395.48,-133.74 405.88,-135.76 399.01,-127.7 395.48,-133.74"/>
</a>
</g>
</g>
<!-- Node6 -->
<g id="Node000006" class="node">
<title>Node6</title>
<g id="a_Node000006"><a xlink:href="class_fiea_1_1_engine_1_1_content_1_1_actions_1_1_increment_action.html#aeafad2cdb7208264be87f8ce5ee2f05e" target="_top" xlink:title=" ">
<polygon fill="white" stroke="#666666" points="151.75,-144 0,-144 0,-112 151.75,-112 151.75,-144"/>
<text text-anchor="start" x="8" y="-130.5" font-family="Helvetica,sans-Serif" font-size="10.00">Fiea::Engine::Content</text>
<text text-anchor="middle" x="75.88" y="-118.5" font-family="Helvetica,sans-Serif" font-size="10.00">::Actions::IncrementAction::Init</text>
</a>
</g>
</g>
<!-- Node5&#45;&gt;Node6 -->
<g id="edge5_Node000005_Node000006" class="edge">
<title>Node5&#45;&gt;Node6</title>
<g id="a_edge5_Node000005_Node000006"><a xlink:title=" ">
<path fill="none" stroke="#63b8ff" d="M198.53,-95.58C179,-100.78 157.72,-106.46 138.48,-111.58"/>
<polygon fill="#63b8ff" stroke="#63b8ff" points="199.25,-99.01 208.01,-93.05 197.45,-92.25 199.25,-99.01"/>
</a>
</g>
</g>
<!-- Node7 -->
<g id="Node000007" class="node">
<title>Node7</title>
<g id="a_Node000007"><a xlink:href="class_fiea_1_1_engine_1_1_content_1_1_actions_1_1_preamble_action.html#a44a59e04e805964256440543040d2aee" target="_top" xlink:title="Searches for the variable that needs to be initialized and sets the value. Returns true because there...">
<polygon fill="white" stroke="#666666" points="150.62,-94 1.12,-94 1.12,-62 150.62,-62 150.62,-94"/>
<text text-anchor="start" x="9.12" y="-80.5" font-family="Helvetica,sans-Serif" font-size="10.00">Fiea::Engine::Content</text>
<text text-anchor="middle" x="75.88" y="-68.5" font-family="Helvetica,sans-Serif" font-size="10.00">::Actions::PreambleAction::Init</text>
</a>
</g>
</g>
<!-- Node5&#45;&gt;Node7 -->
<g id="edge6_Node000005_Node000007" class="edge">
<title>Node5&#45;&gt;Node7</title>
<g id="a_edge6_Node000005_Node000007"><a xlink:title=" ">
<path fill="none" stroke="#63b8ff" d="M198.07,-78C182.86,-78 166.59,-78 151.07,-78"/>
<polygon fill="#63b8ff" stroke="#63b8ff" points="197.96,-81.5 207.96,-78 197.96,-74.5 197.96,-81.5"/>
</a>
</g>
</g>
<!-- Node8 -->
<g id="Node000008" class="node">
<title>Node8</title>
<g id="a_Node000008"><a xlink:href="class_fiea_1_1_engine_1_1_content_1_1_actions_1_1_integer_conditional_action.html#a8bd70260a9720a2cea0bf6d7ae54fd89" target="_top" xlink:title="Run returns true only when the condition turns false, until then it continues to return false.">
<polygon fill="white" stroke="#666666" points="145.75,-44 6,-44 6,0 145.75,0 145.75,-44"/>
<text text-anchor="start" x="14" y="-30.5" font-family="Helvetica,sans-Serif" font-size="10.00">Fiea::Engine::Content</text>
<text text-anchor="start" x="14" y="-18.5" font-family="Helvetica,sans-Serif" font-size="10.00">::Actions::IntegerConditional</text>
<text text-anchor="middle" x="75.88" y="-6.5" font-family="Helvetica,sans-Serif" font-size="10.00">Action::Run</text>
</a>
</g>
</g>
<!-- Node5&#45;&gt;Node8 -->
<g id="edge7_Node000005_Node000008" class="edge">
<title>Node5&#45;&gt;Node8</title>
<g id="a_edge7_Node000005_Node000008"><a xlink:title=" ">
<path fill="none" stroke="#63b8ff" d="M198.5,-58.3C181.47,-53.22 163.09,-47.73 145.91,-42.61"/>
<polygon fill="#63b8ff" stroke="#63b8ff" points="197.44,-61.64 208.02,-61.14 199.44,-54.93 197.44,-61.64"/>
</a>
</g>
</g>
</g>
</svg>
