<?xml version="1.0" encoding="UTF-8" standalone="no"?>
<!DOCTYPE svg PUBLIC "-//W3C//DTD SVG 1.1//EN"
 "http://www.w3.org/Graphics/SVG/1.1/DTD/svg11.dtd">
<!-- Generated by graphviz version 12.2.1 (20241206.2353)
 -->
<!-- Title: Fiea::Engine::Content::Scope::Clear Pages: 1 -->
<svg width="586pt" height="215pt"
 viewBox="0.00 0.00 585.75 215.00" xmlns="http://www.w3.org/2000/svg" xmlns:xlink="http://www.w3.org/1999/xlink">
<g id="graph0" class="graph" transform="scale(1 1) rotate(0) translate(4 211)">
<title>Fiea::Engine::Content::Scope::Clear</title>
<!-- Node1 -->
<g id="Node000001" class="node">
<title>Node1</title>
<g id="a_Node000001"><a xlink:title=" ">
<polygon fill="#999999" stroke="#666666" points="577.75,-107 466.5,-107 466.5,-75 577.75,-75 577.75,-107"/>
<text text-anchor="start" x="474.5" y="-93.5" font-family="Helvetica,sans-Serif" font-size="10.00">Fiea::Engine::Content</text>
<text text-anchor="middle" x="522.12" y="-81.5" font-family="Helvetica,sans-Serif" font-size="10.00">::Scope::Clear</text>
</a>
</g>
</g>
<!-- Node2 -->
<g id="Node000002" class="node">
<title>Node2</title>
<g id="a_Node000002"><a xlink:href="class_fiea_1_1_engine_1_1_content_1_1_scope.html#a0b373136d60bb5b269b7e52419e42991" target="_top" xlink:title="Copy Assignment.">
<polygon fill="white" stroke="#666666" points="430.5,-182 319.25,-182 319.25,-150 430.5,-150 430.5,-182"/>
<text text-anchor="start" x="327.25" y="-168.5" font-family="Helvetica,sans-Serif" font-size="10.00">Fiea::Engine::Content</text>
<text text-anchor="middle" x="374.88" y="-156.5" font-family="Helvetica,sans-Serif" font-size="10.00">::Scope::operator=</text>
</a>
</g>
</g>
<!-- Node1&#45;&gt;Node2 -->
<g id="edge1_Node000001_Node000002" class="edge">
<title>Node1&#45;&gt;Node2</title>
<g id="a_edge1_Node000001_Node000002"><a xlink:title=" ">
<path fill="none" stroke="#63b8ff" d="M483.24,-112.73C467.13,-121.76 448.04,-132.16 430.5,-141 424.82,-143.86 418.74,-146.78 412.78,-149.56"/>
<polygon fill="#63b8ff" stroke="#63b8ff" points="484.53,-116.02 491.53,-108.06 481.1,-109.92 484.53,-116.02"/>
</a>
</g>
</g>
<!-- Node7 -->
<g id="Node000007" class="node">
<title>Node7</title>
<g id="a_Node000007"><a xlink:href="class_fiea_1_1_engine_1_1_content_1_1_scope.html#a61d48df64d77d9fefb55da3109f7fba6" target="_top" xlink:title="Move assignment.">
<polygon fill="white" stroke="#666666" points="430.5,-132 319.25,-132 319.25,-100 430.5,-100 430.5,-132"/>
<text text-anchor="start" x="327.25" y="-118.5" font-family="Helvetica,sans-Serif" font-size="10.00">Fiea::Engine::Content</text>
<text text-anchor="middle" x="374.88" y="-106.5" font-family="Helvetica,sans-Serif" font-size="10.00">::Scope::operator=</text>
</a>
</g>
</g>
<!-- Node1&#45;&gt;Node7 -->
<g id="edge6_Node000001_Node000007" class="edge">
<title>Node1&#45;&gt;Node7</title>
<g id="a_edge6_Node000001_Node000007"><a xlink:title=" ">
<path fill="none" stroke="#63b8ff" d="M454.94,-102.39C446.89,-103.78 438.73,-105.18 430.87,-106.54"/>
<polygon fill="#63b8ff" stroke="#63b8ff" points="455.46,-105.85 464.72,-100.71 454.27,-98.96 455.46,-105.85"/>
</a>
</g>
</g>
<!-- Node8 -->
<g id="Node000008" class="node">
<title>Node8</title>
<g id="a_Node000008"><a xlink:href="namespace_fiea_1_1_engine_1_1_tests.html#acf19d1e24b6e04bb3eefd39b994f462d" target="_top" xlink:title=" ">
<polygon fill="white" stroke="#666666" points="425.25,-82 324.5,-82 324.5,-50 425.25,-50 425.25,-82"/>
<text text-anchor="start" x="332.5" y="-68.5" font-family="Helvetica,sans-Serif" font-size="10.00">Fiea::Engine::Tests</text>
<text text-anchor="middle" x="374.88" y="-56.5" font-family="Helvetica,sans-Serif" font-size="10.00">::TEST_CLASS</text>
</a>
</g>
</g>
<!-- Node1&#45;&gt;Node8 -->
<g id="edge7_Node000001_Node000008" class="edge">
<title>Node1&#45;&gt;Node8</title>
<g id="a_edge7_Node000001_Node000008"><a xlink:title=" ">
<path fill="none" stroke="#63b8ff" d="M455.12,-79.64C445.2,-77.93 435.12,-76.2 425.61,-74.56"/>
<polygon fill="#63b8ff" stroke="#63b8ff" points="454.27,-83.04 464.72,-81.29 455.46,-76.15 454.27,-83.04"/>
</a>
</g>
</g>
<!-- Node9 -->
<g id="Node000009" class="node">
<title>Node9</title>
<g id="a_Node000009"><a xlink:href="class_fiea_1_1_engine_1_1_content_1_1_scope.html#aa733c1955a6545125eb9b75a6a2b446a" target="_top" xlink:title="Destructor.">
<polygon fill="white" stroke="#666666" points="430.5,-32 319.25,-32 319.25,0 430.5,0 430.5,-32"/>
<text text-anchor="start" x="327.25" y="-18.5" font-family="Helvetica,sans-Serif" font-size="10.00">Fiea::Engine::Content</text>
<text text-anchor="middle" x="374.88" y="-6.5" font-family="Helvetica,sans-Serif" font-size="10.00">::Scope::~Scope</text>
</a>
</g>
</g>
<!-- Node1&#45;&gt;Node9 -->
<g id="edge8_Node000001_Node000009" class="edge">
<title>Node1&#45;&gt;Node9</title>
<g id="a_edge8_Node000001_Node000009"><a xlink:title=" ">
<path fill="none" stroke="#63b8ff" d="M483.24,-69.27C467.13,-60.24 448.04,-49.84 430.5,-41 424.82,-38.14 418.74,-35.22 412.78,-32.44"/>
<polygon fill="#63b8ff" stroke="#63b8ff" points="481.1,-72.08 491.53,-73.94 484.53,-65.98 481.1,-72.08"/>
</a>
</g>
</g>
<!-- Node3 -->
<g id="Node000003" class="node">
<title>Node3</title>
<g id="a_Node000003"><a xlink:href="class_fiea_1_1_engine_1_1_content_1_1_attributed.html#a4b2cb8b7f86f4b7df9fc7dd15040affe" target="_top" xlink:title=" ">
<polygon fill="white" stroke="#666666" points="283.25,-207 172,-207 172,-175 283.25,-175 283.25,-207"/>
<text text-anchor="start" x="180" y="-193.5" font-family="Helvetica,sans-Serif" font-size="10.00">Fiea::Engine::Content</text>
<text text-anchor="middle" x="227.62" y="-181.5" font-family="Helvetica,sans-Serif" font-size="10.00">::Attributed::operator=</text>
</a>
</g>
</g>
<!-- Node2&#45;&gt;Node3 -->
<g id="edge2_Node000002_Node000003" class="edge">
<title>Node2&#45;&gt;Node3</title>
<g id="a_edge2_Node000002_Node000003"><a xlink:title=" ">
<path fill="none" stroke="#63b8ff" d="M307.69,-177.39C299.64,-178.78 291.48,-180.18 283.62,-181.54"/>
<polygon fill="#63b8ff" stroke="#63b8ff" points="308.21,-180.85 317.47,-175.71 307.02,-173.96 308.21,-180.85"/>
</a>
</g>
</g>
<!-- Node4 -->
<g id="Node000004" class="node">
<title>Node4</title>
<g id="a_Node000004"><a xlink:href="class_fiea_1_1_engine_1_1_content_1_1_attributed.html#ad00b7ac2fa53d92d617e235da1f83055" target="_top" xlink:title=" ">
<polygon fill="white" stroke="#666666" points="283.25,-157 172,-157 172,-125 283.25,-125 283.25,-157"/>
<text text-anchor="start" x="180" y="-143.5" font-family="Helvetica,sans-Serif" font-size="10.00">Fiea::Engine::Content</text>
<text text-anchor="middle" x="227.62" y="-131.5" font-family="Helvetica,sans-Serif" font-size="10.00">::Attributed::operator=</text>
</a>
</g>
</g>
<!-- Node2&#45;&gt;Node4 -->
<g id="edge3_Node000002_Node000004" class="edge">
<title>Node2&#45;&gt;Node4</title>
<g id="a_edge3_Node000002_Node000004"><a xlink:title=" ">
<path fill="none" stroke="#63b8ff" d="M307.69,-154.61C299.64,-153.22 291.48,-151.82 283.62,-150.46"/>
<polygon fill="#63b8ff" stroke="#63b8ff" points="307.02,-158.04 317.47,-156.29 308.21,-151.15 307.02,-158.04"/>
</a>
</g>
</g>
<!-- Node5 -->
<g id="Node000005" class="node">
<title>Node5</title>
<g id="a_Node000005"><a xlink:href="class_fiea_1_1_engine_1_1_content_1_1_actions_1_1_action.html#a8b550e6b4c11a011c42baf0b9b042d92" target="_top" xlink:title=" ">
<polygon fill="white" stroke="#666666" points="136,-182 0,-182 0,-150 136,-150 136,-182"/>
<text text-anchor="start" x="8" y="-168.5" font-family="Helvetica,sans-Serif" font-size="10.00">Fiea::Engine::Content</text>
<text text-anchor="middle" x="68" y="-156.5" font-family="Helvetica,sans-Serif" font-size="10.00">::Actions::Action::operator=</text>
</a>
</g>
</g>
<!-- Node4&#45;&gt;Node5 -->
<g id="edge4_Node000004_Node000005" class="edge">
<title>Node4&#45;&gt;Node5</title>
<g id="a_edge4_Node000004_Node000005"><a xlink:title=" ">
<path fill="none" stroke="#63b8ff" d="M160.72,-151.45C152.67,-152.73 144.44,-154.03 136.37,-155.31"/>
<polygon fill="#63b8ff" stroke="#63b8ff" points="161.11,-154.93 170.44,-149.91 160.02,-148.02 161.11,-154.93"/>
</a>
</g>
</g>
<!-- Node6 -->
<g id="Node000006" class="node">
<title>Node6</title>
<g id="a_Node000006"><a xlink:href="class_fiea_1_1_engine_1_1_content_1_1_actions_1_1_action.html#add6e558de0fd8848db339bfb352b2164" target="_top" xlink:title=" ">
<polygon fill="white" stroke="#666666" points="136,-132 0,-132 0,-100 136,-100 136,-132"/>
<text text-anchor="start" x="8" y="-118.5" font-family="Helvetica,sans-Serif" font-size="10.00">Fiea::Engine::Content</text>
<text text-anchor="middle" x="68" y="-106.5" font-family="Helvetica,sans-Serif" font-size="10.00">::Actions::Action::operator=</text>
</a>
</g>
</g>
<!-- Node4&#45;&gt;Node6 -->
<g id="edge5_Node000004_Node000006" class="edge">
<title>Node4&#45;&gt;Node6</title>
<g id="a_edge5_Node000004_Node000006"><a xlink:title=" ">
<path fill="none" stroke="#63b8ff" d="M160.72,-130.55C152.67,-129.27 144.44,-127.97 136.37,-126.69"/>
<polygon fill="#63b8ff" stroke="#63b8ff" points="160.02,-133.98 170.44,-132.09 161.11,-127.07 160.02,-133.98"/>
</a>
</g>
</g>
</g>
</svg>
