<?xml version="1.0" encoding="UTF-8" standalone="no"?>
<!DOCTYPE svg PUBLIC "-//W3C//DTD SVG 1.1//EN"
 "http://www.w3.org/Graphics/SVG/1.1/DTD/svg11.dtd">
<!-- Generated by graphviz version 12.2.1 (20241206.2353)
 -->
<!-- Title: Fiea::Engine::Memory::Heap::Free Pages: 1 -->
<svg width="405pt" height="40pt"
 viewBox="0.00 0.00 404.75 40.00" xmlns="http://www.w3.org/2000/svg" xmlns:xlink="http://www.w3.org/1999/xlink">
<g id="graph0" class="graph" transform="scale(1 1) rotate(0) translate(4 36)">
<title>Fiea::Engine::Memory::Heap::Free</title>
<!-- Node1 -->
<g id="Node000001" class="node">
<title>Node1</title>
<g id="a_Node000001"><a xlink:title="Free the current block and check for neighboring blocks if they are free too and coalesce.">
<polygon fill="#999999" stroke="#666666" points="396.75,-32 284.75,-32 284.75,0 396.75,0 396.75,-32"/>
<text text-anchor="start" x="292.75" y="-18.5" font-family="Helvetica,sans-Serif" font-size="10.00">Fiea::Engine::Memory</text>
<text text-anchor="middle" x="340.75" y="-6.5" font-family="Helvetica,sans-Serif" font-size="10.00">::Heap::Free</text>
</a>
</g>
</g>
<!-- Node2 -->
<g id="Node000002" class="node">
<title>Node2</title>
<g id="a_Node000002"><a xlink:href="struct_fiea_1_1_engine_1_1_memory_1_1_allocator.html#a1289df9aa704294400e8ea4d20e07527" target="_top" xlink:title="Allocator Free calls Heaps free.">
<polygon fill="white" stroke="#666666" points="248.75,-32 136.75,-32 136.75,0 248.75,0 248.75,-32"/>
<text text-anchor="start" x="144.75" y="-18.5" font-family="Helvetica,sans-Serif" font-size="10.00">Fiea::Engine::Memory</text>
<text text-anchor="middle" x="192.75" y="-6.5" font-family="Helvetica,sans-Serif" font-size="10.00">::Allocator::Free</text>
</a>
</g>
</g>
<!-- Node1&#45;&gt;Node2 -->
<g id="edge1_Node000001_Node000002" class="edge">
<title>Node1&#45;&gt;Node2</title>
<g id="a_edge1_Node000001_Node000002"><a xlink:title=" ">
<path fill="none" stroke="#63b8ff" d="M273.22,-16C265.13,-16 256.93,-16 249.02,-16"/>
<polygon fill="#63b8ff" stroke="#63b8ff" points="273.04,-19.5 283.04,-16 273.04,-12.5 273.04,-19.5"/>
</a>
</g>
</g>
<!-- Node3 -->
<g id="Node000003" class="node">
<title>Node3</title>
<g id="a_Node000003"><a xlink:href="namespace_fiea_1_1_engine_1_1_tests.html#ad864e6947de6b37ea85f6860600bafd5" target="_top" xlink:title=" ">
<polygon fill="white" stroke="#666666" points="100.75,-32 0,-32 0,0 100.75,0 100.75,-32"/>
<text text-anchor="start" x="8" y="-18.5" font-family="Helvetica,sans-Serif" font-size="10.00">Fiea::Engine::Tests</text>
<text text-anchor="middle" x="50.38" y="-6.5" font-family="Helvetica,sans-Serif" font-size="10.00">::TEST_CLASS</text>
</a>
</g>
</g>
<!-- Node2&#45;&gt;Node3 -->
<g id="edge2_Node000002_Node000003" class="edge">
<title>Node2&#45;&gt;Node3</title>
<g id="a_edge2_Node000002_Node000003"><a xlink:title=" ">
<path fill="none" stroke="#63b8ff" d="M124.95,-16C116.88,-16 108.75,-16 100.99,-16"/>
<polygon fill="#63b8ff" stroke="#63b8ff" points="124.76,-19.5 134.76,-16 124.76,-12.5 124.76,-19.5"/>
</a>
</g>
</g>
</g>
</svg>
