<?xml version="1.0" encoding="UTF-8" standalone="no"?>
<!DOCTYPE svg PUBLIC "-//W3C//DTD SVG 1.1//EN"
 "http://www.w3.org/Graphics/SVG/1.1/DTD/svg11.dtd">
<!-- Generated by graphviz version 12.2.1 (20241206.2353)
 -->
<!-- Title: Fiea::Engine::Content::ScopeParseHandler Pages: 1 -->
<svg width="125pt" height="300pt"
 viewBox="0.00 0.00 125.00 300.00" xmlns="http://www.w3.org/2000/svg" xmlns:xlink="http://www.w3.org/1999/xlink">
<g id="graph0" class="graph" transform="scale(1 1) rotate(0) translate(4 296)">
<title>Fiea::Engine::Content::ScopeParseHandler</title>
<!-- Node1 -->
<g id="Node000001" class="node">
<title>Node1</title>
<g id="a_Node000001"><a xlink:title=" ">
<polygon fill="#999999" stroke="none" points="117,-112 0,-112 0,0 117,0 117,-112"/>
<text text-anchor="start" x="10.88" y="-98.5" font-family="Helvetica,sans-Serif" font-size="10.00">Fiea::Engine::Content</text>
<text text-anchor="start" x="12" y="-86.5" font-family="Helvetica,sans-Serif" font-size="10.00">::ScopeParseHandler</text>
<text text-anchor="start" x="57" y="-70.5" font-family="Helvetica,sans-Serif" font-size="10.00"> </text>
<text text-anchor="start" x="4" y="-54.5" font-family="Helvetica,sans-Serif" font-size="10.00">+</text>
<text text-anchor="start" x="14" y="-54.5" font-family="Helvetica,sans-Serif" font-size="10.00">ScopeParseHandler()</text>
<text text-anchor="start" x="4" y="-38.5" font-family="Helvetica,sans-Serif" font-size="10.00">+</text>
<text text-anchor="start" x="14" y="-38.5" font-family="Helvetica,sans-Serif" font-size="10.00">~ScopeParseHandler()</text>
<text text-anchor="start" x="4" y="-22.5" font-family="Helvetica,sans-Serif" font-size="10.00">+</text>
<text text-anchor="start" x="14" y="-22.5" font-family="Helvetica,sans-Serif" font-size="10.00">EnterKey()</text>
<text text-anchor="start" x="4" y="-6.5" font-family="Helvetica,sans-Serif" font-size="10.00">+</text>
<text text-anchor="start" x="14" y="-6.5" font-family="Helvetica,sans-Serif" font-size="10.00">ExitKey()</text>
<polygon fill="#666666" stroke="#666666" points="0,-82 0,-82 117,-82 117,-82 0,-82"/>
<polygon fill="#666666" stroke="#666666" points="0,-66 0,-66 117,-66 117,-66 0,-66"/>
<polygon fill="none" stroke="#666666" points="0,0 0,-112 117,-112 117,0 0,0"/>
</a>
</g>
</g>
<!-- Node2 -->
<g id="Node000002" class="node">
<title>Node2</title>
<g id="a_Node000002"><a xlink:href="class_fiea_1_1_engine_1_1_content_1_1_i_parse_handler.html" target="_top" xlink:title=" ">
<polygon fill="white" stroke="none" points="110.12,-292 6.88,-292 6.88,-148 110.12,-148 110.12,-292"/>
<text text-anchor="start" x="10.88" y="-278.5" font-family="Helvetica,sans-Serif" font-size="10.00">Fiea::Engine::Content</text>
<text text-anchor="start" x="24.38" y="-266.5" font-family="Helvetica,sans-Serif" font-size="10.00">::IParseHandler</text>
<text text-anchor="start" x="57" y="-250.5" font-family="Helvetica,sans-Serif" font-size="10.00"> </text>
<text text-anchor="start" x="13.62" y="-234.5" font-family="Helvetica,sans-Serif" font-size="10.00">+</text>
<text text-anchor="start" x="26.38" y="-234.5" font-family="Helvetica,sans-Serif" font-size="10.00">Begin()</text>
<text text-anchor="start" x="13.62" y="-218.5" font-family="Helvetica,sans-Serif" font-size="10.00">+</text>
<text text-anchor="start" x="26.38" y="-218.5" font-family="Helvetica,sans-Serif" font-size="10.00">End()</text>
<text text-anchor="start" x="13.62" y="-202.5" font-family="Helvetica,sans-Serif" font-size="10.00">+</text>
<text text-anchor="start" x="26.38" y="-202.5" font-family="Helvetica,sans-Serif" font-size="10.00">EnterKey()</text>
<text text-anchor="start" x="13.62" y="-186.5" font-family="Helvetica,sans-Serif" font-size="10.00">+</text>
<text text-anchor="start" x="26.38" y="-186.5" font-family="Helvetica,sans-Serif" font-size="10.00">ExitKey()</text>
<text text-anchor="start" x="13.62" y="-170.5" font-family="Helvetica,sans-Serif" font-size="10.00">+</text>
<text text-anchor="start" x="26.38" y="-170.5" font-family="Helvetica,sans-Serif" font-size="10.00">~IParseHandler()</text>
<text text-anchor="start" x="14" y="-154.5" font-family="Helvetica,sans-Serif" font-size="10.00">#</text>
<text text-anchor="start" x="26.38" y="-154.5" font-family="Helvetica,sans-Serif" font-size="10.00">IParseHandler()</text>
<polygon fill="#666666" stroke="#666666" points="6.88,-262 6.88,-262 110.12,-262 110.12,-262 6.88,-262"/>
<polygon fill="#666666" stroke="#666666" points="6.88,-246 6.88,-246 110.12,-246 110.12,-246 6.88,-246"/>
<polygon fill="none" stroke="#666666" points="6.88,-148 6.88,-292 110.12,-292 110.12,-148 6.88,-148"/>
</a>
</g>
</g>
<!-- Node2&#45;&gt;Node1 -->
<g id="edge1_Node000001_Node000002" class="edge">
<title>Node2&#45;&gt;Node1</title>
<g id="a_edge1_Node000001_Node000002"><a xlink:title=" ">
<path fill="none" stroke="#63b8ff" d="M58.5,-137.13C58.5,-128.53 58.5,-119.95 58.5,-111.76"/>
<polygon fill="none" stroke="#63b8ff" points="55,-136.9 58.5,-146.9 62,-136.9 55,-136.9"/>
</a>
</g>
</g>
</g>
</svg>
