<?xml version="1.0" encoding="UTF-8" standalone="no"?>
<!DOCTYPE svg PUBLIC "-//W3C//DTD SVG 1.1//EN"
 "http://www.w3.org/Graphics/SVG/1.1/DTD/svg11.dtd">
<!-- Generated by graphviz version 12.2.1 (20241206.2353)
 -->
<!-- Title: Fiea::Engine::Content::Scope::Search Pages: 1 -->
<svg width="307pt" height="152pt"
 viewBox="0.00 0.00 307.00 152.00" xmlns="http://www.w3.org/2000/svg" xmlns:xlink="http://www.w3.org/1999/xlink">
<g id="graph0" class="graph" transform="scale(1 1) rotate(0) translate(4 148)">
<title>Fiea::Engine::Content::Scope::Search</title>
<!-- Node1 -->
<g id="Node000001" class="node">
<title>Node1</title>
<g id="a_Node000001"><a xlink:title="Finds the key in all of its parentage. Output Scope will hold the pointer to the parent that actually...">
<polygon fill="#999999" stroke="#666666" points="299,-94 187.75,-94 187.75,-62 299,-62 299,-94"/>
<text text-anchor="start" x="195.75" y="-80.5" font-family="Helvetica,sans-Serif" font-size="10.00">Fiea::Engine::Content</text>
<text text-anchor="middle" x="243.38" y="-68.5" font-family="Helvetica,sans-Serif" font-size="10.00">::Scope::Search</text>
</a>
</g>
</g>
<!-- Node2 -->
<g id="Node000002" class="node">
<title>Node2</title>
<g id="a_Node000002"><a xlink:href="class_fiea_1_1_engine_1_1_content_1_1_actions_1_1_increment_action.html#aeafad2cdb7208264be87f8ce5ee2f05e" target="_top" xlink:title=" ">
<polygon fill="white" stroke="#666666" points="151.75,-144 0,-144 0,-112 151.75,-112 151.75,-144"/>
<text text-anchor="start" x="8" y="-130.5" font-family="Helvetica,sans-Serif" font-size="10.00">Fiea::Engine::Content</text>
<text text-anchor="middle" x="75.88" y="-118.5" font-family="Helvetica,sans-Serif" font-size="10.00">::Actions::IncrementAction::Init</text>
</a>
</g>
</g>
<!-- Node1&#45;&gt;Node2 -->
<g id="edge1_Node000001_Node000002" class="edge">
<title>Node1&#45;&gt;Node2</title>
<g id="a_edge1_Node000001_Node000002"><a xlink:title=" ">
<path fill="none" stroke="#63b8ff" d="M177.31,-97.66C162.14,-102.24 146.14,-107.08 131.47,-111.51"/>
<polygon fill="#63b8ff" stroke="#63b8ff" points="178.17,-101.05 186.74,-94.81 176.15,-94.35 178.17,-101.05"/>
</a>
</g>
</g>
<!-- Node3 -->
<g id="Node000003" class="node">
<title>Node3</title>
<g id="a_Node000003"><a xlink:href="class_fiea_1_1_engine_1_1_content_1_1_actions_1_1_preamble_action.html#a44a59e04e805964256440543040d2aee" target="_top" xlink:title="Searches for the variable that needs to be initialized and sets the value. Returns true because there...">
<polygon fill="white" stroke="#666666" points="150.62,-94 1.12,-94 1.12,-62 150.62,-62 150.62,-94"/>
<text text-anchor="start" x="9.12" y="-80.5" font-family="Helvetica,sans-Serif" font-size="10.00">Fiea::Engine::Content</text>
<text text-anchor="middle" x="75.88" y="-68.5" font-family="Helvetica,sans-Serif" font-size="10.00">::Actions::PreambleAction::Init</text>
</a>
</g>
</g>
<!-- Node1&#45;&gt;Node3 -->
<g id="edge2_Node000001_Node000003" class="edge">
<title>Node1&#45;&gt;Node3</title>
<g id="a_edge2_Node000001_Node000003"><a xlink:title=" ">
<path fill="none" stroke="#63b8ff" d="M175.84,-78C167.63,-78 159.2,-78 150.89,-78"/>
<polygon fill="#63b8ff" stroke="#63b8ff" points="175.75,-81.5 185.75,-78 175.75,-74.5 175.75,-81.5"/>
</a>
</g>
</g>
<!-- Node4 -->
<g id="Node000004" class="node">
<title>Node4</title>
<g id="a_Node000004"><a xlink:href="class_fiea_1_1_engine_1_1_content_1_1_actions_1_1_integer_conditional_action.html#a8bd70260a9720a2cea0bf6d7ae54fd89" target="_top" xlink:title="Run returns true only when the condition turns false, until then it continues to return false.">
<polygon fill="white" stroke="#666666" points="145.75,-44 6,-44 6,0 145.75,0 145.75,-44"/>
<text text-anchor="start" x="14" y="-30.5" font-family="Helvetica,sans-Serif" font-size="10.00">Fiea::Engine::Content</text>
<text text-anchor="start" x="14" y="-18.5" font-family="Helvetica,sans-Serif" font-size="10.00">::Actions::IntegerConditional</text>
<text text-anchor="middle" x="75.88" y="-6.5" font-family="Helvetica,sans-Serif" font-size="10.00">Action::Run</text>
</a>
</g>
</g>
<!-- Node1&#45;&gt;Node4 -->
<g id="edge3_Node000001_Node000004" class="edge">
<title>Node1&#45;&gt;Node4</title>
<g id="a_edge3_Node000001_Node000004"><a xlink:title=" ">
<path fill="none" stroke="#63b8ff" d="M182.97,-57.9C170.03,-53.52 156.26,-48.86 143.07,-44.4"/>
<polygon fill="#63b8ff" stroke="#63b8ff" points="181.59,-61.13 192.18,-61.02 183.83,-54.5 181.59,-61.13"/>
</a>
</g>
</g>
</g>
</svg>
