<?xml version="1.0" encoding="UTF-8" standalone="no"?>
<!DOCTYPE svg PUBLIC "-//W3C//DTD SVG 1.1//EN"
 "http://www.w3.org/Graphics/SVG/1.1/DTD/svg11.dtd">
<!-- Generated by graphviz version 12.2.1 (20241206.2353)
 -->
<!-- Title: Fiea::Engine::Memory::MemoryService Pages: 1 -->
<svg width="368pt" height="380pt"
 viewBox="0.00 0.00 368.00 380.00" xmlns="http://www.w3.org/2000/svg" xmlns:xlink="http://www.w3.org/1999/xlink">
<g id="graph0" class="graph" transform="scale(1 1) rotate(0) translate(4 376)">
<title>Fiea::Engine::Memory::MemoryService</title>
<!-- Node1 -->
<g id="Node000001" class="node">
<title>Node1</title>
<g id="a_Node000001"><a xlink:title="The main class that handles all heaps and via the interfaces it exposes relevant functionalities such...">
<polygon fill="#999999" stroke="none" points="245.62,-224 114.38,-224 114.38,0 245.62,0 245.62,-224"/>
<text text-anchor="start" x="132" y="-210.5" font-family="Helvetica,sans-Serif" font-size="10.00">Fiea::Engine::Memory</text>
<text text-anchor="start" x="142.88" y="-198.5" font-family="Helvetica,sans-Serif" font-size="10.00">::MemoryService</text>
<text text-anchor="start" x="118.38" y="-182.5" font-family="Helvetica,sans-Serif" font-size="10.00">+</text>
<text text-anchor="start" x="128.38" y="-182.5" font-family="Helvetica,sans-Serif" font-size="10.00">_DefaultAllocator</text>
<text text-anchor="start" x="118.38" y="-166.5" font-family="Helvetica,sans-Serif" font-size="10.00">+</text>
<text text-anchor="start" x="128.38" y="-166.5" font-family="Helvetica,sans-Serif" font-size="10.00">FIEA_SERVICE_BIND2()</text>
<text text-anchor="start" x="118.38" y="-150.5" font-family="Helvetica,sans-Serif" font-size="10.00">+</text>
<text text-anchor="start" x="128.38" y="-150.5" font-family="Helvetica,sans-Serif" font-size="10.00">MemoryService()</text>
<text text-anchor="start" x="118.38" y="-134.5" font-family="Helvetica,sans-Serif" font-size="10.00">+</text>
<text text-anchor="start" x="128.38" y="-134.5" font-family="Helvetica,sans-Serif" font-size="10.00">~MemoryService()</text>
<text text-anchor="start" x="118.38" y="-118.5" font-family="Helvetica,sans-Serif" font-size="10.00">+</text>
<text text-anchor="start" x="128.38" y="-118.5" font-family="Helvetica,sans-Serif" font-size="10.00">CreateHeap()</text>
<text text-anchor="start" x="118.38" y="-102.5" font-family="Helvetica,sans-Serif" font-size="10.00">+</text>
<text text-anchor="start" x="128.38" y="-102.5" font-family="Helvetica,sans-Serif" font-size="10.00">DestroyHeap()</text>
<text text-anchor="start" x="118.38" y="-86.5" font-family="Helvetica,sans-Serif" font-size="10.00">+</text>
<text text-anchor="start" x="128.38" y="-86.5" font-family="Helvetica,sans-Serif" font-size="10.00">GetAllocator()</text>
<text text-anchor="start" x="118.38" y="-70.5" font-family="Helvetica,sans-Serif" font-size="10.00">+</text>
<text text-anchor="start" x="128.38" y="-70.5" font-family="Helvetica,sans-Serif" font-size="10.00">GetAllocator()</text>
<text text-anchor="start" x="118.38" y="-54.5" font-family="Helvetica,sans-Serif" font-size="10.00">+</text>
<text text-anchor="start" x="128.38" y="-54.5" font-family="Helvetica,sans-Serif" font-size="10.00">DefaultAlloc()</text>
<text text-anchor="start" x="118.38" y="-38.5" font-family="Helvetica,sans-Serif" font-size="10.00">+</text>
<text text-anchor="start" x="128.38" y="-38.5" font-family="Helvetica,sans-Serif" font-size="10.00">DefaultFree()</text>
<text text-anchor="start" x="118.38" y="-22.5" font-family="Helvetica,sans-Serif" font-size="10.00">+</text>
<text text-anchor="start" x="128.38" y="-22.5" font-family="Helvetica,sans-Serif" font-size="10.00">PushDefaultAllocator()</text>
<text text-anchor="start" x="118.38" y="-6.5" font-family="Helvetica,sans-Serif" font-size="10.00">+</text>
<text text-anchor="start" x="128.38" y="-6.5" font-family="Helvetica,sans-Serif" font-size="10.00">PopDefaultAllocator()</text>
<polygon fill="#666666" stroke="#666666" points="114.38,-194 114.38,-194 245.62,-194 245.62,-194 114.38,-194"/>
<polygon fill="#666666" stroke="#666666" points="114.38,-178 114.38,-178 126.38,-178 126.38,-178 114.38,-178"/>
<polygon fill="#666666" stroke="#666666" points="126.38,-178 126.38,-178 245.62,-178 245.62,-178 126.38,-178"/>
<polygon fill="none" stroke="#666666" points="114.38,0 114.38,-224 245.62,-224 245.62,0 114.38,0"/>
</a>
</g>
</g>
<!-- Node2 -->
<g id="Node000002" class="node">
<title>Node2</title>
<g id="a_Node000002"><a xlink:href="struct_fiea_1_1_engine_1_1_memory_1_1_i_memory_service.html" target="_top" xlink:title=" ">
<polygon fill="white" stroke="none" points="104,-356 0,-356 0,-276 104,-276 104,-356"/>
<text text-anchor="start" x="4" y="-342.5" font-family="Helvetica,sans-Serif" font-size="10.00">Fiea::Engine::Memory</text>
<text text-anchor="start" x="13.38" y="-330.5" font-family="Helvetica,sans-Serif" font-size="10.00">::IMemoryService</text>
<text text-anchor="start" x="50.5" y="-314.5" font-family="Helvetica,sans-Serif" font-size="10.00"> </text>
<text text-anchor="start" x="9.56" y="-298.5" font-family="Helvetica,sans-Serif" font-size="10.00">+</text>
<text text-anchor="start" x="25.12" y="-298.5" font-family="Helvetica,sans-Serif" font-size="10.00">CreateHeap()</text>
<text text-anchor="start" x="9.56" y="-282.5" font-family="Helvetica,sans-Serif" font-size="10.00">+</text>
<text text-anchor="start" x="25.12" y="-282.5" font-family="Helvetica,sans-Serif" font-size="10.00">DestroyHeap()</text>
<polygon fill="#666666" stroke="#666666" points="0,-326 0,-326 104,-326 104,-326 0,-326"/>
<polygon fill="#666666" stroke="#666666" points="0,-310 0,-310 104,-310 104,-310 0,-310"/>
<polygon fill="none" stroke="#666666" points="0,-276 0,-356 104,-356 104,-276 0,-276"/>
</a>
</g>
</g>
<!-- Node2&#45;&gt;Node1 -->
<g id="edge1_Node000001_Node000002" class="edge">
<title>Node2&#45;&gt;Node1</title>
<g id="a_edge1_Node000001_Node000002"><a xlink:title=" ">
<path fill="none" stroke="#63b8ff" d="M82.78,-266.42C92.39,-251.26 103.38,-233.92 114.43,-216.48"/>
<polygon fill="none" stroke="#63b8ff" points="79.89,-264.45 77.49,-274.77 85.8,-268.2 79.89,-264.45"/>
</a>
</g>
</g>
<!-- Node3 -->
<g id="Node000003" class="node">
<title>Node3</title>
<g id="a_Node000003"><a xlink:href="struct_fiea_1_1_engine_1_1_memory_1_1_i_allocator_provider.html" target="_top" xlink:title=" ">
<polygon fill="white" stroke="none" points="238.12,-372 121.88,-372 121.88,-260 238.12,-260 238.12,-372"/>
<text text-anchor="start" x="132" y="-358.5" font-family="Helvetica,sans-Serif" font-size="10.00">Fiea::Engine::Memory</text>
<text text-anchor="start" x="138.38" y="-346.5" font-family="Helvetica,sans-Serif" font-size="10.00">::IAllocatorProvider</text>
<text text-anchor="start" x="178.5" y="-330.5" font-family="Helvetica,sans-Serif" font-size="10.00"> </text>
<text text-anchor="start" x="125.88" y="-314.5" font-family="Helvetica,sans-Serif" font-size="10.00">+</text>
<text text-anchor="start" x="135.88" y="-314.5" font-family="Helvetica,sans-Serif" font-size="10.00">GetAllocator()</text>
<text text-anchor="start" x="125.88" y="-298.5" font-family="Helvetica,sans-Serif" font-size="10.00">+</text>
<text text-anchor="start" x="135.88" y="-298.5" font-family="Helvetica,sans-Serif" font-size="10.00">GetAllocator()</text>
<text text-anchor="start" x="125.88" y="-282.5" font-family="Helvetica,sans-Serif" font-size="10.00">+</text>
<text text-anchor="start" x="135.88" y="-282.5" font-family="Helvetica,sans-Serif" font-size="10.00">PushDefaultAllocator()</text>
<text text-anchor="start" x="125.88" y="-266.5" font-family="Helvetica,sans-Serif" font-size="10.00">+</text>
<text text-anchor="start" x="135.88" y="-266.5" font-family="Helvetica,sans-Serif" font-size="10.00">PopDefaultAllocator()</text>
<polygon fill="#666666" stroke="#666666" points="121.88,-342 121.88,-342 238.12,-342 238.12,-342 121.88,-342"/>
<polygon fill="#666666" stroke="#666666" points="121.88,-326 121.88,-326 238.12,-326 238.12,-326 121.88,-326"/>
<polygon fill="none" stroke="#666666" points="121.88,-260 121.88,-372 238.12,-372 238.12,-260 121.88,-260"/>
</a>
</g>
</g>
<!-- Node3&#45;&gt;Node1 -->
<g id="edge2_Node000001_Node000003" class="edge">
<title>Node3&#45;&gt;Node1</title>
<g id="a_edge2_Node000001_Node000003"><a xlink:title=" ">
<path fill="none" stroke="#63b8ff" d="M180,-248.62C180,-240.63 180,-232.31 180,-223.9"/>
<polygon fill="none" stroke="#63b8ff" points="176.5,-248.56 180,-258.56 183.5,-248.56 176.5,-248.56"/>
</a>
</g>
</g>
<!-- Node4 -->
<g id="Node000004" class="node">
<title>Node4</title>
<g id="a_Node000004"><a xlink:href="class_fiea_1_1_engine_1_1_memory_1_1_i_default_allocator.html" target="_top" xlink:title=" ">
<polygon fill="white" stroke="none" points="360,-356 256,-356 256,-276 360,-276 360,-356"/>
<text text-anchor="start" x="260" y="-342.5" font-family="Helvetica,sans-Serif" font-size="10.00">Fiea::Engine::Memory</text>
<text text-anchor="start" x="268.62" y="-330.5" font-family="Helvetica,sans-Serif" font-size="10.00">::IDefaultAllocator</text>
<text text-anchor="start" x="306.5" y="-314.5" font-family="Helvetica,sans-Serif" font-size="10.00"> </text>
<text text-anchor="start" x="266.69" y="-298.5" font-family="Helvetica,sans-Serif" font-size="10.00">+</text>
<text text-anchor="start" x="283.38" y="-298.5" font-family="Helvetica,sans-Serif" font-size="10.00">DefaultAlloc()</text>
<text text-anchor="start" x="266.69" y="-282.5" font-family="Helvetica,sans-Serif" font-size="10.00">+</text>
<text text-anchor="start" x="283.38" y="-282.5" font-family="Helvetica,sans-Serif" font-size="10.00">DefaultFree()</text>
<polygon fill="#666666" stroke="#666666" points="256,-326 256,-326 360,-326 360,-326 256,-326"/>
<polygon fill="#666666" stroke="#666666" points="256,-310 256,-310 360,-310 360,-310 256,-310"/>
<polygon fill="none" stroke="#666666" points="256,-276 256,-356 360,-356 360,-276 256,-276"/>
</a>
</g>
</g>
<!-- Node4&#45;&gt;Node1 -->
<g id="edge3_Node000001_Node000004" class="edge">
<title>Node4&#45;&gt;Node1</title>
<g id="a_edge3_Node000001_Node000004"><a xlink:title=" ">
<path fill="none" stroke="#63b8ff" d="M277.22,-266.42C267.61,-251.26 256.62,-233.92 245.57,-216.48"/>
<polygon fill="none" stroke="#63b8ff" points="274.2,-268.2 282.51,-274.77 280.11,-264.45 274.2,-268.2"/>
</a>
</g>
</g>
</g>
</svg>
