<?xml version="1.0" encoding="UTF-8" standalone="no"?>
<!DOCTYPE svg PUBLIC "-//W3C//DTD SVG 1.1//EN"
 "http://www.w3.org/Graphics/SVG/1.1/DTD/svg11.dtd">
<!-- Generated by graphviz version 12.2.1 (20241206.2353)
 -->
<!-- Title: Fiea::Engine::Content::ActionHandler::EnterKey Pages: 1 -->
<svg width="989pt" height="383pt"
 viewBox="0.00 0.00 989.00 383.00" xmlns="http://www.w3.org/2000/svg" xmlns:xlink="http://www.w3.org/1999/xlink">
<g id="graph0" class="graph" transform="scale(1 1) rotate(0) translate(4 379)">
<title>Fiea::Engine::Content::ActionHandler::EnterKey</title>
<!-- Node1 -->
<g id="Node000001" class="node">
<title>Node1</title>
<g id="a_Node000001"><a xlink:title=" ">
<polygon fill="#999999" stroke="#666666" points="130,-287 0,-287 0,-255 130,-255 130,-287"/>
<text text-anchor="start" x="8" y="-273.5" font-family="Helvetica,sans-Serif" font-size="10.00">Fiea::Engine::Content</text>
<text text-anchor="middle" x="65" y="-261.5" font-family="Helvetica,sans-Serif" font-size="10.00">::ActionHandler::EnterKey</text>
</a>
</g>
</g>
<!-- Node2 -->
<g id="Node000002" class="node">
<title>Node2</title>
<g id="a_Node000002"><a xlink:href="class_fiea_1_1_engine_1_1_r_t_t_i.html#a15bd5993c8ad04da47af440298ebbb30" target="_top" xlink:title=" ">
<polygon fill="white" stroke="#666666" points="483.75,-375 367.25,-375 367.25,-355 483.75,-355 483.75,-375"/>
<text text-anchor="middle" x="425.5" y="-361.5" font-family="Helvetica,sans-Serif" font-size="10.00">Fiea::Engine::RTTI::As</text>
</a>
</g>
</g>
<!-- Node1&#45;&gt;Node2 -->
<g id="edge1_Node000001_Node000002" class="edge">
<title>Node1&#45;&gt;Node2</title>
<g id="a_edge1_Node000001_Node000002"><a xlink:title=" ">
<path fill="none" stroke="#63b8ff" d="M81.55,-287.28C99.85,-305.24 132.06,-333.29 166,-346 227.15,-368.91 302.02,-371.95 355.42,-370.29"/>
<polygon fill="#63b8ff" stroke="#63b8ff" points="355.45,-373.79 365.31,-369.91 355.18,-366.8 355.45,-373.79"/>
</a>
</g>
</g>
<!-- Node4 -->
<g id="Node000004" class="node">
<title>Node4</title>
<g id="a_Node000004"><a xlink:href="struct_fiea_1_1_engine_1_1_i_factory_service.html#a67321bf276c10f13666440c0957b9fa8" target="_top" xlink:title=" ">
<polygon fill="white" stroke="#666666" points="313.25,-337 167.5,-337 167.5,-305 313.25,-305 313.25,-337"/>
<text text-anchor="start" x="175.5" y="-323.5" font-family="Helvetica,sans-Serif" font-size="10.00">Fiea::Engine::IFactoryService</text>
<text text-anchor="middle" x="240.38" y="-311.5" font-family="Helvetica,sans-Serif" font-size="10.00">::Create</text>
</a>
</g>
</g>
<!-- Node1&#45;&gt;Node4 -->
<g id="edge3_Node000001_Node000004" class="edge">
<title>Node1&#45;&gt;Node4</title>
<g id="a_edge3_Node000001_Node000004"><a xlink:title=" ">
<path fill="none" stroke="#63b8ff" d="M122.77,-287.37C138.26,-291.84 155.19,-296.72 171.24,-301.35"/>
<polygon fill="#63b8ff" stroke="#63b8ff" points="170.15,-304.68 180.73,-304.09 172.09,-297.95 170.15,-304.68"/>
</a>
</g>
</g>
<!-- Node7 -->
<g id="Node000007" class="node">
<title>Node7</title>
<g id="a_Node000007"><a xlink:href="class_fiea_1_1_engine_1_1_content_1_1_scope_writer.html#a4ff072530f4dfdbdd0940f4c666e2562" target="_top" xlink:title=" ">
<polygon fill="white" stroke="#666666" points="310.62,-287 170.12,-287 170.12,-255 310.62,-255 310.62,-287"/>
<text text-anchor="start" x="178.12" y="-273.5" font-family="Helvetica,sans-Serif" font-size="10.00">Fiea::Engine::Content</text>
<text text-anchor="middle" x="240.38" y="-261.5" font-family="Helvetica,sans-Serif" font-size="10.00">::ScopeWriter::GetTopScope</text>
</a>
</g>
</g>
<!-- Node1&#45;&gt;Node7 -->
<g id="edge7_Node000001_Node000007" class="edge">
<title>Node1&#45;&gt;Node7</title>
<g id="a_edge7_Node000001_Node000007"><a xlink:title=" ">
<path fill="none" stroke="#63b8ff" d="M130.07,-271C139.26,-271 148.81,-271 158.27,-271"/>
<polygon fill="#63b8ff" stroke="#63b8ff" points="158.23,-274.5 168.23,-271 158.23,-267.5 158.23,-274.5"/>
</a>
</g>
</g>
<!-- Node8 -->
<g id="Node000008" class="node">
<title>Node8</title>
<g id="a_Node000008"><a xlink:href="class_fiea_1_1_engine_1_1_content_1_1_parse_writer.html#a28c3d94c387754c03bd32e1effae4754" target="_top" xlink:title=" ">
<polygon fill="white" stroke="#666666" points="314.75,-237 166,-237 166,-205 314.75,-205 314.75,-237"/>
<text text-anchor="start" x="174" y="-223.5" font-family="Helvetica,sans-Serif" font-size="10.00">Fiea::Engine::Content</text>
<text text-anchor="middle" x="240.38" y="-211.5" font-family="Helvetica,sans-Serif" font-size="10.00">::ParseWriter::IncrementDepth</text>
</a>
</g>
</g>
<!-- Node1&#45;&gt;Node8 -->
<g id="edge8_Node000001_Node000008" class="edge">
<title>Node1&#45;&gt;Node8</title>
<g id="a_edge8_Node000001_Node000008"><a xlink:title=" ">
<path fill="none" stroke="#63b8ff" d="M122.77,-254.63C138.26,-250.16 155.19,-245.28 171.24,-240.65"/>
<polygon fill="#63b8ff" stroke="#63b8ff" points="172.09,-244.05 180.73,-237.91 170.15,-237.32 172.09,-244.05"/>
</a>
</g>
</g>
<!-- Node9 -->
<g id="Node000009" class="node">
<title>Node9</title>
<g id="a_Node000009"><a xlink:href="class_fiea_1_1_engine_1_1_content_1_1_scope_writer.html#adb1089ed0ff92fae8826810cef43e447" target="_top" xlink:title=" ">
<polygon fill="white" stroke="#666666" points="306.12,-171 174.62,-171 174.62,-139 306.12,-139 306.12,-171"/>
<text text-anchor="start" x="182.62" y="-157.5" font-family="Helvetica,sans-Serif" font-size="10.00">Fiea::Engine::Content</text>
<text text-anchor="middle" x="240.38" y="-145.5" font-family="Helvetica,sans-Serif" font-size="10.00">::ScopeWriter::PushScope</text>
</a>
</g>
</g>
<!-- Node1&#45;&gt;Node9 -->
<g id="edge9_Node000001_Node000009" class="edge">
<title>Node1&#45;&gt;Node9</title>
<g id="a_edge9_Node000001_Node000009"><a xlink:title=" ">
<path fill="none" stroke="#63b8ff" d="M86.11,-254.66C105.9,-238.88 137.25,-214.69 166,-196 176.11,-189.43 187.33,-182.83 197.9,-176.91"/>
<polygon fill="#63b8ff" stroke="#63b8ff" points="199.38,-180.08 206.44,-172.19 196,-173.96 199.38,-180.08"/>
</a>
</g>
</g>
<!-- Node3 -->
<g id="Node000003" class="node">
<title>Node3</title>
<g id="a_Node000003"><a xlink:href="class_fiea_1_1_engine_1_1_r_t_t_i.html#ac0a7d875e4513b2aca7594abcd4418ef" target="_top" xlink:title=" ">
<polygon fill="white" stroke="#666666" points="649,-375 536.25,-375 536.25,-355 649,-355 649,-375"/>
<text text-anchor="middle" x="592.62" y="-361.5" font-family="Helvetica,sans-Serif" font-size="10.00">Fiea::Engine::RTTI::Is</text>
</a>
</g>
</g>
<!-- Node2&#45;&gt;Node3 -->
<g id="edge2_Node000002_Node000003" class="edge">
<title>Node2&#45;&gt;Node3</title>
<g id="a_edge2_Node000002_Node000003"><a xlink:title=" ">
<path fill="none" stroke="#63b8ff" d="M483.79,-365C496.96,-365 511.08,-365 524.62,-365"/>
<polygon fill="#63b8ff" stroke="#63b8ff" points="524.32,-368.5 534.32,-365 524.32,-361.5 524.32,-368.5"/>
</a>
</g>
</g>
<!-- Node4&#45;&gt;Node2 -->
<g id="edge4_Node000004_Node000002" class="edge">
<title>Node4&#45;&gt;Node2</title>
<g id="a_edge4_Node000004_Node000002"><a xlink:title=" ">
<path fill="none" stroke="#63b8ff" d="M309.82,-337.45C329.6,-342.2 350.92,-347.32 369.75,-351.84"/>
<polygon fill="#63b8ff" stroke="#63b8ff" points="368.8,-355.22 379.34,-354.15 370.44,-348.41 368.8,-355.22"/>
</a>
</g>
</g>
<!-- Node5 -->
<g id="Node000005" class="node">
<title>Node5</title>
<g id="a_Node000005"><a xlink:href="struct_fiea_1_1_engine_1_1_i_abstract_factory.html#a22cd61f6a4df37c08faa8af0a39f3b69" target="_top" xlink:title=" ">
<polygon fill="white" stroke="#666666" points="500.25,-337 350.75,-337 350.75,-305 500.25,-305 500.25,-337"/>
<text text-anchor="start" x="358.75" y="-323.5" font-family="Helvetica,sans-Serif" font-size="10.00">Fiea::Engine::IAbstractFactory</text>
<text text-anchor="middle" x="425.5" y="-311.5" font-family="Helvetica,sans-Serif" font-size="10.00">::Create</text>
</a>
</g>
</g>
<!-- Node4&#45;&gt;Node5 -->
<g id="edge5_Node000004_Node000005" class="edge">
<title>Node4&#45;&gt;Node5</title>
<g id="a_edge5_Node000004_Node000005"><a xlink:title=" ">
<path fill="none" stroke="#63b8ff" d="M313.49,-321C321.81,-321 330.37,-321 338.85,-321"/>
<polygon fill="#63b8ff" stroke="#63b8ff" points="338.83,-324.5 348.83,-321 338.83,-317.5 338.83,-324.5"/>
</a>
</g>
</g>
<!-- Node6 -->
<g id="Node000006" class="node">
<title>Node6</title>
<g id="a_Node000006"><a xlink:href="struct_fiea_1_1_engine_1_1_i_factory_service.html#a8b92ed77b5fa36860888e17dc5801e47" target="_top" xlink:title=" ">
<polygon fill="white" stroke="#666666" points="498.38,-287 352.62,-287 352.62,-255 498.38,-255 498.38,-287"/>
<text text-anchor="start" x="360.62" y="-273.5" font-family="Helvetica,sans-Serif" font-size="10.00">Fiea::Engine::IFactoryService</text>
<text text-anchor="middle" x="425.5" y="-261.5" font-family="Helvetica,sans-Serif" font-size="10.00">::GetFactory</text>
</a>
</g>
</g>
<!-- Node4&#45;&gt;Node6 -->
<g id="edge6_Node000004_Node000006" class="edge">
<title>Node4&#45;&gt;Node6</title>
<g id="a_edge6_Node000004_Node000006"><a xlink:title=" ">
<path fill="none" stroke="#63b8ff" d="M301.59,-304.56C318.09,-300.05 336.14,-295.12 353.21,-290.47"/>
<polygon fill="#63b8ff" stroke="#63b8ff" points="354.06,-293.86 362.79,-287.85 352.22,-287.11 354.06,-293.86"/>
</a>
</g>
</g>
<!-- Node10 -->
<g id="Node000010" class="node">
<title>Node10</title>
<g id="a_Node000010"><a xlink:href="class_fiea_1_1_engine_1_1_content_1_1_scope.html#abf39accc1ce38b12bcbc6884ba0165e3" target="_top" xlink:title="You can provide a child scope that you wish this scope to adopt. You should not adopt a scope if it a...">
<polygon fill="white" stroke="#666666" points="481.12,-199 369.88,-199 369.88,-167 481.12,-167 481.12,-199"/>
<text text-anchor="start" x="377.88" y="-185.5" font-family="Helvetica,sans-Serif" font-size="10.00">Fiea::Engine::Content</text>
<text text-anchor="middle" x="425.5" y="-173.5" font-family="Helvetica,sans-Serif" font-size="10.00">::Scope::Adopt</text>
</a>
</g>
</g>
<!-- Node9&#45;&gt;Node10 -->
<g id="edge10_Node000009_Node000010" class="edge">
<title>Node9&#45;&gt;Node10</title>
<g id="a_edge10_Node000009_Node000010"><a xlink:title=" ">
<path fill="none" stroke="#63b8ff" d="M306.45,-164.95C323.4,-167.54 341.68,-170.34 358.67,-172.93"/>
<polygon fill="#63b8ff" stroke="#63b8ff" points="357.71,-176.33 368.12,-174.38 358.77,-169.41 357.71,-176.33"/>
</a>
</g>
</g>
<!-- Node11 -->
<g id="Node000011" class="node">
<title>Node11</title>
<g id="a_Node000011"><a xlink:href="class_fiea_1_1_engine_1_1_content_1_1_scope.html#aa91d6470fd3d3f402bbb2e765be54455" target="_top" xlink:title="Return a reference to the Datum at this key. create a new Datum, if one is not found.">
<polygon fill="white" stroke="#666666" points="648.25,-337 537,-337 537,-305 648.25,-305 648.25,-337"/>
<text text-anchor="start" x="545" y="-323.5" font-family="Helvetica,sans-Serif" font-size="10.00">Fiea::Engine::Content</text>
<text text-anchor="middle" x="592.62" y="-311.5" font-family="Helvetica,sans-Serif" font-size="10.00">::Scope::Append</text>
</a>
</g>
</g>
<!-- Node9&#45;&gt;Node11 -->
<g id="edge24_Node000009_Node000011" class="edge">
<title>Node9&#45;&gt;Node11</title>
<g id="a_edge24_Node000009_Node000011"><a xlink:title=" ">
<path fill="none" stroke="#63b8ff" d="M270.84,-171.3C292.46,-182.75 322.8,-197.8 350.75,-208 415.15,-231.51 442.62,-208.86 500.25,-246 521.78,-259.87 516.6,-274.57 536.25,-291 539.46,-293.68 542.94,-296.23 546.55,-298.63"/>
<polygon fill="#63b8ff" stroke="#63b8ff" points="544.65,-301.57 555,-303.82 548.31,-295.6 544.65,-301.57"/>
</a>
</g>
</g>
<!-- Node15 -->
<g id="Node000015" class="node">
<title>Node15</title>
<g id="a_Node000015"><a xlink:href="class_fiea_1_1_engine_1_1_content_1_1_datum.html#ac2c889535360fcb22e94133869c4ae29" target="_top" xlink:title=" ">
<polygon fill="white" stroke="#666666" points="797.38,-147 686.12,-147 686.12,-115 797.38,-115 797.38,-147"/>
<text text-anchor="start" x="694.12" y="-133.5" font-family="Helvetica,sans-Serif" font-size="10.00">Fiea::Engine::Content</text>
<text text-anchor="middle" x="741.75" y="-121.5" font-family="Helvetica,sans-Serif" font-size="10.00">::Datum::GetMaxSize</text>
</a>
</g>
</g>
<!-- Node9&#45;&gt;Node15 -->
<g id="edge25_Node000009_Node000015" class="edge">
<title>Node9&#45;&gt;Node15</title>
<g id="a_edge25_Node000009_Node000015"><a xlink:title=" ">
<path fill="none" stroke="#63b8ff" d="M306.4,-151.87C401.71,-147.29 578.41,-138.8 674.44,-134.19"/>
<polygon fill="#63b8ff" stroke="#63b8ff" points="674.41,-137.69 684.23,-133.72 674.08,-130.7 674.41,-137.69"/>
</a>
</g>
</g>
<!-- Node16 -->
<g id="Node000016" class="node">
<title>Node16</title>
<g id="a_Node000016"><a xlink:href="class_fiea_1_1_engine_1_1_content_1_1_datum.html#aede9c541fd5184f33e84640a787d421d" target="_top" xlink:title=" ">
<polygon fill="white" stroke="#666666" points="798.5,-92 685,-92 685,-60 798.5,-60 798.5,-92"/>
<text text-anchor="start" x="693" y="-78.5" font-family="Helvetica,sans-Serif" font-size="10.00">Fiea::Engine::Content</text>
<text text-anchor="middle" x="741.75" y="-66.5" font-family="Helvetica,sans-Serif" font-size="10.00">::Datum::HasMaxSize</text>
</a>
</g>
</g>
<!-- Node9&#45;&gt;Node16 -->
<g id="edge26_Node000009_Node000016" class="edge">
<title>Node9&#45;&gt;Node16</title>
<g id="a_edge26_Node000009_Node000016"><a xlink:title=" ">
<path fill="none" stroke="#63b8ff" d="M284.01,-138.59C340.63,-117.77 444.19,-83 536.25,-70 585.87,-62.99 598.92,-68.36 649,-70 657.01,-70.26 665.4,-70.65 673.72,-71.11"/>
<polygon fill="#63b8ff" stroke="#63b8ff" points="673.28,-74.59 683.47,-71.68 673.69,-67.6 673.28,-74.59"/>
</a>
</g>
</g>
<!-- Node17 -->
<g id="Node000017" class="node">
<title>Node17</title>
<g id="a_Node000017"><a xlink:href="class_fiea_1_1_engine_1_1_content_1_1_datum.html#acae68c3bc8b20345e4c3790fa37bd8d5" target="_top" xlink:title=" ">
<polygon fill="white" stroke="#666666" points="797.38,-32 686.12,-32 686.12,0 797.38,0 797.38,-32"/>
<text text-anchor="start" x="694.12" y="-18.5" font-family="Helvetica,sans-Serif" font-size="10.00">Fiea::Engine::Content</text>
<text text-anchor="middle" x="741.75" y="-6.5" font-family="Helvetica,sans-Serif" font-size="10.00">::Datum::Size</text>
</a>
</g>
</g>
<!-- Node9&#45;&gt;Node17 -->
<g id="edge27_Node000009_Node000017" class="edge">
<title>Node9&#45;&gt;Node17</title>
<g id="a_edge27_Node000009_Node000017"><a xlink:title=" ">
<path fill="none" stroke="#63b8ff" d="M257.5,-138.7C277.49,-119.57 313.5,-88.5 350.75,-73 458.09,-28.35 594.72,-17.86 674.5,-15.85"/>
<polygon fill="#63b8ff" stroke="#63b8ff" points="674.41,-19.36 684.33,-15.65 674.26,-12.36 674.41,-19.36"/>
</a>
</g>
</g>
<!-- Node10&#45;&gt;Node11 -->
<g id="edge11_Node000010_Node000011" class="edge">
<title>Node10&#45;&gt;Node11</title>
<g id="a_edge11_Node000010_Node000011"><a xlink:title=" ">
<path fill="none" stroke="#63b8ff" d="M480.58,-199.34C487.74,-203.05 494.55,-207.56 500.25,-213 527.86,-239.37 510.13,-263.15 536.25,-291 538.64,-293.55 541.3,-295.93 544.12,-298.14"/>
<polygon fill="#63b8ff" stroke="#63b8ff" points="542.09,-300.99 552.31,-303.79 546.06,-295.23 542.09,-300.99"/>
</a>
</g>
</g>
<!-- Node12 -->
<g id="Node000012" class="node">
<title>Node12</title>
<g id="a_Node000012"><a xlink:href="class_fiea_1_1_engine_1_1_content_1_1_scope.html#a8f7dfeddfe92368a8d160ed2b805640f" target="_top" xlink:title="Tell if this scope is present somewhere lower down in the scopes tree as a child.">
<polygon fill="white" stroke="#666666" points="971.25,-282 844.25,-282 844.25,-250 971.25,-250 971.25,-282"/>
<text text-anchor="start" x="852.25" y="-268.5" font-family="Helvetica,sans-Serif" font-size="10.00">Fiea::Engine::Content</text>
<text text-anchor="middle" x="907.75" y="-256.5" font-family="Helvetica,sans-Serif" font-size="10.00">::Scope::IsDescendentOf</text>
</a>
</g>
</g>
<!-- Node10&#45;&gt;Node12 -->
<g id="edge12_Node000010_Node000012" class="edge">
<title>Node10&#45;&gt;Node12</title>
<g id="a_edge12_Node000010_Node000012"><a xlink:title=" ">
<path fill="none" stroke="#63b8ff" d="M481.32,-193.83C488.05,-196.51 494.55,-199.84 500.25,-204 523.56,-221 510.97,-244.12 536.25,-258 628.43,-308.62 753.95,-297.86 832.65,-283.46"/>
<polygon fill="#63b8ff" stroke="#63b8ff" points="833.25,-286.91 842.42,-281.6 831.95,-280.03 833.25,-286.91"/>
</a>
</g>
</g>
<!-- Node13 -->
<g id="Node000013" class="node">
<title>Node13</title>
<g id="a_Node000013"><a xlink:href="class_fiea_1_1_engine_1_1_content_1_1_datum.html#a740662b031de78f05b9f9ce7dac13d8f" target="_top" xlink:title="What is the type of the Datum, returns true or false.">
<polygon fill="white" stroke="#666666" points="648.25,-199 537,-199 537,-167 648.25,-167 648.25,-199"/>
<text text-anchor="start" x="545" y="-185.5" font-family="Helvetica,sans-Serif" font-size="10.00">Fiea::Engine::Content</text>
<text text-anchor="middle" x="592.62" y="-173.5" font-family="Helvetica,sans-Serif" font-size="10.00">::Datum::IsType</text>
</a>
</g>
</g>
<!-- Node10&#45;&gt;Node13 -->
<g id="edge13_Node000010_Node000013" class="edge">
<title>Node10&#45;&gt;Node13</title>
<g id="a_edge13_Node000010_Node000013"><a xlink:title=" ">
<path fill="none" stroke="#63b8ff" d="M481.48,-183C495.48,-183 510.66,-183 525.16,-183"/>
<polygon fill="#63b8ff" stroke="#63b8ff" points="525.09,-186.5 535.09,-183 525.09,-179.5 525.09,-186.5"/>
</a>
</g>
</g>
<!-- Node14 -->
<g id="Node000014" class="node">
<title>Node14</title>
<g id="a_Node000014"><a xlink:href="class_fiea_1_1_engine_1_1_content_1_1_datum.html#a4ccb082ce85390925305f19a24daaed8" target="_top" xlink:title="This function is for pushing an element at the back of the data union array. It is using a universal ...">
<polygon fill="white" stroke="#666666" points="648.25,-111 537,-111 537,-79 648.25,-79 648.25,-111"/>
<text text-anchor="start" x="545" y="-97.5" font-family="Helvetica,sans-Serif" font-size="10.00">Fiea::Engine::Content</text>
<text text-anchor="middle" x="592.62" y="-85.5" font-family="Helvetica,sans-Serif" font-size="10.00">::Datum::Push</text>
</a>
</g>
</g>
<!-- Node10&#45;&gt;Node14 -->
<g id="edge14_Node000010_Node000014" class="edge">
<title>Node10&#45;&gt;Node14</title>
<g id="a_edge14_Node000010_Node000014"><a xlink:title=" ">
<path fill="none" stroke="#63b8ff" d="M457.17,-166.65C483.62,-152.56 522.01,-132.1 551.01,-116.65"/>
<polygon fill="#63b8ff" stroke="#63b8ff" points="552.32,-119.91 559.5,-112.12 549.03,-113.73 552.32,-119.91"/>
</a>
</g>
</g>
<!-- Node18 -->
<g id="Node000018" class="node">
<title>Node18</title>
<g id="a_Node000018"><a xlink:href="class_fiea_1_1_engine_1_1_content_1_1_scope.html#af6a94922a8fa123c3b22b7b4485963de" target="_top" xlink:title="Setter for Parent.">
<polygon fill="white" stroke="#666666" points="648.25,-249 537,-249 537,-217 648.25,-217 648.25,-249"/>
<text text-anchor="start" x="545" y="-235.5" font-family="Helvetica,sans-Serif" font-size="10.00">Fiea::Engine::Content</text>
<text text-anchor="middle" x="592.62" y="-223.5" font-family="Helvetica,sans-Serif" font-size="10.00">::Scope::SetParent</text>
</a>
</g>
</g>
<!-- Node10&#45;&gt;Node18 -->
<g id="edge18_Node000010_Node000018" class="edge">
<title>Node10&#45;&gt;Node18</title>
<g id="a_edge18_Node000010_Node000018"><a xlink:title=" ">
<path fill="none" stroke="#63b8ff" d="M480.57,-199.37C495.18,-203.8 511.14,-208.63 526.29,-213.22"/>
<polygon fill="#63b8ff" stroke="#63b8ff" points="525.12,-216.52 535.7,-216.07 527.15,-209.82 525.12,-216.52"/>
</a>
</g>
</g>
<!-- Node14&#45;&gt;Node15 -->
<g id="edge15_Node000014_Node000015" class="edge">
<title>Node14&#45;&gt;Node15</title>
<g id="a_edge15_Node000014_Node000015"><a xlink:title=" ">
<path fill="none" stroke="#63b8ff" d="M648.41,-108.41C657.03,-110.51 666.01,-112.71 674.85,-114.87"/>
<polygon fill="#63b8ff" stroke="#63b8ff" points="673.9,-118.25 684.45,-117.22 675.57,-111.45 673.9,-118.25"/>
</a>
</g>
</g>
<!-- Node14&#45;&gt;Node16 -->
<g id="edge16_Node000014_Node000016" class="edge">
<title>Node14&#45;&gt;Node16</title>
<g id="a_edge16_Node000014_Node000016"><a xlink:title=" ">
<path fill="none" stroke="#63b8ff" d="M648.41,-87.93C656.61,-86.87 665.14,-85.76 673.57,-84.68"/>
<polygon fill="#63b8ff" stroke="#63b8ff" points="673.97,-88.15 683.44,-83.4 673.07,-81.21 673.97,-88.15"/>
</a>
</g>
</g>
<!-- Node14&#45;&gt;Node17 -->
<g id="edge17_Node000014_Node000017" class="edge">
<title>Node14&#45;&gt;Node17</title>
<g id="a_edge17_Node000014_Node000017"><a xlink:title=" ">
<path fill="none" stroke="#63b8ff" d="M624.11,-78.63C646.13,-66.81 676.1,-50.71 700.15,-37.8"/>
<polygon fill="#63b8ff" stroke="#63b8ff" points="701.56,-41.01 708.72,-33.2 698.25,-34.85 701.56,-41.01"/>
</a>
</g>
</g>
<!-- Node19 -->
<g id="Node000019" class="node">
<title>Node19</title>
<g id="a_Node000019"><a xlink:href="class_fiea_1_1_engine_1_1_content_1_1_scope.html#a853041a85e32e8b7de723fa3dd9a1d82" target="_top" xlink:title="Tells if this scope is present somewhere higher up in the scopes tree as a parent.">
<polygon fill="white" stroke="#666666" points="798.5,-249 685,-249 685,-217 798.5,-217 798.5,-249"/>
<text text-anchor="start" x="693" y="-235.5" font-family="Helvetica,sans-Serif" font-size="10.00">Fiea::Engine::Content</text>
<text text-anchor="middle" x="741.75" y="-223.5" font-family="Helvetica,sans-Serif" font-size="10.00">::Scope::IsAncestorOf</text>
</a>
</g>
</g>
<!-- Node18&#45;&gt;Node19 -->
<g id="edge19_Node000018_Node000019" class="edge">
<title>Node18&#45;&gt;Node19</title>
<g id="a_edge19_Node000018_Node000019"><a xlink:title=" ">
<path fill="none" stroke="#63b8ff" d="M648.41,-233C656.61,-233 665.14,-233 673.57,-233"/>
<polygon fill="#63b8ff" stroke="#63b8ff" points="673.42,-236.5 683.42,-233 673.42,-229.5 673.42,-236.5"/>
</a>
</g>
</g>
<!-- Node20 -->
<g id="Node000020" class="node">
<title>Node20</title>
<g id="a_Node000020"><a xlink:href="class_fiea_1_1_engine_1_1_content_1_1_scope.html#a769b8bf0382518e075fb90f62940624c" target="_top" xlink:title="Orpahans this scope from its parent.">
<polygon fill="white" stroke="#666666" points="797.38,-199 686.12,-199 686.12,-167 797.38,-167 797.38,-199"/>
<text text-anchor="start" x="694.12" y="-185.5" font-family="Helvetica,sans-Serif" font-size="10.00">Fiea::Engine::Content</text>
<text text-anchor="middle" x="741.75" y="-173.5" font-family="Helvetica,sans-Serif" font-size="10.00">::Scope::Orphan</text>
</a>
</g>
</g>
<!-- Node18&#45;&gt;Node20 -->
<g id="edge21_Node000018_Node000020" class="edge">
<title>Node18&#45;&gt;Node20</title>
<g id="a_edge21_Node000018_Node000020"><a xlink:title=" ">
<path fill="none" stroke="#63b8ff" d="M641.8,-216.63C654.44,-212.33 668.21,-207.65 681.36,-203.18"/>
<polygon fill="#63b8ff" stroke="#63b8ff" points="682.44,-206.51 690.78,-199.98 680.19,-199.89 682.44,-206.51"/>
</a>
</g>
</g>
<!-- Node19&#45;&gt;Node12 -->
<g id="edge20_Node000019_Node000012" class="edge">
<title>Node19&#45;&gt;Node12</title>
<g id="a_edge20_Node000019_Node000012"><a xlink:title=" ">
<path fill="none" stroke="#63b8ff" d="M798.73,-244.26C809.77,-246.49 821.51,-248.85 833.03,-251.17"/>
<polygon fill="#63b8ff" stroke="#63b8ff" points="832.01,-254.53 842.5,-253.07 833.39,-247.67 832.01,-254.53"/>
</a>
</g>
</g>
<!-- Node21 -->
<g id="Node000021" class="node">
<title>Node21</title>
<g id="a_Node000021"><a xlink:href="class_fiea_1_1_engine_1_1_content_1_1_scope.html#abe37db932a06fabb2cb02ec65b6f55d8" target="_top" xlink:title="Search for a nested Scope which is the SAME(not just equal) as the provided scope and return the Datu...">
<polygon fill="white" stroke="#666666" points="981,-221 834.5,-221 834.5,-189 981,-189 981,-221"/>
<text text-anchor="start" x="842.5" y="-207.5" font-family="Helvetica,sans-Serif" font-size="10.00">Fiea::Engine::Content</text>
<text text-anchor="middle" x="907.75" y="-195.5" font-family="Helvetica,sans-Serif" font-size="10.00">::Scope::FindContainedScope</text>
</a>
</g>
</g>
<!-- Node20&#45;&gt;Node21 -->
<g id="edge22_Node000020_Node000021" class="edge">
<title>Node20&#45;&gt;Node21</title>
<g id="a_edge22_Node000020_Node000021"><a xlink:title=" ">
<path fill="none" stroke="#63b8ff" d="M797.82,-190.39C805.9,-191.47 814.38,-192.61 822.89,-193.75"/>
<polygon fill="#63b8ff" stroke="#63b8ff" points="822.18,-197.19 832.56,-195.05 823.11,-190.25 822.18,-197.19"/>
</a>
</g>
</g>
<!-- Node22 -->
<g id="Node000022" class="node">
<title>Node22</title>
<g id="a_Node000022"><a xlink:href="class_fiea_1_1_engine_1_1_content_1_1_datum.html#a23395b19af06abda786d991645b41e6d" target="_top" xlink:title=" ">
<polygon fill="white" stroke="#666666" points="963.38,-171 852.12,-171 852.12,-139 963.38,-139 963.38,-171"/>
<text text-anchor="start" x="860.12" y="-157.5" font-family="Helvetica,sans-Serif" font-size="10.00">Fiea::Engine::Content</text>
<text text-anchor="middle" x="907.75" y="-145.5" font-family="Helvetica,sans-Serif" font-size="10.00">::Datum::RemoveAt</text>
</a>
</g>
</g>
<!-- Node20&#45;&gt;Node22 -->
<g id="edge23_Node000020_Node000022" class="edge">
<title>Node20&#45;&gt;Node22</title>
<g id="a_edge23_Node000020_Node000022"><a xlink:title=" ">
<path fill="none" stroke="#63b8ff" d="M797.82,-173.6C811.55,-171.25 826.41,-168.72 840.61,-166.29"/>
<polygon fill="#63b8ff" stroke="#63b8ff" points="841.07,-169.76 850.34,-164.63 839.89,-162.86 841.07,-169.76"/>
</a>
</g>
</g>
</g>
</svg>
