<?xml version="1.0" encoding="UTF-8" standalone="no"?>
<!DOCTYPE svg PUBLIC "-//W3C//DTD SVG 1.1//EN"
 "http://www.w3.org/Graphics/SVG/1.1/DTD/svg11.dtd">
<!-- Generated by graphviz version 12.2.1 (20241206.2353)
 -->
<!-- Title: Fiea::Engine::Content::Attributed::IsInstanceAttribute Pages: 1 -->
<svg width="523pt" height="152pt"
 viewBox="0.00 0.00 523.25 152.00" xmlns="http://www.w3.org/2000/svg" xmlns:xlink="http://www.w3.org/1999/xlink">
<g id="graph0" class="graph" transform="scale(1 1) rotate(0) translate(4 148)">
<title>Fiea::Engine::Content::Attributed::IsInstanceAttribute</title>
<!-- Node1 -->
<g id="Node000001" class="node">
<title>Node1</title>
<g id="a_Node000001"><a xlink:title="Is the attribute added to the instance?">
<polygon fill="#999999" stroke="#666666" points="152.5,-113 0,-113 0,-81 152.5,-81 152.5,-113"/>
<text text-anchor="start" x="8" y="-99.5" font-family="Helvetica,sans-Serif" font-size="10.00">Fiea::Engine::Content</text>
<text text-anchor="middle" x="76.25" y="-87.5" font-family="Helvetica,sans-Serif" font-size="10.00">::Attributed::IsInstanceAttribute</text>
</a>
</g>
</g>
<!-- Node2 -->
<g id="Node000002" class="node">
<title>Node2</title>
<g id="a_Node000002"><a xlink:href="class_fiea_1_1_engine_1_1_content_1_1_attributed.html#aa5969fb315f7ab6f858bde895196fe1f" target="_top" xlink:title="Is the string provided by the user an attribute.">
<polygon fill="white" stroke="#666666" points="316.25,-141 201.25,-141 201.25,-109 316.25,-109 316.25,-141"/>
<text text-anchor="start" x="209.25" y="-127.5" font-family="Helvetica,sans-Serif" font-size="10.00">Fiea::Engine::Content</text>
<text text-anchor="middle" x="258.75" y="-115.5" font-family="Helvetica,sans-Serif" font-size="10.00">::Attributed::IsAttribute</text>
</a>
</g>
</g>
<!-- Node1&#45;&gt;Node2 -->
<g id="edge1_Node000001_Node000002" class="edge">
<title>Node1&#45;&gt;Node2</title>
<g id="a_edge1_Node000001_Node000002"><a xlink:title=" ">
<path fill="none" stroke="#63b8ff" d="M152.75,-108.71C164.98,-110.61 177.58,-112.56 189.61,-114.43"/>
<polygon fill="#63b8ff" stroke="#63b8ff" points="189.04,-117.88 199.46,-115.96 190.11,-110.97 189.04,-117.88"/>
</a>
</g>
</g>
<!-- Node4 -->
<g id="Node000004" class="node">
<title>Node4</title>
<g id="a_Node000004"><a xlink:href="class_fiea_1_1_engine_1_1_content_1_1_attributed.html#a175ef1779adacec6434ea9bda35186bc" target="_top" xlink:title="Is the attribute part of the class defintion.">
<polygon fill="white" stroke="#666666" points="329,-88 188.5,-88 188.5,-56 329,-56 329,-88"/>
<text text-anchor="start" x="196.5" y="-74.5" font-family="Helvetica,sans-Serif" font-size="10.00">Fiea::Engine::Content</text>
<text text-anchor="middle" x="258.75" y="-62.5" font-family="Helvetica,sans-Serif" font-size="10.00">::Attributed::IsClassAttribute</text>
</a>
</g>
</g>
<!-- Node1&#45;&gt;Node4 -->
<g id="edge3_Node000001_Node000004" class="edge">
<title>Node1&#45;&gt;Node4</title>
<g id="a_edge3_Node000001_Node000004"><a xlink:title=" ">
<path fill="none" stroke="#63b8ff" d="M152.75,-86.54C160.7,-85.44 168.8,-84.32 176.8,-83.21"/>
<polygon fill="#63b8ff" stroke="#63b8ff" points="177.1,-86.7 186.53,-81.86 176.14,-79.77 177.1,-86.7"/>
</a>
</g>
</g>
<!-- Node3 -->
<g id="Node000003" class="node">
<title>Node3</title>
<g id="a_Node000003"><a xlink:href="class_fiea_1_1_engine_1_1_content_1_1_scope.html#ad924c01785b239991fc0e56a63295612" target="_top" xlink:title="Return the Datum at the requested key, or nullptr if not found.">
<polygon fill="white" stroke="#666666" points="495.75,-144 384.5,-144 384.5,-112 495.75,-112 495.75,-144"/>
<text text-anchor="start" x="392.5" y="-130.5" font-family="Helvetica,sans-Serif" font-size="10.00">Fiea::Engine::Content</text>
<text text-anchor="middle" x="440.12" y="-118.5" font-family="Helvetica,sans-Serif" font-size="10.00">::Scope::Find</text>
</a>
</g>
</g>
<!-- Node2&#45;&gt;Node3 -->
<g id="edge2_Node000002_Node000003" class="edge">
<title>Node2&#45;&gt;Node3</title>
<g id="a_edge2_Node000002_Node000003"><a xlink:title=" ">
<path fill="none" stroke="#63b8ff" d="M316.51,-125.95C334.44,-126.25 354.41,-126.58 372.95,-126.89"/>
<polygon fill="#63b8ff" stroke="#63b8ff" points="372.7,-130.39 382.76,-127.06 372.82,-123.39 372.7,-130.39"/>
</a>
</g>
</g>
<!-- Node5 -->
<g id="Node000005" class="node">
<title>Node5</title>
<g id="a_Node000005"><a xlink:href="struct_fiea_1_1_engine_1_1_content_1_1_i_type_provider.html#acf000f8d213c81f746d8e6f19c7b12f4" target="_top" xlink:title=" ">
<polygon fill="white" stroke="#666666" points="515.25,-94 365,-94 365,-50 515.25,-50 515.25,-94"/>
<text text-anchor="start" x="373" y="-80.5" font-family="Helvetica,sans-Serif" font-size="10.00">Fiea::Engine::Content</text>
<text text-anchor="start" x="373" y="-68.5" font-family="Helvetica,sans-Serif" font-size="10.00">::ITypeProvider::RetrieveClass</text>
<text text-anchor="middle" x="440.12" y="-56.5" font-family="Helvetica,sans-Serif" font-size="10.00">Definition</text>
</a>
</g>
</g>
<!-- Node4&#45;&gt;Node5 -->
<g id="edge4_Node000004_Node000005" class="edge">
<title>Node4&#45;&gt;Node5</title>
<g id="a_edge4_Node000004_Node000005"><a xlink:title=" ">
<path fill="none" stroke="#63b8ff" d="M329.36,-72C337.19,-72 345.24,-72 353.24,-72"/>
<polygon fill="#63b8ff" stroke="#63b8ff" points="352.99,-75.5 362.99,-72 352.99,-68.5 352.99,-75.5"/>
</a>
</g>
</g>
<!-- Node6 -->
<g id="Node000006" class="node">
<title>Node6</title>
<g id="a_Node000006"><a xlink:href="class_fiea_1_1_engine_1_1_r_t_t_i.html#a876bebbe7b3149483c43a87f55f4ea99" target="_top" xlink:title=" ">
<polygon fill="white" stroke="#666666" points="489.38,-32 390.88,-32 390.88,0 489.38,0 489.38,-32"/>
<text text-anchor="start" x="398.88" y="-18.5" font-family="Helvetica,sans-Serif" font-size="10.00">Fiea::Engine::RTTI</text>
<text text-anchor="middle" x="440.12" y="-6.5" font-family="Helvetica,sans-Serif" font-size="10.00">::TypeIdInstance</text>
</a>
</g>
</g>
<!-- Node4&#45;&gt;Node6 -->
<g id="edge5_Node000004_Node000006" class="edge">
<title>Node4&#45;&gt;Node6</title>
<g id="a_edge5_Node000004_Node000006"><a xlink:title=" ">
<path fill="none" stroke="#63b8ff" d="M312.6,-55.5C333.73,-48.9 358.16,-41.28 379.88,-34.49"/>
<polygon fill="#63b8ff" stroke="#63b8ff" points="380.69,-37.91 389.19,-31.59 378.6,-31.23 380.69,-37.91"/>
</a>
</g>
</g>
</g>
</svg>
