<?xml version="1.0" encoding="UTF-8" standalone="no"?>
<!DOCTYPE svg PUBLIC "-//W3C//DTD SVG 1.1//EN"
 "http://www.w3.org/Graphics/SVG/1.1/DTD/svg11.dtd">
<!-- Generated by graphviz version 12.2.1 (20241206.2353)
 -->
<!-- Title: Fiea::Engine::Content::Actions::WhileActionList::Run Pages: 1 -->
<svg width="506pt" height="378pt"
 viewBox="0.00 0.00 506.00 378.00" xmlns="http://www.w3.org/2000/svg" xmlns:xlink="http://www.w3.org/1999/xlink">
<g id="graph0" class="graph" transform="scale(1 1) rotate(0) translate(4 374)">
<title>Fiea::Engine::Content::Actions::WhileActionList::Run</title>
<!-- Node1 -->
<g id="Node000001" class="node">
<title>Node1</title>
<g id="a_Node000001"><a xlink:title="The logic that needs to run repetitively.">
<polygon fill="#999999" stroke="#666666" points="153.25,-232 0,-232 0,-200 153.25,-200 153.25,-232"/>
<text text-anchor="start" x="8" y="-218.5" font-family="Helvetica,sans-Serif" font-size="10.00">Fiea::Engine::Content</text>
<text text-anchor="middle" x="76.62" y="-206.5" font-family="Helvetica,sans-Serif" font-size="10.00">::Actions::WhileActionList::Run</text>
</a>
</g>
</g>
<!-- Node2 -->
<g id="Node000002" class="node">
<title>Node2</title>
<g id="a_Node000002"><a xlink:href="class_fiea_1_1_engine_1_1_r_t_t_i.html#a15bd5993c8ad04da47af440298ebbb30" target="_top" xlink:title=" ">
<polygon fill="white" stroke="#666666" points="317,-370 200.5,-370 200.5,-350 317,-350 317,-370"/>
<text text-anchor="middle" x="258.75" y="-356.5" font-family="Helvetica,sans-Serif" font-size="10.00">Fiea::Engine::RTTI::As</text>
</a>
</g>
</g>
<!-- Node1&#45;&gt;Node2 -->
<g id="edge1_Node000001_Node000002" class="edge">
<title>Node1&#45;&gt;Node2</title>
<g id="a_edge1_Node000001_Node000002"><a xlink:title=" ">
<path fill="none" stroke="#63b8ff" d="M87.51,-232.09C104.78,-258.82 143.04,-312.27 189.25,-341 191.68,-342.51 194.23,-343.9 196.86,-345.19"/>
<polygon fill="#63b8ff" stroke="#63b8ff" points="195.35,-348.35 205.93,-349.03 198.09,-341.9 195.35,-348.35"/>
</a>
</g>
</g>
<!-- Node4 -->
<g id="Node000004" class="node">
<title>Node4</title>
<g id="a_Node000004"><a xlink:href="class_fiea_1_1_engine_1_1_content_1_1_scope.html#ad924c01785b239991fc0e56a63295612" target="_top" xlink:title="Return the Datum at the requested key, or nullptr if not found.">
<polygon fill="white" stroke="#666666" points="314.38,-332 203.12,-332 203.12,-300 314.38,-300 314.38,-332"/>
<text text-anchor="start" x="211.12" y="-318.5" font-family="Helvetica,sans-Serif" font-size="10.00">Fiea::Engine::Content</text>
<text text-anchor="middle" x="258.75" y="-306.5" font-family="Helvetica,sans-Serif" font-size="10.00">::Scope::Find</text>
</a>
</g>
</g>
<!-- Node1&#45;&gt;Node4 -->
<g id="edge3_Node000001_Node000004" class="edge">
<title>Node1&#45;&gt;Node4</title>
<g id="a_edge3_Node000001_Node000004"><a xlink:title=" ">
<path fill="none" stroke="#63b8ff" d="M98.49,-232.28C120.24,-248.68 155.75,-273.95 189.25,-291 191.96,-292.38 194.76,-293.72 197.62,-295.02"/>
<polygon fill="#63b8ff" stroke="#63b8ff" points="196.16,-298.2 206.73,-298.92 198.92,-291.76 196.16,-298.2"/>
</a>
</g>
</g>
<!-- Node5 -->
<g id="Node000005" class="node">
<title>Node5</title>
<g id="a_Node000005"><a xlink:href="class_fiea_1_1_engine_1_1_content_1_1_datum.html#a3763d03e7b219e3ba257b09a7719795c" target="_top" xlink:title=" ">
<polygon fill="white" stroke="#666666" points="314.38,-282 203.12,-282 203.12,-250 314.38,-250 314.38,-282"/>
<text text-anchor="start" x="211.12" y="-268.5" font-family="Helvetica,sans-Serif" font-size="10.00">Fiea::Engine::Content</text>
<text text-anchor="middle" x="258.75" y="-256.5" font-family="Helvetica,sans-Serif" font-size="10.00">::Datum::Get</text>
</a>
</g>
</g>
<!-- Node1&#45;&gt;Node5 -->
<g id="edge4_Node000001_Node000005" class="edge">
<title>Node1&#45;&gt;Node5</title>
<g id="a_edge4_Node000001_Node000005"><a xlink:title=" ">
<path fill="none" stroke="#63b8ff" d="M136.85,-232.44C154.43,-237.32 173.79,-242.69 191.77,-247.68"/>
<polygon fill="#63b8ff" stroke="#63b8ff" points="190.72,-251.03 201.3,-250.33 192.6,-244.28 190.72,-251.03"/>
</a>
</g>
</g>
<!-- Node6 -->
<g id="Node000006" class="node">
<title>Node6</title>
<g id="a_Node000006"><a xlink:href="class_fiea_1_1_engine_1_1_content_1_1_actions_1_1_action.html#a49e62384396f5a36a6af0bb90f5c10fd" target="_top" xlink:title=" ">
<polygon fill="white" stroke="#666666" points="328.25,-232 189.25,-232 189.25,-200 328.25,-200 328.25,-232"/>
<text text-anchor="start" x="197.25" y="-218.5" font-family="Helvetica,sans-Serif" font-size="10.00">Fiea::Engine::Content</text>
<text text-anchor="middle" x="258.75" y="-206.5" font-family="Helvetica,sans-Serif" font-size="10.00">::Actions::Action::GetStatus</text>
</a>
</g>
</g>
<!-- Node1&#45;&gt;Node6 -->
<g id="edge5_Node000001_Node000006" class="edge">
<title>Node1&#45;&gt;Node6</title>
<g id="a_edge5_Node000001_Node000006"><a xlink:title=" ">
<path fill="none" stroke="#63b8ff" d="M153.49,-216C161.46,-216 169.59,-216 177.61,-216"/>
<polygon fill="#63b8ff" stroke="#63b8ff" points="177.33,-219.5 187.33,-216 177.33,-212.5 177.33,-219.5"/>
</a>
</g>
</g>
<!-- Node7 -->
<g id="Node000007" class="node">
<title>Node7</title>
<g id="a_Node000007"><a xlink:href="class_fiea_1_1_engine_1_1_content_1_1_actions_1_1_action.html#a4bd3f927a2d39da853a3c84a6d454343" target="_top" xlink:title="Providing a way to reset the action state. This is only doing a soft reset and only meant for going f...">
<polygon fill="white" stroke="#666666" points="319.25,-182 198.25,-182 198.25,-150 319.25,-150 319.25,-182"/>
<text text-anchor="start" x="206.25" y="-168.5" font-family="Helvetica,sans-Serif" font-size="10.00">Fiea::Engine::Content</text>
<text text-anchor="middle" x="258.75" y="-156.5" font-family="Helvetica,sans-Serif" font-size="10.00">::Actions::Action::Reset</text>
</a>
</g>
</g>
<!-- Node1&#45;&gt;Node7 -->
<g id="edge6_Node000001_Node000007" class="edge">
<title>Node1&#45;&gt;Node7</title>
<g id="a_edge6_Node000001_Node000007"><a xlink:title=" ">
<path fill="none" stroke="#63b8ff" d="M136.85,-199.56C153.09,-195.05 170.84,-190.12 187.62,-185.47"/>
<polygon fill="#63b8ff" stroke="#63b8ff" points="188.33,-188.9 197.03,-182.86 186.46,-182.16 188.33,-188.9"/>
</a>
</g>
</g>
<!-- Node9 -->
<g id="Node000009" class="node">
<title>Node9</title>
<g id="a_Node000009"><a xlink:href="class_fiea_1_1_engine_1_1_content_1_1_datum.html#acae68c3bc8b20345e4c3790fa37bd8d5" target="_top" xlink:title=" ">
<polygon fill="white" stroke="#666666" points="314.38,-132 203.12,-132 203.12,-100 314.38,-100 314.38,-132"/>
<text text-anchor="start" x="211.12" y="-118.5" font-family="Helvetica,sans-Serif" font-size="10.00">Fiea::Engine::Content</text>
<text text-anchor="middle" x="258.75" y="-106.5" font-family="Helvetica,sans-Serif" font-size="10.00">::Datum::Size</text>
</a>
</g>
</g>
<!-- Node1&#45;&gt;Node9 -->
<g id="edge8_Node000001_Node000009" class="edge">
<title>Node1&#45;&gt;Node9</title>
<g id="a_edge8_Node000001_Node000009"><a xlink:title=" ">
<path fill="none" stroke="#63b8ff" d="M98.49,-199.72C120.24,-183.32 155.75,-158.05 189.25,-141 191.96,-139.62 194.76,-138.28 197.62,-136.98"/>
<polygon fill="#63b8ff" stroke="#63b8ff" points="198.92,-140.24 206.73,-133.08 196.16,-133.8 198.92,-140.24"/>
</a>
</g>
</g>
<!-- Node10 -->
<g id="Node000010" class="node">
<title>Node10</title>
<g id="a_Node000010"><a xlink:href="class_fiea_1_1_engine_1_1_content_1_1_actions_1_1_action.html#a698815d895c6612c8ae91f6094d1c297" target="_top" xlink:title="Update is not a virtual function, the actions users of engine define will define Init,...">
<polygon fill="white" stroke="#666666" points="321.88,-82 195.62,-82 195.62,-50 321.88,-50 321.88,-82"/>
<text text-anchor="start" x="203.62" y="-68.5" font-family="Helvetica,sans-Serif" font-size="10.00">Fiea::Engine::Content</text>
<text text-anchor="middle" x="258.75" y="-56.5" font-family="Helvetica,sans-Serif" font-size="10.00">::Actions::Action::Update</text>
</a>
</g>
</g>
<!-- Node1&#45;&gt;Node10 -->
<g id="edge9_Node000001_Node000010" class="edge">
<title>Node1&#45;&gt;Node10</title>
<g id="a_edge9_Node000001_Node000010"><a xlink:title=" ">
<path fill="none" stroke="#63b8ff" d="M88.05,-199.89C105.83,-173.6 144.46,-121.37 189.25,-91 191.02,-89.8 192.85,-88.65 194.73,-87.55"/>
<polygon fill="#63b8ff" stroke="#63b8ff" points="195.9,-90.89 203.12,-83.14 192.64,-84.69 195.9,-90.89"/>
</a>
</g>
</g>
<!-- Node3 -->
<g id="Node000003" class="node">
<title>Node3</title>
<g id="a_Node000003"><a xlink:href="class_fiea_1_1_engine_1_1_r_t_t_i.html#ac0a7d875e4513b2aca7594abcd4418ef" target="_top" xlink:title=" ">
<polygon fill="white" stroke="#666666" points="487.5,-370 374.75,-370 374.75,-350 487.5,-350 487.5,-370"/>
<text text-anchor="middle" x="431.12" y="-356.5" font-family="Helvetica,sans-Serif" font-size="10.00">Fiea::Engine::RTTI::Is</text>
</a>
</g>
</g>
<!-- Node2&#45;&gt;Node3 -->
<g id="edge2_Node000002_Node000003" class="edge">
<title>Node2&#45;&gt;Node3</title>
<g id="a_edge2_Node000002_Node000003"><a xlink:title=" ">
<path fill="none" stroke="#63b8ff" d="M317.43,-360C332.12,-360 348.04,-360 363.15,-360"/>
<polygon fill="#63b8ff" stroke="#63b8ff" points="363.01,-363.5 373.01,-360 363.01,-356.5 363.01,-363.5"/>
</a>
</g>
</g>
<!-- Node8 -->
<g id="Node000008" class="node">
<title>Node8</title>
<g id="a_Node000008"><a xlink:href="class_fiea_1_1_engine_1_1_content_1_1_actions_1_1_action.html#a722baa79e2bc000694d1bb7a4fec50eb" target="_top" xlink:title=" ">
<polygon fill="white" stroke="#666666" points="498,-182 364.25,-182 364.25,-150 498,-150 498,-182"/>
<text text-anchor="start" x="372.25" y="-168.5" font-family="Helvetica,sans-Serif" font-size="10.00">Fiea::Engine::Content</text>
<text text-anchor="middle" x="431.12" y="-156.5" font-family="Helvetica,sans-Serif" font-size="10.00">::Actions::Action::OnReset</text>
</a>
</g>
</g>
<!-- Node7&#45;&gt;Node8 -->
<g id="edge7_Node000007_Node000008" class="edge">
<title>Node7&#45;&gt;Node8</title>
<g id="a_edge7_Node000007_Node000008"><a xlink:title=" ">
<path fill="none" stroke="#63b8ff" d="M319.34,-166C330.02,-166 341.3,-166 352.4,-166"/>
<polygon fill="#63b8ff" stroke="#63b8ff" points="352.37,-169.5 362.37,-166 352.37,-162.5 352.37,-169.5"/>
</a>
</g>
</g>
<!-- Node11 -->
<g id="Node000011" class="node">
<title>Node11</title>
<g id="a_Node000011"><a xlink:href="class_fiea_1_1_engine_1_1_content_1_1_actions_1_1_action.html#a5636a08196087a24b791b1ba4665a482" target="_top" xlink:title=" ">
<polygon fill="white" stroke="#666666" points="496.5,-132 365.75,-132 365.75,-100 496.5,-100 496.5,-132"/>
<text text-anchor="start" x="373.75" y="-118.5" font-family="Helvetica,sans-Serif" font-size="10.00">Fiea::Engine::Content</text>
<text text-anchor="middle" x="431.12" y="-106.5" font-family="Helvetica,sans-Serif" font-size="10.00">::Actions::Action::Cleanup</text>
</a>
</g>
</g>
<!-- Node10&#45;&gt;Node11 -->
<g id="edge10_Node000010_Node000011" class="edge">
<title>Node10&#45;&gt;Node11</title>
<g id="a_edge10_Node000010_Node000011"><a xlink:title=" ">
<path fill="none" stroke="#63b8ff" d="M315.54,-82.37C330.76,-86.84 347.4,-91.72 363.17,-96.35"/>
<polygon fill="#63b8ff" stroke="#63b8ff" points="361.89,-99.62 372.47,-99.08 363.86,-92.91 361.89,-99.62"/>
</a>
</g>
</g>
<!-- Node12 -->
<g id="Node000012" class="node">
<title>Node12</title>
<g id="a_Node000012"><a xlink:href="class_fiea_1_1_engine_1_1_content_1_1_actions_1_1_action.html#afbbf5653a40406d12c647ef1f00942e0" target="_top" xlink:title=" ">
<polygon fill="white" stroke="#666666" points="486.75,-82 375.5,-82 375.5,-50 486.75,-50 486.75,-82"/>
<text text-anchor="start" x="383.5" y="-68.5" font-family="Helvetica,sans-Serif" font-size="10.00">Fiea::Engine::Content</text>
<text text-anchor="middle" x="431.12" y="-56.5" font-family="Helvetica,sans-Serif" font-size="10.00">::Actions::Action::Init</text>
</a>
</g>
</g>
<!-- Node10&#45;&gt;Node12 -->
<g id="edge11_Node000010_Node000012" class="edge">
<title>Node10&#45;&gt;Node12</title>
<g id="a_edge11_Node000010_Node000012"><a xlink:title=" ">
<path fill="none" stroke="#63b8ff" d="M322.22,-66C335.8,-66 350.21,-66 363.93,-66"/>
<polygon fill="#63b8ff" stroke="#63b8ff" points="363.74,-69.5 373.74,-66 363.74,-62.5 363.74,-69.5"/>
</a>
</g>
</g>
<!-- Node13 -->
<g id="Node000013" class="node">
<title>Node13</title>
<g id="a_Node000013"><a xlink:href="class_fiea_1_1_engine_1_1_content_1_1_actions_1_1_action.html#a651a19484818f73fbe595c0b1a60ece7" target="_top" xlink:title=" ">
<polygon fill="white" stroke="#666666" points="487.5,-32 374.75,-32 374.75,0 487.5,0 487.5,-32"/>
<text text-anchor="start" x="382.75" y="-18.5" font-family="Helvetica,sans-Serif" font-size="10.00">Fiea::Engine::Content</text>
<text text-anchor="middle" x="431.12" y="-6.5" font-family="Helvetica,sans-Serif" font-size="10.00">::Actions::Action::Run</text>
</a>
</g>
</g>
<!-- Node10&#45;&gt;Node13 -->
<g id="edge12_Node000010_Node000013" class="edge">
<title>Node10&#45;&gt;Node13</title>
<g id="a_edge12_Node000010_Node000013"><a xlink:title=" ">
<path fill="none" stroke="#63b8ff" d="M315.54,-49.63C330.91,-45.12 347.75,-40.18 363.66,-35.51"/>
<polygon fill="#63b8ff" stroke="#63b8ff" points="364.44,-38.92 373.05,-32.75 362.47,-32.21 364.44,-38.92"/>
</a>
</g>
</g>
</g>
</svg>
