<?xml version="1.0" encoding="UTF-8" standalone="no"?>
<!DOCTYPE svg PUBLIC "-//W3C//DTD SVG 1.1//EN"
 "http://www.w3.org/Graphics/SVG/1.1/DTD/svg11.dtd">
<!-- Generated by graphviz version 12.2.1 (20241206.2353)
 -->
<!-- Title: Fiea::Engine::Content::Actions::ActionList::Init Pages: 1 -->
<svg width="474pt" height="328pt"
 viewBox="0.00 0.00 473.75 328.00" xmlns="http://www.w3.org/2000/svg" xmlns:xlink="http://www.w3.org/1999/xlink">
<g id="graph0" class="graph" transform="scale(1 1) rotate(0) translate(4 324)">
<title>Fiea::Engine::Content::Actions::ActionList::Init</title>
<!-- Node1 -->
<g id="Node000001" class="node">
<title>Node1</title>
<g id="a_Node000001"><a xlink:title="Init is called as the action is starting, Usually we put all the code that needs to run once....">
<polygon fill="#999999" stroke="#666666" points="124,-207 0,-207 0,-175 124,-175 124,-207"/>
<text text-anchor="start" x="8" y="-193.5" font-family="Helvetica,sans-Serif" font-size="10.00">Fiea::Engine::Content</text>
<text text-anchor="middle" x="62" y="-181.5" font-family="Helvetica,sans-Serif" font-size="10.00">::Actions::ActionList::Init</text>
</a>
</g>
</g>
<!-- Node2 -->
<g id="Node000002" class="node">
<title>Node2</title>
<g id="a_Node000002"><a xlink:href="class_fiea_1_1_engine_1_1_r_t_t_i.html#a15bd5993c8ad04da47af440298ebbb30" target="_top" xlink:title=" ">
<polygon fill="white" stroke="#666666" points="287.75,-320 171.25,-320 171.25,-300 287.75,-300 287.75,-320"/>
<text text-anchor="middle" x="229.5" y="-306.5" font-family="Helvetica,sans-Serif" font-size="10.00">Fiea::Engine::RTTI::As</text>
</a>
</g>
</g>
<!-- Node1&#45;&gt;Node2 -->
<g id="edge1_Node000001_Node000002" class="edge">
<title>Node1&#45;&gt;Node2</title>
<g id="a_edge1_Node000001_Node000002"><a xlink:title=" ">
<path fill="none" stroke="#63b8ff" d="M74.49,-207.45C90.91,-229.71 123.18,-269.15 160,-291 162.6,-292.54 165.32,-293.96 168.13,-295.27"/>
<polygon fill="#63b8ff" stroke="#63b8ff" points="166.58,-298.42 177.16,-298.96 169.23,-291.94 166.58,-298.42"/>
</a>
</g>
</g>
<!-- Node4 -->
<g id="Node000004" class="node">
<title>Node4</title>
<g id="a_Node000004"><a xlink:href="class_fiea_1_1_engine_1_1_content_1_1_scope.html#ad924c01785b239991fc0e56a63295612" target="_top" xlink:title="Return the Datum at the requested key, or nullptr if not found.">
<polygon fill="white" stroke="#666666" points="285.12,-282 173.88,-282 173.88,-250 285.12,-250 285.12,-282"/>
<text text-anchor="start" x="181.88" y="-268.5" font-family="Helvetica,sans-Serif" font-size="10.00">Fiea::Engine::Content</text>
<text text-anchor="middle" x="229.5" y="-256.5" font-family="Helvetica,sans-Serif" font-size="10.00">::Scope::Find</text>
</a>
</g>
</g>
<!-- Node1&#45;&gt;Node4 -->
<g id="edge3_Node000001_Node000004" class="edge">
<title>Node1&#45;&gt;Node4</title>
<g id="a_edge3_Node000001_Node000004"><a xlink:title=" ">
<path fill="none" stroke="#63b8ff" d="M92.25,-207.3C111.26,-217.59 136.75,-230.81 160,-241 163.36,-242.47 166.84,-243.93 170.37,-245.37"/>
<polygon fill="#63b8ff" stroke="#63b8ff" points="169.03,-248.6 179.62,-249 171.59,-242.08 169.03,-248.6"/>
</a>
</g>
</g>
<!-- Node5 -->
<g id="Node000005" class="node">
<title>Node5</title>
<g id="a_Node000005"><a xlink:href="class_fiea_1_1_engine_1_1_content_1_1_datum.html#a3763d03e7b219e3ba257b09a7719795c" target="_top" xlink:title=" ">
<polygon fill="white" stroke="#666666" points="285.12,-232 173.88,-232 173.88,-200 285.12,-200 285.12,-232"/>
<text text-anchor="start" x="181.88" y="-218.5" font-family="Helvetica,sans-Serif" font-size="10.00">Fiea::Engine::Content</text>
<text text-anchor="middle" x="229.5" y="-206.5" font-family="Helvetica,sans-Serif" font-size="10.00">::Datum::Get</text>
</a>
</g>
</g>
<!-- Node1&#45;&gt;Node5 -->
<g id="edge4_Node000001_Node000005" class="edge">
<title>Node1&#45;&gt;Node5</title>
<g id="a_edge4_Node000001_Node000005"><a xlink:title=" ">
<path fill="none" stroke="#63b8ff" d="M124.16,-200.24C136.56,-202.11 149.67,-204.09 162.24,-205.99"/>
<polygon fill="#63b8ff" stroke="#63b8ff" points="161.7,-209.45 172.11,-207.48 162.74,-202.53 161.7,-209.45"/>
</a>
</g>
</g>
<!-- Node6 -->
<g id="Node000006" class="node">
<title>Node6</title>
<g id="a_Node000006"><a xlink:href="class_fiea_1_1_engine_1_1_content_1_1_actions_1_1_action.html#a49e62384396f5a36a6af0bb90f5c10fd" target="_top" xlink:title=" ">
<polygon fill="white" stroke="#666666" points="299,-182 160,-182 160,-150 299,-150 299,-182"/>
<text text-anchor="start" x="168" y="-168.5" font-family="Helvetica,sans-Serif" font-size="10.00">Fiea::Engine::Content</text>
<text text-anchor="middle" x="229.5" y="-156.5" font-family="Helvetica,sans-Serif" font-size="10.00">::Actions::Action::GetStatus</text>
</a>
</g>
</g>
<!-- Node1&#45;&gt;Node6 -->
<g id="edge5_Node000001_Node000006" class="edge">
<title>Node1&#45;&gt;Node6</title>
<g id="a_edge5_Node000001_Node000006"><a xlink:title=" ">
<path fill="none" stroke="#63b8ff" d="M124.16,-181.76C131.98,-180.58 140.08,-179.36 148.15,-178.14"/>
<polygon fill="#63b8ff" stroke="#63b8ff" points="148.64,-181.6 158.01,-176.65 147.6,-174.68 148.64,-181.6"/>
</a>
</g>
</g>
<!-- Node7 -->
<g id="Node000007" class="node">
<title>Node7</title>
<g id="a_Node000007"><a xlink:href="class_fiea_1_1_engine_1_1_content_1_1_datum.html#acae68c3bc8b20345e4c3790fa37bd8d5" target="_top" xlink:title=" ">
<polygon fill="white" stroke="#666666" points="285.12,-132 173.88,-132 173.88,-100 285.12,-100 285.12,-132"/>
<text text-anchor="start" x="181.88" y="-118.5" font-family="Helvetica,sans-Serif" font-size="10.00">Fiea::Engine::Content</text>
<text text-anchor="middle" x="229.5" y="-106.5" font-family="Helvetica,sans-Serif" font-size="10.00">::Datum::Size</text>
</a>
</g>
</g>
<!-- Node1&#45;&gt;Node7 -->
<g id="edge6_Node000001_Node000007" class="edge">
<title>Node1&#45;&gt;Node7</title>
<g id="a_edge6_Node000001_Node000007"><a xlink:title=" ">
<path fill="none" stroke="#63b8ff" d="M92.25,-174.7C111.26,-164.41 136.75,-151.19 160,-141 163.36,-139.53 166.84,-138.07 170.37,-136.63"/>
<polygon fill="#63b8ff" stroke="#63b8ff" points="171.59,-139.92 179.62,-133 169.03,-133.4 171.59,-139.92"/>
</a>
</g>
</g>
<!-- Node8 -->
<g id="Node000008" class="node">
<title>Node8</title>
<g id="a_Node000008"><a xlink:href="class_fiea_1_1_engine_1_1_content_1_1_actions_1_1_action.html#a698815d895c6612c8ae91f6094d1c297" target="_top" xlink:title="Update is not a virtual function, the actions users of engine define will define Init,...">
<polygon fill="white" stroke="#666666" points="292.62,-82 166.38,-82 166.38,-50 292.62,-50 292.62,-82"/>
<text text-anchor="start" x="174.38" y="-68.5" font-family="Helvetica,sans-Serif" font-size="10.00">Fiea::Engine::Content</text>
<text text-anchor="middle" x="229.5" y="-56.5" font-family="Helvetica,sans-Serif" font-size="10.00">::Actions::Action::Update</text>
</a>
</g>
</g>
<!-- Node1&#45;&gt;Node8 -->
<g id="edge7_Node000001_Node000008" class="edge">
<title>Node1&#45;&gt;Node8</title>
<g id="a_edge7_Node000001_Node000008"><a xlink:title=" ">
<path fill="none" stroke="#63b8ff" d="M75.03,-174.59C91.83,-152.74 124.28,-114.16 160,-91 161.83,-89.81 163.73,-88.67 165.67,-87.57"/>
<polygon fill="#63b8ff" stroke="#63b8ff" points="167.03,-90.81 174.35,-83.16 163.85,-84.57 167.03,-90.81"/>
</a>
</g>
</g>
<!-- Node3 -->
<g id="Node000003" class="node">
<title>Node3</title>
<g id="a_Node000003"><a xlink:href="class_fiea_1_1_engine_1_1_r_t_t_i.html#ac0a7d875e4513b2aca7594abcd4418ef" target="_top" xlink:title=" ">
<polygon fill="white" stroke="#666666" points="456.75,-320 344,-320 344,-300 456.75,-300 456.75,-320"/>
<text text-anchor="middle" x="400.38" y="-306.5" font-family="Helvetica,sans-Serif" font-size="10.00">Fiea::Engine::RTTI::Is</text>
</a>
</g>
</g>
<!-- Node2&#45;&gt;Node3 -->
<g id="edge2_Node000002_Node000003" class="edge">
<title>Node2&#45;&gt;Node3</title>
<g id="a_edge2_Node000002_Node000003"><a xlink:title=" ">
<path fill="none" stroke="#63b8ff" d="M288.14,-310C302.32,-310 317.62,-310 332.2,-310"/>
<polygon fill="#63b8ff" stroke="#63b8ff" points="332.19,-313.5 342.19,-310 332.19,-306.5 332.19,-313.5"/>
</a>
</g>
</g>
<!-- Node9 -->
<g id="Node000009" class="node">
<title>Node9</title>
<g id="a_Node000009"><a xlink:href="class_fiea_1_1_engine_1_1_content_1_1_actions_1_1_action.html#a5636a08196087a24b791b1ba4665a482" target="_top" xlink:title=" ">
<polygon fill="white" stroke="#666666" points="465.75,-132 335,-132 335,-100 465.75,-100 465.75,-132"/>
<text text-anchor="start" x="343" y="-118.5" font-family="Helvetica,sans-Serif" font-size="10.00">Fiea::Engine::Content</text>
<text text-anchor="middle" x="400.38" y="-106.5" font-family="Helvetica,sans-Serif" font-size="10.00">::Actions::Action::Cleanup</text>
</a>
</g>
</g>
<!-- Node8&#45;&gt;Node9 -->
<g id="edge8_Node000008_Node000009" class="edge">
<title>Node8&#45;&gt;Node9</title>
<g id="a_edge8_Node000008_Node000009"><a xlink:title=" ">
<path fill="none" stroke="#63b8ff" d="M285.8,-82.37C300.88,-86.84 317.38,-91.72 333.01,-96.35"/>
<polygon fill="#63b8ff" stroke="#63b8ff" points="331.63,-99.59 342.21,-99.08 333.62,-92.88 331.63,-99.59"/>
</a>
</g>
</g>
<!-- Node10 -->
<g id="Node000010" class="node">
<title>Node10</title>
<g id="a_Node000010"><a xlink:href="class_fiea_1_1_engine_1_1_content_1_1_actions_1_1_action.html#afbbf5653a40406d12c647ef1f00942e0" target="_top" xlink:title=" ">
<polygon fill="white" stroke="#666666" points="456,-82 344.75,-82 344.75,-50 456,-50 456,-82"/>
<text text-anchor="start" x="352.75" y="-68.5" font-family="Helvetica,sans-Serif" font-size="10.00">Fiea::Engine::Content</text>
<text text-anchor="middle" x="400.38" y="-56.5" font-family="Helvetica,sans-Serif" font-size="10.00">::Actions::Action::Init</text>
</a>
</g>
</g>
<!-- Node8&#45;&gt;Node10 -->
<g id="edge9_Node000008_Node000010" class="edge">
<title>Node8&#45;&gt;Node10</title>
<g id="a_edge9_Node000008_Node000010"><a xlink:title=" ">
<path fill="none" stroke="#63b8ff" d="M292.9,-66C305.98,-66 319.82,-66 333.04,-66"/>
<polygon fill="#63b8ff" stroke="#63b8ff" points="332.95,-69.5 342.95,-66 332.95,-62.5 332.95,-69.5"/>
</a>
</g>
</g>
<!-- Node11 -->
<g id="Node000011" class="node">
<title>Node11</title>
<g id="a_Node000011"><a xlink:href="class_fiea_1_1_engine_1_1_content_1_1_actions_1_1_action.html#a651a19484818f73fbe595c0b1a60ece7" target="_top" xlink:title=" ">
<polygon fill="white" stroke="#666666" points="456.75,-32 344,-32 344,0 456.75,0 456.75,-32"/>
<text text-anchor="start" x="352" y="-18.5" font-family="Helvetica,sans-Serif" font-size="10.00">Fiea::Engine::Content</text>
<text text-anchor="middle" x="400.38" y="-6.5" font-family="Helvetica,sans-Serif" font-size="10.00">::Actions::Action::Run</text>
</a>
</g>
</g>
<!-- Node8&#45;&gt;Node11 -->
<g id="edge10_Node000008_Node000011" class="edge">
<title>Node8&#45;&gt;Node11</title>
<g id="a_edge10_Node000008_Node000011"><a xlink:title=" ">
<path fill="none" stroke="#63b8ff" d="M285.8,-49.63C300.88,-45.16 317.38,-40.28 333.01,-35.65"/>
<polygon fill="#63b8ff" stroke="#63b8ff" points="333.62,-39.12 342.21,-32.92 331.63,-32.41 333.62,-39.12"/>
</a>
</g>
</g>
</g>
</svg>
