<?xml version="1.0" encoding="UTF-8" standalone="no"?>
<!DOCTYPE svg PUBLIC "-//W3C//DTD SVG 1.1//EN"
 "http://www.w3.org/Graphics/SVG/1.1/DTD/svg11.dtd">
<!-- Generated by graphviz version 12.2.1 (20241206.2353)
 -->
<!-- Title: Fiea::Engine::Content::Scope::Adopt Pages: 1 -->
<svg width="599pt" height="353pt"
 viewBox="0.00 0.00 598.50 353.00" xmlns="http://www.w3.org/2000/svg" xmlns:xlink="http://www.w3.org/1999/xlink">
<g id="graph0" class="graph" transform="scale(1 1) rotate(0) translate(4 349)">
<title>Fiea::Engine::Content::Scope::Adopt</title>
<!-- Node1 -->
<g id="Node000001" class="node">
<title>Node1</title>
<g id="a_Node000001"><a xlink:title="You can provide a child scope that you wish this scope to adopt. You should not adopt a scope if it a...">
<polygon fill="#999999" stroke="#666666" points="111.25,-257 0,-257 0,-225 111.25,-225 111.25,-257"/>
<text text-anchor="start" x="8" y="-243.5" font-family="Helvetica,sans-Serif" font-size="10.00">Fiea::Engine::Content</text>
<text text-anchor="middle" x="55.62" y="-231.5" font-family="Helvetica,sans-Serif" font-size="10.00">::Scope::Adopt</text>
</a>
</g>
</g>
<!-- Node2 -->
<g id="Node000002" class="node">
<title>Node2</title>
<g id="a_Node000002"><a xlink:href="class_fiea_1_1_engine_1_1_content_1_1_scope.html#aa91d6470fd3d3f402bbb2e765be54455" target="_top" xlink:title="Return a reference to the Datum at this key. create a new Datum, if one is not found.">
<polygon fill="white" stroke="#666666" points="258.5,-345 147.25,-345 147.25,-313 258.5,-313 258.5,-345"/>
<text text-anchor="start" x="155.25" y="-331.5" font-family="Helvetica,sans-Serif" font-size="10.00">Fiea::Engine::Content</text>
<text text-anchor="middle" x="202.88" y="-319.5" font-family="Helvetica,sans-Serif" font-size="10.00">::Scope::Append</text>
</a>
</g>
</g>
<!-- Node1&#45;&gt;Node2 -->
<g id="edge1_Node000001_Node000002" class="edge">
<title>Node1&#45;&gt;Node2</title>
<g id="a_edge1_Node000001_Node000002"><a xlink:title=" ">
<path fill="none" stroke="#63b8ff" d="M81.35,-257.46C99.41,-269.32 124.6,-285.55 147.25,-299 151.78,-301.69 156.56,-304.44 161.34,-307.13"/>
<polygon fill="#63b8ff" stroke="#63b8ff" points="159.28,-310 169.72,-311.8 162.69,-303.88 159.28,-310"/>
</a>
</g>
</g>
<!-- Node3 -->
<g id="Node000003" class="node">
<title>Node3</title>
<g id="a_Node000003"><a xlink:href="class_fiea_1_1_engine_1_1_content_1_1_scope.html#a8f7dfeddfe92368a8d160ed2b805640f" target="_top" xlink:title="Tell if this scope is present somewhere lower down in the scopes tree as a child.">
<polygon fill="white" stroke="#666666" points="580.75,-216 453.75,-216 453.75,-184 580.75,-184 580.75,-216"/>
<text text-anchor="start" x="461.75" y="-202.5" font-family="Helvetica,sans-Serif" font-size="10.00">Fiea::Engine::Content</text>
<text text-anchor="middle" x="517.25" y="-190.5" font-family="Helvetica,sans-Serif" font-size="10.00">::Scope::IsDescendentOf</text>
</a>
</g>
</g>
<!-- Node1&#45;&gt;Node3 -->
<g id="edge2_Node000001_Node000003" class="edge">
<title>Node1&#45;&gt;Node3</title>
<g id="a_edge2_Node000001_Node000003"><a xlink:title=" ">
<path fill="none" stroke="#63b8ff" d="M106.93,-257.46C119.92,-260.99 133.99,-264.2 147.25,-266 262.09,-281.55 296.43,-297.33 408,-266 437.77,-257.64 467.47,-238.58 488.2,-223.08"/>
<polygon fill="#63b8ff" stroke="#63b8ff" points="490.08,-226.06 495.87,-217.18 485.81,-220.51 490.08,-226.06"/>
</a>
</g>
</g>
<!-- Node4 -->
<g id="Node000004" class="node">
<title>Node4</title>
<g id="a_Node000004"><a xlink:href="class_fiea_1_1_engine_1_1_content_1_1_datum.html#a740662b031de78f05b9f9ce7dac13d8f" target="_top" xlink:title="What is the type of the Datum, returns true or false.">
<polygon fill="white" stroke="#666666" points="258.5,-257 147.25,-257 147.25,-225 258.5,-225 258.5,-257"/>
<text text-anchor="start" x="155.25" y="-243.5" font-family="Helvetica,sans-Serif" font-size="10.00">Fiea::Engine::Content</text>
<text text-anchor="middle" x="202.88" y="-231.5" font-family="Helvetica,sans-Serif" font-size="10.00">::Datum::IsType</text>
</a>
</g>
</g>
<!-- Node1&#45;&gt;Node4 -->
<g id="edge3_Node000001_Node000004" class="edge">
<title>Node1&#45;&gt;Node4</title>
<g id="a_edge3_Node000001_Node000004"><a xlink:title=" ">
<path fill="none" stroke="#63b8ff" d="M111.54,-241C119.4,-241 127.56,-241 135.61,-241"/>
<polygon fill="#63b8ff" stroke="#63b8ff" points="135.37,-244.5 145.37,-241 135.37,-237.5 135.37,-244.5"/>
</a>
</g>
</g>
<!-- Node5 -->
<g id="Node000005" class="node">
<title>Node5</title>
<g id="a_Node000005"><a xlink:href="class_fiea_1_1_engine_1_1_content_1_1_datum.html#a4ccb082ce85390925305f19a24daaed8" target="_top" xlink:title="This function is for pushing an element at the back of the data union array. It is using a universal ...">
<polygon fill="white" stroke="#666666" points="258.5,-207 147.25,-207 147.25,-175 258.5,-175 258.5,-207"/>
<text text-anchor="start" x="155.25" y="-193.5" font-family="Helvetica,sans-Serif" font-size="10.00">Fiea::Engine::Content</text>
<text text-anchor="middle" x="202.88" y="-181.5" font-family="Helvetica,sans-Serif" font-size="10.00">::Datum::Push</text>
</a>
</g>
</g>
<!-- Node1&#45;&gt;Node5 -->
<g id="edge4_Node000001_Node000005" class="edge">
<title>Node1&#45;&gt;Node5</title>
<g id="a_edge4_Node000001_Node000005"><a xlink:title=" ">
<path fill="none" stroke="#63b8ff" d="M104.19,-224.63C116.73,-220.31 130.4,-215.6 143.44,-211.11"/>
<polygon fill="#63b8ff" stroke="#63b8ff" points="144.46,-214.47 152.78,-207.9 142.18,-207.85 144.46,-214.47"/>
</a>
</g>
</g>
<!-- Node9 -->
<g id="Node000009" class="node">
<title>Node9</title>
<g id="a_Node000009"><a xlink:href="class_fiea_1_1_engine_1_1_content_1_1_scope.html#af6a94922a8fa123c3b22b7b4485963de" target="_top" xlink:title="Setter for Parent.">
<polygon fill="white" stroke="#666666" points="258.5,-107 147.25,-107 147.25,-75 258.5,-75 258.5,-107"/>
<text text-anchor="start" x="155.25" y="-93.5" font-family="Helvetica,sans-Serif" font-size="10.00">Fiea::Engine::Content</text>
<text text-anchor="middle" x="202.88" y="-81.5" font-family="Helvetica,sans-Serif" font-size="10.00">::Scope::SetParent</text>
</a>
</g>
</g>
<!-- Node1&#45;&gt;Node9 -->
<g id="edge8_Node000001_Node000009" class="edge">
<title>Node1&#45;&gt;Node9</title>
<g id="a_edge8_Node000001_Node000009"><a xlink:title=" ">
<path fill="none" stroke="#63b8ff" d="M72.45,-224.66C97.98,-198.29 148.44,-146.18 178.25,-115.4"/>
<polygon fill="#63b8ff" stroke="#63b8ff" points="180.58,-118.02 185.02,-108.41 175.55,-113.15 180.58,-118.02"/>
</a>
</g>
</g>
<!-- Node6 -->
<g id="Node000006" class="node">
<title>Node6</title>
<g id="a_Node000006"><a xlink:href="class_fiea_1_1_engine_1_1_content_1_1_datum.html#ac2c889535360fcb22e94133869c4ae29" target="_top" xlink:title=" ">
<polygon fill="white" stroke="#666666" points="406.88,-257 295.62,-257 295.62,-225 406.88,-225 406.88,-257"/>
<text text-anchor="start" x="303.62" y="-243.5" font-family="Helvetica,sans-Serif" font-size="10.00">Fiea::Engine::Content</text>
<text text-anchor="middle" x="351.25" y="-231.5" font-family="Helvetica,sans-Serif" font-size="10.00">::Datum::GetMaxSize</text>
</a>
</g>
</g>
<!-- Node5&#45;&gt;Node6 -->
<g id="edge5_Node000005_Node000006" class="edge">
<title>Node5&#45;&gt;Node6</title>
<g id="a_edge5_Node000005_Node000006"><a xlink:title=" ">
<path fill="none" stroke="#63b8ff" d="M251.8,-207.37C264.44,-211.69 278.22,-216.4 291.36,-220.89"/>
<polygon fill="#63b8ff" stroke="#63b8ff" points="290.19,-224.18 300.78,-224.1 292.45,-217.56 290.19,-224.18"/>
</a>
</g>
</g>
<!-- Node7 -->
<g id="Node000007" class="node">
<title>Node7</title>
<g id="a_Node000007"><a xlink:href="class_fiea_1_1_engine_1_1_content_1_1_datum.html#aede9c541fd5184f33e84640a787d421d" target="_top" xlink:title=" ">
<polygon fill="white" stroke="#666666" points="408,-207 294.5,-207 294.5,-175 408,-175 408,-207"/>
<text text-anchor="start" x="302.5" y="-193.5" font-family="Helvetica,sans-Serif" font-size="10.00">Fiea::Engine::Content</text>
<text text-anchor="middle" x="351.25" y="-181.5" font-family="Helvetica,sans-Serif" font-size="10.00">::Datum::HasMaxSize</text>
</a>
</g>
</g>
<!-- Node5&#45;&gt;Node7 -->
<g id="edge6_Node000005_Node000007" class="edge">
<title>Node5&#45;&gt;Node7</title>
<g id="a_edge6_Node000005_Node000007"><a xlink:title=" ">
<path fill="none" stroke="#63b8ff" d="M258.8,-191C266.63,-191 274.75,-191 282.79,-191"/>
<polygon fill="#63b8ff" stroke="#63b8ff" points="282.53,-194.5 292.53,-191 282.53,-187.5 282.53,-194.5"/>
</a>
</g>
</g>
<!-- Node8 -->
<g id="Node000008" class="node">
<title>Node8</title>
<g id="a_Node000008"><a xlink:href="class_fiea_1_1_engine_1_1_content_1_1_datum.html#acae68c3bc8b20345e4c3790fa37bd8d5" target="_top" xlink:title=" ">
<polygon fill="white" stroke="#666666" points="406.88,-157 295.62,-157 295.62,-125 406.88,-125 406.88,-157"/>
<text text-anchor="start" x="303.62" y="-143.5" font-family="Helvetica,sans-Serif" font-size="10.00">Fiea::Engine::Content</text>
<text text-anchor="middle" x="351.25" y="-131.5" font-family="Helvetica,sans-Serif" font-size="10.00">::Datum::Size</text>
</a>
</g>
</g>
<!-- Node5&#45;&gt;Node8 -->
<g id="edge7_Node000005_Node000008" class="edge">
<title>Node5&#45;&gt;Node8</title>
<g id="a_edge7_Node000005_Node000008"><a xlink:title=" ">
<path fill="none" stroke="#63b8ff" d="M251.8,-174.63C264.44,-170.31 278.22,-165.6 291.36,-161.11"/>
<polygon fill="#63b8ff" stroke="#63b8ff" points="292.45,-164.44 300.78,-157.9 290.19,-157.82 292.45,-164.44"/>
</a>
</g>
</g>
<!-- Node10 -->
<g id="Node000010" class="node">
<title>Node10</title>
<g id="a_Node000010"><a xlink:href="class_fiea_1_1_engine_1_1_content_1_1_scope.html#a853041a85e32e8b7de723fa3dd9a1d82" target="_top" xlink:title="Tells if this scope is present somewhere higher up in the scopes tree as a parent.">
<polygon fill="white" stroke="#666666" points="408,-107 294.5,-107 294.5,-75 408,-75 408,-107"/>
<text text-anchor="start" x="302.5" y="-93.5" font-family="Helvetica,sans-Serif" font-size="10.00">Fiea::Engine::Content</text>
<text text-anchor="middle" x="351.25" y="-81.5" font-family="Helvetica,sans-Serif" font-size="10.00">::Scope::IsAncestorOf</text>
</a>
</g>
</g>
<!-- Node9&#45;&gt;Node10 -->
<g id="edge9_Node000009_Node000010" class="edge">
<title>Node9&#45;&gt;Node10</title>
<g id="a_edge9_Node000009_Node000010"><a xlink:title=" ">
<path fill="none" stroke="#63b8ff" d="M258.8,-91C266.63,-91 274.75,-91 282.79,-91"/>
<polygon fill="#63b8ff" stroke="#63b8ff" points="282.53,-94.5 292.53,-91 282.53,-87.5 282.53,-94.5"/>
</a>
</g>
</g>
<!-- Node11 -->
<g id="Node000011" class="node">
<title>Node11</title>
<g id="a_Node000011"><a xlink:href="class_fiea_1_1_engine_1_1_content_1_1_scope.html#a769b8bf0382518e075fb90f62940624c" target="_top" xlink:title="Orpahans this scope from its parent.">
<polygon fill="white" stroke="#666666" points="406.88,-57 295.62,-57 295.62,-25 406.88,-25 406.88,-57"/>
<text text-anchor="start" x="303.62" y="-43.5" font-family="Helvetica,sans-Serif" font-size="10.00">Fiea::Engine::Content</text>
<text text-anchor="middle" x="351.25" y="-31.5" font-family="Helvetica,sans-Serif" font-size="10.00">::Scope::Orphan</text>
</a>
</g>
</g>
<!-- Node9&#45;&gt;Node11 -->
<g id="edge11_Node000009_Node000011" class="edge">
<title>Node9&#45;&gt;Node11</title>
<g id="a_edge11_Node000009_Node000011"><a xlink:title=" ">
<path fill="none" stroke="#63b8ff" d="M251.8,-74.63C264.44,-70.31 278.22,-65.6 291.36,-61.11"/>
<polygon fill="#63b8ff" stroke="#63b8ff" points="292.45,-64.44 300.78,-57.9 290.19,-57.82 292.45,-64.44"/>
</a>
</g>
</g>
<!-- Node10&#45;&gt;Node3 -->
<g id="edge10_Node000010_Node000003" class="edge">
<title>Node10&#45;&gt;Node3</title>
<g id="a_edge10_Node000010_Node000003"><a xlink:title=" ">
<path fill="none" stroke="#63b8ff" d="M392.14,-107.48C397.57,-110.13 403,-113 408,-116 437.49,-133.71 468.2,-158.21 489.35,-176.18"/>
<polygon fill="#63b8ff" stroke="#63b8ff" points="487.06,-178.83 496.92,-182.7 491.63,-173.53 487.06,-178.83"/>
</a>
</g>
</g>
<!-- Node12 -->
<g id="Node000012" class="node">
<title>Node12</title>
<g id="a_Node000012"><a xlink:href="class_fiea_1_1_engine_1_1_content_1_1_scope.html#abe37db932a06fabb2cb02ec65b6f55d8" target="_top" xlink:title="Search for a nested Scope which is the SAME(not just equal) as the provided scope and return the Datu...">
<polygon fill="white" stroke="#666666" points="590.5,-82 444,-82 444,-50 590.5,-50 590.5,-82"/>
<text text-anchor="start" x="452" y="-68.5" font-family="Helvetica,sans-Serif" font-size="10.00">Fiea::Engine::Content</text>
<text text-anchor="middle" x="517.25" y="-56.5" font-family="Helvetica,sans-Serif" font-size="10.00">::Scope::FindContainedScope</text>
</a>
</g>
</g>
<!-- Node11&#45;&gt;Node12 -->
<g id="edge12_Node000011_Node000012" class="edge">
<title>Node11&#45;&gt;Node12</title>
<g id="a_edge12_Node000011_Node000012"><a xlink:title=" ">
<path fill="none" stroke="#63b8ff" d="M407.32,-49.39C415.4,-50.63 423.88,-51.92 432.39,-53.22"/>
<polygon fill="#63b8ff" stroke="#63b8ff" points="431.65,-56.64 442.06,-54.69 432.71,-49.72 431.65,-56.64"/>
</a>
</g>
</g>
<!-- Node13 -->
<g id="Node000013" class="node">
<title>Node13</title>
<g id="a_Node000013"><a xlink:href="class_fiea_1_1_engine_1_1_content_1_1_datum.html#a23395b19af06abda786d991645b41e6d" target="_top" xlink:title=" ">
<polygon fill="white" stroke="#666666" points="572.88,-32 461.62,-32 461.62,0 572.88,0 572.88,-32"/>
<text text-anchor="start" x="469.62" y="-18.5" font-family="Helvetica,sans-Serif" font-size="10.00">Fiea::Engine::Content</text>
<text text-anchor="middle" x="517.25" y="-6.5" font-family="Helvetica,sans-Serif" font-size="10.00">::Datum::RemoveAt</text>
</a>
</g>
</g>
<!-- Node11&#45;&gt;Node13 -->
<g id="edge13_Node000011_Node000013" class="edge">
<title>Node11&#45;&gt;Node13</title>
<g id="a_edge13_Node000011_Node000013"><a xlink:title=" ">
<path fill="none" stroke="#63b8ff" d="M407.32,-32.61C421.05,-30.51 435.91,-28.25 450.11,-26.08"/>
<polygon fill="#63b8ff" stroke="#63b8ff" points="450.47,-29.57 459.83,-24.6 449.42,-22.65 450.47,-29.57"/>
</a>
</g>
</g>
</g>
</svg>
