<?xml version="1.0" encoding="UTF-8" standalone="no"?>
<!DOCTYPE svg PUBLIC "-//W3C//DTD SVG 1.1//EN"
 "http://www.w3.org/Graphics/SVG/1.1/DTD/svg11.dtd">
<!-- Generated by graphviz version 12.2.1 (20241206.2353)
 -->
<!-- Title: Fiea::Engine::Content::Scope Pages: 1 -->
<svg width="111pt" height="512pt"
 viewBox="0.00 0.00 111.25 512.00" xmlns="http://www.w3.org/2000/svg" xmlns:xlink="http://www.w3.org/1999/xlink">
<g id="graph0" class="graph" transform="scale(1 1) rotate(0) translate(4 508)">
<title>Fiea::Engine::Content::Scope</title>
<!-- Node1 -->
<g id="Node000001" class="node">
<title>Node1</title>
<g id="a_Node000001"><a xlink:title=" ">
<polygon fill="#999999" stroke="none" points="103.25,-240 0,-240 0,0 103.25,0 103.25,-240"/>
<text text-anchor="start" x="4" y="-226.5" font-family="Helvetica,sans-Serif" font-size="10.00">Fiea::Engine::Content</text>
<text text-anchor="start" x="34.75" y="-214.5" font-family="Helvetica,sans-Serif" font-size="10.00">::Scope</text>
<text text-anchor="start" x="50.12" y="-198.5" font-family="Helvetica,sans-Serif" font-size="10.00"> </text>
<text text-anchor="start" x="9.38" y="-182.5" font-family="Helvetica,sans-Serif" font-size="10.00">+</text>
<text text-anchor="start" x="24.75" y="-182.5" font-family="Helvetica,sans-Serif" font-size="10.00">ToString()</text>
<text text-anchor="start" x="9.38" y="-166.5" font-family="Helvetica,sans-Serif" font-size="10.00">+</text>
<text text-anchor="start" x="24.75" y="-166.5" font-family="Helvetica,sans-Serif" font-size="10.00">Equals()</text>
<text text-anchor="start" x="9.38" y="-150.5" font-family="Helvetica,sans-Serif" font-size="10.00">+</text>
<text text-anchor="start" x="24.75" y="-150.5" font-family="Helvetica,sans-Serif" font-size="10.00">Scope()</text>
<text text-anchor="start" x="9.38" y="-134.5" font-family="Helvetica,sans-Serif" font-size="10.00">+</text>
<text text-anchor="start" x="24.75" y="-134.5" font-family="Helvetica,sans-Serif" font-size="10.00">Scope()</text>
<text text-anchor="start" x="9.38" y="-118.5" font-family="Helvetica,sans-Serif" font-size="10.00">+</text>
<text text-anchor="start" x="24.75" y="-118.5" font-family="Helvetica,sans-Serif" font-size="10.00">Scope()</text>
<text text-anchor="start" x="9.38" y="-102.5" font-family="Helvetica,sans-Serif" font-size="10.00">+</text>
<text text-anchor="start" x="24.75" y="-102.5" font-family="Helvetica,sans-Serif" font-size="10.00">operator=()</text>
<text text-anchor="start" x="9.38" y="-86.5" font-family="Helvetica,sans-Serif" font-size="10.00">+</text>
<text text-anchor="start" x="24.75" y="-86.5" font-family="Helvetica,sans-Serif" font-size="10.00">operator=()</text>
<text text-anchor="start" x="9.38" y="-70.5" font-family="Helvetica,sans-Serif" font-size="10.00">+</text>
<text text-anchor="start" x="24.75" y="-70.5" font-family="Helvetica,sans-Serif" font-size="10.00">~Scope()</text>
<text text-anchor="start" x="9.38" y="-54.5" font-family="Helvetica,sans-Serif" font-size="10.00">+</text>
<text text-anchor="start" x="24.75" y="-54.5" font-family="Helvetica,sans-Serif" font-size="10.00">Clone()</text>
<text text-anchor="start" x="9.38" y="-38.5" font-family="Helvetica,sans-Serif" font-size="10.00">+</text>
<text text-anchor="start" x="24.75" y="-38.5" font-family="Helvetica,sans-Serif" font-size="10.00">Scope()</text>
<text text-anchor="start" x="24.75" y="-22.5" font-family="Helvetica,sans-Serif" font-size="10.00">and 22 more...</text>
<text text-anchor="start" x="9.75" y="-6.5" font-family="Helvetica,sans-Serif" font-size="10.00">#</text>
<text text-anchor="start" x="24.75" y="-6.5" font-family="Helvetica,sans-Serif" font-size="10.00">GetAttributes()</text>
<polygon fill="#666666" stroke="#666666" points="0,-210 0,-210 103.25,-210 103.25,-210 0,-210"/>
<polygon fill="#666666" stroke="#666666" points="0,-194 0,-194 103.25,-194 103.25,-194 0,-194"/>
<polygon fill="none" stroke="#666666" points="0,0 0,-240 103.25,-240 103.25,0 0,0"/>
</a>
</g>
</g>
<!-- Node2 -->
<g id="Node000002" class="node">
<title>Node2</title>
<g id="a_Node000002"><a xlink:href="class_fiea_1_1_engine_1_1_r_t_t_i.html" target="_top" xlink:title=" ">
<polygon fill="white" stroke="none" points="97,-504 6.25,-504 6.25,-276 97,-276 97,-504"/>
<text text-anchor="start" x="10.38" y="-490.5" font-family="Helvetica,sans-Serif" font-size="10.00">Fiea::Engine::RTTI</text>
<text text-anchor="start" x="50.12" y="-474.5" font-family="Helvetica,sans-Serif" font-size="10.00"> </text>
<text text-anchor="start" x="10.25" y="-458.5" font-family="Helvetica,sans-Serif" font-size="10.00">+</text>
<text text-anchor="start" x="20.25" y="-458.5" font-family="Helvetica,sans-Serif" font-size="10.00">RTTI()</text>
<text text-anchor="start" x="10.25" y="-442.5" font-family="Helvetica,sans-Serif" font-size="10.00">+</text>
<text text-anchor="start" x="20.25" y="-442.5" font-family="Helvetica,sans-Serif" font-size="10.00">RTTI()</text>
<text text-anchor="start" x="10.25" y="-426.5" font-family="Helvetica,sans-Serif" font-size="10.00">+</text>
<text text-anchor="start" x="20.25" y="-426.5" font-family="Helvetica,sans-Serif" font-size="10.00">operator=()</text>
<text text-anchor="start" x="10.25" y="-410.5" font-family="Helvetica,sans-Serif" font-size="10.00">+</text>
<text text-anchor="start" x="20.25" y="-410.5" font-family="Helvetica,sans-Serif" font-size="10.00">RTTI()</text>
<text text-anchor="start" x="10.25" y="-394.5" font-family="Helvetica,sans-Serif" font-size="10.00">+</text>
<text text-anchor="start" x="20.25" y="-394.5" font-family="Helvetica,sans-Serif" font-size="10.00">operator=()</text>
<text text-anchor="start" x="10.25" y="-378.5" font-family="Helvetica,sans-Serif" font-size="10.00">+</text>
<text text-anchor="start" x="20.25" y="-378.5" font-family="Helvetica,sans-Serif" font-size="10.00">~RTTI()</text>
<text text-anchor="start" x="10.25" y="-362.5" font-family="Helvetica,sans-Serif" font-size="10.00">+</text>
<text text-anchor="start" x="20.25" y="-362.5" font-family="Helvetica,sans-Serif" font-size="10.00">TypeIdInstance()</text>
<text text-anchor="start" x="10.25" y="-346.5" font-family="Helvetica,sans-Serif" font-size="10.00">+</text>
<text text-anchor="start" x="20.25" y="-346.5" font-family="Helvetica,sans-Serif" font-size="10.00">Is()</text>
<text text-anchor="start" x="10.25" y="-330.5" font-family="Helvetica,sans-Serif" font-size="10.00">+</text>
<text text-anchor="start" x="20.25" y="-330.5" font-family="Helvetica,sans-Serif" font-size="10.00">As()</text>
<text text-anchor="start" x="10.25" y="-314.5" font-family="Helvetica,sans-Serif" font-size="10.00">+</text>
<text text-anchor="start" x="20.25" y="-314.5" font-family="Helvetica,sans-Serif" font-size="10.00">As()</text>
<text text-anchor="start" x="10.25" y="-298.5" font-family="Helvetica,sans-Serif" font-size="10.00">+</text>
<text text-anchor="start" x="20.25" y="-298.5" font-family="Helvetica,sans-Serif" font-size="10.00">ToString()</text>
<text text-anchor="start" x="10.25" y="-282.5" font-family="Helvetica,sans-Serif" font-size="10.00">+</text>
<text text-anchor="start" x="20.25" y="-282.5" font-family="Helvetica,sans-Serif" font-size="10.00">Equals()</text>
<polygon fill="#666666" stroke="#666666" points="6.25,-486 6.25,-486 97,-486 97,-486 6.25,-486"/>
<polygon fill="#666666" stroke="#666666" points="6.25,-470 6.25,-470 97,-470 97,-470 6.25,-470"/>
<polygon fill="none" stroke="#666666" points="6.25,-276 6.25,-504 97,-504 97,-276 6.25,-276"/>
</a>
</g>
</g>
<!-- Node2&#45;&gt;Node1 -->
<g id="edge1_Node000001_Node000002" class="edge">
<title>Node2&#45;&gt;Node1</title>
<g id="a_edge1_Node000001_Node000002"><a xlink:title=" ">
<path fill="none" stroke="#63b8ff" d="M51.62,-264.8C51.62,-256.47 51.62,-248.08 51.62,-239.77"/>
<polygon fill="none" stroke="#63b8ff" points="48.13,-264.61 51.63,-274.61 55.13,-264.61 48.13,-264.61"/>
</a>
</g>
</g>
</g>
</svg>
