<?xml version="1.0" encoding="UTF-8" standalone="no"?>
<!DOCTYPE svg PUBLIC "-//W3C//DTD SVG 1.1//EN"
 "http://www.w3.org/Graphics/SVG/1.1/DTD/svg11.dtd">
<!-- Generated by graphviz version 12.2.1 (20241206.2353)
 -->
<!-- Title: Fiea::Engine::Content::Attributed::ClassAttributes Pages: 1 -->
<svg width="508pt" height="118pt"
 viewBox="0.00 0.00 508.25 118.00" xmlns="http://www.w3.org/2000/svg" xmlns:xlink="http://www.w3.org/1999/xlink">
<g id="graph0" class="graph" transform="scale(1 1) rotate(0) translate(4 114)">
<title>Fiea::Engine::Content::Attributed::ClassAttributes</title>
<!-- Node1 -->
<g id="Node000001" class="node">
<title>Node1</title>
<g id="a_Node000001"><a xlink:title="Returns the attributes that belong to the class by definition.">
<polygon fill="#999999" stroke="#666666" points="137.5,-85 0,-85 0,-53 137.5,-53 137.5,-85"/>
<text text-anchor="start" x="8" y="-71.5" font-family="Helvetica,sans-Serif" font-size="10.00">Fiea::Engine::Content</text>
<text text-anchor="middle" x="68.75" y="-59.5" font-family="Helvetica,sans-Serif" font-size="10.00">::Attributed::ClassAttributes</text>
</a>
</g>
</g>
<!-- Node2 -->
<g id="Node000002" class="node">
<title>Node2</title>
<g id="a_Node000002"><a xlink:href="class_fiea_1_1_engine_1_1_content_1_1_scope.html#a425074997d68415e416d74ac9d47e4b3" target="_top" xlink:title=" ">
<polygon fill="white" stroke="#666666" points="300.5,-110 187,-110 187,-78 300.5,-78 300.5,-110"/>
<text text-anchor="start" x="195" y="-96.5" font-family="Helvetica,sans-Serif" font-size="10.00">Fiea::Engine::Content</text>
<text text-anchor="middle" x="243.75" y="-84.5" font-family="Helvetica,sans-Serif" font-size="10.00">::Scope::GetAttributes</text>
</a>
</g>
</g>
<!-- Node1&#45;&gt;Node2 -->
<g id="edge1_Node000001_Node000002" class="edge">
<title>Node1&#45;&gt;Node2</title>
<g id="a_edge1_Node000001_Node000002"><a xlink:title=" ">
<path fill="none" stroke="#63b8ff" d="M137.63,-78.81C150.02,-80.6 162.95,-82.47 175.33,-84.26"/>
<polygon fill="#63b8ff" stroke="#63b8ff" points="174.62,-87.69 185.02,-85.66 175.62,-80.76 174.62,-87.69"/>
</a>
</g>
</g>
<!-- Node3 -->
<g id="Node000003" class="node">
<title>Node3</title>
<g id="a_Node000003"><a xlink:href="class_fiea_1_1_engine_1_1_content_1_1_attributed.html#a175ef1779adacec6434ea9bda35186bc" target="_top" xlink:title="Is the attribute part of the class defintion.">
<polygon fill="white" stroke="#666666" points="314,-60 173.5,-60 173.5,-28 314,-28 314,-60"/>
<text text-anchor="start" x="181.5" y="-46.5" font-family="Helvetica,sans-Serif" font-size="10.00">Fiea::Engine::Content</text>
<text text-anchor="middle" x="243.75" y="-34.5" font-family="Helvetica,sans-Serif" font-size="10.00">::Attributed::IsClassAttribute</text>
</a>
</g>
</g>
<!-- Node1&#45;&gt;Node3 -->
<g id="edge2_Node000001_Node000003" class="edge">
<title>Node1&#45;&gt;Node3</title>
<g id="a_edge2_Node000001_Node000003"><a xlink:title=" ">
<path fill="none" stroke="#63b8ff" d="M137.63,-59.19C145.54,-58.05 153.67,-56.87 161.74,-55.71"/>
<polygon fill="#63b8ff" stroke="#63b8ff" points="162.18,-59.18 171.58,-54.28 161.18,-52.25 162.18,-59.18"/>
</a>
</g>
</g>
<!-- Node4 -->
<g id="Node000004" class="node">
<title>Node4</title>
<g id="a_Node000004"><a xlink:href="struct_fiea_1_1_engine_1_1_content_1_1_i_type_provider.html#acf000f8d213c81f746d8e6f19c7b12f4" target="_top" xlink:title=" ">
<polygon fill="white" stroke="#666666" points="500.25,-94 350,-94 350,-50 500.25,-50 500.25,-94"/>
<text text-anchor="start" x="358" y="-80.5" font-family="Helvetica,sans-Serif" font-size="10.00">Fiea::Engine::Content</text>
<text text-anchor="start" x="358" y="-68.5" font-family="Helvetica,sans-Serif" font-size="10.00">::ITypeProvider::RetrieveClass</text>
<text text-anchor="middle" x="425.12" y="-56.5" font-family="Helvetica,sans-Serif" font-size="10.00">Definition</text>
</a>
</g>
</g>
<!-- Node3&#45;&gt;Node4 -->
<g id="edge3_Node000003_Node000004" class="edge">
<title>Node3&#45;&gt;Node4</title>
<g id="a_edge3_Node000003_Node000004"><a xlink:title=" ">
<path fill="none" stroke="#63b8ff" d="M314.36,-54.87C322.19,-56.09 330.24,-57.34 338.24,-58.59"/>
<polygon fill="#63b8ff" stroke="#63b8ff" points="337.59,-62.03 348.01,-60.12 338.67,-55.12 337.59,-62.03"/>
</a>
</g>
</g>
<!-- Node5 -->
<g id="Node000005" class="node">
<title>Node5</title>
<g id="a_Node000005"><a xlink:href="class_fiea_1_1_engine_1_1_r_t_t_i.html#a876bebbe7b3149483c43a87f55f4ea99" target="_top" xlink:title=" ">
<polygon fill="white" stroke="#666666" points="474.38,-32 375.88,-32 375.88,0 474.38,0 474.38,-32"/>
<text text-anchor="start" x="383.88" y="-18.5" font-family="Helvetica,sans-Serif" font-size="10.00">Fiea::Engine::RTTI</text>
<text text-anchor="middle" x="425.12" y="-6.5" font-family="Helvetica,sans-Serif" font-size="10.00">::TypeIdInstance</text>
</a>
</g>
</g>
<!-- Node3&#45;&gt;Node5 -->
<g id="edge4_Node000003_Node000005" class="edge">
<title>Node3&#45;&gt;Node5</title>
<g id="a_edge4_Node000003_Node000005"><a xlink:title=" ">
<path fill="none" stroke="#63b8ff" d="M314.36,-33.13C330.76,-30.57 348.11,-27.87 364.05,-25.38"/>
<polygon fill="#63b8ff" stroke="#63b8ff" points="364.54,-28.84 373.88,-23.84 363.46,-21.93 364.54,-28.84"/>
</a>
</g>
</g>
</g>
</svg>
