<?xml version="1.0" encoding="UTF-8" standalone="no"?>
<!DOCTYPE svg PUBLIC "-//W3C//DTD SVG 1.1//EN"
 "http://www.w3.org/Graphics/SVG/1.1/DTD/svg11.dtd">
<!-- Generated by graphviz version 12.2.1 (20241206.2353)
 -->
<!-- Title: Fiea::Engine::Content::Actions::DelayedAction::OnReset Pages: 1 -->
<svg width="608pt" height="228pt"
 viewBox="0.00 0.00 607.50 228.00" xmlns="http://www.w3.org/2000/svg" xmlns:xlink="http://www.w3.org/1999/xlink">
<g id="graph0" class="graph" transform="scale(1 1) rotate(0) translate(4 224)">
<title>Fiea::Engine::Content::Actions::DelayedAction::OnReset</title>
<!-- Node1 -->
<g id="Node000001" class="node">
<title>Node1</title>
<g id="a_Node000001"><a xlink:title="Reseting the ActionList. Any custom logic that needs to be executed before it is reinitalized must go...">
<polygon fill="#999999" stroke="#666666" points="124.75,-138 0,-138 0,-94 124.75,-94 124.75,-138"/>
<text text-anchor="start" x="8" y="-124.5" font-family="Helvetica,sans-Serif" font-size="10.00">Fiea::Engine::Content</text>
<text text-anchor="start" x="8" y="-112.5" font-family="Helvetica,sans-Serif" font-size="10.00">::Actions::DelayedAction</text>
<text text-anchor="middle" x="62.38" y="-100.5" font-family="Helvetica,sans-Serif" font-size="10.00">::OnReset</text>
</a>
</g>
</g>
<!-- Node2 -->
<g id="Node000002" class="node">
<title>Node2</title>
<g id="a_Node000002"><a xlink:href="class_fiea_1_1_engine_1_1_content_1_1_actions_1_1_action_list.html#a174321b3790604e933b2210235d2c62a" target="_top" xlink:title="Resets the actions owned by the list.">
<polygon fill="white" stroke="#666666" points="272.75,-138 160.75,-138 160.75,-94 272.75,-94 272.75,-138"/>
<text text-anchor="start" x="168.75" y="-124.5" font-family="Helvetica,sans-Serif" font-size="10.00">Fiea::Engine::Content</text>
<text text-anchor="start" x="168.75" y="-112.5" font-family="Helvetica,sans-Serif" font-size="10.00">::Actions::ActionList</text>
<text text-anchor="middle" x="216.75" y="-100.5" font-family="Helvetica,sans-Serif" font-size="10.00">::ResetOwnedActions</text>
</a>
</g>
</g>
<!-- Node1&#45;&gt;Node2 -->
<g id="edge1_Node000001_Node000002" class="edge">
<title>Node1&#45;&gt;Node2</title>
<g id="a_edge1_Node000001_Node000002"><a xlink:title=" ">
<path fill="none" stroke="#63b8ff" d="M124.91,-116C132.88,-116 141.08,-116 149.13,-116"/>
<polygon fill="#63b8ff" stroke="#63b8ff" points="148.86,-119.5 158.86,-116 148.86,-112.5 148.86,-119.5"/>
</a>
</g>
</g>
<!-- Node3 -->
<g id="Node000003" class="node">
<title>Node3</title>
<g id="a_Node000003"><a xlink:href="class_fiea_1_1_engine_1_1_r_t_t_i.html#a15bd5993c8ad04da47af440298ebbb30" target="_top" xlink:title=" ">
<polygon fill="white" stroke="#666666" points="427.5,-220 311,-220 311,-200 427.5,-200 427.5,-220"/>
<text text-anchor="middle" x="369.25" y="-206.5" font-family="Helvetica,sans-Serif" font-size="10.00">Fiea::Engine::RTTI::As</text>
</a>
</g>
</g>
<!-- Node2&#45;&gt;Node3 -->
<g id="edge2_Node000002_Node000003" class="edge">
<title>Node2&#45;&gt;Node3</title>
<g id="a_edge2_Node000002_Node000003"><a xlink:title=" ">
<path fill="none" stroke="#63b8ff" d="M239.9,-138.4C257.31,-154.92 282.87,-176.89 308.75,-191 311.61,-192.56 314.61,-194.01 317.69,-195.36"/>
<polygon fill="#63b8ff" stroke="#63b8ff" points="316.34,-198.59 326.92,-199.02 318.91,-192.08 316.34,-198.59"/>
</a>
</g>
</g>
<!-- Node5 -->
<g id="Node000005" class="node">
<title>Node5</title>
<g id="a_Node000005"><a xlink:href="class_fiea_1_1_engine_1_1_content_1_1_scope.html#ad924c01785b239991fc0e56a63295612" target="_top" xlink:title="Return the Datum at the requested key, or nullptr if not found.">
<polygon fill="white" stroke="#666666" points="424.88,-182 313.62,-182 313.62,-150 424.88,-150 424.88,-182"/>
<text text-anchor="start" x="321.62" y="-168.5" font-family="Helvetica,sans-Serif" font-size="10.00">Fiea::Engine::Content</text>
<text text-anchor="middle" x="369.25" y="-156.5" font-family="Helvetica,sans-Serif" font-size="10.00">::Scope::Find</text>
</a>
</g>
</g>
<!-- Node2&#45;&gt;Node5 -->
<g id="edge4_Node000002_Node000005" class="edge">
<title>Node2&#45;&gt;Node5</title>
<g id="a_edge4_Node000002_Node000005"><a xlink:title=" ">
<path fill="none" stroke="#63b8ff" d="M272.94,-134.33C284.5,-138.18 296.74,-142.24 308.46,-146.14"/>
<polygon fill="#63b8ff" stroke="#63b8ff" points="307.01,-149.34 317.61,-149.17 309.22,-142.7 307.01,-149.34"/>
</a>
</g>
</g>
<!-- Node6 -->
<g id="Node000006" class="node">
<title>Node6</title>
<g id="a_Node000006"><a xlink:href="class_fiea_1_1_engine_1_1_content_1_1_datum.html#a3763d03e7b219e3ba257b09a7719795c" target="_top" xlink:title=" ">
<polygon fill="white" stroke="#666666" points="424.88,-132 313.62,-132 313.62,-100 424.88,-100 424.88,-132"/>
<text text-anchor="start" x="321.62" y="-118.5" font-family="Helvetica,sans-Serif" font-size="10.00">Fiea::Engine::Content</text>
<text text-anchor="middle" x="369.25" y="-106.5" font-family="Helvetica,sans-Serif" font-size="10.00">::Datum::Get</text>
</a>
</g>
</g>
<!-- Node2&#45;&gt;Node6 -->
<g id="edge5_Node000002_Node000006" class="edge">
<title>Node2&#45;&gt;Node6</title>
<g id="a_edge5_Node000002_Node000006"><a xlink:title=" ">
<path fill="none" stroke="#63b8ff" d="M272.94,-116C282.4,-116 292.33,-116 302.05,-116"/>
<polygon fill="#63b8ff" stroke="#63b8ff" points="301.81,-119.5 311.81,-116 301.81,-112.5 301.81,-119.5"/>
</a>
</g>
</g>
<!-- Node7 -->
<g id="Node000007" class="node">
<title>Node7</title>
<g id="a_Node000007"><a xlink:href="class_fiea_1_1_engine_1_1_content_1_1_actions_1_1_action.html#a4bd3f927a2d39da853a3c84a6d454343" target="_top" xlink:title="Providing a way to reset the action state. This is only doing a soft reset and only meant for going f...">
<polygon fill="white" stroke="#666666" points="429.75,-82 308.75,-82 308.75,-50 429.75,-50 429.75,-82"/>
<text text-anchor="start" x="316.75" y="-68.5" font-family="Helvetica,sans-Serif" font-size="10.00">Fiea::Engine::Content</text>
<text text-anchor="middle" x="369.25" y="-56.5" font-family="Helvetica,sans-Serif" font-size="10.00">::Actions::Action::Reset</text>
</a>
</g>
</g>
<!-- Node2&#45;&gt;Node7 -->
<g id="edge6_Node000002_Node000007" class="edge">
<title>Node2&#45;&gt;Node7</title>
<g id="a_edge6_Node000002_Node000007"><a xlink:title=" ">
<path fill="none" stroke="#63b8ff" d="M272.94,-97.67C284.5,-93.82 296.74,-89.76 308.46,-85.86"/>
<polygon fill="#63b8ff" stroke="#63b8ff" points="309.22,-89.3 317.61,-82.83 307.01,-82.66 309.22,-89.3"/>
</a>
</g>
</g>
<!-- Node9 -->
<g id="Node000009" class="node">
<title>Node9</title>
<g id="a_Node000009"><a xlink:href="class_fiea_1_1_engine_1_1_content_1_1_datum.html#acae68c3bc8b20345e4c3790fa37bd8d5" target="_top" xlink:title=" ">
<polygon fill="white" stroke="#666666" points="424.88,-32 313.62,-32 313.62,0 424.88,0 424.88,-32"/>
<text text-anchor="start" x="321.62" y="-18.5" font-family="Helvetica,sans-Serif" font-size="10.00">Fiea::Engine::Content</text>
<text text-anchor="middle" x="369.25" y="-6.5" font-family="Helvetica,sans-Serif" font-size="10.00">::Datum::Size</text>
</a>
</g>
</g>
<!-- Node2&#45;&gt;Node9 -->
<g id="edge8_Node000002_Node000009" class="edge">
<title>Node2&#45;&gt;Node9</title>
<g id="a_edge8_Node000002_Node000009"><a xlink:title=" ">
<path fill="none" stroke="#63b8ff" d="M241.01,-93.57C258.59,-77.47 283.87,-56.03 308.75,-41 310.74,-39.8 312.79,-38.63 314.89,-37.5"/>
<polygon fill="#63b8ff" stroke="#63b8ff" points="316.22,-40.74 323.58,-33.12 313.08,-34.49 316.22,-40.74"/>
</a>
</g>
</g>
<!-- Node4 -->
<g id="Node000004" class="node">
<title>Node4</title>
<g id="a_Node000004"><a xlink:href="class_fiea_1_1_engine_1_1_r_t_t_i.html#ac0a7d875e4513b2aca7594abcd4418ef" target="_top" xlink:title=" ">
<polygon fill="white" stroke="#666666" points="589,-220 476.25,-220 476.25,-200 589,-200 589,-220"/>
<text text-anchor="middle" x="532.62" y="-206.5" font-family="Helvetica,sans-Serif" font-size="10.00">Fiea::Engine::RTTI::Is</text>
</a>
</g>
</g>
<!-- Node3&#45;&gt;Node4 -->
<g id="edge3_Node000003_Node000004" class="edge">
<title>Node3&#45;&gt;Node4</title>
<g id="a_edge3_Node000003_Node000004"><a xlink:title=" ">
<path fill="none" stroke="#63b8ff" d="M427.6,-210C439.6,-210 452.35,-210 464.66,-210"/>
<polygon fill="#63b8ff" stroke="#63b8ff" points="464.3,-213.5 474.3,-210 464.3,-206.5 464.3,-213.5"/>
</a>
</g>
</g>
<!-- Node8 -->
<g id="Node000008" class="node">
<title>Node8</title>
<g id="a_Node000008"><a xlink:href="class_fiea_1_1_engine_1_1_content_1_1_actions_1_1_action.html#a722baa79e2bc000694d1bb7a4fec50eb" target="_top" xlink:title=" ">
<polygon fill="white" stroke="#666666" points="599.5,-82 465.75,-82 465.75,-50 599.5,-50 599.5,-82"/>
<text text-anchor="start" x="473.75" y="-68.5" font-family="Helvetica,sans-Serif" font-size="10.00">Fiea::Engine::Content</text>
<text text-anchor="middle" x="532.62" y="-56.5" font-family="Helvetica,sans-Serif" font-size="10.00">::Actions::Action::OnReset</text>
</a>
</g>
</g>
<!-- Node7&#45;&gt;Node8 -->
<g id="edge7_Node000007_Node000008" class="edge">
<title>Node7&#45;&gt;Node8</title>
<g id="a_edge7_Node000007_Node000008"><a xlink:title=" ">
<path fill="none" stroke="#63b8ff" d="M429.88,-66C437.75,-66 445.91,-66 454.03,-66"/>
<polygon fill="#63b8ff" stroke="#63b8ff" points="453.93,-69.5 463.93,-66 453.93,-62.5 453.93,-69.5"/>
</a>
</g>
</g>
</g>
</svg>
