<?xml version="1.0" encoding="UTF-8" standalone="no"?>
<!DOCTYPE svg PUBLIC "-//W3C//DTD SVG 1.1//EN"
 "http://www.w3.org/Graphics/SVG/1.1/DTD/svg11.dtd">
<!-- Generated by graphviz version 12.2.1 (20241206.2353)
 -->
<!-- Title: Fiea::Engine::Content::Actions::ActionList::ResetOwnedActions Pages: 1 -->
<svg width="447pt" height="228pt"
 viewBox="0.00 0.00 446.75 228.00" xmlns="http://www.w3.org/2000/svg" xmlns:xlink="http://www.w3.org/1999/xlink">
<g id="graph0" class="graph" transform="scale(1 1) rotate(0) translate(4 224)">
<title>Fiea::Engine::Content::Actions::ActionList::ResetOwnedActions</title>
<!-- Node1 -->
<g id="Node000001" class="node">
<title>Node1</title>
<g id="a_Node000001"><a xlink:title="Resets the actions owned by the list.">
<polygon fill="#999999" stroke="#666666" points="112,-138 0,-138 0,-94 112,-94 112,-138"/>
<text text-anchor="start" x="8" y="-124.5" font-family="Helvetica,sans-Serif" font-size="10.00">Fiea::Engine::Content</text>
<text text-anchor="start" x="8" y="-112.5" font-family="Helvetica,sans-Serif" font-size="10.00">::Actions::ActionList</text>
<text text-anchor="middle" x="56" y="-100.5" font-family="Helvetica,sans-Serif" font-size="10.00">::ResetOwnedActions</text>
</a>
</g>
</g>
<!-- Node2 -->
<g id="Node000002" class="node">
<title>Node2</title>
<g id="a_Node000002"><a xlink:href="class_fiea_1_1_engine_1_1_r_t_t_i.html#a15bd5993c8ad04da47af440298ebbb30" target="_top" xlink:title=" ">
<polygon fill="white" stroke="#666666" points="266.75,-220 150.25,-220 150.25,-200 266.75,-200 266.75,-220"/>
<text text-anchor="middle" x="208.5" y="-206.5" font-family="Helvetica,sans-Serif" font-size="10.00">Fiea::Engine::RTTI::As</text>
</a>
</g>
</g>
<!-- Node1&#45;&gt;Node2 -->
<g id="edge1_Node000001_Node000002" class="edge">
<title>Node1&#45;&gt;Node2</title>
<g id="a_edge1_Node000001_Node000002"><a xlink:title=" ">
<path fill="none" stroke="#63b8ff" d="M79.15,-138.4C96.56,-154.92 122.12,-176.89 148,-191 150.86,-192.56 153.86,-194.01 156.94,-195.36"/>
<polygon fill="#63b8ff" stroke="#63b8ff" points="155.59,-198.59 166.17,-199.02 158.16,-192.08 155.59,-198.59"/>
</a>
</g>
</g>
<!-- Node4 -->
<g id="Node000004" class="node">
<title>Node4</title>
<g id="a_Node000004"><a xlink:href="class_fiea_1_1_engine_1_1_content_1_1_scope.html#ad924c01785b239991fc0e56a63295612" target="_top" xlink:title="Return the Datum at the requested key, or nullptr if not found.">
<polygon fill="white" stroke="#666666" points="264.12,-182 152.88,-182 152.88,-150 264.12,-150 264.12,-182"/>
<text text-anchor="start" x="160.88" y="-168.5" font-family="Helvetica,sans-Serif" font-size="10.00">Fiea::Engine::Content</text>
<text text-anchor="middle" x="208.5" y="-156.5" font-family="Helvetica,sans-Serif" font-size="10.00">::Scope::Find</text>
</a>
</g>
</g>
<!-- Node1&#45;&gt;Node4 -->
<g id="edge3_Node000001_Node000004" class="edge">
<title>Node1&#45;&gt;Node4</title>
<g id="a_edge3_Node000001_Node000004"><a xlink:title=" ">
<path fill="none" stroke="#63b8ff" d="M112.19,-134.33C123.75,-138.18 135.99,-142.24 147.71,-146.14"/>
<polygon fill="#63b8ff" stroke="#63b8ff" points="146.26,-149.34 156.86,-149.17 148.47,-142.7 146.26,-149.34"/>
</a>
</g>
</g>
<!-- Node5 -->
<g id="Node000005" class="node">
<title>Node5</title>
<g id="a_Node000005"><a xlink:href="class_fiea_1_1_engine_1_1_content_1_1_datum.html#a3763d03e7b219e3ba257b09a7719795c" target="_top" xlink:title=" ">
<polygon fill="white" stroke="#666666" points="264.12,-132 152.88,-132 152.88,-100 264.12,-100 264.12,-132"/>
<text text-anchor="start" x="160.88" y="-118.5" font-family="Helvetica,sans-Serif" font-size="10.00">Fiea::Engine::Content</text>
<text text-anchor="middle" x="208.5" y="-106.5" font-family="Helvetica,sans-Serif" font-size="10.00">::Datum::Get</text>
</a>
</g>
</g>
<!-- Node1&#45;&gt;Node5 -->
<g id="edge4_Node000001_Node000005" class="edge">
<title>Node1&#45;&gt;Node5</title>
<g id="a_edge4_Node000001_Node000005"><a xlink:title=" ">
<path fill="none" stroke="#63b8ff" d="M112.19,-116C121.65,-116 131.58,-116 141.3,-116"/>
<polygon fill="#63b8ff" stroke="#63b8ff" points="141.06,-119.5 151.06,-116 141.06,-112.5 141.06,-119.5"/>
</a>
</g>
</g>
<!-- Node6 -->
<g id="Node000006" class="node">
<title>Node6</title>
<g id="a_Node000006"><a xlink:href="class_fiea_1_1_engine_1_1_content_1_1_actions_1_1_action.html#a4bd3f927a2d39da853a3c84a6d454343" target="_top" xlink:title="Providing a way to reset the action state. This is only doing a soft reset and only meant for going f...">
<polygon fill="white" stroke="#666666" points="269,-82 148,-82 148,-50 269,-50 269,-82"/>
<text text-anchor="start" x="156" y="-68.5" font-family="Helvetica,sans-Serif" font-size="10.00">Fiea::Engine::Content</text>
<text text-anchor="middle" x="208.5" y="-56.5" font-family="Helvetica,sans-Serif" font-size="10.00">::Actions::Action::Reset</text>
</a>
</g>
</g>
<!-- Node1&#45;&gt;Node6 -->
<g id="edge5_Node000001_Node000006" class="edge">
<title>Node1&#45;&gt;Node6</title>
<g id="a_edge5_Node000001_Node000006"><a xlink:title=" ">
<path fill="none" stroke="#63b8ff" d="M112.19,-97.67C123.75,-93.82 135.99,-89.76 147.71,-85.86"/>
<polygon fill="#63b8ff" stroke="#63b8ff" points="148.47,-89.3 156.86,-82.83 146.26,-82.66 148.47,-89.3"/>
</a>
</g>
</g>
<!-- Node8 -->
<g id="Node000008" class="node">
<title>Node8</title>
<g id="a_Node000008"><a xlink:href="class_fiea_1_1_engine_1_1_content_1_1_datum.html#acae68c3bc8b20345e4c3790fa37bd8d5" target="_top" xlink:title=" ">
<polygon fill="white" stroke="#666666" points="264.12,-32 152.88,-32 152.88,0 264.12,0 264.12,-32"/>
<text text-anchor="start" x="160.88" y="-18.5" font-family="Helvetica,sans-Serif" font-size="10.00">Fiea::Engine::Content</text>
<text text-anchor="middle" x="208.5" y="-6.5" font-family="Helvetica,sans-Serif" font-size="10.00">::Datum::Size</text>
</a>
</g>
</g>
<!-- Node1&#45;&gt;Node8 -->
<g id="edge7_Node000001_Node000008" class="edge">
<title>Node1&#45;&gt;Node8</title>
<g id="a_edge7_Node000001_Node000008"><a xlink:title=" ">
<path fill="none" stroke="#63b8ff" d="M80.26,-93.57C97.84,-77.47 123.12,-56.03 148,-41 149.99,-39.8 152.04,-38.63 154.14,-37.5"/>
<polygon fill="#63b8ff" stroke="#63b8ff" points="155.47,-40.74 162.83,-33.12 152.33,-34.49 155.47,-40.74"/>
</a>
</g>
</g>
<!-- Node3 -->
<g id="Node000003" class="node">
<title>Node3</title>
<g id="a_Node000003"><a xlink:href="class_fiea_1_1_engine_1_1_r_t_t_i.html#ac0a7d875e4513b2aca7594abcd4418ef" target="_top" xlink:title=" ">
<polygon fill="white" stroke="#666666" points="428.25,-220 315.5,-220 315.5,-200 428.25,-200 428.25,-220"/>
<text text-anchor="middle" x="371.88" y="-206.5" font-family="Helvetica,sans-Serif" font-size="10.00">Fiea::Engine::RTTI::Is</text>
</a>
</g>
</g>
<!-- Node2&#45;&gt;Node3 -->
<g id="edge2_Node000002_Node000003" class="edge">
<title>Node2&#45;&gt;Node3</title>
<g id="a_edge2_Node000002_Node000003"><a xlink:title=" ">
<path fill="none" stroke="#63b8ff" d="M266.85,-210C278.85,-210 291.6,-210 303.91,-210"/>
<polygon fill="#63b8ff" stroke="#63b8ff" points="303.55,-213.5 313.55,-210 303.55,-206.5 303.55,-213.5"/>
</a>
</g>
</g>
<!-- Node7 -->
<g id="Node000007" class="node">
<title>Node7</title>
<g id="a_Node000007"><a xlink:href="class_fiea_1_1_engine_1_1_content_1_1_actions_1_1_action.html#a722baa79e2bc000694d1bb7a4fec50eb" target="_top" xlink:title=" ">
<polygon fill="white" stroke="#666666" points="438.75,-82 305,-82 305,-50 438.75,-50 438.75,-82"/>
<text text-anchor="start" x="313" y="-68.5" font-family="Helvetica,sans-Serif" font-size="10.00">Fiea::Engine::Content</text>
<text text-anchor="middle" x="371.88" y="-56.5" font-family="Helvetica,sans-Serif" font-size="10.00">::Actions::Action::OnReset</text>
</a>
</g>
</g>
<!-- Node6&#45;&gt;Node7 -->
<g id="edge6_Node000006_Node000007" class="edge">
<title>Node6&#45;&gt;Node7</title>
<g id="a_edge6_Node000006_Node000007"><a xlink:title=" ">
<path fill="none" stroke="#63b8ff" d="M269.13,-66C277,-66 285.16,-66 293.28,-66"/>
<polygon fill="#63b8ff" stroke="#63b8ff" points="293.18,-69.5 303.18,-66 293.18,-62.5 293.18,-69.5"/>
</a>
</g>
</g>
</g>
</svg>
