<?xml version="1.0" encoding="UTF-8" standalone="no"?>
<!DOCTYPE svg PUBLIC "-//W3C//DTD SVG 1.1//EN"
 "http://www.w3.org/Graphics/SVG/1.1/DTD/svg11.dtd">
<!-- Generated by graphviz version 12.2.1 (20241206.2353)
 -->
<!-- Title: Fiea::Engine::List::List Pages: 1 -->
<svg width="251pt" height="128pt"
 viewBox="0.00 0.00 250.75 128.00" xmlns="http://www.w3.org/2000/svg" xmlns:xlink="http://www.w3.org/1999/xlink">
<g id="graph0" class="graph" transform="scale(1 1) rotate(0) translate(4 124)">
<title>Fiea::Engine::List::List</title>
<!-- Node1 -->
<g id="Node000001" class="node">
<title>Node1</title>
<g id="a_Node000001"><a xlink:title="Copy constructor.">
<polygon fill="#999999" stroke="#666666" points="92.5,-76 0,-76 0,-44 92.5,-44 92.5,-76"/>
<text text-anchor="start" x="8" y="-62.5" font-family="Helvetica,sans-Serif" font-size="10.00">Fiea::Engine::List</text>
<text text-anchor="middle" x="46.25" y="-50.5" font-family="Helvetica,sans-Serif" font-size="10.00">::List</text>
</a>
</g>
</g>
<!-- Node2 -->
<g id="Node000002" class="node">
<title>Node2</title>
<g id="a_Node000002"><a xlink:href="class_fiea_1_1_engine_1_1_list.html#a95a54eb9516d0e6a240069dc6f81b106" target="_top" xlink:title="Returns an iterator that holds the first element of the list.">
<polygon fill="white" stroke="#666666" points="231.88,-120 139.38,-120 139.38,-88 231.88,-88 231.88,-120"/>
<text text-anchor="start" x="147.38" y="-106.5" font-family="Helvetica,sans-Serif" font-size="10.00">Fiea::Engine::List</text>
<text text-anchor="middle" x="185.62" y="-94.5" font-family="Helvetica,sans-Serif" font-size="10.00">::begin</text>
</a>
</g>
</g>
<!-- Node1&#45;&gt;Node2 -->
<g id="edge1_Node000001_Node000002" class="edge">
<title>Node1&#45;&gt;Node2</title>
<g id="a_edge1_Node000001_Node000002"><a xlink:title=" ">
<path fill="none" stroke="#63b8ff" d="M92.99,-74.65C104.35,-78.29 116.65,-82.23 128.44,-86"/>
<polygon fill="#63b8ff" stroke="#63b8ff" points="127.05,-89.23 137.64,-88.95 129.18,-82.57 127.05,-89.23"/>
</a>
</g>
</g>
<!-- Node3 -->
<g id="Node000003" class="node">
<title>Node3</title>
<g id="a_Node000003"><a xlink:href="class_fiea_1_1_engine_1_1_list.html#a964d262d4dd1ba56624187155216cf5e" target="_top" xlink:title="Returns an iterator that holds the sentinel which is the node after the last node.">
<polygon fill="white" stroke="#666666" points="242.75,-70 128.5,-70 128.5,-50 242.75,-50 242.75,-70"/>
<text text-anchor="middle" x="185.62" y="-56.5" font-family="Helvetica,sans-Serif" font-size="10.00">Fiea::Engine::List::end</text>
</a>
</g>
</g>
<!-- Node1&#45;&gt;Node3 -->
<g id="edge2_Node000001_Node000003" class="edge">
<title>Node1&#45;&gt;Node3</title>
<g id="a_edge2_Node000001_Node000003"><a xlink:title=" ">
<path fill="none" stroke="#63b8ff" d="M92.99,-60C100.63,-60 108.7,-60 116.75,-60"/>
<polygon fill="#63b8ff" stroke="#63b8ff" points="116.57,-63.5 126.57,-60 116.57,-56.5 116.57,-63.5"/>
</a>
</g>
</g>
<!-- Node4 -->
<g id="Node000004" class="node">
<title>Node4</title>
<g id="a_Node000004"><a xlink:href="class_fiea_1_1_engine_1_1_list.html#a4f9358e786729758ada8d9c8c3c8bcd8" target="_top" xlink:title="Pushes a const ref to the back of the list.">
<polygon fill="white" stroke="#666666" points="231.88,-32 139.38,-32 139.38,0 231.88,0 231.88,-32"/>
<text text-anchor="start" x="147.38" y="-18.5" font-family="Helvetica,sans-Serif" font-size="10.00">Fiea::Engine::List</text>
<text text-anchor="middle" x="185.62" y="-6.5" font-family="Helvetica,sans-Serif" font-size="10.00">::push_back</text>
</a>
</g>
</g>
<!-- Node1&#45;&gt;Node4 -->
<g id="edge3_Node000001_Node000004" class="edge">
<title>Node1&#45;&gt;Node4</title>
<g id="a_edge3_Node000001_Node000004"><a xlink:title=" ">
<path fill="none" stroke="#63b8ff" d="M92.99,-45.35C104.35,-41.71 116.65,-37.77 128.44,-34"/>
<polygon fill="#63b8ff" stroke="#63b8ff" points="129.18,-37.43 137.64,-31.05 127.05,-30.77 129.18,-37.43"/>
</a>
</g>
</g>
</g>
</svg>
