<?xml version="1.0" encoding="UTF-8" standalone="no"?>
<!DOCTYPE svg PUBLIC "-//W3C//DTD SVG 1.1//EN"
 "http://www.w3.org/Graphics/SVG/1.1/DTD/svg11.dtd">
<!-- Generated by graphviz version 12.2.1 (20241206.2353)
 -->
<!-- Title: Fiea::Engine::Content::Attributed::IsAttribute Pages: 1 -->
<svg width="634pt" height="100pt"
 viewBox="0.00 0.00 633.75 100.00" xmlns="http://www.w3.org/2000/svg" xmlns:xlink="http://www.w3.org/1999/xlink">
<g id="graph0" class="graph" transform="scale(1 1) rotate(0) translate(4 96)">
<title>Fiea::Engine::Content::Attributed::IsAttribute</title>
<!-- Node1 -->
<g id="Node000001" class="node">
<title>Node1</title>
<g id="a_Node000001"><a xlink:title="Is the string provided by the user an attribute.">
<polygon fill="#999999" stroke="#666666" points="625.75,-32 510.75,-32 510.75,0 625.75,0 625.75,-32"/>
<text text-anchor="start" x="518.75" y="-18.5" font-family="Helvetica,sans-Serif" font-size="10.00">Fiea::Engine::Content</text>
<text text-anchor="middle" x="568.25" y="-6.5" font-family="Helvetica,sans-Serif" font-size="10.00">::Attributed::IsAttribute</text>
</a>
</g>
</g>
<!-- Node2 -->
<g id="Node000002" class="node">
<title>Node2</title>
<g id="a_Node000002"><a xlink:href="class_fiea_1_1_engine_1_1_content_1_1_attributed.html#adaed7bf877c03d16edb097acff6bd8ac" target="_top" xlink:title="Is the attribute added to the instance?">
<polygon fill="white" stroke="#666666" points="474.75,-54 322.25,-54 322.25,-22 474.75,-22 474.75,-54"/>
<text text-anchor="start" x="330.25" y="-40.5" font-family="Helvetica,sans-Serif" font-size="10.00">Fiea::Engine::Content</text>
<text text-anchor="middle" x="398.5" y="-28.5" font-family="Helvetica,sans-Serif" font-size="10.00">::Attributed::IsInstanceAttribute</text>
</a>
</g>
</g>
<!-- Node1&#45;&gt;Node2 -->
<g id="edge1_Node000001_Node000002" class="edge">
<title>Node1&#45;&gt;Node2</title>
<g id="a_edge1_Node000001_Node000002"><a xlink:title=" ">
<path fill="none" stroke="#63b8ff" d="M499.3,-24.91C491.29,-25.96 483.08,-27.04 474.97,-28.1"/>
<polygon fill="#63b8ff" stroke="#63b8ff" points="499.5,-28.42 508.96,-23.65 498.59,-21.48 499.5,-28.42"/>
</a>
</g>
</g>
<!-- Node4 -->
<g id="Node000004" class="node">
<title>Node4</title>
<g id="a_Node000004"><a xlink:href="namespace_fiea_1_1_engine_1_1_tests.html#acf19d1e24b6e04bb3eefd39b994f462d" target="_top" xlink:title=" ">
<polygon fill="white" stroke="#666666" points="100.75,-48 0,-48 0,-16 100.75,-16 100.75,-48"/>
<text text-anchor="start" x="8" y="-34.5" font-family="Helvetica,sans-Serif" font-size="10.00">Fiea::Engine::Tests</text>
<text text-anchor="middle" x="50.38" y="-22.5" font-family="Helvetica,sans-Serif" font-size="10.00">::TEST_CLASS</text>
</a>
</g>
</g>
<!-- Node1&#45;&gt;Node4 -->
<g id="edge5_Node000001_Node000004" class="edge">
<title>Node1&#45;&gt;Node4</title>
<g id="a_edge5_Node000001_Node000004"><a xlink:title=" ">
<path fill="none" stroke="#63b8ff" d="M499.03,-13.54C490.85,-13.32 482.61,-13.13 474.75,-13 406.98,-11.9 389.99,-10.63 322.25,-13 244.98,-15.71 155.55,-22.74 101.24,-27.45"/>
<polygon fill="#63b8ff" stroke="#63b8ff" points="498.9,-17.03 509,-13.83 499.1,-10.04 498.9,-17.03"/>
</a>
</g>
</g>
<!-- Node3 -->
<g id="Node000003" class="node">
<title>Node3</title>
<g id="a_Node000003"><a xlink:href="class_fiea_1_1_engine_1_1_content_1_1_attributed.html#a765ff8b9803452293255177e43f5e6f3" target="_top" xlink:title=" ">
<polygon fill="white" stroke="#666666" points="286.25,-92 136.75,-92 136.75,-60 286.25,-60 286.25,-92"/>
<text text-anchor="start" x="144.75" y="-78.5" font-family="Helvetica,sans-Serif" font-size="10.00">Fiea::Engine::Content</text>
<text text-anchor="middle" x="211.5" y="-66.5" font-family="Helvetica,sans-Serif" font-size="10.00">::Attributed::InstanceAttributes</text>
</a>
</g>
</g>
<!-- Node2&#45;&gt;Node3 -->
<g id="edge2_Node000002_Node000003" class="edge">
<title>Node2&#45;&gt;Node3</title>
<g id="a_edge2_Node000002_Node000003"><a xlink:title=" ">
<path fill="none" stroke="#63b8ff" d="M310.94,-55.78C302.8,-57.45 294.59,-59.14 286.58,-60.78"/>
<polygon fill="#63b8ff" stroke="#63b8ff" points="311.41,-59.26 320.5,-53.82 310,-52.4 311.41,-59.26"/>
</a>
</g>
</g>
<!-- Node2&#45;&gt;Node4 -->
<g id="edge4_Node000002_Node000004" class="edge">
<title>Node2&#45;&gt;Node4</title>
<g id="a_edge4_Node000002_Node000004"><a xlink:title=" ">
<path fill="none" stroke="#63b8ff" d="M310.72,-36.5C244.55,-35.35 155.75,-33.81 101.11,-32.86"/>
<polygon fill="#63b8ff" stroke="#63b8ff" points="310.4,-39.99 320.46,-36.66 310.52,-32.99 310.4,-39.99"/>
</a>
</g>
</g>
<!-- Node3&#45;&gt;Node4 -->
<g id="edge3_Node000003_Node000004" class="edge">
<title>Node3&#45;&gt;Node4</title>
<g id="a_edge3_Node000003_Node000004"><a xlink:title=" ">
<path fill="none" stroke="#63b8ff" d="M140.26,-56.58C127.04,-52.92 113.47,-49.17 101.04,-45.73"/>
<polygon fill="#63b8ff" stroke="#63b8ff" points="139.22,-59.92 149.79,-59.21 141.08,-53.17 139.22,-59.92"/>
</a>
</g>
</g>
</g>
</svg>
