<?xml version="1.0" encoding="UTF-8" standalone="no"?>
<!DOCTYPE svg PUBLIC "-//W3C//DTD SVG 1.1//EN"
 "http://www.w3.org/Graphics/SVG/1.1/DTD/svg11.dtd">
<!-- Generated by graphviz version 12.2.1 (20241206.2353)
 -->
<!-- Title: Fiea::Engine::Timer Pages: 1 -->
<svg width="102pt" height="92pt"
 viewBox="0.00 0.00 101.50 92.00" xmlns="http://www.w3.org/2000/svg" xmlns:xlink="http://www.w3.org/1999/xlink">
<g id="graph0" class="graph" transform="scale(1 1) rotate(0) translate(4 88)">
<title>Fiea::Engine::Timer</title>
<!-- Node1 -->
<g id="Node000001" class="node">
<title>Node1</title>
<g id="a_Node000001"><a xlink:title="A simple wrapper class for doing ad&#45;hoc profiling.">
<polygon fill="#999999" stroke="none" points="93.5,-84 0,-84 0,0 93.5,0 93.5,-84"/>
<text text-anchor="start" x="4" y="-70.5" font-family="Helvetica,sans-Serif" font-size="10.00">Fiea::Engine::Timer</text>
<text text-anchor="start" x="45.25" y="-54.5" font-family="Helvetica,sans-Serif" font-size="10.00"> </text>
<text text-anchor="start" x="12.56" y="-38.5" font-family="Helvetica,sans-Serif" font-size="10.00">+</text>
<text text-anchor="start" x="31.12" y="-38.5" font-family="Helvetica,sans-Serif" font-size="10.00">Timer()</text>
<text text-anchor="start" x="12.56" y="-22.5" font-family="Helvetica,sans-Serif" font-size="10.00">+</text>
<text text-anchor="start" x="31.12" y="-22.5" font-family="Helvetica,sans-Serif" font-size="10.00">Elapsed()</text>
<text text-anchor="start" x="12.56" y="-6.5" font-family="Helvetica,sans-Serif" font-size="10.00">+</text>
<text text-anchor="start" x="31.12" y="-6.5" font-family="Helvetica,sans-Serif" font-size="10.00">Reset()</text>
<polygon fill="#666666" stroke="#666666" points="0,-66 0,-66 93.5,-66 93.5,-66 0,-66"/>
<polygon fill="#666666" stroke="#666666" points="0,-50 0,-50 93.5,-50 93.5,-50 0,-50"/>
<polygon fill="none" stroke="#666666" points="0,0 0,-84 93.5,-84 93.5,0 0,0"/>
</a>
</g>
</g>
</g>
</svg>
