<?xml version="1.0" encoding="UTF-8" standalone="no"?>
<!DOCTYPE svg PUBLIC "-//W3C//DTD SVG 1.1//EN"
 "http://www.w3.org/Graphics/SVG/1.1/DTD/svg11.dtd">
<!-- Generated by graphviz version 12.2.1 (20241206.2353)
 -->
<!-- Title: Fiea::Engine::Content::Scope::Scope Pages: 1 -->
<svg width="454pt" height="190pt"
 viewBox="0.00 0.00 454.25 190.00" xmlns="http://www.w3.org/2000/svg" xmlns:xlink="http://www.w3.org/1999/xlink">
<g id="graph0" class="graph" transform="scale(1 1) rotate(0) translate(4 186)">
<title>Fiea::Engine::Content::Scope::Scope</title>
<!-- Node1 -->
<g id="Node000001" class="node">
<title>Node1</title>
<g id="a_Node000001"><a xlink:title=" ">
<polygon fill="#999999" stroke="#666666" points="446.25,-107 335,-107 335,-75 446.25,-75 446.25,-107"/>
<text text-anchor="start" x="343" y="-93.5" font-family="Helvetica,sans-Serif" font-size="10.00">Fiea::Engine::Content</text>
<text text-anchor="middle" x="390.62" y="-81.5" font-family="Helvetica,sans-Serif" font-size="10.00">::Scope::Scope</text>
</a>
</g>
</g>
<!-- Node2 -->
<g id="Node000002" class="node">
<title>Node2</title>
<g id="a_Node000002"><a xlink:href="class_fiea_1_1_engine_1_1_game_object.html#a86ede0bbc21133ffa8f398b0636c8b52" target="_top" xlink:title=" ">
<polygon fill="white" stroke="#666666" points="299,-182 167.5,-182 167.5,-150 299,-150 299,-182"/>
<text text-anchor="start" x="175.5" y="-168.5" font-family="Helvetica,sans-Serif" font-size="10.00">Fiea::Engine::GameObject</text>
<text text-anchor="middle" x="233.25" y="-156.5" font-family="Helvetica,sans-Serif" font-size="10.00">::AddAction</text>
</a>
</g>
</g>
<!-- Node1&#45;&gt;Node2 -->
<g id="edge1_Node000001_Node000002" class="edge">
<title>Node1&#45;&gt;Node2</title>
<g id="a_edge1_Node000001_Node000002"><a xlink:title=" ">
<path fill="none" stroke="#63b8ff" d="M352.72,-112.85C336.51,-122.06 317.07,-132.57 299,-141 292.67,-143.95 285.88,-146.85 279.17,-149.57"/>
<polygon fill="#63b8ff" stroke="#63b8ff" points="354.12,-116.08 361.05,-108.06 350.64,-110.01 354.12,-116.08"/>
</a>
</g>
</g>
<!-- Node3 -->
<g id="Node000003" class="node">
<title>Node3</title>
<g id="a_Node000003"><a xlink:href="class_fiea_1_1_engine_1_1_content_1_1_scope.html#a002f54731a8996f37c4f725d8175ffee" target="_top" xlink:title="This is one of the ways of adding a scope as a child to &#39;this&#39; scope Appending a scope also implies t...">
<polygon fill="white" stroke="#666666" points="291.5,-132 175,-132 175,-100 291.5,-100 291.5,-132"/>
<text text-anchor="start" x="183" y="-118.5" font-family="Helvetica,sans-Serif" font-size="10.00">Fiea::Engine::Content</text>
<text text-anchor="middle" x="233.25" y="-106.5" font-family="Helvetica,sans-Serif" font-size="10.00">::Scope::AppendScope</text>
</a>
</g>
</g>
<!-- Node1&#45;&gt;Node3 -->
<g id="edge2_Node000001_Node000003" class="edge">
<title>Node1&#45;&gt;Node3</title>
<g id="a_edge2_Node000001_Node000003"><a xlink:title=" ">
<path fill="none" stroke="#63b8ff" d="M323.59,-101.63C313.07,-103.32 302.26,-105.06 291.96,-106.71"/>
<polygon fill="#63b8ff" stroke="#63b8ff" points="324.03,-105.1 333.35,-100.05 322.92,-98.19 324.03,-105.1"/>
</a>
</g>
</g>
<!-- Node5 -->
<g id="Node000005" class="node">
<title>Node5</title>
<g id="a_Node000005"><a xlink:href="class_fiea_1_1_engine_1_1_content_1_1_scope.html#a3c12c199b42e5dab5491debf35d2c429" target="_top" xlink:title="Clone function.">
<polygon fill="white" stroke="#666666" points="288.88,-82 177.62,-82 177.62,-50 288.88,-50 288.88,-82"/>
<text text-anchor="start" x="185.62" y="-68.5" font-family="Helvetica,sans-Serif" font-size="10.00">Fiea::Engine::Content</text>
<text text-anchor="middle" x="233.25" y="-56.5" font-family="Helvetica,sans-Serif" font-size="10.00">::Scope::Clone</text>
</a>
</g>
</g>
<!-- Node1&#45;&gt;Node5 -->
<g id="edge4_Node000001_Node000005" class="edge">
<title>Node1&#45;&gt;Node5</title>
<g id="a_edge4_Node000001_Node000005"><a xlink:title=" ">
<path fill="none" stroke="#63b8ff" d="M323.58,-80.37C312.17,-78.54 300.41,-76.64 289.32,-74.86"/>
<polygon fill="#63b8ff" stroke="#63b8ff" points="322.92,-83.81 333.35,-81.95 324.03,-76.9 322.92,-83.81"/>
</a>
</g>
</g>
<!-- Node6 -->
<g id="Node000006" class="node">
<title>Node6</title>
<g id="a_Node000006"><a xlink:href="class_fiea_1_1_engine_1_1_game_object.html#ae53c9484e5fdc34b527e85fffe8af53e" target="_top" xlink:title=" ">
<polygon fill="white" stroke="#666666" points="299,-32 167.5,-32 167.5,0 299,0 299,-32"/>
<text text-anchor="start" x="175.5" y="-18.5" font-family="Helvetica,sans-Serif" font-size="10.00">Fiea::Engine::GameObject</text>
<text text-anchor="middle" x="233.25" y="-6.5" font-family="Helvetica,sans-Serif" font-size="10.00">::Update</text>
</a>
</g>
</g>
<!-- Node1&#45;&gt;Node6 -->
<g id="edge5_Node000001_Node000006" class="edge">
<title>Node1&#45;&gt;Node6</title>
<g id="a_edge5_Node000001_Node000006"><a xlink:title=" ">
<path fill="none" stroke="#63b8ff" d="M352.72,-69.15C336.51,-59.94 317.07,-49.43 299,-41 292.67,-38.05 285.88,-35.15 279.17,-32.43"/>
<polygon fill="#63b8ff" stroke="#63b8ff" points="350.64,-71.99 361.05,-73.94 354.12,-65.92 350.64,-71.99"/>
</a>
</g>
</g>
<!-- Node4 -->
<g id="Node000004" class="node">
<title>Node4</title>
<g id="a_Node000004"><a xlink:href="class_fiea_1_1_engine_1_1_content_1_1_scope_writer.html#ae61df0a4225d06e413fbfda3028f8547" target="_top" xlink:title="This creates a new Scope, makes it a child of the current top scope in the stack and pushes it into t...">
<polygon fill="white" stroke="#666666" points="131.5,-132 0,-132 0,-100 131.5,-100 131.5,-132"/>
<text text-anchor="start" x="8" y="-118.5" font-family="Helvetica,sans-Serif" font-size="10.00">Fiea::Engine::Content</text>
<text text-anchor="middle" x="65.75" y="-106.5" font-family="Helvetica,sans-Serif" font-size="10.00">::ScopeWriter::PushScope</text>
</a>
</g>
</g>
<!-- Node3&#45;&gt;Node4 -->
<g id="edge3_Node000003_Node000004" class="edge">
<title>Node3&#45;&gt;Node4</title>
<g id="a_edge3_Node000003_Node000004"><a xlink:title=" ">
<path fill="none" stroke="#63b8ff" d="M163.56,-116C153.02,-116 142.17,-116 131.72,-116"/>
<polygon fill="#63b8ff" stroke="#63b8ff" points="163.32,-119.5 173.32,-116 163.32,-112.5 163.32,-119.5"/>
</a>
</g>
</g>
<!-- Node7 -->
<g id="Node000007" class="node">
<title>Node7</title>
<g id="a_Node000007"><a xlink:href="namespace_fiea_1_1_engine_1_1_tests.html#abf824a753b0112aae643057c7f756482" target="_top" xlink:title=" ">
<polygon fill="white" stroke="#666666" points="116.12,-32 15.38,-32 15.38,0 116.12,0 116.12,-32"/>
<text text-anchor="start" x="23.38" y="-18.5" font-family="Helvetica,sans-Serif" font-size="10.00">Fiea::Engine::Tests</text>
<text text-anchor="middle" x="65.75" y="-6.5" font-family="Helvetica,sans-Serif" font-size="10.00">::TEST_CLASS</text>
</a>
</g>
</g>
<!-- Node6&#45;&gt;Node7 -->
<g id="edge6_Node000006_Node000007" class="edge">
<title>Node6&#45;&gt;Node7</title>
<g id="a_edge6_Node000006_Node000007"><a xlink:title=" ">
<path fill="none" stroke="#63b8ff" d="M156.08,-16C142.61,-16 128.9,-16 116.4,-16"/>
<polygon fill="#63b8ff" stroke="#63b8ff" points="155.8,-19.5 165.8,-16 155.8,-12.5 155.8,-19.5"/>
</a>
</g>
</g>
</g>
</svg>
