<?xml version="1.0" encoding="UTF-8" standalone="no"?>
<!DOCTYPE svg PUBLIC "-//W3C//DTD SVG 1.1//EN"
 "http://www.w3.org/Graphics/SVG/1.1/DTD/svg11.dtd">
<!-- Generated by graphviz version 12.2.1 (20241206.2353)
 -->
<!-- Title: Fiea::Engine::Content::Scope::operator= Pages: 1 -->
<svg width="439pt" height="115pt"
 viewBox="0.00 0.00 438.50 115.00" xmlns="http://www.w3.org/2000/svg" xmlns:xlink="http://www.w3.org/1999/xlink">
<g id="graph0" class="graph" transform="scale(1 1) rotate(0) translate(4 111)">
<title>Fiea::Engine::Content::Scope::operator=</title>
<!-- Node1 -->
<g id="Node000001" class="node">
<title>Node1</title>
<g id="a_Node000001"><a xlink:title="Copy Assignment.">
<polygon fill="#999999" stroke="#666666" points="430.5,-82 319.25,-82 319.25,-50 430.5,-50 430.5,-82"/>
<text text-anchor="start" x="327.25" y="-68.5" font-family="Helvetica,sans-Serif" font-size="10.00">Fiea::Engine::Content</text>
<text text-anchor="middle" x="374.88" y="-56.5" font-family="Helvetica,sans-Serif" font-size="10.00">::Scope::operator=</text>
</a>
</g>
</g>
<!-- Node2 -->
<g id="Node000002" class="node">
<title>Node2</title>
<g id="a_Node000002"><a xlink:href="class_fiea_1_1_engine_1_1_content_1_1_attributed.html#a4b2cb8b7f86f4b7df9fc7dd15040affe" target="_top" xlink:title=" ">
<polygon fill="white" stroke="#666666" points="283.25,-107 172,-107 172,-75 283.25,-75 283.25,-107"/>
<text text-anchor="start" x="180" y="-93.5" font-family="Helvetica,sans-Serif" font-size="10.00">Fiea::Engine::Content</text>
<text text-anchor="middle" x="227.62" y="-81.5" font-family="Helvetica,sans-Serif" font-size="10.00">::Attributed::operator=</text>
</a>
</g>
</g>
<!-- Node1&#45;&gt;Node2 -->
<g id="edge1_Node000001_Node000002" class="edge">
<title>Node1&#45;&gt;Node2</title>
<g id="a_edge1_Node000001_Node000002"><a xlink:title=" ">
<path fill="none" stroke="#63b8ff" d="M307.69,-77.39C299.64,-78.78 291.48,-80.18 283.62,-81.54"/>
<polygon fill="#63b8ff" stroke="#63b8ff" points="308.21,-80.85 317.47,-75.71 307.02,-73.96 308.21,-80.85"/>
</a>
</g>
</g>
<!-- Node3 -->
<g id="Node000003" class="node">
<title>Node3</title>
<g id="a_Node000003"><a xlink:href="class_fiea_1_1_engine_1_1_content_1_1_attributed.html#ad00b7ac2fa53d92d617e235da1f83055" target="_top" xlink:title=" ">
<polygon fill="white" stroke="#666666" points="283.25,-57 172,-57 172,-25 283.25,-25 283.25,-57"/>
<text text-anchor="start" x="180" y="-43.5" font-family="Helvetica,sans-Serif" font-size="10.00">Fiea::Engine::Content</text>
<text text-anchor="middle" x="227.62" y="-31.5" font-family="Helvetica,sans-Serif" font-size="10.00">::Attributed::operator=</text>
</a>
</g>
</g>
<!-- Node1&#45;&gt;Node3 -->
<g id="edge2_Node000001_Node000003" class="edge">
<title>Node1&#45;&gt;Node3</title>
<g id="a_edge2_Node000001_Node000003"><a xlink:title=" ">
<path fill="none" stroke="#63b8ff" d="M307.69,-54.61C299.64,-53.22 291.48,-51.82 283.62,-50.46"/>
<polygon fill="#63b8ff" stroke="#63b8ff" points="307.02,-58.04 317.47,-56.29 308.21,-51.15 307.02,-58.04"/>
</a>
</g>
</g>
<!-- Node4 -->
<g id="Node000004" class="node">
<title>Node4</title>
<g id="a_Node000004"><a xlink:href="class_fiea_1_1_engine_1_1_content_1_1_actions_1_1_action.html#a8b550e6b4c11a011c42baf0b9b042d92" target="_top" xlink:title=" ">
<polygon fill="white" stroke="#666666" points="136,-82 0,-82 0,-50 136,-50 136,-82"/>
<text text-anchor="start" x="8" y="-68.5" font-family="Helvetica,sans-Serif" font-size="10.00">Fiea::Engine::Content</text>
<text text-anchor="middle" x="68" y="-56.5" font-family="Helvetica,sans-Serif" font-size="10.00">::Actions::Action::operator=</text>
</a>
</g>
</g>
<!-- Node3&#45;&gt;Node4 -->
<g id="edge3_Node000003_Node000004" class="edge">
<title>Node3&#45;&gt;Node4</title>
<g id="a_edge3_Node000003_Node000004"><a xlink:title=" ">
<path fill="none" stroke="#63b8ff" d="M160.72,-51.45C152.67,-52.73 144.44,-54.03 136.37,-55.31"/>
<polygon fill="#63b8ff" stroke="#63b8ff" points="161.11,-54.93 170.44,-49.91 160.02,-48.02 161.11,-54.93"/>
</a>
</g>
</g>
<!-- Node5 -->
<g id="Node000005" class="node">
<title>Node5</title>
<g id="a_Node000005"><a xlink:href="class_fiea_1_1_engine_1_1_content_1_1_actions_1_1_action.html#add6e558de0fd8848db339bfb352b2164" target="_top" xlink:title=" ">
<polygon fill="white" stroke="#666666" points="136,-32 0,-32 0,0 136,0 136,-32"/>
<text text-anchor="start" x="8" y="-18.5" font-family="Helvetica,sans-Serif" font-size="10.00">Fiea::Engine::Content</text>
<text text-anchor="middle" x="68" y="-6.5" font-family="Helvetica,sans-Serif" font-size="10.00">::Actions::Action::operator=</text>
</a>
</g>
</g>
<!-- Node3&#45;&gt;Node5 -->
<g id="edge4_Node000003_Node000005" class="edge">
<title>Node3&#45;&gt;Node5</title>
<g id="a_edge4_Node000003_Node000005"><a xlink:title=" ">
<path fill="none" stroke="#63b8ff" d="M160.72,-30.55C152.67,-29.27 144.44,-27.97 136.37,-26.69"/>
<polygon fill="#63b8ff" stroke="#63b8ff" points="160.02,-33.98 170.44,-32.09 161.11,-27.07 160.02,-33.98"/>
</a>
</g>
</g>
</g>
</svg>
