<?xml version="1.0" encoding="UTF-8" standalone="no"?>
<!DOCTYPE svg PUBLIC "-//W3C//DTD SVG 1.1//EN"
 "http://www.w3.org/Graphics/SVG/1.1/DTD/svg11.dtd">
<!-- Generated by graphviz version 12.2.1 (20241206.2353)
 -->
<!-- Title: Fiea::Engine::Content::ScopeWriter::Append Pages: 1 -->
<svg width="297pt" height="264pt"
 viewBox="0.00 0.00 297.25 264.00" xmlns="http://www.w3.org/2000/svg" xmlns:xlink="http://www.w3.org/1999/xlink">
<g id="graph0" class="graph" transform="scale(1 1) rotate(0) translate(4 260)">
<title>Fiea::Engine::Content::ScopeWriter::Append</title>
<!-- Node1 -->
<g id="Node000001" class="node">
<title>Node1</title>
<g id="a_Node000001"><a xlink:title="This function should be called for ading string, float or ints into the Scope. Any other data type wo...">
<polygon fill="#999999" stroke="#666666" points="289.25,-144 175,-144 175,-112 289.25,-112 289.25,-144"/>
<text text-anchor="start" x="183" y="-130.5" font-family="Helvetica,sans-Serif" font-size="10.00">Fiea::Engine::Content</text>
<text text-anchor="middle" x="232.12" y="-118.5" font-family="Helvetica,sans-Serif" font-size="10.00">::ScopeWriter::Append</text>
</a>
</g>
</g>
<!-- Node2 -->
<g id="Node000002" class="node">
<title>Node2</title>
<g id="a_Node000002"><a xlink:href="class_fiea_1_1_engine_1_1_content_1_1_float_parse_handler.html#abc4c8eb2ad52cd9ebdafba350e9a58d7" target="_top" xlink:title=" ">
<polygon fill="white" stroke="#666666" points="125.12,-256 13.88,-256 13.88,-212 125.12,-212 125.12,-256"/>
<text text-anchor="start" x="21.88" y="-242.5" font-family="Helvetica,sans-Serif" font-size="10.00">Fiea::Engine::Content</text>
<text text-anchor="start" x="21.88" y="-230.5" font-family="Helvetica,sans-Serif" font-size="10.00">::FloatParseHandler::</text>
<text text-anchor="middle" x="69.5" y="-218.5" font-family="Helvetica,sans-Serif" font-size="10.00">EnterKey</text>
</a>
</g>
</g>
<!-- Node1&#45;&gt;Node2 -->
<g id="edge1_Node000001_Node000002" class="edge">
<title>Node1&#45;&gt;Node2</title>
<g id="a_edge1_Node000001_Node000002"><a xlink:title=" ">
<path fill="none" stroke="#63b8ff" d="M205.68,-151.74C187.9,-167.55 163.11,-188.08 139,-203 134.12,-206.02 128.89,-208.92 123.58,-211.65"/>
<polygon fill="#63b8ff" stroke="#63b8ff" points="207.61,-154.72 212.69,-145.42 202.92,-149.52 207.61,-154.72"/>
</a>
</g>
</g>
<!-- Node3 -->
<g id="Node000003" class="node">
<title>Node3</title>
<g id="a_Node000003"><a xlink:href="class_fiea_1_1_engine_1_1_content_1_1_int_parse_handler.html#aa99263839bdc482fcd4a5874ef682029" target="_top" xlink:title=" ">
<polygon fill="white" stroke="#666666" points="139,-194 0,-194 0,-162 139,-162 139,-194"/>
<text text-anchor="start" x="8" y="-180.5" font-family="Helvetica,sans-Serif" font-size="10.00">Fiea::Engine::Content</text>
<text text-anchor="middle" x="69.5" y="-168.5" font-family="Helvetica,sans-Serif" font-size="10.00">::IntParseHandler::EnterKey</text>
</a>
</g>
</g>
<!-- Node1&#45;&gt;Node3 -->
<g id="edge2_Node000001_Node000003" class="edge">
<title>Node1&#45;&gt;Node3</title>
<g id="a_edge2_Node000001_Node000003"><a xlink:title=" ">
<path fill="none" stroke="#63b8ff" d="M167.55,-147.79C152.95,-152.33 137.58,-157.12 123.49,-161.51"/>
<polygon fill="#63b8ff" stroke="#63b8ff" points="168.58,-151.14 177.09,-144.82 166.5,-144.45 168.58,-151.14"/>
</a>
</g>
</g>
<!-- Node4 -->
<g id="Node000004" class="node">
<title>Node4</title>
<g id="a_Node000004"><a xlink:href="class_fiea_1_1_engine_1_1_content_1_1_matrix_handler.html#af6b07a2232dbc15a91484634a6881499" target="_top" xlink:title=" ">
<polygon fill="white" stroke="#666666" points="134.12,-144 4.88,-144 4.88,-112 134.12,-112 134.12,-144"/>
<text text-anchor="start" x="12.88" y="-130.5" font-family="Helvetica,sans-Serif" font-size="10.00">Fiea::Engine::Content</text>
<text text-anchor="middle" x="69.5" y="-118.5" font-family="Helvetica,sans-Serif" font-size="10.00">::MatrixHandler::EnterKey</text>
</a>
</g>
</g>
<!-- Node1&#45;&gt;Node4 -->
<g id="edge3_Node000001_Node000004" class="edge">
<title>Node1&#45;&gt;Node4</title>
<g id="a_edge3_Node000001_Node000004"><a xlink:title=" ">
<path fill="none" stroke="#63b8ff" d="M163.45,-128C153.9,-128 144.1,-128 134.62,-128"/>
<polygon fill="#63b8ff" stroke="#63b8ff" points="163.43,-131.5 173.43,-128 163.43,-124.5 163.43,-131.5"/>
</a>
</g>
</g>
<!-- Node5 -->
<g id="Node000005" class="node">
<title>Node5</title>
<g id="a_Node000005"><a xlink:href="class_fiea_1_1_engine_1_1_content_1_1_string_parse_handler.html#a6e8f0ecc1992ee741847c1ad14069a30" target="_top" xlink:title=" ">
<polygon fill="white" stroke="#666666" points="125.12,-94 13.88,-94 13.88,-50 125.12,-50 125.12,-94"/>
<text text-anchor="start" x="21.88" y="-80.5" font-family="Helvetica,sans-Serif" font-size="10.00">Fiea::Engine::Content</text>
<text text-anchor="start" x="21.88" y="-68.5" font-family="Helvetica,sans-Serif" font-size="10.00">::StringParseHandler</text>
<text text-anchor="middle" x="69.5" y="-56.5" font-family="Helvetica,sans-Serif" font-size="10.00">::EnterKey</text>
</a>
</g>
</g>
<!-- Node1&#45;&gt;Node5 -->
<g id="edge4_Node000001_Node000005" class="edge">
<title>Node1&#45;&gt;Node5</title>
<g id="a_edge4_Node000001_Node000005"><a xlink:title=" ">
<path fill="none" stroke="#63b8ff" d="M173.23,-107.82C157.64,-102.38 140.82,-96.52 125.4,-91.14"/>
<polygon fill="#63b8ff" stroke="#63b8ff" points="171.78,-111.02 182.37,-111 174.08,-104.41 171.78,-111.02"/>
</a>
</g>
</g>
<!-- Node6 -->
<g id="Node000006" class="node">
<title>Node6</title>
<g id="a_Node000006"><a xlink:href="class_fiea_1_1_engine_1_1_content_1_1_vector_handler.html#a79774cea459da02c0eb57bcf2ca84821" target="_top" xlink:title=" ">
<polygon fill="white" stroke="#666666" points="134.5,-32 4.5,-32 4.5,0 134.5,0 134.5,-32"/>
<text text-anchor="start" x="12.5" y="-18.5" font-family="Helvetica,sans-Serif" font-size="10.00">Fiea::Engine::Content</text>
<text text-anchor="middle" x="69.5" y="-6.5" font-family="Helvetica,sans-Serif" font-size="10.00">::VectorHandler::EnterKey</text>
</a>
</g>
</g>
<!-- Node1&#45;&gt;Node6 -->
<g id="edge5_Node000001_Node000006" class="edge">
<title>Node1&#45;&gt;Node6</title>
<g id="a_edge5_Node000001_Node000006"><a xlink:title=" ">
<path fill="none" stroke="#63b8ff" d="M210.12,-103.26C192.72,-84.07 166.47,-57.97 139,-41 133.83,-37.81 128.19,-34.93 122.44,-32.37"/>
<polygon fill="#63b8ff" stroke="#63b8ff" points="207.43,-105.51 216.69,-110.66 212.67,-100.86 207.43,-105.51"/>
</a>
</g>
</g>
</g>
</svg>
