<?xml version="1.0" encoding="UTF-8" standalone="no"?>
<!DOCTYPE svg PUBLIC "-//W3C//DTD SVG 1.1//EN"
 "http://www.w3.org/Graphics/SVG/1.1/DTD/svg11.dtd">
<!-- Generated by graphviz version 12.2.1 (20241206.2353)
 -->
<!-- Title: Fiea::Engine::Content::Scope::Orphan Pages: 1 -->
<svg width="302pt" height="90pt"
 viewBox="0.00 0.00 301.75 90.00" xmlns="http://www.w3.org/2000/svg" xmlns:xlink="http://www.w3.org/1999/xlink">
<g id="graph0" class="graph" transform="scale(1 1) rotate(0) translate(4 86)">
<title>Fiea::Engine::Content::Scope::Orphan</title>
<!-- Node1 -->
<g id="Node000001" class="node">
<title>Node1</title>
<g id="a_Node000001"><a xlink:title="Orpahans this scope from its parent.">
<polygon fill="#999999" stroke="#666666" points="111.25,-57 0,-57 0,-25 111.25,-25 111.25,-57"/>
<text text-anchor="start" x="8" y="-43.5" font-family="Helvetica,sans-Serif" font-size="10.00">Fiea::Engine::Content</text>
<text text-anchor="middle" x="55.62" y="-31.5" font-family="Helvetica,sans-Serif" font-size="10.00">::Scope::Orphan</text>
</a>
</g>
</g>
<!-- Node2 -->
<g id="Node000002" class="node">
<title>Node2</title>
<g id="a_Node000002"><a xlink:href="class_fiea_1_1_engine_1_1_content_1_1_scope.html#abe37db932a06fabb2cb02ec65b6f55d8" target="_top" xlink:title="Search for a nested Scope which is the SAME(not just equal) as the provided scope and return the Datu...">
<polygon fill="white" stroke="#666666" points="293.75,-82 147.25,-82 147.25,-50 293.75,-50 293.75,-82"/>
<text text-anchor="start" x="155.25" y="-68.5" font-family="Helvetica,sans-Serif" font-size="10.00">Fiea::Engine::Content</text>
<text text-anchor="middle" x="220.5" y="-56.5" font-family="Helvetica,sans-Serif" font-size="10.00">::Scope::FindContainedScope</text>
</a>
</g>
</g>
<!-- Node1&#45;&gt;Node2 -->
<g id="edge1_Node000001_Node000002" class="edge">
<title>Node1&#45;&gt;Node2</title>
<g id="a_edge1_Node000001_Node000002"><a xlink:title=" ">
<path fill="none" stroke="#63b8ff" d="M111.31,-49.39C119.19,-50.6 127.45,-51.87 135.73,-53.14"/>
<polygon fill="#63b8ff" stroke="#63b8ff" points="135.11,-56.59 145.52,-54.65 136.17,-49.67 135.11,-56.59"/>
</a>
</g>
</g>
<!-- Node3 -->
<g id="Node000003" class="node">
<title>Node3</title>
<g id="a_Node000003"><a xlink:href="class_fiea_1_1_engine_1_1_content_1_1_datum.html#a23395b19af06abda786d991645b41e6d" target="_top" xlink:title=" ">
<polygon fill="white" stroke="#666666" points="276.12,-32 164.88,-32 164.88,0 276.12,0 276.12,-32"/>
<text text-anchor="start" x="172.88" y="-18.5" font-family="Helvetica,sans-Serif" font-size="10.00">Fiea::Engine::Content</text>
<text text-anchor="middle" x="220.5" y="-6.5" font-family="Helvetica,sans-Serif" font-size="10.00">::Datum::RemoveAt</text>
</a>
</g>
</g>
<!-- Node1&#45;&gt;Node3 -->
<g id="edge2_Node000001_Node000003" class="edge">
<title>Node1&#45;&gt;Node3</title>
<g id="a_edge2_Node000001_Node000003"><a xlink:title=" ">
<path fill="none" stroke="#63b8ff" d="M111.31,-32.61C124.8,-30.54 139.4,-28.3 153.37,-26.15"/>
<polygon fill="#63b8ff" stroke="#63b8ff" points="153.55,-29.66 162.91,-24.69 152.49,-22.74 153.55,-29.66"/>
</a>
</g>
</g>
</g>
</svg>
