<?xml version="1.0" encoding="UTF-8" standalone="no"?>
<!DOCTYPE svg PUBLIC "-//W3C//DTD SVG 1.1//EN"
 "http://www.w3.org/Graphics/SVG/1.1/DTD/svg11.dtd">
<!-- Generated by graphviz version 12.2.1 (20241206.2353)
 -->
<!-- Title: Fiea::Engine::Memory::MemoryService::DestroyHeap Pages: 1 -->
<svg width="310pt" height="90pt"
 viewBox="0.00 0.00 310.00 90.00" xmlns="http://www.w3.org/2000/svg" xmlns:xlink="http://www.w3.org/1999/xlink">
<g id="graph0" class="graph" transform="scale(1 1) rotate(0) translate(4 86)">
<title>Fiea::Engine::Memory::MemoryService::DestroyHeap</title>
<!-- Node1 -->
<g id="Node000001" class="node">
<title>Node1</title>
<g id="a_Node000001"><a xlink:title="Destroys heap given the pointer.">
<polygon fill="#999999" stroke="#666666" points="154,-57 0,-57 0,-25 154,-25 154,-57"/>
<text text-anchor="start" x="8" y="-43.5" font-family="Helvetica,sans-Serif" font-size="10.00">Fiea::Engine::Memory</text>
<text text-anchor="middle" x="77" y="-31.5" font-family="Helvetica,sans-Serif" font-size="10.00">::MemoryService::DestroyHeap</text>
</a>
</g>
</g>
<!-- Node2 -->
<g id="Node000002" class="node">
<title>Node2</title>
<g id="a_Node000002"><a xlink:href="class_fiea_1_1_engine_1_1_memory_1_1_heap.html#a28a758876d874f9279e25a00a0b8c3a8" target="_top" xlink:title="Returns the name of the heap.">
<polygon fill="white" stroke="#666666" points="302,-82 190,-82 190,-50 302,-50 302,-82"/>
<text text-anchor="start" x="198" y="-68.5" font-family="Helvetica,sans-Serif" font-size="10.00">Fiea::Engine::Memory</text>
<text text-anchor="middle" x="246" y="-56.5" font-family="Helvetica,sans-Serif" font-size="10.00">::Heap::GetName</text>
</a>
</g>
</g>
<!-- Node1&#45;&gt;Node2 -->
<g id="edge1_Node000001_Node000002" class="edge">
<title>Node1&#45;&gt;Node2</title>
<g id="a_edge1_Node000001_Node000002"><a xlink:title=" ">
<path fill="none" stroke="#63b8ff" d="M154.17,-52.4C162.36,-53.63 170.64,-54.87 178.69,-56.07"/>
<polygon fill="#63b8ff" stroke="#63b8ff" points="178,-59.51 188.41,-57.53 179.03,-52.59 178,-59.51"/>
</a>
</g>
</g>
<!-- Node3 -->
<g id="Node000003" class="node">
<title>Node3</title>
<g id="a_Node000003"><a xlink:href="class_fiea_1_1_engine_1_1_memory_1_1_heap.html#a9f9e43f68d53c5d18a76620c4a016fad" target="_top" xlink:title="Returns the number of bytes used so far by allocated blocks. It iterates through the headers calculat...">
<polygon fill="white" stroke="#666666" points="302,-32 190,-32 190,0 302,0 302,-32"/>
<text text-anchor="start" x="198" y="-18.5" font-family="Helvetica,sans-Serif" font-size="10.00">Fiea::Engine::Memory</text>
<text text-anchor="middle" x="246" y="-6.5" font-family="Helvetica,sans-Serif" font-size="10.00">::Heap::Used</text>
</a>
</g>
</g>
<!-- Node1&#45;&gt;Node3 -->
<g id="edge2_Node000001_Node000003" class="edge">
<title>Node1&#45;&gt;Node3</title>
<g id="a_edge2_Node000001_Node000003"><a xlink:title=" ">
<path fill="none" stroke="#63b8ff" d="M154.17,-29.6C162.36,-28.37 170.64,-27.13 178.69,-25.93"/>
<polygon fill="#63b8ff" stroke="#63b8ff" points="179.03,-29.41 188.41,-24.47 178,-22.49 179.03,-29.41"/>
</a>
</g>
</g>
</g>
</svg>
