<?xml version="1.0" encoding="UTF-8" standalone="no"?>
<!DOCTYPE svg PUBLIC "-//W3C//DTD SVG 1.1//EN"
 "http://www.w3.org/Graphics/SVG/1.1/DTD/svg11.dtd">
<!-- Generated by graphviz version 12.2.1 (20241206.2353)
 -->
<!-- Title: Fiea::Engine::Content::Actions::IncrementAction Pages: 1 -->
<svg width="132pt" height="1436pt"
 viewBox="0.00 0.00 132.25 1436.00" xmlns="http://www.w3.org/2000/svg" xmlns:xlink="http://www.w3.org/1999/xlink">
<g id="graph0" class="graph" transform="scale(1 1) rotate(0) translate(4 1432)">
<title>Fiea::Engine::Content::Actions::IncrementAction</title>
<!-- Node1 -->
<g id="Node000001" class="node">
<title>Node1</title>
<g id="a_Node000001"><a xlink:title="This action lets user specify which datum/attribute in parent scope to increment. The user needs to s...">
<polygon fill="#999999" stroke="none" points="124.25,-304 0,-304 0,0 124.25,0 124.25,-304"/>
<text text-anchor="start" x="4" y="-290.5" font-family="Helvetica,sans-Serif" font-size="10.00">Fiea::Engine::Content</text>
<text text-anchor="start" x="4" y="-278.5" font-family="Helvetica,sans-Serif" font-size="10.00">::Actions::IncrementAction</text>
<text text-anchor="start" x="7.69" y="-262.5" font-family="Helvetica,sans-Serif" font-size="10.00">+</text>
<text text-anchor="start" x="21.38" y="-262.5" font-family="Helvetica,sans-Serif" font-size="10.00">_DatumToModifyKey</text>
<text text-anchor="start" x="7.69" y="-246.5" font-family="Helvetica,sans-Serif" font-size="10.00">+</text>
<text text-anchor="start" x="21.38" y="-246.5" font-family="Helvetica,sans-Serif" font-size="10.00">_Diff</text>
<text text-anchor="start" x="7.69" y="-230.5" font-family="Helvetica,sans-Serif" font-size="10.00">+</text>
<text text-anchor="start" x="21.38" y="-230.5" font-family="Helvetica,sans-Serif" font-size="10.00">_Max</text>
<text text-anchor="start" x="7.69" y="-214.5" font-family="Helvetica,sans-Serif" font-size="10.00">+</text>
<text text-anchor="start" x="21.38" y="-214.5" font-family="Helvetica,sans-Serif" font-size="10.00">_Min</text>
<text text-anchor="start" x="7.69" y="-198.5" font-family="Helvetica,sans-Serif" font-size="10.00">+</text>
<text text-anchor="start" x="21.38" y="-198.5" font-family="Helvetica,sans-Serif" font-size="10.00">IncrementAction()</text>
<text text-anchor="start" x="7.69" y="-182.5" font-family="Helvetica,sans-Serif" font-size="10.00">+</text>
<text text-anchor="start" x="21.38" y="-182.5" font-family="Helvetica,sans-Serif" font-size="10.00">IncrementAction()</text>
<text text-anchor="start" x="7.69" y="-166.5" font-family="Helvetica,sans-Serif" font-size="10.00">+</text>
<text text-anchor="start" x="21.38" y="-166.5" font-family="Helvetica,sans-Serif" font-size="10.00">IncrementAction()</text>
<text text-anchor="start" x="7.69" y="-150.5" font-family="Helvetica,sans-Serif" font-size="10.00">+</text>
<text text-anchor="start" x="21.38" y="-150.5" font-family="Helvetica,sans-Serif" font-size="10.00">IncrementAction()</text>
<text text-anchor="start" x="7.69" y="-134.5" font-family="Helvetica,sans-Serif" font-size="10.00">+</text>
<text text-anchor="start" x="21.38" y="-134.5" font-family="Helvetica,sans-Serif" font-size="10.00">operator=()</text>
<text text-anchor="start" x="7.69" y="-118.5" font-family="Helvetica,sans-Serif" font-size="10.00">+</text>
<text text-anchor="start" x="21.38" y="-118.5" font-family="Helvetica,sans-Serif" font-size="10.00">operator=()</text>
<text text-anchor="start" x="7.69" y="-102.5" font-family="Helvetica,sans-Serif" font-size="10.00">+</text>
<text text-anchor="start" x="21.38" y="-102.5" font-family="Helvetica,sans-Serif" font-size="10.00">~IncrementAction()</text>
<text text-anchor="start" x="7.69" y="-86.5" font-family="Helvetica,sans-Serif" font-size="10.00">+</text>
<text text-anchor="start" x="21.38" y="-86.5" font-family="Helvetica,sans-Serif" font-size="10.00">Clone()</text>
<text text-anchor="start" x="7.69" y="-70.5" font-family="Helvetica,sans-Serif" font-size="10.00">+</text>
<text text-anchor="start" x="21.38" y="-70.5" font-family="Helvetica,sans-Serif" font-size="10.00">Equals()</text>
<text text-anchor="start" x="7.69" y="-54.5" font-family="Helvetica,sans-Serif" font-size="10.00">+</text>
<text text-anchor="start" x="21.38" y="-54.5" font-family="Helvetica,sans-Serif" font-size="10.00">Init()</text>
<text text-anchor="start" x="7.69" y="-38.5" font-family="Helvetica,sans-Serif" font-size="10.00">+</text>
<text text-anchor="start" x="21.38" y="-38.5" font-family="Helvetica,sans-Serif" font-size="10.00">Run()</text>
<text text-anchor="start" x="7.69" y="-22.5" font-family="Helvetica,sans-Serif" font-size="10.00">+</text>
<text text-anchor="start" x="21.38" y="-22.5" font-family="Helvetica,sans-Serif" font-size="10.00">Cleanup()</text>
<text text-anchor="start" x="7.69" y="-6.5" font-family="Helvetica,sans-Serif" font-size="10.00">+</text>
<text text-anchor="start" x="21.38" y="-6.5" font-family="Helvetica,sans-Serif" font-size="10.00">GetClassDefinition()</text>
<polygon fill="#666666" stroke="#666666" points="0,-274 0,-274 124.25,-274 124.25,-274 0,-274"/>
<polygon fill="#666666" stroke="#666666" points="0,-210 0,-210 19.38,-210 19.38,-210 0,-210"/>
<polygon fill="#666666" stroke="#666666" points="19.38,-210 19.38,-210 124.25,-210 124.25,-210 19.38,-210"/>
<polygon fill="none" stroke="#666666" points="0,0 0,-304 124.25,-304 124.25,0 0,0"/>
</a>
</g>
</g>
<!-- Node2 -->
<g id="Node000002" class="node">
<title>Node2</title>
<g id="a_Node000002"><a xlink:href="class_fiea_1_1_engine_1_1_content_1_1_actions_1_1_action.html" target="_top" xlink:title="Content driven way of creating behaviour.">
<polygon fill="white" stroke="none" points="115.38,-612 8.88,-612 8.88,-340 115.38,-340 115.38,-612"/>
<text text-anchor="start" x="14.5" y="-598.5" font-family="Helvetica,sans-Serif" font-size="10.00">Fiea::Engine::Content</text>
<text text-anchor="start" x="25.75" y="-586.5" font-family="Helvetica,sans-Serif" font-size="10.00">::Actions::Action</text>
<text text-anchor="start" x="12.88" y="-570.5" font-family="Helvetica,sans-Serif" font-size="10.00">+</text>
<text text-anchor="start" x="22.88" y="-570.5" font-family="Helvetica,sans-Serif" font-size="10.00">_Name</text>
<text text-anchor="start" x="12.88" y="-554.5" font-family="Helvetica,sans-Serif" font-size="10.00">+</text>
<text text-anchor="start" x="22.88" y="-554.5" font-family="Helvetica,sans-Serif" font-size="10.00">Action()</text>
<text text-anchor="start" x="12.88" y="-538.5" font-family="Helvetica,sans-Serif" font-size="10.00">+</text>
<text text-anchor="start" x="22.88" y="-538.5" font-family="Helvetica,sans-Serif" font-size="10.00">Action()</text>
<text text-anchor="start" x="12.88" y="-522.5" font-family="Helvetica,sans-Serif" font-size="10.00">+</text>
<text text-anchor="start" x="22.88" y="-522.5" font-family="Helvetica,sans-Serif" font-size="10.00">operator=()</text>
<text text-anchor="start" x="12.88" y="-506.5" font-family="Helvetica,sans-Serif" font-size="10.00">+</text>
<text text-anchor="start" x="22.88" y="-506.5" font-family="Helvetica,sans-Serif" font-size="10.00">operator=()</text>
<text text-anchor="start" x="12.88" y="-490.5" font-family="Helvetica,sans-Serif" font-size="10.00">+</text>
<text text-anchor="start" x="22.88" y="-490.5" font-family="Helvetica,sans-Serif" font-size="10.00">operator==()</text>
<text text-anchor="start" x="12.88" y="-474.5" font-family="Helvetica,sans-Serif" font-size="10.00">+</text>
<text text-anchor="start" x="22.88" y="-474.5" font-family="Helvetica,sans-Serif" font-size="10.00">operator!=()</text>
<text text-anchor="start" x="12.88" y="-458.5" font-family="Helvetica,sans-Serif" font-size="10.00">+</text>
<text text-anchor="start" x="22.88" y="-458.5" font-family="Helvetica,sans-Serif" font-size="10.00">~Action()</text>
<text text-anchor="start" x="12.88" y="-442.5" font-family="Helvetica,sans-Serif" font-size="10.00">+</text>
<text text-anchor="start" x="22.88" y="-442.5" font-family="Helvetica,sans-Serif" font-size="10.00">Clone()</text>
<text text-anchor="start" x="12.88" y="-426.5" font-family="Helvetica,sans-Serif" font-size="10.00">+</text>
<text text-anchor="start" x="22.88" y="-426.5" font-family="Helvetica,sans-Serif" font-size="10.00">ToString()</text>
<text text-anchor="start" x="12.88" y="-410.5" font-family="Helvetica,sans-Serif" font-size="10.00">+</text>
<text text-anchor="start" x="22.88" y="-410.5" font-family="Helvetica,sans-Serif" font-size="10.00">Equals()</text>
<text text-anchor="start" x="22.88" y="-394.5" font-family="Helvetica,sans-Serif" font-size="10.00">and 7 more...</text>
<text text-anchor="start" x="12.88" y="-378.5" font-family="Helvetica,sans-Serif" font-size="10.00">+</text>
<text text-anchor="start" x="22.88" y="-378.5" font-family="Helvetica,sans-Serif" font-size="10.00">GetClassDefinition()</text>
<text text-anchor="start" x="13.25" y="-362.5" font-family="Helvetica,sans-Serif" font-size="10.00">#</text>
<text text-anchor="start" x="22.88" y="-362.5" font-family="Helvetica,sans-Serif" font-size="10.00">Action()</text>
<text text-anchor="start" x="13.25" y="-346.5" font-family="Helvetica,sans-Serif" font-size="10.00">#</text>
<text text-anchor="start" x="22.88" y="-346.5" font-family="Helvetica,sans-Serif" font-size="10.00">Action()</text>
<polygon fill="#666666" stroke="#666666" points="8.88,-582 8.88,-582 115.38,-582 115.38,-582 8.88,-582"/>
<polygon fill="#666666" stroke="#666666" points="8.88,-566 8.88,-566 20.88,-566 20.88,-566 8.88,-566"/>
<polygon fill="#666666" stroke="#666666" points="20.88,-566 20.88,-566 115.38,-566 115.38,-566 20.88,-566"/>
<polygon fill="none" stroke="#666666" points="8.88,-340 8.88,-612 115.38,-612 115.38,-340 8.88,-340"/>
</a>
</g>
</g>
<!-- Node2&#45;&gt;Node1 -->
<g id="edge1_Node000001_Node000002" class="edge">
<title>Node2&#45;&gt;Node1</title>
<g id="a_edge1_Node000001_Node000002"><a xlink:title=" ">
<path fill="none" stroke="#63b8ff" d="M62.12,-328.95C62.12,-320.59 62.12,-312.17 62.12,-303.79"/>
<polygon fill="none" stroke="#63b8ff" points="58.63,-328.8 62.13,-338.8 65.63,-328.8 58.63,-328.8"/>
</a>
</g>
</g>
<!-- Node3 -->
<g id="Node000003" class="node">
<title>Node3</title>
<g id="a_Node000003"><a xlink:href="class_fiea_1_1_engine_1_1_content_1_1_attributed.html" target="_top" xlink:title=" ">
<polygon fill="white" stroke="none" points="113.75,-888 10.5,-888 10.5,-648 113.75,-648 113.75,-888"/>
<text text-anchor="start" x="14.5" y="-874.5" font-family="Helvetica,sans-Serif" font-size="10.00">Fiea::Engine::Content</text>
<text text-anchor="start" x="38.12" y="-862.5" font-family="Helvetica,sans-Serif" font-size="10.00">::Attributed</text>
<text text-anchor="start" x="60.62" y="-846.5" font-family="Helvetica,sans-Serif" font-size="10.00"> </text>
<text text-anchor="start" x="21.38" y="-830.5" font-family="Helvetica,sans-Serif" font-size="10.00">+</text>
<text text-anchor="start" x="38.25" y="-830.5" font-family="Helvetica,sans-Serif" font-size="10.00">Attributed()</text>
<text text-anchor="start" x="21.38" y="-814.5" font-family="Helvetica,sans-Serif" font-size="10.00">+</text>
<text text-anchor="start" x="38.25" y="-814.5" font-family="Helvetica,sans-Serif" font-size="10.00">Attributed()</text>
<text text-anchor="start" x="21.38" y="-798.5" font-family="Helvetica,sans-Serif" font-size="10.00">+</text>
<text text-anchor="start" x="38.25" y="-798.5" font-family="Helvetica,sans-Serif" font-size="10.00">Attributed()</text>
<text text-anchor="start" x="21.38" y="-782.5" font-family="Helvetica,sans-Serif" font-size="10.00">+</text>
<text text-anchor="start" x="38.25" y="-782.5" font-family="Helvetica,sans-Serif" font-size="10.00">operator=()</text>
<text text-anchor="start" x="21.38" y="-766.5" font-family="Helvetica,sans-Serif" font-size="10.00">+</text>
<text text-anchor="start" x="38.25" y="-766.5" font-family="Helvetica,sans-Serif" font-size="10.00">operator=()</text>
<text text-anchor="start" x="21.38" y="-750.5" font-family="Helvetica,sans-Serif" font-size="10.00">+</text>
<text text-anchor="start" x="38.25" y="-750.5" font-family="Helvetica,sans-Serif" font-size="10.00">~Attributed()</text>
<text text-anchor="start" x="21.38" y="-734.5" font-family="Helvetica,sans-Serif" font-size="10.00">+</text>
<text text-anchor="start" x="38.25" y="-734.5" font-family="Helvetica,sans-Serif" font-size="10.00">Clone()</text>
<text text-anchor="start" x="21.38" y="-718.5" font-family="Helvetica,sans-Serif" font-size="10.00">+</text>
<text text-anchor="start" x="38.25" y="-718.5" font-family="Helvetica,sans-Serif" font-size="10.00">ToString()</text>
<text text-anchor="start" x="21.38" y="-702.5" font-family="Helvetica,sans-Serif" font-size="10.00">+</text>
<text text-anchor="start" x="38.25" y="-702.5" font-family="Helvetica,sans-Serif" font-size="10.00">Equals()</text>
<text text-anchor="start" x="21.38" y="-686.5" font-family="Helvetica,sans-Serif" font-size="10.00">+</text>
<text text-anchor="start" x="38.25" y="-686.5" font-family="Helvetica,sans-Serif" font-size="10.00">IsAttribute()</text>
<text text-anchor="start" x="38.25" y="-670.5" font-family="Helvetica,sans-Serif" font-size="10.00">and 6 more...</text>
<text text-anchor="start" x="21.75" y="-654.5" font-family="Helvetica,sans-Serif" font-size="10.00">#</text>
<text text-anchor="start" x="38.25" y="-654.5" font-family="Helvetica,sans-Serif" font-size="10.00">Attributed()</text>
<polygon fill="#666666" stroke="#666666" points="10.5,-858 10.5,-858 113.75,-858 113.75,-858 10.5,-858"/>
<polygon fill="#666666" stroke="#666666" points="10.5,-842 10.5,-842 113.75,-842 113.75,-842 10.5,-842"/>
<polygon fill="none" stroke="#666666" points="10.5,-648 10.5,-888 113.75,-888 113.75,-648 10.5,-648"/>
</a>
</g>
</g>
<!-- Node3&#45;&gt;Node2 -->
<g id="edge2_Node000002_Node000003" class="edge">
<title>Node3&#45;&gt;Node2</title>
<g id="a_edge2_Node000002_Node000003"><a xlink:title=" ">
<path fill="none" stroke="#63b8ff" d="M62.12,-636.86C62.12,-628.49 62.12,-620.06 62.12,-611.67"/>
<polygon fill="none" stroke="#63b8ff" points="58.63,-636.7 62.13,-646.7 65.63,-636.7 58.63,-636.7"/>
</a>
</g>
</g>
<!-- Node4 -->
<g id="Node000004" class="node">
<title>Node4</title>
<g id="a_Node000004"><a xlink:href="class_fiea_1_1_engine_1_1_content_1_1_scope.html" target="_top" xlink:title=" ">
<polygon fill="white" stroke="none" points="113.75,-1164 10.5,-1164 10.5,-924 113.75,-924 113.75,-1164"/>
<text text-anchor="start" x="14.5" y="-1150.5" font-family="Helvetica,sans-Serif" font-size="10.00">Fiea::Engine::Content</text>
<text text-anchor="start" x="45.25" y="-1138.5" font-family="Helvetica,sans-Serif" font-size="10.00">::Scope</text>
<text text-anchor="start" x="60.62" y="-1122.5" font-family="Helvetica,sans-Serif" font-size="10.00"> </text>
<text text-anchor="start" x="19.88" y="-1106.5" font-family="Helvetica,sans-Serif" font-size="10.00">+</text>
<text text-anchor="start" x="35.25" y="-1106.5" font-family="Helvetica,sans-Serif" font-size="10.00">ToString()</text>
<text text-anchor="start" x="19.88" y="-1090.5" font-family="Helvetica,sans-Serif" font-size="10.00">+</text>
<text text-anchor="start" x="35.25" y="-1090.5" font-family="Helvetica,sans-Serif" font-size="10.00">Equals()</text>
<text text-anchor="start" x="19.88" y="-1074.5" font-family="Helvetica,sans-Serif" font-size="10.00">+</text>
<text text-anchor="start" x="35.25" y="-1074.5" font-family="Helvetica,sans-Serif" font-size="10.00">Scope()</text>
<text text-anchor="start" x="19.88" y="-1058.5" font-family="Helvetica,sans-Serif" font-size="10.00">+</text>
<text text-anchor="start" x="35.25" y="-1058.5" font-family="Helvetica,sans-Serif" font-size="10.00">Scope()</text>
<text text-anchor="start" x="19.88" y="-1042.5" font-family="Helvetica,sans-Serif" font-size="10.00">+</text>
<text text-anchor="start" x="35.25" y="-1042.5" font-family="Helvetica,sans-Serif" font-size="10.00">Scope()</text>
<text text-anchor="start" x="19.88" y="-1026.5" font-family="Helvetica,sans-Serif" font-size="10.00">+</text>
<text text-anchor="start" x="35.25" y="-1026.5" font-family="Helvetica,sans-Serif" font-size="10.00">operator=()</text>
<text text-anchor="start" x="19.88" y="-1010.5" font-family="Helvetica,sans-Serif" font-size="10.00">+</text>
<text text-anchor="start" x="35.25" y="-1010.5" font-family="Helvetica,sans-Serif" font-size="10.00">operator=()</text>
<text text-anchor="start" x="19.88" y="-994.5" font-family="Helvetica,sans-Serif" font-size="10.00">+</text>
<text text-anchor="start" x="35.25" y="-994.5" font-family="Helvetica,sans-Serif" font-size="10.00">~Scope()</text>
<text text-anchor="start" x="19.88" y="-978.5" font-family="Helvetica,sans-Serif" font-size="10.00">+</text>
<text text-anchor="start" x="35.25" y="-978.5" font-family="Helvetica,sans-Serif" font-size="10.00">Clone()</text>
<text text-anchor="start" x="19.88" y="-962.5" font-family="Helvetica,sans-Serif" font-size="10.00">+</text>
<text text-anchor="start" x="35.25" y="-962.5" font-family="Helvetica,sans-Serif" font-size="10.00">Scope()</text>
<text text-anchor="start" x="35.25" y="-946.5" font-family="Helvetica,sans-Serif" font-size="10.00">and 22 more...</text>
<text text-anchor="start" x="20.25" y="-930.5" font-family="Helvetica,sans-Serif" font-size="10.00">#</text>
<text text-anchor="start" x="35.25" y="-930.5" font-family="Helvetica,sans-Serif" font-size="10.00">GetAttributes()</text>
<polygon fill="#666666" stroke="#666666" points="10.5,-1134 10.5,-1134 113.75,-1134 113.75,-1134 10.5,-1134"/>
<polygon fill="#666666" stroke="#666666" points="10.5,-1118 10.5,-1118 113.75,-1118 113.75,-1118 10.5,-1118"/>
<polygon fill="none" stroke="#666666" points="10.5,-924 10.5,-1164 113.75,-1164 113.75,-924 10.5,-924"/>
</a>
</g>
</g>
<!-- Node4&#45;&gt;Node3 -->
<g id="edge3_Node000003_Node000004" class="edge">
<title>Node4&#45;&gt;Node3</title>
<g id="a_edge3_Node000003_Node000004"><a xlink:title=" ">
<path fill="none" stroke="#63b8ff" d="M62.12,-912.73C62.12,-904.44 62.12,-896.11 62.12,-887.87"/>
<polygon fill="none" stroke="#63b8ff" points="58.63,-912.5 62.13,-922.5 65.63,-912.5 58.63,-912.5"/>
</a>
</g>
</g>
<!-- Node5 -->
<g id="Node000005" class="node">
<title>Node5</title>
<g id="a_Node000005"><a xlink:href="class_fiea_1_1_engine_1_1_r_t_t_i.html" target="_top" xlink:title=" ">
<polygon fill="white" stroke="none" points="107.5,-1428 16.75,-1428 16.75,-1200 107.5,-1200 107.5,-1428"/>
<text text-anchor="start" x="20.88" y="-1414.5" font-family="Helvetica,sans-Serif" font-size="10.00">Fiea::Engine::RTTI</text>
<text text-anchor="start" x="60.62" y="-1398.5" font-family="Helvetica,sans-Serif" font-size="10.00"> </text>
<text text-anchor="start" x="20.75" y="-1382.5" font-family="Helvetica,sans-Serif" font-size="10.00">+</text>
<text text-anchor="start" x="30.75" y="-1382.5" font-family="Helvetica,sans-Serif" font-size="10.00">RTTI()</text>
<text text-anchor="start" x="20.75" y="-1366.5" font-family="Helvetica,sans-Serif" font-size="10.00">+</text>
<text text-anchor="start" x="30.75" y="-1366.5" font-family="Helvetica,sans-Serif" font-size="10.00">RTTI()</text>
<text text-anchor="start" x="20.75" y="-1350.5" font-family="Helvetica,sans-Serif" font-size="10.00">+</text>
<text text-anchor="start" x="30.75" y="-1350.5" font-family="Helvetica,sans-Serif" font-size="10.00">operator=()</text>
<text text-anchor="start" x="20.75" y="-1334.5" font-family="Helvetica,sans-Serif" font-size="10.00">+</text>
<text text-anchor="start" x="30.75" y="-1334.5" font-family="Helvetica,sans-Serif" font-size="10.00">RTTI()</text>
<text text-anchor="start" x="20.75" y="-1318.5" font-family="Helvetica,sans-Serif" font-size="10.00">+</text>
<text text-anchor="start" x="30.75" y="-1318.5" font-family="Helvetica,sans-Serif" font-size="10.00">operator=()</text>
<text text-anchor="start" x="20.75" y="-1302.5" font-family="Helvetica,sans-Serif" font-size="10.00">+</text>
<text text-anchor="start" x="30.75" y="-1302.5" font-family="Helvetica,sans-Serif" font-size="10.00">~RTTI()</text>
<text text-anchor="start" x="20.75" y="-1286.5" font-family="Helvetica,sans-Serif" font-size="10.00">+</text>
<text text-anchor="start" x="30.75" y="-1286.5" font-family="Helvetica,sans-Serif" font-size="10.00">TypeIdInstance()</text>
<text text-anchor="start" x="20.75" y="-1270.5" font-family="Helvetica,sans-Serif" font-size="10.00">+</text>
<text text-anchor="start" x="30.75" y="-1270.5" font-family="Helvetica,sans-Serif" font-size="10.00">Is()</text>
<text text-anchor="start" x="20.75" y="-1254.5" font-family="Helvetica,sans-Serif" font-size="10.00">+</text>
<text text-anchor="start" x="30.75" y="-1254.5" font-family="Helvetica,sans-Serif" font-size="10.00">As()</text>
<text text-anchor="start" x="20.75" y="-1238.5" font-family="Helvetica,sans-Serif" font-size="10.00">+</text>
<text text-anchor="start" x="30.75" y="-1238.5" font-family="Helvetica,sans-Serif" font-size="10.00">As()</text>
<text text-anchor="start" x="20.75" y="-1222.5" font-family="Helvetica,sans-Serif" font-size="10.00">+</text>
<text text-anchor="start" x="30.75" y="-1222.5" font-family="Helvetica,sans-Serif" font-size="10.00">ToString()</text>
<text text-anchor="start" x="20.75" y="-1206.5" font-family="Helvetica,sans-Serif" font-size="10.00">+</text>
<text text-anchor="start" x="30.75" y="-1206.5" font-family="Helvetica,sans-Serif" font-size="10.00">Equals()</text>
<polygon fill="#666666" stroke="#666666" points="16.75,-1410 16.75,-1410 107.5,-1410 107.5,-1410 16.75,-1410"/>
<polygon fill="#666666" stroke="#666666" points="16.75,-1394 16.75,-1394 107.5,-1394 107.5,-1394 16.75,-1394"/>
<polygon fill="none" stroke="#666666" points="16.75,-1200 16.75,-1428 107.5,-1428 107.5,-1200 16.75,-1200"/>
</a>
</g>
</g>
<!-- Node5&#45;&gt;Node4 -->
<g id="edge4_Node000004_Node000005" class="edge">
<title>Node5&#45;&gt;Node4</title>
<g id="a_edge4_Node000004_Node000005"><a xlink:title=" ">
<path fill="none" stroke="#63b8ff" d="M62.12,-1188.8C62.12,-1180.47 62.12,-1172.08 62.12,-1163.77"/>
<polygon fill="none" stroke="#63b8ff" points="58.63,-1188.61 62.13,-1198.61 65.63,-1188.61 58.63,-1188.61"/>
</a>
</g>
</g>
</g>
</svg>
