<?xml version="1.0" encoding="UTF-8" standalone="no"?>
<!DOCTYPE svg PUBLIC "-//W3C//DTD SVG 1.1//EN"
 "http://www.w3.org/Graphics/SVG/1.1/DTD/svg11.dtd">
<!-- Generated by graphviz version 12.2.1 (20241206.2353)
 -->
<!-- Title: Fiea::Engine::Content::Scope::GetAttributes Pages: 1 -->
<svg width="444pt" height="140pt"
 viewBox="0.00 0.00 443.75 140.00" xmlns="http://www.w3.org/2000/svg" xmlns:xlink="http://www.w3.org/1999/xlink">
<g id="graph0" class="graph" transform="scale(1 1) rotate(0) translate(4 136)">
<title>Fiea::Engine::Content::Scope::GetAttributes</title>
<!-- Node1 -->
<g id="Node000001" class="node">
<title>Node1</title>
<g id="a_Node000001"><a xlink:title=" ">
<polygon fill="#999999" stroke="#666666" points="435.75,-82 322.25,-82 322.25,-50 435.75,-50 435.75,-82"/>
<text text-anchor="start" x="330.25" y="-68.5" font-family="Helvetica,sans-Serif" font-size="10.00">Fiea::Engine::Content</text>
<text text-anchor="middle" x="379" y="-56.5" font-family="Helvetica,sans-Serif" font-size="10.00">::Scope::GetAttributes</text>
</a>
</g>
</g>
<!-- Node2 -->
<g id="Node000002" class="node">
<title>Node2</title>
<g id="a_Node000002"><a xlink:href="class_fiea_1_1_engine_1_1_content_1_1_attributed.html#a5e51837a7515cffae60d728515e207b9" target="_top" xlink:title="Returns all the attributes that includes even those that a user appends to the scope.">
<polygon fill="white" stroke="#666666" points="267.5,-132 155.5,-132 155.5,-100 267.5,-100 267.5,-132"/>
<text text-anchor="start" x="163.5" y="-118.5" font-family="Helvetica,sans-Serif" font-size="10.00">Fiea::Engine::Content</text>
<text text-anchor="middle" x="211.5" y="-106.5" font-family="Helvetica,sans-Serif" font-size="10.00">::Attributed::Attributes</text>
</a>
</g>
</g>
<!-- Node1&#45;&gt;Node2 -->
<g id="edge1_Node000001_Node000002" class="edge">
<title>Node1&#45;&gt;Node2</title>
<g id="a_edge1_Node000001_Node000002"><a xlink:title=" ">
<path fill="none" stroke="#63b8ff" d="M312.94,-85.66C297.77,-90.24 281.76,-95.08 267.1,-99.51"/>
<polygon fill="#63b8ff" stroke="#63b8ff" points="313.8,-89.05 322.36,-82.81 311.78,-82.35 313.8,-89.05"/>
</a>
</g>
</g>
<!-- Node4 -->
<g id="Node000004" class="node">
<title>Node4</title>
<g id="a_Node000004"><a xlink:href="class_fiea_1_1_engine_1_1_content_1_1_attributed.html#a11d0f196f168577da9dfc5d9062b5298" target="_top" xlink:title="Returns the attributes that belong to the class by definition.">
<polygon fill="white" stroke="#666666" points="280.25,-82 142.75,-82 142.75,-50 280.25,-50 280.25,-82"/>
<text text-anchor="start" x="150.75" y="-68.5" font-family="Helvetica,sans-Serif" font-size="10.00">Fiea::Engine::Content</text>
<text text-anchor="middle" x="211.5" y="-56.5" font-family="Helvetica,sans-Serif" font-size="10.00">::Attributed::ClassAttributes</text>
</a>
</g>
</g>
<!-- Node1&#45;&gt;Node4 -->
<g id="edge3_Node000001_Node000004" class="edge">
<title>Node1&#45;&gt;Node4</title>
<g id="a_edge3_Node000001_Node000004"><a xlink:title=" ">
<path fill="none" stroke="#63b8ff" d="M310.52,-66C300.63,-66 290.43,-66 280.52,-66"/>
<polygon fill="#63b8ff" stroke="#63b8ff" points="310.46,-69.5 320.46,-66 310.46,-62.5 310.46,-69.5"/>
</a>
</g>
</g>
<!-- Node5 -->
<g id="Node000005" class="node">
<title>Node5</title>
<g id="a_Node000005"><a xlink:href="class_fiea_1_1_engine_1_1_content_1_1_attributed.html#a765ff8b9803452293255177e43f5e6f3" target="_top" xlink:title=" ">
<polygon fill="white" stroke="#666666" points="286.25,-32 136.75,-32 136.75,0 286.25,0 286.25,-32"/>
<text text-anchor="start" x="144.75" y="-18.5" font-family="Helvetica,sans-Serif" font-size="10.00">Fiea::Engine::Content</text>
<text text-anchor="middle" x="211.5" y="-6.5" font-family="Helvetica,sans-Serif" font-size="10.00">::Attributed::InstanceAttributes</text>
</a>
</g>
</g>
<!-- Node1&#45;&gt;Node5 -->
<g id="edge5_Node000001_Node000005" class="edge">
<title>Node1&#45;&gt;Node5</title>
<g id="a_edge5_Node000001_Node000005"><a xlink:title=" ">
<path fill="none" stroke="#63b8ff" d="M312.94,-46.34C297.77,-41.76 281.76,-36.92 267.1,-32.49"/>
<polygon fill="#63b8ff" stroke="#63b8ff" points="311.78,-49.65 322.36,-49.19 313.8,-42.95 311.78,-49.65"/>
</a>
</g>
</g>
<!-- Node3 -->
<g id="Node000003" class="node">
<title>Node3</title>
<g id="a_Node000003"><a xlink:href="namespace_fiea_1_1_engine_1_1_tests.html#acf19d1e24b6e04bb3eefd39b994f462d" target="_top" xlink:title=" ">
<polygon fill="white" stroke="#666666" points="100.75,-82 0,-82 0,-50 100.75,-50 100.75,-82"/>
<text text-anchor="start" x="8" y="-68.5" font-family="Helvetica,sans-Serif" font-size="10.00">Fiea::Engine::Tests</text>
<text text-anchor="middle" x="50.38" y="-56.5" font-family="Helvetica,sans-Serif" font-size="10.00">::TEST_CLASS</text>
</a>
</g>
</g>
<!-- Node2&#45;&gt;Node3 -->
<g id="edge2_Node000002_Node000003" class="edge">
<title>Node2&#45;&gt;Node3</title>
<g id="a_edge2_Node000002_Node000003"><a xlink:title=" ">
<path fill="none" stroke="#63b8ff" d="M147.84,-96.31C132.34,-91.44 115.95,-86.29 101.16,-81.64"/>
<polygon fill="#63b8ff" stroke="#63b8ff" points="146.36,-99.52 156.95,-99.17 148.46,-92.84 146.36,-99.52"/>
</a>
</g>
</g>
<!-- Node4&#45;&gt;Node3 -->
<g id="edge4_Node000004_Node000003" class="edge">
<title>Node4&#45;&gt;Node3</title>
<g id="a_edge4_Node000004_Node000003"><a xlink:title=" ">
<path fill="none" stroke="#63b8ff" d="M131.31,-66C120.91,-66 110.51,-66 100.8,-66"/>
<polygon fill="#63b8ff" stroke="#63b8ff" points="131.04,-69.5 141.04,-66 131.04,-62.5 131.04,-69.5"/>
</a>
</g>
</g>
<!-- Node5&#45;&gt;Node3 -->
<g id="edge6_Node000005_Node000003" class="edge">
<title>Node5&#45;&gt;Node3</title>
<g id="a_edge6_Node000005_Node000003"><a xlink:title=" ">
<path fill="none" stroke="#63b8ff" d="M147.84,-35.69C132.34,-40.56 115.95,-45.71 101.16,-50.36"/>
<polygon fill="#63b8ff" stroke="#63b8ff" points="148.46,-39.16 156.95,-32.83 146.36,-32.48 148.46,-39.16"/>
</a>
</g>
</g>
</g>
</svg>
