<?xml version="1.0" encoding="UTF-8" standalone="no"?>
<!DOCTYPE svg PUBLIC "-//W3C//DTD SVG 1.1//EN"
 "http://www.w3.org/Graphics/SVG/1.1/DTD/svg11.dtd">
<!-- Generated by graphviz version 12.2.1 (20241206.2353)
 -->
<!-- Title: Fiea::Engine::Content::ScopeWriter::SetExternalDataTeller Pages: 1 -->
<svg width="336pt" height="314pt"
 viewBox="0.00 0.00 336.25 314.00" xmlns="http://www.w3.org/2000/svg" xmlns:xlink="http://www.w3.org/1999/xlink">
<g id="graph0" class="graph" transform="scale(1 1) rotate(0) translate(4 310)">
<title>Fiea::Engine::Content::ScopeWriter::SetExternalDataTeller</title>
<!-- Node1 -->
<g id="Node000001" class="node">
<title>Node1</title>
<g id="a_Node000001"><a xlink:title=" ">
<polygon fill="#999999" stroke="#666666" points="328.25,-175 175,-175 175,-131 328.25,-131 328.25,-175"/>
<text text-anchor="start" x="183" y="-161.5" font-family="Helvetica,sans-Serif" font-size="10.00">Fiea::Engine::Content</text>
<text text-anchor="start" x="183" y="-149.5" font-family="Helvetica,sans-Serif" font-size="10.00">::ScopeWriter::SetExternalData</text>
<text text-anchor="middle" x="251.62" y="-137.5" font-family="Helvetica,sans-Serif" font-size="10.00">Teller</text>
</a>
</g>
</g>
<!-- Node2 -->
<g id="Node000002" class="node">
<title>Node2</title>
<g id="a_Node000002"><a xlink:href="class_fiea_1_1_engine_1_1_content_1_1_array_handler.html#a12c964e02fd52210a503839f93f9bcd5" target="_top" xlink:title=" ">
<polygon fill="white" stroke="#666666" points="132.25,-306 6.75,-306 6.75,-274 132.25,-274 132.25,-306"/>
<text text-anchor="start" x="14.75" y="-292.5" font-family="Helvetica,sans-Serif" font-size="10.00">Fiea::Engine::Content</text>
<text text-anchor="middle" x="69.5" y="-280.5" font-family="Helvetica,sans-Serif" font-size="10.00">::ArrayHandler::EnterKey</text>
</a>
</g>
</g>
<!-- Node1&#45;&gt;Node2 -->
<g id="edge1_Node000001_Node000002" class="edge">
<title>Node1&#45;&gt;Node2</title>
<g id="a_edge1_Node000001_Node000002"><a xlink:title=" ">
<path fill="none" stroke="#63b8ff" d="M226.38,-183.93C205.51,-208.77 173.41,-243.02 139,-265 133.99,-268.2 128.5,-271.07 122.9,-273.62"/>
<polygon fill="#63b8ff" stroke="#63b8ff" points="228.92,-186.36 232.58,-176.42 223.51,-181.91 228.92,-186.36"/>
</a>
</g>
</g>
<!-- Node3 -->
<g id="Node000003" class="node">
<title>Node3</title>
<g id="a_Node000003"><a xlink:href="class_fiea_1_1_engine_1_1_content_1_1_float_parse_handler.html#abc4c8eb2ad52cd9ebdafba350e9a58d7" target="_top" xlink:title=" ">
<polygon fill="white" stroke="#666666" points="125.12,-256 13.88,-256 13.88,-212 125.12,-212 125.12,-256"/>
<text text-anchor="start" x="21.88" y="-242.5" font-family="Helvetica,sans-Serif" font-size="10.00">Fiea::Engine::Content</text>
<text text-anchor="start" x="21.88" y="-230.5" font-family="Helvetica,sans-Serif" font-size="10.00">::FloatParseHandler::</text>
<text text-anchor="middle" x="69.5" y="-218.5" font-family="Helvetica,sans-Serif" font-size="10.00">EnterKey</text>
</a>
</g>
</g>
<!-- Node1&#45;&gt;Node3 -->
<g id="edge2_Node000001_Node000003" class="edge">
<title>Node1&#45;&gt;Node3</title>
<g id="a_edge2_Node000001_Node000003"><a xlink:title=" ">
<path fill="none" stroke="#63b8ff" d="M190.67,-179.96C167.86,-190.22 142.13,-201.79 120.35,-211.58"/>
<polygon fill="#63b8ff" stroke="#63b8ff" points="191.86,-183.26 199.55,-175.97 188.99,-176.88 191.86,-183.26"/>
</a>
</g>
</g>
<!-- Node4 -->
<g id="Node000004" class="node">
<title>Node4</title>
<g id="a_Node000004"><a xlink:href="class_fiea_1_1_engine_1_1_content_1_1_int_parse_handler.html#aa99263839bdc482fcd4a5874ef682029" target="_top" xlink:title=" ">
<polygon fill="white" stroke="#666666" points="139,-194 0,-194 0,-162 139,-162 139,-194"/>
<text text-anchor="start" x="8" y="-180.5" font-family="Helvetica,sans-Serif" font-size="10.00">Fiea::Engine::Content</text>
<text text-anchor="middle" x="69.5" y="-168.5" font-family="Helvetica,sans-Serif" font-size="10.00">::IntParseHandler::EnterKey</text>
</a>
</g>
</g>
<!-- Node1&#45;&gt;Node4 -->
<g id="edge3_Node000001_Node000004" class="edge">
<title>Node1&#45;&gt;Node4</title>
<g id="a_edge3_Node000001_Node000004"><a xlink:title=" ">
<path fill="none" stroke="#63b8ff" d="M163.41,-165.1C155.35,-166.22 147.26,-167.35 139.4,-168.44"/>
<polygon fill="#63b8ff" stroke="#63b8ff" points="163.83,-168.58 173.26,-163.74 162.87,-161.65 163.83,-168.58"/>
</a>
</g>
</g>
<!-- Node5 -->
<g id="Node000005" class="node">
<title>Node5</title>
<g id="a_Node000005"><a xlink:href="class_fiea_1_1_engine_1_1_content_1_1_matrix_handler.html#af6b07a2232dbc15a91484634a6881499" target="_top" xlink:title=" ">
<polygon fill="white" stroke="#666666" points="134.12,-144 4.88,-144 4.88,-112 134.12,-112 134.12,-144"/>
<text text-anchor="start" x="12.88" y="-130.5" font-family="Helvetica,sans-Serif" font-size="10.00">Fiea::Engine::Content</text>
<text text-anchor="middle" x="69.5" y="-118.5" font-family="Helvetica,sans-Serif" font-size="10.00">::MatrixHandler::EnterKey</text>
</a>
</g>
</g>
<!-- Node1&#45;&gt;Node5 -->
<g id="edge4_Node000001_Node000005" class="edge">
<title>Node1&#45;&gt;Node5</title>
<g id="a_edge4_Node000001_Node000005"><a xlink:title=" ">
<path fill="none" stroke="#63b8ff" d="M163.41,-140.89C153.7,-139.55 143.94,-138.19 134.6,-136.9"/>
<polygon fill="#63b8ff" stroke="#63b8ff" points="162.87,-144.35 173.26,-142.26 163.83,-137.42 162.87,-144.35"/>
</a>
</g>
</g>
<!-- Node6 -->
<g id="Node000006" class="node">
<title>Node6</title>
<g id="a_Node000006"><a xlink:href="class_fiea_1_1_engine_1_1_content_1_1_string_parse_handler.html#a6e8f0ecc1992ee741847c1ad14069a30" target="_top" xlink:title=" ">
<polygon fill="white" stroke="#666666" points="125.12,-94 13.88,-94 13.88,-50 125.12,-50 125.12,-94"/>
<text text-anchor="start" x="21.88" y="-80.5" font-family="Helvetica,sans-Serif" font-size="10.00">Fiea::Engine::Content</text>
<text text-anchor="start" x="21.88" y="-68.5" font-family="Helvetica,sans-Serif" font-size="10.00">::StringParseHandler</text>
<text text-anchor="middle" x="69.5" y="-56.5" font-family="Helvetica,sans-Serif" font-size="10.00">::EnterKey</text>
</a>
</g>
</g>
<!-- Node1&#45;&gt;Node6 -->
<g id="edge5_Node000001_Node000006" class="edge">
<title>Node1&#45;&gt;Node6</title>
<g id="a_edge5_Node000001_Node000006"><a xlink:title=" ">
<path fill="none" stroke="#63b8ff" d="M190.67,-126.04C167.86,-115.78 142.13,-104.21 120.35,-94.42"/>
<polygon fill="#63b8ff" stroke="#63b8ff" points="188.99,-129.12 199.55,-130.03 191.86,-122.74 188.99,-129.12"/>
</a>
</g>
</g>
<!-- Node7 -->
<g id="Node000007" class="node">
<title>Node7</title>
<g id="a_Node000007"><a xlink:href="class_fiea_1_1_engine_1_1_content_1_1_vector_handler.html#a79774cea459da02c0eb57bcf2ca84821" target="_top" xlink:title=" ">
<polygon fill="white" stroke="#666666" points="134.5,-32 4.5,-32 4.5,0 134.5,0 134.5,-32"/>
<text text-anchor="start" x="12.5" y="-18.5" font-family="Helvetica,sans-Serif" font-size="10.00">Fiea::Engine::Content</text>
<text text-anchor="middle" x="69.5" y="-6.5" font-family="Helvetica,sans-Serif" font-size="10.00">::VectorHandler::EnterKey</text>
</a>
</g>
</g>
<!-- Node1&#45;&gt;Node7 -->
<g id="edge6_Node000001_Node000007" class="edge">
<title>Node1&#45;&gt;Node7</title>
<g id="a_edge6_Node000001_Node000007"><a xlink:title=" ">
<path fill="none" stroke="#63b8ff" d="M226.38,-122.07C205.51,-97.23 173.41,-62.98 139,-41 133.99,-37.8 128.5,-34.93 122.9,-32.38"/>
<polygon fill="#63b8ff" stroke="#63b8ff" points="223.51,-124.09 232.58,-129.58 228.92,-119.64 223.51,-124.09"/>
</a>
</g>
</g>
</g>
</svg>
