<?xml version="1.0" encoding="UTF-8" standalone="no"?>
<!DOCTYPE svg PUBLIC "-//W3C//DTD SVG 1.1//EN"
 "http://www.w3.org/Graphics/SVG/1.1/DTD/svg11.dtd">
<!-- Generated by graphviz version 12.2.1 (20241206.2353)
 -->
<!-- Title: Fiea::Engine::Content::Datum::Size Pages: 1 -->
<svg width="835pt" height="800pt"
 viewBox="0.00 0.00 835.00 800.00" xmlns="http://www.w3.org/2000/svg" xmlns:xlink="http://www.w3.org/1999/xlink">
<g id="graph0" class="graph" transform="scale(1 1) rotate(0) translate(4 796)">
<title>Fiea::Engine::Content::Datum::Size</title>
<!-- Node1 -->
<g id="Node000001" class="node">
<title>Node1</title>
<g id="a_Node000001"><a xlink:title=" ">
<polygon fill="#999999" stroke="#666666" points="827,-301 715.75,-301 715.75,-269 827,-269 827,-301"/>
<text text-anchor="start" x="723.75" y="-287.5" font-family="Helvetica,sans-Serif" font-size="10.00">Fiea::Engine::Content</text>
<text text-anchor="middle" x="771.38" y="-275.5" font-family="Helvetica,sans-Serif" font-size="10.00">::Datum::Size</text>
</a>
</g>
</g>
<!-- Node2 -->
<g id="Node000002" class="node">
<title>Node2</title>
<g id="a_Node000002"><a xlink:href="class_fiea_1_1_engine_1_1_content_1_1_actions_1_1_action_list.html#a61d6676694ddead07acc69a9dea0da24" target="_top" xlink:title="Init is called as the action is starting, Usually we put all the code that needs to run once....">
<polygon fill="white" stroke="#666666" points="665.12,-645 541.12,-645 541.12,-613 665.12,-613 665.12,-645"/>
<text text-anchor="start" x="549.12" y="-631.5" font-family="Helvetica,sans-Serif" font-size="10.00">Fiea::Engine::Content</text>
<text text-anchor="middle" x="603.12" y="-619.5" font-family="Helvetica,sans-Serif" font-size="10.00">::Actions::ActionList::Init</text>
</a>
</g>
</g>
<!-- Node1&#45;&gt;Node2 -->
<g id="edge1_Node000001_Node000002" class="edge">
<title>Node1&#45;&gt;Node2</title>
<g id="a_edge1_Node000001_Node000002"><a xlink:title=" ">
<path fill="none" stroke="#63b8ff" d="M770.69,-312.85C769.84,-374 759.13,-521.17 679.75,-604 675.64,-608.29 670.77,-611.85 665.52,-614.79"/>
<polygon fill="#63b8ff" stroke="#63b8ff" points="774.19,-313.01 770.74,-303 767.19,-312.98 774.19,-313.01"/>
</a>
</g>
</g>
<!-- Node3 -->
<g id="Node000003" class="node">
<title>Node3</title>
<g id="a_Node000003"><a xlink:href="class_fiea_1_1_engine_1_1_content_1_1_datum.html#a85505c22dfd7e858fe2f1868715e3812" target="_top" xlink:title=" ">
<polygon fill="white" stroke="#666666" points="658.75,-595 547.5,-595 547.5,-563 658.75,-563 658.75,-595"/>
<text text-anchor="start" x="555.5" y="-581.5" font-family="Helvetica,sans-Serif" font-size="10.00">Fiea::Engine::Content</text>
<text text-anchor="middle" x="603.12" y="-569.5" font-family="Helvetica,sans-Serif" font-size="10.00">::Datum::Push</text>
</a>
</g>
</g>
<!-- Node1&#45;&gt;Node3 -->
<g id="edge2_Node000001_Node000003" class="edge">
<title>Node1&#45;&gt;Node3</title>
<g id="a_edge2_Node000001_Node000003"><a xlink:title=" ">
<path fill="none" stroke="#63b8ff" d="M768.96,-312.53C764.7,-366.42 747.67,-486.46 679.75,-554 673.87,-559.85 666.59,-564.33 658.89,-567.76"/>
<polygon fill="#63b8ff" stroke="#63b8ff" points="772.44,-312.92 769.63,-302.71 765.45,-312.44 772.44,-312.92"/>
</a>
</g>
</g>
<!-- Node4 -->
<g id="Node000004" class="node">
<title>Node4</title>
<g id="a_Node000004"><a xlink:href="class_fiea_1_1_engine_1_1_content_1_1_datum.html#ab7bb44684e4d83d0842c3474def99b7f" target="_top" xlink:title=" ">
<polygon fill="white" stroke="#666666" points="658.75,-545 547.5,-545 547.5,-513 658.75,-513 658.75,-545"/>
<text text-anchor="start" x="555.5" y="-531.5" font-family="Helvetica,sans-Serif" font-size="10.00">Fiea::Engine::Content</text>
<text text-anchor="middle" x="603.12" y="-519.5" font-family="Helvetica,sans-Serif" font-size="10.00">::Datum::Push</text>
</a>
</g>
</g>
<!-- Node1&#45;&gt;Node4 -->
<g id="edge3_Node000001_Node000004" class="edge">
<title>Node1&#45;&gt;Node4</title>
<g id="a_edge3_Node000001_Node000004"><a xlink:title=" ">
<path fill="none" stroke="#63b8ff" d="M766.49,-312.54C758.55,-358.64 736.19,-451.54 679.75,-504 673.77,-509.55 666.54,-513.88 658.93,-517.24"/>
<polygon fill="#63b8ff" stroke="#63b8ff" points="769.92,-313.29 768.05,-302.86 763,-312.18 769.92,-313.29"/>
</a>
</g>
</g>
<!-- Node5 -->
<g id="Node000005" class="node">
<title>Node5</title>
<g id="a_Node000005"><a xlink:href="class_fiea_1_1_engine_1_1_content_1_1_datum.html#a4ccb082ce85390925305f19a24daaed8" target="_top" xlink:title="This function is for pushing an element at the back of the data union array. It is using a universal ...">
<polygon fill="white" stroke="#666666" points="658.75,-495 547.5,-495 547.5,-463 658.75,-463 658.75,-495"/>
<text text-anchor="start" x="555.5" y="-481.5" font-family="Helvetica,sans-Serif" font-size="10.00">Fiea::Engine::Content</text>
<text text-anchor="middle" x="603.12" y="-469.5" font-family="Helvetica,sans-Serif" font-size="10.00">::Datum::Push</text>
</a>
</g>
</g>
<!-- Node1&#45;&gt;Node5 -->
<g id="edge4_Node000001_Node000005" class="edge">
<title>Node1&#45;&gt;Node5</title>
<g id="a_edge4_Node000001_Node000005"><a xlink:title=" ">
<path fill="none" stroke="#63b8ff" d="M749.04,-309.9C714.48,-350.23 647.19,-428.75 618.09,-462.7"/>
<polygon fill="#63b8ff" stroke="#63b8ff" points="751.65,-312.23 755.5,-302.36 746.34,-307.67 751.65,-312.23"/>
</a>
</g>
</g>
<!-- Node11 -->
<g id="Node000011" class="node">
<title>Node11</title>
<g id="a_Node000011"><a xlink:href="class_fiea_1_1_engine_1_1_content_1_1_scope_writer.html#adb1089ed0ff92fae8826810cef43e447" target="_top" xlink:title=" ">
<polygon fill="white" stroke="#666666" points="299,-642 167.5,-642 167.5,-610 299,-610 299,-642"/>
<text text-anchor="start" x="175.5" y="-628.5" font-family="Helvetica,sans-Serif" font-size="10.00">Fiea::Engine::Content</text>
<text text-anchor="middle" x="233.25" y="-616.5" font-family="Helvetica,sans-Serif" font-size="10.00">::ScopeWriter::PushScope</text>
</a>
</g>
</g>
<!-- Node1&#45;&gt;Node11 -->
<g id="edge21_Node000001_Node000011" class="edge">
<title>Node1&#45;&gt;Node11</title>
<g id="a_edge21_Node000001_Node000011"><a xlink:title=" ">
<path fill="none" stroke="#63b8ff" d="M740.46,-308.2C723.57,-320.04 701.53,-333.5 679.75,-341 606.87,-366.1 396.51,-332.56 335,-379 257.93,-437.18 239.57,-564.43 235.41,-609.65"/>
<polygon fill="#63b8ff" stroke="#63b8ff" points="742.49,-311.05 748.54,-302.36 738.39,-305.38 742.49,-311.05"/>
</a>
</g>
</g>
<!-- Node28 -->
<g id="Node000028" class="node">
<title>Node28</title>
<g id="a_Node000028"><a xlink:href="class_fiea_1_1_engine_1_1_content_1_1_actions_1_1_action_list.html#a174321b3790604e933b2210235d2c62a" target="_top" xlink:title="Resets the actions owned by the list.">
<polygon fill="white" stroke="#666666" points="659.12,-332 547.12,-332 547.12,-288 659.12,-288 659.12,-332"/>
<text text-anchor="start" x="555.12" y="-318.5" font-family="Helvetica,sans-Serif" font-size="10.00">Fiea::Engine::Content</text>
<text text-anchor="start" x="555.12" y="-306.5" font-family="Helvetica,sans-Serif" font-size="10.00">::Actions::ActionList</text>
<text text-anchor="middle" x="603.12" y="-294.5" font-family="Helvetica,sans-Serif" font-size="10.00">::ResetOwnedActions</text>
</a>
</g>
</g>
<!-- Node1&#45;&gt;Node28 -->
<g id="edge22_Node000001_Node000028" class="edge">
<title>Node1&#45;&gt;Node28</title>
<g id="a_edge22_Node000001_Node000028"><a xlink:title=" ">
<path fill="none" stroke="#63b8ff" d="M704.31,-294.93C689.48,-297.17 673.88,-299.51 659.53,-301.67"/>
<polygon fill="#63b8ff" stroke="#63b8ff" points="704.61,-298.43 713.98,-293.48 703.57,-291.51 704.61,-298.43"/>
</a>
</g>
</g>
<!-- Node31 -->
<g id="Node000031" class="node">
<title>Node31</title>
<g id="a_Node000031"><a xlink:href="class_fiea_1_1_engine_1_1_content_1_1_actions_1_1_delayed_action.html#a2f06440518f0083c5302251ba2d5e3c0" target="_top" xlink:title="Checks if the delay is over. And executes the actions until they all are over.">
<polygon fill="white" stroke="#666666" points="487.12,-208 338.38,-208 338.38,-176 487.12,-176 487.12,-208"/>
<text text-anchor="start" x="346.38" y="-194.5" font-family="Helvetica,sans-Serif" font-size="10.00">Fiea::Engine::Content</text>
<text text-anchor="middle" x="412.75" y="-182.5" font-family="Helvetica,sans-Serif" font-size="10.00">::Actions::DelayedAction::Run</text>
</a>
</g>
</g>
<!-- Node1&#45;&gt;Node31 -->
<g id="edge27_Node000001_Node000031" class="edge">
<title>Node1&#45;&gt;Node31</title>
<g id="a_edge27_Node000001_Node000031"><a xlink:title=" ">
<path fill="none" stroke="#63b8ff" d="M703.96,-280.38C653.74,-275.16 583.88,-264.13 526.5,-241 508.67,-233.81 507.8,-225.39 490.5,-217 484.07,-213.88 477.15,-211.01 470.2,-208.42"/>
<polygon fill="#63b8ff" stroke="#63b8ff" points="703.53,-283.86 713.82,-281.35 704.21,-276.89 703.53,-283.86"/>
</a>
</g>
</g>
<!-- Node32 -->
<g id="Node000032" class="node">
<title>Node32</title>
<g id="a_Node000032"><a xlink:href="class_fiea_1_1_engine_1_1_content_1_1_actions_1_1_action_list.html#ad7daf7d0f6bb5b868c4cb602aaf8a236" target="_top" xlink:title="Any code that we want to run recursively goes here. It returns false if it needs to run one more iter...">
<polygon fill="white" stroke="#666666" points="667.38,-232 538.88,-232 538.88,-200 667.38,-200 667.38,-232"/>
<text text-anchor="start" x="546.88" y="-218.5" font-family="Helvetica,sans-Serif" font-size="10.00">Fiea::Engine::Content</text>
<text text-anchor="middle" x="603.12" y="-206.5" font-family="Helvetica,sans-Serif" font-size="10.00">::Actions::ActionList::Run</text>
</a>
</g>
</g>
<!-- Node1&#45;&gt;Node32 -->
<g id="edge26_Node000001_Node000032" class="edge">
<title>Node1&#45;&gt;Node32</title>
<g id="a_edge26_Node000001_Node000032"><a xlink:title=" ">
<path fill="none" stroke="#63b8ff" d="M722.72,-264.19C708.9,-258.23 693.75,-251.79 679.75,-246 668.92,-241.52 657.16,-236.79 646.21,-232.45"/>
<polygon fill="#63b8ff" stroke="#63b8ff" points="721.04,-267.27 731.61,-268.03 723.82,-260.85 721.04,-267.27"/>
</a>
</g>
</g>
<!-- Node33 -->
<g id="Node000033" class="node">
<title>Node33</title>
<g id="a_Node000033"><a xlink:href="class_fiea_1_1_engine_1_1_content_1_1_actions_1_1_timed_action.html#acaf7a9c271c20baaeeb15b4fa713f323" target="_top" xlink:title="Executes all the actions the TimedAction contains. It checks if the current time is less than the tar...">
<polygon fill="white" stroke="#666666" points="673,-182 533.25,-182 533.25,-150 673,-150 673,-182"/>
<text text-anchor="start" x="541.25" y="-168.5" font-family="Helvetica,sans-Serif" font-size="10.00">Fiea::Engine::Content</text>
<text text-anchor="middle" x="603.12" y="-156.5" font-family="Helvetica,sans-Serif" font-size="10.00">::Actions::TimedAction::Run</text>
</a>
</g>
</g>
<!-- Node1&#45;&gt;Node33 -->
<g id="edge28_Node000001_Node000033" class="edge">
<title>Node1&#45;&gt;Node33</title>
<g id="a_edge28_Node000001_Node000033"><a xlink:title=" ">
<path fill="none" stroke="#63b8ff" d="M751.73,-259.68C735.01,-238.61 708.7,-209.21 679.75,-191 674.6,-187.76 668.99,-184.9 663.22,-182.37"/>
<polygon fill="#63b8ff" stroke="#63b8ff" points="748.9,-261.74 757.79,-267.51 754.44,-257.46 748.9,-261.74"/>
</a>
</g>
</g>
<!-- Node34 -->
<g id="Node000034" class="node">
<title>Node34</title>
<g id="a_Node000034"><a xlink:href="class_fiea_1_1_engine_1_1_content_1_1_actions_1_1_while_action_list.html#a87d627d5c0691325cb255ad15934e5d8" target="_top" xlink:title="The logic that needs to run repetitively.">
<polygon fill="white" stroke="#666666" points="679.75,-132 526.5,-132 526.5,-100 679.75,-100 679.75,-132"/>
<text text-anchor="start" x="534.5" y="-118.5" font-family="Helvetica,sans-Serif" font-size="10.00">Fiea::Engine::Content</text>
<text text-anchor="middle" x="603.12" y="-106.5" font-family="Helvetica,sans-Serif" font-size="10.00">::Actions::WhileActionList::Run</text>
</a>
</g>
</g>
<!-- Node1&#45;&gt;Node34 -->
<g id="edge29_Node000001_Node000034" class="edge">
<title>Node1&#45;&gt;Node34</title>
<g id="a_edge29_Node000001_Node000034"><a xlink:title=" ">
<path fill="none" stroke="#63b8ff" d="M760.16,-258.13C746.55,-225.84 719.49,-172.11 679.75,-141 675.61,-137.76 671.04,-134.93 666.24,-132.46"/>
<polygon fill="#63b8ff" stroke="#63b8ff" points="756.83,-259.24 763.84,-267.19 763.31,-256.61 756.83,-259.24"/>
</a>
</g>
</g>
<!-- Node35 -->
<g id="Node000035" class="node">
<title>Node35</title>
<g id="a_Node000035"><a xlink:href="class_fiea_1_1_engine_1_1_content_1_1_datum.html#a5838035e273bc8ab707554992f07ab2e" target="_top" xlink:title=" ">
<polygon fill="white" stroke="#666666" points="658.75,-82 547.5,-82 547.5,-50 658.75,-50 658.75,-82"/>
<text text-anchor="start" x="555.5" y="-68.5" font-family="Helvetica,sans-Serif" font-size="10.00">Fiea::Engine::Content</text>
<text text-anchor="middle" x="603.12" y="-56.5" font-family="Helvetica,sans-Serif" font-size="10.00">::Datum::SetMaxSize</text>
</a>
</g>
</g>
<!-- Node1&#45;&gt;Node35 -->
<g id="edge30_Node000001_Node000035" class="edge">
<title>Node1&#45;&gt;Node35</title>
<g id="a_edge30_Node000001_Node000035"><a xlink:title=" ">
<path fill="none" stroke="#63b8ff" d="M764.86,-257.61C755.03,-215.8 730.57,-136.16 679.75,-91 673.75,-85.67 666.59,-81.48 659.1,-78.17"/>
<polygon fill="#63b8ff" stroke="#63b8ff" points="761.38,-258.1 766.97,-267.1 768.21,-256.58 761.38,-258.1"/>
</a>
</g>
</g>
<!-- Node37 -->
<g id="Node000037" class="node">
<title>Node37</title>
<g id="a_Node000037"><a xlink:href="namespace_fiea_1_1_engine_1_1_tests.html#a15040015fac83efdce86366a293948ae" target="_top" xlink:title=" ">
<polygon fill="white" stroke="#666666" points="653.5,-32 552.75,-32 552.75,0 653.5,0 653.5,-32"/>
<text text-anchor="start" x="560.75" y="-18.5" font-family="Helvetica,sans-Serif" font-size="10.00">Fiea::Engine::Tests</text>
<text text-anchor="middle" x="603.12" y="-6.5" font-family="Helvetica,sans-Serif" font-size="10.00">::TEST_CLASS</text>
</a>
</g>
</g>
<!-- Node1&#45;&gt;Node37 -->
<g id="edge32_Node000001_Node000037" class="edge">
<title>Node1&#45;&gt;Node37</title>
<g id="a_edge32_Node000001_Node000037"><a xlink:title=" ">
<path fill="none" stroke="#63b8ff" d="M767.85,-257.57C761.8,-207.51 741.96,-100.98 679.75,-41 672.48,-33.99 663.21,-28.95 653.67,-25.32"/>
<polygon fill="#63b8ff" stroke="#63b8ff" points="764.34,-257.68 768.92,-267.24 771.3,-256.91 764.34,-257.68"/>
</a>
</g>
</g>
<!-- Node6 -->
<g id="Node000006" class="node">
<title>Node6</title>
<g id="a_Node000006"><a xlink:href="class_fiea_1_1_engine_1_1_content_1_1_scope.html#abf39accc1ce38b12bcbc6884ba0165e3" target="_top" xlink:title="You can provide a child scope that you wish this scope to adopt. You should not adopt a scope if it a...">
<polygon fill="#fff0f0" stroke="red" points="468.38,-770 357.12,-770 357.12,-738 468.38,-738 468.38,-770"/>
<text text-anchor="start" x="365.12" y="-756.5" font-family="Helvetica,sans-Serif" font-size="10.00">Fiea::Engine::Content</text>
<text text-anchor="middle" x="412.75" y="-744.5" font-family="Helvetica,sans-Serif" font-size="10.00">::Scope::Adopt</text>
</a>
</g>
</g>
<!-- Node5&#45;&gt;Node6 -->
<g id="edge5_Node000005_Node000006" class="edge">
<title>Node5&#45;&gt;Node6</title>
<g id="a_edge5_Node000005_Node000006"><a xlink:title=" ">
<path fill="none" stroke="#63b8ff" d="M537.32,-494.51C533.3,-497.19 529.63,-500.33 526.5,-504 460.87,-581.12 556.3,-652.02 490.5,-729 484.67,-735.82 476.96,-740.79 468.67,-744.41"/>
<polygon fill="#63b8ff" stroke="#63b8ff" points="538.83,-497.68 545.91,-489.79 535.46,-491.55 538.83,-497.68"/>
</a>
</g>
</g>
<!-- Node16 -->
<g id="Node000016" class="node">
<title>Node16</title>
<g id="a_Node000016"><a xlink:href="class_fiea_1_1_engine_1_1_content_1_1_scope_writer.html#a2ed39f31d26f92f8d74c13b4fc466f77" target="_top" xlink:title="This function should be called for ading string, float or ints into the Scope. Any other data type wo...">
<polygon fill="#fff0f0" stroke="red" points="469.88,-720 355.62,-720 355.62,-688 469.88,-688 469.88,-720"/>
<text text-anchor="start" x="363.62" y="-706.5" font-family="Helvetica,sans-Serif" font-size="10.00">Fiea::Engine::Content</text>
<text text-anchor="middle" x="412.75" y="-694.5" font-family="Helvetica,sans-Serif" font-size="10.00">::ScopeWriter::Append</text>
</a>
</g>
</g>
<!-- Node5&#45;&gt;Node16 -->
<g id="edge14_Node000005_Node000016" class="edge">
<title>Node5&#45;&gt;Node16</title>
<g id="a_edge14_Node000005_Node000016"><a xlink:title=" ">
<path fill="none" stroke="#63b8ff" d="M537.31,-494.8C533.32,-497.41 529.65,-500.46 526.5,-504 473.71,-563.32 543.42,-619.8 490.5,-679 484.99,-685.16 477.94,-689.82 470.36,-693.32"/>
<polygon fill="#63b8ff" stroke="#63b8ff" points="538.67,-498.04 545.77,-490.18 535.31,-491.9 538.67,-498.04"/>
</a>
</g>
</g>
<!-- Node22 -->
<g id="Node000022" class="node">
<title>Node22</title>
<g id="a_Node000022"><a xlink:href="class_fiea_1_1_engine_1_1_content_1_1_datum.html#a07e356344548914a00b0f3af50593743" target="_top" xlink:title=" ">
<polygon fill="white" stroke="#666666" points="468.38,-670 357.12,-670 357.12,-638 468.38,-638 468.38,-670"/>
<text text-anchor="start" x="365.12" y="-656.5" font-family="Helvetica,sans-Serif" font-size="10.00">Fiea::Engine::Content</text>
<text text-anchor="middle" x="412.75" y="-644.5" font-family="Helvetica,sans-Serif" font-size="10.00">::Datum::Datum</text>
</a>
</g>
</g>
<!-- Node5&#45;&gt;Node22 -->
<g id="edge15_Node000005_Node000022" class="edge">
<title>Node5&#45;&gt;Node22</title>
<g id="a_edge15_Node000005_Node000022"><a xlink:title=" ">
<path fill="none" stroke="#63b8ff" d="M537.08,-495.42C533.23,-497.89 529.65,-500.73 526.5,-504 486.42,-545.67 530.67,-587.42 490.5,-629 484.46,-635.25 476.85,-639.94 468.77,-643.45"/>
<polygon fill="#63b8ff" stroke="#63b8ff" points="538.65,-498.55 545.8,-490.73 535.33,-492.38 538.65,-498.55"/>
</a>
</g>
</g>
<!-- Node23 -->
<g id="Node000023" class="node">
<title>Node23</title>
<g id="a_Node000023"><a xlink:href="class_fiea_1_1_engine_1_1_content_1_1_datum.html#a5594d9dd3a0a4b365bcbb2aa5db4e94f" target="_top" xlink:title=" ">
<polygon fill="white" stroke="#666666" points="468.38,-620 357.12,-620 357.12,-588 468.38,-588 468.38,-620"/>
<text text-anchor="start" x="365.12" y="-606.5" font-family="Helvetica,sans-Serif" font-size="10.00">Fiea::Engine::Content</text>
<text text-anchor="middle" x="412.75" y="-594.5" font-family="Helvetica,sans-Serif" font-size="10.00">::Datum::Datum</text>
</a>
</g>
</g>
<!-- Node5&#45;&gt;Node23 -->
<g id="edge16_Node000005_Node000023" class="edge">
<title>Node5&#45;&gt;Node23</title>
<g id="a_edge16_Node000005_Node000023"><a xlink:title=" ">
<path fill="none" stroke="#63b8ff" d="M536.95,-496.47C533.22,-498.69 529.7,-501.19 526.5,-504 498.73,-528.42 518.32,-554.65 490.5,-579 484.17,-584.54 476.6,-588.85 468.7,-592.22"/>
<polygon fill="#63b8ff" stroke="#63b8ff" points="538.54,-499.59 545.85,-491.92 535.35,-493.36 538.54,-499.59"/>
</a>
</g>
</g>
<!-- Node24 -->
<g id="Node000024" class="node">
<title>Node24</title>
<g id="a_Node000024"><a xlink:href="class_fiea_1_1_engine_1_1_content_1_1_actions_1_1_preamble_action.html#a44a59e04e805964256440543040d2aee" target="_top" xlink:title="Searches for the variable that needs to be initialized and sets the value. Returns true because there...">
<polygon fill="white" stroke="#666666" points="487.5,-570 338,-570 338,-538 487.5,-538 487.5,-570"/>
<text text-anchor="start" x="346" y="-556.5" font-family="Helvetica,sans-Serif" font-size="10.00">Fiea::Engine::Content</text>
<text text-anchor="middle" x="412.75" y="-544.5" font-family="Helvetica,sans-Serif" font-size="10.00">::Actions::PreambleAction::Init</text>
</a>
</g>
</g>
<!-- Node5&#45;&gt;Node24 -->
<g id="edge17_Node000005_Node000024" class="edge">
<title>Node5&#45;&gt;Node24</title>
<g id="a_edge17_Node000005_Node000024"><a xlink:title=" ">
<path fill="none" stroke="#63b8ff" d="M536.67,-499.3C533.19,-500.8 529.78,-502.36 526.5,-504 509.07,-512.7 507.95,-520.34 490.5,-529 484.22,-532.12 477.47,-534.97 470.67,-537.54"/>
<polygon fill="#63b8ff" stroke="#63b8ff" points="537.87,-502.59 545.85,-495.62 535.26,-496.1 537.87,-502.59"/>
</a>
</g>
</g>
<!-- Node25 -->
<g id="Node000025" class="node">
<title>Node25</title>
<g id="a_Node000025"><a xlink:href="class_fiea_1_1_engine_1_1_tests_1_1_support_1_1_action_add_datum.html#a8038baa36384ba9702596cbe3e41780e" target="_top" xlink:title=" ">
<polygon fill="white" stroke="#666666" points="490.5,-520 335,-520 335,-488 490.5,-488 490.5,-520"/>
<text text-anchor="start" x="343" y="-506.5" font-family="Helvetica,sans-Serif" font-size="10.00">Fiea::Engine::Tests</text>
<text text-anchor="middle" x="412.75" y="-494.5" font-family="Helvetica,sans-Serif" font-size="10.00">::Support::ActionAddDatum::Init</text>
</a>
</g>
</g>
<!-- Node5&#45;&gt;Node25 -->
<g id="edge18_Node000005_Node000025" class="edge">
<title>Node5&#45;&gt;Node25</title>
<g id="a_edge18_Node000005_Node000025"><a xlink:title=" ">
<path fill="none" stroke="#63b8ff" d="M535.73,-487.81C521.22,-489.74 505.75,-491.79 490.86,-493.77"/>
<polygon fill="#63b8ff" stroke="#63b8ff" points="536.18,-491.28 545.63,-486.5 535.26,-484.34 536.18,-491.28"/>
</a>
</g>
</g>
<!-- Node26 -->
<g id="Node000026" class="node">
<title>Node26</title>
<g id="a_Node000026"><a xlink:href="class_fiea_1_1_engine_1_1_content_1_1_datum.html#a5470e7bc6508298cedbf1f200c765493" target="_top" xlink:title="Push a value of type T into the array in the data union. User has to explicitly pass in the template ...">
<polygon fill="white" stroke="#666666" points="476.62,-470 348.88,-470 348.88,-438 476.62,-438 476.62,-470"/>
<text text-anchor="start" x="356.88" y="-456.5" font-family="Helvetica,sans-Serif" font-size="10.00">Fiea::Engine::Content</text>
<text text-anchor="middle" x="412.75" y="-444.5" font-family="Helvetica,sans-Serif" font-size="10.00">::Datum::PushFromString</text>
</a>
</g>
</g>
<!-- Node5&#45;&gt;Node26 -->
<g id="edge19_Node000005_Node000026" class="edge">
<title>Node5&#45;&gt;Node26</title>
<g id="a_edge19_Node000005_Node000026"><a xlink:title=" ">
<path fill="none" stroke="#63b8ff" d="M535.82,-470.2C516.74,-467.67 495.99,-464.91 477.1,-462.41"/>
<polygon fill="#63b8ff" stroke="#63b8ff" points="535.26,-473.66 545.63,-471.5 536.18,-466.72 535.26,-473.66"/>
</a>
</g>
</g>
<!-- Node27 -->
<g id="Node000027" class="node">
<title>Node27</title>
<g id="a_Node000027"><a xlink:href="namespace_fiea_1_1_engine_1_1_tests.html#a0767a5dea6dd506e0dca7a9f54bd5ad2" target="_top" xlink:title=" ">
<polygon fill="white" stroke="#666666" points="463.12,-420 362.38,-420 362.38,-388 463.12,-388 463.12,-420"/>
<text text-anchor="start" x="370.38" y="-406.5" font-family="Helvetica,sans-Serif" font-size="10.00">Fiea::Engine::Tests</text>
<text text-anchor="middle" x="412.75" y="-394.5" font-family="Helvetica,sans-Serif" font-size="10.00">::TEST_CLASS</text>
</a>
</g>
</g>
<!-- Node5&#45;&gt;Node27 -->
<g id="edge20_Node000005_Node000027" class="edge">
<title>Node5&#45;&gt;Node27</title>
<g id="a_edge20_Node000005_Node000027"><a xlink:title=" ">
<path fill="none" stroke="#63b8ff" d="M557.64,-457.77C537.37,-448.44 512.94,-437.65 490.5,-429 481.87,-425.67 472.59,-422.4 463.57,-419.37"/>
<polygon fill="#63b8ff" stroke="#63b8ff" points="555.91,-460.83 566.46,-461.86 558.86,-454.48 555.91,-460.83"/>
</a>
</g>
</g>
<!-- Node7 -->
<g id="Node000007" class="node">
<title>Node7</title>
<g id="a_Node000007"><a xlink:href="class_fiea_1_1_engine_1_1_game_object.html#a86ede0bbc21133ffa8f398b0636c8b52" target="_top" xlink:title=" ">
<polygon fill="white" stroke="#666666" points="299,-792 167.5,-792 167.5,-760 299,-760 299,-792"/>
<text text-anchor="start" x="175.5" y="-778.5" font-family="Helvetica,sans-Serif" font-size="10.00">Fiea::Engine::GameObject</text>
<text text-anchor="middle" x="233.25" y="-766.5" font-family="Helvetica,sans-Serif" font-size="10.00">::AddAction</text>
</a>
</g>
</g>
<!-- Node6&#45;&gt;Node7 -->
<g id="edge6_Node000006_Node000007" class="edge">
<title>Node6&#45;&gt;Node7</title>
<g id="a_edge6_Node000006_Node000007"><a xlink:title=" ">
<path fill="none" stroke="#63b8ff" d="M345.69,-762.19C330.55,-764.06 314.47,-766.06 299.37,-767.93"/>
<polygon fill="#63b8ff" stroke="#63b8ff" points="346.05,-765.67 355.54,-760.97 345.19,-758.72 346.05,-765.67"/>
</a>
</g>
</g>
<!-- Node10 -->
<g id="Node000010" class="node">
<title>Node10</title>
<g id="a_Node000010"><a xlink:href="class_fiea_1_1_engine_1_1_content_1_1_scope_writer.html#a4488fbd92e0706a1207e15a40dac7e22" target="_top" xlink:title=" ">
<polygon fill="white" stroke="#666666" points="131.5,-748 0,-748 0,-716 131.5,-716 131.5,-748"/>
<text text-anchor="start" x="8" y="-734.5" font-family="Helvetica,sans-Serif" font-size="10.00">Fiea::Engine::Content</text>
<text text-anchor="middle" x="65.75" y="-722.5" font-family="Helvetica,sans-Serif" font-size="10.00">::ScopeWriter::PushScope</text>
</a>
</g>
</g>
<!-- Node6&#45;&gt;Node10 -->
<g id="edge7_Node000006_Node000010" class="edge">
<title>Node6&#45;&gt;Node10</title>
<g id="a_edge7_Node000006_Node000010"><a xlink:title=" ">
<path fill="none" stroke="#63b8ff" d="M345.58,-749.78C284.09,-745.86 193.06,-740.05 131.9,-736.15"/>
<polygon fill="#63b8ff" stroke="#63b8ff" points="344.99,-753.25 355.19,-750.39 345.43,-746.26 344.99,-753.25"/>
</a>
</g>
</g>
<!-- Node6&#45;&gt;Node11 -->
<g id="edge8_Node000006_Node000011" class="edge">
<title>Node6&#45;&gt;Node11</title>
<g id="a_edge8_Node000006_Node000011"><a xlink:title=" ">
<path fill="none" stroke="#63b8ff" d="M346.72,-735.35C342.66,-733.42 338.71,-731.3 335,-729 297.17,-705.51 263.24,-664.89 246.07,-642.32"/>
<polygon fill="#63b8ff" stroke="#63b8ff" points="345.06,-738.45 355.63,-739.2 347.84,-732.02 345.06,-738.45"/>
</a>
</g>
</g>
<!-- Node11&#45;&gt;Node10 -->
<g id="edge13_Node000011_Node000010" class="edge">
<title>Node11&#45;&gt;Node10</title>
<g id="a_edge13_Node000011_Node000010"><a xlink:title=" ">
<path fill="none" stroke="#63b8ff" d="M206.98,-650.01C187.52,-667.55 159.32,-690.97 131.5,-707 126.07,-710.13 120.18,-713.02 114.23,-715.64"/>
<polygon fill="#63b8ff" stroke="#63b8ff" points="209.14,-652.78 214.16,-643.44 204.42,-647.61 209.14,-652.78"/>
</a>
</g>
</g>
<!-- Node12 -->
<g id="Node000012" class="node">
<title>Node12</title>
<g id="a_Node000012"><a xlink:href="class_fiea_1_1_engine_1_1_content_1_1_action_handler.html#a392af20cfeb37d539b88183bc9672f7a" target="_top" xlink:title=" ">
<polygon fill="white" stroke="#666666" points="130.75,-698 0.75,-698 0.75,-666 130.75,-666 130.75,-698"/>
<text text-anchor="start" x="8.75" y="-684.5" font-family="Helvetica,sans-Serif" font-size="10.00">Fiea::Engine::Content</text>
<text text-anchor="middle" x="65.75" y="-672.5" font-family="Helvetica,sans-Serif" font-size="10.00">::ActionHandler::EnterKey</text>
</a>
</g>
</g>
<!-- Node11&#45;&gt;Node12 -->
<g id="edge9_Node000011_Node000012" class="edge">
<title>Node11&#45;&gt;Node12</title>
<g id="a_edge9_Node000011_Node000012"><a xlink:title=" ">
<path fill="none" stroke="#63b8ff" d="M172.67,-646.16C153.89,-652.52 133.38,-659.46 115.45,-665.52"/>
<polygon fill="#63b8ff" stroke="#63b8ff" points="173.71,-649.5 182.06,-642.98 171.46,-642.87 173.71,-649.5"/>
</a>
</g>
</g>
<!-- Node13 -->
<g id="Node000013" class="node">
<title>Node13</title>
<g id="a_Node000013"><a xlink:href="class_fiea_1_1_engine_1_1_content_1_1_action_list_handler.html#ae0f8b6534bcf602df112f39202c79ecc" target="_top" xlink:title=" ">
<polygon fill="white" stroke="#666666" points="121.38,-648 10.12,-648 10.12,-604 121.38,-604 121.38,-648"/>
<text text-anchor="start" x="18.12" y="-634.5" font-family="Helvetica,sans-Serif" font-size="10.00">Fiea::Engine::Content</text>
<text text-anchor="start" x="18.12" y="-622.5" font-family="Helvetica,sans-Serif" font-size="10.00">::ActionListHandler::</text>
<text text-anchor="middle" x="65.75" y="-610.5" font-family="Helvetica,sans-Serif" font-size="10.00">EnterKey</text>
</a>
</g>
</g>
<!-- Node11&#45;&gt;Node13 -->
<g id="edge10_Node000011_Node000013" class="edge">
<title>Node11&#45;&gt;Node13</title>
<g id="a_edge10_Node000011_Node000013"><a xlink:title=" ">
<path fill="none" stroke="#63b8ff" d="M155.92,-626C144.43,-626 132.78,-626 121.86,-626"/>
<polygon fill="#63b8ff" stroke="#63b8ff" points="155.8,-629.5 165.8,-626 155.8,-622.5 155.8,-629.5"/>
</a>
</g>
</g>
<!-- Node14 -->
<g id="Node000014" class="node">
<title>Node14</title>
<g id="a_Node000014"><a xlink:href="class_fiea_1_1_engine_1_1_content_1_1_game_object_handler.html#a626573aebcd7beceb84dbd69bc15105b" target="_top" xlink:title="This handler is specifically for handling any game objects in json and also does some checks to ensur...">
<polygon fill="white" stroke="#666666" points="124,-586 7.5,-586 7.5,-542 124,-542 124,-586"/>
<text text-anchor="start" x="15.5" y="-572.5" font-family="Helvetica,sans-Serif" font-size="10.00">Fiea::Engine::Content</text>
<text text-anchor="start" x="15.5" y="-560.5" font-family="Helvetica,sans-Serif" font-size="10.00">::GameObjectHandler::</text>
<text text-anchor="middle" x="65.75" y="-548.5" font-family="Helvetica,sans-Serif" font-size="10.00">EnterKey</text>
</a>
</g>
</g>
<!-- Node11&#45;&gt;Node14 -->
<g id="edge11_Node000011_Node000014" class="edge">
<title>Node11&#45;&gt;Node14</title>
<g id="a_edge11_Node000011_Node000014"><a xlink:title=" ">
<path fill="none" stroke="#63b8ff" d="M177.91,-605.64C160.73,-599.21 141.69,-592.07 124.29,-585.56"/>
<polygon fill="#63b8ff" stroke="#63b8ff" points="176.32,-608.79 186.92,-609.02 178.78,-602.23 176.32,-608.79"/>
</a>
</g>
</g>
<!-- Node15 -->
<g id="Node000015" class="node">
<title>Node15</title>
<g id="a_Node000015"><a xlink:href="class_fiea_1_1_engine_1_1_content_1_1_scope_parse_handler.html#a51138cf4e0b638b95c73b4a5acd68842" target="_top" xlink:title=" ">
<polygon fill="white" stroke="#666666" points="123.25,-524 8.25,-524 8.25,-480 123.25,-480 123.25,-524"/>
<text text-anchor="start" x="16.25" y="-510.5" font-family="Helvetica,sans-Serif" font-size="10.00">Fiea::Engine::Content</text>
<text text-anchor="start" x="16.25" y="-498.5" font-family="Helvetica,sans-Serif" font-size="10.00">::ScopeParseHandler::</text>
<text text-anchor="middle" x="65.75" y="-486.5" font-family="Helvetica,sans-Serif" font-size="10.00">EnterKey</text>
</a>
</g>
</g>
<!-- Node11&#45;&gt;Node15 -->
<g id="edge12_Node000011_Node000015" class="edge">
<title>Node11&#45;&gt;Node15</title>
<g id="a_edge12_Node000011_Node000015"><a xlink:title=" ">
<path fill="none" stroke="#63b8ff" d="M209.53,-601.26C190.15,-581.13 160.85,-552.9 131.5,-533 127.06,-529.99 122.29,-527.12 117.42,-524.42"/>
<polygon fill="#63b8ff" stroke="#63b8ff" points="206.98,-603.66 216.4,-608.51 212.06,-598.84 206.98,-603.66"/>
</a>
</g>
</g>
<!-- Node29 -->
<g id="Node000029" class="node">
<title>Node29</title>
<g id="a_Node000029"><a xlink:href="class_fiea_1_1_engine_1_1_content_1_1_actions_1_1_action_list.html#ac68f2de1db5c8be125e18abe01b1e2a0" target="_top" xlink:title="Reseting the ActionList. Any custom logic that needs to be executed before it is reinitalized must go...">
<polygon fill="white" stroke="#666666" points="468.38,-332 357.12,-332 357.12,-288 468.38,-288 468.38,-332"/>
<text text-anchor="start" x="365.12" y="-318.5" font-family="Helvetica,sans-Serif" font-size="10.00">Fiea::Engine::Content</text>
<text text-anchor="start" x="365.12" y="-306.5" font-family="Helvetica,sans-Serif" font-size="10.00">::Actions::ActionList</text>
<text text-anchor="middle" x="412.75" y="-294.5" font-family="Helvetica,sans-Serif" font-size="10.00">::OnReset</text>
</a>
</g>
</g>
<!-- Node28&#45;&gt;Node29 -->
<g id="edge23_Node000028_Node000029" class="edge">
<title>Node28&#45;&gt;Node29</title>
<g id="a_edge23_Node000028_Node000029"><a xlink:title=" ">
<path fill="none" stroke="#63b8ff" d="M535.15,-310C513.43,-310 489.6,-310 468.85,-310"/>
<polygon fill="#63b8ff" stroke="#63b8ff" points="535.11,-313.5 545.11,-310 535.11,-306.5 535.11,-313.5"/>
</a>
</g>
</g>
<!-- Node30 -->
<g id="Node000030" class="node">
<title>Node30</title>
<g id="a_Node000030"><a xlink:href="class_fiea_1_1_engine_1_1_content_1_1_actions_1_1_delayed_action.html#a023224fb53b5ee15767cf4721731c3e8" target="_top" xlink:title="Reseting the ActionList. Any custom logic that needs to be executed before it is reinitalized must go...">
<polygon fill="white" stroke="#666666" points="475.12,-270 350.38,-270 350.38,-226 475.12,-226 475.12,-270"/>
<text text-anchor="start" x="358.38" y="-256.5" font-family="Helvetica,sans-Serif" font-size="10.00">Fiea::Engine::Content</text>
<text text-anchor="start" x="358.38" y="-244.5" font-family="Helvetica,sans-Serif" font-size="10.00">::Actions::DelayedAction</text>
<text text-anchor="middle" x="412.75" y="-232.5" font-family="Helvetica,sans-Serif" font-size="10.00">::OnReset</text>
</a>
</g>
</g>
<!-- Node28&#45;&gt;Node30 -->
<g id="edge24_Node000028_Node000030" class="edge">
<title>Node28&#45;&gt;Node30</title>
<g id="a_edge24_Node000028_Node000030"><a xlink:title=" ">
<path fill="none" stroke="#63b8ff" d="M535.91,-288.21C516.25,-281.74 494.81,-274.68 475.45,-268.31"/>
<polygon fill="#63b8ff" stroke="#63b8ff" points="534.59,-291.46 545.19,-291.26 536.78,-284.81 534.59,-291.46"/>
</a>
</g>
</g>
<!-- Node28&#45;&gt;Node31 -->
<g id="edge25_Node000028_Node000031" class="edge">
<title>Node28&#45;&gt;Node31</title>
<g id="a_edge25_Node000028_Node000031"><a xlink:title=" ">
<path fill="none" stroke="#63b8ff" d="M537.23,-282.3C533.45,-279.72 529.83,-276.96 526.5,-274 504.09,-254.11 514.15,-235.4 490.5,-217 486.3,-213.73 481.65,-210.88 476.79,-208.4"/>
<polygon fill="#63b8ff" stroke="#63b8ff" points="535.3,-285.21 545.64,-287.51 538.99,-279.27 535.3,-285.21"/>
</a>
</g>
</g>
<!-- Node36 -->
<g id="Node000036" class="node">
<title>Node36</title>
<g id="a_Node000036"><a xlink:href="class_fiea_1_1_engine_1_1_content_1_1_datum.html#acd993566fda823980fac4cbfc799fbcf" target="_top" xlink:title="This function is for setting external storage on the datum.">
<polygon fill="white" stroke="#666666" points="468.38,-82 357.12,-82 357.12,-50 468.38,-50 468.38,-82"/>
<text text-anchor="start" x="365.12" y="-68.5" font-family="Helvetica,sans-Serif" font-size="10.00">Fiea::Engine::Content</text>
<text text-anchor="middle" x="412.75" y="-56.5" font-family="Helvetica,sans-Serif" font-size="10.00">::Datum::SetStorage</text>
</a>
</g>
</g>
<!-- Node35&#45;&gt;Node36 -->
<g id="edge31_Node000035_Node000036" class="edge">
<title>Node35&#45;&gt;Node36</title>
<g id="a_edge31_Node000035_Node000036"><a xlink:title=" ">
<path fill="none" stroke="#63b8ff" d="M535.9,-66C513.96,-66 489.81,-66 468.81,-66"/>
<polygon fill="#63b8ff" stroke="#63b8ff" points="535.62,-69.5 545.62,-66 535.62,-62.5 535.62,-69.5"/>
</a>
</g>
</g>
</g>
</svg>
