<?xml version="1.0" encoding="UTF-8" standalone="no"?>
<!DOCTYPE svg PUBLIC "-//W3C//DTD SVG 1.1//EN"
 "http://www.w3.org/Graphics/SVG/1.1/DTD/svg11.dtd">
<!-- Generated by graphviz version 12.2.1 (20241206.2353)
 -->
<!-- Title: Fiea::Engine::Content::IntParseHandler::ExitKey Pages: 1 -->
<svg width="492pt" height="152pt"
 viewBox="0.00 0.00 491.75 152.00" xmlns="http://www.w3.org/2000/svg" xmlns:xlink="http://www.w3.org/1999/xlink">
<g id="graph0" class="graph" transform="scale(1 1) rotate(0) translate(4 148)">
<title>Fiea::Engine::Content::IntParseHandler::ExitKey</title>
<!-- Node1 -->
<g id="Node000001" class="node">
<title>Node1</title>
<g id="a_Node000001"><a xlink:title=" ">
<polygon fill="#999999" stroke="#666666" points="133,-100 0,-100 0,-68 133,-68 133,-100"/>
<text text-anchor="start" x="8" y="-86.5" font-family="Helvetica,sans-Serif" font-size="10.00">Fiea::Engine::Content</text>
<text text-anchor="middle" x="66.5" y="-74.5" font-family="Helvetica,sans-Serif" font-size="10.00">::IntParseHandler::ExitKey</text>
</a>
</g>
</g>
<!-- Node2 -->
<g id="Node000002" class="node">
<title>Node2</title>
<g id="a_Node000002"><a xlink:href="class_fiea_1_1_engine_1_1_r_t_t_i.html#a15bd5993c8ad04da47af440298ebbb30" target="_top" xlink:title=" ">
<polygon fill="white" stroke="#666666" points="299,-144 182.5,-144 182.5,-124 299,-124 299,-144"/>
<text text-anchor="middle" x="240.75" y="-130.5" font-family="Helvetica,sans-Serif" font-size="10.00">Fiea::Engine::RTTI::As</text>
</a>
</g>
</g>
<!-- Node1&#45;&gt;Node2 -->
<g id="edge1_Node000001_Node000002" class="edge">
<title>Node1&#45;&gt;Node2</title>
<g id="a_edge1_Node000001_Node000002"><a xlink:title=" ">
<path fill="none" stroke="#63b8ff" d="M120.08,-100.43C135.78,-105.24 153.06,-110.43 169,-115 175.58,-116.89 182.52,-118.82 189.37,-120.7"/>
<polygon fill="#63b8ff" stroke="#63b8ff" points="187.99,-123.95 198.56,-123.19 189.82,-117.19 187.99,-123.95"/>
</a>
</g>
</g>
<!-- Node4 -->
<g id="Node000004" class="node">
<title>Node4</title>
<g id="a_Node000004"><a xlink:href="class_fiea_1_1_engine_1_1_content_1_1_scope_writer.html#a9b532cf2870d114a3cb24555ddd1cba5" target="_top" xlink:title=" ">
<polygon fill="white" stroke="#666666" points="311,-106 170.5,-106 170.5,-62 311,-62 311,-106"/>
<text text-anchor="start" x="178.5" y="-92.5" font-family="Helvetica,sans-Serif" font-size="10.00">Fiea::Engine::Content</text>
<text text-anchor="start" x="178.5" y="-80.5" font-family="Helvetica,sans-Serif" font-size="10.00">::ScopeWriter::IsKeyStorage</text>
<text text-anchor="middle" x="240.75" y="-68.5" font-family="Helvetica,sans-Serif" font-size="10.00">External</text>
</a>
</g>
</g>
<!-- Node1&#45;&gt;Node4 -->
<g id="edge3_Node000001_Node000004" class="edge">
<title>Node1&#45;&gt;Node4</title>
<g id="a_edge3_Node000001_Node000004"><a xlink:title=" ">
<path fill="none" stroke="#63b8ff" d="M133.11,-84C141.51,-84 150.18,-84 158.78,-84"/>
<polygon fill="#63b8ff" stroke="#63b8ff" points="158.51,-87.5 168.51,-84 158.51,-80.5 158.51,-87.5"/>
</a>
</g>
</g>
<!-- Node7 -->
<g id="Node000007" class="node">
<title>Node7</title>
<g id="a_Node000007"><a xlink:href="class_fiea_1_1_engine_1_1_content_1_1_scope_writer.html#a96567b341d87af6a4c24c85b35bdb3e4" target="_top" xlink:title="The Handler that set external data status should be the one to reset it.">
<polygon fill="white" stroke="#666666" points="312.5,-44 169,-44 169,0 312.5,0 312.5,-44"/>
<text text-anchor="start" x="177" y="-30.5" font-family="Helvetica,sans-Serif" font-size="10.00">Fiea::Engine::Content</text>
<text text-anchor="start" x="177" y="-18.5" font-family="Helvetica,sans-Serif" font-size="10.00">::ScopeWriter::ResetExternal</text>
<text text-anchor="middle" x="240.75" y="-6.5" font-family="Helvetica,sans-Serif" font-size="10.00">DataTeller</text>
</a>
</g>
</g>
<!-- Node1&#45;&gt;Node7 -->
<g id="edge6_Node000001_Node000007" class="edge">
<title>Node1&#45;&gt;Node7</title>
<g id="a_edge6_Node000001_Node000007"><a xlink:title=" ">
<path fill="none" stroke="#63b8ff" d="M113.21,-67.55C129.54,-61.67 148.39,-54.88 166.46,-48.38"/>
<polygon fill="#63b8ff" stroke="#63b8ff" points="167.64,-51.67 175.86,-44.99 165.27,-45.09 167.64,-51.67"/>
</a>
</g>
</g>
<!-- Node3 -->
<g id="Node000003" class="node">
<title>Node3</title>
<g id="a_Node000003"><a xlink:href="class_fiea_1_1_engine_1_1_r_t_t_i.html#ac0a7d875e4513b2aca7594abcd4418ef" target="_top" xlink:title=" ">
<polygon fill="white" stroke="#666666" points="472.5,-144 359.75,-144 359.75,-124 472.5,-124 472.5,-144"/>
<text text-anchor="middle" x="416.12" y="-130.5" font-family="Helvetica,sans-Serif" font-size="10.00">Fiea::Engine::RTTI::Is</text>
</a>
</g>
</g>
<!-- Node2&#45;&gt;Node3 -->
<g id="edge2_Node000002_Node000003" class="edge">
<title>Node2&#45;&gt;Node3</title>
<g id="a_edge2_Node000002_Node000003"><a xlink:title=" ">
<path fill="none" stroke="#63b8ff" d="M299.48,-134C315.02,-134 331.96,-134 347.96,-134"/>
<polygon fill="#63b8ff" stroke="#63b8ff" points="347.9,-137.5 357.9,-134 347.9,-130.5 347.9,-137.5"/>
</a>
</g>
</g>
<!-- Node5 -->
<g id="Node000005" class="node">
<title>Node5</title>
<g id="a_Node000005"><a xlink:href="class_fiea_1_1_engine_1_1_content_1_1_scope.html#ad924c01785b239991fc0e56a63295612" target="_top" xlink:title="Return the Datum at the requested key, or nullptr if not found.">
<polygon fill="white" stroke="#666666" points="471.75,-103 360.5,-103 360.5,-71 471.75,-71 471.75,-103"/>
<text text-anchor="start" x="368.5" y="-89.5" font-family="Helvetica,sans-Serif" font-size="10.00">Fiea::Engine::Content</text>
<text text-anchor="middle" x="416.12" y="-77.5" font-family="Helvetica,sans-Serif" font-size="10.00">::Scope::Find</text>
</a>
</g>
</g>
<!-- Node4&#45;&gt;Node5 -->
<g id="edge4_Node000004_Node000005" class="edge">
<title>Node4&#45;&gt;Node5</title>
<g id="a_edge4_Node000004_Node000005"><a xlink:title=" ">
<path fill="none" stroke="#63b8ff" d="M311.27,-85.2C323.75,-85.42 336.72,-85.64 349.1,-85.86"/>
<polygon fill="#63b8ff" stroke="#63b8ff" points="348.69,-89.35 358.75,-86.02 348.81,-82.35 348.69,-89.35"/>
</a>
</g>
</g>
<!-- Node6 -->
<g id="Node000006" class="node">
<title>Node6</title>
<g id="a_Node000006"><a xlink:href="class_fiea_1_1_engine_1_1_content_1_1_datum.html#a9b05337db582483976624ab93839bfa7" target="_top" xlink:title=" ">
<polygon fill="white" stroke="#666666" points="483.75,-53 348.5,-53 348.5,-21 483.75,-21 483.75,-53"/>
<text text-anchor="start" x="356.5" y="-39.5" font-family="Helvetica,sans-Serif" font-size="10.00">Fiea::Engine::Content</text>
<text text-anchor="middle" x="416.12" y="-27.5" font-family="Helvetica,sans-Serif" font-size="10.00">::Datum::IsStorageExternal</text>
</a>
</g>
</g>
<!-- Node4&#45;&gt;Node6 -->
<g id="edge5_Node000004_Node000006" class="edge">
<title>Node4&#45;&gt;Node6</title>
<g id="a_edge5_Node000004_Node000006"><a xlink:title=" ">
<path fill="none" stroke="#63b8ff" d="M311.27,-65.15C321.9,-62.27 332.88,-59.29 343.55,-56.4"/>
<polygon fill="#63b8ff" stroke="#63b8ff" points="344.34,-59.82 353.07,-53.82 342.5,-53.06 344.34,-59.82"/>
</a>
</g>
</g>
</g>
</svg>
