<?xml version="1.0" encoding="UTF-8" standalone="no"?>
<!DOCTYPE svg PUBLIC "-//W3C//DTD SVG 1.1//EN"
 "http://www.w3.org/Graphics/SVG/1.1/DTD/svg11.dtd">
<!-- Generated by graphviz version 12.2.1 (20241206.2353)
 -->
<!-- Title: Fiea::Engine::Content::Actions::ActionList::operator= Pages: 1 -->
<svg width="285pt" height="114pt"
 viewBox="0.00 0.00 284.50 114.00" xmlns="http://www.w3.org/2000/svg" xmlns:xlink="http://www.w3.org/1999/xlink">
<g id="graph0" class="graph" transform="scale(1 1) rotate(0) translate(4 110)">
<title>Fiea::Engine::Content::Actions::ActionList::operator=</title>
<!-- Node1 -->
<g id="Node000001" class="node">
<title>Node1</title>
<g id="a_Node000001"><a xlink:title=" ">
<polygon fill="#999999" stroke="#666666" points="276.5,-75 165.25,-75 165.25,-31 276.5,-31 276.5,-75"/>
<text text-anchor="start" x="173.25" y="-61.5" font-family="Helvetica,sans-Serif" font-size="10.00">Fiea::Engine::Content</text>
<text text-anchor="start" x="173.25" y="-49.5" font-family="Helvetica,sans-Serif" font-size="10.00">::Actions::ActionList</text>
<text text-anchor="middle" x="220.88" y="-37.5" font-family="Helvetica,sans-Serif" font-size="10.00">::operator=</text>
</a>
</g>
</g>
<!-- Node2 -->
<g id="Node000002" class="node">
<title>Node2</title>
<g id="a_Node000002"><a xlink:href="class_fiea_1_1_engine_1_1_content_1_1_actions_1_1_while_action_list.html#aa5003e38acaebbb8d9798f8d65c0806c" target="_top" xlink:title=" ">
<polygon fill="white" stroke="#666666" points="129.25,-106 0,-106 0,-62 129.25,-62 129.25,-106"/>
<text text-anchor="start" x="8" y="-92.5" font-family="Helvetica,sans-Serif" font-size="10.00">Fiea::Engine::Content</text>
<text text-anchor="start" x="8" y="-80.5" font-family="Helvetica,sans-Serif" font-size="10.00">::Actions::WhileActionList</text>
<text text-anchor="middle" x="64.62" y="-68.5" font-family="Helvetica,sans-Serif" font-size="10.00">::operator=</text>
</a>
</g>
</g>
<!-- Node1&#45;&gt;Node2 -->
<g id="edge1_Node000001_Node000002" class="edge">
<title>Node1&#45;&gt;Node2</title>
<g id="a_edge1_Node000001_Node000002"><a xlink:title=" ">
<path fill="none" stroke="#63b8ff" d="M153.89,-66.26C145.89,-67.87 137.72,-69.51 129.75,-71.11"/>
<polygon fill="#63b8ff" stroke="#63b8ff" points="154.46,-69.72 163.57,-64.31 153.08,-62.85 154.46,-69.72"/>
</a>
</g>
</g>
<!-- Node3 -->
<g id="Node000003" class="node">
<title>Node3</title>
<g id="a_Node000003"><a xlink:href="class_fiea_1_1_engine_1_1_content_1_1_actions_1_1_while_action_list.html#a69b9fe4f1d8faac2e66b72079c7e7ea6" target="_top" xlink:title=" ">
<polygon fill="white" stroke="#666666" points="129.25,-44 0,-44 0,0 129.25,0 129.25,-44"/>
<text text-anchor="start" x="8" y="-30.5" font-family="Helvetica,sans-Serif" font-size="10.00">Fiea::Engine::Content</text>
<text text-anchor="start" x="8" y="-18.5" font-family="Helvetica,sans-Serif" font-size="10.00">::Actions::WhileActionList</text>
<text text-anchor="middle" x="64.62" y="-6.5" font-family="Helvetica,sans-Serif" font-size="10.00">::operator=</text>
</a>
</g>
</g>
<!-- Node1&#45;&gt;Node3 -->
<g id="edge2_Node000001_Node000003" class="edge">
<title>Node1&#45;&gt;Node3</title>
<g id="a_edge2_Node000001_Node000003"><a xlink:title=" ">
<path fill="none" stroke="#63b8ff" d="M153.89,-39.74C145.89,-38.13 137.72,-36.49 129.75,-34.89"/>
<polygon fill="#63b8ff" stroke="#63b8ff" points="153.08,-43.15 163.57,-41.69 154.46,-36.28 153.08,-43.15"/>
</a>
</g>
</g>
</g>
</svg>
