<?xml version="1.0" encoding="UTF-8" standalone="no"?>
<!DOCTYPE svg PUBLIC "-//W3C//DTD SVG 1.1//EN"
 "http://www.w3.org/Graphics/SVG/1.1/DTD/svg11.dtd">
<!-- Generated by graphviz version 12.2.1 (20241206.2353)
 -->
<!-- Title: Fiea::Engine::Content::Actions::ActionList::Run Pages: 1 -->
<svg width="466pt" height="278pt"
 viewBox="0.00 0.00 465.50 278.00" xmlns="http://www.w3.org/2000/svg" xmlns:xlink="http://www.w3.org/1999/xlink">
<g id="graph0" class="graph" transform="scale(1 1) rotate(0) translate(4 274)">
<title>Fiea::Engine::Content::Actions::ActionList::Run</title>
<!-- Node1 -->
<g id="Node000001" class="node">
<title>Node1</title>
<g id="a_Node000001"><a xlink:title="Any code that we want to run recursively goes here. It returns false if it needs to run one more iter...">
<polygon fill="#999999" stroke="#666666" points="128.5,-182 0,-182 0,-150 128.5,-150 128.5,-182"/>
<text text-anchor="start" x="8" y="-168.5" font-family="Helvetica,sans-Serif" font-size="10.00">Fiea::Engine::Content</text>
<text text-anchor="middle" x="64.25" y="-156.5" font-family="Helvetica,sans-Serif" font-size="10.00">::Actions::ActionList::Run</text>
</a>
</g>
</g>
<!-- Node2 -->
<g id="Node000002" class="node">
<title>Node2</title>
<g id="a_Node000002"><a xlink:href="class_fiea_1_1_engine_1_1_r_t_t_i.html#a15bd5993c8ad04da47af440298ebbb30" target="_top" xlink:title=" ">
<polygon fill="white" stroke="#666666" points="285.88,-270 169.38,-270 169.38,-250 285.88,-250 285.88,-270"/>
<text text-anchor="middle" x="227.62" y="-256.5" font-family="Helvetica,sans-Serif" font-size="10.00">Fiea::Engine::RTTI::As</text>
</a>
</g>
</g>
<!-- Node1&#45;&gt;Node2 -->
<g id="edge1_Node000001_Node000002" class="edge">
<title>Node1&#45;&gt;Node2</title>
<g id="a_edge1_Node000001_Node000002"><a xlink:title=" ">
<path fill="none" stroke="#63b8ff" d="M82.96,-182.48C101.87,-199.28 133.34,-225.09 164.5,-241 167.71,-242.64 171.1,-244.17 174.55,-245.59"/>
<polygon fill="#63b8ff" stroke="#63b8ff" points="173.05,-248.76 183.64,-248.98 175.49,-242.2 173.05,-248.76"/>
</a>
</g>
</g>
<!-- Node4 -->
<g id="Node000004" class="node">
<title>Node4</title>
<g id="a_Node000004"><a xlink:href="class_fiea_1_1_engine_1_1_content_1_1_scope.html#ad924c01785b239991fc0e56a63295612" target="_top" xlink:title="Return the Datum at the requested key, or nullptr if not found.">
<polygon fill="white" stroke="#666666" points="283.25,-232 172,-232 172,-200 283.25,-200 283.25,-232"/>
<text text-anchor="start" x="180" y="-218.5" font-family="Helvetica,sans-Serif" font-size="10.00">Fiea::Engine::Content</text>
<text text-anchor="middle" x="227.62" y="-206.5" font-family="Helvetica,sans-Serif" font-size="10.00">::Scope::Find</text>
</a>
</g>
</g>
<!-- Node1&#45;&gt;Node4 -->
<g id="edge3_Node000001_Node000004" class="edge">
<title>Node1&#45;&gt;Node4</title>
<g id="a_edge3_Node000001_Node000004"><a xlink:title=" ">
<path fill="none" stroke="#63b8ff" d="M118.09,-182.37C132.37,-186.8 147.97,-191.63 162.78,-196.22"/>
<polygon fill="#63b8ff" stroke="#63b8ff" points="161.36,-199.44 171.94,-199.06 163.43,-192.76 161.36,-199.44"/>
</a>
</g>
</g>
<!-- Node5 -->
<g id="Node000005" class="node">
<title>Node5</title>
<g id="a_Node000005"><a xlink:href="class_fiea_1_1_engine_1_1_content_1_1_datum.html#a3763d03e7b219e3ba257b09a7719795c" target="_top" xlink:title=" ">
<polygon fill="white" stroke="#666666" points="283.25,-182 172,-182 172,-150 283.25,-150 283.25,-182"/>
<text text-anchor="start" x="180" y="-168.5" font-family="Helvetica,sans-Serif" font-size="10.00">Fiea::Engine::Content</text>
<text text-anchor="middle" x="227.62" y="-156.5" font-family="Helvetica,sans-Serif" font-size="10.00">::Datum::Get</text>
</a>
</g>
</g>
<!-- Node1&#45;&gt;Node5 -->
<g id="edge4_Node000001_Node000005" class="edge">
<title>Node1&#45;&gt;Node5</title>
<g id="a_edge4_Node000001_Node000005"><a xlink:title=" ">
<path fill="none" stroke="#63b8ff" d="M128.57,-166C139.01,-166 149.85,-166 160.36,-166"/>
<polygon fill="#63b8ff" stroke="#63b8ff" points="160.09,-169.5 170.09,-166 160.09,-162.5 160.09,-169.5"/>
</a>
</g>
</g>
<!-- Node6 -->
<g id="Node000006" class="node">
<title>Node6</title>
<g id="a_Node000006"><a xlink:href="class_fiea_1_1_engine_1_1_content_1_1_datum.html#acae68c3bc8b20345e4c3790fa37bd8d5" target="_top" xlink:title=" ">
<polygon fill="white" stroke="#666666" points="283.25,-132 172,-132 172,-100 283.25,-100 283.25,-132"/>
<text text-anchor="start" x="180" y="-118.5" font-family="Helvetica,sans-Serif" font-size="10.00">Fiea::Engine::Content</text>
<text text-anchor="middle" x="227.62" y="-106.5" font-family="Helvetica,sans-Serif" font-size="10.00">::Datum::Size</text>
</a>
</g>
</g>
<!-- Node1&#45;&gt;Node6 -->
<g id="edge5_Node000001_Node000006" class="edge">
<title>Node1&#45;&gt;Node6</title>
<g id="a_edge5_Node000001_Node000006"><a xlink:title=" ">
<path fill="none" stroke="#63b8ff" d="M118.09,-149.63C132.37,-145.2 147.97,-140.37 162.78,-135.78"/>
<polygon fill="#63b8ff" stroke="#63b8ff" points="163.43,-139.24 171.94,-132.94 161.36,-132.56 163.43,-139.24"/>
</a>
</g>
</g>
<!-- Node7 -->
<g id="Node000007" class="node">
<title>Node7</title>
<g id="a_Node000007"><a xlink:href="class_fiea_1_1_engine_1_1_content_1_1_actions_1_1_action.html#a698815d895c6612c8ae91f6094d1c297" target="_top" xlink:title="Update is not a virtual function, the actions users of engine define will define Init,...">
<polygon fill="white" stroke="#666666" points="290.75,-82 164.5,-82 164.5,-50 290.75,-50 290.75,-82"/>
<text text-anchor="start" x="172.5" y="-68.5" font-family="Helvetica,sans-Serif" font-size="10.00">Fiea::Engine::Content</text>
<text text-anchor="middle" x="227.62" y="-56.5" font-family="Helvetica,sans-Serif" font-size="10.00">::Actions::Action::Update</text>
</a>
</g>
</g>
<!-- Node1&#45;&gt;Node7 -->
<g id="edge6_Node000001_Node000007" class="edge">
<title>Node1&#45;&gt;Node7</title>
<g id="a_edge6_Node000001_Node000007"><a xlink:title=" ">
<path fill="none" stroke="#63b8ff" d="M83.61,-149.75C102.78,-133.37 134.24,-108.12 164.5,-91 166.81,-89.7 169.19,-88.43 171.63,-87.19"/>
<polygon fill="#63b8ff" stroke="#63b8ff" points="172.93,-90.45 180.47,-83.01 169.93,-84.13 172.93,-90.45"/>
</a>
</g>
</g>
<!-- Node3 -->
<g id="Node000003" class="node">
<title>Node3</title>
<g id="a_Node000003"><a xlink:href="class_fiea_1_1_engine_1_1_r_t_t_i.html#ac0a7d875e4513b2aca7594abcd4418ef" target="_top" xlink:title=" ">
<polygon fill="white" stroke="#666666" points="448.5,-270 335.75,-270 335.75,-250 448.5,-250 448.5,-270"/>
<text text-anchor="middle" x="392.12" y="-256.5" font-family="Helvetica,sans-Serif" font-size="10.00">Fiea::Engine::RTTI::Is</text>
</a>
</g>
</g>
<!-- Node2&#45;&gt;Node3 -->
<g id="edge2_Node000002_Node000003" class="edge">
<title>Node2&#45;&gt;Node3</title>
<g id="a_edge2_Node000002_Node000003"><a xlink:title=" ">
<path fill="none" stroke="#63b8ff" d="M286.37,-260C298.6,-260 311.6,-260 324.13,-260"/>
<polygon fill="#63b8ff" stroke="#63b8ff" points="323.96,-263.5 333.96,-260 323.96,-256.5 323.96,-263.5"/>
</a>
</g>
</g>
<!-- Node8 -->
<g id="Node000008" class="node">
<title>Node8</title>
<g id="a_Node000008"><a xlink:href="class_fiea_1_1_engine_1_1_content_1_1_actions_1_1_action.html#a5636a08196087a24b791b1ba4665a482" target="_top" xlink:title=" ">
<polygon fill="white" stroke="#666666" points="457.5,-132 326.75,-132 326.75,-100 457.5,-100 457.5,-132"/>
<text text-anchor="start" x="334.75" y="-118.5" font-family="Helvetica,sans-Serif" font-size="10.00">Fiea::Engine::Content</text>
<text text-anchor="middle" x="392.12" y="-106.5" font-family="Helvetica,sans-Serif" font-size="10.00">::Actions::Action::Cleanup</text>
</a>
</g>
</g>
<!-- Node7&#45;&gt;Node8 -->
<g id="edge7_Node000007_Node000008" class="edge">
<title>Node7&#45;&gt;Node8</title>
<g id="a_edge7_Node000007_Node000008"><a xlink:title=" ">
<path fill="none" stroke="#63b8ff" d="M281.83,-82.37C296.21,-86.8 311.92,-91.63 326.83,-96.22"/>
<polygon fill="#63b8ff" stroke="#63b8ff" points="325.49,-99.46 336.07,-99.06 327.54,-92.77 325.49,-99.46"/>
</a>
</g>
</g>
<!-- Node9 -->
<g id="Node000009" class="node">
<title>Node9</title>
<g id="a_Node000009"><a xlink:href="class_fiea_1_1_engine_1_1_content_1_1_actions_1_1_action.html#afbbf5653a40406d12c647ef1f00942e0" target="_top" xlink:title=" ">
<polygon fill="white" stroke="#666666" points="447.75,-82 336.5,-82 336.5,-50 447.75,-50 447.75,-82"/>
<text text-anchor="start" x="344.5" y="-68.5" font-family="Helvetica,sans-Serif" font-size="10.00">Fiea::Engine::Content</text>
<text text-anchor="middle" x="392.12" y="-56.5" font-family="Helvetica,sans-Serif" font-size="10.00">::Actions::Action::Init</text>
</a>
</g>
</g>
<!-- Node7&#45;&gt;Node9 -->
<g id="edge8_Node000007_Node000009" class="edge">
<title>Node7&#45;&gt;Node9</title>
<g id="a_edge8_Node000007_Node000009"><a xlink:title=" ">
<path fill="none" stroke="#63b8ff" d="M290.99,-66C302.01,-66 313.53,-66 324.67,-66"/>
<polygon fill="#63b8ff" stroke="#63b8ff" points="324.58,-69.5 334.58,-66 324.58,-62.5 324.58,-69.5"/>
</a>
</g>
</g>
<!-- Node10 -->
<g id="Node000010" class="node">
<title>Node10</title>
<g id="a_Node000010"><a xlink:href="class_fiea_1_1_engine_1_1_content_1_1_actions_1_1_action.html#a651a19484818f73fbe595c0b1a60ece7" target="_top" xlink:title=" ">
<polygon fill="white" stroke="#666666" points="448.5,-32 335.75,-32 335.75,0 448.5,0 448.5,-32"/>
<text text-anchor="start" x="343.75" y="-18.5" font-family="Helvetica,sans-Serif" font-size="10.00">Fiea::Engine::Content</text>
<text text-anchor="middle" x="392.12" y="-6.5" font-family="Helvetica,sans-Serif" font-size="10.00">::Actions::Action::Run</text>
</a>
</g>
</g>
<!-- Node7&#45;&gt;Node10 -->
<g id="edge9_Node000007_Node000010" class="edge">
<title>Node7&#45;&gt;Node10</title>
<g id="a_edge9_Node000007_Node000010"><a xlink:title=" ">
<path fill="none" stroke="#63b8ff" d="M281.83,-49.63C296.21,-45.2 311.92,-40.37 326.83,-35.78"/>
<polygon fill="#63b8ff" stroke="#63b8ff" points="327.54,-39.23 336.07,-32.94 325.49,-32.54 327.54,-39.23"/>
</a>
</g>
</g>
</g>
</svg>
