<?xml version="1.0" encoding="UTF-8" standalone="no"?>
<!DOCTYPE svg PUBLIC "-//W3C//DTD SVG 1.1//EN"
 "http://www.w3.org/Graphics/SVG/1.1/DTD/svg11.dtd">
<!-- Generated by graphviz version 12.2.1 (20241206.2353)
 -->
<!-- Title: Fiea::Engine::Content::Actions::Action::GetClassDefinition Pages: 1 -->
<svg width="303pt" height="90pt"
 viewBox="0.00 0.00 302.50 90.00" xmlns="http://www.w3.org/2000/svg" xmlns:xlink="http://www.w3.org/1999/xlink">
<g id="graph0" class="graph" transform="scale(1 1) rotate(0) translate(4 86)">
<title>Fiea::Engine::Content::Actions::Action::GetClassDefinition</title>
<!-- Node1 -->
<g id="Node000001" class="node">
<title>Node1</title>
<g id="a_Node000001"><a xlink:title="This function returns the class definition, aka the signature for each member variable that we want t...">
<polygon fill="#999999" stroke="#666666" points="294.5,-63 158.5,-63 158.5,-19 294.5,-19 294.5,-63"/>
<text text-anchor="start" x="166.5" y="-49.5" font-family="Helvetica,sans-Serif" font-size="10.00">Fiea::Engine::Content</text>
<text text-anchor="start" x="166.5" y="-37.5" font-family="Helvetica,sans-Serif" font-size="10.00">::Actions::Action::GetClass</text>
<text text-anchor="middle" x="226.5" y="-25.5" font-family="Helvetica,sans-Serif" font-size="10.00">Definition</text>
</a>
</g>
</g>
<!-- Node2 -->
<g id="Node000002" class="node">
<title>Node2</title>
<g id="a_Node000002"><a xlink:href="class_fiea_1_1_engine_1_1_content_1_1_actions_1_1_action.html#a0ff21a78d7787f4fbfc93e34e9bf7884" target="_top" xlink:title=" ">
<polygon fill="white" stroke="#666666" points="122.5,-82 0,-82 0,-50 122.5,-50 122.5,-82"/>
<text text-anchor="start" x="8" y="-68.5" font-family="Helvetica,sans-Serif" font-size="10.00">Fiea::Engine::Content</text>
<text text-anchor="middle" x="61.25" y="-56.5" font-family="Helvetica,sans-Serif" font-size="10.00">::Actions::Action::Action</text>
</a>
</g>
</g>
<!-- Node1&#45;&gt;Node2 -->
<g id="edge1_Node000001_Node000002" class="edge">
<title>Node1&#45;&gt;Node2</title>
<g id="a_edge1_Node000001_Node000002"><a xlink:title=" ">
<path fill="none" stroke="#63b8ff" d="M146.84,-53.05C138.8,-54.28 130.71,-55.52 122.9,-56.71"/>
<polygon fill="#63b8ff" stroke="#63b8ff" points="147.31,-56.52 156.66,-51.54 146.25,-49.6 147.31,-56.52"/>
</a>
</g>
</g>
<!-- Node3 -->
<g id="Node000003" class="node">
<title>Node3</title>
<g id="a_Node000003"><a xlink:href="class_fiea_1_1_engine_1_1_content_1_1_actions_1_1_action.html#af9db611222dc543b98fc0e21c340bcaa" target="_top" xlink:title=" ">
<polygon fill="white" stroke="#666666" points="122.5,-32 0,-32 0,0 122.5,0 122.5,-32"/>
<text text-anchor="start" x="8" y="-18.5" font-family="Helvetica,sans-Serif" font-size="10.00">Fiea::Engine::Content</text>
<text text-anchor="middle" x="61.25" y="-6.5" font-family="Helvetica,sans-Serif" font-size="10.00">::Actions::Action::Action</text>
</a>
</g>
</g>
<!-- Node1&#45;&gt;Node3 -->
<g id="edge2_Node000001_Node000003" class="edge">
<title>Node1&#45;&gt;Node3</title>
<g id="a_edge2_Node000001_Node000003"><a xlink:title=" ">
<path fill="none" stroke="#63b8ff" d="M146.84,-28.95C138.8,-27.72 130.71,-26.48 122.9,-25.29"/>
<polygon fill="#63b8ff" stroke="#63b8ff" points="146.25,-32.4 156.66,-30.46 147.31,-25.48 146.25,-32.4"/>
</a>
</g>
</g>
</g>
</svg>
