<?xml version="1.0" encoding="UTF-8" standalone="no"?>
<!DOCTYPE svg PUBLIC "-//W3C//DTD SVG 1.1//EN"
 "http://www.w3.org/Graphics/SVG/1.1/DTD/svg11.dtd">
<!-- Generated by graphviz version 12.2.1 (20241206.2353)
 -->
<!-- Title: Fiea::Engine::Content::ScopeWriter::Append Pages: 1 -->
<svg width="454pt" height="190pt"
 viewBox="0.00 0.00 454.25 190.00" xmlns="http://www.w3.org/2000/svg" xmlns:xlink="http://www.w3.org/1999/xlink">
<g id="graph0" class="graph" transform="scale(1 1) rotate(0) translate(4 186)">
<title>Fiea::Engine::Content::ScopeWriter::Append</title>
<!-- Node1 -->
<g id="Node000001" class="node">
<title>Node1</title>
<g id="a_Node000001"><a xlink:title="This function should be called for ading string, float or ints into the Scope. Any other data type wo...">
<polygon fill="#999999" stroke="#666666" points="114.25,-107 0,-107 0,-75 114.25,-75 114.25,-107"/>
<text text-anchor="start" x="8" y="-93.5" font-family="Helvetica,sans-Serif" font-size="10.00">Fiea::Engine::Content</text>
<text text-anchor="middle" x="57.12" y="-81.5" font-family="Helvetica,sans-Serif" font-size="10.00">::ScopeWriter::Append</text>
</a>
</g>
</g>
<!-- Node2 -->
<g id="Node000002" class="node">
<title>Node2</title>
<g id="a_Node000002"><a xlink:href="class_fiea_1_1_engine_1_1_content_1_1_scope.html#aa91d6470fd3d3f402bbb2e765be54455" target="_top" xlink:title="Return a reference to the Datum at this key. create a new Datum, if one is not found.">
<polygon fill="white" stroke="#666666" points="279.12,-182 167.88,-182 167.88,-150 279.12,-150 279.12,-182"/>
<text text-anchor="start" x="175.88" y="-168.5" font-family="Helvetica,sans-Serif" font-size="10.00">Fiea::Engine::Content</text>
<text text-anchor="middle" x="223.5" y="-156.5" font-family="Helvetica,sans-Serif" font-size="10.00">::Scope::Append</text>
</a>
</g>
</g>
<!-- Node1&#45;&gt;Node2 -->
<g id="edge1_Node000001_Node000002" class="edge">
<title>Node1&#45;&gt;Node2</title>
<g id="a_edge1_Node000001_Node000002"><a xlink:title=" ">
<path fill="none" stroke="#63b8ff" d="M85.35,-107.31C103.38,-117.73 127.77,-131.09 150.25,-141 153.76,-142.55 157.39,-144.06 161.08,-145.53"/>
<polygon fill="#63b8ff" stroke="#63b8ff" points="159.56,-148.7 170.15,-149.01 162.07,-142.16 159.56,-148.7"/>
</a>
</g>
</g>
<!-- Node3 -->
<g id="Node000003" class="node">
<title>Node3</title>
<g id="a_Node000003"><a xlink:href="class_fiea_1_1_engine_1_1_content_1_1_scope_writer.html#a626dca625d92c898453cf9d75d9573d3" target="_top" xlink:title=" ">
<polygon fill="white" stroke="#666666" points="296.75,-132 150.25,-132 150.25,-100 296.75,-100 296.75,-132"/>
<text text-anchor="start" x="158.25" y="-118.5" font-family="Helvetica,sans-Serif" font-size="10.00">Fiea::Engine::Content</text>
<text text-anchor="middle" x="223.5" y="-106.5" font-family="Helvetica,sans-Serif" font-size="10.00">::ScopeWriter::IsDataExternal</text>
</a>
</g>
</g>
<!-- Node1&#45;&gt;Node3 -->
<g id="edge2_Node000001_Node000003" class="edge">
<title>Node1&#45;&gt;Node3</title>
<g id="a_edge2_Node000001_Node000003"><a xlink:title=" ">
<path fill="none" stroke="#63b8ff" d="M114.69,-99.6C122.39,-100.77 130.43,-102 138.49,-103.22"/>
<polygon fill="#63b8ff" stroke="#63b8ff" points="137.95,-106.68 148.36,-104.72 139,-99.76 137.95,-106.68"/>
</a>
</g>
</g>
<!-- Node4 -->
<g id="Node000004" class="node">
<title>Node4</title>
<g id="a_Node000004"><a xlink:href="class_fiea_1_1_engine_1_1_content_1_1_datum.html#a4ccb082ce85390925305f19a24daaed8" target="_top" xlink:title="This function is for pushing an element at the back of the data union array. It is using a universal ...">
<polygon fill="white" stroke="#666666" points="279.12,-82 167.88,-82 167.88,-50 279.12,-50 279.12,-82"/>
<text text-anchor="start" x="175.88" y="-68.5" font-family="Helvetica,sans-Serif" font-size="10.00">Fiea::Engine::Content</text>
<text text-anchor="middle" x="223.5" y="-56.5" font-family="Helvetica,sans-Serif" font-size="10.00">::Datum::Push</text>
</a>
</g>
</g>
<!-- Node1&#45;&gt;Node4 -->
<g id="edge3_Node000001_Node000004" class="edge">
<title>Node1&#45;&gt;Node4</title>
<g id="a_edge3_Node000001_Node000004"><a xlink:title=" ">
<path fill="none" stroke="#63b8ff" d="M114.69,-82.4C128.04,-80.37 142.39,-78.18 156.13,-76.09"/>
<polygon fill="#63b8ff" stroke="#63b8ff" points="156.64,-79.56 166,-74.59 155.59,-72.64 156.64,-79.56"/>
</a>
</g>
</g>
<!-- Node8 -->
<g id="Node000008" class="node">
<title>Node8</title>
<g id="a_Node000008"><a xlink:href="class_fiea_1_1_engine_1_1_content_1_1_datum.html#a2e77039e198d4eb10dfd1795117bf4d3" target="_top" xlink:title="Set value at a specific index. This uses universal operator so it can bind to lrefs and rrefs.">
<polygon fill="white" stroke="#666666" points="279.12,-32 167.88,-32 167.88,0 279.12,0 279.12,-32"/>
<text text-anchor="start" x="175.88" y="-18.5" font-family="Helvetica,sans-Serif" font-size="10.00">Fiea::Engine::Content</text>
<text text-anchor="middle" x="223.5" y="-6.5" font-family="Helvetica,sans-Serif" font-size="10.00">::Datum::Set</text>
</a>
</g>
</g>
<!-- Node1&#45;&gt;Node8 -->
<g id="edge7_Node000001_Node000008" class="edge">
<title>Node1&#45;&gt;Node8</title>
<g id="a_edge7_Node000001_Node000008"><a xlink:title=" ">
<path fill="none" stroke="#63b8ff" d="M85.35,-74.69C103.38,-64.27 127.77,-50.91 150.25,-41 153.76,-39.45 157.39,-37.94 161.08,-36.47"/>
<polygon fill="#63b8ff" stroke="#63b8ff" points="162.07,-39.84 170.15,-32.99 159.56,-33.3 162.07,-39.84"/>
</a>
</g>
</g>
<!-- Node5 -->
<g id="Node000005" class="node">
<title>Node5</title>
<g id="a_Node000005"><a xlink:href="class_fiea_1_1_engine_1_1_content_1_1_datum.html#ac2c889535360fcb22e94133869c4ae29" target="_top" xlink:title=" ">
<polygon fill="white" stroke="#666666" points="445.12,-132 333.88,-132 333.88,-100 445.12,-100 445.12,-132"/>
<text text-anchor="start" x="341.88" y="-118.5" font-family="Helvetica,sans-Serif" font-size="10.00">Fiea::Engine::Content</text>
<text text-anchor="middle" x="389.5" y="-106.5" font-family="Helvetica,sans-Serif" font-size="10.00">::Datum::GetMaxSize</text>
</a>
</g>
</g>
<!-- Node4&#45;&gt;Node5 -->
<g id="edge4_Node000004_Node000005" class="edge">
<title>Node4&#45;&gt;Node5</title>
<g id="a_edge4_Node000004_Node000005"><a xlink:title=" ">
<path fill="none" stroke="#63b8ff" d="M278.2,-82.37C292.71,-86.8 308.56,-91.63 323.61,-96.22"/>
<polygon fill="#63b8ff" stroke="#63b8ff" points="322.37,-99.5 332.95,-99.06 324.41,-92.8 322.37,-99.5"/>
</a>
</g>
</g>
<!-- Node6 -->
<g id="Node000006" class="node">
<title>Node6</title>
<g id="a_Node000006"><a xlink:href="class_fiea_1_1_engine_1_1_content_1_1_datum.html#aede9c541fd5184f33e84640a787d421d" target="_top" xlink:title=" ">
<polygon fill="white" stroke="#666666" points="446.25,-82 332.75,-82 332.75,-50 446.25,-50 446.25,-82"/>
<text text-anchor="start" x="340.75" y="-68.5" font-family="Helvetica,sans-Serif" font-size="10.00">Fiea::Engine::Content</text>
<text text-anchor="middle" x="389.5" y="-56.5" font-family="Helvetica,sans-Serif" font-size="10.00">::Datum::HasMaxSize</text>
</a>
</g>
</g>
<!-- Node4&#45;&gt;Node6 -->
<g id="edge5_Node000004_Node000006" class="edge">
<title>Node4&#45;&gt;Node6</title>
<g id="a_edge5_Node000004_Node000006"><a xlink:title=" ">
<path fill="none" stroke="#63b8ff" d="M279.57,-66C292.87,-66 307.24,-66 321.04,-66"/>
<polygon fill="#63b8ff" stroke="#63b8ff" points="320.95,-69.5 330.95,-66 320.95,-62.5 320.95,-69.5"/>
</a>
</g>
</g>
<!-- Node7 -->
<g id="Node000007" class="node">
<title>Node7</title>
<g id="a_Node000007"><a xlink:href="class_fiea_1_1_engine_1_1_content_1_1_datum.html#acae68c3bc8b20345e4c3790fa37bd8d5" target="_top" xlink:title=" ">
<polygon fill="white" stroke="#666666" points="445.12,-32 333.88,-32 333.88,0 445.12,0 445.12,-32"/>
<text text-anchor="start" x="341.88" y="-18.5" font-family="Helvetica,sans-Serif" font-size="10.00">Fiea::Engine::Content</text>
<text text-anchor="middle" x="389.5" y="-6.5" font-family="Helvetica,sans-Serif" font-size="10.00">::Datum::Size</text>
</a>
</g>
</g>
<!-- Node4&#45;&gt;Node7 -->
<g id="edge6_Node000004_Node000007" class="edge">
<title>Node4&#45;&gt;Node7</title>
<g id="a_edge6_Node000004_Node000007"><a xlink:title=" ">
<path fill="none" stroke="#63b8ff" d="M278.2,-49.63C292.71,-45.2 308.56,-40.37 323.61,-35.78"/>
<polygon fill="#63b8ff" stroke="#63b8ff" points="324.41,-39.2 332.95,-32.94 322.37,-32.5 324.41,-39.2"/>
</a>
</g>
</g>
</g>
</svg>
