<?xml version="1.0" encoding="UTF-8" standalone="no"?>
<!DOCTYPE svg PUBLIC "-//W3C//DTD SVG 1.1//EN"
 "http://www.w3.org/Graphics/SVG/1.1/DTD/svg11.dtd">
<!-- Generated by graphviz version 12.2.1 (20241206.2353)
 -->
<!-- Title: Fiea::Engine::Content::ArrayHandler::EnterKey Pages: 1 -->
<svg width="505pt" height="202pt"
 viewBox="0.00 0.00 505.25 202.00" xmlns="http://www.w3.org/2000/svg" xmlns:xlink="http://www.w3.org/1999/xlink">
<g id="graph0" class="graph" transform="scale(1 1) rotate(0) translate(4 198)">
<title>Fiea::Engine::Content::ArrayHandler::EnterKey</title>
<!-- Node1 -->
<g id="Node000001" class="node">
<title>Node1</title>
<g id="a_Node000001"><a xlink:title=" ">
<polygon fill="#999999" stroke="#666666" points="125.5,-128 0,-128 0,-96 125.5,-96 125.5,-128"/>
<text text-anchor="start" x="8" y="-114.5" font-family="Helvetica,sans-Serif" font-size="10.00">Fiea::Engine::Content</text>
<text text-anchor="middle" x="62.75" y="-102.5" font-family="Helvetica,sans-Serif" font-size="10.00">::ArrayHandler::EnterKey</text>
</a>
</g>
</g>
<!-- Node2 -->
<g id="Node000002" class="node">
<title>Node2</title>
<g id="a_Node000002"><a xlink:href="class_fiea_1_1_engine_1_1_r_t_t_i.html#a15bd5993c8ad04da47af440298ebbb30" target="_top" xlink:title=" ">
<polygon fill="white" stroke="#666666" points="296.38,-194 179.88,-194 179.88,-174 296.38,-174 296.38,-194"/>
<text text-anchor="middle" x="238.12" y="-180.5" font-family="Helvetica,sans-Serif" font-size="10.00">Fiea::Engine::RTTI::As</text>
</a>
</g>
</g>
<!-- Node1&#45;&gt;Node2 -->
<g id="edge1_Node000001_Node000002" class="edge">
<title>Node1&#45;&gt;Node2</title>
<g id="a_edge1_Node000001_Node000002"><a xlink:title=" ">
<path fill="none" stroke="#63b8ff" d="M89.85,-128.5C109.06,-140.04 136.14,-155.12 161.5,-165 166.52,-166.95 171.8,-168.76 177.15,-170.42"/>
<polygon fill="#63b8ff" stroke="#63b8ff" points="176.12,-173.76 186.69,-173.19 178.07,-167.04 176.12,-173.76"/>
</a>
</g>
</g>
<!-- Node4 -->
<g id="Node000004" class="node">
<title>Node4</title>
<g id="a_Node000004"><a xlink:href="class_fiea_1_1_engine_1_1_content_1_1_array_handler.html#a746a80f484638eb130dc70b3f53d3193" target="_top" xlink:title=" ">
<polygon fill="white" stroke="#666666" points="301.62,-156 174.62,-156 174.62,-124 301.62,-124 301.62,-156"/>
<text text-anchor="start" x="182.62" y="-142.5" font-family="Helvetica,sans-Serif" font-size="10.00">Fiea::Engine::Content</text>
<text text-anchor="middle" x="238.12" y="-130.5" font-family="Helvetica,sans-Serif" font-size="10.00">::ArrayHandler::HandlerId</text>
</a>
</g>
</g>
<!-- Node1&#45;&gt;Node4 -->
<g id="edge3_Node000001_Node000004" class="edge">
<title>Node1&#45;&gt;Node4</title>
<g id="a_edge3_Node000001_Node000004"><a xlink:title=" ">
<path fill="none" stroke="#63b8ff" d="M125.85,-122.03C137.9,-123.98 150.65,-126.03 163.04,-128.03"/>
<polygon fill="#63b8ff" stroke="#63b8ff" points="162.37,-131.47 172.8,-129.61 163.48,-124.56 162.37,-131.47"/>
</a>
</g>
</g>
<!-- Node5 -->
<g id="Node000005" class="node">
<title>Node5</title>
<g id="a_Node000005"><a xlink:href="class_fiea_1_1_engine_1_1_content_1_1_scope_writer.html#a9b532cf2870d114a3cb24555ddd1cba5" target="_top" xlink:title=" ">
<polygon fill="white" stroke="#666666" points="308.38,-106 167.88,-106 167.88,-62 308.38,-62 308.38,-106"/>
<text text-anchor="start" x="175.88" y="-92.5" font-family="Helvetica,sans-Serif" font-size="10.00">Fiea::Engine::Content</text>
<text text-anchor="start" x="175.88" y="-80.5" font-family="Helvetica,sans-Serif" font-size="10.00">::ScopeWriter::IsKeyStorage</text>
<text text-anchor="middle" x="238.12" y="-68.5" font-family="Helvetica,sans-Serif" font-size="10.00">External</text>
</a>
</g>
</g>
<!-- Node1&#45;&gt;Node5 -->
<g id="edge4_Node000001_Node000005" class="edge">
<title>Node1&#45;&gt;Node5</title>
<g id="a_edge4_Node000001_Node000005"><a xlink:title=" ">
<path fill="none" stroke="#63b8ff" d="M125.85,-101.97C135.77,-100.37 146.16,-98.69 156.43,-97.03"/>
<polygon fill="#63b8ff" stroke="#63b8ff" points="156.7,-100.53 166.01,-95.48 155.58,-93.62 156.7,-100.53"/>
</a>
</g>
</g>
<!-- Node8 -->
<g id="Node000008" class="node">
<title>Node8</title>
<g id="a_Node000008"><a xlink:href="class_fiea_1_1_engine_1_1_content_1_1_scope_writer.html#a81d8847be5d2eb6189de44fcfb04a134" target="_top" xlink:title=" ">
<polygon fill="white" stroke="#666666" points="314.75,-44 161.5,-44 161.5,0 314.75,0 314.75,-44"/>
<text text-anchor="start" x="169.5" y="-30.5" font-family="Helvetica,sans-Serif" font-size="10.00">Fiea::Engine::Content</text>
<text text-anchor="start" x="169.5" y="-18.5" font-family="Helvetica,sans-Serif" font-size="10.00">::ScopeWriter::SetExternalData</text>
<text text-anchor="middle" x="238.12" y="-6.5" font-family="Helvetica,sans-Serif" font-size="10.00">Teller</text>
</a>
</g>
</g>
<!-- Node1&#45;&gt;Node8 -->
<g id="edge7_Node000001_Node000008" class="edge">
<title>Node1&#45;&gt;Node8</title>
<g id="a_edge7_Node000001_Node000008"><a xlink:title=" ">
<path fill="none" stroke="#63b8ff" d="M88.46,-95.63C107.87,-83.13 135.82,-65.92 161.5,-53 164.05,-51.72 166.67,-50.44 169.33,-49.19"/>
<polygon fill="#63b8ff" stroke="#63b8ff" points="170.7,-52.41 178.34,-45.07 167.79,-46.04 170.7,-52.41"/>
</a>
</g>
</g>
<!-- Node3 -->
<g id="Node000003" class="node">
<title>Node3</title>
<g id="a_Node000003"><a xlink:href="class_fiea_1_1_engine_1_1_r_t_t_i.html#ac0a7d875e4513b2aca7594abcd4418ef" target="_top" xlink:title=" ">
<polygon fill="white" stroke="#666666" points="480.38,-194 367.62,-194 367.62,-174 480.38,-174 480.38,-194"/>
<text text-anchor="middle" x="424" y="-180.5" font-family="Helvetica,sans-Serif" font-size="10.00">Fiea::Engine::RTTI::Is</text>
</a>
</g>
</g>
<!-- Node2&#45;&gt;Node3 -->
<g id="edge2_Node000002_Node000003" class="edge">
<title>Node2&#45;&gt;Node3</title>
<g id="a_edge2_Node000002_Node000003"><a xlink:title=" ">
<path fill="none" stroke="#63b8ff" d="M296.8,-184C315.55,-184 336.52,-184 355.91,-184"/>
<polygon fill="#63b8ff" stroke="#63b8ff" points="355.9,-187.5 365.9,-184 355.9,-180.5 355.9,-187.5"/>
</a>
</g>
</g>
<!-- Node6 -->
<g id="Node000006" class="node">
<title>Node6</title>
<g id="a_Node000006"><a xlink:href="class_fiea_1_1_engine_1_1_content_1_1_scope.html#ad924c01785b239991fc0e56a63295612" target="_top" xlink:title="Return the Datum at the requested key, or nullptr if not found.">
<polygon fill="white" stroke="#666666" points="479.62,-144 368.38,-144 368.38,-112 479.62,-112 479.62,-144"/>
<text text-anchor="start" x="376.38" y="-130.5" font-family="Helvetica,sans-Serif" font-size="10.00">Fiea::Engine::Content</text>
<text text-anchor="middle" x="424" y="-118.5" font-family="Helvetica,sans-Serif" font-size="10.00">::Scope::Find</text>
</a>
</g>
</g>
<!-- Node5&#45;&gt;Node6 -->
<g id="edge5_Node000005_Node000006" class="edge">
<title>Node5&#45;&gt;Node6</title>
<g id="a_edge5_Node000005_Node000006"><a xlink:title=" ">
<path fill="none" stroke="#63b8ff" d="M308.64,-100.63C324.43,-104.41 341.17,-108.42 356.82,-112.16"/>
<polygon fill="#63b8ff" stroke="#63b8ff" points="355.98,-115.56 366.52,-114.49 357.61,-108.75 355.98,-115.56"/>
</a>
</g>
</g>
<!-- Node7 -->
<g id="Node000007" class="node">
<title>Node7</title>
<g id="a_Node000007"><a xlink:href="class_fiea_1_1_engine_1_1_content_1_1_datum.html#a9b05337db582483976624ab93839bfa7" target="_top" xlink:title=" ">
<polygon fill="white" stroke="#666666" points="491.62,-94 356.38,-94 356.38,-62 491.62,-62 491.62,-94"/>
<text text-anchor="start" x="364.38" y="-80.5" font-family="Helvetica,sans-Serif" font-size="10.00">Fiea::Engine::Content</text>
<text text-anchor="middle" x="424" y="-68.5" font-family="Helvetica,sans-Serif" font-size="10.00">::Datum::IsStorageExternal</text>
</a>
</g>
</g>
<!-- Node5&#45;&gt;Node7 -->
<g id="edge6_Node000005_Node000007" class="edge">
<title>Node5&#45;&gt;Node7</title>
<g id="a_edge6_Node000005_Node000007"><a xlink:title=" ">
<path fill="none" stroke="#63b8ff" d="M308.64,-81.73C320.43,-81.35 332.75,-80.95 344.75,-80.55"/>
<polygon fill="#63b8ff" stroke="#63b8ff" points="344.73,-84.06 354.61,-80.23 344.5,-77.06 344.73,-84.06"/>
</a>
</g>
</g>
<!-- Node9 -->
<g id="Node000009" class="node">
<title>Node9</title>
<g id="a_Node000009"><a xlink:href="class_fiea_1_1_engine_1_1_content_1_1_scope_writer.html#a626dca625d92c898453cf9d75d9573d3" target="_top" xlink:title=" ">
<polygon fill="white" stroke="#666666" points="497.25,-38 350.75,-38 350.75,-6 497.25,-6 497.25,-38"/>
<text text-anchor="start" x="358.75" y="-24.5" font-family="Helvetica,sans-Serif" font-size="10.00">Fiea::Engine::Content</text>
<text text-anchor="middle" x="424" y="-12.5" font-family="Helvetica,sans-Serif" font-size="10.00">::ScopeWriter::IsDataExternal</text>
</a>
</g>
</g>
<!-- Node8&#45;&gt;Node9 -->
<g id="edge8_Node000008_Node000009" class="edge">
<title>Node8&#45;&gt;Node9</title>
<g id="a_edge8_Node000008_Node000009"><a xlink:title=" ">
<path fill="none" stroke="#63b8ff" d="M315.24,-22C323.07,-22 331.07,-22 338.98,-22"/>
<polygon fill="#63b8ff" stroke="#63b8ff" points="338.97,-25.5 348.97,-22 338.97,-18.5 338.97,-25.5"/>
</a>
</g>
</g>
</g>
</svg>
