<?xml version="1.0" encoding="UTF-8" standalone="no"?>
<!DOCTYPE svg PUBLIC "-//W3C//DTD SVG 1.1//EN"
 "http://www.w3.org/Graphics/SVG/1.1/DTD/svg11.dtd">
<!-- Generated by graphviz version 12.2.1 (20241206.2353)
 -->
<!-- Title: Fiea::Engine::Content::Actions::ActionList::ActionList Pages: 1 -->
<svg width="291pt" height="102pt"
 viewBox="0.00 0.00 291.25 102.00" xmlns="http://www.w3.org/2000/svg" xmlns:xlink="http://www.w3.org/1999/xlink">
<g id="graph0" class="graph" transform="scale(1 1) rotate(0) translate(4 98)">
<title>Fiea::Engine::Content::Actions::ActionList::ActionList</title>
<!-- Node1 -->
<g id="Node000001" class="node">
<title>Node1</title>
<g id="a_Node000001"><a xlink:title=" ">
<polygon fill="#999999" stroke="#666666" points="111.25,-72 0,-72 0,-28 111.25,-28 111.25,-72"/>
<text text-anchor="start" x="8" y="-58.5" font-family="Helvetica,sans-Serif" font-size="10.00">Fiea::Engine::Content</text>
<text text-anchor="start" x="8" y="-46.5" font-family="Helvetica,sans-Serif" font-size="10.00">::Actions::ActionList</text>
<text text-anchor="middle" x="55.62" y="-34.5" font-family="Helvetica,sans-Serif" font-size="10.00">::ActionList</text>
</a>
</g>
</g>
<!-- Node2 -->
<g id="Node000002" class="node">
<title>Node2</title>
<g id="a_Node000002"><a xlink:href="namespace_fiea_1_1_engine_1_1_content.html#af00b5368aad7aaf9ee6a4eff958cc789" target="_top" xlink:title=" ">
<polygon fill="white" stroke="#666666" points="283.25,-94 147.25,-94 147.25,-62 283.25,-62 283.25,-94"/>
<text text-anchor="start" x="155.25" y="-80.5" font-family="Helvetica,sans-Serif" font-size="10.00">Fiea::Engine::Content</text>
<text text-anchor="middle" x="215.25" y="-68.5" font-family="Helvetica,sans-Serif" font-size="10.00">::AggregateClassDefintions</text>
</a>
</g>
</g>
<!-- Node1&#45;&gt;Node2 -->
<g id="edge1_Node000001_Node000002" class="edge">
<title>Node1&#45;&gt;Node2</title>
<g id="a_edge1_Node000001_Node000002"><a xlink:title=" ">
<path fill="none" stroke="#63b8ff" d="M111.31,-59.71C119.2,-61.12 127.44,-62.58 135.68,-64.04"/>
<polygon fill="#63b8ff" stroke="#63b8ff" points="134.93,-67.46 145.39,-65.77 136.15,-60.57 134.93,-67.46"/>
</a>
</g>
</g>
<!-- Node3 -->
<g id="Node000003" class="node">
<title>Node3</title>
<g id="a_Node000003"><a xlink:href="class_fiea_1_1_engine_1_1_content_1_1_actions_1_1_action_list.html#a9579aaa28bd9320d0dbbafbde400a300" target="_top" xlink:title=" ">
<polygon fill="white" stroke="#666666" points="270.88,-44 159.62,-44 159.62,0 270.88,0 270.88,-44"/>
<text text-anchor="start" x="167.62" y="-30.5" font-family="Helvetica,sans-Serif" font-size="10.00">Fiea::Engine::Content</text>
<text text-anchor="start" x="167.62" y="-18.5" font-family="Helvetica,sans-Serif" font-size="10.00">::Actions::ActionList</text>
<text text-anchor="middle" x="215.25" y="-6.5" font-family="Helvetica,sans-Serif" font-size="10.00">::GetClassDefinition</text>
</a>
</g>
</g>
<!-- Node1&#45;&gt;Node3 -->
<g id="edge2_Node000001_Node000003" class="edge">
<title>Node1&#45;&gt;Node3</title>
<g id="a_edge2_Node000001_Node000003"><a xlink:title=" ">
<path fill="none" stroke="#63b8ff" d="M111.31,-40.29C123.16,-38.18 135.81,-35.93 148.04,-33.76"/>
<polygon fill="#63b8ff" stroke="#63b8ff" points="148.4,-37.25 157.64,-32.06 147.18,-30.36 148.4,-37.25"/>
</a>
</g>
</g>
</g>
</svg>
