<?xml version="1.0" encoding="UTF-8" standalone="no"?>
<!DOCTYPE svg PUBLIC "-//W3C//DTD SVG 1.1//EN"
 "http://www.w3.org/Graphics/SVG/1.1/DTD/svg11.dtd">
<!-- Generated by graphviz version 12.2.1 (20241206.2353)
 -->
<!-- Title: Fiea::Engine::Content::Datum::HasMaxSize Pages: 1 -->
<svg width="803pt" height="714pt"
 viewBox="0.00 0.00 802.75 714.00" xmlns="http://www.w3.org/2000/svg" xmlns:xlink="http://www.w3.org/1999/xlink">
<g id="graph0" class="graph" transform="scale(1 1) rotate(0) translate(4 710)">
<title>Fiea::Engine::Content::Datum::HasMaxSize</title>
<!-- Node1 -->
<g id="Node000001" class="node">
<title>Node1</title>
<g id="a_Node000001"><a xlink:title=" ">
<polygon fill="#999999" stroke="#666666" points="794.75,-523 681.25,-523 681.25,-491 794.75,-491 794.75,-523"/>
<text text-anchor="start" x="689.25" y="-509.5" font-family="Helvetica,sans-Serif" font-size="10.00">Fiea::Engine::Content</text>
<text text-anchor="middle" x="738" y="-497.5" font-family="Helvetica,sans-Serif" font-size="10.00">::Datum::HasMaxSize</text>
</a>
</g>
</g>
<!-- Node2 -->
<g id="Node000002" class="node">
<title>Node2</title>
<g id="a_Node000002"><a xlink:href="class_fiea_1_1_engine_1_1_content_1_1_datum.html#a85505c22dfd7e858fe2f1868715e3812" target="_top" xlink:title=" ">
<polygon fill="white" stroke="#666666" points="645.25,-595 534,-595 534,-563 645.25,-563 645.25,-595"/>
<text text-anchor="start" x="542" y="-581.5" font-family="Helvetica,sans-Serif" font-size="10.00">Fiea::Engine::Content</text>
<text text-anchor="middle" x="589.62" y="-569.5" font-family="Helvetica,sans-Serif" font-size="10.00">::Datum::Push</text>
</a>
</g>
</g>
<!-- Node1&#45;&gt;Node2 -->
<g id="edge1_Node000001_Node000002" class="edge">
<title>Node1&#45;&gt;Node2</title>
<g id="a_edge1_Node000001_Node000002"><a xlink:title=" ">
<path fill="none" stroke="#63b8ff" d="M695.8,-528.6C680.06,-536.72 661.9,-545.93 645.25,-554 639.43,-556.82 633.23,-559.74 627.16,-562.55"/>
<polygon fill="#63b8ff" stroke="#63b8ff" points="697.13,-531.85 704.4,-524.14 693.92,-525.63 697.13,-531.85"/>
</a>
</g>
</g>
<!-- Node3 -->
<g id="Node000003" class="node">
<title>Node3</title>
<g id="a_Node000003"><a xlink:href="class_fiea_1_1_engine_1_1_content_1_1_datum.html#ab7bb44684e4d83d0842c3474def99b7f" target="_top" xlink:title=" ">
<polygon fill="white" stroke="#666666" points="645.25,-545 534,-545 534,-513 645.25,-513 645.25,-545"/>
<text text-anchor="start" x="542" y="-531.5" font-family="Helvetica,sans-Serif" font-size="10.00">Fiea::Engine::Content</text>
<text text-anchor="middle" x="589.62" y="-519.5" font-family="Helvetica,sans-Serif" font-size="10.00">::Datum::Push</text>
</a>
</g>
</g>
<!-- Node1&#45;&gt;Node3 -->
<g id="edge2_Node000001_Node000003" class="edge">
<title>Node1&#45;&gt;Node3</title>
<g id="a_edge2_Node000001_Node000003"><a xlink:title=" ">
<path fill="none" stroke="#63b8ff" d="M669.53,-517.14C661.46,-518.35 653.3,-519.58 645.44,-520.76"/>
<polygon fill="#63b8ff" stroke="#63b8ff" points="669.96,-520.62 679.33,-515.67 668.92,-513.69 669.96,-520.62"/>
</a>
</g>
</g>
<!-- Node4 -->
<g id="Node000004" class="node">
<title>Node4</title>
<g id="a_Node000004"><a xlink:href="class_fiea_1_1_engine_1_1_content_1_1_datum.html#a4ccb082ce85390925305f19a24daaed8" target="_top" xlink:title="This function is for pushing an element at the back of the data union array. It is using a universal ...">
<polygon fill="white" stroke="#666666" points="645.25,-232 534,-232 534,-200 645.25,-200 645.25,-232"/>
<text text-anchor="start" x="542" y="-218.5" font-family="Helvetica,sans-Serif" font-size="10.00">Fiea::Engine::Content</text>
<text text-anchor="middle" x="589.62" y="-206.5" font-family="Helvetica,sans-Serif" font-size="10.00">::Datum::Push</text>
</a>
</g>
</g>
<!-- Node1&#45;&gt;Node4 -->
<g id="edge3_Node000001_Node000004" class="edge">
<title>Node1&#45;&gt;Node4</title>
<g id="a_edge3_Node000001_Node000004"><a xlink:title=" ">
<path fill="none" stroke="#63b8ff" d="M723.66,-480.48C693.93,-421.38 622.96,-280.28 598.82,-232.3"/>
<polygon fill="#63b8ff" stroke="#63b8ff" points="720.41,-481.81 728.03,-489.17 726.66,-478.66 720.41,-481.81"/>
</a>
</g>
</g>
<!-- Node10 -->
<g id="Node000010" class="node">
<title>Node10</title>
<g id="a_Node000010"><a xlink:href="class_fiea_1_1_engine_1_1_content_1_1_scope_writer.html#adb1089ed0ff92fae8826810cef43e447" target="_top" xlink:title=" ">
<polygon fill="white" stroke="#666666" points="302.75,-526 171.25,-526 171.25,-494 302.75,-494 302.75,-526"/>
<text text-anchor="start" x="179.25" y="-512.5" font-family="Helvetica,sans-Serif" font-size="10.00">Fiea::Engine::Content</text>
<text text-anchor="middle" x="237" y="-500.5" font-family="Helvetica,sans-Serif" font-size="10.00">::ScopeWriter::PushScope</text>
</a>
</g>
</g>
<!-- Node1&#45;&gt;Node10 -->
<g id="edge27_Node000001_Node000010" class="edge">
<title>Node1&#45;&gt;Node10</title>
<g id="a_edge27_Node000001_Node000010"><a xlink:title=" ">
<path fill="none" stroke="#63b8ff" d="M669.95,-504.55C661.64,-504.33 653.25,-504.13 645.25,-504 524.53,-502.03 383.67,-505.36 303.24,-507.79"/>
<polygon fill="#63b8ff" stroke="#63b8ff" points="669.6,-508.05 679.7,-504.84 669.8,-501.05 669.6,-508.05"/>
</a>
</g>
</g>
<!-- Node5 -->
<g id="Node000005" class="node">
<title>Node5</title>
<g id="a_Node000005"><a xlink:href="class_fiea_1_1_engine_1_1_content_1_1_scope.html#abf39accc1ce38b12bcbc6884ba0165e3" target="_top" xlink:title="You can provide a child scope that you wish this scope to adopt. You should not adopt a scope if it a...">
<polygon fill="white" stroke="#666666" points="475.88,-432 364.62,-432 364.62,-400 475.88,-400 475.88,-432"/>
<text text-anchor="start" x="372.62" y="-418.5" font-family="Helvetica,sans-Serif" font-size="10.00">Fiea::Engine::Content</text>
<text text-anchor="middle" x="420.25" y="-406.5" font-family="Helvetica,sans-Serif" font-size="10.00">::Scope::Adopt</text>
</a>
</g>
</g>
<!-- Node4&#45;&gt;Node5 -->
<g id="edge4_Node000004_Node000005" class="edge">
<title>Node4&#45;&gt;Node5</title>
<g id="a_edge4_Node000004_Node000005"><a xlink:title=" ">
<path fill="none" stroke="#63b8ff" d="M571.7,-241.96C554.34,-267.93 525.99,-308.58 498,-341 479.5,-362.44 455.91,-384.86 439.8,-399.54"/>
<polygon fill="#63b8ff" stroke="#63b8ff" points="574.57,-243.97 577.17,-233.71 568.73,-240.11 574.57,-243.97"/>
</a>
</g>
</g>
<!-- Node15 -->
<g id="Node000015" class="node">
<title>Node15</title>
<g id="a_Node000015"><a xlink:href="class_fiea_1_1_engine_1_1_content_1_1_scope_writer.html#a2ed39f31d26f92f8d74c13b4fc466f77" target="_top" xlink:title="This function should be called for ading string, float or ints into the Scope. Any other data type wo...">
<polygon fill="white" stroke="#666666" points="477.38,-282 363.12,-282 363.12,-250 477.38,-250 477.38,-282"/>
<text text-anchor="start" x="371.12" y="-268.5" font-family="Helvetica,sans-Serif" font-size="10.00">Fiea::Engine::Content</text>
<text text-anchor="middle" x="420.25" y="-256.5" font-family="Helvetica,sans-Serif" font-size="10.00">::ScopeWriter::Append</text>
</a>
</g>
</g>
<!-- Node4&#45;&gt;Node15 -->
<g id="edge15_Node000004_Node000015" class="edge">
<title>Node4&#45;&gt;Node15</title>
<g id="a_edge15_Node000004_Node000015"><a xlink:title=" ">
<path fill="none" stroke="#63b8ff" d="M522.83,-235.66C507.48,-240.24 491.3,-245.08 476.46,-249.51"/>
<polygon fill="#63b8ff" stroke="#63b8ff" points="523.79,-239.02 532.37,-232.81 521.79,-232.31 523.79,-239.02"/>
</a>
</g>
</g>
<!-- Node21 -->
<g id="Node000021" class="node">
<title>Node21</title>
<g id="a_Node000021"><a xlink:href="class_fiea_1_1_engine_1_1_content_1_1_datum.html#a07e356344548914a00b0f3af50593743" target="_top" xlink:title=" ">
<polygon fill="white" stroke="#666666" points="475.88,-232 364.62,-232 364.62,-200 475.88,-200 475.88,-232"/>
<text text-anchor="start" x="372.62" y="-218.5" font-family="Helvetica,sans-Serif" font-size="10.00">Fiea::Engine::Content</text>
<text text-anchor="middle" x="420.25" y="-206.5" font-family="Helvetica,sans-Serif" font-size="10.00">::Datum::Datum</text>
</a>
</g>
</g>
<!-- Node4&#45;&gt;Node21 -->
<g id="edge21_Node000004_Node000021" class="edge">
<title>Node4&#45;&gt;Node21</title>
<g id="a_edge21_Node000004_Node000021"><a xlink:title=" ">
<path fill="none" stroke="#63b8ff" d="M522.32,-216C507.03,-216 490.92,-216 476.18,-216"/>
<polygon fill="#63b8ff" stroke="#63b8ff" points="522.31,-219.5 532.31,-216 522.31,-212.5 522.31,-219.5"/>
</a>
</g>
</g>
<!-- Node22 -->
<g id="Node000022" class="node">
<title>Node22</title>
<g id="a_Node000022"><a xlink:href="class_fiea_1_1_engine_1_1_content_1_1_datum.html#a5594d9dd3a0a4b365bcbb2aa5db4e94f" target="_top" xlink:title=" ">
<polygon fill="white" stroke="#666666" points="475.88,-182 364.62,-182 364.62,-150 475.88,-150 475.88,-182"/>
<text text-anchor="start" x="372.62" y="-168.5" font-family="Helvetica,sans-Serif" font-size="10.00">Fiea::Engine::Content</text>
<text text-anchor="middle" x="420.25" y="-156.5" font-family="Helvetica,sans-Serif" font-size="10.00">::Datum::Datum</text>
</a>
</g>
</g>
<!-- Node4&#45;&gt;Node22 -->
<g id="edge22_Node000004_Node000022" class="edge">
<title>Node4&#45;&gt;Node22</title>
<g id="a_edge22_Node000004_Node000022"><a xlink:title=" ">
<path fill="none" stroke="#63b8ff" d="M523.22,-196.46C507.66,-191.81 491.21,-186.9 476.18,-182.41"/>
<polygon fill="#63b8ff" stroke="#63b8ff" points="521.79,-199.69 532.37,-199.19 523.79,-192.98 521.79,-199.69"/>
</a>
</g>
</g>
<!-- Node23 -->
<g id="Node000023" class="node">
<title>Node23</title>
<g id="a_Node000023"><a xlink:href="class_fiea_1_1_engine_1_1_content_1_1_actions_1_1_preamble_action.html#a44a59e04e805964256440543040d2aee" target="_top" xlink:title="Searches for the variable that needs to be initialized and sets the value. Returns true because there...">
<polygon fill="white" stroke="#666666" points="495,-132 345.5,-132 345.5,-100 495,-100 495,-132"/>
<text text-anchor="start" x="353.5" y="-118.5" font-family="Helvetica,sans-Serif" font-size="10.00">Fiea::Engine::Content</text>
<text text-anchor="middle" x="420.25" y="-106.5" font-family="Helvetica,sans-Serif" font-size="10.00">::Actions::PreambleAction::Init</text>
</a>
</g>
</g>
<!-- Node4&#45;&gt;Node23 -->
<g id="edge23_Node000004_Node000023" class="edge">
<title>Node4&#45;&gt;Node23</title>
<g id="a_edge23_Node000004_Node000023"><a xlink:title=" ">
<path fill="none" stroke="#63b8ff" d="M564.8,-191.98C547.53,-175.69 522.91,-154.71 498,-141 492.23,-137.82 485.99,-134.97 479.65,-132.43"/>
<polygon fill="#63b8ff" stroke="#63b8ff" points="561.94,-194.08 571.58,-198.49 566.8,-189.04 561.94,-194.08"/>
</a>
</g>
</g>
<!-- Node24 -->
<g id="Node000024" class="node">
<title>Node24</title>
<g id="a_Node000024"><a xlink:href="class_fiea_1_1_engine_1_1_tests_1_1_support_1_1_action_add_datum.html#a8038baa36384ba9702596cbe3e41780e" target="_top" xlink:title=" ">
<polygon fill="white" stroke="#666666" points="498,-82 342.5,-82 342.5,-50 498,-50 498,-82"/>
<text text-anchor="start" x="350.5" y="-68.5" font-family="Helvetica,sans-Serif" font-size="10.00">Fiea::Engine::Tests</text>
<text text-anchor="middle" x="420.25" y="-56.5" font-family="Helvetica,sans-Serif" font-size="10.00">::Support::ActionAddDatum::Init</text>
</a>
</g>
</g>
<!-- Node4&#45;&gt;Node24 -->
<g id="edge24_Node000004_Node000024" class="edge">
<title>Node4&#45;&gt;Node24</title>
<g id="a_edge24_Node000004_Node000024"><a xlink:title=" ">
<path fill="none" stroke="#63b8ff" d="M575.95,-189.68C561.05,-161.39 533.74,-117.02 498,-91 493.47,-87.7 488.48,-84.82 483.28,-82.31"/>
<polygon fill="#63b8ff" stroke="#63b8ff" points="572.69,-190.99 580.36,-198.31 578.93,-187.81 572.69,-190.99"/>
</a>
</g>
</g>
<!-- Node25 -->
<g id="Node000025" class="node">
<title>Node25</title>
<g id="a_Node000025"><a xlink:href="class_fiea_1_1_engine_1_1_content_1_1_datum.html#a5470e7bc6508298cedbf1f200c765493" target="_top" xlink:title="Push a value of type T into the array in the data union. User has to explicitly pass in the template ...">
<polygon fill="white" stroke="#666666" points="484.12,-32 356.38,-32 356.38,0 484.12,0 484.12,-32"/>
<text text-anchor="start" x="364.38" y="-18.5" font-family="Helvetica,sans-Serif" font-size="10.00">Fiea::Engine::Content</text>
<text text-anchor="middle" x="420.25" y="-6.5" font-family="Helvetica,sans-Serif" font-size="10.00">::Datum::PushFromString</text>
</a>
</g>
</g>
<!-- Node4&#45;&gt;Node25 -->
<g id="edge25_Node000004_Node000025" class="edge">
<title>Node4&#45;&gt;Node25</title>
<g id="a_edge25_Node000004_Node000025"><a xlink:title=" ">
<path fill="none" stroke="#63b8ff" d="M581.56,-188.53C570.28,-150.09 544.58,-80.55 498,-41 493.94,-37.55 489.4,-34.58 484.6,-32.01"/>
<polygon fill="#63b8ff" stroke="#63b8ff" points="578.19,-189.47 584.25,-198.16 584.93,-187.58 578.19,-189.47"/>
</a>
</g>
</g>
<!-- Node26 -->
<g id="Node000026" class="node">
<title>Node26</title>
<g id="a_Node000026"><a xlink:href="namespace_fiea_1_1_engine_1_1_tests.html#a0767a5dea6dd506e0dca7a9f54bd5ad2" target="_top" xlink:title=" ">
<polygon fill="white" stroke="#666666" points="470.62,-332 369.88,-332 369.88,-300 470.62,-300 470.62,-332"/>
<text text-anchor="start" x="377.88" y="-318.5" font-family="Helvetica,sans-Serif" font-size="10.00">Fiea::Engine::Tests</text>
<text text-anchor="middle" x="420.25" y="-306.5" font-family="Helvetica,sans-Serif" font-size="10.00">::TEST_CLASS</text>
</a>
</g>
</g>
<!-- Node4&#45;&gt;Node26 -->
<g id="edge26_Node000004_Node000026" class="edge">
<title>Node4&#45;&gt;Node26</title>
<g id="a_edge26_Node000004_Node000026"><a xlink:title=" ">
<path fill="none" stroke="#63b8ff" d="M564.8,-240.02C547.53,-256.31 522.91,-277.29 498,-291 489.65,-295.59 480.32,-299.51 471.12,-302.79"/>
<polygon fill="#63b8ff" stroke="#63b8ff" points="566.8,-242.96 571.58,-233.51 561.94,-237.92 566.8,-242.96"/>
</a>
</g>
</g>
<!-- Node6 -->
<g id="Node000006" class="node">
<title>Node6</title>
<g id="a_Node000006"><a xlink:href="class_fiea_1_1_engine_1_1_game_object.html#a86ede0bbc21133ffa8f398b0636c8b52" target="_top" xlink:title=" ">
<polygon fill="white" stroke="#666666" points="302.75,-382 171.25,-382 171.25,-350 302.75,-350 302.75,-382"/>
<text text-anchor="start" x="179.25" y="-368.5" font-family="Helvetica,sans-Serif" font-size="10.00">Fiea::Engine::GameObject</text>
<text text-anchor="middle" x="237" y="-356.5" font-family="Helvetica,sans-Serif" font-size="10.00">::AddAction</text>
</a>
</g>
</g>
<!-- Node5&#45;&gt;Node6 -->
<g id="edge5_Node000005_Node000006" class="edge">
<title>Node5&#45;&gt;Node6</title>
<g id="a_edge5_Node000005_Node000006"><a xlink:title=" ">
<path fill="none" stroke="#63b8ff" d="M353.28,-397.8C335.12,-392.79 315.53,-387.39 297.74,-382.48"/>
<polygon fill="#63b8ff" stroke="#63b8ff" points="352.35,-401.17 362.92,-400.46 354.21,-394.43 352.35,-401.17"/>
</a>
</g>
</g>
<!-- Node7 -->
<g id="Node000007" class="node">
<title>Node7</title>
<g id="a_Node000007"><a xlink:href="class_fiea_1_1_engine_1_1_content_1_1_scope.html#a002f54731a8996f37c4f725d8175ffee" target="_top" xlink:title="This is one of the ways of adding a scope as a child to &#39;this&#39; scope Appending a scope also implies t...">
<polygon fill="white" stroke="#666666" points="295.25,-432 178.75,-432 178.75,-400 295.25,-400 295.25,-432"/>
<text text-anchor="start" x="186.75" y="-418.5" font-family="Helvetica,sans-Serif" font-size="10.00">Fiea::Engine::Content</text>
<text text-anchor="middle" x="237" y="-406.5" font-family="Helvetica,sans-Serif" font-size="10.00">::Scope::AppendScope</text>
</a>
</g>
</g>
<!-- Node5&#45;&gt;Node7 -->
<g id="edge6_Node000005_Node000007" class="edge">
<title>Node5&#45;&gt;Node7</title>
<g id="a_edge6_Node000005_Node000007"><a xlink:title=" ">
<path fill="none" stroke="#63b8ff" d="M352.89,-416C334.08,-416 313.76,-416 295.51,-416"/>
<polygon fill="#63b8ff" stroke="#63b8ff" points="352.86,-419.5 362.86,-416 352.86,-412.5 352.86,-419.5"/>
</a>
</g>
</g>
<!-- Node9 -->
<g id="Node000009" class="node">
<title>Node9</title>
<g id="a_Node000009"><a xlink:href="class_fiea_1_1_engine_1_1_content_1_1_scope_writer.html#a4488fbd92e0706a1207e15a40dac7e22" target="_top" xlink:title=" ">
<polygon fill="white" stroke="#666666" points="131.5,-470 0,-470 0,-438 131.5,-438 131.5,-470"/>
<text text-anchor="start" x="8" y="-456.5" font-family="Helvetica,sans-Serif" font-size="10.00">Fiea::Engine::Content</text>
<text text-anchor="middle" x="65.75" y="-444.5" font-family="Helvetica,sans-Serif" font-size="10.00">::ScopeWriter::PushScope</text>
</a>
</g>
</g>
<!-- Node5&#45;&gt;Node9 -->
<g id="edge8_Node000005_Node000009" class="edge">
<title>Node5&#45;&gt;Node9</title>
<g id="a_edge8_Node000005_Node000009"><a xlink:title=" ">
<path fill="none" stroke="#63b8ff" d="M353.31,-432.52C338.03,-435.82 321.77,-438.91 306.5,-441 247.75,-449.05 180.27,-452.17 131.89,-453.35"/>
<polygon fill="#63b8ff" stroke="#63b8ff" points="353.76,-436.01 362.76,-430.42 352.24,-429.17 353.76,-436.01"/>
</a>
</g>
</g>
<!-- Node5&#45;&gt;Node10 -->
<g id="edge9_Node000005_Node000010" class="edge">
<title>Node5&#45;&gt;Node10</title>
<g id="a_edge9_Node000005_Node000010"><a xlink:title=" ">
<path fill="none" stroke="#63b8ff" d="M377.46,-437.67C344.56,-454.73 299.42,-478.15 269.51,-493.66"/>
<polygon fill="#63b8ff" stroke="#63b8ff" points="379.07,-440.78 386.34,-433.07 375.85,-434.57 379.07,-440.78"/>
</a>
</g>
</g>
<!-- Node8 -->
<g id="Node000008" class="node">
<title>Node8</title>
<g id="a_Node000008"><a xlink:href="class_fiea_1_1_engine_1_1_content_1_1_scope_writer.html#ae61df0a4225d06e413fbfda3028f8547" target="_top" xlink:title="This creates a new Scope, makes it a child of the current top scope in the stack and pushes it into t...">
<polygon fill="white" stroke="#666666" points="131.5,-420 0,-420 0,-388 131.5,-388 131.5,-420"/>
<text text-anchor="start" x="8" y="-406.5" font-family="Helvetica,sans-Serif" font-size="10.00">Fiea::Engine::Content</text>
<text text-anchor="middle" x="65.75" y="-394.5" font-family="Helvetica,sans-Serif" font-size="10.00">::ScopeWriter::PushScope</text>
</a>
</g>
</g>
<!-- Node7&#45;&gt;Node8 -->
<g id="edge7_Node000007_Node000008" class="edge">
<title>Node7&#45;&gt;Node8</title>
<g id="a_edge7_Node000007_Node000008"><a xlink:title=" ">
<path fill="none" stroke="#63b8ff" d="M167.56,-411.15C155.78,-410.31 143.56,-409.45 131.86,-408.62"/>
<polygon fill="#63b8ff" stroke="#63b8ff" points="166.97,-414.61 177.19,-411.83 167.46,-407.63 166.97,-414.61"/>
</a>
</g>
</g>
<!-- Node10&#45;&gt;Node9 -->
<g id="edge14_Node000010_Node000009" class="edge">
<title>Node10&#45;&gt;Node9</title>
<g id="a_edge14_Node000010_Node000009"><a xlink:title=" ">
<path fill="none" stroke="#63b8ff" d="M175.33,-489.93C156.06,-483.55 134.97,-476.57 116.55,-470.48"/>
<polygon fill="#63b8ff" stroke="#63b8ff" points="174.1,-493.21 184.7,-493.03 176.3,-486.56 174.1,-493.21"/>
</a>
</g>
</g>
<!-- Node11 -->
<g id="Node000011" class="node">
<title>Node11</title>
<g id="a_Node000011"><a xlink:href="class_fiea_1_1_engine_1_1_content_1_1_action_handler.html#a392af20cfeb37d539b88183bc9672f7a" target="_top" xlink:title=" ">
<polygon fill="white" stroke="#666666" points="130.75,-582 0.75,-582 0.75,-550 130.75,-550 130.75,-582"/>
<text text-anchor="start" x="8.75" y="-568.5" font-family="Helvetica,sans-Serif" font-size="10.00">Fiea::Engine::Content</text>
<text text-anchor="middle" x="65.75" y="-556.5" font-family="Helvetica,sans-Serif" font-size="10.00">::ActionHandler::EnterKey</text>
</a>
</g>
</g>
<!-- Node10&#45;&gt;Node11 -->
<g id="edge10_Node000010_Node000011" class="edge">
<title>Node10&#45;&gt;Node11</title>
<g id="a_edge10_Node000010_Node000011"><a xlink:title=" ">
<path fill="none" stroke="#63b8ff" d="M175.33,-530.07C156.06,-536.45 134.97,-543.43 116.55,-549.52"/>
<polygon fill="#63b8ff" stroke="#63b8ff" points="176.3,-533.44 184.7,-526.97 174.1,-526.79 176.3,-533.44"/>
</a>
</g>
</g>
<!-- Node12 -->
<g id="Node000012" class="node">
<title>Node12</title>
<g id="a_Node000012"><a xlink:href="class_fiea_1_1_engine_1_1_content_1_1_action_list_handler.html#ae0f8b6534bcf602df112f39202c79ecc" target="_top" xlink:title=" ">
<polygon fill="white" stroke="#666666" points="121.38,-532 10.12,-532 10.12,-488 121.38,-488 121.38,-532"/>
<text text-anchor="start" x="18.12" y="-518.5" font-family="Helvetica,sans-Serif" font-size="10.00">Fiea::Engine::Content</text>
<text text-anchor="start" x="18.12" y="-506.5" font-family="Helvetica,sans-Serif" font-size="10.00">::ActionListHandler::</text>
<text text-anchor="middle" x="65.75" y="-494.5" font-family="Helvetica,sans-Serif" font-size="10.00">EnterKey</text>
</a>
</g>
</g>
<!-- Node10&#45;&gt;Node12 -->
<g id="edge11_Node000010_Node000012" class="edge">
<title>Node10&#45;&gt;Node12</title>
<g id="a_edge11_Node000010_Node000012"><a xlink:title=" ">
<path fill="none" stroke="#63b8ff" d="M159.83,-510C146.95,-510 133.82,-510 121.62,-510"/>
<polygon fill="#63b8ff" stroke="#63b8ff" points="159.53,-513.5 169.53,-510 159.53,-506.5 159.53,-513.5"/>
</a>
</g>
</g>
<!-- Node13 -->
<g id="Node000013" class="node">
<title>Node13</title>
<g id="a_Node000013"><a xlink:href="class_fiea_1_1_engine_1_1_content_1_1_game_object_handler.html#a626573aebcd7beceb84dbd69bc15105b" target="_top" xlink:title="This handler is specifically for handling any game objects in json and also does some checks to ensur...">
<polygon fill="white" stroke="#666666" points="124,-706 7.5,-706 7.5,-662 124,-662 124,-706"/>
<text text-anchor="start" x="15.5" y="-692.5" font-family="Helvetica,sans-Serif" font-size="10.00">Fiea::Engine::Content</text>
<text text-anchor="start" x="15.5" y="-680.5" font-family="Helvetica,sans-Serif" font-size="10.00">::GameObjectHandler::</text>
<text text-anchor="middle" x="65.75" y="-668.5" font-family="Helvetica,sans-Serif" font-size="10.00">EnterKey</text>
</a>
</g>
</g>
<!-- Node10&#45;&gt;Node13 -->
<g id="edge12_Node000010_Node000013" class="edge">
<title>Node10&#45;&gt;Node13</title>
<g id="a_edge12_Node000010_Node000013"><a xlink:title=" ">
<path fill="none" stroke="#63b8ff" d="M222.38,-535.88C204.87,-567.07 171.88,-619.46 131.5,-653 127.76,-656.11 123.66,-658.98 119.39,-661.63"/>
<polygon fill="#63b8ff" stroke="#63b8ff" points="225.23,-537.95 226.98,-527.5 219.1,-534.58 225.23,-537.95"/>
</a>
</g>
</g>
<!-- Node14 -->
<g id="Node000014" class="node">
<title>Node14</title>
<g id="a_Node000014"><a xlink:href="class_fiea_1_1_engine_1_1_content_1_1_scope_parse_handler.html#a51138cf4e0b638b95c73b4a5acd68842" target="_top" xlink:title=" ">
<polygon fill="white" stroke="#666666" points="123.25,-644 8.25,-644 8.25,-600 123.25,-600 123.25,-644"/>
<text text-anchor="start" x="16.25" y="-630.5" font-family="Helvetica,sans-Serif" font-size="10.00">Fiea::Engine::Content</text>
<text text-anchor="start" x="16.25" y="-618.5" font-family="Helvetica,sans-Serif" font-size="10.00">::ScopeParseHandler::</text>
<text text-anchor="middle" x="65.75" y="-606.5" font-family="Helvetica,sans-Serif" font-size="10.00">EnterKey</text>
</a>
</g>
</g>
<!-- Node10&#45;&gt;Node14 -->
<g id="edge13_Node000010_Node000014" class="edge">
<title>Node10&#45;&gt;Node14</title>
<g id="a_edge13_Node000010_Node000014"><a xlink:title=" ">
<path fill="none" stroke="#63b8ff" d="M208.88,-533.62C188.45,-550.76 159.28,-573.85 131.5,-591 126.73,-593.95 121.63,-596.81 116.47,-599.54"/>
<polygon fill="#63b8ff" stroke="#63b8ff" points="211.11,-536.32 216.47,-527.18 206.58,-530.98 211.11,-536.32"/>
</a>
</g>
</g>
<!-- Node16 -->
<g id="Node000016" class="node">
<title>Node16</title>
<g id="a_Node000016"><a xlink:href="class_fiea_1_1_engine_1_1_content_1_1_float_parse_handler.html#abc4c8eb2ad52cd9ebdafba350e9a58d7" target="_top" xlink:title=" ">
<polygon fill="white" stroke="#666666" points="292.62,-120 181.38,-120 181.38,-76 292.62,-76 292.62,-120"/>
<text text-anchor="start" x="189.38" y="-106.5" font-family="Helvetica,sans-Serif" font-size="10.00">Fiea::Engine::Content</text>
<text text-anchor="start" x="189.38" y="-94.5" font-family="Helvetica,sans-Serif" font-size="10.00">::FloatParseHandler::</text>
<text text-anchor="middle" x="237" y="-82.5" font-family="Helvetica,sans-Serif" font-size="10.00">EnterKey</text>
</a>
</g>
</g>
<!-- Node15&#45;&gt;Node16 -->
<g id="edge16_Node000015_Node000016" class="edge">
<title>Node15&#45;&gt;Node16</title>
<g id="a_edge16_Node000015_Node000016"><a xlink:title=" ">
<path fill="none" stroke="#63b8ff" d="M352.97,-249.31C349.17,-246.9 345.64,-244.15 342.5,-241 305.6,-203.96 341.31,-168.02 306.5,-129 302.59,-124.62 297.94,-120.82 292.93,-117.53"/>
<polygon fill="#63b8ff" stroke="#63b8ff" points="351.03,-252.24 361.49,-253.89 354.34,-246.07 351.03,-252.24"/>
</a>
</g>
</g>
<!-- Node17 -->
<g id="Node000017" class="node">
<title>Node17</title>
<g id="a_Node000017"><a xlink:href="class_fiea_1_1_engine_1_1_content_1_1_int_parse_handler.html#aa99263839bdc482fcd4a5874ef682029" target="_top" xlink:title=" ">
<polygon fill="white" stroke="#666666" points="306.5,-332 167.5,-332 167.5,-300 306.5,-300 306.5,-332"/>
<text text-anchor="start" x="175.5" y="-318.5" font-family="Helvetica,sans-Serif" font-size="10.00">Fiea::Engine::Content</text>
<text text-anchor="middle" x="237" y="-306.5" font-family="Helvetica,sans-Serif" font-size="10.00">::IntParseHandler::EnterKey</text>
</a>
</g>
</g>
<!-- Node15&#45;&gt;Node17 -->
<g id="edge17_Node000015_Node000017" class="edge">
<title>Node15&#45;&gt;Node17</title>
<g id="a_edge17_Node000015_Node000017"><a xlink:title=" ">
<path fill="none" stroke="#63b8ff" d="M352.01,-284.55C334.22,-289.46 315.14,-294.72 297.77,-299.51"/>
<polygon fill="#63b8ff" stroke="#63b8ff" points="352.73,-287.98 361.44,-281.95 350.87,-281.23 352.73,-287.98"/>
</a>
</g>
</g>
<!-- Node18 -->
<g id="Node000018" class="node">
<title>Node18</title>
<g id="a_Node000018"><a xlink:href="class_fiea_1_1_engine_1_1_content_1_1_matrix_handler.html#af6b07a2232dbc15a91484634a6881499" target="_top" xlink:title=" ">
<polygon fill="white" stroke="#666666" points="301.62,-282 172.38,-282 172.38,-250 301.62,-250 301.62,-282"/>
<text text-anchor="start" x="180.38" y="-268.5" font-family="Helvetica,sans-Serif" font-size="10.00">Fiea::Engine::Content</text>
<text text-anchor="middle" x="237" y="-256.5" font-family="Helvetica,sans-Serif" font-size="10.00">::MatrixHandler::EnterKey</text>
</a>
</g>
</g>
<!-- Node15&#45;&gt;Node18 -->
<g id="edge18_Node000015_Node000018" class="edge">
<title>Node15&#45;&gt;Node18</title>
<g id="a_edge18_Node000015_Node000018"><a xlink:title=" ">
<path fill="none" stroke="#63b8ff" d="M351.79,-266C335.47,-266 318.07,-266 301.91,-266"/>
<polygon fill="#63b8ff" stroke="#63b8ff" points="351.38,-269.5 361.38,-266 351.38,-262.5 351.38,-269.5"/>
</a>
</g>
</g>
<!-- Node19 -->
<g id="Node000019" class="node">
<title>Node19</title>
<g id="a_Node000019"><a xlink:href="class_fiea_1_1_engine_1_1_content_1_1_string_parse_handler.html#a6e8f0ecc1992ee741847c1ad14069a30" target="_top" xlink:title=" ">
<polygon fill="white" stroke="#666666" points="292.62,-232 181.38,-232 181.38,-188 292.62,-188 292.62,-232"/>
<text text-anchor="start" x="189.38" y="-218.5" font-family="Helvetica,sans-Serif" font-size="10.00">Fiea::Engine::Content</text>
<text text-anchor="start" x="189.38" y="-206.5" font-family="Helvetica,sans-Serif" font-size="10.00">::StringParseHandler</text>
<text text-anchor="middle" x="237" y="-194.5" font-family="Helvetica,sans-Serif" font-size="10.00">::EnterKey</text>
</a>
</g>
</g>
<!-- Node15&#45;&gt;Node19 -->
<g id="edge19_Node000015_Node000019" class="edge">
<title>Node15&#45;&gt;Node19</title>
<g id="a_edge19_Node000015_Node000019"><a xlink:title=" ">
<path fill="none" stroke="#63b8ff" d="M355.11,-246.18C334.79,-239.9 312.52,-233.02 292.9,-226.96"/>
<polygon fill="#63b8ff" stroke="#63b8ff" points="353.82,-249.45 364.4,-249.05 355.88,-242.76 353.82,-249.45"/>
</a>
</g>
</g>
<!-- Node20 -->
<g id="Node000020" class="node">
<title>Node20</title>
<g id="a_Node000020"><a xlink:href="class_fiea_1_1_engine_1_1_content_1_1_vector_handler.html#a79774cea459da02c0eb57bcf2ca84821" target="_top" xlink:title=" ">
<polygon fill="white" stroke="#666666" points="302,-170 172,-170 172,-138 302,-138 302,-170"/>
<text text-anchor="start" x="180" y="-156.5" font-family="Helvetica,sans-Serif" font-size="10.00">Fiea::Engine::Content</text>
<text text-anchor="middle" x="237" y="-144.5" font-family="Helvetica,sans-Serif" font-size="10.00">::VectorHandler::EnterKey</text>
</a>
</g>
</g>
<!-- Node15&#45;&gt;Node20 -->
<g id="edge20_Node000015_Node000020" class="edge">
<title>Node15&#45;&gt;Node20</title>
<g id="a_edge20_Node000015_Node000020"><a xlink:title=" ">
<path fill="none" stroke="#63b8ff" d="M352.45,-247.78C348.94,-245.75 345.59,-243.5 342.5,-241 317.72,-220.97 330.93,-199.46 306.5,-179 302.62,-175.75 298.28,-172.9 293.72,-170.41"/>
<polygon fill="#63b8ff" stroke="#63b8ff" points="350.83,-250.88 361.34,-252.25 353.98,-244.63 350.83,-250.88"/>
</a>
</g>
</g>
</g>
</svg>
