<?xml version="1.0" encoding="UTF-8" standalone="no"?>
<!DOCTYPE svg PUBLIC "-//W3C//DTD SVG 1.1//EN"
 "http://www.w3.org/Graphics/SVG/1.1/DTD/svg11.dtd">
<!-- Generated by graphviz version 12.2.1 (20241206.2353)
 -->
<!-- Title: Fiea::Engine::Content::Actions::DelayedAction::Run Pages: 1 -->
<svg width="667pt" height="378pt"
 viewBox="0.00 0.00 666.75 378.00" xmlns="http://www.w3.org/2000/svg" xmlns:xlink="http://www.w3.org/1999/xlink">
<g id="graph0" class="graph" transform="scale(1 1) rotate(0) translate(4 374)">
<title>Fiea::Engine::Content::Actions::DelayedAction::Run</title>
<!-- Node1 -->
<g id="Node000001" class="node">
<title>Node1</title>
<g id="a_Node000001"><a xlink:title="Checks if the delay is over. And executes the actions until they all are over.">
<polygon fill="#999999" stroke="#666666" points="148.75,-232 0,-232 0,-200 148.75,-200 148.75,-232"/>
<text text-anchor="start" x="8" y="-218.5" font-family="Helvetica,sans-Serif" font-size="10.00">Fiea::Engine::Content</text>
<text text-anchor="middle" x="74.38" y="-206.5" font-family="Helvetica,sans-Serif" font-size="10.00">::Actions::DelayedAction::Run</text>
</a>
</g>
</g>
<!-- Node2 -->
<g id="Node000002" class="node">
<title>Node2</title>
<g id="a_Node000002"><a xlink:href="class_fiea_1_1_engine_1_1_r_t_t_i.html#a15bd5993c8ad04da47af440298ebbb30" target="_top" xlink:title=" ">
<polygon fill="white" stroke="#666666" points="481.88,-370 365.38,-370 365.38,-350 481.88,-350 481.88,-370"/>
<text text-anchor="middle" x="423.62" y="-356.5" font-family="Helvetica,sans-Serif" font-size="10.00">Fiea::Engine::RTTI::As</text>
</a>
</g>
</g>
<!-- Node1&#45;&gt;Node2 -->
<g id="edge1_Node000001_Node000002" class="edge">
<title>Node1&#45;&gt;Node2</title>
<g id="a_edge1_Node000001_Node000002"><a xlink:title=" ">
<path fill="none" stroke="#63b8ff" d="M86.67,-232.23C104.48,-256.4 141.52,-301.35 184.75,-323 237.62,-349.48 304.7,-357.99 354.15,-360.31"/>
<polygon fill="#63b8ff" stroke="#63b8ff" points="353.72,-363.8 363.85,-360.69 353.99,-356.8 353.72,-363.8"/>
</a>
</g>
</g>
<!-- Node4 -->
<g id="Node000004" class="node">
<title>Node4</title>
<g id="a_Node000004"><a xlink:href="class_fiea_1_1_engine_1_1_content_1_1_scope.html#ad924c01785b239991fc0e56a63295612" target="_top" xlink:title="Return the Datum at the requested key, or nullptr if not found.">
<polygon fill="white" stroke="#666666" points="479.25,-332 368,-332 368,-300 479.25,-300 479.25,-332"/>
<text text-anchor="start" x="376" y="-318.5" font-family="Helvetica,sans-Serif" font-size="10.00">Fiea::Engine::Content</text>
<text text-anchor="middle" x="423.62" y="-306.5" font-family="Helvetica,sans-Serif" font-size="10.00">::Scope::Find</text>
</a>
</g>
</g>
<!-- Node1&#45;&gt;Node4 -->
<g id="edge3_Node000001_Node000004" class="edge">
<title>Node1&#45;&gt;Node4</title>
<g id="a_edge3_Node000001_Node000004"><a xlink:title=" ">
<path fill="none" stroke="#63b8ff" d="M91.03,-232.17C110.82,-251.44 146.91,-282.82 184.75,-297 240.06,-317.73 307.54,-321.26 356.48,-320.32"/>
<polygon fill="#63b8ff" stroke="#63b8ff" points="356.47,-323.83 366.37,-320.06 356.28,-316.83 356.47,-323.83"/>
</a>
</g>
</g>
<!-- Node5 -->
<g id="Node000005" class="node">
<title>Node5</title>
<g id="a_Node000005"><a xlink:href="class_fiea_1_1_engine_1_1_content_1_1_datum.html#a3763d03e7b219e3ba257b09a7719795c" target="_top" xlink:title=" ">
<polygon fill="white" stroke="#666666" points="479.25,-232 368,-232 368,-200 479.25,-200 479.25,-232"/>
<text text-anchor="start" x="376" y="-218.5" font-family="Helvetica,sans-Serif" font-size="10.00">Fiea::Engine::Content</text>
<text text-anchor="middle" x="423.62" y="-206.5" font-family="Helvetica,sans-Serif" font-size="10.00">::Datum::Get</text>
</a>
</g>
</g>
<!-- Node1&#45;&gt;Node5 -->
<g id="edge4_Node000001_Node000005" class="edge">
<title>Node1&#45;&gt;Node5</title>
<g id="a_edge4_Node000001_Node000005"><a xlink:title=" ">
<path fill="none" stroke="#63b8ff" d="M149.02,-216C210.33,-216 296.88,-216 356.12,-216"/>
<polygon fill="#63b8ff" stroke="#63b8ff" points="356.07,-219.5 366.07,-216 356.07,-212.5 356.07,-219.5"/>
</a>
</g>
</g>
<!-- Node6 -->
<g id="Node000006" class="node">
<title>Node6</title>
<g id="a_Node000006"><a xlink:href="class_fiea_1_1_engine_1_1_content_1_1_actions_1_1_action_list.html#a174321b3790604e933b2210235d2c62a" target="_top" xlink:title="Resets the actions owned by the list.">
<polygon fill="white" stroke="#666666" points="309.5,-288 197.5,-288 197.5,-244 309.5,-244 309.5,-288"/>
<text text-anchor="start" x="205.5" y="-274.5" font-family="Helvetica,sans-Serif" font-size="10.00">Fiea::Engine::Content</text>
<text text-anchor="start" x="205.5" y="-262.5" font-family="Helvetica,sans-Serif" font-size="10.00">::Actions::ActionList</text>
<text text-anchor="middle" x="253.5" y="-250.5" font-family="Helvetica,sans-Serif" font-size="10.00">::ResetOwnedActions</text>
</a>
</g>
</g>
<!-- Node1&#45;&gt;Node6 -->
<g id="edge5_Node000001_Node000006" class="edge">
<title>Node1&#45;&gt;Node6</title>
<g id="a_edge5_Node000001_Node000006"><a xlink:title=" ">
<path fill="none" stroke="#63b8ff" d="M133.37,-232.37C150.33,-237.16 169,-242.43 186.42,-247.35"/>
<polygon fill="#63b8ff" stroke="#63b8ff" points="185.05,-250.6 195.63,-249.95 186.95,-243.86 185.05,-250.6"/>
</a>
</g>
</g>
<!-- Node9 -->
<g id="Node000009" class="node">
<title>Node9</title>
<g id="a_Node000009"><a xlink:href="class_fiea_1_1_engine_1_1_content_1_1_datum.html#acae68c3bc8b20345e4c3790fa37bd8d5" target="_top" xlink:title=" ">
<polygon fill="white" stroke="#666666" points="479.25,-182 368,-182 368,-150 479.25,-150 479.25,-182"/>
<text text-anchor="start" x="376" y="-168.5" font-family="Helvetica,sans-Serif" font-size="10.00">Fiea::Engine::Content</text>
<text text-anchor="middle" x="423.62" y="-156.5" font-family="Helvetica,sans-Serif" font-size="10.00">::Datum::Size</text>
</a>
</g>
</g>
<!-- Node1&#45;&gt;Node9 -->
<g id="edge12_Node000001_Node000009" class="edge">
<title>Node1&#45;&gt;Node9</title>
<g id="a_edge12_Node000001_Node000009"><a xlink:title=" ">
<path fill="none" stroke="#63b8ff" d="M149.02,-205.4C210.46,-196.55 297.24,-184.05 356.49,-175.52"/>
<polygon fill="#63b8ff" stroke="#63b8ff" points="356.69,-179.03 366.09,-174.14 355.69,-172.1 356.69,-179.03"/>
</a>
</g>
</g>
<!-- Node10 -->
<g id="Node000010" class="node">
<title>Node10</title>
<g id="a_Node000010"><a xlink:href="struct_fiea_1_1_engine_1_1_i_time_provider.html#a78bbdd14a10bc04e81b627cda29c4552" target="_top" xlink:title=" ">
<polygon fill="white" stroke="#666666" points="322.25,-150 184.75,-150 184.75,-118 322.25,-118 322.25,-150"/>
<text text-anchor="start" x="192.75" y="-136.5" font-family="Helvetica,sans-Serif" font-size="10.00">Fiea::Engine::ITimeProvider</text>
<text text-anchor="middle" x="253.5" y="-124.5" font-family="Helvetica,sans-Serif" font-size="10.00">::Time</text>
</a>
</g>
</g>
<!-- Node1&#45;&gt;Node10 -->
<g id="edge13_Node000001_Node000010" class="edge">
<title>Node1&#45;&gt;Node10</title>
<g id="a_edge13_Node000001_Node000010"><a xlink:title=" ">
<path fill="none" stroke="#63b8ff" d="M109.26,-199.6C130.81,-189.25 159.34,-175.67 184.75,-164 191.12,-161.08 197.84,-158.04 204.49,-155.07"/>
<polygon fill="#63b8ff" stroke="#63b8ff" points="205.7,-158.36 213.41,-151.1 202.85,-151.97 205.7,-158.36"/>
</a>
</g>
</g>
<!-- Node11 -->
<g id="Node000011" class="node">
<title>Node11</title>
<g id="a_Node000011"><a xlink:href="class_fiea_1_1_engine_1_1_content_1_1_actions_1_1_action.html#a698815d895c6612c8ae91f6094d1c297" target="_top" xlink:title="Update is not a virtual function, the actions users of engine define will define Init,...">
<polygon fill="white" stroke="#666666" points="316.62,-91 190.38,-91 190.38,-59 316.62,-59 316.62,-91"/>
<text text-anchor="start" x="198.38" y="-77.5" font-family="Helvetica,sans-Serif" font-size="10.00">Fiea::Engine::Content</text>
<text text-anchor="middle" x="253.5" y="-65.5" font-family="Helvetica,sans-Serif" font-size="10.00">::Actions::Action::Update</text>
</a>
</g>
</g>
<!-- Node1&#45;&gt;Node11 -->
<g id="edge14_Node000001_Node000011" class="edge">
<title>Node1&#45;&gt;Node11</title>
<g id="a_edge14_Node000001_Node000011"><a xlink:title=" ">
<path fill="none" stroke="#63b8ff" d="M89.26,-199.52C108.84,-177.01 146.48,-136.31 184.75,-109 190.94,-104.58 197.79,-100.43 204.68,-96.64"/>
<polygon fill="#63b8ff" stroke="#63b8ff" points="206.17,-99.81 213.4,-92.07 202.92,-93.61 206.17,-99.81"/>
</a>
</g>
</g>
<!-- Node3 -->
<g id="Node000003" class="node">
<title>Node3</title>
<g id="a_Node000003"><a xlink:href="class_fiea_1_1_engine_1_1_r_t_t_i.html#ac0a7d875e4513b2aca7594abcd4418ef" target="_top" xlink:title=" ">
<polygon fill="white" stroke="#666666" points="648.25,-370 535.5,-370 535.5,-350 648.25,-350 648.25,-370"/>
<text text-anchor="middle" x="591.88" y="-356.5" font-family="Helvetica,sans-Serif" font-size="10.00">Fiea::Engine::RTTI::Is</text>
</a>
</g>
</g>
<!-- Node2&#45;&gt;Node3 -->
<g id="edge2_Node000002_Node000003" class="edge">
<title>Node2&#45;&gt;Node3</title>
<g id="a_edge2_Node000002_Node000003"><a xlink:title=" ">
<path fill="none" stroke="#63b8ff" d="M482.3,-360C495.71,-360 510.1,-360 523.87,-360"/>
<polygon fill="#63b8ff" stroke="#63b8ff" points="523.75,-363.5 533.75,-360 523.75,-356.5 523.75,-363.5"/>
</a>
</g>
</g>
<!-- Node6&#45;&gt;Node2 -->
<g id="edge6_Node000006_Node000002" class="edge">
<title>Node6&#45;&gt;Node2</title>
<g id="a_edge6_Node000006_Node000002"><a xlink:title=" ">
<path fill="none" stroke="#63b8ff" d="M280.2,-288.4C300.29,-304.93 329.52,-326.89 358.25,-341 361.7,-342.69 365.33,-344.27 369.04,-345.72"/>
<polygon fill="#63b8ff" stroke="#63b8ff" points="367.59,-348.92 378.18,-349 369.95,-342.33 367.59,-348.92"/>
</a>
</g>
</g>
<!-- Node6&#45;&gt;Node4 -->
<g id="edge7_Node000006_Node000004" class="edge">
<title>Node6&#45;&gt;Node4</title>
<g id="a_edge7_Node000006_Node000004"><a xlink:title=" ">
<path fill="none" stroke="#63b8ff" d="M309.55,-282.37C324.72,-286.88 341.33,-291.82 357.04,-296.49"/>
<polygon fill="#63b8ff" stroke="#63b8ff" points="355.7,-299.75 366.29,-299.25 357.7,-293.04 355.7,-299.75"/>
</a>
</g>
</g>
<!-- Node6&#45;&gt;Node5 -->
<g id="edge8_Node000006_Node000005" class="edge">
<title>Node6&#45;&gt;Node5</title>
<g id="a_edge8_Node000006_Node000005"><a xlink:title=" ">
<path fill="none" stroke="#63b8ff" d="M309.55,-249.63C324.72,-245.12 341.33,-240.18 357.04,-235.51"/>
<polygon fill="#63b8ff" stroke="#63b8ff" points="357.7,-238.96 366.29,-232.75 355.7,-232.25 357.7,-238.96"/>
</a>
</g>
</g>
<!-- Node7 -->
<g id="Node000007" class="node">
<title>Node7</title>
<g id="a_Node000007"><a xlink:href="class_fiea_1_1_engine_1_1_content_1_1_actions_1_1_action.html#a4bd3f927a2d39da853a3c84a6d454343" target="_top" xlink:title="Providing a way to reset the action state. This is only doing a soft reset and only meant for going f...">
<polygon fill="white" stroke="#666666" points="484.12,-282 363.12,-282 363.12,-250 484.12,-250 484.12,-282"/>
<text text-anchor="start" x="371.12" y="-268.5" font-family="Helvetica,sans-Serif" font-size="10.00">Fiea::Engine::Content</text>
<text text-anchor="middle" x="423.62" y="-256.5" font-family="Helvetica,sans-Serif" font-size="10.00">::Actions::Action::Reset</text>
</a>
</g>
</g>
<!-- Node6&#45;&gt;Node7 -->
<g id="edge9_Node000006_Node000007" class="edge">
<title>Node6&#45;&gt;Node7</title>
<g id="a_edge9_Node000006_Node000007"><a xlink:title=" ">
<path fill="none" stroke="#63b8ff" d="M309.55,-266C323,-266 337.58,-266 351.66,-266"/>
<polygon fill="#63b8ff" stroke="#63b8ff" points="351.3,-269.5 361.3,-266 351.3,-262.5 351.3,-269.5"/>
</a>
</g>
</g>
<!-- Node6&#45;&gt;Node9 -->
<g id="edge11_Node000006_Node000009" class="edge">
<title>Node6&#45;&gt;Node9</title>
<g id="a_edge11_Node000006_Node000009"><a xlink:title=" ">
<path fill="none" stroke="#63b8ff" d="M281.4,-243.6C301.64,-227.51 330.53,-206.08 358.25,-191 360.74,-189.65 363.32,-188.33 365.94,-187.06"/>
<polygon fill="#63b8ff" stroke="#63b8ff" points="367.23,-190.31 374.88,-182.98 364.33,-183.94 367.23,-190.31"/>
</a>
</g>
</g>
<!-- Node8 -->
<g id="Node000008" class="node">
<title>Node8</title>
<g id="a_Node000008"><a xlink:href="class_fiea_1_1_engine_1_1_content_1_1_actions_1_1_action.html#a722baa79e2bc000694d1bb7a4fec50eb" target="_top" xlink:title=" ">
<polygon fill="white" stroke="#666666" points="658.75,-282 525,-282 525,-250 658.75,-250 658.75,-282"/>
<text text-anchor="start" x="533" y="-268.5" font-family="Helvetica,sans-Serif" font-size="10.00">Fiea::Engine::Content</text>
<text text-anchor="middle" x="591.88" y="-256.5" font-family="Helvetica,sans-Serif" font-size="10.00">::Actions::Action::OnReset</text>
</a>
</g>
</g>
<!-- Node7&#45;&gt;Node8 -->
<g id="edge10_Node000007_Node000008" class="edge">
<title>Node7&#45;&gt;Node8</title>
<g id="a_edge10_Node000007_Node000008"><a xlink:title=" ">
<path fill="none" stroke="#63b8ff" d="M484.18,-266C493.62,-266 503.5,-266 513.28,-266"/>
<polygon fill="#63b8ff" stroke="#63b8ff" points="513.17,-269.5 523.17,-266 513.17,-262.5 513.17,-269.5"/>
</a>
</g>
</g>
<!-- Node12 -->
<g id="Node000012" class="node">
<title>Node12</title>
<g id="a_Node000012"><a xlink:href="class_fiea_1_1_engine_1_1_content_1_1_actions_1_1_action.html#a5636a08196087a24b791b1ba4665a482" target="_top" xlink:title=" ">
<polygon fill="white" stroke="#666666" points="489,-132 358.25,-132 358.25,-100 489,-100 489,-132"/>
<text text-anchor="start" x="366.25" y="-118.5" font-family="Helvetica,sans-Serif" font-size="10.00">Fiea::Engine::Content</text>
<text text-anchor="middle" x="423.62" y="-106.5" font-family="Helvetica,sans-Serif" font-size="10.00">::Actions::Action::Cleanup</text>
</a>
</g>
</g>
<!-- Node11&#45;&gt;Node12 -->
<g id="edge15_Node000011_Node000012" class="edge">
<title>Node11&#45;&gt;Node12</title>
<g id="a_edge15_Node000011_Node000012"><a xlink:title=" ">
<path fill="none" stroke="#63b8ff" d="M317.1,-90.27C326.8,-92.63 336.91,-95.1 346.86,-97.52"/>
<polygon fill="#63b8ff" stroke="#63b8ff" points="345.99,-100.91 356.53,-99.88 347.65,-94.11 345.99,-100.91"/>
</a>
</g>
</g>
<!-- Node13 -->
<g id="Node000013" class="node">
<title>Node13</title>
<g id="a_Node000013"><a xlink:href="class_fiea_1_1_engine_1_1_content_1_1_actions_1_1_action.html#afbbf5653a40406d12c647ef1f00942e0" target="_top" xlink:title=" ">
<polygon fill="white" stroke="#666666" points="479.25,-82 368,-82 368,-50 479.25,-50 479.25,-82"/>
<text text-anchor="start" x="376" y="-68.5" font-family="Helvetica,sans-Serif" font-size="10.00">Fiea::Engine::Content</text>
<text text-anchor="middle" x="423.62" y="-56.5" font-family="Helvetica,sans-Serif" font-size="10.00">::Actions::Action::Init</text>
</a>
</g>
</g>
<!-- Node11&#45;&gt;Node13 -->
<g id="edge16_Node000011_Node000013" class="edge">
<title>Node11&#45;&gt;Node13</title>
<g id="a_edge16_Node000011_Node000013"><a xlink:title=" ">
<path fill="none" stroke="#63b8ff" d="M317.1,-71.65C329.96,-70.96 343.53,-70.23 356.5,-69.54"/>
<polygon fill="#63b8ff" stroke="#63b8ff" points="356.4,-73.05 366.2,-69.02 356.03,-66.06 356.4,-73.05"/>
</a>
</g>
</g>
<!-- Node14 -->
<g id="Node000014" class="node">
<title>Node14</title>
<g id="a_Node000014"><a xlink:href="class_fiea_1_1_engine_1_1_content_1_1_actions_1_1_action.html#a651a19484818f73fbe595c0b1a60ece7" target="_top" xlink:title=" ">
<polygon fill="white" stroke="#666666" points="480,-32 367.25,-32 367.25,0 480,0 480,-32"/>
<text text-anchor="start" x="375.25" y="-18.5" font-family="Helvetica,sans-Serif" font-size="10.00">Fiea::Engine::Content</text>
<text text-anchor="middle" x="423.62" y="-6.5" font-family="Helvetica,sans-Serif" font-size="10.00">::Actions::Action::Run</text>
</a>
</g>
</g>
<!-- Node11&#45;&gt;Node14 -->
<g id="edge17_Node000011_Node000014" class="edge">
<title>Node11&#45;&gt;Node14</title>
<g id="a_edge17_Node000011_Node000014"><a xlink:title=" ">
<path fill="none" stroke="#63b8ff" d="M301.33,-58.57C321.11,-51.63 344.33,-43.48 365.13,-36.18"/>
<polygon fill="#63b8ff" stroke="#63b8ff" points="366.05,-39.56 374.32,-32.95 363.73,-32.96 366.05,-39.56"/>
</a>
</g>
</g>
</g>
</svg>
