<?xml version="1.0" encoding="UTF-8" standalone="no"?>
<!DOCTYPE svg PUBLIC "-//W3C//DTD SVG 1.1//EN"
 "http://www.w3.org/Graphics/SVG/1.1/DTD/svg11.dtd">
<!-- Generated by graphviz version 12.2.1 (20241206.2353)
 -->
<!-- Title: Fiea::Engine::Content::Actions::Action::Reset Pages: 1 -->
<svg width="503pt" height="164pt"
 viewBox="0.00 0.00 503.00 164.00" xmlns="http://www.w3.org/2000/svg" xmlns:xlink="http://www.w3.org/1999/xlink">
<g id="graph0" class="graph" transform="scale(1 1) rotate(0) translate(4 160)">
<title>Fiea::Engine::Content::Actions::Action::Reset</title>
<!-- Node1 -->
<g id="Node000001" class="node">
<title>Node1</title>
<g id="a_Node000001"><a xlink:title="Providing a way to reset the action state. This is only doing a soft reset and only meant for going f...">
<polygon fill="#999999" stroke="#666666" points="495,-60 374,-60 374,-28 495,-28 495,-60"/>
<text text-anchor="start" x="382" y="-46.5" font-family="Helvetica,sans-Serif" font-size="10.00">Fiea::Engine::Content</text>
<text text-anchor="middle" x="434.5" y="-34.5" font-family="Helvetica,sans-Serif" font-size="10.00">::Actions::Action::Reset</text>
</a>
</g>
</g>
<!-- Node2 -->
<g id="Node000002" class="node">
<title>Node2</title>
<g id="a_Node000002"><a xlink:href="class_fiea_1_1_engine_1_1_content_1_1_actions_1_1_action_list.html#a174321b3790604e933b2210235d2c62a" target="_top" xlink:title="Resets the actions owned by the list.">
<polygon fill="white" stroke="#666666" points="317.38,-94 205.38,-94 205.38,-50 317.38,-50 317.38,-94"/>
<text text-anchor="start" x="213.38" y="-80.5" font-family="Helvetica,sans-Serif" font-size="10.00">Fiea::Engine::Content</text>
<text text-anchor="start" x="213.38" y="-68.5" font-family="Helvetica,sans-Serif" font-size="10.00">::Actions::ActionList</text>
<text text-anchor="middle" x="261.38" y="-56.5" font-family="Helvetica,sans-Serif" font-size="10.00">::ResetOwnedActions</text>
</a>
</g>
</g>
<!-- Node1&#45;&gt;Node2 -->
<g id="edge1_Node000001_Node000002" class="edge">
<title>Node1&#45;&gt;Node2</title>
<g id="a_edge1_Node000001_Node000002"><a xlink:title=" ">
<path fill="none" stroke="#63b8ff" d="M362.37,-55.64C347.42,-58.08 331.87,-60.63 317.61,-62.96"/>
<polygon fill="#63b8ff" stroke="#63b8ff" points="362.85,-59.11 372.16,-54.04 361.72,-52.2 362.85,-59.11"/>
</a>
</g>
</g>
<!-- Node6 -->
<g id="Node000006" class="node">
<title>Node6</title>
<g id="a_Node000006"><a xlink:href="class_fiea_1_1_engine_1_1_content_1_1_actions_1_1_while_action_list.html#a87d627d5c0691325cb255ad15934e5d8" target="_top" xlink:title="The logic that needs to run repetitively.">
<polygon fill="white" stroke="#666666" points="338,-32 184.75,-32 184.75,0 338,0 338,-32"/>
<text text-anchor="start" x="192.75" y="-18.5" font-family="Helvetica,sans-Serif" font-size="10.00">Fiea::Engine::Content</text>
<text text-anchor="middle" x="261.38" y="-6.5" font-family="Helvetica,sans-Serif" font-size="10.00">::Actions::WhileActionList::Run</text>
</a>
</g>
</g>
<!-- Node1&#45;&gt;Node6 -->
<g id="edge5_Node000001_Node000006" class="edge">
<title>Node1&#45;&gt;Node6</title>
<g id="a_edge5_Node000001_Node000006"><a xlink:title=" ">
<path fill="none" stroke="#63b8ff" d="M362.54,-32.39C354.59,-31.09 346.46,-29.76 338.44,-28.45"/>
<polygon fill="#63b8ff" stroke="#63b8ff" points="361.72,-35.8 372.16,-33.96 362.85,-28.89 361.72,-35.8"/>
</a>
</g>
</g>
<!-- Node3 -->
<g id="Node000003" class="node">
<title>Node3</title>
<g id="a_Node000003"><a xlink:href="class_fiea_1_1_engine_1_1_content_1_1_actions_1_1_action_list.html#ac68f2de1db5c8be125e18abe01b1e2a0" target="_top" xlink:title="Reseting the ActionList. Any custom logic that needs to be executed before it is reinitalized must go...">
<polygon fill="white" stroke="#666666" points="130,-156 18.75,-156 18.75,-112 130,-112 130,-156"/>
<text text-anchor="start" x="26.75" y="-142.5" font-family="Helvetica,sans-Serif" font-size="10.00">Fiea::Engine::Content</text>
<text text-anchor="start" x="26.75" y="-130.5" font-family="Helvetica,sans-Serif" font-size="10.00">::Actions::ActionList</text>
<text text-anchor="middle" x="74.38" y="-118.5" font-family="Helvetica,sans-Serif" font-size="10.00">::OnReset</text>
</a>
</g>
</g>
<!-- Node2&#45;&gt;Node3 -->
<g id="edge2_Node000002_Node000003" class="edge">
<title>Node2&#45;&gt;Node3</title>
<g id="a_edge2_Node000002_Node000003"><a xlink:title=" ">
<path fill="none" stroke="#63b8ff" d="M194.36,-94.12C173.4,-101.15 150.45,-108.84 130.35,-115.58"/>
<polygon fill="#63b8ff" stroke="#63b8ff" points="195.31,-97.5 203.68,-91 193.09,-90.86 195.31,-97.5"/>
</a>
</g>
</g>
<!-- Node4 -->
<g id="Node000004" class="node">
<title>Node4</title>
<g id="a_Node000004"><a xlink:href="class_fiea_1_1_engine_1_1_content_1_1_actions_1_1_delayed_action.html#a023224fb53b5ee15767cf4721731c3e8" target="_top" xlink:title="Reseting the ActionList. Any custom logic that needs to be executed before it is reinitalized must go...">
<polygon fill="white" stroke="#666666" points="136.75,-94 12,-94 12,-50 136.75,-50 136.75,-94"/>
<text text-anchor="start" x="20" y="-80.5" font-family="Helvetica,sans-Serif" font-size="10.00">Fiea::Engine::Content</text>
<text text-anchor="start" x="20" y="-68.5" font-family="Helvetica,sans-Serif" font-size="10.00">::Actions::DelayedAction</text>
<text text-anchor="middle" x="74.38" y="-56.5" font-family="Helvetica,sans-Serif" font-size="10.00">::OnReset</text>
</a>
</g>
</g>
<!-- Node2&#45;&gt;Node4 -->
<g id="edge3_Node000002_Node000004" class="edge">
<title>Node2&#45;&gt;Node4</title>
<g id="a_edge3_Node000002_Node000004"><a xlink:title=" ">
<path fill="none" stroke="#63b8ff" d="M193.83,-72C175.34,-72 155.35,-72 137.14,-72"/>
<polygon fill="#63b8ff" stroke="#63b8ff" points="193.61,-75.5 203.61,-72 193.61,-68.5 193.61,-75.5"/>
</a>
</g>
</g>
<!-- Node5 -->
<g id="Node000005" class="node">
<title>Node5</title>
<g id="a_Node000005"><a xlink:href="class_fiea_1_1_engine_1_1_content_1_1_actions_1_1_delayed_action.html#a2f06440518f0083c5302251ba2d5e3c0" target="_top" xlink:title="Checks if the delay is over. And executes the actions until they all are over.">
<polygon fill="white" stroke="#666666" points="148.75,-32 0,-32 0,0 148.75,0 148.75,-32"/>
<text text-anchor="start" x="8" y="-18.5" font-family="Helvetica,sans-Serif" font-size="10.00">Fiea::Engine::Content</text>
<text text-anchor="middle" x="74.38" y="-6.5" font-family="Helvetica,sans-Serif" font-size="10.00">::Actions::DelayedAction::Run</text>
</a>
</g>
</g>
<!-- Node2&#45;&gt;Node5 -->
<g id="edge4_Node000002_Node000005" class="edge">
<title>Node2&#45;&gt;Node5</title>
<g id="a_edge4_Node000002_Node000005"><a xlink:title=" ">
<path fill="none" stroke="#63b8ff" d="M194.26,-51.99C173.1,-45.58 149.93,-38.57 129.71,-32.45"/>
<polygon fill="#63b8ff" stroke="#63b8ff" points="193.09,-55.29 203.67,-54.84 195.11,-48.59 193.09,-55.29"/>
</a>
</g>
</g>
</g>
</svg>
