<?xml version="1.0" encoding="UTF-8" standalone="no"?>
<!DOCTYPE svg PUBLIC "-//W3C//DTD SVG 1.1//EN"
 "http://www.w3.org/Graphics/SVG/1.1/DTD/svg11.dtd">
<!-- Generated by graphviz version 12.2.1 (20241206.2353)
 -->
<!-- Title: Fiea::Engine::Content::Actions::ActionList Pages: 1 -->
<svg width="390pt" height="1792pt"
 viewBox="0.00 0.00 390.00 1792.00" xmlns="http://www.w3.org/2000/svg" xmlns:xlink="http://www.w3.org/1999/xlink">
<g id="graph0" class="graph" transform="scale(1 1) rotate(0) translate(4 1788)">
<title>Fiea::Engine::Content::Actions::ActionList</title>
<!-- Node1 -->
<g id="Node000001" class="node">
<title>Node1</title>
<g id="a_Node000001"><a xlink:title="Action List class owns a bunch of actions and its purpose is to execute those actions....">
<polygon fill="#999999" stroke="none" points="245.38,-660 131.38,-660 131.38,-356 245.38,-356 245.38,-660"/>
<text text-anchor="start" x="140.75" y="-646.5" font-family="Helvetica,sans-Serif" font-size="10.00">Fiea::Engine::Content</text>
<text text-anchor="start" x="144.12" y="-634.5" font-family="Helvetica,sans-Serif" font-size="10.00">::Actions::ActionList</text>
<text text-anchor="start" x="186.88" y="-618.5" font-family="Helvetica,sans-Serif" font-size="10.00"> </text>
<text text-anchor="start" x="135.38" y="-602.5" font-family="Helvetica,sans-Serif" font-size="10.00">+</text>
<text text-anchor="start" x="145.38" y="-602.5" font-family="Helvetica,sans-Serif" font-size="10.00">ActionList()</text>
<text text-anchor="start" x="135.38" y="-586.5" font-family="Helvetica,sans-Serif" font-size="10.00">+</text>
<text text-anchor="start" x="145.38" y="-586.5" font-family="Helvetica,sans-Serif" font-size="10.00">ActionList()</text>
<text text-anchor="start" x="135.38" y="-570.5" font-family="Helvetica,sans-Serif" font-size="10.00">+</text>
<text text-anchor="start" x="145.38" y="-570.5" font-family="Helvetica,sans-Serif" font-size="10.00">ActionList()</text>
<text text-anchor="start" x="135.38" y="-554.5" font-family="Helvetica,sans-Serif" font-size="10.00">+</text>
<text text-anchor="start" x="145.38" y="-554.5" font-family="Helvetica,sans-Serif" font-size="10.00">operator=()</text>
<text text-anchor="start" x="135.38" y="-538.5" font-family="Helvetica,sans-Serif" font-size="10.00">+</text>
<text text-anchor="start" x="145.38" y="-538.5" font-family="Helvetica,sans-Serif" font-size="10.00">operator=()</text>
<text text-anchor="start" x="135.38" y="-522.5" font-family="Helvetica,sans-Serif" font-size="10.00">+</text>
<text text-anchor="start" x="145.38" y="-522.5" font-family="Helvetica,sans-Serif" font-size="10.00">~ActionList()</text>
<text text-anchor="start" x="135.38" y="-506.5" font-family="Helvetica,sans-Serif" font-size="10.00">+</text>
<text text-anchor="start" x="145.38" y="-506.5" font-family="Helvetica,sans-Serif" font-size="10.00">Clone()</text>
<text text-anchor="start" x="135.38" y="-490.5" font-family="Helvetica,sans-Serif" font-size="10.00">+</text>
<text text-anchor="start" x="145.38" y="-490.5" font-family="Helvetica,sans-Serif" font-size="10.00">ToString()</text>
<text text-anchor="start" x="135.38" y="-474.5" font-family="Helvetica,sans-Serif" font-size="10.00">+</text>
<text text-anchor="start" x="145.38" y="-474.5" font-family="Helvetica,sans-Serif" font-size="10.00">Equals()</text>
<text text-anchor="start" x="135.38" y="-458.5" font-family="Helvetica,sans-Serif" font-size="10.00">+</text>
<text text-anchor="start" x="145.38" y="-458.5" font-family="Helvetica,sans-Serif" font-size="10.00">Init()</text>
<text text-anchor="start" x="135.38" y="-442.5" font-family="Helvetica,sans-Serif" font-size="10.00">+</text>
<text text-anchor="start" x="145.38" y="-442.5" font-family="Helvetica,sans-Serif" font-size="10.00">Run()</text>
<text text-anchor="start" x="135.38" y="-426.5" font-family="Helvetica,sans-Serif" font-size="10.00">+</text>
<text text-anchor="start" x="145.38" y="-426.5" font-family="Helvetica,sans-Serif" font-size="10.00">Cleanup()</text>
<text text-anchor="start" x="135.38" y="-410.5" font-family="Helvetica,sans-Serif" font-size="10.00">+</text>
<text text-anchor="start" x="145.38" y="-410.5" font-family="Helvetica,sans-Serif" font-size="10.00">OnReset()</text>
<text text-anchor="start" x="135.38" y="-394.5" font-family="Helvetica,sans-Serif" font-size="10.00">+</text>
<text text-anchor="start" x="145.38" y="-394.5" font-family="Helvetica,sans-Serif" font-size="10.00">GetClassDefinition()</text>
<text text-anchor="start" x="135.75" y="-378.5" font-family="Helvetica,sans-Serif" font-size="10.00">#</text>
<text text-anchor="start" x="145.38" y="-378.5" font-family="Helvetica,sans-Serif" font-size="10.00">ResetOwnedActions()</text>
<text text-anchor="start" x="135.75" y="-362.5" font-family="Helvetica,sans-Serif" font-size="10.00">#</text>
<text text-anchor="start" x="145.38" y="-362.5" font-family="Helvetica,sans-Serif" font-size="10.00">ActionList()</text>
<polygon fill="#666666" stroke="#666666" points="131.38,-630 131.38,-630 245.38,-630 245.38,-630 131.38,-630"/>
<polygon fill="#666666" stroke="#666666" points="131.38,-614 131.38,-614 245.38,-614 245.38,-614 131.38,-614"/>
<polygon fill="none" stroke="#666666" points="131.38,-356 131.38,-660 245.38,-660 245.38,-356 131.38,-356"/>
</a>
</g>
</g>
<!-- Node6 -->
<g id="Node000006" class="node">
<title>Node6</title>
<g id="a_Node000006"><a xlink:href="class_fiea_1_1_engine_1_1_content_1_1_actions_1_1_delayed_action.html" target="_top" xlink:title="Wait until the requisite time has passed and then execute the contained actions until their completio...">
<polygon fill="white" stroke="none" points="116.75,-304 0,-304 0,-16 116.75,-16 116.75,-304"/>
<text text-anchor="start" x="4" y="-290.5" font-family="Helvetica,sans-Serif" font-size="10.00">Fiea::Engine::Content</text>
<text text-anchor="start" x="4" y="-278.5" font-family="Helvetica,sans-Serif" font-size="10.00">::Actions::DelayedAction</text>
<text text-anchor="start" x="6.56" y="-262.5" font-family="Helvetica,sans-Serif" font-size="10.00">+</text>
<text text-anchor="start" x="19.12" y="-262.5" font-family="Helvetica,sans-Serif" font-size="10.00">_Delay</text>
<text text-anchor="start" x="6.56" y="-246.5" font-family="Helvetica,sans-Serif" font-size="10.00">+</text>
<text text-anchor="start" x="19.12" y="-246.5" font-family="Helvetica,sans-Serif" font-size="10.00">_RepeatCount</text>
<text text-anchor="start" x="6.56" y="-230.5" font-family="Helvetica,sans-Serif" font-size="10.00">+</text>
<text text-anchor="start" x="19.12" y="-230.5" font-family="Helvetica,sans-Serif" font-size="10.00">DelayedAction()</text>
<text text-anchor="start" x="6.56" y="-214.5" font-family="Helvetica,sans-Serif" font-size="10.00">+</text>
<text text-anchor="start" x="19.12" y="-214.5" font-family="Helvetica,sans-Serif" font-size="10.00">DelayedAction()</text>
<text text-anchor="start" x="6.56" y="-198.5" font-family="Helvetica,sans-Serif" font-size="10.00">+</text>
<text text-anchor="start" x="19.12" y="-198.5" font-family="Helvetica,sans-Serif" font-size="10.00">DelayedAction()</text>
<text text-anchor="start" x="6.56" y="-182.5" font-family="Helvetica,sans-Serif" font-size="10.00">+</text>
<text text-anchor="start" x="19.12" y="-182.5" font-family="Helvetica,sans-Serif" font-size="10.00">DelayedAction()</text>
<text text-anchor="start" x="6.56" y="-166.5" font-family="Helvetica,sans-Serif" font-size="10.00">+</text>
<text text-anchor="start" x="19.12" y="-166.5" font-family="Helvetica,sans-Serif" font-size="10.00">operator=()</text>
<text text-anchor="start" x="6.56" y="-150.5" font-family="Helvetica,sans-Serif" font-size="10.00">+</text>
<text text-anchor="start" x="19.12" y="-150.5" font-family="Helvetica,sans-Serif" font-size="10.00">operator=()</text>
<text text-anchor="start" x="6.56" y="-134.5" font-family="Helvetica,sans-Serif" font-size="10.00">+</text>
<text text-anchor="start" x="19.12" y="-134.5" font-family="Helvetica,sans-Serif" font-size="10.00">~DelayedAction()</text>
<text text-anchor="start" x="6.56" y="-118.5" font-family="Helvetica,sans-Serif" font-size="10.00">+</text>
<text text-anchor="start" x="19.12" y="-118.5" font-family="Helvetica,sans-Serif" font-size="10.00">Clone()</text>
<text text-anchor="start" x="6.56" y="-102.5" font-family="Helvetica,sans-Serif" font-size="10.00">+</text>
<text text-anchor="start" x="19.12" y="-102.5" font-family="Helvetica,sans-Serif" font-size="10.00">ToString()</text>
<text text-anchor="start" x="6.56" y="-86.5" font-family="Helvetica,sans-Serif" font-size="10.00">+</text>
<text text-anchor="start" x="19.12" y="-86.5" font-family="Helvetica,sans-Serif" font-size="10.00">Init()</text>
<text text-anchor="start" x="6.56" y="-70.5" font-family="Helvetica,sans-Serif" font-size="10.00">+</text>
<text text-anchor="start" x="19.12" y="-70.5" font-family="Helvetica,sans-Serif" font-size="10.00">Run()</text>
<text text-anchor="start" x="6.56" y="-54.5" font-family="Helvetica,sans-Serif" font-size="10.00">+</text>
<text text-anchor="start" x="19.12" y="-54.5" font-family="Helvetica,sans-Serif" font-size="10.00">Cleanup()</text>
<text text-anchor="start" x="6.56" y="-38.5" font-family="Helvetica,sans-Serif" font-size="10.00">+</text>
<text text-anchor="start" x="19.12" y="-38.5" font-family="Helvetica,sans-Serif" font-size="10.00">OnReset()</text>
<text text-anchor="start" x="6.56" y="-22.5" font-family="Helvetica,sans-Serif" font-size="10.00">+</text>
<text text-anchor="start" x="19.12" y="-22.5" font-family="Helvetica,sans-Serif" font-size="10.00">GetClassDefinition()</text>
<polygon fill="#666666" stroke="#666666" points="0,-274 0,-274 116.75,-274 116.75,-274 0,-274"/>
<polygon fill="#666666" stroke="#666666" points="0,-242 0,-242 17.12,-242 17.12,-242 0,-242"/>
<polygon fill="#666666" stroke="#666666" points="17.12,-242 17.12,-242 116.75,-242 116.75,-242 17.12,-242"/>
<polygon fill="none" stroke="#666666" points="0,-16 0,-304 116.75,-304 116.75,-16 0,-16"/>
</a>
</g>
</g>
<!-- Node1&#45;&gt;Node6 -->
<g id="edge5_Node000001_Node000006" class="edge">
<title>Node1&#45;&gt;Node6</title>
<g id="a_edge5_Node000001_Node000006"><a xlink:title=" ">
<path fill="none" stroke="#63b8ff" d="M127.74,-345.62C122.5,-331.68 117.23,-317.65 112.06,-303.88"/>
<polygon fill="none" stroke="#63b8ff" points="124.41,-346.7 131.2,-354.83 130.96,-344.24 124.41,-346.7"/>
</a>
</g>
</g>
<!-- Node7 -->
<g id="Node000007" class="node">
<title>Node7</title>
<g id="a_Node000007"><a xlink:href="class_fiea_1_1_engine_1_1_content_1_1_actions_1_1_timed_action.html" target="_top" xlink:title="Execute each item in the Action List until a certain amount of time has passed.">
<polygon fill="white" stroke="none" points="242.25,-312 134.5,-312 134.5,-8 242.25,-8 242.25,-312"/>
<text text-anchor="start" x="138.5" y="-298.5" font-family="Helvetica,sans-Serif" font-size="10.00">Fiea::Engine::Content</text>
<text text-anchor="start" x="138.5" y="-286.5" font-family="Helvetica,sans-Serif" font-size="10.00">::Actions::TimedAction</text>
<text text-anchor="start" x="138.81" y="-270.5" font-family="Helvetica,sans-Serif" font-size="10.00">+</text>
<text text-anchor="start" x="149.12" y="-270.5" font-family="Helvetica,sans-Serif" font-size="10.00">_TargetTime</text>
<text text-anchor="start" x="138.81" y="-254.5" font-family="Helvetica,sans-Serif" font-size="10.00">+</text>
<text text-anchor="start" x="149.12" y="-254.5" font-family="Helvetica,sans-Serif" font-size="10.00">TimedAction()</text>
<text text-anchor="start" x="138.81" y="-238.5" font-family="Helvetica,sans-Serif" font-size="10.00">+</text>
<text text-anchor="start" x="149.12" y="-238.5" font-family="Helvetica,sans-Serif" font-size="10.00">TimedAction()</text>
<text text-anchor="start" x="138.81" y="-222.5" font-family="Helvetica,sans-Serif" font-size="10.00">+</text>
<text text-anchor="start" x="149.12" y="-222.5" font-family="Helvetica,sans-Serif" font-size="10.00">TimedAction()</text>
<text text-anchor="start" x="138.81" y="-206.5" font-family="Helvetica,sans-Serif" font-size="10.00">+</text>
<text text-anchor="start" x="149.12" y="-206.5" font-family="Helvetica,sans-Serif" font-size="10.00">TimedAction()</text>
<text text-anchor="start" x="138.81" y="-190.5" font-family="Helvetica,sans-Serif" font-size="10.00">+</text>
<text text-anchor="start" x="149.12" y="-190.5" font-family="Helvetica,sans-Serif" font-size="10.00">operator=()</text>
<text text-anchor="start" x="138.81" y="-174.5" font-family="Helvetica,sans-Serif" font-size="10.00">+</text>
<text text-anchor="start" x="149.12" y="-174.5" font-family="Helvetica,sans-Serif" font-size="10.00">operator=()</text>
<text text-anchor="start" x="138.81" y="-158.5" font-family="Helvetica,sans-Serif" font-size="10.00">+</text>
<text text-anchor="start" x="149.12" y="-158.5" font-family="Helvetica,sans-Serif" font-size="10.00">~TimedAction()</text>
<text text-anchor="start" x="138.81" y="-142.5" font-family="Helvetica,sans-Serif" font-size="10.00">+</text>
<text text-anchor="start" x="149.12" y="-142.5" font-family="Helvetica,sans-Serif" font-size="10.00">operator==()</text>
<text text-anchor="start" x="138.81" y="-126.5" font-family="Helvetica,sans-Serif" font-size="10.00">+</text>
<text text-anchor="start" x="149.12" y="-126.5" font-family="Helvetica,sans-Serif" font-size="10.00">operator!=()</text>
<text text-anchor="start" x="138.81" y="-110.5" font-family="Helvetica,sans-Serif" font-size="10.00">+</text>
<text text-anchor="start" x="149.12" y="-110.5" font-family="Helvetica,sans-Serif" font-size="10.00">Clone()</text>
<text text-anchor="start" x="138.81" y="-94.5" font-family="Helvetica,sans-Serif" font-size="10.00">+</text>
<text text-anchor="start" x="149.12" y="-94.5" font-family="Helvetica,sans-Serif" font-size="10.00">ToString()</text>
<text text-anchor="start" x="138.81" y="-78.5" font-family="Helvetica,sans-Serif" font-size="10.00">+</text>
<text text-anchor="start" x="149.12" y="-78.5" font-family="Helvetica,sans-Serif" font-size="10.00">Equals()</text>
<text text-anchor="start" x="138.81" y="-62.5" font-family="Helvetica,sans-Serif" font-size="10.00">+</text>
<text text-anchor="start" x="149.12" y="-62.5" font-family="Helvetica,sans-Serif" font-size="10.00">Init()</text>
<text text-anchor="start" x="138.81" y="-46.5" font-family="Helvetica,sans-Serif" font-size="10.00">+</text>
<text text-anchor="start" x="149.12" y="-46.5" font-family="Helvetica,sans-Serif" font-size="10.00">Run()</text>
<text text-anchor="start" x="138.81" y="-30.5" font-family="Helvetica,sans-Serif" font-size="10.00">+</text>
<text text-anchor="start" x="149.12" y="-30.5" font-family="Helvetica,sans-Serif" font-size="10.00">Cleanup()</text>
<text text-anchor="start" x="138.81" y="-14.5" font-family="Helvetica,sans-Serif" font-size="10.00">+</text>
<text text-anchor="start" x="149.12" y="-14.5" font-family="Helvetica,sans-Serif" font-size="10.00">GetClassDefinition()</text>
<polygon fill="#666666" stroke="#666666" points="134.5,-282 134.5,-282 242.25,-282 242.25,-282 134.5,-282"/>
<polygon fill="#666666" stroke="#666666" points="134.5,-266 134.5,-266 147.12,-266 147.12,-266 134.5,-266"/>
<polygon fill="#666666" stroke="#666666" points="147.12,-266 147.12,-266 242.25,-266 242.25,-266 147.12,-266"/>
<polygon fill="none" stroke="#666666" points="134.5,-8 134.5,-312 242.25,-312 242.25,-8 134.5,-8"/>
</a>
</g>
</g>
<!-- Node1&#45;&gt;Node7 -->
<g id="edge6_Node000001_Node000007" class="edge">
<title>Node1&#45;&gt;Node7</title>
<g id="a_edge6_Node000001_Node000007"><a xlink:title=" ">
<path fill="none" stroke="#63b8ff" d="M188.38,-344.8C188.38,-333.79 188.38,-322.72 188.38,-311.77"/>
<polygon fill="none" stroke="#63b8ff" points="184.88,-344.73 188.38,-354.73 191.88,-344.73 184.88,-344.73"/>
</a>
</g>
</g>
<!-- Node8 -->
<g id="Node000008" class="node">
<title>Node8</title>
<g id="a_Node000008"><a xlink:href="class_fiea_1_1_engine_1_1_content_1_1_actions_1_1_while_action_list.html" target="_top" xlink:title="This action helps the user define a loop in content.">
<polygon fill="white" stroke="none" points="382,-320 260.75,-320 260.75,0 382,0 382,-320"/>
<text text-anchor="start" x="264.75" y="-306.5" font-family="Helvetica,sans-Serif" font-size="10.00">Fiea::Engine::Content</text>
<text text-anchor="start" x="264.75" y="-294.5" font-family="Helvetica,sans-Serif" font-size="10.00">::Actions::WhileActionList</text>
<text text-anchor="start" x="268.44" y="-278.5" font-family="Helvetica,sans-Serif" font-size="10.00">+</text>
<text text-anchor="start" x="282.12" y="-278.5" font-family="Helvetica,sans-Serif" font-size="10.00">_Preamble</text>
<text text-anchor="start" x="268.44" y="-262.5" font-family="Helvetica,sans-Serif" font-size="10.00">+</text>
<text text-anchor="start" x="282.12" y="-262.5" font-family="Helvetica,sans-Serif" font-size="10.00">_Condition</text>
<text text-anchor="start" x="268.44" y="-246.5" font-family="Helvetica,sans-Serif" font-size="10.00">+</text>
<text text-anchor="start" x="282.12" y="-246.5" font-family="Helvetica,sans-Serif" font-size="10.00">_Increment</text>
<text text-anchor="start" x="268.44" y="-230.5" font-family="Helvetica,sans-Serif" font-size="10.00">+</text>
<text text-anchor="start" x="282.12" y="-230.5" font-family="Helvetica,sans-Serif" font-size="10.00">WhileActionList()</text>
<text text-anchor="start" x="268.44" y="-214.5" font-family="Helvetica,sans-Serif" font-size="10.00">+</text>
<text text-anchor="start" x="282.12" y="-214.5" font-family="Helvetica,sans-Serif" font-size="10.00">WhileActionList()</text>
<text text-anchor="start" x="268.44" y="-198.5" font-family="Helvetica,sans-Serif" font-size="10.00">+</text>
<text text-anchor="start" x="282.12" y="-198.5" font-family="Helvetica,sans-Serif" font-size="10.00">WhileActionList()</text>
<text text-anchor="start" x="268.44" y="-182.5" font-family="Helvetica,sans-Serif" font-size="10.00">+</text>
<text text-anchor="start" x="282.12" y="-182.5" font-family="Helvetica,sans-Serif" font-size="10.00">operator=()</text>
<text text-anchor="start" x="268.44" y="-166.5" font-family="Helvetica,sans-Serif" font-size="10.00">+</text>
<text text-anchor="start" x="282.12" y="-166.5" font-family="Helvetica,sans-Serif" font-size="10.00">operator=()</text>
<text text-anchor="start" x="268.44" y="-150.5" font-family="Helvetica,sans-Serif" font-size="10.00">+</text>
<text text-anchor="start" x="282.12" y="-150.5" font-family="Helvetica,sans-Serif" font-size="10.00">~WhileActionList()</text>
<text text-anchor="start" x="268.44" y="-134.5" font-family="Helvetica,sans-Serif" font-size="10.00">+</text>
<text text-anchor="start" x="282.12" y="-134.5" font-family="Helvetica,sans-Serif" font-size="10.00">operator==()</text>
<text text-anchor="start" x="268.44" y="-118.5" font-family="Helvetica,sans-Serif" font-size="10.00">+</text>
<text text-anchor="start" x="282.12" y="-118.5" font-family="Helvetica,sans-Serif" font-size="10.00">operator!=()</text>
<text text-anchor="start" x="268.44" y="-102.5" font-family="Helvetica,sans-Serif" font-size="10.00">+</text>
<text text-anchor="start" x="282.12" y="-102.5" font-family="Helvetica,sans-Serif" font-size="10.00">Clone()</text>
<text text-anchor="start" x="268.44" y="-86.5" font-family="Helvetica,sans-Serif" font-size="10.00">+</text>
<text text-anchor="start" x="282.12" y="-86.5" font-family="Helvetica,sans-Serif" font-size="10.00">ToString()</text>
<text text-anchor="start" x="268.44" y="-70.5" font-family="Helvetica,sans-Serif" font-size="10.00">+</text>
<text text-anchor="start" x="282.12" y="-70.5" font-family="Helvetica,sans-Serif" font-size="10.00">Equals()</text>
<text text-anchor="start" x="268.44" y="-54.5" font-family="Helvetica,sans-Serif" font-size="10.00">+</text>
<text text-anchor="start" x="282.12" y="-54.5" font-family="Helvetica,sans-Serif" font-size="10.00">Init()</text>
<text text-anchor="start" x="268.44" y="-38.5" font-family="Helvetica,sans-Serif" font-size="10.00">+</text>
<text text-anchor="start" x="282.12" y="-38.5" font-family="Helvetica,sans-Serif" font-size="10.00">Run()</text>
<text text-anchor="start" x="268.44" y="-22.5" font-family="Helvetica,sans-Serif" font-size="10.00">+</text>
<text text-anchor="start" x="282.12" y="-22.5" font-family="Helvetica,sans-Serif" font-size="10.00">Cleanup()</text>
<text text-anchor="start" x="268.44" y="-6.5" font-family="Helvetica,sans-Serif" font-size="10.00">+</text>
<text text-anchor="start" x="282.12" y="-6.5" font-family="Helvetica,sans-Serif" font-size="10.00">GetClassDefinition()</text>
<polygon fill="#666666" stroke="#666666" points="260.75,-290 260.75,-290 382,-290 382,-290 260.75,-290"/>
<polygon fill="#666666" stroke="#666666" points="260.75,-242 260.75,-242 280.12,-242 280.12,-242 260.75,-242"/>
<polygon fill="#666666" stroke="#666666" points="280.12,-242 280.12,-242 382,-242 382,-242 280.12,-242"/>
<polygon fill="none" stroke="#666666" points="260.75,0 260.75,-320 382,-320 382,0 260.75,0"/>
</a>
</g>
</g>
<!-- Node1&#45;&gt;Node8 -->
<g id="edge7_Node000001_Node000008" class="edge">
<title>Node1&#45;&gt;Node8</title>
<g id="a_edge7_Node000001_Node000008"><a xlink:title=" ">
<path fill="none" stroke="#63b8ff" d="M249.44,-348.13C253.22,-338.3 257.02,-328.41 260.8,-318.59"/>
<polygon fill="none" stroke="#63b8ff" points="246.22,-346.76 245.9,-357.35 252.76,-349.27 246.22,-346.76"/>
</a>
</g>
</g>
<!-- Node2 -->
<g id="Node000002" class="node">
<title>Node2</title>
<g id="a_Node000002"><a xlink:href="class_fiea_1_1_engine_1_1_content_1_1_actions_1_1_action.html" target="_top" xlink:title="Content driven way of creating behaviour.">
<polygon fill="white" stroke="none" points="241.62,-968 135.12,-968 135.12,-696 241.62,-696 241.62,-968"/>
<text text-anchor="start" x="140.75" y="-954.5" font-family="Helvetica,sans-Serif" font-size="10.00">Fiea::Engine::Content</text>
<text text-anchor="start" x="152" y="-942.5" font-family="Helvetica,sans-Serif" font-size="10.00">::Actions::Action</text>
<text text-anchor="start" x="139.12" y="-926.5" font-family="Helvetica,sans-Serif" font-size="10.00">+</text>
<text text-anchor="start" x="149.12" y="-926.5" font-family="Helvetica,sans-Serif" font-size="10.00">_Name</text>
<text text-anchor="start" x="139.12" y="-910.5" font-family="Helvetica,sans-Serif" font-size="10.00">+</text>
<text text-anchor="start" x="149.12" y="-910.5" font-family="Helvetica,sans-Serif" font-size="10.00">Action()</text>
<text text-anchor="start" x="139.12" y="-894.5" font-family="Helvetica,sans-Serif" font-size="10.00">+</text>
<text text-anchor="start" x="149.12" y="-894.5" font-family="Helvetica,sans-Serif" font-size="10.00">Action()</text>
<text text-anchor="start" x="139.12" y="-878.5" font-family="Helvetica,sans-Serif" font-size="10.00">+</text>
<text text-anchor="start" x="149.12" y="-878.5" font-family="Helvetica,sans-Serif" font-size="10.00">operator=()</text>
<text text-anchor="start" x="139.12" y="-862.5" font-family="Helvetica,sans-Serif" font-size="10.00">+</text>
<text text-anchor="start" x="149.12" y="-862.5" font-family="Helvetica,sans-Serif" font-size="10.00">operator=()</text>
<text text-anchor="start" x="139.12" y="-846.5" font-family="Helvetica,sans-Serif" font-size="10.00">+</text>
<text text-anchor="start" x="149.12" y="-846.5" font-family="Helvetica,sans-Serif" font-size="10.00">operator==()</text>
<text text-anchor="start" x="139.12" y="-830.5" font-family="Helvetica,sans-Serif" font-size="10.00">+</text>
<text text-anchor="start" x="149.12" y="-830.5" font-family="Helvetica,sans-Serif" font-size="10.00">operator!=()</text>
<text text-anchor="start" x="139.12" y="-814.5" font-family="Helvetica,sans-Serif" font-size="10.00">+</text>
<text text-anchor="start" x="149.12" y="-814.5" font-family="Helvetica,sans-Serif" font-size="10.00">~Action()</text>
<text text-anchor="start" x="139.12" y="-798.5" font-family="Helvetica,sans-Serif" font-size="10.00">+</text>
<text text-anchor="start" x="149.12" y="-798.5" font-family="Helvetica,sans-Serif" font-size="10.00">Clone()</text>
<text text-anchor="start" x="139.12" y="-782.5" font-family="Helvetica,sans-Serif" font-size="10.00">+</text>
<text text-anchor="start" x="149.12" y="-782.5" font-family="Helvetica,sans-Serif" font-size="10.00">ToString()</text>
<text text-anchor="start" x="139.12" y="-766.5" font-family="Helvetica,sans-Serif" font-size="10.00">+</text>
<text text-anchor="start" x="149.12" y="-766.5" font-family="Helvetica,sans-Serif" font-size="10.00">Equals()</text>
<text text-anchor="start" x="149.12" y="-750.5" font-family="Helvetica,sans-Serif" font-size="10.00">and 7 more...</text>
<text text-anchor="start" x="139.12" y="-734.5" font-family="Helvetica,sans-Serif" font-size="10.00">+</text>
<text text-anchor="start" x="149.12" y="-734.5" font-family="Helvetica,sans-Serif" font-size="10.00">GetClassDefinition()</text>
<text text-anchor="start" x="139.5" y="-718.5" font-family="Helvetica,sans-Serif" font-size="10.00">#</text>
<text text-anchor="start" x="149.12" y="-718.5" font-family="Helvetica,sans-Serif" font-size="10.00">Action()</text>
<text text-anchor="start" x="139.5" y="-702.5" font-family="Helvetica,sans-Serif" font-size="10.00">#</text>
<text text-anchor="start" x="149.12" y="-702.5" font-family="Helvetica,sans-Serif" font-size="10.00">Action()</text>
<polygon fill="#666666" stroke="#666666" points="135.12,-938 135.12,-938 241.62,-938 241.62,-938 135.12,-938"/>
<polygon fill="#666666" stroke="#666666" points="135.12,-922 135.12,-922 147.12,-922 147.12,-922 135.12,-922"/>
<polygon fill="#666666" stroke="#666666" points="147.12,-922 147.12,-922 241.62,-922 241.62,-922 147.12,-922"/>
<polygon fill="none" stroke="#666666" points="135.12,-696 135.12,-968 241.62,-968 241.62,-696 135.12,-696"/>
</a>
</g>
</g>
<!-- Node2&#45;&gt;Node1 -->
<g id="edge1_Node000001_Node000002" class="edge">
<title>Node2&#45;&gt;Node1</title>
<g id="a_edge1_Node000001_Node000002"><a xlink:title=" ">
<path fill="none" stroke="#63b8ff" d="M188.38,-684.95C188.38,-676.59 188.38,-668.17 188.38,-659.79"/>
<polygon fill="none" stroke="#63b8ff" points="184.88,-684.8 188.38,-694.8 191.88,-684.8 184.88,-684.8"/>
</a>
</g>
</g>
<!-- Node3 -->
<g id="Node000003" class="node">
<title>Node3</title>
<g id="a_Node000003"><a xlink:href="class_fiea_1_1_engine_1_1_content_1_1_attributed.html" target="_top" xlink:title=" ">
<polygon fill="white" stroke="none" points="240,-1244 136.75,-1244 136.75,-1004 240,-1004 240,-1244"/>
<text text-anchor="start" x="140.75" y="-1230.5" font-family="Helvetica,sans-Serif" font-size="10.00">Fiea::Engine::Content</text>
<text text-anchor="start" x="164.38" y="-1218.5" font-family="Helvetica,sans-Serif" font-size="10.00">::Attributed</text>
<text text-anchor="start" x="186.88" y="-1202.5" font-family="Helvetica,sans-Serif" font-size="10.00"> </text>
<text text-anchor="start" x="147.62" y="-1186.5" font-family="Helvetica,sans-Serif" font-size="10.00">+</text>
<text text-anchor="start" x="164.5" y="-1186.5" font-family="Helvetica,sans-Serif" font-size="10.00">Attributed()</text>
<text text-anchor="start" x="147.62" y="-1170.5" font-family="Helvetica,sans-Serif" font-size="10.00">+</text>
<text text-anchor="start" x="164.5" y="-1170.5" font-family="Helvetica,sans-Serif" font-size="10.00">Attributed()</text>
<text text-anchor="start" x="147.62" y="-1154.5" font-family="Helvetica,sans-Serif" font-size="10.00">+</text>
<text text-anchor="start" x="164.5" y="-1154.5" font-family="Helvetica,sans-Serif" font-size="10.00">Attributed()</text>
<text text-anchor="start" x="147.62" y="-1138.5" font-family="Helvetica,sans-Serif" font-size="10.00">+</text>
<text text-anchor="start" x="164.5" y="-1138.5" font-family="Helvetica,sans-Serif" font-size="10.00">operator=()</text>
<text text-anchor="start" x="147.62" y="-1122.5" font-family="Helvetica,sans-Serif" font-size="10.00">+</text>
<text text-anchor="start" x="164.5" y="-1122.5" font-family="Helvetica,sans-Serif" font-size="10.00">operator=()</text>
<text text-anchor="start" x="147.62" y="-1106.5" font-family="Helvetica,sans-Serif" font-size="10.00">+</text>
<text text-anchor="start" x="164.5" y="-1106.5" font-family="Helvetica,sans-Serif" font-size="10.00">~Attributed()</text>
<text text-anchor="start" x="147.62" y="-1090.5" font-family="Helvetica,sans-Serif" font-size="10.00">+</text>
<text text-anchor="start" x="164.5" y="-1090.5" font-family="Helvetica,sans-Serif" font-size="10.00">Clone()</text>
<text text-anchor="start" x="147.62" y="-1074.5" font-family="Helvetica,sans-Serif" font-size="10.00">+</text>
<text text-anchor="start" x="164.5" y="-1074.5" font-family="Helvetica,sans-Serif" font-size="10.00">ToString()</text>
<text text-anchor="start" x="147.62" y="-1058.5" font-family="Helvetica,sans-Serif" font-size="10.00">+</text>
<text text-anchor="start" x="164.5" y="-1058.5" font-family="Helvetica,sans-Serif" font-size="10.00">Equals()</text>
<text text-anchor="start" x="147.62" y="-1042.5" font-family="Helvetica,sans-Serif" font-size="10.00">+</text>
<text text-anchor="start" x="164.5" y="-1042.5" font-family="Helvetica,sans-Serif" font-size="10.00">IsAttribute()</text>
<text text-anchor="start" x="164.5" y="-1026.5" font-family="Helvetica,sans-Serif" font-size="10.00">and 6 more...</text>
<text text-anchor="start" x="148" y="-1010.5" font-family="Helvetica,sans-Serif" font-size="10.00">#</text>
<text text-anchor="start" x="164.5" y="-1010.5" font-family="Helvetica,sans-Serif" font-size="10.00">Attributed()</text>
<polygon fill="#666666" stroke="#666666" points="136.75,-1214 136.75,-1214 240,-1214 240,-1214 136.75,-1214"/>
<polygon fill="#666666" stroke="#666666" points="136.75,-1198 136.75,-1198 240,-1198 240,-1198 136.75,-1198"/>
<polygon fill="none" stroke="#666666" points="136.75,-1004 136.75,-1244 240,-1244 240,-1004 136.75,-1004"/>
</a>
</g>
</g>
<!-- Node3&#45;&gt;Node2 -->
<g id="edge2_Node000002_Node000003" class="edge">
<title>Node3&#45;&gt;Node2</title>
<g id="a_edge2_Node000002_Node000003"><a xlink:title=" ">
<path fill="none" stroke="#63b8ff" d="M188.38,-992.86C188.38,-984.49 188.38,-976.06 188.38,-967.67"/>
<polygon fill="none" stroke="#63b8ff" points="184.88,-992.7 188.38,-1002.7 191.88,-992.7 184.88,-992.7"/>
</a>
</g>
</g>
<!-- Node4 -->
<g id="Node000004" class="node">
<title>Node4</title>
<g id="a_Node000004"><a xlink:href="class_fiea_1_1_engine_1_1_content_1_1_scope.html" target="_top" xlink:title=" ">
<polygon fill="white" stroke="none" points="240,-1520 136.75,-1520 136.75,-1280 240,-1280 240,-1520"/>
<text text-anchor="start" x="140.75" y="-1506.5" font-family="Helvetica,sans-Serif" font-size="10.00">Fiea::Engine::Content</text>
<text text-anchor="start" x="171.5" y="-1494.5" font-family="Helvetica,sans-Serif" font-size="10.00">::Scope</text>
<text text-anchor="start" x="186.88" y="-1478.5" font-family="Helvetica,sans-Serif" font-size="10.00"> </text>
<text text-anchor="start" x="146.12" y="-1462.5" font-family="Helvetica,sans-Serif" font-size="10.00">+</text>
<text text-anchor="start" x="161.5" y="-1462.5" font-family="Helvetica,sans-Serif" font-size="10.00">ToString()</text>
<text text-anchor="start" x="146.12" y="-1446.5" font-family="Helvetica,sans-Serif" font-size="10.00">+</text>
<text text-anchor="start" x="161.5" y="-1446.5" font-family="Helvetica,sans-Serif" font-size="10.00">Equals()</text>
<text text-anchor="start" x="146.12" y="-1430.5" font-family="Helvetica,sans-Serif" font-size="10.00">+</text>
<text text-anchor="start" x="161.5" y="-1430.5" font-family="Helvetica,sans-Serif" font-size="10.00">Scope()</text>
<text text-anchor="start" x="146.12" y="-1414.5" font-family="Helvetica,sans-Serif" font-size="10.00">+</text>
<text text-anchor="start" x="161.5" y="-1414.5" font-family="Helvetica,sans-Serif" font-size="10.00">Scope()</text>
<text text-anchor="start" x="146.12" y="-1398.5" font-family="Helvetica,sans-Serif" font-size="10.00">+</text>
<text text-anchor="start" x="161.5" y="-1398.5" font-family="Helvetica,sans-Serif" font-size="10.00">Scope()</text>
<text text-anchor="start" x="146.12" y="-1382.5" font-family="Helvetica,sans-Serif" font-size="10.00">+</text>
<text text-anchor="start" x="161.5" y="-1382.5" font-family="Helvetica,sans-Serif" font-size="10.00">operator=()</text>
<text text-anchor="start" x="146.12" y="-1366.5" font-family="Helvetica,sans-Serif" font-size="10.00">+</text>
<text text-anchor="start" x="161.5" y="-1366.5" font-family="Helvetica,sans-Serif" font-size="10.00">operator=()</text>
<text text-anchor="start" x="146.12" y="-1350.5" font-family="Helvetica,sans-Serif" font-size="10.00">+</text>
<text text-anchor="start" x="161.5" y="-1350.5" font-family="Helvetica,sans-Serif" font-size="10.00">~Scope()</text>
<text text-anchor="start" x="146.12" y="-1334.5" font-family="Helvetica,sans-Serif" font-size="10.00">+</text>
<text text-anchor="start" x="161.5" y="-1334.5" font-family="Helvetica,sans-Serif" font-size="10.00">Clone()</text>
<text text-anchor="start" x="146.12" y="-1318.5" font-family="Helvetica,sans-Serif" font-size="10.00">+</text>
<text text-anchor="start" x="161.5" y="-1318.5" font-family="Helvetica,sans-Serif" font-size="10.00">Scope()</text>
<text text-anchor="start" x="161.5" y="-1302.5" font-family="Helvetica,sans-Serif" font-size="10.00">and 22 more...</text>
<text text-anchor="start" x="146.5" y="-1286.5" font-family="Helvetica,sans-Serif" font-size="10.00">#</text>
<text text-anchor="start" x="161.5" y="-1286.5" font-family="Helvetica,sans-Serif" font-size="10.00">GetAttributes()</text>
<polygon fill="#666666" stroke="#666666" points="136.75,-1490 136.75,-1490 240,-1490 240,-1490 136.75,-1490"/>
<polygon fill="#666666" stroke="#666666" points="136.75,-1474 136.75,-1474 240,-1474 240,-1474 136.75,-1474"/>
<polygon fill="none" stroke="#666666" points="136.75,-1280 136.75,-1520 240,-1520 240,-1280 136.75,-1280"/>
</a>
</g>
</g>
<!-- Node4&#45;&gt;Node3 -->
<g id="edge3_Node000003_Node000004" class="edge">
<title>Node4&#45;&gt;Node3</title>
<g id="a_edge3_Node000003_Node000004"><a xlink:title=" ">
<path fill="none" stroke="#63b8ff" d="M188.38,-1268.73C188.38,-1260.44 188.38,-1252.11 188.38,-1243.87"/>
<polygon fill="none" stroke="#63b8ff" points="184.88,-1268.5 188.38,-1278.5 191.88,-1268.5 184.88,-1268.5"/>
</a>
</g>
</g>
<!-- Node5 -->
<g id="Node000005" class="node">
<title>Node5</title>
<g id="a_Node000005"><a xlink:href="class_fiea_1_1_engine_1_1_r_t_t_i.html" target="_top" xlink:title=" ">
<polygon fill="white" stroke="none" points="233.75,-1784 143,-1784 143,-1556 233.75,-1556 233.75,-1784"/>
<text text-anchor="start" x="147.12" y="-1770.5" font-family="Helvetica,sans-Serif" font-size="10.00">Fiea::Engine::RTTI</text>
<text text-anchor="start" x="186.88" y="-1754.5" font-family="Helvetica,sans-Serif" font-size="10.00"> </text>
<text text-anchor="start" x="147" y="-1738.5" font-family="Helvetica,sans-Serif" font-size="10.00">+</text>
<text text-anchor="start" x="157" y="-1738.5" font-family="Helvetica,sans-Serif" font-size="10.00">RTTI()</text>
<text text-anchor="start" x="147" y="-1722.5" font-family="Helvetica,sans-Serif" font-size="10.00">+</text>
<text text-anchor="start" x="157" y="-1722.5" font-family="Helvetica,sans-Serif" font-size="10.00">RTTI()</text>
<text text-anchor="start" x="147" y="-1706.5" font-family="Helvetica,sans-Serif" font-size="10.00">+</text>
<text text-anchor="start" x="157" y="-1706.5" font-family="Helvetica,sans-Serif" font-size="10.00">operator=()</text>
<text text-anchor="start" x="147" y="-1690.5" font-family="Helvetica,sans-Serif" font-size="10.00">+</text>
<text text-anchor="start" x="157" y="-1690.5" font-family="Helvetica,sans-Serif" font-size="10.00">RTTI()</text>
<text text-anchor="start" x="147" y="-1674.5" font-family="Helvetica,sans-Serif" font-size="10.00">+</text>
<text text-anchor="start" x="157" y="-1674.5" font-family="Helvetica,sans-Serif" font-size="10.00">operator=()</text>
<text text-anchor="start" x="147" y="-1658.5" font-family="Helvetica,sans-Serif" font-size="10.00">+</text>
<text text-anchor="start" x="157" y="-1658.5" font-family="Helvetica,sans-Serif" font-size="10.00">~RTTI()</text>
<text text-anchor="start" x="147" y="-1642.5" font-family="Helvetica,sans-Serif" font-size="10.00">+</text>
<text text-anchor="start" x="157" y="-1642.5" font-family="Helvetica,sans-Serif" font-size="10.00">TypeIdInstance()</text>
<text text-anchor="start" x="147" y="-1626.5" font-family="Helvetica,sans-Serif" font-size="10.00">+</text>
<text text-anchor="start" x="157" y="-1626.5" font-family="Helvetica,sans-Serif" font-size="10.00">Is()</text>
<text text-anchor="start" x="147" y="-1610.5" font-family="Helvetica,sans-Serif" font-size="10.00">+</text>
<text text-anchor="start" x="157" y="-1610.5" font-family="Helvetica,sans-Serif" font-size="10.00">As()</text>
<text text-anchor="start" x="147" y="-1594.5" font-family="Helvetica,sans-Serif" font-size="10.00">+</text>
<text text-anchor="start" x="157" y="-1594.5" font-family="Helvetica,sans-Serif" font-size="10.00">As()</text>
<text text-anchor="start" x="147" y="-1578.5" font-family="Helvetica,sans-Serif" font-size="10.00">+</text>
<text text-anchor="start" x="157" y="-1578.5" font-family="Helvetica,sans-Serif" font-size="10.00">ToString()</text>
<text text-anchor="start" x="147" y="-1562.5" font-family="Helvetica,sans-Serif" font-size="10.00">+</text>
<text text-anchor="start" x="157" y="-1562.5" font-family="Helvetica,sans-Serif" font-size="10.00">Equals()</text>
<polygon fill="#666666" stroke="#666666" points="143,-1766 143,-1766 233.75,-1766 233.75,-1766 143,-1766"/>
<polygon fill="#666666" stroke="#666666" points="143,-1750 143,-1750 233.75,-1750 233.75,-1750 143,-1750"/>
<polygon fill="none" stroke="#666666" points="143,-1556 143,-1784 233.75,-1784 233.75,-1556 143,-1556"/>
</a>
</g>
</g>
<!-- Node5&#45;&gt;Node4 -->
<g id="edge4_Node000004_Node000005" class="edge">
<title>Node5&#45;&gt;Node4</title>
<g id="a_edge4_Node000004_Node000005"><a xlink:title=" ">
<path fill="none" stroke="#63b8ff" d="M188.38,-1544.8C188.38,-1536.47 188.38,-1528.08 188.38,-1519.77"/>
<polygon fill="none" stroke="#63b8ff" points="184.88,-1544.61 188.38,-1554.61 191.88,-1544.61 184.88,-1544.61"/>
</a>
</g>
</g>
</g>
</svg>
