<?xml version="1.0" encoding="UTF-8" standalone="no"?>
<!DOCTYPE svg PUBLIC "-//W3C//DTD SVG 1.1//EN"
 "http://www.w3.org/Graphics/SVG/1.1/DTD/svg11.dtd">
<!-- Generated by graphviz version 12.2.1 (20241206.2353)
 -->
<!-- Title: Fiea::Engine::Memory::Heap::Used Pages: 1 -->
<svg width="310pt" height="140pt"
 viewBox="0.00 0.00 310.00 140.00" xmlns="http://www.w3.org/2000/svg" xmlns:xlink="http://www.w3.org/1999/xlink">
<g id="graph0" class="graph" transform="scale(1 1) rotate(0) translate(4 136)">
<title>Fiea::Engine::Memory::Heap::Used</title>
<!-- Node1 -->
<g id="Node000001" class="node">
<title>Node1</title>
<g id="a_Node000001"><a xlink:title="Returns the number of bytes used so far by allocated blocks. It iterates through the headers calculat...">
<polygon fill="#999999" stroke="#666666" points="302,-82 190,-82 190,-50 302,-50 302,-82"/>
<text text-anchor="start" x="198" y="-68.5" font-family="Helvetica,sans-Serif" font-size="10.00">Fiea::Engine::Memory</text>
<text text-anchor="middle" x="246" y="-56.5" font-family="Helvetica,sans-Serif" font-size="10.00">::Heap::Used</text>
</a>
</g>
</g>
<!-- Node2 -->
<g id="Node000002" class="node">
<title>Node2</title>
<g id="a_Node000002"><a xlink:href="class_fiea_1_1_engine_1_1_memory_1_1_memory_service.html#a490c6a09763f6f2dcf5fcae530ff652c" target="_top" xlink:title="Destroys heap given the pointer.">
<polygon fill="white" stroke="#666666" points="154,-132 0,-132 0,-100 154,-100 154,-132"/>
<text text-anchor="start" x="8" y="-118.5" font-family="Helvetica,sans-Serif" font-size="10.00">Fiea::Engine::Memory</text>
<text text-anchor="middle" x="77" y="-106.5" font-family="Helvetica,sans-Serif" font-size="10.00">::MemoryService::DestroyHeap</text>
</a>
</g>
</g>
<!-- Node1&#45;&gt;Node2 -->
<g id="edge1_Node000001_Node000002" class="edge">
<title>Node1&#45;&gt;Node2</title>
<g id="a_edge1_Node000001_Node000002"><a xlink:title=" ">
<path fill="none" stroke="#63b8ff" d="M179.35,-85.66C164.04,-90.24 147.89,-95.08 133.09,-99.51"/>
<polygon fill="#63b8ff" stroke="#63b8ff" points="180.29,-89.03 188.87,-82.81 178.28,-82.32 180.29,-89.03"/>
</a>
</g>
</g>
<!-- Node3 -->
<g id="Node000003" class="node">
<title>Node3</title>
<g id="a_Node000003"><a xlink:href="namespace_fiea_1_1_engine_1_1_tests.html#ad864e6947de6b37ea85f6860600bafd5" target="_top" xlink:title=" ">
<polygon fill="white" stroke="#666666" points="127.38,-82 26.62,-82 26.62,-50 127.38,-50 127.38,-82"/>
<text text-anchor="start" x="34.62" y="-68.5" font-family="Helvetica,sans-Serif" font-size="10.00">Fiea::Engine::Tests</text>
<text text-anchor="middle" x="77" y="-56.5" font-family="Helvetica,sans-Serif" font-size="10.00">::TEST_CLASS</text>
</a>
</g>
</g>
<!-- Node1&#45;&gt;Node3 -->
<g id="edge2_Node000001_Node000003" class="edge">
<title>Node1&#45;&gt;Node3</title>
<g id="a_edge2_Node000001_Node000003"><a xlink:title=" ">
<path fill="none" stroke="#63b8ff" d="M178.35,-66C161.47,-66 143.62,-66 127.74,-66"/>
<polygon fill="#63b8ff" stroke="#63b8ff" points="178.34,-69.5 188.34,-66 178.34,-62.5 178.34,-69.5"/>
</a>
</g>
</g>
<!-- Node4 -->
<g id="Node000004" class="node">
<title>Node4</title>
<g id="a_Node000004"><a xlink:href="namespace_fiea_1_1_engine_1_1_tests.html#abbe670df47131782f8fb2735809cde52" target="_top" xlink:title=" ">
<polygon fill="white" stroke="#666666" points="127.38,-32 26.62,-32 26.62,0 127.38,0 127.38,-32"/>
<text text-anchor="start" x="34.62" y="-18.5" font-family="Helvetica,sans-Serif" font-size="10.00">Fiea::Engine::Tests</text>
<text text-anchor="middle" x="77" y="-6.5" font-family="Helvetica,sans-Serif" font-size="10.00">::TEST_CLASS</text>
</a>
</g>
</g>
<!-- Node1&#45;&gt;Node4 -->
<g id="edge3_Node000001_Node000004" class="edge">
<title>Node1&#45;&gt;Node4</title>
<g id="a_edge3_Node000001_Node000004"><a xlink:title=" ">
<path fill="none" stroke="#63b8ff" d="M179.72,-46.46C162.43,-41.28 144.04,-35.77 127.72,-30.89"/>
<polygon fill="#63b8ff" stroke="#63b8ff" points="178.28,-49.68 188.87,-49.19 180.29,-42.97 178.28,-49.68"/>
</a>
</g>
</g>
</g>
</svg>
