<?xml version="1.0" encoding="UTF-8" standalone="no"?>
<!DOCTYPE svg PUBLIC "-//W3C//DTD SVG 1.1//EN"
 "http://www.w3.org/Graphics/SVG/1.1/DTD/svg11.dtd">
<!-- Generated by graphviz version 12.2.1 (20241206.2353)
 -->
<!-- Title: Fiea::Engine::GameClock Pages: 1 -->
<svg width="129pt" height="188pt"
 viewBox="0.00 0.00 128.50 188.00" xmlns="http://www.w3.org/2000/svg" xmlns:xlink="http://www.w3.org/1999/xlink">
<g id="graph0" class="graph" transform="scale(1 1) rotate(0) translate(4 184)">
<title>Fiea::Engine::GameClock</title>
<!-- Node1 -->
<g id="Node000001" class="node">
<title>Node1</title>
<g id="a_Node000001"><a xlink:title="A class to wrap the system clock and provide additional functionality.">
<polygon fill="#999999" stroke="none" points="120.5,-180 0,-180 0,0 120.5,0 120.5,-180"/>
<text text-anchor="start" x="4" y="-166.5" font-family="Helvetica,sans-Serif" font-size="10.00">Fiea::Engine::GameClock</text>
<text text-anchor="start" x="58.75" y="-150.5" font-family="Helvetica,sans-Serif" font-size="10.00"> </text>
<text text-anchor="start" x="13.69" y="-134.5" font-family="Helvetica,sans-Serif" font-size="10.00">+</text>
<text text-anchor="start" x="33.38" y="-134.5" font-family="Helvetica,sans-Serif" font-size="10.00">GameClock()</text>
<text text-anchor="start" x="13.69" y="-118.5" font-family="Helvetica,sans-Serif" font-size="10.00">+</text>
<text text-anchor="start" x="33.38" y="-118.5" font-family="Helvetica,sans-Serif" font-size="10.00">GameClock()</text>
<text text-anchor="start" x="13.69" y="-102.5" font-family="Helvetica,sans-Serif" font-size="10.00">+</text>
<text text-anchor="start" x="33.38" y="-102.5" font-family="Helvetica,sans-Serif" font-size="10.00">operator=()</text>
<text text-anchor="start" x="13.69" y="-86.5" font-family="Helvetica,sans-Serif" font-size="10.00">+</text>
<text text-anchor="start" x="33.38" y="-86.5" font-family="Helvetica,sans-Serif" font-size="10.00">GameClock()</text>
<text text-anchor="start" x="13.69" y="-70.5" font-family="Helvetica,sans-Serif" font-size="10.00">+</text>
<text text-anchor="start" x="33.38" y="-70.5" font-family="Helvetica,sans-Serif" font-size="10.00">operator=()</text>
<text text-anchor="start" x="13.69" y="-54.5" font-family="Helvetica,sans-Serif" font-size="10.00">+</text>
<text text-anchor="start" x="33.38" y="-54.5" font-family="Helvetica,sans-Serif" font-size="10.00">~GameClock()</text>
<text text-anchor="start" x="13.69" y="-38.5" font-family="Helvetica,sans-Serif" font-size="10.00">+</text>
<text text-anchor="start" x="33.38" y="-38.5" font-family="Helvetica,sans-Serif" font-size="10.00">Current()</text>
<text text-anchor="start" x="13.69" y="-22.5" font-family="Helvetica,sans-Serif" font-size="10.00">+</text>
<text text-anchor="start" x="33.38" y="-22.5" font-family="Helvetica,sans-Serif" font-size="10.00">Elapsed()</text>
<text text-anchor="start" x="13.69" y="-6.5" font-family="Helvetica,sans-Serif" font-size="10.00">+</text>
<text text-anchor="start" x="33.38" y="-6.5" font-family="Helvetica,sans-Serif" font-size="10.00">Update()</text>
<polygon fill="#666666" stroke="#666666" points="0,-162 0,-162 120.5,-162 120.5,-162 0,-162"/>
<polygon fill="#666666" stroke="#666666" points="0,-146 0,-146 120.5,-146 120.5,-146 0,-146"/>
<polygon fill="none" stroke="#666666" points="0,0 0,-180 120.5,-180 120.5,0 0,0"/>
</a>
</g>
</g>
</g>
</svg>
