<?xml version="1.0" encoding="UTF-8" standalone="no"?>
<!DOCTYPE svg PUBLIC "-//W3C//DTD SVG 1.1//EN"
 "http://www.w3.org/Graphics/SVG/1.1/DTD/svg11.dtd">
<!-- Generated by graphviz version 12.2.1 (20241206.2353)
 -->
<!-- Title: Fiea::Engine::Content::ActionHandler::ExitKey Pages: 1 -->
<svg width="470pt" height="128pt"
 viewBox="0.00 0.00 470.00 128.00" xmlns="http://www.w3.org/2000/svg" xmlns:xlink="http://www.w3.org/1999/xlink">
<g id="graph0" class="graph" transform="scale(1 1) rotate(0) translate(4 124)">
<title>Fiea::Engine::Content::ActionHandler::ExitKey</title>
<!-- Node1 -->
<g id="Node000001" class="node">
<title>Node1</title>
<g id="a_Node000001"><a xlink:title=" ">
<polygon fill="#999999" stroke="#666666" points="124,-82 0,-82 0,-50 124,-50 124,-82"/>
<text text-anchor="start" x="8" y="-68.5" font-family="Helvetica,sans-Serif" font-size="10.00">Fiea::Engine::Content</text>
<text text-anchor="middle" x="62" y="-56.5" font-family="Helvetica,sans-Serif" font-size="10.00">::ActionHandler::ExitKey</text>
</a>
</g>
</g>
<!-- Node2 -->
<g id="Node000002" class="node">
<title>Node2</title>
<g id="a_Node000002"><a xlink:href="class_fiea_1_1_engine_1_1_r_t_t_i.html#a15bd5993c8ad04da47af440298ebbb30" target="_top" xlink:title=" ">
<polygon fill="white" stroke="#666666" points="294.88,-120 178.38,-120 178.38,-100 294.88,-100 294.88,-120"/>
<text text-anchor="middle" x="236.62" y="-106.5" font-family="Helvetica,sans-Serif" font-size="10.00">Fiea::Engine::RTTI::As</text>
</a>
</g>
</g>
<!-- Node1&#45;&gt;Node2 -->
<g id="edge1_Node000001_Node000002" class="edge">
<title>Node1&#45;&gt;Node2</title>
<g id="a_edge1_Node000001_Node000002"><a xlink:title=" ">
<path fill="none" stroke="#63b8ff" d="M124.3,-81.86C136.14,-84.91 148.46,-88.06 160,-91 167.4,-92.88 175.22,-94.86 182.9,-96.8"/>
<polygon fill="#63b8ff" stroke="#63b8ff" points="181.99,-100.18 192.54,-99.22 183.7,-93.39 181.99,-100.18"/>
</a>
</g>
</g>
<!-- Node4 -->
<g id="Node000004" class="node">
<title>Node4</title>
<g id="a_Node000004"><a xlink:href="class_fiea_1_1_engine_1_1_content_1_1_parse_writer.html#adfcfbaea4b8c32604d144834456224ad" target="_top" xlink:title=" ">
<polygon fill="white" stroke="#666666" points="313.25,-82 160,-82 160,-50 313.25,-50 313.25,-82"/>
<text text-anchor="start" x="168" y="-68.5" font-family="Helvetica,sans-Serif" font-size="10.00">Fiea::Engine::Content</text>
<text text-anchor="middle" x="236.62" y="-56.5" font-family="Helvetica,sans-Serif" font-size="10.00">::ParseWriter::DecrementDepth</text>
</a>
</g>
</g>
<!-- Node1&#45;&gt;Node4 -->
<g id="edge3_Node000001_Node000004" class="edge">
<title>Node1&#45;&gt;Node4</title>
<g id="a_edge3_Node000001_Node000004"><a xlink:title=" ">
<path fill="none" stroke="#63b8ff" d="M124.35,-66C132.12,-66 140.19,-66 148.27,-66"/>
<polygon fill="#63b8ff" stroke="#63b8ff" points="148.16,-69.5 158.16,-66 148.16,-62.5 148.16,-69.5"/>
</a>
</g>
</g>
<!-- Node5 -->
<g id="Node000005" class="node">
<title>Node5</title>
<g id="a_Node000005"><a xlink:href="class_fiea_1_1_engine_1_1_content_1_1_scope_writer.html#a8ba2c681c0554ab2dcb5f37cdeea8f43" target="_top" xlink:title="This only pops the top element from the stack. Error condition if you pop an empty stack....">
<polygon fill="white" stroke="#666666" points="299.75,-32 173.5,-32 173.5,0 299.75,0 299.75,-32"/>
<text text-anchor="start" x="181.5" y="-18.5" font-family="Helvetica,sans-Serif" font-size="10.00">Fiea::Engine::Content</text>
<text text-anchor="middle" x="236.62" y="-6.5" font-family="Helvetica,sans-Serif" font-size="10.00">::ScopeWriter::PopScope</text>
</a>
</g>
</g>
<!-- Node1&#45;&gt;Node5 -->
<g id="edge4_Node000001_Node000005" class="edge">
<title>Node1&#45;&gt;Node5</title>
<g id="a_edge4_Node000001_Node000005"><a xlink:title=" ">
<path fill="none" stroke="#63b8ff" d="M119.52,-49.63C134.94,-45.16 151.81,-40.28 167.79,-35.65"/>
<polygon fill="#63b8ff" stroke="#63b8ff" points="168.59,-39.06 177.23,-32.92 166.65,-32.34 168.59,-39.06"/>
</a>
</g>
</g>
<!-- Node3 -->
<g id="Node000003" class="node">
<title>Node3</title>
<g id="a_Node000003"><a xlink:href="class_fiea_1_1_engine_1_1_r_t_t_i.html#ac0a7d875e4513b2aca7594abcd4418ef" target="_top" xlink:title=" ">
<polygon fill="white" stroke="#666666" points="462,-120 349.25,-120 349.25,-100 462,-100 462,-120"/>
<text text-anchor="middle" x="405.62" y="-106.5" font-family="Helvetica,sans-Serif" font-size="10.00">Fiea::Engine::RTTI::Is</text>
</a>
</g>
</g>
<!-- Node2&#45;&gt;Node3 -->
<g id="edge2_Node000002_Node000003" class="edge">
<title>Node2&#45;&gt;Node3</title>
<g id="a_edge2_Node000002_Node000003"><a xlink:title=" ">
<path fill="none" stroke="#63b8ff" d="M295.1,-110C308.87,-110 323.69,-110 337.85,-110"/>
<polygon fill="#63b8ff" stroke="#63b8ff" points="337.51,-113.5 347.51,-110 337.51,-106.5 337.51,-113.5"/>
</a>
</g>
</g>
</g>
</svg>
