<?xml version="1.0" encoding="UTF-8" standalone="no"?>
<!DOCTYPE svg PUBLIC "-//W3C//DTD SVG 1.1//EN"
 "http://www.w3.org/Graphics/SVG/1.1/DTD/svg11.dtd">
<!-- Generated by graphviz version 12.2.1 (20241206.2353)
 -->
<!-- Title: Fiea::Engine::Content::VectorHandler::ExitKey Pages: 1 -->
<svg width="483pt" height="152pt"
 viewBox="0.00 0.00 482.75 152.00" xmlns="http://www.w3.org/2000/svg" xmlns:xlink="http://www.w3.org/1999/xlink">
<g id="graph0" class="graph" transform="scale(1 1) rotate(0) translate(4 148)">
<title>Fiea::Engine::Content::VectorHandler::ExitKey</title>
<!-- Node1 -->
<g id="Node000001" class="node">
<title>Node1</title>
<g id="a_Node000001"><a xlink:title=" ">
<polygon fill="#999999" stroke="#666666" points="124,-100 0,-100 0,-68 124,-68 124,-100"/>
<text text-anchor="start" x="8" y="-86.5" font-family="Helvetica,sans-Serif" font-size="10.00">Fiea::Engine::Content</text>
<text text-anchor="middle" x="62" y="-74.5" font-family="Helvetica,sans-Serif" font-size="10.00">::VectorHandler::ExitKey</text>
</a>
</g>
</g>
<!-- Node2 -->
<g id="Node000002" class="node">
<title>Node2</title>
<g id="a_Node000002"><a xlink:href="class_fiea_1_1_engine_1_1_r_t_t_i.html#a15bd5993c8ad04da47af440298ebbb30" target="_top" xlink:title=" ">
<polygon fill="white" stroke="#666666" points="290,-144 173.5,-144 173.5,-124 290,-124 290,-144"/>
<text text-anchor="middle" x="231.75" y="-130.5" font-family="Helvetica,sans-Serif" font-size="10.00">Fiea::Engine::RTTI::As</text>
</a>
</g>
</g>
<!-- Node1&#45;&gt;Node2 -->
<g id="edge1_Node000001_Node000002" class="edge">
<title>Node1&#45;&gt;Node2</title>
<g id="a_edge1_Node000001_Node000002"><a xlink:title=" ">
<path fill="none" stroke="#63b8ff" d="M112.71,-100.38C127.85,-105.24 144.56,-110.46 160,-115 166.33,-116.86 173,-118.75 179.62,-120.57"/>
<polygon fill="#63b8ff" stroke="#63b8ff" points="178.59,-123.92 189.16,-123.18 180.44,-117.17 178.59,-123.92"/>
</a>
</g>
</g>
<!-- Node4 -->
<g id="Node000004" class="node">
<title>Node4</title>
<g id="a_Node000004"><a xlink:href="class_fiea_1_1_engine_1_1_content_1_1_scope_writer.html#a9b532cf2870d114a3cb24555ddd1cba5" target="_top" xlink:title=" ">
<polygon fill="white" stroke="#666666" points="302,-106 161.5,-106 161.5,-62 302,-62 302,-106"/>
<text text-anchor="start" x="169.5" y="-92.5" font-family="Helvetica,sans-Serif" font-size="10.00">Fiea::Engine::Content</text>
<text text-anchor="start" x="169.5" y="-80.5" font-family="Helvetica,sans-Serif" font-size="10.00">::ScopeWriter::IsKeyStorage</text>
<text text-anchor="middle" x="231.75" y="-68.5" font-family="Helvetica,sans-Serif" font-size="10.00">External</text>
</a>
</g>
</g>
<!-- Node1&#45;&gt;Node4 -->
<g id="edge3_Node000001_Node000004" class="edge">
<title>Node1&#45;&gt;Node4</title>
<g id="a_edge3_Node000001_Node000004"><a xlink:title=" ">
<path fill="none" stroke="#63b8ff" d="M124.04,-84C132.44,-84 141.17,-84 149.86,-84"/>
<polygon fill="#63b8ff" stroke="#63b8ff" points="149.72,-87.5 159.72,-84 149.72,-80.5 149.72,-87.5"/>
</a>
</g>
</g>
<!-- Node7 -->
<g id="Node000007" class="node">
<title>Node7</title>
<g id="a_Node000007"><a xlink:href="class_fiea_1_1_engine_1_1_content_1_1_scope_writer.html#a96567b341d87af6a4c24c85b35bdb3e4" target="_top" xlink:title="The Handler that set external data status should be the one to reset it.">
<polygon fill="white" stroke="#666666" points="303.5,-44 160,-44 160,0 303.5,0 303.5,-44"/>
<text text-anchor="start" x="168" y="-30.5" font-family="Helvetica,sans-Serif" font-size="10.00">Fiea::Engine::Content</text>
<text text-anchor="start" x="168" y="-18.5" font-family="Helvetica,sans-Serif" font-size="10.00">::ScopeWriter::ResetExternal</text>
<text text-anchor="middle" x="231.75" y="-6.5" font-family="Helvetica,sans-Serif" font-size="10.00">DataTeller</text>
</a>
</g>
</g>
<!-- Node1&#45;&gt;Node7 -->
<g id="edge6_Node000001_Node000007" class="edge">
<title>Node1&#45;&gt;Node7</title>
<g id="a_edge6_Node000001_Node000007"><a xlink:title=" ">
<path fill="none" stroke="#63b8ff" d="M107.51,-67.55C123.35,-61.7 141.6,-54.95 159.13,-48.47"/>
<polygon fill="#63b8ff" stroke="#63b8ff" points="160.33,-51.76 168.5,-45.01 157.91,-45.19 160.33,-51.76"/>
</a>
</g>
</g>
<!-- Node3 -->
<g id="Node000003" class="node">
<title>Node3</title>
<g id="a_Node000003"><a xlink:href="class_fiea_1_1_engine_1_1_r_t_t_i.html#ac0a7d875e4513b2aca7594abcd4418ef" target="_top" xlink:title=" ">
<polygon fill="white" stroke="#666666" points="463.5,-144 350.75,-144 350.75,-124 463.5,-124 463.5,-144"/>
<text text-anchor="middle" x="407.12" y="-130.5" font-family="Helvetica,sans-Serif" font-size="10.00">Fiea::Engine::RTTI::Is</text>
</a>
</g>
</g>
<!-- Node2&#45;&gt;Node3 -->
<g id="edge2_Node000002_Node000003" class="edge">
<title>Node2&#45;&gt;Node3</title>
<g id="a_edge2_Node000002_Node000003"><a xlink:title=" ">
<path fill="none" stroke="#63b8ff" d="M290.48,-134C306.02,-134 322.96,-134 338.96,-134"/>
<polygon fill="#63b8ff" stroke="#63b8ff" points="338.9,-137.5 348.9,-134 338.9,-130.5 338.9,-137.5"/>
</a>
</g>
</g>
<!-- Node5 -->
<g id="Node000005" class="node">
<title>Node5</title>
<g id="a_Node000005"><a xlink:href="class_fiea_1_1_engine_1_1_content_1_1_scope.html#ad924c01785b239991fc0e56a63295612" target="_top" xlink:title="Return the Datum at the requested key, or nullptr if not found.">
<polygon fill="white" stroke="#666666" points="462.75,-103 351.5,-103 351.5,-71 462.75,-71 462.75,-103"/>
<text text-anchor="start" x="359.5" y="-89.5" font-family="Helvetica,sans-Serif" font-size="10.00">Fiea::Engine::Content</text>
<text text-anchor="middle" x="407.12" y="-77.5" font-family="Helvetica,sans-Serif" font-size="10.00">::Scope::Find</text>
</a>
</g>
</g>
<!-- Node4&#45;&gt;Node5 -->
<g id="edge4_Node000004_Node000005" class="edge">
<title>Node4&#45;&gt;Node5</title>
<g id="a_edge4_Node000004_Node000005"><a xlink:title=" ">
<path fill="none" stroke="#63b8ff" d="M302.27,-85.2C314.75,-85.42 327.72,-85.64 340.1,-85.86"/>
<polygon fill="#63b8ff" stroke="#63b8ff" points="339.69,-89.35 349.75,-86.02 339.81,-82.35 339.69,-89.35"/>
</a>
</g>
</g>
<!-- Node6 -->
<g id="Node000006" class="node">
<title>Node6</title>
<g id="a_Node000006"><a xlink:href="class_fiea_1_1_engine_1_1_content_1_1_datum.html#a9b05337db582483976624ab93839bfa7" target="_top" xlink:title=" ">
<polygon fill="white" stroke="#666666" points="474.75,-53 339.5,-53 339.5,-21 474.75,-21 474.75,-53"/>
<text text-anchor="start" x="347.5" y="-39.5" font-family="Helvetica,sans-Serif" font-size="10.00">Fiea::Engine::Content</text>
<text text-anchor="middle" x="407.12" y="-27.5" font-family="Helvetica,sans-Serif" font-size="10.00">::Datum::IsStorageExternal</text>
</a>
</g>
</g>
<!-- Node4&#45;&gt;Node6 -->
<g id="edge5_Node000004_Node000006" class="edge">
<title>Node4&#45;&gt;Node6</title>
<g id="a_edge5_Node000004_Node000006"><a xlink:title=" ">
<path fill="none" stroke="#63b8ff" d="M302.27,-65.15C312.9,-62.27 323.88,-59.29 334.55,-56.4"/>
<polygon fill="#63b8ff" stroke="#63b8ff" points="335.34,-59.82 344.07,-53.82 333.5,-53.06 335.34,-59.82"/>
</a>
</g>
</g>
</g>
</svg>
