<?xml version="1.0" encoding="UTF-8" standalone="no"?>
<!DOCTYPE svg PUBLIC "-//W3C//DTD SVG 1.1//EN"
 "http://www.w3.org/Graphics/SVG/1.1/DTD/svg11.dtd">
<!-- Generated by graphviz version 12.2.1 (20241206.2353)
 -->
<!-- Title: Fiea::Engine::Content::ParseWriter Pages: 1 -->
<svg width="228pt" height="740pt"
 viewBox="0.00 0.00 227.62 740.00" xmlns="http://www.w3.org/2000/svg" xmlns:xlink="http://www.w3.org/1999/xlink">
<g id="graph0" class="graph" transform="scale(1 1) rotate(0) translate(4 736)">
<title>Fiea::Engine::Content::ParseWriter</title>
<!-- Node1 -->
<g id="Node000001" class="node">
<title>Node1</title>
<g id="a_Node000001"><a xlink:title=" ">
<polygon fill="#999999" stroke="none" points="162.25,-468 59,-468 59,-276 162.25,-276 162.25,-468"/>
<text text-anchor="start" x="63" y="-454.5" font-family="Helvetica,sans-Serif" font-size="10.00">Fiea::Engine::Content</text>
<text text-anchor="start" x="82.12" y="-442.5" font-family="Helvetica,sans-Serif" font-size="10.00">::ParseWriter</text>
<text text-anchor="start" x="64.25" y="-426.5" font-family="Helvetica,sans-Serif" font-size="10.00">+</text>
<text text-anchor="start" x="75.5" y="-426.5" font-family="Helvetica,sans-Serif" font-size="10.00">_Tracker</text>
<text text-anchor="start" x="64.25" y="-410.5" font-family="Helvetica,sans-Serif" font-size="10.00">+</text>
<text text-anchor="start" x="75.5" y="-410.5" font-family="Helvetica,sans-Serif" font-size="10.00">ParseWriter()</text>
<text text-anchor="start" x="64.25" y="-394.5" font-family="Helvetica,sans-Serif" font-size="10.00">+</text>
<text text-anchor="start" x="75.5" y="-394.5" font-family="Helvetica,sans-Serif" font-size="10.00">ParseWriter()</text>
<text text-anchor="start" x="64.25" y="-378.5" font-family="Helvetica,sans-Serif" font-size="10.00">+</text>
<text text-anchor="start" x="75.5" y="-378.5" font-family="Helvetica,sans-Serif" font-size="10.00">operator=()</text>
<text text-anchor="start" x="64.25" y="-362.5" font-family="Helvetica,sans-Serif" font-size="10.00">+</text>
<text text-anchor="start" x="75.5" y="-362.5" font-family="Helvetica,sans-Serif" font-size="10.00">operator=()</text>
<text text-anchor="start" x="64.25" y="-346.5" font-family="Helvetica,sans-Serif" font-size="10.00">+</text>
<text text-anchor="start" x="75.5" y="-346.5" font-family="Helvetica,sans-Serif" font-size="10.00">~ParseWriter()</text>
<text text-anchor="start" x="64.25" y="-330.5" font-family="Helvetica,sans-Serif" font-size="10.00">+</text>
<text text-anchor="start" x="75.5" y="-330.5" font-family="Helvetica,sans-Serif" font-size="10.00">IncrementDepth()</text>
<text text-anchor="start" x="64.25" y="-314.5" font-family="Helvetica,sans-Serif" font-size="10.00">+</text>
<text text-anchor="start" x="75.5" y="-314.5" font-family="Helvetica,sans-Serif" font-size="10.00">DecrementDepth()</text>
<text text-anchor="start" x="64.25" y="-298.5" font-family="Helvetica,sans-Serif" font-size="10.00">+</text>
<text text-anchor="start" x="75.5" y="-298.5" font-family="Helvetica,sans-Serif" font-size="10.00">Depth()</text>
<text text-anchor="start" x="64.62" y="-282.5" font-family="Helvetica,sans-Serif" font-size="10.00">#</text>
<text text-anchor="start" x="75.5" y="-282.5" font-family="Helvetica,sans-Serif" font-size="10.00">ParseWriter()</text>
<polygon fill="#666666" stroke="#666666" points="59,-438 59,-438 162.25,-438 162.25,-438 59,-438"/>
<polygon fill="#666666" stroke="#666666" points="59,-422 59,-422 73.5,-422 73.5,-422 59,-422"/>
<polygon fill="#666666" stroke="#666666" points="73.5,-422 73.5,-422 162.25,-422 162.25,-422 73.5,-422"/>
<polygon fill="none" stroke="#666666" points="59,-276 59,-468 162.25,-468 162.25,-276 59,-276"/>
</a>
</g>
</g>
<!-- Node3 -->
<g id="Node000003" class="node">
<title>Node3</title>
<g id="a_Node000003"><a xlink:href="class_fiea_1_1_engine_1_1_content_1_1_scope_writer.html" target="_top" xlink:title=" ">
<polygon fill="white" stroke="none" points="103.25,-232 0,-232 0,-8 103.25,-8 103.25,-232"/>
<text text-anchor="start" x="4" y="-218.5" font-family="Helvetica,sans-Serif" font-size="10.00">Fiea::Engine::Content</text>
<text text-anchor="start" x="22" y="-206.5" font-family="Helvetica,sans-Serif" font-size="10.00">::ScopeWriter</text>
<text text-anchor="start" x="50.12" y="-190.5" font-family="Helvetica,sans-Serif" font-size="10.00"> </text>
<text text-anchor="start" x="9" y="-174.5" font-family="Helvetica,sans-Serif" font-size="10.00">+</text>
<text text-anchor="start" x="24" y="-174.5" font-family="Helvetica,sans-Serif" font-size="10.00">ScopeWriter()</text>
<text text-anchor="start" x="9" y="-158.5" font-family="Helvetica,sans-Serif" font-size="10.00">+</text>
<text text-anchor="start" x="24" y="-158.5" font-family="Helvetica,sans-Serif" font-size="10.00">~ScopeWriter()</text>
<text text-anchor="start" x="9" y="-142.5" font-family="Helvetica,sans-Serif" font-size="10.00">+</text>
<text text-anchor="start" x="24" y="-142.5" font-family="Helvetica,sans-Serif" font-size="10.00">ScopeWriter()</text>
<text text-anchor="start" x="9" y="-126.5" font-family="Helvetica,sans-Serif" font-size="10.00">+</text>
<text text-anchor="start" x="24" y="-126.5" font-family="Helvetica,sans-Serif" font-size="10.00">ScopeWriter()</text>
<text text-anchor="start" x="9" y="-110.5" font-family="Helvetica,sans-Serif" font-size="10.00">+</text>
<text text-anchor="start" x="24" y="-110.5" font-family="Helvetica,sans-Serif" font-size="10.00">operator=()</text>
<text text-anchor="start" x="9" y="-94.5" font-family="Helvetica,sans-Serif" font-size="10.00">+</text>
<text text-anchor="start" x="24" y="-94.5" font-family="Helvetica,sans-Serif" font-size="10.00">operator=()</text>
<text text-anchor="start" x="9" y="-78.5" font-family="Helvetica,sans-Serif" font-size="10.00">+</text>
<text text-anchor="start" x="24" y="-78.5" font-family="Helvetica,sans-Serif" font-size="10.00">PushScope()</text>
<text text-anchor="start" x="9" y="-62.5" font-family="Helvetica,sans-Serif" font-size="10.00">+</text>
<text text-anchor="start" x="24" y="-62.5" font-family="Helvetica,sans-Serif" font-size="10.00">PushScope()</text>
<text text-anchor="start" x="9" y="-46.5" font-family="Helvetica,sans-Serif" font-size="10.00">+</text>
<text text-anchor="start" x="24" y="-46.5" font-family="Helvetica,sans-Serif" font-size="10.00">PushScope()</text>
<text text-anchor="start" x="9" y="-30.5" font-family="Helvetica,sans-Serif" font-size="10.00">+</text>
<text text-anchor="start" x="24" y="-30.5" font-family="Helvetica,sans-Serif" font-size="10.00">Append()</text>
<text text-anchor="start" x="24" y="-14.5" font-family="Helvetica,sans-Serif" font-size="10.00">and 7 more...</text>
<polygon fill="#666666" stroke="#666666" points="0,-202 0,-202 103.25,-202 103.25,-202 0,-202"/>
<polygon fill="#666666" stroke="#666666" points="0,-186 0,-186 103.25,-186 103.25,-186 0,-186"/>
<polygon fill="none" stroke="#666666" points="0,-8 0,-232 103.25,-232 103.25,-8 0,-8"/>
</a>
</g>
</g>
<!-- Node1&#45;&gt;Node3 -->
<g id="edge2_Node000001_Node000003" class="edge">
<title>Node1&#45;&gt;Node3</title>
<g id="a_edge2_Node000001_Node000003"><a xlink:title=" ">
<path fill="none" stroke="#63b8ff" d="M85.65,-265.16C83.04,-254.1 80.38,-242.84 77.76,-231.74"/>
<polygon fill="none" stroke="#63b8ff" points="82.18,-265.73 87.89,-274.66 89,-264.12 82.18,-265.73"/>
</a>
</g>
</g>
<!-- Node4 -->
<g id="Node000004" class="node">
<title>Node4</title>
<g id="a_Node000004"><a xlink:href="class_fiea_1_1_engine_1_1_tests_1_1_support_1_1_test_writer.html" target="_top" xlink:title=" ">
<polygon fill="white" stroke="none" points="219.62,-240 121.62,-240 121.62,0 219.62,0 219.62,-240"/>
<text text-anchor="start" x="125.62" y="-226.5" font-family="Helvetica,sans-Serif" font-size="10.00">Fiea::Engine::Tests</text>
<text text-anchor="start" x="125.62" y="-214.5" font-family="Helvetica,sans-Serif" font-size="10.00">::Support::TestWriter</text>
<text text-anchor="start" x="169.12" y="-198.5" font-family="Helvetica,sans-Serif" font-size="10.00"> </text>
<text text-anchor="start" x="129.88" y="-182.5" font-family="Helvetica,sans-Serif" font-size="10.00">+</text>
<text text-anchor="start" x="144.12" y="-182.5" font-family="Helvetica,sans-Serif" font-size="10.00">TestWriter()</text>
<text text-anchor="start" x="129.88" y="-166.5" font-family="Helvetica,sans-Serif" font-size="10.00">+</text>
<text text-anchor="start" x="144.12" y="-166.5" font-family="Helvetica,sans-Serif" font-size="10.00">TestWriter()</text>
<text text-anchor="start" x="129.88" y="-150.5" font-family="Helvetica,sans-Serif" font-size="10.00">+</text>
<text text-anchor="start" x="144.12" y="-150.5" font-family="Helvetica,sans-Serif" font-size="10.00">TestWriter()</text>
<text text-anchor="start" x="129.88" y="-134.5" font-family="Helvetica,sans-Serif" font-size="10.00">+</text>
<text text-anchor="start" x="144.12" y="-134.5" font-family="Helvetica,sans-Serif" font-size="10.00">operator=()</text>
<text text-anchor="start" x="129.88" y="-118.5" font-family="Helvetica,sans-Serif" font-size="10.00">+</text>
<text text-anchor="start" x="144.12" y="-118.5" font-family="Helvetica,sans-Serif" font-size="10.00">operator=()</text>
<text text-anchor="start" x="129.88" y="-102.5" font-family="Helvetica,sans-Serif" font-size="10.00">+</text>
<text text-anchor="start" x="144.12" y="-102.5" font-family="Helvetica,sans-Serif" font-size="10.00">~TestWriter()</text>
<text text-anchor="start" x="129.88" y="-86.5" font-family="Helvetica,sans-Serif" font-size="10.00">+</text>
<text text-anchor="start" x="144.12" y="-86.5" font-family="Helvetica,sans-Serif" font-size="10.00">RecordInt()</text>
<text text-anchor="start" x="129.88" y="-70.5" font-family="Helvetica,sans-Serif" font-size="10.00">+</text>
<text text-anchor="start" x="144.12" y="-70.5" font-family="Helvetica,sans-Serif" font-size="10.00">RecordFloat()</text>
<text text-anchor="start" x="129.88" y="-54.5" font-family="Helvetica,sans-Serif" font-size="10.00">+</text>
<text text-anchor="start" x="144.12" y="-54.5" font-family="Helvetica,sans-Serif" font-size="10.00">RecordString()</text>
<text text-anchor="start" x="129.88" y="-38.5" font-family="Helvetica,sans-Serif" font-size="10.00">+</text>
<text text-anchor="start" x="144.12" y="-38.5" font-family="Helvetica,sans-Serif" font-size="10.00">CountInts()</text>
<text text-anchor="start" x="129.88" y="-22.5" font-family="Helvetica,sans-Serif" font-size="10.00">+</text>
<text text-anchor="start" x="144.12" y="-22.5" font-family="Helvetica,sans-Serif" font-size="10.00">CountFloats()</text>
<text text-anchor="start" x="129.88" y="-6.5" font-family="Helvetica,sans-Serif" font-size="10.00">+</text>
<text text-anchor="start" x="144.12" y="-6.5" font-family="Helvetica,sans-Serif" font-size="10.00">CountStrings()</text>
<polygon fill="#666666" stroke="#666666" points="121.62,-210 121.62,-210 219.62,-210 219.62,-210 121.62,-210"/>
<polygon fill="#666666" stroke="#666666" points="121.62,-194 121.62,-194 219.62,-194 219.62,-194 121.62,-194"/>
<polygon fill="none" stroke="#666666" points="121.62,0 121.62,-240 219.62,-240 219.62,0 121.62,0"/>
</a>
</g>
</g>
<!-- Node1&#45;&gt;Node4 -->
<g id="edge3_Node000001_Node000004" class="edge">
<title>Node1&#45;&gt;Node4</title>
<g id="a_edge3_Node000001_Node000004"><a xlink:title=" ">
<path fill="none" stroke="#63b8ff" d="M136.02,-265.18C138.04,-256.78 140.08,-248.27 142.11,-239.8"/>
<polygon fill="none" stroke="#63b8ff" points="132.68,-264.12 133.75,-274.66 139.48,-265.75 132.68,-264.12"/>
</a>
</g>
</g>
<!-- Node2 -->
<g id="Node000002" class="node">
<title>Node2</title>
<g id="a_Node000002"><a xlink:href="class_fiea_1_1_engine_1_1_r_t_t_i.html" target="_top" xlink:title=" ">
<polygon fill="white" stroke="none" points="156,-732 65.25,-732 65.25,-504 156,-504 156,-732"/>
<text text-anchor="start" x="69.38" y="-718.5" font-family="Helvetica,sans-Serif" font-size="10.00">Fiea::Engine::RTTI</text>
<text text-anchor="start" x="109.12" y="-702.5" font-family="Helvetica,sans-Serif" font-size="10.00"> </text>
<text text-anchor="start" x="69.25" y="-686.5" font-family="Helvetica,sans-Serif" font-size="10.00">+</text>
<text text-anchor="start" x="79.25" y="-686.5" font-family="Helvetica,sans-Serif" font-size="10.00">RTTI()</text>
<text text-anchor="start" x="69.25" y="-670.5" font-family="Helvetica,sans-Serif" font-size="10.00">+</text>
<text text-anchor="start" x="79.25" y="-670.5" font-family="Helvetica,sans-Serif" font-size="10.00">RTTI()</text>
<text text-anchor="start" x="69.25" y="-654.5" font-family="Helvetica,sans-Serif" font-size="10.00">+</text>
<text text-anchor="start" x="79.25" y="-654.5" font-family="Helvetica,sans-Serif" font-size="10.00">operator=()</text>
<text text-anchor="start" x="69.25" y="-638.5" font-family="Helvetica,sans-Serif" font-size="10.00">+</text>
<text text-anchor="start" x="79.25" y="-638.5" font-family="Helvetica,sans-Serif" font-size="10.00">RTTI()</text>
<text text-anchor="start" x="69.25" y="-622.5" font-family="Helvetica,sans-Serif" font-size="10.00">+</text>
<text text-anchor="start" x="79.25" y="-622.5" font-family="Helvetica,sans-Serif" font-size="10.00">operator=()</text>
<text text-anchor="start" x="69.25" y="-606.5" font-family="Helvetica,sans-Serif" font-size="10.00">+</text>
<text text-anchor="start" x="79.25" y="-606.5" font-family="Helvetica,sans-Serif" font-size="10.00">~RTTI()</text>
<text text-anchor="start" x="69.25" y="-590.5" font-family="Helvetica,sans-Serif" font-size="10.00">+</text>
<text text-anchor="start" x="79.25" y="-590.5" font-family="Helvetica,sans-Serif" font-size="10.00">TypeIdInstance()</text>
<text text-anchor="start" x="69.25" y="-574.5" font-family="Helvetica,sans-Serif" font-size="10.00">+</text>
<text text-anchor="start" x="79.25" y="-574.5" font-family="Helvetica,sans-Serif" font-size="10.00">Is()</text>
<text text-anchor="start" x="69.25" y="-558.5" font-family="Helvetica,sans-Serif" font-size="10.00">+</text>
<text text-anchor="start" x="79.25" y="-558.5" font-family="Helvetica,sans-Serif" font-size="10.00">As()</text>
<text text-anchor="start" x="69.25" y="-542.5" font-family="Helvetica,sans-Serif" font-size="10.00">+</text>
<text text-anchor="start" x="79.25" y="-542.5" font-family="Helvetica,sans-Serif" font-size="10.00">As()</text>
<text text-anchor="start" x="69.25" y="-526.5" font-family="Helvetica,sans-Serif" font-size="10.00">+</text>
<text text-anchor="start" x="79.25" y="-526.5" font-family="Helvetica,sans-Serif" font-size="10.00">ToString()</text>
<text text-anchor="start" x="69.25" y="-510.5" font-family="Helvetica,sans-Serif" font-size="10.00">+</text>
<text text-anchor="start" x="79.25" y="-510.5" font-family="Helvetica,sans-Serif" font-size="10.00">Equals()</text>
<polygon fill="#666666" stroke="#666666" points="65.25,-714 65.25,-714 156,-714 156,-714 65.25,-714"/>
<polygon fill="#666666" stroke="#666666" points="65.25,-698 65.25,-698 156,-698 156,-698 65.25,-698"/>
<polygon fill="none" stroke="#666666" points="65.25,-504 65.25,-732 156,-732 156,-504 65.25,-504"/>
</a>
</g>
</g>
<!-- Node2&#45;&gt;Node1 -->
<g id="edge1_Node000001_Node000002" class="edge">
<title>Node2&#45;&gt;Node1</title>
<g id="a_edge1_Node000001_Node000002"><a xlink:title=" ">
<path fill="none" stroke="#63b8ff" d="M110.62,-492.79C110.62,-484.36 110.62,-475.94 110.62,-467.69"/>
<polygon fill="none" stroke="#63b8ff" points="107.13,-492.77 110.63,-502.77 114.13,-492.77 107.13,-492.77"/>
</a>
</g>
</g>
</g>
</svg>
