<?xml version="1.0" encoding="UTF-8" standalone="no"?>
<!DOCTYPE svg PUBLIC "-//W3C//DTD SVG 1.1//EN"
 "http://www.w3.org/Graphics/SVG/1.1/DTD/svg11.dtd">
<!-- Generated by graphviz version 12.2.1 (20241206.2353)
 -->
<!-- Title: Fiea::Engine::Content::Actions::Action::operator= Pages: 1 -->
<svg width="751pt" height="112pt"
 viewBox="0.00 0.00 751.00 112.00" xmlns="http://www.w3.org/2000/svg" xmlns:xlink="http://www.w3.org/1999/xlink">
<g id="graph0" class="graph" transform="scale(1 1) rotate(0) translate(4 108)">
<title>Fiea::Engine::Content::Actions::Action::operator=</title>
<!-- Node1 -->
<g id="Node000001" class="node">
<title>Node1</title>
<g id="a_Node000001"><a xlink:title=" ">
<polygon fill="#999999" stroke="#666666" points="136,-54 0,-54 0,-22 136,-22 136,-54"/>
<text text-anchor="start" x="8" y="-40.5" font-family="Helvetica,sans-Serif" font-size="10.00">Fiea::Engine::Content</text>
<text text-anchor="middle" x="68" y="-28.5" font-family="Helvetica,sans-Serif" font-size="10.00">::Actions::Action::operator=</text>
</a>
</g>
</g>
<!-- Node2 -->
<g id="Node000002" class="node">
<title>Node2</title>
<g id="a_Node000002"><a xlink:href="class_fiea_1_1_engine_1_1_content_1_1_attributed.html#ad00b7ac2fa53d92d617e235da1f83055" target="_top" xlink:title=" ">
<polygon fill="white" stroke="#666666" points="283.25,-54 172,-54 172,-22 283.25,-22 283.25,-54"/>
<text text-anchor="start" x="180" y="-40.5" font-family="Helvetica,sans-Serif" font-size="10.00">Fiea::Engine::Content</text>
<text text-anchor="middle" x="227.62" y="-28.5" font-family="Helvetica,sans-Serif" font-size="10.00">::Attributed::operator=</text>
</a>
</g>
</g>
<!-- Node1&#45;&gt;Node2 -->
<g id="edge1_Node000001_Node000002" class="edge">
<title>Node1&#45;&gt;Node2</title>
<g id="a_edge1_Node000001_Node000002"><a xlink:title=" ">
<path fill="none" stroke="#63b8ff" d="M136.3,-38C144.29,-38 152.43,-38 160.4,-38"/>
<polygon fill="#63b8ff" stroke="#63b8ff" points="160.39,-41.5 170.39,-38 160.39,-34.5 160.39,-41.5"/>
</a>
</g>
</g>
<!-- Node3 -->
<g id="Node000003" class="node">
<title>Node3</title>
<g id="a_Node000003"><a xlink:href="class_fiea_1_1_engine_1_1_content_1_1_scope.html#a0b373136d60bb5b269b7e52419e42991" target="_top" xlink:title="Copy Assignment.">
<polygon fill="white" stroke="#666666" points="430.5,-54 319.25,-54 319.25,-22 430.5,-22 430.5,-54"/>
<text text-anchor="start" x="327.25" y="-40.5" font-family="Helvetica,sans-Serif" font-size="10.00">Fiea::Engine::Content</text>
<text text-anchor="middle" x="374.88" y="-28.5" font-family="Helvetica,sans-Serif" font-size="10.00">::Scope::operator=</text>
</a>
</g>
</g>
<!-- Node2&#45;&gt;Node3 -->
<g id="edge2_Node000002_Node000003" class="edge">
<title>Node2&#45;&gt;Node3</title>
<g id="a_edge2_Node000002_Node000003"><a xlink:title=" ">
<path fill="none" stroke="#63b8ff" d="M283.54,-38C291.4,-38 299.56,-38 307.61,-38"/>
<polygon fill="#63b8ff" stroke="#63b8ff" points="307.37,-41.5 317.37,-38 307.37,-34.5 307.37,-41.5"/>
</a>
</g>
</g>
<!-- Node4 -->
<g id="Node000004" class="node">
<title>Node4</title>
<g id="a_Node000004"><a xlink:href="class_fiea_1_1_engine_1_1_content_1_1_scope.html#a9d741d7fb95ccb49ee35dd6d9f779f1e" target="_top" xlink:title=" ">
<polygon fill="white" stroke="#666666" points="578.88,-104 467.62,-104 467.62,-72 578.88,-72 578.88,-104"/>
<text text-anchor="start" x="475.62" y="-90.5" font-family="Helvetica,sans-Serif" font-size="10.00">Fiea::Engine::Content</text>
<text text-anchor="middle" x="523.25" y="-78.5" font-family="Helvetica,sans-Serif" font-size="10.00">::Scope::Clear</text>
</a>
</g>
</g>
<!-- Node3&#45;&gt;Node4 -->
<g id="edge3_Node000003_Node000004" class="edge">
<title>Node3&#45;&gt;Node4</title>
<g id="a_edge3_Node000003_Node000004"><a xlink:title=" ">
<path fill="none" stroke="#63b8ff" d="M423.8,-54.37C436.44,-58.69 450.22,-63.4 463.36,-67.89"/>
<polygon fill="#63b8ff" stroke="#63b8ff" points="462.19,-71.18 472.78,-71.1 464.45,-64.56 462.19,-71.18"/>
</a>
</g>
</g>
<!-- Node5 -->
<g id="Node000005" class="node">
<title>Node5</title>
<g id="a_Node000005"><a xlink:href="class_fiea_1_1_engine_1_1_content_1_1_scope.html#a853041a85e32e8b7de723fa3dd9a1d82" target="_top" xlink:title="Tells if this scope is present somewhere higher up in the scopes tree as a parent.">
<polygon fill="white" stroke="#666666" points="580,-54 466.5,-54 466.5,-22 580,-22 580,-54"/>
<text text-anchor="start" x="474.5" y="-40.5" font-family="Helvetica,sans-Serif" font-size="10.00">Fiea::Engine::Content</text>
<text text-anchor="middle" x="523.25" y="-28.5" font-family="Helvetica,sans-Serif" font-size="10.00">::Scope::IsAncestorOf</text>
</a>
</g>
</g>
<!-- Node3&#45;&gt;Node5 -->
<g id="edge4_Node000003_Node000005" class="edge">
<title>Node3&#45;&gt;Node5</title>
<g id="a_edge4_Node000003_Node000005"><a xlink:title=" ">
<path fill="none" stroke="#63b8ff" d="M430.8,-38C438.63,-38 446.75,-38 454.79,-38"/>
<polygon fill="#63b8ff" stroke="#63b8ff" points="454.53,-41.5 464.53,-38 454.53,-34.5 454.53,-41.5"/>
</a>
</g>
</g>
<!-- Node6 -->
<g id="Node000006" class="node">
<title>Node6</title>
<g id="a_Node000006"><a xlink:href="class_fiea_1_1_engine_1_1_content_1_1_scope.html#a8f7dfeddfe92368a8d160ed2b805640f" target="_top" xlink:title="Tell if this scope is present somewhere lower down in the scopes tree as a child.">
<polygon fill="white" stroke="#666666" points="743,-32 616,-32 616,0 743,0 743,-32"/>
<text text-anchor="start" x="624" y="-18.5" font-family="Helvetica,sans-Serif" font-size="10.00">Fiea::Engine::Content</text>
<text text-anchor="middle" x="679.5" y="-6.5" font-family="Helvetica,sans-Serif" font-size="10.00">::Scope::IsDescendentOf</text>
</a>
</g>
</g>
<!-- Node3&#45;&gt;Node6 -->
<g id="edge6_Node000003_Node000006" class="edge">
<title>Node3&#45;&gt;Node6</title>
<g id="a_edge6_Node000003_Node000006"><a xlink:title=" ">
<path fill="none" stroke="#63b8ff" d="M426.18,-21.54C439.17,-18.01 453.24,-14.8 466.5,-13 511.91,-6.85 563.3,-7.39 604.1,-9.57"/>
<polygon fill="#63b8ff" stroke="#63b8ff" points="603.89,-13.06 614.08,-10.15 604.3,-6.08 603.89,-13.06"/>
</a>
</g>
</g>
<!-- Node5&#45;&gt;Node6 -->
<g id="edge5_Node000005_Node000006" class="edge">
<title>Node5&#45;&gt;Node6</title>
<g id="a_edge5_Node000005_Node000006"><a xlink:title=" ">
<path fill="none" stroke="#63b8ff" d="M580.37,-30C588.16,-28.88 596.26,-27.73 604.31,-26.58"/>
<polygon fill="#63b8ff" stroke="#63b8ff" points="604.73,-30.06 614.13,-25.18 603.74,-23.13 604.73,-30.06"/>
</a>
</g>
</g>
</g>
</svg>
