<?xml version="1.0" encoding="UTF-8" standalone="no"?>
<!DOCTYPE svg PUBLIC "-//W3C//DTD SVG 1.1//EN"
 "http://www.w3.org/Graphics/SVG/1.1/DTD/svg11.dtd">
<!-- Generated by graphviz version 12.2.1 (20241206.2353)
 -->
<!-- Title: Fiea::Engine::Content::Actions::Action::GetStatus Pages: 1 -->
<svg width="345pt" height="574pt"
 viewBox="0.00 0.00 345.25 574.00" xmlns="http://www.w3.org/2000/svg" xmlns:xlink="http://www.w3.org/1999/xlink">
<g id="graph0" class="graph" transform="scale(1 1) rotate(0) translate(4 570)">
<title>Fiea::Engine::Content::Actions::Action::GetStatus</title>
<!-- Node1 -->
<g id="Node000001" class="node">
<title>Node1</title>
<g id="a_Node000001"><a xlink:title=" ">
<polygon fill="#999999" stroke="#666666" points="337.25,-317 198.25,-317 198.25,-285 337.25,-285 337.25,-317"/>
<text text-anchor="start" x="206.25" y="-303.5" font-family="Helvetica,sans-Serif" font-size="10.00">Fiea::Engine::Content</text>
<text text-anchor="middle" x="267.75" y="-291.5" font-family="Helvetica,sans-Serif" font-size="10.00">::Actions::Action::GetStatus</text>
</a>
</g>
</g>
<!-- Node2 -->
<g id="Node000002" class="node">
<title>Node2</title>
<g id="a_Node000002"><a xlink:href="class_fiea_1_1_engine_1_1_content_1_1_actions_1_1_action_list.html#a61d6676694ddead07acc69a9dea0da24" target="_top" xlink:title="Init is called as the action is starting, Usually we put all the code that needs to run once....">
<polygon fill="white" stroke="#666666" points="143.12,-566 19.12,-566 19.12,-534 143.12,-534 143.12,-566"/>
<text text-anchor="start" x="27.12" y="-552.5" font-family="Helvetica,sans-Serif" font-size="10.00">Fiea::Engine::Content</text>
<text text-anchor="middle" x="81.12" y="-540.5" font-family="Helvetica,sans-Serif" font-size="10.00">::Actions::ActionList::Init</text>
</a>
</g>
</g>
<!-- Node1&#45;&gt;Node2 -->
<g id="edge1_Node000001_Node000002" class="edge">
<title>Node1&#45;&gt;Node2</title>
<g id="a_edge1_Node000001_Node000002"><a xlink:title=" ">
<path fill="none" stroke="#63b8ff" d="M261.5,-328.34C251.05,-375.39 223.18,-471.74 162.25,-525 156.76,-529.8 150.37,-533.67 143.62,-536.8"/>
<polygon fill="#63b8ff" stroke="#63b8ff" points="264.89,-329.22 263.53,-318.72 258.04,-327.78 264.89,-329.22"/>
</a>
</g>
</g>
<!-- Node3 -->
<g id="Node000003" class="node">
<title>Node3</title>
<g id="a_Node000003"><a xlink:href="class_fiea_1_1_engine_1_1_content_1_1_actions_1_1_while_action_list.html#a972d59921793e006691ec0c2f0f32a87" target="_top" xlink:title="Initial setup if any for the action.">
<polygon fill="white" stroke="#666666" points="155.5,-516 6.75,-516 6.75,-484 155.5,-484 155.5,-516"/>
<text text-anchor="start" x="14.75" y="-502.5" font-family="Helvetica,sans-Serif" font-size="10.00">Fiea::Engine::Content</text>
<text text-anchor="middle" x="81.12" y="-490.5" font-family="Helvetica,sans-Serif" font-size="10.00">::Actions::WhileActionList::Init</text>
</a>
</g>
</g>
<!-- Node1&#45;&gt;Node3 -->
<g id="edge2_Node000001_Node000003" class="edge">
<title>Node1&#45;&gt;Node3</title>
<g id="a_edge2_Node000001_Node000003"><a xlink:title=" ">
<path fill="none" stroke="#63b8ff" d="M257.53,-328.19C243.17,-366.49 211.83,-436.02 162.25,-475 158.13,-478.24 153.58,-481.07 148.8,-483.53"/>
<polygon fill="#63b8ff" stroke="#63b8ff" points="260.82,-329.39 260.93,-318.79 254.24,-327 260.82,-329.39"/>
</a>
</g>
</g>
<!-- Node4 -->
<g id="Node000004" class="node">
<title>Node4</title>
<g id="a_Node000004"><a xlink:href="class_fiea_1_1_engine_1_1_content_1_1_actions_1_1_while_action_list.html#a87d627d5c0691325cb255ad15934e5d8" target="_top" xlink:title="The logic that needs to run repetitively.">
<polygon fill="white" stroke="#666666" points="157.75,-466 4.5,-466 4.5,-434 157.75,-434 157.75,-466"/>
<text text-anchor="start" x="12.5" y="-452.5" font-family="Helvetica,sans-Serif" font-size="10.00">Fiea::Engine::Content</text>
<text text-anchor="middle" x="81.12" y="-440.5" font-family="Helvetica,sans-Serif" font-size="10.00">::Actions::WhileActionList::Run</text>
</a>
</g>
</g>
<!-- Node1&#45;&gt;Node4 -->
<g id="edge3_Node000001_Node000004" class="edge">
<title>Node1&#45;&gt;Node4</title>
<g id="a_edge3_Node000001_Node000004"><a xlink:title=" ">
<path fill="none" stroke="#63b8ff" d="M251.4,-326.79C233.42,-354.86 201.09,-399.19 162.25,-425 157.4,-428.23 152.1,-431.05 146.62,-433.53"/>
<polygon fill="#63b8ff" stroke="#63b8ff" points="254.23,-328.86 256.56,-318.53 248.3,-325.15 254.23,-328.86"/>
</a>
</g>
</g>
<!-- Node5 -->
<g id="Node000005" class="node">
<title>Node5</title>
<g id="a_Node000005"><a xlink:href="class_fiea_1_1_engine_1_1_content_1_1_actions_1_1_action_list.html#a194a9cc57f5cd3e87cf955e83250d2d1" target="_top" xlink:title=" ">
<polygon fill="white" stroke="#666666" points="136.75,-416 25.5,-416 25.5,-372 136.75,-372 136.75,-416"/>
<text text-anchor="start" x="33.5" y="-402.5" font-family="Helvetica,sans-Serif" font-size="10.00">Fiea::Engine::Content</text>
<text text-anchor="start" x="33.5" y="-390.5" font-family="Helvetica,sans-Serif" font-size="10.00">::Actions::ActionList</text>
<text text-anchor="middle" x="81.12" y="-378.5" font-family="Helvetica,sans-Serif" font-size="10.00">::~ActionList</text>
</a>
</g>
</g>
<!-- Node1&#45;&gt;Node5 -->
<g id="edge4_Node000001_Node000005" class="edge">
<title>Node1&#45;&gt;Node5</title>
<g id="a_edge4_Node000001_Node000005"><a xlink:title=" ">
<path fill="none" stroke="#63b8ff" d="M232.46,-323.31C212.44,-335.83 186.43,-351.25 162.25,-363 154.2,-366.91 145.52,-370.69 136.95,-374.19"/>
<polygon fill="#63b8ff" stroke="#63b8ff" points="234.2,-326.35 240.78,-318.05 230.46,-320.43 234.2,-326.35"/>
</a>
</g>
</g>
<!-- Node6 -->
<g id="Node000006" class="node">
<title>Node6</title>
<g id="a_Node000006"><a xlink:href="class_fiea_1_1_engine_1_1_content_1_1_actions_1_1_delayed_action.html#a06cefe7602d12a5dd2b9d70d992b0927" target="_top" xlink:title=" ">
<polygon fill="white" stroke="#666666" points="143.5,-354 18.75,-354 18.75,-310 143.5,-310 143.5,-354"/>
<text text-anchor="start" x="26.75" y="-340.5" font-family="Helvetica,sans-Serif" font-size="10.00">Fiea::Engine::Content</text>
<text text-anchor="start" x="26.75" y="-328.5" font-family="Helvetica,sans-Serif" font-size="10.00">::Actions::DelayedAction</text>
<text text-anchor="middle" x="81.12" y="-316.5" font-family="Helvetica,sans-Serif" font-size="10.00">::~DelayedAction</text>
</a>
</g>
</g>
<!-- Node1&#45;&gt;Node6 -->
<g id="edge5_Node000001_Node000006" class="edge">
<title>Node1&#45;&gt;Node6</title>
<g id="a_edge5_Node000001_Node000006"><a xlink:title=" ">
<path fill="none" stroke="#63b8ff" d="M187.06,-314.38C172.62,-316.8 157.76,-319.3 143.93,-321.62"/>
<polygon fill="#63b8ff" stroke="#63b8ff" points="187.23,-317.9 196.51,-312.79 186.07,-311 187.23,-317.9"/>
</a>
</g>
</g>
<!-- Node7 -->
<g id="Node000007" class="node">
<title>Node7</title>
<g id="a_Node000007"><a xlink:href="class_fiea_1_1_engine_1_1_content_1_1_actions_1_1_increment_action.html#ac4c8b91d03ceb4b3dd44e720250266f1" target="_top" xlink:title=" ">
<polygon fill="white" stroke="#666666" points="147.25,-292 15,-292 15,-248 147.25,-248 147.25,-292"/>
<text text-anchor="start" x="23" y="-278.5" font-family="Helvetica,sans-Serif" font-size="10.00">Fiea::Engine::Content</text>
<text text-anchor="start" x="23" y="-266.5" font-family="Helvetica,sans-Serif" font-size="10.00">::Actions::IncrementAction</text>
<text text-anchor="middle" x="81.12" y="-254.5" font-family="Helvetica,sans-Serif" font-size="10.00">::~IncrementAction</text>
</a>
</g>
</g>
<!-- Node1&#45;&gt;Node7 -->
<g id="edge6_Node000001_Node000007" class="edge">
<title>Node1&#45;&gt;Node7</title>
<g id="a_edge6_Node000001_Node000007"><a xlink:title=" ">
<path fill="none" stroke="#63b8ff" d="M187.04,-287.62C173.86,-285.4 160.34,-283.13 147.56,-280.99"/>
<polygon fill="#63b8ff" stroke="#63b8ff" points="186.07,-291 196.51,-289.21 187.23,-284.1 186.07,-291"/>
</a>
</g>
</g>
<!-- Node8 -->
<g id="Node000008" class="node">
<title>Node8</title>
<g id="a_Node000008"><a xlink:href="class_fiea_1_1_engine_1_1_content_1_1_actions_1_1_integer_conditional_action.html#a12652fd946c255b8deb2cedbfabddb48" target="_top" xlink:title=" ">
<polygon fill="white" stroke="#666666" points="162.25,-230 0,-230 0,-186 162.25,-186 162.25,-230"/>
<text text-anchor="start" x="8" y="-216.5" font-family="Helvetica,sans-Serif" font-size="10.00">Fiea::Engine::Content</text>
<text text-anchor="start" x="8" y="-204.5" font-family="Helvetica,sans-Serif" font-size="10.00">::Actions::IntegerConditional</text>
<text text-anchor="middle" x="81.12" y="-192.5" font-family="Helvetica,sans-Serif" font-size="10.00">Action::~IntegerConditionalAction</text>
</a>
</g>
</g>
<!-- Node1&#45;&gt;Node8 -->
<g id="edge7_Node000001_Node000008" class="edge">
<title>Node1&#45;&gt;Node8</title>
<g id="a_edge7_Node000001_Node000008"><a xlink:title=" ">
<path fill="none" stroke="#63b8ff" d="M232.46,-278.69C212.44,-266.17 186.43,-250.75 162.25,-239 156.21,-236.07 149.82,-233.21 143.39,-230.48"/>
<polygon fill="#63b8ff" stroke="#63b8ff" points="230.46,-281.57 240.78,-283.95 234.2,-275.65 230.46,-281.57"/>
</a>
</g>
</g>
<!-- Node9 -->
<g id="Node000009" class="node">
<title>Node9</title>
<g id="a_Node000009"><a xlink:href="class_fiea_1_1_engine_1_1_content_1_1_actions_1_1_preamble_action.html#a9e98fc22191312ddf342fd637c0140f4" target="_top" xlink:title=" ">
<polygon fill="white" stroke="#666666" points="146.12,-168 16.12,-168 16.12,-124 146.12,-124 146.12,-168"/>
<text text-anchor="start" x="24.12" y="-154.5" font-family="Helvetica,sans-Serif" font-size="10.00">Fiea::Engine::Content</text>
<text text-anchor="start" x="24.12" y="-142.5" font-family="Helvetica,sans-Serif" font-size="10.00">::Actions::PreambleAction</text>
<text text-anchor="middle" x="81.12" y="-130.5" font-family="Helvetica,sans-Serif" font-size="10.00">::~PreambleAction</text>
</a>
</g>
</g>
<!-- Node1&#45;&gt;Node9 -->
<g id="edge8_Node000001_Node000009" class="edge">
<title>Node1&#45;&gt;Node9</title>
<g id="a_edge8_Node000001_Node000009"><a xlink:title=" ">
<path fill="none" stroke="#63b8ff" d="M250.78,-275.25C232.45,-247.57 200.01,-203.95 162.25,-177 157.39,-173.53 152.1,-170.39 146.62,-167.56"/>
<polygon fill="#63b8ff" stroke="#63b8ff" points="247.68,-276.9 256.05,-283.39 253.55,-273.09 247.68,-276.9"/>
</a>
</g>
</g>
<!-- Node10 -->
<g id="Node000010" class="node">
<title>Node10</title>
<g id="a_Node000010"><a xlink:href="class_fiea_1_1_engine_1_1_content_1_1_actions_1_1_timed_action.html#a9c497f73dbff459771a1c12f7cc1013b" target="_top" xlink:title=" ">
<polygon fill="white" stroke="#666666" points="139,-106 23.25,-106 23.25,-62 139,-62 139,-106"/>
<text text-anchor="start" x="31.25" y="-92.5" font-family="Helvetica,sans-Serif" font-size="10.00">Fiea::Engine::Content</text>
<text text-anchor="start" x="31.25" y="-80.5" font-family="Helvetica,sans-Serif" font-size="10.00">::Actions::TimedAction</text>
<text text-anchor="middle" x="81.12" y="-68.5" font-family="Helvetica,sans-Serif" font-size="10.00">::~TimedAction</text>
</a>
</g>
</g>
<!-- Node1&#45;&gt;Node10 -->
<g id="edge9_Node000001_Node000010" class="edge">
<title>Node1&#45;&gt;Node10</title>
<g id="a_edge9_Node000001_Node000010"><a xlink:title=" ">
<path fill="none" stroke="#63b8ff" d="M258.17,-273.85C244.22,-233.81 212.95,-158.93 162.25,-115 155.49,-109.14 147.49,-104.32 139.22,-100.38"/>
<polygon fill="#63b8ff" stroke="#63b8ff" points="254.81,-274.83 261.32,-283.19 261.44,-272.59 254.81,-274.83"/>
</a>
</g>
</g>
<!-- Node11 -->
<g id="Node000011" class="node">
<title>Node11</title>
<g id="a_Node000011"><a xlink:href="class_fiea_1_1_engine_1_1_content_1_1_actions_1_1_while_action_list.html#ae6a29c67169df88e74842651cacf989e" target="_top" xlink:title="Destructor. It checks if the action has finished properly, if not it calls cleanup....">
<polygon fill="white" stroke="#666666" points="145.75,-44 16.5,-44 16.5,0 145.75,0 145.75,-44"/>
<text text-anchor="start" x="24.5" y="-30.5" font-family="Helvetica,sans-Serif" font-size="10.00">Fiea::Engine::Content</text>
<text text-anchor="start" x="24.5" y="-18.5" font-family="Helvetica,sans-Serif" font-size="10.00">::Actions::WhileActionList</text>
<text text-anchor="middle" x="81.12" y="-6.5" font-family="Helvetica,sans-Serif" font-size="10.00">::~WhileActionList</text>
</a>
</g>
</g>
<!-- Node1&#45;&gt;Node11 -->
<g id="edge10_Node000001_Node000011" class="edge">
<title>Node1&#45;&gt;Node11</title>
<g id="a_edge10_Node000001_Node000011"><a xlink:title=" ">
<path fill="none" stroke="#63b8ff" d="M262.38,-273.36C253,-222.88 226.36,-115.24 162.25,-53 157.43,-48.32 151.84,-44.34 145.88,-40.94"/>
<polygon fill="#63b8ff" stroke="#63b8ff" points="258.92,-273.89 264.1,-283.13 265.81,-272.68 258.92,-273.89"/>
</a>
</g>
</g>
</g>
</svg>
