<?xml version="1.0" encoding="UTF-8" standalone="no"?>
<!DOCTYPE svg PUBLIC "-//W3C//DTD SVG 1.1//EN"
 "http://www.w3.org/Graphics/SVG/1.1/DTD/svg11.dtd">
<!-- Generated by graphviz version 12.2.1 (20241206.2353)
 -->
<!-- Title: Fiea::Engine::Content::Scope::Append Pages: 1 -->
<svg width="653pt" height="530pt"
 viewBox="0.00 0.00 653.25 530.00" xmlns="http://www.w3.org/2000/svg" xmlns:xlink="http://www.w3.org/1999/xlink">
<g id="graph0" class="graph" transform="scale(1 1) rotate(0) translate(4 526)">
<title>Fiea::Engine::Content::Scope::Append</title>
<!-- Node1 -->
<g id="Node000001" class="node">
<title>Node1</title>
<g id="a_Node000001"><a xlink:title="Return a reference to the Datum at this key. create a new Datum, if one is not found.">
<polygon fill="#999999" stroke="#666666" points="645.25,-188 534,-188 534,-156 645.25,-156 645.25,-188"/>
<text text-anchor="start" x="542" y="-174.5" font-family="Helvetica,sans-Serif" font-size="10.00">Fiea::Engine::Content</text>
<text text-anchor="middle" x="589.62" y="-162.5" font-family="Helvetica,sans-Serif" font-size="10.00">::Scope::Append</text>
</a>
</g>
</g>
<!-- Node2 -->
<g id="Node000002" class="node">
<title>Node2</title>
<g id="a_Node000002"><a xlink:href="class_fiea_1_1_engine_1_1_content_1_1_scope.html#abf39accc1ce38b12bcbc6884ba0165e3" target="_top" xlink:title="You can provide a child scope that you wish this scope to adopt. You should not adopt a scope if it a...">
<polygon fill="white" stroke="#666666" points="475.88,-428 364.62,-428 364.62,-396 475.88,-396 475.88,-428"/>
<text text-anchor="start" x="372.62" y="-414.5" font-family="Helvetica,sans-Serif" font-size="10.00">Fiea::Engine::Content</text>
<text text-anchor="middle" x="420.25" y="-402.5" font-family="Helvetica,sans-Serif" font-size="10.00">::Scope::Adopt</text>
</a>
</g>
</g>
<!-- Node1&#45;&gt;Node2 -->
<g id="edge1_Node000001_Node000002" class="edge">
<title>Node1&#45;&gt;Node2</title>
<g id="a_edge1_Node000001_Node000002"><a xlink:title=" ">
<path fill="none" stroke="#63b8ff" d="M576.31,-198.58C560.45,-231.59 530.95,-288.91 498,-333 480.37,-356.59 456.18,-380.39 439.7,-395.6"/>
<polygon fill="#63b8ff" stroke="#63b8ff" points="579.38,-200.28 580.51,-189.74 573.06,-197.28 579.38,-200.28"/>
</a>
</g>
</g>
<!-- Node7 -->
<g id="Node000007" class="node">
<title>Node7</title>
<g id="a_Node000007"><a xlink:href="class_fiea_1_1_engine_1_1_content_1_1_scope_writer.html#adb1089ed0ff92fae8826810cef43e447" target="_top" xlink:title=" ">
<polygon fill="white" stroke="#666666" points="302.75,-381 171.25,-381 171.25,-349 302.75,-349 302.75,-381"/>
<text text-anchor="start" x="179.25" y="-367.5" font-family="Helvetica,sans-Serif" font-size="10.00">Fiea::Engine::Content</text>
<text text-anchor="middle" x="237" y="-355.5" font-family="Helvetica,sans-Serif" font-size="10.00">::ScopeWriter::PushScope</text>
</a>
</g>
</g>
<!-- Node1&#45;&gt;Node7 -->
<g id="edge22_Node000001_Node000007" class="edge">
<title>Node1&#45;&gt;Node7</title>
<g id="a_edge22_Node000001_Node000007"><a xlink:title=" ">
<path fill="none" stroke="#63b8ff" d="M565.57,-196.22C548.17,-213.57 523.06,-236.65 498,-253 431.1,-296.63 344.37,-330 289.94,-348.55"/>
<polygon fill="#63b8ff" stroke="#63b8ff" points="567.87,-198.87 572.4,-189.3 562.89,-193.96 567.87,-198.87"/>
</a>
</g>
</g>
<!-- Node12 -->
<g id="Node000012" class="node">
<title>Node12</title>
<g id="a_Node000012"><a xlink:href="class_fiea_1_1_engine_1_1_content_1_1_scope_writer.html#a2ed39f31d26f92f8d74c13b4fc466f77" target="_top" xlink:title="This function should be called for ading string, float or ints into the Scope. Any other data type wo...">
<polygon fill="white" stroke="#666666" points="477.38,-244 363.12,-244 363.12,-212 477.38,-212 477.38,-244"/>
<text text-anchor="start" x="371.12" y="-230.5" font-family="Helvetica,sans-Serif" font-size="10.00">Fiea::Engine::Content</text>
<text text-anchor="middle" x="420.25" y="-218.5" font-family="Helvetica,sans-Serif" font-size="10.00">::ScopeWriter::Append</text>
</a>
</g>
</g>
<!-- Node1&#45;&gt;Node12 -->
<g id="edge12_Node000001_Node000012" class="edge">
<title>Node1&#45;&gt;Node12</title>
<g id="a_edge12_Node000001_Node000012"><a xlink:title=" ">
<path fill="none" stroke="#63b8ff" d="M530.53,-192.01C519.73,-195.7 508.53,-199.48 498,-203 489.63,-205.8 480.73,-208.73 472.06,-211.56"/>
<polygon fill="#63b8ff" stroke="#63b8ff" points="531.4,-195.41 539.73,-188.87 529.14,-188.79 531.4,-195.41"/>
</a>
</g>
</g>
<!-- Node18 -->
<g id="Node000018" class="node">
<title>Node18</title>
<g id="a_Node000018"><a xlink:href="class_fiea_1_1_engine_1_1_content_1_1_attributed.html#a34651717762643ed0dc822db143f7a46" target="_top" xlink:title="Append instance attribute from code.">
<polygon fill="white" stroke="#666666" points="490.5,-194 350,-194 350,-150 490.5,-150 490.5,-194"/>
<text text-anchor="start" x="358" y="-180.5" font-family="Helvetica,sans-Serif" font-size="10.00">Fiea::Engine::Content</text>
<text text-anchor="start" x="358" y="-168.5" font-family="Helvetica,sans-Serif" font-size="10.00">::Attributed::AppendInstance</text>
<text text-anchor="middle" x="420.25" y="-156.5" font-family="Helvetica,sans-Serif" font-size="10.00">Attribute</text>
</a>
</g>
</g>
<!-- Node1&#45;&gt;Node18 -->
<g id="edge18_Node000001_Node000018" class="edge">
<title>Node1&#45;&gt;Node18</title>
<g id="a_edge18_Node000001_Node000018"><a xlink:title=" ">
<path fill="none" stroke="#63b8ff" d="M522.33,-172C511.98,-172 501.26,-172 490.84,-172"/>
<polygon fill="#63b8ff" stroke="#63b8ff" points="522.31,-175.5 532.31,-172 522.31,-168.5 522.31,-175.5"/>
</a>
</g>
</g>
<!-- Node20 -->
<g id="Node000020" class="node">
<title>Node20</title>
<g id="a_Node000020"><a xlink:href="class_fiea_1_1_engine_1_1_tests_1_1_support_1_1_action_add_datum.html#a8038baa36384ba9702596cbe3e41780e" target="_top" xlink:title=" ">
<polygon fill="white" stroke="#666666" points="498,-132 342.5,-132 342.5,-100 498,-100 498,-132"/>
<text text-anchor="start" x="350.5" y="-118.5" font-family="Helvetica,sans-Serif" font-size="10.00">Fiea::Engine::Tests</text>
<text text-anchor="middle" x="420.25" y="-106.5" font-family="Helvetica,sans-Serif" font-size="10.00">::Support::ActionAddDatum::Init</text>
</a>
</g>
</g>
<!-- Node1&#45;&gt;Node20 -->
<g id="edge20_Node000001_Node000020" class="edge">
<title>Node1&#45;&gt;Node20</title>
<g id="a_edge20_Node000001_Node000020"><a xlink:title=" ">
<path fill="none" stroke="#63b8ff" d="M530.53,-151.99C519.73,-148.3 508.53,-144.52 498,-141 489.63,-138.2 480.73,-135.27 472.06,-132.44"/>
<polygon fill="#63b8ff" stroke="#63b8ff" points="529.14,-155.21 539.73,-155.13 531.4,-148.59 529.14,-155.21"/>
</a>
</g>
</g>
<!-- Node21 -->
<g id="Node000021" class="node">
<title>Node21</title>
<g id="a_Node000021"><a xlink:href="class_fiea_1_1_engine_1_1_content_1_1_scope.html#a6a471c05f99de3bd969e99c23704d39b" target="_top" xlink:title="Syntactic sugar to wrap Append.">
<polygon fill="white" stroke="#666666" points="475.88,-82 364.62,-82 364.62,-50 475.88,-50 475.88,-82"/>
<text text-anchor="start" x="372.62" y="-68.5" font-family="Helvetica,sans-Serif" font-size="10.00">Fiea::Engine::Content</text>
<text text-anchor="middle" x="420.25" y="-56.5" font-family="Helvetica,sans-Serif" font-size="10.00">::Scope::operator[]</text>
</a>
</g>
</g>
<!-- Node1&#45;&gt;Node21 -->
<g id="edge21_Node000001_Node000021" class="edge">
<title>Node1&#45;&gt;Node21</title>
<g id="a_edge21_Node000001_Node000021"><a xlink:title=" ">
<path fill="none" stroke="#63b8ff" d="M566.71,-147.58C549.55,-129.73 524.25,-106.1 498,-91 491.2,-87.09 483.7,-83.69 476.13,-80.77"/>
<polygon fill="#63b8ff" stroke="#63b8ff" points="564.02,-149.82 573.42,-154.71 569.12,-145.02 564.02,-149.82"/>
</a>
</g>
</g>
<!-- Node22 -->
<g id="Node000022" class="node">
<title>Node22</title>
<g id="a_Node000022"><a xlink:href="namespace_fiea_1_1_engine_1_1_tests.html#a0767a5dea6dd506e0dca7a9f54bd5ad2" target="_top" xlink:title=" ">
<polygon fill="white" stroke="#666666" points="470.62,-32 369.88,-32 369.88,0 470.62,0 470.62,-32"/>
<text text-anchor="start" x="377.88" y="-18.5" font-family="Helvetica,sans-Serif" font-size="10.00">Fiea::Engine::Tests</text>
<text text-anchor="middle" x="420.25" y="-6.5" font-family="Helvetica,sans-Serif" font-size="10.00">::TEST_CLASS</text>
</a>
</g>
</g>
<!-- Node1&#45;&gt;Node22 -->
<g id="edge23_Node000001_Node000022" class="edge">
<title>Node1&#45;&gt;Node22</title>
<g id="a_edge23_Node000001_Node000022"><a xlink:title=" ">
<path fill="none" stroke="#63b8ff" d="M576.73,-145.36C562.22,-115.76 534.97,-68.54 498,-41 490.02,-35.06 480.56,-30.49 471.06,-26.99"/>
<polygon fill="#63b8ff" stroke="#63b8ff" points="573.57,-146.85 581.02,-154.39 579.89,-143.85 573.57,-146.85"/>
</a>
</g>
</g>
<!-- Node3 -->
<g id="Node000003" class="node">
<title>Node3</title>
<g id="a_Node000003"><a xlink:href="class_fiea_1_1_engine_1_1_game_object.html#a86ede0bbc21133ffa8f398b0636c8b52" target="_top" xlink:title=" ">
<polygon fill="white" stroke="#666666" points="302.75,-522 171.25,-522 171.25,-490 302.75,-490 302.75,-522"/>
<text text-anchor="start" x="179.25" y="-508.5" font-family="Helvetica,sans-Serif" font-size="10.00">Fiea::Engine::GameObject</text>
<text text-anchor="middle" x="237" y="-496.5" font-family="Helvetica,sans-Serif" font-size="10.00">::AddAction</text>
</a>
</g>
</g>
<!-- Node2&#45;&gt;Node3 -->
<g id="edge2_Node000002_Node000003" class="edge">
<title>Node2&#45;&gt;Node3</title>
<g id="a_edge2_Node000002_Node000003"><a xlink:title=" ">
<path fill="none" stroke="#63b8ff" d="M386.33,-434.56C364.36,-449.01 334.46,-467.51 306.5,-481 300.23,-484.03 293.49,-486.91 286.78,-489.56"/>
<polygon fill="#63b8ff" stroke="#63b8ff" points="388.19,-437.53 394.58,-429.08 384.31,-431.7 388.19,-437.53"/>
</a>
</g>
</g>
<!-- Node4 -->
<g id="Node000004" class="node">
<title>Node4</title>
<g id="a_Node000004"><a xlink:href="class_fiea_1_1_engine_1_1_content_1_1_scope.html#a002f54731a8996f37c4f725d8175ffee" target="_top" xlink:title="This is one of the ways of adding a scope as a child to &#39;this&#39; scope Appending a scope also implies t...">
<polygon fill="white" stroke="#666666" points="295.25,-472 178.75,-472 178.75,-440 295.25,-440 295.25,-472"/>
<text text-anchor="start" x="186.75" y="-458.5" font-family="Helvetica,sans-Serif" font-size="10.00">Fiea::Engine::Content</text>
<text text-anchor="middle" x="237" y="-446.5" font-family="Helvetica,sans-Serif" font-size="10.00">::Scope::AppendScope</text>
</a>
</g>
</g>
<!-- Node2&#45;&gt;Node4 -->
<g id="edge3_Node000002_Node000004" class="edge">
<title>Node2&#45;&gt;Node4</title>
<g id="a_edge3_Node000002_Node000004"><a xlink:title=" ">
<path fill="none" stroke="#63b8ff" d="M353.42,-427.98C334.46,-432.58 313.93,-437.57 295.51,-442.04"/>
<polygon fill="#63b8ff" stroke="#63b8ff" points="354.01,-431.44 362.91,-425.68 352.36,-424.64 354.01,-431.44"/>
</a>
</g>
</g>
<!-- Node6 -->
<g id="Node000006" class="node">
<title>Node6</title>
<g id="a_Node000006"><a xlink:href="class_fiea_1_1_engine_1_1_content_1_1_scope_writer.html#a4488fbd92e0706a1207e15a40dac7e22" target="_top" xlink:title=" ">
<polygon fill="white" stroke="#666666" points="131.5,-431 0,-431 0,-399 131.5,-399 131.5,-431"/>
<text text-anchor="start" x="8" y="-417.5" font-family="Helvetica,sans-Serif" font-size="10.00">Fiea::Engine::Content</text>
<text text-anchor="middle" x="65.75" y="-405.5" font-family="Helvetica,sans-Serif" font-size="10.00">::ScopeWriter::PushScope</text>
</a>
</g>
</g>
<!-- Node2&#45;&gt;Node6 -->
<g id="edge5_Node000002_Node000006" class="edge">
<title>Node2&#45;&gt;Node6</title>
<g id="a_edge5_Node000002_Node000006"><a xlink:title=" ">
<path fill="none" stroke="#63b8ff" d="M352.73,-412.57C289.43,-413.1 194.77,-413.91 131.92,-414.45"/>
<polygon fill="#63b8ff" stroke="#63b8ff" points="352.69,-416.07 362.66,-412.48 352.63,-409.07 352.69,-416.07"/>
</a>
</g>
</g>
<!-- Node2&#45;&gt;Node7 -->
<g id="edge6_Node000002_Node000007" class="edge">
<title>Node2&#45;&gt;Node7</title>
<g id="a_edge6_Node000002_Node000007"><a xlink:title=" ">
<path fill="none" stroke="#63b8ff" d="M353.47,-394.94C336.56,-390.56 318.39,-385.85 301.59,-381.49"/>
<polygon fill="#63b8ff" stroke="#63b8ff" points="352.35,-398.27 362.91,-397.39 354.11,-391.49 352.35,-398.27"/>
</a>
</g>
</g>
<!-- Node5 -->
<g id="Node000005" class="node">
<title>Node5</title>
<g id="a_Node000005"><a xlink:href="class_fiea_1_1_engine_1_1_content_1_1_scope_writer.html#ae61df0a4225d06e413fbfda3028f8547" target="_top" xlink:title="This creates a new Scope, makes it a child of the current top scope in the stack and pushes it into t...">
<polygon fill="white" stroke="#666666" points="131.5,-481 0,-481 0,-449 131.5,-449 131.5,-481"/>
<text text-anchor="start" x="8" y="-467.5" font-family="Helvetica,sans-Serif" font-size="10.00">Fiea::Engine::Content</text>
<text text-anchor="middle" x="65.75" y="-455.5" font-family="Helvetica,sans-Serif" font-size="10.00">::ScopeWriter::PushScope</text>
</a>
</g>
</g>
<!-- Node4&#45;&gt;Node5 -->
<g id="edge4_Node000004_Node000005" class="edge">
<title>Node4&#45;&gt;Node5</title>
<g id="a_edge4_Node000004_Node000005"><a xlink:title=" ">
<path fill="none" stroke="#63b8ff" d="M167.56,-459.64C155.78,-460.27 143.56,-460.92 131.86,-461.54"/>
<polygon fill="#63b8ff" stroke="#63b8ff" points="167.39,-463.15 177.19,-459.13 167.02,-456.16 167.39,-463.15"/>
</a>
</g>
</g>
<!-- Node7&#45;&gt;Node6 -->
<g id="edge11_Node000007_Node000006" class="edge">
<title>Node7&#45;&gt;Node6</title>
<g id="a_edge11_Node000007_Node000006"><a xlink:title=" ">
<path fill="none" stroke="#63b8ff" d="M169.92,-384.52C154.27,-389.15 137.73,-394.03 122.58,-398.51"/>
<polygon fill="#63b8ff" stroke="#63b8ff" points="170.53,-387.99 179.13,-381.8 168.55,-381.28 170.53,-387.99"/>
</a>
</g>
</g>
<!-- Node8 -->
<g id="Node000008" class="node">
<title>Node8</title>
<g id="a_Node000008"><a xlink:href="class_fiea_1_1_engine_1_1_content_1_1_action_handler.html#a392af20cfeb37d539b88183bc9672f7a" target="_top" xlink:title=" ">
<polygon fill="white" stroke="#666666" points="130.75,-381 0.75,-381 0.75,-349 130.75,-349 130.75,-381"/>
<text text-anchor="start" x="8.75" y="-367.5" font-family="Helvetica,sans-Serif" font-size="10.00">Fiea::Engine::Content</text>
<text text-anchor="middle" x="65.75" y="-355.5" font-family="Helvetica,sans-Serif" font-size="10.00">::ActionHandler::EnterKey</text>
</a>
</g>
</g>
<!-- Node7&#45;&gt;Node8 -->
<g id="edge7_Node000007_Node000008" class="edge">
<title>Node7&#45;&gt;Node8</title>
<g id="a_edge7_Node000007_Node000008"><a xlink:title=" ">
<path fill="none" stroke="#63b8ff" d="M159.6,-365C150.13,-365 140.52,-365 131.25,-365"/>
<polygon fill="#63b8ff" stroke="#63b8ff" points="159.53,-368.5 169.53,-365 159.53,-361.5 159.53,-368.5"/>
</a>
</g>
</g>
<!-- Node9 -->
<g id="Node000009" class="node">
<title>Node9</title>
<g id="a_Node000009"><a xlink:href="class_fiea_1_1_engine_1_1_content_1_1_action_list_handler.html#ae0f8b6534bcf602df112f39202c79ecc" target="_top" xlink:title=" ">
<polygon fill="white" stroke="#666666" points="121.38,-331 10.12,-331 10.12,-287 121.38,-287 121.38,-331"/>
<text text-anchor="start" x="18.12" y="-317.5" font-family="Helvetica,sans-Serif" font-size="10.00">Fiea::Engine::Content</text>
<text text-anchor="start" x="18.12" y="-305.5" font-family="Helvetica,sans-Serif" font-size="10.00">::ActionListHandler::</text>
<text text-anchor="middle" x="65.75" y="-293.5" font-family="Helvetica,sans-Serif" font-size="10.00">EnterKey</text>
</a>
</g>
</g>
<!-- Node7&#45;&gt;Node9 -->
<g id="edge8_Node000007_Node000009" class="edge">
<title>Node7&#45;&gt;Node9</title>
<g id="a_edge8_Node000007_Node000009"><a xlink:title=" ">
<path fill="none" stroke="#63b8ff" d="M175.42,-344.96C157.85,-339.14 138.78,-332.83 121.58,-327.14"/>
<polygon fill="#63b8ff" stroke="#63b8ff" points="174.1,-348.21 184.7,-348.03 176.3,-341.56 174.1,-348.21"/>
</a>
</g>
</g>
<!-- Node10 -->
<g id="Node000010" class="node">
<title>Node10</title>
<g id="a_Node000010"><a xlink:href="class_fiea_1_1_engine_1_1_content_1_1_game_object_handler.html#a626573aebcd7beceb84dbd69bc15105b" target="_top" xlink:title="This handler is specifically for handling any game objects in json and also does some checks to ensur...">
<polygon fill="white" stroke="#666666" points="124,-269 7.5,-269 7.5,-225 124,-225 124,-269"/>
<text text-anchor="start" x="15.5" y="-255.5" font-family="Helvetica,sans-Serif" font-size="10.00">Fiea::Engine::Content</text>
<text text-anchor="start" x="15.5" y="-243.5" font-family="Helvetica,sans-Serif" font-size="10.00">::GameObjectHandler::</text>
<text text-anchor="middle" x="65.75" y="-231.5" font-family="Helvetica,sans-Serif" font-size="10.00">EnterKey</text>
</a>
</g>
</g>
<!-- Node7&#45;&gt;Node10 -->
<g id="edge9_Node000007_Node000010" class="edge">
<title>Node7&#45;&gt;Node10</title>
<g id="a_edge9_Node000007_Node000010"><a xlink:title=" ">
<path fill="none" stroke="#63b8ff" d="M170.88,-342.65C169.72,-341.8 168.59,-340.91 167.5,-340 143.07,-319.54 154.91,-299.62 131.5,-278 128.11,-274.87 124.35,-272 120.4,-269.38"/>
<polygon fill="#63b8ff" stroke="#63b8ff" points="168.68,-345.4 179,-347.78 172.42,-339.48 168.68,-345.4"/>
</a>
</g>
</g>
<!-- Node11 -->
<g id="Node000011" class="node">
<title>Node11</title>
<g id="a_Node000011"><a xlink:href="class_fiea_1_1_engine_1_1_content_1_1_scope_parse_handler.html#a51138cf4e0b638b95c73b4a5acd68842" target="_top" xlink:title=" ">
<polygon fill="white" stroke="#666666" points="123.25,-207 8.25,-207 8.25,-163 123.25,-163 123.25,-207"/>
<text text-anchor="start" x="16.25" y="-193.5" font-family="Helvetica,sans-Serif" font-size="10.00">Fiea::Engine::Content</text>
<text text-anchor="start" x="16.25" y="-181.5" font-family="Helvetica,sans-Serif" font-size="10.00">::ScopeParseHandler::</text>
<text text-anchor="middle" x="65.75" y="-169.5" font-family="Helvetica,sans-Serif" font-size="10.00">EnterKey</text>
</a>
</g>
</g>
<!-- Node7&#45;&gt;Node11 -->
<g id="edge10_Node000007_Node000011" class="edge">
<title>Node7&#45;&gt;Node11</title>
<g id="a_edge10_Node000007_Node000011"><a xlink:title=" ">
<path fill="none" stroke="#63b8ff" d="M168.95,-341.49C168.46,-341 167.97,-340.51 167.5,-340 128.31,-298.08 168.62,-259.77 131.5,-216 128.84,-212.86 125.79,-210.02 122.49,-207.45"/>
<polygon fill="#63b8ff" stroke="#63b8ff" points="166.57,-344.07 176.57,-347.57 170.94,-338.59 166.57,-344.07"/>
</a>
</g>
</g>
<!-- Node13 -->
<g id="Node000013" class="node">
<title>Node13</title>
<g id="a_Node000013"><a xlink:href="class_fiea_1_1_engine_1_1_content_1_1_float_parse_handler.html#abc4c8eb2ad52cd9ebdafba350e9a58d7" target="_top" xlink:title=" ">
<polygon fill="white" stroke="#666666" points="292.62,-331 181.38,-331 181.38,-287 292.62,-287 292.62,-331"/>
<text text-anchor="start" x="189.38" y="-317.5" font-family="Helvetica,sans-Serif" font-size="10.00">Fiea::Engine::Content</text>
<text text-anchor="start" x="189.38" y="-305.5" font-family="Helvetica,sans-Serif" font-size="10.00">::FloatParseHandler::</text>
<text text-anchor="middle" x="237" y="-293.5" font-family="Helvetica,sans-Serif" font-size="10.00">EnterKey</text>
</a>
</g>
</g>
<!-- Node12&#45;&gt;Node13 -->
<g id="edge13_Node000012_Node000013" class="edge">
<title>Node12&#45;&gt;Node13</title>
<g id="a_edge13_Node000012_Node000013"><a xlink:title=" ">
<path fill="none" stroke="#63b8ff" d="M372.27,-248.99C346.42,-260.55 314.34,-274.88 288.02,-286.65"/>
<polygon fill="#63b8ff" stroke="#63b8ff" points="373.49,-252.28 381.19,-245.01 370.63,-245.89 373.49,-252.28"/>
</a>
</g>
</g>
<!-- Node14 -->
<g id="Node000014" class="node">
<title>Node14</title>
<g id="a_Node000014"><a xlink:href="class_fiea_1_1_engine_1_1_content_1_1_int_parse_handler.html#aa99263839bdc482fcd4a5874ef682029" target="_top" xlink:title=" ">
<polygon fill="white" stroke="#666666" points="306.5,-269 167.5,-269 167.5,-237 306.5,-237 306.5,-269"/>
<text text-anchor="start" x="175.5" y="-255.5" font-family="Helvetica,sans-Serif" font-size="10.00">Fiea::Engine::Content</text>
<text text-anchor="middle" x="237" y="-243.5" font-family="Helvetica,sans-Serif" font-size="10.00">::IntParseHandler::EnterKey</text>
</a>
</g>
</g>
<!-- Node12&#45;&gt;Node14 -->
<g id="edge14_Node000012_Node000014" class="edge">
<title>Node12&#45;&gt;Node14</title>
<g id="a_edge14_Node000012_Node000014"><a xlink:title=" ">
<path fill="none" stroke="#63b8ff" d="M351.84,-237.3C337.12,-239.33 321.53,-241.48 306.76,-243.52"/>
<polygon fill="#63b8ff" stroke="#63b8ff" points="351.97,-240.81 361.4,-235.98 351.01,-233.88 351.97,-240.81"/>
</a>
</g>
</g>
<!-- Node15 -->
<g id="Node000015" class="node">
<title>Node15</title>
<g id="a_Node000015"><a xlink:href="class_fiea_1_1_engine_1_1_content_1_1_matrix_handler.html#af6b07a2232dbc15a91484634a6881499" target="_top" xlink:title=" ">
<polygon fill="white" stroke="#666666" points="301.62,-219 172.38,-219 172.38,-187 301.62,-187 301.62,-219"/>
<text text-anchor="start" x="180.38" y="-205.5" font-family="Helvetica,sans-Serif" font-size="10.00">Fiea::Engine::Content</text>
<text text-anchor="middle" x="237" y="-193.5" font-family="Helvetica,sans-Serif" font-size="10.00">::MatrixHandler::EnterKey</text>
</a>
</g>
</g>
<!-- Node12&#45;&gt;Node15 -->
<g id="edge15_Node000012_Node000015" class="edge">
<title>Node12&#45;&gt;Node15</title>
<g id="a_edge15_Node000012_Node000015"><a xlink:title=" ">
<path fill="none" stroke="#63b8ff" d="M351.79,-218.7C335.47,-216.44 318.07,-214.04 301.91,-211.82"/>
<polygon fill="#63b8ff" stroke="#63b8ff" points="351.01,-222.12 361.4,-220.02 351.97,-215.19 351.01,-222.12"/>
</a>
</g>
</g>
<!-- Node16 -->
<g id="Node000016" class="node">
<title>Node16</title>
<g id="a_Node000016"><a xlink:href="class_fiea_1_1_engine_1_1_content_1_1_string_parse_handler.html#a6e8f0ecc1992ee741847c1ad14069a30" target="_top" xlink:title=" ">
<polygon fill="white" stroke="#666666" points="292.62,-169 181.38,-169 181.38,-125 292.62,-125 292.62,-169"/>
<text text-anchor="start" x="189.38" y="-155.5" font-family="Helvetica,sans-Serif" font-size="10.00">Fiea::Engine::Content</text>
<text text-anchor="start" x="189.38" y="-143.5" font-family="Helvetica,sans-Serif" font-size="10.00">::StringParseHandler</text>
<text text-anchor="middle" x="237" y="-131.5" font-family="Helvetica,sans-Serif" font-size="10.00">::EnterKey</text>
</a>
</g>
</g>
<!-- Node12&#45;&gt;Node16 -->
<g id="edge16_Node000012_Node000016" class="edge">
<title>Node12&#45;&gt;Node16</title>
<g id="a_edge16_Node000012_Node000016"><a xlink:title=" ">
<path fill="none" stroke="#63b8ff" d="M352.1,-207.42C348.82,-206.02 345.6,-204.54 342.5,-203 325.05,-194.34 323.44,-187.61 306.5,-178 301.28,-175.04 295.72,-172.14 290.12,-169.38"/>
<polygon fill="#63b8ff" stroke="#63b8ff" points="350.75,-210.65 361.33,-211.13 353.36,-204.16 350.75,-210.65"/>
</a>
</g>
</g>
<!-- Node17 -->
<g id="Node000017" class="node">
<title>Node17</title>
<g id="a_Node000017"><a xlink:href="class_fiea_1_1_engine_1_1_content_1_1_vector_handler.html#a79774cea459da02c0eb57bcf2ca84821" target="_top" xlink:title=" ">
<polygon fill="white" stroke="#666666" points="302,-107 172,-107 172,-75 302,-75 302,-107"/>
<text text-anchor="start" x="180" y="-93.5" font-family="Helvetica,sans-Serif" font-size="10.00">Fiea::Engine::Content</text>
<text text-anchor="middle" x="237" y="-81.5" font-family="Helvetica,sans-Serif" font-size="10.00">::VectorHandler::EnterKey</text>
</a>
</g>
</g>
<!-- Node12&#45;&gt;Node17 -->
<g id="edge17_Node000012_Node000017" class="edge">
<title>Node12&#45;&gt;Node17</title>
<g id="a_edge17_Node000012_Node000017"><a xlink:title=" ">
<path fill="none" stroke="#63b8ff" d="M352.73,-210.69C349.07,-208.43 345.61,-205.88 342.5,-203 311.79,-174.58 336.71,-144.96 306.5,-116 303.12,-112.76 299.28,-109.93 295.2,-107.47"/>
<polygon fill="#63b8ff" stroke="#63b8ff" points="351.03,-213.75 361.51,-215.3 354.28,-207.55 351.03,-213.75"/>
</a>
</g>
</g>
<!-- Node19 -->
<g id="Node000019" class="node">
<title>Node19</title>
<g id="a_Node000019"><a xlink:href="namespace_fiea_1_1_engine_1_1_tests.html#acf19d1e24b6e04bb3eefd39b994f462d" target="_top" xlink:title=" ">
<polygon fill="white" stroke="#666666" points="287.38,-57 186.62,-57 186.62,-25 287.38,-25 287.38,-57"/>
<text text-anchor="start" x="194.62" y="-43.5" font-family="Helvetica,sans-Serif" font-size="10.00">Fiea::Engine::Tests</text>
<text text-anchor="middle" x="237" y="-31.5" font-family="Helvetica,sans-Serif" font-size="10.00">::TEST_CLASS</text>
</a>
</g>
</g>
<!-- Node18&#45;&gt;Node19 -->
<g id="edge19_Node000018_Node000019" class="edge">
<title>Node18&#45;&gt;Node19</title>
<g id="a_edge19_Node000018_Node000019"><a xlink:title=" ">
<path fill="none" stroke="#63b8ff" d="M344.42,-142.74C343.77,-142.17 343.13,-141.59 342.5,-141 315.54,-115.7 333.89,-90.84 306.5,-66 301.06,-61.07 294.57,-57.09 287.78,-53.88"/>
<polygon fill="#63b8ff" stroke="#63b8ff" points="342.19,-145.44 352.29,-148.65 346.4,-139.84 342.19,-145.44"/>
</a>
</g>
</g>
</g>
</svg>
