<?xml version="1.0" encoding="UTF-8" standalone="no"?>
<!DOCTYPE svg PUBLIC "-//W3C//DTD SVG 1.1//EN"
 "http://www.w3.org/Graphics/SVG/1.1/DTD/svg11.dtd">
<!-- Generated by graphviz version 12.2.1 (20241206.2353)
 -->
<!-- Title: Fiea::Engine::RTTI::Is Pages: 1 -->
<svg width="792pt" height="1372pt"
 viewBox="0.00 0.00 792.25 1371.88" xmlns="http://www.w3.org/2000/svg" xmlns:xlink="http://www.w3.org/1999/xlink">
<g id="graph0" class="graph" transform="scale(1 1) rotate(0) translate(4 1367.88)">
<title>Fiea::Engine::RTTI::Is</title>
<!-- Node1 -->
<g id="Node000001" class="node">
<title>Node1</title>
<g id="a_Node000001"><a xlink:title=" ">
<polygon fill="#999999" stroke="#666666" points="784.25,-673 671.5,-673 671.5,-653 784.25,-653 784.25,-673"/>
<text text-anchor="middle" x="727.88" y="-659.5" font-family="Helvetica,sans-Serif" font-size="10.00">Fiea::Engine::RTTI::Is</text>
</a>
</g>
</g>
<!-- Node2 -->
<g id="Node000002" class="node">
<title>Node2</title>
<g id="a_Node000002"><a xlink:href="class_fiea_1_1_engine_1_1_r_t_t_i.html#a15bd5993c8ad04da47af440298ebbb30" target="_top" xlink:title=" ">
<polygon fill="#fff0f0" stroke="red" points="635.5,-711 519,-711 519,-691 635.5,-691 635.5,-711"/>
<text text-anchor="middle" x="577.25" y="-697.5" font-family="Helvetica,sans-Serif" font-size="10.00">Fiea::Engine::RTTI::As</text>
</a>
</g>
</g>
<!-- Node1&#45;&gt;Node2 -->
<g id="edge1_Node000001_Node000002" class="edge">
<title>Node1&#45;&gt;Node2</title>
<g id="a_edge1_Node000001_Node000002"><a xlink:title=" ">
<path fill="none" stroke="#63b8ff" d="M674.8,-676.31C656.55,-680.98 636.33,-686.15 619.12,-690.55"/>
<polygon fill="#63b8ff" stroke="#63b8ff" points="675.58,-679.73 684.4,-673.86 673.85,-672.95 675.58,-679.73"/>
</a>
</g>
</g>
<!-- Node62 -->
<g id="Node000062" class="node">
<title>Node62</title>
<g id="a_Node000062"><a xlink:href="class_fiea_1_1_engine_1_1_r_t_t_i.html#af977f8c4c4dd868f831d8efbf6ed78e3" target="_top" xlink:title=" ">
<polygon fill="white" stroke="#666666" points="635.5,-673 519,-673 519,-653 635.5,-653 635.5,-673"/>
<text text-anchor="middle" x="577.25" y="-659.5" font-family="Helvetica,sans-Serif" font-size="10.00">Fiea::Engine::RTTI::As</text>
</a>
</g>
</g>
<!-- Node1&#45;&gt;Node62 -->
<g id="edge33_Node000001_Node000062" class="edge">
<title>Node1&#45;&gt;Node62</title>
<g id="a_edge33_Node000001_Node000062"><a xlink:title=" ">
<path fill="none" stroke="#63b8ff" d="M659.87,-663C651.84,-663 643.7,-663 635.82,-663"/>
<polygon fill="#63b8ff" stroke="#63b8ff" points="659.6,-666.5 669.6,-663 659.6,-659.5 659.6,-666.5"/>
</a>
</g>
</g>
<!-- Node39 -->
<g id="Node000039" class="node">
<title>Node39</title>
<g id="a_Node000039"><a xlink:href="namespace_fiea_1_1_engine_1_1_tests.html#a4c38cd01e5a0cfe2b5ea3757817aaa63" target="_top" xlink:title=" ">
<polygon fill="white" stroke="#666666" points="627.62,-635 526.88,-635 526.88,-603 627.62,-603 627.62,-635"/>
<text text-anchor="start" x="534.88" y="-621.5" font-family="Helvetica,sans-Serif" font-size="10.00">Fiea::Engine::Tests</text>
<text text-anchor="middle" x="577.25" y="-609.5" font-family="Helvetica,sans-Serif" font-size="10.00">::TEST_CLASS</text>
</a>
</g>
</g>
<!-- Node1&#45;&gt;Node39 -->
<g id="edge34_Node000001_Node000039" class="edge">
<title>Node1&#45;&gt;Node39</title>
<g id="a_edge34_Node000001_Node000039"><a xlink:title=" ">
<path fill="none" stroke="#63b8ff" d="M681.01,-649.42C664.25,-644.46 645.22,-638.83 628.12,-633.76"/>
<polygon fill="#63b8ff" stroke="#63b8ff" points="679.62,-652.66 690.2,-652.14 681.61,-645.95 679.62,-652.66"/>
</a>
</g>
</g>
<!-- Node3 -->
<g id="Node000003" class="node">
<title>Node3</title>
<g id="a_Node000003"><a xlink:href="struct_fiea_1_1_engine_1_1_i_factory_service.html#a67321bf276c10f13666440c0957b9fa8" target="_top" xlink:title=" ">
<polygon fill="#fff0f0" stroke="red" points="483,-1316 337.25,-1316 337.25,-1284 483,-1284 483,-1316"/>
<text text-anchor="start" x="345.25" y="-1302.5" font-family="Helvetica,sans-Serif" font-size="10.00">Fiea::Engine::IFactoryService</text>
<text text-anchor="middle" x="410.12" y="-1290.5" font-family="Helvetica,sans-Serif" font-size="10.00">::Create</text>
</a>
</g>
</g>
<!-- Node2&#45;&gt;Node3 -->
<g id="edge2_Node000002_Node000003" class="edge">
<title>Node2&#45;&gt;Node3</title>
<g id="a_edge2_Node000002_Node000003"><a xlink:title=" ">
<path fill="none" stroke="#63b8ff" d="M575.45,-722.55C571.61,-815.63 552.22,-1182.43 483,-1270 478.72,-1275.41 473.3,-1279.85 467.35,-1283.5"/>
<polygon fill="#63b8ff" stroke="#63b8ff" points="578.94,-722.93 575.84,-712.8 571.94,-722.66 578.94,-722.93"/>
</a>
</g>
</g>
<!-- Node4 -->
<g id="Node000004" class="node">
<title>Node4</title>
<g id="a_Node000004"><a xlink:href="class_fiea_1_1_engine_1_1_content_1_1_action_handler.html#a392af20cfeb37d539b88183bc9672f7a" target="_top" xlink:title=" ">
<polygon fill="white" stroke="#666666" points="301.25,-1359 171.25,-1359 171.25,-1327 301.25,-1327 301.25,-1359"/>
<text text-anchor="start" x="179.25" y="-1345.5" font-family="Helvetica,sans-Serif" font-size="10.00">Fiea::Engine::Content</text>
<text text-anchor="middle" x="236.25" y="-1333.5" font-family="Helvetica,sans-Serif" font-size="10.00">::ActionHandler::EnterKey</text>
</a>
</g>
</g>
<!-- Node2&#45;&gt;Node4 -->
<g id="edge6_Node000002_Node000004" class="edge">
<title>Node2&#45;&gt;Node4</title>
<g id="a_edge6_Node000002_Node000004"><a xlink:title=" ">
<path fill="none" stroke="#63b8ff" d="M576.45,-722.37C576.92,-822.19 573.4,-1241.15 483,-1325 435.09,-1369.44 356.86,-1367.25 301.55,-1358.26"/>
<polygon fill="#63b8ff" stroke="#63b8ff" points="579.95,-722.63 576.39,-712.65 572.95,-722.68 579.95,-722.63"/>
</a>
</g>
</g>
<!-- Node5 -->
<g id="Node000005" class="node">
<title>Node5</title>
<g id="a_Node000005"><a xlink:href="class_fiea_1_1_engine_1_1_content_1_1_action_list_handler.html#ae0f8b6534bcf602df112f39202c79ecc" target="_top" xlink:title=" ">
<polygon fill="white" stroke="#666666" points="291.88,-1308 180.62,-1308 180.62,-1264 291.88,-1264 291.88,-1308"/>
<text text-anchor="start" x="188.62" y="-1294.5" font-family="Helvetica,sans-Serif" font-size="10.00">Fiea::Engine::Content</text>
<text text-anchor="start" x="188.62" y="-1282.5" font-family="Helvetica,sans-Serif" font-size="10.00">::ActionListHandler::</text>
<text text-anchor="middle" x="236.25" y="-1270.5" font-family="Helvetica,sans-Serif" font-size="10.00">EnterKey</text>
</a>
</g>
</g>
<!-- Node2&#45;&gt;Node5 -->
<g id="edge7_Node000002_Node000005" class="edge">
<title>Node2&#45;&gt;Node5</title>
<g id="a_edge7_Node000002_Node000005"><a xlink:title=" ">
<path fill="none" stroke="#63b8ff" d="M575.57,-722.59C572.3,-812.76 555.18,-1157.96 483,-1233 469.8,-1246.72 360.41,-1266.36 292.1,-1277.48"/>
<polygon fill="#63b8ff" stroke="#63b8ff" points="579.07,-722.83 575.91,-712.72 572.07,-722.59 579.07,-722.83"/>
</a>
</g>
</g>
<!-- Node6 -->
<g id="Node000006" class="node">
<title>Node6</title>
<g id="a_Node000006"><a xlink:href="class_fiea_1_1_engine_1_1_content_1_1_game_object_handler.html#a626573aebcd7beceb84dbd69bc15105b" target="_top" xlink:title="This handler is specifically for handling any game objects in json and also does some checks to ensur...">
<polygon fill="white" stroke="#666666" points="294.5,-1244 178,-1244 178,-1200 294.5,-1200 294.5,-1244"/>
<text text-anchor="start" x="186" y="-1230.5" font-family="Helvetica,sans-Serif" font-size="10.00">Fiea::Engine::Content</text>
<text text-anchor="start" x="186" y="-1218.5" font-family="Helvetica,sans-Serif" font-size="10.00">::GameObjectHandler::</text>
<text text-anchor="middle" x="236.25" y="-1206.5" font-family="Helvetica,sans-Serif" font-size="10.00">EnterKey</text>
</a>
</g>
</g>
<!-- Node2&#45;&gt;Node6 -->
<g id="edge10_Node000002_Node000006" class="edge">
<title>Node2&#45;&gt;Node6</title>
<g id="a_edge10_Node000002_Node000006"><a xlink:title=" ">
<path fill="none" stroke="#63b8ff" d="M575.52,-722.83C572.11,-810.25 554.78,-1133.53 483,-1199 432.74,-1244.84 350.31,-1242.68 294.94,-1234.41"/>
<polygon fill="#63b8ff" stroke="#63b8ff" points="579.01,-723.13 575.88,-713.01 572.02,-722.88 579.01,-723.13"/>
</a>
</g>
</g>
<!-- Node9 -->
<g id="Node000009" class="node">
<title>Node9</title>
<g id="a_Node000009"><a xlink:href="class_fiea_1_1_engine_1_1_content_1_1_array_handler.html#a12c964e02fd52210a503839f93f9bcd5" target="_top" xlink:title=" ">
<polygon fill="white" stroke="#666666" points="472.88,-1190 347.38,-1190 347.38,-1158 472.88,-1158 472.88,-1190"/>
<text text-anchor="start" x="355.38" y="-1176.5" font-family="Helvetica,sans-Serif" font-size="10.00">Fiea::Engine::Content</text>
<text text-anchor="middle" x="410.12" y="-1164.5" font-family="Helvetica,sans-Serif" font-size="10.00">::ArrayHandler::EnterKey</text>
</a>
</g>
</g>
<!-- Node2&#45;&gt;Node9 -->
<g id="edge8_Node000002_Node000009" class="edge">
<title>Node2&#45;&gt;Node9</title>
<g id="a_edge8_Node000002_Node000009"><a xlink:title=" ">
<path fill="none" stroke="#63b8ff" d="M574.55,-722.5C567.78,-802.77 540.35,-1083.7 483,-1149 480.12,-1152.28 476.79,-1155.12 473.18,-1157.6"/>
<polygon fill="#63b8ff" stroke="#63b8ff" points="578,-723.16 575.33,-712.91 571.03,-722.59 578,-723.16"/>
</a>
</g>
</g>
<!-- Node10 -->
<g id="Node000010" class="node">
<title>Node10</title>
<g id="a_Node000010"><a xlink:href="class_fiea_1_1_engine_1_1_content_1_1_float_parse_handler.html#abc4c8eb2ad52cd9ebdafba350e9a58d7" target="_top" xlink:title=" ">
<polygon fill="white" stroke="#666666" points="465.75,-1140 354.5,-1140 354.5,-1096 465.75,-1096 465.75,-1140"/>
<text text-anchor="start" x="362.5" y="-1126.5" font-family="Helvetica,sans-Serif" font-size="10.00">Fiea::Engine::Content</text>
<text text-anchor="start" x="362.5" y="-1114.5" font-family="Helvetica,sans-Serif" font-size="10.00">::FloatParseHandler::</text>
<text text-anchor="middle" x="410.12" y="-1102.5" font-family="Helvetica,sans-Serif" font-size="10.00">EnterKey</text>
</a>
</g>
</g>
<!-- Node2&#45;&gt;Node10 -->
<g id="edge9_Node000002_Node000010" class="edge">
<title>Node2&#45;&gt;Node10</title>
<g id="a_edge9_Node000002_Node000010"><a xlink:title=" ">
<path fill="none" stroke="#63b8ff" d="M573.59,-722.6C564.24,-795.37 530.89,-1030.18 483,-1087 478.27,-1092.61 472.34,-1097.23 465.92,-1101.04"/>
<polygon fill="#63b8ff" stroke="#63b8ff" points="577.04,-723.18 574.82,-712.82 570.1,-722.31 577.04,-723.18"/>
</a>
</g>
</g>
<!-- Node11 -->
<g id="Node000011" class="node">
<title>Node11</title>
<g id="a_Node000011"><a xlink:href="class_fiea_1_1_engine_1_1_content_1_1_int_parse_handler.html#aa99263839bdc482fcd4a5874ef682029" target="_top" xlink:title=" ">
<polygon fill="white" stroke="#666666" points="479.62,-1078 340.62,-1078 340.62,-1046 479.62,-1046 479.62,-1078"/>
<text text-anchor="start" x="348.62" y="-1064.5" font-family="Helvetica,sans-Serif" font-size="10.00">Fiea::Engine::Content</text>
<text text-anchor="middle" x="410.12" y="-1052.5" font-family="Helvetica,sans-Serif" font-size="10.00">::IntParseHandler::EnterKey</text>
</a>
</g>
</g>
<!-- Node2&#45;&gt;Node11 -->
<g id="edge11_Node000002_Node000011" class="edge">
<title>Node2&#45;&gt;Node11</title>
<g id="a_edge11_Node000002_Node000011"><a xlink:title=" ">
<path fill="none" stroke="#63b8ff" d="M576.73,-722.9C576.81,-781.82 568.86,-945.46 483,-1037 479.93,-1040.28 476.4,-1043.12 472.6,-1045.6"/>
<polygon fill="#63b8ff" stroke="#63b8ff" points="580.23,-722.88 576.62,-712.92 573.23,-722.95 580.23,-722.88"/>
</a>
</g>
</g>
<!-- Node12 -->
<g id="Node000012" class="node">
<title>Node12</title>
<g id="a_Node000012"><a xlink:href="class_fiea_1_1_engine_1_1_content_1_1_matrix_handler.html#af6b07a2232dbc15a91484634a6881499" target="_top" xlink:title=" ">
<polygon fill="white" stroke="#666666" points="474.75,-1028 345.5,-1028 345.5,-996 474.75,-996 474.75,-1028"/>
<text text-anchor="start" x="353.5" y="-1014.5" font-family="Helvetica,sans-Serif" font-size="10.00">Fiea::Engine::Content</text>
<text text-anchor="middle" x="410.12" y="-1002.5" font-family="Helvetica,sans-Serif" font-size="10.00">::MatrixHandler::EnterKey</text>
</a>
</g>
</g>
<!-- Node2&#45;&gt;Node12 -->
<g id="edge12_Node000002_Node000012" class="edge">
<title>Node2&#45;&gt;Node12</title>
<g id="a_edge12_Node000002_Node000012"><a xlink:title=" ">
<path fill="none" stroke="#63b8ff" d="M575.49,-722.42C572.48,-774.88 557.49,-911.04 483,-987 479.76,-990.3 476.07,-993.17 472.1,-995.66"/>
<polygon fill="#63b8ff" stroke="#63b8ff" points="578.97,-722.9 575.95,-712.74 571.98,-722.57 578.97,-722.9"/>
</a>
</g>
</g>
<!-- Node13 -->
<g id="Node000013" class="node">
<title>Node13</title>
<g id="a_Node000013"><a xlink:href="class_fiea_1_1_engine_1_1_content_1_1_scope_parse_handler.html#a51138cf4e0b638b95c73b4a5acd68842" target="_top" xlink:title=" ">
<polygon fill="white" stroke="#666666" points="467.62,-978 352.62,-978 352.62,-934 467.62,-934 467.62,-978"/>
<text text-anchor="start" x="360.62" y="-964.5" font-family="Helvetica,sans-Serif" font-size="10.00">Fiea::Engine::Content</text>
<text text-anchor="start" x="360.62" y="-952.5" font-family="Helvetica,sans-Serif" font-size="10.00">::ScopeParseHandler::</text>
<text text-anchor="middle" x="410.12" y="-940.5" font-family="Helvetica,sans-Serif" font-size="10.00">EnterKey</text>
</a>
</g>
</g>
<!-- Node2&#45;&gt;Node13 -->
<g id="edge13_Node000002_Node000013" class="edge">
<title>Node2&#45;&gt;Node13</title>
<g id="a_edge13_Node000002_Node000013"><a xlink:title=" ">
<path fill="none" stroke="#63b8ff" d="M572.8,-722.68C564.78,-766.48 540.91,-866.34 483,-925 478.61,-929.45 473.47,-933.3 468.01,-936.62"/>
<polygon fill="#63b8ff" stroke="#63b8ff" points="576.24,-723.38 574.48,-712.93 569.34,-722.19 576.24,-723.38"/>
</a>
</g>
</g>
<!-- Node14 -->
<g id="Node000014" class="node">
<title>Node14</title>
<g id="a_Node000014"><a xlink:href="class_fiea_1_1_engine_1_1_content_1_1_string_parse_handler.html#a6e8f0ecc1992ee741847c1ad14069a30" target="_top" xlink:title=" ">
<polygon fill="white" stroke="#666666" points="465.75,-916 354.5,-916 354.5,-872 465.75,-872 465.75,-916"/>
<text text-anchor="start" x="362.5" y="-902.5" font-family="Helvetica,sans-Serif" font-size="10.00">Fiea::Engine::Content</text>
<text text-anchor="start" x="362.5" y="-890.5" font-family="Helvetica,sans-Serif" font-size="10.00">::StringParseHandler</text>
<text text-anchor="middle" x="410.12" y="-878.5" font-family="Helvetica,sans-Serif" font-size="10.00">::EnterKey</text>
</a>
</g>
</g>
<!-- Node2&#45;&gt;Node14 -->
<g id="edge14_Node000002_Node000014" class="edge">
<title>Node2&#45;&gt;Node14</title>
<g id="a_edge14_Node000002_Node000014"><a xlink:title=" ">
<path fill="none" stroke="#63b8ff" d="M569.27,-721.67C556.89,-755.48 528.08,-822.83 483,-863 477.93,-867.52 472.09,-871.46 465.99,-874.87"/>
<polygon fill="#63b8ff" stroke="#63b8ff" points="572.43,-723.24 572.46,-712.64 565.83,-720.91 572.43,-723.24"/>
</a>
</g>
</g>
<!-- Node15 -->
<g id="Node000015" class="node">
<title>Node15</title>
<g id="a_Node000015"><a xlink:href="class_fiea_1_1_engine_1_1_content_1_1_vector_handler.html#a79774cea459da02c0eb57bcf2ca84821" target="_top" xlink:title=" ">
<polygon fill="white" stroke="#666666" points="475.12,-854 345.12,-854 345.12,-822 475.12,-822 475.12,-854"/>
<text text-anchor="start" x="353.12" y="-840.5" font-family="Helvetica,sans-Serif" font-size="10.00">Fiea::Engine::Content</text>
<text text-anchor="middle" x="410.12" y="-828.5" font-family="Helvetica,sans-Serif" font-size="10.00">::VectorHandler::EnterKey</text>
</a>
</g>
</g>
<!-- Node2&#45;&gt;Node15 -->
<g id="edge15_Node000002_Node000015" class="edge">
<title>Node2&#45;&gt;Node15</title>
<g id="a_edge15_Node000002_Node000015"><a xlink:title=" ">
<path fill="none" stroke="#63b8ff" d="M564.41,-721.05C548.74,-745.95 518.88,-788.16 483,-813 478.33,-816.23 473.2,-819.09 467.9,-821.6"/>
<polygon fill="#63b8ff" stroke="#63b8ff" points="567.38,-722.9 569.61,-712.54 561.41,-719.25 567.38,-722.9"/>
</a>
</g>
</g>
<!-- Node16 -->
<g id="Node000016" class="node">
<title>Node16</title>
<g id="a_Node000016"><a xlink:href="class_fiea_1_1_engine_1_1_content_1_1_actions_1_1_action.html#ae984b4832e0645f92e76f2381c373be8" target="_top" xlink:title="virtual function part of the vtable pointer. We are calling in the equality operator overloaded funct...">
<polygon fill="white" stroke="#666666" points="472.5,-804 347.75,-804 347.75,-772 472.5,-772 472.5,-804"/>
<text text-anchor="start" x="355.75" y="-790.5" font-family="Helvetica,sans-Serif" font-size="10.00">Fiea::Engine::Content</text>
<text text-anchor="middle" x="410.12" y="-778.5" font-family="Helvetica,sans-Serif" font-size="10.00">::Actions::Action::Equals</text>
</a>
</g>
</g>
<!-- Node2&#45;&gt;Node16 -->
<g id="edge16_Node000002_Node000016" class="edge">
<title>Node2&#45;&gt;Node16</title>
<g id="a_edge16_Node000002_Node000016"><a xlink:title=" ">
<path fill="none" stroke="#63b8ff" d="M554.04,-718.1C535.73,-731.61 508.68,-750.25 483,-763 476.73,-766.11 469.97,-769.01 463.2,-771.64"/>
<polygon fill="#63b8ff" stroke="#63b8ff" points="555.89,-721.09 561.79,-712.29 551.69,-715.49 555.89,-721.09"/>
</a>
</g>
</g>
<!-- Node17 -->
<g id="Node000017" class="node">
<title>Node17</title>
<g id="a_Node000017"><a xlink:href="class_fiea_1_1_engine_1_1_content_1_1_actions_1_1_action_list.html#ac954c92f4416a8d5a4f964f93041e39f" target="_top" xlink:title="virtual function part of the vtable pointer. We are calling in the equality operator overloaded funct...">
<polygon fill="white" stroke="#666666" points="465.75,-754 354.5,-754 354.5,-710 465.75,-710 465.75,-754"/>
<text text-anchor="start" x="362.5" y="-740.5" font-family="Helvetica,sans-Serif" font-size="10.00">Fiea::Engine::Content</text>
<text text-anchor="start" x="362.5" y="-728.5" font-family="Helvetica,sans-Serif" font-size="10.00">::Actions::ActionList</text>
<text text-anchor="middle" x="410.12" y="-716.5" font-family="Helvetica,sans-Serif" font-size="10.00">::Equals</text>
</a>
</g>
</g>
<!-- Node2&#45;&gt;Node17 -->
<g id="edge17_Node000002_Node000017" class="edge">
<title>Node2&#45;&gt;Node17</title>
<g id="a_edge17_Node000002_Node000017"><a xlink:title=" ">
<path fill="none" stroke="#63b8ff" d="M509.07,-713.61C494.8,-716.29 479.89,-719.09 466.13,-721.67"/>
<polygon fill="#63b8ff" stroke="#63b8ff" points="509.68,-717.06 518.86,-711.77 508.38,-710.18 509.68,-717.06"/>
</a>
</g>
</g>
<!-- Node18 -->
<g id="Node000018" class="node">
<title>Node18</title>
<g id="a_Node000018"><a xlink:href="class_fiea_1_1_engine_1_1_content_1_1_actions_1_1_increment_action.html#a03738a2305588d66f40cabfa45d9d87e" target="_top" xlink:title="virtual function part of the vtable pointer. We are calling in the equality operator overloaded funct...">
<polygon fill="white" stroke="#666666" points="476.25,-692 344,-692 344,-648 476.25,-648 476.25,-692"/>
<text text-anchor="start" x="352" y="-678.5" font-family="Helvetica,sans-Serif" font-size="10.00">Fiea::Engine::Content</text>
<text text-anchor="start" x="352" y="-666.5" font-family="Helvetica,sans-Serif" font-size="10.00">::Actions::IncrementAction</text>
<text text-anchor="middle" x="410.12" y="-654.5" font-family="Helvetica,sans-Serif" font-size="10.00">::Equals</text>
</a>
</g>
</g>
<!-- Node2&#45;&gt;Node18 -->
<g id="edge18_Node000002_Node000018" class="edge">
<title>Node2&#45;&gt;Node18</title>
<g id="a_edge18_Node000002_Node000018"><a xlink:title=" ">
<path fill="none" stroke="#63b8ff" d="M509.29,-688.43C498.53,-686.41 487.4,-684.32 476.67,-682.3"/>
<polygon fill="#63b8ff" stroke="#63b8ff" points="508.38,-691.82 518.86,-690.23 509.68,-684.94 508.38,-691.82"/>
</a>
</g>
</g>
<!-- Node19 -->
<g id="Node000019" class="node">
<title>Node19</title>
<g id="a_Node000019"><a xlink:href="class_fiea_1_1_engine_1_1_content_1_1_actions_1_1_integer_conditional_action.html#a1f0227d7ad93adb562e9d8cfa4e843d4" target="_top" xlink:title="virtual function part of the vtable pointer. We are calling in the equality operator overloaded funct...">
<polygon fill="white" stroke="#666666" points="480,-630 340.25,-630 340.25,-586 480,-586 480,-630"/>
<text text-anchor="start" x="348.25" y="-616.5" font-family="Helvetica,sans-Serif" font-size="10.00">Fiea::Engine::Content</text>
<text text-anchor="start" x="348.25" y="-604.5" font-family="Helvetica,sans-Serif" font-size="10.00">::Actions::IntegerConditional</text>
<text text-anchor="middle" x="410.12" y="-592.5" font-family="Helvetica,sans-Serif" font-size="10.00">Action::Equals</text>
</a>
</g>
</g>
<!-- Node2&#45;&gt;Node19 -->
<g id="edge19_Node000002_Node000019" class="edge">
<title>Node2&#45;&gt;Node19</title>
<g id="a_edge19_Node000002_Node000019"><a xlink:title=" ">
<path fill="none" stroke="#63b8ff" d="M525.16,-685.75C523.03,-684.58 520.96,-683.33 519,-682 498.39,-667.99 502.98,-653.89 483,-639 478.86,-635.91 474.36,-633.06 469.71,-630.44"/>
<polygon fill="#63b8ff" stroke="#63b8ff" points="523.59,-688.88 534.13,-689.97 526.57,-682.54 523.59,-688.88"/>
</a>
</g>
</g>
<!-- Node20 -->
<g id="Node000020" class="node">
<title>Node20</title>
<g id="a_Node000020"><a xlink:href="class_fiea_1_1_engine_1_1_content_1_1_actions_1_1_preamble_action.html#a37175e23e8fcd12ea7a2d39f1a454809" target="_top" xlink:title="virtual function part of the vtable pointer. We are calling in the equality operator overloaded funct...">
<polygon fill="white" stroke="#666666" points="475.12,-568 345.12,-568 345.12,-524 475.12,-524 475.12,-568"/>
<text text-anchor="start" x="353.12" y="-554.5" font-family="Helvetica,sans-Serif" font-size="10.00">Fiea::Engine::Content</text>
<text text-anchor="start" x="353.12" y="-542.5" font-family="Helvetica,sans-Serif" font-size="10.00">::Actions::PreambleAction</text>
<text text-anchor="middle" x="410.12" y="-530.5" font-family="Helvetica,sans-Serif" font-size="10.00">::Equals</text>
</a>
</g>
</g>
<!-- Node2&#45;&gt;Node20 -->
<g id="edge20_Node000002_Node000020" class="edge">
<title>Node2&#45;&gt;Node20</title>
<g id="a_edge20_Node000002_Node000020"><a xlink:title=" ">
<path fill="none" stroke="#63b8ff" d="M521.74,-684.48C520.79,-683.69 519.87,-682.87 519,-682 483.94,-647.29 516.52,-613.2 483,-577 480.05,-573.81 476.71,-570.93 473.13,-568.34"/>
<polygon fill="#63b8ff" stroke="#63b8ff" points="519.53,-687.22 529.81,-689.78 523.37,-681.37 519.53,-687.22"/>
</a>
</g>
</g>
<!-- Node21 -->
<g id="Node000021" class="node">
<title>Node21</title>
<g id="a_Node000021"><a xlink:href="class_fiea_1_1_engine_1_1_content_1_1_actions_1_1_timed_action.html#a6cf0799b3a056fd8dacfc1fda9dfada0" target="_top" xlink:title="virtual function part of the vtable pointer. We are calling in the equality operator overloaded funct...">
<polygon fill="white" stroke="#666666" points="468,-506 352.25,-506 352.25,-462 468,-462 468,-506"/>
<text text-anchor="start" x="360.25" y="-492.5" font-family="Helvetica,sans-Serif" font-size="10.00">Fiea::Engine::Content</text>
<text text-anchor="start" x="360.25" y="-480.5" font-family="Helvetica,sans-Serif" font-size="10.00">::Actions::TimedAction</text>
<text text-anchor="middle" x="410.12" y="-468.5" font-family="Helvetica,sans-Serif" font-size="10.00">::Equals</text>
</a>
</g>
</g>
<!-- Node2&#45;&gt;Node21 -->
<g id="edge21_Node000002_Node000021" class="edge">
<title>Node2&#45;&gt;Node21</title>
<g id="a_edge21_Node000002_Node000021"><a xlink:title=" ">
<path fill="none" stroke="#63b8ff" d="M520.8,-683.86C520.18,-683.26 519.58,-682.64 519,-682 468.29,-625.49 531.21,-573.66 483,-515 478.86,-509.96 473.74,-505.72 468.16,-502.16"/>
<polygon fill="#63b8ff" stroke="#63b8ff" points="518.49,-686.51 528.61,-689.65 522.65,-680.88 518.49,-686.51"/>
</a>
</g>
</g>
<!-- Node22 -->
<g id="Node000022" class="node">
<title>Node22</title>
<g id="a_Node000022"><a xlink:href="class_fiea_1_1_engine_1_1_content_1_1_actions_1_1_while_action_list.html#a016f632a0e1d0c3209941c5d53b16daf" target="_top" xlink:title="virtual function part of the vtable pointer. We are calling in the equality operator overloaded funct...">
<polygon fill="white" stroke="#666666" points="474.75,-444 345.5,-444 345.5,-400 474.75,-400 474.75,-444"/>
<text text-anchor="start" x="353.5" y="-430.5" font-family="Helvetica,sans-Serif" font-size="10.00">Fiea::Engine::Content</text>
<text text-anchor="start" x="353.5" y="-418.5" font-family="Helvetica,sans-Serif" font-size="10.00">::Actions::WhileActionList</text>
<text text-anchor="middle" x="410.12" y="-406.5" font-family="Helvetica,sans-Serif" font-size="10.00">::Equals</text>
</a>
</g>
</g>
<!-- Node2&#45;&gt;Node22 -->
<g id="edge22_Node000002_Node000022" class="edge">
<title>Node2&#45;&gt;Node22</title>
<g id="a_edge22_Node000002_Node000022"><a xlink:title=" ">
<path fill="none" stroke="#63b8ff" d="M520.41,-683.57C519.93,-683.06 519.45,-682.54 519,-682 452.38,-603.41 546.15,-534.41 483,-453 480.5,-449.78 477.6,-446.89 474.43,-444.29"/>
<polygon fill="#63b8ff" stroke="#63b8ff" points="518.13,-686.22 528.16,-689.63 522.44,-680.71 518.13,-686.22"/>
</a>
</g>
</g>
<!-- Node23 -->
<g id="Node000023" class="node">
<title>Node23</title>
<g id="a_Node000023"><a xlink:href="class_fiea_1_1_engine_1_1_content_1_1_attributed.html#a8d01baa61962f0cc56632828e53149fb" target="_top" xlink:title="virtual function part of the vtable pointer. We are calling in the equality operator overloaded funct...">
<polygon fill="white" stroke="#666666" points="465.75,-382 354.5,-382 354.5,-350 465.75,-350 465.75,-382"/>
<text text-anchor="start" x="362.5" y="-368.5" font-family="Helvetica,sans-Serif" font-size="10.00">Fiea::Engine::Content</text>
<text text-anchor="middle" x="410.12" y="-356.5" font-family="Helvetica,sans-Serif" font-size="10.00">::Attributed::Equals</text>
</a>
</g>
</g>
<!-- Node2&#45;&gt;Node23 -->
<g id="edge23_Node000002_Node000023" class="edge">
<title>Node2&#45;&gt;Node23</title>
<g id="a_edge23_Node000002_Node000023"><a xlink:title=" ">
<path fill="none" stroke="#63b8ff" d="M520.39,-683.59C519.91,-683.07 519.45,-682.54 519,-682 436.38,-581.22 564.9,-492.37 483,-391 478.43,-385.35 472.51,-380.97 466.03,-377.58"/>
<polygon fill="#63b8ff" stroke="#63b8ff" points="518.05,-686.2 528.05,-689.72 522.43,-680.74 518.05,-686.2"/>
</a>
</g>
</g>
<!-- Node24 -->
<g id="Node000024" class="node">
<title>Node24</title>
<g id="a_Node000024"><a xlink:href="class_fiea_1_1_engine_1_1_tests_1_1_support_1_1_attribute_box.html#a95770764ad20e7eec64a873b620abf0b" target="_top" xlink:title="virtual function part of the vtable pointer. We are calling in the equality operator overloaded funct...">
<polygon fill="#fff0f0" stroke="red" points="294.12,-356 178.38,-356 178.38,-312 294.12,-312 294.12,-356"/>
<text text-anchor="start" x="186.38" y="-342.5" font-family="Helvetica,sans-Serif" font-size="10.00">Fiea::Engine::Tests</text>
<text text-anchor="start" x="186.38" y="-330.5" font-family="Helvetica,sans-Serif" font-size="10.00">::Support::AttributeBox</text>
<text text-anchor="middle" x="236.25" y="-318.5" font-family="Helvetica,sans-Serif" font-size="10.00">::Equals</text>
</a>
</g>
</g>
<!-- Node2&#45;&gt;Node24 -->
<g id="edge29_Node000002_Node000024" class="edge">
<title>Node2&#45;&gt;Node24</title>
<g id="a_edge29_Node000002_Node000024"><a xlink:title=" ">
<path fill="none" stroke="#63b8ff" d="M520.06,-683.26C519.7,-682.85 519.34,-682.43 519,-682 471.22,-622.64 538.91,-392.78 483,-341 433.05,-294.74 349.95,-303.41 294.39,-316.52"/>
<polygon fill="#63b8ff" stroke="#63b8ff" points="517.79,-685.92 527.73,-689.59 522.25,-680.52 517.79,-685.92"/>
</a>
</g>
</g>
<!-- Node25 -->
<g id="Node000025" class="node">
<title>Node25</title>
<g id="a_Node000025"><a xlink:href="class_fiea_1_1_engine_1_1_tests_1_1_support_1_1_attribute_box_plus.html#a471ffd9c73fb39133c84d49b6c9f6557" target="_top" xlink:title="virtual function part of the vtable pointer. We are calling in the equality operator overloaded funct...">
<polygon fill="#fff0f0" stroke="red" points="135.25,-331 0,-331 0,-287 135.25,-287 135.25,-331"/>
<text text-anchor="start" x="8" y="-317.5" font-family="Helvetica,sans-Serif" font-size="10.00">Fiea::Engine::Tests</text>
<text text-anchor="start" x="8" y="-305.5" font-family="Helvetica,sans-Serif" font-size="10.00">::Support::AttributeBoxPlus</text>
<text text-anchor="middle" x="67.62" y="-293.5" font-family="Helvetica,sans-Serif" font-size="10.00">::Equals</text>
</a>
</g>
</g>
<!-- Node2&#45;&gt;Node25 -->
<g id="edge30_Node000002_Node000025" class="edge">
<title>Node2&#45;&gt;Node25</title>
<g id="a_edge30_Node000002_Node000025"><a xlink:title=" ">
<path fill="none" stroke="#63b8ff" d="M520.06,-683.26C519.69,-682.85 519.34,-682.43 519,-682 466.17,-615.64 545.74,-359.08 483,-302 433.84,-257.27 239.82,-280.75 135.63,-297.28"/>
<polygon fill="#63b8ff" stroke="#63b8ff" points="517.77,-685.91 527.7,-689.61 522.24,-680.53 517.77,-685.91"/>
</a>
</g>
</g>
<!-- Node29 -->
<g id="Node000029" class="node">
<title>Node29</title>
<g id="a_Node000029"><a xlink:href="class_fiea_1_1_engine_1_1_game_object.html#a1d65d71f93d2e93cc95fd305183a85b3" target="_top" xlink:title="virtual function part of the vtable pointer. We are calling in the equality operator overloaded funct...">
<polygon fill="#fff0f0" stroke="red" points="475.88,-256 344.38,-256 344.38,-224 475.88,-224 475.88,-256"/>
<text text-anchor="start" x="352.38" y="-242.5" font-family="Helvetica,sans-Serif" font-size="10.00">Fiea::Engine::GameObject</text>
<text text-anchor="middle" x="410.12" y="-230.5" font-family="Helvetica,sans-Serif" font-size="10.00">::Equals</text>
</a>
</g>
</g>
<!-- Node2&#45;&gt;Node29 -->
<g id="edge26_Node000002_Node000029" class="edge">
<title>Node2&#45;&gt;Node29</title>
<g id="a_edge26_Node000002_Node000029"><a xlink:title=" ">
<path fill="none" stroke="#63b8ff" d="M520.05,-683.27C519.69,-682.85 519.34,-682.43 519,-682 462.02,-609.89 537.24,-344.19 483,-270 479.01,-264.54 473.84,-260.07 468.09,-256.41"/>
<polygon fill="#63b8ff" stroke="#63b8ff" points="517.75,-685.91 527.67,-689.63 522.24,-680.53 517.75,-685.91"/>
</a>
</g>
</g>
<!-- Node31 -->
<g id="Node000031" class="node">
<title>Node31</title>
<g id="a_Node000031"><a xlink:href="class_fiea_1_1_engine_1_1_content_1_1_scope.html#a818e45429879149688d16d41b1b7b84b" target="_top" xlink:title="virtual function part of the vtable pointer. We are calling in the equality operator overloaded funct...">
<polygon fill="#fff0f0" stroke="red" points="465.75,-206 354.5,-206 354.5,-174 465.75,-174 465.75,-206"/>
<text text-anchor="start" x="362.5" y="-192.5" font-family="Helvetica,sans-Serif" font-size="10.00">Fiea::Engine::Content</text>
<text text-anchor="middle" x="410.12" y="-180.5" font-family="Helvetica,sans-Serif" font-size="10.00">::Scope::Equals</text>
</a>
</g>
</g>
<!-- Node2&#45;&gt;Node31 -->
<g id="edge27_Node000002_Node000031" class="edge">
<title>Node2&#45;&gt;Node31</title>
<g id="a_edge27_Node000002_Node000031"><a xlink:title=" ">
<path fill="none" stroke="#63b8ff" d="M520.05,-683.27C519.69,-682.86 519.34,-682.43 519,-682 454.88,-600.01 546.53,-297.45 483,-215 478.48,-209.14 472.5,-204.65 465.92,-201.2"/>
<polygon fill="#63b8ff" stroke="#63b8ff" points="517.73,-685.9 527.64,-689.66 522.24,-680.54 517.73,-685.9"/>
</a>
</g>
</g>
<!-- Node35 -->
<g id="Node000035" class="node">
<title>Node35</title>
<g id="a_Node000035"><a xlink:href="class_fiea_1_1_engine_1_1_tests_1_1_support_1_1_action_add_datum.html#a0ed516e0861f7c3527f552d39793c7d9" target="_top" xlink:title="virtual function part of the vtable pointer. We are calling in the equality operator overloaded funct...">
<polygon fill="white" stroke="#666666" points="478.12,-156 342.12,-156 342.12,-112 478.12,-112 478.12,-156"/>
<text text-anchor="start" x="350.12" y="-142.5" font-family="Helvetica,sans-Serif" font-size="10.00">Fiea::Engine::Tests</text>
<text text-anchor="start" x="350.12" y="-130.5" font-family="Helvetica,sans-Serif" font-size="10.00">::Support::ActionAddDatum</text>
<text text-anchor="middle" x="410.12" y="-118.5" font-family="Helvetica,sans-Serif" font-size="10.00">::Equals</text>
</a>
</g>
</g>
<!-- Node2&#45;&gt;Node35 -->
<g id="edge28_Node000002_Node000035" class="edge">
<title>Node2&#45;&gt;Node35</title>
<g id="a_edge28_Node000002_Node000035"><a xlink:title=" ">
<path fill="none" stroke="#63b8ff" d="M520.04,-683.27C519.68,-682.86 519.34,-682.43 519,-682 448.39,-591.01 549.59,-258.96 483,-165 480.72,-161.78 478.04,-158.9 475.07,-156.31"/>
<polygon fill="#63b8ff" stroke="#63b8ff" points="517.72,-685.89 527.61,-689.67 522.24,-680.55 517.72,-685.89"/>
</a>
</g>
</g>
<!-- Node36 -->
<g id="Node000036" class="node">
<title>Node36</title>
<g id="a_Node000036"><a xlink:href="class_fiea_1_1_engine_1_1_tests_1_1_support_1_1_empty.html#ac17095c56154cd6cd14932a0b7f2292d" target="_top" xlink:title=" ">
<polygon fill="white" stroke="#666666" points="473.25,-94 347,-94 347,-62 473.25,-62 473.25,-94"/>
<text text-anchor="start" x="355" y="-80.5" font-family="Helvetica,sans-Serif" font-size="10.00">Fiea::Engine::Tests</text>
<text text-anchor="middle" x="410.12" y="-68.5" font-family="Helvetica,sans-Serif" font-size="10.00">::Support::Empty::Equals</text>
</a>
</g>
</g>
<!-- Node2&#45;&gt;Node36 -->
<g id="edge31_Node000002_Node000036" class="edge">
<title>Node2&#45;&gt;Node36</title>
<g id="a_edge31_Node000002_Node000036"><a xlink:title=" ">
<path fill="none" stroke="#63b8ff" d="M520.01,-683.25C519.66,-682.84 519.33,-682.43 519,-682 440.34,-579.86 560.92,-205.7 483,-103 480.36,-99.53 477.21,-96.53 473.73,-93.95"/>
<polygon fill="#63b8ff" stroke="#63b8ff" points="517.46,-685.67 527.33,-689.52 522.01,-680.35 517.46,-685.67"/>
</a>
</g>
</g>
<!-- Node37 -->
<g id="Node000037" class="node">
<title>Node37</title>
<g id="a_Node000037"><a xlink:href="class_fiea_1_1_engine_1_1_tests_1_1_support_1_1_empty_child.html#a6ccae5ab7e49d64d2df52747c2d45b47" target="_top" xlink:title=" ">
<polygon fill="white" stroke="#666666" points="466.5,-44 353.75,-44 353.75,0 466.5,0 466.5,-44"/>
<text text-anchor="start" x="361.75" y="-30.5" font-family="Helvetica,sans-Serif" font-size="10.00">Fiea::Engine::Tests</text>
<text text-anchor="start" x="361.75" y="-18.5" font-family="Helvetica,sans-Serif" font-size="10.00">::Support::EmptyChild</text>
<text text-anchor="middle" x="410.12" y="-6.5" font-family="Helvetica,sans-Serif" font-size="10.00">::Equals</text>
</a>
</g>
</g>
<!-- Node2&#45;&gt;Node37 -->
<g id="edge32_Node000002_Node000037" class="edge">
<title>Node2&#45;&gt;Node37</title>
<g id="a_edge32_Node000002_Node000037"><a xlink:title=" ">
<path fill="none" stroke="#63b8ff" d="M520.01,-683.25C519.66,-682.84 519.33,-682.43 519,-682 433.85,-570.86 563.25,-167.73 483,-53 478.79,-46.99 473.16,-42.13 466.9,-38.21"/>
<polygon fill="#63b8ff" stroke="#63b8ff" points="517.45,-685.67 527.31,-689.53 522.01,-680.36 517.45,-685.67"/>
</a>
</g>
</g>
<!-- Node3&#45;&gt;Node4 -->
<g id="edge3_Node000003_Node000004" class="edge">
<title>Node3&#45;&gt;Node4</title>
<g id="a_edge3_Node000003_Node000004"><a xlink:title=" ">
<path fill="none" stroke="#63b8ff" d="M332.57,-1319.15C322.25,-1321.73 311.76,-1324.36 301.68,-1326.88"/>
<polygon fill="#63b8ff" stroke="#63b8ff" points="333.34,-1322.57 342.19,-1316.75 331.64,-1315.78 333.34,-1322.57"/>
</a>
</g>
</g>
<!-- Node3&#45;&gt;Node5 -->
<g id="edge4_Node000003_Node000005" class="edge">
<title>Node3&#45;&gt;Node5</title>
<g id="a_edge4_Node000003_Node000005"><a xlink:title=" ">
<path fill="none" stroke="#63b8ff" d="M325.83,-1293.22C314.39,-1292.28 302.88,-1291.35 292.12,-1290.47"/>
<polygon fill="#63b8ff" stroke="#63b8ff" points="325.47,-1296.7 335.72,-1294.02 326.04,-1289.72 325.47,-1296.7"/>
</a>
</g>
</g>
<!-- Node3&#45;&gt;Node6 -->
<g id="edge5_Node000003_Node000006" class="edge">
<title>Node3&#45;&gt;Node6</title>
<g id="a_edge5_Node000003_Node000006"><a xlink:title=" ">
<path fill="none" stroke="#63b8ff" d="M362.67,-1278.92C339.13,-1268.23 310.53,-1255.26 286.6,-1244.39"/>
<polygon fill="#63b8ff" stroke="#63b8ff" points="361.16,-1282.08 371.72,-1283.02 364.06,-1275.7 361.16,-1282.08"/>
</a>
</g>
</g>
<!-- Node23&#45;&gt;Node24 -->
<g id="edge24_Node000023_Node000024" class="edge">
<title>Node23&#45;&gt;Node24</title>
<g id="a_edge24_Node000023_Node000024"><a xlink:title=" ">
<path fill="none" stroke="#63b8ff" d="M343.33,-353.75C327.26,-350.76 310.18,-347.58 294.54,-344.67"/>
<polygon fill="#63b8ff" stroke="#63b8ff" points="342.31,-357.12 352.78,-355.51 343.59,-350.24 342.31,-357.12"/>
</a>
</g>
</g>
<!-- Node24&#45;&gt;Node25 -->
<g id="edge25_Node000024_Node000025" class="edge">
<title>Node24&#45;&gt;Node25</title>
<g id="a_edge25_Node000024_Node000025"><a xlink:title=" ">
<path fill="none" stroke="#63b8ff" d="M166.84,-323.74C156.5,-322.18 145.85,-320.59 135.54,-319.04"/>
<polygon fill="#63b8ff" stroke="#63b8ff" points="166,-327.15 176.41,-325.17 167.04,-320.23 166,-327.15"/>
</a>
</g>
</g>
</g>
</svg>
