<?xml version="1.0" encoding="UTF-8" standalone="no"?>
<!DOCTYPE svg PUBLIC "-//W3C//DTD SVG 1.1//EN"
 "http://www.w3.org/Graphics/SVG/1.1/DTD/svg11.dtd">
<!-- Generated by graphviz version 12.2.1 (20241206.2353)
 -->
<!-- Title: Fiea::Engine::Content::Attributed::Equals Pages: 1 -->
<svg width="614pt" height="164pt"
 viewBox="0.00 0.00 613.50 164.00" xmlns="http://www.w3.org/2000/svg" xmlns:xlink="http://www.w3.org/1999/xlink">
<g id="graph0" class="graph" transform="scale(1 1) rotate(0) translate(4 160)">
<title>Fiea::Engine::Content::Attributed::Equals</title>
<!-- Node1 -->
<g id="Node000001" class="node">
<title>Node1</title>
<g id="a_Node000001"><a xlink:title="virtual function part of the vtable pointer. We are calling in the equality operator overloaded funct...">
<polygon fill="#999999" stroke="#666666" points="605.5,-88 494.25,-88 494.25,-56 605.5,-56 605.5,-88"/>
<text text-anchor="start" x="502.25" y="-74.5" font-family="Helvetica,sans-Serif" font-size="10.00">Fiea::Engine::Content</text>
<text text-anchor="middle" x="549.88" y="-62.5" font-family="Helvetica,sans-Serif" font-size="10.00">::Attributed::Equals</text>
</a>
</g>
</g>
<!-- Node2 -->
<g id="Node000002" class="node">
<title>Node2</title>
<g id="a_Node000002"><a xlink:href="class_fiea_1_1_engine_1_1_tests_1_1_support_1_1_attribute_box.html#a95770764ad20e7eec64a873b620abf0b" target="_top" xlink:title="virtual function part of the vtable pointer. We are calling in the equality operator overloaded funct...">
<polygon fill="white" stroke="#666666" points="458.25,-94 342.5,-94 342.5,-50 458.25,-50 458.25,-94"/>
<text text-anchor="start" x="350.5" y="-80.5" font-family="Helvetica,sans-Serif" font-size="10.00">Fiea::Engine::Tests</text>
<text text-anchor="start" x="350.5" y="-68.5" font-family="Helvetica,sans-Serif" font-size="10.00">::Support::AttributeBox</text>
<text text-anchor="middle" x="400.38" y="-56.5" font-family="Helvetica,sans-Serif" font-size="10.00">::Equals</text>
</a>
</g>
</g>
<!-- Node1&#45;&gt;Node2 -->
<g id="edge1_Node000001_Node000002" class="edge">
<title>Node1&#45;&gt;Node2</title>
<g id="a_edge1_Node000001_Node000002"><a xlink:title=" ">
<path fill="none" stroke="#63b8ff" d="M482.61,-72C474.5,-72 466.27,-72 458.32,-72"/>
<polygon fill="#63b8ff" stroke="#63b8ff" points="482.44,-75.5 492.44,-72 482.44,-68.5 482.44,-75.5"/>
</a>
</g>
</g>
<!-- Node3 -->
<g id="Node000003" class="node">
<title>Node3</title>
<g id="a_Node000003"><a xlink:href="class_fiea_1_1_engine_1_1_tests_1_1_support_1_1_attribute_box_plus.html#a471ffd9c73fb39133c84d49b6c9f6557" target="_top" xlink:title="virtual function part of the vtable pointer. We are calling in the equality operator overloaded funct...">
<polygon fill="white" stroke="#666666" points="306.5,-156 171.25,-156 171.25,-112 306.5,-112 306.5,-156"/>
<text text-anchor="start" x="179.25" y="-142.5" font-family="Helvetica,sans-Serif" font-size="10.00">Fiea::Engine::Tests</text>
<text text-anchor="start" x="179.25" y="-130.5" font-family="Helvetica,sans-Serif" font-size="10.00">::Support::AttributeBoxPlus</text>
<text text-anchor="middle" x="238.88" y="-118.5" font-family="Helvetica,sans-Serif" font-size="10.00">::Equals</text>
</a>
</g>
</g>
<!-- Node2&#45;&gt;Node3 -->
<g id="edge2_Node000002_Node000003" class="edge">
<title>Node2&#45;&gt;Node3</title>
<g id="a_edge2_Node000002_Node000003"><a xlink:title=" ">
<path fill="none" stroke="#63b8ff" d="M331.56,-98.36C320.28,-102.74 308.68,-107.25 297.68,-111.53"/>
<polygon fill="#63b8ff" stroke="#63b8ff" points="332.78,-101.64 340.83,-94.76 330.24,-95.12 332.78,-101.64"/>
</a>
</g>
</g>
<!-- Node5 -->
<g id="Node000005" class="node">
<title>Node5</title>
<g id="a_Node000005"><a xlink:href="class_fiea_1_1_engine_1_1_tests_1_1_support_1_1_attribute_box.html#ac02c1174e15d196968920eee30fc085b" target="_top" xlink:title=" ">
<polygon fill="white" stroke="#666666" points="296.75,-94 181,-94 181,-50 296.75,-50 296.75,-94"/>
<text text-anchor="start" x="189" y="-80.5" font-family="Helvetica,sans-Serif" font-size="10.00">Fiea::Engine::Tests</text>
<text text-anchor="start" x="189" y="-68.5" font-family="Helvetica,sans-Serif" font-size="10.00">::Support::AttributeBox</text>
<text text-anchor="middle" x="238.88" y="-56.5" font-family="Helvetica,sans-Serif" font-size="10.00">::operator==</text>
</a>
</g>
</g>
<!-- Node2&#45;&gt;Node5 -->
<g id="edge4_Node000002_Node000005" class="edge">
<title>Node2&#45;&gt;Node5</title>
<g id="a_edge4_Node000002_Node000005"><a xlink:title=" ">
<path fill="none" stroke="#63b8ff" d="M331.07,-72C319.77,-72 308.14,-72 297.14,-72"/>
<polygon fill="#63b8ff" stroke="#63b8ff" points="330.73,-75.5 340.73,-72 330.73,-68.5 330.73,-75.5"/>
</a>
</g>
</g>
<!-- Node6 -->
<g id="Node000006" class="node">
<title>Node6</title>
<g id="a_Node000006"><a xlink:href="namespace_fiea_1_1_engine_1_1_tests.html#acf19d1e24b6e04bb3eefd39b994f462d" target="_top" xlink:title=" ">
<polygon fill="white" stroke="#666666" points="289.25,-32 188.5,-32 188.5,0 289.25,0 289.25,-32"/>
<text text-anchor="start" x="196.5" y="-18.5" font-family="Helvetica,sans-Serif" font-size="10.00">Fiea::Engine::Tests</text>
<text text-anchor="middle" x="238.88" y="-6.5" font-family="Helvetica,sans-Serif" font-size="10.00">::TEST_CLASS</text>
</a>
</g>
</g>
<!-- Node2&#45;&gt;Node6 -->
<g id="edge5_Node000002_Node000006" class="edge">
<title>Node2&#45;&gt;Node6</title>
<g id="a_edge5_Node000002_Node000006"><a xlink:title=" ">
<path fill="none" stroke="#63b8ff" d="M331.39,-48.13C316.31,-42.84 300.65,-37.34 286.64,-32.42"/>
<polygon fill="#63b8ff" stroke="#63b8ff" points="330.22,-51.43 340.81,-51.44 332.54,-44.82 330.22,-51.43"/>
</a>
</g>
</g>
<!-- Node4 -->
<g id="Node000004" class="node">
<title>Node4</title>
<g id="a_Node000004"><a xlink:href="class_fiea_1_1_engine_1_1_tests_1_1_support_1_1_attribute_box_plus.html#a6092c3f5b768e473a7f4195257aceb8b" target="_top" xlink:title=" ">
<polygon fill="white" stroke="#666666" points="135.25,-156 0,-156 0,-112 135.25,-112 135.25,-156"/>
<text text-anchor="start" x="8" y="-142.5" font-family="Helvetica,sans-Serif" font-size="10.00">Fiea::Engine::Tests</text>
<text text-anchor="start" x="8" y="-130.5" font-family="Helvetica,sans-Serif" font-size="10.00">::Support::AttributeBoxPlus</text>
<text text-anchor="middle" x="67.62" y="-118.5" font-family="Helvetica,sans-Serif" font-size="10.00">::operator==</text>
</a>
</g>
</g>
<!-- Node3&#45;&gt;Node4 -->
<g id="edge3_Node000003_Node000004" class="edge">
<title>Node3&#45;&gt;Node4</title>
<g id="a_edge3_Node000003_Node000004"><a xlink:title=" ">
<path fill="none" stroke="#63b8ff" d="M159.68,-134C151.63,-134 143.5,-134 135.59,-134"/>
<polygon fill="#63b8ff" stroke="#63b8ff" points="159.47,-137.5 169.47,-134 159.47,-130.5 159.47,-137.5"/>
</a>
</g>
</g>
</g>
</svg>
