<?xml version="1.0" encoding="UTF-8" standalone="no"?>
<!DOCTYPE svg PUBLIC "-//W3C//DTD SVG 1.1//EN"
 "http://www.w3.org/Graphics/SVG/1.1/DTD/svg11.dtd">
<!-- Generated by graphviz version 12.2.1 (20241206.2353)
 -->
<!-- Title: Fiea::Engine::Content::ArrayHandler::HandlerId Pages: 1 -->
<svg width="297pt" height="90pt"
 viewBox="0.00 0.00 296.50 90.00" xmlns="http://www.w3.org/2000/svg" xmlns:xlink="http://www.w3.org/1999/xlink">
<g id="graph0" class="graph" transform="scale(1 1) rotate(0) translate(4 86)">
<title>Fiea::Engine::Content::ArrayHandler::HandlerId</title>
<!-- Node1 -->
<g id="Node000001" class="node">
<title>Node1</title>
<g id="a_Node000001"><a xlink:title=" ">
<polygon fill="#999999" stroke="#666666" points="288.5,-57 161.5,-57 161.5,-25 288.5,-25 288.5,-57"/>
<text text-anchor="start" x="169.5" y="-43.5" font-family="Helvetica,sans-Serif" font-size="10.00">Fiea::Engine::Content</text>
<text text-anchor="middle" x="225" y="-31.5" font-family="Helvetica,sans-Serif" font-size="10.00">::ArrayHandler::HandlerId</text>
</a>
</g>
</g>
<!-- Node2 -->
<g id="Node000002" class="node">
<title>Node2</title>
<g id="a_Node000002"><a xlink:href="class_fiea_1_1_engine_1_1_content_1_1_array_handler.html#a12c964e02fd52210a503839f93f9bcd5" target="_top" xlink:title=" ">
<polygon fill="white" stroke="#666666" points="125.5,-82 0,-82 0,-50 125.5,-50 125.5,-82"/>
<text text-anchor="start" x="8" y="-68.5" font-family="Helvetica,sans-Serif" font-size="10.00">Fiea::Engine::Content</text>
<text text-anchor="middle" x="62.75" y="-56.5" font-family="Helvetica,sans-Serif" font-size="10.00">::ArrayHandler::EnterKey</text>
</a>
</g>
</g>
<!-- Node1&#45;&gt;Node2 -->
<g id="edge1_Node000001_Node000002" class="edge">
<title>Node1&#45;&gt;Node2</title>
<g id="a_edge1_Node000001_Node000002"><a xlink:title=" ">
<path fill="none" stroke="#63b8ff" d="M149.88,-52.56C141.87,-53.81 133.77,-55.08 125.92,-56.3"/>
<polygon fill="#63b8ff" stroke="#63b8ff" points="150.29,-56.04 159.63,-51.04 149.21,-49.13 150.29,-56.04"/>
</a>
</g>
</g>
<!-- Node3 -->
<g id="Node000003" class="node">
<title>Node3</title>
<g id="a_Node000003"><a xlink:href="class_fiea_1_1_engine_1_1_content_1_1_array_handler.html#ad73a1f195217bd25e227ae2081eb1496" target="_top" xlink:title=" ">
<polygon fill="white" stroke="#666666" points="122.5,-32 3,-32 3,0 122.5,0 122.5,-32"/>
<text text-anchor="start" x="11" y="-18.5" font-family="Helvetica,sans-Serif" font-size="10.00">Fiea::Engine::Content</text>
<text text-anchor="middle" x="62.75" y="-6.5" font-family="Helvetica,sans-Serif" font-size="10.00">::ArrayHandler::ExitKey</text>
</a>
</g>
</g>
<!-- Node1&#45;&gt;Node3 -->
<g id="edge2_Node000001_Node000003" class="edge">
<title>Node1&#45;&gt;Node3</title>
<g id="a_edge2_Node000001_Node000003"><a xlink:title=" ">
<path fill="none" stroke="#63b8ff" d="M149.76,-29.42C140.71,-28.01 131.56,-26.58 122.78,-25.21"/>
<polygon fill="#63b8ff" stroke="#63b8ff" points="149.21,-32.87 159.63,-30.96 150.29,-25.96 149.21,-32.87"/>
</a>
</g>
</g>
</g>
</svg>
