<?xml version="1.0" encoding="UTF-8" standalone="no"?>
<!DOCTYPE svg PUBLIC "-//W3C//DTD SVG 1.1//EN"
 "http://www.w3.org/Graphics/SVG/1.1/DTD/svg11.dtd">
<!-- Generated by graphviz version 12.2.1 (20241206.2353)
 -->
<!-- Title: Fiea::Engine::Content::ArrayHandler::ExitKey Pages: 1 -->
<svg width="478pt" height="202pt"
 viewBox="0.00 0.00 478.25 202.00" xmlns="http://www.w3.org/2000/svg" xmlns:xlink="http://www.w3.org/1999/xlink">
<g id="graph0" class="graph" transform="scale(1 1) rotate(0) translate(4 198)">
<title>Fiea::Engine::Content::ArrayHandler::ExitKey</title>
<!-- Node1 -->
<g id="Node000001" class="node">
<title>Node1</title>
<g id="a_Node000001"><a xlink:title=" ">
<polygon fill="#999999" stroke="#666666" points="119.5,-128 0,-128 0,-96 119.5,-96 119.5,-128"/>
<text text-anchor="start" x="8" y="-114.5" font-family="Helvetica,sans-Serif" font-size="10.00">Fiea::Engine::Content</text>
<text text-anchor="middle" x="59.75" y="-102.5" font-family="Helvetica,sans-Serif" font-size="10.00">::ArrayHandler::ExitKey</text>
</a>
</g>
</g>
<!-- Node2 -->
<g id="Node000002" class="node">
<title>Node2</title>
<g id="a_Node000002"><a xlink:href="class_fiea_1_1_engine_1_1_r_t_t_i.html#a15bd5993c8ad04da47af440298ebbb30" target="_top" xlink:title=" ">
<polygon fill="white" stroke="#666666" points="285.5,-194 169,-194 169,-174 285.5,-174 285.5,-194"/>
<text text-anchor="middle" x="227.25" y="-180.5" font-family="Helvetica,sans-Serif" font-size="10.00">Fiea::Engine::RTTI::As</text>
</a>
</g>
</g>
<!-- Node1&#45;&gt;Node2 -->
<g id="edge1_Node000001_Node000002" class="edge">
<title>Node1&#45;&gt;Node2</title>
<g id="a_edge1_Node000001_Node000002"><a xlink:title=" ">
<path fill="none" stroke="#63b8ff" d="M86.03,-128.42C104.64,-139.93 130.88,-154.99 155.5,-165 160.13,-166.88 165.01,-168.64 169.95,-170.25"/>
<polygon fill="#63b8ff" stroke="#63b8ff" points="168.75,-173.55 179.34,-173.14 170.81,-166.86 168.75,-173.55"/>
</a>
</g>
</g>
<!-- Node4 -->
<g id="Node000004" class="node">
<title>Node4</title>
<g id="a_Node000004"><a xlink:href="class_fiea_1_1_engine_1_1_content_1_1_array_handler.html#a746a80f484638eb130dc70b3f53d3193" target="_top" xlink:title=" ">
<polygon fill="white" stroke="#666666" points="290.75,-156 163.75,-156 163.75,-124 290.75,-124 290.75,-156"/>
<text text-anchor="start" x="171.75" y="-142.5" font-family="Helvetica,sans-Serif" font-size="10.00">Fiea::Engine::Content</text>
<text text-anchor="middle" x="227.25" y="-130.5" font-family="Helvetica,sans-Serif" font-size="10.00">::ArrayHandler::HandlerId</text>
</a>
</g>
</g>
<!-- Node1&#45;&gt;Node4 -->
<g id="edge3_Node000001_Node000004" class="edge">
<title>Node1&#45;&gt;Node4</title>
<g id="a_edge3_Node000001_Node000004"><a xlink:title=" ">
<path fill="none" stroke="#63b8ff" d="M119.57,-121.95C130.12,-123.74 141.23,-125.62 152.15,-127.46"/>
<polygon fill="#63b8ff" stroke="#63b8ff" points="151.48,-130.9 161.93,-129.12 152.65,-124 151.48,-130.9"/>
</a>
</g>
</g>
<!-- Node5 -->
<g id="Node000005" class="node">
<title>Node5</title>
<g id="a_Node000005"><a xlink:href="class_fiea_1_1_engine_1_1_content_1_1_scope_writer.html#a9b532cf2870d114a3cb24555ddd1cba5" target="_top" xlink:title=" ">
<polygon fill="white" stroke="#666666" points="297.5,-106 157,-106 157,-62 297.5,-62 297.5,-106"/>
<text text-anchor="start" x="165" y="-92.5" font-family="Helvetica,sans-Serif" font-size="10.00">Fiea::Engine::Content</text>
<text text-anchor="start" x="165" y="-80.5" font-family="Helvetica,sans-Serif" font-size="10.00">::ScopeWriter::IsKeyStorage</text>
<text text-anchor="middle" x="227.25" y="-68.5" font-family="Helvetica,sans-Serif" font-size="10.00">External</text>
</a>
</g>
</g>
<!-- Node1&#45;&gt;Node5 -->
<g id="edge4_Node000001_Node000005" class="edge">
<title>Node1&#45;&gt;Node5</title>
<g id="a_edge4_Node000001_Node000005"><a xlink:title=" ">
<path fill="none" stroke="#63b8ff" d="M119.57,-102.05C127.9,-100.64 136.59,-99.17 145.25,-97.7"/>
<polygon fill="#63b8ff" stroke="#63b8ff" points="145.82,-101.16 155.1,-96.04 144.65,-94.26 145.82,-101.16"/>
</a>
</g>
</g>
<!-- Node8 -->
<g id="Node000008" class="node">
<title>Node8</title>
<g id="a_Node000008"><a xlink:href="class_fiea_1_1_engine_1_1_content_1_1_scope_writer.html#a96567b341d87af6a4c24c85b35bdb3e4" target="_top" xlink:title="The Handler that set external data status should be the one to reset it.">
<polygon fill="white" stroke="#666666" points="299,-44 155.5,-44 155.5,0 299,0 299,-44"/>
<text text-anchor="start" x="163.5" y="-30.5" font-family="Helvetica,sans-Serif" font-size="10.00">Fiea::Engine::Content</text>
<text text-anchor="start" x="163.5" y="-18.5" font-family="Helvetica,sans-Serif" font-size="10.00">::ScopeWriter::ResetExternal</text>
<text text-anchor="middle" x="227.25" y="-6.5" font-family="Helvetica,sans-Serif" font-size="10.00">DataTeller</text>
</a>
</g>
</g>
<!-- Node1&#45;&gt;Node8 -->
<g id="edge7_Node000001_Node000008" class="edge">
<title>Node1&#45;&gt;Node8</title>
<g id="a_edge7_Node000001_Node000008"><a xlink:title=" ">
<path fill="none" stroke="#63b8ff" d="M84.72,-95.73C103.55,-83.29 130.64,-66.1 155.5,-53 157.85,-51.76 160.26,-50.53 162.71,-49.31"/>
<polygon fill="#63b8ff" stroke="#63b8ff" points="164.08,-52.53 171.57,-45.03 161.04,-46.23 164.08,-52.53"/>
</a>
</g>
</g>
<!-- Node3 -->
<g id="Node000003" class="node">
<title>Node3</title>
<g id="a_Node000003"><a xlink:href="class_fiea_1_1_engine_1_1_r_t_t_i.html#ac0a7d875e4513b2aca7594abcd4418ef" target="_top" xlink:title=" ">
<polygon fill="white" stroke="#666666" points="459,-194 346.25,-194 346.25,-174 459,-174 459,-194"/>
<text text-anchor="middle" x="402.62" y="-180.5" font-family="Helvetica,sans-Serif" font-size="10.00">Fiea::Engine::RTTI::Is</text>
</a>
</g>
</g>
<!-- Node2&#45;&gt;Node3 -->
<g id="edge2_Node000002_Node000003" class="edge">
<title>Node2&#45;&gt;Node3</title>
<g id="a_edge2_Node000002_Node000003"><a xlink:title=" ">
<path fill="none" stroke="#63b8ff" d="M285.98,-184C301.52,-184 318.46,-184 334.46,-184"/>
<polygon fill="#63b8ff" stroke="#63b8ff" points="334.4,-187.5 344.4,-184 334.4,-180.5 334.4,-187.5"/>
</a>
</g>
</g>
<!-- Node6 -->
<g id="Node000006" class="node">
<title>Node6</title>
<g id="a_Node000006"><a xlink:href="class_fiea_1_1_engine_1_1_content_1_1_scope.html#ad924c01785b239991fc0e56a63295612" target="_top" xlink:title="Return the Datum at the requested key, or nullptr if not found.">
<polygon fill="white" stroke="#666666" points="458.25,-125 347,-125 347,-93 458.25,-93 458.25,-125"/>
<text text-anchor="start" x="355" y="-111.5" font-family="Helvetica,sans-Serif" font-size="10.00">Fiea::Engine::Content</text>
<text text-anchor="middle" x="402.62" y="-99.5" font-family="Helvetica,sans-Serif" font-size="10.00">::Scope::Find</text>
</a>
</g>
</g>
<!-- Node5&#45;&gt;Node6 -->
<g id="edge5_Node000005_Node000006" class="edge">
<title>Node5&#45;&gt;Node6</title>
<g id="a_edge5_Node000005_Node000006"><a xlink:title=" ">
<path fill="none" stroke="#63b8ff" d="M297.77,-94.02C310.25,-95.82 323.22,-97.69 335.6,-99.48"/>
<polygon fill="#63b8ff" stroke="#63b8ff" points="334.87,-102.91 345.26,-100.87 335.87,-95.98 334.87,-102.91"/>
</a>
</g>
</g>
<!-- Node7 -->
<g id="Node000007" class="node">
<title>Node7</title>
<g id="a_Node000007"><a xlink:href="class_fiea_1_1_engine_1_1_content_1_1_datum.html#a9b05337db582483976624ab93839bfa7" target="_top" xlink:title=" ">
<polygon fill="white" stroke="#666666" points="470.25,-75 335,-75 335,-43 470.25,-43 470.25,-75"/>
<text text-anchor="start" x="343" y="-61.5" font-family="Helvetica,sans-Serif" font-size="10.00">Fiea::Engine::Content</text>
<text text-anchor="middle" x="402.62" y="-49.5" font-family="Helvetica,sans-Serif" font-size="10.00">::Datum::IsStorageExternal</text>
</a>
</g>
</g>
<!-- Node5&#45;&gt;Node7 -->
<g id="edge6_Node000005_Node000007" class="edge">
<title>Node5&#45;&gt;Node7</title>
<g id="a_edge6_Node000005_Node000007"><a xlink:title=" ">
<path fill="none" stroke="#63b8ff" d="M297.77,-73.98C306.22,-72.76 314.9,-71.51 323.46,-70.27"/>
<polygon fill="#63b8ff" stroke="#63b8ff" points="323.73,-73.77 333.13,-68.88 322.73,-66.84 323.73,-73.77"/>
</a>
</g>
</g>
</g>
</svg>
