<?xml version="1.0" encoding="UTF-8" standalone="no"?>
<!DOCTYPE svg PUBLIC "-//W3C//DTD SVG 1.1//EN"
 "http://www.w3.org/Graphics/SVG/1.1/DTD/svg11.dtd">
<!-- Generated by graphviz version 12.2.1 (20241206.2353)
 -->
<!-- Title: Fiea::Engine::Content::Actions::TimedAction::Run Pages: 1 -->
<svg width="488pt" height="328pt"
 viewBox="0.00 0.00 488.00 328.00" xmlns="http://www.w3.org/2000/svg" xmlns:xlink="http://www.w3.org/1999/xlink">
<g id="graph0" class="graph" transform="scale(1 1) rotate(0) translate(4 324)">
<title>Fiea::Engine::Content::Actions::TimedAction::Run</title>
<!-- Node1 -->
<g id="Node000001" class="node">
<title>Node1</title>
<g id="a_Node000001"><a xlink:title="Executes all the actions the TimedAction contains. It checks if the current time is less than the tar...">
<polygon fill="#999999" stroke="#666666" points="139.75,-207 0,-207 0,-175 139.75,-175 139.75,-207"/>
<text text-anchor="start" x="8" y="-193.5" font-family="Helvetica,sans-Serif" font-size="10.00">Fiea::Engine::Content</text>
<text text-anchor="middle" x="69.88" y="-181.5" font-family="Helvetica,sans-Serif" font-size="10.00">::Actions::TimedAction::Run</text>
</a>
</g>
</g>
<!-- Node2 -->
<g id="Node000002" class="node">
<title>Node2</title>
<g id="a_Node000002"><a xlink:href="class_fiea_1_1_engine_1_1_r_t_t_i.html#a15bd5993c8ad04da47af440298ebbb30" target="_top" xlink:title=" ">
<polygon fill="white" stroke="#666666" points="302.75,-320 186.25,-320 186.25,-300 302.75,-300 302.75,-320"/>
<text text-anchor="middle" x="244.5" y="-306.5" font-family="Helvetica,sans-Serif" font-size="10.00">Fiea::Engine::RTTI::As</text>
</a>
</g>
</g>
<!-- Node1&#45;&gt;Node2 -->
<g id="edge1_Node000001_Node000002" class="edge">
<title>Node1&#45;&gt;Node2</title>
<g id="a_edge1_Node000001_Node000002"><a xlink:title=" ">
<path fill="none" stroke="#63b8ff" d="M83.62,-207.4C101.73,-229.6 137.05,-268.97 175.75,-291 178.54,-292.59 181.46,-294.05 184.47,-295.39"/>
<polygon fill="#63b8ff" stroke="#63b8ff" points="182.95,-298.55 193.54,-298.97 185.52,-292.04 182.95,-298.55"/>
</a>
</g>
</g>
<!-- Node4 -->
<g id="Node000004" class="node">
<title>Node4</title>
<g id="a_Node000004"><a xlink:href="class_fiea_1_1_engine_1_1_content_1_1_scope.html#ad924c01785b239991fc0e56a63295612" target="_top" xlink:title="Return the Datum at the requested key, or nullptr if not found.">
<polygon fill="white" stroke="#666666" points="300.12,-282 188.88,-282 188.88,-250 300.12,-250 300.12,-282"/>
<text text-anchor="start" x="196.88" y="-268.5" font-family="Helvetica,sans-Serif" font-size="10.00">Fiea::Engine::Content</text>
<text text-anchor="middle" x="244.5" y="-256.5" font-family="Helvetica,sans-Serif" font-size="10.00">::Scope::Find</text>
</a>
</g>
</g>
<!-- Node1&#45;&gt;Node4 -->
<g id="edge3_Node000001_Node000004" class="edge">
<title>Node1&#45;&gt;Node4</title>
<g id="a_edge3_Node000001_Node000004"><a xlink:title=" ">
<path fill="none" stroke="#63b8ff" d="M103.12,-207.31C123.69,-217.48 151.03,-230.57 175.75,-241 179.32,-242.51 183.02,-244.02 186.77,-245.5"/>
<polygon fill="#63b8ff" stroke="#63b8ff" points="185.36,-248.71 195.95,-249.07 187.89,-242.19 185.36,-248.71"/>
</a>
</g>
</g>
<!-- Node5 -->
<g id="Node000005" class="node">
<title>Node5</title>
<g id="a_Node000005"><a xlink:href="class_fiea_1_1_engine_1_1_content_1_1_datum.html#a3763d03e7b219e3ba257b09a7719795c" target="_top" xlink:title=" ">
<polygon fill="white" stroke="#666666" points="300.12,-232 188.88,-232 188.88,-200 300.12,-200 300.12,-232"/>
<text text-anchor="start" x="196.88" y="-218.5" font-family="Helvetica,sans-Serif" font-size="10.00">Fiea::Engine::Content</text>
<text text-anchor="middle" x="244.5" y="-206.5" font-family="Helvetica,sans-Serif" font-size="10.00">::Datum::Get</text>
</a>
</g>
</g>
<!-- Node1&#45;&gt;Node5 -->
<g id="edge4_Node000001_Node000005" class="edge">
<title>Node1&#45;&gt;Node5</title>
<g id="a_edge4_Node000001_Node000005"><a xlink:title=" ">
<path fill="none" stroke="#63b8ff" d="M140.09,-201.02C152.45,-202.81 165.28,-204.67 177.54,-206.45"/>
<polygon fill="#63b8ff" stroke="#63b8ff" points="176.71,-209.86 187.11,-207.83 177.71,-202.94 176.71,-209.86"/>
</a>
</g>
</g>
<!-- Node6 -->
<g id="Node000006" class="node">
<title>Node6</title>
<g id="a_Node000006"><a xlink:href="class_fiea_1_1_engine_1_1_content_1_1_datum.html#acae68c3bc8b20345e4c3790fa37bd8d5" target="_top" xlink:title=" ">
<polygon fill="white" stroke="#666666" points="300.12,-182 188.88,-182 188.88,-150 300.12,-150 300.12,-182"/>
<text text-anchor="start" x="196.88" y="-168.5" font-family="Helvetica,sans-Serif" font-size="10.00">Fiea::Engine::Content</text>
<text text-anchor="middle" x="244.5" y="-156.5" font-family="Helvetica,sans-Serif" font-size="10.00">::Datum::Size</text>
</a>
</g>
</g>
<!-- Node1&#45;&gt;Node6 -->
<g id="edge5_Node000001_Node000006" class="edge">
<title>Node1&#45;&gt;Node6</title>
<g id="a_edge5_Node000001_Node000006"><a xlink:title=" ">
<path fill="none" stroke="#63b8ff" d="M140.09,-180.98C152.45,-179.19 165.28,-177.33 177.54,-175.55"/>
<polygon fill="#63b8ff" stroke="#63b8ff" points="177.71,-179.06 187.11,-174.17 176.71,-172.14 177.71,-179.06"/>
</a>
</g>
</g>
<!-- Node7 -->
<g id="Node000007" class="node">
<title>Node7</title>
<g id="a_Node000007"><a xlink:href="struct_fiea_1_1_engine_1_1_i_time_provider.html#a78bbdd14a10bc04e81b627cda29c4552" target="_top" xlink:title=" ">
<polygon fill="white" stroke="#666666" points="313.25,-132 175.75,-132 175.75,-100 313.25,-100 313.25,-132"/>
<text text-anchor="start" x="183.75" y="-118.5" font-family="Helvetica,sans-Serif" font-size="10.00">Fiea::Engine::ITimeProvider</text>
<text text-anchor="middle" x="244.5" y="-106.5" font-family="Helvetica,sans-Serif" font-size="10.00">::Time</text>
</a>
</g>
</g>
<!-- Node1&#45;&gt;Node7 -->
<g id="edge6_Node000001_Node000007" class="edge">
<title>Node1&#45;&gt;Node7</title>
<g id="a_edge6_Node000001_Node000007"><a xlink:title=" ">
<path fill="none" stroke="#63b8ff" d="M103.12,-174.69C123.69,-164.52 151.03,-151.43 175.75,-141 179.32,-139.49 183.02,-137.98 186.77,-136.5"/>
<polygon fill="#63b8ff" stroke="#63b8ff" points="187.89,-139.81 195.95,-132.93 185.36,-133.29 187.89,-139.81"/>
</a>
</g>
</g>
<!-- Node8 -->
<g id="Node000008" class="node">
<title>Node8</title>
<g id="a_Node000008"><a xlink:href="class_fiea_1_1_engine_1_1_content_1_1_actions_1_1_action.html#a698815d895c6612c8ae91f6094d1c297" target="_top" xlink:title="Update is not a virtual function, the actions users of engine define will define Init,...">
<polygon fill="white" stroke="#666666" points="307.62,-82 181.38,-82 181.38,-50 307.62,-50 307.62,-82"/>
<text text-anchor="start" x="189.38" y="-68.5" font-family="Helvetica,sans-Serif" font-size="10.00">Fiea::Engine::Content</text>
<text text-anchor="middle" x="244.5" y="-56.5" font-family="Helvetica,sans-Serif" font-size="10.00">::Actions::Action::Update</text>
</a>
</g>
</g>
<!-- Node1&#45;&gt;Node8 -->
<g id="edge7_Node000001_Node000008" class="edge">
<title>Node1&#45;&gt;Node8</title>
<g id="a_edge7_Node000001_Node000008"><a xlink:title=" ">
<path fill="none" stroke="#63b8ff" d="M84.19,-174.67C102.7,-152.91 138.18,-114.43 175.75,-91 177.74,-89.76 179.81,-88.56 181.93,-87.41"/>
<polygon fill="#63b8ff" stroke="#63b8ff" points="183.34,-90.62 190.76,-83.06 180.24,-84.34 183.34,-90.62"/>
</a>
</g>
</g>
<!-- Node3 -->
<g id="Node000003" class="node">
<title>Node3</title>
<g id="a_Node000003"><a xlink:href="class_fiea_1_1_engine_1_1_r_t_t_i.html#ac0a7d875e4513b2aca7594abcd4418ef" target="_top" xlink:title=" ">
<polygon fill="white" stroke="#666666" points="471,-320 358.25,-320 358.25,-300 471,-300 471,-320"/>
<text text-anchor="middle" x="414.62" y="-306.5" font-family="Helvetica,sans-Serif" font-size="10.00">Fiea::Engine::RTTI::Is</text>
</a>
</g>
</g>
<!-- Node2&#45;&gt;Node3 -->
<g id="edge2_Node000002_Node000003" class="edge">
<title>Node2&#45;&gt;Node3</title>
<g id="a_edge2_Node000002_Node000003"><a xlink:title=" ">
<path fill="none" stroke="#63b8ff" d="M302.89,-310C316.93,-310 332.07,-310 346.51,-310"/>
<polygon fill="#63b8ff" stroke="#63b8ff" points="346.4,-313.5 356.4,-310 346.4,-306.5 346.4,-313.5"/>
</a>
</g>
</g>
<!-- Node9 -->
<g id="Node000009" class="node">
<title>Node9</title>
<g id="a_Node000009"><a xlink:href="class_fiea_1_1_engine_1_1_content_1_1_actions_1_1_action.html#a5636a08196087a24b791b1ba4665a482" target="_top" xlink:title=" ">
<polygon fill="white" stroke="#666666" points="480,-132 349.25,-132 349.25,-100 480,-100 480,-132"/>
<text text-anchor="start" x="357.25" y="-118.5" font-family="Helvetica,sans-Serif" font-size="10.00">Fiea::Engine::Content</text>
<text text-anchor="middle" x="414.62" y="-106.5" font-family="Helvetica,sans-Serif" font-size="10.00">::Actions::Action::Cleanup</text>
</a>
</g>
</g>
<!-- Node8&#45;&gt;Node9 -->
<g id="edge8_Node000008_Node000009" class="edge">
<title>Node8&#45;&gt;Node9</title>
<g id="a_edge8_Node000008_Node000009"><a xlink:title=" ">
<path fill="none" stroke="#63b8ff" d="M300.55,-82.37C315.57,-86.84 331.99,-91.72 347.56,-96.35"/>
<polygon fill="#63b8ff" stroke="#63b8ff" points="346.13,-99.58 356.71,-99.07 348.13,-92.87 346.13,-99.58"/>
</a>
</g>
</g>
<!-- Node10 -->
<g id="Node000010" class="node">
<title>Node10</title>
<g id="a_Node000010"><a xlink:href="class_fiea_1_1_engine_1_1_content_1_1_actions_1_1_action.html#afbbf5653a40406d12c647ef1f00942e0" target="_top" xlink:title=" ">
<polygon fill="white" stroke="#666666" points="470.25,-82 359,-82 359,-50 470.25,-50 470.25,-82"/>
<text text-anchor="start" x="367" y="-68.5" font-family="Helvetica,sans-Serif" font-size="10.00">Fiea::Engine::Content</text>
<text text-anchor="middle" x="414.62" y="-56.5" font-family="Helvetica,sans-Serif" font-size="10.00">::Actions::Action::Init</text>
</a>
</g>
</g>
<!-- Node8&#45;&gt;Node10 -->
<g id="edge9_Node000008_Node000010" class="edge">
<title>Node8&#45;&gt;Node10</title>
<g id="a_edge9_Node000008_Node000010"><a xlink:title=" ">
<path fill="none" stroke="#63b8ff" d="M308.1,-66C320.96,-66 334.53,-66 347.5,-66"/>
<polygon fill="#63b8ff" stroke="#63b8ff" points="347.2,-69.5 357.2,-66 347.2,-62.5 347.2,-69.5"/>
</a>
</g>
</g>
<!-- Node11 -->
<g id="Node000011" class="node">
<title>Node11</title>
<g id="a_Node000011"><a xlink:href="class_fiea_1_1_engine_1_1_content_1_1_actions_1_1_action.html#a651a19484818f73fbe595c0b1a60ece7" target="_top" xlink:title=" ">
<polygon fill="white" stroke="#666666" points="471,-32 358.25,-32 358.25,0 471,0 471,-32"/>
<text text-anchor="start" x="366.25" y="-18.5" font-family="Helvetica,sans-Serif" font-size="10.00">Fiea::Engine::Content</text>
<text text-anchor="middle" x="414.62" y="-6.5" font-family="Helvetica,sans-Serif" font-size="10.00">::Actions::Action::Run</text>
</a>
</g>
</g>
<!-- Node8&#45;&gt;Node11 -->
<g id="edge10_Node000008_Node000011" class="edge">
<title>Node8&#45;&gt;Node11</title>
<g id="a_edge10_Node000008_Node000011"><a xlink:title=" ">
<path fill="none" stroke="#63b8ff" d="M300.55,-49.63C315.57,-45.16 331.99,-40.28 347.56,-35.65"/>
<polygon fill="#63b8ff" stroke="#63b8ff" points="348.13,-39.13 356.71,-32.93 346.13,-32.42 348.13,-39.13"/>
</a>
</g>
</g>
</g>
</svg>
