<?xml version="1.0" encoding="UTF-8" standalone="no"?>
<!DOCTYPE svg PUBLIC "-//W3C//DTD SVG 1.1//EN"
 "http://www.w3.org/Graphics/SVG/1.1/DTD/svg11.dtd">
<!-- Generated by graphviz version 12.2.1 (20241206.2353)
 -->
<!-- Title: Fiea::Engine::Content::ScopeParseHandler::ExitKey Pages: 1 -->
<svg width="461pt" height="128pt"
 viewBox="0.00 0.00 461.00 128.00" xmlns="http://www.w3.org/2000/svg" xmlns:xlink="http://www.w3.org/1999/xlink">
<g id="graph0" class="graph" transform="scale(1 1) rotate(0) translate(4 124)">
<title>Fiea::Engine::Content::ScopeParseHandler::ExitKey</title>
<!-- Node1 -->
<g id="Node000001" class="node">
<title>Node1</title>
<g id="a_Node000001"><a xlink:title=" ">
<polygon fill="#999999" stroke="#666666" points="115,-88 0,-88 0,-44 115,-44 115,-88"/>
<text text-anchor="start" x="8" y="-74.5" font-family="Helvetica,sans-Serif" font-size="10.00">Fiea::Engine::Content</text>
<text text-anchor="start" x="8" y="-62.5" font-family="Helvetica,sans-Serif" font-size="10.00">::ScopeParseHandler::</text>
<text text-anchor="middle" x="57.5" y="-50.5" font-family="Helvetica,sans-Serif" font-size="10.00">ExitKey</text>
</a>
</g>
</g>
<!-- Node2 -->
<g id="Node000002" class="node">
<title>Node2</title>
<g id="a_Node000002"><a xlink:href="class_fiea_1_1_engine_1_1_r_t_t_i.html#a15bd5993c8ad04da47af440298ebbb30" target="_top" xlink:title=" ">
<polygon fill="white" stroke="#666666" points="285.88,-120 169.38,-120 169.38,-100 285.88,-100 285.88,-120"/>
<text text-anchor="middle" x="227.62" y="-106.5" font-family="Helvetica,sans-Serif" font-size="10.00">Fiea::Engine::RTTI::As</text>
</a>
</g>
</g>
<!-- Node1&#45;&gt;Node2 -->
<g id="edge1_Node000001_Node000002" class="edge">
<title>Node1&#45;&gt;Node2</title>
<g id="a_edge1_Node000001_Node000002"><a xlink:title=" ">
<path fill="none" stroke="#63b8ff" d="M115.2,-81.5C127.02,-84.68 139.41,-87.98 151,-91 158.3,-92.9 166.02,-94.88 173.61,-96.81"/>
<polygon fill="#63b8ff" stroke="#63b8ff" points="172.57,-100.15 183.12,-99.21 174.28,-93.37 172.57,-100.15"/>
</a>
</g>
</g>
<!-- Node4 -->
<g id="Node000004" class="node">
<title>Node4</title>
<g id="a_Node000004"><a xlink:href="class_fiea_1_1_engine_1_1_content_1_1_parse_writer.html#adfcfbaea4b8c32604d144834456224ad" target="_top" xlink:title=" ">
<polygon fill="white" stroke="#666666" points="304.25,-82 151,-82 151,-50 304.25,-50 304.25,-82"/>
<text text-anchor="start" x="159" y="-68.5" font-family="Helvetica,sans-Serif" font-size="10.00">Fiea::Engine::Content</text>
<text text-anchor="middle" x="227.62" y="-56.5" font-family="Helvetica,sans-Serif" font-size="10.00">::ParseWriter::DecrementDepth</text>
</a>
</g>
</g>
<!-- Node1&#45;&gt;Node4 -->
<g id="edge3_Node000001_Node000004" class="edge">
<title>Node1&#45;&gt;Node4</title>
<g id="a_edge3_Node000001_Node000004"><a xlink:title=" ">
<path fill="none" stroke="#63b8ff" d="M115.42,-66C123.12,-66 131.17,-66 139.26,-66"/>
<polygon fill="#63b8ff" stroke="#63b8ff" points="139.17,-69.5 149.17,-66 139.17,-62.5 139.17,-69.5"/>
</a>
</g>
</g>
<!-- Node5 -->
<g id="Node000005" class="node">
<title>Node5</title>
<g id="a_Node000005"><a xlink:href="class_fiea_1_1_engine_1_1_content_1_1_scope_writer.html#a8ba2c681c0554ab2dcb5f37cdeea8f43" target="_top" xlink:title="This only pops the top element from the stack. Error condition if you pop an empty stack....">
<polygon fill="white" stroke="#666666" points="290.75,-32 164.5,-32 164.5,0 290.75,0 290.75,-32"/>
<text text-anchor="start" x="172.5" y="-18.5" font-family="Helvetica,sans-Serif" font-size="10.00">Fiea::Engine::Content</text>
<text text-anchor="middle" x="227.62" y="-6.5" font-family="Helvetica,sans-Serif" font-size="10.00">::ScopeWriter::PopScope</text>
</a>
</g>
</g>
<!-- Node1&#45;&gt;Node5 -->
<g id="edge4_Node000001_Node000005" class="edge">
<title>Node1&#45;&gt;Node5</title>
<g id="a_edge4_Node000001_Node000005"><a xlink:title=" ">
<path fill="none" stroke="#63b8ff" d="M115.42,-49.07C129.91,-44.76 145.6,-40.1 160.5,-35.66"/>
<polygon fill="#63b8ff" stroke="#63b8ff" points="161.15,-39.12 169.74,-32.92 159.16,-32.41 161.15,-39.12"/>
</a>
</g>
</g>
<!-- Node3 -->
<g id="Node000003" class="node">
<title>Node3</title>
<g id="a_Node000003"><a xlink:href="class_fiea_1_1_engine_1_1_r_t_t_i.html#ac0a7d875e4513b2aca7594abcd4418ef" target="_top" xlink:title=" ">
<polygon fill="white" stroke="#666666" points="453,-120 340.25,-120 340.25,-100 453,-100 453,-120"/>
<text text-anchor="middle" x="396.62" y="-106.5" font-family="Helvetica,sans-Serif" font-size="10.00">Fiea::Engine::RTTI::Is</text>
</a>
</g>
</g>
<!-- Node2&#45;&gt;Node3 -->
<g id="edge2_Node000002_Node000003" class="edge">
<title>Node2&#45;&gt;Node3</title>
<g id="a_edge2_Node000002_Node000003"><a xlink:title=" ">
<path fill="none" stroke="#63b8ff" d="M286.1,-110C299.87,-110 314.69,-110 328.85,-110"/>
<polygon fill="#63b8ff" stroke="#63b8ff" points="328.51,-113.5 338.51,-110 328.51,-106.5 328.51,-113.5"/>
</a>
</g>
</g>
</g>
</svg>
