<?xml version="1.0" encoding="UTF-8" standalone="no"?>
<!DOCTYPE svg PUBLIC "-//W3C//DTD SVG 1.1//EN"
 "http://www.w3.org/Graphics/SVG/1.1/DTD/svg11.dtd">
<!-- Generated by graphviz version 12.2.1 (20241206.2353)
 -->
<!-- Title: Fiea::Engine::Content::ActionListHandler::EnterKey Pages: 1 -->
<svg width="970pt" height="383pt"
 viewBox="0.00 0.00 970.25 383.00" xmlns="http://www.w3.org/2000/svg" xmlns:xlink="http://www.w3.org/1999/xlink">
<g id="graph0" class="graph" transform="scale(1 1) rotate(0) translate(4 379)">
<title>Fiea::Engine::Content::ActionListHandler::EnterKey</title>
<!-- Node1 -->
<g id="Node000001" class="node">
<title>Node1</title>
<g id="a_Node000001"><a xlink:title=" ">
<polygon fill="#999999" stroke="#666666" points="111.25,-293 0,-293 0,-249 111.25,-249 111.25,-293"/>
<text text-anchor="start" x="8" y="-279.5" font-family="Helvetica,sans-Serif" font-size="10.00">Fiea::Engine::Content</text>
<text text-anchor="start" x="8" y="-267.5" font-family="Helvetica,sans-Serif" font-size="10.00">::ActionListHandler::</text>
<text text-anchor="middle" x="55.62" y="-255.5" font-family="Helvetica,sans-Serif" font-size="10.00">EnterKey</text>
</a>
</g>
</g>
<!-- Node2 -->
<g id="Node000002" class="node">
<title>Node2</title>
<g id="a_Node000002"><a xlink:href="class_fiea_1_1_engine_1_1_r_t_t_i.html#a15bd5993c8ad04da47af440298ebbb30" target="_top" xlink:title=" ">
<polygon fill="white" stroke="#666666" points="465,-375 348.5,-375 348.5,-355 465,-355 465,-375"/>
<text text-anchor="middle" x="406.75" y="-361.5" font-family="Helvetica,sans-Serif" font-size="10.00">Fiea::Engine::RTTI::As</text>
</a>
</g>
</g>
<!-- Node1&#45;&gt;Node2 -->
<g id="edge1_Node000001_Node000002" class="edge">
<title>Node1&#45;&gt;Node2</title>
<g id="a_edge1_Node000001_Node000002"><a xlink:title=" ">
<path fill="none" stroke="#63b8ff" d="M76.09,-293.4C92.95,-311.1 119.02,-334.65 147.25,-346 207.93,-370.4 283.03,-373.22 336.61,-371.1"/>
<polygon fill="#63b8ff" stroke="#63b8ff" points="336.71,-374.6 346.54,-370.63 336.38,-367.6 336.71,-374.6"/>
</a>
</g>
</g>
<!-- Node4 -->
<g id="Node000004" class="node">
<title>Node4</title>
<g id="a_Node000004"><a xlink:href="struct_fiea_1_1_engine_1_1_i_factory_service.html#a67321bf276c10f13666440c0957b9fa8" target="_top" xlink:title=" ">
<polygon fill="white" stroke="#666666" points="294.5,-337 148.75,-337 148.75,-305 294.5,-305 294.5,-337"/>
<text text-anchor="start" x="156.75" y="-323.5" font-family="Helvetica,sans-Serif" font-size="10.00">Fiea::Engine::IFactoryService</text>
<text text-anchor="middle" x="221.62" y="-311.5" font-family="Helvetica,sans-Serif" font-size="10.00">::Create</text>
</a>
</g>
</g>
<!-- Node1&#45;&gt;Node4 -->
<g id="edge3_Node000001_Node000004" class="edge">
<title>Node1&#45;&gt;Node4</title>
<g id="a_edge3_Node000001_Node000004"><a xlink:title=" ">
<path fill="none" stroke="#63b8ff" d="M111.69,-287.79C125.78,-292.08 141.06,-296.74 155.6,-301.18"/>
<polygon fill="#63b8ff" stroke="#63b8ff" points="154.51,-304.5 165.09,-304.07 156.55,-297.81 154.51,-304.5"/>
</a>
</g>
</g>
<!-- Node7 -->
<g id="Node000007" class="node">
<title>Node7</title>
<g id="a_Node000007"><a xlink:href="class_fiea_1_1_engine_1_1_content_1_1_scope_writer.html#a4ff072530f4dfdbdd0940f4c666e2562" target="_top" xlink:title=" ">
<polygon fill="white" stroke="#666666" points="291.88,-287 151.38,-287 151.38,-255 291.88,-255 291.88,-287"/>
<text text-anchor="start" x="159.38" y="-273.5" font-family="Helvetica,sans-Serif" font-size="10.00">Fiea::Engine::Content</text>
<text text-anchor="middle" x="221.62" y="-261.5" font-family="Helvetica,sans-Serif" font-size="10.00">::ScopeWriter::GetTopScope</text>
</a>
</g>
</g>
<!-- Node1&#45;&gt;Node7 -->
<g id="edge7_Node000001_Node000007" class="edge">
<title>Node1&#45;&gt;Node7</title>
<g id="a_edge7_Node000001_Node000007"><a xlink:title=" ">
<path fill="none" stroke="#63b8ff" d="M111.69,-271C120.69,-271 130.17,-271 139.64,-271"/>
<polygon fill="#63b8ff" stroke="#63b8ff" points="139.63,-274.5 149.63,-271 139.63,-267.5 139.63,-274.5"/>
</a>
</g>
</g>
<!-- Node8 -->
<g id="Node000008" class="node">
<title>Node8</title>
<g id="a_Node000008"><a xlink:href="class_fiea_1_1_engine_1_1_content_1_1_parse_writer.html#a28c3d94c387754c03bd32e1effae4754" target="_top" xlink:title=" ">
<polygon fill="white" stroke="#666666" points="296,-237 147.25,-237 147.25,-205 296,-205 296,-237"/>
<text text-anchor="start" x="155.25" y="-223.5" font-family="Helvetica,sans-Serif" font-size="10.00">Fiea::Engine::Content</text>
<text text-anchor="middle" x="221.62" y="-211.5" font-family="Helvetica,sans-Serif" font-size="10.00">::ParseWriter::IncrementDepth</text>
</a>
</g>
</g>
<!-- Node1&#45;&gt;Node8 -->
<g id="edge8_Node000001_Node000008" class="edge">
<title>Node1&#45;&gt;Node8</title>
<g id="a_edge8_Node000001_Node000008"><a xlink:title=" ">
<path fill="none" stroke="#63b8ff" d="M111.69,-254.21C125.78,-249.92 141.06,-245.26 155.6,-240.82"/>
<polygon fill="#63b8ff" stroke="#63b8ff" points="156.55,-244.19 165.09,-237.93 154.51,-237.5 156.55,-244.19"/>
</a>
</g>
</g>
<!-- Node9 -->
<g id="Node000009" class="node">
<title>Node9</title>
<g id="a_Node000009"><a xlink:href="class_fiea_1_1_engine_1_1_content_1_1_scope_writer.html#adb1089ed0ff92fae8826810cef43e447" target="_top" xlink:title=" ">
<polygon fill="white" stroke="#666666" points="287.38,-171 155.88,-171 155.88,-139 287.38,-139 287.38,-171"/>
<text text-anchor="start" x="163.88" y="-157.5" font-family="Helvetica,sans-Serif" font-size="10.00">Fiea::Engine::Content</text>
<text text-anchor="middle" x="221.62" y="-145.5" font-family="Helvetica,sans-Serif" font-size="10.00">::ScopeWriter::PushScope</text>
</a>
</g>
</g>
<!-- Node1&#45;&gt;Node9 -->
<g id="edge9_Node000001_Node000009" class="edge">
<title>Node1&#45;&gt;Node9</title>
<g id="a_edge9_Node000001_Node000009"><a xlink:title=" ">
<path fill="none" stroke="#63b8ff" d="M81.05,-248.71C98.77,-233.07 123.66,-212.15 147.25,-196 157.1,-189.25 168.16,-182.63 178.64,-176.74"/>
<polygon fill="#63b8ff" stroke="#63b8ff" points="180.05,-179.96 187.12,-172.07 176.67,-173.82 180.05,-179.96"/>
</a>
</g>
</g>
<!-- Node3 -->
<g id="Node000003" class="node">
<title>Node3</title>
<g id="a_Node000003"><a xlink:href="class_fiea_1_1_engine_1_1_r_t_t_i.html#ac0a7d875e4513b2aca7594abcd4418ef" target="_top" xlink:title=" ">
<polygon fill="white" stroke="#666666" points="630.25,-375 517.5,-375 517.5,-355 630.25,-355 630.25,-375"/>
<text text-anchor="middle" x="573.88" y="-361.5" font-family="Helvetica,sans-Serif" font-size="10.00">Fiea::Engine::RTTI::Is</text>
</a>
</g>
</g>
<!-- Node2&#45;&gt;Node3 -->
<g id="edge2_Node000002_Node000003" class="edge">
<title>Node2&#45;&gt;Node3</title>
<g id="a_edge2_Node000002_Node000003"><a xlink:title=" ">
<path fill="none" stroke="#63b8ff" d="M465.04,-365C478.21,-365 492.33,-365 505.87,-365"/>
<polygon fill="#63b8ff" stroke="#63b8ff" points="505.57,-368.5 515.57,-365 505.57,-361.5 505.57,-368.5"/>
</a>
</g>
</g>
<!-- Node4&#45;&gt;Node2 -->
<g id="edge4_Node000004_Node000002" class="edge">
<title>Node4&#45;&gt;Node2</title>
<g id="a_edge4_Node000004_Node000002"><a xlink:title=" ">
<path fill="none" stroke="#63b8ff" d="M291.07,-337.45C310.85,-342.2 332.17,-347.32 351,-351.84"/>
<polygon fill="#63b8ff" stroke="#63b8ff" points="350.05,-355.22 360.59,-354.15 351.69,-348.41 350.05,-355.22"/>
</a>
</g>
</g>
<!-- Node5 -->
<g id="Node000005" class="node">
<title>Node5</title>
<g id="a_Node000005"><a xlink:href="struct_fiea_1_1_engine_1_1_i_abstract_factory.html#a22cd61f6a4df37c08faa8af0a39f3b69" target="_top" xlink:title=" ">
<polygon fill="white" stroke="#666666" points="481.5,-337 332,-337 332,-305 481.5,-305 481.5,-337"/>
<text text-anchor="start" x="340" y="-323.5" font-family="Helvetica,sans-Serif" font-size="10.00">Fiea::Engine::IAbstractFactory</text>
<text text-anchor="middle" x="406.75" y="-311.5" font-family="Helvetica,sans-Serif" font-size="10.00">::Create</text>
</a>
</g>
</g>
<!-- Node4&#45;&gt;Node5 -->
<g id="edge5_Node000004_Node000005" class="edge">
<title>Node4&#45;&gt;Node5</title>
<g id="a_edge5_Node000004_Node000005"><a xlink:title=" ">
<path fill="none" stroke="#63b8ff" d="M294.74,-321C303.06,-321 311.62,-321 320.1,-321"/>
<polygon fill="#63b8ff" stroke="#63b8ff" points="320.08,-324.5 330.08,-321 320.08,-317.5 320.08,-324.5"/>
</a>
</g>
</g>
<!-- Node6 -->
<g id="Node000006" class="node">
<title>Node6</title>
<g id="a_Node000006"><a xlink:href="struct_fiea_1_1_engine_1_1_i_factory_service.html#a8b92ed77b5fa36860888e17dc5801e47" target="_top" xlink:title=" ">
<polygon fill="white" stroke="#666666" points="479.62,-287 333.88,-287 333.88,-255 479.62,-255 479.62,-287"/>
<text text-anchor="start" x="341.88" y="-273.5" font-family="Helvetica,sans-Serif" font-size="10.00">Fiea::Engine::IFactoryService</text>
<text text-anchor="middle" x="406.75" y="-261.5" font-family="Helvetica,sans-Serif" font-size="10.00">::GetFactory</text>
</a>
</g>
</g>
<!-- Node4&#45;&gt;Node6 -->
<g id="edge6_Node000004_Node000006" class="edge">
<title>Node4&#45;&gt;Node6</title>
<g id="a_edge6_Node000004_Node000006"><a xlink:title=" ">
<path fill="none" stroke="#63b8ff" d="M282.84,-304.56C299.34,-300.05 317.39,-295.12 334.46,-290.47"/>
<polygon fill="#63b8ff" stroke="#63b8ff" points="335.31,-293.86 344.04,-287.85 333.47,-287.11 335.31,-293.86"/>
</a>
</g>
</g>
<!-- Node10 -->
<g id="Node000010" class="node">
<title>Node10</title>
<g id="a_Node000010"><a xlink:href="class_fiea_1_1_engine_1_1_content_1_1_scope.html#abf39accc1ce38b12bcbc6884ba0165e3" target="_top" xlink:title="You can provide a child scope that you wish this scope to adopt. You should not adopt a scope if it a...">
<polygon fill="white" stroke="#666666" points="462.38,-199 351.12,-199 351.12,-167 462.38,-167 462.38,-199"/>
<text text-anchor="start" x="359.12" y="-185.5" font-family="Helvetica,sans-Serif" font-size="10.00">Fiea::Engine::Content</text>
<text text-anchor="middle" x="406.75" y="-173.5" font-family="Helvetica,sans-Serif" font-size="10.00">::Scope::Adopt</text>
</a>
</g>
</g>
<!-- Node9&#45;&gt;Node10 -->
<g id="edge10_Node000009_Node000010" class="edge">
<title>Node9&#45;&gt;Node10</title>
<g id="a_edge10_Node000009_Node000010"><a xlink:title=" ">
<path fill="none" stroke="#63b8ff" d="M287.7,-164.95C304.65,-167.54 322.93,-170.34 339.92,-172.93"/>
<polygon fill="#63b8ff" stroke="#63b8ff" points="338.96,-176.33 349.37,-174.38 340.02,-169.41 338.96,-176.33"/>
</a>
</g>
</g>
<!-- Node11 -->
<g id="Node000011" class="node">
<title>Node11</title>
<g id="a_Node000011"><a xlink:href="class_fiea_1_1_engine_1_1_content_1_1_scope.html#aa91d6470fd3d3f402bbb2e765be54455" target="_top" xlink:title="Return a reference to the Datum at this key. create a new Datum, if one is not found.">
<polygon fill="white" stroke="#666666" points="629.5,-337 518.25,-337 518.25,-305 629.5,-305 629.5,-337"/>
<text text-anchor="start" x="526.25" y="-323.5" font-family="Helvetica,sans-Serif" font-size="10.00">Fiea::Engine::Content</text>
<text text-anchor="middle" x="573.88" y="-311.5" font-family="Helvetica,sans-Serif" font-size="10.00">::Scope::Append</text>
</a>
</g>
</g>
<!-- Node9&#45;&gt;Node11 -->
<g id="edge24_Node000009_Node000011" class="edge">
<title>Node9&#45;&gt;Node11</title>
<g id="a_edge24_Node000009_Node000011"><a xlink:title=" ">
<path fill="none" stroke="#63b8ff" d="M252.09,-171.3C273.71,-182.75 304.05,-197.8 332,-208 396.4,-231.51 423.87,-208.86 481.5,-246 503.03,-259.87 497.85,-274.57 517.5,-291 520.71,-293.68 524.19,-296.23 527.8,-298.63"/>
<polygon fill="#63b8ff" stroke="#63b8ff" points="525.9,-301.57 536.25,-303.82 529.56,-295.6 525.9,-301.57"/>
</a>
</g>
</g>
<!-- Node15 -->
<g id="Node000015" class="node">
<title>Node15</title>
<g id="a_Node000015"><a xlink:href="class_fiea_1_1_engine_1_1_content_1_1_datum.html#ac2c889535360fcb22e94133869c4ae29" target="_top" xlink:title=" ">
<polygon fill="white" stroke="#666666" points="778.62,-147 667.38,-147 667.38,-115 778.62,-115 778.62,-147"/>
<text text-anchor="start" x="675.38" y="-133.5" font-family="Helvetica,sans-Serif" font-size="10.00">Fiea::Engine::Content</text>
<text text-anchor="middle" x="723" y="-121.5" font-family="Helvetica,sans-Serif" font-size="10.00">::Datum::GetMaxSize</text>
</a>
</g>
</g>
<!-- Node9&#45;&gt;Node15 -->
<g id="edge25_Node000009_Node000015" class="edge">
<title>Node9&#45;&gt;Node15</title>
<g id="a_edge25_Node000009_Node000015"><a xlink:title=" ">
<path fill="none" stroke="#63b8ff" d="M287.65,-151.87C382.96,-147.29 559.66,-138.8 655.69,-134.19"/>
<polygon fill="#63b8ff" stroke="#63b8ff" points="655.66,-137.69 665.48,-133.72 655.33,-130.7 655.66,-137.69"/>
</a>
</g>
</g>
<!-- Node16 -->
<g id="Node000016" class="node">
<title>Node16</title>
<g id="a_Node000016"><a xlink:href="class_fiea_1_1_engine_1_1_content_1_1_datum.html#aede9c541fd5184f33e84640a787d421d" target="_top" xlink:title=" ">
<polygon fill="white" stroke="#666666" points="779.75,-92 666.25,-92 666.25,-60 779.75,-60 779.75,-92"/>
<text text-anchor="start" x="674.25" y="-78.5" font-family="Helvetica,sans-Serif" font-size="10.00">Fiea::Engine::Content</text>
<text text-anchor="middle" x="723" y="-66.5" font-family="Helvetica,sans-Serif" font-size="10.00">::Datum::HasMaxSize</text>
</a>
</g>
</g>
<!-- Node9&#45;&gt;Node16 -->
<g id="edge26_Node000009_Node000016" class="edge">
<title>Node9&#45;&gt;Node16</title>
<g id="a_edge26_Node000009_Node000016"><a xlink:title=" ">
<path fill="none" stroke="#63b8ff" d="M265.26,-138.59C321.88,-117.77 425.44,-83 517.5,-70 567.12,-62.99 580.17,-68.36 630.25,-70 638.26,-70.26 646.65,-70.65 654.97,-71.11"/>
<polygon fill="#63b8ff" stroke="#63b8ff" points="654.53,-74.59 664.72,-71.68 654.94,-67.6 654.53,-74.59"/>
</a>
</g>
</g>
<!-- Node17 -->
<g id="Node000017" class="node">
<title>Node17</title>
<g id="a_Node000017"><a xlink:href="class_fiea_1_1_engine_1_1_content_1_1_datum.html#acae68c3bc8b20345e4c3790fa37bd8d5" target="_top" xlink:title=" ">
<polygon fill="white" stroke="#666666" points="778.62,-32 667.38,-32 667.38,0 778.62,0 778.62,-32"/>
<text text-anchor="start" x="675.38" y="-18.5" font-family="Helvetica,sans-Serif" font-size="10.00">Fiea::Engine::Content</text>
<text text-anchor="middle" x="723" y="-6.5" font-family="Helvetica,sans-Serif" font-size="10.00">::Datum::Size</text>
</a>
</g>
</g>
<!-- Node9&#45;&gt;Node17 -->
<g id="edge27_Node000009_Node000017" class="edge">
<title>Node9&#45;&gt;Node17</title>
<g id="a_edge27_Node000009_Node000017"><a xlink:title=" ">
<path fill="none" stroke="#63b8ff" d="M238.75,-138.7C258.74,-119.57 294.75,-88.5 332,-73 439.34,-28.35 575.97,-17.86 655.75,-15.85"/>
<polygon fill="#63b8ff" stroke="#63b8ff" points="655.66,-19.36 665.58,-15.65 655.51,-12.36 655.66,-19.36"/>
</a>
</g>
</g>
<!-- Node10&#45;&gt;Node11 -->
<g id="edge11_Node000010_Node000011" class="edge">
<title>Node10&#45;&gt;Node11</title>
<g id="a_edge11_Node000010_Node000011"><a xlink:title=" ">
<path fill="none" stroke="#63b8ff" d="M461.83,-199.34C468.99,-203.05 475.8,-207.56 481.5,-213 509.11,-239.37 491.38,-263.15 517.5,-291 519.89,-293.55 522.55,-295.93 525.37,-298.14"/>
<polygon fill="#63b8ff" stroke="#63b8ff" points="523.34,-300.99 533.56,-303.79 527.31,-295.23 523.34,-300.99"/>
</a>
</g>
</g>
<!-- Node12 -->
<g id="Node000012" class="node">
<title>Node12</title>
<g id="a_Node000012"><a xlink:href="class_fiea_1_1_engine_1_1_content_1_1_scope.html#a8f7dfeddfe92368a8d160ed2b805640f" target="_top" xlink:title="Tell if this scope is present somewhere lower down in the scopes tree as a child.">
<polygon fill="white" stroke="#666666" points="952.5,-282 825.5,-282 825.5,-250 952.5,-250 952.5,-282"/>
<text text-anchor="start" x="833.5" y="-268.5" font-family="Helvetica,sans-Serif" font-size="10.00">Fiea::Engine::Content</text>
<text text-anchor="middle" x="889" y="-256.5" font-family="Helvetica,sans-Serif" font-size="10.00">::Scope::IsDescendentOf</text>
</a>
</g>
</g>
<!-- Node10&#45;&gt;Node12 -->
<g id="edge12_Node000010_Node000012" class="edge">
<title>Node10&#45;&gt;Node12</title>
<g id="a_edge12_Node000010_Node000012"><a xlink:title=" ">
<path fill="none" stroke="#63b8ff" d="M462.57,-193.83C469.3,-196.51 475.8,-199.84 481.5,-204 504.81,-221 492.22,-244.12 517.5,-258 609.68,-308.62 735.2,-297.86 813.9,-283.46"/>
<polygon fill="#63b8ff" stroke="#63b8ff" points="814.5,-286.91 823.67,-281.6 813.2,-280.03 814.5,-286.91"/>
</a>
</g>
</g>
<!-- Node13 -->
<g id="Node000013" class="node">
<title>Node13</title>
<g id="a_Node000013"><a xlink:href="class_fiea_1_1_engine_1_1_content_1_1_datum.html#a740662b031de78f05b9f9ce7dac13d8f" target="_top" xlink:title="What is the type of the Datum, returns true or false.">
<polygon fill="white" stroke="#666666" points="629.5,-199 518.25,-199 518.25,-167 629.5,-167 629.5,-199"/>
<text text-anchor="start" x="526.25" y="-185.5" font-family="Helvetica,sans-Serif" font-size="10.00">Fiea::Engine::Content</text>
<text text-anchor="middle" x="573.88" y="-173.5" font-family="Helvetica,sans-Serif" font-size="10.00">::Datum::IsType</text>
</a>
</g>
</g>
<!-- Node10&#45;&gt;Node13 -->
<g id="edge13_Node000010_Node000013" class="edge">
<title>Node10&#45;&gt;Node13</title>
<g id="a_edge13_Node000010_Node000013"><a xlink:title=" ">
<path fill="none" stroke="#63b8ff" d="M462.73,-183C476.73,-183 491.91,-183 506.41,-183"/>
<polygon fill="#63b8ff" stroke="#63b8ff" points="506.34,-186.5 516.34,-183 506.34,-179.5 506.34,-186.5"/>
</a>
</g>
</g>
<!-- Node14 -->
<g id="Node000014" class="node">
<title>Node14</title>
<g id="a_Node000014"><a xlink:href="class_fiea_1_1_engine_1_1_content_1_1_datum.html#a4ccb082ce85390925305f19a24daaed8" target="_top" xlink:title="This function is for pushing an element at the back of the data union array. It is using a universal ...">
<polygon fill="white" stroke="#666666" points="629.5,-111 518.25,-111 518.25,-79 629.5,-79 629.5,-111"/>
<text text-anchor="start" x="526.25" y="-97.5" font-family="Helvetica,sans-Serif" font-size="10.00">Fiea::Engine::Content</text>
<text text-anchor="middle" x="573.88" y="-85.5" font-family="Helvetica,sans-Serif" font-size="10.00">::Datum::Push</text>
</a>
</g>
</g>
<!-- Node10&#45;&gt;Node14 -->
<g id="edge14_Node000010_Node000014" class="edge">
<title>Node10&#45;&gt;Node14</title>
<g id="a_edge14_Node000010_Node000014"><a xlink:title=" ">
<path fill="none" stroke="#63b8ff" d="M438.42,-166.65C464.87,-152.56 503.26,-132.1 532.26,-116.65"/>
<polygon fill="#63b8ff" stroke="#63b8ff" points="533.57,-119.91 540.75,-112.12 530.28,-113.73 533.57,-119.91"/>
</a>
</g>
</g>
<!-- Node18 -->
<g id="Node000018" class="node">
<title>Node18</title>
<g id="a_Node000018"><a xlink:href="class_fiea_1_1_engine_1_1_content_1_1_scope.html#af6a94922a8fa123c3b22b7b4485963de" target="_top" xlink:title="Setter for Parent.">
<polygon fill="white" stroke="#666666" points="629.5,-249 518.25,-249 518.25,-217 629.5,-217 629.5,-249"/>
<text text-anchor="start" x="526.25" y="-235.5" font-family="Helvetica,sans-Serif" font-size="10.00">Fiea::Engine::Content</text>
<text text-anchor="middle" x="573.88" y="-223.5" font-family="Helvetica,sans-Serif" font-size="10.00">::Scope::SetParent</text>
</a>
</g>
</g>
<!-- Node10&#45;&gt;Node18 -->
<g id="edge18_Node000010_Node000018" class="edge">
<title>Node10&#45;&gt;Node18</title>
<g id="a_edge18_Node000010_Node000018"><a xlink:title=" ">
<path fill="none" stroke="#63b8ff" d="M461.82,-199.37C476.43,-203.8 492.39,-208.63 507.54,-213.22"/>
<polygon fill="#63b8ff" stroke="#63b8ff" points="506.37,-216.52 516.95,-216.07 508.4,-209.82 506.37,-216.52"/>
</a>
</g>
</g>
<!-- Node14&#45;&gt;Node15 -->
<g id="edge15_Node000014_Node000015" class="edge">
<title>Node14&#45;&gt;Node15</title>
<g id="a_edge15_Node000014_Node000015"><a xlink:title=" ">
<path fill="none" stroke="#63b8ff" d="M629.66,-108.41C638.28,-110.51 647.26,-112.71 656.1,-114.87"/>
<polygon fill="#63b8ff" stroke="#63b8ff" points="655.15,-118.25 665.7,-117.22 656.82,-111.45 655.15,-118.25"/>
</a>
</g>
</g>
<!-- Node14&#45;&gt;Node16 -->
<g id="edge16_Node000014_Node000016" class="edge">
<title>Node14&#45;&gt;Node16</title>
<g id="a_edge16_Node000014_Node000016"><a xlink:title=" ">
<path fill="none" stroke="#63b8ff" d="M629.66,-87.93C637.86,-86.87 646.39,-85.76 654.82,-84.68"/>
<polygon fill="#63b8ff" stroke="#63b8ff" points="655.22,-88.15 664.69,-83.4 654.32,-81.21 655.22,-88.15"/>
</a>
</g>
</g>
<!-- Node14&#45;&gt;Node17 -->
<g id="edge17_Node000014_Node000017" class="edge">
<title>Node14&#45;&gt;Node17</title>
<g id="a_edge17_Node000014_Node000017"><a xlink:title=" ">
<path fill="none" stroke="#63b8ff" d="M605.36,-78.63C627.38,-66.81 657.35,-50.71 681.4,-37.8"/>
<polygon fill="#63b8ff" stroke="#63b8ff" points="682.81,-41.01 689.97,-33.2 679.5,-34.85 682.81,-41.01"/>
</a>
</g>
</g>
<!-- Node19 -->
<g id="Node000019" class="node">
<title>Node19</title>
<g id="a_Node000019"><a xlink:href="class_fiea_1_1_engine_1_1_content_1_1_scope.html#a853041a85e32e8b7de723fa3dd9a1d82" target="_top" xlink:title="Tells if this scope is present somewhere higher up in the scopes tree as a parent.">
<polygon fill="white" stroke="#666666" points="779.75,-249 666.25,-249 666.25,-217 779.75,-217 779.75,-249"/>
<text text-anchor="start" x="674.25" y="-235.5" font-family="Helvetica,sans-Serif" font-size="10.00">Fiea::Engine::Content</text>
<text text-anchor="middle" x="723" y="-223.5" font-family="Helvetica,sans-Serif" font-size="10.00">::Scope::IsAncestorOf</text>
</a>
</g>
</g>
<!-- Node18&#45;&gt;Node19 -->
<g id="edge19_Node000018_Node000019" class="edge">
<title>Node18&#45;&gt;Node19</title>
<g id="a_edge19_Node000018_Node000019"><a xlink:title=" ">
<path fill="none" stroke="#63b8ff" d="M629.66,-233C637.86,-233 646.39,-233 654.82,-233"/>
<polygon fill="#63b8ff" stroke="#63b8ff" points="654.67,-236.5 664.67,-233 654.67,-229.5 654.67,-236.5"/>
</a>
</g>
</g>
<!-- Node20 -->
<g id="Node000020" class="node">
<title>Node20</title>
<g id="a_Node000020"><a xlink:href="class_fiea_1_1_engine_1_1_content_1_1_scope.html#a769b8bf0382518e075fb90f62940624c" target="_top" xlink:title="Orpahans this scope from its parent.">
<polygon fill="white" stroke="#666666" points="778.62,-199 667.38,-199 667.38,-167 778.62,-167 778.62,-199"/>
<text text-anchor="start" x="675.38" y="-185.5" font-family="Helvetica,sans-Serif" font-size="10.00">Fiea::Engine::Content</text>
<text text-anchor="middle" x="723" y="-173.5" font-family="Helvetica,sans-Serif" font-size="10.00">::Scope::Orphan</text>
</a>
</g>
</g>
<!-- Node18&#45;&gt;Node20 -->
<g id="edge21_Node000018_Node000020" class="edge">
<title>Node18&#45;&gt;Node20</title>
<g id="a_edge21_Node000018_Node000020"><a xlink:title=" ">
<path fill="none" stroke="#63b8ff" d="M623.05,-216.63C635.69,-212.33 649.46,-207.65 662.61,-203.18"/>
<polygon fill="#63b8ff" stroke="#63b8ff" points="663.69,-206.51 672.03,-199.98 661.44,-199.89 663.69,-206.51"/>
</a>
</g>
</g>
<!-- Node19&#45;&gt;Node12 -->
<g id="edge20_Node000019_Node000012" class="edge">
<title>Node19&#45;&gt;Node12</title>
<g id="a_edge20_Node000019_Node000012"><a xlink:title=" ">
<path fill="none" stroke="#63b8ff" d="M779.98,-244.26C791.02,-246.49 802.76,-248.85 814.28,-251.17"/>
<polygon fill="#63b8ff" stroke="#63b8ff" points="813.26,-254.53 823.75,-253.07 814.64,-247.67 813.26,-254.53"/>
</a>
</g>
</g>
<!-- Node21 -->
<g id="Node000021" class="node">
<title>Node21</title>
<g id="a_Node000021"><a xlink:href="class_fiea_1_1_engine_1_1_content_1_1_scope.html#abe37db932a06fabb2cb02ec65b6f55d8" target="_top" xlink:title="Search for a nested Scope which is the SAME(not just equal) as the provided scope and return the Datu...">
<polygon fill="white" stroke="#666666" points="962.25,-221 815.75,-221 815.75,-189 962.25,-189 962.25,-221"/>
<text text-anchor="start" x="823.75" y="-207.5" font-family="Helvetica,sans-Serif" font-size="10.00">Fiea::Engine::Content</text>
<text text-anchor="middle" x="889" y="-195.5" font-family="Helvetica,sans-Serif" font-size="10.00">::Scope::FindContainedScope</text>
</a>
</g>
</g>
<!-- Node20&#45;&gt;Node21 -->
<g id="edge22_Node000020_Node000021" class="edge">
<title>Node20&#45;&gt;Node21</title>
<g id="a_edge22_Node000020_Node000021"><a xlink:title=" ">
<path fill="none" stroke="#63b8ff" d="M779.07,-190.39C787.15,-191.47 795.63,-192.61 804.14,-193.75"/>
<polygon fill="#63b8ff" stroke="#63b8ff" points="803.43,-197.19 813.81,-195.05 804.36,-190.25 803.43,-197.19"/>
</a>
</g>
</g>
<!-- Node22 -->
<g id="Node000022" class="node">
<title>Node22</title>
<g id="a_Node000022"><a xlink:href="class_fiea_1_1_engine_1_1_content_1_1_datum.html#a23395b19af06abda786d991645b41e6d" target="_top" xlink:title=" ">
<polygon fill="white" stroke="#666666" points="944.62,-171 833.38,-171 833.38,-139 944.62,-139 944.62,-171"/>
<text text-anchor="start" x="841.38" y="-157.5" font-family="Helvetica,sans-Serif" font-size="10.00">Fiea::Engine::Content</text>
<text text-anchor="middle" x="889" y="-145.5" font-family="Helvetica,sans-Serif" font-size="10.00">::Datum::RemoveAt</text>
</a>
</g>
</g>
<!-- Node20&#45;&gt;Node22 -->
<g id="edge23_Node000020_Node000022" class="edge">
<title>Node20&#45;&gt;Node22</title>
<g id="a_edge23_Node000020_Node000022"><a xlink:title=" ">
<path fill="none" stroke="#63b8ff" d="M779.07,-173.6C792.8,-171.25 807.66,-168.72 821.86,-166.29"/>
<polygon fill="#63b8ff" stroke="#63b8ff" points="822.32,-169.76 831.59,-164.63 821.14,-162.86 822.32,-169.76"/>
</a>
</g>
</g>
</g>
</svg>
