<?xml version="1.0" encoding="UTF-8" standalone="no"?>
<!DOCTYPE svg PUBLIC "-//W3C//DTD SVG 1.1//EN"
 "http://www.w3.org/Graphics/SVG/1.1/DTD/svg11.dtd">
<!-- Generated by graphviz version 12.2.1 (20241206.2353)
 -->
<!-- Title: Fiea::Engine::Content::Datum::Push Pages: 1 -->
<svg width="653pt" height="618pt"
 viewBox="0.00 0.00 653.25 618.00" xmlns="http://www.w3.org/2000/svg" xmlns:xlink="http://www.w3.org/1999/xlink">
<g id="graph0" class="graph" transform="scale(1 1) rotate(0) translate(4 614)">
<title>Fiea::Engine::Content::Datum::Push</title>
<!-- Node1 -->
<g id="Node000001" class="node">
<title>Node1</title>
<g id="a_Node000001"><a xlink:title="This function is for pushing an element at the back of the data union array. It is using a universal ...">
<polygon fill="#999999" stroke="#666666" points="645.25,-207 534,-207 534,-175 645.25,-175 645.25,-207"/>
<text text-anchor="start" x="542" y="-193.5" font-family="Helvetica,sans-Serif" font-size="10.00">Fiea::Engine::Content</text>
<text text-anchor="middle" x="589.62" y="-181.5" font-family="Helvetica,sans-Serif" font-size="10.00">::Datum::Push</text>
</a>
</g>
</g>
<!-- Node2 -->
<g id="Node000002" class="node">
<title>Node2</title>
<g id="a_Node000002"><a xlink:href="class_fiea_1_1_engine_1_1_content_1_1_scope.html#abf39accc1ce38b12bcbc6884ba0165e3" target="_top" xlink:title="You can provide a child scope that you wish this scope to adopt. You should not adopt a scope if it a...">
<polygon fill="white" stroke="#666666" points="475.88,-516 364.62,-516 364.62,-484 475.88,-484 475.88,-516"/>
<text text-anchor="start" x="372.62" y="-502.5" font-family="Helvetica,sans-Serif" font-size="10.00">Fiea::Engine::Content</text>
<text text-anchor="middle" x="420.25" y="-490.5" font-family="Helvetica,sans-Serif" font-size="10.00">::Scope::Adopt</text>
</a>
</g>
</g>
<!-- Node1&#45;&gt;Node2 -->
<g id="edge1_Node000001_Node000002" class="edge">
<title>Node1&#45;&gt;Node2</title>
<g id="a_edge1_Node000001_Node000002"><a xlink:title=" ">
<path fill="none" stroke="#63b8ff" d="M574.58,-216.92C541.15,-278.65 457.56,-432.96 430.13,-483.61"/>
<polygon fill="#63b8ff" stroke="#63b8ff" points="577.46,-218.97 579.14,-208.51 571.3,-215.63 577.46,-218.97"/>
</a>
</g>
</g>
<!-- Node12 -->
<g id="Node000012" class="node">
<title>Node12</title>
<g id="a_Node000012"><a xlink:href="class_fiea_1_1_engine_1_1_content_1_1_scope_writer.html#a2ed39f31d26f92f8d74c13b4fc466f77" target="_top" xlink:title="This function should be called for ading string, float or ints into the Scope. Any other data type wo...">
<polygon fill="white" stroke="#666666" points="477.38,-332 363.12,-332 363.12,-300 477.38,-300 477.38,-332"/>
<text text-anchor="start" x="371.12" y="-318.5" font-family="Helvetica,sans-Serif" font-size="10.00">Fiea::Engine::Content</text>
<text text-anchor="middle" x="420.25" y="-306.5" font-family="Helvetica,sans-Serif" font-size="10.00">::ScopeWriter::Append</text>
</a>
</g>
</g>
<!-- Node1&#45;&gt;Node12 -->
<g id="edge12_Node000001_Node000012" class="edge">
<title>Node1&#45;&gt;Node12</title>
<g id="a_edge12_Node000001_Node000012"><a xlink:title=" ">
<path fill="none" stroke="#63b8ff" d="M571.41,-216.55C554.99,-239.11 528.32,-271.36 498,-291 491.77,-295.04 484.82,-298.47 477.73,-301.39"/>
<polygon fill="#63b8ff" stroke="#63b8ff" points="574.2,-218.67 577.13,-208.49 568.49,-214.62 574.2,-218.67"/>
</a>
</g>
</g>
<!-- Node18 -->
<g id="Node000018" class="node">
<title>Node18</title>
<g id="a_Node000018"><a xlink:href="class_fiea_1_1_engine_1_1_content_1_1_datum.html#a07e356344548914a00b0f3af50593743" target="_top" xlink:title=" ">
<polygon fill="white" stroke="#666666" points="475.88,-282 364.62,-282 364.62,-250 475.88,-250 475.88,-282"/>
<text text-anchor="start" x="372.62" y="-268.5" font-family="Helvetica,sans-Serif" font-size="10.00">Fiea::Engine::Content</text>
<text text-anchor="middle" x="420.25" y="-256.5" font-family="Helvetica,sans-Serif" font-size="10.00">::Datum::Datum</text>
</a>
</g>
</g>
<!-- Node1&#45;&gt;Node18 -->
<g id="edge18_Node000001_Node000018" class="edge">
<title>Node1&#45;&gt;Node18</title>
<g id="a_edge18_Node000001_Node000018"><a xlink:title=" ">
<path fill="none" stroke="#63b8ff" d="M552.3,-213.11C536.04,-222.45 516.43,-233 498,-241 490.93,-244.07 483.35,-246.97 475.82,-249.64"/>
<polygon fill="#63b8ff" stroke="#63b8ff" points="553.76,-216.3 560.63,-208.24 550.23,-210.26 553.76,-216.3"/>
</a>
</g>
</g>
<!-- Node19 -->
<g id="Node000019" class="node">
<title>Node19</title>
<g id="a_Node000019"><a xlink:href="class_fiea_1_1_engine_1_1_content_1_1_datum.html#a5594d9dd3a0a4b365bcbb2aa5db4e94f" target="_top" xlink:title=" ">
<polygon fill="white" stroke="#666666" points="475.88,-232 364.62,-232 364.62,-200 475.88,-200 475.88,-232"/>
<text text-anchor="start" x="372.62" y="-218.5" font-family="Helvetica,sans-Serif" font-size="10.00">Fiea::Engine::Content</text>
<text text-anchor="middle" x="420.25" y="-206.5" font-family="Helvetica,sans-Serif" font-size="10.00">::Datum::Datum</text>
</a>
</g>
</g>
<!-- Node1&#45;&gt;Node19 -->
<g id="edge19_Node000001_Node000019" class="edge">
<title>Node1&#45;&gt;Node19</title>
<g id="a_edge19_Node000001_Node000019"><a xlink:title=" ">
<path fill="none" stroke="#63b8ff" d="M522.77,-200.84C507.34,-203.14 491.07,-205.57 476.18,-207.8"/>
<polygon fill="#63b8ff" stroke="#63b8ff" points="522.95,-204.35 532.32,-199.41 521.92,-197.43 522.95,-204.35"/>
</a>
</g>
</g>
<!-- Node20 -->
<g id="Node000020" class="node">
<title>Node20</title>
<g id="a_Node000020"><a xlink:href="class_fiea_1_1_engine_1_1_content_1_1_actions_1_1_preamble_action.html#a44a59e04e805964256440543040d2aee" target="_top" xlink:title="Searches for the variable that needs to be initialized and sets the value. Returns true because there...">
<polygon fill="white" stroke="#666666" points="495,-182 345.5,-182 345.5,-150 495,-150 495,-182"/>
<text text-anchor="start" x="353.5" y="-168.5" font-family="Helvetica,sans-Serif" font-size="10.00">Fiea::Engine::Content</text>
<text text-anchor="middle" x="420.25" y="-156.5" font-family="Helvetica,sans-Serif" font-size="10.00">::Actions::PreambleAction::Init</text>
</a>
</g>
</g>
<!-- Node1&#45;&gt;Node20 -->
<g id="edge20_Node000001_Node000020" class="edge">
<title>Node1&#45;&gt;Node20</title>
<g id="a_edge20_Node000001_Node000020"><a xlink:title=" ">
<path fill="none" stroke="#63b8ff" d="M522.65,-181.15C513.68,-179.81 504.43,-178.42 495.34,-177.07"/>
<polygon fill="#63b8ff" stroke="#63b8ff" points="521.92,-184.57 532.32,-182.59 522.95,-177.65 521.92,-184.57"/>
</a>
</g>
</g>
<!-- Node21 -->
<g id="Node000021" class="node">
<title>Node21</title>
<g id="a_Node000021"><a xlink:href="class_fiea_1_1_engine_1_1_tests_1_1_support_1_1_action_add_datum.html#a8038baa36384ba9702596cbe3e41780e" target="_top" xlink:title=" ">
<polygon fill="white" stroke="#666666" points="498,-132 342.5,-132 342.5,-100 498,-100 498,-132"/>
<text text-anchor="start" x="350.5" y="-118.5" font-family="Helvetica,sans-Serif" font-size="10.00">Fiea::Engine::Tests</text>
<text text-anchor="middle" x="420.25" y="-106.5" font-family="Helvetica,sans-Serif" font-size="10.00">::Support::ActionAddDatum::Init</text>
</a>
</g>
</g>
<!-- Node1&#45;&gt;Node21 -->
<g id="edge21_Node000001_Node000021" class="edge">
<title>Node1&#45;&gt;Node21</title>
<g id="a_edge21_Node000001_Node000021"><a xlink:title=" ">
<path fill="none" stroke="#63b8ff" d="M552.3,-168.89C536.04,-159.55 516.43,-149 498,-141 490.93,-137.93 483.35,-135.03 475.82,-132.36"/>
<polygon fill="#63b8ff" stroke="#63b8ff" points="550.23,-171.74 560.63,-173.76 553.76,-165.7 550.23,-171.74"/>
</a>
</g>
</g>
<!-- Node22 -->
<g id="Node000022" class="node">
<title>Node22</title>
<g id="a_Node000022"><a xlink:href="class_fiea_1_1_engine_1_1_content_1_1_datum.html#a5470e7bc6508298cedbf1f200c765493" target="_top" xlink:title="Push a value of type T into the array in the data union. User has to explicitly pass in the template ...">
<polygon fill="white" stroke="#666666" points="484.12,-82 356.38,-82 356.38,-50 484.12,-50 484.12,-82"/>
<text text-anchor="start" x="364.38" y="-68.5" font-family="Helvetica,sans-Serif" font-size="10.00">Fiea::Engine::Content</text>
<text text-anchor="middle" x="420.25" y="-56.5" font-family="Helvetica,sans-Serif" font-size="10.00">::Datum::PushFromString</text>
</a>
</g>
</g>
<!-- Node1&#45;&gt;Node22 -->
<g id="edge22_Node000001_Node000022" class="edge">
<title>Node1&#45;&gt;Node22</title>
<g id="a_edge22_Node000001_Node000022"><a xlink:title=" ">
<path fill="none" stroke="#63b8ff" d="M571.41,-165.45C554.99,-142.89 528.32,-110.64 498,-91 493.06,-87.8 487.67,-84.98 482.12,-82.49"/>
<polygon fill="#63b8ff" stroke="#63b8ff" points="568.49,-167.38 577.13,-173.51 574.2,-163.33 568.49,-167.38"/>
</a>
</g>
</g>
<!-- Node23 -->
<g id="Node000023" class="node">
<title>Node23</title>
<g id="a_Node000023"><a xlink:href="namespace_fiea_1_1_engine_1_1_tests.html#a0767a5dea6dd506e0dca7a9f54bd5ad2" target="_top" xlink:title=" ">
<polygon fill="white" stroke="#666666" points="470.62,-32 369.88,-32 369.88,0 470.62,0 470.62,-32"/>
<text text-anchor="start" x="377.88" y="-18.5" font-family="Helvetica,sans-Serif" font-size="10.00">Fiea::Engine::Tests</text>
<text text-anchor="middle" x="420.25" y="-6.5" font-family="Helvetica,sans-Serif" font-size="10.00">::TEST_CLASS</text>
</a>
</g>
</g>
<!-- Node1&#45;&gt;Node23 -->
<g id="edge23_Node000001_Node000023" class="edge">
<title>Node1&#45;&gt;Node23</title>
<g id="a_edge23_Node000001_Node000023"><a xlink:title=" ">
<path fill="none" stroke="#63b8ff" d="M579.31,-164.47C566.24,-130.99 539.32,-73.81 498,-41 490.1,-34.73 480.57,-30 470.96,-26.46"/>
<polygon fill="#63b8ff" stroke="#63b8ff" points="575.89,-165.31 582.68,-173.44 582.44,-162.84 575.89,-165.31"/>
</a>
</g>
</g>
<!-- Node3 -->
<g id="Node000003" class="node">
<title>Node3</title>
<g id="a_Node000003"><a xlink:href="class_fiea_1_1_engine_1_1_game_object.html#a86ede0bbc21133ffa8f398b0636c8b52" target="_top" xlink:title=" ">
<polygon fill="white" stroke="#666666" points="302.75,-610 171.25,-610 171.25,-578 302.75,-578 302.75,-610"/>
<text text-anchor="start" x="179.25" y="-596.5" font-family="Helvetica,sans-Serif" font-size="10.00">Fiea::Engine::GameObject</text>
<text text-anchor="middle" x="237" y="-584.5" font-family="Helvetica,sans-Serif" font-size="10.00">::AddAction</text>
</a>
</g>
</g>
<!-- Node2&#45;&gt;Node3 -->
<g id="edge2_Node000002_Node000003" class="edge">
<title>Node2&#45;&gt;Node3</title>
<g id="a_edge2_Node000002_Node000003"><a xlink:title=" ">
<path fill="none" stroke="#63b8ff" d="M386.33,-522.56C364.36,-537.01 334.46,-555.51 306.5,-569 300.23,-572.03 293.49,-574.91 286.78,-577.56"/>
<polygon fill="#63b8ff" stroke="#63b8ff" points="388.19,-525.53 394.58,-517.08 384.31,-519.7 388.19,-525.53"/>
</a>
</g>
</g>
<!-- Node4 -->
<g id="Node000004" class="node">
<title>Node4</title>
<g id="a_Node000004"><a xlink:href="class_fiea_1_1_engine_1_1_content_1_1_scope.html#a002f54731a8996f37c4f725d8175ffee" target="_top" xlink:title="This is one of the ways of adding a scope as a child to &#39;this&#39; scope Appending a scope also implies t...">
<polygon fill="white" stroke="#666666" points="295.25,-560 178.75,-560 178.75,-528 295.25,-528 295.25,-560"/>
<text text-anchor="start" x="186.75" y="-546.5" font-family="Helvetica,sans-Serif" font-size="10.00">Fiea::Engine::Content</text>
<text text-anchor="middle" x="237" y="-534.5" font-family="Helvetica,sans-Serif" font-size="10.00">::Scope::AppendScope</text>
</a>
</g>
</g>
<!-- Node2&#45;&gt;Node4 -->
<g id="edge3_Node000002_Node000004" class="edge">
<title>Node2&#45;&gt;Node4</title>
<g id="a_edge3_Node000002_Node000004"><a xlink:title=" ">
<path fill="none" stroke="#63b8ff" d="M353.42,-515.98C334.46,-520.58 313.93,-525.57 295.51,-530.04"/>
<polygon fill="#63b8ff" stroke="#63b8ff" points="354.01,-519.44 362.91,-513.68 352.36,-512.64 354.01,-519.44"/>
</a>
</g>
</g>
<!-- Node6 -->
<g id="Node000006" class="node">
<title>Node6</title>
<g id="a_Node000006"><a xlink:href="class_fiea_1_1_engine_1_1_content_1_1_scope_writer.html#a4488fbd92e0706a1207e15a40dac7e22" target="_top" xlink:title=" ">
<polygon fill="white" stroke="#666666" points="131.5,-519 0,-519 0,-487 131.5,-487 131.5,-519"/>
<text text-anchor="start" x="8" y="-505.5" font-family="Helvetica,sans-Serif" font-size="10.00">Fiea::Engine::Content</text>
<text text-anchor="middle" x="65.75" y="-493.5" font-family="Helvetica,sans-Serif" font-size="10.00">::ScopeWriter::PushScope</text>
</a>
</g>
</g>
<!-- Node2&#45;&gt;Node6 -->
<g id="edge5_Node000002_Node000006" class="edge">
<title>Node2&#45;&gt;Node6</title>
<g id="a_edge5_Node000002_Node000006"><a xlink:title=" ">
<path fill="none" stroke="#63b8ff" d="M352.73,-500.57C289.43,-501.1 194.77,-501.91 131.92,-502.45"/>
<polygon fill="#63b8ff" stroke="#63b8ff" points="352.69,-504.07 362.66,-500.48 352.63,-497.07 352.69,-504.07"/>
</a>
</g>
</g>
<!-- Node7 -->
<g id="Node000007" class="node">
<title>Node7</title>
<g id="a_Node000007"><a xlink:href="class_fiea_1_1_engine_1_1_content_1_1_scope_writer.html#adb1089ed0ff92fae8826810cef43e447" target="_top" xlink:title=" ">
<polygon fill="white" stroke="#666666" points="302.75,-469 171.25,-469 171.25,-437 302.75,-437 302.75,-469"/>
<text text-anchor="start" x="179.25" y="-455.5" font-family="Helvetica,sans-Serif" font-size="10.00">Fiea::Engine::Content</text>
<text text-anchor="middle" x="237" y="-443.5" font-family="Helvetica,sans-Serif" font-size="10.00">::ScopeWriter::PushScope</text>
</a>
</g>
</g>
<!-- Node2&#45;&gt;Node7 -->
<g id="edge6_Node000002_Node000007" class="edge">
<title>Node2&#45;&gt;Node7</title>
<g id="a_edge6_Node000002_Node000007"><a xlink:title=" ">
<path fill="none" stroke="#63b8ff" d="M353.47,-482.94C336.56,-478.56 318.39,-473.85 301.59,-469.49"/>
<polygon fill="#63b8ff" stroke="#63b8ff" points="352.35,-486.27 362.91,-485.39 354.11,-479.49 352.35,-486.27"/>
</a>
</g>
</g>
<!-- Node5 -->
<g id="Node000005" class="node">
<title>Node5</title>
<g id="a_Node000005"><a xlink:href="class_fiea_1_1_engine_1_1_content_1_1_scope_writer.html#ae61df0a4225d06e413fbfda3028f8547" target="_top" xlink:title="This creates a new Scope, makes it a child of the current top scope in the stack and pushes it into t...">
<polygon fill="white" stroke="#666666" points="131.5,-569 0,-569 0,-537 131.5,-537 131.5,-569"/>
<text text-anchor="start" x="8" y="-555.5" font-family="Helvetica,sans-Serif" font-size="10.00">Fiea::Engine::Content</text>
<text text-anchor="middle" x="65.75" y="-543.5" font-family="Helvetica,sans-Serif" font-size="10.00">::ScopeWriter::PushScope</text>
</a>
</g>
</g>
<!-- Node4&#45;&gt;Node5 -->
<g id="edge4_Node000004_Node000005" class="edge">
<title>Node4&#45;&gt;Node5</title>
<g id="a_edge4_Node000004_Node000005"><a xlink:title=" ">
<path fill="none" stroke="#63b8ff" d="M167.56,-547.64C155.78,-548.27 143.56,-548.92 131.86,-549.54"/>
<polygon fill="#63b8ff" stroke="#63b8ff" points="167.39,-551.15 177.19,-547.13 167.02,-544.16 167.39,-551.15"/>
</a>
</g>
</g>
<!-- Node7&#45;&gt;Node6 -->
<g id="edge11_Node000007_Node000006" class="edge">
<title>Node7&#45;&gt;Node6</title>
<g id="a_edge11_Node000007_Node000006"><a xlink:title=" ">
<path fill="none" stroke="#63b8ff" d="M169.92,-472.52C154.27,-477.15 137.73,-482.03 122.58,-486.51"/>
<polygon fill="#63b8ff" stroke="#63b8ff" points="170.53,-475.99 179.13,-469.8 168.55,-469.28 170.53,-475.99"/>
</a>
</g>
</g>
<!-- Node8 -->
<g id="Node000008" class="node">
<title>Node8</title>
<g id="a_Node000008"><a xlink:href="class_fiea_1_1_engine_1_1_content_1_1_action_handler.html#a392af20cfeb37d539b88183bc9672f7a" target="_top" xlink:title=" ">
<polygon fill="white" stroke="#666666" points="130.75,-469 0.75,-469 0.75,-437 130.75,-437 130.75,-469"/>
<text text-anchor="start" x="8.75" y="-455.5" font-family="Helvetica,sans-Serif" font-size="10.00">Fiea::Engine::Content</text>
<text text-anchor="middle" x="65.75" y="-443.5" font-family="Helvetica,sans-Serif" font-size="10.00">::ActionHandler::EnterKey</text>
</a>
</g>
</g>
<!-- Node7&#45;&gt;Node8 -->
<g id="edge7_Node000007_Node000008" class="edge">
<title>Node7&#45;&gt;Node8</title>
<g id="a_edge7_Node000007_Node000008"><a xlink:title=" ">
<path fill="none" stroke="#63b8ff" d="M159.6,-453C150.13,-453 140.52,-453 131.25,-453"/>
<polygon fill="#63b8ff" stroke="#63b8ff" points="159.53,-456.5 169.53,-453 159.53,-449.5 159.53,-456.5"/>
</a>
</g>
</g>
<!-- Node9 -->
<g id="Node000009" class="node">
<title>Node9</title>
<g id="a_Node000009"><a xlink:href="class_fiea_1_1_engine_1_1_content_1_1_action_list_handler.html#ae0f8b6534bcf602df112f39202c79ecc" target="_top" xlink:title=" ">
<polygon fill="white" stroke="#666666" points="121.38,-419 10.12,-419 10.12,-375 121.38,-375 121.38,-419"/>
<text text-anchor="start" x="18.12" y="-405.5" font-family="Helvetica,sans-Serif" font-size="10.00">Fiea::Engine::Content</text>
<text text-anchor="start" x="18.12" y="-393.5" font-family="Helvetica,sans-Serif" font-size="10.00">::ActionListHandler::</text>
<text text-anchor="middle" x="65.75" y="-381.5" font-family="Helvetica,sans-Serif" font-size="10.00">EnterKey</text>
</a>
</g>
</g>
<!-- Node7&#45;&gt;Node9 -->
<g id="edge8_Node000007_Node000009" class="edge">
<title>Node7&#45;&gt;Node9</title>
<g id="a_edge8_Node000007_Node000009"><a xlink:title=" ">
<path fill="none" stroke="#63b8ff" d="M175.42,-432.96C157.85,-427.14 138.78,-420.83 121.58,-415.14"/>
<polygon fill="#63b8ff" stroke="#63b8ff" points="174.1,-436.21 184.7,-436.03 176.3,-429.56 174.1,-436.21"/>
</a>
</g>
</g>
<!-- Node10 -->
<g id="Node000010" class="node">
<title>Node10</title>
<g id="a_Node000010"><a xlink:href="class_fiea_1_1_engine_1_1_content_1_1_game_object_handler.html#a626573aebcd7beceb84dbd69bc15105b" target="_top" xlink:title="This handler is specifically for handling any game objects in json and also does some checks to ensur...">
<polygon fill="white" stroke="#666666" points="124,-357 7.5,-357 7.5,-313 124,-313 124,-357"/>
<text text-anchor="start" x="15.5" y="-343.5" font-family="Helvetica,sans-Serif" font-size="10.00">Fiea::Engine::Content</text>
<text text-anchor="start" x="15.5" y="-331.5" font-family="Helvetica,sans-Serif" font-size="10.00">::GameObjectHandler::</text>
<text text-anchor="middle" x="65.75" y="-319.5" font-family="Helvetica,sans-Serif" font-size="10.00">EnterKey</text>
</a>
</g>
</g>
<!-- Node7&#45;&gt;Node10 -->
<g id="edge9_Node000007_Node000010" class="edge">
<title>Node7&#45;&gt;Node10</title>
<g id="a_edge9_Node000007_Node000010"><a xlink:title=" ">
<path fill="none" stroke="#63b8ff" d="M170.88,-430.65C169.72,-429.8 168.59,-428.91 167.5,-428 143.07,-407.54 154.91,-387.62 131.5,-366 128.11,-362.87 124.35,-360 120.4,-357.38"/>
<polygon fill="#63b8ff" stroke="#63b8ff" points="168.68,-433.4 179,-435.78 172.42,-427.48 168.68,-433.4"/>
</a>
</g>
</g>
<!-- Node11 -->
<g id="Node000011" class="node">
<title>Node11</title>
<g id="a_Node000011"><a xlink:href="class_fiea_1_1_engine_1_1_content_1_1_scope_parse_handler.html#a51138cf4e0b638b95c73b4a5acd68842" target="_top" xlink:title=" ">
<polygon fill="white" stroke="#666666" points="123.25,-295 8.25,-295 8.25,-251 123.25,-251 123.25,-295"/>
<text text-anchor="start" x="16.25" y="-281.5" font-family="Helvetica,sans-Serif" font-size="10.00">Fiea::Engine::Content</text>
<text text-anchor="start" x="16.25" y="-269.5" font-family="Helvetica,sans-Serif" font-size="10.00">::ScopeParseHandler::</text>
<text text-anchor="middle" x="65.75" y="-257.5" font-family="Helvetica,sans-Serif" font-size="10.00">EnterKey</text>
</a>
</g>
</g>
<!-- Node7&#45;&gt;Node11 -->
<g id="edge10_Node000007_Node000011" class="edge">
<title>Node7&#45;&gt;Node11</title>
<g id="a_edge10_Node000007_Node000011"><a xlink:title=" ">
<path fill="none" stroke="#63b8ff" d="M168.95,-429.49C168.46,-429 167.97,-428.51 167.5,-428 128.31,-386.08 168.62,-347.77 131.5,-304 128.84,-300.86 125.79,-298.02 122.49,-295.45"/>
<polygon fill="#63b8ff" stroke="#63b8ff" points="166.57,-432.07 176.57,-435.57 170.94,-426.59 166.57,-432.07"/>
</a>
</g>
</g>
<!-- Node13 -->
<g id="Node000013" class="node">
<title>Node13</title>
<g id="a_Node000013"><a xlink:href="class_fiea_1_1_engine_1_1_content_1_1_float_parse_handler.html#abc4c8eb2ad52cd9ebdafba350e9a58d7" target="_top" xlink:title=" ">
<polygon fill="white" stroke="#666666" points="292.62,-419 181.38,-419 181.38,-375 292.62,-375 292.62,-419"/>
<text text-anchor="start" x="189.38" y="-405.5" font-family="Helvetica,sans-Serif" font-size="10.00">Fiea::Engine::Content</text>
<text text-anchor="start" x="189.38" y="-393.5" font-family="Helvetica,sans-Serif" font-size="10.00">::FloatParseHandler::</text>
<text text-anchor="middle" x="237" y="-381.5" font-family="Helvetica,sans-Serif" font-size="10.00">EnterKey</text>
</a>
</g>
</g>
<!-- Node12&#45;&gt;Node13 -->
<g id="edge13_Node000012_Node000013" class="edge">
<title>Node12&#45;&gt;Node13</title>
<g id="a_edge13_Node000012_Node000013"><a xlink:title=" ">
<path fill="none" stroke="#63b8ff" d="M372.27,-336.99C346.42,-348.55 314.34,-362.88 288.02,-374.65"/>
<polygon fill="#63b8ff" stroke="#63b8ff" points="373.49,-340.28 381.19,-333.01 370.63,-333.89 373.49,-340.28"/>
</a>
</g>
</g>
<!-- Node14 -->
<g id="Node000014" class="node">
<title>Node14</title>
<g id="a_Node000014"><a xlink:href="class_fiea_1_1_engine_1_1_content_1_1_int_parse_handler.html#aa99263839bdc482fcd4a5874ef682029" target="_top" xlink:title=" ">
<polygon fill="white" stroke="#666666" points="306.5,-357 167.5,-357 167.5,-325 306.5,-325 306.5,-357"/>
<text text-anchor="start" x="175.5" y="-343.5" font-family="Helvetica,sans-Serif" font-size="10.00">Fiea::Engine::Content</text>
<text text-anchor="middle" x="237" y="-331.5" font-family="Helvetica,sans-Serif" font-size="10.00">::IntParseHandler::EnterKey</text>
</a>
</g>
</g>
<!-- Node12&#45;&gt;Node14 -->
<g id="edge14_Node000012_Node000014" class="edge">
<title>Node12&#45;&gt;Node14</title>
<g id="a_edge14_Node000012_Node000014"><a xlink:title=" ">
<path fill="none" stroke="#63b8ff" d="M351.84,-325.3C337.12,-327.33 321.53,-329.48 306.76,-331.52"/>
<polygon fill="#63b8ff" stroke="#63b8ff" points="351.97,-328.81 361.4,-323.98 351.01,-321.88 351.97,-328.81"/>
</a>
</g>
</g>
<!-- Node15 -->
<g id="Node000015" class="node">
<title>Node15</title>
<g id="a_Node000015"><a xlink:href="class_fiea_1_1_engine_1_1_content_1_1_matrix_handler.html#af6b07a2232dbc15a91484634a6881499" target="_top" xlink:title=" ">
<polygon fill="white" stroke="#666666" points="301.62,-307 172.38,-307 172.38,-275 301.62,-275 301.62,-307"/>
<text text-anchor="start" x="180.38" y="-293.5" font-family="Helvetica,sans-Serif" font-size="10.00">Fiea::Engine::Content</text>
<text text-anchor="middle" x="237" y="-281.5" font-family="Helvetica,sans-Serif" font-size="10.00">::MatrixHandler::EnterKey</text>
</a>
</g>
</g>
<!-- Node12&#45;&gt;Node15 -->
<g id="edge15_Node000012_Node000015" class="edge">
<title>Node12&#45;&gt;Node15</title>
<g id="a_edge15_Node000012_Node000015"><a xlink:title=" ">
<path fill="none" stroke="#63b8ff" d="M351.79,-306.7C335.47,-304.44 318.07,-302.04 301.91,-299.82"/>
<polygon fill="#63b8ff" stroke="#63b8ff" points="351.01,-310.12 361.4,-308.02 351.97,-303.19 351.01,-310.12"/>
</a>
</g>
</g>
<!-- Node16 -->
<g id="Node000016" class="node">
<title>Node16</title>
<g id="a_Node000016"><a xlink:href="class_fiea_1_1_engine_1_1_content_1_1_string_parse_handler.html#a6e8f0ecc1992ee741847c1ad14069a30" target="_top" xlink:title=" ">
<polygon fill="white" stroke="#666666" points="292.62,-257 181.38,-257 181.38,-213 292.62,-213 292.62,-257"/>
<text text-anchor="start" x="189.38" y="-243.5" font-family="Helvetica,sans-Serif" font-size="10.00">Fiea::Engine::Content</text>
<text text-anchor="start" x="189.38" y="-231.5" font-family="Helvetica,sans-Serif" font-size="10.00">::StringParseHandler</text>
<text text-anchor="middle" x="237" y="-219.5" font-family="Helvetica,sans-Serif" font-size="10.00">::EnterKey</text>
</a>
</g>
</g>
<!-- Node12&#45;&gt;Node16 -->
<g id="edge16_Node000012_Node000016" class="edge">
<title>Node12&#45;&gt;Node16</title>
<g id="a_edge16_Node000012_Node000016"><a xlink:title=" ">
<path fill="none" stroke="#63b8ff" d="M352.1,-295.42C348.82,-294.02 345.6,-292.54 342.5,-291 325.05,-282.34 323.44,-275.61 306.5,-266 301.28,-263.04 295.72,-260.14 290.12,-257.38"/>
<polygon fill="#63b8ff" stroke="#63b8ff" points="350.75,-298.65 361.33,-299.13 353.36,-292.16 350.75,-298.65"/>
</a>
</g>
</g>
<!-- Node17 -->
<g id="Node000017" class="node">
<title>Node17</title>
<g id="a_Node000017"><a xlink:href="class_fiea_1_1_engine_1_1_content_1_1_vector_handler.html#a79774cea459da02c0eb57bcf2ca84821" target="_top" xlink:title=" ">
<polygon fill="white" stroke="#666666" points="302,-195 172,-195 172,-163 302,-163 302,-195"/>
<text text-anchor="start" x="180" y="-181.5" font-family="Helvetica,sans-Serif" font-size="10.00">Fiea::Engine::Content</text>
<text text-anchor="middle" x="237" y="-169.5" font-family="Helvetica,sans-Serif" font-size="10.00">::VectorHandler::EnterKey</text>
</a>
</g>
</g>
<!-- Node12&#45;&gt;Node17 -->
<g id="edge17_Node000012_Node000017" class="edge">
<title>Node12&#45;&gt;Node17</title>
<g id="a_edge17_Node000012_Node000017"><a xlink:title=" ">
<path fill="none" stroke="#63b8ff" d="M352.73,-298.69C349.07,-296.43 345.61,-293.88 342.5,-291 311.79,-262.58 336.71,-232.96 306.5,-204 303.12,-200.76 299.28,-197.93 295.2,-195.47"/>
<polygon fill="#63b8ff" stroke="#63b8ff" points="351.03,-301.75 361.51,-303.3 354.28,-295.55 351.03,-301.75"/>
</a>
</g>
</g>
</g>
</svg>
