<?xml version="1.0" encoding="UTF-8" standalone="no"?>
<!DOCTYPE svg PUBLIC "-//W3C//DTD SVG 1.1//EN"
 "http://www.w3.org/Graphics/SVG/1.1/DTD/svg11.dtd">
<!-- Generated by graphviz version 12.2.1 (20241206.2353)
 -->
<!-- Title: Fiea::Engine::Content::Actions::Action Pages: 1 -->
<svg width="115pt" height="1096pt"
 viewBox="0.00 0.00 114.50 1096.00" xmlns="http://www.w3.org/2000/svg" xmlns:xlink="http://www.w3.org/1999/xlink">
<g id="graph0" class="graph" transform="scale(1 1) rotate(0) translate(4 1092)">
<title>Fiea::Engine::Content::Actions::Action</title>
<!-- Node1 -->
<g id="Node000001" class="node">
<title>Node1</title>
<g id="a_Node000001"><a xlink:title="Content driven way of creating behaviour.">
<polygon fill="#999999" stroke="none" points="106.5,-272 0,-272 0,0 106.5,0 106.5,-272"/>
<text text-anchor="start" x="5.62" y="-258.5" font-family="Helvetica,sans-Serif" font-size="10.00">Fiea::Engine::Content</text>
<text text-anchor="start" x="16.88" y="-246.5" font-family="Helvetica,sans-Serif" font-size="10.00">::Actions::Action</text>
<text text-anchor="start" x="4" y="-230.5" font-family="Helvetica,sans-Serif" font-size="10.00">+</text>
<text text-anchor="start" x="14" y="-230.5" font-family="Helvetica,sans-Serif" font-size="10.00">_Name</text>
<text text-anchor="start" x="4" y="-214.5" font-family="Helvetica,sans-Serif" font-size="10.00">+</text>
<text text-anchor="start" x="14" y="-214.5" font-family="Helvetica,sans-Serif" font-size="10.00">Action()</text>
<text text-anchor="start" x="4" y="-198.5" font-family="Helvetica,sans-Serif" font-size="10.00">+</text>
<text text-anchor="start" x="14" y="-198.5" font-family="Helvetica,sans-Serif" font-size="10.00">Action()</text>
<text text-anchor="start" x="4" y="-182.5" font-family="Helvetica,sans-Serif" font-size="10.00">+</text>
<text text-anchor="start" x="14" y="-182.5" font-family="Helvetica,sans-Serif" font-size="10.00">operator=()</text>
<text text-anchor="start" x="4" y="-166.5" font-family="Helvetica,sans-Serif" font-size="10.00">+</text>
<text text-anchor="start" x="14" y="-166.5" font-family="Helvetica,sans-Serif" font-size="10.00">operator=()</text>
<text text-anchor="start" x="4" y="-150.5" font-family="Helvetica,sans-Serif" font-size="10.00">+</text>
<text text-anchor="start" x="14" y="-150.5" font-family="Helvetica,sans-Serif" font-size="10.00">operator==()</text>
<text text-anchor="start" x="4" y="-134.5" font-family="Helvetica,sans-Serif" font-size="10.00">+</text>
<text text-anchor="start" x="14" y="-134.5" font-family="Helvetica,sans-Serif" font-size="10.00">operator!=()</text>
<text text-anchor="start" x="4" y="-118.5" font-family="Helvetica,sans-Serif" font-size="10.00">+</text>
<text text-anchor="start" x="14" y="-118.5" font-family="Helvetica,sans-Serif" font-size="10.00">~Action()</text>
<text text-anchor="start" x="4" y="-102.5" font-family="Helvetica,sans-Serif" font-size="10.00">+</text>
<text text-anchor="start" x="14" y="-102.5" font-family="Helvetica,sans-Serif" font-size="10.00">Clone()</text>
<text text-anchor="start" x="4" y="-86.5" font-family="Helvetica,sans-Serif" font-size="10.00">+</text>
<text text-anchor="start" x="14" y="-86.5" font-family="Helvetica,sans-Serif" font-size="10.00">ToString()</text>
<text text-anchor="start" x="4" y="-70.5" font-family="Helvetica,sans-Serif" font-size="10.00">+</text>
<text text-anchor="start" x="14" y="-70.5" font-family="Helvetica,sans-Serif" font-size="10.00">Equals()</text>
<text text-anchor="start" x="14" y="-54.5" font-family="Helvetica,sans-Serif" font-size="10.00">and 7 more...</text>
<text text-anchor="start" x="4" y="-38.5" font-family="Helvetica,sans-Serif" font-size="10.00">+</text>
<text text-anchor="start" x="14" y="-38.5" font-family="Helvetica,sans-Serif" font-size="10.00">GetClassDefinition()</text>
<text text-anchor="start" x="4.38" y="-22.5" font-family="Helvetica,sans-Serif" font-size="10.00">#</text>
<text text-anchor="start" x="14" y="-22.5" font-family="Helvetica,sans-Serif" font-size="10.00">Action()</text>
<text text-anchor="start" x="4.38" y="-6.5" font-family="Helvetica,sans-Serif" font-size="10.00">#</text>
<text text-anchor="start" x="14" y="-6.5" font-family="Helvetica,sans-Serif" font-size="10.00">Action()</text>
<polygon fill="#666666" stroke="#666666" points="0,-242 0,-242 106.5,-242 106.5,-242 0,-242"/>
<polygon fill="#666666" stroke="#666666" points="0,-226 0,-226 12,-226 12,-226 0,-226"/>
<polygon fill="#666666" stroke="#666666" points="12,-226 12,-226 106.5,-226 106.5,-226 12,-226"/>
<polygon fill="none" stroke="#666666" points="0,0 0,-272 106.5,-272 106.5,0 0,0"/>
</a>
</g>
</g>
<!-- Node2 -->
<g id="Node000002" class="node">
<title>Node2</title>
<g id="a_Node000002"><a xlink:href="class_fiea_1_1_engine_1_1_content_1_1_attributed.html" target="_top" xlink:title=" ">
<polygon fill="white" stroke="none" points="104.88,-548 1.62,-548 1.62,-308 104.88,-308 104.88,-548"/>
<text text-anchor="start" x="5.62" y="-534.5" font-family="Helvetica,sans-Serif" font-size="10.00">Fiea::Engine::Content</text>
<text text-anchor="start" x="29.25" y="-522.5" font-family="Helvetica,sans-Serif" font-size="10.00">::Attributed</text>
<text text-anchor="start" x="51.75" y="-506.5" font-family="Helvetica,sans-Serif" font-size="10.00"> </text>
<text text-anchor="start" x="12.5" y="-490.5" font-family="Helvetica,sans-Serif" font-size="10.00">+</text>
<text text-anchor="start" x="29.38" y="-490.5" font-family="Helvetica,sans-Serif" font-size="10.00">Attributed()</text>
<text text-anchor="start" x="12.5" y="-474.5" font-family="Helvetica,sans-Serif" font-size="10.00">+</text>
<text text-anchor="start" x="29.38" y="-474.5" font-family="Helvetica,sans-Serif" font-size="10.00">Attributed()</text>
<text text-anchor="start" x="12.5" y="-458.5" font-family="Helvetica,sans-Serif" font-size="10.00">+</text>
<text text-anchor="start" x="29.38" y="-458.5" font-family="Helvetica,sans-Serif" font-size="10.00">Attributed()</text>
<text text-anchor="start" x="12.5" y="-442.5" font-family="Helvetica,sans-Serif" font-size="10.00">+</text>
<text text-anchor="start" x="29.38" y="-442.5" font-family="Helvetica,sans-Serif" font-size="10.00">operator=()</text>
<text text-anchor="start" x="12.5" y="-426.5" font-family="Helvetica,sans-Serif" font-size="10.00">+</text>
<text text-anchor="start" x="29.38" y="-426.5" font-family="Helvetica,sans-Serif" font-size="10.00">operator=()</text>
<text text-anchor="start" x="12.5" y="-410.5" font-family="Helvetica,sans-Serif" font-size="10.00">+</text>
<text text-anchor="start" x="29.38" y="-410.5" font-family="Helvetica,sans-Serif" font-size="10.00">~Attributed()</text>
<text text-anchor="start" x="12.5" y="-394.5" font-family="Helvetica,sans-Serif" font-size="10.00">+</text>
<text text-anchor="start" x="29.38" y="-394.5" font-family="Helvetica,sans-Serif" font-size="10.00">Clone()</text>
<text text-anchor="start" x="12.5" y="-378.5" font-family="Helvetica,sans-Serif" font-size="10.00">+</text>
<text text-anchor="start" x="29.38" y="-378.5" font-family="Helvetica,sans-Serif" font-size="10.00">ToString()</text>
<text text-anchor="start" x="12.5" y="-362.5" font-family="Helvetica,sans-Serif" font-size="10.00">+</text>
<text text-anchor="start" x="29.38" y="-362.5" font-family="Helvetica,sans-Serif" font-size="10.00">Equals()</text>
<text text-anchor="start" x="12.5" y="-346.5" font-family="Helvetica,sans-Serif" font-size="10.00">+</text>
<text text-anchor="start" x="29.38" y="-346.5" font-family="Helvetica,sans-Serif" font-size="10.00">IsAttribute()</text>
<text text-anchor="start" x="29.38" y="-330.5" font-family="Helvetica,sans-Serif" font-size="10.00">and 6 more...</text>
<text text-anchor="start" x="12.88" y="-314.5" font-family="Helvetica,sans-Serif" font-size="10.00">#</text>
<text text-anchor="start" x="29.38" y="-314.5" font-family="Helvetica,sans-Serif" font-size="10.00">Attributed()</text>
<polygon fill="#666666" stroke="#666666" points="1.62,-518 1.62,-518 104.88,-518 104.88,-518 1.62,-518"/>
<polygon fill="#666666" stroke="#666666" points="1.62,-502 1.62,-502 104.88,-502 104.88,-502 1.62,-502"/>
<polygon fill="none" stroke="#666666" points="1.62,-308 1.62,-548 104.88,-548 104.88,-308 1.62,-308"/>
</a>
</g>
</g>
<!-- Node2&#45;&gt;Node1 -->
<g id="edge1_Node000001_Node000002" class="edge">
<title>Node2&#45;&gt;Node1</title>
<g id="a_edge1_Node000001_Node000002"><a xlink:title=" ">
<path fill="none" stroke="#63b8ff" d="M53.25,-296.86C53.25,-288.49 53.25,-280.06 53.25,-271.67"/>
<polygon fill="none" stroke="#63b8ff" points="49.75,-296.7 53.25,-306.7 56.75,-296.7 49.75,-296.7"/>
</a>
</g>
</g>
<!-- Node3 -->
<g id="Node000003" class="node">
<title>Node3</title>
<g id="a_Node000003"><a xlink:href="class_fiea_1_1_engine_1_1_content_1_1_scope.html" target="_top" xlink:title=" ">
<polygon fill="white" stroke="none" points="104.88,-824 1.62,-824 1.62,-584 104.88,-584 104.88,-824"/>
<text text-anchor="start" x="5.62" y="-810.5" font-family="Helvetica,sans-Serif" font-size="10.00">Fiea::Engine::Content</text>
<text text-anchor="start" x="36.38" y="-798.5" font-family="Helvetica,sans-Serif" font-size="10.00">::Scope</text>
<text text-anchor="start" x="51.75" y="-782.5" font-family="Helvetica,sans-Serif" font-size="10.00"> </text>
<text text-anchor="start" x="11" y="-766.5" font-family="Helvetica,sans-Serif" font-size="10.00">+</text>
<text text-anchor="start" x="26.38" y="-766.5" font-family="Helvetica,sans-Serif" font-size="10.00">ToString()</text>
<text text-anchor="start" x="11" y="-750.5" font-family="Helvetica,sans-Serif" font-size="10.00">+</text>
<text text-anchor="start" x="26.38" y="-750.5" font-family="Helvetica,sans-Serif" font-size="10.00">Equals()</text>
<text text-anchor="start" x="11" y="-734.5" font-family="Helvetica,sans-Serif" font-size="10.00">+</text>
<text text-anchor="start" x="26.38" y="-734.5" font-family="Helvetica,sans-Serif" font-size="10.00">Scope()</text>
<text text-anchor="start" x="11" y="-718.5" font-family="Helvetica,sans-Serif" font-size="10.00">+</text>
<text text-anchor="start" x="26.38" y="-718.5" font-family="Helvetica,sans-Serif" font-size="10.00">Scope()</text>
<text text-anchor="start" x="11" y="-702.5" font-family="Helvetica,sans-Serif" font-size="10.00">+</text>
<text text-anchor="start" x="26.38" y="-702.5" font-family="Helvetica,sans-Serif" font-size="10.00">Scope()</text>
<text text-anchor="start" x="11" y="-686.5" font-family="Helvetica,sans-Serif" font-size="10.00">+</text>
<text text-anchor="start" x="26.38" y="-686.5" font-family="Helvetica,sans-Serif" font-size="10.00">operator=()</text>
<text text-anchor="start" x="11" y="-670.5" font-family="Helvetica,sans-Serif" font-size="10.00">+</text>
<text text-anchor="start" x="26.38" y="-670.5" font-family="Helvetica,sans-Serif" font-size="10.00">operator=()</text>
<text text-anchor="start" x="11" y="-654.5" font-family="Helvetica,sans-Serif" font-size="10.00">+</text>
<text text-anchor="start" x="26.38" y="-654.5" font-family="Helvetica,sans-Serif" font-size="10.00">~Scope()</text>
<text text-anchor="start" x="11" y="-638.5" font-family="Helvetica,sans-Serif" font-size="10.00">+</text>
<text text-anchor="start" x="26.38" y="-638.5" font-family="Helvetica,sans-Serif" font-size="10.00">Clone()</text>
<text text-anchor="start" x="11" y="-622.5" font-family="Helvetica,sans-Serif" font-size="10.00">+</text>
<text text-anchor="start" x="26.38" y="-622.5" font-family="Helvetica,sans-Serif" font-size="10.00">Scope()</text>
<text text-anchor="start" x="26.38" y="-606.5" font-family="Helvetica,sans-Serif" font-size="10.00">and 22 more...</text>
<text text-anchor="start" x="11.38" y="-590.5" font-family="Helvetica,sans-Serif" font-size="10.00">#</text>
<text text-anchor="start" x="26.38" y="-590.5" font-family="Helvetica,sans-Serif" font-size="10.00">GetAttributes()</text>
<polygon fill="#666666" stroke="#666666" points="1.62,-794 1.62,-794 104.88,-794 104.88,-794 1.62,-794"/>
<polygon fill="#666666" stroke="#666666" points="1.62,-778 1.62,-778 104.88,-778 104.88,-778 1.62,-778"/>
<polygon fill="none" stroke="#666666" points="1.62,-584 1.62,-824 104.88,-824 104.88,-584 1.62,-584"/>
</a>
</g>
</g>
<!-- Node3&#45;&gt;Node2 -->
<g id="edge2_Node000002_Node000003" class="edge">
<title>Node3&#45;&gt;Node2</title>
<g id="a_edge2_Node000002_Node000003"><a xlink:title=" ">
<path fill="none" stroke="#63b8ff" d="M53.25,-572.73C53.25,-564.44 53.25,-556.11 53.25,-547.87"/>
<polygon fill="none" stroke="#63b8ff" points="49.75,-572.5 53.25,-582.5 56.75,-572.5 49.75,-572.5"/>
</a>
</g>
</g>
<!-- Node4 -->
<g id="Node000004" class="node">
<title>Node4</title>
<g id="a_Node000004"><a xlink:href="class_fiea_1_1_engine_1_1_r_t_t_i.html" target="_top" xlink:title=" ">
<polygon fill="white" stroke="none" points="98.62,-1088 7.88,-1088 7.88,-860 98.62,-860 98.62,-1088"/>
<text text-anchor="start" x="12" y="-1074.5" font-family="Helvetica,sans-Serif" font-size="10.00">Fiea::Engine::RTTI</text>
<text text-anchor="start" x="51.75" y="-1058.5" font-family="Helvetica,sans-Serif" font-size="10.00"> </text>
<text text-anchor="start" x="11.88" y="-1042.5" font-family="Helvetica,sans-Serif" font-size="10.00">+</text>
<text text-anchor="start" x="21.88" y="-1042.5" font-family="Helvetica,sans-Serif" font-size="10.00">RTTI()</text>
<text text-anchor="start" x="11.88" y="-1026.5" font-family="Helvetica,sans-Serif" font-size="10.00">+</text>
<text text-anchor="start" x="21.88" y="-1026.5" font-family="Helvetica,sans-Serif" font-size="10.00">RTTI()</text>
<text text-anchor="start" x="11.88" y="-1010.5" font-family="Helvetica,sans-Serif" font-size="10.00">+</text>
<text text-anchor="start" x="21.88" y="-1010.5" font-family="Helvetica,sans-Serif" font-size="10.00">operator=()</text>
<text text-anchor="start" x="11.88" y="-994.5" font-family="Helvetica,sans-Serif" font-size="10.00">+</text>
<text text-anchor="start" x="21.88" y="-994.5" font-family="Helvetica,sans-Serif" font-size="10.00">RTTI()</text>
<text text-anchor="start" x="11.88" y="-978.5" font-family="Helvetica,sans-Serif" font-size="10.00">+</text>
<text text-anchor="start" x="21.88" y="-978.5" font-family="Helvetica,sans-Serif" font-size="10.00">operator=()</text>
<text text-anchor="start" x="11.88" y="-962.5" font-family="Helvetica,sans-Serif" font-size="10.00">+</text>
<text text-anchor="start" x="21.88" y="-962.5" font-family="Helvetica,sans-Serif" font-size="10.00">~RTTI()</text>
<text text-anchor="start" x="11.88" y="-946.5" font-family="Helvetica,sans-Serif" font-size="10.00">+</text>
<text text-anchor="start" x="21.88" y="-946.5" font-family="Helvetica,sans-Serif" font-size="10.00">TypeIdInstance()</text>
<text text-anchor="start" x="11.88" y="-930.5" font-family="Helvetica,sans-Serif" font-size="10.00">+</text>
<text text-anchor="start" x="21.88" y="-930.5" font-family="Helvetica,sans-Serif" font-size="10.00">Is()</text>
<text text-anchor="start" x="11.88" y="-914.5" font-family="Helvetica,sans-Serif" font-size="10.00">+</text>
<text text-anchor="start" x="21.88" y="-914.5" font-family="Helvetica,sans-Serif" font-size="10.00">As()</text>
<text text-anchor="start" x="11.88" y="-898.5" font-family="Helvetica,sans-Serif" font-size="10.00">+</text>
<text text-anchor="start" x="21.88" y="-898.5" font-family="Helvetica,sans-Serif" font-size="10.00">As()</text>
<text text-anchor="start" x="11.88" y="-882.5" font-family="Helvetica,sans-Serif" font-size="10.00">+</text>
<text text-anchor="start" x="21.88" y="-882.5" font-family="Helvetica,sans-Serif" font-size="10.00">ToString()</text>
<text text-anchor="start" x="11.88" y="-866.5" font-family="Helvetica,sans-Serif" font-size="10.00">+</text>
<text text-anchor="start" x="21.88" y="-866.5" font-family="Helvetica,sans-Serif" font-size="10.00">Equals()</text>
<polygon fill="#666666" stroke="#666666" points="7.88,-1070 7.88,-1070 98.62,-1070 98.62,-1070 7.88,-1070"/>
<polygon fill="#666666" stroke="#666666" points="7.88,-1054 7.88,-1054 98.62,-1054 98.62,-1054 7.88,-1054"/>
<polygon fill="none" stroke="#666666" points="7.88,-860 7.88,-1088 98.62,-1088 98.62,-860 7.88,-860"/>
</a>
</g>
</g>
<!-- Node4&#45;&gt;Node3 -->
<g id="edge3_Node000003_Node000004" class="edge">
<title>Node4&#45;&gt;Node3</title>
<g id="a_edge3_Node000003_Node000004"><a xlink:title=" ">
<path fill="none" stroke="#63b8ff" d="M53.25,-848.8C53.25,-840.47 53.25,-832.08 53.25,-823.77"/>
<polygon fill="none" stroke="#63b8ff" points="49.75,-848.61 53.25,-858.61 56.75,-848.61 49.75,-848.61"/>
</a>
</g>
</g>
</g>
</svg>
