<?xml version="1.0" encoding="UTF-8" standalone="no"?>
<!DOCTYPE svg PUBLIC "-//W3C//DTD SVG 1.1//EN"
 "http://www.w3.org/Graphics/SVG/1.1/DTD/svg11.dtd">
<!-- Generated by graphviz version 12.2.1 (20241206.2353)
 -->
<!-- Title: Fiea::Engine::RTTI::TypeIdInstance Pages: 1 -->
<svg width="828pt" height="888pt"
 viewBox="0.00 0.00 828.25 888.00" xmlns="http://www.w3.org/2000/svg" xmlns:xlink="http://www.w3.org/1999/xlink">
<g id="graph0" class="graph" transform="scale(1 1) rotate(0) translate(4 884)">
<title>Fiea::Engine::RTTI::TypeIdInstance</title>
<!-- Node1 -->
<g id="Node000001" class="node">
<title>Node1</title>
<g id="a_Node000001"><a xlink:title=" ">
<polygon fill="#999999" stroke="#666666" points="820.25,-414 721.75,-414 721.75,-382 820.25,-382 820.25,-414"/>
<text text-anchor="start" x="729.75" y="-400.5" font-family="Helvetica,sans-Serif" font-size="10.00">Fiea::Engine::RTTI</text>
<text text-anchor="middle" x="771" y="-388.5" font-family="Helvetica,sans-Serif" font-size="10.00">::TypeIdInstance</text>
</a>
</g>
</g>
<!-- Node2 -->
<g id="Node000002" class="node">
<title>Node2</title>
<g id="a_Node000002"><a xlink:href="class_fiea_1_1_engine_1_1_content_1_1_attributed.html#ad19c192aa2c84012e82a7cf8382accfe" target="_top" xlink:title=" ">
<polygon fill="white" stroke="#666666" points="671.5,-880 559.5,-880 559.5,-848 671.5,-848 671.5,-880"/>
<text text-anchor="start" x="567.5" y="-866.5" font-family="Helvetica,sans-Serif" font-size="10.00">Fiea::Engine::Content</text>
<text text-anchor="middle" x="615.5" y="-854.5" font-family="Helvetica,sans-Serif" font-size="10.00">::Attributed::Attributed</text>
</a>
</g>
</g>
<!-- Node1&#45;&gt;Node2 -->
<g id="edge1_Node000001_Node000002" class="edge">
<title>Node1&#45;&gt;Node2</title>
<g id="a_edge1_Node000001_Node000002"><a xlink:title=" ">
<path fill="none" stroke="#63b8ff" d="M768.23,-425.77C762.18,-512.44 739.65,-775.85 685.75,-839 681.85,-843.57 677.05,-847.3 671.81,-850.36"/>
<polygon fill="#63b8ff" stroke="#63b8ff" points="771.72,-426.04 768.9,-415.82 764.74,-425.57 771.72,-426.04"/>
</a>
</g>
</g>
<!-- Node3 -->
<g id="Node000003" class="node">
<title>Node3</title>
<g id="a_Node000003"><a xlink:href="class_fiea_1_1_engine_1_1_content_1_1_actions_1_1_action.html#ae984b4832e0645f92e76f2381c373be8" target="_top" xlink:title="virtual function part of the vtable pointer. We are calling in the equality operator overloaded funct...">
<polygon fill="white" stroke="#666666" points="677.88,-830 553.12,-830 553.12,-798 677.88,-798 677.88,-830"/>
<text text-anchor="start" x="561.12" y="-816.5" font-family="Helvetica,sans-Serif" font-size="10.00">Fiea::Engine::Content</text>
<text text-anchor="middle" x="615.5" y="-804.5" font-family="Helvetica,sans-Serif" font-size="10.00">::Actions::Action::Equals</text>
</a>
</g>
</g>
<!-- Node1&#45;&gt;Node3 -->
<g id="edge2_Node000001_Node000003" class="edge">
<title>Node1&#45;&gt;Node3</title>
<g id="a_edge2_Node000001_Node000003"><a xlink:title=" ">
<path fill="none" stroke="#63b8ff" d="M767.54,-425.24C759.86,-504.67 733.89,-733.92 685.75,-789 682.89,-792.27 679.57,-795.12 675.96,-797.59"/>
<polygon fill="#63b8ff" stroke="#63b8ff" points="770.98,-426.03 768.44,-415.74 764.01,-425.37 770.98,-426.03"/>
</a>
</g>
</g>
<!-- Node4 -->
<g id="Node000004" class="node">
<title>Node4</title>
<g id="a_Node000004"><a xlink:href="class_fiea_1_1_engine_1_1_content_1_1_actions_1_1_action_list.html#ac954c92f4416a8d5a4f964f93041e39f" target="_top" xlink:title="virtual function part of the vtable pointer. We are calling in the equality operator overloaded funct...">
<polygon fill="white" stroke="#666666" points="671.12,-780 559.88,-780 559.88,-736 671.12,-736 671.12,-780"/>
<text text-anchor="start" x="567.88" y="-766.5" font-family="Helvetica,sans-Serif" font-size="10.00">Fiea::Engine::Content</text>
<text text-anchor="start" x="567.88" y="-754.5" font-family="Helvetica,sans-Serif" font-size="10.00">::Actions::ActionList</text>
<text text-anchor="middle" x="615.5" y="-742.5" font-family="Helvetica,sans-Serif" font-size="10.00">::Equals</text>
</a>
</g>
</g>
<!-- Node1&#45;&gt;Node4 -->
<g id="edge3_Node000001_Node000004" class="edge">
<title>Node1&#45;&gt;Node4</title>
<g id="a_edge3_Node000001_Node000004"><a xlink:title=" ">
<path fill="none" stroke="#63b8ff" d="M770.58,-425.64C770.4,-487.14 761.65,-636.95 685.75,-727 681.68,-731.83 676.69,-735.95 671.29,-739.44"/>
<polygon fill="#63b8ff" stroke="#63b8ff" points="774.08,-425.73 770.52,-415.75 767.08,-425.77 774.08,-425.73"/>
</a>
</g>
</g>
<!-- Node5 -->
<g id="Node000005" class="node">
<title>Node5</title>
<g id="a_Node000005"><a xlink:href="class_fiea_1_1_engine_1_1_content_1_1_actions_1_1_increment_action.html#a03738a2305588d66f40cabfa45d9d87e" target="_top" xlink:title="virtual function part of the vtable pointer. We are calling in the equality operator overloaded funct...">
<polygon fill="white" stroke="#666666" points="681.62,-718 549.38,-718 549.38,-674 681.62,-674 681.62,-718"/>
<text text-anchor="start" x="557.38" y="-704.5" font-family="Helvetica,sans-Serif" font-size="10.00">Fiea::Engine::Content</text>
<text text-anchor="start" x="557.38" y="-692.5" font-family="Helvetica,sans-Serif" font-size="10.00">::Actions::IncrementAction</text>
<text text-anchor="middle" x="615.5" y="-680.5" font-family="Helvetica,sans-Serif" font-size="10.00">::Equals</text>
</a>
</g>
</g>
<!-- Node1&#45;&gt;Node5 -->
<g id="edge4_Node000001_Node000005" class="edge">
<title>Node1&#45;&gt;Node5</title>
<g id="a_edge4_Node000001_Node000005"><a xlink:title=" ">
<path fill="none" stroke="#63b8ff" d="M768.54,-425.8C764.35,-478.74 748.16,-594.95 685.75,-665 682.95,-668.15 679.76,-670.99 676.33,-673.56"/>
<polygon fill="#63b8ff" stroke="#63b8ff" points="772.03,-426.08 769.23,-415.86 765.05,-425.59 772.03,-426.08"/>
</a>
</g>
</g>
<!-- Node6 -->
<g id="Node000006" class="node">
<title>Node6</title>
<g id="a_Node000006"><a xlink:href="class_fiea_1_1_engine_1_1_content_1_1_actions_1_1_integer_conditional_action.html#a1f0227d7ad93adb562e9d8cfa4e843d4" target="_top" xlink:title="virtual function part of the vtable pointer. We are calling in the equality operator overloaded funct...">
<polygon fill="white" stroke="#666666" points="685.38,-656 545.62,-656 545.62,-612 685.38,-612 685.38,-656"/>
<text text-anchor="start" x="553.62" y="-642.5" font-family="Helvetica,sans-Serif" font-size="10.00">Fiea::Engine::Content</text>
<text text-anchor="start" x="553.62" y="-630.5" font-family="Helvetica,sans-Serif" font-size="10.00">::Actions::IntegerConditional</text>
<text text-anchor="middle" x="615.5" y="-618.5" font-family="Helvetica,sans-Serif" font-size="10.00">Action::Equals</text>
</a>
</g>
</g>
<!-- Node1&#45;&gt;Node6 -->
<g id="edge5_Node000001_Node000006" class="edge">
<title>Node1&#45;&gt;Node6</title>
<g id="a_edge5_Node000001_Node000006"><a xlink:title=" ">
<path fill="none" stroke="#63b8ff" d="M765.42,-425.61C756.94,-468.69 734.98,-552.23 685.75,-603 682.72,-606.12 679.33,-608.95 675.71,-611.52"/>
<polygon fill="#63b8ff" stroke="#63b8ff" points="768.85,-426.31 767.23,-415.84 761.97,-425.03 768.85,-426.31"/>
</a>
</g>
</g>
<!-- Node7 -->
<g id="Node000007" class="node">
<title>Node7</title>
<g id="a_Node000007"><a xlink:href="class_fiea_1_1_engine_1_1_content_1_1_actions_1_1_preamble_action.html#a37175e23e8fcd12ea7a2d39f1a454809" target="_top" xlink:title="virtual function part of the vtable pointer. We are calling in the equality operator overloaded funct...">
<polygon fill="white" stroke="#666666" points="680.5,-594 550.5,-594 550.5,-550 680.5,-550 680.5,-594"/>
<text text-anchor="start" x="558.5" y="-580.5" font-family="Helvetica,sans-Serif" font-size="10.00">Fiea::Engine::Content</text>
<text text-anchor="start" x="558.5" y="-568.5" font-family="Helvetica,sans-Serif" font-size="10.00">::Actions::PreambleAction</text>
<text text-anchor="middle" x="615.5" y="-556.5" font-family="Helvetica,sans-Serif" font-size="10.00">::Equals</text>
</a>
</g>
</g>
<!-- Node1&#45;&gt;Node7 -->
<g id="edge6_Node000001_Node000007" class="edge">
<title>Node1&#45;&gt;Node7</title>
<g id="a_edge6_Node000001_Node000007"><a xlink:title=" ">
<path fill="none" stroke="#63b8ff" d="M760.05,-424.95C747.2,-456.48 722.1,-508.5 685.75,-541 682.22,-544.16 678.31,-547.05 674.2,-549.67"/>
<polygon fill="#63b8ff" stroke="#63b8ff" points="763.27,-426.33 763.67,-415.74 756.75,-423.77 763.27,-426.33"/>
</a>
</g>
</g>
<!-- Node8 -->
<g id="Node000008" class="node">
<title>Node8</title>
<g id="a_Node000008"><a xlink:href="class_fiea_1_1_engine_1_1_content_1_1_actions_1_1_timed_action.html#a6cf0799b3a056fd8dacfc1fda9dfada0" target="_top" xlink:title="virtual function part of the vtable pointer. We are calling in the equality operator overloaded funct...">
<polygon fill="white" stroke="#666666" points="673.38,-532 557.62,-532 557.62,-488 673.38,-488 673.38,-532"/>
<text text-anchor="start" x="565.62" y="-518.5" font-family="Helvetica,sans-Serif" font-size="10.00">Fiea::Engine::Content</text>
<text text-anchor="start" x="565.62" y="-506.5" font-family="Helvetica,sans-Serif" font-size="10.00">::Actions::TimedAction</text>
<text text-anchor="middle" x="615.5" y="-494.5" font-family="Helvetica,sans-Serif" font-size="10.00">::Equals</text>
</a>
</g>
</g>
<!-- Node1&#45;&gt;Node8 -->
<g id="edge7_Node000001_Node000008" class="edge">
<title>Node1&#45;&gt;Node8</title>
<g id="a_edge7_Node000001_Node000008"><a xlink:title=" ">
<path fill="none" stroke="#63b8ff" d="M748.46,-422.85C732.46,-440.22 709.39,-463.06 685.75,-479 681.27,-482.02 676.45,-484.87 671.52,-487.52"/>
<polygon fill="#63b8ff" stroke="#63b8ff" points="751.03,-425.22 755.14,-415.46 745.84,-420.53 751.03,-425.22"/>
</a>
</g>
</g>
<!-- Node9 -->
<g id="Node000009" class="node">
<title>Node9</title>
<g id="a_Node000009"><a xlink:href="class_fiea_1_1_engine_1_1_content_1_1_actions_1_1_while_action_list.html#a016f632a0e1d0c3209941c5d53b16daf" target="_top" xlink:title="virtual function part of the vtable pointer. We are calling in the equality operator overloaded funct...">
<polygon fill="white" stroke="#666666" points="680.12,-470 550.88,-470 550.88,-426 680.12,-426 680.12,-470"/>
<text text-anchor="start" x="558.88" y="-456.5" font-family="Helvetica,sans-Serif" font-size="10.00">Fiea::Engine::Content</text>
<text text-anchor="start" x="558.88" y="-444.5" font-family="Helvetica,sans-Serif" font-size="10.00">::Actions::WhileActionList</text>
<text text-anchor="middle" x="615.5" y="-432.5" font-family="Helvetica,sans-Serif" font-size="10.00">::Equals</text>
</a>
</g>
</g>
<!-- Node1&#45;&gt;Node9 -->
<g id="edge8_Node000001_Node000009" class="edge">
<title>Node1&#45;&gt;Node9</title>
<g id="a_edge8_Node000001_Node000009"><a xlink:title=" ">
<path fill="none" stroke="#63b8ff" d="M710.52,-417.37C700.68,-420.58 690.44,-423.92 680.49,-427.16"/>
<polygon fill="#63b8ff" stroke="#63b8ff" points="711.57,-420.71 719.99,-414.29 709.4,-414.06 711.57,-420.71"/>
</a>
</g>
</g>
<!-- Node10 -->
<g id="Node000010" class="node">
<title>Node10</title>
<g id="a_Node000010"><a xlink:href="class_fiea_1_1_engine_1_1_content_1_1_attributed.html#a8d01baa61962f0cc56632828e53149fb" target="_top" xlink:title="virtual function part of the vtable pointer. We are calling in the equality operator overloaded funct...">
<polygon fill="white" stroke="#666666" points="671.12,-332 559.88,-332 559.88,-300 671.12,-300 671.12,-332"/>
<text text-anchor="start" x="567.88" y="-318.5" font-family="Helvetica,sans-Serif" font-size="10.00">Fiea::Engine::Content</text>
<text text-anchor="middle" x="615.5" y="-306.5" font-family="Helvetica,sans-Serif" font-size="10.00">::Attributed::Equals</text>
</a>
</g>
</g>
<!-- Node1&#45;&gt;Node10 -->
<g id="edge9_Node000001_Node000010" class="edge">
<title>Node1&#45;&gt;Node10</title>
<g id="a_edge9_Node000001_Node000010"><a xlink:title=" ">
<path fill="none" stroke="#63b8ff" d="M736.04,-375.49C720.93,-365.88 702.75,-354.87 685.75,-346 676.69,-341.27 666.72,-336.64 657.24,-332.49"/>
<polygon fill="#63b8ff" stroke="#63b8ff" points="733.9,-378.28 744.21,-380.74 737.69,-372.39 733.9,-378.28"/>
</a>
</g>
</g>
<!-- Node11 -->
<g id="Node000011" class="node">
<title>Node11</title>
<g id="a_Node000011"><a xlink:href="class_fiea_1_1_engine_1_1_tests_1_1_support_1_1_attribute_box.html#a95770764ad20e7eec64a873b620abf0b" target="_top" xlink:title="virtual function part of the vtable pointer. We are calling in the equality operator overloaded funct...">
<polygon fill="white" stroke="#666666" points="490.88,-376 375.12,-376 375.12,-332 490.88,-332 490.88,-376"/>
<text text-anchor="start" x="383.12" y="-362.5" font-family="Helvetica,sans-Serif" font-size="10.00">Fiea::Engine::Tests</text>
<text text-anchor="start" x="383.12" y="-350.5" font-family="Helvetica,sans-Serif" font-size="10.00">::Support::AttributeBox</text>
<text text-anchor="middle" x="433" y="-338.5" font-family="Helvetica,sans-Serif" font-size="10.00">::Equals</text>
</a>
</g>
</g>
<!-- Node1&#45;&gt;Node11 -->
<g id="edge22_Node000001_Node000011" class="edge">
<title>Node1&#45;&gt;Node11</title>
<g id="a_edge22_Node000001_Node000011"><a xlink:title=" ">
<path fill="none" stroke="#63b8ff" d="M710.36,-387.74C702.1,-386.42 693.72,-385.14 685.75,-384 619.19,-374.51 542.43,-365.66 491.34,-360.07"/>
<polygon fill="#63b8ff" stroke="#63b8ff" points="709.57,-391.16 720,-389.31 710.69,-384.25 709.57,-391.16"/>
</a>
</g>
</g>
<!-- Node12 -->
<g id="Node000012" class="node">
<title>Node12</title>
<g id="a_Node000012"><a xlink:href="class_fiea_1_1_engine_1_1_tests_1_1_support_1_1_attribute_box_plus.html#a471ffd9c73fb39133c84d49b6c9f6557" target="_top" xlink:title="virtual function part of the vtable pointer. We are calling in the equality operator overloaded funct...">
<polygon fill="white" stroke="#666666" points="313.62,-476 178.38,-476 178.38,-432 313.62,-432 313.62,-476"/>
<text text-anchor="start" x="186.38" y="-462.5" font-family="Helvetica,sans-Serif" font-size="10.00">Fiea::Engine::Tests</text>
<text text-anchor="start" x="186.38" y="-450.5" font-family="Helvetica,sans-Serif" font-size="10.00">::Support::AttributeBoxPlus</text>
<text text-anchor="middle" x="246" y="-438.5" font-family="Helvetica,sans-Serif" font-size="10.00">::Equals</text>
</a>
</g>
</g>
<!-- Node1&#45;&gt;Node12 -->
<g id="edge23_Node000001_Node000012" class="edge">
<title>Node1&#45;&gt;Node12</title>
<g id="a_edge23_Node000001_Node000012"><a xlink:title=" ">
<path fill="none" stroke="#63b8ff" d="M709.89,-402.44C664.59,-405.94 600.96,-411.19 545.25,-417 465.59,-425.31 374.23,-436.95 313.84,-444.95"/>
<polygon fill="#63b8ff" stroke="#63b8ff" points="710.07,-405.94 719.77,-401.68 709.54,-398.96 710.07,-405.94"/>
</a>
</g>
</g>
<!-- Node16 -->
<g id="Node000016" class="node">
<title>Node16</title>
<g id="a_Node000016"><a xlink:href="class_fiea_1_1_engine_1_1_game_object.html#a1d65d71f93d2e93cc95fd305183a85b3" target="_top" xlink:title="virtual function part of the vtable pointer. We are calling in the equality operator overloaded funct...">
<polygon fill="white" stroke="#666666" points="681.25,-232 549.75,-232 549.75,-200 681.25,-200 681.25,-232"/>
<text text-anchor="start" x="557.75" y="-218.5" font-family="Helvetica,sans-Serif" font-size="10.00">Fiea::Engine::GameObject</text>
<text text-anchor="middle" x="615.5" y="-206.5" font-family="Helvetica,sans-Serif" font-size="10.00">::Equals</text>
</a>
</g>
</g>
<!-- Node1&#45;&gt;Node16 -->
<g id="edge15_Node000001_Node000016" class="edge">
<title>Node1&#45;&gt;Node16</title>
<g id="a_edge15_Node000001_Node000016"><a xlink:title=" ">
<path fill="none" stroke="#63b8ff" d="M762.2,-371C750.85,-336.27 726.55,-276.24 685.75,-241 681.98,-237.74 677.75,-234.9 673.29,-232.41"/>
<polygon fill="#63b8ff" stroke="#63b8ff" points="758.78,-371.79 765.11,-380.29 765.46,-369.7 758.78,-371.79"/>
</a>
</g>
</g>
<!-- Node18 -->
<g id="Node000018" class="node">
<title>Node18</title>
<g id="a_Node000018"><a xlink:href="class_fiea_1_1_engine_1_1_content_1_1_scope.html#a818e45429879149688d16d41b1b7b84b" target="_top" xlink:title="virtual function part of the vtable pointer. We are calling in the equality operator overloaded funct...">
<polygon fill="white" stroke="#666666" points="671.12,-144 559.88,-144 559.88,-112 671.12,-112 671.12,-144"/>
<text text-anchor="start" x="567.88" y="-130.5" font-family="Helvetica,sans-Serif" font-size="10.00">Fiea::Engine::Content</text>
<text text-anchor="middle" x="615.5" y="-118.5" font-family="Helvetica,sans-Serif" font-size="10.00">::Scope::Equals</text>
</a>
</g>
</g>
<!-- Node1&#45;&gt;Node18 -->
<g id="edge17_Node000001_Node000018" class="edge">
<title>Node1&#45;&gt;Node18</title>
<g id="a_edge17_Node000001_Node000018"><a xlink:title=" ">
<path fill="none" stroke="#63b8ff" d="M767.48,-370.54C761.62,-321.76 742.9,-219.37 685.75,-158 680.75,-152.63 674.62,-148.17 668.1,-144.49"/>
<polygon fill="#63b8ff" stroke="#63b8ff" points="763.97,-370.67 768.54,-380.22 770.93,-369.9 763.97,-370.67"/>
</a>
</g>
</g>
<!-- Node19 -->
<g id="Node000019" class="node">
<title>Node19</title>
<g id="a_Node000019"><a xlink:href="class_fiea_1_1_engine_1_1_tests_1_1_support_1_1_scoped_foo.html#a5cdbe172283c298c28edef00ecaef3bd" target="_top" xlink:title="virtual function part of the vtable pointer. We are calling in the equality operator overloaded funct...">
<polygon fill="white" stroke="#666666" points="488.62,-88 377.38,-88 377.38,-44 488.62,-44 488.62,-88"/>
<text text-anchor="start" x="385.38" y="-74.5" font-family="Helvetica,sans-Serif" font-size="10.00">Fiea::Engine::Tests</text>
<text text-anchor="start" x="385.38" y="-62.5" font-family="Helvetica,sans-Serif" font-size="10.00">::Support::ScopedFoo</text>
<text text-anchor="middle" x="433" y="-50.5" font-family="Helvetica,sans-Serif" font-size="10.00">::Equals</text>
</a>
</g>
</g>
<!-- Node1&#45;&gt;Node19 -->
<g id="edge24_Node000001_Node000019" class="edge">
<title>Node1&#45;&gt;Node19</title>
<g id="a_edge24_Node000001_Node000019"><a xlink:title=" ">
<path fill="none" stroke="#63b8ff" d="M766.62,-370.44C759.69,-326 739.68,-238.7 685.75,-191 637.3,-148.14 597.45,-191.2 545.25,-153 521.37,-135.53 531.97,-115.95 509.25,-97 503.17,-91.93 496.15,-87.6 488.9,-83.92"/>
<polygon fill="#63b8ff" stroke="#63b8ff" points="763.15,-370.87 768.03,-380.27 770.08,-369.87 763.15,-370.87"/>
</a>
</g>
</g>
<!-- Node22 -->
<g id="Node000022" class="node">
<title>Node22</title>
<g id="a_Node000022"><a xlink:href="class_fiea_1_1_engine_1_1_tests_1_1_support_1_1_action_add_datum.html#a0ed516e0861f7c3527f552d39793c7d9" target="_top" xlink:title="virtual function part of the vtable pointer. We are calling in the equality operator overloaded funct...">
<polygon fill="white" stroke="#666666" points="683.5,-94 547.5,-94 547.5,-50 683.5,-50 683.5,-94"/>
<text text-anchor="start" x="555.5" y="-80.5" font-family="Helvetica,sans-Serif" font-size="10.00">Fiea::Engine::Tests</text>
<text text-anchor="start" x="555.5" y="-68.5" font-family="Helvetica,sans-Serif" font-size="10.00">::Support::ActionAddDatum</text>
<text text-anchor="middle" x="615.5" y="-56.5" font-family="Helvetica,sans-Serif" font-size="10.00">::Equals</text>
</a>
</g>
</g>
<!-- Node1&#45;&gt;Node22 -->
<g id="edge21_Node000001_Node000022" class="edge">
<title>Node1&#45;&gt;Node22</title>
<g id="a_edge21_Node000001_Node000022"><a xlink:title=" ">
<path fill="none" stroke="#63b8ff" d="M769.57,-370.48C767.26,-313.68 754.32,-182.13 685.75,-103 682.99,-99.81 679.84,-96.94 676.43,-94.35"/>
<polygon fill="#63b8ff" stroke="#63b8ff" points="766.07,-370.33 769.88,-380.22 773.06,-370.11 766.07,-370.33"/>
</a>
</g>
</g>
<!-- Node23 -->
<g id="Node000023" class="node">
<title>Node23</title>
<g id="a_Node000023"><a xlink:href="class_fiea_1_1_engine_1_1_content_1_1_attributed.html#a175ef1779adacec6434ea9bda35186bc" target="_top" xlink:title="Is the attribute part of the class defintion.">
<polygon fill="white" stroke="#666666" points="685.75,-282 545.25,-282 545.25,-250 685.75,-250 685.75,-282"/>
<text text-anchor="start" x="553.25" y="-268.5" font-family="Helvetica,sans-Serif" font-size="10.00">Fiea::Engine::Content</text>
<text text-anchor="middle" x="615.5" y="-256.5" font-family="Helvetica,sans-Serif" font-size="10.00">::Attributed::IsClassAttribute</text>
</a>
</g>
</g>
<!-- Node1&#45;&gt;Node23 -->
<g id="edge25_Node000001_Node000023" class="edge">
<title>Node1&#45;&gt;Node23</title>
<g id="a_edge25_Node000001_Node000023"><a xlink:title=" ">
<path fill="none" stroke="#63b8ff" d="M755.15,-371.62C740.38,-347.56 715.64,-312.57 685.75,-291 681.29,-287.78 676.38,-284.94 671.29,-282.44"/>
<polygon fill="#63b8ff" stroke="#63b8ff" points="752.13,-373.4 760.26,-380.2 758.15,-369.82 752.13,-373.4"/>
</a>
</g>
</g>
<!-- Node28 -->
<g id="Node000028" class="node">
<title>Node28</title>
<g id="a_Node000028"><a xlink:href="namespace_fiea_1_1_engine_1_1_tests.html#a4c38cd01e5a0cfe2b5ea3757817aaa63" target="_top" xlink:title=" ">
<polygon fill="white" stroke="#666666" points="665.88,-32 565.12,-32 565.12,0 665.88,0 665.88,-32"/>
<text text-anchor="start" x="573.12" y="-18.5" font-family="Helvetica,sans-Serif" font-size="10.00">Fiea::Engine::Tests</text>
<text text-anchor="middle" x="615.5" y="-6.5" font-family="Helvetica,sans-Serif" font-size="10.00">::TEST_CLASS</text>
</a>
</g>
</g>
<!-- Node1&#45;&gt;Node28 -->
<g id="edge35_Node000001_Node000028" class="edge">
<title>Node1&#45;&gt;Node28</title>
<g id="a_edge35_Node000001_Node000028"><a xlink:title=" ">
<path fill="none" stroke="#63b8ff" d="M766.92,-370.7C758,-296 729.9,-90.53 685.75,-41 680.39,-34.99 673.48,-30.42 666.1,-26.95"/>
<polygon fill="#63b8ff" stroke="#63b8ff" points="763.42,-370.88 768.06,-380.41 770.37,-370.07 763.42,-370.88"/>
</a>
</g>
</g>
<!-- Node10&#45;&gt;Node11 -->
<g id="edge10_Node000010_Node000011" class="edge">
<title>Node10&#45;&gt;Node11</title>
<g id="a_edge10_Node000010_Node000011"><a xlink:title=" ">
<path fill="none" stroke="#63b8ff" d="M548.68,-329.86C529.87,-333.82 509.53,-338.1 491.28,-341.94"/>
<polygon fill="#63b8ff" stroke="#63b8ff" points="549.31,-333.3 558.37,-327.82 547.87,-326.45 549.31,-333.3"/>
</a>
</g>
</g>
<!-- Node11&#45;&gt;Node12 -->
<g id="edge11_Node000011_Node000012" class="edge">
<title>Node11&#45;&gt;Node12</title>
<g id="a_edge11_Node000011_Node000012"><a xlink:title=" ">
<path fill="none" stroke="#63b8ff" d="M369.85,-381.89C365.33,-384.48 360.91,-387.19 356.75,-390 338.76,-402.15 339.02,-411.29 320.75,-423 315.96,-426.07 310.81,-428.96 305.54,-431.63"/>
<polygon fill="#63b8ff" stroke="#63b8ff" points="371.43,-385.02 378.55,-377.16 368.09,-378.87 371.43,-385.02"/>
</a>
</g>
</g>
<!-- Node14 -->
<g id="Node000014" class="node">
<title>Node14</title>
<g id="a_Node000014"><a xlink:href="class_fiea_1_1_engine_1_1_tests_1_1_support_1_1_attribute_box.html#ac02c1174e15d196968920eee30fc085b" target="_top" xlink:title=" ">
<polygon fill="white" stroke="#666666" points="303.88,-414 188.12,-414 188.12,-370 303.88,-370 303.88,-414"/>
<text text-anchor="start" x="196.12" y="-400.5" font-family="Helvetica,sans-Serif" font-size="10.00">Fiea::Engine::Tests</text>
<text text-anchor="start" x="196.12" y="-388.5" font-family="Helvetica,sans-Serif" font-size="10.00">::Support::AttributeBox</text>
<text text-anchor="middle" x="246" y="-376.5" font-family="Helvetica,sans-Serif" font-size="10.00">::operator==</text>
</a>
</g>
</g>
<!-- Node11&#45;&gt;Node14 -->
<g id="edge13_Node000011_Node000014" class="edge">
<title>Node11&#45;&gt;Node14</title>
<g id="a_edge13_Node000011_Node000014"><a xlink:title=" ">
<path fill="none" stroke="#63b8ff" d="M363.48,-368.07C344.02,-372.07 323.04,-376.38 304.32,-380.23"/>
<polygon fill="#63b8ff" stroke="#63b8ff" points="364.16,-371.51 373.25,-366.07 362.75,-364.65 364.16,-371.51"/>
</a>
</g>
</g>
<!-- Node15 -->
<g id="Node000015" class="node">
<title>Node15</title>
<g id="a_Node000015"><a xlink:href="namespace_fiea_1_1_engine_1_1_tests.html#acf19d1e24b6e04bb3eefd39b994f462d" target="_top" xlink:title=" ">
<polygon fill="white" stroke="#666666" points="118,-245 17.25,-245 17.25,-213 118,-213 118,-245"/>
<text text-anchor="start" x="25.25" y="-231.5" font-family="Helvetica,sans-Serif" font-size="10.00">Fiea::Engine::Tests</text>
<text text-anchor="middle" x="67.62" y="-219.5" font-family="Helvetica,sans-Serif" font-size="10.00">::TEST_CLASS</text>
</a>
</g>
</g>
<!-- Node11&#45;&gt;Node15 -->
<g id="edge14_Node000011_Node000015" class="edge">
<title>Node11&#45;&gt;Node15</title>
<g id="a_edge14_Node000011_Node000015"><a xlink:title=" ">
<path fill="none" stroke="#63b8ff" d="M363.5,-355.06C309.12,-353.48 232.35,-345.71 171.25,-318 133.88,-301.05 99.9,-266.03 81.96,-245.33"/>
<polygon fill="#63b8ff" stroke="#63b8ff" points="363.16,-358.56 373.24,-355.28 363.32,-351.56 363.16,-358.56"/>
</a>
</g>
</g>
<!-- Node13 -->
<g id="Node000013" class="node">
<title>Node13</title>
<g id="a_Node000013"><a xlink:href="class_fiea_1_1_engine_1_1_tests_1_1_support_1_1_attribute_box_plus.html#a6092c3f5b768e473a7f4195257aceb8b" target="_top" xlink:title=" ">
<polygon fill="white" stroke="#666666" points="135.25,-476 0,-476 0,-432 135.25,-432 135.25,-476"/>
<text text-anchor="start" x="8" y="-462.5" font-family="Helvetica,sans-Serif" font-size="10.00">Fiea::Engine::Tests</text>
<text text-anchor="start" x="8" y="-450.5" font-family="Helvetica,sans-Serif" font-size="10.00">::Support::AttributeBoxPlus</text>
<text text-anchor="middle" x="67.62" y="-438.5" font-family="Helvetica,sans-Serif" font-size="10.00">::operator==</text>
</a>
</g>
</g>
<!-- Node12&#45;&gt;Node13 -->
<g id="edge12_Node000012_Node000013" class="edge">
<title>Node12&#45;&gt;Node13</title>
<g id="a_edge12_Node000012_Node000013"><a xlink:title=" ">
<path fill="none" stroke="#63b8ff" d="M166.83,-454C156.38,-454 145.74,-454 135.51,-454"/>
<polygon fill="#63b8ff" stroke="#63b8ff" points="166.56,-457.5 176.56,-454 166.56,-450.5 166.56,-457.5"/>
</a>
</g>
</g>
<!-- Node17 -->
<g id="Node000017" class="node">
<title>Node17</title>
<g id="a_Node000017"><a xlink:href="class_fiea_1_1_engine_1_1_game_object.html#a68ff3dad30cb528774efdd9fc9bd88c1" target="_top" xlink:title=" ">
<polygon fill="white" stroke="#666666" points="498.75,-138 367.25,-138 367.25,-106 498.75,-106 498.75,-138"/>
<text text-anchor="start" x="375.25" y="-124.5" font-family="Helvetica,sans-Serif" font-size="10.00">Fiea::Engine::GameObject</text>
<text text-anchor="middle" x="433" y="-112.5" font-family="Helvetica,sans-Serif" font-size="10.00">::operator==</text>
</a>
</g>
</g>
<!-- Node16&#45;&gt;Node17 -->
<g id="edge16_Node000016_Node000017" class="edge">
<title>Node16&#45;&gt;Node17</title>
<g id="a_edge16_Node000016_Node000017"><a xlink:title=" ">
<path fill="none" stroke="#63b8ff" d="M559.06,-194.52C554.24,-191.9 549.56,-189.06 545.25,-186 526.01,-172.35 529.07,-159.79 509.25,-147 504.28,-143.79 498.85,-140.95 493.26,-138.46"/>
<polygon fill="#63b8ff" stroke="#63b8ff" points="557.21,-197.51 567.72,-198.89 560.36,-191.26 557.21,-197.51"/>
</a>
</g>
</g>
<!-- Node18&#45;&gt;Node19 -->
<g id="edge18_Node000018_Node000019" class="edge">
<title>Node18&#45;&gt;Node19</title>
<g id="a_edge18_Node000018_Node000019"><a xlink:title=" ">
<path fill="none" stroke="#63b8ff" d="M555.94,-107.89C534.38,-100.48 510.05,-92.12 488.83,-84.83"/>
<polygon fill="#63b8ff" stroke="#63b8ff" points="554.58,-111.12 565.17,-111.06 556.85,-104.5 554.58,-111.12"/>
</a>
</g>
</g>
<!-- Node20 -->
<g id="Node000020" class="node">
<title>Node20</title>
<g id="a_Node000020"><a xlink:href="class_fiea_1_1_engine_1_1_tests_1_1_support_1_1_scoped_foo.html#a97c04b7fe75574b7db870fb290eb3d86" target="_top" xlink:title=" ">
<polygon fill="white" stroke="#666666" points="301.62,-88 190.38,-88 190.38,-44 301.62,-44 301.62,-88"/>
<text text-anchor="start" x="198.38" y="-74.5" font-family="Helvetica,sans-Serif" font-size="10.00">Fiea::Engine::Tests</text>
<text text-anchor="start" x="198.38" y="-62.5" font-family="Helvetica,sans-Serif" font-size="10.00">::Support::ScopedFoo</text>
<text text-anchor="middle" x="246" y="-50.5" font-family="Helvetica,sans-Serif" font-size="10.00">::operator==</text>
</a>
</g>
</g>
<!-- Node19&#45;&gt;Node20 -->
<g id="edge19_Node000019_Node000020" class="edge">
<title>Node19&#45;&gt;Node20</title>
<g id="a_edge19_Node000019_Node000020"><a xlink:title=" ">
<path fill="none" stroke="#63b8ff" d="M365.65,-66C344.83,-66 322.07,-66 302.11,-66"/>
<polygon fill="#63b8ff" stroke="#63b8ff" points="365.48,-69.5 375.48,-66 365.48,-62.5 365.48,-69.5"/>
</a>
</g>
</g>
<!-- Node21 -->
<g id="Node000021" class="node">
<title>Node21</title>
<g id="a_Node000021"><a xlink:href="class_fiea_1_1_engine_1_1_tests_1_1_support_1_1_scoped_foo.html#a5afa0eb63e0bba3adf00297eea994d2d" target="_top" xlink:title=" ">
<polygon fill="white" stroke="#666666" points="123.25,-88 12,-88 12,-44 123.25,-44 123.25,-88"/>
<text text-anchor="start" x="20" y="-74.5" font-family="Helvetica,sans-Serif" font-size="10.00">Fiea::Engine::Tests</text>
<text text-anchor="start" x="20" y="-62.5" font-family="Helvetica,sans-Serif" font-size="10.00">::Support::ScopedFoo</text>
<text text-anchor="middle" x="67.62" y="-50.5" font-family="Helvetica,sans-Serif" font-size="10.00">::operator!=</text>
</a>
</g>
</g>
<!-- Node20&#45;&gt;Node21 -->
<g id="edge20_Node000020_Node000021" class="edge">
<title>Node20&#45;&gt;Node21</title>
<g id="a_edge20_Node000020_Node000021"><a xlink:title=" ">
<path fill="none" stroke="#63b8ff" d="M178.77,-66C160.63,-66 141.17,-66 123.73,-66"/>
<polygon fill="#63b8ff" stroke="#63b8ff" points="178.65,-69.5 188.65,-66 178.65,-62.5 178.65,-69.5"/>
</a>
</g>
</g>
<!-- Node23&#45;&gt;Node15 -->
<g id="edge34_Node000023_Node000015" class="edge">
<title>Node23&#45;&gt;Node15</title>
<g id="a_edge34_Node000023_Node000015"><a xlink:title=" ">
<path fill="none" stroke="#63b8ff" d="M533.67,-283.28C443.7,-299.35 294.71,-316.49 171.25,-285 141.36,-277.37 110.78,-259.06 90.87,-245.44"/>
<polygon fill="#63b8ff" stroke="#63b8ff" points="534.19,-286.74 543.39,-281.5 532.93,-279.86 534.19,-286.74"/>
</a>
</g>
</g>
<!-- Node24 -->
<g id="Node000024" class="node">
<title>Node24</title>
<g id="a_Node000024"><a xlink:href="class_fiea_1_1_engine_1_1_content_1_1_attributed.html#a34651717762643ed0dc822db143f7a46" target="_top" xlink:title="Append instance attribute from code.">
<polygon fill="white" stroke="#666666" points="316.25,-276 175.75,-276 175.75,-232 316.25,-232 316.25,-276"/>
<text text-anchor="start" x="183.75" y="-262.5" font-family="Helvetica,sans-Serif" font-size="10.00">Fiea::Engine::Content</text>
<text text-anchor="start" x="183.75" y="-250.5" font-family="Helvetica,sans-Serif" font-size="10.00">::Attributed::AppendInstance</text>
<text text-anchor="middle" x="246" y="-238.5" font-family="Helvetica,sans-Serif" font-size="10.00">Attribute</text>
</a>
</g>
</g>
<!-- Node23&#45;&gt;Node24 -->
<g id="edge26_Node000023_Node000024" class="edge">
<title>Node23&#45;&gt;Node24</title>
<g id="a_edge26_Node000023_Node000024"><a xlink:title=" ">
<path fill="none" stroke="#63b8ff" d="M533.53,-263.36C468.56,-261.23 378.33,-258.29 316.58,-256.27"/>
<polygon fill="#63b8ff" stroke="#63b8ff" points="533.32,-266.85 543.43,-263.68 533.55,-259.85 533.32,-266.85"/>
</a>
</g>
</g>
<!-- Node25 -->
<g id="Node000025" class="node">
<title>Node25</title>
<g id="a_Node000025"><a xlink:href="class_fiea_1_1_engine_1_1_content_1_1_attributed.html#a11d0f196f168577da9dfc5d9062b5298" target="_top" xlink:title="Returns the attributes that belong to the class by definition.">
<polygon fill="white" stroke="#666666" points="501.75,-238 364.25,-238 364.25,-206 501.75,-206 501.75,-238"/>
<text text-anchor="start" x="372.25" y="-224.5" font-family="Helvetica,sans-Serif" font-size="10.00">Fiea::Engine::Content</text>
<text text-anchor="middle" x="433" y="-212.5" font-family="Helvetica,sans-Serif" font-size="10.00">::Attributed::ClassAttributes</text>
</a>
</g>
</g>
<!-- Node23&#45;&gt;Node25 -->
<g id="edge28_Node000023_Node000025" class="edge">
<title>Node23&#45;&gt;Node25</title>
<g id="a_edge28_Node000023_Node000025"><a xlink:title=" ">
<path fill="none" stroke="#63b8ff" d="M536.13,-246.9C524.66,-244.1 512.92,-241.24 501.69,-238.5"/>
<polygon fill="#63b8ff" stroke="#63b8ff" points="535.02,-250.23 545.56,-249.19 536.67,-243.43 535.02,-250.23"/>
</a>
</g>
</g>
<!-- Node26 -->
<g id="Node000026" class="node">
<title>Node26</title>
<g id="a_Node000026"><a xlink:href="class_fiea_1_1_engine_1_1_content_1_1_attributed.html#adaed7bf877c03d16edb097acff6bd8ac" target="_top" xlink:title="Is the attribute added to the instance?">
<polygon fill="white" stroke="#666666" points="509.25,-188 356.75,-188 356.75,-156 509.25,-156 509.25,-188"/>
<text text-anchor="start" x="364.75" y="-174.5" font-family="Helvetica,sans-Serif" font-size="10.00">Fiea::Engine::Content</text>
<text text-anchor="middle" x="433" y="-162.5" font-family="Helvetica,sans-Serif" font-size="10.00">::Attributed::IsInstanceAttribute</text>
</a>
</g>
</g>
<!-- Node23&#45;&gt;Node26 -->
<g id="edge30_Node000023_Node000026" class="edge">
<title>Node23&#45;&gt;Node26</title>
<g id="a_edge30_Node000023_Node000026"><a xlink:title=" ">
<path fill="none" stroke="#63b8ff" d="M550.14,-244.22C548.46,-243.19 546.83,-242.12 545.25,-241 524.62,-226.41 530.06,-211.33 509.25,-197 504.49,-193.72 499.26,-190.85 493.85,-188.33"/>
<polygon fill="#63b8ff" stroke="#63b8ff" points="548.34,-247.22 558.8,-248.92 551.68,-241.07 548.34,-247.22"/>
</a>
</g>
</g>
<!-- Node24&#45;&gt;Node15 -->
<g id="edge27_Node000024_Node000015" class="edge">
<title>Node24&#45;&gt;Node15</title>
<g id="a_edge27_Node000024_Node000015"><a xlink:title=" ">
<path fill="none" stroke="#63b8ff" d="M164.01,-242.52C148.41,-240.31 132.5,-238.05 118.26,-236.04"/>
<polygon fill="#63b8ff" stroke="#63b8ff" points="163.4,-245.97 173.79,-243.91 164.38,-239.04 163.4,-245.97"/>
</a>
</g>
</g>
<!-- Node25&#45;&gt;Node15 -->
<g id="edge29_Node000025_Node000015" class="edge">
<title>Node25&#45;&gt;Node15</title>
<g id="a_edge29_Node000025_Node000015"><a xlink:title=" ">
<path fill="none" stroke="#63b8ff" d="M352.49,-221.18C300.83,-220.93 232.04,-221.11 171.25,-223 154.04,-223.54 135.22,-224.52 118.45,-225.54"/>
<polygon fill="#63b8ff" stroke="#63b8ff" points="352.37,-224.68 362.39,-221.24 352.41,-217.68 352.37,-224.68"/>
</a>
</g>
</g>
<!-- Node26&#45;&gt;Node15 -->
<g id="edge33_Node000026_Node000015" class="edge">
<title>Node26&#45;&gt;Node15</title>
<g id="a_edge33_Node000026_Node000015"><a xlink:title=" ">
<path fill="none" stroke="#63b8ff" d="M345.13,-185.63C274.26,-196.74 176.65,-212.05 118.37,-221.2"/>
<polygon fill="#63b8ff" stroke="#63b8ff" points="345.43,-189.12 354.77,-184.11 344.35,-182.21 345.43,-189.12"/>
</a>
</g>
</g>
<!-- Node27 -->
<g id="Node000027" class="node">
<title>Node27</title>
<g id="a_Node000027"><a xlink:href="class_fiea_1_1_engine_1_1_content_1_1_attributed.html#a765ff8b9803452293255177e43f5e6f3" target="_top" xlink:title=" ">
<polygon fill="white" stroke="#666666" points="320.75,-138 171.25,-138 171.25,-106 320.75,-106 320.75,-138"/>
<text text-anchor="start" x="179.25" y="-124.5" font-family="Helvetica,sans-Serif" font-size="10.00">Fiea::Engine::Content</text>
<text text-anchor="middle" x="246" y="-112.5" font-family="Helvetica,sans-Serif" font-size="10.00">::Attributed::InstanceAttributes</text>
</a>
</g>
</g>
<!-- Node26&#45;&gt;Node27 -->
<g id="edge31_Node000026_Node000027" class="edge">
<title>Node26&#45;&gt;Node27</title>
<g id="a_edge31_Node000026_Node000027"><a xlink:title=" ">
<path fill="none" stroke="#63b8ff" d="M360.51,-152.68C343.13,-147.98 324.7,-143 307.87,-138.45"/>
<polygon fill="#63b8ff" stroke="#63b8ff" points="359.14,-155.93 369.71,-155.16 360.97,-149.18 359.14,-155.93"/>
</a>
</g>
</g>
<!-- Node27&#45;&gt;Node15 -->
<g id="edge32_Node000027_Node000015" class="edge">
<title>Node27&#45;&gt;Node15</title>
<g id="a_edge32_Node000027_Node000015"><a xlink:title=" ">
<path fill="none" stroke="#63b8ff" d="M189.01,-142.98C182.91,-145.79 176.88,-148.82 171.25,-152 139.85,-169.77 107.09,-195.89 87.27,-212.67"/>
<polygon fill="#63b8ff" stroke="#63b8ff" points="190.16,-146.3 197.9,-139.06 187.34,-139.89 190.16,-146.3"/>
</a>
</g>
</g>
</g>
</svg>
