<?xml version="1.0" encoding="UTF-8" standalone="no"?>
<!DOCTYPE svg PUBLIC "-//W3C//DTD SVG 1.1//EN"
 "http://www.w3.org/Graphics/SVG/1.1/DTD/svg11.dtd">
<!-- Generated by graphviz version 12.2.1 (20241206.2353)
 -->
<!-- Title: Fiea::Engine::Content::IParseHandler Pages: 1 -->
<svg width="1254pt" height="332pt"
 viewBox="0.00 0.00 1254.25 332.00" xmlns="http://www.w3.org/2000/svg" xmlns:xlink="http://www.w3.org/1999/xlink">
<g id="graph0" class="graph" transform="scale(1 1) rotate(0) translate(4 328)">
<title>Fiea::Engine::Content::IParseHandler</title>
<!-- Node1 -->
<g id="Node000001" class="node">
<title>Node1</title>
<g id="a_Node000001"><a xlink:title=" ">
<polygon fill="#999999" stroke="none" points="671.25,-324 568,-324 568,-180 671.25,-180 671.25,-324"/>
<text text-anchor="start" x="572" y="-310.5" font-family="Helvetica,sans-Serif" font-size="10.00">Fiea::Engine::Content</text>
<text text-anchor="start" x="585.5" y="-298.5" font-family="Helvetica,sans-Serif" font-size="10.00">::IParseHandler</text>
<text text-anchor="start" x="618.12" y="-282.5" font-family="Helvetica,sans-Serif" font-size="10.00"> </text>
<text text-anchor="start" x="574.75" y="-266.5" font-family="Helvetica,sans-Serif" font-size="10.00">+</text>
<text text-anchor="start" x="587.5" y="-266.5" font-family="Helvetica,sans-Serif" font-size="10.00">Begin()</text>
<text text-anchor="start" x="574.75" y="-250.5" font-family="Helvetica,sans-Serif" font-size="10.00">+</text>
<text text-anchor="start" x="587.5" y="-250.5" font-family="Helvetica,sans-Serif" font-size="10.00">End()</text>
<text text-anchor="start" x="574.75" y="-234.5" font-family="Helvetica,sans-Serif" font-size="10.00">+</text>
<text text-anchor="start" x="587.5" y="-234.5" font-family="Helvetica,sans-Serif" font-size="10.00">EnterKey()</text>
<text text-anchor="start" x="574.75" y="-218.5" font-family="Helvetica,sans-Serif" font-size="10.00">+</text>
<text text-anchor="start" x="587.5" y="-218.5" font-family="Helvetica,sans-Serif" font-size="10.00">ExitKey()</text>
<text text-anchor="start" x="574.75" y="-202.5" font-family="Helvetica,sans-Serif" font-size="10.00">+</text>
<text text-anchor="start" x="587.5" y="-202.5" font-family="Helvetica,sans-Serif" font-size="10.00">~IParseHandler()</text>
<text text-anchor="start" x="575.12" y="-186.5" font-family="Helvetica,sans-Serif" font-size="10.00">#</text>
<text text-anchor="start" x="587.5" y="-186.5" font-family="Helvetica,sans-Serif" font-size="10.00">IParseHandler()</text>
<polygon fill="#666666" stroke="#666666" points="568,-294 568,-294 671.25,-294 671.25,-294 568,-294"/>
<polygon fill="#666666" stroke="#666666" points="568,-278 568,-278 671.25,-278 671.25,-278 568,-278"/>
<polygon fill="none" stroke="#666666" points="568,-180 568,-324 671.25,-324 671.25,-180 568,-180"/>
</a>
</g>
</g>
<!-- Node2 -->
<g id="Node000002" class="node">
<title>Node2</title>
<g id="a_Node000002"><a xlink:href="class_fiea_1_1_engine_1_1_content_1_1_action_handler.html" target="_top" xlink:title=" ">
<polygon fill="white" stroke="none" points="103.25,-128 0,-128 0,-16 103.25,-16 103.25,-128"/>
<text text-anchor="start" x="4" y="-114.5" font-family="Helvetica,sans-Serif" font-size="10.00">Fiea::Engine::Content</text>
<text text-anchor="start" x="17.88" y="-102.5" font-family="Helvetica,sans-Serif" font-size="10.00">::ActionHandler</text>
<text text-anchor="start" x="50.12" y="-86.5" font-family="Helvetica,sans-Serif" font-size="10.00"> </text>
<text text-anchor="start" x="6.94" y="-70.5" font-family="Helvetica,sans-Serif" font-size="10.00">+</text>
<text text-anchor="start" x="19.88" y="-70.5" font-family="Helvetica,sans-Serif" font-size="10.00">ActionHandler()</text>
<text text-anchor="start" x="6.94" y="-54.5" font-family="Helvetica,sans-Serif" font-size="10.00">+</text>
<text text-anchor="start" x="19.88" y="-54.5" font-family="Helvetica,sans-Serif" font-size="10.00">~ActionHandler()</text>
<text text-anchor="start" x="6.94" y="-38.5" font-family="Helvetica,sans-Serif" font-size="10.00">+</text>
<text text-anchor="start" x="19.88" y="-38.5" font-family="Helvetica,sans-Serif" font-size="10.00">EnterKey()</text>
<text text-anchor="start" x="6.94" y="-22.5" font-family="Helvetica,sans-Serif" font-size="10.00">+</text>
<text text-anchor="start" x="19.88" y="-22.5" font-family="Helvetica,sans-Serif" font-size="10.00">ExitKey()</text>
<polygon fill="#666666" stroke="#666666" points="0,-98 0,-98 103.25,-98 103.25,-98 0,-98"/>
<polygon fill="#666666" stroke="#666666" points="0,-82 0,-82 103.25,-82 103.25,-82 0,-82"/>
<polygon fill="none" stroke="#666666" points="0,-16 0,-128 103.25,-128 103.25,-16 0,-16"/>
</a>
</g>
</g>
<!-- Node1&#45;&gt;Node2 -->
<g id="edge1_Node000001_Node000002" class="edge">
<title>Node1&#45;&gt;Node2</title>
<g id="a_edge1_Node000001_Node000002"><a xlink:title=" ">
<path fill="none" stroke="#63b8ff" d="M556.9,-250.6C456.05,-247.28 254.68,-229.44 111.62,-144 104.28,-139.61 97.41,-134 91.12,-127.86"/>
<polygon fill="none" stroke="#63b8ff" points="556.5,-254.09 566.59,-250.87 556.7,-247.09 556.5,-254.09"/>
</a>
</g>
</g>
<!-- Node3 -->
<g id="Node000003" class="node">
<title>Node3</title>
<g id="a_Node000003"><a xlink:href="class_fiea_1_1_engine_1_1_content_1_1_action_list_handler.html" target="_top" xlink:title=" ">
<polygon fill="white" stroke="none" points="228.25,-128 121,-128 121,-16 228.25,-16 228.25,-128"/>
<text text-anchor="start" x="127" y="-114.5" font-family="Helvetica,sans-Serif" font-size="10.00">Fiea::Engine::Content</text>
<text text-anchor="start" x="133" y="-102.5" font-family="Helvetica,sans-Serif" font-size="10.00">::ActionListHandler</text>
<text text-anchor="start" x="173.12" y="-86.5" font-family="Helvetica,sans-Serif" font-size="10.00"> </text>
<text text-anchor="start" x="125" y="-70.5" font-family="Helvetica,sans-Serif" font-size="10.00">+</text>
<text text-anchor="start" x="135" y="-70.5" font-family="Helvetica,sans-Serif" font-size="10.00">ActionListHandler()</text>
<text text-anchor="start" x="125" y="-54.5" font-family="Helvetica,sans-Serif" font-size="10.00">+</text>
<text text-anchor="start" x="135" y="-54.5" font-family="Helvetica,sans-Serif" font-size="10.00">~ActionListHandler()</text>
<text text-anchor="start" x="125" y="-38.5" font-family="Helvetica,sans-Serif" font-size="10.00">+</text>
<text text-anchor="start" x="135" y="-38.5" font-family="Helvetica,sans-Serif" font-size="10.00">EnterKey()</text>
<text text-anchor="start" x="125" y="-22.5" font-family="Helvetica,sans-Serif" font-size="10.00">+</text>
<text text-anchor="start" x="135" y="-22.5" font-family="Helvetica,sans-Serif" font-size="10.00">ExitKey()</text>
<polygon fill="#666666" stroke="#666666" points="121,-98 121,-98 228.25,-98 228.25,-98 121,-98"/>
<polygon fill="#666666" stroke="#666666" points="121,-82 121,-82 228.25,-82 228.25,-82 121,-82"/>
<polygon fill="none" stroke="#666666" points="121,-16 121,-128 228.25,-128 228.25,-16 121,-16"/>
</a>
</g>
</g>
<!-- Node1&#45;&gt;Node3 -->
<g id="edge2_Node000001_Node000003" class="edge">
<title>Node1&#45;&gt;Node3</title>
<g id="a_edge2_Node000001_Node000003"><a xlink:title=" ">
<path fill="none" stroke="#63b8ff" d="M556.8,-244.64C477.03,-234.18 337.64,-207.71 236.62,-144 229.43,-139.46 222.6,-133.84 216.28,-127.75"/>
<polygon fill="none" stroke="#63b8ff" points="556.26,-248.1 566.62,-245.88 557.14,-241.16 556.26,-248.1"/>
</a>
</g>
</g>
<!-- Node4 -->
<g id="Node000004" class="node">
<title>Node4</title>
<g id="a_Node000004"><a xlink:href="class_fiea_1_1_engine_1_1_content_1_1_array_handler.html" target="_top" xlink:title=" ">
<polygon fill="white" stroke="none" points="349.25,-144 246,-144 246,0 349.25,0 349.25,-144"/>
<text text-anchor="start" x="250" y="-130.5" font-family="Helvetica,sans-Serif" font-size="10.00">Fiea::Engine::Content</text>
<text text-anchor="start" x="266.12" y="-118.5" font-family="Helvetica,sans-Serif" font-size="10.00">::ArrayHandler</text>
<text text-anchor="start" x="296.12" y="-102.5" font-family="Helvetica,sans-Serif" font-size="10.00"> </text>
<text text-anchor="start" x="254.06" y="-86.5" font-family="Helvetica,sans-Serif" font-size="10.00">+</text>
<text text-anchor="start" x="268.12" y="-86.5" font-family="Helvetica,sans-Serif" font-size="10.00">GetHandlerId()</text>
<text text-anchor="start" x="254.06" y="-70.5" font-family="Helvetica,sans-Serif" font-size="10.00">+</text>
<text text-anchor="start" x="268.12" y="-70.5" font-family="Helvetica,sans-Serif" font-size="10.00">ArrayHandler()</text>
<text text-anchor="start" x="254.06" y="-54.5" font-family="Helvetica,sans-Serif" font-size="10.00">+</text>
<text text-anchor="start" x="268.12" y="-54.5" font-family="Helvetica,sans-Serif" font-size="10.00">~ArrayHandler()</text>
<text text-anchor="start" x="254.06" y="-38.5" font-family="Helvetica,sans-Serif" font-size="10.00">+</text>
<text text-anchor="start" x="268.12" y="-38.5" font-family="Helvetica,sans-Serif" font-size="10.00">EnterKey()</text>
<text text-anchor="start" x="254.06" y="-22.5" font-family="Helvetica,sans-Serif" font-size="10.00">+</text>
<text text-anchor="start" x="268.12" y="-22.5" font-family="Helvetica,sans-Serif" font-size="10.00">ExitKey()</text>
<text text-anchor="start" x="254.06" y="-6.5" font-family="Helvetica,sans-Serif" font-size="10.00">+</text>
<text text-anchor="start" x="268.12" y="-6.5" font-family="Helvetica,sans-Serif" font-size="10.00">HandlerId()</text>
<polygon fill="#666666" stroke="#666666" points="246,-114 246,-114 349.25,-114 349.25,-114 246,-114"/>
<polygon fill="#666666" stroke="#666666" points="246,-98 246,-98 349.25,-98 349.25,-98 246,-98"/>
<polygon fill="none" stroke="#666666" points="246,0 246,-144 349.25,-144 349.25,0 246,0"/>
</a>
</g>
</g>
<!-- Node1&#45;&gt;Node4 -->
<g id="edge3_Node000001_Node000004" class="edge">
<title>Node1&#45;&gt;Node4</title>
<g id="a_edge3_Node000001_Node000004"><a xlink:title=" ">
<path fill="none" stroke="#63b8ff" d="M557.38,-234.83C501.45,-218.25 418.92,-188.55 357.62,-144 354.75,-141.91 351.93,-139.66 349.17,-137.29"/>
<polygon fill="none" stroke="#63b8ff" points="556.16,-238.12 566.74,-237.55 558.12,-231.4 556.16,-238.12"/>
</a>
</g>
</g>
<!-- Node5 -->
<g id="Node000005" class="node">
<title>Node5</title>
<g id="a_Node000005"><a xlink:href="class_fiea_1_1_engine_1_1_content_1_1_float_parse_handler.html" target="_top" xlink:title=" ">
<polygon fill="white" stroke="none" points="478.12,-128 367.12,-128 367.12,-16 478.12,-16 478.12,-128"/>
<text text-anchor="start" x="375" y="-114.5" font-family="Helvetica,sans-Serif" font-size="10.00">Fiea::Engine::Content</text>
<text text-anchor="start" x="379.12" y="-102.5" font-family="Helvetica,sans-Serif" font-size="10.00">::FloatParseHandler</text>
<text text-anchor="start" x="421.12" y="-86.5" font-family="Helvetica,sans-Serif" font-size="10.00"> </text>
<text text-anchor="start" x="371.12" y="-70.5" font-family="Helvetica,sans-Serif" font-size="10.00">+</text>
<text text-anchor="start" x="381.12" y="-70.5" font-family="Helvetica,sans-Serif" font-size="10.00">FloatParseHandler()</text>
<text text-anchor="start" x="371.12" y="-54.5" font-family="Helvetica,sans-Serif" font-size="10.00">+</text>
<text text-anchor="start" x="381.12" y="-54.5" font-family="Helvetica,sans-Serif" font-size="10.00">~FloatParseHandler()</text>
<text text-anchor="start" x="371.12" y="-38.5" font-family="Helvetica,sans-Serif" font-size="10.00">+</text>
<text text-anchor="start" x="381.12" y="-38.5" font-family="Helvetica,sans-Serif" font-size="10.00">EnterKey()</text>
<text text-anchor="start" x="371.12" y="-22.5" font-family="Helvetica,sans-Serif" font-size="10.00">+</text>
<text text-anchor="start" x="381.12" y="-22.5" font-family="Helvetica,sans-Serif" font-size="10.00">ExitKey()</text>
<polygon fill="#666666" stroke="#666666" points="367.12,-98 367.12,-98 478.12,-98 478.12,-98 367.12,-98"/>
<polygon fill="#666666" stroke="#666666" points="367.12,-82 367.12,-82 478.12,-82 478.12,-82 367.12,-82"/>
<polygon fill="none" stroke="#666666" points="367.12,-16 367.12,-128 478.12,-128 478.12,-16 367.12,-16"/>
</a>
</g>
</g>
<!-- Node1&#45;&gt;Node5 -->
<g id="edge4_Node000001_Node000005" class="edge">
<title>Node1&#45;&gt;Node5</title>
<g id="a_edge4_Node000001_Node000005"><a xlink:title=" ">
<path fill="none" stroke="#63b8ff" d="M559.31,-205.2C536.24,-186.89 510.09,-165.16 487.62,-144 482.15,-138.84 476.59,-133.31 471.15,-127.68"/>
<polygon fill="none" stroke="#63b8ff" points="557.11,-207.92 567.13,-211.36 561.44,-202.42 557.11,-207.92"/>
</a>
</g>
</g>
<!-- Node6 -->
<g id="Node000006" class="node">
<title>Node6</title>
<g id="a_Node000006"><a xlink:href="class_fiea_1_1_engine_1_1_content_1_1_game_object_handler.html" target="_top" xlink:title=" ">
<polygon fill="white" stroke="none" points="614.88,-128 496.38,-128 496.38,-16 614.88,-16 614.88,-128"/>
<text text-anchor="start" x="508" y="-114.5" font-family="Helvetica,sans-Serif" font-size="10.00">Fiea::Engine::Content</text>
<text text-anchor="start" x="508.38" y="-102.5" font-family="Helvetica,sans-Serif" font-size="10.00">::GameObjectHandler</text>
<text text-anchor="start" x="554.12" y="-86.5" font-family="Helvetica,sans-Serif" font-size="10.00"> </text>
<text text-anchor="start" x="500.38" y="-70.5" font-family="Helvetica,sans-Serif" font-size="10.00">+</text>
<text text-anchor="start" x="510.38" y="-70.5" font-family="Helvetica,sans-Serif" font-size="10.00">GameObjectHandler()</text>
<text text-anchor="start" x="500.38" y="-54.5" font-family="Helvetica,sans-Serif" font-size="10.00">+</text>
<text text-anchor="start" x="510.38" y="-54.5" font-family="Helvetica,sans-Serif" font-size="10.00">~GameObjectHandler()</text>
<text text-anchor="start" x="500.38" y="-38.5" font-family="Helvetica,sans-Serif" font-size="10.00">+</text>
<text text-anchor="start" x="510.38" y="-38.5" font-family="Helvetica,sans-Serif" font-size="10.00">EnterKey()</text>
<text text-anchor="start" x="500.38" y="-22.5" font-family="Helvetica,sans-Serif" font-size="10.00">+</text>
<text text-anchor="start" x="510.38" y="-22.5" font-family="Helvetica,sans-Serif" font-size="10.00">ExitKey()</text>
<polygon fill="#666666" stroke="#666666" points="496.38,-98 496.38,-98 614.88,-98 614.88,-98 496.38,-98"/>
<polygon fill="#666666" stroke="#666666" points="496.38,-82 496.38,-82 614.88,-82 614.88,-82 496.38,-82"/>
<polygon fill="none" stroke="#666666" points="496.38,-16 496.38,-128 614.88,-128 614.88,-16 496.38,-16"/>
</a>
</g>
</g>
<!-- Node1&#45;&gt;Node6 -->
<g id="edge5_Node000001_Node000006" class="edge">
<title>Node1&#45;&gt;Node6</title>
<g id="a_edge5_Node000001_Node000006"><a xlink:title=" ">
<path fill="none" stroke="#63b8ff" d="M590.31,-169.47C585.26,-155.42 580.12,-141.12 575.4,-127.99"/>
<polygon fill="none" stroke="#63b8ff" points="586.96,-170.49 593.63,-178.71 593.54,-168.12 586.96,-170.49"/>
</a>
</g>
</g>
<!-- Node7 -->
<g id="Node000007" class="node">
<title>Node7</title>
<g id="a_Node000007"><a xlink:href="class_fiea_1_1_engine_1_1_content_1_1_int_parse_handler.html" target="_top" xlink:title=" ">
<polygon fill="white" stroke="none" points="736.25,-128 633,-128 633,-16 736.25,-16 736.25,-128"/>
<text text-anchor="start" x="637" y="-114.5" font-family="Helvetica,sans-Serif" font-size="10.00">Fiea::Engine::Content</text>
<text text-anchor="start" x="646.38" y="-102.5" font-family="Helvetica,sans-Serif" font-size="10.00">::IntParseHandler</text>
<text text-anchor="start" x="683.12" y="-86.5" font-family="Helvetica,sans-Serif" font-size="10.00"> </text>
<text text-anchor="start" x="637.69" y="-70.5" font-family="Helvetica,sans-Serif" font-size="10.00">+</text>
<text text-anchor="start" x="648.38" y="-70.5" font-family="Helvetica,sans-Serif" font-size="10.00">IntParseHandler()</text>
<text text-anchor="start" x="637.69" y="-54.5" font-family="Helvetica,sans-Serif" font-size="10.00">+</text>
<text text-anchor="start" x="648.38" y="-54.5" font-family="Helvetica,sans-Serif" font-size="10.00">~IntParseHandler()</text>
<text text-anchor="start" x="637.69" y="-38.5" font-family="Helvetica,sans-Serif" font-size="10.00">+</text>
<text text-anchor="start" x="648.38" y="-38.5" font-family="Helvetica,sans-Serif" font-size="10.00">EnterKey()</text>
<text text-anchor="start" x="637.69" y="-22.5" font-family="Helvetica,sans-Serif" font-size="10.00">+</text>
<text text-anchor="start" x="648.38" y="-22.5" font-family="Helvetica,sans-Serif" font-size="10.00">ExitKey()</text>
<polygon fill="#666666" stroke="#666666" points="633,-98 633,-98 736.25,-98 736.25,-98 633,-98"/>
<polygon fill="#666666" stroke="#666666" points="633,-82 633,-82 736.25,-82 736.25,-82 633,-82"/>
<polygon fill="none" stroke="#666666" points="633,-16 633,-128 736.25,-128 736.25,-16 633,-16"/>
</a>
</g>
</g>
<!-- Node1&#45;&gt;Node7 -->
<g id="edge6_Node000001_Node000007" class="edge">
<title>Node1&#45;&gt;Node7</title>
<g id="a_edge6_Node000001_Node000007"><a xlink:title=" ">
<path fill="none" stroke="#63b8ff" d="M649.4,-169.47C654.53,-155.42 659.75,-141.12 664.55,-127.99"/>
<polygon fill="none" stroke="#63b8ff" points="646.16,-168.12 646.02,-178.72 652.74,-170.52 646.16,-168.12"/>
</a>
</g>
</g>
<!-- Node8 -->
<g id="Node000008" class="node">
<title>Node8</title>
<g id="a_Node000008"><a xlink:href="class_fiea_1_1_engine_1_1_content_1_1_matrix_handler.html" target="_top" xlink:title=" ">
<polygon fill="white" stroke="none" points="857.25,-128 754,-128 754,-16 857.25,-16 857.25,-128"/>
<text text-anchor="start" x="758" y="-114.5" font-family="Helvetica,sans-Serif" font-size="10.00">Fiea::Engine::Content</text>
<text text-anchor="start" x="772.25" y="-102.5" font-family="Helvetica,sans-Serif" font-size="10.00">::MatrixHandler</text>
<text text-anchor="start" x="804.12" y="-86.5" font-family="Helvetica,sans-Serif" font-size="10.00"> </text>
<text text-anchor="start" x="761.12" y="-70.5" font-family="Helvetica,sans-Serif" font-size="10.00">+</text>
<text text-anchor="start" x="774.25" y="-70.5" font-family="Helvetica,sans-Serif" font-size="10.00">MatrixHandler()</text>
<text text-anchor="start" x="761.12" y="-54.5" font-family="Helvetica,sans-Serif" font-size="10.00">+</text>
<text text-anchor="start" x="774.25" y="-54.5" font-family="Helvetica,sans-Serif" font-size="10.00">~MatrixHandler()</text>
<text text-anchor="start" x="761.12" y="-38.5" font-family="Helvetica,sans-Serif" font-size="10.00">+</text>
<text text-anchor="start" x="774.25" y="-38.5" font-family="Helvetica,sans-Serif" font-size="10.00">EnterKey()</text>
<text text-anchor="start" x="761.12" y="-22.5" font-family="Helvetica,sans-Serif" font-size="10.00">+</text>
<text text-anchor="start" x="774.25" y="-22.5" font-family="Helvetica,sans-Serif" font-size="10.00">ExitKey()</text>
<polygon fill="#666666" stroke="#666666" points="754,-98 754,-98 857.25,-98 857.25,-98 754,-98"/>
<polygon fill="#666666" stroke="#666666" points="754,-82 754,-82 857.25,-82 857.25,-82 754,-82"/>
<polygon fill="none" stroke="#666666" points="754,-16 754,-128 857.25,-128 857.25,-16 754,-16"/>
</a>
</g>
</g>
<!-- Node1&#45;&gt;Node8 -->
<g id="edge7_Node000001_Node000008" class="edge">
<title>Node1&#45;&gt;Node8</title>
<g id="a_edge7_Node000001_Node000008"><a xlink:title=" ">
<path fill="none" stroke="#63b8ff" d="M679.7,-203.43C701.19,-185.53 725.14,-164.54 745.62,-144 750.75,-138.86 755.93,-133.33 760.99,-127.71"/>
<polygon fill="none" stroke="#63b8ff" points="677.62,-200.61 672.14,-209.68 682.08,-206 677.62,-200.61"/>
</a>
</g>
</g>
<!-- Node9 -->
<g id="Node000009" class="node">
<title>Node9</title>
<g id="a_Node000009"><a xlink:href="class_fiea_1_1_engine_1_1_content_1_1_scope_parse_handler.html" target="_top" xlink:title=" ">
<polygon fill="white" stroke="none" points="992.12,-128 875.12,-128 875.12,-16 992.12,-16 992.12,-128"/>
<text text-anchor="start" x="886" y="-114.5" font-family="Helvetica,sans-Serif" font-size="10.00">Fiea::Engine::Content</text>
<text text-anchor="start" x="887.12" y="-102.5" font-family="Helvetica,sans-Serif" font-size="10.00">::ScopeParseHandler</text>
<text text-anchor="start" x="932.12" y="-86.5" font-family="Helvetica,sans-Serif" font-size="10.00"> </text>
<text text-anchor="start" x="879.12" y="-70.5" font-family="Helvetica,sans-Serif" font-size="10.00">+</text>
<text text-anchor="start" x="889.12" y="-70.5" font-family="Helvetica,sans-Serif" font-size="10.00">ScopeParseHandler()</text>
<text text-anchor="start" x="879.12" y="-54.5" font-family="Helvetica,sans-Serif" font-size="10.00">+</text>
<text text-anchor="start" x="889.12" y="-54.5" font-family="Helvetica,sans-Serif" font-size="10.00">~ScopeParseHandler()</text>
<text text-anchor="start" x="879.12" y="-38.5" font-family="Helvetica,sans-Serif" font-size="10.00">+</text>
<text text-anchor="start" x="889.12" y="-38.5" font-family="Helvetica,sans-Serif" font-size="10.00">EnterKey()</text>
<text text-anchor="start" x="879.12" y="-22.5" font-family="Helvetica,sans-Serif" font-size="10.00">+</text>
<text text-anchor="start" x="889.12" y="-22.5" font-family="Helvetica,sans-Serif" font-size="10.00">ExitKey()</text>
<polygon fill="#666666" stroke="#666666" points="875.12,-98 875.12,-98 992.12,-98 992.12,-98 875.12,-98"/>
<polygon fill="#666666" stroke="#666666" points="875.12,-82 875.12,-82 992.12,-82 992.12,-82 875.12,-82"/>
<polygon fill="none" stroke="#666666" points="875.12,-16 875.12,-128 992.12,-128 992.12,-16 875.12,-16"/>
</a>
</g>
</g>
<!-- Node1&#45;&gt;Node9 -->
<g id="edge8_Node000001_Node000009" class="edge">
<title>Node1&#45;&gt;Node9</title>
<g id="a_edge8_Node000001_Node000009"><a xlink:title=" ">
<path fill="none" stroke="#63b8ff" d="M681.76,-231.97C733.99,-214.19 809.11,-184.33 866.62,-144 873.42,-139.23 880.08,-133.69 886.39,-127.84"/>
<polygon fill="none" stroke="#63b8ff" points="680.78,-228.6 672.41,-235.1 683,-235.24 680.78,-228.6"/>
</a>
</g>
</g>
<!-- Node10 -->
<g id="Node000010" class="node">
<title>Node10</title>
<g id="a_Node000010"><a xlink:href="class_fiea_1_1_engine_1_1_content_1_1_string_parse_handler.html" target="_top" xlink:title=" ">
<polygon fill="white" stroke="none" points="1125,-128 1010.25,-128 1010.25,-16 1125,-16 1125,-128"/>
<text text-anchor="start" x="1020" y="-114.5" font-family="Helvetica,sans-Serif" font-size="10.00">Fiea::Engine::Content</text>
<text text-anchor="start" x="1022.25" y="-102.5" font-family="Helvetica,sans-Serif" font-size="10.00">::StringParseHandler</text>
<text text-anchor="start" x="1066.12" y="-86.5" font-family="Helvetica,sans-Serif" font-size="10.00"> </text>
<text text-anchor="start" x="1014.25" y="-70.5" font-family="Helvetica,sans-Serif" font-size="10.00">+</text>
<text text-anchor="start" x="1024.25" y="-70.5" font-family="Helvetica,sans-Serif" font-size="10.00">StringParseHandler()</text>
<text text-anchor="start" x="1014.25" y="-54.5" font-family="Helvetica,sans-Serif" font-size="10.00">+</text>
<text text-anchor="start" x="1024.25" y="-54.5" font-family="Helvetica,sans-Serif" font-size="10.00">~StringParseHandler()</text>
<text text-anchor="start" x="1014.25" y="-38.5" font-family="Helvetica,sans-Serif" font-size="10.00">+</text>
<text text-anchor="start" x="1024.25" y="-38.5" font-family="Helvetica,sans-Serif" font-size="10.00">EnterKey()</text>
<text text-anchor="start" x="1014.25" y="-22.5" font-family="Helvetica,sans-Serif" font-size="10.00">+</text>
<text text-anchor="start" x="1024.25" y="-22.5" font-family="Helvetica,sans-Serif" font-size="10.00">ExitKey()</text>
<polygon fill="#666666" stroke="#666666" points="1010.25,-98 1010.25,-98 1125,-98 1125,-98 1010.25,-98"/>
<polygon fill="#666666" stroke="#666666" points="1010.25,-82 1010.25,-82 1125,-82 1125,-82 1010.25,-82"/>
<polygon fill="none" stroke="#666666" points="1010.25,-16 1010.25,-128 1125,-128 1125,-16 1010.25,-16"/>
</a>
</g>
</g>
<!-- Node1&#45;&gt;Node10 -->
<g id="edge9_Node000001_Node000010" class="edge">
<title>Node1&#45;&gt;Node10</title>
<g id="a_edge9_Node000001_Node000010"><a xlink:title=" ">
<path fill="none" stroke="#63b8ff" d="M682.31,-244.06C761.6,-233.01 900.04,-205.93 1001.62,-144 1009.1,-139.44 1016.26,-133.81 1022.92,-127.72"/>
<polygon fill="none" stroke="#63b8ff" points="681.99,-240.57 672.55,-245.38 682.93,-247.51 681.99,-240.57"/>
</a>
</g>
</g>
<!-- Node11 -->
<g id="Node000011" class="node">
<title>Node11</title>
<g id="a_Node000011"><a xlink:href="class_fiea_1_1_engine_1_1_content_1_1_vector_handler.html" target="_top" xlink:title=" ">
<polygon fill="white" stroke="none" points="1246.25,-128 1143,-128 1143,-16 1246.25,-16 1246.25,-128"/>
<text text-anchor="start" x="1147" y="-114.5" font-family="Helvetica,sans-Serif" font-size="10.00">Fiea::Engine::Content</text>
<text text-anchor="start" x="1160.88" y="-102.5" font-family="Helvetica,sans-Serif" font-size="10.00">::VectorHandler</text>
<text text-anchor="start" x="1193.12" y="-86.5" font-family="Helvetica,sans-Serif" font-size="10.00"> </text>
<text text-anchor="start" x="1149.94" y="-70.5" font-family="Helvetica,sans-Serif" font-size="10.00">+</text>
<text text-anchor="start" x="1162.88" y="-70.5" font-family="Helvetica,sans-Serif" font-size="10.00">VectorHandler()</text>
<text text-anchor="start" x="1149.94" y="-54.5" font-family="Helvetica,sans-Serif" font-size="10.00">+</text>
<text text-anchor="start" x="1162.88" y="-54.5" font-family="Helvetica,sans-Serif" font-size="10.00">~VectorHandler()</text>
<text text-anchor="start" x="1149.94" y="-38.5" font-family="Helvetica,sans-Serif" font-size="10.00">+</text>
<text text-anchor="start" x="1162.88" y="-38.5" font-family="Helvetica,sans-Serif" font-size="10.00">EnterKey()</text>
<text text-anchor="start" x="1149.94" y="-22.5" font-family="Helvetica,sans-Serif" font-size="10.00">+</text>
<text text-anchor="start" x="1162.88" y="-22.5" font-family="Helvetica,sans-Serif" font-size="10.00">ExitKey()</text>
<polygon fill="#666666" stroke="#666666" points="1143,-98 1143,-98 1246.25,-98 1246.25,-98 1143,-98"/>
<polygon fill="#666666" stroke="#666666" points="1143,-82 1143,-82 1246.25,-82 1246.25,-82 1143,-82"/>
<polygon fill="none" stroke="#666666" points="1143,-16 1143,-128 1246.25,-128 1246.25,-16 1143,-16"/>
</a>
</g>
</g>
<!-- Node1&#45;&gt;Node11 -->
<g id="edge10_Node000001_Node000011" class="edge">
<title>Node1&#45;&gt;Node11</title>
<g id="a_edge10_Node000001_Node000011"><a xlink:title=" ">
<path fill="none" stroke="#63b8ff" d="M682.21,-250.67C783.86,-247.48 988.12,-229.87 1133.62,-144 1141.04,-139.62 1148,-134.01 1154.38,-127.87"/>
<polygon fill="none" stroke="#63b8ff" points="682.33,-247.16 672.43,-250.93 682.52,-254.16 682.33,-247.16"/>
</a>
</g>
</g>
</g>
</svg>
