<?xml version="1.0" encoding="UTF-8" standalone="no"?>
<!DOCTYPE svg PUBLIC "-//W3C//DTD SVG 1.1//EN"
 "http://www.w3.org/Graphics/SVG/1.1/DTD/svg11.dtd">
<!-- Generated by graphviz version 12.2.1 (20241206.2353)
 -->
<!-- Title: Fiea::Engine::Content::GameObjectHandler::ExitKey Pages: 1 -->
<svg width="463pt" height="128pt"
 viewBox="0.00 0.00 462.50 128.00" xmlns="http://www.w3.org/2000/svg" xmlns:xlink="http://www.w3.org/1999/xlink">
<g id="graph0" class="graph" transform="scale(1 1) rotate(0) translate(4 124)">
<title>Fiea::Engine::Content::GameObjectHandler::ExitKey</title>
<!-- Node1 -->
<g id="Node000001" class="node">
<title>Node1</title>
<g id="a_Node000001"><a xlink:title=" ">
<polygon fill="#999999" stroke="#666666" points="116.5,-88 0,-88 0,-44 116.5,-44 116.5,-88"/>
<text text-anchor="start" x="8" y="-74.5" font-family="Helvetica,sans-Serif" font-size="10.00">Fiea::Engine::Content</text>
<text text-anchor="start" x="8" y="-62.5" font-family="Helvetica,sans-Serif" font-size="10.00">::GameObjectHandler::</text>
<text text-anchor="middle" x="58.25" y="-50.5" font-family="Helvetica,sans-Serif" font-size="10.00">ExitKey</text>
</a>
</g>
</g>
<!-- Node2 -->
<g id="Node000002" class="node">
<title>Node2</title>
<g id="a_Node000002"><a xlink:href="class_fiea_1_1_engine_1_1_r_t_t_i.html#a15bd5993c8ad04da47af440298ebbb30" target="_top" xlink:title=" ">
<polygon fill="white" stroke="#666666" points="287.38,-120 170.88,-120 170.88,-100 287.38,-100 287.38,-120"/>
<text text-anchor="middle" x="229.12" y="-106.5" font-family="Helvetica,sans-Serif" font-size="10.00">Fiea::Engine::RTTI::As</text>
</a>
</g>
</g>
<!-- Node1&#45;&gt;Node2 -->
<g id="edge1_Node000001_Node000002" class="edge">
<title>Node1&#45;&gt;Node2</title>
<g id="a_edge1_Node000001_Node000002"><a xlink:title=" ">
<path fill="none" stroke="#63b8ff" d="M116.91,-81.61C128.68,-84.75 140.98,-88.01 152.5,-91 159.81,-92.9 167.52,-94.87 175.11,-96.79"/>
<polygon fill="#63b8ff" stroke="#63b8ff" points="174.07,-100.14 184.63,-99.19 175.79,-93.35 174.07,-100.14"/>
</a>
</g>
</g>
<!-- Node4 -->
<g id="Node000004" class="node">
<title>Node4</title>
<g id="a_Node000004"><a xlink:href="class_fiea_1_1_engine_1_1_content_1_1_parse_writer.html#adfcfbaea4b8c32604d144834456224ad" target="_top" xlink:title=" ">
<polygon fill="white" stroke="#666666" points="305.75,-82 152.5,-82 152.5,-50 305.75,-50 305.75,-82"/>
<text text-anchor="start" x="160.5" y="-68.5" font-family="Helvetica,sans-Serif" font-size="10.00">Fiea::Engine::Content</text>
<text text-anchor="middle" x="229.12" y="-56.5" font-family="Helvetica,sans-Serif" font-size="10.00">::ParseWriter::DecrementDepth</text>
</a>
</g>
</g>
<!-- Node1&#45;&gt;Node4 -->
<g id="edge3_Node000001_Node000004" class="edge">
<title>Node1&#45;&gt;Node4</title>
<g id="a_edge3_Node000001_Node000004"><a xlink:title=" ">
<path fill="none" stroke="#63b8ff" d="M116.89,-66C124.62,-66 132.69,-66 140.78,-66"/>
<polygon fill="#63b8ff" stroke="#63b8ff" points="140.71,-69.5 150.71,-66 140.71,-62.5 140.71,-69.5"/>
</a>
</g>
</g>
<!-- Node5 -->
<g id="Node000005" class="node">
<title>Node5</title>
<g id="a_Node000005"><a xlink:href="class_fiea_1_1_engine_1_1_content_1_1_scope_writer.html#a8ba2c681c0554ab2dcb5f37cdeea8f43" target="_top" xlink:title="This only pops the top element from the stack. Error condition if you pop an empty stack....">
<polygon fill="white" stroke="#666666" points="292.25,-32 166,-32 166,0 292.25,0 292.25,-32"/>
<text text-anchor="start" x="174" y="-18.5" font-family="Helvetica,sans-Serif" font-size="10.00">Fiea::Engine::Content</text>
<text text-anchor="middle" x="229.12" y="-6.5" font-family="Helvetica,sans-Serif" font-size="10.00">::ScopeWriter::PopScope</text>
</a>
</g>
</g>
<!-- Node1&#45;&gt;Node5 -->
<g id="edge4_Node000001_Node000005" class="edge">
<title>Node1&#45;&gt;Node5</title>
<g id="a_edge4_Node000001_Node000005"><a xlink:title=" ">
<path fill="none" stroke="#63b8ff" d="M116.89,-48.93C131.35,-44.65 146.97,-40.03 161.81,-35.63"/>
<polygon fill="#63b8ff" stroke="#63b8ff" points="162.41,-39.11 171,-32.91 160.42,-32.4 162.41,-39.11"/>
</a>
</g>
</g>
<!-- Node3 -->
<g id="Node000003" class="node">
<title>Node3</title>
<g id="a_Node000003"><a xlink:href="class_fiea_1_1_engine_1_1_r_t_t_i.html#ac0a7d875e4513b2aca7594abcd4418ef" target="_top" xlink:title=" ">
<polygon fill="white" stroke="#666666" points="454.5,-120 341.75,-120 341.75,-100 454.5,-100 454.5,-120"/>
<text text-anchor="middle" x="398.12" y="-106.5" font-family="Helvetica,sans-Serif" font-size="10.00">Fiea::Engine::RTTI::Is</text>
</a>
</g>
</g>
<!-- Node2&#45;&gt;Node3 -->
<g id="edge2_Node000002_Node000003" class="edge">
<title>Node2&#45;&gt;Node3</title>
<g id="a_edge2_Node000002_Node000003"><a xlink:title=" ">
<path fill="none" stroke="#63b8ff" d="M287.6,-110C301.37,-110 316.19,-110 330.35,-110"/>
<polygon fill="#63b8ff" stroke="#63b8ff" points="330.01,-113.5 340.01,-110 330.01,-106.5 330.01,-113.5"/>
</a>
</g>
</g>
</g>
</svg>
