<?xml version="1.0" encoding="UTF-8" standalone="no"?>
<!DOCTYPE svg PUBLIC "-//W3C//DTD SVG 1.1//EN"
 "http://www.w3.org/Graphics/SVG/1.1/DTD/svg11.dtd">
<!-- Generated by graphviz version 12.2.1 (20241206.2353)
 -->
<!-- Title: Fiea::Engine::Content::Actions::Action::Action Pages: 1 -->
<svg width="303pt" height="102pt"
 viewBox="0.00 0.00 302.50 102.00" xmlns="http://www.w3.org/2000/svg" xmlns:xlink="http://www.w3.org/1999/xlink">
<g id="graph0" class="graph" transform="scale(1 1) rotate(0) translate(4 98)">
<title>Fiea::Engine::Content::Actions::Action::Action</title>
<!-- Node1 -->
<g id="Node000001" class="node">
<title>Node1</title>
<g id="a_Node000001"><a xlink:title=" ">
<polygon fill="#999999" stroke="#666666" points="122.5,-66 0,-66 0,-34 122.5,-34 122.5,-66"/>
<text text-anchor="start" x="8" y="-52.5" font-family="Helvetica,sans-Serif" font-size="10.00">Fiea::Engine::Content</text>
<text text-anchor="middle" x="61.25" y="-40.5" font-family="Helvetica,sans-Serif" font-size="10.00">::Actions::Action::Action</text>
</a>
</g>
</g>
<!-- Node2 -->
<g id="Node000002" class="node">
<title>Node2</title>
<g id="a_Node000002"><a xlink:href="namespace_fiea_1_1_engine_1_1_content.html#af00b5368aad7aaf9ee6a4eff958cc789" target="_top" xlink:title=" ">
<polygon fill="white" stroke="#666666" points="294.5,-94 158.5,-94 158.5,-62 294.5,-62 294.5,-94"/>
<text text-anchor="start" x="166.5" y="-80.5" font-family="Helvetica,sans-Serif" font-size="10.00">Fiea::Engine::Content</text>
<text text-anchor="middle" x="226.5" y="-68.5" font-family="Helvetica,sans-Serif" font-size="10.00">::AggregateClassDefintions</text>
</a>
</g>
</g>
<!-- Node1&#45;&gt;Node2 -->
<g id="edge1_Node000001_Node000002" class="edge">
<title>Node1&#45;&gt;Node2</title>
<g id="a_edge1_Node000001_Node000002"><a xlink:title=" ">
<path fill="none" stroke="#63b8ff" d="M122.57,-60.35C130.57,-61.72 138.85,-63.14 147.1,-64.55"/>
<polygon fill="#63b8ff" stroke="#63b8ff" points="146.34,-67.97 156.78,-66.21 147.52,-61.07 146.34,-67.97"/>
</a>
</g>
</g>
<!-- Node3 -->
<g id="Node000003" class="node">
<title>Node3</title>
<g id="a_Node000003"><a xlink:href="class_fiea_1_1_engine_1_1_content_1_1_actions_1_1_action.html#aa99aeecb4cb36dd436c612d438ee4ba6" target="_top" xlink:title="This function returns the class definition, aka the signature for each member variable that we want t...">
<polygon fill="white" stroke="#666666" points="294.5,-44 158.5,-44 158.5,0 294.5,0 294.5,-44"/>
<text text-anchor="start" x="166.5" y="-30.5" font-family="Helvetica,sans-Serif" font-size="10.00">Fiea::Engine::Content</text>
<text text-anchor="start" x="166.5" y="-18.5" font-family="Helvetica,sans-Serif" font-size="10.00">::Actions::Action::GetClass</text>
<text text-anchor="middle" x="226.5" y="-6.5" font-family="Helvetica,sans-Serif" font-size="10.00">Definition</text>
</a>
</g>
</g>
<!-- Node1&#45;&gt;Node3 -->
<g id="edge2_Node000001_Node000003" class="edge">
<title>Node1&#45;&gt;Node3</title>
<g id="a_edge2_Node000001_Node000003"><a xlink:title=" ">
<path fill="none" stroke="#63b8ff" d="M122.57,-39.65C130.57,-38.28 138.85,-36.86 147.1,-35.45"/>
<polygon fill="#63b8ff" stroke="#63b8ff" points="147.52,-38.93 156.78,-33.79 146.34,-32.03 147.52,-38.93"/>
</a>
</g>
</g>
</g>
</svg>
