<?xml version="1.0" encoding="UTF-8" standalone="no"?>
<!DOCTYPE svg PUBLIC "-//W3C//DTD SVG 1.1//EN"
 "http://www.w3.org/Graphics/SVG/1.1/DTD/svg11.dtd">
<!-- Generated by graphviz version 12.2.1 (20241206.2353)
 -->
<!-- Title: Fiea::Engine::Content::Scope::IsAncestorOf Pages: 1 -->
<svg width="793pt" height="470pt"
 viewBox="0.00 0.00 793.00 470.00" xmlns="http://www.w3.org/2000/svg" xmlns:xlink="http://www.w3.org/1999/xlink">
<g id="graph0" class="graph" transform="scale(1 1) rotate(0) translate(4 466)">
<title>Fiea::Engine::Content::Scope::IsAncestorOf</title>
<!-- Node1 -->
<g id="Node000001" class="node">
<title>Node1</title>
<g id="a_Node000001"><a xlink:title="Tells if this scope is present somewhere higher up in the scopes tree as a parent.">
<polygon fill="#999999" stroke="#666666" points="785,-362 671.5,-362 671.5,-330 785,-330 785,-362"/>
<text text-anchor="start" x="679.5" y="-348.5" font-family="Helvetica,sans-Serif" font-size="10.00">Fiea::Engine::Content</text>
<text text-anchor="middle" x="728.25" y="-336.5" font-family="Helvetica,sans-Serif" font-size="10.00">::Scope::IsAncestorOf</text>
</a>
</g>
</g>
<!-- Node2 -->
<g id="Node000002" class="node">
<title>Node2</title>
<g id="a_Node000002"><a xlink:href="class_fiea_1_1_engine_1_1_content_1_1_scope.html#a0b373136d60bb5b269b7e52419e42991" target="_top" xlink:title="Copy Assignment.">
<polygon fill="white" stroke="#666666" points="635.5,-412 524.25,-412 524.25,-380 635.5,-380 635.5,-412"/>
<text text-anchor="start" x="532.25" y="-398.5" font-family="Helvetica,sans-Serif" font-size="10.00">Fiea::Engine::Content</text>
<text text-anchor="middle" x="579.88" y="-386.5" font-family="Helvetica,sans-Serif" font-size="10.00">::Scope::operator=</text>
</a>
</g>
</g>
<!-- Node1&#45;&gt;Node2 -->
<g id="edge1_Node000001_Node000002" class="edge">
<title>Node1&#45;&gt;Node2</title>
<g id="a_edge1_Node000001_Node000002"><a xlink:title=" ">
<path fill="none" stroke="#63b8ff" d="M668.48,-366.08C655.34,-370.56 641.55,-375.27 628.91,-379.59"/>
<polygon fill="#63b8ff" stroke="#63b8ff" points="669.56,-369.41 677.89,-362.86 667.29,-362.78 669.56,-369.41"/>
</a>
</g>
</g>
<!-- Node7 -->
<g id="Node000007" class="node">
<title>Node7</title>
<g id="a_Node000007"><a xlink:href="class_fiea_1_1_engine_1_1_content_1_1_scope.html#a61d48df64d77d9fefb55da3109f7fba6" target="_top" xlink:title="Move assignment.">
<polygon fill="white" stroke="#666666" points="635.5,-362 524.25,-362 524.25,-330 635.5,-330 635.5,-362"/>
<text text-anchor="start" x="532.25" y="-348.5" font-family="Helvetica,sans-Serif" font-size="10.00">Fiea::Engine::Content</text>
<text text-anchor="middle" x="579.88" y="-336.5" font-family="Helvetica,sans-Serif" font-size="10.00">::Scope::operator=</text>
</a>
</g>
</g>
<!-- Node1&#45;&gt;Node7 -->
<g id="edge6_Node000001_Node000007" class="edge">
<title>Node1&#45;&gt;Node7</title>
<g id="a_edge6_Node000001_Node000007"><a xlink:title=" ">
<path fill="none" stroke="#63b8ff" d="M659.78,-346C651.71,-346 643.55,-346 635.69,-346"/>
<polygon fill="#63b8ff" stroke="#63b8ff" points="659.56,-349.5 669.56,-346 659.56,-342.5 659.56,-349.5"/>
</a>
</g>
</g>
<!-- Node8 -->
<g id="Node000008" class="node">
<title>Node8</title>
<g id="a_Node000008"><a xlink:href="class_fiea_1_1_engine_1_1_content_1_1_scope.html#af6a94922a8fa123c3b22b7b4485963de" target="_top" xlink:title="Setter for Parent.">
<polygon fill="white" stroke="#666666" points="635.5,-312 524.25,-312 524.25,-280 635.5,-280 635.5,-312"/>
<text text-anchor="start" x="532.25" y="-298.5" font-family="Helvetica,sans-Serif" font-size="10.00">Fiea::Engine::Content</text>
<text text-anchor="middle" x="579.88" y="-286.5" font-family="Helvetica,sans-Serif" font-size="10.00">::Scope::SetParent</text>
</a>
</g>
</g>
<!-- Node1&#45;&gt;Node8 -->
<g id="edge7_Node000001_Node000008" class="edge">
<title>Node1&#45;&gt;Node8</title>
<g id="a_edge7_Node000001_Node000008"><a xlink:title=" ">
<path fill="none" stroke="#63b8ff" d="M668.48,-325.92C655.34,-321.44 641.55,-316.73 628.91,-312.41"/>
<polygon fill="#63b8ff" stroke="#63b8ff" points="667.29,-329.22 677.89,-329.14 669.56,-322.59 667.29,-329.22"/>
</a>
</g>
</g>
<!-- Node3 -->
<g id="Node000003" class="node">
<title>Node3</title>
<g id="a_Node000003"><a xlink:href="class_fiea_1_1_engine_1_1_content_1_1_attributed.html#a4b2cb8b7f86f4b7df9fc7dd15040affe" target="_top" xlink:title=" ">
<polygon fill="white" stroke="#666666" points="469.5,-462 358.25,-462 358.25,-430 469.5,-430 469.5,-462"/>
<text text-anchor="start" x="366.25" y="-448.5" font-family="Helvetica,sans-Serif" font-size="10.00">Fiea::Engine::Content</text>
<text text-anchor="middle" x="413.88" y="-436.5" font-family="Helvetica,sans-Serif" font-size="10.00">::Attributed::operator=</text>
</a>
</g>
</g>
<!-- Node2&#45;&gt;Node3 -->
<g id="edge2_Node000002_Node000003" class="edge">
<title>Node2&#45;&gt;Node3</title>
<g id="a_edge2_Node000002_Node000003"><a xlink:title=" ">
<path fill="none" stroke="#63b8ff" d="M514.4,-415.66C499.37,-420.24 483.51,-425.08 468.98,-429.51"/>
<polygon fill="#63b8ff" stroke="#63b8ff" points="515.18,-419.08 523.73,-412.81 513.14,-412.38 515.18,-419.08"/>
</a>
</g>
</g>
<!-- Node4 -->
<g id="Node000004" class="node">
<title>Node4</title>
<g id="a_Node000004"><a xlink:href="class_fiea_1_1_engine_1_1_content_1_1_attributed.html#ad00b7ac2fa53d92d617e235da1f83055" target="_top" xlink:title=" ">
<polygon fill="white" stroke="#666666" points="469.5,-412 358.25,-412 358.25,-380 469.5,-380 469.5,-412"/>
<text text-anchor="start" x="366.25" y="-398.5" font-family="Helvetica,sans-Serif" font-size="10.00">Fiea::Engine::Content</text>
<text text-anchor="middle" x="413.88" y="-386.5" font-family="Helvetica,sans-Serif" font-size="10.00">::Attributed::operator=</text>
</a>
</g>
</g>
<!-- Node2&#45;&gt;Node4 -->
<g id="edge3_Node000002_Node000004" class="edge">
<title>Node2&#45;&gt;Node4</title>
<g id="a_edge3_Node000002_Node000004"><a xlink:title=" ">
<path fill="none" stroke="#63b8ff" d="M512.59,-396C498.38,-396 483.52,-396 469.8,-396"/>
<polygon fill="#63b8ff" stroke="#63b8ff" points="512.3,-399.5 522.3,-396 512.3,-392.5 512.3,-399.5"/>
</a>
</g>
</g>
<!-- Node5 -->
<g id="Node000005" class="node">
<title>Node5</title>
<g id="a_Node000005"><a xlink:href="class_fiea_1_1_engine_1_1_content_1_1_actions_1_1_action.html#a8b550e6b4c11a011c42baf0b9b042d92" target="_top" xlink:title=" ">
<polygon fill="white" stroke="#666666" points="303.5,-462 167.5,-462 167.5,-430 303.5,-430 303.5,-462"/>
<text text-anchor="start" x="175.5" y="-448.5" font-family="Helvetica,sans-Serif" font-size="10.00">Fiea::Engine::Content</text>
<text text-anchor="middle" x="235.5" y="-436.5" font-family="Helvetica,sans-Serif" font-size="10.00">::Actions::Action::operator=</text>
</a>
</g>
</g>
<!-- Node4&#45;&gt;Node5 -->
<g id="edge4_Node000004_Node000005" class="edge">
<title>Node4&#45;&gt;Node5</title>
<g id="a_edge4_Node000004_Node000005"><a xlink:title=" ">
<path fill="none" stroke="#63b8ff" d="M347.44,-414.55C330.13,-419.46 311.56,-424.72 294.67,-429.51"/>
<polygon fill="#63b8ff" stroke="#63b8ff" points="347.91,-418.05 356.58,-411.96 346,-411.32 347.91,-418.05"/>
</a>
</g>
</g>
<!-- Node6 -->
<g id="Node000006" class="node">
<title>Node6</title>
<g id="a_Node000006"><a xlink:href="class_fiea_1_1_engine_1_1_content_1_1_actions_1_1_action.html#add6e558de0fd8848db339bfb352b2164" target="_top" xlink:title=" ">
<polygon fill="white" stroke="#666666" points="303.5,-412 167.5,-412 167.5,-380 303.5,-380 303.5,-412"/>
<text text-anchor="start" x="175.5" y="-398.5" font-family="Helvetica,sans-Serif" font-size="10.00">Fiea::Engine::Content</text>
<text text-anchor="middle" x="235.5" y="-386.5" font-family="Helvetica,sans-Serif" font-size="10.00">::Actions::Action::operator=</text>
</a>
</g>
</g>
<!-- Node4&#45;&gt;Node6 -->
<g id="edge5_Node000004_Node000006" class="edge">
<title>Node4&#45;&gt;Node6</title>
<g id="a_edge5_Node000004_Node000006"><a xlink:title=" ">
<path fill="none" stroke="#63b8ff" d="M346.92,-396C332.81,-396 317.89,-396 303.73,-396"/>
<polygon fill="#63b8ff" stroke="#63b8ff" points="346.52,-399.5 356.52,-396 346.52,-392.5 346.52,-399.5"/>
</a>
</g>
</g>
<!-- Node9 -->
<g id="Node000009" class="node">
<title>Node9</title>
<g id="a_Node000009"><a xlink:href="class_fiea_1_1_engine_1_1_content_1_1_scope.html#abf39accc1ce38b12bcbc6884ba0165e3" target="_top" xlink:title="You can provide a child scope that you wish this scope to adopt. You should not adopt a scope if it a...">
<polygon fill="white" stroke="#666666" points="469.5,-312 358.25,-312 358.25,-280 469.5,-280 469.5,-312"/>
<text text-anchor="start" x="366.25" y="-298.5" font-family="Helvetica,sans-Serif" font-size="10.00">Fiea::Engine::Content</text>
<text text-anchor="middle" x="413.88" y="-286.5" font-family="Helvetica,sans-Serif" font-size="10.00">::Scope::Adopt</text>
</a>
</g>
</g>
<!-- Node8&#45;&gt;Node9 -->
<g id="edge8_Node000008_Node000009" class="edge">
<title>Node8&#45;&gt;Node9</title>
<g id="a_edge8_Node000008_Node000009"><a xlink:title=" ">
<path fill="none" stroke="#63b8ff" d="M512.59,-296C498.38,-296 483.52,-296 469.8,-296"/>
<polygon fill="#63b8ff" stroke="#63b8ff" points="512.3,-299.5 522.3,-296 512.3,-292.5 512.3,-299.5"/>
</a>
</g>
</g>
<!-- Node19 -->
<g id="Node000019" class="node">
<title>Node19</title>
<g id="a_Node000019"><a xlink:href="class_fiea_1_1_engine_1_1_content_1_1_actions_1_1_while_action_list.html#a972d59921793e006691ec0c2f0f32a87" target="_top" xlink:title="Initial setup if any for the action.">
<polygon fill="white" stroke="#666666" points="488.25,-262 339.5,-262 339.5,-230 488.25,-230 488.25,-262"/>
<text text-anchor="start" x="347.5" y="-248.5" font-family="Helvetica,sans-Serif" font-size="10.00">Fiea::Engine::Content</text>
<text text-anchor="middle" x="413.88" y="-236.5" font-family="Helvetica,sans-Serif" font-size="10.00">::Actions::WhileActionList::Init</text>
</a>
</g>
</g>
<!-- Node8&#45;&gt;Node19 -->
<g id="edge19_Node000008_Node000019" class="edge">
<title>Node8&#45;&gt;Node19</title>
<g id="a_edge19_Node000008_Node000019"><a xlink:title=" ">
<path fill="none" stroke="#63b8ff" d="M514.4,-276.34C499.37,-271.76 483.51,-266.92 468.98,-262.49"/>
<polygon fill="#63b8ff" stroke="#63b8ff" points="513.14,-279.62 523.73,-279.19 515.18,-272.92 513.14,-279.62"/>
</a>
</g>
</g>
<!-- Node10 -->
<g id="Node000010" class="node">
<title>Node10</title>
<g id="a_Node000010"><a xlink:href="class_fiea_1_1_engine_1_1_game_object.html#a86ede0bbc21133ffa8f398b0636c8b52" target="_top" xlink:title=" ">
<polygon fill="white" stroke="#666666" points="301.25,-362 169.75,-362 169.75,-330 301.25,-330 301.25,-362"/>
<text text-anchor="start" x="177.75" y="-348.5" font-family="Helvetica,sans-Serif" font-size="10.00">Fiea::Engine::GameObject</text>
<text text-anchor="middle" x="235.5" y="-336.5" font-family="Helvetica,sans-Serif" font-size="10.00">::AddAction</text>
</a>
</g>
</g>
<!-- Node9&#45;&gt;Node10 -->
<g id="edge9_Node000009_Node000010" class="edge">
<title>Node9&#45;&gt;Node10</title>
<g id="a_edge9_Node000009_Node000010"><a xlink:title=" ">
<path fill="none" stroke="#63b8ff" d="M347.44,-314.55C330.13,-319.46 311.56,-324.72 294.67,-329.51"/>
<polygon fill="#63b8ff" stroke="#63b8ff" points="347.91,-318.05 356.58,-311.96 346,-311.32 347.91,-318.05"/>
</a>
</g>
</g>
<!-- Node11 -->
<g id="Node000011" class="node">
<title>Node11</title>
<g id="a_Node000011"><a xlink:href="class_fiea_1_1_engine_1_1_content_1_1_scope.html#a002f54731a8996f37c4f725d8175ffee" target="_top" xlink:title="This is one of the ways of adding a scope as a child to &#39;this&#39; scope Appending a scope also implies t...">
<polygon fill="white" stroke="#666666" points="293.75,-312 177.25,-312 177.25,-280 293.75,-280 293.75,-312"/>
<text text-anchor="start" x="185.25" y="-298.5" font-family="Helvetica,sans-Serif" font-size="10.00">Fiea::Engine::Content</text>
<text text-anchor="middle" x="235.5" y="-286.5" font-family="Helvetica,sans-Serif" font-size="10.00">::Scope::AppendScope</text>
</a>
</g>
</g>
<!-- Node9&#45;&gt;Node11 -->
<g id="edge10_Node000009_Node000011" class="edge">
<title>Node9&#45;&gt;Node11</title>
<g id="a_edge10_Node000009_Node000011"><a xlink:title=" ">
<path fill="none" stroke="#63b8ff" d="M346.84,-296C329.49,-296 310.92,-296 294.05,-296"/>
<polygon fill="#63b8ff" stroke="#63b8ff" points="346.52,-299.5 356.52,-296 346.52,-292.5 346.52,-299.5"/>
</a>
</g>
</g>
<!-- Node13 -->
<g id="Node000013" class="node">
<title>Node13</title>
<g id="a_Node000013"><a xlink:href="class_fiea_1_1_engine_1_1_content_1_1_scope_writer.html#a4488fbd92e0706a1207e15a40dac7e22" target="_top" xlink:title=" ">
<polygon fill="white" stroke="#666666" points="131.5,-268 0,-268 0,-236 131.5,-236 131.5,-268"/>
<text text-anchor="start" x="8" y="-254.5" font-family="Helvetica,sans-Serif" font-size="10.00">Fiea::Engine::Content</text>
<text text-anchor="middle" x="65.75" y="-242.5" font-family="Helvetica,sans-Serif" font-size="10.00">::ScopeWriter::PushScope</text>
</a>
</g>
</g>
<!-- Node9&#45;&gt;Node13 -->
<g id="edge12_Node000009_Node000013" class="edge">
<title>Node9&#45;&gt;Node13</title>
<g id="a_edge12_Node000009_Node000013"><a xlink:title=" ">
<path fill="none" stroke="#63b8ff" d="M346.65,-279.25C332.48,-276.12 317.55,-273.16 303.5,-271 245.83,-262.14 179.58,-257.27 131.86,-254.69"/>
<polygon fill="#63b8ff" stroke="#63b8ff" points="345.81,-282.65 356.34,-281.45 347.36,-275.82 345.81,-282.65"/>
</a>
</g>
</g>
<!-- Node14 -->
<g id="Node000014" class="node">
<title>Node14</title>
<g id="a_Node000014"><a xlink:href="class_fiea_1_1_engine_1_1_content_1_1_scope_writer.html#adb1089ed0ff92fae8826810cef43e447" target="_top" xlink:title=" ">
<polygon fill="white" stroke="#666666" points="301.25,-190 169.75,-190 169.75,-158 301.25,-158 301.25,-190"/>
<text text-anchor="start" x="177.75" y="-176.5" font-family="Helvetica,sans-Serif" font-size="10.00">Fiea::Engine::Content</text>
<text text-anchor="middle" x="235.5" y="-164.5" font-family="Helvetica,sans-Serif" font-size="10.00">::ScopeWriter::PushScope</text>
</a>
</g>
</g>
<!-- Node9&#45;&gt;Node14 -->
<g id="edge13_Node000009_Node000014" class="edge">
<title>Node9&#45;&gt;Node14</title>
<g id="a_edge13_Node000009_Node000014"><a xlink:title=" ">
<path fill="none" stroke="#63b8ff" d="M347.63,-275.47C344.84,-274.06 342.11,-272.57 339.5,-271 337.01,-269.5 282.06,-217.35 253.46,-190.15"/>
<polygon fill="#63b8ff" stroke="#63b8ff" points="346.08,-278.61 356.63,-279.6 349,-272.25 346.08,-278.61"/>
</a>
</g>
</g>
<!-- Node12 -->
<g id="Node000012" class="node">
<title>Node12</title>
<g id="a_Node000012"><a xlink:href="class_fiea_1_1_engine_1_1_content_1_1_scope_writer.html#ae61df0a4225d06e413fbfda3028f8547" target="_top" xlink:title="This creates a new Scope, makes it a child of the current top scope in the stack and pushes it into t...">
<polygon fill="white" stroke="#666666" points="131.5,-318 0,-318 0,-286 131.5,-286 131.5,-318"/>
<text text-anchor="start" x="8" y="-304.5" font-family="Helvetica,sans-Serif" font-size="10.00">Fiea::Engine::Content</text>
<text text-anchor="middle" x="65.75" y="-292.5" font-family="Helvetica,sans-Serif" font-size="10.00">::ScopeWriter::PushScope</text>
</a>
</g>
</g>
<!-- Node11&#45;&gt;Node12 -->
<g id="edge11_Node000011_Node000012" class="edge">
<title>Node11&#45;&gt;Node12</title>
<g id="a_edge11_Node000011_Node000012"><a xlink:title=" ">
<path fill="none" stroke="#63b8ff" d="M165.36,-298.47C154.25,-298.87 142.79,-299.28 131.78,-299.67"/>
<polygon fill="#63b8ff" stroke="#63b8ff" points="165.39,-301.97 175.26,-298.12 165.14,-294.98 165.39,-301.97"/>
</a>
</g>
</g>
<!-- Node14&#45;&gt;Node13 -->
<g id="edge18_Node000014_Node000013" class="edge">
<title>Node14&#45;&gt;Node13</title>
<g id="a_edge18_Node000014_Node000013"><a xlink:title=" ">
<path fill="none" stroke="#63b8ff" d="M194.68,-195.75C175.76,-205.75 152.71,-217.48 131.5,-227 125.01,-229.91 118.08,-232.81 111.24,-235.54"/>
<polygon fill="#63b8ff" stroke="#63b8ff" points="196.2,-198.9 203.38,-191.11 192.91,-192.73 196.2,-198.9"/>
</a>
</g>
</g>
<!-- Node15 -->
<g id="Node000015" class="node">
<title>Node15</title>
<g id="a_Node000015"><a xlink:href="class_fiea_1_1_engine_1_1_content_1_1_action_handler.html#a392af20cfeb37d539b88183bc9672f7a" target="_top" xlink:title=" ">
<polygon fill="white" stroke="#666666" points="130.75,-218 0.75,-218 0.75,-186 130.75,-186 130.75,-218"/>
<text text-anchor="start" x="8.75" y="-204.5" font-family="Helvetica,sans-Serif" font-size="10.00">Fiea::Engine::Content</text>
<text text-anchor="middle" x="65.75" y="-192.5" font-family="Helvetica,sans-Serif" font-size="10.00">::ActionHandler::EnterKey</text>
</a>
</g>
</g>
<!-- Node14&#45;&gt;Node15 -->
<g id="edge14_Node000014_Node000015" class="edge">
<title>Node14&#45;&gt;Node15</title>
<g id="a_edge14_Node000014_Node000015"><a xlink:title=" ">
<path fill="none" stroke="#63b8ff" d="M158.57,-186.67C149.41,-188.2 140.13,-189.75 131.16,-191.25"/>
<polygon fill="#63b8ff" stroke="#63b8ff" points="158.86,-190.17 168.15,-185.07 157.71,-183.27 158.86,-190.17"/>
</a>
</g>
</g>
<!-- Node16 -->
<g id="Node000016" class="node">
<title>Node16</title>
<g id="a_Node000016"><a xlink:href="class_fiea_1_1_engine_1_1_content_1_1_action_list_handler.html#ae0f8b6534bcf602df112f39202c79ecc" target="_top" xlink:title=" ">
<polygon fill="white" stroke="#666666" points="121.38,-168 10.12,-168 10.12,-124 121.38,-124 121.38,-168"/>
<text text-anchor="start" x="18.12" y="-154.5" font-family="Helvetica,sans-Serif" font-size="10.00">Fiea::Engine::Content</text>
<text text-anchor="start" x="18.12" y="-142.5" font-family="Helvetica,sans-Serif" font-size="10.00">::ActionListHandler::</text>
<text text-anchor="middle" x="65.75" y="-130.5" font-family="Helvetica,sans-Serif" font-size="10.00">EnterKey</text>
</a>
</g>
</g>
<!-- Node14&#45;&gt;Node16 -->
<g id="edge15_Node000014_Node000016" class="edge">
<title>Node14&#45;&gt;Node16</title>
<g id="a_edge15_Node000014_Node000016"><a xlink:title=" ">
<path fill="none" stroke="#63b8ff" d="M158.37,-161.29C145.98,-159.23 133.38,-157.12 121.63,-155.16"/>
<polygon fill="#63b8ff" stroke="#63b8ff" points="157.71,-164.73 168.15,-162.93 158.86,-157.83 157.71,-164.73"/>
</a>
</g>
</g>
<!-- Node17 -->
<g id="Node000017" class="node">
<title>Node17</title>
<g id="a_Node000017"><a xlink:href="class_fiea_1_1_engine_1_1_content_1_1_game_object_handler.html#a626573aebcd7beceb84dbd69bc15105b" target="_top" xlink:title="This handler is specifically for handling any game objects in json and also does some checks to ensur...">
<polygon fill="white" stroke="#666666" points="124,-106 7.5,-106 7.5,-62 124,-62 124,-106"/>
<text text-anchor="start" x="15.5" y="-92.5" font-family="Helvetica,sans-Serif" font-size="10.00">Fiea::Engine::Content</text>
<text text-anchor="start" x="15.5" y="-80.5" font-family="Helvetica,sans-Serif" font-size="10.00">::GameObjectHandler::</text>
<text text-anchor="middle" x="65.75" y="-68.5" font-family="Helvetica,sans-Serif" font-size="10.00">EnterKey</text>
</a>
</g>
</g>
<!-- Node14&#45;&gt;Node17 -->
<g id="edge16_Node000014_Node000017" class="edge">
<title>Node14&#45;&gt;Node17</title>
<g id="a_edge16_Node000014_Node000017"><a xlink:title=" ">
<path fill="none" stroke="#63b8ff" d="M197.57,-151.97C178.11,-140.58 153.72,-126.66 131.5,-115 126.09,-112.16 120.38,-109.27 114.69,-106.46"/>
<polygon fill="#63b8ff" stroke="#63b8ff" points="195.56,-154.85 205.96,-156.9 199.11,-148.81 195.56,-154.85"/>
</a>
</g>
</g>
<!-- Node18 -->
<g id="Node000018" class="node">
<title>Node18</title>
<g id="a_Node000018"><a xlink:href="class_fiea_1_1_engine_1_1_content_1_1_scope_parse_handler.html#a51138cf4e0b638b95c73b4a5acd68842" target="_top" xlink:title=" ">
<polygon fill="white" stroke="#666666" points="123.25,-44 8.25,-44 8.25,0 123.25,0 123.25,-44"/>
<text text-anchor="start" x="16.25" y="-30.5" font-family="Helvetica,sans-Serif" font-size="10.00">Fiea::Engine::Content</text>
<text text-anchor="start" x="16.25" y="-18.5" font-family="Helvetica,sans-Serif" font-size="10.00">::ScopeParseHandler::</text>
<text text-anchor="middle" x="65.75" y="-6.5" font-family="Helvetica,sans-Serif" font-size="10.00">EnterKey</text>
</a>
</g>
</g>
<!-- Node14&#45;&gt;Node18 -->
<g id="edge17_Node000014_Node000018" class="edge">
<title>Node14&#45;&gt;Node18</title>
<g id="a_edge17_Node000014_Node000018"><a xlink:title=" ">
<path fill="none" stroke="#63b8ff" d="M217.45,-148.2C198.86,-121.61 166.97,-80.31 131.5,-53 127.55,-49.96 123.25,-47.11 118.81,-44.47"/>
<polygon fill="#63b8ff" stroke="#63b8ff" points="214.51,-150.09 223.05,-156.36 220.28,-146.13 214.51,-150.09"/>
</a>
</g>
</g>
</g>
</svg>
