<?xml version="1.0" encoding="UTF-8" standalone="no"?>
<!DOCTYPE svg PUBLIC "-//W3C//DTD SVG 1.1//EN"
 "http://www.w3.org/Graphics/SVG/1.1/DTD/svg11.dtd">
<!-- Generated by graphviz version 12.2.1 (20241206.2353)
 -->
<!-- Title: Fiea::Engine::Content::ArrayHandler Pages: 1 -->
<svg width="111pt" height="332pt"
 viewBox="0.00 0.00 111.25 332.00" xmlns="http://www.w3.org/2000/svg" xmlns:xlink="http://www.w3.org/1999/xlink">
<g id="graph0" class="graph" transform="scale(1 1) rotate(0) translate(4 328)">
<title>Fiea::Engine::Content::ArrayHandler</title>
<!-- Node1 -->
<g id="Node000001" class="node">
<title>Node1</title>
<g id="a_Node000001"><a xlink:title=" ">
<polygon fill="#999999" stroke="none" points="103.25,-144 0,-144 0,0 103.25,0 103.25,-144"/>
<text text-anchor="start" x="4" y="-130.5" font-family="Helvetica,sans-Serif" font-size="10.00">Fiea::Engine::Content</text>
<text text-anchor="start" x="20.12" y="-118.5" font-family="Helvetica,sans-Serif" font-size="10.00">::ArrayHandler</text>
<text text-anchor="start" x="50.12" y="-102.5" font-family="Helvetica,sans-Serif" font-size="10.00"> </text>
<text text-anchor="start" x="8.06" y="-86.5" font-family="Helvetica,sans-Serif" font-size="10.00">+</text>
<text text-anchor="start" x="22.12" y="-86.5" font-family="Helvetica,sans-Serif" font-size="10.00">GetHandlerId()</text>
<text text-anchor="start" x="8.06" y="-70.5" font-family="Helvetica,sans-Serif" font-size="10.00">+</text>
<text text-anchor="start" x="22.12" y="-70.5" font-family="Helvetica,sans-Serif" font-size="10.00">ArrayHandler()</text>
<text text-anchor="start" x="8.06" y="-54.5" font-family="Helvetica,sans-Serif" font-size="10.00">+</text>
<text text-anchor="start" x="22.12" y="-54.5" font-family="Helvetica,sans-Serif" font-size="10.00">~ArrayHandler()</text>
<text text-anchor="start" x="8.06" y="-38.5" font-family="Helvetica,sans-Serif" font-size="10.00">+</text>
<text text-anchor="start" x="22.12" y="-38.5" font-family="Helvetica,sans-Serif" font-size="10.00">EnterKey()</text>
<text text-anchor="start" x="8.06" y="-22.5" font-family="Helvetica,sans-Serif" font-size="10.00">+</text>
<text text-anchor="start" x="22.12" y="-22.5" font-family="Helvetica,sans-Serif" font-size="10.00">ExitKey()</text>
<text text-anchor="start" x="8.06" y="-6.5" font-family="Helvetica,sans-Serif" font-size="10.00">+</text>
<text text-anchor="start" x="22.12" y="-6.5" font-family="Helvetica,sans-Serif" font-size="10.00">HandlerId()</text>
<polygon fill="#666666" stroke="#666666" points="0,-114 0,-114 103.25,-114 103.25,-114 0,-114"/>
<polygon fill="#666666" stroke="#666666" points="0,-98 0,-98 103.25,-98 103.25,-98 0,-98"/>
<polygon fill="none" stroke="#666666" points="0,0 0,-144 103.25,-144 103.25,0 0,0"/>
</a>
</g>
</g>
<!-- Node2 -->
<g id="Node000002" class="node">
<title>Node2</title>
<g id="a_Node000002"><a xlink:href="class_fiea_1_1_engine_1_1_content_1_1_i_parse_handler.html" target="_top" xlink:title=" ">
<polygon fill="white" stroke="none" points="103.25,-324 0,-324 0,-180 103.25,-180 103.25,-324"/>
<text text-anchor="start" x="4" y="-310.5" font-family="Helvetica,sans-Serif" font-size="10.00">Fiea::Engine::Content</text>
<text text-anchor="start" x="17.5" y="-298.5" font-family="Helvetica,sans-Serif" font-size="10.00">::IParseHandler</text>
<text text-anchor="start" x="50.12" y="-282.5" font-family="Helvetica,sans-Serif" font-size="10.00"> </text>
<text text-anchor="start" x="6.75" y="-266.5" font-family="Helvetica,sans-Serif" font-size="10.00">+</text>
<text text-anchor="start" x="19.5" y="-266.5" font-family="Helvetica,sans-Serif" font-size="10.00">Begin()</text>
<text text-anchor="start" x="6.75" y="-250.5" font-family="Helvetica,sans-Serif" font-size="10.00">+</text>
<text text-anchor="start" x="19.5" y="-250.5" font-family="Helvetica,sans-Serif" font-size="10.00">End()</text>
<text text-anchor="start" x="6.75" y="-234.5" font-family="Helvetica,sans-Serif" font-size="10.00">+</text>
<text text-anchor="start" x="19.5" y="-234.5" font-family="Helvetica,sans-Serif" font-size="10.00">EnterKey()</text>
<text text-anchor="start" x="6.75" y="-218.5" font-family="Helvetica,sans-Serif" font-size="10.00">+</text>
<text text-anchor="start" x="19.5" y="-218.5" font-family="Helvetica,sans-Serif" font-size="10.00">ExitKey()</text>
<text text-anchor="start" x="6.75" y="-202.5" font-family="Helvetica,sans-Serif" font-size="10.00">+</text>
<text text-anchor="start" x="19.5" y="-202.5" font-family="Helvetica,sans-Serif" font-size="10.00">~IParseHandler()</text>
<text text-anchor="start" x="7.12" y="-186.5" font-family="Helvetica,sans-Serif" font-size="10.00">#</text>
<text text-anchor="start" x="19.5" y="-186.5" font-family="Helvetica,sans-Serif" font-size="10.00">IParseHandler()</text>
<polygon fill="#666666" stroke="#666666" points="0,-294 0,-294 103.25,-294 103.25,-294 0,-294"/>
<polygon fill="#666666" stroke="#666666" points="0,-278 0,-278 103.25,-278 103.25,-278 0,-278"/>
<polygon fill="none" stroke="#666666" points="0,-180 0,-324 103.25,-324 103.25,-180 0,-180"/>
</a>
</g>
</g>
<!-- Node2&#45;&gt;Node1 -->
<g id="edge1_Node000001_Node000002" class="edge">
<title>Node2&#45;&gt;Node1</title>
<g id="a_edge1_Node000001_Node000002"><a xlink:title=" ">
<path fill="none" stroke="#63b8ff" d="M51.62,-168.85C51.62,-160.52 51.62,-152.11 51.62,-143.91"/>
<polygon fill="none" stroke="#63b8ff" points="48.13,-168.62 51.63,-178.62 55.13,-168.62 48.13,-168.62"/>
</a>
</g>
</g>
</g>
</svg>
