<?xml version="1.0" encoding="UTF-8" standalone="no"?>
<!DOCTYPE svg PUBLIC "-//W3C//DTD SVG 1.1//EN"
 "http://www.w3.org/Graphics/SVG/1.1/DTD/svg11.dtd">
<!-- Generated by graphviz version 12.2.1 (20241206.2353)
 -->
<!-- Title: Fiea::Engine::Content::Actions::IncrementAction::~IncrementAction Pages: 1 -->
<svg width="315pt" height="102pt"
 viewBox="0.00 0.00 315.25 102.00" xmlns="http://www.w3.org/2000/svg" xmlns:xlink="http://www.w3.org/1999/xlink">
<g id="graph0" class="graph" transform="scale(1 1) rotate(0) translate(4 98)">
<title>Fiea::Engine::Content::Actions::IncrementAction::~IncrementAction</title>
<!-- Node1 -->
<g id="Node000001" class="node">
<title>Node1</title>
<g id="a_Node000001"><a xlink:title=" ">
<polygon fill="#999999" stroke="#666666" points="132.25,-66 0,-66 0,-22 132.25,-22 132.25,-66"/>
<text text-anchor="start" x="8" y="-52.5" font-family="Helvetica,sans-Serif" font-size="10.00">Fiea::Engine::Content</text>
<text text-anchor="start" x="8" y="-40.5" font-family="Helvetica,sans-Serif" font-size="10.00">::Actions::IncrementAction</text>
<text text-anchor="middle" x="66.12" y="-28.5" font-family="Helvetica,sans-Serif" font-size="10.00">::~IncrementAction</text>
</a>
</g>
</g>
<!-- Node2 -->
<g id="Node000002" class="node">
<title>Node2</title>
<g id="a_Node000002"><a xlink:href="class_fiea_1_1_engine_1_1_content_1_1_actions_1_1_increment_action.html#a3a840190329324b6a4443a5a702d36f8" target="_top" xlink:title=" ">
<polygon fill="white" stroke="#666666" points="303.88,-94 171.62,-94 171.62,-50 303.88,-50 303.88,-94"/>
<text text-anchor="start" x="179.62" y="-80.5" font-family="Helvetica,sans-Serif" font-size="10.00">Fiea::Engine::Content</text>
<text text-anchor="start" x="179.62" y="-68.5" font-family="Helvetica,sans-Serif" font-size="10.00">::Actions::IncrementAction</text>
<text text-anchor="middle" x="237.75" y="-56.5" font-family="Helvetica,sans-Serif" font-size="10.00">::Cleanup</text>
</a>
</g>
</g>
<!-- Node1&#45;&gt;Node2 -->
<g id="edge1_Node000001_Node000002" class="edge">
<title>Node1&#45;&gt;Node2</title>
<g id="a_edge1_Node000001_Node000002"><a xlink:title=" ">
<path fill="none" stroke="#63b8ff" d="M132.71,-54.83C141.72,-56.31 151.04,-57.85 160.23,-59.37"/>
<polygon fill="#63b8ff" stroke="#63b8ff" points="159.41,-62.78 169.85,-60.96 160.55,-55.87 159.41,-62.78"/>
</a>
</g>
</g>
<!-- Node3 -->
<g id="Node000003" class="node">
<title>Node3</title>
<g id="a_Node000003"><a xlink:href="class_fiea_1_1_engine_1_1_content_1_1_actions_1_1_action.html#a49e62384396f5a36a6af0bb90f5c10fd" target="_top" xlink:title=" ">
<polygon fill="white" stroke="#666666" points="307.25,-32 168.25,-32 168.25,0 307.25,0 307.25,-32"/>
<text text-anchor="start" x="176.25" y="-18.5" font-family="Helvetica,sans-Serif" font-size="10.00">Fiea::Engine::Content</text>
<text text-anchor="middle" x="237.75" y="-6.5" font-family="Helvetica,sans-Serif" font-size="10.00">::Actions::Action::GetStatus</text>
</a>
</g>
</g>
<!-- Node1&#45;&gt;Node3 -->
<g id="edge2_Node000001_Node000003" class="edge">
<title>Node1&#45;&gt;Node3</title>
<g id="a_edge2_Node000001_Node000003"><a xlink:title=" ">
<path fill="none" stroke="#63b8ff" d="M132.71,-33.17C140.56,-31.88 148.65,-30.54 156.69,-29.22"/>
<polygon fill="#63b8ff" stroke="#63b8ff" points="157.19,-32.68 166.48,-27.6 156.04,-25.77 157.19,-32.68"/>
</a>
</g>
</g>
</g>
</svg>
