<?xml version="1.0" encoding="UTF-8" standalone="no"?>
<!DOCTYPE svg PUBLIC "-//W3C//DTD SVG 1.1//EN"
 "http://www.w3.org/Graphics/SVG/1.1/DTD/svg11.dtd">
<!-- Generated by graphviz version 12.2.1 (20241206.2353)
 -->
<!-- Title: Fiea::Engine::Content::ScopeWriter Pages: 1 -->
<svg width="236pt" height="737pt"
 viewBox="0.00 0.00 236.25 737.00" xmlns="http://www.w3.org/2000/svg" xmlns:xlink="http://www.w3.org/1999/xlink">
<g id="graph0" class="graph" transform="scale(1 1) rotate(0) translate(4 733)">
<title>Fiea::Engine::Content::ScopeWriter</title>
<!-- Node1 -->
<g id="Node000001" class="node">
<title>Node1</title>
<g id="a_Node000001"><a xlink:title=" ">
<polygon fill="#999999" stroke="none" points="158,-224 54.75,-224 54.75,0 158,0 158,-224"/>
<text text-anchor="start" x="58.75" y="-210.5" font-family="Helvetica,sans-Serif" font-size="10.00">Fiea::Engine::Content</text>
<text text-anchor="start" x="76.75" y="-198.5" font-family="Helvetica,sans-Serif" font-size="10.00">::ScopeWriter</text>
<text text-anchor="start" x="104.88" y="-182.5" font-family="Helvetica,sans-Serif" font-size="10.00"> </text>
<text text-anchor="start" x="63.75" y="-166.5" font-family="Helvetica,sans-Serif" font-size="10.00">+</text>
<text text-anchor="start" x="78.75" y="-166.5" font-family="Helvetica,sans-Serif" font-size="10.00">ScopeWriter()</text>
<text text-anchor="start" x="63.75" y="-150.5" font-family="Helvetica,sans-Serif" font-size="10.00">+</text>
<text text-anchor="start" x="78.75" y="-150.5" font-family="Helvetica,sans-Serif" font-size="10.00">~ScopeWriter()</text>
<text text-anchor="start" x="63.75" y="-134.5" font-family="Helvetica,sans-Serif" font-size="10.00">+</text>
<text text-anchor="start" x="78.75" y="-134.5" font-family="Helvetica,sans-Serif" font-size="10.00">ScopeWriter()</text>
<text text-anchor="start" x="63.75" y="-118.5" font-family="Helvetica,sans-Serif" font-size="10.00">+</text>
<text text-anchor="start" x="78.75" y="-118.5" font-family="Helvetica,sans-Serif" font-size="10.00">ScopeWriter()</text>
<text text-anchor="start" x="63.75" y="-102.5" font-family="Helvetica,sans-Serif" font-size="10.00">+</text>
<text text-anchor="start" x="78.75" y="-102.5" font-family="Helvetica,sans-Serif" font-size="10.00">operator=()</text>
<text text-anchor="start" x="63.75" y="-86.5" font-family="Helvetica,sans-Serif" font-size="10.00">+</text>
<text text-anchor="start" x="78.75" y="-86.5" font-family="Helvetica,sans-Serif" font-size="10.00">operator=()</text>
<text text-anchor="start" x="63.75" y="-70.5" font-family="Helvetica,sans-Serif" font-size="10.00">+</text>
<text text-anchor="start" x="78.75" y="-70.5" font-family="Helvetica,sans-Serif" font-size="10.00">PushScope()</text>
<text text-anchor="start" x="63.75" y="-54.5" font-family="Helvetica,sans-Serif" font-size="10.00">+</text>
<text text-anchor="start" x="78.75" y="-54.5" font-family="Helvetica,sans-Serif" font-size="10.00">PushScope()</text>
<text text-anchor="start" x="63.75" y="-38.5" font-family="Helvetica,sans-Serif" font-size="10.00">+</text>
<text text-anchor="start" x="78.75" y="-38.5" font-family="Helvetica,sans-Serif" font-size="10.00">PushScope()</text>
<text text-anchor="start" x="63.75" y="-22.5" font-family="Helvetica,sans-Serif" font-size="10.00">+</text>
<text text-anchor="start" x="78.75" y="-22.5" font-family="Helvetica,sans-Serif" font-size="10.00">Append()</text>
<text text-anchor="start" x="78.75" y="-6.5" font-family="Helvetica,sans-Serif" font-size="10.00">and 7 more...</text>
<polygon fill="#666666" stroke="#666666" points="54.75,-194 54.75,-194 158,-194 158,-194 54.75,-194"/>
<polygon fill="#666666" stroke="#666666" points="54.75,-178 54.75,-178 158,-178 158,-178 54.75,-178"/>
<polygon fill="none" stroke="#666666" points="54.75,0 54.75,-224 158,-224 158,0 54.75,0"/>
</a>
</g>
</g>
<!-- Node2 -->
<g id="Node000002" class="node">
<title>Node2</title>
<g id="a_Node000002"><a xlink:href="class_fiea_1_1_engine_1_1_content_1_1_parse_writer.html" target="_top" xlink:title=" ">
<polygon fill="white" stroke="none" points="158,-453 54.75,-453 54.75,-261 158,-261 158,-453"/>
<text text-anchor="start" x="58.75" y="-439.5" font-family="Helvetica,sans-Serif" font-size="10.00">Fiea::Engine::Content</text>
<text text-anchor="start" x="77.88" y="-427.5" font-family="Helvetica,sans-Serif" font-size="10.00">::ParseWriter</text>
<text text-anchor="start" x="104.88" y="-411.5" font-family="Helvetica,sans-Serif" font-size="10.00"> </text>
<text text-anchor="start" x="60" y="-395.5" font-family="Helvetica,sans-Serif" font-size="10.00">+</text>
<text text-anchor="start" x="71.25" y="-395.5" font-family="Helvetica,sans-Serif" font-size="10.00">ParseWriter()</text>
<text text-anchor="start" x="60" y="-379.5" font-family="Helvetica,sans-Serif" font-size="10.00">+</text>
<text text-anchor="start" x="71.25" y="-379.5" font-family="Helvetica,sans-Serif" font-size="10.00">ParseWriter()</text>
<text text-anchor="start" x="60" y="-363.5" font-family="Helvetica,sans-Serif" font-size="10.00">+</text>
<text text-anchor="start" x="71.25" y="-363.5" font-family="Helvetica,sans-Serif" font-size="10.00">operator=()</text>
<text text-anchor="start" x="60" y="-347.5" font-family="Helvetica,sans-Serif" font-size="10.00">+</text>
<text text-anchor="start" x="71.25" y="-347.5" font-family="Helvetica,sans-Serif" font-size="10.00">operator=()</text>
<text text-anchor="start" x="60" y="-331.5" font-family="Helvetica,sans-Serif" font-size="10.00">+</text>
<text text-anchor="start" x="71.25" y="-331.5" font-family="Helvetica,sans-Serif" font-size="10.00">~ParseWriter()</text>
<text text-anchor="start" x="60" y="-315.5" font-family="Helvetica,sans-Serif" font-size="10.00">+</text>
<text text-anchor="start" x="71.25" y="-315.5" font-family="Helvetica,sans-Serif" font-size="10.00">IncrementDepth()</text>
<text text-anchor="start" x="60" y="-299.5" font-family="Helvetica,sans-Serif" font-size="10.00">+</text>
<text text-anchor="start" x="71.25" y="-299.5" font-family="Helvetica,sans-Serif" font-size="10.00">DecrementDepth()</text>
<text text-anchor="start" x="60" y="-283.5" font-family="Helvetica,sans-Serif" font-size="10.00">+</text>
<text text-anchor="start" x="71.25" y="-283.5" font-family="Helvetica,sans-Serif" font-size="10.00">Depth()</text>
<text text-anchor="start" x="60.38" y="-267.5" font-family="Helvetica,sans-Serif" font-size="10.00">#</text>
<text text-anchor="start" x="71.25" y="-267.5" font-family="Helvetica,sans-Serif" font-size="10.00">ParseWriter()</text>
<polygon fill="#666666" stroke="#666666" points="54.75,-423 54.75,-423 158,-423 158,-423 54.75,-423"/>
<polygon fill="#666666" stroke="#666666" points="54.75,-407 54.75,-407 158,-407 158,-407 54.75,-407"/>
<polygon fill="none" stroke="#666666" points="54.75,-261 54.75,-453 158,-453 158,-261 54.75,-261"/>
</a>
</g>
</g>
<!-- Node2&#45;&gt;Node1 -->
<g id="edge1_Node000001_Node000002" class="edge">
<title>Node2&#45;&gt;Node1</title>
<g id="a_edge1_Node000001_Node000002"><a xlink:title=" ">
<path fill="none" stroke="#63b8ff" d="M106.38,-249.72C106.38,-241.08 106.38,-232.34 106.38,-223.66"/>
<polygon fill="none" stroke="#63b8ff" points="102.88,-249.49 106.38,-259.49 109.88,-249.49 102.88,-249.49"/>
</a>
</g>
</g>
<!-- Node3 -->
<g id="Node000003" class="node">
<title>Node3</title>
<g id="a_Node000003"><a xlink:href="class_fiea_1_1_engine_1_1_r_t_t_i.html" target="_top" xlink:title=" ">
<polygon fill="white" stroke="none" points="90.75,-729 0,-729 0,-501 90.75,-501 90.75,-729"/>
<text text-anchor="start" x="4.12" y="-715.5" font-family="Helvetica,sans-Serif" font-size="10.00">Fiea::Engine::RTTI</text>
<text text-anchor="start" x="43.88" y="-699.5" font-family="Helvetica,sans-Serif" font-size="10.00"> </text>
<text text-anchor="start" x="4" y="-683.5" font-family="Helvetica,sans-Serif" font-size="10.00">+</text>
<text text-anchor="start" x="14" y="-683.5" font-family="Helvetica,sans-Serif" font-size="10.00">RTTI()</text>
<text text-anchor="start" x="4" y="-667.5" font-family="Helvetica,sans-Serif" font-size="10.00">+</text>
<text text-anchor="start" x="14" y="-667.5" font-family="Helvetica,sans-Serif" font-size="10.00">RTTI()</text>
<text text-anchor="start" x="4" y="-651.5" font-family="Helvetica,sans-Serif" font-size="10.00">+</text>
<text text-anchor="start" x="14" y="-651.5" font-family="Helvetica,sans-Serif" font-size="10.00">operator=()</text>
<text text-anchor="start" x="4" y="-635.5" font-family="Helvetica,sans-Serif" font-size="10.00">+</text>
<text text-anchor="start" x="14" y="-635.5" font-family="Helvetica,sans-Serif" font-size="10.00">RTTI()</text>
<text text-anchor="start" x="4" y="-619.5" font-family="Helvetica,sans-Serif" font-size="10.00">+</text>
<text text-anchor="start" x="14" y="-619.5" font-family="Helvetica,sans-Serif" font-size="10.00">operator=()</text>
<text text-anchor="start" x="4" y="-603.5" font-family="Helvetica,sans-Serif" font-size="10.00">+</text>
<text text-anchor="start" x="14" y="-603.5" font-family="Helvetica,sans-Serif" font-size="10.00">~RTTI()</text>
<text text-anchor="start" x="4" y="-587.5" font-family="Helvetica,sans-Serif" font-size="10.00">+</text>
<text text-anchor="start" x="14" y="-587.5" font-family="Helvetica,sans-Serif" font-size="10.00">TypeIdInstance()</text>
<text text-anchor="start" x="4" y="-571.5" font-family="Helvetica,sans-Serif" font-size="10.00">+</text>
<text text-anchor="start" x="14" y="-571.5" font-family="Helvetica,sans-Serif" font-size="10.00">Is()</text>
<text text-anchor="start" x="4" y="-555.5" font-family="Helvetica,sans-Serif" font-size="10.00">+</text>
<text text-anchor="start" x="14" y="-555.5" font-family="Helvetica,sans-Serif" font-size="10.00">As()</text>
<text text-anchor="start" x="4" y="-539.5" font-family="Helvetica,sans-Serif" font-size="10.00">+</text>
<text text-anchor="start" x="14" y="-539.5" font-family="Helvetica,sans-Serif" font-size="10.00">As()</text>
<text text-anchor="start" x="4" y="-523.5" font-family="Helvetica,sans-Serif" font-size="10.00">+</text>
<text text-anchor="start" x="14" y="-523.5" font-family="Helvetica,sans-Serif" font-size="10.00">ToString()</text>
<text text-anchor="start" x="4" y="-507.5" font-family="Helvetica,sans-Serif" font-size="10.00">+</text>
<text text-anchor="start" x="14" y="-507.5" font-family="Helvetica,sans-Serif" font-size="10.00">Equals()</text>
<polygon fill="#666666" stroke="#666666" points="0,-711 0,-711 90.75,-711 90.75,-711 0,-711"/>
<polygon fill="#666666" stroke="#666666" points="0,-695 0,-695 90.75,-695 90.75,-695 0,-695"/>
<polygon fill="none" stroke="#666666" points="0,-501 0,-729 90.75,-729 90.75,-501 0,-501"/>
</a>
</g>
</g>
<!-- Node3&#45;&gt;Node2 -->
<g id="edge2_Node000002_Node000003" class="edge">
<title>Node3&#45;&gt;Node2</title>
<g id="a_edge2_Node000002_Node000003"><a xlink:title=" ">
<path fill="none" stroke="#63b8ff" d="M74.86,-490.27C77.87,-477.64 80.89,-464.96 83.81,-452.71"/>
<polygon fill="none" stroke="#63b8ff" points="71.48,-489.33 72.57,-499.87 78.29,-490.95 71.48,-489.33"/>
</a>
</g>
</g>
<!-- Node4 -->
<g id="Node000004" class="node">
<title>Node4</title>
<g id="a_Node000004"><a xlink:href="struct_fiea_1_1_engine_1_1_content_1_1_parse_writer_1_1_blackboard.html" target="_top" xlink:title="We need this data because the Parser has no knowledge of which handler is which is which....">
<polygon fill="white" stroke="none" points="228.25,-671 108.5,-671 108.5,-559 228.25,-559 228.25,-671"/>
<text text-anchor="start" x="112.5" y="-657.5" font-family="Helvetica,sans-Serif" font-size="10.00">Fiea::Engine::Content</text>
<text text-anchor="start" x="112.5" y="-645.5" font-family="Helvetica,sans-Serif" font-size="10.00">::ParseWriter::Blackboard</text>
<text text-anchor="start" x="166.88" y="-629.5" font-family="Helvetica,sans-Serif" font-size="10.00"> </text>
<text text-anchor="start" x="113.56" y="-613.5" font-family="Helvetica,sans-Serif" font-size="10.00">+</text>
<text text-anchor="start" x="124.62" y="-613.5" font-family="Helvetica,sans-Serif" font-size="10.00">EnterTrackingInfo()</text>
<text text-anchor="start" x="113.56" y="-597.5" font-family="Helvetica,sans-Serif" font-size="10.00">+</text>
<text text-anchor="start" x="124.62" y="-597.5" font-family="Helvetica,sans-Serif" font-size="10.00">IsHandlerInProgress()</text>
<text text-anchor="start" x="113.56" y="-581.5" font-family="Helvetica,sans-Serif" font-size="10.00">+</text>
<text text-anchor="start" x="124.62" y="-581.5" font-family="Helvetica,sans-Serif" font-size="10.00">PopCurrentHandlerId()</text>
<text text-anchor="start" x="113.56" y="-565.5" font-family="Helvetica,sans-Serif" font-size="10.00">+</text>
<text text-anchor="start" x="124.62" y="-565.5" font-family="Helvetica,sans-Serif" font-size="10.00">Reset()</text>
<polygon fill="#666666" stroke="#666666" points="108.5,-641 108.5,-641 228.25,-641 228.25,-641 108.5,-641"/>
<polygon fill="#666666" stroke="#666666" points="108.5,-625 108.5,-625 228.25,-625 228.25,-625 108.5,-625"/>
<polygon fill="none" stroke="#666666" points="108.5,-559 108.5,-671 228.25,-671 228.25,-559 108.5,-559"/>
</a>
</g>
</g>
<!-- Node4&#45;&gt;Node2 -->
<g id="edge3_Node000002_Node000004" class="edge">
<title>Node4&#45;&gt;Node2</title>
<g id="a_edge3_Node000002_Node000004"><a xlink:title=" ">
<path fill="none" stroke="#63b8ff" d="M155.07,-559.08C148.43,-531.66 140.16,-497.51 132.33,-465.18"/>
<polygon fill="none" stroke="#63b8ff" points="132.39,-465.43 127.09,-460.54 129.57,-453.77 134.87,-458.66 132.39,-465.43"/>
</a>
</g>
<text text-anchor="middle" x="159.14" y="-473.5" font-family="Helvetica,sans-Serif" font-size="10.00" fill="grey"> +_Tracker</text>
</g>
</g>
</svg>
