<?xml version="1.0" encoding="UTF-8" standalone="no"?>
<!DOCTYPE svg PUBLIC "-//W3C//DTD SVG 1.1//EN"
 "http://www.w3.org/Graphics/SVG/1.1/DTD/svg11.dtd">
<!-- Generated by graphviz version 12.2.1 (20241206.2353)
 -->
<!-- Title: Fiea::Engine::Content::ActionListHandler::ExitKey Pages: 1 -->
<svg width="457pt" height="128pt"
 viewBox="0.00 0.00 457.25 128.00" xmlns="http://www.w3.org/2000/svg" xmlns:xlink="http://www.w3.org/1999/xlink">
<g id="graph0" class="graph" transform="scale(1 1) rotate(0) translate(4 124)">
<title>Fiea::Engine::Content::ActionListHandler::ExitKey</title>
<!-- Node1 -->
<g id="Node000001" class="node">
<title>Node1</title>
<g id="a_Node000001"><a xlink:title=" ">
<polygon fill="#999999" stroke="#666666" points="111.25,-88 0,-88 0,-44 111.25,-44 111.25,-88"/>
<text text-anchor="start" x="8" y="-74.5" font-family="Helvetica,sans-Serif" font-size="10.00">Fiea::Engine::Content</text>
<text text-anchor="start" x="8" y="-62.5" font-family="Helvetica,sans-Serif" font-size="10.00">::ActionListHandler::</text>
<text text-anchor="middle" x="55.62" y="-50.5" font-family="Helvetica,sans-Serif" font-size="10.00">ExitKey</text>
</a>
</g>
</g>
<!-- Node2 -->
<g id="Node000002" class="node">
<title>Node2</title>
<g id="a_Node000002"><a xlink:href="class_fiea_1_1_engine_1_1_r_t_t_i.html#a15bd5993c8ad04da47af440298ebbb30" target="_top" xlink:title=" ">
<polygon fill="white" stroke="#666666" points="282.12,-120 165.62,-120 165.62,-100 282.12,-100 282.12,-120"/>
<text text-anchor="middle" x="223.88" y="-106.5" font-family="Helvetica,sans-Serif" font-size="10.00">Fiea::Engine::RTTI::As</text>
</a>
</g>
</g>
<!-- Node1&#45;&gt;Node2 -->
<g id="edge1_Node000001_Node000002" class="edge">
<title>Node1&#45;&gt;Node2</title>
<g id="a_edge1_Node000001_Node000002"><a xlink:title=" ">
<path fill="none" stroke="#63b8ff" d="M111.68,-81.41C123.41,-84.63 135.73,-87.96 147.25,-91 154.38,-92.88 161.9,-94.82 169.31,-96.71"/>
<polygon fill="#63b8ff" stroke="#63b8ff" points="168.41,-100.09 178.97,-99.15 170.13,-93.3 168.41,-100.09"/>
</a>
</g>
</g>
<!-- Node4 -->
<g id="Node000004" class="node">
<title>Node4</title>
<g id="a_Node000004"><a xlink:href="class_fiea_1_1_engine_1_1_content_1_1_parse_writer.html#adfcfbaea4b8c32604d144834456224ad" target="_top" xlink:title=" ">
<polygon fill="white" stroke="#666666" points="300.5,-82 147.25,-82 147.25,-50 300.5,-50 300.5,-82"/>
<text text-anchor="start" x="155.25" y="-68.5" font-family="Helvetica,sans-Serif" font-size="10.00">Fiea::Engine::Content</text>
<text text-anchor="middle" x="223.88" y="-56.5" font-family="Helvetica,sans-Serif" font-size="10.00">::ParseWriter::DecrementDepth</text>
</a>
</g>
</g>
<!-- Node1&#45;&gt;Node4 -->
<g id="edge3_Node000001_Node000004" class="edge">
<title>Node1&#45;&gt;Node4</title>
<g id="a_edge3_Node000001_Node000004"><a xlink:title=" ">
<path fill="none" stroke="#63b8ff" d="M111.52,-66C119.24,-66 127.32,-66 135.46,-66"/>
<polygon fill="#63b8ff" stroke="#63b8ff" points="135.45,-69.5 145.45,-66 135.45,-62.5 135.45,-69.5"/>
</a>
</g>
</g>
<!-- Node5 -->
<g id="Node000005" class="node">
<title>Node5</title>
<g id="a_Node000005"><a xlink:href="class_fiea_1_1_engine_1_1_content_1_1_scope_writer.html#a8ba2c681c0554ab2dcb5f37cdeea8f43" target="_top" xlink:title="This only pops the top element from the stack. Error condition if you pop an empty stack....">
<polygon fill="white" stroke="#666666" points="287,-32 160.75,-32 160.75,0 287,0 287,-32"/>
<text text-anchor="start" x="168.75" y="-18.5" font-family="Helvetica,sans-Serif" font-size="10.00">Fiea::Engine::Content</text>
<text text-anchor="middle" x="223.88" y="-6.5" font-family="Helvetica,sans-Serif" font-size="10.00">::ScopeWriter::PopScope</text>
</a>
</g>
</g>
<!-- Node1&#45;&gt;Node5 -->
<g id="edge4_Node000001_Node000005" class="edge">
<title>Node1&#45;&gt;Node5</title>
<g id="a_edge4_Node000001_Node000005"><a xlink:title=" ">
<path fill="none" stroke="#63b8ff" d="M111.52,-49.49C126.13,-45.09 142.07,-40.3 157.19,-35.75"/>
<polygon fill="#63b8ff" stroke="#63b8ff" points="158.02,-39.16 166.59,-32.93 156,-32.46 158.02,-39.16"/>
</a>
</g>
</g>
<!-- Node3 -->
<g id="Node000003" class="node">
<title>Node3</title>
<g id="a_Node000003"><a xlink:href="class_fiea_1_1_engine_1_1_r_t_t_i.html#ac0a7d875e4513b2aca7594abcd4418ef" target="_top" xlink:title=" ">
<polygon fill="white" stroke="#666666" points="449.25,-120 336.5,-120 336.5,-100 449.25,-100 449.25,-120"/>
<text text-anchor="middle" x="392.88" y="-106.5" font-family="Helvetica,sans-Serif" font-size="10.00">Fiea::Engine::RTTI::Is</text>
</a>
</g>
</g>
<!-- Node2&#45;&gt;Node3 -->
<g id="edge2_Node000002_Node000003" class="edge">
<title>Node2&#45;&gt;Node3</title>
<g id="a_edge2_Node000002_Node000003"><a xlink:title=" ">
<path fill="none" stroke="#63b8ff" d="M282.35,-110C296.12,-110 310.94,-110 325.1,-110"/>
<polygon fill="#63b8ff" stroke="#63b8ff" points="324.76,-113.5 334.76,-110 324.76,-106.5 324.76,-113.5"/>
</a>
</g>
</g>
</g>
</svg>
