<?xml version="1.0" encoding="UTF-8" standalone="no"?>
<!DOCTYPE svg PUBLIC "-//W3C//DTD SVG 1.1//EN"
 "http://www.w3.org/Graphics/SVG/1.1/DTD/svg11.dtd">
<!-- Generated by graphviz version 12.2.1 (20241206.2353)
 -->
<!-- Title: Fiea::Engine::Content::Datum::Get Pages: 1 -->
<svg width="496pt" height="417pt"
 viewBox="0.00 0.00 496.25 417.00" xmlns="http://www.w3.org/2000/svg" xmlns:xlink="http://www.w3.org/1999/xlink">
<g id="graph0" class="graph" transform="scale(1 1) rotate(0) translate(4 413)">
<title>Fiea::Engine::Content::Datum::Get</title>
<!-- Node1 -->
<g id="Node000001" class="node">
<title>Node1</title>
<g id="a_Node000001"><a xlink:title=" ">
<polygon fill="#999999" stroke="#666666" points="488.25,-219 377,-219 377,-187 488.25,-187 488.25,-219"/>
<text text-anchor="start" x="385" y="-205.5" font-family="Helvetica,sans-Serif" font-size="10.00">Fiea::Engine::Content</text>
<text text-anchor="middle" x="432.62" y="-193.5" font-family="Helvetica,sans-Serif" font-size="10.00">::Datum::Get</text>
</a>
</g>
</g>
<!-- Node2 -->
<g id="Node000002" class="node">
<title>Node2</title>
<g id="a_Node000002"><a xlink:href="class_fiea_1_1_engine_1_1_content_1_1_actions_1_1_action_list.html#a61d6676694ddead07acc69a9dea0da24" target="_top" xlink:title="Init is called as the action is starting, Usually we put all the code that needs to run once....">
<polygon fill="white" stroke="#666666" points="324.88,-394 200.88,-394 200.88,-362 324.88,-362 324.88,-394"/>
<text text-anchor="start" x="208.88" y="-380.5" font-family="Helvetica,sans-Serif" font-size="10.00">Fiea::Engine::Content</text>
<text text-anchor="middle" x="262.88" y="-368.5" font-family="Helvetica,sans-Serif" font-size="10.00">::Actions::ActionList::Init</text>
</a>
</g>
</g>
<!-- Node1&#45;&gt;Node2 -->
<g id="edge1_Node000001_Node000002" class="edge">
<title>Node1&#45;&gt;Node2</title>
<g id="a_edge1_Node000001_Node000002"><a xlink:title=" ">
<path fill="none" stroke="#63b8ff" d="M422.32,-229.53C409.25,-263.03 382.34,-320.22 341,-353 336.26,-356.76 330.93,-359.96 325.35,-362.69"/>
<polygon fill="#63b8ff" stroke="#63b8ff" points="425.45,-231.16 425.69,-220.57 418.89,-228.7 425.45,-231.16"/>
</a>
</g>
</g>
<!-- Node3 -->
<g id="Node000003" class="node">
<title>Node3</title>
<g id="a_Node000003"><a xlink:href="class_fiea_1_1_engine_1_1_content_1_1_actions_1_1_action_list.html#a174321b3790604e933b2210235d2c62a" target="_top" xlink:title="Resets the actions owned by the list.">
<polygon fill="white" stroke="#666666" points="318.88,-344 206.88,-344 206.88,-300 318.88,-300 318.88,-344"/>
<text text-anchor="start" x="214.88" y="-330.5" font-family="Helvetica,sans-Serif" font-size="10.00">Fiea::Engine::Content</text>
<text text-anchor="start" x="214.88" y="-318.5" font-family="Helvetica,sans-Serif" font-size="10.00">::Actions::ActionList</text>
<text text-anchor="middle" x="262.88" y="-306.5" font-family="Helvetica,sans-Serif" font-size="10.00">::ResetOwnedActions</text>
</a>
</g>
</g>
<!-- Node1&#45;&gt;Node3 -->
<g id="edge2_Node000001_Node000003" class="edge">
<title>Node1&#45;&gt;Node3</title>
<g id="a_edge2_Node000001_Node000003"><a xlink:title=" ">
<path fill="none" stroke="#63b8ff" d="M408.94,-227.46C391.55,-245.25 366.31,-269.09 341,-286 333.63,-290.93 325.48,-295.52 317.31,-299.67"/>
<polygon fill="#63b8ff" stroke="#63b8ff" points="411.36,-229.99 415.77,-220.36 406.31,-225.14 411.36,-229.99"/>
</a>
</g>
</g>
<!-- Node6 -->
<g id="Node000006" class="node">
<title>Node6</title>
<g id="a_Node000006"><a xlink:href="class_fiea_1_1_engine_1_1_content_1_1_actions_1_1_delayed_action.html#a2f06440518f0083c5302251ba2d5e3c0" target="_top" xlink:title="Checks if the delay is over. And executes the actions until they all are over.">
<polygon fill="white" stroke="#666666" points="148.75,-285 0,-285 0,-253 148.75,-253 148.75,-285"/>
<text text-anchor="start" x="8" y="-271.5" font-family="Helvetica,sans-Serif" font-size="10.00">Fiea::Engine::Content</text>
<text text-anchor="middle" x="74.38" y="-259.5" font-family="Helvetica,sans-Serif" font-size="10.00">::Actions::DelayedAction::Run</text>
</a>
</g>
</g>
<!-- Node1&#45;&gt;Node6 -->
<g id="edge7_Node000001_Node000006" class="edge">
<title>Node1&#45;&gt;Node6</title>
<g id="a_edge7_Node000001_Node000006"><a xlink:title=" ">
<path fill="none" stroke="#63b8ff" d="M399.41,-225.38C382.75,-235.72 361.63,-247.02 341,-253 277.99,-271.27 203.16,-274.19 149,-273.17"/>
<polygon fill="#63b8ff" stroke="#63b8ff" points="400.86,-228.6 407.39,-220.26 397.09,-222.71 400.86,-228.6"/>
</a>
</g>
</g>
<!-- Node7 -->
<g id="Node000007" class="node">
<title>Node7</title>
<g id="a_Node000007"><a xlink:href="class_fiea_1_1_engine_1_1_content_1_1_actions_1_1_action_list.html#ad7daf7d0f6bb5b868c4cb602aaf8a236" target="_top" xlink:title="Any code that we want to run recursively goes here. It returns false if it needs to run one more iter...">
<polygon fill="white" stroke="#666666" points="327.12,-244 198.62,-244 198.62,-212 327.12,-212 327.12,-244"/>
<text text-anchor="start" x="206.62" y="-230.5" font-family="Helvetica,sans-Serif" font-size="10.00">Fiea::Engine::Content</text>
<text text-anchor="middle" x="262.88" y="-218.5" font-family="Helvetica,sans-Serif" font-size="10.00">::Actions::ActionList::Run</text>
</a>
</g>
</g>
<!-- Node1&#45;&gt;Node7 -->
<g id="edge6_Node000001_Node000007" class="edge">
<title>Node1&#45;&gt;Node7</title>
<g id="a_edge6_Node000001_Node000007"><a xlink:title=" ">
<path fill="none" stroke="#63b8ff" d="M365.39,-212.87C352.87,-214.74 339.8,-216.68 327.37,-218.54"/>
<polygon fill="#63b8ff" stroke="#63b8ff" points="365.83,-216.34 375.2,-211.41 364.79,-209.42 365.83,-216.34"/>
</a>
</g>
</g>
<!-- Node8 -->
<g id="Node000008" class="node">
<title>Node8</title>
<g id="a_Node000008"><a xlink:href="class_fiea_1_1_engine_1_1_content_1_1_actions_1_1_increment_action.html#a64814e7cd3d6c059897a33ec422fbbfb" target="_top" xlink:title="Adds the diff and checks the minimum and maximum condition to clamp. It returns true in all exit poin...">
<polygon fill="white" stroke="#666666" points="341,-194 184.75,-194 184.75,-162 341,-162 341,-194"/>
<text text-anchor="start" x="192.75" y="-180.5" font-family="Helvetica,sans-Serif" font-size="10.00">Fiea::Engine::Content</text>
<text text-anchor="middle" x="262.88" y="-168.5" font-family="Helvetica,sans-Serif" font-size="10.00">::Actions::IncrementAction::Run</text>
</a>
</g>
</g>
<!-- Node1&#45;&gt;Node8 -->
<g id="edge8_Node000001_Node000008" class="edge">
<title>Node1&#45;&gt;Node8</title>
<g id="a_edge8_Node000001_Node000008"><a xlink:title=" ">
<path fill="none" stroke="#63b8ff" d="M365.38,-193.13C357.52,-191.96 349.45,-190.75 341.45,-189.56"/>
<polygon fill="#63b8ff" stroke="#63b8ff" points="364.79,-196.58 375.2,-194.59 365.83,-189.66 364.79,-196.58"/>
</a>
</g>
</g>
<!-- Node9 -->
<g id="Node000009" class="node">
<title>Node9</title>
<g id="a_Node000009"><a xlink:href="class_fiea_1_1_engine_1_1_content_1_1_actions_1_1_integer_conditional_action.html#a8bd70260a9720a2cea0bf6d7ae54fd89" target="_top" xlink:title="Run returns true only when the condition turns false, until then it continues to return false.">
<polygon fill="white" stroke="#666666" points="332.75,-144 193,-144 193,-100 332.75,-100 332.75,-144"/>
<text text-anchor="start" x="201" y="-130.5" font-family="Helvetica,sans-Serif" font-size="10.00">Fiea::Engine::Content</text>
<text text-anchor="start" x="201" y="-118.5" font-family="Helvetica,sans-Serif" font-size="10.00">::Actions::IntegerConditional</text>
<text text-anchor="middle" x="262.88" y="-106.5" font-family="Helvetica,sans-Serif" font-size="10.00">Action::Run</text>
</a>
</g>
</g>
<!-- Node1&#45;&gt;Node9 -->
<g id="edge9_Node000001_Node000009" class="edge">
<title>Node1&#45;&gt;Node9</title>
<g id="a_edge9_Node000001_Node000009"><a xlink:title=" ">
<path fill="none" stroke="#63b8ff" d="M394.3,-181.07C378.15,-171.93 358.88,-161.49 341,-153 334.87,-150.09 328.4,-147.21 321.9,-144.43"/>
<polygon fill="#63b8ff" stroke="#63b8ff" points="392.19,-183.89 402.6,-185.81 395.66,-177.81 392.19,-183.89"/>
</a>
</g>
</g>
<!-- Node10 -->
<g id="Node000010" class="node">
<title>Node10</title>
<g id="a_Node000010"><a xlink:href="class_fiea_1_1_engine_1_1_content_1_1_actions_1_1_timed_action.html#acaf7a9c271c20baaeeb15b4fa713f323" target="_top" xlink:title="Executes all the actions the TimedAction contains. It checks if the current time is less than the tar...">
<polygon fill="white" stroke="#666666" points="332.75,-82 193,-82 193,-50 332.75,-50 332.75,-82"/>
<text text-anchor="start" x="201" y="-68.5" font-family="Helvetica,sans-Serif" font-size="10.00">Fiea::Engine::Content</text>
<text text-anchor="middle" x="262.88" y="-56.5" font-family="Helvetica,sans-Serif" font-size="10.00">::Actions::TimedAction::Run</text>
</a>
</g>
</g>
<!-- Node1&#45;&gt;Node10 -->
<g id="edge10_Node000001_Node000010" class="edge">
<title>Node1&#45;&gt;Node10</title>
<g id="a_edge10_Node000001_Node000010"><a xlink:title=" ">
<path fill="none" stroke="#63b8ff" d="M416.85,-177.1C401.13,-151.73 373.98,-113.66 341,-91 336.24,-87.73 331.03,-84.87 325.63,-82.37"/>
<polygon fill="#63b8ff" stroke="#63b8ff" points="413.75,-178.74 421.91,-185.5 419.75,-175.13 413.75,-178.74"/>
</a>
</g>
</g>
<!-- Node11 -->
<g id="Node000011" class="node">
<title>Node11</title>
<g id="a_Node000011"><a xlink:href="class_fiea_1_1_engine_1_1_content_1_1_actions_1_1_while_action_list.html#a87d627d5c0691325cb255ad15934e5d8" target="_top" xlink:title="The logic that needs to run repetitively.">
<polygon fill="white" stroke="#666666" points="339.5,-32 186.25,-32 186.25,0 339.5,0 339.5,-32"/>
<text text-anchor="start" x="194.25" y="-18.5" font-family="Helvetica,sans-Serif" font-size="10.00">Fiea::Engine::Content</text>
<text text-anchor="middle" x="262.88" y="-6.5" font-family="Helvetica,sans-Serif" font-size="10.00">::Actions::WhileActionList::Run</text>
</a>
</g>
</g>
<!-- Node1&#45;&gt;Node11 -->
<g id="edge11_Node000001_Node000011" class="edge">
<title>Node1&#45;&gt;Node11</title>
<g id="a_edge11_Node000001_Node000011"><a xlink:title=" ">
<path fill="none" stroke="#63b8ff" d="M423.44,-175.94C411.23,-140.03 384.84,-76.97 341,-41 336.97,-37.7 332.5,-34.83 327.79,-32.33"/>
<polygon fill="#63b8ff" stroke="#63b8ff" points="420.02,-176.72 426.45,-185.14 426.67,-174.55 420.02,-176.72"/>
</a>
</g>
</g>
<!-- Node4 -->
<g id="Node000004" class="node">
<title>Node4</title>
<g id="a_Node000004"><a xlink:href="class_fiea_1_1_engine_1_1_content_1_1_actions_1_1_action_list.html#ac68f2de1db5c8be125e18abe01b1e2a0" target="_top" xlink:title="Reseting the ActionList. Any custom logic that needs to be executed before it is reinitalized must go...">
<polygon fill="white" stroke="#666666" points="130,-409 18.75,-409 18.75,-365 130,-365 130,-409"/>
<text text-anchor="start" x="26.75" y="-395.5" font-family="Helvetica,sans-Serif" font-size="10.00">Fiea::Engine::Content</text>
<text text-anchor="start" x="26.75" y="-383.5" font-family="Helvetica,sans-Serif" font-size="10.00">::Actions::ActionList</text>
<text text-anchor="middle" x="74.38" y="-371.5" font-family="Helvetica,sans-Serif" font-size="10.00">::OnReset</text>
</a>
</g>
</g>
<!-- Node3&#45;&gt;Node4 -->
<g id="edge3_Node000003_Node000004" class="edge">
<title>Node3&#45;&gt;Node4</title>
<g id="a_edge3_Node000003_Node000004"><a xlink:title=" ">
<path fill="none" stroke="#63b8ff" d="M195.77,-345.04C174.34,-352.51 150.81,-360.71 130.29,-367.86"/>
<polygon fill="#63b8ff" stroke="#63b8ff" points="196.7,-348.42 204.99,-341.82 194.4,-341.81 196.7,-348.42"/>
</a>
</g>
</g>
<!-- Node5 -->
<g id="Node000005" class="node">
<title>Node5</title>
<g id="a_Node000005"><a xlink:href="class_fiea_1_1_engine_1_1_content_1_1_actions_1_1_delayed_action.html#a023224fb53b5ee15767cf4721731c3e8" target="_top" xlink:title="Reseting the ActionList. Any custom logic that needs to be executed before it is reinitalized must go...">
<polygon fill="white" stroke="#666666" points="136.75,-347 12,-347 12,-303 136.75,-303 136.75,-347"/>
<text text-anchor="start" x="20" y="-333.5" font-family="Helvetica,sans-Serif" font-size="10.00">Fiea::Engine::Content</text>
<text text-anchor="start" x="20" y="-321.5" font-family="Helvetica,sans-Serif" font-size="10.00">::Actions::DelayedAction</text>
<text text-anchor="middle" x="74.38" y="-309.5" font-family="Helvetica,sans-Serif" font-size="10.00">::OnReset</text>
</a>
</g>
</g>
<!-- Node3&#45;&gt;Node5 -->
<g id="edge4_Node000003_Node000005" class="edge">
<title>Node3&#45;&gt;Node5</title>
<g id="a_edge4_Node000003_Node000005"><a xlink:title=" ">
<path fill="none" stroke="#63b8ff" d="M194.92,-323.08C176.08,-323.38 155.67,-323.71 137.14,-324.01"/>
<polygon fill="#63b8ff" stroke="#63b8ff" points="194.97,-326.58 204.91,-322.92 194.86,-319.58 194.97,-326.58"/>
</a>
</g>
</g>
<!-- Node3&#45;&gt;Node6 -->
<g id="edge5_Node000003_Node000006" class="edge">
<title>Node3&#45;&gt;Node6</title>
<g id="a_edge5_Node000003_Node000006"><a xlink:title=" ">
<path fill="none" stroke="#63b8ff" d="M195.36,-303.1C175.05,-297.32 152.89,-291.03 133.2,-285.43"/>
<polygon fill="#63b8ff" stroke="#63b8ff" points="194.39,-306.46 204.97,-305.83 196.31,-299.73 194.39,-306.46"/>
</a>
</g>
</g>
</g>
</svg>
