<?xml version="1.0" encoding="UTF-8" standalone="no"?>
<!DOCTYPE svg PUBLIC "-//W3C//DTD SVG 1.1//EN"
 "http://www.w3.org/Graphics/SVG/1.1/DTD/svg11.dtd">
<!-- Generated by graphviz version 12.2.1 (20241206.2353)
 -->
<!-- Title: Fiea::Engine::Memory::MySingleton&lt; T, CreateIfNull &gt; Pages: 1 -->
<svg width="157pt" height="252pt"
 viewBox="0.00 0.00 157.00 252.00" xmlns="http://www.w3.org/2000/svg" xmlns:xlink="http://www.w3.org/1999/xlink">
<g id="graph0" class="graph" transform="scale(1 1) rotate(0) translate(4 248)">
<title>Fiea::Engine::Memory::MySingleton&lt; T, CreateIfNull &gt;</title>
<!-- Node1 -->
<g id="Node000001" class="node">
<title>Node1</title>
<g id="a_Node000001"><a xlink:title=" ">
<polygon fill="#999999" stroke="none" points="149,-96 0,-96 0,0 149,0 149,-96"/>
<text text-anchor="start" x="4" y="-82.5" font-family="Helvetica,sans-Serif" font-size="10.00">Fiea::Engine::Memory</text>
<text text-anchor="start" x="4" y="-70.5" font-family="Helvetica,sans-Serif" font-size="10.00">::MySingleton&lt; T, CreateIfNull &gt;</text>
<text text-anchor="start" x="26.25" y="-54.5" font-family="Helvetica,sans-Serif" font-size="10.00">#</text>
<text text-anchor="start" x="57.75" y="-54.5" font-family="Helvetica,sans-Serif" font-size="10.00">_Instance</text>
<text text-anchor="start" x="25.88" y="-38.5" font-family="Helvetica,sans-Serif" font-size="10.00">+</text>
<text text-anchor="start" x="57.75" y="-38.5" font-family="Helvetica,sans-Serif" font-size="10.00">Create()</text>
<text text-anchor="start" x="25.88" y="-22.5" font-family="Helvetica,sans-Serif" font-size="10.00">+</text>
<text text-anchor="start" x="57.75" y="-22.5" font-family="Helvetica,sans-Serif" font-size="10.00">Destroy()</text>
<text text-anchor="start" x="25.88" y="-6.5" font-family="Helvetica,sans-Serif" font-size="10.00">+</text>
<text text-anchor="start" x="57.75" y="-6.5" font-family="Helvetica,sans-Serif" font-size="10.00">Instance()</text>
<polygon fill="#666666" stroke="#666666" points="0,-66 0,-66 149,-66 149,-66 0,-66"/>
<polygon fill="#666666" stroke="#666666" points="0,-50 0,-50 55.75,-50 55.75,-50 0,-50"/>
<polygon fill="#666666" stroke="#666666" points="55.75,-50 55.75,-50 149,-50 149,-50 55.75,-50"/>
<polygon fill="none" stroke="#666666" points="0,0 0,-96 149,-96 149,0 0,0"/>
</a>
</g>
</g>
<!-- Node2 -->
<g id="Node000002" class="node">
<title>Node2</title>
<g id="a_Node000002"><a xlink:href="struct_fiea_1_1_engine_1_1_singleton.html" target="_top" xlink:title=" ">
<polygon fill="white" stroke="none" points="129.12,-244 19.87,-244 19.87,-132 129.12,-132 129.12,-244"/>
<text text-anchor="start" x="23.88" y="-230.5" font-family="Helvetica,sans-Serif" font-size="10.00">Fiea::Engine::Singleton</text>
<text text-anchor="start" x="34" y="-218.5" font-family="Helvetica,sans-Serif" font-size="10.00">&lt; T, CreateIfNull &gt;</text>
<text text-anchor="start" x="36.19" y="-202.5" font-family="Helvetica,sans-Serif" font-size="10.00">#</text>
<text text-anchor="start" x="57.75" y="-202.5" font-family="Helvetica,sans-Serif" font-size="10.00">_Instance</text>
<text text-anchor="start" x="35.81" y="-186.5" font-family="Helvetica,sans-Serif" font-size="10.00">+</text>
<text text-anchor="start" x="57.75" y="-186.5" font-family="Helvetica,sans-Serif" font-size="10.00">Create()</text>
<text text-anchor="start" x="35.81" y="-170.5" font-family="Helvetica,sans-Serif" font-size="10.00">+</text>
<text text-anchor="start" x="57.75" y="-170.5" font-family="Helvetica,sans-Serif" font-size="10.00">Destroy()</text>
<text text-anchor="start" x="35.81" y="-154.5" font-family="Helvetica,sans-Serif" font-size="10.00">+</text>
<text text-anchor="start" x="57.75" y="-154.5" font-family="Helvetica,sans-Serif" font-size="10.00">Instance()</text>
<text text-anchor="start" x="35.81" y="-138.5" font-family="Helvetica,sans-Serif" font-size="10.00">+</text>
<text text-anchor="start" x="57.75" y="-138.5" font-family="Helvetica,sans-Serif" font-size="10.00">Exists()</text>
<polygon fill="#666666" stroke="#666666" points="19.88,-214 19.88,-214 129.12,-214 129.12,-214 19.88,-214"/>
<polygon fill="#666666" stroke="#666666" points="19.88,-198 19.88,-198 55.75,-198 55.75,-198 19.88,-198"/>
<polygon fill="#666666" stroke="#666666" points="55.75,-198 55.75,-198 129.12,-198 129.12,-198 55.75,-198"/>
<polygon fill="none" stroke="#666666" points="19.88,-132 19.88,-244 129.12,-244 129.12,-132 19.88,-132"/>
</a>
</g>
</g>
<!-- Node2&#45;&gt;Node1 -->
<g id="edge1_Node000001_Node000002" class="edge">
<title>Node2&#45;&gt;Node1</title>
<g id="a_edge1_Node000001_Node000002"><a xlink:title=" ">
<path fill="none" stroke="#8b1a1a" d="M74.5,-120.66C74.5,-112.24 74.5,-103.77 74.5,-95.74"/>
<polygon fill="none" stroke="#8b1a1a" points="71,-120.55 74.5,-130.55 78,-120.55 71,-120.55"/>
</a>
</g>
</g>
</g>
</svg>
