<?xml version="1.0" encoding="UTF-8" standalone="no"?>
<!DOCTYPE svg PUBLIC "-//W3C//DTD SVG 1.1//EN"
 "http://www.w3.org/Graphics/SVG/1.1/DTD/svg11.dtd">
<!-- Generated by graphviz version 12.2.1 (20241206.2353)
 -->
<!-- Title: Fiea::Engine::Content::Actions::PreambleAction::Init Pages: 1 -->
<svg width="454pt" height="240pt"
 viewBox="0.00 0.00 454.25 240.00" xmlns="http://www.w3.org/2000/svg" xmlns:xlink="http://www.w3.org/1999/xlink">
<g id="graph0" class="graph" transform="scale(1 1) rotate(0) translate(4 236)">
<title>Fiea::Engine::Content::Actions::PreambleAction::Init</title>
<!-- Node1 -->
<g id="Node000001" class="node">
<title>Node1</title>
<g id="a_Node000001"><a xlink:title="Searches for the variable that needs to be initialized and sets the value. Returns true because there...">
<polygon fill="#999999" stroke="#666666" points="149.5,-157 0,-157 0,-125 149.5,-125 149.5,-157"/>
<text text-anchor="start" x="8" y="-143.5" font-family="Helvetica,sans-Serif" font-size="10.00">Fiea::Engine::Content</text>
<text text-anchor="middle" x="74.75" y="-131.5" font-family="Helvetica,sans-Serif" font-size="10.00">::Actions::PreambleAction::Init</text>
</a>
</g>
</g>
<!-- Node2 -->
<g id="Node000002" class="node">
<title>Node2</title>
<g id="a_Node000002"><a xlink:href="class_fiea_1_1_engine_1_1_content_1_1_datum.html#a740662b031de78f05b9f9ce7dac13d8f" target="_top" xlink:title="What is the type of the Datum, returns true or false.">
<polygon fill="white" stroke="#666666" points="296.75,-207 185.5,-207 185.5,-175 296.75,-175 296.75,-207"/>
<text text-anchor="start" x="193.5" y="-193.5" font-family="Helvetica,sans-Serif" font-size="10.00">Fiea::Engine::Content</text>
<text text-anchor="middle" x="241.12" y="-181.5" font-family="Helvetica,sans-Serif" font-size="10.00">::Datum::IsType</text>
</a>
</g>
</g>
<!-- Node1&#45;&gt;Node2 -->
<g id="edge1_Node000001_Node000002" class="edge">
<title>Node1&#45;&gt;Node2</title>
<g id="a_edge1_Node000001_Node000002"><a xlink:title=" ">
<path fill="none" stroke="#63b8ff" d="M129.57,-157.37C144.11,-161.8 160.01,-166.63 175.09,-171.22"/>
<polygon fill="#63b8ff" stroke="#63b8ff" points="173.87,-174.5 184.45,-174.07 175.9,-167.81 173.87,-174.5"/>
</a>
</g>
</g>
<!-- Node3 -->
<g id="Node000003" class="node">
<title>Node3</title>
<g id="a_Node000003"><a xlink:href="class_fiea_1_1_engine_1_1_content_1_1_datum.html#a4ccb082ce85390925305f19a24daaed8" target="_top" xlink:title="This function is for pushing an element at the back of the data union array. It is using a universal ...">
<polygon fill="white" stroke="#666666" points="296.75,-157 185.5,-157 185.5,-125 296.75,-125 296.75,-157"/>
<text text-anchor="start" x="193.5" y="-143.5" font-family="Helvetica,sans-Serif" font-size="10.00">Fiea::Engine::Content</text>
<text text-anchor="middle" x="241.12" y="-131.5" font-family="Helvetica,sans-Serif" font-size="10.00">::Datum::Push</text>
</a>
</g>
</g>
<!-- Node1&#45;&gt;Node3 -->
<g id="edge2_Node000001_Node000003" class="edge">
<title>Node1&#45;&gt;Node3</title>
<g id="a_edge2_Node000001_Node000003"><a xlink:title=" ">
<path fill="none" stroke="#63b8ff" d="M149.76,-141C157.78,-141 165.9,-141 173.81,-141"/>
<polygon fill="#63b8ff" stroke="#63b8ff" points="173.72,-144.5 183.72,-141 173.72,-137.5 173.72,-144.5"/>
</a>
</g>
</g>
<!-- Node7 -->
<g id="Node000007" class="node">
<title>Node7</title>
<g id="a_Node000007"><a xlink:href="class_fiea_1_1_engine_1_1_content_1_1_scope.html#a780212af791d1a9fd9b244877d8ce3d8" target="_top" xlink:title="Finds the key in all of its parentage. Output Scope will hold the pointer to the parent that actually...">
<polygon fill="white" stroke="#666666" points="296.75,-82 185.5,-82 185.5,-50 296.75,-50 296.75,-82"/>
<text text-anchor="start" x="193.5" y="-68.5" font-family="Helvetica,sans-Serif" font-size="10.00">Fiea::Engine::Content</text>
<text text-anchor="middle" x="241.12" y="-56.5" font-family="Helvetica,sans-Serif" font-size="10.00">::Scope::Search</text>
</a>
</g>
</g>
<!-- Node1&#45;&gt;Node7 -->
<g id="edge6_Node000001_Node000007" class="edge">
<title>Node1&#45;&gt;Node7</title>
<g id="a_edge6_Node000001_Node000007"><a xlink:title=" ">
<path fill="none" stroke="#63b8ff" d="M111.82,-124.54C135.91,-113.55 167.81,-98.99 193.78,-87.15"/>
<polygon fill="#63b8ff" stroke="#63b8ff" points="195.11,-90.38 202.76,-83.05 192.21,-84.02 195.11,-90.38"/>
</a>
</g>
</g>
<!-- Node4 -->
<g id="Node000004" class="node">
<title>Node4</title>
<g id="a_Node000004"><a xlink:href="class_fiea_1_1_engine_1_1_content_1_1_datum.html#ac2c889535360fcb22e94133869c4ae29" target="_top" xlink:title=" ">
<polygon fill="white" stroke="#666666" points="445.12,-232 333.88,-232 333.88,-200 445.12,-200 445.12,-232"/>
<text text-anchor="start" x="341.88" y="-218.5" font-family="Helvetica,sans-Serif" font-size="10.00">Fiea::Engine::Content</text>
<text text-anchor="middle" x="389.5" y="-206.5" font-family="Helvetica,sans-Serif" font-size="10.00">::Datum::GetMaxSize</text>
</a>
</g>
</g>
<!-- Node3&#45;&gt;Node4 -->
<g id="edge3_Node000003_Node000004" class="edge">
<title>Node3&#45;&gt;Node4</title>
<g id="a_edge3_Node000003_Node000004"><a xlink:title=" ">
<path fill="none" stroke="#63b8ff" d="M280.47,-157.5C286.01,-160.18 291.59,-163.06 296.75,-166 313.67,-175.65 315.79,-181.42 332.75,-191 334.81,-192.16 336.93,-193.31 339.08,-194.44"/>
<polygon fill="#63b8ff" stroke="#63b8ff" points="337.49,-197.55 348,-198.88 340.61,-191.29 337.49,-197.55"/>
</a>
</g>
</g>
<!-- Node5 -->
<g id="Node000005" class="node">
<title>Node5</title>
<g id="a_Node000005"><a xlink:href="class_fiea_1_1_engine_1_1_content_1_1_datum.html#aede9c541fd5184f33e84640a787d421d" target="_top" xlink:title=" ">
<polygon fill="white" stroke="#666666" points="446.25,-182 332.75,-182 332.75,-150 446.25,-150 446.25,-182"/>
<text text-anchor="start" x="340.75" y="-168.5" font-family="Helvetica,sans-Serif" font-size="10.00">Fiea::Engine::Content</text>
<text text-anchor="middle" x="389.5" y="-156.5" font-family="Helvetica,sans-Serif" font-size="10.00">::Datum::HasMaxSize</text>
</a>
</g>
</g>
<!-- Node3&#45;&gt;Node5 -->
<g id="edge4_Node000003_Node000005" class="edge">
<title>Node3&#45;&gt;Node5</title>
<g id="a_edge4_Node000003_Node000005"><a xlink:title=" ">
<path fill="none" stroke="#63b8ff" d="M297.05,-150.38C304.88,-151.72 313,-153.11 321.04,-154.48"/>
<polygon fill="#63b8ff" stroke="#63b8ff" points="320.36,-157.91 330.8,-156.15 321.54,-151.01 320.36,-157.91"/>
</a>
</g>
</g>
<!-- Node6 -->
<g id="Node000006" class="node">
<title>Node6</title>
<g id="a_Node000006"><a xlink:href="class_fiea_1_1_engine_1_1_content_1_1_datum.html#acae68c3bc8b20345e4c3790fa37bd8d5" target="_top" xlink:title=" ">
<polygon fill="white" stroke="#666666" points="445.12,-132 333.88,-132 333.88,-100 445.12,-100 445.12,-132"/>
<text text-anchor="start" x="341.88" y="-118.5" font-family="Helvetica,sans-Serif" font-size="10.00">Fiea::Engine::Content</text>
<text text-anchor="middle" x="389.5" y="-106.5" font-family="Helvetica,sans-Serif" font-size="10.00">::Datum::Size</text>
</a>
</g>
</g>
<!-- Node3&#45;&gt;Node6 -->
<g id="edge5_Node000003_Node000006" class="edge">
<title>Node3&#45;&gt;Node6</title>
<g id="a_edge5_Node000003_Node000006"><a xlink:title=" ">
<path fill="none" stroke="#63b8ff" d="M297.05,-131.62C305.39,-130.19 314.08,-128.71 322.63,-127.25"/>
<polygon fill="#63b8ff" stroke="#63b8ff" points="323,-130.74 332.27,-125.6 321.82,-123.84 323,-130.74"/>
</a>
</g>
</g>
<!-- Node8 -->
<g id="Node000008" class="node">
<title>Node8</title>
<g id="a_Node000008"><a xlink:href="class_fiea_1_1_engine_1_1_content_1_1_scope.html#ad924c01785b239991fc0e56a63295612" target="_top" xlink:title="Return the Datum at the requested key, or nullptr if not found.">
<polygon fill="white" stroke="#666666" points="445.12,-82 333.88,-82 333.88,-50 445.12,-50 445.12,-82"/>
<text text-anchor="start" x="341.88" y="-68.5" font-family="Helvetica,sans-Serif" font-size="10.00">Fiea::Engine::Content</text>
<text text-anchor="middle" x="389.5" y="-56.5" font-family="Helvetica,sans-Serif" font-size="10.00">::Scope::Find</text>
</a>
</g>
</g>
<!-- Node7&#45;&gt;Node8 -->
<g id="edge7_Node000007_Node000008" class="edge">
<title>Node7&#45;&gt;Node8</title>
<g id="a_edge7_Node000007_Node000008"><a xlink:title=" ">
<path fill="none" stroke="#63b8ff" d="M297.05,-66C305.3,-66 313.89,-66 322.34,-66"/>
<polygon fill="#63b8ff" stroke="#63b8ff" points="322.24,-69.5 332.24,-66 322.24,-62.5 322.24,-69.5"/>
</a>
</g>
</g>
<!-- Node9 -->
<g id="Node000009" class="node">
<title>Node9</title>
<g id="a_Node000009"><a xlink:href="class_fiea_1_1_engine_1_1_content_1_1_scope.html#ac4627f740867a929957ce0647f436e02" target="_top" xlink:title="Getter for Parent.">
<polygon fill="white" stroke="#666666" points="445.12,-32 333.88,-32 333.88,0 445.12,0 445.12,-32"/>
<text text-anchor="start" x="341.88" y="-18.5" font-family="Helvetica,sans-Serif" font-size="10.00">Fiea::Engine::Content</text>
<text text-anchor="middle" x="389.5" y="-6.5" font-family="Helvetica,sans-Serif" font-size="10.00">::Scope::GetParent</text>
</a>
</g>
</g>
<!-- Node7&#45;&gt;Node9 -->
<g id="edge8_Node000007_Node000009" class="edge">
<title>Node7&#45;&gt;Node9</title>
<g id="a_edge8_Node000007_Node000009"><a xlink:title=" ">
<path fill="none" stroke="#63b8ff" d="M290.05,-49.63C302.69,-45.31 316.47,-40.6 329.61,-36.11"/>
<polygon fill="#63b8ff" stroke="#63b8ff" points="330.7,-39.44 339.03,-32.9 328.44,-32.82 330.7,-39.44"/>
</a>
</g>
</g>
</g>
</svg>
