<?xml version="1.0" encoding="UTF-8" standalone="no"?>
<!DOCTYPE svg PUBLIC "-//W3C//DTD SVG 1.1//EN"
 "http://www.w3.org/Graphics/SVG/1.1/DTD/svg11.dtd">
<!-- Generated by graphviz version 12.2.1 (20241206.2353)
 -->
<!-- Title: Fiea::Engine::Content::ScopeParseHandler::EnterKey Pages: 1 -->
<svg width="936pt" height="345pt"
 viewBox="0.00 0.00 935.75 345.00" xmlns="http://www.w3.org/2000/svg" xmlns:xlink="http://www.w3.org/1999/xlink">
<g id="graph0" class="graph" transform="scale(1 1) rotate(0) translate(4 341)">
<title>Fiea::Engine::Content::ScopeParseHandler::EnterKey</title>
<!-- Node1 -->
<g id="Node000001" class="node">
<title>Node1</title>
<g id="a_Node000001"><a xlink:title=" ">
<polygon fill="#999999" stroke="#666666" points="115,-235 0,-235 0,-191 115,-191 115,-235"/>
<text text-anchor="start" x="8" y="-221.5" font-family="Helvetica,sans-Serif" font-size="10.00">Fiea::Engine::Content</text>
<text text-anchor="start" x="8" y="-209.5" font-family="Helvetica,sans-Serif" font-size="10.00">::ScopeParseHandler::</text>
<text text-anchor="middle" x="57.5" y="-197.5" font-family="Helvetica,sans-Serif" font-size="10.00">EnterKey</text>
</a>
</g>
</g>
<!-- Node2 -->
<g id="Node000002" class="node">
<title>Node2</title>
<g id="a_Node000002"><a xlink:href="class_fiea_1_1_engine_1_1_r_t_t_i.html#a15bd5993c8ad04da47af440298ebbb30" target="_top" xlink:title=" ">
<polygon fill="white" stroke="#666666" points="283.62,-271 167.12,-271 167.12,-251 283.62,-251 283.62,-271"/>
<text text-anchor="middle" x="225.38" y="-257.5" font-family="Helvetica,sans-Serif" font-size="10.00">Fiea::Engine::RTTI::As</text>
</a>
</g>
</g>
<!-- Node1&#45;&gt;Node2 -->
<g id="edge1_Node000001_Node000002" class="edge">
<title>Node1&#45;&gt;Node2</title>
<g id="a_edge1_Node000001_Node000002"><a xlink:title=" ">
<path fill="none" stroke="#63b8ff" d="M115.12,-229.38C135.36,-235.24 157.94,-241.77 177.29,-247.37"/>
<polygon fill="#63b8ff" stroke="#63b8ff" points="176.23,-250.71 186.81,-250.13 178.18,-243.99 176.23,-250.71"/>
</a>
</g>
</g>
<!-- Node4 -->
<g id="Node000004" class="node">
<title>Node4</title>
<g id="a_Node000004"><a xlink:href="class_fiea_1_1_engine_1_1_content_1_1_parse_writer.html#a28c3d94c387754c03bd32e1effae4754" target="_top" xlink:title=" ">
<polygon fill="white" stroke="#666666" points="299.75,-229 151,-229 151,-197 299.75,-197 299.75,-229"/>
<text text-anchor="start" x="159" y="-215.5" font-family="Helvetica,sans-Serif" font-size="10.00">Fiea::Engine::Content</text>
<text text-anchor="middle" x="225.38" y="-203.5" font-family="Helvetica,sans-Serif" font-size="10.00">::ParseWriter::IncrementDepth</text>
</a>
</g>
</g>
<!-- Node1&#45;&gt;Node4 -->
<g id="edge3_Node000001_Node000004" class="edge">
<title>Node1&#45;&gt;Node4</title>
<g id="a_edge3_Node000001_Node000004"><a xlink:title=" ">
<path fill="none" stroke="#63b8ff" d="M115.12,-213C122.99,-213 131.22,-213 139.47,-213"/>
<polygon fill="#63b8ff" stroke="#63b8ff" points="139.19,-216.5 149.19,-213 139.19,-209.5 139.19,-216.5"/>
</a>
</g>
</g>
<!-- Node5 -->
<g id="Node000005" class="node">
<title>Node5</title>
<g id="a_Node000005"><a xlink:href="class_fiea_1_1_engine_1_1_content_1_1_scope_writer.html#adb1089ed0ff92fae8826810cef43e447" target="_top" xlink:title=" ">
<polygon fill="white" stroke="#666666" points="291.12,-171 159.62,-171 159.62,-139 291.12,-139 291.12,-171"/>
<text text-anchor="start" x="167.62" y="-157.5" font-family="Helvetica,sans-Serif" font-size="10.00">Fiea::Engine::Content</text>
<text text-anchor="middle" x="225.38" y="-145.5" font-family="Helvetica,sans-Serif" font-size="10.00">::ScopeWriter::PushScope</text>
</a>
</g>
</g>
<!-- Node1&#45;&gt;Node5 -->
<g id="edge4_Node000001_Node000005" class="edge">
<title>Node1&#45;&gt;Node5</title>
<g id="a_edge4_Node000001_Node000005"><a xlink:title=" ">
<path fill="none" stroke="#63b8ff" d="M115.12,-193.2C131.75,-187.39 149.95,-181.02 166.65,-175.18"/>
<polygon fill="#63b8ff" stroke="#63b8ff" points="167.66,-178.54 175.95,-171.93 165.35,-171.93 167.66,-178.54"/>
</a>
</g>
</g>
<!-- Node3 -->
<g id="Node000003" class="node">
<title>Node3</title>
<g id="a_Node000003"><a xlink:href="class_fiea_1_1_engine_1_1_r_t_t_i.html#ac0a7d875e4513b2aca7594abcd4418ef" target="_top" xlink:title=" ">
<polygon fill="white" stroke="#666666" points="448.5,-275 335.75,-275 335.75,-255 448.5,-255 448.5,-275"/>
<text text-anchor="middle" x="392.12" y="-261.5" font-family="Helvetica,sans-Serif" font-size="10.00">Fiea::Engine::RTTI::Is</text>
</a>
</g>
</g>
<!-- Node2&#45;&gt;Node3 -->
<g id="edge2_Node000002_Node000003" class="edge">
<title>Node2&#45;&gt;Node3</title>
<g id="a_edge2_Node000002_Node000003"><a xlink:title=" ">
<path fill="none" stroke="#63b8ff" d="M284,-262.4C296.91,-262.71 310.73,-263.05 324,-263.37"/>
<polygon fill="#63b8ff" stroke="#63b8ff" points="323.88,-266.87 333.96,-263.61 324.05,-259.87 323.88,-266.87"/>
</a>
</g>
</g>
<!-- Node6 -->
<g id="Node000006" class="node">
<title>Node6</title>
<g id="a_Node000006"><a xlink:href="class_fiea_1_1_engine_1_1_content_1_1_scope.html#abf39accc1ce38b12bcbc6884ba0165e3" target="_top" xlink:title="You can provide a child scope that you wish this scope to adopt. You should not adopt a scope if it a...">
<polygon fill="white" stroke="#666666" points="447.75,-199 336.5,-199 336.5,-167 447.75,-167 447.75,-199"/>
<text text-anchor="start" x="344.5" y="-185.5" font-family="Helvetica,sans-Serif" font-size="10.00">Fiea::Engine::Content</text>
<text text-anchor="middle" x="392.12" y="-173.5" font-family="Helvetica,sans-Serif" font-size="10.00">::Scope::Adopt</text>
</a>
</g>
</g>
<!-- Node5&#45;&gt;Node6 -->
<g id="edge5_Node000005_Node000006" class="edge">
<title>Node5&#45;&gt;Node6</title>
<g id="a_edge5_Node000005_Node000006"><a xlink:title=" ">
<path fill="none" stroke="#63b8ff" d="M291.49,-166.07C302.44,-167.93 313.81,-169.86 324.79,-171.73"/>
<polygon fill="#63b8ff" stroke="#63b8ff" points="324.11,-175.16 334.56,-173.39 325.29,-168.26 324.11,-175.16"/>
</a>
</g>
</g>
<!-- Node7 -->
<g id="Node000007" class="node">
<title>Node7</title>
<g id="a_Node000007"><a xlink:href="class_fiea_1_1_engine_1_1_content_1_1_scope.html#aa91d6470fd3d3f402bbb2e765be54455" target="_top" xlink:title="Return a reference to the Datum at this key. create a new Datum, if one is not found.">
<polygon fill="white" stroke="#666666" points="595.75,-337 484.5,-337 484.5,-305 595.75,-305 595.75,-337"/>
<text text-anchor="start" x="492.5" y="-323.5" font-family="Helvetica,sans-Serif" font-size="10.00">Fiea::Engine::Content</text>
<text text-anchor="middle" x="540.12" y="-311.5" font-family="Helvetica,sans-Serif" font-size="10.00">::Scope::Append</text>
</a>
</g>
</g>
<!-- Node5&#45;&gt;Node7 -->
<g id="edge19_Node000005_Node000007" class="edge">
<title>Node5&#45;&gt;Node7</title>
<g id="a_edge19_Node000005_Node000007"><a xlink:title=" ">
<path fill="none" stroke="#63b8ff" d="M264.37,-171.35C275.83,-176.48 288.39,-182.3 299.75,-188 316.11,-196.21 319.01,-200.6 335.75,-208 384.12,-229.37 405.17,-215.68 448.5,-246 469.48,-260.68 464.9,-274.52 484.5,-291 487.67,-293.66 491.11,-296.2 494.67,-298.59"/>
<polygon fill="#63b8ff" stroke="#63b8ff" points="492.65,-301.45 502.99,-303.76 496.34,-295.51 492.65,-301.45"/>
</a>
</g>
</g>
<!-- Node11 -->
<g id="Node000011" class="node">
<title>Node11</title>
<g id="a_Node000011"><a xlink:href="class_fiea_1_1_engine_1_1_content_1_1_datum.html#ac2c889535360fcb22e94133869c4ae29" target="_top" xlink:title=" ">
<polygon fill="white" stroke="#666666" points="744.12,-147 632.88,-147 632.88,-115 744.12,-115 744.12,-147"/>
<text text-anchor="start" x="640.88" y="-133.5" font-family="Helvetica,sans-Serif" font-size="10.00">Fiea::Engine::Content</text>
<text text-anchor="middle" x="688.5" y="-121.5" font-family="Helvetica,sans-Serif" font-size="10.00">::Datum::GetMaxSize</text>
</a>
</g>
</g>
<!-- Node5&#45;&gt;Node11 -->
<g id="edge20_Node000005_Node000011" class="edge">
<title>Node5&#45;&gt;Node11</title>
<g id="a_edge20_Node000005_Node000011"><a xlink:title=" ">
<path fill="none" stroke="#63b8ff" d="M291.46,-151.61C378.78,-147.07 533.02,-139.04 621.03,-134.46"/>
<polygon fill="#63b8ff" stroke="#63b8ff" points="621.16,-137.96 630.96,-133.94 620.79,-130.97 621.16,-137.96"/>
</a>
</g>
</g>
<!-- Node12 -->
<g id="Node000012" class="node">
<title>Node12</title>
<g id="a_Node000012"><a xlink:href="class_fiea_1_1_engine_1_1_content_1_1_datum.html#aede9c541fd5184f33e84640a787d421d" target="_top" xlink:title=" ">
<polygon fill="white" stroke="#666666" points="745.25,-92 631.75,-92 631.75,-60 745.25,-60 745.25,-92"/>
<text text-anchor="start" x="639.75" y="-78.5" font-family="Helvetica,sans-Serif" font-size="10.00">Fiea::Engine::Content</text>
<text text-anchor="middle" x="688.5" y="-66.5" font-family="Helvetica,sans-Serif" font-size="10.00">::Datum::HasMaxSize</text>
</a>
</g>
</g>
<!-- Node5&#45;&gt;Node12 -->
<g id="edge21_Node000005_Node000012" class="edge">
<title>Node5&#45;&gt;Node12</title>
<g id="a_edge21_Node000005_Node000012"><a xlink:title=" ">
<path fill="none" stroke="#63b8ff" d="M263.49,-138.61C312.81,-117.8 403.21,-83.04 484.5,-70 533.32,-62.17 546.33,-68.39 595.75,-70 603.76,-70.26 612.15,-70.65 620.47,-71.11"/>
<polygon fill="#63b8ff" stroke="#63b8ff" points="620.03,-74.59 630.22,-71.68 620.44,-67.6 620.03,-74.59"/>
</a>
</g>
</g>
<!-- Node13 -->
<g id="Node000013" class="node">
<title>Node13</title>
<g id="a_Node000013"><a xlink:href="class_fiea_1_1_engine_1_1_content_1_1_datum.html#acae68c3bc8b20345e4c3790fa37bd8d5" target="_top" xlink:title=" ">
<polygon fill="white" stroke="#666666" points="744.12,-32 632.88,-32 632.88,0 744.12,0 744.12,-32"/>
<text text-anchor="start" x="640.88" y="-18.5" font-family="Helvetica,sans-Serif" font-size="10.00">Fiea::Engine::Content</text>
<text text-anchor="middle" x="688.5" y="-6.5" font-family="Helvetica,sans-Serif" font-size="10.00">::Datum::Size</text>
</a>
</g>
</g>
<!-- Node5&#45;&gt;Node13 -->
<g id="edge22_Node000005_Node000013" class="edge">
<title>Node5&#45;&gt;Node13</title>
<g id="a_edge22_Node000005_Node000013"><a xlink:title=" ">
<path fill="none" stroke="#63b8ff" d="M242.54,-138.8C262.57,-119.77 298.62,-88.78 335.75,-73 429.65,-33.08 548.55,-20.94 621.27,-17.35"/>
<polygon fill="#63b8ff" stroke="#63b8ff" points="621.19,-20.86 631.02,-16.92 620.88,-13.87 621.19,-20.86"/>
</a>
</g>
</g>
<!-- Node6&#45;&gt;Node7 -->
<g id="edge6_Node000006_Node000007" class="edge">
<title>Node6&#45;&gt;Node7</title>
<g id="a_edge6_Node000006_Node000007"><a xlink:title=" ">
<path fill="none" stroke="#63b8ff" d="M431.2,-199.35C437.49,-203.19 443.56,-207.74 448.5,-213 474.62,-240.85 458.46,-263.08 484.5,-291 486.86,-293.53 489.48,-295.9 492.26,-298.1"/>
<polygon fill="#63b8ff" stroke="#63b8ff" points="490.12,-300.87 500.33,-303.72 494.12,-295.13 490.12,-300.87"/>
</a>
</g>
</g>
<!-- Node8 -->
<g id="Node000008" class="node">
<title>Node8</title>
<g id="a_Node000008"><a xlink:href="class_fiea_1_1_engine_1_1_content_1_1_scope.html#a8f7dfeddfe92368a8d160ed2b805640f" target="_top" xlink:title="Tell if this scope is present somewhere lower down in the scopes tree as a child.">
<polygon fill="white" stroke="#666666" points="918,-282 791,-282 791,-250 918,-250 918,-282"/>
<text text-anchor="start" x="799" y="-268.5" font-family="Helvetica,sans-Serif" font-size="10.00">Fiea::Engine::Content</text>
<text text-anchor="middle" x="854.5" y="-256.5" font-family="Helvetica,sans-Serif" font-size="10.00">::Scope::IsDescendentOf</text>
</a>
</g>
</g>
<!-- Node6&#45;&gt;Node8 -->
<g id="edge7_Node000006_Node000008" class="edge">
<title>Node6&#45;&gt;Node8</title>
<g id="a_edge7_Node000006_Node000008"><a xlink:title=" ">
<path fill="none" stroke="#63b8ff" d="M441.84,-199.36C444.17,-200.79 446.41,-202.33 448.5,-204 471.06,-221.97 459.22,-244.11 484.5,-258 576.17,-308.35 700.95,-297.75 779.35,-283.45"/>
<polygon fill="#63b8ff" stroke="#63b8ff" points="779.92,-286.9 789.09,-281.6 778.61,-280.03 779.92,-286.9"/>
</a>
</g>
</g>
<!-- Node9 -->
<g id="Node000009" class="node">
<title>Node9</title>
<g id="a_Node000009"><a xlink:href="class_fiea_1_1_engine_1_1_content_1_1_datum.html#a740662b031de78f05b9f9ce7dac13d8f" target="_top" xlink:title="What is the type of the Datum, returns true or false.">
<polygon fill="white" stroke="#666666" points="595.75,-199 484.5,-199 484.5,-167 595.75,-167 595.75,-199"/>
<text text-anchor="start" x="492.5" y="-185.5" font-family="Helvetica,sans-Serif" font-size="10.00">Fiea::Engine::Content</text>
<text text-anchor="middle" x="540.12" y="-173.5" font-family="Helvetica,sans-Serif" font-size="10.00">::Datum::IsType</text>
</a>
</g>
</g>
<!-- Node6&#45;&gt;Node9 -->
<g id="edge8_Node000006_Node000009" class="edge">
<title>Node6&#45;&gt;Node9</title>
<g id="a_edge8_Node000006_Node000009"><a xlink:title=" ">
<path fill="none" stroke="#63b8ff" d="M447.91,-183C456.03,-183 464.47,-183 472.8,-183"/>
<polygon fill="#63b8ff" stroke="#63b8ff" points="472.52,-186.5 482.52,-183 472.52,-179.5 472.52,-186.5"/>
</a>
</g>
</g>
<!-- Node10 -->
<g id="Node000010" class="node">
<title>Node10</title>
<g id="a_Node000010"><a xlink:href="class_fiea_1_1_engine_1_1_content_1_1_datum.html#a4ccb082ce85390925305f19a24daaed8" target="_top" xlink:title="This function is for pushing an element at the back of the data union array. It is using a universal ...">
<polygon fill="white" stroke="#666666" points="595.75,-111 484.5,-111 484.5,-79 595.75,-79 595.75,-111"/>
<text text-anchor="start" x="492.5" y="-97.5" font-family="Helvetica,sans-Serif" font-size="10.00">Fiea::Engine::Content</text>
<text text-anchor="middle" x="540.12" y="-85.5" font-family="Helvetica,sans-Serif" font-size="10.00">::Datum::Push</text>
</a>
</g>
</g>
<!-- Node6&#45;&gt;Node10 -->
<g id="edge9_Node000006_Node000010" class="edge">
<title>Node6&#45;&gt;Node10</title>
<g id="a_edge9_Node000006_Node000010"><a xlink:title=" ">
<path fill="none" stroke="#63b8ff" d="M420.24,-166.65C443.4,-152.7 476.9,-132.51 502.44,-117.11"/>
<polygon fill="#63b8ff" stroke="#63b8ff" points="504.1,-120.2 510.85,-112.04 500.48,-114.2 504.1,-120.2"/>
</a>
</g>
</g>
<!-- Node14 -->
<g id="Node000014" class="node">
<title>Node14</title>
<g id="a_Node000014"><a xlink:href="class_fiea_1_1_engine_1_1_content_1_1_scope.html#af6a94922a8fa123c3b22b7b4485963de" target="_top" xlink:title="Setter for Parent.">
<polygon fill="white" stroke="#666666" points="595.75,-249 484.5,-249 484.5,-217 595.75,-217 595.75,-249"/>
<text text-anchor="start" x="492.5" y="-235.5" font-family="Helvetica,sans-Serif" font-size="10.00">Fiea::Engine::Content</text>
<text text-anchor="middle" x="540.12" y="-223.5" font-family="Helvetica,sans-Serif" font-size="10.00">::Scope::SetParent</text>
</a>
</g>
</g>
<!-- Node6&#45;&gt;Node14 -->
<g id="edge13_Node000006_Node000014" class="edge">
<title>Node6&#45;&gt;Node14</title>
<g id="a_edge13_Node000006_Node000014"><a xlink:title=" ">
<path fill="none" stroke="#63b8ff" d="M440.93,-199.37C453.54,-203.69 467.28,-208.4 480.39,-212.89"/>
<polygon fill="#63b8ff" stroke="#63b8ff" points="479.19,-216.17 489.78,-216.1 481.45,-209.55 479.19,-216.17"/>
</a>
</g>
</g>
<!-- Node10&#45;&gt;Node11 -->
<g id="edge10_Node000010_Node000011" class="edge">
<title>Node10&#45;&gt;Node11</title>
<g id="a_edge10_Node000010_Node000011"><a xlink:title=" ">
<path fill="none" stroke="#63b8ff" d="M596.05,-108.51C604.39,-110.56 613.08,-112.7 621.63,-114.8"/>
<polygon fill="#63b8ff" stroke="#63b8ff" points="620.74,-118.19 631.29,-117.18 622.41,-111.39 620.74,-118.19"/>
</a>
</g>
</g>
<!-- Node10&#45;&gt;Node12 -->
<g id="edge11_Node000010_Node000012" class="edge">
<title>Node10&#45;&gt;Node12</title>
<g id="a_edge11_Node000010_Node000012"><a xlink:title=" ">
<path fill="none" stroke="#63b8ff" d="M596.05,-87.87C603.88,-86.85 612,-85.8 620.04,-84.76"/>
<polygon fill="#63b8ff" stroke="#63b8ff" points="620.33,-88.25 629.79,-83.49 619.43,-81.31 620.33,-88.25"/>
</a>
</g>
</g>
<!-- Node10&#45;&gt;Node13 -->
<g id="edge12_Node000010_Node000013" class="edge">
<title>Node10&#45;&gt;Node13</title>
<g id="a_edge12_Node000010_Node000013"><a xlink:title=" ">
<path fill="none" stroke="#63b8ff" d="M571.45,-78.63C593.36,-66.81 623.18,-50.71 647.11,-37.8"/>
<polygon fill="#63b8ff" stroke="#63b8ff" points="648.49,-41.03 655.63,-33.2 645.16,-34.87 648.49,-41.03"/>
</a>
</g>
</g>
<!-- Node15 -->
<g id="Node000015" class="node">
<title>Node15</title>
<g id="a_Node000015"><a xlink:href="class_fiea_1_1_engine_1_1_content_1_1_scope.html#a853041a85e32e8b7de723fa3dd9a1d82" target="_top" xlink:title="Tells if this scope is present somewhere higher up in the scopes tree as a parent.">
<polygon fill="white" stroke="#666666" points="745.25,-249 631.75,-249 631.75,-217 745.25,-217 745.25,-249"/>
<text text-anchor="start" x="639.75" y="-235.5" font-family="Helvetica,sans-Serif" font-size="10.00">Fiea::Engine::Content</text>
<text text-anchor="middle" x="688.5" y="-223.5" font-family="Helvetica,sans-Serif" font-size="10.00">::Scope::IsAncestorOf</text>
</a>
</g>
</g>
<!-- Node14&#45;&gt;Node15 -->
<g id="edge14_Node000014_Node000015" class="edge">
<title>Node14&#45;&gt;Node15</title>
<g id="a_edge14_Node000014_Node000015"><a xlink:title=" ">
<path fill="none" stroke="#63b8ff" d="M596.05,-233C603.88,-233 612,-233 620.04,-233"/>
<polygon fill="#63b8ff" stroke="#63b8ff" points="619.78,-236.5 629.78,-233 619.78,-229.5 619.78,-236.5"/>
</a>
</g>
</g>
<!-- Node16 -->
<g id="Node000016" class="node">
<title>Node16</title>
<g id="a_Node000016"><a xlink:href="class_fiea_1_1_engine_1_1_content_1_1_scope.html#a769b8bf0382518e075fb90f62940624c" target="_top" xlink:title="Orpahans this scope from its parent.">
<polygon fill="white" stroke="#666666" points="744.12,-199 632.88,-199 632.88,-167 744.12,-167 744.12,-199"/>
<text text-anchor="start" x="640.88" y="-185.5" font-family="Helvetica,sans-Serif" font-size="10.00">Fiea::Engine::Content</text>
<text text-anchor="middle" x="688.5" y="-173.5" font-family="Helvetica,sans-Serif" font-size="10.00">::Scope::Orphan</text>
</a>
</g>
</g>
<!-- Node14&#45;&gt;Node16 -->
<g id="edge16_Node000014_Node000016" class="edge">
<title>Node14&#45;&gt;Node16</title>
<g id="a_edge16_Node000014_Node000016"><a xlink:title=" ">
<path fill="none" stroke="#63b8ff" d="M589.05,-216.63C601.69,-212.31 615.47,-207.6 628.61,-203.11"/>
<polygon fill="#63b8ff" stroke="#63b8ff" points="629.7,-206.44 638.03,-199.9 627.44,-199.82 629.7,-206.44"/>
</a>
</g>
</g>
<!-- Node15&#45;&gt;Node8 -->
<g id="edge15_Node000015_Node000008" class="edge">
<title>Node15&#45;&gt;Node8</title>
<g id="a_edge15_Node000015_Node000008"><a xlink:title=" ">
<path fill="none" stroke="#63b8ff" d="M745.48,-244.26C756.52,-246.49 768.26,-248.85 779.78,-251.17"/>
<polygon fill="#63b8ff" stroke="#63b8ff" points="778.76,-254.53 789.25,-253.07 780.14,-247.67 778.76,-254.53"/>
</a>
</g>
</g>
<!-- Node17 -->
<g id="Node000017" class="node">
<title>Node17</title>
<g id="a_Node000017"><a xlink:href="class_fiea_1_1_engine_1_1_content_1_1_scope.html#abe37db932a06fabb2cb02ec65b6f55d8" target="_top" xlink:title="Search for a nested Scope which is the SAME(not just equal) as the provided scope and return the Datu...">
<polygon fill="white" stroke="#666666" points="927.75,-221 781.25,-221 781.25,-189 927.75,-189 927.75,-221"/>
<text text-anchor="start" x="789.25" y="-207.5" font-family="Helvetica,sans-Serif" font-size="10.00">Fiea::Engine::Content</text>
<text text-anchor="middle" x="854.5" y="-195.5" font-family="Helvetica,sans-Serif" font-size="10.00">::Scope::FindContainedScope</text>
</a>
</g>
</g>
<!-- Node16&#45;&gt;Node17 -->
<g id="edge17_Node000016_Node000017" class="edge">
<title>Node16&#45;&gt;Node17</title>
<g id="a_edge17_Node000016_Node000017"><a xlink:title=" ">
<path fill="none" stroke="#63b8ff" d="M744.57,-190.39C752.65,-191.47 761.13,-192.61 769.64,-193.75"/>
<polygon fill="#63b8ff" stroke="#63b8ff" points="768.93,-197.19 779.31,-195.05 769.86,-190.25 768.93,-197.19"/>
</a>
</g>
</g>
<!-- Node18 -->
<g id="Node000018" class="node">
<title>Node18</title>
<g id="a_Node000018"><a xlink:href="class_fiea_1_1_engine_1_1_content_1_1_datum.html#a23395b19af06abda786d991645b41e6d" target="_top" xlink:title=" ">
<polygon fill="white" stroke="#666666" points="910.12,-171 798.88,-171 798.88,-139 910.12,-139 910.12,-171"/>
<text text-anchor="start" x="806.88" y="-157.5" font-family="Helvetica,sans-Serif" font-size="10.00">Fiea::Engine::Content</text>
<text text-anchor="middle" x="854.5" y="-145.5" font-family="Helvetica,sans-Serif" font-size="10.00">::Datum::RemoveAt</text>
</a>
</g>
</g>
<!-- Node16&#45;&gt;Node18 -->
<g id="edge18_Node000016_Node000018" class="edge">
<title>Node16&#45;&gt;Node18</title>
<g id="a_edge18_Node000016_Node000018"><a xlink:title=" ">
<path fill="none" stroke="#63b8ff" d="M744.57,-173.6C758.3,-171.25 773.16,-168.72 787.36,-166.29"/>
<polygon fill="#63b8ff" stroke="#63b8ff" points="787.82,-169.76 797.09,-164.63 786.64,-162.86 787.82,-169.76"/>
</a>
</g>
</g>
</g>
</svg>
