<?xml version="1.0" encoding="UTF-8" standalone="no"?>
<!DOCTYPE svg PUBLIC "-//W3C//DTD SVG 1.1//EN"
 "http://www.w3.org/Graphics/SVG/1.1/DTD/svg11.dtd">
<!-- Generated by graphviz version 12.2.1 (20241206.2353)
 -->
<!-- Title: Fiea::Engine::Content::Actions::ActionList::OnReset Pages: 1 -->
<svg width="594pt" height="228pt"
 viewBox="0.00 0.00 594.00 228.00" xmlns="http://www.w3.org/2000/svg" xmlns:xlink="http://www.w3.org/1999/xlink">
<g id="graph0" class="graph" transform="scale(1 1) rotate(0) translate(4 224)">
<title>Fiea::Engine::Content::Actions::ActionList::OnReset</title>
<!-- Node1 -->
<g id="Node000001" class="node">
<title>Node1</title>
<g id="a_Node000001"><a xlink:title="Reseting the ActionList. Any custom logic that needs to be executed before it is reinitalized must go...">
<polygon fill="#999999" stroke="#666666" points="111.25,-138 0,-138 0,-94 111.25,-94 111.25,-138"/>
<text text-anchor="start" x="8" y="-124.5" font-family="Helvetica,sans-Serif" font-size="10.00">Fiea::Engine::Content</text>
<text text-anchor="start" x="8" y="-112.5" font-family="Helvetica,sans-Serif" font-size="10.00">::Actions::ActionList</text>
<text text-anchor="middle" x="55.62" y="-100.5" font-family="Helvetica,sans-Serif" font-size="10.00">::OnReset</text>
</a>
</g>
</g>
<!-- Node2 -->
<g id="Node000002" class="node">
<title>Node2</title>
<g id="a_Node000002"><a xlink:href="class_fiea_1_1_engine_1_1_content_1_1_actions_1_1_action_list.html#a174321b3790604e933b2210235d2c62a" target="_top" xlink:title="Resets the actions owned by the list.">
<polygon fill="white" stroke="#666666" points="259.25,-138 147.25,-138 147.25,-94 259.25,-94 259.25,-138"/>
<text text-anchor="start" x="155.25" y="-124.5" font-family="Helvetica,sans-Serif" font-size="10.00">Fiea::Engine::Content</text>
<text text-anchor="start" x="155.25" y="-112.5" font-family="Helvetica,sans-Serif" font-size="10.00">::Actions::ActionList</text>
<text text-anchor="middle" x="203.25" y="-100.5" font-family="Helvetica,sans-Serif" font-size="10.00">::ResetOwnedActions</text>
</a>
</g>
</g>
<!-- Node1&#45;&gt;Node2 -->
<g id="edge1_Node000001_Node000002" class="edge">
<title>Node1&#45;&gt;Node2</title>
<g id="a_edge1_Node000001_Node000002"><a xlink:title=" ">
<path fill="none" stroke="#63b8ff" d="M111.68,-116C119.56,-116 127.74,-116 135.82,-116"/>
<polygon fill="#63b8ff" stroke="#63b8ff" points="135.6,-119.5 145.6,-116 135.6,-112.5 135.6,-119.5"/>
</a>
</g>
</g>
<!-- Node3 -->
<g id="Node000003" class="node">
<title>Node3</title>
<g id="a_Node000003"><a xlink:href="class_fiea_1_1_engine_1_1_r_t_t_i.html#a15bd5993c8ad04da47af440298ebbb30" target="_top" xlink:title=" ">
<polygon fill="white" stroke="#666666" points="414,-220 297.5,-220 297.5,-200 414,-200 414,-220"/>
<text text-anchor="middle" x="355.75" y="-206.5" font-family="Helvetica,sans-Serif" font-size="10.00">Fiea::Engine::RTTI::As</text>
</a>
</g>
</g>
<!-- Node2&#45;&gt;Node3 -->
<g id="edge2_Node000002_Node000003" class="edge">
<title>Node2&#45;&gt;Node3</title>
<g id="a_edge2_Node000002_Node000003"><a xlink:title=" ">
<path fill="none" stroke="#63b8ff" d="M226.4,-138.4C243.81,-154.92 269.37,-176.89 295.25,-191 298.11,-192.56 301.11,-194.01 304.19,-195.36"/>
<polygon fill="#63b8ff" stroke="#63b8ff" points="302.84,-198.59 313.42,-199.02 305.41,-192.08 302.84,-198.59"/>
</a>
</g>
</g>
<!-- Node5 -->
<g id="Node000005" class="node">
<title>Node5</title>
<g id="a_Node000005"><a xlink:href="class_fiea_1_1_engine_1_1_content_1_1_scope.html#ad924c01785b239991fc0e56a63295612" target="_top" xlink:title="Return the Datum at the requested key, or nullptr if not found.">
<polygon fill="white" stroke="#666666" points="411.38,-182 300.12,-182 300.12,-150 411.38,-150 411.38,-182"/>
<text text-anchor="start" x="308.12" y="-168.5" font-family="Helvetica,sans-Serif" font-size="10.00">Fiea::Engine::Content</text>
<text text-anchor="middle" x="355.75" y="-156.5" font-family="Helvetica,sans-Serif" font-size="10.00">::Scope::Find</text>
</a>
</g>
</g>
<!-- Node2&#45;&gt;Node5 -->
<g id="edge4_Node000002_Node000005" class="edge">
<title>Node2&#45;&gt;Node5</title>
<g id="a_edge4_Node000002_Node000005"><a xlink:title=" ">
<path fill="none" stroke="#63b8ff" d="M259.44,-134.33C271,-138.18 283.24,-142.24 294.96,-146.14"/>
<polygon fill="#63b8ff" stroke="#63b8ff" points="293.51,-149.34 304.11,-149.17 295.72,-142.7 293.51,-149.34"/>
</a>
</g>
</g>
<!-- Node6 -->
<g id="Node000006" class="node">
<title>Node6</title>
<g id="a_Node000006"><a xlink:href="class_fiea_1_1_engine_1_1_content_1_1_datum.html#a3763d03e7b219e3ba257b09a7719795c" target="_top" xlink:title=" ">
<polygon fill="white" stroke="#666666" points="411.38,-132 300.12,-132 300.12,-100 411.38,-100 411.38,-132"/>
<text text-anchor="start" x="308.12" y="-118.5" font-family="Helvetica,sans-Serif" font-size="10.00">Fiea::Engine::Content</text>
<text text-anchor="middle" x="355.75" y="-106.5" font-family="Helvetica,sans-Serif" font-size="10.00">::Datum::Get</text>
</a>
</g>
</g>
<!-- Node2&#45;&gt;Node6 -->
<g id="edge5_Node000002_Node000006" class="edge">
<title>Node2&#45;&gt;Node6</title>
<g id="a_edge5_Node000002_Node000006"><a xlink:title=" ">
<path fill="none" stroke="#63b8ff" d="M259.44,-116C268.9,-116 278.83,-116 288.55,-116"/>
<polygon fill="#63b8ff" stroke="#63b8ff" points="288.31,-119.5 298.31,-116 288.31,-112.5 288.31,-119.5"/>
</a>
</g>
</g>
<!-- Node7 -->
<g id="Node000007" class="node">
<title>Node7</title>
<g id="a_Node000007"><a xlink:href="class_fiea_1_1_engine_1_1_content_1_1_actions_1_1_action.html#a4bd3f927a2d39da853a3c84a6d454343" target="_top" xlink:title="Providing a way to reset the action state. This is only doing a soft reset and only meant for going f...">
<polygon fill="white" stroke="#666666" points="416.25,-82 295.25,-82 295.25,-50 416.25,-50 416.25,-82"/>
<text text-anchor="start" x="303.25" y="-68.5" font-family="Helvetica,sans-Serif" font-size="10.00">Fiea::Engine::Content</text>
<text text-anchor="middle" x="355.75" y="-56.5" font-family="Helvetica,sans-Serif" font-size="10.00">::Actions::Action::Reset</text>
</a>
</g>
</g>
<!-- Node2&#45;&gt;Node7 -->
<g id="edge6_Node000002_Node000007" class="edge">
<title>Node2&#45;&gt;Node7</title>
<g id="a_edge6_Node000002_Node000007"><a xlink:title=" ">
<path fill="none" stroke="#63b8ff" d="M259.44,-97.67C271,-93.82 283.24,-89.76 294.96,-85.86"/>
<polygon fill="#63b8ff" stroke="#63b8ff" points="295.72,-89.3 304.11,-82.83 293.51,-82.66 295.72,-89.3"/>
</a>
</g>
</g>
<!-- Node9 -->
<g id="Node000009" class="node">
<title>Node9</title>
<g id="a_Node000009"><a xlink:href="class_fiea_1_1_engine_1_1_content_1_1_datum.html#acae68c3bc8b20345e4c3790fa37bd8d5" target="_top" xlink:title=" ">
<polygon fill="white" stroke="#666666" points="411.38,-32 300.12,-32 300.12,0 411.38,0 411.38,-32"/>
<text text-anchor="start" x="308.12" y="-18.5" font-family="Helvetica,sans-Serif" font-size="10.00">Fiea::Engine::Content</text>
<text text-anchor="middle" x="355.75" y="-6.5" font-family="Helvetica,sans-Serif" font-size="10.00">::Datum::Size</text>
</a>
</g>
</g>
<!-- Node2&#45;&gt;Node9 -->
<g id="edge8_Node000002_Node000009" class="edge">
<title>Node2&#45;&gt;Node9</title>
<g id="a_edge8_Node000002_Node000009"><a xlink:title=" ">
<path fill="none" stroke="#63b8ff" d="M227.51,-93.57C245.09,-77.47 270.37,-56.03 295.25,-41 297.24,-39.8 299.29,-38.63 301.39,-37.5"/>
<polygon fill="#63b8ff" stroke="#63b8ff" points="302.72,-40.74 310.08,-33.12 299.58,-34.49 302.72,-40.74"/>
</a>
</g>
</g>
<!-- Node4 -->
<g id="Node000004" class="node">
<title>Node4</title>
<g id="a_Node000004"><a xlink:href="class_fiea_1_1_engine_1_1_r_t_t_i.html#ac0a7d875e4513b2aca7594abcd4418ef" target="_top" xlink:title=" ">
<polygon fill="white" stroke="#666666" points="575.5,-220 462.75,-220 462.75,-200 575.5,-200 575.5,-220"/>
<text text-anchor="middle" x="519.12" y="-206.5" font-family="Helvetica,sans-Serif" font-size="10.00">Fiea::Engine::RTTI::Is</text>
</a>
</g>
</g>
<!-- Node3&#45;&gt;Node4 -->
<g id="edge3_Node000003_Node000004" class="edge">
<title>Node3&#45;&gt;Node4</title>
<g id="a_edge3_Node000003_Node000004"><a xlink:title=" ">
<path fill="none" stroke="#63b8ff" d="M414.1,-210C426.1,-210 438.85,-210 451.16,-210"/>
<polygon fill="#63b8ff" stroke="#63b8ff" points="450.8,-213.5 460.8,-210 450.8,-206.5 450.8,-213.5"/>
</a>
</g>
</g>
<!-- Node8 -->
<g id="Node000008" class="node">
<title>Node8</title>
<g id="a_Node000008"><a xlink:href="class_fiea_1_1_engine_1_1_content_1_1_actions_1_1_action.html#a722baa79e2bc000694d1bb7a4fec50eb" target="_top" xlink:title=" ">
<polygon fill="white" stroke="#666666" points="586,-82 452.25,-82 452.25,-50 586,-50 586,-82"/>
<text text-anchor="start" x="460.25" y="-68.5" font-family="Helvetica,sans-Serif" font-size="10.00">Fiea::Engine::Content</text>
<text text-anchor="middle" x="519.12" y="-56.5" font-family="Helvetica,sans-Serif" font-size="10.00">::Actions::Action::OnReset</text>
</a>
</g>
</g>
<!-- Node7&#45;&gt;Node8 -->
<g id="edge7_Node000007_Node000008" class="edge">
<title>Node7&#45;&gt;Node8</title>
<g id="a_edge7_Node000007_Node000008"><a xlink:title=" ">
<path fill="none" stroke="#63b8ff" d="M416.38,-66C424.25,-66 432.41,-66 440.53,-66"/>
<polygon fill="#63b8ff" stroke="#63b8ff" points="440.43,-69.5 450.43,-66 440.43,-62.5 440.43,-69.5"/>
</a>
</g>
</g>
</g>
</svg>
