<?xml version="1.0" encoding="UTF-8" standalone="no"?>
<!DOCTYPE svg PUBLIC "-//W3C//DTD SVG 1.1//EN"
 "http://www.w3.org/Graphics/SVG/1.1/DTD/svg11.dtd">
<!-- Generated by graphviz version 12.2.1 (20241206.2353)
 -->
<!-- Title: Fiea::Engine::Content::Scope::operator= Pages: 1 -->
<svg width="432pt" height="112pt"
 viewBox="0.00 0.00 431.75 112.00" xmlns="http://www.w3.org/2000/svg" xmlns:xlink="http://www.w3.org/1999/xlink">
<g id="graph0" class="graph" transform="scale(1 1) rotate(0) translate(4 108)">
<title>Fiea::Engine::Content::Scope::operator=</title>
<!-- Node1 -->
<g id="Node000001" class="node">
<title>Node1</title>
<g id="a_Node000001"><a xlink:title="Copy Assignment.">
<polygon fill="#999999" stroke="#666666" points="111.25,-54 0,-54 0,-22 111.25,-22 111.25,-54"/>
<text text-anchor="start" x="8" y="-40.5" font-family="Helvetica,sans-Serif" font-size="10.00">Fiea::Engine::Content</text>
<text text-anchor="middle" x="55.62" y="-28.5" font-family="Helvetica,sans-Serif" font-size="10.00">::Scope::operator=</text>
</a>
</g>
</g>
<!-- Node2 -->
<g id="Node000002" class="node">
<title>Node2</title>
<g id="a_Node000002"><a xlink:href="class_fiea_1_1_engine_1_1_content_1_1_scope.html#a9d741d7fb95ccb49ee35dd6d9f779f1e" target="_top" xlink:title=" ">
<polygon fill="white" stroke="#666666" points="259.62,-104 148.38,-104 148.38,-72 259.62,-72 259.62,-104"/>
<text text-anchor="start" x="156.38" y="-90.5" font-family="Helvetica,sans-Serif" font-size="10.00">Fiea::Engine::Content</text>
<text text-anchor="middle" x="204" y="-78.5" font-family="Helvetica,sans-Serif" font-size="10.00">::Scope::Clear</text>
</a>
</g>
</g>
<!-- Node1&#45;&gt;Node2 -->
<g id="edge1_Node000001_Node000002" class="edge">
<title>Node1&#45;&gt;Node2</title>
<g id="a_edge1_Node000001_Node000002"><a xlink:title=" ">
<path fill="none" stroke="#63b8ff" d="M104.55,-54.37C117.19,-58.69 130.97,-63.4 144.11,-67.89"/>
<polygon fill="#63b8ff" stroke="#63b8ff" points="142.94,-71.18 153.53,-71.1 145.2,-64.56 142.94,-71.18"/>
</a>
</g>
</g>
<!-- Node3 -->
<g id="Node000003" class="node">
<title>Node3</title>
<g id="a_Node000003"><a xlink:href="class_fiea_1_1_engine_1_1_content_1_1_scope.html#a853041a85e32e8b7de723fa3dd9a1d82" target="_top" xlink:title="Tells if this scope is present somewhere higher up in the scopes tree as a parent.">
<polygon fill="white" stroke="#666666" points="260.75,-54 147.25,-54 147.25,-22 260.75,-22 260.75,-54"/>
<text text-anchor="start" x="155.25" y="-40.5" font-family="Helvetica,sans-Serif" font-size="10.00">Fiea::Engine::Content</text>
<text text-anchor="middle" x="204" y="-28.5" font-family="Helvetica,sans-Serif" font-size="10.00">::Scope::IsAncestorOf</text>
</a>
</g>
</g>
<!-- Node1&#45;&gt;Node3 -->
<g id="edge2_Node000001_Node000003" class="edge">
<title>Node1&#45;&gt;Node3</title>
<g id="a_edge2_Node000001_Node000003"><a xlink:title=" ">
<path fill="none" stroke="#63b8ff" d="M111.55,-38C119.38,-38 127.5,-38 135.54,-38"/>
<polygon fill="#63b8ff" stroke="#63b8ff" points="135.28,-41.5 145.28,-38 135.28,-34.5 135.28,-41.5"/>
</a>
</g>
</g>
<!-- Node4 -->
<g id="Node000004" class="node">
<title>Node4</title>
<g id="a_Node000004"><a xlink:href="class_fiea_1_1_engine_1_1_content_1_1_scope.html#a8f7dfeddfe92368a8d160ed2b805640f" target="_top" xlink:title="Tell if this scope is present somewhere lower down in the scopes tree as a child.">
<polygon fill="white" stroke="#666666" points="423.75,-32 296.75,-32 296.75,0 423.75,0 423.75,-32"/>
<text text-anchor="start" x="304.75" y="-18.5" font-family="Helvetica,sans-Serif" font-size="10.00">Fiea::Engine::Content</text>
<text text-anchor="middle" x="360.25" y="-6.5" font-family="Helvetica,sans-Serif" font-size="10.00">::Scope::IsDescendentOf</text>
</a>
</g>
</g>
<!-- Node1&#45;&gt;Node4 -->
<g id="edge4_Node000001_Node000004" class="edge">
<title>Node1&#45;&gt;Node4</title>
<g id="a_edge4_Node000001_Node000004"><a xlink:title=" ">
<path fill="none" stroke="#63b8ff" d="M106.93,-21.54C119.92,-18.01 133.99,-14.8 147.25,-13 192.66,-6.85 244.05,-7.39 284.85,-9.57"/>
<polygon fill="#63b8ff" stroke="#63b8ff" points="284.64,-13.06 294.83,-10.15 285.05,-6.08 284.64,-13.06"/>
</a>
</g>
</g>
<!-- Node3&#45;&gt;Node4 -->
<g id="edge3_Node000003_Node000004" class="edge">
<title>Node3&#45;&gt;Node4</title>
<g id="a_edge3_Node000003_Node000004"><a xlink:title=" ">
<path fill="none" stroke="#63b8ff" d="M261.12,-30C268.91,-28.88 277.01,-27.73 285.06,-26.58"/>
<polygon fill="#63b8ff" stroke="#63b8ff" points="285.48,-30.06 294.88,-25.18 284.49,-23.13 285.48,-30.06"/>
</a>
</g>
</g>
</g>
</svg>
