<?xml version="1.0" encoding="UTF-8" standalone="no"?>
<!DOCTYPE svg PUBLIC "-//W3C//DTD SVG 1.1//EN"
 "http://www.w3.org/Graphics/SVG/1.1/DTD/svg11.dtd">
<!-- Generated by graphviz version 12.2.1 (20241206.2353)
 -->
<!-- Title: Fiea::Engine::Content::Actions::IntegerConditionalAction::Equals Pages: 1 -->
<svg width="449pt" height="78pt"
 viewBox="0.00 0.00 449.00 78.00" xmlns="http://www.w3.org/2000/svg" xmlns:xlink="http://www.w3.org/1999/xlink">
<g id="graph0" class="graph" transform="scale(1 1) rotate(0) translate(4 74)">
<title>Fiea::Engine::Content::Actions::IntegerConditionalAction::Equals</title>
<!-- Node1 -->
<g id="Node000001" class="node">
<title>Node1</title>
<g id="a_Node000001"><a xlink:title="virtual function part of the vtable pointer. We are calling in the equality operator overloaded funct...">
<polygon fill="#999999" stroke="#666666" points="139.75,-60 0,-60 0,-16 139.75,-16 139.75,-60"/>
<text text-anchor="start" x="8" y="-46.5" font-family="Helvetica,sans-Serif" font-size="10.00">Fiea::Engine::Content</text>
<text text-anchor="start" x="8" y="-34.5" font-family="Helvetica,sans-Serif" font-size="10.00">::Actions::IntegerConditional</text>
<text text-anchor="middle" x="69.88" y="-22.5" font-family="Helvetica,sans-Serif" font-size="10.00">Action::Equals</text>
</a>
</g>
</g>
<!-- Node2 -->
<g id="Node000002" class="node">
<title>Node2</title>
<g id="a_Node000002"><a xlink:href="class_fiea_1_1_engine_1_1_r_t_t_i.html#a15bd5993c8ad04da47af440298ebbb30" target="_top" xlink:title=" ">
<polygon fill="white" stroke="#666666" points="292.25,-70 175.75,-70 175.75,-50 292.25,-50 292.25,-70"/>
<text text-anchor="middle" x="234" y="-56.5" font-family="Helvetica,sans-Serif" font-size="10.00">Fiea::Engine::RTTI::As</text>
</a>
</g>
</g>
<!-- Node1&#45;&gt;Node2 -->
<g id="edge1_Node000001_Node000002" class="edge">
<title>Node1&#45;&gt;Node2</title>
<g id="a_edge1_Node000001_Node000002"><a xlink:title=" ">
<path fill="none" stroke="#63b8ff" d="M140.1,-47.39C148.11,-48.48 156.29,-49.59 164.29,-50.68"/>
<polygon fill="#63b8ff" stroke="#63b8ff" points="163.59,-54.11 173.97,-51.99 164.53,-47.18 163.59,-54.11"/>
</a>
</g>
</g>
<!-- Node4 -->
<g id="Node000004" class="node">
<title>Node4</title>
<g id="a_Node000004"><a xlink:href="class_fiea_1_1_engine_1_1_r_t_t_i.html#a876bebbe7b3149483c43a87f55f4ea99" target="_top" xlink:title=" ">
<polygon fill="white" stroke="#666666" points="283.25,-32 184.75,-32 184.75,0 283.25,0 283.25,-32"/>
<text text-anchor="start" x="192.75" y="-18.5" font-family="Helvetica,sans-Serif" font-size="10.00">Fiea::Engine::RTTI</text>
<text text-anchor="middle" x="234" y="-6.5" font-family="Helvetica,sans-Serif" font-size="10.00">::TypeIdInstance</text>
</a>
</g>
</g>
<!-- Node1&#45;&gt;Node4 -->
<g id="edge3_Node000001_Node000004" class="edge">
<title>Node1&#45;&gt;Node4</title>
<g id="a_edge3_Node000001_Node000004"><a xlink:title=" ">
<path fill="none" stroke="#63b8ff" d="M140.1,-28.61C151.22,-27.1 162.63,-25.55 173.49,-24.07"/>
<polygon fill="#63b8ff" stroke="#63b8ff" points="173.64,-27.59 183.08,-22.77 172.7,-20.65 173.64,-27.59"/>
</a>
</g>
</g>
<!-- Node3 -->
<g id="Node000003" class="node">
<title>Node3</title>
<g id="a_Node000003"><a xlink:href="class_fiea_1_1_engine_1_1_r_t_t_i.html#ac0a7d875e4513b2aca7594abcd4418ef" target="_top" xlink:title=" ">
<polygon fill="white" stroke="#666666" points="441,-70 328.25,-70 328.25,-50 441,-50 441,-70"/>
<text text-anchor="middle" x="384.62" y="-56.5" font-family="Helvetica,sans-Serif" font-size="10.00">Fiea::Engine::RTTI::Is</text>
</a>
</g>
</g>
<!-- Node2&#45;&gt;Node3 -->
<g id="edge2_Node000002_Node000003" class="edge">
<title>Node2&#45;&gt;Node3</title>
<g id="a_edge2_Node000002_Node000003"><a xlink:title=" ">
<path fill="none" stroke="#63b8ff" d="M292.46,-60C300.35,-60 308.5,-60 316.53,-60"/>
<polygon fill="#63b8ff" stroke="#63b8ff" points="316.27,-63.5 326.27,-60 316.27,-56.5 316.27,-63.5"/>
</a>
</g>
</g>
</g>
</svg>
