<?xml version="1.0" encoding="UTF-8" standalone="no"?>
<!DOCTYPE svg PUBLIC "-//W3C//DTD SVG 1.1//EN"
 "http://www.w3.org/Graphics/SVG/1.1/DTD/svg11.dtd">
<!-- Generated by graphviz version 12.2.1 (20241206.2353)
 -->
<!-- Title: Fiea::Engine::Content::Scope::IsDescendentOf Pages: 1 -->
<svg width="956pt" height="389pt"
 viewBox="0.00 0.00 956.00 389.00" xmlns="http://www.w3.org/2000/svg" xmlns:xlink="http://www.w3.org/1999/xlink">
<g id="graph0" class="graph" transform="scale(1 1) rotate(0) translate(4 385)">
<title>Fiea::Engine::Content::Scope::IsDescendentOf</title>
<!-- Node1 -->
<g id="Node000001" class="node">
<title>Node1</title>
<g id="a_Node000001"><a xlink:title="Tell if this scope is present somewhere lower down in the scopes tree as a child.">
<polygon fill="#999999" stroke="#666666" points="948,-141 821,-141 821,-109 948,-109 948,-141"/>
<text text-anchor="start" x="829" y="-127.5" font-family="Helvetica,sans-Serif" font-size="10.00">Fiea::Engine::Content</text>
<text text-anchor="middle" x="884.5" y="-115.5" font-family="Helvetica,sans-Serif" font-size="10.00">::Scope::IsDescendentOf</text>
</a>
</g>
</g>
<!-- Node2 -->
<g id="Node000002" class="node">
<title>Node2</title>
<g id="a_Node000002"><a xlink:href="class_fiea_1_1_engine_1_1_content_1_1_scope.html#abf39accc1ce38b12bcbc6884ba0165e3" target="_top" xlink:title="You can provide a child scope that you wish this scope to adopt. You should not adopt a scope if it a...">
<polygon fill="white" stroke="#666666" points="469.5,-225 358.25,-225 358.25,-193 469.5,-193 469.5,-225"/>
<text text-anchor="start" x="366.25" y="-211.5" font-family="Helvetica,sans-Serif" font-size="10.00">Fiea::Engine::Content</text>
<text text-anchor="middle" x="413.88" y="-199.5" font-family="Helvetica,sans-Serif" font-size="10.00">::Scope::Adopt</text>
</a>
</g>
</g>
<!-- Node1&#45;&gt;Node2 -->
<g id="edge1_Node000001_Node000002" class="edge">
<title>Node1&#45;&gt;Node2</title>
<g id="a_edge1_Node000001_Node000002"><a xlink:title=" ">
<path fill="none" stroke="#63b8ff" d="M845.65,-146.85C827.81,-156.14 805.9,-166.16 785,-172 676.16,-202.41 543.16,-208.53 469.9,-209.36"/>
<polygon fill="#63b8ff" stroke="#63b8ff" points="847.14,-150.02 854.31,-142.21 843.84,-143.85 847.14,-150.02"/>
</a>
</g>
</g>
<!-- Node12 -->
<g id="Node000012" class="node">
<title>Node12</title>
<g id="a_Node000012"><a xlink:href="class_fiea_1_1_engine_1_1_content_1_1_scope.html#a853041a85e32e8b7de723fa3dd9a1d82" target="_top" xlink:title="Tells if this scope is present somewhere higher up in the scopes tree as a parent.">
<polygon fill="white" stroke="#666666" points="785,-163 671.5,-163 671.5,-131 785,-131 785,-163"/>
<text text-anchor="start" x="679.5" y="-149.5" font-family="Helvetica,sans-Serif" font-size="10.00">Fiea::Engine::Content</text>
<text text-anchor="middle" x="728.25" y="-137.5" font-family="Helvetica,sans-Serif" font-size="10.00">::Scope::IsAncestorOf</text>
</a>
</g>
</g>
<!-- Node1&#45;&gt;Node12 -->
<g id="edge12_Node000001_Node000012" class="edge">
<title>Node1&#45;&gt;Node12</title>
<g id="a_edge12_Node000001_Node000012"><a xlink:title=" ">
<path fill="none" stroke="#63b8ff" d="M809.44,-135.56C801.38,-136.71 793.28,-137.87 785.48,-138.98"/>
<polygon fill="#63b8ff" stroke="#63b8ff" points="809.86,-139.04 819.26,-134.16 808.87,-132.11 809.86,-139.04"/>
</a>
</g>
</g>
<!-- Node13 -->
<g id="Node000013" class="node">
<title>Node13</title>
<g id="a_Node000013"><a xlink:href="class_fiea_1_1_engine_1_1_content_1_1_scope.html#a0b373136d60bb5b269b7e52419e42991" target="_top" xlink:title="Copy Assignment.">
<polygon fill="white" stroke="#666666" points="635.5,-125 524.25,-125 524.25,-93 635.5,-93 635.5,-125"/>
<text text-anchor="start" x="532.25" y="-111.5" font-family="Helvetica,sans-Serif" font-size="10.00">Fiea::Engine::Content</text>
<text text-anchor="middle" x="579.88" y="-99.5" font-family="Helvetica,sans-Serif" font-size="10.00">::Scope::operator=</text>
</a>
</g>
</g>
<!-- Node1&#45;&gt;Node13 -->
<g id="edge22_Node000001_Node000013" class="edge">
<title>Node1&#45;&gt;Node13</title>
<g id="a_edge22_Node000001_Node000013"><a xlink:title=" ">
<path fill="none" stroke="#63b8ff" d="M809.63,-121.09C755.98,-118.26 684.55,-114.48 635.88,-111.91"/>
<polygon fill="#63b8ff" stroke="#63b8ff" points="809.11,-124.57 819.28,-121.6 809.48,-117.58 809.11,-124.57"/>
</a>
</g>
</g>
<!-- Node18 -->
<g id="Node000018" class="node">
<title>Node18</title>
<g id="a_Node000018"><a xlink:href="class_fiea_1_1_engine_1_1_content_1_1_scope.html#a61d48df64d77d9fefb55da3109f7fba6" target="_top" xlink:title="Move assignment.">
<polygon fill="white" stroke="#666666" points="635.5,-75 524.25,-75 524.25,-43 635.5,-43 635.5,-75"/>
<text text-anchor="start" x="532.25" y="-61.5" font-family="Helvetica,sans-Serif" font-size="10.00">Fiea::Engine::Content</text>
<text text-anchor="middle" x="579.88" y="-49.5" font-family="Helvetica,sans-Serif" font-size="10.00">::Scope::operator=</text>
</a>
</g>
</g>
<!-- Node1&#45;&gt;Node18 -->
<g id="edge23_Node000001_Node000018" class="edge">
<title>Node1&#45;&gt;Node18</title>
<g id="a_edge23_Node000001_Node000018"><a xlink:title=" ">
<path fill="none" stroke="#63b8ff" d="M809.63,-108.89C755.98,-97.19 684.55,-81.61 635.88,-71"/>
<polygon fill="#63b8ff" stroke="#63b8ff" points="808.8,-112.29 819.32,-111 810.29,-105.45 808.8,-112.29"/>
</a>
</g>
</g>
<!-- Node3 -->
<g id="Node000003" class="node">
<title>Node3</title>
<g id="a_Node000003"><a xlink:href="class_fiea_1_1_engine_1_1_game_object.html#a86ede0bbc21133ffa8f398b0636c8b52" target="_top" xlink:title=" ">
<polygon fill="white" stroke="#666666" points="301.25,-219 169.75,-219 169.75,-187 301.25,-187 301.25,-219"/>
<text text-anchor="start" x="177.75" y="-205.5" font-family="Helvetica,sans-Serif" font-size="10.00">Fiea::Engine::GameObject</text>
<text text-anchor="middle" x="235.5" y="-193.5" font-family="Helvetica,sans-Serif" font-size="10.00">::AddAction</text>
</a>
</g>
</g>
<!-- Node2&#45;&gt;Node3 -->
<g id="edge2_Node000002_Node000003" class="edge">
<title>Node2&#45;&gt;Node3</title>
<g id="a_edge2_Node000002_Node000003"><a xlink:title=" ">
<path fill="none" stroke="#63b8ff" d="M346.89,-206.76C332.05,-206.25 316.32,-205.72 301.52,-205.21"/>
<polygon fill="#63b8ff" stroke="#63b8ff" points="346.41,-210.24 356.52,-207.08 346.65,-203.24 346.41,-210.24"/>
</a>
</g>
</g>
<!-- Node4 -->
<g id="Node000004" class="node">
<title>Node4</title>
<g id="a_Node000004"><a xlink:href="class_fiea_1_1_engine_1_1_content_1_1_scope.html#a002f54731a8996f37c4f725d8175ffee" target="_top" xlink:title="This is one of the ways of adding a scope as a child to &#39;this&#39; scope Appending a scope also implies t...">
<polygon fill="white" stroke="#666666" points="293.75,-157 177.25,-157 177.25,-125 293.75,-125 293.75,-157"/>
<text text-anchor="start" x="185.25" y="-143.5" font-family="Helvetica,sans-Serif" font-size="10.00">Fiea::Engine::Content</text>
<text text-anchor="middle" x="235.5" y="-131.5" font-family="Helvetica,sans-Serif" font-size="10.00">::Scope::AppendScope</text>
</a>
</g>
</g>
<!-- Node2&#45;&gt;Node4 -->
<g id="edge3_Node000002_Node000004" class="edge">
<title>Node2&#45;&gt;Node4</title>
<g id="a_edge3_Node000002_Node000004"><a xlink:title=" ">
<path fill="none" stroke="#63b8ff" d="M352.22,-188.69C347.91,-187.14 343.63,-185.56 339.5,-184 317.57,-175.7 293.36,-165.64 273.93,-157.34"/>
<polygon fill="#63b8ff" stroke="#63b8ff" points="350.96,-191.96 361.56,-192 353.3,-185.36 350.96,-191.96"/>
</a>
</g>
</g>
<!-- Node6 -->
<g id="Node000006" class="node">
<title>Node6</title>
<g id="a_Node000006"><a xlink:href="class_fiea_1_1_engine_1_1_content_1_1_scope_writer.html#a4488fbd92e0706a1207e15a40dac7e22" target="_top" xlink:title=" ">
<polygon fill="white" stroke="#666666" points="131.5,-381 0,-381 0,-349 131.5,-349 131.5,-381"/>
<text text-anchor="start" x="8" y="-367.5" font-family="Helvetica,sans-Serif" font-size="10.00">Fiea::Engine::Content</text>
<text text-anchor="middle" x="65.75" y="-355.5" font-family="Helvetica,sans-Serif" font-size="10.00">::ScopeWriter::PushScope</text>
</a>
</g>
</g>
<!-- Node2&#45;&gt;Node6 -->
<g id="edge5_Node000002_Node000006" class="edge">
<title>Node2&#45;&gt;Node6</title>
<g id="a_edge5_Node000002_Node000006"><a xlink:title=" ">
<path fill="none" stroke="#63b8ff" d="M381.03,-231.61C359.74,-246.08 330.75,-264.58 303.5,-278 243.19,-307.69 170.09,-333.05 121.22,-348.61"/>
<polygon fill="#63b8ff" stroke="#63b8ff" points="382.73,-234.69 388.98,-226.14 378.76,-228.92 382.73,-234.69"/>
</a>
</g>
</g>
<!-- Node7 -->
<g id="Node000007" class="node">
<title>Node7</title>
<g id="a_Node000007"><a xlink:href="class_fiea_1_1_engine_1_1_content_1_1_scope_writer.html#adb1089ed0ff92fae8826810cef43e447" target="_top" xlink:title=" ">
<polygon fill="white" stroke="#666666" points="301.25,-269 169.75,-269 169.75,-237 301.25,-237 301.25,-269"/>
<text text-anchor="start" x="177.75" y="-255.5" font-family="Helvetica,sans-Serif" font-size="10.00">Fiea::Engine::Content</text>
<text text-anchor="middle" x="235.5" y="-243.5" font-family="Helvetica,sans-Serif" font-size="10.00">::ScopeWriter::PushScope</text>
</a>
</g>
</g>
<!-- Node2&#45;&gt;Node7 -->
<g id="edge6_Node000002_Node000007" class="edge">
<title>Node2&#45;&gt;Node7</title>
<g id="a_edge6_Node000002_Node000007"><a xlink:title=" ">
<path fill="none" stroke="#63b8ff" d="M346.89,-225.46C332.05,-229.16 316.32,-233.09 301.52,-236.78"/>
<polygon fill="#63b8ff" stroke="#63b8ff" points="347.71,-228.86 356.57,-223.05 346.02,-222.07 347.71,-228.86"/>
</a>
</g>
</g>
<!-- Node5 -->
<g id="Node000005" class="node">
<title>Node5</title>
<g id="a_Node000005"><a xlink:href="class_fiea_1_1_engine_1_1_content_1_1_scope_writer.html#ae61df0a4225d06e413fbfda3028f8547" target="_top" xlink:title="This creates a new Scope, makes it a child of the current top scope in the stack and pushes it into t...">
<polygon fill="white" stroke="#666666" points="131.5,-95 0,-95 0,-63 131.5,-63 131.5,-95"/>
<text text-anchor="start" x="8" y="-81.5" font-family="Helvetica,sans-Serif" font-size="10.00">Fiea::Engine::Content</text>
<text text-anchor="middle" x="65.75" y="-69.5" font-family="Helvetica,sans-Serif" font-size="10.00">::ScopeWriter::PushScope</text>
</a>
</g>
</g>
<!-- Node4&#45;&gt;Node5 -->
<g id="edge4_Node000004_Node000005" class="edge">
<title>Node4&#45;&gt;Node5</title>
<g id="a_edge4_Node000004_Node000005"><a xlink:title=" ">
<path fill="none" stroke="#63b8ff" d="M179.4,-120.64C157.27,-112.46 132.11,-103.16 111.18,-95.42"/>
<polygon fill="#63b8ff" stroke="#63b8ff" points="177.97,-123.84 188.57,-124.02 180.4,-117.27 177.97,-123.84"/>
</a>
</g>
</g>
<!-- Node7&#45;&gt;Node6 -->
<g id="edge11_Node000007_Node000006" class="edge">
<title>Node7&#45;&gt;Node6</title>
<g id="a_edge11_Node000007_Node000006"><a xlink:title=" ">
<path fill="none" stroke="#63b8ff" d="M210.57,-277.26C190.76,-296.3 161.15,-322.43 131.5,-340 126.21,-343.13 120.46,-346.01 114.64,-348.61"/>
<polygon fill="#63b8ff" stroke="#63b8ff" points="212.9,-279.88 217.61,-270.39 208.01,-274.87 212.9,-279.88"/>
</a>
</g>
</g>
<!-- Node8 -->
<g id="Node000008" class="node">
<title>Node8</title>
<g id="a_Node000008"><a xlink:href="class_fiea_1_1_engine_1_1_content_1_1_action_handler.html#a392af20cfeb37d539b88183bc9672f7a" target="_top" xlink:title=" ">
<polygon fill="white" stroke="#666666" points="130.75,-269 0.75,-269 0.75,-237 130.75,-237 130.75,-269"/>
<text text-anchor="start" x="8.75" y="-255.5" font-family="Helvetica,sans-Serif" font-size="10.00">Fiea::Engine::Content</text>
<text text-anchor="middle" x="65.75" y="-243.5" font-family="Helvetica,sans-Serif" font-size="10.00">::ActionHandler::EnterKey</text>
</a>
</g>
</g>
<!-- Node7&#45;&gt;Node8 -->
<g id="edge7_Node000007_Node000008" class="edge">
<title>Node7&#45;&gt;Node8</title>
<g id="a_edge7_Node000007_Node000008"><a xlink:title=" ">
<path fill="none" stroke="#63b8ff" d="M158.27,-253C149.21,-253 140.03,-253 131.16,-253"/>
<polygon fill="#63b8ff" stroke="#63b8ff" points="158.13,-256.5 168.13,-253 158.13,-249.5 158.13,-256.5"/>
</a>
</g>
</g>
<!-- Node9 -->
<g id="Node000009" class="node">
<title>Node9</title>
<g id="a_Node000009"><a xlink:href="class_fiea_1_1_engine_1_1_content_1_1_action_list_handler.html#ae0f8b6534bcf602df112f39202c79ecc" target="_top" xlink:title=" ">
<polygon fill="white" stroke="#666666" points="121.38,-219 10.12,-219 10.12,-175 121.38,-175 121.38,-219"/>
<text text-anchor="start" x="18.12" y="-205.5" font-family="Helvetica,sans-Serif" font-size="10.00">Fiea::Engine::Content</text>
<text text-anchor="start" x="18.12" y="-193.5" font-family="Helvetica,sans-Serif" font-size="10.00">::ActionListHandler::</text>
<text text-anchor="middle" x="65.75" y="-181.5" font-family="Helvetica,sans-Serif" font-size="10.00">EnterKey</text>
</a>
</g>
</g>
<!-- Node7&#45;&gt;Node9 -->
<g id="edge8_Node000007_Node000009" class="edge">
<title>Node7&#45;&gt;Node9</title>
<g id="a_edge8_Node000007_Node000009"><a xlink:title=" ">
<path fill="none" stroke="#63b8ff" d="M174.56,-232.99C157.32,-227.24 138.61,-220.99 121.69,-215.34"/>
<polygon fill="#63b8ff" stroke="#63b8ff" points="173.05,-236.18 183.64,-236.02 175.26,-229.54 173.05,-236.18"/>
</a>
</g>
</g>
<!-- Node10 -->
<g id="Node000010" class="node">
<title>Node10</title>
<g id="a_Node000010"><a xlink:href="class_fiea_1_1_engine_1_1_content_1_1_game_object_handler.html#a626573aebcd7beceb84dbd69bc15105b" target="_top" xlink:title="This handler is specifically for handling any game objects in json and also does some checks to ensur...">
<polygon fill="white" stroke="#666666" points="124,-157 7.5,-157 7.5,-113 124,-113 124,-157"/>
<text text-anchor="start" x="15.5" y="-143.5" font-family="Helvetica,sans-Serif" font-size="10.00">Fiea::Engine::Content</text>
<text text-anchor="start" x="15.5" y="-131.5" font-family="Helvetica,sans-Serif" font-size="10.00">::GameObjectHandler::</text>
<text text-anchor="middle" x="65.75" y="-119.5" font-family="Helvetica,sans-Serif" font-size="10.00">EnterKey</text>
</a>
</g>
</g>
<!-- Node7&#45;&gt;Node10 -->
<g id="edge9_Node000007_Node000010" class="edge">
<title>Node7&#45;&gt;Node10</title>
<g id="a_edge9_Node000007_Node000010"><a xlink:title=" ">
<path fill="none" stroke="#63b8ff" d="M170.89,-230.67C169.73,-229.81 168.59,-228.92 167.5,-228 143.15,-207.45 154.91,-187.62 131.5,-166 128.11,-162.87 124.35,-160 120.4,-157.38"/>
<polygon fill="#63b8ff" stroke="#63b8ff" points="168.74,-233.45 179.06,-235.85 172.49,-227.54 168.74,-233.45"/>
</a>
</g>
</g>
<!-- Node11 -->
<g id="Node000011" class="node">
<title>Node11</title>
<g id="a_Node000011"><a xlink:href="class_fiea_1_1_engine_1_1_content_1_1_scope_parse_handler.html#a51138cf4e0b638b95c73b4a5acd68842" target="_top" xlink:title=" ">
<polygon fill="white" stroke="#666666" points="123.25,-331 8.25,-331 8.25,-287 123.25,-287 123.25,-331"/>
<text text-anchor="start" x="16.25" y="-317.5" font-family="Helvetica,sans-Serif" font-size="10.00">Fiea::Engine::Content</text>
<text text-anchor="start" x="16.25" y="-305.5" font-family="Helvetica,sans-Serif" font-size="10.00">::ScopeParseHandler::</text>
<text text-anchor="middle" x="65.75" y="-293.5" font-family="Helvetica,sans-Serif" font-size="10.00">EnterKey</text>
</a>
</g>
</g>
<!-- Node7&#45;&gt;Node11 -->
<g id="edge10_Node000007_Node000011" class="edge">
<title>Node7&#45;&gt;Node11</title>
<g id="a_edge10_Node000007_Node000011"><a xlink:title=" ">
<path fill="none" stroke="#63b8ff" d="M174.4,-273.06C157.81,-278.6 139.87,-284.59 123.48,-290.06"/>
<polygon fill="#63b8ff" stroke="#63b8ff" points="175.26,-276.46 183.64,-269.98 173.05,-269.82 175.26,-276.46"/>
</a>
</g>
</g>
<!-- Node12&#45;&gt;Node13 -->
<g id="edge13_Node000012_Node000013" class="edge">
<title>Node12&#45;&gt;Node13</title>
<g id="a_edge13_Node000012_Node000013"><a xlink:title=" ">
<path fill="none" stroke="#63b8ff" d="M660.05,-129.56C651.9,-127.44 643.64,-125.29 635.69,-123.23"/>
<polygon fill="#63b8ff" stroke="#63b8ff" points="659.05,-132.91 669.61,-132.04 660.81,-126.14 659.05,-132.91"/>
</a>
</g>
</g>
<!-- Node12&#45;&gt;Node18 -->
<g id="edge18_Node000012_Node000018" class="edge">
<title>Node12&#45;&gt;Node18</title>
<g id="a_edge18_Node000012_Node000018"><a xlink:title=" ">
<path fill="none" stroke="#63b8ff" d="M696.57,-123.96C679.14,-111.38 656.64,-95.97 635.5,-84 630.24,-81.02 624.55,-78.1 618.91,-75.38"/>
<polygon fill="#63b8ff" stroke="#63b8ff" points="694.33,-126.66 704.47,-129.73 698.46,-121 694.33,-126.66"/>
</a>
</g>
</g>
<!-- Node19 -->
<g id="Node000019" class="node">
<title>Node19</title>
<g id="a_Node000019"><a xlink:href="class_fiea_1_1_engine_1_1_content_1_1_scope.html#af6a94922a8fa123c3b22b7b4485963de" target="_top" xlink:title="Setter for Parent.">
<polygon fill="white" stroke="#666666" points="635.5,-175 524.25,-175 524.25,-143 635.5,-143 635.5,-175"/>
<text text-anchor="start" x="532.25" y="-161.5" font-family="Helvetica,sans-Serif" font-size="10.00">Fiea::Engine::Content</text>
<text text-anchor="middle" x="579.88" y="-149.5" font-family="Helvetica,sans-Serif" font-size="10.00">::Scope::SetParent</text>
</a>
</g>
</g>
<!-- Node12&#45;&gt;Node19 -->
<g id="edge19_Node000012_Node000019" class="edge">
<title>Node12&#45;&gt;Node19</title>
<g id="a_edge19_Node000012_Node000019"><a xlink:title=" ">
<path fill="none" stroke="#63b8ff" d="M659.78,-152.53C651.71,-153.19 643.55,-153.86 635.69,-154.51"/>
<polygon fill="#63b8ff" stroke="#63b8ff" points="659.89,-156.03 669.57,-151.73 659.32,-149.06 659.89,-156.03"/>
</a>
</g>
</g>
<!-- Node14 -->
<g id="Node000014" class="node">
<title>Node14</title>
<g id="a_Node000014"><a xlink:href="class_fiea_1_1_engine_1_1_content_1_1_attributed.html#a4b2cb8b7f86f4b7df9fc7dd15040affe" target="_top" xlink:title=" ">
<polygon fill="white" stroke="#666666" points="469.5,-125 358.25,-125 358.25,-93 469.5,-93 469.5,-125"/>
<text text-anchor="start" x="366.25" y="-111.5" font-family="Helvetica,sans-Serif" font-size="10.00">Fiea::Engine::Content</text>
<text text-anchor="middle" x="413.88" y="-99.5" font-family="Helvetica,sans-Serif" font-size="10.00">::Attributed::operator=</text>
</a>
</g>
</g>
<!-- Node13&#45;&gt;Node14 -->
<g id="edge14_Node000013_Node000014" class="edge">
<title>Node13&#45;&gt;Node14</title>
<g id="a_edge14_Node000013_Node000014"><a xlink:title=" ">
<path fill="none" stroke="#63b8ff" d="M512.59,-109C498.38,-109 483.52,-109 469.8,-109"/>
<polygon fill="#63b8ff" stroke="#63b8ff" points="512.3,-112.5 522.3,-109 512.3,-105.5 512.3,-112.5"/>
</a>
</g>
</g>
<!-- Node15 -->
<g id="Node000015" class="node">
<title>Node15</title>
<g id="a_Node000015"><a xlink:href="class_fiea_1_1_engine_1_1_content_1_1_attributed.html#ad00b7ac2fa53d92d617e235da1f83055" target="_top" xlink:title=" ">
<polygon fill="white" stroke="#666666" points="469.5,-75 358.25,-75 358.25,-43 469.5,-43 469.5,-75"/>
<text text-anchor="start" x="366.25" y="-61.5" font-family="Helvetica,sans-Serif" font-size="10.00">Fiea::Engine::Content</text>
<text text-anchor="middle" x="413.88" y="-49.5" font-family="Helvetica,sans-Serif" font-size="10.00">::Attributed::operator=</text>
</a>
</g>
</g>
<!-- Node13&#45;&gt;Node15 -->
<g id="edge15_Node000013_Node000015" class="edge">
<title>Node13&#45;&gt;Node15</title>
<g id="a_edge15_Node000013_Node000015"><a xlink:title=" ">
<path fill="none" stroke="#63b8ff" d="M514.4,-89.34C499.37,-84.76 483.51,-79.92 468.98,-75.49"/>
<polygon fill="#63b8ff" stroke="#63b8ff" points="513.14,-92.62 523.73,-92.19 515.18,-85.92 513.14,-92.62"/>
</a>
</g>
</g>
<!-- Node16 -->
<g id="Node000016" class="node">
<title>Node16</title>
<g id="a_Node000016"><a xlink:href="class_fiea_1_1_engine_1_1_content_1_1_actions_1_1_action.html#a8b550e6b4c11a011c42baf0b9b042d92" target="_top" xlink:title=" ">
<polygon fill="white" stroke="#666666" points="303.5,-82 167.5,-82 167.5,-50 303.5,-50 303.5,-82"/>
<text text-anchor="start" x="175.5" y="-68.5" font-family="Helvetica,sans-Serif" font-size="10.00">Fiea::Engine::Content</text>
<text text-anchor="middle" x="235.5" y="-56.5" font-family="Helvetica,sans-Serif" font-size="10.00">::Actions::Action::operator=</text>
</a>
</g>
</g>
<!-- Node15&#45;&gt;Node16 -->
<g id="edge16_Node000015_Node000016" class="edge">
<title>Node15&#45;&gt;Node16</title>
<g id="a_edge16_Node000015_Node000016"><a xlink:title=" ">
<path fill="none" stroke="#63b8ff" d="M346.92,-61.62C332.81,-62.18 317.89,-62.77 303.73,-63.33"/>
<polygon fill="#63b8ff" stroke="#63b8ff" points="346.67,-65.13 356.52,-61.24 346.39,-58.14 346.67,-65.13"/>
</a>
</g>
</g>
<!-- Node17 -->
<g id="Node000017" class="node">
<title>Node17</title>
<g id="a_Node000017"><a xlink:href="class_fiea_1_1_engine_1_1_content_1_1_actions_1_1_action.html#add6e558de0fd8848db339bfb352b2164" target="_top" xlink:title=" ">
<polygon fill="white" stroke="#666666" points="303.5,-32 167.5,-32 167.5,0 303.5,0 303.5,-32"/>
<text text-anchor="start" x="175.5" y="-18.5" font-family="Helvetica,sans-Serif" font-size="10.00">Fiea::Engine::Content</text>
<text text-anchor="middle" x="235.5" y="-6.5" font-family="Helvetica,sans-Serif" font-size="10.00">::Actions::Action::operator=</text>
</a>
</g>
</g>
<!-- Node15&#45;&gt;Node17 -->
<g id="edge17_Node000015_Node000017" class="edge">
<title>Node15&#45;&gt;Node17</title>
<g id="a_edge17_Node000015_Node000017"><a xlink:title=" ">
<path fill="none" stroke="#63b8ff" d="M346.92,-42.92C332.81,-39.48 317.89,-35.84 303.73,-32.39"/>
<polygon fill="#63b8ff" stroke="#63b8ff" points="346.02,-46.3 356.57,-45.27 347.68,-39.5 346.02,-46.3"/>
</a>
</g>
</g>
<!-- Node19&#45;&gt;Node2 -->
<g id="edge20_Node000019_Node000002" class="edge">
<title>Node19&#45;&gt;Node2</title>
<g id="a_edge20_Node000019_Node000002"><a xlink:title=" ">
<path fill="none" stroke="#63b8ff" d="M514.4,-178.66C499.37,-183.24 483.51,-188.08 468.98,-192.51"/>
<polygon fill="#63b8ff" stroke="#63b8ff" points="515.18,-182.08 523.73,-175.81 513.14,-175.38 515.18,-182.08"/>
</a>
</g>
</g>
<!-- Node20 -->
<g id="Node000020" class="node">
<title>Node20</title>
<g id="a_Node000020"><a xlink:href="class_fiea_1_1_engine_1_1_content_1_1_actions_1_1_while_action_list.html#a972d59921793e006691ec0c2f0f32a87" target="_top" xlink:title="Initial setup if any for the action.">
<polygon fill="white" stroke="#666666" points="488.25,-175 339.5,-175 339.5,-143 488.25,-143 488.25,-175"/>
<text text-anchor="start" x="347.5" y="-161.5" font-family="Helvetica,sans-Serif" font-size="10.00">Fiea::Engine::Content</text>
<text text-anchor="middle" x="413.88" y="-149.5" font-family="Helvetica,sans-Serif" font-size="10.00">::Actions::WhileActionList::Init</text>
</a>
</g>
</g>
<!-- Node19&#45;&gt;Node20 -->
<g id="edge21_Node000019_Node000020" class="edge">
<title>Node19&#45;&gt;Node20</title>
<g id="a_edge21_Node000019_Node000020"><a xlink:title=" ">
<path fill="none" stroke="#63b8ff" d="M512.51,-159C504.68,-159 496.66,-159 488.73,-159"/>
<polygon fill="#63b8ff" stroke="#63b8ff" points="512.3,-162.5 522.3,-159 512.3,-155.5 512.3,-162.5"/>
</a>
</g>
</g>
</g>
</svg>
