<?xml version="1.0" encoding="UTF-8" standalone="no"?>
<!DOCTYPE svg PUBLIC "-//W3C//DTD SVG 1.1//EN"
 "http://www.w3.org/Graphics/SVG/1.1/DTD/svg11.dtd">
<!-- Generated by graphviz version 12.2.1 (20241206.2353)
 -->
<!-- Title: Fiea::Engine::Content::Attributed::InstanceAttributes Pages: 1 -->
<svg width="709pt" height="171pt"
 viewBox="0.00 0.00 708.75 171.00" xmlns="http://www.w3.org/2000/svg" xmlns:xlink="http://www.w3.org/1999/xlink">
<g id="graph0" class="graph" transform="scale(1 1) rotate(0) translate(4 167)">
<title>Fiea::Engine::Content::Attributed::InstanceAttributes</title>
<!-- Node1 -->
<g id="Node000001" class="node">
<title>Node1</title>
<g id="a_Node000001"><a xlink:title=" ">
<polygon fill="#999999" stroke="#666666" points="149.5,-138 0,-138 0,-106 149.5,-106 149.5,-138"/>
<text text-anchor="start" x="8" y="-124.5" font-family="Helvetica,sans-Serif" font-size="10.00">Fiea::Engine::Content</text>
<text text-anchor="middle" x="74.75" y="-112.5" font-family="Helvetica,sans-Serif" font-size="10.00">::Attributed::InstanceAttributes</text>
</a>
</g>
</g>
<!-- Node2 -->
<g id="Node000002" class="node">
<title>Node2</title>
<g id="a_Node000002"><a xlink:href="class_fiea_1_1_engine_1_1_content_1_1_scope.html#a425074997d68415e416d74ac9d47e4b3" target="_top" xlink:title=" ">
<polygon fill="white" stroke="#666666" points="318.5,-163 205,-163 205,-131 318.5,-131 318.5,-163"/>
<text text-anchor="start" x="213" y="-149.5" font-family="Helvetica,sans-Serif" font-size="10.00">Fiea::Engine::Content</text>
<text text-anchor="middle" x="261.75" y="-137.5" font-family="Helvetica,sans-Serif" font-size="10.00">::Scope::GetAttributes</text>
</a>
</g>
</g>
<!-- Node1&#45;&gt;Node2 -->
<g id="edge1_Node000001_Node000002" class="edge">
<title>Node1&#45;&gt;Node2</title>
<g id="a_edge1_Node000001_Node000002"><a xlink:title=" ">
<path fill="none" stroke="#63b8ff" d="M149.93,-132.02C164.29,-133.96 179.26,-135.99 193.38,-137.9"/>
<polygon fill="#63b8ff" stroke="#63b8ff" points="192.62,-141.33 203,-139.2 193.56,-134.39 192.62,-141.33"/>
</a>
</g>
</g>
<!-- Node3 -->
<g id="Node000003" class="node">
<title>Node3</title>
<g id="a_Node000003"><a xlink:href="class_fiea_1_1_engine_1_1_content_1_1_attributed.html#adaed7bf877c03d16edb097acff6bd8ac" target="_top" xlink:title="Is the attribute added to the instance?">
<polygon fill="white" stroke="#666666" points="338,-113 185.5,-113 185.5,-81 338,-81 338,-113"/>
<text text-anchor="start" x="193.5" y="-99.5" font-family="Helvetica,sans-Serif" font-size="10.00">Fiea::Engine::Content</text>
<text text-anchor="middle" x="261.75" y="-87.5" font-family="Helvetica,sans-Serif" font-size="10.00">::Attributed::IsInstanceAttribute</text>
</a>
</g>
</g>
<!-- Node1&#45;&gt;Node3 -->
<g id="edge2_Node000001_Node000003" class="edge">
<title>Node1&#45;&gt;Node3</title>
<g id="a_edge2_Node000001_Node000003"><a xlink:title=" ">
<path fill="none" stroke="#63b8ff" d="M149.93,-111.98C157.79,-110.91 165.83,-109.83 173.81,-108.75"/>
<polygon fill="#63b8ff" stroke="#63b8ff" points="174.1,-112.24 183.54,-107.43 173.16,-105.3 174.1,-112.24"/>
</a>
</g>
</g>
<!-- Node4 -->
<g id="Node000004" class="node">
<title>Node4</title>
<g id="a_Node000004"><a xlink:href="class_fiea_1_1_engine_1_1_content_1_1_attributed.html#aa5969fb315f7ab6f858bde895196fe1f" target="_top" xlink:title="Is the string provided by the user an attribute.">
<polygon fill="white" stroke="#666666" points="501.75,-141 386.75,-141 386.75,-109 501.75,-109 501.75,-141"/>
<text text-anchor="start" x="394.75" y="-127.5" font-family="Helvetica,sans-Serif" font-size="10.00">Fiea::Engine::Content</text>
<text text-anchor="middle" x="444.25" y="-115.5" font-family="Helvetica,sans-Serif" font-size="10.00">::Attributed::IsAttribute</text>
</a>
</g>
</g>
<!-- Node3&#45;&gt;Node4 -->
<g id="edge3_Node000003_Node000004" class="edge">
<title>Node3&#45;&gt;Node4</title>
<g id="a_edge3_Node000003_Node000004"><a xlink:title=" ">
<path fill="none" stroke="#63b8ff" d="M338.25,-108.71C350.48,-110.61 363.08,-112.56 375.11,-114.43"/>
<polygon fill="#63b8ff" stroke="#63b8ff" points="374.54,-117.88 384.96,-115.96 375.61,-110.97 374.54,-117.88"/>
</a>
</g>
</g>
<!-- Node6 -->
<g id="Node000006" class="node">
<title>Node6</title>
<g id="a_Node000006"><a xlink:href="class_fiea_1_1_engine_1_1_content_1_1_attributed.html#a175ef1779adacec6434ea9bda35186bc" target="_top" xlink:title="Is the attribute part of the class defintion.">
<polygon fill="white" stroke="#666666" points="514.5,-88 374,-88 374,-56 514.5,-56 514.5,-88"/>
<text text-anchor="start" x="382" y="-74.5" font-family="Helvetica,sans-Serif" font-size="10.00">Fiea::Engine::Content</text>
<text text-anchor="middle" x="444.25" y="-62.5" font-family="Helvetica,sans-Serif" font-size="10.00">::Attributed::IsClassAttribute</text>
</a>
</g>
</g>
<!-- Node3&#45;&gt;Node6 -->
<g id="edge5_Node000003_Node000006" class="edge">
<title>Node3&#45;&gt;Node6</title>
<g id="a_edge5_Node000003_Node000006"><a xlink:title=" ">
<path fill="none" stroke="#63b8ff" d="M338.25,-86.54C346.2,-85.44 354.3,-84.32 362.3,-83.21"/>
<polygon fill="#63b8ff" stroke="#63b8ff" points="362.6,-86.7 372.03,-81.86 361.64,-79.77 362.6,-86.7"/>
</a>
</g>
</g>
<!-- Node5 -->
<g id="Node000005" class="node">
<title>Node5</title>
<g id="a_Node000005"><a xlink:href="class_fiea_1_1_engine_1_1_content_1_1_scope.html#ad924c01785b239991fc0e56a63295612" target="_top" xlink:title="Return the Datum at the requested key, or nullptr if not found.">
<polygon fill="white" stroke="#666666" points="681.25,-144 570,-144 570,-112 681.25,-112 681.25,-144"/>
<text text-anchor="start" x="578" y="-130.5" font-family="Helvetica,sans-Serif" font-size="10.00">Fiea::Engine::Content</text>
<text text-anchor="middle" x="625.62" y="-118.5" font-family="Helvetica,sans-Serif" font-size="10.00">::Scope::Find</text>
</a>
</g>
</g>
<!-- Node4&#45;&gt;Node5 -->
<g id="edge4_Node000004_Node000005" class="edge">
<title>Node4&#45;&gt;Node5</title>
<g id="a_edge4_Node000004_Node000005"><a xlink:title=" ">
<path fill="none" stroke="#63b8ff" d="M502.01,-125.95C519.94,-126.25 539.91,-126.58 558.45,-126.89"/>
<polygon fill="#63b8ff" stroke="#63b8ff" points="558.2,-130.39 568.26,-127.06 558.32,-123.39 558.2,-130.39"/>
</a>
</g>
</g>
<!-- Node7 -->
<g id="Node000007" class="node">
<title>Node7</title>
<g id="a_Node000007"><a xlink:href="struct_fiea_1_1_engine_1_1_content_1_1_i_type_provider.html#acf000f8d213c81f746d8e6f19c7b12f4" target="_top" xlink:title=" ">
<polygon fill="white" stroke="#666666" points="700.75,-94 550.5,-94 550.5,-50 700.75,-50 700.75,-94"/>
<text text-anchor="start" x="558.5" y="-80.5" font-family="Helvetica,sans-Serif" font-size="10.00">Fiea::Engine::Content</text>
<text text-anchor="start" x="558.5" y="-68.5" font-family="Helvetica,sans-Serif" font-size="10.00">::ITypeProvider::RetrieveClass</text>
<text text-anchor="middle" x="625.62" y="-56.5" font-family="Helvetica,sans-Serif" font-size="10.00">Definition</text>
</a>
</g>
</g>
<!-- Node6&#45;&gt;Node7 -->
<g id="edge6_Node000006_Node000007" class="edge">
<title>Node6&#45;&gt;Node7</title>
<g id="a_edge6_Node000006_Node000007"><a xlink:title=" ">
<path fill="none" stroke="#63b8ff" d="M514.86,-72C522.69,-72 530.74,-72 538.74,-72"/>
<polygon fill="#63b8ff" stroke="#63b8ff" points="538.49,-75.5 548.49,-72 538.49,-68.5 538.49,-75.5"/>
</a>
</g>
</g>
<!-- Node8 -->
<g id="Node000008" class="node">
<title>Node8</title>
<g id="a_Node000008"><a xlink:href="class_fiea_1_1_engine_1_1_r_t_t_i.html#a876bebbe7b3149483c43a87f55f4ea99" target="_top" xlink:title=" ">
<polygon fill="white" stroke="#666666" points="674.88,-32 576.38,-32 576.38,0 674.88,0 674.88,-32"/>
<text text-anchor="start" x="584.38" y="-18.5" font-family="Helvetica,sans-Serif" font-size="10.00">Fiea::Engine::RTTI</text>
<text text-anchor="middle" x="625.62" y="-6.5" font-family="Helvetica,sans-Serif" font-size="10.00">::TypeIdInstance</text>
</a>
</g>
</g>
<!-- Node6&#45;&gt;Node8 -->
<g id="edge7_Node000006_Node000008" class="edge">
<title>Node6&#45;&gt;Node8</title>
<g id="a_edge7_Node000006_Node000008"><a xlink:title=" ">
<path fill="none" stroke="#63b8ff" d="M498.1,-55.5C519.23,-48.9 543.66,-41.28 565.38,-34.49"/>
<polygon fill="#63b8ff" stroke="#63b8ff" points="566.19,-37.91 574.69,-31.59 564.1,-31.23 566.19,-37.91"/>
</a>
</g>
</g>
</g>
</svg>
