<?xml version="1.0" encoding="UTF-8" standalone="no"?>
<!DOCTYPE svg PUBLIC "-//W3C//DTD SVG 1.1//EN"
 "http://www.w3.org/Graphics/SVG/1.1/DTD/svg11.dtd">
<!-- Generated by graphviz version 12.2.1 (20241206.2353)
 -->
<!-- Title: Fiea::Engine::Content::Actions::Action::Equals Pages: 1 -->
<svg width="434pt" height="78pt"
 viewBox="0.00 0.00 434.00 78.00" xmlns="http://www.w3.org/2000/svg" xmlns:xlink="http://www.w3.org/1999/xlink">
<g id="graph0" class="graph" transform="scale(1 1) rotate(0) translate(4 74)">
<title>Fiea::Engine::Content::Actions::Action::Equals</title>
<!-- Node1 -->
<g id="Node000001" class="node">
<title>Node1</title>
<g id="a_Node000001"><a xlink:title="virtual function part of the vtable pointer. We are calling in the equality operator overloaded funct...">
<polygon fill="#999999" stroke="#666666" points="124.75,-54 0,-54 0,-22 124.75,-22 124.75,-54"/>
<text text-anchor="start" x="8" y="-40.5" font-family="Helvetica,sans-Serif" font-size="10.00">Fiea::Engine::Content</text>
<text text-anchor="middle" x="62.38" y="-28.5" font-family="Helvetica,sans-Serif" font-size="10.00">::Actions::Action::Equals</text>
</a>
</g>
</g>
<!-- Node2 -->
<g id="Node000002" class="node">
<title>Node2</title>
<g id="a_Node000002"><a xlink:href="class_fiea_1_1_engine_1_1_r_t_t_i.html#a15bd5993c8ad04da47af440298ebbb30" target="_top" xlink:title=" ">
<polygon fill="white" stroke="#666666" points="277.25,-70 160.75,-70 160.75,-50 277.25,-50 277.25,-70"/>
<text text-anchor="middle" x="219" y="-56.5" font-family="Helvetica,sans-Serif" font-size="10.00">Fiea::Engine::RTTI::As</text>
</a>
</g>
</g>
<!-- Node1&#45;&gt;Node2 -->
<g id="edge1_Node000001_Node000002" class="edge">
<title>Node1&#45;&gt;Node2</title>
<g id="a_edge1_Node000001_Node000002"><a xlink:title=" ">
<path fill="none" stroke="#63b8ff" d="M124.93,-46.76C132.95,-47.9 141.19,-49.07 149.32,-50.23"/>
<polygon fill="#63b8ff" stroke="#63b8ff" points="148.78,-53.69 159.18,-51.63 149.77,-46.76 148.78,-53.69"/>
</a>
</g>
</g>
<!-- Node4 -->
<g id="Node000004" class="node">
<title>Node4</title>
<g id="a_Node000004"><a xlink:href="class_fiea_1_1_engine_1_1_r_t_t_i.html#a876bebbe7b3149483c43a87f55f4ea99" target="_top" xlink:title=" ">
<polygon fill="white" stroke="#666666" points="268.25,-32 169.75,-32 169.75,0 268.25,0 268.25,-32"/>
<text text-anchor="start" x="177.75" y="-18.5" font-family="Helvetica,sans-Serif" font-size="10.00">Fiea::Engine::RTTI</text>
<text text-anchor="middle" x="219" y="-6.5" font-family="Helvetica,sans-Serif" font-size="10.00">::TypeIdInstance</text>
</a>
</g>
</g>
<!-- Node1&#45;&gt;Node4 -->
<g id="edge3_Node000001_Node000004" class="edge">
<title>Node1&#45;&gt;Node4</title>
<g id="a_edge3_Node000001_Node000004"><a xlink:title=" ">
<path fill="none" stroke="#63b8ff" d="M124.93,-29.24C135.93,-27.68 147.38,-26.05 158.32,-24.49"/>
<polygon fill="#63b8ff" stroke="#63b8ff" points="158.61,-27.99 168.01,-23.11 157.62,-21.06 158.61,-27.99"/>
</a>
</g>
</g>
<!-- Node3 -->
<g id="Node000003" class="node">
<title>Node3</title>
<g id="a_Node000003"><a xlink:href="class_fiea_1_1_engine_1_1_r_t_t_i.html#ac0a7d875e4513b2aca7594abcd4418ef" target="_top" xlink:title=" ">
<polygon fill="white" stroke="#666666" points="426,-70 313.25,-70 313.25,-50 426,-50 426,-70"/>
<text text-anchor="middle" x="369.62" y="-56.5" font-family="Helvetica,sans-Serif" font-size="10.00">Fiea::Engine::RTTI::Is</text>
</a>
</g>
</g>
<!-- Node2&#45;&gt;Node3 -->
<g id="edge2_Node000002_Node000003" class="edge">
<title>Node2&#45;&gt;Node3</title>
<g id="a_edge2_Node000002_Node000003"><a xlink:title=" ">
<path fill="none" stroke="#63b8ff" d="M277.46,-60C285.35,-60 293.5,-60 301.53,-60"/>
<polygon fill="#63b8ff" stroke="#63b8ff" points="301.27,-63.5 311.27,-60 301.27,-56.5 301.27,-63.5"/>
</a>
</g>
</g>
</g>
</svg>
