<?xml version="1.0" encoding="UTF-8" standalone="no"?>
<!DOCTYPE svg PUBLIC "-//W3C//DTD SVG 1.1//EN"
 "http://www.w3.org/Graphics/SVG/1.1/DTD/svg11.dtd">
<!-- Generated by graphviz version 12.2.1 (20241206.2353)
 -->
<!-- Title: Fiea::Engine::Content::Attributed::IsClassAttribute Pages: 1 -->
<svg width="659pt" height="228pt"
 viewBox="0.00 0.00 659.25 228.00" xmlns="http://www.w3.org/2000/svg" xmlns:xlink="http://www.w3.org/1999/xlink">
<g id="graph0" class="graph" transform="scale(1 1) rotate(0) translate(4 224)">
<title>Fiea::Engine::Content::Attributed::IsClassAttribute</title>
<!-- Node1 -->
<g id="Node000001" class="node">
<title>Node1</title>
<g id="a_Node000001"><a xlink:title="Is the attribute part of the class defintion.">
<polygon fill="#999999" stroke="#666666" points="651.25,-142 510.75,-142 510.75,-110 651.25,-110 651.25,-142"/>
<text text-anchor="start" x="518.75" y="-128.5" font-family="Helvetica,sans-Serif" font-size="10.00">Fiea::Engine::Content</text>
<text text-anchor="middle" x="581" y="-116.5" font-family="Helvetica,sans-Serif" font-size="10.00">::Attributed::IsClassAttribute</text>
</a>
</g>
</g>
<!-- Node2 -->
<g id="Node000002" class="node">
<title>Node2</title>
<g id="a_Node000002"><a xlink:href="class_fiea_1_1_engine_1_1_content_1_1_attributed.html#a34651717762643ed0dc822db143f7a46" target="_top" xlink:title="Append instance attribute from code.">
<polygon fill="white" stroke="#666666" points="468.75,-220 328.25,-220 328.25,-176 468.75,-176 468.75,-220"/>
<text text-anchor="start" x="336.25" y="-206.5" font-family="Helvetica,sans-Serif" font-size="10.00">Fiea::Engine::Content</text>
<text text-anchor="start" x="336.25" y="-194.5" font-family="Helvetica,sans-Serif" font-size="10.00">::Attributed::AppendInstance</text>
<text text-anchor="middle" x="398.5" y="-182.5" font-family="Helvetica,sans-Serif" font-size="10.00">Attribute</text>
</a>
</g>
</g>
<!-- Node1&#45;&gt;Node2 -->
<g id="edge1_Node000001_Node000002" class="edge">
<title>Node1&#45;&gt;Node2</title>
<g id="a_edge1_Node000001_Node000002"><a xlink:title=" ">
<path fill="none" stroke="#63b8ff" d="M528.56,-146.52C505.8,-155.6 478.97,-166.3 455.69,-175.59"/>
<polygon fill="#63b8ff" stroke="#63b8ff" points="529.64,-149.85 537.64,-142.9 527.05,-143.35 529.64,-149.85"/>
</a>
</g>
</g>
<!-- Node3 -->
<g id="Node000003" class="node">
<title>Node3</title>
<g id="a_Node000003"><a xlink:href="namespace_fiea_1_1_engine_1_1_tests.html#acf19d1e24b6e04bb3eefd39b994f462d" target="_top" xlink:title=" ">
<polygon fill="white" stroke="#666666" points="100.75,-120 0,-120 0,-88 100.75,-88 100.75,-120"/>
<text text-anchor="start" x="8" y="-106.5" font-family="Helvetica,sans-Serif" font-size="10.00">Fiea::Engine::Tests</text>
<text text-anchor="middle" x="50.38" y="-94.5" font-family="Helvetica,sans-Serif" font-size="10.00">::TEST_CLASS</text>
</a>
</g>
</g>
<!-- Node1&#45;&gt;Node3 -->
<g id="edge9_Node000001_Node000003" class="edge">
<title>Node1&#45;&gt;Node3</title>
<g id="a_edge9_Node000001_Node000003"><a xlink:title=" ">
<path fill="none" stroke="#63b8ff" d="M498.88,-128.54C490.73,-128.73 482.58,-128.89 474.75,-129 324.54,-131.14 285.45,-150.32 136.75,-129 124.21,-127.2 110.95,-123.99 98.71,-120.46"/>
<polygon fill="#63b8ff" stroke="#63b8ff" points="498.95,-132.04 508.86,-128.3 498.77,-125.05 498.95,-132.04"/>
</a>
</g>
</g>
<!-- Node4 -->
<g id="Node000004" class="node">
<title>Node4</title>
<g id="a_Node000004"><a xlink:href="class_fiea_1_1_engine_1_1_content_1_1_attributed.html#a11d0f196f168577da9dfc5d9062b5298" target="_top" xlink:title="Returns the attributes that belong to the class by definition.">
<polygon fill="white" stroke="#666666" points="280.25,-120 142.75,-120 142.75,-88 280.25,-88 280.25,-120"/>
<text text-anchor="start" x="150.75" y="-106.5" font-family="Helvetica,sans-Serif" font-size="10.00">Fiea::Engine::Content</text>
<text text-anchor="middle" x="211.5" y="-94.5" font-family="Helvetica,sans-Serif" font-size="10.00">::Attributed::ClassAttributes</text>
</a>
</g>
</g>
<!-- Node1&#45;&gt;Node4 -->
<g id="edge3_Node000001_Node000004" class="edge">
<title>Node1&#45;&gt;Node4</title>
<g id="a_edge3_Node000001_Node000004"><a xlink:title=" ">
<path fill="none" stroke="#63b8ff" d="M499.34,-121.17C433.81,-117.25 342.41,-111.78 280.53,-108.07"/>
<polygon fill="#63b8ff" stroke="#63b8ff" points="498.74,-124.64 508.93,-121.75 499.16,-117.65 498.74,-124.64"/>
</a>
</g>
</g>
<!-- Node5 -->
<g id="Node000005" class="node">
<title>Node5</title>
<g id="a_Node000005"><a xlink:href="class_fiea_1_1_engine_1_1_content_1_1_attributed.html#adaed7bf877c03d16edb097acff6bd8ac" target="_top" xlink:title="Is the attribute added to the instance?">
<polygon fill="white" stroke="#666666" points="474.75,-76 322.25,-76 322.25,-44 474.75,-44 474.75,-76"/>
<text text-anchor="start" x="330.25" y="-62.5" font-family="Helvetica,sans-Serif" font-size="10.00">Fiea::Engine::Content</text>
<text text-anchor="middle" x="398.5" y="-50.5" font-family="Helvetica,sans-Serif" font-size="10.00">::Attributed::IsInstanceAttribute</text>
</a>
</g>
</g>
<!-- Node1&#45;&gt;Node5 -->
<g id="edge5_Node000001_Node000005" class="edge">
<title>Node1&#45;&gt;Node5</title>
<g id="a_edge5_Node000001_Node000005"><a xlink:title=" ">
<path fill="none" stroke="#63b8ff" d="M524.21,-105.6C498.54,-96.21 468.49,-85.23 444.32,-76.39"/>
<polygon fill="#63b8ff" stroke="#63b8ff" points="522.9,-108.85 533.5,-109 525.31,-102.27 522.9,-108.85"/>
</a>
</g>
</g>
<!-- Node2&#45;&gt;Node3 -->
<g id="edge2_Node000002_Node000003" class="edge">
<title>Node2&#45;&gt;Node3</title>
<g id="a_edge2_Node000002_Node000003"><a xlink:title=" ">
<path fill="none" stroke="#63b8ff" d="M316.51,-196.32C263.79,-192.95 194.37,-184.15 136.75,-162 111.49,-152.29 86.33,-133.86 69.93,-120.37"/>
<polygon fill="#63b8ff" stroke="#63b8ff" points="316.13,-199.8 326.32,-196.89 316.54,-192.81 316.13,-199.8"/>
</a>
</g>
</g>
<!-- Node4&#45;&gt;Node3 -->
<g id="edge4_Node000004_Node000003" class="edge">
<title>Node4&#45;&gt;Node3</title>
<g id="a_edge4_Node000004_Node000003"><a xlink:title=" ">
<path fill="none" stroke="#63b8ff" d="M131.31,-104C120.91,-104 110.51,-104 100.8,-104"/>
<polygon fill="#63b8ff" stroke="#63b8ff" points="131.04,-107.5 141.04,-104 131.04,-100.5 131.04,-107.5"/>
</a>
</g>
</g>
<!-- Node5&#45;&gt;Node3 -->
<g id="edge8_Node000005_Node000003" class="edge">
<title>Node5&#45;&gt;Node3</title>
<g id="a_edge8_Node000005_Node000003"><a xlink:title=" ">
<path fill="none" stroke="#63b8ff" d="M310.63,-61.72C259.65,-63.88 194.16,-68.62 136.75,-79 125.05,-81.12 112.66,-84.22 101.06,-87.53"/>
<polygon fill="#63b8ff" stroke="#63b8ff" points="310.58,-65.23 320.43,-61.34 310.3,-58.23 310.58,-65.23"/>
</a>
</g>
</g>
<!-- Node6 -->
<g id="Node000006" class="node">
<title>Node6</title>
<g id="a_Node000006"><a xlink:href="class_fiea_1_1_engine_1_1_content_1_1_attributed.html#a765ff8b9803452293255177e43f5e6f3" target="_top" xlink:title=" ">
<polygon fill="white" stroke="#666666" points="286.25,-32 136.75,-32 136.75,0 286.25,0 286.25,-32"/>
<text text-anchor="start" x="144.75" y="-18.5" font-family="Helvetica,sans-Serif" font-size="10.00">Fiea::Engine::Content</text>
<text text-anchor="middle" x="211.5" y="-6.5" font-family="Helvetica,sans-Serif" font-size="10.00">::Attributed::InstanceAttributes</text>
</a>
</g>
</g>
<!-- Node5&#45;&gt;Node6 -->
<g id="edge6_Node000005_Node000006" class="edge">
<title>Node5&#45;&gt;Node6</title>
<g id="a_edge6_Node000005_Node000006"><a xlink:title=" ">
<path fill="none" stroke="#63b8ff" d="M317.18,-40.9C305.42,-38.1 293.39,-35.24 281.87,-32.5"/>
<polygon fill="#63b8ff" stroke="#63b8ff" points="316.34,-44.29 326.88,-43.2 317.96,-37.48 316.34,-44.29"/>
</a>
</g>
</g>
<!-- Node6&#45;&gt;Node3 -->
<g id="edge7_Node000006_Node000003" class="edge">
<title>Node6&#45;&gt;Node3</title>
<g id="a_edge7_Node000006_Node000003"><a xlink:title=" ">
<path fill="none" stroke="#63b8ff" d="M155.62,-36.81C149.17,-39.7 142.75,-42.79 136.75,-46 113.84,-58.26 89.5,-75.24 72.69,-87.66"/>
<polygon fill="#63b8ff" stroke="#63b8ff" points="156.55,-40.22 164.35,-33.05 153.78,-33.8 156.55,-40.22"/>
</a>
</g>
</g>
</g>
</svg>
