<?xml version="1.0" encoding="UTF-8" standalone="no"?>
<!DOCTYPE svg PUBLIC "-//W3C//DTD SVG 1.1//EN"
 "http://www.w3.org/Graphics/SVG/1.1/DTD/svg11.dtd">
<!-- Generated by graphviz version 12.2.1 (20241206.2353)
 -->
<!-- Title: Fiea::Engine::Content::Attributed::AppendInstanceAttribute Pages: 1 -->
<svg width="511pt" height="118pt"
 viewBox="0.00 0.00 511.25 118.00" xmlns="http://www.w3.org/2000/svg" xmlns:xlink="http://www.w3.org/1999/xlink">
<g id="graph0" class="graph" transform="scale(1 1) rotate(0) translate(4 114)">
<title>Fiea::Engine::Content::Attributed::AppendInstanceAttribute</title>
<!-- Node1 -->
<g id="Node000001" class="node">
<title>Node1</title>
<g id="a_Node000001"><a xlink:title="Append instance attribute from code.">
<polygon fill="#999999" stroke="#666666" points="140.5,-91 0,-91 0,-47 140.5,-47 140.5,-91"/>
<text text-anchor="start" x="8" y="-77.5" font-family="Helvetica,sans-Serif" font-size="10.00">Fiea::Engine::Content</text>
<text text-anchor="start" x="8" y="-65.5" font-family="Helvetica,sans-Serif" font-size="10.00">::Attributed::AppendInstance</text>
<text text-anchor="middle" x="70.25" y="-53.5" font-family="Helvetica,sans-Serif" font-size="10.00">Attribute</text>
</a>
</g>
</g>
<!-- Node2 -->
<g id="Node000002" class="node">
<title>Node2</title>
<g id="a_Node000002"><a xlink:href="class_fiea_1_1_engine_1_1_content_1_1_scope.html#aa91d6470fd3d3f402bbb2e765be54455" target="_top" xlink:title="Return a reference to the Datum at this key. create a new Datum, if one is not found.">
<polygon fill="white" stroke="#666666" points="302.38,-110 191.12,-110 191.12,-78 302.38,-78 302.38,-110"/>
<text text-anchor="start" x="199.12" y="-96.5" font-family="Helvetica,sans-Serif" font-size="10.00">Fiea::Engine::Content</text>
<text text-anchor="middle" x="246.75" y="-84.5" font-family="Helvetica,sans-Serif" font-size="10.00">::Scope::Append</text>
</a>
</g>
</g>
<!-- Node1&#45;&gt;Node2 -->
<g id="edge1_Node000001_Node000002" class="edge">
<title>Node1&#45;&gt;Node2</title>
<g id="a_edge1_Node000001_Node000002"><a xlink:title=" ">
<path fill="none" stroke="#63b8ff" d="M140.97,-78.99C153.62,-80.8 166.78,-82.69 179.32,-84.48"/>
<polygon fill="#63b8ff" stroke="#63b8ff" points="178.75,-87.94 189.15,-85.89 179.74,-81.01 178.75,-87.94"/>
</a>
</g>
</g>
<!-- Node3 -->
<g id="Node000003" class="node">
<title>Node3</title>
<g id="a_Node000003"><a xlink:href="class_fiea_1_1_engine_1_1_content_1_1_attributed.html#a175ef1779adacec6434ea9bda35186bc" target="_top" xlink:title="Is the attribute part of the class defintion.">
<polygon fill="white" stroke="#666666" points="317,-60 176.5,-60 176.5,-28 317,-28 317,-60"/>
<text text-anchor="start" x="184.5" y="-46.5" font-family="Helvetica,sans-Serif" font-size="10.00">Fiea::Engine::Content</text>
<text text-anchor="middle" x="246.75" y="-34.5" font-family="Helvetica,sans-Serif" font-size="10.00">::Attributed::IsClassAttribute</text>
</a>
</g>
</g>
<!-- Node1&#45;&gt;Node3 -->
<g id="edge2_Node000001_Node000003" class="edge">
<title>Node1&#45;&gt;Node3</title>
<g id="a_edge2_Node000001_Node000003"><a xlink:title=" ">
<path fill="none" stroke="#63b8ff" d="M140.97,-59.01C148.84,-57.88 156.91,-56.73 164.91,-55.58"/>
<polygon fill="#63b8ff" stroke="#63b8ff" points="165.24,-59.07 174.64,-54.19 164.25,-52.14 165.24,-59.07"/>
</a>
</g>
</g>
<!-- Node4 -->
<g id="Node000004" class="node">
<title>Node4</title>
<g id="a_Node000004"><a xlink:href="struct_fiea_1_1_engine_1_1_content_1_1_i_type_provider.html#acf000f8d213c81f746d8e6f19c7b12f4" target="_top" xlink:title=" ">
<polygon fill="white" stroke="#666666" points="503.25,-94 353,-94 353,-50 503.25,-50 503.25,-94"/>
<text text-anchor="start" x="361" y="-80.5" font-family="Helvetica,sans-Serif" font-size="10.00">Fiea::Engine::Content</text>
<text text-anchor="start" x="361" y="-68.5" font-family="Helvetica,sans-Serif" font-size="10.00">::ITypeProvider::RetrieveClass</text>
<text text-anchor="middle" x="428.12" y="-56.5" font-family="Helvetica,sans-Serif" font-size="10.00">Definition</text>
</a>
</g>
</g>
<!-- Node3&#45;&gt;Node4 -->
<g id="edge3_Node000003_Node000004" class="edge">
<title>Node3&#45;&gt;Node4</title>
<g id="a_edge3_Node000003_Node000004"><a xlink:title=" ">
<path fill="none" stroke="#63b8ff" d="M317.36,-54.87C325.19,-56.09 333.24,-57.34 341.24,-58.59"/>
<polygon fill="#63b8ff" stroke="#63b8ff" points="340.59,-62.03 351.01,-60.12 341.67,-55.12 340.59,-62.03"/>
</a>
</g>
</g>
<!-- Node5 -->
<g id="Node000005" class="node">
<title>Node5</title>
<g id="a_Node000005"><a xlink:href="class_fiea_1_1_engine_1_1_r_t_t_i.html#a876bebbe7b3149483c43a87f55f4ea99" target="_top" xlink:title=" ">
<polygon fill="white" stroke="#666666" points="477.38,-32 378.88,-32 378.88,0 477.38,0 477.38,-32"/>
<text text-anchor="start" x="386.88" y="-18.5" font-family="Helvetica,sans-Serif" font-size="10.00">Fiea::Engine::RTTI</text>
<text text-anchor="middle" x="428.12" y="-6.5" font-family="Helvetica,sans-Serif" font-size="10.00">::TypeIdInstance</text>
</a>
</g>
</g>
<!-- Node3&#45;&gt;Node5 -->
<g id="edge4_Node000003_Node000005" class="edge">
<title>Node3&#45;&gt;Node5</title>
<g id="a_edge4_Node000003_Node000005"><a xlink:title=" ">
<path fill="none" stroke="#63b8ff" d="M317.36,-33.13C333.76,-30.57 351.11,-27.87 367.05,-25.38"/>
<polygon fill="#63b8ff" stroke="#63b8ff" points="367.54,-28.84 376.88,-23.84 366.46,-21.93 367.54,-28.84"/>
</a>
</g>
</g>
</g>
</svg>
