<?xml version="1.0" encoding="UTF-8" standalone="no"?>
<!DOCTYPE svg PUBLIC "-//W3C//DTD SVG 1.1//EN"
 "http://www.w3.org/Graphics/SVG/1.1/DTD/svg11.dtd">
<!-- Generated by graphviz version 12.2.1 (20241206.2353)
 -->
<!-- Title: Fiea::Engine::Content::ParseWriter::IncrementDepth Pages: 1 -->
<svg width="323pt" height="226pt"
 viewBox="0.00 0.00 322.75 226.00" xmlns="http://www.w3.org/2000/svg" xmlns:xlink="http://www.w3.org/1999/xlink">
<g id="graph0" class="graph" transform="scale(1 1) rotate(0) translate(4 222)">
<title>Fiea::Engine::Content::ParseWriter::IncrementDepth</title>
<!-- Node1 -->
<g id="Node000001" class="node">
<title>Node1</title>
<g id="a_Node000001"><a xlink:title=" ">
<polygon fill="#999999" stroke="#666666" points="314.75,-131 166,-131 166,-99 314.75,-99 314.75,-131"/>
<text text-anchor="start" x="174" y="-117.5" font-family="Helvetica,sans-Serif" font-size="10.00">Fiea::Engine::Content</text>
<text text-anchor="middle" x="240.38" y="-105.5" font-family="Helvetica,sans-Serif" font-size="10.00">::ParseWriter::IncrementDepth</text>
</a>
</g>
</g>
<!-- Node2 -->
<g id="Node000002" class="node">
<title>Node2</title>
<g id="a_Node000002"><a xlink:href="class_fiea_1_1_engine_1_1_content_1_1_action_handler.html#a392af20cfeb37d539b88183bc9672f7a" target="_top" xlink:title=" ">
<polygon fill="white" stroke="#666666" points="130,-218 0,-218 0,-186 130,-186 130,-218"/>
<text text-anchor="start" x="8" y="-204.5" font-family="Helvetica,sans-Serif" font-size="10.00">Fiea::Engine::Content</text>
<text text-anchor="middle" x="65" y="-192.5" font-family="Helvetica,sans-Serif" font-size="10.00">::ActionHandler::EnterKey</text>
</a>
</g>
</g>
<!-- Node1&#45;&gt;Node2 -->
<g id="edge1_Node000001_Node000002" class="edge">
<title>Node1&#45;&gt;Node2</title>
<g id="a_edge1_Node000001_Node000002"><a xlink:title=" ">
<path fill="none" stroke="#63b8ff" d="M203.21,-137.24C182.23,-149.69 155.07,-165.07 130,-177 123.75,-179.97 117.05,-182.88 110.42,-185.6"/>
<polygon fill="#63b8ff" stroke="#63b8ff" points="204.9,-140.3 211.68,-132.16 201.3,-134.3 204.9,-140.3"/>
</a>
</g>
</g>
<!-- Node3 -->
<g id="Node000003" class="node">
<title>Node3</title>
<g id="a_Node000003"><a xlink:href="class_fiea_1_1_engine_1_1_content_1_1_action_list_handler.html#ae0f8b6534bcf602df112f39202c79ecc" target="_top" xlink:title=" ">
<polygon fill="white" stroke="#666666" points="120.62,-168 9.38,-168 9.38,-124 120.62,-124 120.62,-168"/>
<text text-anchor="start" x="17.38" y="-154.5" font-family="Helvetica,sans-Serif" font-size="10.00">Fiea::Engine::Content</text>
<text text-anchor="start" x="17.38" y="-142.5" font-family="Helvetica,sans-Serif" font-size="10.00">::ActionListHandler::</text>
<text text-anchor="middle" x="65" y="-130.5" font-family="Helvetica,sans-Serif" font-size="10.00">EnterKey</text>
</a>
</g>
</g>
<!-- Node1&#45;&gt;Node3 -->
<g id="edge2_Node000001_Node000003" class="edge">
<title>Node1&#45;&gt;Node3</title>
<g id="a_edge2_Node000001_Node000003"><a xlink:title=" ">
<path fill="none" stroke="#63b8ff" d="M154.33,-130.21C143.02,-132.23 131.68,-134.26 121.06,-136.15"/>
<polygon fill="#63b8ff" stroke="#63b8ff" points="154.88,-133.66 164.11,-128.46 153.65,-126.77 154.88,-133.66"/>
</a>
</g>
</g>
<!-- Node4 -->
<g id="Node000004" class="node">
<title>Node4</title>
<g id="a_Node000004"><a xlink:href="class_fiea_1_1_engine_1_1_content_1_1_game_object_handler.html#a626573aebcd7beceb84dbd69bc15105b" target="_top" xlink:title="This handler is specifically for handling any game objects in json and also does some checks to ensur...">
<polygon fill="white" stroke="#666666" points="123.25,-106 6.75,-106 6.75,-62 123.25,-62 123.25,-106"/>
<text text-anchor="start" x="14.75" y="-92.5" font-family="Helvetica,sans-Serif" font-size="10.00">Fiea::Engine::Content</text>
<text text-anchor="start" x="14.75" y="-80.5" font-family="Helvetica,sans-Serif" font-size="10.00">::GameObjectHandler::</text>
<text text-anchor="middle" x="65" y="-68.5" font-family="Helvetica,sans-Serif" font-size="10.00">EnterKey</text>
</a>
</g>
</g>
<!-- Node1&#45;&gt;Node4 -->
<g id="edge3_Node000001_Node000004" class="edge">
<title>Node1&#45;&gt;Node4</title>
<g id="a_edge3_Node000001_Node000004"><a xlink:title=" ">
<path fill="none" stroke="#63b8ff" d="M154.36,-99.8C143.98,-97.94 133.55,-96.08 123.7,-94.32"/>
<polygon fill="#63b8ff" stroke="#63b8ff" points="153.65,-103.23 164.11,-101.54 154.88,-96.34 153.65,-103.23"/>
</a>
</g>
</g>
<!-- Node5 -->
<g id="Node000005" class="node">
<title>Node5</title>
<g id="a_Node000005"><a xlink:href="class_fiea_1_1_engine_1_1_content_1_1_scope_parse_handler.html#a51138cf4e0b638b95c73b4a5acd68842" target="_top" xlink:title=" ">
<polygon fill="white" stroke="#666666" points="122.5,-44 7.5,-44 7.5,0 122.5,0 122.5,-44"/>
<text text-anchor="start" x="15.5" y="-30.5" font-family="Helvetica,sans-Serif" font-size="10.00">Fiea::Engine::Content</text>
<text text-anchor="start" x="15.5" y="-18.5" font-family="Helvetica,sans-Serif" font-size="10.00">::ScopeParseHandler::</text>
<text text-anchor="middle" x="65" y="-6.5" font-family="Helvetica,sans-Serif" font-size="10.00">EnterKey</text>
</a>
</g>
</g>
<!-- Node1&#45;&gt;Node5 -->
<g id="edge4_Node000001_Node000005" class="edge">
<title>Node1&#45;&gt;Node5</title>
<g id="a_edge4_Node000001_Node000005"><a xlink:title=" ">
<path fill="none" stroke="#63b8ff" d="M201.98,-93.01C181,-80.87 154.25,-65.73 130,-53 124.53,-50.13 118.76,-47.2 113.01,-44.34"/>
<polygon fill="#63b8ff" stroke="#63b8ff" points="200.06,-95.94 210.47,-97.94 203.58,-89.89 200.06,-95.94"/>
</a>
</g>
</g>
</g>
</svg>
