<?xml version="1.0" encoding="UTF-8" standalone="no"?>
<!DOCTYPE svg PUBLIC "-//W3C//DTD SVG 1.1//EN"
 "http://www.w3.org/Graphics/SVG/1.1/DTD/svg11.dtd">
<!-- Generated by graphviz version 12.2.1 (20241206.2353)
 -->
<!-- Title: Fiea::Engine::Content::ParseWriter::Depth Pages: 1 -->
<svg width="436pt" height="176pt"
 viewBox="0.00 0.00 436.25 176.00" xmlns="http://www.w3.org/2000/svg" xmlns:xlink="http://www.w3.org/1999/xlink">
<g id="graph0" class="graph" transform="scale(1 1) rotate(0) translate(4 172)">
<title>Fiea::Engine::Content::ParseWriter::Depth</title>
<!-- Node1 -->
<g id="Node000001" class="node">
<title>Node1</title>
<g id="a_Node000001"><a xlink:title=" ">
<polygon fill="#999999" stroke="#666666" points="428.25,-100 317,-100 317,-68 428.25,-68 428.25,-100"/>
<text text-anchor="start" x="325" y="-86.5" font-family="Helvetica,sans-Serif" font-size="10.00">Fiea::Engine::Content</text>
<text text-anchor="middle" x="372.62" y="-74.5" font-family="Helvetica,sans-Serif" font-size="10.00">::ParseWriter::Depth</text>
</a>
</g>
</g>
<!-- Node2 -->
<g id="Node000002" class="node">
<title>Node2</title>
<g id="a_Node000002"><a xlink:href="class_fiea_1_1_engine_1_1_tests_1_1_support_1_1_test_writer.html#adbe6f9a50f8d8169e527027ec6d9bada" target="_top" xlink:title=" ">
<polygon fill="white" stroke="#666666" points="281,-168 175,-168 175,-124 281,-124 281,-168"/>
<text text-anchor="start" x="183" y="-154.5" font-family="Helvetica,sans-Serif" font-size="10.00">Fiea::Engine::Tests</text>
<text text-anchor="start" x="183" y="-142.5" font-family="Helvetica,sans-Serif" font-size="10.00">::Support::TestWriter</text>
<text text-anchor="middle" x="228" y="-130.5" font-family="Helvetica,sans-Serif" font-size="10.00">::RecordFloat</text>
</a>
</g>
</g>
<!-- Node1&#45;&gt;Node2 -->
<g id="edge1_Node000001_Node000002" class="edge">
<title>Node1&#45;&gt;Node2</title>
<g id="a_edge1_Node000001_Node000002"><a xlink:title=" ">
<path fill="none" stroke="#63b8ff" d="M323.54,-104.9C309.77,-110.89 294.7,-117.44 280.72,-123.52"/>
<polygon fill="#63b8ff" stroke="#63b8ff" points="324.61,-108.25 332.39,-101.06 321.82,-101.83 324.61,-108.25"/>
</a>
</g>
</g>
<!-- Node4 -->
<g id="Node000004" class="node">
<title>Node4</title>
<g id="a_Node000004"><a xlink:href="class_fiea_1_1_engine_1_1_tests_1_1_support_1_1_test_writer.html#a946ad7b46089f3a8aa37d0e42a96f330" target="_top" xlink:title=" ">
<polygon fill="white" stroke="#666666" points="281,-106 175,-106 175,-62 281,-62 281,-106"/>
<text text-anchor="start" x="183" y="-92.5" font-family="Helvetica,sans-Serif" font-size="10.00">Fiea::Engine::Tests</text>
<text text-anchor="start" x="183" y="-80.5" font-family="Helvetica,sans-Serif" font-size="10.00">::Support::TestWriter</text>
<text text-anchor="middle" x="228" y="-68.5" font-family="Helvetica,sans-Serif" font-size="10.00">::RecordInt</text>
</a>
</g>
</g>
<!-- Node1&#45;&gt;Node4 -->
<g id="edge3_Node000001_Node000004" class="edge">
<title>Node1&#45;&gt;Node4</title>
<g id="a_edge3_Node000001_Node000004"><a xlink:title=" ">
<path fill="none" stroke="#63b8ff" d="M305.57,-84C297.49,-84 289.32,-84 281.48,-84"/>
<polygon fill="#63b8ff" stroke="#63b8ff" points="305.38,-87.5 315.38,-84 305.38,-80.5 305.38,-87.5"/>
</a>
</g>
</g>
<!-- Node6 -->
<g id="Node000006" class="node">
<title>Node6</title>
<g id="a_Node000006"><a xlink:href="class_fiea_1_1_engine_1_1_tests_1_1_support_1_1_test_writer.html#aa4ab7865f4f93f08d2cb0d187e4a9b8c" target="_top" xlink:title=" ">
<polygon fill="white" stroke="#666666" points="281,-44 175,-44 175,0 281,0 281,-44"/>
<text text-anchor="start" x="183" y="-30.5" font-family="Helvetica,sans-Serif" font-size="10.00">Fiea::Engine::Tests</text>
<text text-anchor="start" x="183" y="-18.5" font-family="Helvetica,sans-Serif" font-size="10.00">::Support::TestWriter</text>
<text text-anchor="middle" x="228" y="-6.5" font-family="Helvetica,sans-Serif" font-size="10.00">::RecordString</text>
</a>
</g>
</g>
<!-- Node1&#45;&gt;Node6 -->
<g id="edge5_Node000001_Node000006" class="edge">
<title>Node1&#45;&gt;Node6</title>
<g id="a_edge5_Node000001_Node000006"><a xlink:title=" ">
<path fill="none" stroke="#63b8ff" d="M323.54,-63.1C309.77,-57.11 294.7,-50.56 280.72,-44.48"/>
<polygon fill="#63b8ff" stroke="#63b8ff" points="321.82,-66.17 332.39,-66.94 324.61,-59.75 321.82,-66.17"/>
</a>
</g>
</g>
<!-- Node3 -->
<g id="Node000003" class="node">
<title>Node3</title>
<g id="a_Node000003"><a xlink:href="class_fiea_1_1_engine_1_1_content_1_1_float_parse_handler.html#abc4c8eb2ad52cd9ebdafba350e9a58d7" target="_top" xlink:title=" ">
<polygon fill="white" stroke="#666666" points="125.12,-168 13.88,-168 13.88,-124 125.12,-124 125.12,-168"/>
<text text-anchor="start" x="21.88" y="-154.5" font-family="Helvetica,sans-Serif" font-size="10.00">Fiea::Engine::Content</text>
<text text-anchor="start" x="21.88" y="-142.5" font-family="Helvetica,sans-Serif" font-size="10.00">::FloatParseHandler::</text>
<text text-anchor="middle" x="69.5" y="-130.5" font-family="Helvetica,sans-Serif" font-size="10.00">EnterKey</text>
</a>
</g>
</g>
<!-- Node2&#45;&gt;Node3 -->
<g id="edge2_Node000002_Node000003" class="edge">
<title>Node2&#45;&gt;Node3</title>
<g id="a_edge2_Node000002_Node000003"><a xlink:title=" ">
<path fill="none" stroke="#63b8ff" d="M163.53,-146C150.96,-146 137.87,-146 125.6,-146"/>
<polygon fill="#63b8ff" stroke="#63b8ff" points="163.37,-149.5 173.37,-146 163.37,-142.5 163.37,-149.5"/>
</a>
</g>
</g>
<!-- Node5 -->
<g id="Node000005" class="node">
<title>Node5</title>
<g id="a_Node000005"><a xlink:href="class_fiea_1_1_engine_1_1_content_1_1_int_parse_handler.html#aa99263839bdc482fcd4a5874ef682029" target="_top" xlink:title=" ">
<polygon fill="white" stroke="#666666" points="139,-100 0,-100 0,-68 139,-68 139,-100"/>
<text text-anchor="start" x="8" y="-86.5" font-family="Helvetica,sans-Serif" font-size="10.00">Fiea::Engine::Content</text>
<text text-anchor="middle" x="69.5" y="-74.5" font-family="Helvetica,sans-Serif" font-size="10.00">::IntParseHandler::EnterKey</text>
</a>
</g>
</g>
<!-- Node4&#45;&gt;Node5 -->
<g id="edge4_Node000004_Node000005" class="edge">
<title>Node4&#45;&gt;Node5</title>
<g id="a_edge4_Node000004_Node000005"><a xlink:title=" ">
<path fill="none" stroke="#63b8ff" d="M163.45,-84C155.52,-84 147.38,-84 139.37,-84"/>
<polygon fill="#63b8ff" stroke="#63b8ff" points="163.37,-87.5 173.37,-84 163.37,-80.5 163.37,-87.5"/>
</a>
</g>
</g>
<!-- Node7 -->
<g id="Node000007" class="node">
<title>Node7</title>
<g id="a_Node000007"><a xlink:href="class_fiea_1_1_engine_1_1_content_1_1_string_parse_handler.html#a6e8f0ecc1992ee741847c1ad14069a30" target="_top" xlink:title=" ">
<polygon fill="white" stroke="#666666" points="125.12,-44 13.88,-44 13.88,0 125.12,0 125.12,-44"/>
<text text-anchor="start" x="21.88" y="-30.5" font-family="Helvetica,sans-Serif" font-size="10.00">Fiea::Engine::Content</text>
<text text-anchor="start" x="21.88" y="-18.5" font-family="Helvetica,sans-Serif" font-size="10.00">::StringParseHandler</text>
<text text-anchor="middle" x="69.5" y="-6.5" font-family="Helvetica,sans-Serif" font-size="10.00">::EnterKey</text>
</a>
</g>
</g>
<!-- Node6&#45;&gt;Node7 -->
<g id="edge6_Node000006_Node000007" class="edge">
<title>Node6&#45;&gt;Node7</title>
<g id="a_edge6_Node000006_Node000007"><a xlink:title=" ">
<path fill="none" stroke="#63b8ff" d="M163.53,-22C150.96,-22 137.87,-22 125.6,-22"/>
<polygon fill="#63b8ff" stroke="#63b8ff" points="163.37,-25.5 173.37,-22 163.37,-18.5 163.37,-25.5"/>
</a>
</g>
</g>
</g>
</svg>
