<?xml version="1.0" encoding="UTF-8" standalone="no"?>
<!DOCTYPE svg PUBLIC "-//W3C//DTD SVG 1.1//EN"
 "http://www.w3.org/Graphics/SVG/1.1/DTD/svg11.dtd">
<!-- Generated by graphviz version 12.2.1 (20241206.2353)
 -->
<!-- Title: Fiea::Engine::Content::Datum::IsType Pages: 1 -->
<svg width="651pt" height="368pt"
 viewBox="0.00 0.00 651.00 368.00" xmlns="http://www.w3.org/2000/svg" xmlns:xlink="http://www.w3.org/1999/xlink">
<g id="graph0" class="graph" transform="scale(1 1) rotate(0) translate(4 364)">
<title>Fiea::Engine::Content::Datum::IsType</title>
<!-- Node1 -->
<g id="Node000001" class="node">
<title>Node1</title>
<g id="a_Node000001"><a xlink:title="What is the type of the Datum, returns true or false.">
<polygon fill="#999999" stroke="#666666" points="643,-165 531.75,-165 531.75,-133 643,-133 643,-165"/>
<text text-anchor="start" x="539.75" y="-151.5" font-family="Helvetica,sans-Serif" font-size="10.00">Fiea::Engine::Content</text>
<text text-anchor="middle" x="587.38" y="-139.5" font-family="Helvetica,sans-Serif" font-size="10.00">::Datum::IsType</text>
</a>
</g>
</g>
<!-- Node2 -->
<g id="Node000002" class="node">
<title>Node2</title>
<g id="a_Node000002"><a xlink:href="class_fiea_1_1_engine_1_1_content_1_1_scope.html#abf39accc1ce38b12bcbc6884ba0165e3" target="_top" xlink:title="You can provide a child scope that you wish this scope to adopt. You should not adopt a scope if it a...">
<polygon fill="white" stroke="#666666" points="473.25,-266 362,-266 362,-234 473.25,-234 473.25,-266"/>
<text text-anchor="start" x="370" y="-252.5" font-family="Helvetica,sans-Serif" font-size="10.00">Fiea::Engine::Content</text>
<text text-anchor="middle" x="417.62" y="-240.5" font-family="Helvetica,sans-Serif" font-size="10.00">::Scope::Adopt</text>
</a>
</g>
</g>
<!-- Node1&#45;&gt;Node2 -->
<g id="edge1_Node000001_Node000002" class="edge">
<title>Node1&#45;&gt;Node2</title>
<g id="a_edge1_Node000001_Node000002"><a xlink:title=" ">
<path fill="none" stroke="#63b8ff" d="M562.51,-172.94C545.21,-189.2 520.59,-210.16 495.75,-224 488.84,-227.85 481.26,-231.26 473.64,-234.24"/>
<polygon fill="#63b8ff" stroke="#63b8ff" points="564.49,-175.89 569.29,-166.45 559.65,-170.84 564.49,-175.89"/>
</a>
</g>
</g>
<!-- Node12 -->
<g id="Node000012" class="node">
<title>Node12</title>
<g id="a_Node000012"><a xlink:href="class_fiea_1_1_engine_1_1_content_1_1_actions_1_1_preamble_action.html#a44a59e04e805964256440543040d2aee" target="_top" xlink:title="Searches for the variable that needs to be initialized and sets the value. Returns true because there...">
<polygon fill="white" stroke="#666666" points="492.38,-215 342.88,-215 342.88,-183 492.38,-183 492.38,-215"/>
<text text-anchor="start" x="350.88" y="-201.5" font-family="Helvetica,sans-Serif" font-size="10.00">Fiea::Engine::Content</text>
<text text-anchor="middle" x="417.62" y="-189.5" font-family="Helvetica,sans-Serif" font-size="10.00">::Actions::PreambleAction::Init</text>
</a>
</g>
</g>
<!-- Node1&#45;&gt;Node12 -->
<g id="edge12_Node000001_Node000012" class="edge">
<title>Node1&#45;&gt;Node12</title>
<g id="a_edge12_Node000001_Node000012"><a xlink:title=" ">
<path fill="none" stroke="#63b8ff" d="M520.43,-168.66C505.05,-173.24 488.83,-178.08 473.96,-182.51"/>
<polygon fill="#63b8ff" stroke="#63b8ff" points="521.41,-172.01 530,-165.8 519.41,-165.31 521.41,-172.01"/>
</a>
</g>
</g>
<!-- Node13 -->
<g id="Node000013" class="node">
<title>Node13</title>
<g id="a_Node000013"><a xlink:href="class_fiea_1_1_engine_1_1_content_1_1_scope.html#aa6308433cea4af43f97e24234524500c" target="_top" xlink:title=" ">
<polygon fill="white" stroke="#666666" points="478.5,-165 356.75,-165 356.75,-133 478.5,-133 478.5,-165"/>
<text text-anchor="start" x="364.75" y="-151.5" font-family="Helvetica,sans-Serif" font-size="10.00">Fiea::Engine::Content</text>
<text text-anchor="middle" x="417.62" y="-139.5" font-family="Helvetica,sans-Serif" font-size="10.00">::Scope::RemoveDatum</text>
</a>
</g>
</g>
<!-- Node1&#45;&gt;Node13 -->
<g id="edge13_Node000001_Node000013" class="edge">
<title>Node1&#45;&gt;Node13</title>
<g id="a_edge13_Node000001_Node000013"><a xlink:title=" ">
<path fill="none" stroke="#63b8ff" d="M520.19,-149C506.57,-149 492.29,-149 478.89,-149"/>
<polygon fill="#63b8ff" stroke="#63b8ff" points="519.93,-152.5 529.93,-149 519.93,-145.5 519.93,-152.5"/>
</a>
</g>
</g>
<!-- Node15 -->
<g id="Node000015" class="node">
<title>Node15</title>
<g id="a_Node000015"><a xlink:href="class_fiea_1_1_engine_1_1_content_1_1_actions_1_1_increment_action.html#a64814e7cd3d6c059897a33ec422fbbfb" target="_top" xlink:title="Adds the diff and checks the minimum and maximum condition to clamp. It returns true in all exit poin...">
<polygon fill="white" stroke="#666666" points="495.75,-115 339.5,-115 339.5,-83 495.75,-83 495.75,-115"/>
<text text-anchor="start" x="347.5" y="-101.5" font-family="Helvetica,sans-Serif" font-size="10.00">Fiea::Engine::Content</text>
<text text-anchor="middle" x="417.62" y="-89.5" font-family="Helvetica,sans-Serif" font-size="10.00">::Actions::IncrementAction::Run</text>
</a>
</g>
</g>
<!-- Node1&#45;&gt;Node15 -->
<g id="edge15_Node000001_Node000015" class="edge">
<title>Node1&#45;&gt;Node15</title>
<g id="a_edge15_Node000001_Node000015"><a xlink:title=" ">
<path fill="none" stroke="#63b8ff" d="M520.43,-129.34C505.05,-124.76 488.83,-119.92 473.96,-115.49"/>
<polygon fill="#63b8ff" stroke="#63b8ff" points="519.41,-132.69 530,-132.2 521.41,-125.99 519.41,-132.69"/>
</a>
</g>
</g>
<!-- Node16 -->
<g id="Node000016" class="node">
<title>Node16</title>
<g id="a_Node000016"><a xlink:href="class_fiea_1_1_engine_1_1_content_1_1_actions_1_1_integer_conditional_action.html#a8bd70260a9720a2cea0bf6d7ae54fd89" target="_top" xlink:title="Run returns true only when the condition turns false, until then it continues to return false.">
<polygon fill="white" stroke="#666666" points="487.5,-65 347.75,-65 347.75,-21 487.5,-21 487.5,-65"/>
<text text-anchor="start" x="355.75" y="-51.5" font-family="Helvetica,sans-Serif" font-size="10.00">Fiea::Engine::Content</text>
<text text-anchor="start" x="355.75" y="-39.5" font-family="Helvetica,sans-Serif" font-size="10.00">::Actions::IntegerConditional</text>
<text text-anchor="middle" x="417.62" y="-27.5" font-family="Helvetica,sans-Serif" font-size="10.00">Action::Run</text>
</a>
</g>
</g>
<!-- Node1&#45;&gt;Node16 -->
<g id="edge16_Node000001_Node000016" class="edge">
<title>Node1&#45;&gt;Node16</title>
<g id="a_edge16_Node000001_Node000016"><a xlink:title=" ">
<path fill="none" stroke="#63b8ff" d="M561.93,-125.2C544.54,-109.19 520.03,-88.45 495.75,-74 490.67,-70.97 485.23,-68.12 479.69,-65.47"/>
<polygon fill="#63b8ff" stroke="#63b8ff" points="559.07,-127.31 568.77,-131.59 563.86,-122.2 559.07,-127.31"/>
</a>
</g>
</g>
<!-- Node3 -->
<g id="Node000003" class="node">
<title>Node3</title>
<g id="a_Node000003"><a xlink:href="class_fiea_1_1_engine_1_1_game_object.html#a86ede0bbc21133ffa8f398b0636c8b52" target="_top" xlink:title=" ">
<polygon fill="white" stroke="#666666" points="301.25,-360 169.75,-360 169.75,-328 301.25,-328 301.25,-360"/>
<text text-anchor="start" x="177.75" y="-346.5" font-family="Helvetica,sans-Serif" font-size="10.00">Fiea::Engine::GameObject</text>
<text text-anchor="middle" x="235.5" y="-334.5" font-family="Helvetica,sans-Serif" font-size="10.00">::AddAction</text>
</a>
</g>
</g>
<!-- Node2&#45;&gt;Node3 -->
<g id="edge2_Node000002_Node000003" class="edge">
<title>Node2&#45;&gt;Node3</title>
<g id="a_edge2_Node000002_Node000003"><a xlink:title=" ">
<path fill="none" stroke="#63b8ff" d="M383.13,-272.76C361.1,-287.14 331.31,-305.48 303.5,-319 297.25,-322.04 290.52,-324.95 283.83,-327.63"/>
<polygon fill="#63b8ff" stroke="#63b8ff" points="384.99,-275.73 391.41,-267.3 381.13,-269.89 384.99,-275.73"/>
</a>
</g>
</g>
<!-- Node4 -->
<g id="Node000004" class="node">
<title>Node4</title>
<g id="a_Node000004"><a xlink:href="class_fiea_1_1_engine_1_1_content_1_1_scope.html#a002f54731a8996f37c4f725d8175ffee" target="_top" xlink:title="This is one of the ways of adding a scope as a child to &#39;this&#39; scope Appending a scope also implies t...">
<polygon fill="white" stroke="#666666" points="293.75,-310 177.25,-310 177.25,-278 293.75,-278 293.75,-310"/>
<text text-anchor="start" x="185.25" y="-296.5" font-family="Helvetica,sans-Serif" font-size="10.00">Fiea::Engine::Content</text>
<text text-anchor="middle" x="235.5" y="-284.5" font-family="Helvetica,sans-Serif" font-size="10.00">::Scope::AppendScope</text>
</a>
</g>
</g>
<!-- Node2&#45;&gt;Node4 -->
<g id="edge3_Node000002_Node000004" class="edge">
<title>Node2&#45;&gt;Node4</title>
<g id="a_edge3_Node000002_Node000004"><a xlink:title=" ">
<path fill="none" stroke="#63b8ff" d="M350.57,-266.13C332.02,-270.67 312,-275.56 293.99,-279.96"/>
<polygon fill="#63b8ff" stroke="#63b8ff" points="351.25,-269.57 360.13,-263.8 349.59,-262.77 351.25,-269.57"/>
</a>
</g>
</g>
<!-- Node6 -->
<g id="Node000006" class="node">
<title>Node6</title>
<g id="a_Node000006"><a xlink:href="class_fiea_1_1_engine_1_1_content_1_1_scope_writer.html#a4488fbd92e0706a1207e15a40dac7e22" target="_top" xlink:title=" ">
<polygon fill="white" stroke="#666666" points="131.5,-268 0,-268 0,-236 131.5,-236 131.5,-268"/>
<text text-anchor="start" x="8" y="-254.5" font-family="Helvetica,sans-Serif" font-size="10.00">Fiea::Engine::Content</text>
<text text-anchor="middle" x="65.75" y="-242.5" font-family="Helvetica,sans-Serif" font-size="10.00">::ScopeWriter::PushScope</text>
</a>
</g>
</g>
<!-- Node2&#45;&gt;Node6 -->
<g id="edge5_Node000002_Node000006" class="edge">
<title>Node2&#45;&gt;Node6</title>
<g id="a_edge5_Node000002_Node000006"><a xlink:title=" ">
<path fill="none" stroke="#63b8ff" d="M350.24,-250.38C287.57,-250.74 194.16,-251.27 131.9,-251.63"/>
<polygon fill="#63b8ff" stroke="#63b8ff" points="350.08,-253.88 360.06,-250.32 350.04,-246.88 350.08,-253.88"/>
</a>
</g>
</g>
<!-- Node7 -->
<g id="Node000007" class="node">
<title>Node7</title>
<g id="a_Node000007"><a xlink:href="class_fiea_1_1_engine_1_1_content_1_1_scope_writer.html#adb1089ed0ff92fae8826810cef43e447" target="_top" xlink:title=" ">
<polygon fill="white" stroke="#666666" points="301.25,-218 169.75,-218 169.75,-186 301.25,-186 301.25,-218"/>
<text text-anchor="start" x="177.75" y="-204.5" font-family="Helvetica,sans-Serif" font-size="10.00">Fiea::Engine::Content</text>
<text text-anchor="middle" x="235.5" y="-192.5" font-family="Helvetica,sans-Serif" font-size="10.00">::ScopeWriter::PushScope</text>
</a>
</g>
</g>
<!-- Node2&#45;&gt;Node7 -->
<g id="edge6_Node000002_Node000007" class="edge">
<title>Node2&#45;&gt;Node7</title>
<g id="a_edge6_Node000002_Node000007"><a xlink:title=" ">
<path fill="none" stroke="#63b8ff" d="M350.55,-232.39C333.4,-227.82 315.01,-222.92 298.1,-218.42"/>
<polygon fill="#63b8ff" stroke="#63b8ff" points="349.58,-235.75 360.14,-234.95 351.38,-228.99 349.58,-235.75"/>
</a>
</g>
</g>
<!-- Node5 -->
<g id="Node000005" class="node">
<title>Node5</title>
<g id="a_Node000005"><a xlink:href="class_fiea_1_1_engine_1_1_content_1_1_scope_writer.html#ae61df0a4225d06e413fbfda3028f8547" target="_top" xlink:title="This creates a new Scope, makes it a child of the current top scope in the stack and pushes it into t...">
<polygon fill="white" stroke="#666666" points="131.5,-318 0,-318 0,-286 131.5,-286 131.5,-318"/>
<text text-anchor="start" x="8" y="-304.5" font-family="Helvetica,sans-Serif" font-size="10.00">Fiea::Engine::Content</text>
<text text-anchor="middle" x="65.75" y="-292.5" font-family="Helvetica,sans-Serif" font-size="10.00">::ScopeWriter::PushScope</text>
</a>
</g>
</g>
<!-- Node4&#45;&gt;Node5 -->
<g id="edge4_Node000004_Node000005" class="edge">
<title>Node4&#45;&gt;Node5</title>
<g id="a_edge4_Node000004_Node000005"><a xlink:title=" ">
<path fill="none" stroke="#63b8ff" d="M165.36,-297.3C154.25,-297.83 142.79,-298.37 131.78,-298.9"/>
<polygon fill="#63b8ff" stroke="#63b8ff" points="165.44,-300.8 175.26,-296.83 165.1,-293.81 165.44,-300.8"/>
</a>
</g>
</g>
<!-- Node7&#45;&gt;Node6 -->
<g id="edge11_Node000007_Node000006" class="edge">
<title>Node7&#45;&gt;Node6</title>
<g id="a_edge11_Node000007_Node000006"><a xlink:title=" ">
<path fill="none" stroke="#63b8ff" d="M168.55,-221.66C153.18,-226.24 136.95,-231.08 122.09,-235.51"/>
<polygon fill="#63b8ff" stroke="#63b8ff" points="169.54,-225.01 178.12,-218.8 167.54,-218.31 169.54,-225.01"/>
</a>
</g>
</g>
<!-- Node8 -->
<g id="Node000008" class="node">
<title>Node8</title>
<g id="a_Node000008"><a xlink:href="class_fiea_1_1_engine_1_1_content_1_1_action_handler.html#a392af20cfeb37d539b88183bc9672f7a" target="_top" xlink:title=" ">
<polygon fill="white" stroke="#666666" points="130.75,-218 0.75,-218 0.75,-186 130.75,-186 130.75,-218"/>
<text text-anchor="start" x="8.75" y="-204.5" font-family="Helvetica,sans-Serif" font-size="10.00">Fiea::Engine::Content</text>
<text text-anchor="middle" x="65.75" y="-192.5" font-family="Helvetica,sans-Serif" font-size="10.00">::ActionHandler::EnterKey</text>
</a>
</g>
</g>
<!-- Node7&#45;&gt;Node8 -->
<g id="edge7_Node000007_Node000008" class="edge">
<title>Node7&#45;&gt;Node8</title>
<g id="a_edge7_Node000007_Node000008"><a xlink:title=" ">
<path fill="none" stroke="#63b8ff" d="M158.27,-202C149.21,-202 140.03,-202 131.16,-202"/>
<polygon fill="#63b8ff" stroke="#63b8ff" points="158.13,-205.5 168.13,-202 158.13,-198.5 158.13,-205.5"/>
</a>
</g>
</g>
<!-- Node9 -->
<g id="Node000009" class="node">
<title>Node9</title>
<g id="a_Node000009"><a xlink:href="class_fiea_1_1_engine_1_1_content_1_1_action_list_handler.html#ae0f8b6534bcf602df112f39202c79ecc" target="_top" xlink:title=" ">
<polygon fill="white" stroke="#666666" points="121.38,-168 10.12,-168 10.12,-124 121.38,-124 121.38,-168"/>
<text text-anchor="start" x="18.12" y="-154.5" font-family="Helvetica,sans-Serif" font-size="10.00">Fiea::Engine::Content</text>
<text text-anchor="start" x="18.12" y="-142.5" font-family="Helvetica,sans-Serif" font-size="10.00">::ActionListHandler::</text>
<text text-anchor="middle" x="65.75" y="-130.5" font-family="Helvetica,sans-Serif" font-size="10.00">EnterKey</text>
</a>
</g>
</g>
<!-- Node7&#45;&gt;Node9 -->
<g id="edge8_Node000007_Node000009" class="edge">
<title>Node7&#45;&gt;Node9</title>
<g id="a_edge8_Node000007_Node000009"><a xlink:title=" ">
<path fill="none" stroke="#63b8ff" d="M174.56,-181.99C157.32,-176.24 138.61,-169.99 121.69,-164.34"/>
<polygon fill="#63b8ff" stroke="#63b8ff" points="173.05,-185.18 183.64,-185.02 175.26,-178.54 173.05,-185.18"/>
</a>
</g>
</g>
<!-- Node10 -->
<g id="Node000010" class="node">
<title>Node10</title>
<g id="a_Node000010"><a xlink:href="class_fiea_1_1_engine_1_1_content_1_1_game_object_handler.html#a626573aebcd7beceb84dbd69bc15105b" target="_top" xlink:title="This handler is specifically for handling any game objects in json and also does some checks to ensur...">
<polygon fill="white" stroke="#666666" points="124,-106 7.5,-106 7.5,-62 124,-62 124,-106"/>
<text text-anchor="start" x="15.5" y="-92.5" font-family="Helvetica,sans-Serif" font-size="10.00">Fiea::Engine::Content</text>
<text text-anchor="start" x="15.5" y="-80.5" font-family="Helvetica,sans-Serif" font-size="10.00">::GameObjectHandler::</text>
<text text-anchor="middle" x="65.75" y="-68.5" font-family="Helvetica,sans-Serif" font-size="10.00">EnterKey</text>
</a>
</g>
</g>
<!-- Node7&#45;&gt;Node10 -->
<g id="edge9_Node000007_Node000010" class="edge">
<title>Node7&#45;&gt;Node10</title>
<g id="a_edge9_Node000007_Node000010"><a xlink:title=" ">
<path fill="none" stroke="#63b8ff" d="M170.89,-179.67C169.73,-178.81 168.59,-177.92 167.5,-177 143.15,-156.45 154.91,-136.62 131.5,-115 128.11,-111.87 124.35,-109 120.4,-106.38"/>
<polygon fill="#63b8ff" stroke="#63b8ff" points="168.74,-182.45 179.06,-184.85 172.49,-176.54 168.74,-182.45"/>
</a>
</g>
</g>
<!-- Node11 -->
<g id="Node000011" class="node">
<title>Node11</title>
<g id="a_Node000011"><a xlink:href="class_fiea_1_1_engine_1_1_content_1_1_scope_parse_handler.html#a51138cf4e0b638b95c73b4a5acd68842" target="_top" xlink:title=" ">
<polygon fill="white" stroke="#666666" points="123.25,-44 8.25,-44 8.25,0 123.25,0 123.25,-44"/>
<text text-anchor="start" x="16.25" y="-30.5" font-family="Helvetica,sans-Serif" font-size="10.00">Fiea::Engine::Content</text>
<text text-anchor="start" x="16.25" y="-18.5" font-family="Helvetica,sans-Serif" font-size="10.00">::ScopeParseHandler::</text>
<text text-anchor="middle" x="65.75" y="-6.5" font-family="Helvetica,sans-Serif" font-size="10.00">EnterKey</text>
</a>
</g>
</g>
<!-- Node7&#45;&gt;Node11 -->
<g id="edge10_Node000007_Node000011" class="edge">
<title>Node7&#45;&gt;Node11</title>
<g id="a_edge10_Node000007_Node000011"><a xlink:title=" ">
<path fill="none" stroke="#63b8ff" d="M168.96,-178.5C168.46,-178.01 167.98,-177.51 167.5,-177 128.46,-134.94 168.62,-96.77 131.5,-53 128.84,-49.86 125.79,-47.02 122.49,-44.45"/>
<polygon fill="#63b8ff" stroke="#63b8ff" points="166.66,-181.15 176.66,-184.66 171.03,-175.68 166.66,-181.15"/>
</a>
</g>
</g>
<!-- Node14 -->
<g id="Node000014" class="node">
<title>Node14</title>
<g id="a_Node000014"><a xlink:href="class_fiea_1_1_engine_1_1_tests_1_1_support_1_1_action_add_datum.html#a1aebd064164f82b30dffe7a12172c6b1" target="_top" xlink:title=" ">
<polygon fill="white" stroke="#666666" points="303.5,-168 167.5,-168 167.5,-124 303.5,-124 303.5,-168"/>
<text text-anchor="start" x="175.5" y="-154.5" font-family="Helvetica,sans-Serif" font-size="10.00">Fiea::Engine::Tests</text>
<text text-anchor="start" x="175.5" y="-142.5" font-family="Helvetica,sans-Serif" font-size="10.00">::Support::ActionAddDatum</text>
<text text-anchor="middle" x="235.5" y="-130.5" font-family="Helvetica,sans-Serif" font-size="10.00">::Cleanup</text>
</a>
</g>
</g>
<!-- Node13&#45;&gt;Node14 -->
<g id="edge14_Node000013_Node000014" class="edge">
<title>Node13&#45;&gt;Node14</title>
<g id="a_edge14_Node000013_Node000014"><a xlink:title=" ">
<path fill="none" stroke="#63b8ff" d="M345.12,-147.81C331.51,-147.58 317.3,-147.35 303.81,-147.12"/>
<polygon fill="#63b8ff" stroke="#63b8ff" points="344.83,-151.3 354.88,-147.97 344.94,-144.31 344.83,-151.3"/>
</a>
</g>
</g>
</g>
</svg>
