<?xml version="1.0" encoding="UTF-8" standalone="no"?>
<!DOCTYPE svg PUBLIC "-//W3C//DTD SVG 1.1//EN"
 "http://www.w3.org/Graphics/SVG/1.1/DTD/svg11.dtd">
<!-- Generated by graphviz version 12.2.1 (20241206.2353)
 -->
<!-- Title: Fiea::Engine::Content::Scope::RemoveDatum Pages: 1 -->
<svg width="277pt" height="90pt"
 viewBox="0.00 0.00 277.00 90.00" xmlns="http://www.w3.org/2000/svg" xmlns:xlink="http://www.w3.org/1999/xlink">
<g id="graph0" class="graph" transform="scale(1 1) rotate(0) translate(4 86)">
<title>Fiea::Engine::Content::Scope::RemoveDatum</title>
<!-- Node1 -->
<g id="Node000001" class="node">
<title>Node1</title>
<g id="a_Node000001"><a xlink:title=" ">
<polygon fill="#999999" stroke="#666666" points="121.75,-57 0,-57 0,-25 121.75,-25 121.75,-57"/>
<text text-anchor="start" x="8" y="-43.5" font-family="Helvetica,sans-Serif" font-size="10.00">Fiea::Engine::Content</text>
<text text-anchor="middle" x="60.88" y="-31.5" font-family="Helvetica,sans-Serif" font-size="10.00">::Scope::RemoveDatum</text>
</a>
</g>
</g>
<!-- Node2 -->
<g id="Node000002" class="node">
<title>Node2</title>
<g id="a_Node000002"><a xlink:href="class_fiea_1_1_engine_1_1_content_1_1_scope.html#ad924c01785b239991fc0e56a63295612" target="_top" xlink:title="Return the Datum at the requested key, or nullptr if not found.">
<polygon fill="white" stroke="#666666" points="269,-82 157.75,-82 157.75,-50 269,-50 269,-82"/>
<text text-anchor="start" x="165.75" y="-68.5" font-family="Helvetica,sans-Serif" font-size="10.00">Fiea::Engine::Content</text>
<text text-anchor="middle" x="213.38" y="-56.5" font-family="Helvetica,sans-Serif" font-size="10.00">::Scope::Find</text>
</a>
</g>
</g>
<!-- Node1&#45;&gt;Node2 -->
<g id="edge1_Node000001_Node000002" class="edge">
<title>Node1&#45;&gt;Node2</title>
<g id="a_edge1_Node000001_Node000002"><a xlink:title=" ">
<path fill="none" stroke="#63b8ff" d="M122.22,-51.02C130.11,-52.34 138.24,-53.68 146.22,-55.01"/>
<polygon fill="#63b8ff" stroke="#63b8ff" points="145.44,-58.43 155.88,-56.62 146.59,-51.52 145.44,-58.43"/>
</a>
</g>
</g>
<!-- Node3 -->
<g id="Node000003" class="node">
<title>Node3</title>
<g id="a_Node000003"><a xlink:href="class_fiea_1_1_engine_1_1_content_1_1_datum.html#a740662b031de78f05b9f9ce7dac13d8f" target="_top" xlink:title="What is the type of the Datum, returns true or false.">
<polygon fill="white" stroke="#666666" points="269,-32 157.75,-32 157.75,0 269,0 269,-32"/>
<text text-anchor="start" x="165.75" y="-18.5" font-family="Helvetica,sans-Serif" font-size="10.00">Fiea::Engine::Content</text>
<text text-anchor="middle" x="213.38" y="-6.5" font-family="Helvetica,sans-Serif" font-size="10.00">::Datum::IsType</text>
</a>
</g>
</g>
<!-- Node1&#45;&gt;Node3 -->
<g id="edge2_Node000001_Node000003" class="edge">
<title>Node1&#45;&gt;Node3</title>
<g id="a_edge2_Node000001_Node000003"><a xlink:title=" ">
<path fill="none" stroke="#63b8ff" d="M122.22,-30.98C130.11,-29.66 138.24,-28.32 146.22,-26.99"/>
<polygon fill="#63b8ff" stroke="#63b8ff" points="146.59,-30.48 155.88,-25.38 145.44,-23.57 146.59,-30.48"/>
</a>
</g>
</g>
</g>
</svg>
