<?xml version="1.0" encoding="UTF-8" standalone="no"?>
<!DOCTYPE svg PUBLIC "-//W3C//DTD SVG 1.1//EN"
 "http://www.w3.org/Graphics/SVG/1.1/DTD/svg11.dtd">
<!-- Generated by graphviz version 12.2.1 (20241206.2353)
 -->
<!-- Title: Fiea::Engine::Content::VectorHandler::EnterKey Pages: 1 -->
<svg width="659pt" height="328pt"
 viewBox="0.00 0.00 659.25 328.00" xmlns="http://www.w3.org/2000/svg" xmlns:xlink="http://www.w3.org/1999/xlink">
<g id="graph0" class="graph" transform="scale(1 1) rotate(0) translate(4 324)">
<title>Fiea::Engine::Content::VectorHandler::EnterKey</title>
<!-- Node1 -->
<g id="Node000001" class="node">
<title>Node1</title>
<g id="a_Node000001"><a xlink:title=" ">
<polygon fill="#999999" stroke="#666666" points="130,-176 0,-176 0,-144 130,-144 130,-176"/>
<text text-anchor="start" x="8" y="-162.5" font-family="Helvetica,sans-Serif" font-size="10.00">Fiea::Engine::Content</text>
<text text-anchor="middle" x="65" y="-150.5" font-family="Helvetica,sans-Serif" font-size="10.00">::VectorHandler::EnterKey</text>
</a>
</g>
</g>
<!-- Node2 -->
<g id="Node000002" class="node">
<title>Node2</title>
<g id="a_Node000002"><a xlink:href="class_fiea_1_1_engine_1_1_content_1_1_scope_writer.html#a2ed39f31d26f92f8d74c13b4fc466f77" target="_top" xlink:title="This function should be called for ading string, float or ints into the Scope. Any other data type wo...">
<polygon fill="white" stroke="#666666" points="299.75,-220 185.5,-220 185.5,-188 299.75,-188 299.75,-220"/>
<text text-anchor="start" x="193.5" y="-206.5" font-family="Helvetica,sans-Serif" font-size="10.00">Fiea::Engine::Content</text>
<text text-anchor="middle" x="242.62" y="-194.5" font-family="Helvetica,sans-Serif" font-size="10.00">::ScopeWriter::Append</text>
</a>
</g>
</g>
<!-- Node1&#45;&gt;Node2 -->
<g id="edge1_Node000001_Node000002" class="edge">
<title>Node1&#45;&gt;Node2</title>
<g id="a_edge1_Node000001_Node000002"><a xlink:title=" ">
<path fill="none" stroke="#63b8ff" d="M130.4,-176.13C144.68,-179.71 159.84,-183.51 174.23,-187.12"/>
<polygon fill="#63b8ff" stroke="#63b8ff" points="173.04,-190.43 183.59,-189.46 174.74,-183.64 173.04,-190.43"/>
</a>
</g>
</g>
<!-- Node10 -->
<g id="Node000010" class="node">
<title>Node10</title>
<g id="a_Node000010"><a xlink:href="class_fiea_1_1_engine_1_1_r_t_t_i.html#a15bd5993c8ad04da47af440298ebbb30" target="_top" xlink:title=" ">
<polygon fill="white" stroke="#666666" points="300.88,-148 184.38,-148 184.38,-128 300.88,-128 300.88,-148"/>
<text text-anchor="middle" x="242.62" y="-134.5" font-family="Helvetica,sans-Serif" font-size="10.00">Fiea::Engine::RTTI::As</text>
</a>
</g>
</g>
<!-- Node1&#45;&gt;Node10 -->
<g id="edge9_Node000001_Node000010" class="edge">
<title>Node1&#45;&gt;Node10</title>
<g id="a_edge9_Node000001_Node000010"><a xlink:title=" ">
<path fill="none" stroke="#63b8ff" d="M130.4,-151.93C144.23,-150.2 158.89,-148.36 172.87,-146.61"/>
<polygon fill="#63b8ff" stroke="#63b8ff" points="172.93,-150.13 182.41,-145.42 172.06,-143.19 172.93,-150.13"/>
</a>
</g>
</g>
<!-- Node12 -->
<g id="Node000012" class="node">
<title>Node12</title>
<g id="a_Node000012"><a xlink:href="class_fiea_1_1_engine_1_1_content_1_1_scope_writer.html#a9b532cf2870d114a3cb24555ddd1cba5" target="_top" xlink:title=" ">
<polygon fill="white" stroke="#666666" points="312.88,-88 172.38,-88 172.38,-44 312.88,-44 312.88,-88"/>
<text text-anchor="start" x="180.38" y="-74.5" font-family="Helvetica,sans-Serif" font-size="10.00">Fiea::Engine::Content</text>
<text text-anchor="start" x="180.38" y="-62.5" font-family="Helvetica,sans-Serif" font-size="10.00">::ScopeWriter::IsKeyStorage</text>
<text text-anchor="middle" x="242.62" y="-50.5" font-family="Helvetica,sans-Serif" font-size="10.00">External</text>
</a>
</g>
</g>
<!-- Node1&#45;&gt;Node12 -->
<g id="edge11_Node000001_Node000012" class="edge">
<title>Node1&#45;&gt;Node12</title>
<g id="a_edge11_Node000001_Node000012"><a xlink:title=" ">
<path fill="none" stroke="#63b8ff" d="M96.59,-143.63C122.29,-129.87 159.56,-109.93 189.88,-93.69"/>
<polygon fill="#63b8ff" stroke="#63b8ff" points="191.37,-96.87 198.54,-89.06 188.07,-90.69 191.37,-96.87"/>
</a>
</g>
</g>
<!-- Node15 -->
<g id="Node000015" class="node">
<title>Node15</title>
<g id="a_Node000015"><a xlink:href="class_fiea_1_1_engine_1_1_content_1_1_scope_writer.html#a81d8847be5d2eb6189de44fcfb04a134" target="_top" xlink:title=" ">
<polygon fill="white" stroke="#666666" points="319.25,-304 166,-304 166,-260 319.25,-260 319.25,-304"/>
<text text-anchor="start" x="174" y="-290.5" font-family="Helvetica,sans-Serif" font-size="10.00">Fiea::Engine::Content</text>
<text text-anchor="start" x="174" y="-278.5" font-family="Helvetica,sans-Serif" font-size="10.00">::ScopeWriter::SetExternalData</text>
<text text-anchor="middle" x="242.62" y="-266.5" font-family="Helvetica,sans-Serif" font-size="10.00">Teller</text>
</a>
</g>
</g>
<!-- Node1&#45;&gt;Node15 -->
<g id="edge14_Node000001_Node000015" class="edge">
<title>Node1&#45;&gt;Node15</title>
<g id="a_edge14_Node000001_Node000015"><a xlink:title=" ">
<path fill="none" stroke="#63b8ff" d="M89.69,-176.45C117.93,-196.07 165.63,-229.21 200.06,-253.13"/>
<polygon fill="#63b8ff" stroke="#63b8ff" points="197.94,-255.91 208.15,-258.74 201.93,-250.16 197.94,-255.91"/>
</a>
</g>
</g>
<!-- Node3 -->
<g id="Node000003" class="node">
<title>Node3</title>
<g id="a_Node000003"><a xlink:href="class_fiea_1_1_engine_1_1_content_1_1_scope.html#aa91d6470fd3d3f402bbb2e765be54455" target="_top" xlink:title="Return a reference to the Datum at this key. create a new Datum, if one is not found.">
<polygon fill="white" stroke="#666666" points="484.12,-270 372.88,-270 372.88,-238 484.12,-238 484.12,-270"/>
<text text-anchor="start" x="380.88" y="-256.5" font-family="Helvetica,sans-Serif" font-size="10.00">Fiea::Engine::Content</text>
<text text-anchor="middle" x="428.5" y="-244.5" font-family="Helvetica,sans-Serif" font-size="10.00">::Scope::Append</text>
</a>
</g>
</g>
<!-- Node2&#45;&gt;Node3 -->
<g id="edge2_Node000002_Node000003" class="edge">
<title>Node2&#45;&gt;Node3</title>
<g id="a_edge2_Node000002_Node000003"><a xlink:title=" ">
<path fill="none" stroke="#63b8ff" d="M300.04,-219.34C319.46,-224.62 341.38,-230.58 361.49,-236.05"/>
<polygon fill="#63b8ff" stroke="#63b8ff" points="360.42,-239.39 370.99,-238.63 362.26,-232.63 360.42,-239.39"/>
</a>
</g>
</g>
<!-- Node4 -->
<g id="Node000004" class="node">
<title>Node4</title>
<g id="a_Node000004"><a xlink:href="class_fiea_1_1_engine_1_1_content_1_1_scope_writer.html#a626dca625d92c898453cf9d75d9573d3" target="_top" xlink:title=" ">
<polygon fill="white" stroke="#666666" points="501.75,-320 355.25,-320 355.25,-288 501.75,-288 501.75,-320"/>
<text text-anchor="start" x="363.25" y="-306.5" font-family="Helvetica,sans-Serif" font-size="10.00">Fiea::Engine::Content</text>
<text text-anchor="middle" x="428.5" y="-294.5" font-family="Helvetica,sans-Serif" font-size="10.00">::ScopeWriter::IsDataExternal</text>
</a>
</g>
</g>
<!-- Node2&#45;&gt;Node4 -->
<g id="edge3_Node000002_Node000004" class="edge">
<title>Node2&#45;&gt;Node4</title>
<g id="a_edge3_Node000002_Node000004"><a xlink:title=" ">
<path fill="none" stroke="#63b8ff" d="M271.38,-220.29C285.88,-229.04 303.78,-240.22 319.25,-251 335.88,-262.59 337.43,-269.33 355.25,-279 357.89,-280.43 360.63,-281.81 363.44,-283.13"/>
<polygon fill="#63b8ff" stroke="#63b8ff" points="361.82,-286.24 372.39,-287.03 364.62,-279.82 361.82,-286.24"/>
</a>
</g>
</g>
<!-- Node5 -->
<g id="Node000005" class="node">
<title>Node5</title>
<g id="a_Node000005"><a xlink:href="class_fiea_1_1_engine_1_1_content_1_1_datum.html#a4ccb082ce85390925305f19a24daaed8" target="_top" xlink:title="This function is for pushing an element at the back of the data union array. It is using a universal ...">
<polygon fill="white" stroke="#666666" points="484.12,-220 372.88,-220 372.88,-188 484.12,-188 484.12,-220"/>
<text text-anchor="start" x="380.88" y="-206.5" font-family="Helvetica,sans-Serif" font-size="10.00">Fiea::Engine::Content</text>
<text text-anchor="middle" x="428.5" y="-194.5" font-family="Helvetica,sans-Serif" font-size="10.00">::Datum::Push</text>
</a>
</g>
</g>
<!-- Node2&#45;&gt;Node5 -->
<g id="edge4_Node000002_Node000005" class="edge">
<title>Node2&#45;&gt;Node5</title>
<g id="a_edge4_Node000002_Node000005"><a xlink:title=" ">
<path fill="none" stroke="#63b8ff" d="M300.04,-204C319.37,-204 341.17,-204 361.21,-204"/>
<polygon fill="#63b8ff" stroke="#63b8ff" points="360.94,-207.5 370.94,-204 360.94,-200.5 360.94,-207.5"/>
</a>
</g>
</g>
<!-- Node9 -->
<g id="Node000009" class="node">
<title>Node9</title>
<g id="a_Node000009"><a xlink:href="class_fiea_1_1_engine_1_1_content_1_1_datum.html#a2e77039e198d4eb10dfd1795117bf4d3" target="_top" xlink:title="Set value at a specific index. This uses universal operator so it can bind to lrefs and rrefs.">
<polygon fill="white" stroke="#666666" points="484.12,-170 372.88,-170 372.88,-138 484.12,-138 484.12,-170"/>
<text text-anchor="start" x="380.88" y="-156.5" font-family="Helvetica,sans-Serif" font-size="10.00">Fiea::Engine::Content</text>
<text text-anchor="middle" x="428.5" y="-144.5" font-family="Helvetica,sans-Serif" font-size="10.00">::Datum::Set</text>
</a>
</g>
</g>
<!-- Node2&#45;&gt;Node9 -->
<g id="edge8_Node000002_Node000009" class="edge">
<title>Node2&#45;&gt;Node9</title>
<g id="a_edge8_Node000002_Node000009"><a xlink:title=" ">
<path fill="none" stroke="#63b8ff" d="M300.04,-188.66C319.46,-183.38 341.38,-177.42 361.49,-171.95"/>
<polygon fill="#63b8ff" stroke="#63b8ff" points="362.26,-175.37 370.99,-169.37 360.42,-168.61 362.26,-175.37"/>
</a>
</g>
</g>
<!-- Node6 -->
<g id="Node000006" class="node">
<title>Node6</title>
<g id="a_Node000006"><a xlink:href="class_fiea_1_1_engine_1_1_content_1_1_datum.html#ac2c889535360fcb22e94133869c4ae29" target="_top" xlink:title=" ">
<polygon fill="white" stroke="#666666" points="650.12,-270 538.88,-270 538.88,-238 650.12,-238 650.12,-270"/>
<text text-anchor="start" x="546.88" y="-256.5" font-family="Helvetica,sans-Serif" font-size="10.00">Fiea::Engine::Content</text>
<text text-anchor="middle" x="594.5" y="-244.5" font-family="Helvetica,sans-Serif" font-size="10.00">::Datum::GetMaxSize</text>
</a>
</g>
</g>
<!-- Node5&#45;&gt;Node6 -->
<g id="edge5_Node000005_Node000006" class="edge">
<title>Node5&#45;&gt;Node6</title>
<g id="a_edge5_Node000005_Node000006"><a xlink:title=" ">
<path fill="none" stroke="#63b8ff" d="M483.2,-220.37C497.71,-224.8 513.56,-229.63 528.61,-234.22"/>
<polygon fill="#63b8ff" stroke="#63b8ff" points="527.37,-237.5 537.95,-237.06 529.41,-230.8 527.37,-237.5"/>
</a>
</g>
</g>
<!-- Node7 -->
<g id="Node000007" class="node">
<title>Node7</title>
<g id="a_Node000007"><a xlink:href="class_fiea_1_1_engine_1_1_content_1_1_datum.html#aede9c541fd5184f33e84640a787d421d" target="_top" xlink:title=" ">
<polygon fill="white" stroke="#666666" points="651.25,-220 537.75,-220 537.75,-188 651.25,-188 651.25,-220"/>
<text text-anchor="start" x="545.75" y="-206.5" font-family="Helvetica,sans-Serif" font-size="10.00">Fiea::Engine::Content</text>
<text text-anchor="middle" x="594.5" y="-194.5" font-family="Helvetica,sans-Serif" font-size="10.00">::Datum::HasMaxSize</text>
</a>
</g>
</g>
<!-- Node5&#45;&gt;Node7 -->
<g id="edge6_Node000005_Node000007" class="edge">
<title>Node5&#45;&gt;Node7</title>
<g id="a_edge6_Node000005_Node000007"><a xlink:title=" ">
<path fill="none" stroke="#63b8ff" d="M484.57,-204C497.87,-204 512.24,-204 526.04,-204"/>
<polygon fill="#63b8ff" stroke="#63b8ff" points="525.95,-207.5 535.95,-204 525.95,-200.5 525.95,-207.5"/>
</a>
</g>
</g>
<!-- Node8 -->
<g id="Node000008" class="node">
<title>Node8</title>
<g id="a_Node000008"><a xlink:href="class_fiea_1_1_engine_1_1_content_1_1_datum.html#acae68c3bc8b20345e4c3790fa37bd8d5" target="_top" xlink:title=" ">
<polygon fill="white" stroke="#666666" points="650.12,-170 538.88,-170 538.88,-138 650.12,-138 650.12,-170"/>
<text text-anchor="start" x="546.88" y="-156.5" font-family="Helvetica,sans-Serif" font-size="10.00">Fiea::Engine::Content</text>
<text text-anchor="middle" x="594.5" y="-144.5" font-family="Helvetica,sans-Serif" font-size="10.00">::Datum::Size</text>
</a>
</g>
</g>
<!-- Node5&#45;&gt;Node8 -->
<g id="edge7_Node000005_Node000008" class="edge">
<title>Node5&#45;&gt;Node8</title>
<g id="a_edge7_Node000005_Node000008"><a xlink:title=" ">
<path fill="none" stroke="#63b8ff" d="M483.2,-187.63C497.71,-183.2 513.56,-178.37 528.61,-173.78"/>
<polygon fill="#63b8ff" stroke="#63b8ff" points="529.41,-177.2 537.95,-170.94 527.37,-170.5 529.41,-177.2"/>
</a>
</g>
</g>
<!-- Node11 -->
<g id="Node000011" class="node">
<title>Node11</title>
<g id="a_Node000011"><a xlink:href="class_fiea_1_1_engine_1_1_r_t_t_i.html#ac0a7d875e4513b2aca7594abcd4418ef" target="_top" xlink:title=" ">
<polygon fill="white" stroke="#666666" points="484.88,-120 372.12,-120 372.12,-100 484.88,-100 484.88,-120"/>
<text text-anchor="middle" x="428.5" y="-106.5" font-family="Helvetica,sans-Serif" font-size="10.00">Fiea::Engine::RTTI::Is</text>
</a>
</g>
</g>
<!-- Node10&#45;&gt;Node11 -->
<g id="edge10_Node000010_Node000011" class="edge">
<title>Node10&#45;&gt;Node11</title>
<g id="a_edge10_Node000010_Node000011"><a xlink:title=" ">
<path fill="none" stroke="#63b8ff" d="M301.3,-129.22C320.14,-126.35 341.22,-123.14 360.68,-120.18"/>
<polygon fill="#63b8ff" stroke="#63b8ff" points="361.06,-123.66 370.42,-118.69 360.01,-116.74 361.06,-123.66"/>
</a>
</g>
</g>
<!-- Node13 -->
<g id="Node000013" class="node">
<title>Node13</title>
<g id="a_Node000013"><a xlink:href="class_fiea_1_1_engine_1_1_content_1_1_scope.html#ad924c01785b239991fc0e56a63295612" target="_top" xlink:title="Return the Datum at the requested key, or nullptr if not found.">
<polygon fill="white" stroke="#666666" points="484.12,-82 372.88,-82 372.88,-50 484.12,-50 484.12,-82"/>
<text text-anchor="start" x="380.88" y="-68.5" font-family="Helvetica,sans-Serif" font-size="10.00">Fiea::Engine::Content</text>
<text text-anchor="middle" x="428.5" y="-56.5" font-family="Helvetica,sans-Serif" font-size="10.00">::Scope::Find</text>
</a>
</g>
</g>
<!-- Node12&#45;&gt;Node13 -->
<g id="edge12_Node000012_Node000013" class="edge">
<title>Node12&#45;&gt;Node13</title>
<g id="a_edge12_Node000012_Node000013"><a xlink:title=" ">
<path fill="none" stroke="#63b8ff" d="M313.14,-66C328.93,-66 345.67,-66 361.32,-66"/>
<polygon fill="#63b8ff" stroke="#63b8ff" points="360.98,-69.5 370.98,-66 360.98,-62.5 360.98,-69.5"/>
</a>
</g>
</g>
<!-- Node14 -->
<g id="Node000014" class="node">
<title>Node14</title>
<g id="a_Node000014"><a xlink:href="class_fiea_1_1_engine_1_1_content_1_1_datum.html#a9b05337db582483976624ab93839bfa7" target="_top" xlink:title=" ">
<polygon fill="white" stroke="#666666" points="496.12,-32 360.88,-32 360.88,0 496.12,0 496.12,-32"/>
<text text-anchor="start" x="368.88" y="-18.5" font-family="Helvetica,sans-Serif" font-size="10.00">Fiea::Engine::Content</text>
<text text-anchor="middle" x="428.5" y="-6.5" font-family="Helvetica,sans-Serif" font-size="10.00">::Datum::IsStorageExternal</text>
</a>
</g>
</g>
<!-- Node12&#45;&gt;Node14 -->
<g id="edge13_Node000012_Node000014" class="edge">
<title>Node12&#45;&gt;Node14</title>
<g id="a_edge13_Node000012_Node000014"><a xlink:title=" ">
<path fill="none" stroke="#63b8ff" d="M313.14,-47.1C327.1,-43.3 341.8,-39.3 355.84,-35.49"/>
<polygon fill="#63b8ff" stroke="#63b8ff" points="356.73,-38.87 365.46,-32.87 354.89,-32.12 356.73,-38.87"/>
</a>
</g>
</g>
<!-- Node15&#45;&gt;Node4 -->
<g id="edge15_Node000015_Node000004" class="edge">
<title>Node15&#45;&gt;Node4</title>
<g id="a_edge15_Node000015_Node000004"><a xlink:title=" ">
<path fill="none" stroke="#63b8ff" d="M319.74,-291.11C327.67,-292.06 335.75,-293.02 343.75,-293.98"/>
<polygon fill="#63b8ff" stroke="#63b8ff" points="343.14,-297.43 353.48,-295.14 343.97,-290.48 343.14,-297.43"/>
</a>
</g>
</g>
</g>
</svg>
