<?xml version="1.0" encoding="UTF-8" standalone="no"?>
<!DOCTYPE svg PUBLIC "-//W3C//DTD SVG 1.1//EN"
 "http://www.w3.org/Graphics/SVG/1.1/DTD/svg11.dtd">
<!-- Generated by graphviz version 12.2.1 (20241206.2353)
 -->
<!-- Title: Fiea::Engine::Content::Attributed::IsInstanceAttribute Pages: 1 -->
<svg width="483pt" height="62pt"
 viewBox="0.00 0.00 482.75 62.00" xmlns="http://www.w3.org/2000/svg" xmlns:xlink="http://www.w3.org/1999/xlink">
<g id="graph0" class="graph" transform="scale(1 1) rotate(0) translate(4 58)">
<title>Fiea::Engine::Content::Attributed::IsInstanceAttribute</title>
<!-- Node1 -->
<g id="Node000001" class="node">
<title>Node1</title>
<g id="a_Node000001"><a xlink:title="Is the attribute added to the instance?">
<polygon fill="#999999" stroke="#666666" points="474.75,-32 322.25,-32 322.25,0 474.75,0 474.75,-32"/>
<text text-anchor="start" x="330.25" y="-18.5" font-family="Helvetica,sans-Serif" font-size="10.00">Fiea::Engine::Content</text>
<text text-anchor="middle" x="398.5" y="-6.5" font-family="Helvetica,sans-Serif" font-size="10.00">::Attributed::IsInstanceAttribute</text>
</a>
</g>
</g>
<!-- Node2 -->
<g id="Node000002" class="node">
<title>Node2</title>
<g id="a_Node000002"><a xlink:href="class_fiea_1_1_engine_1_1_content_1_1_attributed.html#a765ff8b9803452293255177e43f5e6f3" target="_top" xlink:title=" ">
<polygon fill="white" stroke="#666666" points="286.25,-54 136.75,-54 136.75,-22 286.25,-22 286.25,-54"/>
<text text-anchor="start" x="144.75" y="-40.5" font-family="Helvetica,sans-Serif" font-size="10.00">Fiea::Engine::Content</text>
<text text-anchor="middle" x="211.5" y="-28.5" font-family="Helvetica,sans-Serif" font-size="10.00">::Attributed::InstanceAttributes</text>
</a>
</g>
</g>
<!-- Node1&#45;&gt;Node2 -->
<g id="edge1_Node000001_Node000002" class="edge">
<title>Node1&#45;&gt;Node2</title>
<g id="a_edge1_Node000001_Node000002"><a xlink:title=" ">
<path fill="none" stroke="#63b8ff" d="M310.66,-26.33C302.61,-27.28 294.5,-28.25 286.58,-29.19"/>
<polygon fill="#63b8ff" stroke="#63b8ff" points="310.97,-29.82 320.48,-25.16 310.14,-22.86 310.97,-29.82"/>
</a>
</g>
</g>
<!-- Node3 -->
<g id="Node000003" class="node">
<title>Node3</title>
<g id="a_Node000003"><a xlink:href="namespace_fiea_1_1_engine_1_1_tests.html#acf19d1e24b6e04bb3eefd39b994f462d" target="_top" xlink:title=" ">
<polygon fill="white" stroke="#666666" points="100.75,-32 0,-32 0,0 100.75,0 100.75,-32"/>
<text text-anchor="start" x="8" y="-18.5" font-family="Helvetica,sans-Serif" font-size="10.00">Fiea::Engine::Tests</text>
<text text-anchor="middle" x="50.38" y="-6.5" font-family="Helvetica,sans-Serif" font-size="10.00">::TEST_CLASS</text>
</a>
</g>
</g>
<!-- Node1&#45;&gt;Node3 -->
<g id="edge3_Node000001_Node000003" class="edge">
<title>Node1&#45;&gt;Node3</title>
<g id="a_edge3_Node000001_Node000003"><a xlink:title=" ">
<path fill="none" stroke="#63b8ff" d="M310.32,-13.42C302.18,-13.25 294.06,-13.11 286.25,-13 219.81,-12.1 203.18,-11.83 136.75,-13 125.18,-13.2 112.74,-13.56 101.03,-13.96"/>
<polygon fill="#63b8ff" stroke="#63b8ff" points="310.21,-16.92 320.29,-13.65 310.37,-9.93 310.21,-16.92"/>
</a>
</g>
</g>
<!-- Node2&#45;&gt;Node3 -->
<g id="edge2_Node000002_Node000003" class="edge">
<title>Node2&#45;&gt;Node3</title>
<g id="a_edge2_Node000002_Node000003"><a xlink:title=" ">
<path fill="none" stroke="#63b8ff" d="M125.25,-26.21C116.99,-25.07 108.82,-23.94 101.08,-22.87"/>
<polygon fill="#63b8ff" stroke="#63b8ff" points="124.64,-29.66 135.03,-27.57 125.6,-22.73 124.64,-29.66"/>
</a>
</g>
</g>
</g>
</svg>
