<?xml version="1.0" encoding="UTF-8" standalone="no"?>
<!DOCTYPE svg PUBLIC "-//W3C//DTD SVG 1.1//EN"
 "http://www.w3.org/Graphics/SVG/1.1/DTD/svg11.dtd">
<!-- Generated by graphviz version 12.2.1 (20241206.2353)
 -->
<!-- Title: Fiea::Engine::List&lt; T &gt;::Iterator Pages: 1 -->
<svg width="93pt" height="184pt"
 viewBox="0.00 0.00 92.50 184.00" xmlns="http://www.w3.org/2000/svg" xmlns:xlink="http://www.w3.org/1999/xlink">
<g id="graph0" class="graph" transform="scale(1 1) rotate(0) translate(4 180)">
<title>Fiea::Engine::List&lt; T &gt;::Iterator</title>
<!-- Node1 -->
<g id="Node000001" class="node">
<title>Node1</title>
<g id="a_Node000001"><a xlink:title="Iterator class is for implementing functionalities such as begin() and end() for the list.">
<polygon fill="#999999" stroke="none" points="84.5,-176 0,-176 0,0 84.5,0 84.5,-176"/>
<text text-anchor="start" x="4" y="-162.5" font-family="Helvetica,sans-Serif" font-size="10.00">Fiea::Engine::List</text>
<text text-anchor="start" x="12.25" y="-150.5" font-family="Helvetica,sans-Serif" font-size="10.00">&lt; T &gt;::Iterator</text>
<text text-anchor="start" x="40.75" y="-134.5" font-family="Helvetica,sans-Serif" font-size="10.00"> </text>
<text text-anchor="start" x="7.31" y="-118.5" font-family="Helvetica,sans-Serif" font-size="10.00">+</text>
<text text-anchor="start" x="20.62" y="-118.5" font-family="Helvetica,sans-Serif" font-size="10.00">Iterator()</text>
<text text-anchor="start" x="7.31" y="-102.5" font-family="Helvetica,sans-Serif" font-size="10.00">+</text>
<text text-anchor="start" x="20.62" y="-102.5" font-family="Helvetica,sans-Serif" font-size="10.00">Iterator()</text>
<text text-anchor="start" x="7.31" y="-86.5" font-family="Helvetica,sans-Serif" font-size="10.00">+</text>
<text text-anchor="start" x="20.62" y="-86.5" font-family="Helvetica,sans-Serif" font-size="10.00">operator++()</text>
<text text-anchor="start" x="7.31" y="-70.5" font-family="Helvetica,sans-Serif" font-size="10.00">+</text>
<text text-anchor="start" x="20.62" y="-70.5" font-family="Helvetica,sans-Serif" font-size="10.00">operator++()</text>
<text text-anchor="start" x="7.31" y="-54.5" font-family="Helvetica,sans-Serif" font-size="10.00">+</text>
<text text-anchor="start" x="20.62" y="-54.5" font-family="Helvetica,sans-Serif" font-size="10.00">operator&#45;&#45;()</text>
<text text-anchor="start" x="7.31" y="-38.5" font-family="Helvetica,sans-Serif" font-size="10.00">+</text>
<text text-anchor="start" x="20.62" y="-38.5" font-family="Helvetica,sans-Serif" font-size="10.00">operator&#45;&#45;()</text>
<text text-anchor="start" x="7.31" y="-22.5" font-family="Helvetica,sans-Serif" font-size="10.00">+</text>
<text text-anchor="start" x="20.62" y="-22.5" font-family="Helvetica,sans-Serif" font-size="10.00">operator*()</text>
<text text-anchor="start" x="7.31" y="-6.5" font-family="Helvetica,sans-Serif" font-size="10.00">+</text>
<text text-anchor="start" x="20.62" y="-6.5" font-family="Helvetica,sans-Serif" font-size="10.00">operator&#45;&gt;()</text>
<polygon fill="#666666" stroke="#666666" points="0,-146 0,-146 84.5,-146 84.5,-146 0,-146"/>
<polygon fill="#666666" stroke="#666666" points="0,-130 0,-130 84.5,-130 84.5,-130 0,-130"/>
<polygon fill="none" stroke="#666666" points="0,0 0,-176 84.5,-176 84.5,0 0,0"/>
</a>
</g>
</g>
</g>
</svg>
