<?xml version="1.0" encoding="UTF-8" standalone="no"?>
<!DOCTYPE svg PUBLIC "-//W3C//DTD SVG 1.1//EN"
 "http://www.w3.org/Graphics/SVG/1.1/DTD/svg11.dtd">
<!-- Generated by graphviz version 12.2.1 (20241206.2353)
 -->
<!-- Title: Fiea::Engine::Content::ScopeWriter::PushScope Pages: 1 -->
<svg width="988pt" height="429pt"
 viewBox="0.00 0.00 987.50 429.00" xmlns="http://www.w3.org/2000/svg" xmlns:xlink="http://www.w3.org/1999/xlink">
<g id="graph0" class="graph" transform="scale(1 1) rotate(0) translate(4 425)">
<title>Fiea::Engine::Content::ScopeWriter::PushScope</title>
<!-- Node1 -->
<g id="Node000001" class="node">
<title>Node1</title>
<g id="a_Node000001"><a xlink:title=" ">
<polygon fill="#999999" stroke="#666666" points="131.5,-214 0,-214 0,-182 131.5,-182 131.5,-214"/>
<text text-anchor="start" x="8" y="-200.5" font-family="Helvetica,sans-Serif" font-size="10.00">Fiea::Engine::Content</text>
<text text-anchor="middle" x="65.75" y="-188.5" font-family="Helvetica,sans-Serif" font-size="10.00">::ScopeWriter::PushScope</text>
</a>
</g>
</g>
<!-- Node2 -->
<g id="Node000002" class="node">
<title>Node2</title>
<g id="a_Node000002"><a xlink:href="class_fiea_1_1_engine_1_1_content_1_1_scope.html#abf39accc1ce38b12bcbc6884ba0165e3" target="_top" xlink:title="You can provide a child scope that you wish this scope to adopt. You should not adopt a scope if it a...">
<polygon fill="white" stroke="#666666" points="479.62,-214 368.38,-214 368.38,-182 479.62,-182 479.62,-214"/>
<text text-anchor="start" x="376.38" y="-200.5" font-family="Helvetica,sans-Serif" font-size="10.00">Fiea::Engine::Content</text>
<text text-anchor="middle" x="424" y="-188.5" font-family="Helvetica,sans-Serif" font-size="10.00">::Scope::Adopt</text>
</a>
</g>
</g>
<!-- Node1&#45;&gt;Node2 -->
<g id="edge1_Node000001_Node000002" class="edge">
<title>Node1&#45;&gt;Node2</title>
<g id="a_edge1_Node000001_Node000002"><a xlink:title=" ">
<path fill="none" stroke="#63b8ff" d="M131.68,-198C195.57,-198 292.66,-198 356.94,-198"/>
<polygon fill="#63b8ff" stroke="#63b8ff" points="356.64,-201.5 366.64,-198 356.64,-194.5 356.64,-201.5"/>
</a>
</g>
</g>
<!-- Node15 -->
<g id="Node000015" class="node">
<title>Node15</title>
<g id="a_Node000015"><a xlink:href="struct_fiea_1_1_engine_1_1_i_factory_service.html#a67321bf276c10f13666440c0957b9fa8" target="_top" xlink:title=" ">
<polygon fill="white" stroke="#666666" points="313.25,-104 167.5,-104 167.5,-72 313.25,-72 313.25,-104"/>
<text text-anchor="start" x="175.5" y="-90.5" font-family="Helvetica,sans-Serif" font-size="10.00">Fiea::Engine::IFactoryService</text>
<text text-anchor="middle" x="240.38" y="-78.5" font-family="Helvetica,sans-Serif" font-size="10.00">::Create</text>
</a>
</g>
</g>
<!-- Node1&#45;&gt;Node15 -->
<g id="edge15_Node000001_Node000015" class="edge">
<title>Node1&#45;&gt;Node15</title>
<g id="a_edge15_Node000001_Node000015"><a xlink:title=" ">
<path fill="none" stroke="#63b8ff" d="M92.59,-181.53C122.3,-162.6 171.21,-131.44 204.32,-110.33"/>
<polygon fill="#63b8ff" stroke="#63b8ff" points="205.81,-113.54 212.36,-105.21 202.05,-107.64 205.81,-113.54"/>
</a>
</g>
</g>
<!-- Node20 -->
<g id="Node000020" class="node">
<title>Node20</title>
<g id="a_Node000020"><a xlink:href="class_fiea_1_1_engine_1_1_content_1_1_scope_writer.html#adb1089ed0ff92fae8826810cef43e447" target="_top" xlink:title=" ">
<polygon fill="white" stroke="#666666" points="306.12,-305 174.62,-305 174.62,-273 306.12,-273 306.12,-305"/>
<text text-anchor="start" x="182.62" y="-291.5" font-family="Helvetica,sans-Serif" font-size="10.00">Fiea::Engine::Content</text>
<text text-anchor="middle" x="240.38" y="-279.5" font-family="Helvetica,sans-Serif" font-size="10.00">::ScopeWriter::PushScope</text>
</a>
</g>
</g>
<!-- Node1&#45;&gt;Node20 -->
<g id="edge20_Node000001_Node000020" class="edge">
<title>Node1&#45;&gt;Node20</title>
<g id="a_edge20_Node000001_Node000020"><a xlink:title=" ">
<path fill="none" stroke="#63b8ff" d="M98.01,-214.48C126.12,-229.3 167.6,-251.16 198.36,-267.38"/>
<polygon fill="#63b8ff" stroke="#63b8ff" points="196.53,-270.37 207.01,-271.94 199.79,-264.18 196.53,-270.37"/>
</a>
</g>
</g>
<!-- Node3 -->
<g id="Node000003" class="node">
<title>Node3</title>
<g id="a_Node000003"><a xlink:href="class_fiea_1_1_engine_1_1_content_1_1_scope.html#aa91d6470fd3d3f402bbb2e765be54455" target="_top" xlink:title="Return a reference to the Datum at this key. create a new Datum, if one is not found.">
<polygon fill="white" stroke="#666666" points="646.75,-352 535.5,-352 535.5,-320 646.75,-320 646.75,-352"/>
<text text-anchor="start" x="543.5" y="-338.5" font-family="Helvetica,sans-Serif" font-size="10.00">Fiea::Engine::Content</text>
<text text-anchor="middle" x="591.12" y="-326.5" font-family="Helvetica,sans-Serif" font-size="10.00">::Scope::Append</text>
</a>
</g>
</g>
<!-- Node2&#45;&gt;Node3 -->
<g id="edge2_Node000002_Node000003" class="edge">
<title>Node2&#45;&gt;Node3</title>
<g id="a_edge2_Node000002_Node000003"><a xlink:title=" ">
<path fill="none" stroke="#63b8ff" d="M437.62,-214.49C456.57,-238.34 494.46,-282.72 534.75,-311 536.13,-311.97 537.55,-312.91 539,-313.83"/>
<polygon fill="#63b8ff" stroke="#63b8ff" points="537.21,-316.84 547.62,-318.77 540.69,-310.76 537.21,-316.84"/>
</a>
</g>
</g>
<!-- Node4 -->
<g id="Node000004" class="node">
<title>Node4</title>
<g id="a_Node000004"><a xlink:href="class_fiea_1_1_engine_1_1_content_1_1_scope.html#a8f7dfeddfe92368a8d160ed2b805640f" target="_top" xlink:title="Tell if this scope is present somewhere lower down in the scopes tree as a child.">
<polygon fill="white" stroke="#666666" points="969.75,-209 842.75,-209 842.75,-177 969.75,-177 969.75,-209"/>
<text text-anchor="start" x="850.75" y="-195.5" font-family="Helvetica,sans-Serif" font-size="10.00">Fiea::Engine::Content</text>
<text text-anchor="middle" x="906.25" y="-183.5" font-family="Helvetica,sans-Serif" font-size="10.00">::Scope::IsDescendentOf</text>
</a>
</g>
</g>
<!-- Node2&#45;&gt;Node4 -->
<g id="edge3_Node000002_Node000004" class="edge">
<title>Node2&#45;&gt;Node4</title>
<g id="a_edge3_Node000002_Node000004"><a xlink:title=" ">
<path fill="none" stroke="#63b8ff" d="M480.09,-197.43C566.51,-196.53 734.05,-194.78 831.01,-193.77"/>
<polygon fill="#63b8ff" stroke="#63b8ff" points="831,-197.27 840.96,-193.67 830.92,-190.27 831,-197.27"/>
</a>
</g>
</g>
<!-- Node5 -->
<g id="Node000005" class="node">
<title>Node5</title>
<g id="a_Node000005"><a xlink:href="class_fiea_1_1_engine_1_1_content_1_1_datum.html#a740662b031de78f05b9f9ce7dac13d8f" target="_top" xlink:title="What is the type of the Datum, returns true or false.">
<polygon fill="white" stroke="#666666" points="646.75,-126 535.5,-126 535.5,-94 646.75,-94 646.75,-126"/>
<text text-anchor="start" x="543.5" y="-112.5" font-family="Helvetica,sans-Serif" font-size="10.00">Fiea::Engine::Content</text>
<text text-anchor="middle" x="591.12" y="-100.5" font-family="Helvetica,sans-Serif" font-size="10.00">::Datum::IsType</text>
</a>
</g>
</g>
<!-- Node2&#45;&gt;Node5 -->
<g id="edge4_Node000002_Node000005" class="edge">
<title>Node2&#45;&gt;Node5</title>
<g id="a_edge4_Node000002_Node000005"><a xlink:title=" ">
<path fill="none" stroke="#63b8ff" d="M451.66,-181.73C473.64,-168.54 505.8,-149.8 534.75,-135 537.13,-133.78 539.58,-132.57 542.06,-131.35"/>
<polygon fill="#63b8ff" stroke="#63b8ff" points="543.46,-134.56 550.99,-127.11 540.46,-128.24 543.46,-134.56"/>
</a>
</g>
</g>
<!-- Node6 -->
<g id="Node000006" class="node">
<title>Node6</title>
<g id="a_Node000006"><a xlink:href="class_fiea_1_1_engine_1_1_content_1_1_datum.html#a4ccb082ce85390925305f19a24daaed8" target="_top" xlink:title="This function is for pushing an element at the back of the data union array. It is using a universal ...">
<polygon fill="white" stroke="#666666" points="646.75,-302 535.5,-302 535.5,-270 646.75,-270 646.75,-302"/>
<text text-anchor="start" x="543.5" y="-288.5" font-family="Helvetica,sans-Serif" font-size="10.00">Fiea::Engine::Content</text>
<text text-anchor="middle" x="591.12" y="-276.5" font-family="Helvetica,sans-Serif" font-size="10.00">::Datum::Push</text>
</a>
</g>
</g>
<!-- Node2&#45;&gt;Node6 -->
<g id="edge5_Node000002_Node000006" class="edge">
<title>Node2&#45;&gt;Node6</title>
<g id="a_edge5_Node000002_Node000006"><a xlink:title=" ">
<path fill="none" stroke="#63b8ff" d="M455.67,-214.35C482.12,-228.44 520.51,-248.9 549.51,-264.35"/>
<polygon fill="#63b8ff" stroke="#63b8ff" points="547.53,-267.27 558,-268.88 550.82,-261.09 547.53,-267.27"/>
</a>
</g>
</g>
<!-- Node10 -->
<g id="Node000010" class="node">
<title>Node10</title>
<g id="a_Node000010"><a xlink:href="class_fiea_1_1_engine_1_1_content_1_1_scope.html#af6a94922a8fa123c3b22b7b4485963de" target="_top" xlink:title="Setter for Parent.">
<polygon fill="white" stroke="#666666" points="646.75,-176 535.5,-176 535.5,-144 646.75,-144 646.75,-176"/>
<text text-anchor="start" x="543.5" y="-162.5" font-family="Helvetica,sans-Serif" font-size="10.00">Fiea::Engine::Content</text>
<text text-anchor="middle" x="591.12" y="-150.5" font-family="Helvetica,sans-Serif" font-size="10.00">::Scope::SetParent</text>
</a>
</g>
</g>
<!-- Node2&#45;&gt;Node10 -->
<g id="edge9_Node000002_Node000010" class="edge">
<title>Node2&#45;&gt;Node10</title>
<g id="a_edge9_Node000002_Node000010"><a xlink:title=" ">
<path fill="none" stroke="#63b8ff" d="M479.98,-185.35C494.11,-182.09 509.46,-178.56 524.09,-175.2"/>
<polygon fill="#63b8ff" stroke="#63b8ff" points="524.66,-178.66 533.62,-173 523.09,-171.83 524.66,-178.66"/>
</a>
</g>
</g>
<!-- Node7 -->
<g id="Node000007" class="node">
<title>Node7</title>
<g id="a_Node000007"><a xlink:href="class_fiea_1_1_engine_1_1_content_1_1_datum.html#ac2c889535360fcb22e94133869c4ae29" target="_top" xlink:title=" ">
<polygon fill="white" stroke="#666666" points="795.88,-421 684.62,-421 684.62,-389 795.88,-389 795.88,-421"/>
<text text-anchor="start" x="692.62" y="-407.5" font-family="Helvetica,sans-Serif" font-size="10.00">Fiea::Engine::Content</text>
<text text-anchor="middle" x="740.25" y="-395.5" font-family="Helvetica,sans-Serif" font-size="10.00">::Datum::GetMaxSize</text>
</a>
</g>
</g>
<!-- Node6&#45;&gt;Node7 -->
<g id="edge6_Node000006_Node000007" class="edge">
<title>Node6&#45;&gt;Node7</title>
<g id="a_edge6_Node000006_Node000007"><a xlink:title=" ">
<path fill="none" stroke="#63b8ff" d="M635.36,-302.47C639.68,-304.99 643.83,-307.83 647.5,-311 669.9,-330.33 662.86,-345.8 683.5,-367 688.82,-372.47 695.05,-377.62 701.38,-382.25"/>
<polygon fill="#63b8ff" stroke="#63b8ff" points="699.16,-384.98 709.37,-387.79 703.15,-379.22 699.16,-384.98"/>
</a>
</g>
</g>
<!-- Node8 -->
<g id="Node000008" class="node">
<title>Node8</title>
<g id="a_Node000008"><a xlink:href="class_fiea_1_1_engine_1_1_content_1_1_datum.html#aede9c541fd5184f33e84640a787d421d" target="_top" xlink:title=" ">
<polygon fill="white" stroke="#666666" points="797,-283 683.5,-283 683.5,-251 797,-251 797,-283"/>
<text text-anchor="start" x="691.5" y="-269.5" font-family="Helvetica,sans-Serif" font-size="10.00">Fiea::Engine::Content</text>
<text text-anchor="middle" x="740.25" y="-257.5" font-family="Helvetica,sans-Serif" font-size="10.00">::Datum::HasMaxSize</text>
</a>
</g>
</g>
<!-- Node6&#45;&gt;Node8 -->
<g id="edge7_Node000006_Node000008" class="edge">
<title>Node6&#45;&gt;Node8</title>
<g id="a_edge7_Node000006_Node000008"><a xlink:title=" ">
<path fill="none" stroke="#63b8ff" d="M646.91,-278.93C655.11,-277.87 663.64,-276.76 672.07,-275.68"/>
<polygon fill="#63b8ff" stroke="#63b8ff" points="672.47,-279.15 681.94,-274.4 671.57,-272.21 672.47,-279.15"/>
</a>
</g>
</g>
<!-- Node9 -->
<g id="Node000009" class="node">
<title>Node9</title>
<g id="a_Node000009"><a xlink:href="class_fiea_1_1_engine_1_1_content_1_1_datum.html#acae68c3bc8b20345e4c3790fa37bd8d5" target="_top" xlink:title=" ">
<polygon fill="white" stroke="#666666" points="795.88,-358 684.62,-358 684.62,-326 795.88,-326 795.88,-358"/>
<text text-anchor="start" x="692.62" y="-344.5" font-family="Helvetica,sans-Serif" font-size="10.00">Fiea::Engine::Content</text>
<text text-anchor="middle" x="740.25" y="-332.5" font-family="Helvetica,sans-Serif" font-size="10.00">::Datum::Size</text>
</a>
</g>
</g>
<!-- Node6&#45;&gt;Node9 -->
<g id="edge8_Node000006_Node000009" class="edge">
<title>Node6&#45;&gt;Node9</title>
<g id="a_edge8_Node000006_Node000009"><a xlink:title=" ">
<path fill="none" stroke="#63b8ff" d="M635.47,-302.5C651.12,-308.45 668.97,-315.25 685.4,-321.5"/>
<polygon fill="#63b8ff" stroke="#63b8ff" points="683.95,-324.7 694.54,-324.98 686.44,-318.16 683.95,-324.7"/>
</a>
</g>
</g>
<!-- Node11 -->
<g id="Node000011" class="node">
<title>Node11</title>
<g id="a_Node000011"><a xlink:href="class_fiea_1_1_engine_1_1_content_1_1_scope.html#a853041a85e32e8b7de723fa3dd9a1d82" target="_top" xlink:title="Tells if this scope is present somewhere higher up in the scopes tree as a parent.">
<polygon fill="white" stroke="#666666" points="797,-176 683.5,-176 683.5,-144 797,-144 797,-176"/>
<text text-anchor="start" x="691.5" y="-162.5" font-family="Helvetica,sans-Serif" font-size="10.00">Fiea::Engine::Content</text>
<text text-anchor="middle" x="740.25" y="-150.5" font-family="Helvetica,sans-Serif" font-size="10.00">::Scope::IsAncestorOf</text>
</a>
</g>
</g>
<!-- Node10&#45;&gt;Node11 -->
<g id="edge10_Node000010_Node000011" class="edge">
<title>Node10&#45;&gt;Node11</title>
<g id="a_edge10_Node000010_Node000011"><a xlink:title=" ">
<path fill="none" stroke="#63b8ff" d="M646.91,-160C655.11,-160 663.64,-160 672.07,-160"/>
<polygon fill="#63b8ff" stroke="#63b8ff" points="671.92,-163.5 681.92,-160 671.92,-156.5 671.92,-163.5"/>
</a>
</g>
</g>
<!-- Node12 -->
<g id="Node000012" class="node">
<title>Node12</title>
<g id="a_Node000012"><a xlink:href="class_fiea_1_1_engine_1_1_content_1_1_scope.html#a769b8bf0382518e075fb90f62940624c" target="_top" xlink:title="Orpahans this scope from its parent.">
<polygon fill="white" stroke="#666666" points="795.88,-126 684.62,-126 684.62,-94 795.88,-94 795.88,-126"/>
<text text-anchor="start" x="692.62" y="-112.5" font-family="Helvetica,sans-Serif" font-size="10.00">Fiea::Engine::Content</text>
<text text-anchor="middle" x="740.25" y="-100.5" font-family="Helvetica,sans-Serif" font-size="10.00">::Scope::Orphan</text>
</a>
</g>
</g>
<!-- Node10&#45;&gt;Node12 -->
<g id="edge12_Node000010_Node000012" class="edge">
<title>Node10&#45;&gt;Node12</title>
<g id="a_edge12_Node000010_Node000012"><a xlink:title=" ">
<path fill="none" stroke="#63b8ff" d="M640.3,-143.63C652.94,-139.33 666.71,-134.65 679.86,-130.18"/>
<polygon fill="#63b8ff" stroke="#63b8ff" points="680.94,-133.51 689.28,-126.98 678.69,-126.89 680.94,-133.51"/>
</a>
</g>
</g>
<!-- Node11&#45;&gt;Node4 -->
<g id="edge11_Node000011_Node000004" class="edge">
<title>Node11&#45;&gt;Node4</title>
<g id="a_edge11_Node000011_Node000004"><a xlink:title=" ">
<path fill="none" stroke="#63b8ff" d="M797.23,-171.26C808.27,-173.49 820.01,-175.85 831.53,-178.17"/>
<polygon fill="#63b8ff" stroke="#63b8ff" points="830.51,-181.53 841,-180.07 831.89,-174.67 830.51,-181.53"/>
</a>
</g>
</g>
<!-- Node13 -->
<g id="Node000013" class="node">
<title>Node13</title>
<g id="a_Node000013"><a xlink:href="class_fiea_1_1_engine_1_1_content_1_1_scope.html#abe37db932a06fabb2cb02ec65b6f55d8" target="_top" xlink:title="Search for a nested Scope which is the SAME(not just equal) as the provided scope and return the Datu...">
<polygon fill="white" stroke="#666666" points="979.5,-87 833,-87 833,-55 979.5,-55 979.5,-87"/>
<text text-anchor="start" x="841" y="-73.5" font-family="Helvetica,sans-Serif" font-size="10.00">Fiea::Engine::Content</text>
<text text-anchor="middle" x="906.25" y="-61.5" font-family="Helvetica,sans-Serif" font-size="10.00">::Scope::FindContainedScope</text>
</a>
</g>
</g>
<!-- Node12&#45;&gt;Node13 -->
<g id="edge13_Node000012_Node000013" class="edge">
<title>Node12&#45;&gt;Node13</title>
<g id="a_edge13_Node000012_Node000013"><a xlink:title=" ">
<path fill="none" stroke="#63b8ff" d="M796.32,-96.91C805.58,-94.7 815.36,-92.38 825.1,-90.06"/>
<polygon fill="#63b8ff" stroke="#63b8ff" points="825.67,-93.52 834.58,-87.8 824.05,-86.71 825.67,-93.52"/>
</a>
</g>
</g>
<!-- Node14 -->
<g id="Node000014" class="node">
<title>Node14</title>
<g id="a_Node000014"><a xlink:href="class_fiea_1_1_engine_1_1_content_1_1_datum.html#a23395b19af06abda786d991645b41e6d" target="_top" xlink:title=" ">
<polygon fill="white" stroke="#666666" points="961.88,-137 850.62,-137 850.62,-105 961.88,-105 961.88,-137"/>
<text text-anchor="start" x="858.62" y="-123.5" font-family="Helvetica,sans-Serif" font-size="10.00">Fiea::Engine::Content</text>
<text text-anchor="middle" x="906.25" y="-111.5" font-family="Helvetica,sans-Serif" font-size="10.00">::Datum::RemoveAt</text>
</a>
</g>
</g>
<!-- Node12&#45;&gt;Node14 -->
<g id="edge14_Node000012_Node000014" class="edge">
<title>Node12&#45;&gt;Node14</title>
<g id="a_edge14_Node000012_Node000014"><a xlink:title=" ">
<path fill="none" stroke="#63b8ff" d="M796.32,-113.69C810.05,-114.61 824.91,-115.61 839.11,-116.56"/>
<polygon fill="#63b8ff" stroke="#63b8ff" points="838.61,-120.04 848.82,-117.22 839.08,-113.05 838.61,-120.04"/>
</a>
</g>
</g>
<!-- Node16 -->
<g id="Node000016" class="node">
<title>Node16</title>
<g id="a_Node000016"><a xlink:href="class_fiea_1_1_engine_1_1_r_t_t_i.html#a15bd5993c8ad04da47af440298ebbb30" target="_top" xlink:title=" ">
<polygon fill="white" stroke="#666666" points="482.25,-120 365.75,-120 365.75,-100 482.25,-100 482.25,-120"/>
<text text-anchor="middle" x="424" y="-106.5" font-family="Helvetica,sans-Serif" font-size="10.00">Fiea::Engine::RTTI::As</text>
</a>
</g>
</g>
<!-- Node15&#45;&gt;Node16 -->
<g id="edge16_Node000015_Node000016" class="edge">
<title>Node15&#45;&gt;Node16</title>
<g id="a_edge16_Node000015_Node000016"><a xlink:title=" ">
<path fill="none" stroke="#63b8ff" d="M313.68,-96.76C326.99,-98.37 340.86,-100.05 354.07,-101.65"/>
<polygon fill="#63b8ff" stroke="#63b8ff" points="353.63,-105.12 363.98,-102.85 354.47,-98.17 353.63,-105.12"/>
</a>
</g>
</g>
<!-- Node18 -->
<g id="Node000018" class="node">
<title>Node18</title>
<g id="a_Node000018"><a xlink:href="struct_fiea_1_1_engine_1_1_i_abstract_factory.html#a22cd61f6a4df37c08faa8af0a39f3b69" target="_top" xlink:title=" ">
<polygon fill="white" stroke="#666666" points="498.75,-82 349.25,-82 349.25,-50 498.75,-50 498.75,-82"/>
<text text-anchor="start" x="357.25" y="-68.5" font-family="Helvetica,sans-Serif" font-size="10.00">Fiea::Engine::IAbstractFactory</text>
<text text-anchor="middle" x="424" y="-56.5" font-family="Helvetica,sans-Serif" font-size="10.00">::Create</text>
</a>
</g>
</g>
<!-- Node15&#45;&gt;Node18 -->
<g id="edge18_Node000015_Node000018" class="edge">
<title>Node15&#45;&gt;Node18</title>
<g id="a_edge18_Node000015_Node000018"><a xlink:title=" ">
<path fill="none" stroke="#63b8ff" d="M313.68,-79.24C321.55,-78.29 329.61,-77.31 337.61,-76.34"/>
<polygon fill="#63b8ff" stroke="#63b8ff" points="337.85,-79.84 347.36,-75.16 337.01,-72.89 337.85,-79.84"/>
</a>
</g>
</g>
<!-- Node19 -->
<g id="Node000019" class="node">
<title>Node19</title>
<g id="a_Node000019"><a xlink:href="struct_fiea_1_1_engine_1_1_i_factory_service.html#a8b92ed77b5fa36860888e17dc5801e47" target="_top" xlink:title=" ">
<polygon fill="white" stroke="#666666" points="496.88,-32 351.12,-32 351.12,0 496.88,0 496.88,-32"/>
<text text-anchor="start" x="359.12" y="-18.5" font-family="Helvetica,sans-Serif" font-size="10.00">Fiea::Engine::IFactoryService</text>
<text text-anchor="middle" x="424" y="-6.5" font-family="Helvetica,sans-Serif" font-size="10.00">::GetFactory</text>
</a>
</g>
</g>
<!-- Node15&#45;&gt;Node19 -->
<g id="edge19_Node000015_Node000019" class="edge">
<title>Node15&#45;&gt;Node19</title>
<g id="a_edge19_Node000015_Node000019"><a xlink:title=" ">
<path fill="none" stroke="#63b8ff" d="M277.02,-71.57C297.89,-62.18 324.86,-50.43 349.25,-41 353.39,-39.4 357.68,-37.8 362.01,-36.23"/>
<polygon fill="#63b8ff" stroke="#63b8ff" points="363.14,-39.54 371.38,-32.89 360.79,-32.95 363.14,-39.54"/>
</a>
</g>
</g>
<!-- Node17 -->
<g id="Node000017" class="node">
<title>Node17</title>
<g id="a_Node000017"><a xlink:href="class_fiea_1_1_engine_1_1_r_t_t_i.html#ac0a7d875e4513b2aca7594abcd4418ef" target="_top" xlink:title=" ">
<polygon fill="white" stroke="#666666" points="647.5,-76 534.75,-76 534.75,-56 647.5,-56 647.5,-76"/>
<text text-anchor="middle" x="591.12" y="-62.5" font-family="Helvetica,sans-Serif" font-size="10.00">Fiea::Engine::RTTI::Is</text>
</a>
</g>
</g>
<!-- Node16&#45;&gt;Node17 -->
<g id="edge17_Node000016_Node000017" class="edge">
<title>Node16&#45;&gt;Node17</title>
<g id="a_edge17_Node000016_Node000017"><a xlink:title=" ">
<path fill="none" stroke="#63b8ff" d="M465.99,-99.56C476.66,-96.8 488.14,-93.82 498.75,-91 512.67,-87.3 527.76,-83.21 541.6,-79.42"/>
<polygon fill="#63b8ff" stroke="#63b8ff" points="542.19,-82.89 550.91,-76.87 540.34,-76.14 542.19,-82.89"/>
</a>
</g>
</g>
<!-- Node20&#45;&gt;Node2 -->
<g id="edge21_Node000020_Node000002" class="edge">
<title>Node20&#45;&gt;Node2</title>
<g id="a_edge21_Node000020_Node000002"><a xlink:title=" ">
<path fill="none" stroke="#63b8ff" d="M267.91,-272.73C289.44,-259.84 320.78,-241.77 349.25,-228 355.85,-224.81 362.89,-221.65 369.9,-218.64"/>
<polygon fill="#63b8ff" stroke="#63b8ff" points="370.82,-222.05 378.69,-214.96 368.11,-215.6 370.82,-222.05"/>
</a>
</g>
</g>
<!-- Node20&#45;&gt;Node3 -->
<g id="edge22_Node000020_Node000003" class="edge">
<title>Node20&#45;&gt;Node3</title>
<g id="a_edge22_Node000020_Node000003"><a xlink:title=" ">
<path fill="none" stroke="#63b8ff" d="M306.56,-297.79C368.55,-306.14 461.35,-318.65 523.73,-327.05"/>
<polygon fill="#63b8ff" stroke="#63b8ff" points="523.14,-330.5 533.51,-328.37 524.07,-323.57 523.14,-330.5"/>
</a>
</g>
</g>
<!-- Node20&#45;&gt;Node7 -->
<g id="edge23_Node000020_Node000007" class="edge">
<title>Node20&#45;&gt;Node7</title>
<g id="a_edge23_Node000020_Node000007"><a xlink:title=" ">
<path fill="none" stroke="#63b8ff" d="M260.57,-305.41C281.07,-321.95 315.23,-346.72 349.25,-359 457.89,-398.23 593.54,-405.68 672.87,-406.23"/>
<polygon fill="#63b8ff" stroke="#63b8ff" points="672.64,-409.73 682.65,-406.26 672.66,-402.73 672.64,-409.73"/>
</a>
</g>
</g>
<!-- Node20&#45;&gt;Node8 -->
<g id="edge24_Node000020_Node000008" class="edge">
<title>Node20&#45;&gt;Node8</title>
<g id="a_edge24_Node000020_Node000008"><a xlink:title=" ">
<path fill="none" stroke="#63b8ff" d="M306.5,-280.99C365.87,-274.12 456.05,-264.75 534.75,-261 584.8,-258.62 597.42,-259.36 647.5,-261 655.51,-261.26 663.9,-261.65 672.22,-262.11"/>
<polygon fill="#63b8ff" stroke="#63b8ff" points="671.78,-265.59 681.97,-262.68 672.19,-258.6 671.78,-265.59"/>
</a>
</g>
</g>
<!-- Node20&#45;&gt;Node9 -->
<g id="edge25_Node000020_Node000009" class="edge">
<title>Node20&#45;&gt;Node9</title>
<g id="a_edge25_Node000020_Node000009"><a xlink:title=" ">
<path fill="none" stroke="#63b8ff" d="M281.83,-305.48C301.86,-313.16 326.55,-321.93 349.25,-328 478.08,-362.48 514.83,-374.59 647.5,-361 655.83,-360.15 664.51,-358.87 673.08,-357.37"/>
<polygon fill="#63b8ff" stroke="#63b8ff" points="673.55,-360.84 682.74,-355.57 672.26,-353.96 673.55,-360.84"/>
</a>
</g>
</g>
</g>
</svg>
