<?xml version="1.0" encoding="UTF-8" standalone="no"?>
<!DOCTYPE svg PUBLIC "-//W3C//DTD SVG 1.1//EN"
 "http://www.w3.org/Graphics/SVG/1.1/DTD/svg11.dtd">
<!-- Generated by graphviz version 12.2.1 (20241206.2353)
 -->
<!-- Title: Fiea::Engine::Content::GameObjectHandler::EnterKey Pages: 1 -->
<svg width="976pt" height="383pt"
 viewBox="0.00 0.00 975.50 383.00" xmlns="http://www.w3.org/2000/svg" xmlns:xlink="http://www.w3.org/1999/xlink">
<g id="graph0" class="graph" transform="scale(1 1) rotate(0) translate(4 379)">
<title>Fiea::Engine::Content::GameObjectHandler::EnterKey</title>
<!-- Node1 -->
<g id="Node000001" class="node">
<title>Node1</title>
<g id="a_Node000001"><a xlink:title="This handler is specifically for handling any game objects in json and also does some checks to ensur...">
<polygon fill="#999999" stroke="#666666" points="116.5,-293 0,-293 0,-249 116.5,-249 116.5,-293"/>
<text text-anchor="start" x="8" y="-279.5" font-family="Helvetica,sans-Serif" font-size="10.00">Fiea::Engine::Content</text>
<text text-anchor="start" x="8" y="-267.5" font-family="Helvetica,sans-Serif" font-size="10.00">::GameObjectHandler::</text>
<text text-anchor="middle" x="58.25" y="-255.5" font-family="Helvetica,sans-Serif" font-size="10.00">EnterKey</text>
</a>
</g>
</g>
<!-- Node2 -->
<g id="Node000002" class="node">
<title>Node2</title>
<g id="a_Node000002"><a xlink:href="class_fiea_1_1_engine_1_1_r_t_t_i.html#a15bd5993c8ad04da47af440298ebbb30" target="_top" xlink:title=" ">
<polygon fill="white" stroke="#666666" points="470.25,-375 353.75,-375 353.75,-355 470.25,-355 470.25,-375"/>
<text text-anchor="middle" x="412" y="-361.5" font-family="Helvetica,sans-Serif" font-size="10.00">Fiea::Engine::RTTI::As</text>
</a>
</g>
</g>
<!-- Node1&#45;&gt;Node2 -->
<g id="edge1_Node000001_Node000002" class="edge">
<title>Node1&#45;&gt;Node2</title>
<g id="a_edge1_Node000001_Node000002"><a xlink:title=" ">
<path fill="none" stroke="#63b8ff" d="M79.41,-293.41C96.84,-311.11 123.7,-334.65 152.5,-346 213.35,-369.98 288.42,-372.85 341.96,-370.86"/>
<polygon fill="#63b8ff" stroke="#63b8ff" points="342.04,-374.36 351.87,-370.42 341.72,-367.37 342.04,-374.36"/>
</a>
</g>
</g>
<!-- Node4 -->
<g id="Node000004" class="node">
<title>Node4</title>
<g id="a_Node000004"><a xlink:href="struct_fiea_1_1_engine_1_1_i_factory_service.html#a67321bf276c10f13666440c0957b9fa8" target="_top" xlink:title=" ">
<polygon fill="white" stroke="#666666" points="299.75,-337 154,-337 154,-305 299.75,-305 299.75,-337"/>
<text text-anchor="start" x="162" y="-323.5" font-family="Helvetica,sans-Serif" font-size="10.00">Fiea::Engine::IFactoryService</text>
<text text-anchor="middle" x="226.88" y="-311.5" font-family="Helvetica,sans-Serif" font-size="10.00">::Create</text>
</a>
</g>
</g>
<!-- Node1&#45;&gt;Node4 -->
<g id="edge3_Node000001_Node000004" class="edge">
<title>Node1&#45;&gt;Node4</title>
<g id="a_edge3_Node000001_Node000004"><a xlink:title=" ">
<path fill="none" stroke="#63b8ff" d="M116.59,-288.21C130.62,-292.42 145.74,-296.95 160.13,-301.27"/>
<polygon fill="#63b8ff" stroke="#63b8ff" points="158.92,-304.56 169.51,-304.09 160.94,-297.86 158.92,-304.56"/>
</a>
</g>
</g>
<!-- Node7 -->
<g id="Node000007" class="node">
<title>Node7</title>
<g id="a_Node000007"><a xlink:href="class_fiea_1_1_engine_1_1_content_1_1_scope_writer.html#a4ff072530f4dfdbdd0940f4c666e2562" target="_top" xlink:title=" ">
<polygon fill="white" stroke="#666666" points="297.12,-287 156.62,-287 156.62,-255 297.12,-255 297.12,-287"/>
<text text-anchor="start" x="164.62" y="-273.5" font-family="Helvetica,sans-Serif" font-size="10.00">Fiea::Engine::Content</text>
<text text-anchor="middle" x="226.88" y="-261.5" font-family="Helvetica,sans-Serif" font-size="10.00">::ScopeWriter::GetTopScope</text>
</a>
</g>
</g>
<!-- Node1&#45;&gt;Node7 -->
<g id="edge7_Node000001_Node000007" class="edge">
<title>Node1&#45;&gt;Node7</title>
<g id="a_edge7_Node000001_Node000007"><a xlink:title=" ">
<path fill="none" stroke="#63b8ff" d="M116.59,-271C125.79,-271 135.47,-271 145.09,-271"/>
<polygon fill="#63b8ff" stroke="#63b8ff" points="144.83,-274.5 154.83,-271 144.83,-267.5 144.83,-274.5"/>
</a>
</g>
</g>
<!-- Node8 -->
<g id="Node000008" class="node">
<title>Node8</title>
<g id="a_Node000008"><a xlink:href="class_fiea_1_1_engine_1_1_content_1_1_parse_writer.html#a28c3d94c387754c03bd32e1effae4754" target="_top" xlink:title=" ">
<polygon fill="white" stroke="#666666" points="301.25,-237 152.5,-237 152.5,-205 301.25,-205 301.25,-237"/>
<text text-anchor="start" x="160.5" y="-223.5" font-family="Helvetica,sans-Serif" font-size="10.00">Fiea::Engine::Content</text>
<text text-anchor="middle" x="226.88" y="-211.5" font-family="Helvetica,sans-Serif" font-size="10.00">::ParseWriter::IncrementDepth</text>
</a>
</g>
</g>
<!-- Node1&#45;&gt;Node8 -->
<g id="edge8_Node000001_Node000008" class="edge">
<title>Node1&#45;&gt;Node8</title>
<g id="a_edge8_Node000001_Node000008"><a xlink:title=" ">
<path fill="none" stroke="#63b8ff" d="M116.59,-253.79C130.62,-249.58 145.74,-245.05 160.13,-240.73"/>
<polygon fill="#63b8ff" stroke="#63b8ff" points="160.94,-244.14 169.51,-237.91 158.92,-237.44 160.94,-244.14"/>
</a>
</g>
</g>
<!-- Node9 -->
<g id="Node000009" class="node">
<title>Node9</title>
<g id="a_Node000009"><a xlink:href="class_fiea_1_1_engine_1_1_content_1_1_scope_writer.html#adb1089ed0ff92fae8826810cef43e447" target="_top" xlink:title=" ">
<polygon fill="white" stroke="#666666" points="292.62,-171 161.12,-171 161.12,-139 292.62,-139 292.62,-171"/>
<text text-anchor="start" x="169.12" y="-157.5" font-family="Helvetica,sans-Serif" font-size="10.00">Fiea::Engine::Content</text>
<text text-anchor="middle" x="226.88" y="-145.5" font-family="Helvetica,sans-Serif" font-size="10.00">::ScopeWriter::PushScope</text>
</a>
</g>
</g>
<!-- Node1&#45;&gt;Node9 -->
<g id="edge9_Node000001_Node000009" class="edge">
<title>Node1&#45;&gt;Node9</title>
<g id="a_edge9_Node000001_Node000009"><a xlink:title=" ">
<path fill="none" stroke="#63b8ff" d="M84.48,-248.78C102.76,-233.17 128.39,-212.27 152.5,-196 162.4,-189.32 173.47,-182.72 183.95,-176.83"/>
<polygon fill="#63b8ff" stroke="#63b8ff" points="185.37,-180.05 192.43,-172.16 181.99,-173.92 185.37,-180.05"/>
</a>
</g>
</g>
<!-- Node3 -->
<g id="Node000003" class="node">
<title>Node3</title>
<g id="a_Node000003"><a xlink:href="class_fiea_1_1_engine_1_1_r_t_t_i.html#ac0a7d875e4513b2aca7594abcd4418ef" target="_top" xlink:title=" ">
<polygon fill="white" stroke="#666666" points="635.5,-375 522.75,-375 522.75,-355 635.5,-355 635.5,-375"/>
<text text-anchor="middle" x="579.12" y="-361.5" font-family="Helvetica,sans-Serif" font-size="10.00">Fiea::Engine::RTTI::Is</text>
</a>
</g>
</g>
<!-- Node2&#45;&gt;Node3 -->
<g id="edge2_Node000002_Node000003" class="edge">
<title>Node2&#45;&gt;Node3</title>
<g id="a_edge2_Node000002_Node000003"><a xlink:title=" ">
<path fill="none" stroke="#63b8ff" d="M470.29,-365C483.46,-365 497.58,-365 511.12,-365"/>
<polygon fill="#63b8ff" stroke="#63b8ff" points="510.82,-368.5 520.82,-365 510.82,-361.5 510.82,-368.5"/>
</a>
</g>
</g>
<!-- Node4&#45;&gt;Node2 -->
<g id="edge4_Node000004_Node000002" class="edge">
<title>Node4&#45;&gt;Node2</title>
<g id="a_edge4_Node000004_Node000002"><a xlink:title=" ">
<path fill="none" stroke="#63b8ff" d="M296.32,-337.45C316.1,-342.2 337.42,-347.32 356.25,-351.84"/>
<polygon fill="#63b8ff" stroke="#63b8ff" points="355.3,-355.22 365.84,-354.15 356.94,-348.41 355.3,-355.22"/>
</a>
</g>
</g>
<!-- Node5 -->
<g id="Node000005" class="node">
<title>Node5</title>
<g id="a_Node000005"><a xlink:href="struct_fiea_1_1_engine_1_1_i_abstract_factory.html#a22cd61f6a4df37c08faa8af0a39f3b69" target="_top" xlink:title=" ">
<polygon fill="white" stroke="#666666" points="486.75,-337 337.25,-337 337.25,-305 486.75,-305 486.75,-337"/>
<text text-anchor="start" x="345.25" y="-323.5" font-family="Helvetica,sans-Serif" font-size="10.00">Fiea::Engine::IAbstractFactory</text>
<text text-anchor="middle" x="412" y="-311.5" font-family="Helvetica,sans-Serif" font-size="10.00">::Create</text>
</a>
</g>
</g>
<!-- Node4&#45;&gt;Node5 -->
<g id="edge5_Node000004_Node000005" class="edge">
<title>Node4&#45;&gt;Node5</title>
<g id="a_edge5_Node000004_Node000005"><a xlink:title=" ">
<path fill="none" stroke="#63b8ff" d="M299.99,-321C308.31,-321 316.87,-321 325.35,-321"/>
<polygon fill="#63b8ff" stroke="#63b8ff" points="325.33,-324.5 335.33,-321 325.33,-317.5 325.33,-324.5"/>
</a>
</g>
</g>
<!-- Node6 -->
<g id="Node000006" class="node">
<title>Node6</title>
<g id="a_Node000006"><a xlink:href="struct_fiea_1_1_engine_1_1_i_factory_service.html#a8b92ed77b5fa36860888e17dc5801e47" target="_top" xlink:title=" ">
<polygon fill="white" stroke="#666666" points="484.88,-287 339.12,-287 339.12,-255 484.88,-255 484.88,-287"/>
<text text-anchor="start" x="347.12" y="-273.5" font-family="Helvetica,sans-Serif" font-size="10.00">Fiea::Engine::IFactoryService</text>
<text text-anchor="middle" x="412" y="-261.5" font-family="Helvetica,sans-Serif" font-size="10.00">::GetFactory</text>
</a>
</g>
</g>
<!-- Node4&#45;&gt;Node6 -->
<g id="edge6_Node000004_Node000006" class="edge">
<title>Node4&#45;&gt;Node6</title>
<g id="a_edge6_Node000004_Node000006"><a xlink:title=" ">
<path fill="none" stroke="#63b8ff" d="M288.09,-304.56C304.59,-300.05 322.64,-295.12 339.71,-290.47"/>
<polygon fill="#63b8ff" stroke="#63b8ff" points="340.56,-293.86 349.29,-287.85 338.72,-287.11 340.56,-293.86"/>
</a>
</g>
</g>
<!-- Node10 -->
<g id="Node000010" class="node">
<title>Node10</title>
<g id="a_Node000010"><a xlink:href="class_fiea_1_1_engine_1_1_content_1_1_scope.html#abf39accc1ce38b12bcbc6884ba0165e3" target="_top" xlink:title="You can provide a child scope that you wish this scope to adopt. You should not adopt a scope if it a...">
<polygon fill="white" stroke="#666666" points="467.62,-199 356.38,-199 356.38,-167 467.62,-167 467.62,-199"/>
<text text-anchor="start" x="364.38" y="-185.5" font-family="Helvetica,sans-Serif" font-size="10.00">Fiea::Engine::Content</text>
<text text-anchor="middle" x="412" y="-173.5" font-family="Helvetica,sans-Serif" font-size="10.00">::Scope::Adopt</text>
</a>
</g>
</g>
<!-- Node9&#45;&gt;Node10 -->
<g id="edge10_Node000009_Node000010" class="edge">
<title>Node9&#45;&gt;Node10</title>
<g id="a_edge10_Node000009_Node000010"><a xlink:title=" ">
<path fill="none" stroke="#63b8ff" d="M292.95,-164.95C309.9,-167.54 328.18,-170.34 345.17,-172.93"/>
<polygon fill="#63b8ff" stroke="#63b8ff" points="344.21,-176.33 354.62,-174.38 345.27,-169.41 344.21,-176.33"/>
</a>
</g>
</g>
<!-- Node11 -->
<g id="Node000011" class="node">
<title>Node11</title>
<g id="a_Node000011"><a xlink:href="class_fiea_1_1_engine_1_1_content_1_1_scope.html#aa91d6470fd3d3f402bbb2e765be54455" target="_top" xlink:title="Return a reference to the Datum at this key. create a new Datum, if one is not found.">
<polygon fill="white" stroke="#666666" points="634.75,-337 523.5,-337 523.5,-305 634.75,-305 634.75,-337"/>
<text text-anchor="start" x="531.5" y="-323.5" font-family="Helvetica,sans-Serif" font-size="10.00">Fiea::Engine::Content</text>
<text text-anchor="middle" x="579.12" y="-311.5" font-family="Helvetica,sans-Serif" font-size="10.00">::Scope::Append</text>
</a>
</g>
</g>
<!-- Node9&#45;&gt;Node11 -->
<g id="edge24_Node000009_Node000011" class="edge">
<title>Node9&#45;&gt;Node11</title>
<g id="a_edge24_Node000009_Node000011"><a xlink:title=" ">
<path fill="none" stroke="#63b8ff" d="M257.34,-171.3C278.96,-182.75 309.3,-197.8 337.25,-208 401.65,-231.51 429.12,-208.86 486.75,-246 508.28,-259.87 503.1,-274.57 522.75,-291 525.96,-293.68 529.44,-296.23 533.05,-298.63"/>
<polygon fill="#63b8ff" stroke="#63b8ff" points="531.15,-301.57 541.5,-303.82 534.81,-295.6 531.15,-301.57"/>
</a>
</g>
</g>
<!-- Node15 -->
<g id="Node000015" class="node">
<title>Node15</title>
<g id="a_Node000015"><a xlink:href="class_fiea_1_1_engine_1_1_content_1_1_datum.html#ac2c889535360fcb22e94133869c4ae29" target="_top" xlink:title=" ">
<polygon fill="white" stroke="#666666" points="783.88,-147 672.62,-147 672.62,-115 783.88,-115 783.88,-147"/>
<text text-anchor="start" x="680.62" y="-133.5" font-family="Helvetica,sans-Serif" font-size="10.00">Fiea::Engine::Content</text>
<text text-anchor="middle" x="728.25" y="-121.5" font-family="Helvetica,sans-Serif" font-size="10.00">::Datum::GetMaxSize</text>
</a>
</g>
</g>
<!-- Node9&#45;&gt;Node15 -->
<g id="edge25_Node000009_Node000015" class="edge">
<title>Node9&#45;&gt;Node15</title>
<g id="a_edge25_Node000009_Node000015"><a xlink:title=" ">
<path fill="none" stroke="#63b8ff" d="M292.9,-151.87C388.21,-147.29 564.91,-138.8 660.94,-134.19"/>
<polygon fill="#63b8ff" stroke="#63b8ff" points="660.91,-137.69 670.73,-133.72 660.58,-130.7 660.91,-137.69"/>
</a>
</g>
</g>
<!-- Node16 -->
<g id="Node000016" class="node">
<title>Node16</title>
<g id="a_Node000016"><a xlink:href="class_fiea_1_1_engine_1_1_content_1_1_datum.html#aede9c541fd5184f33e84640a787d421d" target="_top" xlink:title=" ">
<polygon fill="white" stroke="#666666" points="785,-92 671.5,-92 671.5,-60 785,-60 785,-92"/>
<text text-anchor="start" x="679.5" y="-78.5" font-family="Helvetica,sans-Serif" font-size="10.00">Fiea::Engine::Content</text>
<text text-anchor="middle" x="728.25" y="-66.5" font-family="Helvetica,sans-Serif" font-size="10.00">::Datum::HasMaxSize</text>
</a>
</g>
</g>
<!-- Node9&#45;&gt;Node16 -->
<g id="edge26_Node000009_Node000016" class="edge">
<title>Node9&#45;&gt;Node16</title>
<g id="a_edge26_Node000009_Node000016"><a xlink:title=" ">
<path fill="none" stroke="#63b8ff" d="M270.51,-138.59C327.13,-117.77 430.69,-83 522.75,-70 572.37,-62.99 585.42,-68.36 635.5,-70 643.51,-70.26 651.9,-70.65 660.22,-71.11"/>
<polygon fill="#63b8ff" stroke="#63b8ff" points="659.78,-74.59 669.97,-71.68 660.19,-67.6 659.78,-74.59"/>
</a>
</g>
</g>
<!-- Node17 -->
<g id="Node000017" class="node">
<title>Node17</title>
<g id="a_Node000017"><a xlink:href="class_fiea_1_1_engine_1_1_content_1_1_datum.html#acae68c3bc8b20345e4c3790fa37bd8d5" target="_top" xlink:title=" ">
<polygon fill="white" stroke="#666666" points="783.88,-32 672.62,-32 672.62,0 783.88,0 783.88,-32"/>
<text text-anchor="start" x="680.62" y="-18.5" font-family="Helvetica,sans-Serif" font-size="10.00">Fiea::Engine::Content</text>
<text text-anchor="middle" x="728.25" y="-6.5" font-family="Helvetica,sans-Serif" font-size="10.00">::Datum::Size</text>
</a>
</g>
</g>
<!-- Node9&#45;&gt;Node17 -->
<g id="edge27_Node000009_Node000017" class="edge">
<title>Node9&#45;&gt;Node17</title>
<g id="a_edge27_Node000009_Node000017"><a xlink:title=" ">
<path fill="none" stroke="#63b8ff" d="M244,-138.7C263.99,-119.57 300,-88.5 337.25,-73 444.59,-28.35 581.22,-17.86 661,-15.85"/>
<polygon fill="#63b8ff" stroke="#63b8ff" points="660.91,-19.36 670.83,-15.65 660.76,-12.36 660.91,-19.36"/>
</a>
</g>
</g>
<!-- Node10&#45;&gt;Node11 -->
<g id="edge11_Node000010_Node000011" class="edge">
<title>Node10&#45;&gt;Node11</title>
<g id="a_edge11_Node000010_Node000011"><a xlink:title=" ">
<path fill="none" stroke="#63b8ff" d="M467.08,-199.34C474.24,-203.05 481.05,-207.56 486.75,-213 514.36,-239.37 496.63,-263.15 522.75,-291 525.14,-293.55 527.8,-295.93 530.62,-298.14"/>
<polygon fill="#63b8ff" stroke="#63b8ff" points="528.59,-300.99 538.81,-303.79 532.56,-295.23 528.59,-300.99"/>
</a>
</g>
</g>
<!-- Node12 -->
<g id="Node000012" class="node">
<title>Node12</title>
<g id="a_Node000012"><a xlink:href="class_fiea_1_1_engine_1_1_content_1_1_scope.html#a8f7dfeddfe92368a8d160ed2b805640f" target="_top" xlink:title="Tell if this scope is present somewhere lower down in the scopes tree as a child.">
<polygon fill="white" stroke="#666666" points="957.75,-282 830.75,-282 830.75,-250 957.75,-250 957.75,-282"/>
<text text-anchor="start" x="838.75" y="-268.5" font-family="Helvetica,sans-Serif" font-size="10.00">Fiea::Engine::Content</text>
<text text-anchor="middle" x="894.25" y="-256.5" font-family="Helvetica,sans-Serif" font-size="10.00">::Scope::IsDescendentOf</text>
</a>
</g>
</g>
<!-- Node10&#45;&gt;Node12 -->
<g id="edge12_Node000010_Node000012" class="edge">
<title>Node10&#45;&gt;Node12</title>
<g id="a_edge12_Node000010_Node000012"><a xlink:title=" ">
<path fill="none" stroke="#63b8ff" d="M467.82,-193.83C474.55,-196.51 481.05,-199.84 486.75,-204 510.06,-221 497.47,-244.12 522.75,-258 614.93,-308.62 740.45,-297.86 819.15,-283.46"/>
<polygon fill="#63b8ff" stroke="#63b8ff" points="819.75,-286.91 828.92,-281.6 818.45,-280.03 819.75,-286.91"/>
</a>
</g>
</g>
<!-- Node13 -->
<g id="Node000013" class="node">
<title>Node13</title>
<g id="a_Node000013"><a xlink:href="class_fiea_1_1_engine_1_1_content_1_1_datum.html#a740662b031de78f05b9f9ce7dac13d8f" target="_top" xlink:title="What is the type of the Datum, returns true or false.">
<polygon fill="white" stroke="#666666" points="634.75,-199 523.5,-199 523.5,-167 634.75,-167 634.75,-199"/>
<text text-anchor="start" x="531.5" y="-185.5" font-family="Helvetica,sans-Serif" font-size="10.00">Fiea::Engine::Content</text>
<text text-anchor="middle" x="579.12" y="-173.5" font-family="Helvetica,sans-Serif" font-size="10.00">::Datum::IsType</text>
</a>
</g>
</g>
<!-- Node10&#45;&gt;Node13 -->
<g id="edge13_Node000010_Node000013" class="edge">
<title>Node10&#45;&gt;Node13</title>
<g id="a_edge13_Node000010_Node000013"><a xlink:title=" ">
<path fill="none" stroke="#63b8ff" d="M467.98,-183C481.98,-183 497.16,-183 511.66,-183"/>
<polygon fill="#63b8ff" stroke="#63b8ff" points="511.59,-186.5 521.59,-183 511.59,-179.5 511.59,-186.5"/>
</a>
</g>
</g>
<!-- Node14 -->
<g id="Node000014" class="node">
<title>Node14</title>
<g id="a_Node000014"><a xlink:href="class_fiea_1_1_engine_1_1_content_1_1_datum.html#a4ccb082ce85390925305f19a24daaed8" target="_top" xlink:title="This function is for pushing an element at the back of the data union array. It is using a universal ...">
<polygon fill="white" stroke="#666666" points="634.75,-111 523.5,-111 523.5,-79 634.75,-79 634.75,-111"/>
<text text-anchor="start" x="531.5" y="-97.5" font-family="Helvetica,sans-Serif" font-size="10.00">Fiea::Engine::Content</text>
<text text-anchor="middle" x="579.12" y="-85.5" font-family="Helvetica,sans-Serif" font-size="10.00">::Datum::Push</text>
</a>
</g>
</g>
<!-- Node10&#45;&gt;Node14 -->
<g id="edge14_Node000010_Node000014" class="edge">
<title>Node10&#45;&gt;Node14</title>
<g id="a_edge14_Node000010_Node000014"><a xlink:title=" ">
<path fill="none" stroke="#63b8ff" d="M443.67,-166.65C470.12,-152.56 508.51,-132.1 537.51,-116.65"/>
<polygon fill="#63b8ff" stroke="#63b8ff" points="538.82,-119.91 546,-112.12 535.53,-113.73 538.82,-119.91"/>
</a>
</g>
</g>
<!-- Node18 -->
<g id="Node000018" class="node">
<title>Node18</title>
<g id="a_Node000018"><a xlink:href="class_fiea_1_1_engine_1_1_content_1_1_scope.html#af6a94922a8fa123c3b22b7b4485963de" target="_top" xlink:title="Setter for Parent.">
<polygon fill="white" stroke="#666666" points="634.75,-249 523.5,-249 523.5,-217 634.75,-217 634.75,-249"/>
<text text-anchor="start" x="531.5" y="-235.5" font-family="Helvetica,sans-Serif" font-size="10.00">Fiea::Engine::Content</text>
<text text-anchor="middle" x="579.12" y="-223.5" font-family="Helvetica,sans-Serif" font-size="10.00">::Scope::SetParent</text>
</a>
</g>
</g>
<!-- Node10&#45;&gt;Node18 -->
<g id="edge18_Node000010_Node000018" class="edge">
<title>Node10&#45;&gt;Node18</title>
<g id="a_edge18_Node000010_Node000018"><a xlink:title=" ">
<path fill="none" stroke="#63b8ff" d="M467.07,-199.37C481.68,-203.8 497.64,-208.63 512.79,-213.22"/>
<polygon fill="#63b8ff" stroke="#63b8ff" points="511.62,-216.52 522.2,-216.07 513.65,-209.82 511.62,-216.52"/>
</a>
</g>
</g>
<!-- Node14&#45;&gt;Node15 -->
<g id="edge15_Node000014_Node000015" class="edge">
<title>Node14&#45;&gt;Node15</title>
<g id="a_edge15_Node000014_Node000015"><a xlink:title=" ">
<path fill="none" stroke="#63b8ff" d="M634.91,-108.41C643.53,-110.51 652.51,-112.71 661.35,-114.87"/>
<polygon fill="#63b8ff" stroke="#63b8ff" points="660.4,-118.25 670.95,-117.22 662.07,-111.45 660.4,-118.25"/>
</a>
</g>
</g>
<!-- Node14&#45;&gt;Node16 -->
<g id="edge16_Node000014_Node000016" class="edge">
<title>Node14&#45;&gt;Node16</title>
<g id="a_edge16_Node000014_Node000016"><a xlink:title=" ">
<path fill="none" stroke="#63b8ff" d="M634.91,-87.93C643.11,-86.87 651.64,-85.76 660.07,-84.68"/>
<polygon fill="#63b8ff" stroke="#63b8ff" points="660.47,-88.15 669.94,-83.4 659.57,-81.21 660.47,-88.15"/>
</a>
</g>
</g>
<!-- Node14&#45;&gt;Node17 -->
<g id="edge17_Node000014_Node000017" class="edge">
<title>Node14&#45;&gt;Node17</title>
<g id="a_edge17_Node000014_Node000017"><a xlink:title=" ">
<path fill="none" stroke="#63b8ff" d="M610.61,-78.63C632.63,-66.81 662.6,-50.71 686.65,-37.8"/>
<polygon fill="#63b8ff" stroke="#63b8ff" points="688.06,-41.01 695.22,-33.2 684.75,-34.85 688.06,-41.01"/>
</a>
</g>
</g>
<!-- Node19 -->
<g id="Node000019" class="node">
<title>Node19</title>
<g id="a_Node000019"><a xlink:href="class_fiea_1_1_engine_1_1_content_1_1_scope.html#a853041a85e32e8b7de723fa3dd9a1d82" target="_top" xlink:title="Tells if this scope is present somewhere higher up in the scopes tree as a parent.">
<polygon fill="white" stroke="#666666" points="785,-249 671.5,-249 671.5,-217 785,-217 785,-249"/>
<text text-anchor="start" x="679.5" y="-235.5" font-family="Helvetica,sans-Serif" font-size="10.00">Fiea::Engine::Content</text>
<text text-anchor="middle" x="728.25" y="-223.5" font-family="Helvetica,sans-Serif" font-size="10.00">::Scope::IsAncestorOf</text>
</a>
</g>
</g>
<!-- Node18&#45;&gt;Node19 -->
<g id="edge19_Node000018_Node000019" class="edge">
<title>Node18&#45;&gt;Node19</title>
<g id="a_edge19_Node000018_Node000019"><a xlink:title=" ">
<path fill="none" stroke="#63b8ff" d="M634.91,-233C643.11,-233 651.64,-233 660.07,-233"/>
<polygon fill="#63b8ff" stroke="#63b8ff" points="659.92,-236.5 669.92,-233 659.92,-229.5 659.92,-236.5"/>
</a>
</g>
</g>
<!-- Node20 -->
<g id="Node000020" class="node">
<title>Node20</title>
<g id="a_Node000020"><a xlink:href="class_fiea_1_1_engine_1_1_content_1_1_scope.html#a769b8bf0382518e075fb90f62940624c" target="_top" xlink:title="Orpahans this scope from its parent.">
<polygon fill="white" stroke="#666666" points="783.88,-199 672.62,-199 672.62,-167 783.88,-167 783.88,-199"/>
<text text-anchor="start" x="680.62" y="-185.5" font-family="Helvetica,sans-Serif" font-size="10.00">Fiea::Engine::Content</text>
<text text-anchor="middle" x="728.25" y="-173.5" font-family="Helvetica,sans-Serif" font-size="10.00">::Scope::Orphan</text>
</a>
</g>
</g>
<!-- Node18&#45;&gt;Node20 -->
<g id="edge21_Node000018_Node000020" class="edge">
<title>Node18&#45;&gt;Node20</title>
<g id="a_edge21_Node000018_Node000020"><a xlink:title=" ">
<path fill="none" stroke="#63b8ff" d="M628.3,-216.63C640.94,-212.33 654.71,-207.65 667.86,-203.18"/>
<polygon fill="#63b8ff" stroke="#63b8ff" points="668.94,-206.51 677.28,-199.98 666.69,-199.89 668.94,-206.51"/>
</a>
</g>
</g>
<!-- Node19&#45;&gt;Node12 -->
<g id="edge20_Node000019_Node000012" class="edge">
<title>Node19&#45;&gt;Node12</title>
<g id="a_edge20_Node000019_Node000012"><a xlink:title=" ">
<path fill="none" stroke="#63b8ff" d="M785.23,-244.26C796.27,-246.49 808.01,-248.85 819.53,-251.17"/>
<polygon fill="#63b8ff" stroke="#63b8ff" points="818.51,-254.53 829,-253.07 819.89,-247.67 818.51,-254.53"/>
</a>
</g>
</g>
<!-- Node21 -->
<g id="Node000021" class="node">
<title>Node21</title>
<g id="a_Node000021"><a xlink:href="class_fiea_1_1_engine_1_1_content_1_1_scope.html#abe37db932a06fabb2cb02ec65b6f55d8" target="_top" xlink:title="Search for a nested Scope which is the SAME(not just equal) as the provided scope and return the Datu...">
<polygon fill="white" stroke="#666666" points="967.5,-221 821,-221 821,-189 967.5,-189 967.5,-221"/>
<text text-anchor="start" x="829" y="-207.5" font-family="Helvetica,sans-Serif" font-size="10.00">Fiea::Engine::Content</text>
<text text-anchor="middle" x="894.25" y="-195.5" font-family="Helvetica,sans-Serif" font-size="10.00">::Scope::FindContainedScope</text>
</a>
</g>
</g>
<!-- Node20&#45;&gt;Node21 -->
<g id="edge22_Node000020_Node000021" class="edge">
<title>Node20&#45;&gt;Node21</title>
<g id="a_edge22_Node000020_Node000021"><a xlink:title=" ">
<path fill="none" stroke="#63b8ff" d="M784.32,-190.39C792.4,-191.47 800.88,-192.61 809.39,-193.75"/>
<polygon fill="#63b8ff" stroke="#63b8ff" points="808.68,-197.19 819.06,-195.05 809.61,-190.25 808.68,-197.19"/>
</a>
</g>
</g>
<!-- Node22 -->
<g id="Node000022" class="node">
<title>Node22</title>
<g id="a_Node000022"><a xlink:href="class_fiea_1_1_engine_1_1_content_1_1_datum.html#a23395b19af06abda786d991645b41e6d" target="_top" xlink:title=" ">
<polygon fill="white" stroke="#666666" points="949.88,-171 838.62,-171 838.62,-139 949.88,-139 949.88,-171"/>
<text text-anchor="start" x="846.62" y="-157.5" font-family="Helvetica,sans-Serif" font-size="10.00">Fiea::Engine::Content</text>
<text text-anchor="middle" x="894.25" y="-145.5" font-family="Helvetica,sans-Serif" font-size="10.00">::Datum::RemoveAt</text>
</a>
</g>
</g>
<!-- Node20&#45;&gt;Node22 -->
<g id="edge23_Node000020_Node000022" class="edge">
<title>Node20&#45;&gt;Node22</title>
<g id="a_edge23_Node000020_Node000022"><a xlink:title=" ">
<path fill="none" stroke="#63b8ff" d="M784.32,-173.6C798.05,-171.25 812.91,-168.72 827.11,-166.29"/>
<polygon fill="#63b8ff" stroke="#63b8ff" points="827.57,-169.76 836.84,-164.63 826.39,-162.86 827.57,-169.76"/>
</a>
</g>
</g>
</g>
</svg>
