<?xml version="1.0" encoding="UTF-8" standalone="no"?>
<!DOCTYPE svg PUBLIC "-//W3C//DTD SVG 1.1//EN"
 "http://www.w3.org/Graphics/SVG/1.1/DTD/svg11.dtd">
<!-- Generated by graphviz version 12.2.1 (20241206.2353)
 -->
<!-- Title: Fiea::Engine::List::end Pages: 1 -->
<svg width="251pt" height="90pt"
 viewBox="0.00 0.00 250.75 90.00" xmlns="http://www.w3.org/2000/svg" xmlns:xlink="http://www.w3.org/1999/xlink">
<g id="graph0" class="graph" transform="scale(1 1) rotate(0) translate(4 86)">
<title>Fiea::Engine::List::end</title>
<!-- Node1 -->
<g id="Node000001" class="node">
<title>Node1</title>
<g id="a_Node000001"><a xlink:title="Returns an iterator that holds the sentinel which is the node after the last node.">
<polygon fill="#999999" stroke="#666666" points="242.75,-51 128.5,-51 128.5,-31 242.75,-31 242.75,-51"/>
<text text-anchor="middle" x="185.62" y="-37.5" font-family="Helvetica,sans-Serif" font-size="10.00">Fiea::Engine::List::end</text>
</a>
</g>
</g>
<!-- Node2 -->
<g id="Node000002" class="node">
<title>Node2</title>
<g id="a_Node000002"><a xlink:href="class_fiea_1_1_engine_1_1_list.html#a313ef54da90b47744992f5e2bf444292" target="_top" xlink:title="Copy constructor.">
<polygon fill="white" stroke="#666666" points="92.5,-82 0,-82 0,-50 92.5,-50 92.5,-82"/>
<text text-anchor="start" x="8" y="-68.5" font-family="Helvetica,sans-Serif" font-size="10.00">Fiea::Engine::List</text>
<text text-anchor="middle" x="46.25" y="-56.5" font-family="Helvetica,sans-Serif" font-size="10.00">::List</text>
</a>
</g>
</g>
<!-- Node1&#45;&gt;Node2 -->
<g id="edge1_Node000001_Node000002" class="edge">
<title>Node1&#45;&gt;Node2</title>
<g id="a_edge1_Node000001_Node000002"><a xlink:title=" ">
<path fill="none" stroke="#63b8ff" d="M117.13,-53.28C108.86,-54.79 100.57,-56.3 92.73,-57.72"/>
<polygon fill="#63b8ff" stroke="#63b8ff" points="117.65,-56.75 126.86,-51.51 116.4,-49.86 117.65,-56.75"/>
</a>
</g>
</g>
<!-- Node3 -->
<g id="Node000003" class="node">
<title>Node3</title>
<g id="a_Node000003"><a xlink:href="class_fiea_1_1_engine_1_1_list.html#ad5389cb61e4d680a3e24ec3a74da2c4b" target="_top" xlink:title="Assign operator. It is used when List a = b. Transfers all elements from one list to another.">
<polygon fill="white" stroke="#666666" points="92.5,-32 0,-32 0,0 92.5,0 92.5,-32"/>
<text text-anchor="start" x="8" y="-18.5" font-family="Helvetica,sans-Serif" font-size="10.00">Fiea::Engine::List</text>
<text text-anchor="middle" x="46.25" y="-6.5" font-family="Helvetica,sans-Serif" font-size="10.00">::operator=</text>
</a>
</g>
</g>
<!-- Node1&#45;&gt;Node3 -->
<g id="edge2_Node000001_Node000003" class="edge">
<title>Node1&#45;&gt;Node3</title>
<g id="a_edge2_Node000001_Node000003"><a xlink:title=" ">
<path fill="none" stroke="#63b8ff" d="M117.13,-28.72C108.86,-27.21 100.57,-25.7 92.73,-24.28"/>
<polygon fill="#63b8ff" stroke="#63b8ff" points="116.4,-32.14 126.86,-30.49 117.65,-25.25 116.4,-32.14"/>
</a>
</g>
</g>
</g>
</svg>
