<?xml version="1.0" encoding="UTF-8" standalone="no"?>
<!DOCTYPE svg PUBLIC "-//W3C//DTD SVG 1.1//EN"
 "http://www.w3.org/Graphics/SVG/1.1/DTD/svg11.dtd">
<!-- Generated by graphviz version 12.2.1 (20241206.2353)
 -->
<!-- Title: Fiea::Engine::Content::ScopeWriter::PopScope Pages: 1 -->
<svg width="294pt" height="226pt"
 viewBox="0.00 0.00 294.25 226.00" xmlns="http://www.w3.org/2000/svg" xmlns:xlink="http://www.w3.org/1999/xlink">
<g id="graph0" class="graph" transform="scale(1 1) rotate(0) translate(4 222)">
<title>Fiea::Engine::Content::ScopeWriter::PopScope</title>
<!-- Node1 -->
<g id="Node000001" class="node">
<title>Node1</title>
<g id="a_Node000001"><a xlink:title="This only pops the top element from the stack. Error condition if you pop an empty stack....">
<polygon fill="#999999" stroke="#666666" points="286.25,-131 160,-131 160,-99 286.25,-99 286.25,-131"/>
<text text-anchor="start" x="168" y="-117.5" font-family="Helvetica,sans-Serif" font-size="10.00">Fiea::Engine::Content</text>
<text text-anchor="middle" x="223.12" y="-105.5" font-family="Helvetica,sans-Serif" font-size="10.00">::ScopeWriter::PopScope</text>
</a>
</g>
</g>
<!-- Node2 -->
<g id="Node000002" class="node">
<title>Node2</title>
<g id="a_Node000002"><a xlink:href="class_fiea_1_1_engine_1_1_content_1_1_action_handler.html#a174028e4f785081eec4e3cc6257bb41b" target="_top" xlink:title=" ">
<polygon fill="white" stroke="#666666" points="124,-218 0,-218 0,-186 124,-186 124,-218"/>
<text text-anchor="start" x="8" y="-204.5" font-family="Helvetica,sans-Serif" font-size="10.00">Fiea::Engine::Content</text>
<text text-anchor="middle" x="62" y="-192.5" font-family="Helvetica,sans-Serif" font-size="10.00">::ActionHandler::ExitKey</text>
</a>
</g>
</g>
<!-- Node1&#45;&gt;Node2 -->
<g id="edge1_Node000001_Node000002" class="edge">
<title>Node1&#45;&gt;Node2</title>
<g id="a_edge1_Node000001_Node000002"><a xlink:title=" ">
<path fill="none" stroke="#63b8ff" d="M189.13,-137.88C170.48,-150.29 146.47,-165.41 124,-177 118.2,-179.99 111.96,-182.89 105.76,-185.59"/>
<polygon fill="#63b8ff" stroke="#63b8ff" points="191.02,-140.83 197.36,-132.34 187.11,-135.02 191.02,-140.83"/>
</a>
</g>
</g>
<!-- Node3 -->
<g id="Node000003" class="node">
<title>Node3</title>
<g id="a_Node000003"><a xlink:href="class_fiea_1_1_engine_1_1_content_1_1_action_list_handler.html#af6ca6d0f7d29cb24658ea9040dcd02ef" target="_top" xlink:title=" ">
<polygon fill="white" stroke="#666666" points="117.62,-168 6.38,-168 6.38,-124 117.62,-124 117.62,-168"/>
<text text-anchor="start" x="14.38" y="-154.5" font-family="Helvetica,sans-Serif" font-size="10.00">Fiea::Engine::Content</text>
<text text-anchor="start" x="14.38" y="-142.5" font-family="Helvetica,sans-Serif" font-size="10.00">::ActionListHandler::</text>
<text text-anchor="middle" x="62" y="-130.5" font-family="Helvetica,sans-Serif" font-size="10.00">ExitKey</text>
</a>
</g>
</g>
<!-- Node1&#45;&gt;Node3 -->
<g id="edge2_Node000001_Node000003" class="edge">
<title>Node1&#45;&gt;Node3</title>
<g id="a_edge2_Node000001_Node000003"><a xlink:title=" ">
<path fill="none" stroke="#63b8ff" d="M148.61,-129.32C138.32,-131.33 127.89,-133.36 118.02,-135.28"/>
<polygon fill="#63b8ff" stroke="#63b8ff" points="149.06,-132.8 158.21,-127.45 147.72,-125.93 149.06,-132.8"/>
</a>
</g>
</g>
<!-- Node4 -->
<g id="Node000004" class="node">
<title>Node4</title>
<g id="a_Node000004"><a xlink:href="class_fiea_1_1_engine_1_1_content_1_1_game_object_handler.html#af6be631699c4f60dd4391fd26aef9345" target="_top" xlink:title=" ">
<polygon fill="white" stroke="#666666" points="120.25,-106 3.75,-106 3.75,-62 120.25,-62 120.25,-106"/>
<text text-anchor="start" x="11.75" y="-92.5" font-family="Helvetica,sans-Serif" font-size="10.00">Fiea::Engine::Content</text>
<text text-anchor="start" x="11.75" y="-80.5" font-family="Helvetica,sans-Serif" font-size="10.00">::GameObjectHandler::</text>
<text text-anchor="middle" x="62" y="-68.5" font-family="Helvetica,sans-Serif" font-size="10.00">ExitKey</text>
</a>
</g>
</g>
<!-- Node1&#45;&gt;Node4 -->
<g id="edge3_Node000001_Node000004" class="edge">
<title>Node1&#45;&gt;Node4</title>
<g id="a_edge3_Node000001_Node000004"><a xlink:title=" ">
<path fill="none" stroke="#63b8ff" d="M148.39,-100.64C139.06,-98.82 129.62,-96.98 120.58,-95.22"/>
<polygon fill="#63b8ff" stroke="#63b8ff" points="147.72,-104.07 158.21,-102.55 149.06,-97.2 147.72,-104.07"/>
</a>
</g>
</g>
<!-- Node5 -->
<g id="Node000005" class="node">
<title>Node5</title>
<g id="a_Node000005"><a xlink:href="class_fiea_1_1_engine_1_1_content_1_1_scope_parse_handler.html#ab3befee2a3068046d51704e058b3bed5" target="_top" xlink:title=" ">
<polygon fill="white" stroke="#666666" points="119.5,-44 4.5,-44 4.5,0 119.5,0 119.5,-44"/>
<text text-anchor="start" x="12.5" y="-30.5" font-family="Helvetica,sans-Serif" font-size="10.00">Fiea::Engine::Content</text>
<text text-anchor="start" x="12.5" y="-18.5" font-family="Helvetica,sans-Serif" font-size="10.00">::ScopeParseHandler::</text>
<text text-anchor="middle" x="62" y="-6.5" font-family="Helvetica,sans-Serif" font-size="10.00">ExitKey</text>
</a>
</g>
</g>
<!-- Node1&#45;&gt;Node5 -->
<g id="edge4_Node000001_Node000005" class="edge">
<title>Node1&#45;&gt;Node5</title>
<g id="a_edge4_Node000001_Node000005"><a xlink:title=" ">
<path fill="none" stroke="#63b8ff" d="M187.98,-92.32C169.33,-80.22 145.68,-65.32 124,-53 118.94,-50.12 113.58,-47.21 108.22,-44.39"/>
<polygon fill="#63b8ff" stroke="#63b8ff" points="185.96,-95.18 196.24,-97.72 189.78,-89.32 185.96,-95.18"/>
</a>
</g>
</g>
</g>
</svg>
