<?xml version="1.0" encoding="UTF-8" standalone="no"?>
<!DOCTYPE svg PUBLIC "-//W3C//DTD SVG 1.1//EN"
 "http://www.w3.org/Graphics/SVG/1.1/DTD/svg11.dtd">
<!-- Generated by graphviz version 12.2.1 (20241206.2353)
 -->
<!-- Title: Fiea::Engine::GameObject Pages: 1 -->
<svg width="252pt" height="1098pt"
 viewBox="0.00 0.00 252.38 1098.00" xmlns="http://www.w3.org/2000/svg" xmlns:xlink="http://www.w3.org/1999/xlink">
<g id="graph0" class="graph" transform="scale(1 1) rotate(0) translate(4 1094)">
<title>Fiea::Engine::GameObject</title>
<!-- Node1 -->
<g id="Node000001" class="node">
<title>Node1</title>
<g id="a_Node000001"><a xlink:title=" ">
<polygon fill="#999999" stroke="none" points="211.38,-260 87.88,-260 87.88,0 211.38,0 211.38,-260"/>
<text text-anchor="start" x="91.88" y="-246.5" font-family="Helvetica,sans-Serif" font-size="10.00">Fiea::Engine::GameObject</text>
<text text-anchor="start" x="148.12" y="-230.5" font-family="Helvetica,sans-Serif" font-size="10.00"> </text>
<text text-anchor="start" x="96.12" y="-214.5" font-family="Helvetica,sans-Serif" font-size="10.00">+</text>
<text text-anchor="start" x="110.38" y="-214.5" font-family="Helvetica,sans-Serif" font-size="10.00">GameObject()</text>
<text text-anchor="start" x="96.12" y="-198.5" font-family="Helvetica,sans-Serif" font-size="10.00">+</text>
<text text-anchor="start" x="110.38" y="-198.5" font-family="Helvetica,sans-Serif" font-size="10.00">GameObject()</text>
<text text-anchor="start" x="96.12" y="-182.5" font-family="Helvetica,sans-Serif" font-size="10.00">+</text>
<text text-anchor="start" x="110.38" y="-182.5" font-family="Helvetica,sans-Serif" font-size="10.00">GameObject()</text>
<text text-anchor="start" x="96.12" y="-166.5" font-family="Helvetica,sans-Serif" font-size="10.00">+</text>
<text text-anchor="start" x="110.38" y="-166.5" font-family="Helvetica,sans-Serif" font-size="10.00">operator=()</text>
<text text-anchor="start" x="96.12" y="-150.5" font-family="Helvetica,sans-Serif" font-size="10.00">+</text>
<text text-anchor="start" x="110.38" y="-150.5" font-family="Helvetica,sans-Serif" font-size="10.00">operator=()</text>
<text text-anchor="start" x="96.12" y="-134.5" font-family="Helvetica,sans-Serif" font-size="10.00">+</text>
<text text-anchor="start" x="110.38" y="-134.5" font-family="Helvetica,sans-Serif" font-size="10.00">operator==()</text>
<text text-anchor="start" x="96.12" y="-118.5" font-family="Helvetica,sans-Serif" font-size="10.00">+</text>
<text text-anchor="start" x="110.38" y="-118.5" font-family="Helvetica,sans-Serif" font-size="10.00">operator!=()</text>
<text text-anchor="start" x="96.12" y="-102.5" font-family="Helvetica,sans-Serif" font-size="10.00">+</text>
<text text-anchor="start" x="110.38" y="-102.5" font-family="Helvetica,sans-Serif" font-size="10.00">~GameObject()</text>
<text text-anchor="start" x="96.12" y="-86.5" font-family="Helvetica,sans-Serif" font-size="10.00">+</text>
<text text-anchor="start" x="110.38" y="-86.5" font-family="Helvetica,sans-Serif" font-size="10.00">Update()</text>
<text text-anchor="start" x="96.12" y="-70.5" font-family="Helvetica,sans-Serif" font-size="10.00">+</text>
<text text-anchor="start" x="110.38" y="-70.5" font-family="Helvetica,sans-Serif" font-size="10.00">Clone()</text>
<text text-anchor="start" x="96.12" y="-54.5" font-family="Helvetica,sans-Serif" font-size="10.00">+</text>
<text text-anchor="start" x="110.38" y="-54.5" font-family="Helvetica,sans-Serif" font-size="10.00">ToString()</text>
<text text-anchor="start" x="96.12" y="-38.5" font-family="Helvetica,sans-Serif" font-size="10.00">+</text>
<text text-anchor="start" x="110.38" y="-38.5" font-family="Helvetica,sans-Serif" font-size="10.00">Equals()</text>
<text text-anchor="start" x="96.12" y="-22.5" font-family="Helvetica,sans-Serif" font-size="10.00">+</text>
<text text-anchor="start" x="110.38" y="-22.5" font-family="Helvetica,sans-Serif" font-size="10.00">AddAction()</text>
<text text-anchor="start" x="96.12" y="-6.5" font-family="Helvetica,sans-Serif" font-size="10.00">+</text>
<text text-anchor="start" x="110.38" y="-6.5" font-family="Helvetica,sans-Serif" font-size="10.00">GetClassDefinition()</text>
<polygon fill="#666666" stroke="#666666" points="87.88,-242 87.88,-242 211.38,-242 211.38,-242 87.88,-242"/>
<polygon fill="#666666" stroke="#666666" points="87.88,-226 87.88,-226 211.38,-226 211.38,-226 87.88,-226"/>
<polygon fill="none" stroke="#666666" points="87.88,0 87.88,-260 211.38,-260 211.38,0 87.88,0"/>
</a>
</g>
</g>
<!-- Node2 -->
<g id="Node000002" class="node">
<title>Node2</title>
<g id="a_Node000002"><a xlink:href="class_fiea_1_1_engine_1_1_content_1_1_attributed.html" target="_top" xlink:title=" ">
<polygon fill="white" stroke="none" points="103.25,-548 0,-548 0,-308 103.25,-308 103.25,-548"/>
<text text-anchor="start" x="4" y="-534.5" font-family="Helvetica,sans-Serif" font-size="10.00">Fiea::Engine::Content</text>
<text text-anchor="start" x="27.62" y="-522.5" font-family="Helvetica,sans-Serif" font-size="10.00">::Attributed</text>
<text text-anchor="start" x="50.12" y="-506.5" font-family="Helvetica,sans-Serif" font-size="10.00"> </text>
<text text-anchor="start" x="10.88" y="-490.5" font-family="Helvetica,sans-Serif" font-size="10.00">+</text>
<text text-anchor="start" x="27.75" y="-490.5" font-family="Helvetica,sans-Serif" font-size="10.00">Attributed()</text>
<text text-anchor="start" x="10.88" y="-474.5" font-family="Helvetica,sans-Serif" font-size="10.00">+</text>
<text text-anchor="start" x="27.75" y="-474.5" font-family="Helvetica,sans-Serif" font-size="10.00">Attributed()</text>
<text text-anchor="start" x="10.88" y="-458.5" font-family="Helvetica,sans-Serif" font-size="10.00">+</text>
<text text-anchor="start" x="27.75" y="-458.5" font-family="Helvetica,sans-Serif" font-size="10.00">Attributed()</text>
<text text-anchor="start" x="10.88" y="-442.5" font-family="Helvetica,sans-Serif" font-size="10.00">+</text>
<text text-anchor="start" x="27.75" y="-442.5" font-family="Helvetica,sans-Serif" font-size="10.00">operator=()</text>
<text text-anchor="start" x="10.88" y="-426.5" font-family="Helvetica,sans-Serif" font-size="10.00">+</text>
<text text-anchor="start" x="27.75" y="-426.5" font-family="Helvetica,sans-Serif" font-size="10.00">operator=()</text>
<text text-anchor="start" x="10.88" y="-410.5" font-family="Helvetica,sans-Serif" font-size="10.00">+</text>
<text text-anchor="start" x="27.75" y="-410.5" font-family="Helvetica,sans-Serif" font-size="10.00">~Attributed()</text>
<text text-anchor="start" x="10.88" y="-394.5" font-family="Helvetica,sans-Serif" font-size="10.00">+</text>
<text text-anchor="start" x="27.75" y="-394.5" font-family="Helvetica,sans-Serif" font-size="10.00">Clone()</text>
<text text-anchor="start" x="10.88" y="-378.5" font-family="Helvetica,sans-Serif" font-size="10.00">+</text>
<text text-anchor="start" x="27.75" y="-378.5" font-family="Helvetica,sans-Serif" font-size="10.00">ToString()</text>
<text text-anchor="start" x="10.88" y="-362.5" font-family="Helvetica,sans-Serif" font-size="10.00">+</text>
<text text-anchor="start" x="27.75" y="-362.5" font-family="Helvetica,sans-Serif" font-size="10.00">Equals()</text>
<text text-anchor="start" x="10.88" y="-346.5" font-family="Helvetica,sans-Serif" font-size="10.00">+</text>
<text text-anchor="start" x="27.75" y="-346.5" font-family="Helvetica,sans-Serif" font-size="10.00">IsAttribute()</text>
<text text-anchor="start" x="27.75" y="-330.5" font-family="Helvetica,sans-Serif" font-size="10.00">and 6 more...</text>
<text text-anchor="start" x="11.25" y="-314.5" font-family="Helvetica,sans-Serif" font-size="10.00">#</text>
<text text-anchor="start" x="27.75" y="-314.5" font-family="Helvetica,sans-Serif" font-size="10.00">Attributed()</text>
<polygon fill="#666666" stroke="#666666" points="0,-518 0,-518 103.25,-518 103.25,-518 0,-518"/>
<polygon fill="#666666" stroke="#666666" points="0,-502 0,-502 103.25,-502 103.25,-502 0,-502"/>
<polygon fill="none" stroke="#666666" points="0,-308 0,-548 103.25,-548 103.25,-308 0,-308"/>
</a>
</g>
</g>
<!-- Node2&#45;&gt;Node1 -->
<g id="edge1_Node000001_Node000002" class="edge">
<title>Node2&#45;&gt;Node1</title>
<g id="a_edge1_Node000001_Node000002"><a xlink:title=" ">
<path fill="none" stroke="#63b8ff" d="M94.52,-297.42C98.65,-284.97 102.83,-272.35 106.95,-259.9"/>
<polygon fill="none" stroke="#63b8ff" points="91.22,-296.28 91.4,-306.87 97.86,-298.48 91.22,-296.28"/>
</a>
</g>
</g>
<!-- Node3 -->
<g id="Node000003" class="node">
<title>Node3</title>
<g id="a_Node000003"><a xlink:href="class_fiea_1_1_engine_1_1_content_1_1_scope.html" target="_top" xlink:title=" ">
<polygon fill="white" stroke="none" points="103.25,-825 0,-825 0,-585 103.25,-585 103.25,-825"/>
<text text-anchor="start" x="4" y="-811.5" font-family="Helvetica,sans-Serif" font-size="10.00">Fiea::Engine::Content</text>
<text text-anchor="start" x="34.75" y="-799.5" font-family="Helvetica,sans-Serif" font-size="10.00">::Scope</text>
<text text-anchor="start" x="50.12" y="-783.5" font-family="Helvetica,sans-Serif" font-size="10.00"> </text>
<text text-anchor="start" x="9.38" y="-767.5" font-family="Helvetica,sans-Serif" font-size="10.00">+</text>
<text text-anchor="start" x="24.75" y="-767.5" font-family="Helvetica,sans-Serif" font-size="10.00">ToString()</text>
<text text-anchor="start" x="9.38" y="-751.5" font-family="Helvetica,sans-Serif" font-size="10.00">+</text>
<text text-anchor="start" x="24.75" y="-751.5" font-family="Helvetica,sans-Serif" font-size="10.00">Equals()</text>
<text text-anchor="start" x="9.38" y="-735.5" font-family="Helvetica,sans-Serif" font-size="10.00">+</text>
<text text-anchor="start" x="24.75" y="-735.5" font-family="Helvetica,sans-Serif" font-size="10.00">Scope()</text>
<text text-anchor="start" x="9.38" y="-719.5" font-family="Helvetica,sans-Serif" font-size="10.00">+</text>
<text text-anchor="start" x="24.75" y="-719.5" font-family="Helvetica,sans-Serif" font-size="10.00">Scope()</text>
<text text-anchor="start" x="9.38" y="-703.5" font-family="Helvetica,sans-Serif" font-size="10.00">+</text>
<text text-anchor="start" x="24.75" y="-703.5" font-family="Helvetica,sans-Serif" font-size="10.00">Scope()</text>
<text text-anchor="start" x="9.38" y="-687.5" font-family="Helvetica,sans-Serif" font-size="10.00">+</text>
<text text-anchor="start" x="24.75" y="-687.5" font-family="Helvetica,sans-Serif" font-size="10.00">operator=()</text>
<text text-anchor="start" x="9.38" y="-671.5" font-family="Helvetica,sans-Serif" font-size="10.00">+</text>
<text text-anchor="start" x="24.75" y="-671.5" font-family="Helvetica,sans-Serif" font-size="10.00">operator=()</text>
<text text-anchor="start" x="9.38" y="-655.5" font-family="Helvetica,sans-Serif" font-size="10.00">+</text>
<text text-anchor="start" x="24.75" y="-655.5" font-family="Helvetica,sans-Serif" font-size="10.00">~Scope()</text>
<text text-anchor="start" x="9.38" y="-639.5" font-family="Helvetica,sans-Serif" font-size="10.00">+</text>
<text text-anchor="start" x="24.75" y="-639.5" font-family="Helvetica,sans-Serif" font-size="10.00">Clone()</text>
<text text-anchor="start" x="9.38" y="-623.5" font-family="Helvetica,sans-Serif" font-size="10.00">+</text>
<text text-anchor="start" x="24.75" y="-623.5" font-family="Helvetica,sans-Serif" font-size="10.00">Scope()</text>
<text text-anchor="start" x="24.75" y="-607.5" font-family="Helvetica,sans-Serif" font-size="10.00">and 22 more...</text>
<text text-anchor="start" x="9.75" y="-591.5" font-family="Helvetica,sans-Serif" font-size="10.00">#</text>
<text text-anchor="start" x="24.75" y="-591.5" font-family="Helvetica,sans-Serif" font-size="10.00">GetAttributes()</text>
<polygon fill="#666666" stroke="#666666" points="0,-795 0,-795 103.25,-795 103.25,-795 0,-795"/>
<polygon fill="#666666" stroke="#666666" points="0,-779 0,-779 103.25,-779 103.25,-779 0,-779"/>
<polygon fill="none" stroke="#666666" points="0,-585 0,-825 103.25,-825 103.25,-585 0,-585"/>
</a>
</g>
</g>
<!-- Node3&#45;&gt;Node2 -->
<g id="edge2_Node000002_Node000003" class="edge">
<title>Node3&#45;&gt;Node2</title>
<g id="a_edge2_Node000002_Node000003"><a xlink:title=" ">
<path fill="none" stroke="#63b8ff" d="M51.62,-573.91C51.62,-565.15 51.62,-556.36 51.62,-547.66"/>
<polygon fill="none" stroke="#63b8ff" points="48.13,-573.87 51.63,-583.87 55.13,-573.87 48.13,-573.87"/>
</a>
</g>
</g>
<!-- Node4 -->
<g id="Node000004" class="node">
<title>Node4</title>
<g id="a_Node000004"><a xlink:href="class_fiea_1_1_engine_1_1_r_t_t_i.html" target="_top" xlink:title=" ">
<polygon fill="white" stroke="none" points="97,-1090 6.25,-1090 6.25,-862 97,-862 97,-1090"/>
<text text-anchor="start" x="10.38" y="-1076.5" font-family="Helvetica,sans-Serif" font-size="10.00">Fiea::Engine::RTTI</text>
<text text-anchor="start" x="50.12" y="-1060.5" font-family="Helvetica,sans-Serif" font-size="10.00"> </text>
<text text-anchor="start" x="10.25" y="-1044.5" font-family="Helvetica,sans-Serif" font-size="10.00">+</text>
<text text-anchor="start" x="20.25" y="-1044.5" font-family="Helvetica,sans-Serif" font-size="10.00">RTTI()</text>
<text text-anchor="start" x="10.25" y="-1028.5" font-family="Helvetica,sans-Serif" font-size="10.00">+</text>
<text text-anchor="start" x="20.25" y="-1028.5" font-family="Helvetica,sans-Serif" font-size="10.00">RTTI()</text>
<text text-anchor="start" x="10.25" y="-1012.5" font-family="Helvetica,sans-Serif" font-size="10.00">+</text>
<text text-anchor="start" x="20.25" y="-1012.5" font-family="Helvetica,sans-Serif" font-size="10.00">operator=()</text>
<text text-anchor="start" x="10.25" y="-996.5" font-family="Helvetica,sans-Serif" font-size="10.00">+</text>
<text text-anchor="start" x="20.25" y="-996.5" font-family="Helvetica,sans-Serif" font-size="10.00">RTTI()</text>
<text text-anchor="start" x="10.25" y="-980.5" font-family="Helvetica,sans-Serif" font-size="10.00">+</text>
<text text-anchor="start" x="20.25" y="-980.5" font-family="Helvetica,sans-Serif" font-size="10.00">operator=()</text>
<text text-anchor="start" x="10.25" y="-964.5" font-family="Helvetica,sans-Serif" font-size="10.00">+</text>
<text text-anchor="start" x="20.25" y="-964.5" font-family="Helvetica,sans-Serif" font-size="10.00">~RTTI()</text>
<text text-anchor="start" x="10.25" y="-948.5" font-family="Helvetica,sans-Serif" font-size="10.00">+</text>
<text text-anchor="start" x="20.25" y="-948.5" font-family="Helvetica,sans-Serif" font-size="10.00">TypeIdInstance()</text>
<text text-anchor="start" x="10.25" y="-932.5" font-family="Helvetica,sans-Serif" font-size="10.00">+</text>
<text text-anchor="start" x="20.25" y="-932.5" font-family="Helvetica,sans-Serif" font-size="10.00">Is()</text>
<text text-anchor="start" x="10.25" y="-916.5" font-family="Helvetica,sans-Serif" font-size="10.00">+</text>
<text text-anchor="start" x="20.25" y="-916.5" font-family="Helvetica,sans-Serif" font-size="10.00">As()</text>
<text text-anchor="start" x="10.25" y="-900.5" font-family="Helvetica,sans-Serif" font-size="10.00">+</text>
<text text-anchor="start" x="20.25" y="-900.5" font-family="Helvetica,sans-Serif" font-size="10.00">As()</text>
<text text-anchor="start" x="10.25" y="-884.5" font-family="Helvetica,sans-Serif" font-size="10.00">+</text>
<text text-anchor="start" x="20.25" y="-884.5" font-family="Helvetica,sans-Serif" font-size="10.00">ToString()</text>
<text text-anchor="start" x="10.25" y="-868.5" font-family="Helvetica,sans-Serif" font-size="10.00">+</text>
<text text-anchor="start" x="20.25" y="-868.5" font-family="Helvetica,sans-Serif" font-size="10.00">Equals()</text>
<polygon fill="#666666" stroke="#666666" points="6.25,-1072 6.25,-1072 97,-1072 97,-1072 6.25,-1072"/>
<polygon fill="#666666" stroke="#666666" points="6.25,-1056 6.25,-1056 97,-1056 97,-1056 6.25,-1056"/>
<polygon fill="none" stroke="#666666" points="6.25,-862 6.25,-1090 97,-1090 97,-862 6.25,-862"/>
</a>
</g>
</g>
<!-- Node4&#45;&gt;Node3 -->
<g id="edge3_Node000003_Node000004" class="edge">
<title>Node4&#45;&gt;Node3</title>
<g id="a_edge3_Node000003_Node000004"><a xlink:title=" ">
<path fill="none" stroke="#63b8ff" d="M51.62,-850.73C51.62,-842.05 51.62,-833.32 51.62,-824.68"/>
<polygon fill="none" stroke="#63b8ff" points="48.13,-850.58 51.63,-860.58 55.13,-850.58 48.13,-850.58"/>
</a>
</g>
</g>
<!-- Node5 -->
<g id="Node000005" class="node">
<title>Node5</title>
<g id="a_Node000005"><a xlink:href="struct_fiea_1_1_engine_1_1_game_object_1_1_transform.html" target="_top" xlink:title=" ">
<polygon fill="white" stroke="none" points="244.38,-476 120.88,-476 120.88,-380 244.38,-380 244.38,-476"/>
<text text-anchor="start" x="124.88" y="-462.5" font-family="Helvetica,sans-Serif" font-size="10.00">Fiea::Engine::GameObject</text>
<text text-anchor="start" x="157.5" y="-450.5" font-family="Helvetica,sans-Serif" font-size="10.00">::Transform</text>
<text text-anchor="start" x="140.75" y="-434.5" font-family="Helvetica,sans-Serif" font-size="10.00">+</text>
<text text-anchor="start" x="166.62" y="-434.5" font-family="Helvetica,sans-Serif" font-size="10.00">_Position</text>
<text text-anchor="start" x="140.75" y="-418.5" font-family="Helvetica,sans-Serif" font-size="10.00">+</text>
<text text-anchor="start" x="166.62" y="-418.5" font-family="Helvetica,sans-Serif" font-size="10.00">_Rotation</text>
<text text-anchor="start" x="140.75" y="-402.5" font-family="Helvetica,sans-Serif" font-size="10.00">+</text>
<text text-anchor="start" x="166.62" y="-402.5" font-family="Helvetica,sans-Serif" font-size="10.00">_Scale</text>
<text text-anchor="start" x="181.12" y="-386.5" font-family="Helvetica,sans-Serif" font-size="10.00"> </text>
<polygon fill="#666666" stroke="#666666" points="120.88,-446 120.88,-446 244.38,-446 244.38,-446 120.88,-446"/>
<polygon fill="#666666" stroke="#666666" points="120.88,-398 120.88,-398 164.62,-398 164.62,-398 120.88,-398"/>
<polygon fill="#666666" stroke="#666666" points="164.62,-398 164.62,-398 244.38,-398 244.38,-398 164.62,-398"/>
<polygon fill="none" stroke="#666666" points="120.88,-380 120.88,-476 244.38,-476 244.38,-380 120.88,-380"/>
</a>
</g>
</g>
<!-- Node5&#45;&gt;Node1 -->
<g id="edge4_Node000001_Node000005" class="edge">
<title>Node5&#45;&gt;Node1</title>
<g id="a_edge4_Node000001_Node000005"><a xlink:title=" ">
<path fill="none" stroke="#63b8ff" d="M177.4,-380.1C174.13,-350.82 169.74,-311.42 165.41,-272.61"/>
<polygon fill="none" stroke="#63b8ff" points="165.41,-272.59 160.77,-267.07 164.08,-260.66 168.72,-266.18 165.41,-272.59"/>
</a>
</g>
<text text-anchor="middle" x="196.36" y="-280.5" font-family="Helvetica,sans-Serif" font-size="10.00" fill="grey"> +_Transform</text>
</g>
</g>
</svg>
