<?xml version="1.0" encoding="UTF-8" standalone="no"?>
<!DOCTYPE svg PUBLIC "-//W3C//DTD SVG 1.1//EN"
 "http://www.w3.org/Graphics/SVG/1.1/DTD/svg11.dtd">
<!-- Generated by graphviz version 12.2.1 (20241206.2353)
 -->
<!-- Title: Fiea::Engine::Content::Scope::Orphan Pages: 1 -->
<svg width="786pt" height="370pt"
 viewBox="0.00 0.00 786.25 370.00" xmlns="http://www.w3.org/2000/svg" xmlns:xlink="http://www.w3.org/1999/xlink">
<g id="graph0" class="graph" transform="scale(1 1) rotate(0) translate(4 366)">
<title>Fiea::Engine::Content::Scope::Orphan</title>
<!-- Node1 -->
<g id="Node000001" class="node">
<title>Node1</title>
<g id="a_Node000001"><a xlink:title="Orpahans this scope from its parent.">
<polygon fill="#999999" stroke="#666666" points="778.25,-265 667,-265 667,-233 778.25,-233 778.25,-265"/>
<text text-anchor="start" x="675" y="-251.5" font-family="Helvetica,sans-Serif" font-size="10.00">Fiea::Engine::Content</text>
<text text-anchor="middle" x="722.62" y="-239.5" font-family="Helvetica,sans-Serif" font-size="10.00">::Scope::Orphan</text>
</a>
</g>
</g>
<!-- Node2 -->
<g id="Node000002" class="node">
<title>Node2</title>
<g id="a_Node000002"><a xlink:href="class_fiea_1_1_engine_1_1_content_1_1_scope.html#a61d48df64d77d9fefb55da3109f7fba6" target="_top" xlink:title="Move assignment.">
<polygon fill="white" stroke="#666666" points="631,-315 519.75,-315 519.75,-283 631,-283 631,-315"/>
<text text-anchor="start" x="527.75" y="-301.5" font-family="Helvetica,sans-Serif" font-size="10.00">Fiea::Engine::Content</text>
<text text-anchor="middle" x="575.38" y="-289.5" font-family="Helvetica,sans-Serif" font-size="10.00">::Scope::operator=</text>
</a>
</g>
</g>
<!-- Node1&#45;&gt;Node2 -->
<g id="edge1_Node000001_Node000002" class="edge">
<title>Node1&#45;&gt;Node2</title>
<g id="a_edge1_Node000001_Node000002"><a xlink:title=" ">
<path fill="none" stroke="#63b8ff" d="M663.3,-269.08C650.27,-273.56 636.59,-278.27 624.04,-282.59"/>
<polygon fill="#63b8ff" stroke="#63b8ff" points="664.32,-272.43 672.63,-265.86 662.04,-265.81 664.32,-272.43"/>
</a>
</g>
</g>
<!-- Node3 -->
<g id="Node000003" class="node">
<title>Node3</title>
<g id="a_Node000003"><a xlink:href="class_fiea_1_1_engine_1_1_content_1_1_scope.html#af6a94922a8fa123c3b22b7b4485963de" target="_top" xlink:title="Setter for Parent.">
<polygon fill="white" stroke="#666666" points="631,-265 519.75,-265 519.75,-233 631,-233 631,-265"/>
<text text-anchor="start" x="527.75" y="-251.5" font-family="Helvetica,sans-Serif" font-size="10.00">Fiea::Engine::Content</text>
<text text-anchor="middle" x="575.38" y="-239.5" font-family="Helvetica,sans-Serif" font-size="10.00">::Scope::SetParent</text>
</a>
</g>
</g>
<!-- Node1&#45;&gt;Node3 -->
<g id="edge2_Node000001_Node000003" class="edge">
<title>Node1&#45;&gt;Node3</title>
<g id="a_edge2_Node000001_Node000003"><a xlink:title=" ">
<path fill="none" stroke="#63b8ff" d="M655.44,-249C647.39,-249 639.23,-249 631.37,-249"/>
<polygon fill="#63b8ff" stroke="#63b8ff" points="655.2,-252.5 665.2,-249 655.2,-245.5 655.2,-252.5"/>
</a>
</g>
</g>
<!-- Node15 -->
<g id="Node000015" class="node">
<title>Node15</title>
<g id="a_Node000015"><a xlink:href="class_fiea_1_1_engine_1_1_content_1_1_scope.html#aa733c1955a6545125eb9b75a6a2b446a" target="_top" xlink:title="Destructor.">
<polygon fill="white" stroke="#666666" points="631,-215 519.75,-215 519.75,-183 631,-183 631,-215"/>
<text text-anchor="start" x="527.75" y="-201.5" font-family="Helvetica,sans-Serif" font-size="10.00">Fiea::Engine::Content</text>
<text text-anchor="middle" x="575.38" y="-189.5" font-family="Helvetica,sans-Serif" font-size="10.00">::Scope::~Scope</text>
</a>
</g>
</g>
<!-- Node1&#45;&gt;Node15 -->
<g id="edge15_Node000001_Node000015" class="edge">
<title>Node1&#45;&gt;Node15</title>
<g id="a_edge15_Node000001_Node000015"><a xlink:title=" ">
<path fill="none" stroke="#63b8ff" d="M663.3,-228.92C650.27,-224.44 636.59,-219.73 624.04,-215.41"/>
<polygon fill="#63b8ff" stroke="#63b8ff" points="662.04,-232.19 672.63,-232.14 664.32,-225.57 662.04,-232.19"/>
</a>
</g>
</g>
<!-- Node4 -->
<g id="Node000004" class="node">
<title>Node4</title>
<g id="a_Node000004"><a xlink:href="class_fiea_1_1_engine_1_1_content_1_1_scope.html#abf39accc1ce38b12bcbc6884ba0165e3" target="_top" xlink:title="You can provide a child scope that you wish this scope to adopt. You should not adopt a scope if it a...">
<polygon fill="white" stroke="#666666" points="465,-290 353.75,-290 353.75,-258 465,-258 465,-290"/>
<text text-anchor="start" x="361.75" y="-276.5" font-family="Helvetica,sans-Serif" font-size="10.00">Fiea::Engine::Content</text>
<text text-anchor="middle" x="409.38" y="-264.5" font-family="Helvetica,sans-Serif" font-size="10.00">::Scope::Adopt</text>
</a>
</g>
</g>
<!-- Node3&#45;&gt;Node4 -->
<g id="edge3_Node000003_Node000004" class="edge">
<title>Node3&#45;&gt;Node4</title>
<g id="a_edge3_Node000003_Node000004"><a xlink:title=" ">
<path fill="none" stroke="#63b8ff" d="M508.09,-259.1C493.88,-261.27 479.02,-263.54 465.3,-265.63"/>
<polygon fill="#63b8ff" stroke="#63b8ff" points="508.45,-262.59 517.81,-257.62 507.4,-255.67 508.45,-262.59"/>
</a>
</g>
</g>
<!-- Node14 -->
<g id="Node000014" class="node">
<title>Node14</title>
<g id="a_Node000014"><a xlink:href="class_fiea_1_1_engine_1_1_content_1_1_actions_1_1_while_action_list.html#a972d59921793e006691ec0c2f0f32a87" target="_top" xlink:title="Initial setup if any for the action.">
<polygon fill="white" stroke="#666666" points="483.75,-240 335,-240 335,-208 483.75,-208 483.75,-240"/>
<text text-anchor="start" x="343" y="-226.5" font-family="Helvetica,sans-Serif" font-size="10.00">Fiea::Engine::Content</text>
<text text-anchor="middle" x="409.38" y="-214.5" font-family="Helvetica,sans-Serif" font-size="10.00">::Actions::WhileActionList::Init</text>
</a>
</g>
</g>
<!-- Node3&#45;&gt;Node14 -->
<g id="edge14_Node000003_Node000014" class="edge">
<title>Node3&#45;&gt;Node14</title>
<g id="a_edge14_Node000003_Node000014"><a xlink:title=" ">
<path fill="none" stroke="#63b8ff" d="M508.01,-238.88C500.18,-237.69 492.16,-236.47 484.23,-235.26"/>
<polygon fill="#63b8ff" stroke="#63b8ff" points="507.4,-242.33 517.81,-240.38 508.45,-235.41 507.4,-242.33"/>
</a>
</g>
</g>
<!-- Node5 -->
<g id="Node000005" class="node">
<title>Node5</title>
<g id="a_Node000005"><a xlink:href="class_fiea_1_1_engine_1_1_game_object.html#a86ede0bbc21133ffa8f398b0636c8b52" target="_top" xlink:title=" ">
<polygon fill="white" stroke="#666666" points="299,-362 167.5,-362 167.5,-330 299,-330 299,-362"/>
<text text-anchor="start" x="175.5" y="-348.5" font-family="Helvetica,sans-Serif" font-size="10.00">Fiea::Engine::GameObject</text>
<text text-anchor="middle" x="233.25" y="-336.5" font-family="Helvetica,sans-Serif" font-size="10.00">::AddAction</text>
</a>
</g>
</g>
<!-- Node4&#45;&gt;Node5 -->
<g id="edge4_Node000004_Node000005" class="edge">
<title>Node4&#45;&gt;Node5</title>
<g id="a_edge4_Node000004_Node000005"><a xlink:title=" ">
<path fill="none" stroke="#63b8ff" d="M360.52,-295.02C341.45,-303.28 319.25,-312.74 299,-321 292.08,-323.82 284.72,-326.74 277.53,-329.55"/>
<polygon fill="#63b8ff" stroke="#63b8ff" points="361.9,-298.24 369.67,-291.05 359.11,-291.82 361.9,-298.24"/>
</a>
</g>
</g>
<!-- Node6 -->
<g id="Node000006" class="node">
<title>Node6</title>
<g id="a_Node000006"><a xlink:href="class_fiea_1_1_engine_1_1_content_1_1_scope.html#a002f54731a8996f37c4f725d8175ffee" target="_top" xlink:title="This is one of the ways of adding a scope as a child to &#39;this&#39; scope Appending a scope also implies t...">
<polygon fill="white" stroke="#666666" points="291.5,-312 175,-312 175,-280 291.5,-280 291.5,-312"/>
<text text-anchor="start" x="183" y="-298.5" font-family="Helvetica,sans-Serif" font-size="10.00">Fiea::Engine::Content</text>
<text text-anchor="middle" x="233.25" y="-286.5" font-family="Helvetica,sans-Serif" font-size="10.00">::Scope::AppendScope</text>
</a>
</g>
</g>
<!-- Node4&#45;&gt;Node6 -->
<g id="edge5_Node000004_Node000006" class="edge">
<title>Node4&#45;&gt;Node6</title>
<g id="a_edge5_Node000004_Node000006"><a xlink:title=" ">
<path fill="none" stroke="#63b8ff" d="M342.06,-282.38C325.57,-284.46 308.03,-286.68 291.99,-288.7"/>
<polygon fill="#63b8ff" stroke="#63b8ff" points="342.3,-285.88 351.78,-281.15 341.42,-278.93 342.3,-285.88"/>
</a>
</g>
</g>
<!-- Node8 -->
<g id="Node000008" class="node">
<title>Node8</title>
<g id="a_Node000008"><a xlink:href="class_fiea_1_1_engine_1_1_content_1_1_scope_writer.html#a4488fbd92e0706a1207e15a40dac7e22" target="_top" xlink:title=" ">
<polygon fill="white" stroke="#666666" points="131.5,-268 0,-268 0,-236 131.5,-236 131.5,-268"/>
<text text-anchor="start" x="8" y="-254.5" font-family="Helvetica,sans-Serif" font-size="10.00">Fiea::Engine::Content</text>
<text text-anchor="middle" x="65.75" y="-242.5" font-family="Helvetica,sans-Serif" font-size="10.00">::ScopeWriter::PushScope</text>
</a>
</g>
</g>
<!-- Node4&#45;&gt;Node8 -->
<g id="edge7_Node000004_Node000008" class="edge">
<title>Node4&#45;&gt;Node8</title>
<g id="a_edge7_Node000004_Node000008"><a xlink:title=" ">
<path fill="none" stroke="#63b8ff" d="M342.12,-269.73C281.4,-265.82 192.02,-260.07 131.71,-256.18"/>
<polygon fill="#63b8ff" stroke="#63b8ff" points="341.77,-273.22 351.98,-270.37 342.22,-266.23 341.77,-273.22"/>
</a>
</g>
</g>
<!-- Node9 -->
<g id="Node000009" class="node">
<title>Node9</title>
<g id="a_Node000009"><a xlink:href="class_fiea_1_1_engine_1_1_content_1_1_scope_writer.html#adb1089ed0ff92fae8826810cef43e447" target="_top" xlink:title=" ">
<polygon fill="white" stroke="#666666" points="299,-190 167.5,-190 167.5,-158 299,-158 299,-190"/>
<text text-anchor="start" x="175.5" y="-176.5" font-family="Helvetica,sans-Serif" font-size="10.00">Fiea::Engine::Content</text>
<text text-anchor="middle" x="233.25" y="-164.5" font-family="Helvetica,sans-Serif" font-size="10.00">::ScopeWriter::PushScope</text>
</a>
</g>
</g>
<!-- Node4&#45;&gt;Node9 -->
<g id="edge8_Node000004_Node000009" class="edge">
<title>Node4&#45;&gt;Node9</title>
<g id="a_edge8_Node000004_Node000009"><a xlink:title=" ">
<path fill="none" stroke="#63b8ff" d="M343.35,-253.09C340.49,-251.78 337.7,-250.42 335,-249 303.73,-232.56 271.69,-206.89 252.38,-190.26"/>
<polygon fill="#63b8ff" stroke="#63b8ff" points="341.91,-256.28 352.48,-256.98 344.65,-249.84 341.91,-256.28"/>
</a>
</g>
</g>
<!-- Node7 -->
<g id="Node000007" class="node">
<title>Node7</title>
<g id="a_Node000007"><a xlink:href="class_fiea_1_1_engine_1_1_content_1_1_scope_writer.html#ae61df0a4225d06e413fbfda3028f8547" target="_top" xlink:title="This creates a new Scope, makes it a child of the current top scope in the stack and pushes it into t...">
<polygon fill="white" stroke="#666666" points="131.5,-318 0,-318 0,-286 131.5,-286 131.5,-318"/>
<text text-anchor="start" x="8" y="-304.5" font-family="Helvetica,sans-Serif" font-size="10.00">Fiea::Engine::Content</text>
<text text-anchor="middle" x="65.75" y="-292.5" font-family="Helvetica,sans-Serif" font-size="10.00">::ScopeWriter::PushScope</text>
</a>
</g>
</g>
<!-- Node6&#45;&gt;Node7 -->
<g id="edge6_Node000006_Node000007" class="edge">
<title>Node6&#45;&gt;Node7</title>
<g id="a_edge6_Node000006_Node000007"><a xlink:title=" ">
<path fill="none" stroke="#63b8ff" d="M163.56,-298.49C153.02,-298.87 142.17,-299.27 131.72,-299.64"/>
<polygon fill="#63b8ff" stroke="#63b8ff" points="163.45,-302 173.32,-298.14 163.2,-295 163.45,-302"/>
</a>
</g>
</g>
<!-- Node9&#45;&gt;Node8 -->
<g id="edge13_Node000009_Node000008" class="edge">
<title>Node9&#45;&gt;Node8</title>
<g id="a_edge13_Node000009_Node000008"><a xlink:title=" ">
<path fill="none" stroke="#63b8ff" d="M193.09,-195.95C174.65,-205.94 152.2,-217.6 131.5,-227 125.03,-229.94 118.1,-232.85 111.27,-235.6"/>
<polygon fill="#63b8ff" stroke="#63b8ff" points="194.73,-199.04 201.83,-191.18 191.38,-192.9 194.73,-199.04"/>
</a>
</g>
</g>
<!-- Node10 -->
<g id="Node000010" class="node">
<title>Node10</title>
<g id="a_Node000010"><a xlink:href="class_fiea_1_1_engine_1_1_content_1_1_action_handler.html#a392af20cfeb37d539b88183bc9672f7a" target="_top" xlink:title=" ">
<polygon fill="white" stroke="#666666" points="130.75,-218 0.75,-218 0.75,-186 130.75,-186 130.75,-218"/>
<text text-anchor="start" x="8.75" y="-204.5" font-family="Helvetica,sans-Serif" font-size="10.00">Fiea::Engine::Content</text>
<text text-anchor="middle" x="65.75" y="-192.5" font-family="Helvetica,sans-Serif" font-size="10.00">::ActionHandler::EnterKey</text>
</a>
</g>
</g>
<!-- Node9&#45;&gt;Node10 -->
<g id="edge9_Node000009_Node000010" class="edge">
<title>Node9&#45;&gt;Node10</title>
<g id="a_edge9_Node000009_Node000010"><a xlink:title=" ">
<path fill="none" stroke="#63b8ff" d="M156.07,-186.89C147.77,-188.29 139.37,-189.71 131.23,-191.09"/>
<polygon fill="#63b8ff" stroke="#63b8ff" points="156.55,-190.36 165.82,-185.24 155.38,-183.46 156.55,-190.36"/>
</a>
</g>
</g>
<!-- Node11 -->
<g id="Node000011" class="node">
<title>Node11</title>
<g id="a_Node000011"><a xlink:href="class_fiea_1_1_engine_1_1_content_1_1_action_list_handler.html#ae0f8b6534bcf602df112f39202c79ecc" target="_top" xlink:title=" ">
<polygon fill="white" stroke="#666666" points="121.38,-168 10.12,-168 10.12,-124 121.38,-124 121.38,-168"/>
<text text-anchor="start" x="18.12" y="-154.5" font-family="Helvetica,sans-Serif" font-size="10.00">Fiea::Engine::Content</text>
<text text-anchor="start" x="18.12" y="-142.5" font-family="Helvetica,sans-Serif" font-size="10.00">::ActionListHandler::</text>
<text text-anchor="middle" x="65.75" y="-130.5" font-family="Helvetica,sans-Serif" font-size="10.00">EnterKey</text>
</a>
</g>
</g>
<!-- Node9&#45;&gt;Node11 -->
<g id="edge10_Node000009_Node000011" class="edge">
<title>Node9&#45;&gt;Node11</title>
<g id="a_edge10_Node000009_Node000011"><a xlink:title=" ">
<path fill="none" stroke="#63b8ff" d="M156.28,-161.15C144.68,-159.18 132.9,-157.19 121.86,-155.32"/>
<polygon fill="#63b8ff" stroke="#63b8ff" points="155.38,-164.54 165.82,-162.76 156.55,-157.64 155.38,-164.54"/>
</a>
</g>
</g>
<!-- Node12 -->
<g id="Node000012" class="node">
<title>Node12</title>
<g id="a_Node000012"><a xlink:href="class_fiea_1_1_engine_1_1_content_1_1_game_object_handler.html#a626573aebcd7beceb84dbd69bc15105b" target="_top" xlink:title="This handler is specifically for handling any game objects in json and also does some checks to ensur...">
<polygon fill="white" stroke="#666666" points="124,-106 7.5,-106 7.5,-62 124,-62 124,-106"/>
<text text-anchor="start" x="15.5" y="-92.5" font-family="Helvetica,sans-Serif" font-size="10.00">Fiea::Engine::Content</text>
<text text-anchor="start" x="15.5" y="-80.5" font-family="Helvetica,sans-Serif" font-size="10.00">::GameObjectHandler::</text>
<text text-anchor="middle" x="65.75" y="-68.5" font-family="Helvetica,sans-Serif" font-size="10.00">EnterKey</text>
</a>
</g>
</g>
<!-- Node9&#45;&gt;Node12 -->
<g id="edge11_Node000009_Node000012" class="edge">
<title>Node9&#45;&gt;Node12</title>
<g id="a_edge11_Node000009_Node000012"><a xlink:title=" ">
<path fill="none" stroke="#63b8ff" d="M195.92,-151.74C176.94,-140.36 153.2,-126.52 131.5,-115 126.11,-112.14 120.41,-109.23 114.71,-106.41"/>
<polygon fill="#63b8ff" stroke="#63b8ff" points="193.99,-154.66 204.36,-156.83 197.6,-148.67 193.99,-154.66"/>
</a>
</g>
</g>
<!-- Node13 -->
<g id="Node000013" class="node">
<title>Node13</title>
<g id="a_Node000013"><a xlink:href="class_fiea_1_1_engine_1_1_content_1_1_scope_parse_handler.html#a51138cf4e0b638b95c73b4a5acd68842" target="_top" xlink:title=" ">
<polygon fill="white" stroke="#666666" points="123.25,-44 8.25,-44 8.25,0 123.25,0 123.25,-44"/>
<text text-anchor="start" x="16.25" y="-30.5" font-family="Helvetica,sans-Serif" font-size="10.00">Fiea::Engine::Content</text>
<text text-anchor="start" x="16.25" y="-18.5" font-family="Helvetica,sans-Serif" font-size="10.00">::ScopeParseHandler::</text>
<text text-anchor="middle" x="65.75" y="-6.5" font-family="Helvetica,sans-Serif" font-size="10.00">EnterKey</text>
</a>
</g>
</g>
<!-- Node9&#45;&gt;Node13 -->
<g id="edge12_Node000009_Node000013" class="edge">
<title>Node9&#45;&gt;Node13</title>
<g id="a_edge12_Node000009_Node000013"><a xlink:title=" ">
<path fill="none" stroke="#63b8ff" d="M215.7,-148.17C197.61,-121.57 166.5,-80.25 131.5,-53 127.57,-49.94 123.28,-47.08 118.85,-44.43"/>
<polygon fill="#63b8ff" stroke="#63b8ff" points="212.68,-149.95 221.13,-156.33 218.5,-146.07 212.68,-149.95"/>
</a>
</g>
</g>
</g>
</svg>
