<?xml version="1.0" encoding="UTF-8" standalone="no"?>
<!DOCTYPE svg PUBLIC "-//W3C//DTD SVG 1.1//EN"
 "http://www.w3.org/Graphics/SVG/1.1/DTD/svg11.dtd">
<!-- Generated by graphviz version 12.2.1 (20241206.2353)
 -->
<!-- Title: Fiea::Engine::Content::FloatParseHandler::EnterKey Pages: 1 -->
<svg width="641pt" height="378pt"
 viewBox="0.00 0.00 640.50 378.00" xmlns="http://www.w3.org/2000/svg" xmlns:xlink="http://www.w3.org/1999/xlink">
<g id="graph0" class="graph" transform="scale(1 1) rotate(0) translate(4 374)">
<title>Fiea::Engine::Content::FloatParseHandler::EnterKey</title>
<!-- Node1 -->
<g id="Node000001" class="node">
<title>Node1</title>
<g id="a_Node000001"><a xlink:title=" ">
<polygon fill="#999999" stroke="#666666" points="111.25,-185 0,-185 0,-141 111.25,-141 111.25,-185"/>
<text text-anchor="start" x="8" y="-171.5" font-family="Helvetica,sans-Serif" font-size="10.00">Fiea::Engine::Content</text>
<text text-anchor="start" x="8" y="-159.5" font-family="Helvetica,sans-Serif" font-size="10.00">::FloatParseHandler::</text>
<text text-anchor="middle" x="55.62" y="-147.5" font-family="Helvetica,sans-Serif" font-size="10.00">EnterKey</text>
</a>
</g>
</g>
<!-- Node2 -->
<g id="Node000002" class="node">
<title>Node2</title>
<g id="a_Node000002"><a xlink:href="class_fiea_1_1_engine_1_1_content_1_1_scope_writer.html#a2ed39f31d26f92f8d74c13b4fc466f77" target="_top" xlink:title="This function should be called for ading string, float or ints into the Scope. Any other data type wo...">
<polygon fill="white" stroke="#666666" points="281,-270 166.75,-270 166.75,-238 281,-238 281,-270"/>
<text text-anchor="start" x="174.75" y="-256.5" font-family="Helvetica,sans-Serif" font-size="10.00">Fiea::Engine::Content</text>
<text text-anchor="middle" x="223.88" y="-244.5" font-family="Helvetica,sans-Serif" font-size="10.00">::ScopeWriter::Append</text>
</a>
</g>
</g>
<!-- Node1&#45;&gt;Node2 -->
<g id="edge1_Node000001_Node000002" class="edge">
<title>Node1&#45;&gt;Node2</title>
<g id="a_edge1_Node000001_Node000002"><a xlink:title=" ">
<path fill="none" stroke="#63b8ff" d="M97.72,-185.49C123.78,-199.76 157.32,-218.12 183.12,-232.24"/>
<polygon fill="#63b8ff" stroke="#63b8ff" points="181.17,-235.16 191.62,-236.89 184.53,-229.02 181.17,-235.16"/>
</a>
</g>
</g>
<!-- Node10 -->
<g id="Node000010" class="node">
<title>Node10</title>
<g id="a_Node000010"><a xlink:href="class_fiea_1_1_engine_1_1_r_t_t_i.html#a15bd5993c8ad04da47af440298ebbb30" target="_top" xlink:title=" ">
<polygon fill="white" stroke="#666666" points="282.12,-173 165.62,-173 165.62,-153 282.12,-153 282.12,-173"/>
<text text-anchor="middle" x="223.88" y="-159.5" font-family="Helvetica,sans-Serif" font-size="10.00">Fiea::Engine::RTTI::As</text>
</a>
</g>
</g>
<!-- Node1&#45;&gt;Node10 -->
<g id="edge9_Node000001_Node000010" class="edge">
<title>Node1&#45;&gt;Node10</title>
<g id="a_edge9_Node000001_Node000010"><a xlink:title=" ">
<path fill="none" stroke="#63b8ff" d="M111.52,-163C125.1,-163 139.83,-163 153.98,-163"/>
<polygon fill="#63b8ff" stroke="#63b8ff" points="153.67,-166.5 163.67,-163 153.67,-159.5 153.67,-166.5"/>
</a>
</g>
</g>
<!-- Node12 -->
<g id="Node000012" class="node">
<title>Node12</title>
<g id="a_Node000012"><a xlink:href="class_fiea_1_1_engine_1_1_content_1_1_scope_writer.html#a9b532cf2870d114a3cb24555ddd1cba5" target="_top" xlink:title=" ">
<polygon fill="white" stroke="#666666" points="294.12,-135 153.62,-135 153.62,-91 294.12,-91 294.12,-135"/>
<text text-anchor="start" x="161.62" y="-121.5" font-family="Helvetica,sans-Serif" font-size="10.00">Fiea::Engine::Content</text>
<text text-anchor="start" x="161.62" y="-109.5" font-family="Helvetica,sans-Serif" font-size="10.00">::ScopeWriter::IsKeyStorage</text>
<text text-anchor="middle" x="223.88" y="-97.5" font-family="Helvetica,sans-Serif" font-size="10.00">External</text>
</a>
</g>
</g>
<!-- Node1&#45;&gt;Node12 -->
<g id="edge11_Node000001_Node000012" class="edge">
<title>Node1&#45;&gt;Node12</title>
<g id="a_edge11_Node000001_Node000012"><a xlink:title=" ">
<path fill="none" stroke="#63b8ff" d="M111.52,-146.49C121.42,-143.51 131.92,-140.35 142.37,-137.21"/>
<polygon fill="#63b8ff" stroke="#63b8ff" points="143.19,-140.62 151.76,-134.39 141.18,-133.92 143.19,-140.62"/>
</a>
</g>
</g>
<!-- Node15 -->
<g id="Node000015" class="node">
<title>Node15</title>
<g id="a_Node000015"><a xlink:href="class_fiea_1_1_engine_1_1_tests_1_1_support_1_1_test_writer.html#adbe6f9a50f8d8169e527027ec6d9bada" target="_top" xlink:title=" ">
<polygon fill="white" stroke="#666666" points="276.88,-54 170.88,-54 170.88,-10 276.88,-10 276.88,-54"/>
<text text-anchor="start" x="178.88" y="-40.5" font-family="Helvetica,sans-Serif" font-size="10.00">Fiea::Engine::Tests</text>
<text text-anchor="start" x="178.88" y="-28.5" font-family="Helvetica,sans-Serif" font-size="10.00">::Support::TestWriter</text>
<text text-anchor="middle" x="223.88" y="-16.5" font-family="Helvetica,sans-Serif" font-size="10.00">::RecordFloat</text>
</a>
</g>
</g>
<!-- Node1&#45;&gt;Node15 -->
<g id="edge14_Node000001_Node000015" class="edge">
<title>Node1&#45;&gt;Node15</title>
<g id="a_edge14_Node000001_Node000015"><a xlink:title=" ">
<path fill="none" stroke="#63b8ff" d="M79.67,-140.71C97.52,-123.86 123.18,-100.55 147.25,-82 156.7,-74.72 167.18,-67.36 177.25,-60.62"/>
<polygon fill="#63b8ff" stroke="#63b8ff" points="179.05,-63.63 185.48,-55.2 175.2,-57.78 179.05,-63.63"/>
</a>
</g>
</g>
<!-- Node17 -->
<g id="Node000017" class="node">
<title>Node17</title>
<g id="a_Node000017"><a xlink:href="class_fiea_1_1_engine_1_1_content_1_1_scope_writer.html#a81d8847be5d2eb6189de44fcfb04a134" target="_top" xlink:title=" ">
<polygon fill="white" stroke="#666666" points="300.5,-354 147.25,-354 147.25,-310 300.5,-310 300.5,-354"/>
<text text-anchor="start" x="155.25" y="-340.5" font-family="Helvetica,sans-Serif" font-size="10.00">Fiea::Engine::Content</text>
<text text-anchor="start" x="155.25" y="-328.5" font-family="Helvetica,sans-Serif" font-size="10.00">::ScopeWriter::SetExternalData</text>
<text text-anchor="middle" x="223.88" y="-316.5" font-family="Helvetica,sans-Serif" font-size="10.00">Teller</text>
</a>
</g>
</g>
<!-- Node1&#45;&gt;Node17 -->
<g id="edge16_Node000001_Node000017" class="edge">
<title>Node1&#45;&gt;Node17</title>
<g id="a_edge16_Node000001_Node000017"><a xlink:title=" ">
<path fill="none" stroke="#63b8ff" d="M70.94,-185.1C87.51,-209.69 116.48,-249.79 147.25,-279 156.24,-287.54 166.7,-295.75 176.92,-303.06"/>
<polygon fill="#63b8ff" stroke="#63b8ff" points="174.74,-305.81 184.95,-308.64 178.73,-300.06 174.74,-305.81"/>
</a>
</g>
</g>
<!-- Node3 -->
<g id="Node000003" class="node">
<title>Node3</title>
<g id="a_Node000003"><a xlink:href="class_fiea_1_1_engine_1_1_content_1_1_scope.html#aa91d6470fd3d3f402bbb2e765be54455" target="_top" xlink:title="Return a reference to the Datum at this key. create a new Datum, if one is not found.">
<polygon fill="white" stroke="#666666" points="465.38,-320 354.12,-320 354.12,-288 465.38,-288 465.38,-320"/>
<text text-anchor="start" x="362.12" y="-306.5" font-family="Helvetica,sans-Serif" font-size="10.00">Fiea::Engine::Content</text>
<text text-anchor="middle" x="409.75" y="-294.5" font-family="Helvetica,sans-Serif" font-size="10.00">::Scope::Append</text>
</a>
</g>
</g>
<!-- Node2&#45;&gt;Node3 -->
<g id="edge2_Node000002_Node000003" class="edge">
<title>Node2&#45;&gt;Node3</title>
<g id="a_edge2_Node000002_Node000003"><a xlink:title=" ">
<path fill="none" stroke="#63b8ff" d="M281.29,-269.34C300.71,-274.62 322.63,-280.58 342.74,-286.05"/>
<polygon fill="#63b8ff" stroke="#63b8ff" points="341.67,-289.39 352.24,-288.63 343.51,-282.63 341.67,-289.39"/>
</a>
</g>
</g>
<!-- Node4 -->
<g id="Node000004" class="node">
<title>Node4</title>
<g id="a_Node000004"><a xlink:href="class_fiea_1_1_engine_1_1_content_1_1_scope_writer.html#a626dca625d92c898453cf9d75d9573d3" target="_top" xlink:title=" ">
<polygon fill="white" stroke="#666666" points="483,-370 336.5,-370 336.5,-338 483,-338 483,-370"/>
<text text-anchor="start" x="344.5" y="-356.5" font-family="Helvetica,sans-Serif" font-size="10.00">Fiea::Engine::Content</text>
<text text-anchor="middle" x="409.75" y="-344.5" font-family="Helvetica,sans-Serif" font-size="10.00">::ScopeWriter::IsDataExternal</text>
</a>
</g>
</g>
<!-- Node2&#45;&gt;Node4 -->
<g id="edge3_Node000002_Node000004" class="edge">
<title>Node2&#45;&gt;Node4</title>
<g id="a_edge3_Node000002_Node000004"><a xlink:title=" ">
<path fill="none" stroke="#63b8ff" d="M252.63,-270.29C267.13,-279.04 285.03,-290.22 300.5,-301 317.13,-312.59 318.68,-319.33 336.5,-329 339.14,-330.43 341.88,-331.81 344.69,-333.13"/>
<polygon fill="#63b8ff" stroke="#63b8ff" points="343.07,-336.24 353.64,-337.03 345.87,-329.82 343.07,-336.24"/>
</a>
</g>
</g>
<!-- Node5 -->
<g id="Node000005" class="node">
<title>Node5</title>
<g id="a_Node000005"><a xlink:href="class_fiea_1_1_engine_1_1_content_1_1_datum.html#a4ccb082ce85390925305f19a24daaed8" target="_top" xlink:title="This function is for pushing an element at the back of the data union array. It is using a universal ...">
<polygon fill="white" stroke="#666666" points="465.38,-270 354.12,-270 354.12,-238 465.38,-238 465.38,-270"/>
<text text-anchor="start" x="362.12" y="-256.5" font-family="Helvetica,sans-Serif" font-size="10.00">Fiea::Engine::Content</text>
<text text-anchor="middle" x="409.75" y="-244.5" font-family="Helvetica,sans-Serif" font-size="10.00">::Datum::Push</text>
</a>
</g>
</g>
<!-- Node2&#45;&gt;Node5 -->
<g id="edge4_Node000002_Node000005" class="edge">
<title>Node2&#45;&gt;Node5</title>
<g id="a_edge4_Node000002_Node000005"><a xlink:title=" ">
<path fill="none" stroke="#63b8ff" d="M281.29,-254C300.62,-254 322.42,-254 342.46,-254"/>
<polygon fill="#63b8ff" stroke="#63b8ff" points="342.19,-257.5 352.19,-254 342.19,-250.5 342.19,-257.5"/>
</a>
</g>
</g>
<!-- Node9 -->
<g id="Node000009" class="node">
<title>Node9</title>
<g id="a_Node000009"><a xlink:href="class_fiea_1_1_engine_1_1_content_1_1_datum.html#a2e77039e198d4eb10dfd1795117bf4d3" target="_top" xlink:title="Set value at a specific index. This uses universal operator so it can bind to lrefs and rrefs.">
<polygon fill="white" stroke="#666666" points="465.38,-220 354.12,-220 354.12,-188 465.38,-188 465.38,-220"/>
<text text-anchor="start" x="362.12" y="-206.5" font-family="Helvetica,sans-Serif" font-size="10.00">Fiea::Engine::Content</text>
<text text-anchor="middle" x="409.75" y="-194.5" font-family="Helvetica,sans-Serif" font-size="10.00">::Datum::Set</text>
</a>
</g>
</g>
<!-- Node2&#45;&gt;Node9 -->
<g id="edge8_Node000002_Node000009" class="edge">
<title>Node2&#45;&gt;Node9</title>
<g id="a_edge8_Node000002_Node000009"><a xlink:title=" ">
<path fill="none" stroke="#63b8ff" d="M281.29,-238.66C300.71,-233.38 322.63,-227.42 342.74,-221.95"/>
<polygon fill="#63b8ff" stroke="#63b8ff" points="343.51,-225.37 352.24,-219.37 341.67,-218.61 343.51,-225.37"/>
</a>
</g>
</g>
<!-- Node6 -->
<g id="Node000006" class="node">
<title>Node6</title>
<g id="a_Node000006"><a xlink:href="class_fiea_1_1_engine_1_1_content_1_1_datum.html#ac2c889535360fcb22e94133869c4ae29" target="_top" xlink:title=" ">
<polygon fill="white" stroke="#666666" points="631.38,-320 520.12,-320 520.12,-288 631.38,-288 631.38,-320"/>
<text text-anchor="start" x="528.12" y="-306.5" font-family="Helvetica,sans-Serif" font-size="10.00">Fiea::Engine::Content</text>
<text text-anchor="middle" x="575.75" y="-294.5" font-family="Helvetica,sans-Serif" font-size="10.00">::Datum::GetMaxSize</text>
</a>
</g>
</g>
<!-- Node5&#45;&gt;Node6 -->
<g id="edge5_Node000005_Node000006" class="edge">
<title>Node5&#45;&gt;Node6</title>
<g id="a_edge5_Node000005_Node000006"><a xlink:title=" ">
<path fill="none" stroke="#63b8ff" d="M464.45,-270.37C478.96,-274.8 494.81,-279.63 509.86,-284.22"/>
<polygon fill="#63b8ff" stroke="#63b8ff" points="508.62,-287.5 519.2,-287.06 510.66,-280.8 508.62,-287.5"/>
</a>
</g>
</g>
<!-- Node7 -->
<g id="Node000007" class="node">
<title>Node7</title>
<g id="a_Node000007"><a xlink:href="class_fiea_1_1_engine_1_1_content_1_1_datum.html#aede9c541fd5184f33e84640a787d421d" target="_top" xlink:title=" ">
<polygon fill="white" stroke="#666666" points="632.5,-270 519,-270 519,-238 632.5,-238 632.5,-270"/>
<text text-anchor="start" x="527" y="-256.5" font-family="Helvetica,sans-Serif" font-size="10.00">Fiea::Engine::Content</text>
<text text-anchor="middle" x="575.75" y="-244.5" font-family="Helvetica,sans-Serif" font-size="10.00">::Datum::HasMaxSize</text>
</a>
</g>
</g>
<!-- Node5&#45;&gt;Node7 -->
<g id="edge6_Node000005_Node000007" class="edge">
<title>Node5&#45;&gt;Node7</title>
<g id="a_edge6_Node000005_Node000007"><a xlink:title=" ">
<path fill="none" stroke="#63b8ff" d="M465.82,-254C479.12,-254 493.49,-254 507.29,-254"/>
<polygon fill="#63b8ff" stroke="#63b8ff" points="507.2,-257.5 517.2,-254 507.2,-250.5 507.2,-257.5"/>
</a>
</g>
</g>
<!-- Node8 -->
<g id="Node000008" class="node">
<title>Node8</title>
<g id="a_Node000008"><a xlink:href="class_fiea_1_1_engine_1_1_content_1_1_datum.html#acae68c3bc8b20345e4c3790fa37bd8d5" target="_top" xlink:title=" ">
<polygon fill="white" stroke="#666666" points="631.38,-220 520.12,-220 520.12,-188 631.38,-188 631.38,-220"/>
<text text-anchor="start" x="528.12" y="-206.5" font-family="Helvetica,sans-Serif" font-size="10.00">Fiea::Engine::Content</text>
<text text-anchor="middle" x="575.75" y="-194.5" font-family="Helvetica,sans-Serif" font-size="10.00">::Datum::Size</text>
</a>
</g>
</g>
<!-- Node5&#45;&gt;Node8 -->
<g id="edge7_Node000005_Node000008" class="edge">
<title>Node5&#45;&gt;Node8</title>
<g id="a_edge7_Node000005_Node000008"><a xlink:title=" ">
<path fill="none" stroke="#63b8ff" d="M464.45,-237.63C478.96,-233.2 494.81,-228.37 509.86,-223.78"/>
<polygon fill="#63b8ff" stroke="#63b8ff" points="510.66,-227.2 519.2,-220.94 508.62,-220.5 510.66,-227.2"/>
</a>
</g>
</g>
<!-- Node11 -->
<g id="Node000011" class="node">
<title>Node11</title>
<g id="a_Node000011"><a xlink:href="class_fiea_1_1_engine_1_1_r_t_t_i.html#ac0a7d875e4513b2aca7594abcd4418ef" target="_top" xlink:title=" ">
<polygon fill="white" stroke="#666666" points="466.12,-170 353.38,-170 353.38,-150 466.12,-150 466.12,-170"/>
<text text-anchor="middle" x="409.75" y="-156.5" font-family="Helvetica,sans-Serif" font-size="10.00">Fiea::Engine::RTTI::Is</text>
</a>
</g>
</g>
<!-- Node10&#45;&gt;Node11 -->
<g id="edge10_Node000010_Node000011" class="edge">
<title>Node10&#45;&gt;Node11</title>
<g id="a_edge10_Node000010_Node000011"><a xlink:title=" ">
<path fill="none" stroke="#63b8ff" d="M282.55,-162.06C301.3,-161.75 322.27,-161.41 341.66,-161.09"/>
<polygon fill="#63b8ff" stroke="#63b8ff" points="341.71,-164.59 351.65,-160.93 341.6,-157.6 341.71,-164.59"/>
</a>
</g>
</g>
<!-- Node13 -->
<g id="Node000013" class="node">
<title>Node13</title>
<g id="a_Node000013"><a xlink:href="class_fiea_1_1_engine_1_1_content_1_1_scope.html#ad924c01785b239991fc0e56a63295612" target="_top" xlink:title="Return the Datum at the requested key, or nullptr if not found.">
<polygon fill="white" stroke="#666666" points="465.38,-132 354.12,-132 354.12,-100 465.38,-100 465.38,-132"/>
<text text-anchor="start" x="362.12" y="-118.5" font-family="Helvetica,sans-Serif" font-size="10.00">Fiea::Engine::Content</text>
<text text-anchor="middle" x="409.75" y="-106.5" font-family="Helvetica,sans-Serif" font-size="10.00">::Scope::Find</text>
</a>
</g>
</g>
<!-- Node12&#45;&gt;Node13 -->
<g id="edge12_Node000012_Node000013" class="edge">
<title>Node12&#45;&gt;Node13</title>
<g id="a_edge12_Node000012_Node000013"><a xlink:title=" ">
<path fill="none" stroke="#63b8ff" d="M294.39,-114.13C310.18,-114.39 326.92,-114.66 342.57,-114.92"/>
<polygon fill="#63b8ff" stroke="#63b8ff" points="342.18,-118.41 352.23,-115.08 342.29,-111.42 342.18,-118.41"/>
</a>
</g>
</g>
<!-- Node14 -->
<g id="Node000014" class="node">
<title>Node14</title>
<g id="a_Node000014"><a xlink:href="class_fiea_1_1_engine_1_1_content_1_1_datum.html#a9b05337db582483976624ab93839bfa7" target="_top" xlink:title=" ">
<polygon fill="white" stroke="#666666" points="477.38,-82 342.12,-82 342.12,-50 477.38,-50 477.38,-82"/>
<text text-anchor="start" x="350.12" y="-68.5" font-family="Helvetica,sans-Serif" font-size="10.00">Fiea::Engine::Content</text>
<text text-anchor="middle" x="409.75" y="-56.5" font-family="Helvetica,sans-Serif" font-size="10.00">::Datum::IsStorageExternal</text>
</a>
</g>
</g>
<!-- Node12&#45;&gt;Node14 -->
<g id="edge13_Node000012_Node000014" class="edge">
<title>Node12&#45;&gt;Node14</title>
<g id="a_edge13_Node000012_Node000014"><a xlink:title=" ">
<path fill="none" stroke="#63b8ff" d="M294.39,-95.23C307.05,-91.99 320.32,-88.6 333.15,-85.32"/>
<polygon fill="#63b8ff" stroke="#63b8ff" points="334,-88.72 342.82,-82.85 332.27,-81.94 334,-88.72"/>
</a>
</g>
</g>
<!-- Node16 -->
<g id="Node000016" class="node">
<title>Node16</title>
<g id="a_Node000016"><a xlink:href="class_fiea_1_1_engine_1_1_content_1_1_parse_writer.html#aa995198558bdd6c2342b5cca3309b0b4" target="_top" xlink:title=" ">
<polygon fill="white" stroke="#666666" points="465.38,-32 354.12,-32 354.12,0 465.38,0 465.38,-32"/>
<text text-anchor="start" x="362.12" y="-18.5" font-family="Helvetica,sans-Serif" font-size="10.00">Fiea::Engine::Content</text>
<text text-anchor="middle" x="409.75" y="-6.5" font-family="Helvetica,sans-Serif" font-size="10.00">::ParseWriter::Depth</text>
</a>
</g>
</g>
<!-- Node15&#45;&gt;Node16 -->
<g id="edge15_Node000015_Node000016" class="edge">
<title>Node15&#45;&gt;Node16</title>
<g id="a_edge15_Node000015_Node000016"><a xlink:title=" ">
<path fill="none" stroke="#63b8ff" d="M277.07,-27.46C297.41,-25.69 320.97,-23.64 342.48,-21.77"/>
<polygon fill="#63b8ff" stroke="#63b8ff" points="342.69,-25.26 352.35,-20.91 342.08,-18.29 342.69,-25.26"/>
</a>
</g>
</g>
<!-- Node17&#45;&gt;Node4 -->
<g id="edge17_Node000017_Node000004" class="edge">
<title>Node17&#45;&gt;Node4</title>
<g id="a_edge17_Node000017_Node000004"><a xlink:title=" ">
<path fill="none" stroke="#63b8ff" d="M300.99,-341.11C308.92,-342.06 317,-343.02 325,-343.98"/>
<polygon fill="#63b8ff" stroke="#63b8ff" points="324.39,-347.43 334.73,-345.14 325.22,-340.48 324.39,-347.43"/>
</a>
</g>
</g>
</g>
</svg>
