<?xml version="1.0" encoding="UTF-8" standalone="no"?>
<!DOCTYPE svg PUBLIC "-//W3C//DTD SVG 1.1//EN"
 "http://www.w3.org/Graphics/SVG/1.1/DTD/svg11.dtd">
<!-- Generated by graphviz version 12.2.1 (20241206.2353)
 -->
<!-- Title: Fiea::Engine::Content::ScopeWriter::PushScope Pages: 1 -->
<svg width="766pt" height="345pt"
 viewBox="0.00 0.00 766.00 345.00" xmlns="http://www.w3.org/2000/svg" xmlns:xlink="http://www.w3.org/1999/xlink">
<g id="graph0" class="graph" transform="scale(1 1) rotate(0) translate(4 341)">
<title>Fiea::Engine::Content::ScopeWriter::PushScope</title>
<!-- Node1 -->
<g id="Node000001" class="node">
<title>Node1</title>
<g id="a_Node000001"><a xlink:title=" ">
<polygon fill="#999999" stroke="#666666" points="131.5,-155 0,-155 0,-123 131.5,-123 131.5,-155"/>
<text text-anchor="start" x="8" y="-141.5" font-family="Helvetica,sans-Serif" font-size="10.00">Fiea::Engine::Content</text>
<text text-anchor="middle" x="65.75" y="-129.5" font-family="Helvetica,sans-Serif" font-size="10.00">::ScopeWriter::PushScope</text>
</a>
</g>
</g>
<!-- Node2 -->
<g id="Node000002" class="node">
<title>Node2</title>
<g id="a_Node000002"><a xlink:href="class_fiea_1_1_engine_1_1_content_1_1_scope.html#abf39accc1ce38b12bcbc6884ba0165e3" target="_top" xlink:title="You can provide a child scope that you wish this scope to adopt. You should not adopt a scope if it a...">
<polygon fill="white" stroke="#666666" points="278.75,-224 167.5,-224 167.5,-192 278.75,-192 278.75,-224"/>
<text text-anchor="start" x="175.5" y="-210.5" font-family="Helvetica,sans-Serif" font-size="10.00">Fiea::Engine::Content</text>
<text text-anchor="middle" x="223.12" y="-198.5" font-family="Helvetica,sans-Serif" font-size="10.00">::Scope::Adopt</text>
</a>
</g>
</g>
<!-- Node1&#45;&gt;Node2 -->
<g id="edge1_Node000001_Node000002" class="edge">
<title>Node1&#45;&gt;Node2</title>
<g id="a_edge1_Node000001_Node000002"><a xlink:title=" ">
<path fill="none" stroke="#63b8ff" d="M103.57,-155.35C124.8,-164.78 151.72,-176.73 174.53,-186.87"/>
<polygon fill="#63b8ff" stroke="#63b8ff" points="173.09,-190.05 183.65,-190.91 175.93,-183.65 173.09,-190.05"/>
</a>
</g>
</g>
<!-- Node3 -->
<g id="Node000003" class="node">
<title>Node3</title>
<g id="a_Node000003"><a xlink:href="class_fiea_1_1_engine_1_1_content_1_1_scope.html#aa91d6470fd3d3f402bbb2e765be54455" target="_top" xlink:title="Return a reference to the Datum at this key. create a new Datum, if one is not found.">
<polygon fill="white" stroke="#666666" points="426,-337 314.75,-337 314.75,-305 426,-305 426,-337"/>
<text text-anchor="start" x="322.75" y="-323.5" font-family="Helvetica,sans-Serif" font-size="10.00">Fiea::Engine::Content</text>
<text text-anchor="middle" x="370.38" y="-311.5" font-family="Helvetica,sans-Serif" font-size="10.00">::Scope::Append</text>
</a>
</g>
</g>
<!-- Node1&#45;&gt;Node3 -->
<g id="edge15_Node000001_Node000003" class="edge">
<title>Node1&#45;&gt;Node3</title>
<g id="a_edge15_Node000001_Node000003"><a xlink:title=" ">
<path fill="none" stroke="#63b8ff" d="M81.06,-155.43C99.45,-175.75 133.1,-210.42 167.5,-233 211.66,-261.99 266.95,-285.32 308.49,-300.65"/>
<polygon fill="#63b8ff" stroke="#63b8ff" points="307.27,-303.93 317.86,-304.05 309.66,-297.35 307.27,-303.93"/>
</a>
</g>
</g>
<!-- Node7 -->
<g id="Node000007" class="node">
<title>Node7</title>
<g id="a_Node000007"><a xlink:href="class_fiea_1_1_engine_1_1_content_1_1_datum.html#ac2c889535360fcb22e94133869c4ae29" target="_top" xlink:title=" ">
<polygon fill="white" stroke="#666666" points="574.38,-147 463.12,-147 463.12,-115 574.38,-115 574.38,-147"/>
<text text-anchor="start" x="471.12" y="-133.5" font-family="Helvetica,sans-Serif" font-size="10.00">Fiea::Engine::Content</text>
<text text-anchor="middle" x="518.75" y="-121.5" font-family="Helvetica,sans-Serif" font-size="10.00">::Datum::GetMaxSize</text>
</a>
</g>
</g>
<!-- Node1&#45;&gt;Node7 -->
<g id="edge16_Node000001_Node000007" class="edge">
<title>Node1&#45;&gt;Node7</title>
<g id="a_edge16_Node000001_Node000007"><a xlink:title=" ">
<path fill="none" stroke="#63b8ff" d="M131.85,-137.85C217.09,-136.33 365.73,-133.7 451.53,-132.17"/>
<polygon fill="#63b8ff" stroke="#63b8ff" points="451.5,-135.68 461.43,-132 451.37,-128.68 451.5,-135.68"/>
</a>
</g>
</g>
<!-- Node8 -->
<g id="Node000008" class="node">
<title>Node8</title>
<g id="a_Node000008"><a xlink:href="class_fiea_1_1_engine_1_1_content_1_1_datum.html#aede9c541fd5184f33e84640a787d421d" target="_top" xlink:title=" ">
<polygon fill="white" stroke="#666666" points="575.5,-92 462,-92 462,-60 575.5,-60 575.5,-92"/>
<text text-anchor="start" x="470" y="-78.5" font-family="Helvetica,sans-Serif" font-size="10.00">Fiea::Engine::Content</text>
<text text-anchor="middle" x="518.75" y="-66.5" font-family="Helvetica,sans-Serif" font-size="10.00">::Datum::HasMaxSize</text>
</a>
</g>
</g>
<!-- Node1&#45;&gt;Node8 -->
<g id="edge17_Node000001_Node000008" class="edge">
<title>Node1&#45;&gt;Node8</title>
<g id="a_edge17_Node000001_Node000008"><a xlink:title=" ">
<path fill="none" stroke="#63b8ff" d="M111.68,-122.51C160.78,-105.44 242.13,-79.91 314.75,-70 363.74,-63.31 376.58,-68.39 426,-70 434.01,-70.26 442.4,-70.65 450.72,-71.11"/>
<polygon fill="#63b8ff" stroke="#63b8ff" points="450.28,-74.59 460.47,-71.68 450.69,-67.6 450.28,-74.59"/>
</a>
</g>
</g>
<!-- Node9 -->
<g id="Node000009" class="node">
<title>Node9</title>
<g id="a_Node000009"><a xlink:href="class_fiea_1_1_engine_1_1_content_1_1_datum.html#acae68c3bc8b20345e4c3790fa37bd8d5" target="_top" xlink:title=" ">
<polygon fill="white" stroke="#666666" points="574.38,-32 463.12,-32 463.12,0 574.38,0 574.38,-32"/>
<text text-anchor="start" x="471.12" y="-18.5" font-family="Helvetica,sans-Serif" font-size="10.00">Fiea::Engine::Content</text>
<text text-anchor="middle" x="518.75" y="-6.5" font-family="Helvetica,sans-Serif" font-size="10.00">::Datum::Size</text>
</a>
</g>
</g>
<!-- Node1&#45;&gt;Node9 -->
<g id="edge18_Node000001_Node000009" class="edge">
<title>Node1&#45;&gt;Node9</title>
<g id="a_edge18_Node000001_Node000009"><a xlink:title=" ">
<path fill="none" stroke="#63b8ff" d="M86.2,-122.65C105.54,-107.3 136.71,-84.97 167.5,-73 261.93,-36.3 379.58,-23.23 451.64,-18.58"/>
<polygon fill="#63b8ff" stroke="#63b8ff" points="451.53,-22.09 461.29,-17.99 451.1,-15.1 451.53,-22.09"/>
</a>
</g>
</g>
<!-- Node2&#45;&gt;Node3 -->
<g id="edge2_Node000002_Node000003" class="edge">
<title>Node2&#45;&gt;Node3</title>
<g id="a_edge2_Node000002_Node000003"><a xlink:title=" ">
<path fill="none" stroke="#63b8ff" d="M239.49,-224.23C256.76,-241.94 286.14,-270.49 314.75,-291 318.56,-293.73 322.64,-296.39 326.8,-298.94"/>
<polygon fill="#63b8ff" stroke="#63b8ff" points="324.83,-301.84 335.23,-303.86 328.36,-295.8 324.83,-301.84"/>
</a>
</g>
</g>
<!-- Node4 -->
<g id="Node000004" class="node">
<title>Node4</title>
<g id="a_Node000004"><a xlink:href="class_fiea_1_1_engine_1_1_content_1_1_scope.html#a8f7dfeddfe92368a8d160ed2b805640f" target="_top" xlink:title="Tell if this scope is present somewhere lower down in the scopes tree as a child.">
<polygon fill="white" stroke="#666666" points="748.25,-271 621.25,-271 621.25,-239 748.25,-239 748.25,-271"/>
<text text-anchor="start" x="629.25" y="-257.5" font-family="Helvetica,sans-Serif" font-size="10.00">Fiea::Engine::Content</text>
<text text-anchor="middle" x="684.75" y="-245.5" font-family="Helvetica,sans-Serif" font-size="10.00">::Scope::IsDescendentOf</text>
</a>
</g>
</g>
<!-- Node2&#45;&gt;Node4 -->
<g id="edge3_Node000002_Node000004" class="edge">
<title>Node2&#45;&gt;Node4</title>
<g id="a_edge3_Node000002_Node000004"><a xlink:title=" ">
<path fill="none" stroke="#63b8ff" d="M269.93,-224.37C272.97,-225.83 275.93,-227.38 278.75,-229 296.55,-239.25 295.37,-251.17 314.75,-258 412.36,-292.42 533.73,-282.21 609.99,-269.98"/>
<polygon fill="#63b8ff" stroke="#63b8ff" points="610.12,-273.51 619.42,-268.41 608.98,-266.6 610.12,-273.51"/>
</a>
</g>
</g>
<!-- Node5 -->
<g id="Node000005" class="node">
<title>Node5</title>
<g id="a_Node000005"><a xlink:href="class_fiea_1_1_engine_1_1_content_1_1_datum.html#a740662b031de78f05b9f9ce7dac13d8f" target="_top" xlink:title="What is the type of the Datum, returns true or false.">
<polygon fill="white" stroke="#666666" points="426,-199 314.75,-199 314.75,-167 426,-167 426,-199"/>
<text text-anchor="start" x="322.75" y="-185.5" font-family="Helvetica,sans-Serif" font-size="10.00">Fiea::Engine::Content</text>
<text text-anchor="middle" x="370.38" y="-173.5" font-family="Helvetica,sans-Serif" font-size="10.00">::Datum::IsType</text>
</a>
</g>
</g>
<!-- Node2&#45;&gt;Node5 -->
<g id="edge4_Node000002_Node000005" class="edge">
<title>Node2&#45;&gt;Node5</title>
<g id="a_edge4_Node000002_Node000005"><a xlink:title=" ">
<path fill="none" stroke="#63b8ff" d="M279.04,-198.55C286.9,-197.2 295.06,-195.79 303.11,-194.41"/>
<polygon fill="#63b8ff" stroke="#63b8ff" points="303.63,-197.87 312.89,-192.72 302.44,-190.97 303.63,-197.87"/>
</a>
</g>
</g>
<!-- Node6 -->
<g id="Node000006" class="node">
<title>Node6</title>
<g id="a_Node000006"><a xlink:href="class_fiea_1_1_engine_1_1_content_1_1_datum.html#a4ccb082ce85390925305f19a24daaed8" target="_top" xlink:title="This function is for pushing an element at the back of the data union array. It is using a universal ...">
<polygon fill="white" stroke="#666666" points="426,-111 314.75,-111 314.75,-79 426,-79 426,-111"/>
<text text-anchor="start" x="322.75" y="-97.5" font-family="Helvetica,sans-Serif" font-size="10.00">Fiea::Engine::Content</text>
<text text-anchor="middle" x="370.38" y="-85.5" font-family="Helvetica,sans-Serif" font-size="10.00">::Datum::Push</text>
</a>
</g>
</g>
<!-- Node2&#45;&gt;Node6 -->
<g id="edge5_Node000002_Node000006" class="edge">
<title>Node2&#45;&gt;Node6</title>
<g id="a_edge5_Node000002_Node000006"><a xlink:title=" ">
<path fill="none" stroke="#63b8ff" d="M245.25,-191.57C269.99,-172.32 311.16,-140.29 339.25,-118.44"/>
<polygon fill="#63b8ff" stroke="#63b8ff" points="341.29,-121.28 347.03,-112.38 336.99,-115.76 341.29,-121.28"/>
</a>
</g>
</g>
<!-- Node10 -->
<g id="Node000010" class="node">
<title>Node10</title>
<g id="a_Node000010"><a xlink:href="class_fiea_1_1_engine_1_1_content_1_1_scope.html#af6a94922a8fa123c3b22b7b4485963de" target="_top" xlink:title="Setter for Parent.">
<polygon fill="white" stroke="#666666" points="426,-249 314.75,-249 314.75,-217 426,-217 426,-249"/>
<text text-anchor="start" x="322.75" y="-235.5" font-family="Helvetica,sans-Serif" font-size="10.00">Fiea::Engine::Content</text>
<text text-anchor="middle" x="370.38" y="-223.5" font-family="Helvetica,sans-Serif" font-size="10.00">::Scope::SetParent</text>
</a>
</g>
</g>
<!-- Node2&#45;&gt;Node10 -->
<g id="edge9_Node000002_Node000010" class="edge">
<title>Node2&#45;&gt;Node10</title>
<g id="a_edge9_Node000002_Node000010"><a xlink:title=" ">
<path fill="none" stroke="#63b8ff" d="M279.04,-217.45C286.9,-218.8 295.06,-220.21 303.11,-221.59"/>
<polygon fill="#63b8ff" stroke="#63b8ff" points="302.44,-225.03 312.89,-223.28 303.63,-218.13 302.44,-225.03"/>
</a>
</g>
</g>
<!-- Node6&#45;&gt;Node7 -->
<g id="edge6_Node000006_Node000007" class="edge">
<title>Node6&#45;&gt;Node7</title>
<g id="a_edge6_Node000006_Node000007"><a xlink:title=" ">
<path fill="none" stroke="#63b8ff" d="M426.3,-108.51C434.64,-110.56 443.33,-112.7 451.88,-114.8"/>
<polygon fill="#63b8ff" stroke="#63b8ff" points="450.99,-118.19 461.54,-117.18 452.66,-111.39 450.99,-118.19"/>
</a>
</g>
</g>
<!-- Node6&#45;&gt;Node8 -->
<g id="edge7_Node000006_Node000008" class="edge">
<title>Node6&#45;&gt;Node8</title>
<g id="a_edge7_Node000006_Node000008"><a xlink:title=" ">
<path fill="none" stroke="#63b8ff" d="M426.3,-87.87C434.13,-86.85 442.25,-85.8 450.29,-84.76"/>
<polygon fill="#63b8ff" stroke="#63b8ff" points="450.58,-88.25 460.04,-83.49 449.68,-81.31 450.58,-88.25"/>
</a>
</g>
</g>
<!-- Node6&#45;&gt;Node9 -->
<g id="edge8_Node000006_Node000009" class="edge">
<title>Node6&#45;&gt;Node9</title>
<g id="a_edge8_Node000006_Node000009"><a xlink:title=" ">
<path fill="none" stroke="#63b8ff" d="M401.7,-78.63C423.61,-66.81 453.43,-50.71 477.36,-37.8"/>
<polygon fill="#63b8ff" stroke="#63b8ff" points="478.74,-41.03 485.88,-33.2 475.41,-34.87 478.74,-41.03"/>
</a>
</g>
</g>
<!-- Node11 -->
<g id="Node000011" class="node">
<title>Node11</title>
<g id="a_Node000011"><a xlink:href="class_fiea_1_1_engine_1_1_content_1_1_scope.html#a853041a85e32e8b7de723fa3dd9a1d82" target="_top" xlink:title="Tells if this scope is present somewhere higher up in the scopes tree as a parent.">
<polygon fill="white" stroke="#666666" points="575.5,-249 462,-249 462,-217 575.5,-217 575.5,-249"/>
<text text-anchor="start" x="470" y="-235.5" font-family="Helvetica,sans-Serif" font-size="10.00">Fiea::Engine::Content</text>
<text text-anchor="middle" x="518.75" y="-223.5" font-family="Helvetica,sans-Serif" font-size="10.00">::Scope::IsAncestorOf</text>
</a>
</g>
</g>
<!-- Node10&#45;&gt;Node11 -->
<g id="edge10_Node000010_Node000011" class="edge">
<title>Node10&#45;&gt;Node11</title>
<g id="a_edge10_Node000010_Node000011"><a xlink:title=" ">
<path fill="none" stroke="#63b8ff" d="M426.3,-233C434.13,-233 442.25,-233 450.29,-233"/>
<polygon fill="#63b8ff" stroke="#63b8ff" points="450.03,-236.5 460.03,-233 450.03,-229.5 450.03,-236.5"/>
</a>
</g>
</g>
<!-- Node12 -->
<g id="Node000012" class="node">
<title>Node12</title>
<g id="a_Node000012"><a xlink:href="class_fiea_1_1_engine_1_1_content_1_1_scope.html#a769b8bf0382518e075fb90f62940624c" target="_top" xlink:title="Orpahans this scope from its parent.">
<polygon fill="white" stroke="#666666" points="574.38,-199 463.12,-199 463.12,-167 574.38,-167 574.38,-199"/>
<text text-anchor="start" x="471.12" y="-185.5" font-family="Helvetica,sans-Serif" font-size="10.00">Fiea::Engine::Content</text>
<text text-anchor="middle" x="518.75" y="-173.5" font-family="Helvetica,sans-Serif" font-size="10.00">::Scope::Orphan</text>
</a>
</g>
</g>
<!-- Node10&#45;&gt;Node12 -->
<g id="edge12_Node000010_Node000012" class="edge">
<title>Node10&#45;&gt;Node12</title>
<g id="a_edge12_Node000010_Node000012"><a xlink:title=" ">
<path fill="none" stroke="#63b8ff" d="M419.3,-216.63C431.94,-212.31 445.72,-207.6 458.86,-203.11"/>
<polygon fill="#63b8ff" stroke="#63b8ff" points="459.95,-206.44 468.28,-199.9 457.69,-199.82 459.95,-206.44"/>
</a>
</g>
</g>
<!-- Node11&#45;&gt;Node4 -->
<g id="edge11_Node000011_Node000004" class="edge">
<title>Node11&#45;&gt;Node4</title>
<g id="a_edge11_Node000011_Node000004"><a xlink:title=" ">
<path fill="none" stroke="#63b8ff" d="M575.73,-240.51C586.66,-241.98 598.27,-243.53 609.68,-245.06"/>
<polygon fill="#63b8ff" stroke="#63b8ff" points="609.11,-248.52 619.48,-246.38 610.04,-241.58 609.11,-248.52"/>
</a>
</g>
</g>
<!-- Node13 -->
<g id="Node000013" class="node">
<title>Node13</title>
<g id="a_Node000013"><a xlink:href="class_fiea_1_1_engine_1_1_content_1_1_scope.html#abe37db932a06fabb2cb02ec65b6f55d8" target="_top" xlink:title="Search for a nested Scope which is the SAME(not just equal) as the provided scope and return the Datu...">
<polygon fill="white" stroke="#666666" points="758,-171 611.5,-171 611.5,-139 758,-139 758,-171"/>
<text text-anchor="start" x="619.5" y="-157.5" font-family="Helvetica,sans-Serif" font-size="10.00">Fiea::Engine::Content</text>
<text text-anchor="middle" x="684.75" y="-145.5" font-family="Helvetica,sans-Serif" font-size="10.00">::Scope::FindContainedScope</text>
</a>
</g>
</g>
<!-- Node12&#45;&gt;Node13 -->
<g id="edge13_Node000012_Node000013" class="edge">
<title>Node12&#45;&gt;Node13</title>
<g id="a_edge13_Node000012_Node000013"><a xlink:title=" ">
<path fill="none" stroke="#63b8ff" d="M574.82,-173.6C582.9,-172.22 591.38,-170.77 599.89,-169.32"/>
<polygon fill="#63b8ff" stroke="#63b8ff" points="600.3,-172.8 609.57,-167.67 599.12,-165.9 600.3,-172.8"/>
</a>
</g>
</g>
<!-- Node14 -->
<g id="Node000014" class="node">
<title>Node14</title>
<g id="a_Node000014"><a xlink:href="class_fiea_1_1_engine_1_1_content_1_1_datum.html#a23395b19af06abda786d991645b41e6d" target="_top" xlink:title=" ">
<polygon fill="white" stroke="#666666" points="740.38,-221 629.12,-221 629.12,-189 740.38,-189 740.38,-221"/>
<text text-anchor="start" x="637.12" y="-207.5" font-family="Helvetica,sans-Serif" font-size="10.00">Fiea::Engine::Content</text>
<text text-anchor="middle" x="684.75" y="-195.5" font-family="Helvetica,sans-Serif" font-size="10.00">::Datum::RemoveAt</text>
</a>
</g>
</g>
<!-- Node12&#45;&gt;Node14 -->
<g id="edge14_Node000012_Node000014" class="edge">
<title>Node12&#45;&gt;Node14</title>
<g id="a_edge14_Node000012_Node000014"><a xlink:title=" ">
<path fill="none" stroke="#63b8ff" d="M574.82,-190.39C588.55,-192.23 603.41,-194.22 617.61,-196.13"/>
<polygon fill="#63b8ff" stroke="#63b8ff" points="616.95,-199.57 627.33,-197.43 617.88,-192.63 616.95,-199.57"/>
</a>
</g>
</g>
</g>
</svg>
