<?xml version="1.0" encoding="UTF-8" standalone="no"?>
<!DOCTYPE svg PUBLIC "-//W3C//DTD SVG 1.1//EN"
 "http://www.w3.org/Graphics/SVG/1.1/DTD/svg11.dtd">
<!-- Generated by graphviz version 12.2.1 (20241206.2353)
 -->
<!-- Title: Fiea::Engine::Content::ScopeWriter::IsDataExternal Pages: 1 -->
<svg width="519pt" height="314pt"
 viewBox="0.00 0.00 518.75 314.00" xmlns="http://www.w3.org/2000/svg" xmlns:xlink="http://www.w3.org/1999/xlink">
<g id="graph0" class="graph" transform="scale(1 1) rotate(0) translate(4 310)">
<title>Fiea::Engine::Content::ScopeWriter::IsDataExternal</title>
<!-- Node1 -->
<g id="Node000001" class="node">
<title>Node1</title>
<g id="a_Node000001"><a xlink:title=" ">
<polygon fill="#999999" stroke="#666666" points="510.75,-172 364.25,-172 364.25,-140 510.75,-140 510.75,-172"/>
<text text-anchor="start" x="372.25" y="-158.5" font-family="Helvetica,sans-Serif" font-size="10.00">Fiea::Engine::Content</text>
<text text-anchor="middle" x="437.5" y="-146.5" font-family="Helvetica,sans-Serif" font-size="10.00">::ScopeWriter::IsDataExternal</text>
</a>
</g>
</g>
<!-- Node2 -->
<g id="Node000002" class="node">
<title>Node2</title>
<g id="a_Node000002"><a xlink:href="class_fiea_1_1_engine_1_1_content_1_1_scope_writer.html#a2ed39f31d26f92f8d74c13b4fc466f77" target="_top" xlink:title="This function should be called for ading string, float or ints into the Scope. Any other data type wo...">
<polygon fill="white" stroke="#666666" points="308.75,-200 194.5,-200 194.5,-168 308.75,-168 308.75,-200"/>
<text text-anchor="start" x="202.5" y="-186.5" font-family="Helvetica,sans-Serif" font-size="10.00">Fiea::Engine::Content</text>
<text text-anchor="middle" x="251.62" y="-174.5" font-family="Helvetica,sans-Serif" font-size="10.00">::ScopeWriter::Append</text>
</a>
</g>
</g>
<!-- Node1&#45;&gt;Node2 -->
<g id="edge1_Node000001_Node000002" class="edge">
<title>Node1&#45;&gt;Node2</title>
<g id="a_edge1_Node000001_Node000002"><a xlink:title=" ">
<path fill="none" stroke="#63b8ff" d="M352.65,-168.77C337.93,-171.01 322.93,-173.29 309.18,-175.39"/>
<polygon fill="#63b8ff" stroke="#63b8ff" points="352.97,-172.26 362.33,-167.29 351.92,-165.34 352.97,-172.26"/>
</a>
</g>
</g>
<!-- Node8 -->
<g id="Node000008" class="node">
<title>Node8</title>
<g id="a_Node000008"><a xlink:href="class_fiea_1_1_engine_1_1_content_1_1_scope_writer.html#a81d8847be5d2eb6189de44fcfb04a134" target="_top" xlink:title=" ">
<polygon fill="white" stroke="#666666" points="328.25,-150 175,-150 175,-106 328.25,-106 328.25,-150"/>
<text text-anchor="start" x="183" y="-136.5" font-family="Helvetica,sans-Serif" font-size="10.00">Fiea::Engine::Content</text>
<text text-anchor="start" x="183" y="-124.5" font-family="Helvetica,sans-Serif" font-size="10.00">::ScopeWriter::SetExternalData</text>
<text text-anchor="middle" x="251.62" y="-112.5" font-family="Helvetica,sans-Serif" font-size="10.00">Teller</text>
</a>
</g>
</g>
<!-- Node1&#45;&gt;Node8 -->
<g id="edge7_Node000001_Node000008" class="edge">
<title>Node1&#45;&gt;Node8</title>
<g id="a_edge7_Node000001_Node000008"><a xlink:title=" ">
<path fill="none" stroke="#63b8ff" d="M352.63,-143.23C344.65,-142.01 336.59,-140.79 328.7,-139.58"/>
<polygon fill="#63b8ff" stroke="#63b8ff" points="351.92,-146.66 362.33,-144.71 352.97,-139.74 351.92,-146.66"/>
</a>
</g>
</g>
<!-- Node3 -->
<g id="Node000003" class="node">
<title>Node3</title>
<g id="a_Node000003"><a xlink:href="class_fiea_1_1_engine_1_1_content_1_1_float_parse_handler.html#abc4c8eb2ad52cd9ebdafba350e9a58d7" target="_top" xlink:title=" ">
<polygon fill="white" stroke="#666666" points="125.12,-94 13.88,-94 13.88,-50 125.12,-50 125.12,-94"/>
<text text-anchor="start" x="21.88" y="-80.5" font-family="Helvetica,sans-Serif" font-size="10.00">Fiea::Engine::Content</text>
<text text-anchor="start" x="21.88" y="-68.5" font-family="Helvetica,sans-Serif" font-size="10.00">::FloatParseHandler::</text>
<text text-anchor="middle" x="69.5" y="-56.5" font-family="Helvetica,sans-Serif" font-size="10.00">EnterKey</text>
</a>
</g>
</g>
<!-- Node2&#45;&gt;Node3 -->
<g id="edge2_Node000002_Node000003" class="edge">
<title>Node2&#45;&gt;Node3</title>
<g id="a_edge2_Node000002_Node000003"><a xlink:title=" ">
<path fill="none" stroke="#63b8ff" d="M184.25,-165.16C181,-163.29 177.9,-161.24 175,-159 151.61,-140.87 161.4,-122.34 139,-103 134.85,-99.42 130.22,-96.18 125.37,-93.26"/>
<polygon fill="#63b8ff" stroke="#63b8ff" points="182.45,-168.18 192.96,-169.56 185.61,-161.93 182.45,-168.18"/>
</a>
</g>
</g>
<!-- Node4 -->
<g id="Node000004" class="node">
<title>Node4</title>
<g id="a_Node000004"><a xlink:href="class_fiea_1_1_engine_1_1_content_1_1_int_parse_handler.html#aa99263839bdc482fcd4a5874ef682029" target="_top" xlink:title=" ">
<polygon fill="white" stroke="#666666" points="139,-306 0,-306 0,-274 139,-274 139,-306"/>
<text text-anchor="start" x="8" y="-292.5" font-family="Helvetica,sans-Serif" font-size="10.00">Fiea::Engine::Content</text>
<text text-anchor="middle" x="69.5" y="-280.5" font-family="Helvetica,sans-Serif" font-size="10.00">::IntParseHandler::EnterKey</text>
</a>
</g>
</g>
<!-- Node2&#45;&gt;Node4 -->
<g id="edge3_Node000002_Node000004" class="edge">
<title>Node2&#45;&gt;Node4</title>
<g id="a_edge3_Node000002_Node000004"><a xlink:title=" ">
<path fill="none" stroke="#63b8ff" d="M222.87,-207.51C201.12,-225.08 169.52,-248.77 139,-265 133.19,-268.09 126.91,-270.96 120.6,-273.56"/>
<polygon fill="#63b8ff" stroke="#63b8ff" points="224.87,-210.4 230.39,-201.35 220.44,-204.98 224.87,-210.4"/>
</a>
</g>
</g>
<!-- Node5 -->
<g id="Node000005" class="node">
<title>Node5</title>
<g id="a_Node000005"><a xlink:href="class_fiea_1_1_engine_1_1_content_1_1_matrix_handler.html#af6b07a2232dbc15a91484634a6881499" target="_top" xlink:title=" ">
<polygon fill="white" stroke="#666666" points="134.12,-256 4.88,-256 4.88,-224 134.12,-224 134.12,-256"/>
<text text-anchor="start" x="12.88" y="-242.5" font-family="Helvetica,sans-Serif" font-size="10.00">Fiea::Engine::Content</text>
<text text-anchor="middle" x="69.5" y="-230.5" font-family="Helvetica,sans-Serif" font-size="10.00">::MatrixHandler::EnterKey</text>
</a>
</g>
</g>
<!-- Node2&#45;&gt;Node5 -->
<g id="edge4_Node000002_Node000005" class="edge">
<title>Node2&#45;&gt;Node5</title>
<g id="a_edge4_Node000002_Node000005"><a xlink:title=" ">
<path fill="none" stroke="#63b8ff" d="M186.63,-203.89C165.96,-210.32 143.29,-217.37 123.5,-223.52"/>
<polygon fill="#63b8ff" stroke="#63b8ff" points="187.6,-207.26 196.11,-200.95 185.52,-200.57 187.6,-207.26"/>
</a>
</g>
</g>
<!-- Node6 -->
<g id="Node000006" class="node">
<title>Node6</title>
<g id="a_Node000006"><a xlink:href="class_fiea_1_1_engine_1_1_content_1_1_string_parse_handler.html#a6e8f0ecc1992ee741847c1ad14069a30" target="_top" xlink:title=" ">
<polygon fill="white" stroke="#666666" points="125.12,-206 13.88,-206 13.88,-162 125.12,-162 125.12,-206"/>
<text text-anchor="start" x="21.88" y="-192.5" font-family="Helvetica,sans-Serif" font-size="10.00">Fiea::Engine::Content</text>
<text text-anchor="start" x="21.88" y="-180.5" font-family="Helvetica,sans-Serif" font-size="10.00">::StringParseHandler</text>
<text text-anchor="middle" x="69.5" y="-168.5" font-family="Helvetica,sans-Serif" font-size="10.00">::EnterKey</text>
</a>
</g>
</g>
<!-- Node2&#45;&gt;Node6 -->
<g id="edge5_Node000002_Node000006" class="edge">
<title>Node2&#45;&gt;Node6</title>
<g id="a_edge5_Node000002_Node000006"><a xlink:title=" ">
<path fill="none" stroke="#63b8ff" d="M182.87,-184C163.96,-184 143.65,-184 125.56,-184"/>
<polygon fill="#63b8ff" stroke="#63b8ff" points="182.61,-187.5 192.61,-184 182.61,-180.5 182.61,-187.5"/>
</a>
</g>
</g>
<!-- Node7 -->
<g id="Node000007" class="node">
<title>Node7</title>
<g id="a_Node000007"><a xlink:href="class_fiea_1_1_engine_1_1_content_1_1_vector_handler.html#a79774cea459da02c0eb57bcf2ca84821" target="_top" xlink:title=" ">
<polygon fill="white" stroke="#666666" points="134.5,-144 4.5,-144 4.5,-112 134.5,-112 134.5,-144"/>
<text text-anchor="start" x="12.5" y="-130.5" font-family="Helvetica,sans-Serif" font-size="10.00">Fiea::Engine::Content</text>
<text text-anchor="middle" x="69.5" y="-118.5" font-family="Helvetica,sans-Serif" font-size="10.00">::VectorHandler::EnterKey</text>
</a>
</g>
</g>
<!-- Node2&#45;&gt;Node7 -->
<g id="edge6_Node000002_Node000007" class="edge">
<title>Node2&#45;&gt;Node7</title>
<g id="a_edge6_Node000002_Node000007"><a xlink:title=" ">
<path fill="none" stroke="#63b8ff" d="M186.63,-164.11C165.96,-157.68 143.29,-150.63 123.5,-144.48"/>
<polygon fill="#63b8ff" stroke="#63b8ff" points="185.52,-167.43 196.11,-167.05 187.6,-160.74 185.52,-167.43"/>
</a>
</g>
</g>
<!-- Node8&#45;&gt;Node3 -->
<g id="edge9_Node000008_Node000003" class="edge">
<title>Node8&#45;&gt;Node3</title>
<g id="a_edge9_Node000008_Node000003"><a xlink:title=" ">
<path fill="none" stroke="#63b8ff" d="M167.57,-102.18C153.32,-97.75 138.83,-93.24 125.55,-89.11"/>
<polygon fill="#63b8ff" stroke="#63b8ff" points="166.37,-105.47 176.95,-105.1 168.44,-98.78 166.37,-105.47"/>
</a>
</g>
</g>
<!-- Node8&#45;&gt;Node4 -->
<g id="edge10_Node000008_Node000004" class="edge">
<title>Node8&#45;&gt;Node4</title>
<g id="a_edge10_Node000008_Node000004"><a xlink:title=" ">
<path fill="none" stroke="#63b8ff" d="M176.44,-157.52C175.95,-158.01 175.47,-158.5 175,-159 140.92,-195.25 173.78,-229.42 139,-265 135.81,-268.26 132.17,-271.1 128.26,-273.56"/>
<polygon fill="#63b8ff" stroke="#63b8ff" points="178.46,-160.39 183.88,-151.29 173.97,-155.03 178.46,-160.39"/>
</a>
</g>
</g>
<!-- Node8&#45;&gt;Node5 -->
<g id="edge11_Node000008_Node000005" class="edge">
<title>Node8&#45;&gt;Node5</title>
<g id="a_edge11_Node000008_Node000005"><a xlink:title=" ">
<path fill="none" stroke="#63b8ff" d="M177.93,-156.67C176.93,-157.43 175.95,-158.21 175,-159 152.26,-177.93 162.11,-196.52 139,-215 134.95,-218.24 130.43,-221.09 125.72,-223.58"/>
<polygon fill="#63b8ff" stroke="#63b8ff" points="179.78,-159.64 186.13,-151.16 175.88,-153.83 179.78,-159.64"/>
</a>
</g>
</g>
<!-- Node8&#45;&gt;Node6 -->
<g id="edge12_Node000008_Node000006" class="edge">
<title>Node8&#45;&gt;Node6</title>
<g id="a_edge12_Node000008_Node000006"><a xlink:title=" ">
<path fill="none" stroke="#63b8ff" d="M167.57,-153.82C153.32,-158.25 138.83,-162.76 125.55,-166.89"/>
<polygon fill="#63b8ff" stroke="#63b8ff" points="168.44,-157.22 176.95,-150.9 166.37,-150.53 168.44,-157.22"/>
</a>
</g>
</g>
<!-- Node8&#45;&gt;Node7 -->
<g id="edge13_Node000008_Node000007" class="edge">
<title>Node8&#45;&gt;Node7</title>
<g id="a_edge13_Node000008_Node000007"><a xlink:title=" ">
<path fill="none" stroke="#63b8ff" d="M163.49,-128C153.85,-128 144.17,-128 134.88,-128"/>
<polygon fill="#63b8ff" stroke="#63b8ff" points="163.24,-131.5 173.24,-128 163.24,-124.5 163.24,-131.5"/>
</a>
</g>
</g>
<!-- Node9 -->
<g id="Node000009" class="node">
<title>Node9</title>
<g id="a_Node000009"><a xlink:href="class_fiea_1_1_engine_1_1_content_1_1_array_handler.html#a12c964e02fd52210a503839f93f9bcd5" target="_top" xlink:title=" ">
<polygon fill="white" stroke="#666666" points="132.25,-32 6.75,-32 6.75,0 132.25,0 132.25,-32"/>
<text text-anchor="start" x="14.75" y="-18.5" font-family="Helvetica,sans-Serif" font-size="10.00">Fiea::Engine::Content</text>
<text text-anchor="middle" x="69.5" y="-6.5" font-family="Helvetica,sans-Serif" font-size="10.00">::ArrayHandler::EnterKey</text>
</a>
</g>
</g>
<!-- Node8&#45;&gt;Node9 -->
<g id="edge8_Node000008_Node000009" class="edge">
<title>Node8&#45;&gt;Node9</title>
<g id="a_edge8_Node000008_Node000009"><a xlink:title=" ">
<path fill="none" stroke="#63b8ff" d="M217.88,-98.02C196.6,-79.7 167.58,-56.84 139,-41 133.35,-37.87 127.24,-35 121.06,-32.4"/>
<polygon fill="#63b8ff" stroke="#63b8ff" points="215.53,-100.61 225.36,-104.56 220.13,-95.34 215.53,-100.61"/>
</a>
</g>
</g>
</g>
</svg>
