<?xml version="1.0" encoding="UTF-8" standalone="no"?>
<!DOCTYPE svg PUBLIC "-//W3C//DTD SVG 1.1//EN"
 "http://www.w3.org/Graphics/SVG/1.1/DTD/svg11.dtd">
<!-- Generated by graphviz version 12.2.1 (20241206.2353)
 -->
<!-- Title: Fiea::Engine::Content::ScopeWriter::ResetExternalDataTeller Pages: 1 -->
<svg width="321pt" height="314pt"
 viewBox="0.00 0.00 320.50 314.00" xmlns="http://www.w3.org/2000/svg" xmlns:xlink="http://www.w3.org/1999/xlink">
<g id="graph0" class="graph" transform="scale(1 1) rotate(0) translate(4 310)">
<title>Fiea::Engine::Content::ScopeWriter::ResetExternalDataTeller</title>
<!-- Node1 -->
<g id="Node000001" class="node">
<title>Node1</title>
<g id="a_Node000001"><a xlink:title="The Handler that set external data status should be the one to reset it.">
<polygon fill="#999999" stroke="#666666" points="312.5,-175 169,-175 169,-131 312.5,-131 312.5,-175"/>
<text text-anchor="start" x="177" y="-161.5" font-family="Helvetica,sans-Serif" font-size="10.00">Fiea::Engine::Content</text>
<text text-anchor="start" x="177" y="-149.5" font-family="Helvetica,sans-Serif" font-size="10.00">::ScopeWriter::ResetExternal</text>
<text text-anchor="middle" x="240.75" y="-137.5" font-family="Helvetica,sans-Serif" font-size="10.00">DataTeller</text>
</a>
</g>
</g>
<!-- Node2 -->
<g id="Node000002" class="node">
<title>Node2</title>
<g id="a_Node000002"><a xlink:href="class_fiea_1_1_engine_1_1_content_1_1_array_handler.html#ad73a1f195217bd25e227ae2081eb1496" target="_top" xlink:title=" ">
<polygon fill="white" stroke="#666666" points="126.25,-306 6.75,-306 6.75,-274 126.25,-274 126.25,-306"/>
<text text-anchor="start" x="14.75" y="-292.5" font-family="Helvetica,sans-Serif" font-size="10.00">Fiea::Engine::Content</text>
<text text-anchor="middle" x="66.5" y="-280.5" font-family="Helvetica,sans-Serif" font-size="10.00">::ArrayHandler::ExitKey</text>
</a>
</g>
</g>
<!-- Node1&#45;&gt;Node2 -->
<g id="edge1_Node000001_Node000002" class="edge">
<title>Node1&#45;&gt;Node2</title>
<g id="a_edge1_Node000001_Node000002"><a xlink:title=" ">
<path fill="none" stroke="#63b8ff" d="M216.49,-184.18C196.64,-208.95 166.12,-242.97 133,-265 128.24,-268.17 123.02,-271.02 117.66,-273.55"/>
<polygon fill="#63b8ff" stroke="#63b8ff" points="219.2,-186.4 222.62,-176.38 213.69,-182.08 219.2,-186.4"/>
</a>
</g>
</g>
<!-- Node3 -->
<g id="Node000003" class="node">
<title>Node3</title>
<g id="a_Node000003"><a xlink:href="class_fiea_1_1_engine_1_1_content_1_1_float_parse_handler.html#a9ed0c49e00db3cb599446a039694ca69" target="_top" xlink:title=" ">
<polygon fill="white" stroke="#666666" points="122.12,-256 10.88,-256 10.88,-212 122.12,-212 122.12,-256"/>
<text text-anchor="start" x="18.88" y="-242.5" font-family="Helvetica,sans-Serif" font-size="10.00">Fiea::Engine::Content</text>
<text text-anchor="start" x="18.88" y="-230.5" font-family="Helvetica,sans-Serif" font-size="10.00">::FloatParseHandler::</text>
<text text-anchor="middle" x="66.5" y="-218.5" font-family="Helvetica,sans-Serif" font-size="10.00">ExitKey</text>
</a>
</g>
</g>
<!-- Node1&#45;&gt;Node3 -->
<g id="edge2_Node000001_Node000003" class="edge">
<title>Node1&#45;&gt;Node3</title>
<g id="a_edge2_Node000001_Node000003"><a xlink:title=" ">
<path fill="none" stroke="#63b8ff" d="M181.83,-180.24C160.16,-190.43 135.81,-201.88 115.17,-211.58"/>
<polygon fill="#63b8ff" stroke="#63b8ff" points="183.3,-183.41 190.86,-175.99 180.32,-177.08 183.3,-183.41"/>
</a>
</g>
</g>
<!-- Node4 -->
<g id="Node000004" class="node">
<title>Node4</title>
<g id="a_Node000004"><a xlink:href="class_fiea_1_1_engine_1_1_content_1_1_int_parse_handler.html#a8b3d1d183b22a50852fa91fb6aaf129a" target="_top" xlink:title=" ">
<polygon fill="white" stroke="#666666" points="133,-194 0,-194 0,-162 133,-162 133,-194"/>
<text text-anchor="start" x="8" y="-180.5" font-family="Helvetica,sans-Serif" font-size="10.00">Fiea::Engine::Content</text>
<text text-anchor="middle" x="66.5" y="-168.5" font-family="Helvetica,sans-Serif" font-size="10.00">::IntParseHandler::ExitKey</text>
</a>
</g>
</g>
<!-- Node1&#45;&gt;Node4 -->
<g id="edge3_Node000001_Node000004" class="edge">
<title>Node1&#45;&gt;Node4</title>
<g id="a_edge3_Node000001_Node000004"><a xlink:title=" ">
<path fill="none" stroke="#63b8ff" d="M157.39,-164.95C149.35,-166.12 141.26,-167.29 133.42,-168.43"/>
<polygon fill="#63b8ff" stroke="#63b8ff" points="157.8,-168.43 167.2,-163.53 156.8,-161.5 157.8,-168.43"/>
</a>
</g>
</g>
<!-- Node5 -->
<g id="Node000005" class="node">
<title>Node5</title>
<g id="a_Node000005"><a xlink:href="class_fiea_1_1_engine_1_1_content_1_1_matrix_handler.html#a6dfd14f5166eee8535e73cbc4e3bc69f" target="_top" xlink:title=" ">
<polygon fill="white" stroke="#666666" points="128.12,-144 4.88,-144 4.88,-112 128.12,-112 128.12,-144"/>
<text text-anchor="start" x="12.88" y="-130.5" font-family="Helvetica,sans-Serif" font-size="10.00">Fiea::Engine::Content</text>
<text text-anchor="middle" x="66.5" y="-118.5" font-family="Helvetica,sans-Serif" font-size="10.00">::MatrixHandler::ExitKey</text>
</a>
</g>
</g>
<!-- Node1&#45;&gt;Node5 -->
<g id="edge4_Node000001_Node000005" class="edge">
<title>Node1&#45;&gt;Node5</title>
<g id="a_edge4_Node000001_Node000005"><a xlink:title=" ">
<path fill="none" stroke="#63b8ff" d="M157.35,-141.04C147.63,-139.63 137.85,-138.21 128.5,-136.85"/>
<polygon fill="#63b8ff" stroke="#63b8ff" points="156.8,-144.5 167.2,-142.47 157.8,-137.57 156.8,-144.5"/>
</a>
</g>
</g>
<!-- Node6 -->
<g id="Node000006" class="node">
<title>Node6</title>
<g id="a_Node000006"><a xlink:href="class_fiea_1_1_engine_1_1_content_1_1_string_parse_handler.html#a9e31a96c6f070198f3f259075e736aa3" target="_top" xlink:title=" ">
<polygon fill="white" stroke="#666666" points="122.12,-94 10.88,-94 10.88,-50 122.12,-50 122.12,-94"/>
<text text-anchor="start" x="18.88" y="-80.5" font-family="Helvetica,sans-Serif" font-size="10.00">Fiea::Engine::Content</text>
<text text-anchor="start" x="18.88" y="-68.5" font-family="Helvetica,sans-Serif" font-size="10.00">::StringParseHandler</text>
<text text-anchor="middle" x="66.5" y="-56.5" font-family="Helvetica,sans-Serif" font-size="10.00">::ExitKey</text>
</a>
</g>
</g>
<!-- Node1&#45;&gt;Node6 -->
<g id="edge5_Node000001_Node000006" class="edge">
<title>Node1&#45;&gt;Node6</title>
<g id="a_edge5_Node000001_Node000006"><a xlink:title=" ">
<path fill="none" stroke="#63b8ff" d="M181.83,-125.76C160.16,-115.57 135.81,-104.12 115.17,-94.42"/>
<polygon fill="#63b8ff" stroke="#63b8ff" points="180.32,-128.92 190.86,-130.01 183.3,-122.59 180.32,-128.92"/>
</a>
</g>
</g>
<!-- Node7 -->
<g id="Node000007" class="node">
<title>Node7</title>
<g id="a_Node000007"><a xlink:href="class_fiea_1_1_engine_1_1_content_1_1_vector_handler.html#ae3b22ca8db36059cc9377169fe59d308" target="_top" xlink:title=" ">
<polygon fill="white" stroke="#666666" points="128.5,-32 4.5,-32 4.5,0 128.5,0 128.5,-32"/>
<text text-anchor="start" x="12.5" y="-18.5" font-family="Helvetica,sans-Serif" font-size="10.00">Fiea::Engine::Content</text>
<text text-anchor="middle" x="66.5" y="-6.5" font-family="Helvetica,sans-Serif" font-size="10.00">::VectorHandler::ExitKey</text>
</a>
</g>
</g>
<!-- Node1&#45;&gt;Node7 -->
<g id="edge6_Node000001_Node000007" class="edge">
<title>Node1&#45;&gt;Node7</title>
<g id="a_edge6_Node000001_Node000007"><a xlink:title=" ">
<path fill="none" stroke="#63b8ff" d="M216.49,-121.82C196.64,-97.05 166.12,-63.03 133,-41 128.24,-37.83 123.02,-34.98 117.66,-32.45"/>
<polygon fill="#63b8ff" stroke="#63b8ff" points="213.69,-123.92 222.62,-129.62 219.2,-119.6 213.69,-123.92"/>
</a>
</g>
</g>
</g>
</svg>
