<?xml version="1.0" encoding="UTF-8" standalone="no"?>
<!DOCTYPE svg PUBLIC "-//W3C//DTD SVG 1.1//EN"
 "http://www.w3.org/Graphics/SVG/1.1/DTD/svg11.dtd">
<!-- Generated by graphviz version 12.2.1 (20241206.2353)
 -->
<!-- Title: Fiea::Engine::Content::ParseWriter Pages: 1 -->
<svg width="236pt" height="476pt"
 viewBox="0.00 0.00 236.25 476.00" xmlns="http://www.w3.org/2000/svg" xmlns:xlink="http://www.w3.org/1999/xlink">
<g id="graph0" class="graph" transform="scale(1 1) rotate(0) translate(4 472)">
<title>Fiea::Engine::Content::ParseWriter</title>
<!-- Node1 -->
<g id="Node000001" class="node">
<title>Node1</title>
<g id="a_Node000001"><a xlink:title=" ">
<polygon fill="#999999" stroke="none" points="158,-192 54.75,-192 54.75,0 158,0 158,-192"/>
<text text-anchor="start" x="58.75" y="-178.5" font-family="Helvetica,sans-Serif" font-size="10.00">Fiea::Engine::Content</text>
<text text-anchor="start" x="77.88" y="-166.5" font-family="Helvetica,sans-Serif" font-size="10.00">::ParseWriter</text>
<text text-anchor="start" x="104.88" y="-150.5" font-family="Helvetica,sans-Serif" font-size="10.00"> </text>
<text text-anchor="start" x="60" y="-134.5" font-family="Helvetica,sans-Serif" font-size="10.00">+</text>
<text text-anchor="start" x="71.25" y="-134.5" font-family="Helvetica,sans-Serif" font-size="10.00">ParseWriter()</text>
<text text-anchor="start" x="60" y="-118.5" font-family="Helvetica,sans-Serif" font-size="10.00">+</text>
<text text-anchor="start" x="71.25" y="-118.5" font-family="Helvetica,sans-Serif" font-size="10.00">ParseWriter()</text>
<text text-anchor="start" x="60" y="-102.5" font-family="Helvetica,sans-Serif" font-size="10.00">+</text>
<text text-anchor="start" x="71.25" y="-102.5" font-family="Helvetica,sans-Serif" font-size="10.00">operator=()</text>
<text text-anchor="start" x="60" y="-86.5" font-family="Helvetica,sans-Serif" font-size="10.00">+</text>
<text text-anchor="start" x="71.25" y="-86.5" font-family="Helvetica,sans-Serif" font-size="10.00">operator=()</text>
<text text-anchor="start" x="60" y="-70.5" font-family="Helvetica,sans-Serif" font-size="10.00">+</text>
<text text-anchor="start" x="71.25" y="-70.5" font-family="Helvetica,sans-Serif" font-size="10.00">~ParseWriter()</text>
<text text-anchor="start" x="60" y="-54.5" font-family="Helvetica,sans-Serif" font-size="10.00">+</text>
<text text-anchor="start" x="71.25" y="-54.5" font-family="Helvetica,sans-Serif" font-size="10.00">IncrementDepth()</text>
<text text-anchor="start" x="60" y="-38.5" font-family="Helvetica,sans-Serif" font-size="10.00">+</text>
<text text-anchor="start" x="71.25" y="-38.5" font-family="Helvetica,sans-Serif" font-size="10.00">DecrementDepth()</text>
<text text-anchor="start" x="60" y="-22.5" font-family="Helvetica,sans-Serif" font-size="10.00">+</text>
<text text-anchor="start" x="71.25" y="-22.5" font-family="Helvetica,sans-Serif" font-size="10.00">Depth()</text>
<text text-anchor="start" x="60.38" y="-6.5" font-family="Helvetica,sans-Serif" font-size="10.00">#</text>
<text text-anchor="start" x="71.25" y="-6.5" font-family="Helvetica,sans-Serif" font-size="10.00">ParseWriter()</text>
<polygon fill="#666666" stroke="#666666" points="54.75,-162 54.75,-162 158,-162 158,-162 54.75,-162"/>
<polygon fill="#666666" stroke="#666666" points="54.75,-146 54.75,-146 158,-146 158,-146 54.75,-146"/>
<polygon fill="none" stroke="#666666" points="54.75,0 54.75,-192 158,-192 158,0 54.75,0"/>
</a>
</g>
</g>
<!-- Node2 -->
<g id="Node000002" class="node">
<title>Node2</title>
<g id="a_Node000002"><a xlink:href="class_fiea_1_1_engine_1_1_r_t_t_i.html" target="_top" xlink:title=" ">
<polygon fill="white" stroke="none" points="90.75,-468 0,-468 0,-240 90.75,-240 90.75,-468"/>
<text text-anchor="start" x="4.12" y="-454.5" font-family="Helvetica,sans-Serif" font-size="10.00">Fiea::Engine::RTTI</text>
<text text-anchor="start" x="43.88" y="-438.5" font-family="Helvetica,sans-Serif" font-size="10.00"> </text>
<text text-anchor="start" x="4" y="-422.5" font-family="Helvetica,sans-Serif" font-size="10.00">+</text>
<text text-anchor="start" x="14" y="-422.5" font-family="Helvetica,sans-Serif" font-size="10.00">RTTI()</text>
<text text-anchor="start" x="4" y="-406.5" font-family="Helvetica,sans-Serif" font-size="10.00">+</text>
<text text-anchor="start" x="14" y="-406.5" font-family="Helvetica,sans-Serif" font-size="10.00">RTTI()</text>
<text text-anchor="start" x="4" y="-390.5" font-family="Helvetica,sans-Serif" font-size="10.00">+</text>
<text text-anchor="start" x="14" y="-390.5" font-family="Helvetica,sans-Serif" font-size="10.00">operator=()</text>
<text text-anchor="start" x="4" y="-374.5" font-family="Helvetica,sans-Serif" font-size="10.00">+</text>
<text text-anchor="start" x="14" y="-374.5" font-family="Helvetica,sans-Serif" font-size="10.00">RTTI()</text>
<text text-anchor="start" x="4" y="-358.5" font-family="Helvetica,sans-Serif" font-size="10.00">+</text>
<text text-anchor="start" x="14" y="-358.5" font-family="Helvetica,sans-Serif" font-size="10.00">operator=()</text>
<text text-anchor="start" x="4" y="-342.5" font-family="Helvetica,sans-Serif" font-size="10.00">+</text>
<text text-anchor="start" x="14" y="-342.5" font-family="Helvetica,sans-Serif" font-size="10.00">~RTTI()</text>
<text text-anchor="start" x="4" y="-326.5" font-family="Helvetica,sans-Serif" font-size="10.00">+</text>
<text text-anchor="start" x="14" y="-326.5" font-family="Helvetica,sans-Serif" font-size="10.00">TypeIdInstance()</text>
<text text-anchor="start" x="4" y="-310.5" font-family="Helvetica,sans-Serif" font-size="10.00">+</text>
<text text-anchor="start" x="14" y="-310.5" font-family="Helvetica,sans-Serif" font-size="10.00">Is()</text>
<text text-anchor="start" x="4" y="-294.5" font-family="Helvetica,sans-Serif" font-size="10.00">+</text>
<text text-anchor="start" x="14" y="-294.5" font-family="Helvetica,sans-Serif" font-size="10.00">As()</text>
<text text-anchor="start" x="4" y="-278.5" font-family="Helvetica,sans-Serif" font-size="10.00">+</text>
<text text-anchor="start" x="14" y="-278.5" font-family="Helvetica,sans-Serif" font-size="10.00">As()</text>
<text text-anchor="start" x="4" y="-262.5" font-family="Helvetica,sans-Serif" font-size="10.00">+</text>
<text text-anchor="start" x="14" y="-262.5" font-family="Helvetica,sans-Serif" font-size="10.00">ToString()</text>
<text text-anchor="start" x="4" y="-246.5" font-family="Helvetica,sans-Serif" font-size="10.00">+</text>
<text text-anchor="start" x="14" y="-246.5" font-family="Helvetica,sans-Serif" font-size="10.00">Equals()</text>
<polygon fill="#666666" stroke="#666666" points="0,-450 0,-450 90.75,-450 90.75,-450 0,-450"/>
<polygon fill="#666666" stroke="#666666" points="0,-434 0,-434 90.75,-434 90.75,-434 0,-434"/>
<polygon fill="none" stroke="#666666" points="0,-240 0,-468 90.75,-468 90.75,-240 0,-240"/>
</a>
</g>
</g>
<!-- Node2&#45;&gt;Node1 -->
<g id="edge1_Node000001_Node000002" class="edge">
<title>Node2&#45;&gt;Node1</title>
<g id="a_edge1_Node000001_Node000002"><a xlink:title=" ">
<path fill="none" stroke="#63b8ff" d="M74.86,-229.27C77.87,-216.64 80.89,-203.96 83.81,-191.71"/>
<polygon fill="none" stroke="#63b8ff" points="71.48,-228.33 72.57,-238.87 78.29,-229.95 71.48,-228.33"/>
</a>
</g>
</g>
<!-- Node3 -->
<g id="Node000003" class="node">
<title>Node3</title>
<g id="a_Node000003"><a xlink:href="struct_fiea_1_1_engine_1_1_content_1_1_parse_writer_1_1_blackboard.html" target="_top" xlink:title="We need this data because the Parser has no knowledge of which handler is which is which....">
<polygon fill="white" stroke="none" points="228.25,-410 108.5,-410 108.5,-298 228.25,-298 228.25,-410"/>
<text text-anchor="start" x="112.5" y="-396.5" font-family="Helvetica,sans-Serif" font-size="10.00">Fiea::Engine::Content</text>
<text text-anchor="start" x="112.5" y="-384.5" font-family="Helvetica,sans-Serif" font-size="10.00">::ParseWriter::Blackboard</text>
<text text-anchor="start" x="166.88" y="-368.5" font-family="Helvetica,sans-Serif" font-size="10.00"> </text>
<text text-anchor="start" x="113.56" y="-352.5" font-family="Helvetica,sans-Serif" font-size="10.00">+</text>
<text text-anchor="start" x="124.62" y="-352.5" font-family="Helvetica,sans-Serif" font-size="10.00">EnterTrackingInfo()</text>
<text text-anchor="start" x="113.56" y="-336.5" font-family="Helvetica,sans-Serif" font-size="10.00">+</text>
<text text-anchor="start" x="124.62" y="-336.5" font-family="Helvetica,sans-Serif" font-size="10.00">IsHandlerInProgress()</text>
<text text-anchor="start" x="113.56" y="-320.5" font-family="Helvetica,sans-Serif" font-size="10.00">+</text>
<text text-anchor="start" x="124.62" y="-320.5" font-family="Helvetica,sans-Serif" font-size="10.00">PopCurrentHandlerId()</text>
<text text-anchor="start" x="113.56" y="-304.5" font-family="Helvetica,sans-Serif" font-size="10.00">+</text>
<text text-anchor="start" x="124.62" y="-304.5" font-family="Helvetica,sans-Serif" font-size="10.00">Reset()</text>
<polygon fill="#666666" stroke="#666666" points="108.5,-380 108.5,-380 228.25,-380 228.25,-380 108.5,-380"/>
<polygon fill="#666666" stroke="#666666" points="108.5,-364 108.5,-364 228.25,-364 228.25,-364 108.5,-364"/>
<polygon fill="none" stroke="#666666" points="108.5,-298 108.5,-410 228.25,-410 228.25,-298 108.5,-298"/>
</a>
</g>
</g>
<!-- Node3&#45;&gt;Node1 -->
<g id="edge2_Node000001_Node000003" class="edge">
<title>Node3&#45;&gt;Node1</title>
<g id="a_edge2_Node000001_Node000003"><a xlink:title=" ">
<path fill="none" stroke="#63b8ff" d="M155.07,-298.08C148.43,-270.66 140.16,-236.51 132.33,-204.18"/>
<polygon fill="none" stroke="#63b8ff" points="132.39,-204.43 127.09,-199.54 129.57,-192.77 134.87,-197.66 132.39,-204.43"/>
</a>
</g>
<text text-anchor="middle" x="159.14" y="-212.5" font-family="Helvetica,sans-Serif" font-size="10.00" fill="grey"> +_Tracker</text>
</g>
</g>
</svg>
