<?xml version="1.0" encoding="UTF-8" standalone="no"?>
<!DOCTYPE svg PUBLIC "-//W3C//DTD SVG 1.1//EN"
 "http://www.w3.org/Graphics/SVG/1.1/DTD/svg11.dtd">
<!-- Generated by graphviz version 12.2.1 (20241206.2353)
 -->
<!-- Title: Tests Pages: 1 -->
<svg width="122pt" height="156pt"
 viewBox="0.00 0.00 122.38 156.00" xmlns="http://www.w3.org/2000/svg" xmlns:xlink="http://www.w3.org/1999/xlink">
<g id="graph0" class="graph" transform="scale(1 1) rotate(0) translate(4 152)">
<title>Tests</title>
<g id="clust1" class="cluster">
<title>clusterdir_33c78a012c8d08979f57a54a07694c46</title>
<g id="a_clust1"><a xlink:href="dir_33c78a012c8d08979f57a54a07694c46.html" target="_top">
<polygon fill="#edf0f7" stroke="#404040" stroke-width="2" points="8,-48 8,-140 74,-140 74,-48 8,-48"/>
</a>
</g>
</g>
<!-- dir_33c78a012c8d08979f57a54a07694c46 -->
<g id="node1" class="node">
<title>dir_33c78a012c8d08979f57a54a07694c46</title>
<text text-anchor="middle" x="43" y="-118.5" font-family="Helvetica,sans-Serif" font-size="10.00">Tests</text>
</g>
<!-- dir_07b175e315ab64aec69060a95d93ae8f -->
<g id="node2" class="node">
<title>dir_07b175e315ab64aec69060a95d93ae8f</title>
<g id="a_node2"><a xlink:href="dir_07b175e315ab64aec69060a95d93ae8f.html" target="_top" xlink:title="Support">
<polygon fill="#dfe5f1" stroke="#404040" points="65.88,-76 16.12,-76 16.12,-56 65.88,-56 65.88,-76"/>
<text text-anchor="middle" x="41" y="-62.5" font-family="Helvetica,sans-Serif" font-size="10.00">Support</text>
</a>
</g>
</g>
<!-- dir_33c78a012c8d08979f57a54a07694c46&#45;&gt;dir_07b175e315ab64aec69060a95d93ae8f -->
<g id="edge1" class="edge">
<title>dir_33c78a012c8d08979f57a54a07694c46&#45;&gt;dir_07b175e315ab64aec69060a95d93ae8f</title>
<path fill="none" stroke="#63b8ff" d="M42.67,-112.08C42.43,-105.48 42.08,-96.21 41.77,-87.79"/>
<polygon fill="#63b8ff" stroke="#63b8ff" points="45.27,-87.85 41.41,-77.99 38.28,-88.11 45.27,-87.85"/>
<g id="a_edge1&#45;headlabel"><a xlink:href="dir_000011_000010.html" target="_top" xlink:title="21">
<text text-anchor="middle" x="48.19" y="-86.33" font-family="Helvetica,sans-Serif" font-size="10.00" fill="#63b8ff">21</text>
</a>
</g>
</g>
<!-- dir_a6340eb4d838abacca2af5dd65234cd0 -->
<g id="node3" class="node">
<title>dir_a6340eb4d838abacca2af5dd65234cd0</title>
<g id="a_node3"><a xlink:href="dir_a6340eb4d838abacca2af5dd65234cd0.html" target="_top" xlink:title="FIEAGameEngine">
<polygon fill="#edf0f7" stroke="red" points="114.38,-20 19.62,-20 19.62,0 114.38,0 114.38,-20"/>
<text text-anchor="middle" x="67" y="-6.5" font-family="Helvetica,sans-Serif" font-size="10.00">FIEAGameEngine</text>
</a>
</g>
</g>
<!-- dir_33c78a012c8d08979f57a54a07694c46&#45;&gt;dir_a6340eb4d838abacca2af5dd65234cd0 -->
<g id="edge2" class="edge">
<title>dir_33c78a012c8d08979f57a54a07694c46&#45;&gt;dir_a6340eb4d838abacca2af5dd65234cd0</title>
<path fill="none" stroke="#63b8ff" d="M51.75,-112.29C59.56,-103.84 70.45,-90.25 75,-76 79.61,-61.55 77.25,-44.52 73.92,-31.51"/>
<polygon fill="#63b8ff" stroke="#63b8ff" points="77.28,-30.52 71.07,-21.94 70.57,-32.52 77.28,-30.52"/>
<g id="a_edge2&#45;headlabel"><a xlink:href="dir_000011_000005.html" target="_top" xlink:title="79">
<text text-anchor="middle" x="80.6" y="-28.21" font-family="Helvetica,sans-Serif" font-size="10.00" fill="#63b8ff">79</text>
</a>
</g>
</g>
<!-- dir_07b175e315ab64aec69060a95d93ae8f&#45;&gt;dir_a6340eb4d838abacca2af5dd65234cd0 -->
<g id="edge3" class="edge">
<title>dir_07b175e315ab64aec69060a95d93ae8f&#45;&gt;dir_a6340eb4d838abacca2af5dd65234cd0</title>
<path fill="none" stroke="#63b8ff" d="M45.53,-55.59C48.85,-48.7 53.47,-39.1 57.58,-30.57"/>
<polygon fill="#63b8ff" stroke="#63b8ff" points="60.68,-32.19 61.87,-21.66 54.37,-29.15 60.68,-32.19"/>
<g id="a_edge3&#45;headlabel"><a xlink:href="dir_000010_000005.html" target="_top" xlink:title="22">
<text text-anchor="middle" x="62.34" y="-31.8" font-family="Helvetica,sans-Serif" font-size="10.00" fill="#63b8ff">22</text>
</a>
</g>
</g>
</g>
</svg>
