<?xml version="1.0" encoding="UTF-8" standalone="no"?>
<!DOCTYPE svg PUBLIC "-//W3C//DTD SVG 1.1//EN"
 "http://www.w3.org/Graphics/SVG/1.1/DTD/svg11.dtd">
<!-- Generated by graphviz version 12.2.1 (20241206.2353)
 -->
<!-- Title: FIEAGameEngine Pages: 1 -->
<svg width="488pt" height="208pt"
 viewBox="0.00 0.00 488.00 208.00" xmlns="http://www.w3.org/2000/svg" xmlns:xlink="http://www.w3.org/1999/xlink">
<g id="graph0" class="graph" transform="scale(1 1) rotate(0) translate(4 204)">
<title>FIEAGameEngine</title>
<g id="clust1" class="cluster">
<title>clusterdir_a6340eb4d838abacca2af5dd65234cd0</title>
<g id="a_clust1"><a xlink:href="dir_a6340eb4d838abacca2af5dd65234cd0.html" target="_top">
<polygon fill="#edf0f7" stroke="#404040" stroke-width="2" points="8,-8 8,-192 432,-192 432,-8 8,-8"/>
</a>
</g>
</g>
<g id="clust2" class="cluster">
<title>clusterdir_42fb2ceaaaf8d9f1096cfc5727169554</title>
<g id="a_clust2"><a xlink:href="dir_42fb2ceaaaf8d9f1096cfc5727169554.html" target="_top">
<polygon fill="#dfe5f1" stroke="#404040" points="16,-16 16,-124 202,-124 202,-16 16,-16"/>
</a>
</g>
</g>
<g id="clust3" class="cluster">
<title>clusterdir_494dfbf0b5ef19032f261c986d26bf21</title>
<g id="a_clust3"><a xlink:href="dir_494dfbf0b5ef19032f261c986d26bf21.html" target="_top">
<polygon fill="#d0d9ea" stroke="#404040" points="24,-24 24,-116 90,-116 90,-24 24,-24"/>
</a>
</g>
</g>
<g id="clust4" class="cluster">
<title>clusterdir_598b9d7631e9de0f72920d44a7ececfc</title>
<g id="a_clust4"><a xlink:href="dir_598b9d7631e9de0f72920d44a7ececfc.html" target="_top">
<polygon fill="#dfe5f1" stroke="#404040" points="16,-132 16,-184 320,-184 320,-132 16,-132"/>
</a>
</g>
</g>
<g id="clust5" class="cluster">
<title>clusterdir_615224098860e5ccd5c4bd209c0a7e11</title>
<g id="a_clust5"><a xlink:href="dir_615224098860e5ccd5c4bd209c0a7e11.html" target="_top">
<polygon fill="#d0d9ea" stroke="#404040" points="121,-140 121,-176 251,-176 251,-140 121,-140"/>
</a>
</g>
</g>
<!-- dir_a6340eb4d838abacca2af5dd65234cd0 -->
<g id="node1" class="node">
<title>dir_a6340eb4d838abacca2af5dd65234cd0</title>
<text text-anchor="middle" x="377" y="-154.5" font-family="Helvetica,sans-Serif" font-size="10.00">FIEAGameEngine</text>
</g>
<!-- dir_42fb2ceaaaf8d9f1096cfc5727169554 -->
<g id="node2" class="node">
<title>dir_42fb2ceaaaf8d9f1096cfc5727169554</title>
<text text-anchor="middle" x="124" y="-94.5" font-family="Helvetica,sans-Serif" font-size="10.00">include</text>
</g>
<!-- dir_494dfbf0b5ef19032f261c986d26bf21 -->
<g id="node3" class="node">
<title>dir_494dfbf0b5ef19032f261c986d26bf21</title>
<text text-anchor="middle" x="57" y="-94.5" font-family="Helvetica,sans-Serif" font-size="10.00">Content</text>
</g>
<!-- dir_51b4dbc37dec43307755914109067a4e -->
<g id="node4" class="node">
<title>dir_51b4dbc37dec43307755914109067a4e</title>
<g id="a_node4"><a xlink:href="dir_51b4dbc37dec43307755914109067a4e.html" target="_top" xlink:title="Actions">
<polygon fill="#c1cde4" stroke="#404040" points="81.5,-52 32.5,-52 32.5,-32 81.5,-32 81.5,-52"/>
<text text-anchor="middle" x="57" y="-38.5" font-family="Helvetica,sans-Serif" font-size="10.00">Actions</text>
</a>
</g>
</g>
<!-- dir_494dfbf0b5ef19032f261c986d26bf21&#45;&gt;dir_51b4dbc37dec43307755914109067a4e -->
<g id="edge1" class="edge">
<title>dir_494dfbf0b5ef19032f261c986d26bf21&#45;&gt;dir_51b4dbc37dec43307755914109067a4e</title>
<path fill="none" stroke="#63b8ff" d="M57,-88.08C57,-81.48 57,-72.21 57,-63.79"/>
<polygon fill="#63b8ff" stroke="#63b8ff" points="60.5,-63.99 57,-53.99 53.5,-63.99 60.5,-63.99"/>
<g id="a_edge1&#45;headlabel"><a xlink:href="dir_000003_000000.html" target="_top" xlink:title="1">
<text text-anchor="middle" x="63.34" y="-62.57" font-family="Helvetica,sans-Serif" font-size="10.00" fill="#63b8ff">1</text>
</a>
</g>
</g>
<!-- dir_b7a929e9ccc49823d741f03e54ab68d7 -->
<g id="node5" class="node">
<title>dir_b7a929e9ccc49823d741f03e54ab68d7</title>
<g id="a_node5"><a xlink:href="dir_b7a929e9ccc49823d741f03e54ab68d7.html" target="_top" xlink:title="FIEAGameEngine">
<polygon fill="#d0d9ea" stroke="#404040" points="194.38,-52 99.62,-52 99.62,-32 194.38,-32 194.38,-52"/>
<text text-anchor="middle" x="147" y="-38.5" font-family="Helvetica,sans-Serif" font-size="10.00">FIEAGameEngine</text>
</a>
</g>
</g>
<!-- dir_494dfbf0b5ef19032f261c986d26bf21&#45;&gt;dir_b7a929e9ccc49823d741f03e54ab68d7 -->
<g id="edge2" class="edge">
<title>dir_494dfbf0b5ef19032f261c986d26bf21&#45;&gt;dir_b7a929e9ccc49823d741f03e54ab68d7</title>
<path fill="none" stroke="#63b8ff" d="M66.7,-88.08C78.65,-79.87 98.92,-67.52 116.19,-57.83"/>
<polygon fill="#63b8ff" stroke="#63b8ff" points="117.52,-61.09 124.6,-53.2 114.15,-54.95 117.52,-61.09"/>
<g id="a_edge2&#45;headlabel"><a xlink:href="dir_000003_000006.html" target="_top" xlink:title="6">
<text text-anchor="middle" x="117.07" y="-61.08" font-family="Helvetica,sans-Serif" font-size="10.00" fill="#63b8ff">6</text>
</a>
</g>
</g>
<!-- dir_b7a929e9ccc49823d741f03e54ab68d7&#45;&gt;dir_494dfbf0b5ef19032f261c986d26bf21 -->
<g id="edge3" class="edge">
<title>dir_b7a929e9ccc49823d741f03e54ab68d7&#45;&gt;dir_494dfbf0b5ef19032f261c986d26bf21</title>
<path fill="none" stroke="#63b8ff" d="M136.49,-52.48C124.16,-60.87 103.79,-73.25 86.65,-82.82"/>
<polygon fill="#63b8ff" stroke="#63b8ff" points="85.45,-79.49 78.36,-87.36 88.81,-85.63 85.45,-79.49"/>
<g id="a_edge3&#45;headlabel"><a xlink:href="dir_000006_000003.html" target="_top" xlink:title="2">
<text text-anchor="middle" x="85.92" y="-72.5" font-family="Helvetica,sans-Serif" font-size="10.00" fill="#63b8ff">2</text>
</a>
</g>
</g>
<!-- dir_598b9d7631e9de0f72920d44a7ececfc -->
<g id="node6" class="node">
<title>dir_598b9d7631e9de0f72920d44a7ececfc</title>
<text text-anchor="middle" x="39" y="-154.5" font-family="Helvetica,sans-Serif" font-size="10.00">src</text>
</g>
<!-- dir_598b9d7631e9de0f72920d44a7ececfc&#45;&gt;dir_494dfbf0b5ef19032f261c986d26bf21 -->
<g id="edge4" class="edge">
<title>dir_598b9d7631e9de0f72920d44a7ececfc&#45;&gt;dir_494dfbf0b5ef19032f261c986d26bf21</title>
<path fill="none" stroke="#63b8ff" d="M41.66,-148.44C44.07,-140.65 47.73,-128.85 50.87,-118.74"/>
<polygon fill="#63b8ff" stroke="#63b8ff" points="54.14,-120.01 53.77,-109.42 47.46,-117.93 54.14,-120.01"/>
<g id="a_edge4&#45;headlabel"><a xlink:href="dir_000009_000003.html" target="_top" xlink:title="37">
<text text-anchor="middle" x="56.24" y="-119.34" font-family="Helvetica,sans-Serif" font-size="10.00" fill="#63b8ff">37</text>
</a>
</g>
</g>
<!-- dir_598b9d7631e9de0f72920d44a7ececfc&#45;&gt;dir_b7a929e9ccc49823d741f03e54ab68d7 -->
<g id="edge5" class="edge">
<title>dir_598b9d7631e9de0f72920d44a7ececfc&#45;&gt;dir_b7a929e9ccc49823d741f03e54ab68d7</title>
<path fill="none" stroke="#63b8ff" d="M44.32,-148.49C48.4,-142.77 54.59,-135.64 62,-132 80.82,-122.77 141.82,-139.44 156,-124 170.99,-107.68 164.27,-81.02 156.8,-62.77"/>
<polygon fill="#63b8ff" stroke="#63b8ff" points="160.05,-61.47 152.74,-53.81 153.67,-64.36 160.05,-61.47"/>
<g id="a_edge5&#45;headlabel"><a xlink:href="dir_000009_000006.html" target="_top" xlink:title="25">
<text text-anchor="middle" x="163.49" y="-58.7" font-family="Helvetica,sans-Serif" font-size="10.00" fill="#63b8ff">25</text>
</a>
</g>
</g>
<!-- dir_125e0bdd28d927dc483b3231d8cd123f -->
<g id="node7" class="node">
<title>dir_125e0bdd28d927dc483b3231d8cd123f</title>
<g id="a_node7"><a xlink:href="dir_125e0bdd28d927dc483b3231d8cd123f.html" target="_top" xlink:title="clock">
<polygon fill="#d0d9ea" stroke="#404040" points="110.62,-168 71.38,-168 71.38,-148 110.62,-148 110.62,-168"/>
<text text-anchor="middle" x="91" y="-154.5" font-family="Helvetica,sans-Serif" font-size="10.00">clock</text>
</a>
</g>
</g>
<!-- dir_125e0bdd28d927dc483b3231d8cd123f&#45;&gt;dir_b7a929e9ccc49823d741f03e54ab68d7 -->
<g id="edge6" class="edge">
<title>dir_125e0bdd28d927dc483b3231d8cd123f&#45;&gt;dir_b7a929e9ccc49823d741f03e54ab68d7</title>
<path fill="none" stroke="#63b8ff" d="M98.12,-147.55C102.83,-142.03 109.51,-135.5 117,-132 131.99,-125 179.95,-136.31 191,-124 201.69,-112.09 197.04,-102.82 191,-88 186.47,-76.89 177.73,-67.02 169.22,-59.39"/>
<polygon fill="#63b8ff" stroke="#63b8ff" points="171.73,-56.92 161.79,-53.24 167.26,-62.31 171.73,-56.92"/>
<g id="a_edge6&#45;headlabel"><a xlink:href="dir_000002_000006.html" target="_top" xlink:title="2">
<text text-anchor="middle" x="175.14" y="-52.56" font-family="Helvetica,sans-Serif" font-size="10.00" fill="#63b8ff">2</text>
</a>
</g>
</g>
<!-- dir_615224098860e5ccd5c4bd209c0a7e11 -->
<g id="node8" class="node">
<title>dir_615224098860e5ccd5c4bd209c0a7e11</title>
<text text-anchor="middle" x="153" y="-154.5" font-family="Helvetica,sans-Serif" font-size="10.00">content</text>
</g>
<!-- dir_615224098860e5ccd5c4bd209c0a7e11&#45;&gt;dir_494dfbf0b5ef19032f261c986d26bf21 -->
<g id="edge8" class="edge">
<title>dir_615224098860e5ccd5c4bd209c0a7e11&#45;&gt;dir_494dfbf0b5ef19032f261c986d26bf21</title>
<path fill="none" stroke="#63b8ff" d="M145.53,-148.29C140.33,-142.79 132.92,-135.98 125,-132 109.19,-124.06 101.88,-131.81 86,-124 81.44,-121.76 77.01,-118.62 73.05,-115.33"/>
<polygon fill="#63b8ff" stroke="#63b8ff" points="75.63,-112.94 65.91,-108.73 70.87,-118.09 75.63,-112.94"/>
<g id="a_edge8&#45;headlabel"><a xlink:href="dir_000004_000003.html" target="_top" xlink:title="36">
<text text-anchor="middle" x="79.08" y="-108.77" font-family="Helvetica,sans-Serif" font-size="10.00" fill="#63b8ff">36</text>
</a>
</g>
</g>
<!-- dir_615224098860e5ccd5c4bd209c0a7e11&#45;&gt;dir_51b4dbc37dec43307755914109067a4e -->
<g id="edge9" class="edge">
<title>dir_615224098860e5ccd5c4bd209c0a7e11&#45;&gt;dir_51b4dbc37dec43307755914109067a4e</title>
<path fill="none" stroke="#63b8ff" d="M157.43,-148.1C163.72,-134.08 173.18,-106.55 161,-88 156.89,-81.75 120.97,-67.05 92.47,-56.14"/>
<polygon fill="#63b8ff" stroke="#63b8ff" points="94.01,-52.97 83.41,-52.7 91.53,-59.52 94.01,-52.97"/>
<g id="a_edge9&#45;headlabel"><a xlink:href="dir_000004_000000.html" target="_top" xlink:title="13">
<text text-anchor="middle" x="96.96" y="-47.56" font-family="Helvetica,sans-Serif" font-size="10.00" fill="#63b8ff">13</text>
</a>
</g>
</g>
<!-- dir_615224098860e5ccd5c4bd209c0a7e11&#45;&gt;dir_b7a929e9ccc49823d741f03e54ab68d7 -->
<g id="edge10" class="edge">
<title>dir_615224098860e5ccd5c4bd209c0a7e11&#45;&gt;dir_b7a929e9ccc49823d741f03e54ab68d7</title>
<path fill="none" stroke="#63b8ff" d="M162.8,-148.16C169.07,-142.88 177.58,-136.37 186,-132 196.35,-126.62 204.12,-133.42 211,-124 220.43,-111.08 218.37,-102.2 211,-88 204.3,-75.1 192.01,-65.12 179.99,-57.87"/>
<polygon fill="#63b8ff" stroke="#63b8ff" points="181.85,-54.9 171.4,-53.15 178.48,-61.04 181.85,-54.9"/>
<g id="a_edge10&#45;headlabel"><a xlink:href="dir_000004_000006.html" target="_top" xlink:title="11">
<text text-anchor="middle" x="185.04" y="-49.92" font-family="Helvetica,sans-Serif" font-size="10.00" fill="#63b8ff">11</text>
</a>
</g>
</g>
<!-- dir_33c78a012c8d08979f57a54a07694c46 -->
<g id="node11" class="node">
<title>dir_33c78a012c8d08979f57a54a07694c46</title>
<g id="a_node11"><a xlink:href="dir_33c78a012c8d08979f57a54a07694c46.html" target="_top" xlink:title="Tests">
<polygon fill="#edf0f7" stroke="red" points="480,-108 440,-108 440,-88 480,-88 480,-108"/>
<text text-anchor="middle" x="460" y="-94.5" font-family="Helvetica,sans-Serif" font-size="10.00">Tests</text>
</a>
</g>
</g>
<!-- dir_615224098860e5ccd5c4bd209c0a7e11&#45;&gt;dir_33c78a012c8d08979f57a54a07694c46 -->
<g id="edge7" class="edge">
<title>dir_615224098860e5ccd5c4bd209c0a7e11&#45;&gt;dir_33c78a012c8d08979f57a54a07694c46</title>
<path fill="none" stroke="#63b8ff" d="M161.98,-148.08C168.19,-142.49 176.94,-135.66 186,-132 197.13,-127.5 358.75,-109.82 428.42,-102.36"/>
<polygon fill="#63b8ff" stroke="#63b8ff" points="428.47,-105.87 438.04,-101.33 427.72,-98.91 428.47,-105.87"/>
<g id="a_edge7&#45;headlabel"><a xlink:href="dir_000004_000011.html" target="_top" xlink:title="10">
<text text-anchor="middle" x="426.7" y="-105.42" font-family="Helvetica,sans-Serif" font-size="10.00" fill="#63b8ff">10</text>
</a>
</g>
</g>
<!-- dir_cf48d9a91064a0acef07ab85bb233fc2 -->
<g id="node9" class="node">
<title>dir_cf48d9a91064a0acef07ab85bb233fc2</title>
<g id="a_node9"><a xlink:href="dir_cf48d9a91064a0acef07ab85bb233fc2.html" target="_top" xlink:title="actions">
<polygon fill="#c1cde4" stroke="#404040" points="242.75,-168 195.25,-168 195.25,-148 242.75,-148 242.75,-168"/>
<text text-anchor="middle" x="219" y="-154.5" font-family="Helvetica,sans-Serif" font-size="10.00">actions</text>
</a>
</g>
</g>
<!-- dir_cf48d9a91064a0acef07ab85bb233fc2&#45;&gt;dir_51b4dbc37dec43307755914109067a4e -->
<g id="edge11" class="edge">
<title>dir_cf48d9a91064a0acef07ab85bb233fc2&#45;&gt;dir_51b4dbc37dec43307755914109067a4e</title>
<path fill="none" stroke="#63b8ff" d="M214.45,-147.67C206.9,-133.07 190.46,-104.75 169,-88 156.64,-78.35 120.46,-64.61 92.54,-54.85"/>
<polygon fill="#63b8ff" stroke="#63b8ff" points="93.95,-51.64 83.36,-51.69 91.67,-58.26 93.95,-51.64"/>
<g id="a_edge11&#45;headlabel"><a xlink:href="dir_000001_000000.html" target="_top" xlink:title="8">
<text text-anchor="middle" x="96.84" y="-46.13" font-family="Helvetica,sans-Serif" font-size="10.00" fill="#63b8ff">8</text>
</a>
</g>
</g>
<!-- dir_cf48d9a91064a0acef07ab85bb233fc2&#45;&gt;dir_b7a929e9ccc49823d741f03e54ab68d7 -->
<g id="edge12" class="edge">
<title>dir_cf48d9a91064a0acef07ab85bb233fc2&#45;&gt;dir_b7a929e9ccc49823d741f03e54ab68d7</title>
<path fill="none" stroke="#63b8ff" d="M232.12,-147.6C239.16,-141.72 247.16,-133.47 251,-124 257.01,-109.17 259.78,-101.37 251,-88 240.48,-71.99 222.91,-61.64 205.18,-54.98"/>
<polygon fill="#63b8ff" stroke="#63b8ff" points="206.81,-51.83 196.21,-51.94 204.57,-58.46 206.81,-51.83"/>
<g id="a_edge12&#45;headlabel"><a xlink:href="dir_000001_000006.html" target="_top" xlink:title="4">
<text text-anchor="middle" x="209.69" y="-46.31" font-family="Helvetica,sans-Serif" font-size="10.00" fill="#63b8ff">4</text>
</a>
</g>
</g>
<!-- dir_b4167e7b2a1b80cf0c5a05391462449b -->
<g id="node10" class="node">
<title>dir_b4167e7b2a1b80cf0c5a05391462449b</title>
<g id="a_node10"><a xlink:href="dir_b4167e7b2a1b80cf0c5a05391462449b.html" target="_top" xlink:title="memory">
<polygon fill="#d0d9ea" stroke="#404040" points="311.62,-168 260.38,-168 260.38,-148 311.62,-148 311.62,-168"/>
<text text-anchor="middle" x="286" y="-154.5" font-family="Helvetica,sans-Serif" font-size="10.00">memory</text>
</a>
</g>
</g>
<!-- dir_b4167e7b2a1b80cf0c5a05391462449b&#45;&gt;dir_b7a929e9ccc49823d741f03e54ab68d7 -->
<g id="edge13" class="edge">
<title>dir_b4167e7b2a1b80cf0c5a05391462449b&#45;&gt;dir_b7a929e9ccc49823d741f03e54ab68d7</title>
<path fill="none" stroke="#63b8ff" d="M284.75,-147.69C282.32,-133.1 275.66,-104.81 259,-88 244.13,-73 223.62,-62.84 204.2,-56.02"/>
<polygon fill="#63b8ff" stroke="#63b8ff" points="205.29,-52.7 194.7,-52.95 203.13,-59.36 205.29,-52.7"/>
<g id="a_edge13&#45;headlabel"><a xlink:href="dir_000008_000006.html" target="_top" xlink:title="5">
<text text-anchor="middle" x="208.14" y="-47.14" font-family="Helvetica,sans-Serif" font-size="10.00" fill="#63b8ff">5</text>
</a>
</g>
</g>
</g>
</svg>
