<?xml version="1.0" encoding="UTF-8" standalone="no"?>
<!DOCTYPE svg PUBLIC "-//W3C//DTD SVG 1.1//EN"
 "http://www.w3.org/Graphics/SVG/1.1/DTD/svg11.dtd">
<!-- Generated by graphviz version 12.2.1 (20241206.2353)
 -->
<!-- Title: FIEAGameEngine/src Pages: 1 -->
<svg width="391pt" height="152pt"
 viewBox="0.00 0.00 391.00 152.00" xmlns="http://www.w3.org/2000/svg" xmlns:xlink="http://www.w3.org/1999/xlink">
<g id="graph0" class="graph" transform="scale(1 1) rotate(0) translate(4 148)">
<title>FIEAGameEngine/src</title>
<g id="clust1" class="cluster">
<title>clusterdir_a6340eb4d838abacca2af5dd65234cd0</title>
<g id="a_clust1"><a xlink:href="dir_a6340eb4d838abacca2af5dd65234cd0.html" target="_top" xlink:title="FIEAGameEngine">
<polygon fill="#edf0f7" stroke="#404040" stroke-dasharray="5,2" points="8,-8 8,-136 335,-136 335,-8 8,-8"/>
<text text-anchor="middle" x="171.5" y="-122.5" font-family="Helvetica,sans-Serif" font-size="10.00">FIEAGameEngine</text>
</a>
</g>
</g>
<g id="clust2" class="cluster">
<title>clusterdir_598b9d7631e9de0f72920d44a7ececfc</title>
<g id="a_clust2"><a xlink:href="dir_598b9d7631e9de0f72920d44a7ececfc.html" target="_top">
<polygon fill="#edf0f7" stroke="#404040" stroke-width="2" points="16,-56 16,-108 327,-108 327,-56 16,-56"/>
</a>
</g>
</g>
<g id="clust3" class="cluster">
<title>clusterdir_615224098860e5ccd5c4bd209c0a7e11</title>
<g id="a_clust3"><a xlink:href="dir_615224098860e5ccd5c4bd209c0a7e11.html" target="_top">
<polygon fill="#dfe5f1" stroke="#404040" points="189,-64 189,-100 319,-100 319,-64 189,-64"/>
</a>
</g>
</g>
<!-- dir_42fb2ceaaaf8d9f1096cfc5727169554 -->
<g id="node1" class="node">
<title>dir_42fb2ceaaaf8d9f1096cfc5727169554</title>
<g id="a_node1"><a xlink:href="dir_42fb2ceaaaf8d9f1096cfc5727169554.html" target="_top" xlink:title="include">
<polygon fill="#dfe5f1" stroke="red" points="177.38,-36 130.62,-36 130.62,-16 177.38,-16 177.38,-36"/>
<text text-anchor="middle" x="154" y="-22.5" font-family="Helvetica,sans-Serif" font-size="10.00">include</text>
</a>
</g>
</g>
<!-- dir_598b9d7631e9de0f72920d44a7ececfc -->
<g id="node2" class="node">
<title>dir_598b9d7631e9de0f72920d44a7ececfc</title>
<text text-anchor="middle" x="39" y="-78.5" font-family="Helvetica,sans-Serif" font-size="10.00">src</text>
</g>
<!-- dir_598b9d7631e9de0f72920d44a7ececfc&#45;&gt;dir_42fb2ceaaaf8d9f1096cfc5727169554 -->
<g id="edge1" class="edge">
<title>dir_598b9d7631e9de0f72920d44a7ececfc&#45;&gt;dir_42fb2ceaaaf8d9f1096cfc5727169554</title>
<path fill="none" stroke="#63b8ff" d="M45.34,-72.03C49.52,-66.69 55.43,-60.18 62,-56 79.27,-45.02 101.03,-37.91 119.04,-33.49"/>
<polygon fill="#63b8ff" stroke="#63b8ff" points="119.8,-36.9 128.78,-31.28 118.25,-30.08 119.8,-36.9"/>
<g id="a_edge1&#45;headlabel"><a xlink:href="dir_000009_000007.html" target="_top" xlink:title="62">
<text text-anchor="middle" x="118.39" y="-36.63" font-family="Helvetica,sans-Serif" font-size="10.00" fill="#63b8ff">62</text>
</a>
</g>
</g>
<!-- dir_125e0bdd28d927dc483b3231d8cd123f -->
<g id="node3" class="node">
<title>dir_125e0bdd28d927dc483b3231d8cd123f</title>
<g id="a_node3"><a xlink:href="dir_125e0bdd28d927dc483b3231d8cd123f.html" target="_top" xlink:title="clock">
<polygon fill="#dfe5f1" stroke="#404040" points="110.62,-92 71.38,-92 71.38,-72 110.62,-72 110.62,-92"/>
<text text-anchor="middle" x="91" y="-78.5" font-family="Helvetica,sans-Serif" font-size="10.00">clock</text>
</a>
</g>
</g>
<!-- dir_125e0bdd28d927dc483b3231d8cd123f&#45;&gt;dir_42fb2ceaaaf8d9f1096cfc5727169554 -->
<g id="edge2" class="edge">
<title>dir_125e0bdd28d927dc483b3231d8cd123f&#45;&gt;dir_42fb2ceaaaf8d9f1096cfc5727169554</title>
<path fill="none" stroke="#63b8ff" d="M101.29,-71.65C106.55,-66.91 113.07,-61.1 119,-56 123.74,-51.92 128.9,-47.59 133.76,-43.56"/>
<polygon fill="#63b8ff" stroke="#63b8ff" points="135.91,-46.32 141.39,-37.26 131.45,-40.92 135.91,-46.32"/>
<g id="a_edge2&#45;headlabel"><a xlink:href="dir_000002_000007.html" target="_top" xlink:title="2">
<text text-anchor="middle" x="136.11" y="-46.34" font-family="Helvetica,sans-Serif" font-size="10.00" fill="#63b8ff">2</text>
</a>
</g>
</g>
<!-- dir_615224098860e5ccd5c4bd209c0a7e11 -->
<g id="node4" class="node">
<title>dir_615224098860e5ccd5c4bd209c0a7e11</title>
<text text-anchor="middle" x="287" y="-78.5" font-family="Helvetica,sans-Serif" font-size="10.00">content</text>
</g>
<!-- dir_615224098860e5ccd5c4bd209c0a7e11&#45;&gt;dir_42fb2ceaaaf8d9f1096cfc5727169554 -->
<g id="edge4" class="edge">
<title>dir_615224098860e5ccd5c4bd209c0a7e11&#45;&gt;dir_42fb2ceaaaf8d9f1096cfc5727169554</title>
<path fill="none" stroke="#63b8ff" d="M277.24,-72.08C270.99,-66.77 262.48,-60.26 254,-56 233.34,-45.63 208.36,-38.38 188.54,-33.72"/>
<polygon fill="#63b8ff" stroke="#63b8ff" points="189.53,-30.36 179.01,-31.61 188.01,-37.19 189.53,-30.36"/>
<g id="a_edge4&#45;headlabel"><a xlink:href="dir_000004_000007.html" target="_top" xlink:title="47">
<text text-anchor="middle" x="192.18" y="-24.54" font-family="Helvetica,sans-Serif" font-size="10.00" fill="#63b8ff">47</text>
</a>
</g>
</g>
<!-- dir_33c78a012c8d08979f57a54a07694c46 -->
<g id="node7" class="node">
<title>dir_33c78a012c8d08979f57a54a07694c46</title>
<g id="a_node7"><a xlink:href="dir_33c78a012c8d08979f57a54a07694c46.html" target="_top" xlink:title="Tests">
<polygon fill="#edf0f7" stroke="red" points="383,-36 343,-36 343,-16 383,-16 383,-36"/>
<text text-anchor="middle" x="363" y="-22.5" font-family="Helvetica,sans-Serif" font-size="10.00">Tests</text>
</a>
</g>
</g>
<!-- dir_615224098860e5ccd5c4bd209c0a7e11&#45;&gt;dir_33c78a012c8d08979f57a54a07694c46 -->
<g id="edge3" class="edge">
<title>dir_615224098860e5ccd5c4bd209c0a7e11&#45;&gt;dir_33c78a012c8d08979f57a54a07694c46</title>
<path fill="none" stroke="#63b8ff" d="M299.55,-72.08C310.68,-64.18 327.19,-52.44 340.59,-42.93"/>
<polygon fill="#63b8ff" stroke="#63b8ff" points="342.31,-46 348.43,-37.35 338.25,-40.29 342.31,-46"/>
<g id="a_edge3&#45;headlabel"><a xlink:href="dir_000004_000011.html" target="_top" xlink:title="10">
<text text-anchor="middle" x="342.25" y="-46.02" font-family="Helvetica,sans-Serif" font-size="10.00" fill="#63b8ff">10</text>
</a>
</g>
</g>
<!-- dir_cf48d9a91064a0acef07ab85bb233fc2 -->
<g id="node5" class="node">
<title>dir_cf48d9a91064a0acef07ab85bb233fc2</title>
<g id="a_node5"><a xlink:href="dir_cf48d9a91064a0acef07ab85bb233fc2.html" target="_top" xlink:title="actions">
<polygon fill="#d0d9ea" stroke="#404040" points="244.75,-92 197.25,-92 197.25,-72 244.75,-72 244.75,-92"/>
<text text-anchor="middle" x="221" y="-78.5" font-family="Helvetica,sans-Serif" font-size="10.00">actions</text>
</a>
</g>
</g>
<!-- dir_cf48d9a91064a0acef07ab85bb233fc2&#45;&gt;dir_42fb2ceaaaf8d9f1096cfc5727169554 -->
<g id="edge5" class="edge">
<title>dir_cf48d9a91064a0acef07ab85bb233fc2&#45;&gt;dir_42fb2ceaaaf8d9f1096cfc5727169554</title>
<path fill="none" stroke="#63b8ff" d="M210.82,-71.51C205.59,-66.74 199.06,-60.94 193,-56 187.64,-51.63 181.71,-47.08 176.13,-42.92"/>
<polygon fill="#63b8ff" stroke="#63b8ff" points="178.57,-40.37 168.44,-37.28 174.43,-46.02 178.57,-40.37"/>
<g id="a_edge5&#45;headlabel"><a xlink:href="dir_000001_000007.html" target="_top" xlink:title="12">
<text text-anchor="middle" x="181.93" y="-35.82" font-family="Helvetica,sans-Serif" font-size="10.00" fill="#63b8ff">12</text>
</a>
</g>
</g>
<!-- dir_b4167e7b2a1b80cf0c5a05391462449b -->
<g id="node6" class="node">
<title>dir_b4167e7b2a1b80cf0c5a05391462449b</title>
<g id="a_node6"><a xlink:href="dir_b4167e7b2a1b80cf0c5a05391462449b.html" target="_top" xlink:title="memory">
<polygon fill="#dfe5f1" stroke="#404040" points="179.62,-92 128.38,-92 128.38,-72 179.62,-72 179.62,-92"/>
<text text-anchor="middle" x="154" y="-78.5" font-family="Helvetica,sans-Serif" font-size="10.00">memory</text>
</a>
</g>
</g>
<!-- dir_b4167e7b2a1b80cf0c5a05391462449b&#45;&gt;dir_42fb2ceaaaf8d9f1096cfc5727169554 -->
<g id="edge6" class="edge">
<title>dir_b4167e7b2a1b80cf0c5a05391462449b&#45;&gt;dir_42fb2ceaaaf8d9f1096cfc5727169554</title>
<path fill="none" stroke="#63b8ff" d="M154,-71.59C154,-65.01 154,-55.96 154,-47.73"/>
<polygon fill="#63b8ff" stroke="#63b8ff" points="157.5,-47.81 154,-37.81 150.5,-47.81 157.5,-47.81"/>
<g id="a_edge6&#45;headlabel"><a xlink:href="dir_000008_000007.html" target="_top" xlink:title="5">
<text text-anchor="middle" x="160.34" y="-46.39" font-family="Helvetica,sans-Serif" font-size="10.00" fill="#63b8ff">5</text>
</a>
</g>
</g>
</g>
</svg>
