<?xml version="1.0" encoding="UTF-8" standalone="no"?>
<!DOCTYPE svg PUBLIC "-//W3C//DTD SVG 1.1//EN"
 "http://www.w3.org/Graphics/SVG/1.1/DTD/svg11.dtd">
<!-- Generated by graphviz version 12.2.1 (20241206.2353)
 -->
<!-- Title: Graphical Class Hierarchy Pages: 1 -->
<svg width="972pt" height="471pt"
 viewBox="0.00 0.00 971.75 471.00" xmlns="http://www.w3.org/2000/svg" xmlns:xlink="http://www.w3.org/1999/xlink">
<g id="graph0" class="graph" transform="scale(1 1) rotate(0) translate(4 467)">
<title>Graphical Class Hierarchy</title>
<!-- Node0 -->
<g id="Node000000" class="node">
<title>Node0</title>
<g id="a_Node000000"><a xlink:href="class_fiea_1_1_engine_1_1_r_t_t_i.html" target="_top" xlink:title=" ">
<polygon fill="white" stroke="#666666" points="98.5,-126 0,-126 0,-106 98.5,-106 98.5,-126"/>
<text text-anchor="middle" x="49.25" y="-112.5" font-family="Helvetica,sans-Serif" font-size="10.00">Fiea::Engine::RTTI</text>
</a>
</g>
</g>
<!-- Node1 -->
<g id="Node000001" class="node">
<title>Node1</title>
<g id="a_Node000001"><a xlink:href="class_fiea_1_1_engine_1_1_content_1_1_parse_writer.html" target="_top" xlink:title=" ">
<polygon fill="white" stroke="#666666" points="257.75,-282 146.5,-282 146.5,-250 257.75,-250 257.75,-282"/>
<text text-anchor="start" x="154.5" y="-268.5" font-family="Helvetica,sans-Serif" font-size="10.00">Fiea::Engine::Content</text>
<text text-anchor="middle" x="202.12" y="-256.5" font-family="Helvetica,sans-Serif" font-size="10.00">::ParseWriter</text>
</a>
</g>
</g>
<!-- Node0&#45;&gt;Node1 -->
<g id="edge21_Node000000_Node000001" class="edge">
<title>Node0&#45;&gt;Node1</title>
<g id="a_edge21_Node000000_Node000001"><a xlink:title=" ">
<path fill="none" stroke="#63b8ff" d="M68.53,-134.18C98.26,-163.74 156.62,-221.75 184.94,-249.91"/>
<polygon fill="#63b8ff" stroke="#63b8ff" points="71.25,-131.95 61.69,-127.38 66.32,-136.91 71.25,-131.95"/>
</a>
</g>
</g>
<!-- Node4 -->
<g id="Node000004" class="node">
<title>Node4</title>
<g id="a_Node000004"><a xlink:href="class_fiea_1_1_engine_1_1_content_1_1_scope.html" target="_top" xlink:title=" ">
<polygon fill="white" stroke="#666666" points="257.75,-182 146.5,-182 146.5,-150 257.75,-150 257.75,-182"/>
<text text-anchor="start" x="154.5" y="-168.5" font-family="Helvetica,sans-Serif" font-size="10.00">Fiea::Engine::Content</text>
<text text-anchor="middle" x="202.12" y="-156.5" font-family="Helvetica,sans-Serif" font-size="10.00">::Scope</text>
</a>
</g>
</g>
<!-- Node0&#45;&gt;Node4 -->
<g id="edge24_Node000000_Node000004" class="edge">
<title>Node0&#45;&gt;Node4</title>
<g id="a_edge24_Node000000_Node000004"><a xlink:title=" ">
<path fill="none" stroke="#63b8ff" d="M92.77,-130.09C111.02,-136.14 132.45,-143.24 151.42,-149.53"/>
<polygon fill="#63b8ff" stroke="#63b8ff" points="93.91,-126.78 83.32,-126.96 91.71,-133.43 93.91,-126.78"/>
</a>
</g>
</g>
<!-- Node19 -->
<g id="Node000019" class="node">
<title>Node19</title>
<g id="a_Node000019"><a xlink:href="struct_fiea_1_1_engine_1_1_i_factory_base.html" target="_top" xlink:title=" ">
<polygon fill="white" stroke="#666666" points="269.75,-126 134.5,-126 134.5,-106 269.75,-106 269.75,-126"/>
<text text-anchor="middle" x="202.12" y="-112.5" font-family="Helvetica,sans-Serif" font-size="10.00">Fiea::Engine::IFactoryBase</text>
</a>
</g>
</g>
<!-- Node0&#45;&gt;Node19 -->
<g id="edge39_Node000000_Node000019" class="edge">
<title>Node0&#45;&gt;Node19</title>
<g id="a_edge39_Node000000_Node000019"><a xlink:title=" ">
<path fill="none" stroke="#63b8ff" d="M110.18,-116C118.08,-116 126.22,-116 134.23,-116"/>
<polygon fill="#63b8ff" stroke="#63b8ff" points="110.33,-112.5 100.33,-116 110.33,-119.5 110.33,-112.5"/>
</a>
</g>
</g>
<!-- Node21 -->
<g id="Node000021" class="node">
<title>Node21</title>
<g id="a_Node000021"><a xlink:href="class_fiea_1_1_engine_1_1_tests_1_1_support_1_1_empty.html" target="_top" xlink:title=" ">
<polygon fill="white" stroke="#666666" points="252.5,-87 151.75,-87 151.75,-55 252.5,-55 252.5,-87"/>
<text text-anchor="start" x="159.75" y="-73.5" font-family="Helvetica,sans-Serif" font-size="10.00">Fiea::Engine::Tests</text>
<text text-anchor="middle" x="202.12" y="-61.5" font-family="Helvetica,sans-Serif" font-size="10.00">::Support::Empty</text>
</a>
</g>
</g>
<!-- Node0&#45;&gt;Node21 -->
<g id="edge41_Node000000_Node000021" class="edge">
<title>Node0&#45;&gt;Node21</title>
<g id="a_edge41_Node000000_Node000021"><a xlink:title=" ">
<path fill="none" stroke="#63b8ff" d="M95.81,-102.41C113.38,-97.17 133.52,-91.16 151.46,-85.81"/>
<polygon fill="#63b8ff" stroke="#63b8ff" points="95.28,-98.92 86.69,-105.13 97.28,-105.63 95.28,-98.92"/>
</a>
</g>
</g>
<!-- Node23 -->
<g id="Node000023" class="node">
<title>Node23</title>
<g id="a_Node000023"><a xlink:href="class_fiea_1_1_engine_1_1_tests_1_1_support_1_1_foo.html" target="_top" xlink:title=" ">
<polygon fill="white" stroke="#666666" points="252.5,-34 151.75,-34 151.75,-2 252.5,-2 252.5,-34"/>
<text text-anchor="start" x="159.75" y="-20.5" font-family="Helvetica,sans-Serif" font-size="10.00">Fiea::Engine::Tests</text>
<text text-anchor="middle" x="202.12" y="-8.5" font-family="Helvetica,sans-Serif" font-size="10.00">::Support::Foo</text>
</a>
</g>
</g>
<!-- Node0&#45;&gt;Node23 -->
<g id="edge43_Node000000_Node000023" class="edge">
<title>Node0&#45;&gt;Node23</title>
<g id="a_edge43_Node000000_Node000023"><a xlink:title=" ">
<path fill="none" stroke="#63b8ff" d="M68.74,-97.86C85.04,-82.59 109.95,-60.9 134.5,-46 141.47,-41.77 149.2,-37.88 156.85,-34.43"/>
<polygon fill="#63b8ff" stroke="#63b8ff" points="66.54,-95.12 61.73,-104.56 71.38,-100.19 66.54,-95.12"/>
</a>
</g>
</g>
<!-- Node2 -->
<g id="Node000002" class="node">
<title>Node2</title>
<g id="a_Node000002"><a xlink:href="class_fiea_1_1_engine_1_1_content_1_1_scope_writer.html" target="_top" xlink:title=" ">
<polygon fill="white" stroke="#666666" points="436.12,-332 324.88,-332 324.88,-300 436.12,-300 436.12,-332"/>
<text text-anchor="start" x="332.88" y="-318.5" font-family="Helvetica,sans-Serif" font-size="10.00">Fiea::Engine::Content</text>
<text text-anchor="middle" x="380.5" y="-306.5" font-family="Helvetica,sans-Serif" font-size="10.00">::ScopeWriter</text>
</a>
</g>
</g>
<!-- Node1&#45;&gt;Node2 -->
<g id="edge22_Node000001_Node000002" class="edge">
<title>Node1&#45;&gt;Node2</title>
<g id="a_edge22_Node000001_Node000002"><a xlink:title=" ">
<path fill="none" stroke="#63b8ff" d="M268.84,-284.63C287.12,-289.81 306.79,-295.39 324.39,-300.38"/>
<polygon fill="#63b8ff" stroke="#63b8ff" points="270,-281.32 259.42,-281.96 268.09,-288.05 270,-281.32"/>
</a>
</g>
</g>
<!-- Node3 -->
<g id="Node000003" class="node">
<title>Node3</title>
<g id="a_Node000003"><a xlink:href="class_fiea_1_1_engine_1_1_tests_1_1_support_1_1_test_writer.html" target="_top" xlink:title=" ">
<polygon fill="white" stroke="#666666" points="433.5,-282 327.5,-282 327.5,-250 433.5,-250 433.5,-282"/>
<text text-anchor="start" x="335.5" y="-268.5" font-family="Helvetica,sans-Serif" font-size="10.00">Fiea::Engine::Tests</text>
<text text-anchor="middle" x="380.5" y="-256.5" font-family="Helvetica,sans-Serif" font-size="10.00">::Support::TestWriter</text>
</a>
</g>
</g>
<!-- Node1&#45;&gt;Node3 -->
<g id="edge23_Node000001_Node000003" class="edge">
<title>Node1&#45;&gt;Node3</title>
<g id="a_edge23_Node000001_Node000003"><a xlink:title=" ">
<path fill="none" stroke="#63b8ff" d="M269.32,-266C288.41,-266 308.98,-266 327.11,-266"/>
<polygon fill="#63b8ff" stroke="#63b8ff" points="269.48,-262.5 259.48,-266 269.48,-269.5 269.48,-262.5"/>
</a>
</g>
</g>
<!-- Node5 -->
<g id="Node000005" class="node">
<title>Node5</title>
<g id="a_Node000005"><a xlink:href="class_fiea_1_1_engine_1_1_content_1_1_attributed.html" target="_top" xlink:title=" ">
<polygon fill="white" stroke="#666666" points="436.12,-232 324.88,-232 324.88,-200 436.12,-200 436.12,-232"/>
<text text-anchor="start" x="332.88" y="-218.5" font-family="Helvetica,sans-Serif" font-size="10.00">Fiea::Engine::Content</text>
<text text-anchor="middle" x="380.5" y="-206.5" font-family="Helvetica,sans-Serif" font-size="10.00">::Attributed</text>
</a>
</g>
</g>
<!-- Node4&#45;&gt;Node5 -->
<g id="edge25_Node000004_Node000005" class="edge">
<title>Node4&#45;&gt;Node5</title>
<g id="a_edge25_Node000004_Node000005"><a xlink:title=" ">
<path fill="none" stroke="#63b8ff" d="M268.84,-184.63C287.12,-189.81 306.79,-195.39 324.39,-200.38"/>
<polygon fill="#63b8ff" stroke="#63b8ff" points="270,-181.32 259.42,-181.96 268.09,-188.05 270,-181.32"/>
</a>
</g>
</g>
<!-- Node18 -->
<g id="Node000018" class="node">
<title>Node18</title>
<g id="a_Node000018"><a xlink:href="class_fiea_1_1_engine_1_1_tests_1_1_support_1_1_scoped_foo.html" target="_top" xlink:title=" ">
<polygon fill="white" stroke="#666666" points="436.12,-182 324.88,-182 324.88,-150 436.12,-150 436.12,-182"/>
<text text-anchor="start" x="332.88" y="-168.5" font-family="Helvetica,sans-Serif" font-size="10.00">Fiea::Engine::Tests</text>
<text text-anchor="middle" x="380.5" y="-156.5" font-family="Helvetica,sans-Serif" font-size="10.00">::Support::ScopedFoo</text>
</a>
</g>
</g>
<!-- Node4&#45;&gt;Node18 -->
<g id="edge38_Node000004_Node000018" class="edge">
<title>Node4&#45;&gt;Node18</title>
<g id="a_edge38_Node000004_Node000018"><a xlink:title=" ">
<path fill="none" stroke="#63b8ff" d="M269.36,-166C287.49,-166 306.95,-166 324.39,-166"/>
<polygon fill="#63b8ff" stroke="#63b8ff" points="269.48,-162.5 259.48,-166 269.48,-169.5 269.48,-162.5"/>
</a>
</g>
</g>
<!-- Node6 -->
<g id="Node000006" class="node">
<title>Node6</title>
<g id="a_Node000006"><a xlink:href="class_fiea_1_1_engine_1_1_content_1_1_actions_1_1_action.html" target="_top" xlink:title="Content driven way of creating behaviour.">
<polygon fill="white" stroke="#666666" points="612.62,-279 501.38,-279 501.38,-247 612.62,-247 612.62,-279"/>
<text text-anchor="start" x="509.38" y="-265.5" font-family="Helvetica,sans-Serif" font-size="10.00">Fiea::Engine::Content</text>
<text text-anchor="middle" x="557" y="-253.5" font-family="Helvetica,sans-Serif" font-size="10.00">::Actions::Action</text>
</a>
</g>
</g>
<!-- Node5&#45;&gt;Node6 -->
<g id="edge26_Node000005_Node000006" class="edge">
<title>Node5&#45;&gt;Node6</title>
<g id="a_edge26_Node000005_Node000006"><a xlink:title=" ">
<path fill="none" stroke="#63b8ff" d="M447.13,-233.68C464.93,-238.47 484.02,-243.61 501.16,-248.23"/>
<polygon fill="#63b8ff" stroke="#63b8ff" points="448.26,-230.36 437.7,-231.14 446.44,-237.12 448.26,-230.36"/>
</a>
</g>
</g>
<!-- Node15 -->
<g id="Node000015" class="node">
<title>Node15</title>
<g id="a_Node000015"><a xlink:href="class_fiea_1_1_engine_1_1_game_object.html" target="_top" xlink:title=" ">
<polygon fill="white" stroke="#666666" points="622.75,-226 491.25,-226 491.25,-206 622.75,-206 622.75,-226"/>
<text text-anchor="middle" x="557" y="-212.5" font-family="Helvetica,sans-Serif" font-size="10.00">Fiea::Engine::GameObject</text>
</a>
</g>
</g>
<!-- Node5&#45;&gt;Node15 -->
<g id="edge35_Node000005_Node000015" class="edge">
<title>Node5&#45;&gt;Node15</title>
<g id="a_edge35_Node000005_Node000015"><a xlink:title=" ">
<path fill="none" stroke="#63b8ff" d="M447.41,-216C461.6,-216 476.59,-216 490.76,-216"/>
<polygon fill="#63b8ff" stroke="#63b8ff" points="447.75,-212.5 437.75,-216 447.75,-219.5 447.75,-212.5"/>
</a>
</g>
</g>
<!-- Node16 -->
<g id="Node000016" class="node">
<title>Node16</title>
<g id="a_Node000016"><a xlink:href="class_fiea_1_1_engine_1_1_tests_1_1_support_1_1_attribute_box.html" target="_top" xlink:title=" ">
<polygon fill="white" stroke="#666666" points="614.88,-182 499.12,-182 499.12,-150 614.88,-150 614.88,-182"/>
<text text-anchor="start" x="507.12" y="-168.5" font-family="Helvetica,sans-Serif" font-size="10.00">Fiea::Engine::Tests</text>
<text text-anchor="middle" x="557" y="-156.5" font-family="Helvetica,sans-Serif" font-size="10.00">::Support::AttributeBox</text>
</a>
</g>
</g>
<!-- Node5&#45;&gt;Node16 -->
<g id="edge36_Node000005_Node000016" class="edge">
<title>Node5&#45;&gt;Node16</title>
<g id="a_edge36_Node000005_Node000016"><a xlink:title=" ">
<path fill="none" stroke="#63b8ff" d="M447.18,-197.18C464.14,-192.32 482.26,-187.13 498.75,-182.4"/>
<polygon fill="#63b8ff" stroke="#63b8ff" points="446.34,-193.78 437.69,-199.9 448.27,-200.51 446.34,-193.78"/>
</a>
</g>
</g>
<!-- Node7 -->
<g id="Node000007" class="node">
<title>Node7</title>
<g id="a_Node000007"><a xlink:href="class_fiea_1_1_engine_1_1_content_1_1_actions_1_1_action_list.html" target="_top" xlink:title="Action List class owns a bunch of actions and its purpose is to execute those actions....">
<polygon fill="white" stroke="#666666" points="784.25,-413 673,-413 673,-381 784.25,-381 784.25,-413"/>
<text text-anchor="start" x="681" y="-399.5" font-family="Helvetica,sans-Serif" font-size="10.00">Fiea::Engine::Content</text>
<text text-anchor="middle" x="728.62" y="-387.5" font-family="Helvetica,sans-Serif" font-size="10.00">::Actions::ActionList</text>
</a>
</g>
</g>
<!-- Node6&#45;&gt;Node7 -->
<g id="edge27_Node000006_Node000007" class="edge">
<title>Node6&#45;&gt;Node7</title>
<g id="a_edge27_Node000006_Node000007"><a xlink:title=" ">
<path fill="none" stroke="#63b8ff" d="M575.77,-288.37C594.06,-312.81 624.64,-349.34 658.75,-372 663.52,-375.17 668.74,-377.99 674.1,-380.5"/>
<polygon fill="#63b8ff" stroke="#63b8ff" points="578.78,-286.55 570.05,-280.55 573.13,-290.69 578.78,-286.55"/>
</a>
</g>
</g>
<!-- Node11 -->
<g id="Node000011" class="node">
<title>Node11</title>
<g id="a_Node000011"><a xlink:href="class_fiea_1_1_engine_1_1_content_1_1_actions_1_1_increment_action.html" target="_top" xlink:title="This action lets user specify which datum/attribute in parent scope to increment. The user needs to s...">
<polygon fill="white" stroke="#666666" points="794.75,-363 662.5,-363 662.5,-331 794.75,-331 794.75,-363"/>
<text text-anchor="start" x="670.5" y="-349.5" font-family="Helvetica,sans-Serif" font-size="10.00">Fiea::Engine::Content</text>
<text text-anchor="middle" x="728.62" y="-337.5" font-family="Helvetica,sans-Serif" font-size="10.00">::Actions::IncrementAction</text>
</a>
</g>
</g>
<!-- Node6&#45;&gt;Node11 -->
<g id="edge31_Node000006_Node000011" class="edge">
<title>Node6&#45;&gt;Node11</title>
<g id="a_edge31_Node000006_Node000011"><a xlink:title=" ">
<path fill="none" stroke="#63b8ff" d="M592.7,-285.43C611.74,-297.2 636.04,-311.34 658.75,-322 665.2,-325.03 672.12,-327.93 679,-330.61"/>
<polygon fill="#63b8ff" stroke="#63b8ff" points="594.6,-282.49 584.26,-280.15 590.89,-288.42 594.6,-282.49"/>
</a>
</g>
</g>
<!-- Node12 -->
<g id="Node000012" class="node">
<title>Node12</title>
<g id="a_Node000012"><a xlink:href="class_fiea_1_1_engine_1_1_content_1_1_actions_1_1_integer_conditional_action.html" target="_top" xlink:title="User specifies the key in a parent scope to look for, user also specifies a value....">
<polygon fill="white" stroke="#666666" points="798.5,-313 658.75,-313 658.75,-269 798.5,-269 798.5,-313"/>
<text text-anchor="start" x="666.75" y="-299.5" font-family="Helvetica,sans-Serif" font-size="10.00">Fiea::Engine::Content</text>
<text text-anchor="start" x="666.75" y="-287.5" font-family="Helvetica,sans-Serif" font-size="10.00">::Actions::IntegerConditional</text>
<text text-anchor="middle" x="728.62" y="-275.5" font-family="Helvetica,sans-Serif" font-size="10.00">Action</text>
</a>
</g>
</g>
<!-- Node6&#45;&gt;Node12 -->
<g id="edge32_Node000006_Node000012" class="edge">
<title>Node6&#45;&gt;Node12</title>
<g id="a_edge32_Node000006_Node000012"><a xlink:title=" ">
<path fill="none" stroke="#63b8ff" d="M624.1,-273.91C635.31,-275.76 646.98,-277.69 658.27,-279.55"/>
<polygon fill="#63b8ff" stroke="#63b8ff" points="625,-270.51 614.57,-272.34 623.86,-277.42 625,-270.51"/>
</a>
</g>
</g>
<!-- Node13 -->
<g id="Node000013" class="node">
<title>Node13</title>
<g id="a_Node000013"><a xlink:href="class_fiea_1_1_engine_1_1_content_1_1_actions_1_1_preamble_action.html" target="_top" xlink:title="This action intializes the value of a variable. Value is specified in the action by the user and vari...">
<polygon fill="white" stroke="#666666" points="793.62,-251 663.62,-251 663.62,-219 793.62,-219 793.62,-251"/>
<text text-anchor="start" x="671.62" y="-237.5" font-family="Helvetica,sans-Serif" font-size="10.00">Fiea::Engine::Content</text>
<text text-anchor="middle" x="728.62" y="-225.5" font-family="Helvetica,sans-Serif" font-size="10.00">::Actions::PreambleAction</text>
</a>
</g>
</g>
<!-- Node6&#45;&gt;Node13 -->
<g id="edge33_Node000006_Node000013" class="edge">
<title>Node6&#45;&gt;Node13</title>
<g id="a_edge33_Node000006_Node000013"><a xlink:title=" ">
<path fill="none" stroke="#63b8ff" d="M624.21,-252.07C637.09,-249.94 650.57,-247.72 663.39,-245.6"/>
<polygon fill="#63b8ff" stroke="#63b8ff" points="623.86,-248.58 614.57,-253.66 625,-255.49 623.86,-248.58"/>
</a>
</g>
</g>
<!-- Node14 -->
<g id="Node000014" class="node">
<title>Node14</title>
<g id="a_Node000014"><a xlink:href="class_fiea_1_1_engine_1_1_tests_1_1_support_1_1_action_add_datum.html" target="_top" xlink:title=" ">
<polygon fill="white" stroke="#666666" points="796.62,-201 660.62,-201 660.62,-169 796.62,-169 796.62,-201"/>
<text text-anchor="start" x="668.62" y="-187.5" font-family="Helvetica,sans-Serif" font-size="10.00">Fiea::Engine::Tests</text>
<text text-anchor="middle" x="728.62" y="-175.5" font-family="Helvetica,sans-Serif" font-size="10.00">::Support::ActionAddDatum</text>
</a>
</g>
</g>
<!-- Node6&#45;&gt;Node14 -->
<g id="edge34_Node000006_Node000014" class="edge">
<title>Node6&#45;&gt;Node14</title>
<g id="a_edge34_Node000006_Node000014"><a xlink:title=" ">
<path fill="none" stroke="#63b8ff" d="M609.77,-241.72C614.21,-239.56 618.6,-237.31 622.75,-235 639.77,-225.53 641.45,-218.95 658.75,-210 664.74,-206.9 671.2,-204.01 677.68,-201.38"/>
<polygon fill="#63b8ff" stroke="#63b8ff" points="608.31,-238.54 600.72,-245.94 611.27,-244.89 608.31,-238.54"/>
</a>
</g>
</g>
<!-- Node8 -->
<g id="Node000008" class="node">
<title>Node8</title>
<g id="a_Node000008"><a xlink:href="class_fiea_1_1_engine_1_1_content_1_1_actions_1_1_delayed_action.html" target="_top" xlink:title="Wait until the requisite time has passed and then execute the contained actions until their completio...">
<polygon fill="white" stroke="#666666" points="961.5,-463 836.75,-463 836.75,-431 961.5,-431 961.5,-463"/>
<text text-anchor="start" x="844.75" y="-449.5" font-family="Helvetica,sans-Serif" font-size="10.00">Fiea::Engine::Content</text>
<text text-anchor="middle" x="899.12" y="-437.5" font-family="Helvetica,sans-Serif" font-size="10.00">::Actions::DelayedAction</text>
</a>
</g>
</g>
<!-- Node7&#45;&gt;Node8 -->
<g id="edge28_Node000007_Node000008" class="edge">
<title>Node7&#45;&gt;Node8</title>
<g id="a_edge28_Node000007_Node000008"><a xlink:title=" ">
<path fill="none" stroke="#63b8ff" d="M795.02,-416.41C810.72,-421.06 827.34,-425.99 842.54,-430.51"/>
<polygon fill="#63b8ff" stroke="#63b8ff" points="796.37,-413.15 785.78,-413.66 794.37,-419.86 796.37,-413.15"/>
</a>
</g>
</g>
<!-- Node9 -->
<g id="Node000009" class="node">
<title>Node9</title>
<g id="a_Node000009"><a xlink:href="class_fiea_1_1_engine_1_1_content_1_1_actions_1_1_timed_action.html" target="_top" xlink:title="Execute each item in the Action List until a certain amount of time has passed.">
<polygon fill="white" stroke="#666666" points="957,-413 841.25,-413 841.25,-381 957,-381 957,-413"/>
<text text-anchor="start" x="849.25" y="-399.5" font-family="Helvetica,sans-Serif" font-size="10.00">Fiea::Engine::Content</text>
<text text-anchor="middle" x="899.12" y="-387.5" font-family="Helvetica,sans-Serif" font-size="10.00">::Actions::TimedAction</text>
</a>
</g>
</g>
<!-- Node7&#45;&gt;Node9 -->
<g id="edge29_Node000007_Node000009" class="edge">
<title>Node7&#45;&gt;Node9</title>
<g id="a_edge29_Node000007_Node000009"><a xlink:title=" ">
<path fill="none" stroke="#63b8ff" d="M795.56,-397C810.5,-397 826.25,-397 840.8,-397"/>
<polygon fill="#63b8ff" stroke="#63b8ff" points="795.85,-393.5 785.85,-397 795.85,-400.5 795.85,-393.5"/>
</a>
</g>
</g>
<!-- Node10 -->
<g id="Node000010" class="node">
<title>Node10</title>
<g id="a_Node000010"><a xlink:href="class_fiea_1_1_engine_1_1_content_1_1_actions_1_1_while_action_list.html" target="_top" xlink:title="This action helps the user define a loop in content.">
<polygon fill="white" stroke="#666666" points="963.75,-363 834.5,-363 834.5,-331 963.75,-331 963.75,-363"/>
<text text-anchor="start" x="842.5" y="-349.5" font-family="Helvetica,sans-Serif" font-size="10.00">Fiea::Engine::Content</text>
<text text-anchor="middle" x="899.12" y="-337.5" font-family="Helvetica,sans-Serif" font-size="10.00">::Actions::WhileActionList</text>
</a>
</g>
</g>
<!-- Node7&#45;&gt;Node10 -->
<g id="edge30_Node000007_Node000010" class="edge">
<title>Node7&#45;&gt;Node10</title>
<g id="a_edge30_Node000007_Node000010"><a xlink:title=" ">
<path fill="none" stroke="#63b8ff" d="M795.02,-377.59C810.72,-372.94 827.34,-368.01 842.54,-363.49"/>
<polygon fill="#63b8ff" stroke="#63b8ff" points="794.37,-374.14 785.78,-380.34 796.37,-380.85 794.37,-374.14"/>
</a>
</g>
</g>
<!-- Node17 -->
<g id="Node000017" class="node">
<title>Node17</title>
<g id="a_Node000017"><a xlink:href="class_fiea_1_1_engine_1_1_tests_1_1_support_1_1_attribute_box_plus.html" target="_top" xlink:title=" ">
<polygon fill="white" stroke="#666666" points="796.25,-151 661,-151 661,-119 796.25,-119 796.25,-151"/>
<text text-anchor="start" x="669" y="-137.5" font-family="Helvetica,sans-Serif" font-size="10.00">Fiea::Engine::Tests</text>
<text text-anchor="middle" x="728.62" y="-125.5" font-family="Helvetica,sans-Serif" font-size="10.00">::Support::AttributeBoxPlus</text>
</a>
</g>
</g>
<!-- Node16&#45;&gt;Node17 -->
<g id="edge37_Node000016_Node000017" class="edge">
<title>Node16&#45;&gt;Node17</title>
<g id="a_edge37_Node000016_Node000017"><a xlink:title=" ">
<path fill="none" stroke="#63b8ff" d="M626.13,-153.55C637.47,-151.48 649.23,-149.33 660.55,-147.26"/>
<polygon fill="#63b8ff" stroke="#63b8ff" points="625.65,-150.08 616.44,-155.32 626.91,-156.96 625.65,-150.08"/>
</a>
</g>
</g>
<!-- Node20 -->
<g id="Node000020" class="node">
<title>Node20</title>
<g id="a_Node000020"><a xlink:href="struct_fiea_1_1_engine_1_1_i_abstract_factory.html" target="_top" xlink:title=" ">
<polygon fill="white" stroke="#666666" points="455.25,-132 305.75,-132 305.75,-100 455.25,-100 455.25,-132"/>
<text text-anchor="start" x="313.75" y="-118.5" font-family="Helvetica,sans-Serif" font-size="10.00">Fiea::Engine::IAbstractFactory</text>
<text text-anchor="middle" x="380.5" y="-106.5" font-family="Helvetica,sans-Serif" font-size="10.00">&lt; BaseType &gt;</text>
</a>
</g>
</g>
<!-- Node19&#45;&gt;Node20 -->
<g id="edge40_Node000019_Node000020" class="edge">
<title>Node19&#45;&gt;Node20</title>
<g id="a_edge40_Node000019_Node000020"><a xlink:title=" ">
<path fill="none" stroke="#63b8ff" d="M281.33,-116C289.38,-116 297.54,-116 305.54,-116"/>
<polygon fill="#63b8ff" stroke="#63b8ff" points="281.57,-112.5 271.57,-116 281.57,-119.5 281.57,-112.5"/>
</a>
</g>
</g>
<!-- Node22 -->
<g id="Node000022" class="node">
<title>Node22</title>
<g id="a_Node000022"><a xlink:href="class_fiea_1_1_engine_1_1_tests_1_1_support_1_1_empty_child.html" target="_top" xlink:title=" ">
<polygon fill="white" stroke="#666666" points="436.88,-82 324.12,-82 324.12,-50 436.88,-50 436.88,-82"/>
<text text-anchor="start" x="332.12" y="-68.5" font-family="Helvetica,sans-Serif" font-size="10.00">Fiea::Engine::Tests</text>
<text text-anchor="middle" x="380.5" y="-56.5" font-family="Helvetica,sans-Serif" font-size="10.00">::Support::EmptyChild</text>
</a>
</g>
</g>
<!-- Node21&#45;&gt;Node22 -->
<g id="edge42_Node000021_Node000022" class="edge">
<title>Node21&#45;&gt;Node22</title>
<g id="a_edge42_Node000021_Node000022"><a xlink:title=" ">
<path fill="none" stroke="#63b8ff" d="M264.17,-69.27C283.52,-68.72 304.8,-68.12 323.76,-67.58"/>
<polygon fill="#63b8ff" stroke="#63b8ff" points="264.13,-65.77 254.24,-69.55 264.33,-72.77 264.13,-65.77"/>
</a>
</g>
</g>
<!-- Node24 -->
<g id="Node000024" class="node">
<title>Node24</title>
<g id="a_Node000024"><a xlink:href="class_fiea_1_1_engine_1_1_tests_1_1_support_1_1_foo_child.html" target="_top" xlink:title=" ">
<polygon fill="white" stroke="#666666" points="430.88,-32 330.12,-32 330.12,0 430.88,0 430.88,-32"/>
<text text-anchor="start" x="338.12" y="-18.5" font-family="Helvetica,sans-Serif" font-size="10.00">Fiea::Engine::Tests</text>
<text text-anchor="middle" x="380.5" y="-6.5" font-family="Helvetica,sans-Serif" font-size="10.00">::Support::FooChild</text>
</a>
</g>
</g>
<!-- Node23&#45;&gt;Node24 -->
<g id="edge44_Node000023_Node000024" class="edge">
<title>Node23&#45;&gt;Node24</title>
<g id="a_edge44_Node000023_Node000024"><a xlink:title=" ">
<path fill="none" stroke="#63b8ff" d="M264.01,-17.31C285.44,-17.07 309.25,-16.8 329.66,-16.57"/>
<polygon fill="#63b8ff" stroke="#63b8ff" points="264.2,-13.81 254.24,-17.42 264.28,-20.81 264.2,-13.81"/>
</a>
</g>
</g>
</g>
</svg>
