<?xml version="1.0" encoding="UTF-8" standalone="no"?>
<!DOCTYPE svg PUBLIC "-//W3C//DTD SVG 1.1//EN"
 "http://www.w3.org/Graphics/SVG/1.1/DTD/svg11.dtd">
<!-- Generated by graphviz version 12.2.1 (20241206.2353)
 -->
<!-- Title: Graphical Class Hierarchy Pages: 1 -->
<svg width="284pt" height="190pt"
 viewBox="0.00 0.00 283.75 190.00" xmlns="http://www.w3.org/2000/svg" xmlns:xlink="http://www.w3.org/1999/xlink">
<g id="graph0" class="graph" transform="scale(1 1) rotate(0) translate(4 186)">
<title>Graphical Class Hierarchy</title>
<!-- Node0 -->
<g id="Node000000" class="node">
<title>Node0</title>
<g id="a_Node000000"><a xlink:title=" ">
<polygon fill="#e0e0e0" stroke="#999999" points="80.5,-101 0,-101 0,-81 80.5,-81 80.5,-101"/>
<text text-anchor="middle" x="40.25" y="-87.5" font-family="Helvetica,sans-Serif" font-size="10.00">std::false_type</text>
</a>
</g>
</g>
<!-- Node1 -->
<g id="Node000001" class="node">
<title>Node1</title>
<g id="a_Node000001"><a xlink:href="struct_fiea_1_1_engine_1_1_tests_1_1_has_find.html" target="_top" xlink:title="Find setup for Find. Containers that have inbuilt find such as sets call that while those that dont u...">
<polygon fill="white" stroke="#666666" points="262.62,-182 129.62,-182 129.62,-150 262.62,-150 262.62,-182"/>
<text text-anchor="start" x="137.62" y="-168.5" font-family="Helvetica,sans-Serif" font-size="10.00">Fiea::Engine::Tests</text>
<text text-anchor="middle" x="196.12" y="-156.5" font-family="Helvetica,sans-Serif" font-size="10.00">::HasFind&lt; C, typename &gt;</text>
</a>
</g>
</g>
<!-- Node0&#45;&gt;Node1 -->
<g id="edge51_Node000000_Node000001" class="edge">
<title>Node0&#45;&gt;Node1</title>
<g id="a_edge51_Node000000_Node000001"><a xlink:title=" ">
<path fill="none" stroke="#63b8ff" d="M63.56,-108.23C78.04,-118.79 97.65,-131.96 116.5,-141 122.96,-144.1 129.89,-146.94 136.87,-149.5"/>
<polygon fill="#63b8ff" stroke="#63b8ff" points="65.76,-105.5 55.65,-102.33 61.57,-111.11 65.76,-105.5"/>
</a>
</g>
</g>
<!-- Node2 -->
<g id="Node000002" class="node">
<title>Node2</title>
<g id="a_Node000002"><a xlink:href="struct_fiea_1_1_engine_1_1_tests_1_1_has_push_back.html" target="_top" xlink:title="SFINAE setup for PushBack. Containers that have pushback call that while those that dont call insert.">
<polygon fill="white" stroke="#666666" points="275.75,-132 116.5,-132 116.5,-100 275.75,-100 275.75,-132"/>
<text text-anchor="start" x="124.5" y="-118.5" font-family="Helvetica,sans-Serif" font-size="10.00">Fiea::Engine::Tests</text>
<text text-anchor="middle" x="196.12" y="-106.5" font-family="Helvetica,sans-Serif" font-size="10.00">::HasPushBack&lt; C, typename &gt;</text>
</a>
</g>
</g>
<!-- Node0&#45;&gt;Node2 -->
<g id="edge52_Node000000_Node000002" class="edge">
<title>Node0&#45;&gt;Node2</title>
<g id="a_edge52_Node000000_Node000002"><a xlink:title=" ">
<path fill="none" stroke="#63b8ff" d="M92.22,-99.28C99.93,-100.53 108.03,-101.85 116.16,-103.17"/>
<polygon fill="#63b8ff" stroke="#63b8ff" points="92.8,-95.83 82.37,-97.68 91.68,-102.74 92.8,-95.83"/>
</a>
</g>
</g>
<!-- Node3 -->
<g id="Node000003" class="node">
<title>Node3</title>
<g id="a_Node000003"><a xlink:href="struct_fiea_1_1_engine_1_1_tests_1_1_has_push_front.html" target="_top" xlink:title="SFINAE setup for PushFront. Containers that have pushfront call that while those that dont call inser...">
<polygon fill="white" stroke="#666666" points="275.75,-82 116.5,-82 116.5,-50 275.75,-50 275.75,-82"/>
<text text-anchor="start" x="124.5" y="-68.5" font-family="Helvetica,sans-Serif" font-size="10.00">Fiea::Engine::Tests</text>
<text text-anchor="middle" x="196.12" y="-56.5" font-family="Helvetica,sans-Serif" font-size="10.00">::HasPushFront&lt; C, typename &gt;</text>
</a>
</g>
</g>
<!-- Node0&#45;&gt;Node3 -->
<g id="edge53_Node000000_Node000003" class="edge">
<title>Node0&#45;&gt;Node3</title>
<g id="a_edge53_Node000000_Node000003"><a xlink:title=" ">
<path fill="none" stroke="#63b8ff" d="M92.22,-82.72C99.93,-81.47 108.03,-80.15 116.16,-78.83"/>
<polygon fill="#63b8ff" stroke="#63b8ff" points="91.68,-79.26 82.37,-84.32 92.8,-86.17 91.68,-79.26"/>
</a>
</g>
</g>
<!-- Node4 -->
<g id="Node000004" class="node">
<title>Node4</title>
<g id="a_Node000004"><a xlink:href="struct_fiea_1_1_engine_1_1_tests_1_1_has_reserve.html" target="_top" xlink:title="SFINAE approach for Implementing Reserve(). With this approach containers that have Reserve() are abl...">
<polygon fill="white" stroke="#666666" points="271.62,-32 120.62,-32 120.62,0 271.62,0 271.62,-32"/>
<text text-anchor="start" x="128.62" y="-18.5" font-family="Helvetica,sans-Serif" font-size="10.00">Fiea::Engine::Tests</text>
<text text-anchor="middle" x="196.12" y="-6.5" font-family="Helvetica,sans-Serif" font-size="10.00">::HasReserve&lt; C, typename &gt;</text>
</a>
</g>
</g>
<!-- Node0&#45;&gt;Node4 -->
<g id="edge54_Node000000_Node000004" class="edge">
<title>Node0&#45;&gt;Node4</title>
<g id="a_edge54_Node000000_Node000004"><a xlink:title=" ">
<path fill="none" stroke="#63b8ff" d="M63.56,-73.77C78.04,-63.21 97.65,-50.04 116.5,-41 122.96,-37.9 129.89,-35.06 136.87,-32.5"/>
<polygon fill="#63b8ff" stroke="#63b8ff" points="61.57,-70.89 55.65,-79.67 65.76,-76.5 61.57,-70.89"/>
</a>
</g>
</g>
</g>
</svg>
