<?xml version="1.0" encoding="UTF-8" standalone="no"?>
<!DOCTYPE svg PUBLIC "-//W3C//DTD SVG 1.1//EN"
 "http://www.w3.org/Graphics/SVG/1.1/DTD/svg11.dtd">
<!-- Generated by graphviz version 12.2.1 (20241206.2353)
 -->
<!-- Title: Graphical Class Hierarchy Pages: 1 -->
<svg width="267pt" height="490pt"
 viewBox="0.00 0.00 266.50 490.00" xmlns="http://www.w3.org/2000/svg" xmlns:xlink="http://www.w3.org/1999/xlink">
<g id="graph0" class="graph" transform="scale(1 1) rotate(0) translate(4 486)">
<title>Graphical Class Hierarchy</title>
<!-- Node0 -->
<g id="Node000000" class="node">
<title>Node0</title>
<g id="a_Node000000"><a xlink:href="class_fiea_1_1_engine_1_1_content_1_1_i_parse_handler.html" target="_top" xlink:title=" ">
<polygon fill="white" stroke="#666666" points="111.25,-257 0,-257 0,-225 111.25,-225 111.25,-257"/>
<text text-anchor="start" x="8" y="-243.5" font-family="Helvetica,sans-Serif" font-size="10.00">Fiea::Engine::Content</text>
<text text-anchor="middle" x="55.62" y="-231.5" font-family="Helvetica,sans-Serif" font-size="10.00">::IParseHandler</text>
</a>
</g>
</g>
<!-- Node1 -->
<g id="Node000001" class="node">
<title>Node1</title>
<g id="a_Node000001"><a xlink:href="class_fiea_1_1_engine_1_1_content_1_1_action_handler.html" target="_top" xlink:title=" ">
<polygon fill="white" stroke="#666666" points="258.5,-482 147.25,-482 147.25,-450 258.5,-450 258.5,-482"/>
<text text-anchor="start" x="155.25" y="-468.5" font-family="Helvetica,sans-Serif" font-size="10.00">Fiea::Engine::Content</text>
<text text-anchor="middle" x="202.88" y="-456.5" font-family="Helvetica,sans-Serif" font-size="10.00">::ActionHandler</text>
</a>
</g>
</g>
<!-- Node0&#45;&gt;Node1 -->
<g id="edge5_Node000000_Node000001" class="edge">
<title>Node0&#45;&gt;Node1</title>
<g id="a_edge5_Node000000_Node000001"><a xlink:title=" ">
<path fill="none" stroke="#63b8ff" d="M62.54,-268.54C72.89,-310.72 98.05,-391.61 147.25,-441 150.49,-444.25 154.23,-447.12 158.2,-449.65"/>
<polygon fill="#63b8ff" stroke="#63b8ff" points="65.98,-267.9 60.3,-258.96 59.17,-269.5 65.98,-267.9"/>
</a>
</g>
</g>
<!-- Node2 -->
<g id="Node000002" class="node">
<title>Node2</title>
<g id="a_Node000002"><a xlink:href="class_fiea_1_1_engine_1_1_content_1_1_action_list_handler.html" target="_top" xlink:title=" ">
<polygon fill="white" stroke="#666666" points="258.5,-432 147.25,-432 147.25,-400 258.5,-400 258.5,-432"/>
<text text-anchor="start" x="155.25" y="-418.5" font-family="Helvetica,sans-Serif" font-size="10.00">Fiea::Engine::Content</text>
<text text-anchor="middle" x="202.88" y="-406.5" font-family="Helvetica,sans-Serif" font-size="10.00">::ActionListHandler</text>
</a>
</g>
</g>
<!-- Node0&#45;&gt;Node2 -->
<g id="edge6_Node000000_Node000002" class="edge">
<title>Node0&#45;&gt;Node2</title>
<g id="a_edge6_Node000000_Node000002"><a xlink:title=" ">
<path fill="none" stroke="#63b8ff" d="M66.94,-267.74C80.79,-300.59 108.25,-356.22 147.25,-391 150.83,-394.19 154.89,-397.05 159.14,-399.58"/>
<polygon fill="#63b8ff" stroke="#63b8ff" points="70.2,-266.48 63.18,-258.55 63.72,-269.13 70.2,-266.48"/>
</a>
</g>
</g>
<!-- Node3 -->
<g id="Node000003" class="node">
<title>Node3</title>
<g id="a_Node000003"><a xlink:href="class_fiea_1_1_engine_1_1_content_1_1_array_handler.html" target="_top" xlink:title=" ">
<polygon fill="white" stroke="#666666" points="258.5,-382 147.25,-382 147.25,-350 258.5,-350 258.5,-382"/>
<text text-anchor="start" x="155.25" y="-368.5" font-family="Helvetica,sans-Serif" font-size="10.00">Fiea::Engine::Content</text>
<text text-anchor="middle" x="202.88" y="-356.5" font-family="Helvetica,sans-Serif" font-size="10.00">::ArrayHandler</text>
</a>
</g>
</g>
<!-- Node0&#45;&gt;Node3 -->
<g id="edge7_Node000000_Node000003" class="edge">
<title>Node0&#45;&gt;Node3</title>
<g id="a_edge7_Node000000_Node000003"><a xlink:title=" ">
<path fill="none" stroke="#63b8ff" d="M74.97,-266.5C91.8,-288.47 118.43,-319.9 147.25,-341 151.54,-344.14 156.29,-347.02 161.15,-349.63"/>
<polygon fill="#63b8ff" stroke="#63b8ff" points="77.87,-264.54 69.07,-258.64 72.27,-268.74 77.87,-264.54"/>
</a>
</g>
</g>
<!-- Node4 -->
<g id="Node000004" class="node">
<title>Node4</title>
<g id="a_Node000004"><a xlink:href="class_fiea_1_1_engine_1_1_content_1_1_float_parse_handler.html" target="_top" xlink:title=" ">
<polygon fill="white" stroke="#666666" points="258.5,-332 147.25,-332 147.25,-300 258.5,-300 258.5,-332"/>
<text text-anchor="start" x="155.25" y="-318.5" font-family="Helvetica,sans-Serif" font-size="10.00">Fiea::Engine::Content</text>
<text text-anchor="middle" x="202.88" y="-306.5" font-family="Helvetica,sans-Serif" font-size="10.00">::FloatParseHandler</text>
</a>
</g>
</g>
<!-- Node0&#45;&gt;Node4 -->
<g id="edge8_Node000000_Node000004" class="edge">
<title>Node0&#45;&gt;Node4</title>
<g id="a_edge8_Node000000_Node000004"><a xlink:title=" ">
<path fill="none" stroke="#63b8ff" d="M94.51,-262.73C110.62,-271.76 129.71,-282.16 147.25,-291 152.93,-293.86 159.01,-296.78 164.97,-299.56"/>
<polygon fill="#63b8ff" stroke="#63b8ff" points="96.65,-259.92 86.22,-258.06 93.22,-266.02 96.65,-259.92"/>
</a>
</g>
</g>
<!-- Node5 -->
<g id="Node000005" class="node">
<title>Node5</title>
<g id="a_Node000005"><a xlink:href="class_fiea_1_1_engine_1_1_content_1_1_game_object_handler.html" target="_top" xlink:title=" ">
<polygon fill="white" stroke="#666666" points="258.5,-282 147.25,-282 147.25,-250 258.5,-250 258.5,-282"/>
<text text-anchor="start" x="155.25" y="-268.5" font-family="Helvetica,sans-Serif" font-size="10.00">Fiea::Engine::Content</text>
<text text-anchor="middle" x="202.88" y="-256.5" font-family="Helvetica,sans-Serif" font-size="10.00">::GameObjectHandler</text>
</a>
</g>
</g>
<!-- Node0&#45;&gt;Node5 -->
<g id="edge9_Node000000_Node000005" class="edge">
<title>Node0&#45;&gt;Node5</title>
<g id="a_edge9_Node000000_Node000005"><a xlink:title=" ">
<path fill="none" stroke="#63b8ff" d="M122.81,-252.39C130.86,-253.78 139.02,-255.18 146.88,-256.54"/>
<polygon fill="#63b8ff" stroke="#63b8ff" points="123.48,-248.96 113.03,-250.71 122.29,-255.85 123.48,-248.96"/>
</a>
</g>
</g>
<!-- Node6 -->
<g id="Node000006" class="node">
<title>Node6</title>
<g id="a_Node000006"><a xlink:href="class_fiea_1_1_engine_1_1_content_1_1_int_parse_handler.html" target="_top" xlink:title=" ">
<polygon fill="white" stroke="#666666" points="258.5,-232 147.25,-232 147.25,-200 258.5,-200 258.5,-232"/>
<text text-anchor="start" x="155.25" y="-218.5" font-family="Helvetica,sans-Serif" font-size="10.00">Fiea::Engine::Content</text>
<text text-anchor="middle" x="202.88" y="-206.5" font-family="Helvetica,sans-Serif" font-size="10.00">::IntParseHandler</text>
</a>
</g>
</g>
<!-- Node0&#45;&gt;Node6 -->
<g id="edge10_Node000000_Node000006" class="edge">
<title>Node0&#45;&gt;Node6</title>
<g id="a_edge10_Node000000_Node000006"><a xlink:title=" ">
<path fill="none" stroke="#63b8ff" d="M122.81,-229.61C130.86,-228.22 139.02,-226.82 146.88,-225.46"/>
<polygon fill="#63b8ff" stroke="#63b8ff" points="122.29,-226.15 113.03,-231.29 123.48,-233.04 122.29,-226.15"/>
</a>
</g>
</g>
<!-- Node7 -->
<g id="Node000007" class="node">
<title>Node7</title>
<g id="a_Node000007"><a xlink:href="class_fiea_1_1_engine_1_1_content_1_1_matrix_handler.html" target="_top" xlink:title=" ">
<polygon fill="white" stroke="#666666" points="258.5,-182 147.25,-182 147.25,-150 258.5,-150 258.5,-182"/>
<text text-anchor="start" x="155.25" y="-168.5" font-family="Helvetica,sans-Serif" font-size="10.00">Fiea::Engine::Content</text>
<text text-anchor="middle" x="202.88" y="-156.5" font-family="Helvetica,sans-Serif" font-size="10.00">::MatrixHandler</text>
</a>
</g>
</g>
<!-- Node0&#45;&gt;Node7 -->
<g id="edge11_Node000000_Node000007" class="edge">
<title>Node0&#45;&gt;Node7</title>
<g id="a_edge11_Node000000_Node000007"><a xlink:title=" ">
<path fill="none" stroke="#63b8ff" d="M94.51,-219.27C110.62,-210.24 129.71,-199.84 147.25,-191 152.93,-188.14 159.01,-185.22 164.97,-182.44"/>
<polygon fill="#63b8ff" stroke="#63b8ff" points="93.22,-215.98 86.22,-223.94 96.65,-222.08 93.22,-215.98"/>
</a>
</g>
</g>
<!-- Node8 -->
<g id="Node000008" class="node">
<title>Node8</title>
<g id="a_Node000008"><a xlink:href="class_fiea_1_1_engine_1_1_content_1_1_scope_parse_handler.html" target="_top" xlink:title=" ">
<polygon fill="white" stroke="#666666" points="258.5,-132 147.25,-132 147.25,-100 258.5,-100 258.5,-132"/>
<text text-anchor="start" x="155.25" y="-118.5" font-family="Helvetica,sans-Serif" font-size="10.00">Fiea::Engine::Content</text>
<text text-anchor="middle" x="202.88" y="-106.5" font-family="Helvetica,sans-Serif" font-size="10.00">::ScopeParseHandler</text>
</a>
</g>
</g>
<!-- Node0&#45;&gt;Node8 -->
<g id="edge12_Node000000_Node000008" class="edge">
<title>Node0&#45;&gt;Node8</title>
<g id="a_edge12_Node000000_Node000008"><a xlink:title=" ">
<path fill="none" stroke="#63b8ff" d="M74.97,-215.5C91.8,-193.53 118.43,-162.1 147.25,-141 151.54,-137.86 156.29,-134.98 161.15,-132.37"/>
<polygon fill="#63b8ff" stroke="#63b8ff" points="72.27,-213.26 69.07,-223.36 77.87,-217.46 72.27,-213.26"/>
</a>
</g>
</g>
<!-- Node9 -->
<g id="Node000009" class="node">
<title>Node9</title>
<g id="a_Node000009"><a xlink:href="class_fiea_1_1_engine_1_1_content_1_1_string_parse_handler.html" target="_top" xlink:title=" ">
<polygon fill="white" stroke="#666666" points="258.5,-82 147.25,-82 147.25,-50 258.5,-50 258.5,-82"/>
<text text-anchor="start" x="155.25" y="-68.5" font-family="Helvetica,sans-Serif" font-size="10.00">Fiea::Engine::Content</text>
<text text-anchor="middle" x="202.88" y="-56.5" font-family="Helvetica,sans-Serif" font-size="10.00">::StringParseHandler</text>
</a>
</g>
</g>
<!-- Node0&#45;&gt;Node9 -->
<g id="edge13_Node000000_Node000009" class="edge">
<title>Node0&#45;&gt;Node9</title>
<g id="a_edge13_Node000000_Node000009"><a xlink:title=" ">
<path fill="none" stroke="#63b8ff" d="M66.94,-214.26C80.79,-181.41 108.25,-125.78 147.25,-91 150.83,-87.81 154.89,-84.95 159.14,-82.42"/>
<polygon fill="#63b8ff" stroke="#63b8ff" points="63.72,-212.87 63.18,-223.45 70.2,-215.52 63.72,-212.87"/>
</a>
</g>
</g>
<!-- Node10 -->
<g id="Node000010" class="node">
<title>Node10</title>
<g id="a_Node000010"><a xlink:href="class_fiea_1_1_engine_1_1_content_1_1_vector_handler.html" target="_top" xlink:title=" ">
<polygon fill="white" stroke="#666666" points="258.5,-32 147.25,-32 147.25,0 258.5,0 258.5,-32"/>
<text text-anchor="start" x="155.25" y="-18.5" font-family="Helvetica,sans-Serif" font-size="10.00">Fiea::Engine::Content</text>
<text text-anchor="middle" x="202.88" y="-6.5" font-family="Helvetica,sans-Serif" font-size="10.00">::VectorHandler</text>
</a>
</g>
</g>
<!-- Node0&#45;&gt;Node10 -->
<g id="edge14_Node000000_Node000010" class="edge">
<title>Node0&#45;&gt;Node10</title>
<g id="a_edge14_Node000000_Node000010"><a xlink:title=" ">
<path fill="none" stroke="#63b8ff" d="M62.54,-213.46C72.89,-171.28 98.05,-90.39 147.25,-41 150.49,-37.75 154.23,-34.88 158.2,-32.35"/>
<polygon fill="#63b8ff" stroke="#63b8ff" points="59.17,-212.5 60.3,-223.04 65.98,-214.1 59.17,-212.5"/>
</a>
</g>
</g>
</g>
</svg>
