<?xml version="1.0" encoding="UTF-8" standalone="no"?>
<!DOCTYPE svg PUBLIC "-//W3C//DTD SVG 1.1//EN"
 "http://www.w3.org/Graphics/SVG/1.1/DTD/svg11.dtd">
<!-- Generated by graphviz version 12.2.1 (20241206.2353)
 -->
<!-- Title: Fiea::Engine::Content::AggregateClassDefintions Pages: 1 -->
<svg width="303pt" height="152pt"
 viewBox="0.00 0.00 302.50 152.00" xmlns="http://www.w3.org/2000/svg" xmlns:xlink="http://www.w3.org/1999/xlink">
<g id="graph0" class="graph" transform="scale(1 1) rotate(0) translate(4 148)">
<title>Fiea::Engine::Content::AggregateClassDefintions</title>
<!-- Node1 -->
<g id="Node000001" class="node">
<title>Node1</title>
<g id="a_Node000001"><a xlink:title=" ">
<polygon fill="#999999" stroke="#666666" points="294.5,-94 158.5,-94 158.5,-62 294.5,-62 294.5,-94"/>
<text text-anchor="start" x="166.5" y="-80.5" font-family="Helvetica,sans-Serif" font-size="10.00">Fiea::Engine::Content</text>
<text text-anchor="middle" x="226.5" y="-68.5" font-family="Helvetica,sans-Serif" font-size="10.00">::AggregateClassDefintions</text>
</a>
</g>
</g>
<!-- Node2 -->
<g id="Node000002" class="node">
<title>Node2</title>
<g id="a_Node000002"><a xlink:href="class_fiea_1_1_engine_1_1_content_1_1_actions_1_1_action.html#a0ff21a78d7787f4fbfc93e34e9bf7884" target="_top" xlink:title=" ">
<polygon fill="white" stroke="#666666" points="122.5,-144 0,-144 0,-112 122.5,-112 122.5,-144"/>
<text text-anchor="start" x="8" y="-130.5" font-family="Helvetica,sans-Serif" font-size="10.00">Fiea::Engine::Content</text>
<text text-anchor="middle" x="61.25" y="-118.5" font-family="Helvetica,sans-Serif" font-size="10.00">::Actions::Action::Action</text>
</a>
</g>
</g>
<!-- Node1&#45;&gt;Node2 -->
<g id="edge1_Node000001_Node000002" class="edge">
<title>Node1&#45;&gt;Node2</title>
<g id="a_edge1_Node000001_Node000002"><a xlink:title=" ">
<path fill="none" stroke="#63b8ff" d="M161.32,-97.66C146.36,-102.24 130.57,-107.08 116.1,-111.51"/>
<polygon fill="#63b8ff" stroke="#63b8ff" points="162.06,-101.09 170.6,-94.82 160.01,-94.4 162.06,-101.09"/>
</a>
</g>
</g>
<!-- Node3 -->
<g id="Node000003" class="node">
<title>Node3</title>
<g id="a_Node000003"><a xlink:href="class_fiea_1_1_engine_1_1_content_1_1_actions_1_1_action.html#af9db611222dc543b98fc0e21c340bcaa" target="_top" xlink:title=" ">
<polygon fill="white" stroke="#666666" points="122.5,-94 0,-94 0,-62 122.5,-62 122.5,-94"/>
<text text-anchor="start" x="8" y="-80.5" font-family="Helvetica,sans-Serif" font-size="10.00">Fiea::Engine::Content</text>
<text text-anchor="middle" x="61.25" y="-68.5" font-family="Helvetica,sans-Serif" font-size="10.00">::Actions::Action::Action</text>
</a>
</g>
</g>
<!-- Node1&#45;&gt;Node3 -->
<g id="edge2_Node000001_Node000003" class="edge">
<title>Node1&#45;&gt;Node3</title>
<g id="a_edge2_Node000001_Node000003"><a xlink:title=" ">
<path fill="none" stroke="#63b8ff" d="M146.84,-78C138.8,-78 130.71,-78 122.9,-78"/>
<polygon fill="#63b8ff" stroke="#63b8ff" points="146.64,-81.5 156.64,-78 146.64,-74.5 146.64,-81.5"/>
</a>
</g>
</g>
<!-- Node4 -->
<g id="Node000004" class="node">
<title>Node4</title>
<g id="a_Node000004"><a xlink:href="class_fiea_1_1_engine_1_1_content_1_1_actions_1_1_action_list.html#a82ff25e4d715770fce5835553807993c" target="_top" xlink:title=" ">
<polygon fill="white" stroke="#666666" points="116.88,-44 5.62,-44 5.62,0 116.88,0 116.88,-44"/>
<text text-anchor="start" x="13.62" y="-30.5" font-family="Helvetica,sans-Serif" font-size="10.00">Fiea::Engine::Content</text>
<text text-anchor="start" x="13.62" y="-18.5" font-family="Helvetica,sans-Serif" font-size="10.00">::Actions::ActionList</text>
<text text-anchor="middle" x="61.25" y="-6.5" font-family="Helvetica,sans-Serif" font-size="10.00">::ActionList</text>
</a>
</g>
</g>
<!-- Node1&#45;&gt;Node4 -->
<g id="edge3_Node000001_Node000004" class="edge">
<title>Node1&#45;&gt;Node4</title>
<g id="a_edge3_Node000001_Node000004"><a xlink:title=" ">
<path fill="none" stroke="#63b8ff" d="M166.96,-57.92C150.73,-52.35 133.18,-46.33 117.17,-40.84"/>
<polygon fill="#63b8ff" stroke="#63b8ff" points="165.38,-61.08 175.97,-61.01 167.65,-54.45 165.38,-61.08"/>
</a>
</g>
</g>
</g>
</svg>
