<?xml version="1.0" encoding="UTF-8" standalone="no"?>
<!DOCTYPE svg PUBLIC "-//W3C//DTD SVG 1.1//EN"
 "http://www.w3.org/Graphics/SVG/1.1/DTD/svg11.dtd">
<!-- Generated by graphviz version 12.2.1 (20241206.2353)
 -->
<!-- Title: Fiea::Engine::ITimeUpdater Pages: 1 -->
<svg width="138pt" height="148pt"
 viewBox="0.00 0.00 137.50 148.00" xmlns="http://www.w3.org/2000/svg" xmlns:xlink="http://www.w3.org/1999/xlink">
<g id="graph0" class="graph" transform="scale(1 1) rotate(0) translate(4 144)">
<title>Fiea::Engine::ITimeUpdater</title>
<!-- Node1 -->
<g id="Node000001" class="node">
<title>Node1</title>
<g id="a_Node000001"><a xlink:title=" ">
<polygon fill="#999999" stroke="none" points="128.75,-52 0.75,-52 0.75,0 128.75,0 128.75,-52"/>
<text text-anchor="start" x="4.75" y="-38.5" font-family="Helvetica,sans-Serif" font-size="10.00">Fiea::Engine::ITimeUpdater</text>
<text text-anchor="start" x="63.25" y="-22.5" font-family="Helvetica,sans-Serif" font-size="10.00"> </text>
<text text-anchor="start" x="22.88" y="-6.5" font-family="Helvetica,sans-Serif" font-size="10.00">+</text>
<text text-anchor="start" x="51" y="-6.5" font-family="Helvetica,sans-Serif" font-size="10.00">Update()</text>
<polygon fill="#666666" stroke="#666666" points="0.75,-34 0.75,-34 128.75,-34 128.75,-34 0.75,-34"/>
<polygon fill="#666666" stroke="#666666" points="0.75,-18 0.75,-18 128.75,-18 128.75,-18 0.75,-18"/>
<polygon fill="none" stroke="#666666" points="0.75,0 0.75,-52 128.75,-52 128.75,0 0.75,0"/>
</a>
</g>
</g>
<!-- Node2 -->
<g id="Node000002" class="node">
<title>Node2</title>
<g id="a_Node000002"><a xlink:href="struct_fiea_1_1_engine_1_1_i_time_provider.html" target="_top" xlink:title=" ">
<polygon fill="white" stroke="none" points="129.5,-140 0,-140 0,-88 129.5,-88 129.5,-140"/>
<text text-anchor="start" x="4" y="-126.5" font-family="Helvetica,sans-Serif" font-size="10.00">Fiea::Engine::ITimeProvider</text>
<text text-anchor="start" x="63.25" y="-110.5" font-family="Helvetica,sans-Serif" font-size="10.00"> </text>
<text text-anchor="start" x="24.94" y="-94.5" font-family="Helvetica,sans-Serif" font-size="10.00">+</text>
<text text-anchor="start" x="55.88" y="-94.5" font-family="Helvetica,sans-Serif" font-size="10.00">Time()</text>
<polygon fill="#666666" stroke="#666666" points="0,-122 0,-122 129.5,-122 129.5,-122 0,-122"/>
<polygon fill="#666666" stroke="#666666" points="0,-106 0,-106 129.5,-106 129.5,-106 0,-106"/>
<polygon fill="none" stroke="#666666" points="0,-88 0,-140 129.5,-140 129.5,-88 0,-88"/>
</a>
</g>
</g>
<!-- Node2&#45;&gt;Node1 -->
<g id="edge1_Node000001_Node000002" class="edge">
<title>Node2&#45;&gt;Node1</title>
<g id="a_edge1_Node000001_Node000002"><a xlink:title=" ">
<path fill="none" stroke="#63b8ff" d="M64.75,-76.66C64.75,-68.29 64.75,-59.57 64.75,-51.82"/>
<polygon fill="none" stroke="#63b8ff" points="61.25,-76.61 64.75,-86.61 68.25,-76.61 61.25,-76.61"/>
</a>
</g>
</g>
</g>
</svg>
