<?xml version="1.0" encoding="UTF-8" standalone="no"?>
<!DOCTYPE svg PUBLIC "-//W3C//DTD SVG 1.1//EN"
 "http://www.w3.org/Graphics/SVG/1.1/DTD/svg11.dtd">
<!-- Generated by graphviz version 12.2.1 (20241206.2353)
 -->
<!-- Title: Fiea::Engine::Memory::IAllocatorProvider Pages: 1 -->
<svg width="139pt" height="380pt"
 viewBox="0.00 0.00 139.25 380.00" xmlns="http://www.w3.org/2000/svg" xmlns:xlink="http://www.w3.org/1999/xlink">
<g id="graph0" class="graph" transform="scale(1 1) rotate(0) translate(4 376)">
<title>Fiea::Engine::Memory::IAllocatorProvider</title>
<!-- Node1 -->
<g id="Node000001" class="node">
<title>Node1</title>
<g id="a_Node000001"><a xlink:title=" ">
<polygon fill="#999999" stroke="none" points="123.75,-372 7.5,-372 7.5,-260 123.75,-260 123.75,-372"/>
<text text-anchor="start" x="17.62" y="-358.5" font-family="Helvetica,sans-Serif" font-size="10.00">Fiea::Engine::Memory</text>
<text text-anchor="start" x="24" y="-346.5" font-family="Helvetica,sans-Serif" font-size="10.00">::IAllocatorProvider</text>
<text text-anchor="start" x="64.12" y="-330.5" font-family="Helvetica,sans-Serif" font-size="10.00"> </text>
<text text-anchor="start" x="11.5" y="-314.5" font-family="Helvetica,sans-Serif" font-size="10.00">+</text>
<text text-anchor="start" x="21.5" y="-314.5" font-family="Helvetica,sans-Serif" font-size="10.00">GetAllocator()</text>
<text text-anchor="start" x="11.5" y="-298.5" font-family="Helvetica,sans-Serif" font-size="10.00">+</text>
<text text-anchor="start" x="21.5" y="-298.5" font-family="Helvetica,sans-Serif" font-size="10.00">GetAllocator()</text>
<text text-anchor="start" x="11.5" y="-282.5" font-family="Helvetica,sans-Serif" font-size="10.00">+</text>
<text text-anchor="start" x="21.5" y="-282.5" font-family="Helvetica,sans-Serif" font-size="10.00">PushDefaultAllocator()</text>
<text text-anchor="start" x="11.5" y="-266.5" font-family="Helvetica,sans-Serif" font-size="10.00">+</text>
<text text-anchor="start" x="21.5" y="-266.5" font-family="Helvetica,sans-Serif" font-size="10.00">PopDefaultAllocator()</text>
<polygon fill="#666666" stroke="#666666" points="7.5,-342 7.5,-342 123.75,-342 123.75,-342 7.5,-342"/>
<polygon fill="#666666" stroke="#666666" points="7.5,-326 7.5,-326 123.75,-326 123.75,-326 7.5,-326"/>
<polygon fill="none" stroke="#666666" points="7.5,-260 7.5,-372 123.75,-372 123.75,-260 7.5,-260"/>
</a>
</g>
</g>
<!-- Node2 -->
<g id="Node000002" class="node">
<title>Node2</title>
<g id="a_Node000002"><a xlink:href="class_fiea_1_1_engine_1_1_memory_1_1_memory_service.html" target="_top" xlink:title="The main class that handles all heaps and via the interfaces it exposes relevant functionalities such...">
<polygon fill="white" stroke="none" points="131.25,-224 0,-224 0,0 131.25,0 131.25,-224"/>
<text text-anchor="start" x="17.62" y="-210.5" font-family="Helvetica,sans-Serif" font-size="10.00">Fiea::Engine::Memory</text>
<text text-anchor="start" x="28.5" y="-198.5" font-family="Helvetica,sans-Serif" font-size="10.00">::MemoryService</text>
<text text-anchor="start" x="4" y="-182.5" font-family="Helvetica,sans-Serif" font-size="10.00">+</text>
<text text-anchor="start" x="14" y="-182.5" font-family="Helvetica,sans-Serif" font-size="10.00">_DefaultAllocator</text>
<text text-anchor="start" x="4" y="-166.5" font-family="Helvetica,sans-Serif" font-size="10.00">+</text>
<text text-anchor="start" x="14" y="-166.5" font-family="Helvetica,sans-Serif" font-size="10.00">FIEA_SERVICE_BIND2()</text>
<text text-anchor="start" x="4" y="-150.5" font-family="Helvetica,sans-Serif" font-size="10.00">+</text>
<text text-anchor="start" x="14" y="-150.5" font-family="Helvetica,sans-Serif" font-size="10.00">MemoryService()</text>
<text text-anchor="start" x="4" y="-134.5" font-family="Helvetica,sans-Serif" font-size="10.00">+</text>
<text text-anchor="start" x="14" y="-134.5" font-family="Helvetica,sans-Serif" font-size="10.00">~MemoryService()</text>
<text text-anchor="start" x="4" y="-118.5" font-family="Helvetica,sans-Serif" font-size="10.00">+</text>
<text text-anchor="start" x="14" y="-118.5" font-family="Helvetica,sans-Serif" font-size="10.00">CreateHeap()</text>
<text text-anchor="start" x="4" y="-102.5" font-family="Helvetica,sans-Serif" font-size="10.00">+</text>
<text text-anchor="start" x="14" y="-102.5" font-family="Helvetica,sans-Serif" font-size="10.00">DestroyHeap()</text>
<text text-anchor="start" x="4" y="-86.5" font-family="Helvetica,sans-Serif" font-size="10.00">+</text>
<text text-anchor="start" x="14" y="-86.5" font-family="Helvetica,sans-Serif" font-size="10.00">GetAllocator()</text>
<text text-anchor="start" x="4" y="-70.5" font-family="Helvetica,sans-Serif" font-size="10.00">+</text>
<text text-anchor="start" x="14" y="-70.5" font-family="Helvetica,sans-Serif" font-size="10.00">GetAllocator()</text>
<text text-anchor="start" x="4" y="-54.5" font-family="Helvetica,sans-Serif" font-size="10.00">+</text>
<text text-anchor="start" x="14" y="-54.5" font-family="Helvetica,sans-Serif" font-size="10.00">DefaultAlloc()</text>
<text text-anchor="start" x="4" y="-38.5" font-family="Helvetica,sans-Serif" font-size="10.00">+</text>
<text text-anchor="start" x="14" y="-38.5" font-family="Helvetica,sans-Serif" font-size="10.00">DefaultFree()</text>
<text text-anchor="start" x="4" y="-22.5" font-family="Helvetica,sans-Serif" font-size="10.00">+</text>
<text text-anchor="start" x="14" y="-22.5" font-family="Helvetica,sans-Serif" font-size="10.00">PushDefaultAllocator()</text>
<text text-anchor="start" x="4" y="-6.5" font-family="Helvetica,sans-Serif" font-size="10.00">+</text>
<text text-anchor="start" x="14" y="-6.5" font-family="Helvetica,sans-Serif" font-size="10.00">PopDefaultAllocator()</text>
<polygon fill="#666666" stroke="#666666" points="0,-194 0,-194 131.25,-194 131.25,-194 0,-194"/>
<polygon fill="#666666" stroke="#666666" points="0,-178 0,-178 12,-178 12,-178 0,-178"/>
<polygon fill="#666666" stroke="#666666" points="12,-178 12,-178 131.25,-178 131.25,-178 12,-178"/>
<polygon fill="none" stroke="#666666" points="0,0 0,-224 131.25,-224 131.25,0 0,0"/>
</a>
</g>
</g>
<!-- Node1&#45;&gt;Node2 -->
<g id="edge1_Node000001_Node000002" class="edge">
<title>Node1&#45;&gt;Node2</title>
<g id="a_edge1_Node000001_Node000002"><a xlink:title=" ">
<path fill="none" stroke="#63b8ff" d="M65.62,-248.62C65.62,-240.63 65.62,-232.31 65.62,-223.9"/>
<polygon fill="none" stroke="#63b8ff" points="62.13,-248.56 65.63,-258.56 69.13,-248.56 62.13,-248.56"/>
</a>
</g>
</g>
</g>
</svg>
