<?xml version="1.0" encoding="UTF-8" standalone="no"?>
<!DOCTYPE svg PUBLIC "-//W3C//DTD SVG 1.1//EN"
 "http://www.w3.org/Graphics/SVG/1.1/DTD/svg11.dtd">
<!-- Generated by graphviz version 12.2.1 (20241206.2353)
 -->
<!-- Title: Fiea::Engine::Content::Attributed::Signature Pages: 1 -->
<svg width="111pt" height="120pt"
 viewBox="0.00 0.00 111.25 120.00" xmlns="http://www.w3.org/2000/svg" xmlns:xlink="http://www.w3.org/1999/xlink">
<g id="graph0" class="graph" transform="scale(1 1) rotate(0) translate(4 116)">
<title>Fiea::Engine::Content::Attributed::Signature</title>
<!-- Node1 -->
<g id="Node000001" class="node">
<title>Node1</title>
<g id="a_Node000001"><a xlink:title=" ">
<polygon fill="#999999" stroke="none" points="103.25,-112 0,-112 0,0 103.25,0 103.25,-112"/>
<text text-anchor="start" x="4" y="-98.5" font-family="Helvetica,sans-Serif" font-size="10.00">Fiea::Engine::Content</text>
<text text-anchor="start" x="4" y="-86.5" font-family="Helvetica,sans-Serif" font-size="10.00">::Attributed::Signature</text>
<text text-anchor="start" x="17.44" y="-70.5" font-family="Helvetica,sans-Serif" font-size="10.00">+</text>
<text text-anchor="start" x="40.88" y="-70.5" font-family="Helvetica,sans-Serif" font-size="10.00">_Name</text>
<text text-anchor="start" x="17.44" y="-54.5" font-family="Helvetica,sans-Serif" font-size="10.00">+</text>
<text text-anchor="start" x="40.88" y="-54.5" font-family="Helvetica,sans-Serif" font-size="10.00">_Offset</text>
<text text-anchor="start" x="17.44" y="-38.5" font-family="Helvetica,sans-Serif" font-size="10.00">+</text>
<text text-anchor="start" x="40.88" y="-38.5" font-family="Helvetica,sans-Serif" font-size="10.00">_Type</text>
<text text-anchor="start" x="17.44" y="-22.5" font-family="Helvetica,sans-Serif" font-size="10.00">+</text>
<text text-anchor="start" x="40.88" y="-22.5" font-family="Helvetica,sans-Serif" font-size="10.00">_Count</text>
<text text-anchor="start" x="50.12" y="-6.5" font-family="Helvetica,sans-Serif" font-size="10.00"> </text>
<polygon fill="#666666" stroke="#666666" points="0,-82 0,-82 103.25,-82 103.25,-82 0,-82"/>
<polygon fill="#666666" stroke="#666666" points="0,-18 0,-18 38.88,-18 38.88,-18 0,-18"/>
<polygon fill="#666666" stroke="#666666" points="38.88,-18 38.88,-18 103.25,-18 103.25,-18 38.88,-18"/>
<polygon fill="none" stroke="#666666" points="0,0 0,-112 103.25,-112 103.25,0 0,0"/>
</a>
</g>
</g>
</g>
</svg>
