<?xml version="1.0" encoding="UTF-8" standalone="no"?>
<!DOCTYPE svg PUBLIC "-//W3C//DTD SVG 1.1//EN"
 "http://www.w3.org/Graphics/SVG/1.1/DTD/svg11.dtd">
<!-- Generated by graphviz version 12.2.1 (20241206.2353)
 -->
<!-- Title: Fiea::Engine::IFactoryService::GetFactory Pages: 1 -->
<svg width="503pt" height="264pt"
 viewBox="0.00 0.00 503.00 264.00" xmlns="http://www.w3.org/2000/svg" xmlns:xlink="http://www.w3.org/1999/xlink">
<g id="graph0" class="graph" transform="scale(1 1) rotate(0) translate(4 260)">
<title>Fiea::Engine::IFactoryService::GetFactory</title>
<!-- Node1 -->
<g id="Node000001" class="node">
<title>Node1</title>
<g id="a_Node000001"><a xlink:title=" ">
<polygon fill="#999999" stroke="#666666" points="495,-138 349.25,-138 349.25,-106 495,-106 495,-138"/>
<text text-anchor="start" x="357.25" y="-124.5" font-family="Helvetica,sans-Serif" font-size="10.00">Fiea::Engine::IFactoryService</text>
<text text-anchor="middle" x="422.12" y="-112.5" font-family="Helvetica,sans-Serif" font-size="10.00">::GetFactory</text>
</a>
</g>
</g>
<!-- Node2 -->
<g id="Node000002" class="node">
<title>Node2</title>
<g id="a_Node000002"><a xlink:href="struct_fiea_1_1_engine_1_1_i_factory_service.html#a67321bf276c10f13666440c0957b9fa8" target="_top" xlink:title=" ">
<polygon fill="white" stroke="#666666" points="313.25,-138 167.5,-138 167.5,-106 313.25,-106 313.25,-138"/>
<text text-anchor="start" x="175.5" y="-124.5" font-family="Helvetica,sans-Serif" font-size="10.00">Fiea::Engine::IFactoryService</text>
<text text-anchor="middle" x="240.38" y="-112.5" font-family="Helvetica,sans-Serif" font-size="10.00">::Create</text>
</a>
</g>
</g>
<!-- Node1&#45;&gt;Node2 -->
<g id="edge1_Node000001_Node000002" class="edge">
<title>Node1&#45;&gt;Node2</title>
<g id="a_edge1_Node000001_Node000002"><a xlink:title=" ">
<path fill="none" stroke="#63b8ff" d="M337.54,-122C329.53,-122 321.45,-122 313.56,-122"/>
<polygon fill="#63b8ff" stroke="#63b8ff" points="337.28,-125.5 347.28,-122 337.28,-118.5 337.28,-125.5"/>
</a>
</g>
</g>
<!-- Node3 -->
<g id="Node000003" class="node">
<title>Node3</title>
<g id="a_Node000003"><a xlink:href="class_fiea_1_1_engine_1_1_content_1_1_action_handler.html#a392af20cfeb37d539b88183bc9672f7a" target="_top" xlink:title=" ">
<polygon fill="white" stroke="#666666" points="130.75,-256 0.75,-256 0.75,-224 130.75,-224 130.75,-256"/>
<text text-anchor="start" x="8.75" y="-242.5" font-family="Helvetica,sans-Serif" font-size="10.00">Fiea::Engine::Content</text>
<text text-anchor="middle" x="65.75" y="-230.5" font-family="Helvetica,sans-Serif" font-size="10.00">::ActionHandler::EnterKey</text>
</a>
</g>
</g>
<!-- Node2&#45;&gt;Node3 -->
<g id="edge2_Node000002_Node000003" class="edge">
<title>Node2&#45;&gt;Node3</title>
<g id="a_edge2_Node000002_Node000003"><a xlink:title=" ">
<path fill="none" stroke="#63b8ff" d="M216.05,-146.34C195.37,-166.83 163.56,-195.78 131.5,-215 126.33,-218.1 120.71,-220.94 115.02,-223.51"/>
<polygon fill="#63b8ff" stroke="#63b8ff" points="218.31,-149.04 222.87,-139.48 213.34,-144.11 218.31,-149.04"/>
</a>
</g>
</g>
<!-- Node4 -->
<g id="Node000004" class="node">
<title>Node4</title>
<g id="a_Node000004"><a xlink:href="class_fiea_1_1_engine_1_1_content_1_1_action_list_handler.html#ae0f8b6534bcf602df112f39202c79ecc" target="_top" xlink:title=" ">
<polygon fill="white" stroke="#666666" points="121.38,-206 10.12,-206 10.12,-162 121.38,-162 121.38,-206"/>
<text text-anchor="start" x="18.12" y="-192.5" font-family="Helvetica,sans-Serif" font-size="10.00">Fiea::Engine::Content</text>
<text text-anchor="start" x="18.12" y="-180.5" font-family="Helvetica,sans-Serif" font-size="10.00">::ActionListHandler::</text>
<text text-anchor="middle" x="65.75" y="-168.5" font-family="Helvetica,sans-Serif" font-size="10.00">EnterKey</text>
</a>
</g>
</g>
<!-- Node2&#45;&gt;Node4 -->
<g id="edge3_Node000002_Node000004" class="edge">
<title>Node2&#45;&gt;Node4</title>
<g id="a_edge3_Node000002_Node000004"><a xlink:title=" ">
<path fill="none" stroke="#63b8ff" d="M182.92,-142.28C163.25,-149.34 141.23,-157.25 121.69,-164.27"/>
<polygon fill="#63b8ff" stroke="#63b8ff" points="183.92,-145.64 192.14,-138.96 181.55,-139.05 183.92,-145.64"/>
</a>
</g>
</g>
<!-- Node5 -->
<g id="Node000005" class="node">
<title>Node5</title>
<g id="a_Node000005"><a xlink:href="class_fiea_1_1_engine_1_1_content_1_1_game_object_handler.html#a626573aebcd7beceb84dbd69bc15105b" target="_top" xlink:title="This handler is specifically for handling any game objects in json and also does some checks to ensur...">
<polygon fill="white" stroke="#666666" points="124,-144 7.5,-144 7.5,-100 124,-100 124,-144"/>
<text text-anchor="start" x="15.5" y="-130.5" font-family="Helvetica,sans-Serif" font-size="10.00">Fiea::Engine::Content</text>
<text text-anchor="start" x="15.5" y="-118.5" font-family="Helvetica,sans-Serif" font-size="10.00">::GameObjectHandler::</text>
<text text-anchor="middle" x="65.75" y="-106.5" font-family="Helvetica,sans-Serif" font-size="10.00">EnterKey</text>
</a>
</g>
</g>
<!-- Node2&#45;&gt;Node5 -->
<g id="edge4_Node000002_Node000005" class="edge">
<title>Node2&#45;&gt;Node5</title>
<g id="a_edge4_Node000002_Node000005"><a xlink:title=" ">
<path fill="none" stroke="#63b8ff" d="M155.67,-122C145.03,-122 134.34,-122 124.24,-122"/>
<polygon fill="#63b8ff" stroke="#63b8ff" points="155.65,-125.5 165.65,-122 155.65,-118.5 155.65,-125.5"/>
</a>
</g>
</g>
<!-- Node6 -->
<g id="Node000006" class="node">
<title>Node6</title>
<g id="a_Node000006"><a xlink:href="class_fiea_1_1_engine_1_1_content_1_1_scope_writer.html#a4488fbd92e0706a1207e15a40dac7e22" target="_top" xlink:title=" ">
<polygon fill="white" stroke="#666666" points="131.5,-82 0,-82 0,-50 131.5,-50 131.5,-82"/>
<text text-anchor="start" x="8" y="-68.5" font-family="Helvetica,sans-Serif" font-size="10.00">Fiea::Engine::Content</text>
<text text-anchor="middle" x="65.75" y="-56.5" font-family="Helvetica,sans-Serif" font-size="10.00">::ScopeWriter::PushScope</text>
</a>
</g>
</g>
<!-- Node2&#45;&gt;Node6 -->
<g id="edge5_Node000002_Node000006" class="edge">
<title>Node2&#45;&gt;Node6</title>
<g id="a_edge5_Node000002_Node000006"><a xlink:title=" ">
<path fill="none" stroke="#63b8ff" d="M177.77,-102.02C158.04,-95.61 136.42,-88.6 117.54,-82.48"/>
<polygon fill="#63b8ff" stroke="#63b8ff" points="176.48,-105.28 187.08,-105.03 178.64,-98.62 176.48,-105.28"/>
</a>
</g>
</g>
<!-- Node7 -->
<g id="Node000007" class="node">
<title>Node7</title>
<g id="a_Node000007"><a xlink:href="namespace_fiea_1_1_engine_1_1_tests.html#a68f566c6aeab43c3e521cc48e0c08362" target="_top" xlink:title=" ">
<polygon fill="white" stroke="#666666" points="116.12,-32 15.38,-32 15.38,0 116.12,0 116.12,-32"/>
<text text-anchor="start" x="23.38" y="-18.5" font-family="Helvetica,sans-Serif" font-size="10.00">Fiea::Engine::Tests</text>
<text text-anchor="middle" x="65.75" y="-6.5" font-family="Helvetica,sans-Serif" font-size="10.00">::TEST_CLASS</text>
</a>
</g>
</g>
<!-- Node2&#45;&gt;Node7 -->
<g id="edge6_Node000002_Node000007" class="edge">
<title>Node2&#45;&gt;Node7</title>
<g id="a_edge6_Node000002_Node000007"><a xlink:title=" ">
<path fill="none" stroke="#63b8ff" d="M212.32,-98.35C191.33,-80.85 160.94,-57.32 131.5,-41 125.91,-37.9 119.87,-35.02 113.79,-32.39"/>
<polygon fill="#63b8ff" stroke="#63b8ff" points="209.93,-100.91 219.83,-104.7 214.45,-95.57 209.93,-100.91"/>
</a>
</g>
</g>
</g>
</svg>
