<?xml version="1.0" encoding="UTF-8" standalone="no"?>
<!DOCTYPE svg PUBLIC "-//W3C//DTD SVG 1.1//EN"
 "http://www.w3.org/Graphics/SVG/1.1/DTD/svg11.dtd">
<!-- Generated by graphviz version 12.2.1 (20241206.2353)
 -->
<!-- Title: Fiea::Engine::ITimeProvider Pages: 1 -->
<svg width="139pt" height="284pt"
 viewBox="0.00 0.00 139.25 284.00" xmlns="http://www.w3.org/2000/svg" xmlns:xlink="http://www.w3.org/1999/xlink">
<g id="graph0" class="graph" transform="scale(1 1) rotate(0) translate(4 280)">
<title>Fiea::Engine::ITimeProvider</title>
<!-- Node1 -->
<g id="Node000001" class="node">
<title>Node1</title>
<g id="a_Node000001"><a xlink:title=" ">
<polygon fill="#999999" stroke="none" points="130.38,-276 0.88,-276 0.88,-224 130.38,-224 130.38,-276"/>
<text text-anchor="start" x="4.88" y="-262.5" font-family="Helvetica,sans-Serif" font-size="10.00">Fiea::Engine::ITimeProvider</text>
<text text-anchor="start" x="64.12" y="-246.5" font-family="Helvetica,sans-Serif" font-size="10.00"> </text>
<text text-anchor="start" x="25.81" y="-230.5" font-family="Helvetica,sans-Serif" font-size="10.00">+</text>
<text text-anchor="start" x="56.75" y="-230.5" font-family="Helvetica,sans-Serif" font-size="10.00">Time()</text>
<polygon fill="#666666" stroke="#666666" points="0.88,-258 0.88,-258 130.38,-258 130.38,-258 0.88,-258"/>
<polygon fill="#666666" stroke="#666666" points="0.88,-242 0.88,-242 130.38,-242 130.38,-242 0.88,-242"/>
<polygon fill="none" stroke="#666666" points="0.88,-224 0.88,-276 130.38,-276 130.38,-224 0.88,-224"/>
</a>
</g>
</g>
<!-- Node2 -->
<g id="Node000002" class="node">
<title>Node2</title>
<g id="a_Node000002"><a xlink:href="struct_fiea_1_1_engine_1_1_i_time_updater.html" target="_top" xlink:title=" ">
<polygon fill="white" stroke="none" points="129.62,-188 1.62,-188 1.62,-136 129.62,-136 129.62,-188"/>
<text text-anchor="start" x="5.62" y="-174.5" font-family="Helvetica,sans-Serif" font-size="10.00">Fiea::Engine::ITimeUpdater</text>
<text text-anchor="start" x="64.12" y="-158.5" font-family="Helvetica,sans-Serif" font-size="10.00"> </text>
<text text-anchor="start" x="23.75" y="-142.5" font-family="Helvetica,sans-Serif" font-size="10.00">+</text>
<text text-anchor="start" x="51.88" y="-142.5" font-family="Helvetica,sans-Serif" font-size="10.00">Update()</text>
<polygon fill="#666666" stroke="#666666" points="1.62,-170 1.62,-170 129.62,-170 129.62,-170 1.62,-170"/>
<polygon fill="#666666" stroke="#666666" points="1.62,-154 1.62,-154 129.62,-154 129.62,-154 1.62,-154"/>
<polygon fill="none" stroke="#666666" points="1.62,-136 1.62,-188 129.62,-188 129.62,-136 1.62,-136"/>
</a>
</g>
</g>
<!-- Node1&#45;&gt;Node2 -->
<g id="edge1_Node000001_Node000002" class="edge">
<title>Node1&#45;&gt;Node2</title>
<g id="a_edge1_Node000001_Node000002"><a xlink:title=" ">
<path fill="none" stroke="#63b8ff" d="M65.62,-212.66C65.62,-204.29 65.62,-195.57 65.62,-187.82"/>
<polygon fill="none" stroke="#63b8ff" points="62.13,-212.61 65.63,-222.61 69.13,-212.61 62.13,-212.61"/>
</a>
</g>
</g>
<!-- Node3 -->
<g id="Node000003" class="node">
<title>Node3</title>
<g id="a_Node000003"><a xlink:href="struct_fiea_1_1_engine_1_1_clock_service.html" target="_top" xlink:title="A clock service that games might need to test various things such as&#45; Testing a &quot;daily&quot; achievement t...">
<polygon fill="white" stroke="none" points="131.25,-100 0,-100 0,0 131.25,0 131.25,-100"/>
<text text-anchor="start" x="6" y="-86.5" font-family="Helvetica,sans-Serif" font-size="10.00">Fiea::Engine::ClockService</text>
<text text-anchor="start" x="64.12" y="-70.5" font-family="Helvetica,sans-Serif" font-size="10.00"> </text>
<text text-anchor="start" x="4" y="-54.5" font-family="Helvetica,sans-Serif" font-size="10.00">+</text>
<text text-anchor="start" x="14" y="-54.5" font-family="Helvetica,sans-Serif" font-size="10.00">FIEA_SERVICE_BIND2()</text>
<text text-anchor="start" x="4" y="-38.5" font-family="Helvetica,sans-Serif" font-size="10.00">+</text>
<text text-anchor="start" x="14" y="-38.5" font-family="Helvetica,sans-Serif" font-size="10.00">Time()</text>
<text text-anchor="start" x="4" y="-22.5" font-family="Helvetica,sans-Serif" font-size="10.00">+</text>
<text text-anchor="start" x="14" y="-22.5" font-family="Helvetica,sans-Serif" font-size="10.00">Update()</text>
<text text-anchor="start" x="4" y="-6.5" font-family="Helvetica,sans-Serif" font-size="10.00">+</text>
<text text-anchor="start" x="14" y="-6.5" font-family="Helvetica,sans-Serif" font-size="10.00">ClockService()</text>
<polygon fill="#666666" stroke="#666666" points="0,-82 0,-82 131.25,-82 131.25,-82 0,-82"/>
<polygon fill="#666666" stroke="#666666" points="0,-66 0,-66 131.25,-66 131.25,-66 0,-66"/>
<polygon fill="none" stroke="#666666" points="0,0 0,-100 131.25,-100 131.25,0 0,0"/>
</a>
</g>
</g>
<!-- Node2&#45;&gt;Node3 -->
<g id="edge2_Node000002_Node000003" class="edge">
<title>Node2&#45;&gt;Node3</title>
<g id="a_edge2_Node000002_Node000003"><a xlink:title=" ">
<path fill="none" stroke="#63b8ff" d="M65.62,-124.53C65.62,-116.58 65.62,-108.05 65.62,-99.72"/>
<polygon fill="none" stroke="#63b8ff" points="62.13,-124.53 65.63,-134.53 69.13,-124.53 62.13,-124.53"/>
</a>
</g>
</g>
</g>
</svg>
