<?xml version="1.0" encoding="UTF-8" standalone="no"?>
<!DOCTYPE svg PUBLIC "-//W3C//DTD SVG 1.1//EN"
 "http://www.w3.org/Graphics/SVG/1.1/DTD/svg11.dtd">
<!-- Generated by graphviz version 12.2.1 (20241206.2353)
 -->
<!-- Title: Fiea::Engine::ServiceManager::Reset Pages: 1 -->
<svg width="292pt" height="390pt"
 viewBox="0.00 0.00 292.00 390.00" xmlns="http://www.w3.org/2000/svg" xmlns:xlink="http://www.w3.org/1999/xlink">
<g id="graph0" class="graph" transform="scale(1 1) rotate(0) translate(4 386)">
<title>Fiea::Engine::ServiceManager::Reset</title>
<!-- Node1 -->
<g id="Node000001" class="node">
<title>Node1</title>
<g id="a_Node000001"><a xlink:title="This function destroys all the implementations and uses the swap trick to empty the implementations m...">
<polygon fill="#999999" stroke="#666666" points="284,-207 136.75,-207 136.75,-175 284,-175 284,-207"/>
<text text-anchor="start" x="144.75" y="-193.5" font-family="Helvetica,sans-Serif" font-size="10.00">Fiea::Engine::ServiceManager</text>
<text text-anchor="middle" x="210.38" y="-181.5" font-family="Helvetica,sans-Serif" font-size="10.00">::Reset</text>
</a>
</g>
</g>
<!-- Node2 -->
<g id="Node000002" class="node">
<title>Node2</title>
<g id="a_Node000002"><a xlink:href="namespace_fiea_1_1_engine_1_1_tests.html#adb4afc8b6c0011892d9d69c148e45fe5" target="_top" xlink:title=" ">
<polygon fill="white" stroke="#666666" points="100.75,-382 0,-382 0,-350 100.75,-350 100.75,-382"/>
<text text-anchor="start" x="8" y="-368.5" font-family="Helvetica,sans-Serif" font-size="10.00">Fiea::Engine::Tests</text>
<text text-anchor="middle" x="50.38" y="-356.5" font-family="Helvetica,sans-Serif" font-size="10.00">::TEST_CLASS</text>
</a>
</g>
</g>
<!-- Node1&#45;&gt;Node2 -->
<g id="edge1_Node000001_Node000002" class="edge">
<title>Node1&#45;&gt;Node2</title>
<g id="a_edge1_Node000001_Node000002"><a xlink:title=" ">
<path fill="none" stroke="#63b8ff" d="M195.43,-217.48C177.23,-249.99 142.72,-305.19 100.75,-341 97.1,-344.12 92.98,-346.97 88.74,-349.55"/>
<polygon fill="#63b8ff" stroke="#63b8ff" points="198.49,-219.17 200.23,-208.72 192.35,-215.81 198.49,-219.17"/>
</a>
</g>
</g>
<!-- Node3 -->
<g id="Node000003" class="node">
<title>Node3</title>
<g id="a_Node000003"><a xlink:href="namespace_fiea_1_1_engine_1_1_tests.html#aaa7584a8b305871c6cc1d1144266a08f" target="_top" xlink:title=" ">
<polygon fill="white" stroke="#666666" points="100.75,-332 0,-332 0,-300 100.75,-300 100.75,-332"/>
<text text-anchor="start" x="8" y="-318.5" font-family="Helvetica,sans-Serif" font-size="10.00">Fiea::Engine::Tests</text>
<text text-anchor="middle" x="50.38" y="-306.5" font-family="Helvetica,sans-Serif" font-size="10.00">::TEST_CLASS</text>
</a>
</g>
</g>
<!-- Node1&#45;&gt;Node3 -->
<g id="edge2_Node000001_Node000003" class="edge">
<title>Node1&#45;&gt;Node3</title>
<g id="a_edge2_Node000001_Node000003"><a xlink:title=" ">
<path fill="none" stroke="#63b8ff" d="M186.67,-215.43C165.74,-237.05 133.1,-268.56 100.75,-291 96.41,-294.01 91.65,-296.88 86.86,-299.54"/>
<polygon fill="#63b8ff" stroke="#63b8ff" points="188.93,-218.12 193.31,-208.48 183.87,-213.29 188.93,-218.12"/>
</a>
</g>
</g>
<!-- Node4 -->
<g id="Node000004" class="node">
<title>Node4</title>
<g id="a_Node000004"><a xlink:href="namespace_fiea_1_1_engine_1_1_tests.html#acf19d1e24b6e04bb3eefd39b994f462d" target="_top" xlink:title=" ">
<polygon fill="white" stroke="#666666" points="100.75,-282 0,-282 0,-250 100.75,-250 100.75,-282"/>
<text text-anchor="start" x="8" y="-268.5" font-family="Helvetica,sans-Serif" font-size="10.00">Fiea::Engine::Tests</text>
<text text-anchor="middle" x="50.38" y="-256.5" font-family="Helvetica,sans-Serif" font-size="10.00">::TEST_CLASS</text>
</a>
</g>
</g>
<!-- Node1&#45;&gt;Node4 -->
<g id="edge3_Node000001_Node000004" class="edge">
<title>Node1&#45;&gt;Node4</title>
<g id="a_edge3_Node000001_Node000004"><a xlink:title=" ">
<path fill="none" stroke="#63b8ff" d="M164.4,-212.35C139.49,-224.17 109,-238.65 85.97,-249.58"/>
<polygon fill="#63b8ff" stroke="#63b8ff" points="165.8,-215.56 173.33,-208.11 162.8,-209.23 165.8,-215.56"/>
</a>
</g>
</g>
<!-- Node5 -->
<g id="Node000005" class="node">
<title>Node5</title>
<g id="a_Node000005"><a xlink:href="namespace_fiea_1_1_engine_1_1_tests.html#a68f566c6aeab43c3e521cc48e0c08362" target="_top" xlink:title=" ">
<polygon fill="white" stroke="#666666" points="100.75,-232 0,-232 0,-200 100.75,-200 100.75,-232"/>
<text text-anchor="start" x="8" y="-218.5" font-family="Helvetica,sans-Serif" font-size="10.00">Fiea::Engine::Tests</text>
<text text-anchor="middle" x="50.38" y="-206.5" font-family="Helvetica,sans-Serif" font-size="10.00">::TEST_CLASS</text>
</a>
</g>
</g>
<!-- Node1&#45;&gt;Node5 -->
<g id="edge4_Node000001_Node000005" class="edge">
<title>Node1&#45;&gt;Node5</title>
<g id="a_edge4_Node000001_Node000005"><a xlink:title=" ">
<path fill="none" stroke="#63b8ff" d="M125.15,-204.33C116.92,-205.63 108.76,-206.92 101.04,-208.14"/>
<polygon fill="#63b8ff" stroke="#63b8ff" points="125.56,-207.81 134.89,-202.79 124.47,-200.89 125.56,-207.81"/>
</a>
</g>
</g>
<!-- Node6 -->
<g id="Node000006" class="node">
<title>Node6</title>
<g id="a_Node000006"><a xlink:href="namespace_fiea_1_1_engine_1_1_tests.html#ad864e6947de6b37ea85f6860600bafd5" target="_top" xlink:title=" ">
<polygon fill="white" stroke="#666666" points="100.75,-182 0,-182 0,-150 100.75,-150 100.75,-182"/>
<text text-anchor="start" x="8" y="-168.5" font-family="Helvetica,sans-Serif" font-size="10.00">Fiea::Engine::Tests</text>
<text text-anchor="middle" x="50.38" y="-156.5" font-family="Helvetica,sans-Serif" font-size="10.00">::TEST_CLASS</text>
</a>
</g>
</g>
<!-- Node1&#45;&gt;Node6 -->
<g id="edge5_Node000001_Node000006" class="edge">
<title>Node1&#45;&gt;Node6</title>
<g id="a_edge5_Node000001_Node000006"><a xlink:title=" ">
<path fill="none" stroke="#63b8ff" d="M125.15,-177.67C116.92,-176.37 108.76,-175.08 101.04,-173.86"/>
<polygon fill="#63b8ff" stroke="#63b8ff" points="124.47,-181.11 134.89,-179.21 125.56,-174.19 124.47,-181.11"/>
</a>
</g>
</g>
<!-- Node7 -->
<g id="Node000007" class="node">
<title>Node7</title>
<g id="a_Node000007"><a xlink:href="namespace_fiea_1_1_engine_1_1_tests.html#abbe670df47131782f8fb2735809cde52" target="_top" xlink:title=" ">
<polygon fill="white" stroke="#666666" points="100.75,-132 0,-132 0,-100 100.75,-100 100.75,-132"/>
<text text-anchor="start" x="8" y="-118.5" font-family="Helvetica,sans-Serif" font-size="10.00">Fiea::Engine::Tests</text>
<text text-anchor="middle" x="50.38" y="-106.5" font-family="Helvetica,sans-Serif" font-size="10.00">::TEST_CLASS</text>
</a>
</g>
</g>
<!-- Node1&#45;&gt;Node7 -->
<g id="edge6_Node000001_Node000007" class="edge">
<title>Node1&#45;&gt;Node7</title>
<g id="a_edge6_Node000001_Node000007"><a xlink:title=" ">
<path fill="none" stroke="#63b8ff" d="M164.4,-169.65C139.49,-157.83 109,-143.35 85.97,-132.42"/>
<polygon fill="#63b8ff" stroke="#63b8ff" points="162.8,-172.77 173.33,-173.89 165.8,-166.44 162.8,-172.77"/>
</a>
</g>
</g>
<!-- Node8 -->
<g id="Node000008" class="node">
<title>Node8</title>
<g id="a_Node000008"><a xlink:href="namespace_fiea_1_1_engine_1_1_tests.html#abf824a753b0112aae643057c7f756482" target="_top" xlink:title=" ">
<polygon fill="white" stroke="#666666" points="100.75,-82 0,-82 0,-50 100.75,-50 100.75,-82"/>
<text text-anchor="start" x="8" y="-68.5" font-family="Helvetica,sans-Serif" font-size="10.00">Fiea::Engine::Tests</text>
<text text-anchor="middle" x="50.38" y="-56.5" font-family="Helvetica,sans-Serif" font-size="10.00">::TEST_CLASS</text>
</a>
</g>
</g>
<!-- Node1&#45;&gt;Node8 -->
<g id="edge7_Node000001_Node000008" class="edge">
<title>Node1&#45;&gt;Node8</title>
<g id="a_edge7_Node000001_Node000008"><a xlink:title=" ">
<path fill="none" stroke="#63b8ff" d="M186.67,-166.57C165.74,-144.95 133.1,-113.44 100.75,-91 96.41,-87.99 91.65,-85.12 86.86,-82.46"/>
<polygon fill="#63b8ff" stroke="#63b8ff" points="183.87,-168.71 193.31,-173.52 188.93,-163.88 183.87,-168.71"/>
</a>
</g>
</g>
<!-- Node9 -->
<g id="Node000009" class="node">
<title>Node9</title>
<g id="a_Node000009"><a xlink:href="namespace_fiea_1_1_engine_1_1_tests.html#ac5649971ac3bf0ed64a9afba695697bf" target="_top" xlink:title=" ">
<polygon fill="white" stroke="#666666" points="100.75,-32 0,-32 0,0 100.75,0 100.75,-32"/>
<text text-anchor="start" x="8" y="-18.5" font-family="Helvetica,sans-Serif" font-size="10.00">Fiea::Engine::Tests</text>
<text text-anchor="middle" x="50.38" y="-6.5" font-family="Helvetica,sans-Serif" font-size="10.00">::TEST_CLASS</text>
</a>
</g>
</g>
<!-- Node1&#45;&gt;Node9 -->
<g id="edge8_Node000001_Node000009" class="edge">
<title>Node1&#45;&gt;Node9</title>
<g id="a_edge8_Node000001_Node000009"><a xlink:title=" ">
<path fill="none" stroke="#63b8ff" d="M195.43,-164.52C177.23,-132.01 142.72,-76.81 100.75,-41 97.1,-37.88 92.98,-35.03 88.74,-32.45"/>
<polygon fill="#63b8ff" stroke="#63b8ff" points="192.35,-166.19 200.23,-173.28 198.49,-162.83 192.35,-166.19"/>
</a>
</g>
</g>
</g>
</svg>
