<?xml version="1.0" encoding="UTF-8" standalone="no"?>
<!DOCTYPE svg PUBLIC "-//W3C//DTD SVG 1.1//EN"
 "http://www.w3.org/Graphics/SVG/1.1/DTD/svg11.dtd">
<!-- Generated by graphviz version 12.2.1 (20241206.2353)
 -->
<!-- Title: Fiea::Engine::Content::IJsonParser Pages: 1 -->
<svg width="160pt" height="332pt"
 viewBox="0.00 0.00 160.25 332.00" xmlns="http://www.w3.org/2000/svg" xmlns:xlink="http://www.w3.org/1999/xlink">
<g id="graph0" class="graph" transform="scale(1 1) rotate(0) translate(4 328)">
<title>Fiea::Engine::Content::IJsonParser</title>
<!-- Node1 -->
<g id="Node000001" class="node">
<title>Node1</title>
<g id="a_Node000001"><a xlink:title=" ">
<polygon fill="#999999" stroke="none" points="152.25,-324 0,-324 0,-228 152.25,-228 152.25,-324"/>
<text text-anchor="start" x="28.5" y="-310.5" font-family="Helvetica,sans-Serif" font-size="10.00">Fiea::Engine::Content</text>
<text text-anchor="start" x="46.88" y="-298.5" font-family="Helvetica,sans-Serif" font-size="10.00">::IJsonParser</text>
<text text-anchor="start" x="4" y="-282.5" font-family="Helvetica,sans-Serif" font-size="10.00">+</text>
<text text-anchor="start" x="14" y="-282.5" font-family="Helvetica,sans-Serif" font-size="10.00">FIEA_SERVICE_INTERFACE</text>
<text text-anchor="start" x="4" y="-266.5" font-family="Helvetica,sans-Serif" font-size="10.00">+</text>
<text text-anchor="start" x="14" y="-266.5" font-family="Helvetica,sans-Serif" font-size="10.00">Deserialize()</text>
<text text-anchor="start" x="4" y="-250.5" font-family="Helvetica,sans-Serif" font-size="10.00">+</text>
<text text-anchor="start" x="14" y="-250.5" font-family="Helvetica,sans-Serif" font-size="10.00">Deserialize()</text>
<text text-anchor="start" x="4" y="-234.5" font-family="Helvetica,sans-Serif" font-size="10.00">+</text>
<text text-anchor="start" x="14" y="-234.5" font-family="Helvetica,sans-Serif" font-size="10.00">DeserializeFromFile()</text>
<polygon fill="#666666" stroke="#666666" points="0,-294 0,-294 152.25,-294 152.25,-294 0,-294"/>
<polygon fill="#666666" stroke="#666666" points="0,-278 0,-278 12,-278 12,-278 0,-278"/>
<polygon fill="#666666" stroke="#666666" points="12,-278 12,-278 152.25,-278 152.25,-278 12,-278"/>
<polygon fill="none" stroke="#666666" points="0,-228 0,-324 152.25,-324 152.25,-228 0,-228"/>
</a>
</g>
</g>
<!-- Node2 -->
<g id="Node000002" class="node">
<title>Node2</title>
<g id="a_Node000002"><a xlink:href="class_fiea_1_1_engine_1_1_content_1_1_content_service.html" target="_top" xlink:title=" ">
<polygon fill="white" stroke="none" points="139.88,-192 12.38,-192 12.38,0 139.88,0 139.88,-192"/>
<text text-anchor="start" x="28.5" y="-178.5" font-family="Helvetica,sans-Serif" font-size="10.00">Fiea::Engine::Content</text>
<text text-anchor="start" x="39.38" y="-166.5" font-family="Helvetica,sans-Serif" font-size="10.00">::ContentService</text>
<text text-anchor="start" x="74.62" y="-150.5" font-family="Helvetica,sans-Serif" font-size="10.00"> </text>
<text text-anchor="start" x="16.38" y="-134.5" font-family="Helvetica,sans-Serif" font-size="10.00">+</text>
<text text-anchor="start" x="26.38" y="-134.5" font-family="Helvetica,sans-Serif" font-size="10.00">ContentService()</text>
<text text-anchor="start" x="16.38" y="-118.5" font-family="Helvetica,sans-Serif" font-size="10.00">+</text>
<text text-anchor="start" x="26.38" y="-118.5" font-family="Helvetica,sans-Serif" font-size="10.00">~ContentService()</text>
<text text-anchor="start" x="16.38" y="-102.5" font-family="Helvetica,sans-Serif" font-size="10.00">+</text>
<text text-anchor="start" x="26.38" y="-102.5" font-family="Helvetica,sans-Serif" font-size="10.00">RegisterClassDefinition()</text>
<text text-anchor="start" x="16.38" y="-86.5" font-family="Helvetica,sans-Serif" font-size="10.00">+</text>
<text text-anchor="start" x="26.38" y="-86.5" font-family="Helvetica,sans-Serif" font-size="10.00">RetrieveClassDefinition()</text>
<text text-anchor="start" x="16.38" y="-70.5" font-family="Helvetica,sans-Serif" font-size="10.00">+</text>
<text text-anchor="start" x="26.38" y="-70.5" font-family="Helvetica,sans-Serif" font-size="10.00">AddHandler()</text>
<text text-anchor="start" x="16.38" y="-54.5" font-family="Helvetica,sans-Serif" font-size="10.00">+</text>
<text text-anchor="start" x="26.38" y="-54.5" font-family="Helvetica,sans-Serif" font-size="10.00">RemoveHandler()</text>
<text text-anchor="start" x="16.38" y="-38.5" font-family="Helvetica,sans-Serif" font-size="10.00">+</text>
<text text-anchor="start" x="26.38" y="-38.5" font-family="Helvetica,sans-Serif" font-size="10.00">Deserialize()</text>
<text text-anchor="start" x="16.38" y="-22.5" font-family="Helvetica,sans-Serif" font-size="10.00">+</text>
<text text-anchor="start" x="26.38" y="-22.5" font-family="Helvetica,sans-Serif" font-size="10.00">Deserialize()</text>
<text text-anchor="start" x="16.38" y="-6.5" font-family="Helvetica,sans-Serif" font-size="10.00">+</text>
<text text-anchor="start" x="26.38" y="-6.5" font-family="Helvetica,sans-Serif" font-size="10.00">DeserializeFromFile()</text>
<polygon fill="#666666" stroke="#666666" points="12.38,-162 12.38,-162 139.88,-162 139.88,-162 12.38,-162"/>
<polygon fill="#666666" stroke="#666666" points="12.38,-146 12.38,-146 139.88,-146 139.88,-146 12.38,-146"/>
<polygon fill="none" stroke="#666666" points="12.38,0 12.38,-192 139.88,-192 139.88,0 12.38,0"/>
</a>
</g>
</g>
<!-- Node1&#45;&gt;Node2 -->
<g id="edge1_Node000001_Node000002" class="edge">
<title>Node1&#45;&gt;Node2</title>
<g id="a_edge1_Node000001_Node000002"><a xlink:title=" ">
<path fill="none" stroke="#63b8ff" d="M76.12,-216.73C76.12,-208.67 76.12,-200.22 76.12,-191.71"/>
<polygon fill="none" stroke="#63b8ff" points="72.63,-216.72 76.13,-226.72 79.63,-216.72 72.63,-216.72"/>
</a>
</g>
</g>
</g>
</svg>
