<?xml version="1.0" encoding="UTF-8" standalone="no"?>
<!DOCTYPE svg PUBLIC "-//W3C//DTD SVG 1.1//EN"
 "http://www.w3.org/Graphics/SVG/1.1/DTD/svg11.dtd">
<!-- Generated by graphviz version 12.2.1 (20241206.2353)
 -->
<!-- Title: FieaAbortException Pages: 1 -->
<svg width="118pt" height="148pt"
 viewBox="0.00 0.00 117.50 148.00" xmlns="http://www.w3.org/2000/svg" xmlns:xlink="http://www.w3.org/1999/xlink">
<g id="graph0" class="graph" transform="scale(1 1) rotate(0) translate(4 144)">
<title>FieaAbortException</title>
<!-- Node1 -->
<g id="Node000001" class="node">
<title>Node1</title>
<g id="a_Node000001"><a xlink:title=" ">
<polygon fill="#999999" stroke="none" points="109.5,-52 0,-52 0,0 109.5,0 109.5,-52"/>
<text text-anchor="start" x="12" y="-38.5" font-family="Helvetica,sans-Serif" font-size="10.00">FieaAbortException</text>
<text text-anchor="start" x="53.25" y="-22.5" font-family="Helvetica,sans-Serif" font-size="10.00"> </text>
<text text-anchor="start" x="4" y="-6.5" font-family="Helvetica,sans-Serif" font-size="10.00">+</text>
<text text-anchor="start" x="14" y="-6.5" font-family="Helvetica,sans-Serif" font-size="10.00">FieaAbortException()</text>
<polygon fill="#666666" stroke="#666666" points="0,-34 0,-34 109.5,-34 109.5,-34 0,-34"/>
<polygon fill="#666666" stroke="#666666" points="0,-18 0,-18 109.5,-18 109.5,-18 0,-18"/>
<polygon fill="none" stroke="#666666" points="0,0 0,-52 109.5,-52 109.5,0 0,0"/>
</a>
</g>
</g>
<!-- Node2 -->
<g id="Node000002" class="node">
<title>Node2</title>
<g id="a_Node000002"><a xlink:title=" ">
<polygon fill="white" stroke="none" points="89.5,-140 20,-140 20,-88 89.5,-88 89.5,-140"/>
<text text-anchor="start" x="24" y="-126.5" font-family="Helvetica,sans-Serif" font-size="10.00">std::exception</text>
<text text-anchor="start" x="53.25" y="-110.5" font-family="Helvetica,sans-Serif" font-size="10.00"> </text>
<text text-anchor="start" x="53.25" y="-94.5" font-family="Helvetica,sans-Serif" font-size="10.00"> </text>
<polygon fill="#666666" stroke="#666666" points="20,-122 20,-122 89.5,-122 89.5,-122 20,-122"/>
<polygon fill="#666666" stroke="#666666" points="20,-106 20,-106 89.5,-106 89.5,-106 20,-106"/>
<polygon fill="none" stroke="#666666" points="20,-88 20,-140 89.5,-140 89.5,-88 20,-88"/>
</a>
</g>
</g>
<!-- Node2&#45;&gt;Node1 -->
<g id="edge1_Node000001_Node000002" class="edge">
<title>Node2&#45;&gt;Node1</title>
<g id="a_edge1_Node000001_Node000002"><a xlink:title=" ">
<path fill="none" stroke="#63b8ff" d="M54.75,-76.66C54.75,-68.29 54.75,-59.57 54.75,-51.82"/>
<polygon fill="none" stroke="#63b8ff" points="51.25,-76.61 54.75,-86.61 58.25,-76.61 51.25,-76.61"/>
</a>
</g>
</g>
</g>
</svg>
