<?xml version="1.0" encoding="UTF-8" standalone="no"?>
<!DOCTYPE svg PUBLIC "-//W3C//DTD SVG 1.1//EN"
 "http://www.w3.org/Graphics/SVG/1.1/DTD/svg11.dtd">
<!-- Generated by graphviz version 12.2.1 (20241206.2353)
 -->
<!-- Title: Fiea::Engine::Content::ParseWriter::Blackboard Pages: 1 -->
<svg width="128pt" height="120pt"
 viewBox="0.00 0.00 127.75 120.00" xmlns="http://www.w3.org/2000/svg" xmlns:xlink="http://www.w3.org/1999/xlink">
<g id="graph0" class="graph" transform="scale(1 1) rotate(0) translate(4 116)">
<title>Fiea::Engine::Content::ParseWriter::Blackboard</title>
<!-- Node1 -->
<g id="Node000001" class="node">
<title>Node1</title>
<g id="a_Node000001"><a xlink:title="We need this data because the Parser has no knowledge of which handler is which is which....">
<polygon fill="#999999" stroke="none" points="119.75,-112 0,-112 0,0 119.75,0 119.75,-112"/>
<text text-anchor="start" x="4" y="-98.5" font-family="Helvetica,sans-Serif" font-size="10.00">Fiea::Engine::Content</text>
<text text-anchor="start" x="4" y="-86.5" font-family="Helvetica,sans-Serif" font-size="10.00">::ParseWriter::Blackboard</text>
<text text-anchor="start" x="58.38" y="-70.5" font-family="Helvetica,sans-Serif" font-size="10.00"> </text>
<text text-anchor="start" x="5.06" y="-54.5" font-family="Helvetica,sans-Serif" font-size="10.00">+</text>
<text text-anchor="start" x="16.12" y="-54.5" font-family="Helvetica,sans-Serif" font-size="10.00">EnterTrackingInfo()</text>
<text text-anchor="start" x="5.06" y="-38.5" font-family="Helvetica,sans-Serif" font-size="10.00">+</text>
<text text-anchor="start" x="16.12" y="-38.5" font-family="Helvetica,sans-Serif" font-size="10.00">IsHandlerInProgress()</text>
<text text-anchor="start" x="5.06" y="-22.5" font-family="Helvetica,sans-Serif" font-size="10.00">+</text>
<text text-anchor="start" x="16.12" y="-22.5" font-family="Helvetica,sans-Serif" font-size="10.00">PopCurrentHandlerId()</text>
<text text-anchor="start" x="5.06" y="-6.5" font-family="Helvetica,sans-Serif" font-size="10.00">+</text>
<text text-anchor="start" x="16.12" y="-6.5" font-family="Helvetica,sans-Serif" font-size="10.00">Reset()</text>
<polygon fill="#666666" stroke="#666666" points="0,-82 0,-82 119.75,-82 119.75,-82 0,-82"/>
<polygon fill="#666666" stroke="#666666" points="0,-66 0,-66 119.75,-66 119.75,-66 0,-66"/>
<polygon fill="none" stroke="#666666" points="0,0 0,-112 119.75,-112 119.75,0 0,0"/>
</a>
</g>
</g>
</g>
</svg>
