<?xml version="1.0" encoding="UTF-8" standalone="no"?>
<!DOCTYPE svg PUBLIC "-//W3C//DTD SVG 1.1//EN"
 "http://www.w3.org/Graphics/SVG/1.1/DTD/svg11.dtd">
<!-- Generated by graphviz version 12.2.1 (20241206.2353)
 -->
<!-- Title: Fiea::Engine::Memory::Allocator Pages: 1 -->
<svg width="112pt" height="136pt"
 viewBox="0.00 0.00 112.00 136.00" xmlns="http://www.w3.org/2000/svg" xmlns:xlink="http://www.w3.org/1999/xlink">
<g id="graph0" class="graph" transform="scale(1 1) rotate(0) translate(4 132)">
<title>Fiea::Engine::Memory::Allocator</title>
<!-- Node1 -->
<g id="Node000001" class="node">
<title>Node1</title>
<g id="a_Node000001"><a xlink:title=" ">
<polygon fill="#999999" stroke="none" points="104,-128 0,-128 0,0 104,0 104,-128"/>
<text text-anchor="start" x="4" y="-114.5" font-family="Helvetica,sans-Serif" font-size="10.00">Fiea::Engine::Memory</text>
<text text-anchor="start" x="29.88" y="-102.5" font-family="Helvetica,sans-Serif" font-size="10.00">::Allocator</text>
<text text-anchor="start" x="50.5" y="-86.5" font-family="Helvetica,sans-Serif" font-size="10.00"> </text>
<text text-anchor="start" x="12.94" y="-70.5" font-family="Helvetica,sans-Serif" font-size="10.00">+</text>
<text text-anchor="start" x="31.88" y="-70.5" font-family="Helvetica,sans-Serif" font-size="10.00">Alloc()</text>
<text text-anchor="start" x="12.94" y="-54.5" font-family="Helvetica,sans-Serif" font-size="10.00">+</text>
<text text-anchor="start" x="31.88" y="-54.5" font-family="Helvetica,sans-Serif" font-size="10.00">Free()</text>
<text text-anchor="start" x="12.94" y="-38.5" font-family="Helvetica,sans-Serif" font-size="10.00">+</text>
<text text-anchor="start" x="31.88" y="-38.5" font-family="Helvetica,sans-Serif" font-size="10.00">Allocator()</text>
<text text-anchor="start" x="12.94" y="-22.5" font-family="Helvetica,sans-Serif" font-size="10.00">+</text>
<text text-anchor="start" x="31.88" y="-22.5" font-family="Helvetica,sans-Serif" font-size="10.00">operator=()</text>
<text text-anchor="start" x="12.94" y="-6.5" font-family="Helvetica,sans-Serif" font-size="10.00">+</text>
<text text-anchor="start" x="31.88" y="-6.5" font-family="Helvetica,sans-Serif" font-size="10.00">~Allocator()</text>
<polygon fill="#666666" stroke="#666666" points="0,-98 0,-98 104,-98 104,-98 0,-98"/>
<polygon fill="#666666" stroke="#666666" points="0,-82 0,-82 104,-82 104,-82 0,-82"/>
<polygon fill="none" stroke="#666666" points="0,0 0,-128 104,-128 104,0 0,0"/>
</a>
</g>
</g>
</g>
</svg>
