<?xml version="1.0" encoding="UTF-8" standalone="no"?>
<!DOCTYPE svg PUBLIC "-//W3C//DTD SVG 1.1//EN"
 "http://www.w3.org/Graphics/SVG/1.1/DTD/svg11.dtd">
<!-- Generated by graphviz version 12.2.1 (20241206.2353)
 -->
<!-- Title: Fiea::Engine::Singleton&lt; T, CreateIfNull &gt; Pages: 1 -->
<svg width="117pt" height="120pt"
 viewBox="0.00 0.00 117.25 120.00" xmlns="http://www.w3.org/2000/svg" xmlns:xlink="http://www.w3.org/1999/xlink">
<g id="graph0" class="graph" transform="scale(1 1) rotate(0) translate(4 116)">
<title>Fiea::Engine::Singleton&lt; T, CreateIfNull &gt;</title>
<!-- Node1 -->
<g id="Node000001" class="node">
<title>Node1</title>
<g id="a_Node000001"><a xlink:title=" ">
<polygon fill="#999999" stroke="none" points="109.25,-112 0,-112 0,0 109.25,0 109.25,-112"/>
<text text-anchor="start" x="4" y="-98.5" font-family="Helvetica,sans-Serif" font-size="10.00">Fiea::Engine::Singleton</text>
<text text-anchor="start" x="14.12" y="-86.5" font-family="Helvetica,sans-Serif" font-size="10.00">&lt; T, CreateIfNull &gt;</text>
<text text-anchor="start" x="16.31" y="-70.5" font-family="Helvetica,sans-Serif" font-size="10.00">#</text>
<text text-anchor="start" x="37.88" y="-70.5" font-family="Helvetica,sans-Serif" font-size="10.00">_Instance</text>
<text text-anchor="start" x="15.94" y="-54.5" font-family="Helvetica,sans-Serif" font-size="10.00">+</text>
<text text-anchor="start" x="37.88" y="-54.5" font-family="Helvetica,sans-Serif" font-size="10.00">Create()</text>
<text text-anchor="start" x="15.94" y="-38.5" font-family="Helvetica,sans-Serif" font-size="10.00">+</text>
<text text-anchor="start" x="37.88" y="-38.5" font-family="Helvetica,sans-Serif" font-size="10.00">Destroy()</text>
<text text-anchor="start" x="15.94" y="-22.5" font-family="Helvetica,sans-Serif" font-size="10.00">+</text>
<text text-anchor="start" x="37.88" y="-22.5" font-family="Helvetica,sans-Serif" font-size="10.00">Instance()</text>
<text text-anchor="start" x="15.94" y="-6.5" font-family="Helvetica,sans-Serif" font-size="10.00">+</text>
<text text-anchor="start" x="37.88" y="-6.5" font-family="Helvetica,sans-Serif" font-size="10.00">Exists()</text>
<polygon fill="#666666" stroke="#666666" points="0,-82 0,-82 109.25,-82 109.25,-82 0,-82"/>
<polygon fill="#666666" stroke="#666666" points="0,-66 0,-66 35.88,-66 35.88,-66 0,-66"/>
<polygon fill="#666666" stroke="#666666" points="35.88,-66 35.88,-66 109.25,-66 109.25,-66 35.88,-66"/>
<polygon fill="none" stroke="#666666" points="0,0 0,-112 109.25,-112 109.25,0 0,0"/>
</a>
</g>
</g>
</g>
</svg>
