<?xml version="1.0" encoding="UTF-8" standalone="no"?>
<!DOCTYPE svg PUBLIC "-//W3C//DTD SVG 1.1//EN"
 "http://www.w3.org/Graphics/SVG/1.1/DTD/svg11.dtd">
<!-- Generated by graphviz version 12.2.1 (20241206.2353)
 -->
<!-- Title: Fiea::Engine::Content::ScopeWriter::ExternalDataTeller Pages: 1 -->
<svg width="138pt" height="132pt"
 viewBox="0.00 0.00 138.25 132.00" xmlns="http://www.w3.org/2000/svg" xmlns:xlink="http://www.w3.org/1999/xlink">
<g id="graph0" class="graph" transform="scale(1 1) rotate(0) translate(4 128)">
<title>Fiea::Engine::Content::ScopeWriter::ExternalDataTeller</title>
<!-- Node1 -->
<g id="Node000001" class="node">
<title>Node1</title>
<g id="a_Node000001"><a xlink:title=" ">
<polygon fill="#999999" stroke="none" points="130.25,-124 0,-124 0,0 130.25,0 130.25,-124"/>
<text text-anchor="start" x="4" y="-110.5" font-family="Helvetica,sans-Serif" font-size="10.00">Fiea::Engine::Content</text>
<text text-anchor="start" x="4" y="-98.5" font-family="Helvetica,sans-Serif" font-size="10.00">::ScopeWriter::ExternalData</text>
<text text-anchor="start" x="53.5" y="-86.5" font-family="Helvetica,sans-Serif" font-size="10.00">Teller</text>
<text text-anchor="start" x="19.31" y="-70.5" font-family="Helvetica,sans-Serif" font-size="10.00">+</text>
<text text-anchor="start" x="44.62" y="-70.5" font-family="Helvetica,sans-Serif" font-size="10.00">_HandlerId</text>
<text text-anchor="start" x="19.31" y="-54.5" font-family="Helvetica,sans-Serif" font-size="10.00">+</text>
<text text-anchor="start" x="44.62" y="-54.5" font-family="Helvetica,sans-Serif" font-size="10.00">_CurrentIdx</text>
<text text-anchor="start" x="19.31" y="-38.5" font-family="Helvetica,sans-Serif" font-size="10.00">+</text>
<text text-anchor="start" x="44.62" y="-38.5" font-family="Helvetica,sans-Serif" font-size="10.00">_Size</text>
<text text-anchor="start" x="19.31" y="-22.5" font-family="Helvetica,sans-Serif" font-size="10.00">+</text>
<text text-anchor="start" x="44.62" y="-22.5" font-family="Helvetica,sans-Serif" font-size="10.00">_IsExtern</text>
<text text-anchor="start" x="63.62" y="-6.5" font-family="Helvetica,sans-Serif" font-size="10.00"> </text>
<polygon fill="#666666" stroke="#666666" points="0,-82 0,-82 130.25,-82 130.25,-82 0,-82"/>
<polygon fill="#666666" stroke="#666666" points="0,-18 0,-18 42.62,-18 42.62,-18 0,-18"/>
<polygon fill="#666666" stroke="#666666" points="42.62,-18 42.62,-18 130.25,-18 130.25,-18 42.62,-18"/>
<polygon fill="none" stroke="#666666" points="0,0 0,-124 130.25,-124 130.25,0 0,0"/>
</a>
</g>
</g>
</g>
</svg>
