<?xml version="1.0" encoding="UTF-8" standalone="no"?>
<!DOCTYPE svg PUBLIC "-//W3C//DTD SVG 1.1//EN"
 "http://www.w3.org/Graphics/SVG/1.1/DTD/svg11.dtd">
<!-- Generated by graphviz version 12.2.1 (20241206.2353)
 -->
<!-- Title: Fiea::Engine::IAbstractFactory&lt; BaseType &gt; Pages: 1 -->
<svg width="150pt" height="456pt"
 viewBox="0.00 0.00 149.50 456.00" xmlns="http://www.w3.org/2000/svg" xmlns:xlink="http://www.w3.org/1999/xlink">
<g id="graph0" class="graph" transform="scale(1 1) rotate(0) translate(4 452)">
<title>Fiea::Engine::IAbstractFactory&lt; BaseType &gt;</title>
<!-- Node1 -->
<g id="Node000001" class="node">
<title>Node1</title>
<g id="a_Node000001"><a xlink:title=" ">
<polygon fill="#999999" stroke="none" points="141.5,-80 0,-80 0,0 141.5,0 141.5,-80"/>
<text text-anchor="start" x="4" y="-66.5" font-family="Helvetica,sans-Serif" font-size="10.00">Fiea::Engine::IAbstractFactory</text>
<text text-anchor="start" x="40" y="-54.5" font-family="Helvetica,sans-Serif" font-size="10.00">&lt; BaseType &gt;</text>
<text text-anchor="start" x="69.25" y="-38.5" font-family="Helvetica,sans-Serif" font-size="10.00"> </text>
<text text-anchor="start" x="7.12" y="-22.5" font-family="Helvetica,sans-Serif" font-size="10.00">+</text>
<text text-anchor="start" x="20.25" y="-22.5" font-family="Helvetica,sans-Serif" font-size="10.00">RTTI_DECLARATIONS()</text>
<text text-anchor="start" x="7.12" y="-6.5" font-family="Helvetica,sans-Serif" font-size="10.00">+</text>
<text text-anchor="start" x="20.25" y="-6.5" font-family="Helvetica,sans-Serif" font-size="10.00">Create()</text>
<polygon fill="#666666" stroke="#666666" points="0,-50 0,-50 141.5,-50 141.5,-50 0,-50"/>
<polygon fill="#666666" stroke="#666666" points="0,-34 0,-34 141.5,-34 141.5,-34 0,-34"/>
<polygon fill="none" stroke="#666666" points="0,0 0,-80 141.5,-80 141.5,0 0,0"/>
</a>
</g>
</g>
<!-- Node2 -->
<g id="Node000002" class="node">
<title>Node2</title>
<g id="a_Node000002"><a xlink:href="struct_fiea_1_1_engine_1_1_i_factory_base.html" target="_top" xlink:title=" ">
<polygon fill="white" stroke="none" points="135.25,-184 6.25,-184 6.25,-116 135.25,-116 135.25,-184"/>
<text text-anchor="start" x="11.12" y="-170.5" font-family="Helvetica,sans-Serif" font-size="10.00">Fiea::Engine::IFactoryBase</text>
<text text-anchor="start" x="69.25" y="-154.5" font-family="Helvetica,sans-Serif" font-size="10.00"> </text>
<text text-anchor="start" x="10.25" y="-138.5" font-family="Helvetica,sans-Serif" font-size="10.00">+</text>
<text text-anchor="start" x="20.25" y="-138.5" font-family="Helvetica,sans-Serif" font-size="10.00">RTTI_DECLARATIONS()</text>
<text text-anchor="start" x="10.25" y="-122.5" font-family="Helvetica,sans-Serif" font-size="10.00">+</text>
<text text-anchor="start" x="20.25" y="-122.5" font-family="Helvetica,sans-Serif" font-size="10.00">GetProductName()</text>
<polygon fill="#666666" stroke="#666666" points="6.25,-166 6.25,-166 135.25,-166 135.25,-166 6.25,-166"/>
<polygon fill="#666666" stroke="#666666" points="6.25,-150 6.25,-150 135.25,-150 135.25,-150 6.25,-150"/>
<polygon fill="none" stroke="#666666" points="6.25,-116 6.25,-184 135.25,-184 135.25,-116 6.25,-116"/>
</a>
</g>
</g>
<!-- Node2&#45;&gt;Node1 -->
<g id="edge1_Node000001_Node000002" class="edge">
<title>Node2&#45;&gt;Node1</title>
<g id="a_edge1_Node000001_Node000002"><a xlink:title=" ">
<path fill="none" stroke="#63b8ff" d="M70.75,-104.67C70.75,-96.44 70.75,-87.91 70.75,-79.86"/>
<polygon fill="none" stroke="#63b8ff" points="67.25,-104.5 70.75,-114.5 74.25,-104.5 67.25,-104.5"/>
</a>
</g>
</g>
<!-- Node3 -->
<g id="Node000003" class="node">
<title>Node3</title>
<g id="a_Node000003"><a xlink:href="class_fiea_1_1_engine_1_1_r_t_t_i.html" target="_top" xlink:title=" ">
<polygon fill="white" stroke="none" points="116.12,-448 25.38,-448 25.38,-220 116.12,-220 116.12,-448"/>
<text text-anchor="start" x="29.5" y="-434.5" font-family="Helvetica,sans-Serif" font-size="10.00">Fiea::Engine::RTTI</text>
<text text-anchor="start" x="69.25" y="-418.5" font-family="Helvetica,sans-Serif" font-size="10.00"> </text>
<text text-anchor="start" x="29.38" y="-402.5" font-family="Helvetica,sans-Serif" font-size="10.00">+</text>
<text text-anchor="start" x="39.38" y="-402.5" font-family="Helvetica,sans-Serif" font-size="10.00">RTTI()</text>
<text text-anchor="start" x="29.38" y="-386.5" font-family="Helvetica,sans-Serif" font-size="10.00">+</text>
<text text-anchor="start" x="39.38" y="-386.5" font-family="Helvetica,sans-Serif" font-size="10.00">RTTI()</text>
<text text-anchor="start" x="29.38" y="-370.5" font-family="Helvetica,sans-Serif" font-size="10.00">+</text>
<text text-anchor="start" x="39.38" y="-370.5" font-family="Helvetica,sans-Serif" font-size="10.00">operator=()</text>
<text text-anchor="start" x="29.38" y="-354.5" font-family="Helvetica,sans-Serif" font-size="10.00">+</text>
<text text-anchor="start" x="39.38" y="-354.5" font-family="Helvetica,sans-Serif" font-size="10.00">RTTI()</text>
<text text-anchor="start" x="29.38" y="-338.5" font-family="Helvetica,sans-Serif" font-size="10.00">+</text>
<text text-anchor="start" x="39.38" y="-338.5" font-family="Helvetica,sans-Serif" font-size="10.00">operator=()</text>
<text text-anchor="start" x="29.38" y="-322.5" font-family="Helvetica,sans-Serif" font-size="10.00">+</text>
<text text-anchor="start" x="39.38" y="-322.5" font-family="Helvetica,sans-Serif" font-size="10.00">~RTTI()</text>
<text text-anchor="start" x="29.38" y="-306.5" font-family="Helvetica,sans-Serif" font-size="10.00">+</text>
<text text-anchor="start" x="39.38" y="-306.5" font-family="Helvetica,sans-Serif" font-size="10.00">TypeIdInstance()</text>
<text text-anchor="start" x="29.38" y="-290.5" font-family="Helvetica,sans-Serif" font-size="10.00">+</text>
<text text-anchor="start" x="39.38" y="-290.5" font-family="Helvetica,sans-Serif" font-size="10.00">Is()</text>
<text text-anchor="start" x="29.38" y="-274.5" font-family="Helvetica,sans-Serif" font-size="10.00">+</text>
<text text-anchor="start" x="39.38" y="-274.5" font-family="Helvetica,sans-Serif" font-size="10.00">As()</text>
<text text-anchor="start" x="29.38" y="-258.5" font-family="Helvetica,sans-Serif" font-size="10.00">+</text>
<text text-anchor="start" x="39.38" y="-258.5" font-family="Helvetica,sans-Serif" font-size="10.00">As()</text>
<text text-anchor="start" x="29.38" y="-242.5" font-family="Helvetica,sans-Serif" font-size="10.00">+</text>
<text text-anchor="start" x="39.38" y="-242.5" font-family="Helvetica,sans-Serif" font-size="10.00">ToString()</text>
<text text-anchor="start" x="29.38" y="-226.5" font-family="Helvetica,sans-Serif" font-size="10.00">+</text>
<text text-anchor="start" x="39.38" y="-226.5" font-family="Helvetica,sans-Serif" font-size="10.00">Equals()</text>
<polygon fill="#666666" stroke="#666666" points="25.38,-430 25.38,-430 116.12,-430 116.12,-430 25.38,-430"/>
<polygon fill="#666666" stroke="#666666" points="25.38,-414 25.38,-414 116.12,-414 116.12,-414 25.38,-414"/>
<polygon fill="none" stroke="#666666" points="25.38,-220 25.38,-448 116.12,-448 116.12,-220 25.38,-220"/>
</a>
</g>
</g>
<!-- Node3&#45;&gt;Node2 -->
<g id="edge2_Node000002_Node000003" class="edge">
<title>Node3&#45;&gt;Node2</title>
<g id="a_edge2_Node000002_Node000003"><a xlink:title=" ">
<path fill="none" stroke="#63b8ff" d="M70.75,-208.64C70.75,-199.81 70.75,-191.46 70.75,-184"/>
<polygon fill="none" stroke="#63b8ff" points="67.25,-208.55 70.75,-218.55 74.25,-208.55 67.25,-208.55"/>
</a>
</g>
</g>
</g>
</svg>
