<?xml version="1.0" encoding="UTF-8" standalone="no"?>
<!DOCTYPE svg PUBLIC "-//W3C//DTD SVG 1.1//EN"
 "http://www.w3.org/Graphics/SVG/1.1/DTD/svg11.dtd">
<!-- Generated by graphviz version 12.2.1 (20241206.2353)
 -->
<!-- Title: Fiea::Engine::Content::ITypeRegistrar Pages: 1 -->
<svg width="136pt" height="316pt"
 viewBox="0.00 0.00 135.50 316.00" xmlns="http://www.w3.org/2000/svg" xmlns:xlink="http://www.w3.org/1999/xlink">
<g id="graph0" class="graph" transform="scale(1 1) rotate(0) translate(4 312)">
<title>Fiea::Engine::Content::ITypeRegistrar</title>
<!-- Node1 -->
<g id="Node000001" class="node">
<title>Node1</title>
<g id="a_Node000001"><a xlink:title=" ">
<polygon fill="#999999" stroke="none" points="127.5,-308 0,-308 0,-228 127.5,-228 127.5,-308"/>
<text text-anchor="start" x="16.12" y="-294.5" font-family="Helvetica,sans-Serif" font-size="10.00">Fiea::Engine::Content</text>
<text text-anchor="start" x="28.88" y="-282.5" font-family="Helvetica,sans-Serif" font-size="10.00">::ITypeRegistrar</text>
<text text-anchor="start" x="62.25" y="-266.5" font-family="Helvetica,sans-Serif" font-size="10.00"> </text>
<text text-anchor="start" x="4" y="-250.5" font-family="Helvetica,sans-Serif" font-size="10.00">+</text>
<text text-anchor="start" x="14" y="-250.5" font-family="Helvetica,sans-Serif" font-size="10.00">RegisterClassDefinition()</text>
<text text-anchor="start" x="4" y="-234.5" font-family="Helvetica,sans-Serif" font-size="10.00">+</text>
<text text-anchor="start" x="14" y="-234.5" font-family="Helvetica,sans-Serif" font-size="10.00">GetInterfaceId()</text>
<polygon fill="#666666" stroke="#666666" points="0,-278 0,-278 127.5,-278 127.5,-278 0,-278"/>
<polygon fill="#666666" stroke="#666666" points="0,-262 0,-262 127.5,-262 127.5,-262 0,-262"/>
<polygon fill="none" stroke="#666666" points="0,-228 0,-308 127.5,-308 127.5,-228 0,-228"/>
</a>
</g>
</g>
<!-- Node2 -->
<g id="Node000002" class="node">
<title>Node2</title>
<g id="a_Node000002"><a xlink:href="class_fiea_1_1_engine_1_1_content_1_1_content_service.html" target="_top" xlink:title=" ">
<polygon fill="white" stroke="none" points="127.5,-192 0,-192 0,0 127.5,0 127.5,-192"/>
<text text-anchor="start" x="16.12" y="-178.5" font-family="Helvetica,sans-Serif" font-size="10.00">Fiea::Engine::Content</text>
<text text-anchor="start" x="27" y="-166.5" font-family="Helvetica,sans-Serif" font-size="10.00">::ContentService</text>
<text text-anchor="start" x="62.25" y="-150.5" font-family="Helvetica,sans-Serif" font-size="10.00"> </text>
<text text-anchor="start" x="4" y="-134.5" font-family="Helvetica,sans-Serif" font-size="10.00">+</text>
<text text-anchor="start" x="14" y="-134.5" font-family="Helvetica,sans-Serif" font-size="10.00">ContentService()</text>
<text text-anchor="start" x="4" y="-118.5" font-family="Helvetica,sans-Serif" font-size="10.00">+</text>
<text text-anchor="start" x="14" y="-118.5" font-family="Helvetica,sans-Serif" font-size="10.00">~ContentService()</text>
<text text-anchor="start" x="4" y="-102.5" font-family="Helvetica,sans-Serif" font-size="10.00">+</text>
<text text-anchor="start" x="14" y="-102.5" font-family="Helvetica,sans-Serif" font-size="10.00">RegisterClassDefinition()</text>
<text text-anchor="start" x="4" y="-86.5" font-family="Helvetica,sans-Serif" font-size="10.00">+</text>
<text text-anchor="start" x="14" y="-86.5" font-family="Helvetica,sans-Serif" font-size="10.00">RetrieveClassDefinition()</text>
<text text-anchor="start" x="4" y="-70.5" font-family="Helvetica,sans-Serif" font-size="10.00">+</text>
<text text-anchor="start" x="14" y="-70.5" font-family="Helvetica,sans-Serif" font-size="10.00">AddHandler()</text>
<text text-anchor="start" x="4" y="-54.5" font-family="Helvetica,sans-Serif" font-size="10.00">+</text>
<text text-anchor="start" x="14" y="-54.5" font-family="Helvetica,sans-Serif" font-size="10.00">RemoveHandler()</text>
<text text-anchor="start" x="4" y="-38.5" font-family="Helvetica,sans-Serif" font-size="10.00">+</text>
<text text-anchor="start" x="14" y="-38.5" font-family="Helvetica,sans-Serif" font-size="10.00">Deserialize()</text>
<text text-anchor="start" x="4" y="-22.5" font-family="Helvetica,sans-Serif" font-size="10.00">+</text>
<text text-anchor="start" x="14" y="-22.5" font-family="Helvetica,sans-Serif" font-size="10.00">Deserialize()</text>
<text text-anchor="start" x="4" y="-6.5" font-family="Helvetica,sans-Serif" font-size="10.00">+</text>
<text text-anchor="start" x="14" y="-6.5" font-family="Helvetica,sans-Serif" font-size="10.00">DeserializeFromFile()</text>
<polygon fill="#666666" stroke="#666666" points="0,-162 0,-162 127.5,-162 127.5,-162 0,-162"/>
<polygon fill="#666666" stroke="#666666" points="0,-146 0,-146 127.5,-146 127.5,-146 0,-146"/>
<polygon fill="none" stroke="#666666" points="0,0 0,-192 127.5,-192 127.5,0 0,0"/>
</a>
</g>
</g>
<!-- Node1&#45;&gt;Node2 -->
<g id="edge1_Node000001_Node000002" class="edge">
<title>Node1&#45;&gt;Node2</title>
<g id="a_edge1_Node000001_Node000002"><a xlink:title=" ">
<path fill="none" stroke="#63b8ff" d="M63.75,-217.08C63.75,-209.06 63.75,-200.54 63.75,-191.88"/>
<polygon fill="none" stroke="#63b8ff" points="60.25,-216.91 63.75,-226.91 67.25,-216.91 60.25,-216.91"/>
</a>
</g>
</g>
</g>
</svg>
