<?xml version="1.0" encoding="UTF-8" standalone="no"?>
<!DOCTYPE svg PUBLIC "-//W3C//DTD SVG 1.1//EN"
 "http://www.w3.org/Graphics/SVG/1.1/DTD/svg11.dtd">
<!-- Generated by graphviz version 12.2.1 (20241206.2353)
 -->
<!-- Title: Fiea::Engine::ServiceManager Pages: 1 -->
<svg width="147pt" height="272pt"
 viewBox="0.00 0.00 147.25 272.00" xmlns="http://www.w3.org/2000/svg" xmlns:xlink="http://www.w3.org/1999/xlink">
<g id="graph0" class="graph" transform="scale(1 1) rotate(0) translate(4 268)">
<title>Fiea::Engine::ServiceManager</title>
<!-- Node1 -->
<g id="Node000001" class="node">
<title>Node1</title>
<g id="a_Node000001"><a xlink:title="A service provider object is an abstraction which allows us to retrieve an interface pointer....">
<polygon fill="#999999" stroke="none" points="139.25,-116 0,-116 0,0 139.25,0 139.25,-116"/>
<text text-anchor="start" x="4" y="-102.5" font-family="Helvetica,sans-Serif" font-size="10.00">Fiea::Engine::ServiceManager</text>
<text text-anchor="start" x="68.12" y="-86.5" font-family="Helvetica,sans-Serif" font-size="10.00"> </text>
<text text-anchor="start" x="5.06" y="-70.5" font-family="Helvetica,sans-Serif" font-size="10.00">+</text>
<text text-anchor="start" x="16.12" y="-70.5" font-family="Helvetica,sans-Serif" font-size="10.00">ServiceManager()</text>
<text text-anchor="start" x="5.06" y="-54.5" font-family="Helvetica,sans-Serif" font-size="10.00">+</text>
<text text-anchor="start" x="16.12" y="-54.5" font-family="Helvetica,sans-Serif" font-size="10.00">~ServiceManager()</text>
<text text-anchor="start" x="5.06" y="-38.5" font-family="Helvetica,sans-Serif" font-size="10.00">+</text>
<text text-anchor="start" x="16.12" y="-38.5" font-family="Helvetica,sans-Serif" font-size="10.00">RegisterInterfaceProvider()</text>
<text text-anchor="start" x="5.06" y="-22.5" font-family="Helvetica,sans-Serif" font-size="10.00">+</text>
<text text-anchor="start" x="16.12" y="-22.5" font-family="Helvetica,sans-Serif" font-size="10.00">ProvideInterface()</text>
<text text-anchor="start" x="5.06" y="-6.5" font-family="Helvetica,sans-Serif" font-size="10.00">+</text>
<text text-anchor="start" x="16.12" y="-6.5" font-family="Helvetica,sans-Serif" font-size="10.00">Reset()</text>
<polygon fill="#666666" stroke="#666666" points="0,-98 0,-98 139.25,-98 139.25,-98 0,-98"/>
<polygon fill="#666666" stroke="#666666" points="0,-82 0,-82 139.25,-82 139.25,-82 0,-82"/>
<polygon fill="none" stroke="#666666" points="0,0 0,-116 139.25,-116 139.25,0 0,0"/>
</a>
</g>
</g>
<!-- Node2 -->
<g id="Node000002" class="node">
<title>Node2</title>
<g id="a_Node000002"><a xlink:href="struct_fiea_1_1_engine_1_1_singleton.html" target="_top" xlink:title=" ">
<polygon fill="white" stroke="none" points="129.12,-264 10.12,-264 10.12,-152 129.12,-152 129.12,-264"/>
<text text-anchor="start" x="14.12" y="-250.5" font-family="Helvetica,sans-Serif" font-size="10.00">Fiea::Engine::Singleton</text>
<text text-anchor="start" x="14.12" y="-238.5" font-family="Helvetica,sans-Serif" font-size="10.00">&lt; ServiceManager, true &gt;</text>
<text text-anchor="start" x="28.88" y="-222.5" font-family="Helvetica,sans-Serif" font-size="10.00">#</text>
<text text-anchor="start" x="52.88" y="-222.5" font-family="Helvetica,sans-Serif" font-size="10.00">_Instance</text>
<text text-anchor="start" x="28.5" y="-206.5" font-family="Helvetica,sans-Serif" font-size="10.00">+</text>
<text text-anchor="start" x="52.88" y="-206.5" font-family="Helvetica,sans-Serif" font-size="10.00">Create()</text>
<text text-anchor="start" x="28.5" y="-190.5" font-family="Helvetica,sans-Serif" font-size="10.00">+</text>
<text text-anchor="start" x="52.88" y="-190.5" font-family="Helvetica,sans-Serif" font-size="10.00">Destroy()</text>
<text text-anchor="start" x="28.5" y="-174.5" font-family="Helvetica,sans-Serif" font-size="10.00">+</text>
<text text-anchor="start" x="52.88" y="-174.5" font-family="Helvetica,sans-Serif" font-size="10.00">Instance()</text>
<text text-anchor="start" x="28.5" y="-158.5" font-family="Helvetica,sans-Serif" font-size="10.00">+</text>
<text text-anchor="start" x="52.88" y="-158.5" font-family="Helvetica,sans-Serif" font-size="10.00">Exists()</text>
<polygon fill="#666666" stroke="#666666" points="10.12,-234 10.12,-234 129.12,-234 129.12,-234 10.12,-234"/>
<polygon fill="#666666" stroke="#666666" points="10.12,-218 10.12,-218 50.88,-218 50.88,-218 10.12,-218"/>
<polygon fill="#666666" stroke="#666666" points="50.88,-218 50.88,-218 129.12,-218 129.12,-218 50.88,-218"/>
<polygon fill="none" stroke="#666666" points="10.12,-152 10.12,-264 129.12,-264 129.12,-152 10.12,-152"/>
</a>
</g>
</g>
<!-- Node2&#45;&gt;Node1 -->
<g id="edge1_Node000001_Node000002" class="edge">
<title>Node2&#45;&gt;Node1</title>
<g id="a_edge1_Node000001_Node000002"><a xlink:title=" ">
<path fill="none" stroke="#63b8ff" d="M69.62,-141.03C69.62,-132.66 69.62,-124.15 69.62,-115.94"/>
<polygon fill="none" stroke="#63b8ff" points="66.13,-140.8 69.63,-150.8 73.13,-140.8 66.13,-140.8"/>
</a>
</g>
</g>
</g>
</svg>
