<?xml version="1.0" encoding="UTF-8" standalone="no"?>
<!DOCTYPE svg PUBLIC "-//W3C//DTD SVG 1.1//EN"
 "http://www.w3.org/Graphics/SVG/1.1/DTD/svg11.dtd">
<!-- Generated by graphviz version 12.2.1 (20241206.2353)
 -->
<!-- Title: Fiea::Engine::ServiceManager Pages: 1 -->
<svg width="147pt" height="284pt"
 viewBox="0.00 0.00 147.25 284.00" xmlns="http://www.w3.org/2000/svg" xmlns:xlink="http://www.w3.org/1999/xlink">
<g id="graph0" class="graph" transform="scale(1 1) rotate(0) translate(4 280)">
<title>Fiea::Engine::ServiceManager</title>
<!-- Node1 -->
<g id="Node000001" class="node">
<title>Node1</title>
<g id="a_Node000001"><a xlink:title="A service provider object is an abstraction which allows us to retrieve an interface pointer....">
<polygon fill="#999999" stroke="none" points="139.25,-276 0,-276 0,-160 139.25,-160 139.25,-276"/>
<text text-anchor="start" x="4" y="-262.5" font-family="Helvetica,sans-Serif" font-size="10.00">Fiea::Engine::ServiceManager</text>
<text text-anchor="start" x="68.12" y="-246.5" font-family="Helvetica,sans-Serif" font-size="10.00"> </text>
<text text-anchor="start" x="5.06" y="-230.5" font-family="Helvetica,sans-Serif" font-size="10.00">+</text>
<text text-anchor="start" x="16.12" y="-230.5" font-family="Helvetica,sans-Serif" font-size="10.00">ServiceManager()</text>
<text text-anchor="start" x="5.06" y="-214.5" font-family="Helvetica,sans-Serif" font-size="10.00">+</text>
<text text-anchor="start" x="16.12" y="-214.5" font-family="Helvetica,sans-Serif" font-size="10.00">~ServiceManager()</text>
<text text-anchor="start" x="5.06" y="-198.5" font-family="Helvetica,sans-Serif" font-size="10.00">+</text>
<text text-anchor="start" x="16.12" y="-198.5" font-family="Helvetica,sans-Serif" font-size="10.00">RegisterInterfaceProvider()</text>
<text text-anchor="start" x="5.06" y="-182.5" font-family="Helvetica,sans-Serif" font-size="10.00">+</text>
<text text-anchor="start" x="16.12" y="-182.5" font-family="Helvetica,sans-Serif" font-size="10.00">ProvideInterface()</text>
<text text-anchor="start" x="5.06" y="-166.5" font-family="Helvetica,sans-Serif" font-size="10.00">+</text>
<text text-anchor="start" x="16.12" y="-166.5" font-family="Helvetica,sans-Serif" font-size="10.00">Reset()</text>
<polygon fill="#666666" stroke="#666666" points="0,-258 0,-258 139.25,-258 139.25,-258 0,-258"/>
<polygon fill="#666666" stroke="#666666" points="0,-242 0,-242 139.25,-242 139.25,-242 0,-242"/>
<polygon fill="none" stroke="#666666" points="0,-160 0,-276 139.25,-276 139.25,-160 0,-160"/>
</a>
</g>
</g>
<!-- Node2 -->
<g id="Node000002" class="node">
<title>Node2</title>
<g id="a_Node000002"><a xlink:href="struct_fiea_1_1_engine_1_1_singleton.html" target="_top" xlink:title=" ">
<polygon fill="white" stroke="none" points="129.12,-112 10.12,-112 10.12,0 129.12,0 129.12,-112"/>
<text text-anchor="start" x="14.12" y="-98.5" font-family="Helvetica,sans-Serif" font-size="10.00">Fiea::Engine::Singleton</text>
<text text-anchor="start" x="14.12" y="-86.5" font-family="Helvetica,sans-Serif" font-size="10.00">&lt; ServiceManager, true &gt;</text>
<text text-anchor="start" x="68.12" y="-70.5" font-family="Helvetica,sans-Serif" font-size="10.00"> </text>
<text text-anchor="start" x="28.5" y="-54.5" font-family="Helvetica,sans-Serif" font-size="10.00">+</text>
<text text-anchor="start" x="52.88" y="-54.5" font-family="Helvetica,sans-Serif" font-size="10.00">Create()</text>
<text text-anchor="start" x="28.5" y="-38.5" font-family="Helvetica,sans-Serif" font-size="10.00">+</text>
<text text-anchor="start" x="52.88" y="-38.5" font-family="Helvetica,sans-Serif" font-size="10.00">Destroy()</text>
<text text-anchor="start" x="28.5" y="-22.5" font-family="Helvetica,sans-Serif" font-size="10.00">+</text>
<text text-anchor="start" x="52.88" y="-22.5" font-family="Helvetica,sans-Serif" font-size="10.00">Instance()</text>
<text text-anchor="start" x="28.5" y="-6.5" font-family="Helvetica,sans-Serif" font-size="10.00">+</text>
<text text-anchor="start" x="52.88" y="-6.5" font-family="Helvetica,sans-Serif" font-size="10.00">Exists()</text>
<polygon fill="#666666" stroke="#666666" points="10.12,-82 10.12,-82 129.12,-82 129.12,-82 10.12,-82"/>
<polygon fill="#666666" stroke="#666666" points="10.12,-66 10.12,-66 129.12,-66 129.12,-66 10.12,-66"/>
<polygon fill="none" stroke="#666666" points="10.12,0 10.12,-112 129.12,-112 129.12,0 10.12,0"/>
</a>
</g>
</g>
<!-- Node1&#45;&gt;Node2 -->
<g id="edge2_Node000002_Node000001" class="edge">
<title>Node1&#45;&gt;Node2</title>
<g id="a_edge2_Node000002_Node000001"><a xlink:title=" ">
<path fill="none" stroke="#63b8ff" d="M35.11,-160.31C32.28,-150.39 31.29,-140.03 33.62,-130 34.09,-128.01 34.61,-126.02 35.19,-124.02"/>
<polygon fill="none" stroke="#63b8ff" points="35.19,-124.03 33.34,-117.06 39.06,-112.67 40.91,-119.64 35.19,-124.03"/>
</a>
</g>
<text text-anchor="middle" x="59.12" y="-132.5" font-family="Helvetica,sans-Serif" font-size="10.00" fill="grey"> #_Instance</text>
</g>
<!-- Node2&#45;&gt;Node1 -->
<g id="edge1_Node000001_Node000002" class="edge">
<title>Node2&#45;&gt;Node1</title>
<g id="a_edge1_Node000001_Node000002"><a xlink:title=" ">
<path fill="none" stroke="#63b8ff" d="M87.58,-122.92C87.98,-125.3 88.33,-127.67 88.62,-130 89.88,-139.81 89.32,-150.16 87.78,-160.16"/>
<polygon fill="none" stroke="#63b8ff" points="91.04,-122.37 85.74,-113.2 84.16,-123.68 91.04,-122.37"/>
</a>
</g>
</g>
</g>
</svg>
