<?xml version="1.0" encoding="UTF-8" standalone="no"?>
<!DOCTYPE svg PUBLIC "-//W3C//DTD SVG 1.1//EN"
 "http://www.w3.org/Graphics/SVG/1.1/DTD/svg11.dtd">
<!-- Generated by graphviz version 12.2.1 (20241206.2353)
 -->
<!-- Title: Fiea::Engine::ITimeProvider::Time Pages: 1 -->
<svg width="330pt" height="290pt"
 viewBox="0.00 0.00 330.25 290.00" xmlns="http://www.w3.org/2000/svg" xmlns:xlink="http://www.w3.org/1999/xlink">
<g id="graph0" class="graph" transform="scale(1 1) rotate(0) translate(4 286)">
<title>Fiea::Engine::ITimeProvider::Time</title>
<!-- Node1 -->
<g id="Node000001" class="node">
<title>Node1</title>
<g id="a_Node000001"><a xlink:title=" ">
<polygon fill="#999999" stroke="#666666" points="322.25,-157 184.75,-157 184.75,-125 322.25,-125 322.25,-157"/>
<text text-anchor="start" x="192.75" y="-143.5" font-family="Helvetica,sans-Serif" font-size="10.00">Fiea::Engine::ITimeProvider</text>
<text text-anchor="middle" x="253.5" y="-131.5" font-family="Helvetica,sans-Serif" font-size="10.00">::Time</text>
</a>
</g>
</g>
<!-- Node2 -->
<g id="Node000002" class="node">
<title>Node2</title>
<g id="a_Node000002"><a xlink:href="class_fiea_1_1_engine_1_1_content_1_1_actions_1_1_delayed_action.html#a720f40bf0d06bad69d730adf16eff70d" target="_top" xlink:title="Sets the start time for the action.">
<polygon fill="white" stroke="#666666" points="146.5,-282 2.25,-282 2.25,-250 146.5,-250 146.5,-282"/>
<text text-anchor="start" x="10.25" y="-268.5" font-family="Helvetica,sans-Serif" font-size="10.00">Fiea::Engine::Content</text>
<text text-anchor="middle" x="74.38" y="-256.5" font-family="Helvetica,sans-Serif" font-size="10.00">::Actions::DelayedAction::Init</text>
</a>
</g>
</g>
<!-- Node1&#45;&gt;Node2 -->
<g id="edge1_Node000001_Node000002" class="edge">
<title>Node1&#45;&gt;Node2</title>
<g id="a_edge1_Node000001_Node000002"><a xlink:title=" ">
<path fill="none" stroke="#63b8ff" d="M232.14,-166.12C212.78,-188.54 181.79,-220.85 148.75,-241 143.46,-244.22 137.71,-247.1 131.82,-249.64"/>
<polygon fill="#63b8ff" stroke="#63b8ff" points="234.69,-168.53 238.47,-158.63 229.34,-164.01 234.69,-168.53"/>
</a>
</g>
</g>
<!-- Node3 -->
<g id="Node000003" class="node">
<title>Node3</title>
<g id="a_Node000003"><a xlink:href="class_fiea_1_1_engine_1_1_content_1_1_actions_1_1_timed_action.html#ade3ffd791ef01e27662bd6a329be4948" target="_top" xlink:title="Sets the start time private variable.">
<polygon fill="white" stroke="#666666" points="142,-232 6.75,-232 6.75,-200 142,-200 142,-232"/>
<text text-anchor="start" x="14.75" y="-218.5" font-family="Helvetica,sans-Serif" font-size="10.00">Fiea::Engine::Content</text>
<text text-anchor="middle" x="74.38" y="-206.5" font-family="Helvetica,sans-Serif" font-size="10.00">::Actions::TimedAction::Init</text>
</a>
</g>
</g>
<!-- Node1&#45;&gt;Node3 -->
<g id="edge2_Node000001_Node000003" class="edge">
<title>Node1&#45;&gt;Node3</title>
<g id="a_edge2_Node000001_Node000003"><a xlink:title=" ">
<path fill="none" stroke="#63b8ff" d="M210.89,-162.47C192.14,-171.78 169.57,-182.47 148.75,-191 141.53,-193.96 133.81,-196.86 126.19,-199.58"/>
<polygon fill="#63b8ff" stroke="#63b8ff" points="212.44,-165.61 219.81,-158 209.3,-159.35 212.44,-165.61"/>
</a>
</g>
</g>
<!-- Node4 -->
<g id="Node000004" class="node">
<title>Node4</title>
<g id="a_Node000004"><a xlink:href="class_fiea_1_1_engine_1_1_content_1_1_actions_1_1_delayed_action.html#a2f06440518f0083c5302251ba2d5e3c0" target="_top" xlink:title="Checks if the delay is over. And executes the actions until they all are over.">
<polygon fill="white" stroke="#666666" points="148.75,-182 0,-182 0,-150 148.75,-150 148.75,-182"/>
<text text-anchor="start" x="8" y="-168.5" font-family="Helvetica,sans-Serif" font-size="10.00">Fiea::Engine::Content</text>
<text text-anchor="middle" x="74.38" y="-156.5" font-family="Helvetica,sans-Serif" font-size="10.00">::Actions::DelayedAction::Run</text>
</a>
</g>
</g>
<!-- Node1&#45;&gt;Node4 -->
<g id="edge3_Node000001_Node000004" class="edge">
<title>Node1&#45;&gt;Node4</title>
<g id="a_edge3_Node000001_Node000004"><a xlink:title=" ">
<path fill="none" stroke="#63b8ff" d="M173.1,-152.21C165.13,-153.33 157.06,-154.47 149.16,-155.59"/>
<polygon fill="#63b8ff" stroke="#63b8ff" points="173.36,-155.7 182.77,-150.84 172.38,-148.77 173.36,-155.7"/>
</a>
</g>
</g>
<!-- Node5 -->
<g id="Node000005" class="node">
<title>Node5</title>
<g id="a_Node000005"><a xlink:href="class_fiea_1_1_engine_1_1_content_1_1_actions_1_1_timed_action.html#acaf7a9c271c20baaeeb15b4fa713f323" target="_top" xlink:title="Executes all the actions the TimedAction contains. It checks if the current time is less than the tar...">
<polygon fill="white" stroke="#666666" points="144.25,-132 4.5,-132 4.5,-100 144.25,-100 144.25,-132"/>
<text text-anchor="start" x="12.5" y="-118.5" font-family="Helvetica,sans-Serif" font-size="10.00">Fiea::Engine::Content</text>
<text text-anchor="middle" x="74.38" y="-106.5" font-family="Helvetica,sans-Serif" font-size="10.00">::Actions::TimedAction::Run</text>
</a>
</g>
</g>
<!-- Node1&#45;&gt;Node5 -->
<g id="edge4_Node000001_Node000005" class="edge">
<title>Node1&#45;&gt;Node5</title>
<g id="a_edge4_Node000001_Node000005"><a xlink:title=" ">
<path fill="none" stroke="#63b8ff" d="M172.91,-129.77C163.51,-128.44 153.98,-127.09 144.74,-125.79"/>
<polygon fill="#63b8ff" stroke="#63b8ff" points="172.38,-133.23 182.77,-131.16 173.36,-126.3 172.38,-133.23"/>
</a>
</g>
</g>
<!-- Node6 -->
<g id="Node000006" class="node">
<title>Node6</title>
<g id="a_Node000006"><a xlink:href="namespace_fiea_1_1_engine_1_1_tests.html#adb4afc8b6c0011892d9d69c148e45fe5" target="_top" xlink:title=" ">
<polygon fill="white" stroke="#666666" points="124.75,-82 24,-82 24,-50 124.75,-50 124.75,-82"/>
<text text-anchor="start" x="32" y="-68.5" font-family="Helvetica,sans-Serif" font-size="10.00">Fiea::Engine::Tests</text>
<text text-anchor="middle" x="74.38" y="-56.5" font-family="Helvetica,sans-Serif" font-size="10.00">::TEST_CLASS</text>
</a>
</g>
</g>
<!-- Node1&#45;&gt;Node6 -->
<g id="edge5_Node000001_Node000006" class="edge">
<title>Node1&#45;&gt;Node6</title>
<g id="a_edge5_Node000001_Node000006"><a xlink:title=" ">
<path fill="none" stroke="#63b8ff" d="M210.89,-119.53C192.14,-110.22 169.57,-99.53 148.75,-91 141.15,-87.89 133.01,-84.84 125.01,-82"/>
<polygon fill="#63b8ff" stroke="#63b8ff" points="209.3,-122.65 219.81,-124 212.44,-116.39 209.3,-122.65"/>
</a>
</g>
</g>
<!-- Node7 -->
<g id="Node000007" class="node">
<title>Node7</title>
<g id="a_Node000007"><a xlink:href="namespace_fiea_1_1_engine_1_1_tests.html#ac5649971ac3bf0ed64a9afba695697bf" target="_top" xlink:title=" ">
<polygon fill="white" stroke="#666666" points="124.75,-32 24,-32 24,0 124.75,0 124.75,-32"/>
<text text-anchor="start" x="32" y="-18.5" font-family="Helvetica,sans-Serif" font-size="10.00">Fiea::Engine::Tests</text>
<text text-anchor="middle" x="74.38" y="-6.5" font-family="Helvetica,sans-Serif" font-size="10.00">::TEST_CLASS</text>
</a>
</g>
</g>
<!-- Node1&#45;&gt;Node7 -->
<g id="edge6_Node000001_Node000007" class="edge">
<title>Node1&#45;&gt;Node7</title>
<g id="a_edge6_Node000001_Node000007"><a xlink:title=" ">
<path fill="none" stroke="#63b8ff" d="M232.14,-115.88C212.78,-93.46 181.79,-61.15 148.75,-41 141.4,-36.52 133.13,-32.71 124.88,-29.53"/>
<polygon fill="#63b8ff" stroke="#63b8ff" points="229.34,-117.99 238.47,-123.37 234.69,-113.47 229.34,-117.99"/>
</a>
</g>
</g>
</g>
</svg>
