<?xml version="1.0" encoding="UTF-8" standalone="no"?>
<!DOCTYPE svg PUBLIC "-//W3C//DTD SVG 1.1//EN"
 "http://www.w3.org/Graphics/SVG/1.1/DTD/svg11.dtd">
<!-- Generated by graphviz version 12.2.1 (20241206.2353)
 -->
<!-- Title: Fiea::Engine::GameObject::Transform Pages: 1 -->
<svg width="132pt" height="104pt"
 viewBox="0.00 0.00 131.50 104.00" xmlns="http://www.w3.org/2000/svg" xmlns:xlink="http://www.w3.org/1999/xlink">
<g id="graph0" class="graph" transform="scale(1 1) rotate(0) translate(4 100)">
<title>Fiea::Engine::GameObject::Transform</title>
<!-- Node1 -->
<g id="Node000001" class="node">
<title>Node1</title>
<g id="a_Node000001"><a xlink:title=" ">
<polygon fill="#999999" stroke="none" points="123.5,-96 0,-96 0,0 123.5,0 123.5,-96"/>
<text text-anchor="start" x="4" y="-82.5" font-family="Helvetica,sans-Serif" font-size="10.00">Fiea::Engine::GameObject</text>
<text text-anchor="start" x="36.62" y="-70.5" font-family="Helvetica,sans-Serif" font-size="10.00">::Transform</text>
<text text-anchor="start" x="19.88" y="-54.5" font-family="Helvetica,sans-Serif" font-size="10.00">+</text>
<text text-anchor="start" x="45.75" y="-54.5" font-family="Helvetica,sans-Serif" font-size="10.00">_Position</text>
<text text-anchor="start" x="19.88" y="-38.5" font-family="Helvetica,sans-Serif" font-size="10.00">+</text>
<text text-anchor="start" x="45.75" y="-38.5" font-family="Helvetica,sans-Serif" font-size="10.00">_Rotation</text>
<text text-anchor="start" x="19.88" y="-22.5" font-family="Helvetica,sans-Serif" font-size="10.00">+</text>
<text text-anchor="start" x="45.75" y="-22.5" font-family="Helvetica,sans-Serif" font-size="10.00">_Scale</text>
<text text-anchor="start" x="60.25" y="-6.5" font-family="Helvetica,sans-Serif" font-size="10.00"> </text>
<polygon fill="#666666" stroke="#666666" points="0,-66 0,-66 123.5,-66 123.5,-66 0,-66"/>
<polygon fill="#666666" stroke="#666666" points="0,-18 0,-18 43.75,-18 43.75,-18 0,-18"/>
<polygon fill="#666666" stroke="#666666" points="43.75,-18 43.75,-18 123.5,-18 123.5,-18 43.75,-18"/>
<polygon fill="none" stroke="#666666" points="0,0 0,-96 123.5,-96 123.5,0 0,0"/>
</a>
</g>
</g>
</g>
</svg>
